<svg xmlns="http://www.w3.org/2000/svg" viewBox="0 0 53.25 29.47"><defs><style>.cls-1{fill:#db0012;}.cls-2{fill:#fff;}</style></defs><title>자산 2</title><g id="레이어_2" data-name="레이어 2"><g id="레이어_1-2" data-name="레이어 1"><path class="cls-1" d="M53.25,14.73c0,8.14-11.92,14.74-26.62,14.74S0,22.87,0,14.73,11.92,0,26.63,0,53.25,6.6,53.25,14.73Z"/><path class="cls-2" d="M14.18,19.64,13.69,19l.41-.51a1.35,1.35,0,0,0,.27.2.49.49,0,0,0,.23.08h2.82v.85Zm2.64,2.69a1.78,1.78,0,0,1-2.27,0,1.31,1.31,0,0,1-.44-1,1.28,1.28,0,0,1,.44-1,1.65,1.65,0,0,1,1.14-.38,1.63,1.63,0,0,1,1.13.38,1.26,1.26,0,0,1,.46,1A1.31,1.31,0,0,1,16.82,22.33Zm-2.1-4V17.5h2.06v.86Zm1.46,2.53a.74.74,0,0,0-.49-.15.76.76,0,0,0-.5.15.48.48,0,0,0-.19.41.47.47,0,0,0,.19.4.76.76,0,0,0,.5.15.74.74,0,0,0,.49-.15.47.47,0,0,0,.19-.4A.48.48,0,0,0,16.18,20.89Zm2.44-.2V24.4h-1V18.3c0-.07-.06-.14-.17-.19a.69.69,0,0,0-.36-.09l.16-.72,1.38.16v.17l.1-.41,1.3.16v7.1H19V20.69Zm0-1H19V18.22a.28.28,0,0,0-.08-.15.55.55,0,0,0-.3-.13Z"/><path class="cls-2" d="M21.72,23.51l-.48-.7.4-.51a2.22,2.22,0,0,0,.27.19.53.53,0,0,0,.23.08h2.1V20.74l1.05,0v1.86H28v.94Zm5.2-2.1a4.5,4.5,0,0,1-1.18-.59,3.47,3.47,0,0,1-.94-.93,4.51,4.51,0,0,1-1,1,4.16,4.16,0,0,1-1.19.6l-1-.23,0-.64.37,0A2.44,2.44,0,0,0,23.38,20a2.41,2.41,0,0,0,.82-1.35H22.6l-.47-.7.39-.51a1.48,1.48,0,0,0,.27.19.52.52,0,0,0,.24.08h4.33v.94h-2A2.21,2.21,0,0,0,26,19.8a3,3,0,0,0,1.49.75h.35l.05.63Z"/><path class="cls-2" d="M29.28,21.05V18.56h-.09l-.47-.7.39-.51a1.48,1.48,0,0,0,.27.19.53.53,0,0,0,.23.08h3v.64H33.7v0c0-.07-.05-.14-.16-.19a1,1,0,0,0-.36-.1l.15-.71,1.42.16v4.05h-1v-.89H32.58v.51Zm2.26-2.49H30.33V20.1h1.21Zm2.57,5.87a2.06,2.06,0,0,1-2.76,0,1.67,1.67,0,0,1-.56-1.25,1.64,1.64,0,0,1,.56-1.25,2,2,0,0,1,1.38-.53,2,2,0,0,1,1.38.53,1.62,1.62,0,0,1,.57,1.25A1.65,1.65,0,0,1,34.11,24.43Zm-.73-1.84a1,1,0,0,0-.65-.23,1,1,0,0,0-.65.23.76.76,0,0,0-.27.59.74.74,0,0,0,.27.58,1,1,0,0,0,.65.24.93.93,0,0,0,.65-.24.72.72,0,0,0,.28-.58A.74.74,0,0,0,33.38,22.59Zm-.8-3H33.7v-.39H32.58Z"/><path class="cls-2" d="M39.37,20.53a5.55,5.55,0,0,1-2.21,2.09l-1-.22.12-.65h0l.14,0h.11a3.71,3.71,0,0,0,1.68-1.29,4.77,4.77,0,0,0,.85-1.86H37l-.47-.7.4-.51a1.48,1.48,0,0,0,.27.19.53.53,0,0,0,.23.08h2.85A6.14,6.14,0,0,1,39.37,20.53Zm2.81.16v3.79h-1V18.22c0-.07-.06-.14-.17-.19a1.18,1.18,0,0,0-.36-.1l.16-.71,1.42.16v2.36h1.18v1Z"/><path class="cls-2" d="M44.34,10.72s-3.48.86-4.6.54a2.32,2.32,0,0,1-1.9-1.15L34.75,4.86H17.4s-.47,3.34-2.16,4.31c0,0-.82-2.37-3.91-1.4,0,0-1,.18-1.3,1.91a2.38,2.38,0,0,0-2.69,2.4,2.48,2.48,0,0,0,1.26,1.8s-.15,3.34,3.7,3.41c0,0,2.26-.36,2.3-3.34l0-.14.54-.07a32.52,32.52,0,0,0,11.82,2s7,.36,17.75-2.69ZM11.65,12.87l-.14.87a5.22,5.22,0,0,0,2,.28,1.94,1.94,0,0,1-2.23,2.27A3,3,0,0,1,9.6,13.2C8.13,12.66,8.42,12,8.42,12c.18-1.4,1.94-1.36,1.94-1.36a.7.7,0,0,0,.75-.29,1.51,1.51,0,0,1,.4-1.62c2.19-.75,2.87.94,2.87.94-.29.28-2.15.1-2.15.1l-.26,1a5.37,5.37,0,0,0,2.52,0c3.3-1.08,3.7-4.88,3.7-4.88l1.65,0c-1.54,5.57-4.38,6.57-4.38,6.57C14.06,13.31,11.65,12.87,11.65,12.87Zm4.88.16a8.88,8.88,0,0,0,2.67-2.91h2.17v-.06H19.24c.26-.44.48-.88.67-1.29h1.46V8.7H19.94a14.51,14.51,0,0,0,.94-2.81h1.46V7.06h-1v.06h1V9.31h-1v.07h1v1.26H20.76v.06h1.56v3.67A24.27,24.27,0,0,1,16.53,13Zm7.08,1.43V8.13h2.14V8.07H23.61V5.89l3.34,0V7.11H24.9v.06H27V9.39h-1.6v.07H27v1.18H24.63v.06H27v4A24.81,24.81,0,0,1,23.61,14.46Zm4.54.2,0-5.2h.61V9.39h-.61V5.86h3.21v1H28.85v.07h2.48V8.2H29.75v.06h1.58v1H29.46v.06h1.87v1.29H28.85v.07h2.48V14.5C30.26,14.59,28.15,14.66,28.15,14.66Zm15.42-2.31c-1.59.62-11,2.05-11,2.05l0-3.42h1.22v-.06H32.54V9.65h1.23V9.59H32.53V8.26h0V8.2h0V7.32h1.25V7.26H32.51V5.86l1.66,0,1.78,3H34.52v.06H36L36.66,10h-2.8v.06H36.7l.38.64c1.52,2.6,6.49,1.2,6.49,1.2Z"/></g></g></svg>