<svg xmlns="http://www.w3.org/2000/svg" viewBox="0 0 9.27 123.43"><defs><style>.cls-1{fill:#231815;}</style></defs><title>자산 230</title><g id="레이어_2" data-name="레이어 2"><g id="레이어_1-2" data-name="레이어 1"><path class="cls-1" d="M7.73,4.83a3.53,3.53,0,0,0,.6-2C8.33,1.66,7.71,1,6.83,1,5.77,1,5.37,2,4.77,3.29S3.52,5.58,2.28,5.58C.69,5.58,0,4.18,0,2.8A4.42,4.42,0,0,1,1,0l.45.29A4.13,4.13,0,0,0,.52,2.72C.52,3.65.94,5,2.26,5c.92,0,1.49-.81,2.11-2.17S5.48.33,6.77.33c1.56,0,2.06,1.31,2.06,2.48a4.62,4.62,0,0,1-.65,2.28Z"/><path class="cls-1" d="M.57,11.72A3.36,3.36,0,0,1,0,9.84,3,3,0,0,1,3.18,6.77c1.95,0,3.38,1.11,3.38,2.75A2.74,2.74,0,0,1,3.64,12.2H3.26V7.37A2.55,2.55,0,0,0,.49,9.89,3,3,0,0,0,1,11.49Zm3.18-.09a2.19,2.19,0,0,0,2.34-2.1A2.43,2.43,0,0,0,3.75,7.4Z"/><path class="cls-1" d="M6.08,13.87a3.47,3.47,0,0,1,.48,2,2.29,2.29,0,0,1-1.2,2A2.72,2.72,0,0,1,4.29,18h-3a5.33,5.33,0,0,0-1.18.08v-.51A4.69,4.69,0,0,1,1,17.37a2.69,2.69,0,0,1-1-2.23,2,2,0,0,1,2-2.08c1.51,0,2.14,1.12,2.14,3.08a12.54,12.54,0,0,1-.07,1.27h.18c1,0,1.84-.49,1.84-1.63a3.41,3.41,0,0,0-.45-1.67ZM3.63,17.41a10.8,10.8,0,0,0,.06-1.16c0-1.73-.55-2.59-1.63-2.59A1.55,1.55,0,0,0,.49,15.28a2,2,0,0,0,1.77,2.13Z"/><path class="cls-1" d="M.9,25.24l5.44,1.54v.56L.15,25.52v-.58l5.74-1.61L.15,21.72v-.6l6.19-1.81v.56L.9,21.41,6.34,23v.65Z"/><path class="cls-1" d="M.57,33.2A3.42,3.42,0,0,1,0,31.31a3,3,0,0,1,3.17-3.07c1.95,0,3.38,1.11,3.38,2.75a2.74,2.74,0,0,1-2.92,2.68H3.26V28.84A2.56,2.56,0,0,0,.49,31.36,3.08,3.08,0,0,0,1,33Zm3.18-.1A2.19,2.19,0,0,0,6.09,31a2.42,2.42,0,0,0-2.34-2.13Z"/><path class="cls-1" d="M.57,39.65A3.42,3.42,0,0,1,0,37.76a3,3,0,0,1,3.17-3.07c1.95,0,3.38,1.11,3.38,2.76a2.74,2.74,0,0,1-2.92,2.68,1.85,1.85,0,0,1-.38,0V35.29A2.56,2.56,0,0,0,.49,37.81,3.08,3.08,0,0,0,1,39.42Zm3.18-.1a2.19,2.19,0,0,0,2.34-2.09,2.42,2.42,0,0,0-2.34-2.13Z"/><path class="cls-1" d="M6.56,43.92a2.33,2.33,0,0,1-1.43,2.21H9v.6H.15v-.6H1.42A2.33,2.33,0,0,1,0,43.87c0-1.6,1.22-2.72,3.24-2.72S6.56,42.18,6.56,43.92Zm-.47,0c0-1.49-1.43-2.15-2.84-2.15S.49,42.44.49,43.93s1.21,2.2,2.76,2.2h.1C5.1,46.13,6.09,45.24,6.09,43.93Z"/><path class="cls-1" d="M2.48,56l5.24-2.89H.15v-.61H8.69v.73L3,56.36l5.67,3.08v.74H.15v-.61H7.72L2.48,56.68Z"/><path class="cls-1" d="M6.08,62.41a3.52,3.52,0,0,1,.48,2,2.26,2.26,0,0,1-1.2,2,2.54,2.54,0,0,1-1.07.16h-3a6,6,0,0,0-1.18.07V66.1A4.68,4.68,0,0,1,1,65.92a2.72,2.72,0,0,1-1-2.23,2,2,0,0,1,2-2.08c1.51,0,2.14,1.12,2.14,3.08A12.69,12.69,0,0,1,4.07,66h.18c1,0,1.84-.49,1.84-1.63a3.41,3.41,0,0,0-.45-1.67ZM3.63,66a10.8,10.8,0,0,0,.06-1.16c0-1.73-.55-2.59-1.63-2.59A1.55,1.55,0,0,0,.49,63.83,2,2,0,0,0,2.26,66Z"/><path class="cls-1" d="M5.14,69.28a2.41,2.41,0,0,1,1.42,2.2A2.18,2.18,0,0,1,4.25,73.8H.15v-.61h4a1.79,1.79,0,0,0,2-1.79,2.29,2.29,0,0,0-2.4-2.12H.15v-.61H6.34v.61Z"/><path class="cls-1" d="M1.42,80.21A2.4,2.4,0,0,1,0,78a2.16,2.16,0,0,1,2.3-2.3h4v.61H2.42A1.77,1.77,0,0,0,.47,78.09a2.28,2.28,0,0,0,2.4,2.12H6.34v.61H.15v-.61Z"/><path class="cls-1" d="M6.37,83.22h.86a3.36,3.36,0,0,1,1,.14,1.54,1.54,0,0,1,1.06,1.48,3,3,0,0,1-.19,1l-.46-.17A2,2,0,0,0,8.74,85a1.06,1.06,0,0,0-.62-1,2.22,2.22,0,0,0-.85-.13h-.9v1.4H5.88v-1.4H.13v-.61H5.88v-1h.49Z"/><path class="cls-1" d="M6.08,86.71a3.5,3.5,0,0,1,.48,2,2.26,2.26,0,0,1-1.2,2,2.71,2.71,0,0,1-1.07.16h-3a6,6,0,0,0-1.18.07V90.4A4.68,4.68,0,0,1,1,90.22,2.72,2.72,0,0,1,0,88a2,2,0,0,1,2-2.08C3.51,85.91,4.14,87,4.14,89a12.36,12.36,0,0,1-.07,1.26h.18c1,0,1.84-.48,1.84-1.63A3.43,3.43,0,0,0,5.64,87ZM3.63,90.25a10.63,10.63,0,0,0,.06-1.15c0-1.73-.55-2.6-1.63-2.6A1.56,1.56,0,0,0,.49,88.12a2,2,0,0,0,1.77,2.13Z"/><path class="cls-1" d="M.71,97.53a2.93,2.93,0,0,1-.7-2,3.07,3.07,0,0,1,3.25-3.11,3,3,0,0,1,3.3,3.13,4.21,4.21,0,0,1-.45,1.81l-.4-.24a3.6,3.6,0,0,0,.38-1.57A2.59,2.59,0,0,0,3.25,93,2.57,2.57,0,0,0,.49,95.6,2.73,2.73,0,0,0,1,97.24Z"/><path class="cls-1" d="M8.07,99.25l.21.61H6.34v1.56H5.86V99.86H1.61c-.9,0-1.1.62-1.1,1.45H0c0-1.27.33-2.06,1.55-2.06H5.86V98.19h.48v1.06Z"/><path class="cls-1" d="M1.42,107.35A2.42,2.42,0,0,1,0,105.14a2.16,2.16,0,0,1,2.3-2.3h4v.61H2.42a1.78,1.78,0,0,0-1.95,1.78,2.29,2.29,0,0,0,2.4,2.12H6.34v.6H.15v-.6Z"/><path class="cls-1" d="M5.09,110.78a2.35,2.35,0,0,1,1.47,2.32H6a.37.37,0,0,0,0-.17,2.24,2.24,0,0,0-2.2-2.15H.15v-.61H6.34v.61Z"/><path class="cls-1" d="M.57,118.51A3.42,3.42,0,0,1,0,116.62a3,3,0,0,1,3.17-3.07c1.95,0,3.38,1.11,3.38,2.75A2.74,2.74,0,0,1,3.64,119H3.26v-4.82a2.56,2.56,0,0,0-2.77,2.52A3.08,3.08,0,0,0,1,118.28Zm3.18-.1a2.19,2.19,0,0,0,2.34-2.09,2.42,2.42,0,0,0-2.34-2.13Z"/><path class="cls-1" d="M5.09,121.1a2.36,2.36,0,0,1,1.47,2.33H6a.42.42,0,0,0,0-.17,2.24,2.24,0,0,0-2.2-2.16H.15v-.61H6.34v.61Z"/></g></g></svg>