<?xml version="1.0" encoding="UTF-8"?><svg id="_레이어_2" xmlns="http://www.w3.org/2000/svg" viewBox="0 0 335.59 11.57"><defs><style>.cls-1{fill:#595757;}</style></defs><g id="_레이어_1-2"><g><path class="cls-1" d="M0,8.59c.94,.01,2.15,0,3.22-.04v-2.24h.91v2.22c1.21-.04,2.6-.12,3.52-.22v.74c-1.8,.28-5.05,.31-7.65,.31v-.78Zm6.61-2.21c-1.07-.47-2.26-1.25-2.88-2.42-.52,1.14-1.79,2.09-2.96,2.54l-.49-.64c1.59-.67,2.96-1.66,2.96-3.36v-.16H.6v-.74H3.24V0h.93V1.61h2.63v.74h-2.63v.16c0,1.63,1.34,2.65,2.85,3.15l-.4,.72Zm2.51,4.98h-.88V.11h.88V11.36Z"/><path class="cls-1" d="M16.56,6.38c-1.01-.41-2.44-1.28-2.93-2.4-.51,1.29-1.76,2.1-2.91,2.69l-.52-.6c1.45-.73,2.95-1.7,2.95-3.56V.49h.92V2.5c0,1.8,1.53,2.65,2.88,3.2l-.4,.68Zm3.02,4.8h-7.38v-3.63h.91v2.88h6.47v.75Zm-.26-3.13h-.88V.11h.88v7.94Z"/><path class="cls-1" d="M23.53,6.3c2.27,.01,5.69-.07,7.63-.28v.74c-.94,.14-2.26,.23-3.66,.26v3.97h-.89v-3.95c-1.05,.02-2.11,.02-3.08,.02v-.78Zm6.59-3.62c0,1.46-1.27,2.35-2.98,2.35s-2.98-.86-2.98-2.35,1.35-2.38,2.98-2.38,2.98,.85,2.98,2.38Zm-2.98-1.64c-1.19,0-2.12,.67-2.12,1.63s.92,1.62,2.12,1.62c1.27,0,2.11-.66,2.11-1.62s-.88-1.63-2.11-1.63Zm5.6,10.33h-.88V.11h.88V11.36Z"/><path class="cls-1" d="M38.86,6.15c-.95-.54-1.95-1.33-2.32-2.25-.29,.95-1.24,1.86-2.36,2.57l-.57-.62c1.06-.64,2.47-1.74,2.47-3.33V.6h.89v1.91c0,1.52,1.33,2.45,2.33,2.96l-.45,.68Zm4.48,3.14c0,1.75-1.94,2.28-3.75,2.28s-3.72-.53-3.72-2.28,2.01-2.3,3.72-2.3,3.75,.56,3.75,2.3Zm-.94,.01c0-1.2-1.53-1.59-2.8-1.59s-2.79,.4-2.79,1.59,1.55,1.54,2.79,1.54,2.8-.35,2.8-1.54Zm.85-2.53h-.88V3.45h-1.61v2.87h-.87V.17h.87V2.65h1.61V.11h.88V6.78Z"/><path class="cls-1" d="M50.31,5.59c-1.02-.41-2.44-1.28-2.94-2.4-.51,1.29-1.76,2.09-2.91,2.67l-.52-.6c1.46-.72,2.95-1.7,2.95-3.56V.31h.93V1.69c0,1.8,1.52,2.66,2.88,3.21l-.4,.68Zm3.32,5.83h-7.46v-2.83h6.26v-1.43h-6.26v-.71h7.18v2.83h-6.25v1.43h6.53v.71Zm-.32-5.6h-.88V2.84h-2.42v-.76h2.42V.11h.88V5.82Z"/><path class="cls-1" d="M60.31,8.3h-5.18V.9h.88V3.71h3.41V.9h.88v7.4Zm-.88-.76v-3.07h-3.41v3.07h3.41ZM62.71,.11h.89V11.36h-.89V.11Z"/><path class="cls-1" d="M64.55,8.44c.92,.01,1.96,0,3.01-.02v-1.92h.91v1.88c1.24-.04,2.44-.11,3.37-.2v.74c-1.8,.28-4.67,.31-7.28,.31v-.79Zm3.49-2.49c-1.73,0-3.04-1.1-3.04-2.71s1.33-2.72,2.98-2.72c1.82,0,2.98,1.25,2.98,2.76s-1.12,2.67-2.92,2.67Zm2.01-2.7c0-1.16-.78-1.94-2.07-1.94s-2.07,.88-2.07,1.94c0,1.15,.79,1.94,2.09,1.94s2.05-.78,2.05-1.94ZM73.49,.11V4.63h1.86v.77h-1.86v5.96h-.88V.11h.88Z"/><path class="cls-1" d="M83.77,.66c-.15,3.49-2.68,4.94-4.91,5.73l-.46-.66c2.2-.78,4.22-2.1,4.4-4.33h-3.83V.66h4.8Zm3.41,10.64h-7.09V7.04h7.09v4.26Zm-.89-.73v-2.79h-5.31v2.79h5.31Zm.89-4.15h-.89V.11h.89V6.42Z"/><path class="cls-1" d="M88.56,8.1c2.27,.01,5.69-.07,7.63-.28v.74c-1.8,.26-5.04,.31-7.63,.31v-.78Zm3.56-1.99c-1.73,0-3.04-1.12-3.04-2.72s1.33-2.71,2.98-2.71c1.82,0,2.98,1.24,2.98,2.75s-1.12,2.69-2.92,2.69Zm2.01-2.71c0-1.16-.78-1.94-2.07-1.94s-2.08,.88-2.08,1.94c0,1.15,.8,1.94,2.11,1.94s2.05-.78,2.05-1.94Zm3.65,7.96h-.88V.11h.88V11.36Z"/><path class="cls-1" d="M105.57,1.46v1.09c0,1.8,1.47,2.65,2.82,3.2l-.4,.68c-1.02-.4-2.36-1.28-2.87-2.4-.49,1.29-1.71,2.1-2.85,2.69l-.52-.6c1.45-.73,2.89-1.7,2.89-3.56V1.46h-2.34V.72h5.59v.74h-2.33Zm5.62,9.71h-7.38v-3.63h.91v2.88h6.47v.75Zm-.26-3.13h-.88V3.77h-2.31v-.75h2.31V.11h.88v7.94Z"/><path class="cls-1" d="M122.35,6.51h-4.6v2.36h-.89v-2.36h-4.87v-.76h10.36v.76Zm-1.02,4.67h-7.91v-3.45h.89v2.7h7.01v.75Zm-.51-6.85h-7.32V.46h7.32v3.87Zm-.87-.77V1.22h-5.56V3.56h5.56Z"/><path class="cls-1" d="M127.66,.96c-.04,4.56-2,6.5-4.69,7.99l-.6-.68c2.98-1.58,4.32-3.61,4.33-6.56h-3.99V.96h4.95Zm3.24-.85V4.44h1.96v.79h-1.96v6.13h-.89V.11h.89Z"/><path class="cls-1" d="M138,.96c-.04,4.56-2,6.5-4.69,7.99l-.6-.68c2.98-1.58,4.32-3.61,4.33-6.56h-3.99V.96h4.95Zm3.24-.85V4.44h1.96v.79h-1.96v6.13h-.89V.11h.89Z"/><path class="cls-1" d="M149.21,.37c1.79,0,2.89,1.24,2.89,2.66s-1.04,2.66-2.89,2.66-2.89-1.22-2.89-2.66,1.11-2.66,2.89-2.66Zm2,2.66c0-1.02-.72-1.92-2-1.92-1.36,0-2,.9-2,1.92s.6,1.91,2,1.91c1.32,0,2-.88,2-1.91Zm3.99,8.26h-7.09V7.04h7.09v4.26Zm-.89-.73v-2.79h-5.31v2.79h5.31Zm-1.79-7.94h1.79V.11h.89V6.36h-.89V3.38h-1.79v-.75Z"/><path class="cls-1" d="M162.68,6.38c-1.02-.41-2.44-1.28-2.94-2.4-.51,1.29-1.76,2.1-2.91,2.69l-.51-.6c1.45-.73,2.94-1.7,2.94-3.56V.49h.93V2.5c0,1.8,1.53,2.65,2.88,3.2l-.4,.68Zm3.2,4.8h-7.38v-3.63h.91v2.88h6.47v.75Zm-.26-3.13h-.88V3.27h-2.42v-.76h2.42V.11h.88v7.94Z"/><path class="cls-1" d="M173.12,2.09h-6.62v-.72h2.85V0h.94V1.37h2.83v.72Zm-3.31,5.05c-1.63,0-2.69-1.03-2.69-2.23s1.07-2.17,2.71-2.17,2.67,.94,2.67,2.17-.99,2.23-2.68,2.23Zm-1.8-2.24c0,.84,.6,1.54,1.81,1.54s1.79-.65,1.79-1.54c0-.84-.58-1.48-1.79-1.48s-1.81,.64-1.81,1.48Zm7.72,6.28h-7.33v-3.26h.91v2.51h6.42v.75Zm-.39-11.07V3.81h1.81v.77h-1.81v3.69h-.88V.11h.88Z"/><path class="cls-1" d="M186.41,2.09h-6.62v-.72h2.85V0h.94V1.37h2.83v.72Zm-3.31,5.05c-1.64,0-2.69-1.03-2.69-2.23s1.07-2.17,2.71-2.17,2.67,.94,2.67,2.17-.99,2.23-2.68,2.23Zm-1.8-2.24c0,.84,.6,1.54,1.81,1.54s1.79-.65,1.79-1.54c0-.84-.58-1.48-1.79-1.48s-1.81,.64-1.81,1.48Zm7.72,6.28h-7.33v-3.26h.91v2.51h6.42v.75Zm-.39-11.07V3.81h1.81v.77h-1.81v3.69h-.88V.11h.88Z"/><path class="cls-1" d="M200.67,5.28h-4.74v2.04h3.29v4.1h-.89v-3.35h-6.73v-.75h3.4v-2.04h-4.69v-.76h7.56c.12-.76,.34-2.48,.35-3.31h-6.48V.44h7.46c-.04,1.02-.26,3.12-.41,4.08h1.88v.76Z"/><path class="cls-1" d="M206.72,6.38c-1.02-.41-2.44-1.28-2.94-2.4-.51,1.29-1.76,2.1-2.91,2.69l-.52-.6c1.45-.73,2.95-1.7,2.95-3.56V.49h.93V2.5c0,1.8,1.52,2.65,2.87,3.2l-.39,.68Zm3,4.8h-7.33v-3.63h.91v2.88h6.42v.75Zm-.39-11.07V3.2h1.81v.77h-1.81v4.14h-.88V.11h.88Z"/><path class="cls-1" d="M214.2,5.27c2.27,.01,5.53-.07,7.46-.26v.71c-.98,.14-2.35,.23-3.8,.28v1.8h-.89v-1.79c-.94,.02-1.88,.02-2.76,.02v-.75Zm3.49-4.98c1.64,0,2.78,.79,2.78,2s-1.12,2.01-2.78,2.01-2.79-.77-2.79-2.01,1.19-2,2.79-2Zm0,.68c-1.29,0-1.92,.55-1.92,1.32s.65,1.31,1.93,1.31,1.92-.56,1.92-1.31-.62-1.32-1.93-1.32Zm5.92,10.21h-7.68v-2.81h.89v2.05h6.79v.75Zm-.29-2.48h-.88v-1.16h-2.69v-.77h2.69V.11h.88V8.7Z"/><path class="cls-1" d="M234.66,9.77h-10.36v-.77h4.71v-2.61h.92v2.61h4.74v.77Zm-4.73-8.12h3.39v.77h-3.38v.31c0,1.61,2.29,2.95,3.98,3.53l-.51,.65c-1.41-.44-3.26-1.62-3.94-2.9-.66,1.28-2.37,2.34-3.94,2.91l-.51-.67c1.66-.52,3.96-1.91,3.96-3.51v-.31h-3.35v-.77h3.36V0h.93V1.66Z"/><path class="cls-1" d="M240.28,7.35v1.81h4.73v.76h-10.36v-.76h4.72v-1.81h.92Zm-4.15-.5V3.42h6.44V1.55h-6.47V.79h7.36v3.37h-6.42v1.93h6.79v.76h-7.69Z"/><path class="cls-1" d="M253.33,6.01h-5.02V.72h5.02V6.01Zm-.88-.74V1.46h-3.26v3.8h3.26Zm4.55,5.91h-7.34v-3.79h.91v3.04h6.43v.75Zm-.4-11.07V3.31h1.81v.76h-1.81v4.1h-.88V.11h.88Z"/><path class="cls-1" d="M268.65,6.68h-10.36v-.77h10.36v.77Zm-1.02,4.5h-7.91v-3.29h.89v2.53h7.01v.75Zm-7.85-6.73V.46h7.44v.77h-6.55V3.69h6.68v.76h-7.56Z"/><path class="cls-1" d="M281.94,9.46h-10.36v-.76h3.82V4.58h.91v4.12h5.63v.76Zm-2.85-2.31c.31-1.6,.52-3.65,.52-5.43h-6.67V.96h7.65c-.07,2.41-.29,4.38-.6,6.19h-.89Z"/><path class="cls-1" d="M292.29,5.22h-10.36v-.76h7.52c.15-1,.36-2.57,.39-3.27h-6.47V.42h7.45c-.01,.79-.27,2.91-.44,4.04h1.92v.76Zm-1.45,6.08h-7.48V6.34h.88v1.63h5.72v-1.63h.88v4.95Zm-.88-.73v-1.86h-5.72v1.86h5.72Z"/><path class="cls-1" d="M298.03,.66c-.15,3.49-2.68,4.94-4.91,5.73l-.46-.66c2.2-.78,4.22-2.1,4.4-4.33h-3.83V.66h4.8Zm3.41,10.64h-7.09V7.04h7.09v4.26Zm-.89-.73v-2.79h-5.31v2.79h5.31Zm.89-4.15h-.89V.11h.89V6.42Z"/><path class="cls-1" d="M305.97,.34c1.72,0,2.89,1.18,2.89,2.59s-1.15,2.54-2.89,2.54-2.89-1.09-2.89-2.54,1.19-2.59,2.89-2.59Zm2,2.59c0-1.01-.78-1.85-2-1.85-1.29,0-2,.84-2,1.85s.71,1.85,2,1.85c1.22,0,2-.8,2-1.85Zm3.87,8.37h-7.09V6.45h.89v1.66h5.31v-1.66h.89v4.85Zm-.89-.73v-1.73h-5.31v1.73h5.31Zm.89-4.73h-.89V.11h.89V5.84Z"/><path class="cls-1" d="M320.2,7.93c-1.88,.26-4.38,.26-6.22,.26V.83h.91V7.4c2.05,0,3.72-.05,5.32-.24v.77Zm1.89,3.43h-.89V.11h.89V11.36Z"/><path class="cls-1" d="M330.08,8.01c-1.98,.29-4.42,.26-6.4,.26V.96h5.27v.74h-4.37V7.48c1.46,0,3.65,.01,5.49-.24v.77Zm3.75-3.27h-1.96v6.62h-.89V.11h.89V3.95h1.96v.79Z"/><path class="cls-1" d="M334.33,9.29h1.26v1.22h-1.26v-1.22Z"/></g></g></svg>