<?xml version="1.0" encoding="UTF-8"?><svg id="_레이어_2" xmlns="http://www.w3.org/2000/svg" viewBox="0 0 312.5 31.57"><defs><style>.cls-1{fill:#595757;}</style></defs><g id="_레이어_1-2"><g><path class="cls-1" d="M2.89,.37c1.79,0,2.89,1.24,2.89,2.66s-1.04,2.66-2.89,2.66S0,4.47,0,3.03,1.11,.37,2.89,.37Zm2,2.66c0-1.02-.72-1.92-2-1.92C1.53,1.12,.89,2.01,.89,3.03s.6,1.91,2,1.91c1.32,0,2-.88,2-1.91Zm3.99,8.26H1.79V7.04h7.09v4.26Zm-.89-.73v-2.79H2.68v2.79H7.99Zm-1.79-7.94h1.79V.11h.89V6.36h-.89V3.38h-1.79v-.75Z"/><path class="cls-1" d="M16.36,6.38c-1.02-.41-2.44-1.28-2.94-2.4-.51,1.29-1.76,2.1-2.91,2.69l-.51-.6c1.45-.73,2.94-1.7,2.94-3.56V.49h.93V2.49c0,1.8,1.53,2.65,2.88,3.2l-.4,.68Zm3.2,4.8h-7.38v-3.63h.91v2.88h6.47v.76Zm-.26-3.13h-.88V3.27h-2.42v-.76h2.42V.11h.88v7.94Z"/><path class="cls-1" d="M26.8,2.09h-6.62v-.72h2.85V0h.94V1.37h2.83v.72Zm-3.31,5.05c-1.64,0-2.69-1.03-2.69-2.23s1.07-2.17,2.71-2.17,2.67,.94,2.67,2.17-.99,2.23-2.68,2.23Zm-1.8-2.24c0,.84,.6,1.54,1.81,1.54s1.79-.65,1.79-1.54c0-.84-.58-1.47-1.79-1.47s-1.81,.63-1.81,1.47Zm7.72,6.29h-7.33v-3.26h.91v2.51h6.42v.76ZM29.03,.11V3.81h1.81v.77h-1.81v3.69h-.88V.11h.88Z"/><path class="cls-1" d="M40.09,2.09h-6.62v-.72h2.85V0h.94V1.37h2.83v.72Zm-3.31,5.05c-1.64,0-2.69-1.03-2.69-2.23s1.07-2.17,2.71-2.17,2.67,.94,2.67,2.17-.99,2.23-2.68,2.23Zm-1.8-2.24c0,.84,.6,1.54,1.81,1.54s1.79-.65,1.79-1.54c0-.84-.58-1.47-1.79-1.47s-1.81,.63-1.81,1.47Zm7.72,6.29h-7.33v-3.26h.91v2.51h6.42v.76ZM42.32,.11V3.81h1.81v.77h-1.81v3.69h-.88V.11h.88Z"/><path class="cls-1" d="M54.36,5.28h-4.74v2.04h3.29v4.1h-.89v-3.35h-6.73v-.75h3.4v-2.04h-4.69v-.75h7.56c.12-.76,.34-2.48,.35-3.31h-6.48V.44h7.46c-.04,1.02-.26,3.12-.41,4.08h1.88v.75Z"/><path class="cls-1" d="M60.4,6.38c-1.02-.41-2.44-1.28-2.94-2.4-.51,1.29-1.76,2.1-2.91,2.69l-.52-.6c1.45-.73,2.95-1.7,2.95-3.56V.49h.93V2.49c0,1.8,1.52,2.65,2.87,3.2l-.39,.68Zm3,4.8h-7.33v-3.63h.91v2.88h6.42v.76ZM63.01,.11V3.2h1.81v.77h-1.81v4.14h-.88V.11h.88Z"/><path class="cls-1" d="M73.4,.66c-.15,3.49-2.68,4.94-4.91,5.73l-.46-.66c2.2-.78,4.22-2.1,4.4-4.33h-3.83V.66h4.8Zm3.41,10.64h-7.09V7.04h7.09v4.26Zm-.89-.73v-2.79h-5.31v2.79h5.31Zm.89-4.15h-.89V.11h.89V6.42Z"/><path class="cls-1" d="M80.65,.84c1.44,0,2.33,1.27,2.46,3.37h1.39V.17h.88V11h-.88V5.02h-1.38c-.06,2.25-.93,3.63-2.47,3.63s-2.48-1.5-2.48-3.91,.92-3.91,2.48-3.91Zm-1.62,3.9c0,1.75,.54,3.12,1.61,3.12,1.14,0,1.64-1.36,1.64-3.12s-.49-3.12-1.64-3.12-1.61,1.39-1.61,3.12Zm8.42,6.62h-.87V.11h.87V11.36Z"/><path class="cls-1" d="M101.63,7.39h-2.76v3.97h-.89v-3.97h-3.08v3.85h-.91v-3.85h-2.72v-.77h10.36v.77Zm-1.36-4.65c0,1.54-1.32,2.46-3.82,2.46s-3.82-.92-3.82-2.46,1.34-2.45,3.82-2.45,3.82,.95,3.82,2.45Zm-3.82,1.74c1.72,0,2.92-.61,2.92-1.75,0-1.08-1.18-1.71-2.92-1.71s-2.93,.62-2.93,1.73,1.18,1.74,2.93,1.74Z"/><path class="cls-1" d="M107.48,.96c-.04,4.56-2.06,6.5-4.76,7.99l-.6-.68c2.98-1.58,4.39-3.61,4.4-6.56h-4.05V.96h5.01Zm3.25,10.4h-.89V.11h.89V11.36Z"/><path class="cls-1" d="M122.33,6.13h-10.36v-.77h4.72v-1.51h-3.22V.19h.88V3.09h6.74v.76h-3.48v1.51h4.73v.77Zm-1.29,3.26c0,1.22-1.25,2.18-3.89,2.18s-3.87-.96-3.87-2.18,1.26-2.2,3.87-2.2,3.89,.95,3.89,2.2Zm-3.89-1.48c-1.82,0-2.91,.61-2.91,1.46s1.08,1.46,2.91,1.46,2.92-.58,2.92-1.46-1.09-1.46-2.92-1.46Z"/><path class="cls-1" d="M130.64,.96c.02,4.63-1.85,6.52-4.65,7.99l-.6-.66c2.11-1.08,3.31-2.28,3.87-3.85-1.31,.13-2.69,.19-3.84,.21v-.73c1.2-.02,2.64-.08,4.05-.21,.14-.61,.2-1.27,.2-2.01h-4V.96h4.96Zm3.16-.85V4.34h1.96v.79h-1.96v6.22h-.89V.11h.89Z"/><path class="cls-1" d="M145.97,5.49h-10.36v-.76h4.71v-1.37h-3.21V.11h.88V2.63h6.74v.74h-3.48v1.37h4.73v.76Zm-1.14,5.92h-7.79v-2.79h6.54v-1.32h-6.54v-.72h7.48v2.72h-6.52v1.4h6.82v.71Z"/><path class="cls-1" d="M152.73,8.35c-1.99,.24-4.49,.26-6.39,.26V4.23h4.02V1.58h-4.02V.84h4.91V4.98h-4.01v2.82c2.19,0,3.55-.04,5.49-.22v.77ZM154.5,.11V4.15h1.96v.8h-1.96v6.4h-.89V.11h.89Z"/><path class="cls-1" d="M166.67,7.39h-2.76v3.97h-.89v-3.97h-3.08v3.85h-.91v-3.85h-2.72v-.77h10.36v.77Zm-1.36-4.65c0,1.54-1.32,2.46-3.82,2.46s-3.82-.92-3.82-2.46,1.34-2.45,3.82-2.45,3.82,.95,3.82,2.45Zm-3.82,1.74c1.72,0,2.92-.61,2.92-1.75,0-1.08-1.18-1.71-2.92-1.71s-2.93,.62-2.93,1.73,1.18,1.74,2.93,1.74Z"/><path class="cls-1" d="M167.34,9.29h1.26v1.03c0,.3-.02,.48-.07,.66-.18,.64-.58,1.12-1.04,1.43l-.26-.25c.34-.29,.81-.92,.78-1.64h-.67v-1.22Z"/><path class="cls-1" d="M178.04,8.31h-5.11V.96h5.11v7.35Zm-.88-.74V1.7h-3.34V7.57h3.34ZM180.51,.11h.89V11.36h-.89V.11Z"/><path class="cls-1" d="M185.75,.43c1.79,0,2.89,1.26,2.89,2.69s-1.04,2.69-2.89,2.69-2.89-1.25-2.89-2.69,1.11-2.69,2.89-2.69Zm2,2.69c0-1.02-.72-1.93-2-1.93-1.36,0-2,.91-2,1.93s.6,1.93,2,1.93c1.32,0,2-.9,2-1.93Zm3.98,8.3h-.89v-3.54h-6.44v-.77h7.33v4.31Zm-2.72-10h1.83V.11h.89V6.48h-.89v-1.61h-1.83v-.76h1.83v-1.96h-1.83v-.74Z"/><path class="cls-1" d="M193.56,9.29h1.26v1.03c0,.3-.02,.48-.07,.66-.18,.64-.58,1.12-1.04,1.43l-.26-.25c.34-.29,.81-.92,.78-1.64h-.67v-1.22Z"/><path class="cls-1" d="M205.14,8.01c-1.98,.29-4.42,.26-6.4,.26V.96h5.27v.74h-4.36V7.48c1.46,0,3.65,.01,5.49-.24v.77Zm3.75-3.28h-1.96v6.62h-.89V.11h.89V3.95h1.96v.79Z"/><path class="cls-1" d="M212.71,.62V3.68c-.01,1.93,1.48,3.31,2.95,4.04l-.45,.72c-.95-.55-2.35-1.52-2.98-3.07-.56,1.58-1.8,2.55-3.05,3.33l-.58-.65c1.67-.95,3.16-2.4,3.16-4.43V.62h.93Zm5.31,10.73h-.88V.11h.88V11.36Z"/><path class="cls-1" d="M224.72,8.31h-5.19V.96h5.19v7.35Zm-.89-.74V1.7h-3.4V7.57h3.4Zm6-2.85h-1.96v6.64h-.88V.11h.88V3.92h1.96v.79Z"/><path class="cls-1" d="M230.12,9.29h1.26v1.03c0,.3-.02,.48-.07,.66-.18,.64-.58,1.12-1.04,1.43l-.26-.25c.34-.29,.81-.92,.78-1.64h-.67v-1.22Z"/><path class="cls-1" d="M240.52,5.14h-4.89V.5h4.89V5.14Zm-.88-.74V1.25h-3.14v3.15h3.14Zm4.73,7.02h-7.45v-2.89h6.25v-1.48h-6.25v-.71h7.18v2.88h-6.26v1.49h6.53v.71Zm-3.09-10.18h1.95V.11h.89V5.68h-.89v-1.37h-1.95v-.74h1.95V1.97h-1.95v-.73Z"/><path class="cls-1" d="M251.82,8.77c-.95-.56-2.25-1.59-2.87-3.08-.56,1.58-1.75,2.54-3,3.32l-.58-.65c1.66-.94,3.11-2.4,3.11-4.43v-1.38h-2.61v-.74h2.61V.11h.93V1.81h2.62v.74h-2.62v1.43c0,1.93,1.39,3.33,2.86,4.07l-.45,.72Zm2.62,2.59h-.89V.11h.89V11.36Z"/><path class="cls-1" d="M268.94,6.79h-4.6v2.26h-.89v-2.26h-4.87v-.77h10.36v.77Zm-1.02,4.39h-7.91v-3.2h.89v2.45h7.01v.76Zm-7.82-6.42V.25h.88V1.77h5.56V.25h.87V4.76h-7.32Zm6.45-.75v-1.5h-5.56v1.5h5.56Z"/><path class="cls-1" d="M274.33,5.11h-5.02V.5h5.02V5.11Zm-.88-.74V1.25h-3.26v3.12h3.26Zm4.46,7.05h-7.36v-2.89h6.16v-1.49h-6.16v-.71h7.08v2.89h-6.15v1.49h6.44v.71Zm1.51-8.51h-1.81v2.79h-.88V.11h.88V2.15h1.81v.76Z"/><path class="cls-1" d="M289.64,4.89v.74h-10.36v-.74h10.36Zm-8.98-2.87c0-1.17,1.39-1.94,3.78-1.94s3.78,.75,3.78,1.94c0,1.3-1.44,1.98-3.78,1.98s-3.78-.71-3.78-1.98Zm7.83,9.39h-7.79v-2.72h6.54v-1.3h-6.54v-.71h7.48v2.69h-6.52v1.33h6.82v.71Zm-6.91-9.39c0,.91,1.28,1.27,2.85,1.27s2.85-.36,2.85-1.27c0-.83-1.29-1.22-2.85-1.22s-2.85,.41-2.85,1.22Z"/><path class="cls-1" d="M299.81,8.02c-1.99,.29-4.42,.26-6.4,.26V.96h5.27v.74h-4.38V7.5c1.47,0,3.66,.01,5.51-.23v.76Zm2,3.33h-.89V4.74h-3.07v-.75h3.07V.11h.89V11.36Z"/><path class="cls-1" d="M308.49,2.81h-5.79v-.74h2.44V.25h.93v1.81h2.42v.74Zm-.35,3.37c0,1.73-.99,2.72-2.55,2.72s-2.55-1.07-2.55-2.72,1-2.66,2.55-2.66,2.55,1.02,2.55,2.66Zm-.85-.01c0-1.13-.54-1.89-1.71-1.89s-1.71,.77-1.71,1.89c0,1.2,.55,1.99,1.71,1.99s1.71-.79,1.71-1.99Zm5.21,5.19h-.88V5.25h-1.52v5.75h-.88V.17h.88V4.44h1.52V.11h.88V11.36Z"/><path class="cls-1" d="M49.98,20.72c-.06,4.04-2.93,5.57-4.86,6.29l-.47-.66c2.35-.94,4.29-2.35,4.35-4.88h-3.76v-.74h4.74Zm3.79,10.46h-7.38v-3.63h.89v2.88h6.48v.76Zm-.26-3.13h-.89v-3.79h-2.33v-.77h2.33v-3.38h.89v7.94Z"/><path class="cls-1" d="M59.91,20.66c-.09,3.59-2.59,5.07-4.85,5.91l-.46-.66c2.26-.85,4.16-2.1,4.34-4.51h-3.78v-.74h4.74Zm3.53,8.59c0,1.34-1.09,2.33-3.62,2.33s-3.65-.97-3.65-2.33,1.11-2.36,3.65-2.36,3.62,1.01,3.62,2.36Zm-.92,.01c0-1.01-.99-1.67-2.69-1.67s-2.72,.66-2.72,1.67c0,.94,.96,1.6,2.72,1.6s2.69-.61,2.69-1.6Zm2.53-5.86h-1.81v3.2h-.89v-6.49h.89v2.54h1.81v.74Z"/><path class="cls-1" d="M68.66,21.87h2.95v.74h-6.83v-.74h2.94v-1.75h.94v1.75Zm2.29,4.39c0,1.56-.99,2.85-2.74,2.85s-2.78-1.21-2.78-2.85c0-1.73,1.08-2.84,2.78-2.84s2.74,1.09,2.74,2.84Zm-.87,0c0-1.29-.6-2.09-1.87-2.09s-1.88,.83-1.88,2.09,.65,2.08,1.88,2.08,1.87-.83,1.87-2.08Zm3.62-6.15v4.76h1.96v.79h-1.96v5.7h-.88v-11.25h.88Z"/><path class="cls-1" d="M79.88,21.02c-.01,3.93-1.46,6.06-3.89,7.81l-.69-.55c2.14-1.52,3.65-3.36,3.65-6.5h-3.13v-.75h4.07Zm2.58,9.98h-.87v-5.84h-1.83v-.79h1.83v-4.2h.87v10.83Zm2.25,.36h-.87v-11.25h.87v11.25Z"/><path class="cls-1" d="M94.27,24.77c0,2.59-1.13,3.96-2.81,3.96s-2.8-1.37-2.8-3.96,1.13-3.95,2.8-3.95,2.81,1.32,2.81,3.95Zm-.89-.01c0-1.97-.68-3.18-1.91-3.18s-1.93,1.19-1.93,3.18,.71,3.21,1.93,3.21,1.91-1.27,1.91-3.21Zm3.91-4.65v4.12h1.95v.79h-1.95v6.33h-.89v-11.25h.89Z"/><path class="cls-1" d="M105.15,24.65c0,2.58-1.01,3.96-2.84,3.96s-2.83-1.38-2.83-3.96,1.09-3.95,2.83-3.95,2.84,1.32,2.84,3.95Zm-.89-.01c0-1.97-.58-3.18-1.93-3.18s-1.95,1.19-1.95,3.18,.62,3.2,1.95,3.2,1.93-1.27,1.93-3.2Zm3.86,6.72h-.89v-11.25h.89v11.25Z"/><path class="cls-1" d="M119.73,24.9v.74h-10.36v-.74h10.36Zm-1.14,6.51h-7.79v-2.7h6.54v-1.26h-6.54v-.71h7.48v2.65h-6.52v1.31h6.82v.71Zm-7.73-7.71v-3.43h7.44v.74h-6.55v1.93h6.68v.76h-7.56Z"/><path class="cls-1" d="M119.93,28.09c2.27,.01,5.69-.07,7.63-.28v.74c-1.8,.26-5.04,.31-7.63,.31v-.78Zm3.56-1.99c-1.73,0-3.04-1.12-3.04-2.72s1.33-2.71,2.98-2.71c1.82,0,2.98,1.24,2.98,2.75s-1.12,2.69-2.92,2.69Zm2.01-2.71c0-1.16-.78-1.94-2.07-1.94s-2.08,.88-2.08,1.94c0,1.15,.8,1.94,2.11,1.94s2.05-.78,2.05-1.94Zm3.65,7.96h-.88v-11.25h.88v11.25Z"/><path class="cls-1" d="M136.36,20.34c1.72,0,2.89,1.17,2.89,2.59s-1.15,2.54-2.89,2.54-2.89-1.09-2.89-2.54,1.19-2.59,2.89-2.59Zm2,2.59c0-1.01-.78-1.85-2-1.85-1.29,0-2,.84-2,1.85s.71,1.85,2,1.85c1.22,0,2-.8,2-1.85Zm3.87,8.37h-7.09v-4.85h.89v1.66h5.31v-1.66h.89v4.85Zm-.89-.73v-1.73h-5.31v1.73h5.31Zm.89-4.73h-.89v-5.73h.89v5.73Z"/><path class="cls-1" d="M148.75,25.77h-5.02v-5.05h5.02v5.05Zm-.88-.74v-3.56h-3.26v3.56h3.26Zm4.47,6.42c-1.44-.43-2.94-1.51-3.61-2.69-.62,1.12-2.13,2.22-3.62,2.69l-.45-.66c1.31-.38,3.6-1.73,3.6-3.21v-.5h.93v.5c0,1.48,2.28,2.83,3.6,3.21l-.45,.66Zm1.49-7.87h-1.81v4.04h-.88v-7.51h.88v2.71h1.81v.75Z"/><path class="cls-1" d="M156.37,20.84c1.44,0,2.33,1.27,2.46,3.37h1.39v-4.04h.88v10.83h-.88v-5.97h-1.38c-.06,2.25-.93,3.63-2.47,3.63s-2.48-1.5-2.48-3.91,.92-3.91,2.48-3.91Zm-1.62,3.9c0,1.75,.54,3.12,1.61,3.12,1.14,0,1.64-1.36,1.64-3.12s-.49-3.12-1.64-3.12-1.61,1.39-1.61,3.12Zm8.42,6.62h-.87v-11.25h.87v11.25Z"/><path class="cls-1" d="M172.39,25.53h-5.02v-4.87h5.02v4.87Zm3.55,5.91c-1.35-.41-3.01-1.43-3.65-2.67-.58,1.3-2.35,2.24-3.62,2.7l-.48-.67c1.26-.37,3.46-1.52,3.64-2.96h-3.2v-.74h7.38v.74h-3.2c.18,1.42,2.36,2.59,3.64,2.96l-.49,.65Zm-4.44-6.67v-3.37h-3.26v3.37h3.26Zm5.96-1.58h-1.81v3.07h-.88v-6.15h.88v2.33h1.81v.76Z"/><path class="cls-1" d="M187.7,26.58h-4.6v2.33h-.89v-2.33h-4.87v-.76h10.36v.76Zm-1.31-1.7c-1.82-.38-3.27-1.2-3.89-2.11-.55,.91-2.04,1.69-3.85,2.11l-.45-.66c1.91-.42,3.58-1.2,3.82-2.36h-3.38v-.75h3.4v-1.21h.92v1.21h3.41v.75h-3.39c.21,1.21,2.07,1.98,3.84,2.36l-.44,.66Zm.28,6.3h-7.91v-3.42h.89v2.66h7.01v.76Z"/><path class="cls-1" d="M200.99,28.78v.75h-10.36v-.75h10.36Zm-2.56-6.43l-.26,3.36h2v.75h-8.75v-.75h2.01l-.24-3.36h.89l.24,3.36h2.96l.22-3.36h.92Zm-6.74-.73v-.76h8.22v.76h-8.22Z"/><path class="cls-1" d="M208.13,28.33c-1.99,.24-4.38,.28-6.27,.28v-4.38h4v-2.65h-4v-.74h4.88v4.14h-3.99v2.82c2.15,0,3.48-.06,5.38-.2v.74Zm2.09,3.02h-.89v-11.25h.89v11.25Z"/><path class="cls-1" d="M217.2,28.31h-5.11v-7.35h5.11v7.35Zm-.88-.74v-5.86h-3.34v5.86h3.34Zm3.35-7.46h.89v11.25h-.89v-11.25Z"/><path class="cls-1" d="M224.91,20.37c1.79,0,2.89,1.24,2.89,2.66s-1.04,2.66-2.89,2.66-2.89-1.22-2.89-2.66,1.11-2.66,2.89-2.66Zm2,2.66c0-1.02-.72-1.92-2-1.92-1.36,0-2,.9-2,1.92s.6,1.91,2,1.91c1.32,0,2-.88,2-1.91Zm3.99,8.26h-7.09v-4.26h7.09v4.26Zm-.89-.73v-2.79h-5.31v2.79h5.31Zm-1.79-7.94h1.79v-2.52h.89v6.25h-.89v-2.97h-1.79v-.75Z"/><path class="cls-1" d="M245.33,29.46h-10.36v-.76h3.82v-4.13h.91v4.13h5.63v.76Zm-2.85-2.32c.31-1.59,.52-3.65,.52-5.43h-6.67v-.76h7.65c-.07,2.41-.29,4.38-.6,6.19h-.89Z"/><path class="cls-1" d="M255.68,25.22h-10.36v-.76h7.52c.15-1,.36-2.57,.39-3.27h-6.47v-.77h7.45c-.01,.79-.27,2.92-.44,4.04h1.92v.76Zm-1.45,6.08h-7.48v-4.95h.88v1.63h5.72v-1.63h.88v4.95Zm-.88-.73v-1.86h-5.72v1.86h5.72Z"/><path class="cls-1" d="M261.43,20.66c-.15,3.49-2.68,4.94-4.91,5.73l-.46-.66c2.2-.78,4.22-2.1,4.4-4.33h-3.83v-.74h4.8Zm3.41,10.64h-7.09v-4.26h7.09v4.26Zm-.89-.73v-2.79h-5.31v2.79h5.31Zm.89-4.15h-.89v-6.31h.89v6.31Z"/><path class="cls-1" d="M266.68,29.29h1.26v1.22h-1.26v-1.22Z"/></g></g></svg>