<?xml version="1.0" encoding="UTF-8"?><svg id="_레이어_2" xmlns="http://www.w3.org/2000/svg" viewBox="0 0 364.4 138"><defs><style>.cls-1{fill:none;stroke:#f5f5f5;stroke-miterlimit:10;stroke-width:2px;}.cls-2{fill:#231815;}</style></defs><g id="_레이어_1-2"><rect class="cls-1" x="1" y="1" width="110" height="136" rx="15.22" ry="15.22"/><rect class="cls-1" x="127.2" y="1" width="110" height="136" rx="15.22" ry="15.22"/><rect class="cls-1" x="253.4" y="1" width="110" height="136" rx="15.22" ry="15.22"/><g><path class="cls-2" d="M37.2,100.58h-8.71v-.74h3.17v-3.31h.9v3.31h4.63v.74Zm-2.5-1.92c.26-1.34,.44-3.02,.44-4.49h-5.51v-.74h6.46c-.04,2.04-.25,3.71-.5,5.23h-.89Z"/><path class="cls-2" d="M46.02,100.73h-8.71v-.73h3.91v-2.17h.9v2.17h3.9v.73Zm-3.88-6.68c0,1.51,2.04,2.92,3.33,3.34l-.53,.66c-1.12-.41-2.67-1.54-3.25-2.65-.62,1.13-1.94,2.18-3.24,2.66l-.54-.67c1.32-.44,3.28-1.83,3.28-3.34v-.95h.95v.95Z"/><path class="cls-2" d="M49.28,94.18h2.45v.71h-5.79v-.71h2.43v-1.44h.91v1.44Zm1.91,3.74c0,1.32-.85,2.4-2.35,2.4s-2.35-1.01-2.35-2.4c0-1.47,.91-2.41,2.35-2.41s2.35,.92,2.35,2.41Zm-.86,0c0-1.05-.48-1.68-1.49-1.68s-1.49,.66-1.49,1.68,.52,1.67,1.49,1.67,1.49-.67,1.49-1.67Zm3.15-5.19v3.93h1.56v.77h-1.56v4.72h-.88v-9.42h.88Z"/><path class="cls-2" d="M63.66,100.58h-8.71v-.74h3.17v-3.31h.9v3.31h4.63v.74Zm-2.5-1.92c.26-1.34,.44-3.02,.44-4.49h-5.52v-.74h6.47c-.04,2.04-.25,3.71-.5,5.23h-.89Z"/><path class="cls-2" d="M69.72,93.94v.8c0,1.46,1.21,2.17,2.35,2.63l-.38,.67c-.79-.31-1.89-1.08-2.39-1.89-.45,.99-1.46,1.63-2.39,2.1l-.5-.56c1.2-.58,2.42-1.42,2.42-2.93v-.82h-1.94v-.7h4.76v.7h-1.93Zm4.57,8.06h-6.25v-3.07h.88v2.33h5.37v.74Zm-.22-2.6h-.88v-6.67h.88v6.67Z"/><path class="cls-2" d="M80.53,94.46h-5.61v-.69h2.35v-1.14h.91v1.14h2.35v.69Zm-2.8,4.19c-1.4,0-2.3-.88-2.3-1.91s.92-1.85,2.31-1.85,2.27,.81,2.27,1.85-.84,1.91-2.28,1.91Zm-1.43-1.92c0,.67,.48,1.23,1.44,1.23s1.41-.52,1.41-1.23c0-.65-.46-1.16-1.41-1.16s-1.44,.51-1.44,1.16Zm6.39,5.27h-6.2v-2.71h.88v1.97h5.32v.74Zm-.31-9.26v3.07h1.5v.73h-1.5v3.06h-.88v-6.86h.88Z"/><path class="cls-2" d="M46.18,107.24h2.14v.7h-2.14v.09c0,1.46,1.17,2.18,2.31,2.63l-.39,.67c-.81-.32-1.86-1.07-2.34-1.9-.47,.97-1.46,1.64-2.41,2.12l-.5-.57c1.22-.61,2.43-1.42,2.43-2.94v-.1h-2.13v-.7h2.13v-1.06h.9v1.06Zm4.11,8.46h-5.91v-3.34h5.91v3.34Zm-.88-.7v-1.92h-4.14v1.92h4.14Zm2.36-5.65h-1.5v2.51h-.88v-5.52h.88v2.3h1.5v.71Z"/><path class="cls-2" d="M56.76,107.04c-.04,3.76-1.7,5.47-4.04,6.75l-.57-.65c2.5-1.4,3.65-2.96,3.67-5.37h-3.35v-.73h4.28Zm2.68,8.73h-.87v-9.42h.87v9.42Z"/><path class="cls-2" d="M69.29,111.01v.74h-8.71v-.74h8.71Zm-1.17,4.69h-6.35v-3.19h6.35v3.19Zm-6.3-5.45v-2.25h5.35v-.78h-5.35v-.73h6.21v2.22h-5.34v.81h5.56v.73h-6.44Zm5.41,4.75v-1.77h-4.58v1.77h4.58Z"/></g><g><path class="cls-2" d="M168.2,93.94v.86c0,1.45,1.22,2.16,2.34,2.62l-.37,.68c-.79-.32-1.9-1.09-2.4-1.9-.45,.98-1.46,1.64-2.38,2.1l-.5-.56c1.21-.58,2.41-1.41,2.41-2.93v-.87h-1.93v-.7h4.76v.7h-1.93Zm4.66,8.06h-6.24v-3.02h.87v2.28h5.37v.74Zm-.22-2.6h-.88v-3.65h-1.9v-.73h1.9v-2.29h.88v6.67Z"/><path class="cls-2" d="M182.33,98.22h-8.71v-.73h3.91v-.85h-2.67v-3.76h6.19v.73h-5.32v.78h5.31v.7h-5.31v.82h5.41v.73h-2.71v.85h3.9v.73Zm-1.06,2.36c0,1.04-1.05,1.73-3.29,1.73s-3.27-.69-3.27-1.73,1.07-1.73,3.27-1.73,3.29,.67,3.29,1.73Zm-3.29-1.04c-1.47,0-2.33,.35-2.33,1.03s.86,1.04,2.33,1.04,2.33-.34,2.33-1.04-.86-1.03-2.33-1.03Z"/><path class="cls-2" d="M187.01,97.49h-4.34v-4.36h.86v1.48h2.62v-1.48h.86v4.36Zm-.86-.74v-1.42h-2.62v1.42h2.62Zm3.68,3.65c0,1.15-.92,1.91-3.07,1.91s-3.09-.75-3.09-1.91,.94-1.94,3.09-1.94,3.07,.77,3.07,1.94Zm-.9,0c0-.79-.78-1.26-2.16-1.26s-2.17,.47-2.17,1.26c0,.75,.77,1.21,2.17,1.21s2.16-.42,2.16-1.21Zm2.23-4.74h-1.5v2.58h-.87v-5.52h.87v2.21h1.5v.73Z"/><path class="cls-2" d="M196.78,97.72c-.85-.32-1.99-1-2.44-1.88-.45,.99-1.5,1.63-2.44,2.12l-.5-.57c1.21-.62,2.47-1.42,2.47-2.94v-1.45h.89v1.44c0,1.46,1.26,2.18,2.41,2.63l-.39,.65Zm2.31,4.47h-.87v-2.69h-5.32v-.73h6.19v3.42Zm.01-3.96h-.87v-5.5h.87v5.5Z"/><path class="cls-2" d="M164.63,111.31c-.8-.31-1.89-1.06-2.38-1.89-.46,.97-1.47,1.64-2.4,2.12l-.5-.57c1.21-.61,2.42-1.41,2.42-2.94v-.53h-1.94v-.71h4.76v.71h-1.93v.52c0,1.46,1.21,2.18,2.36,2.62l-.39,.67Zm2.37,4.49h-.88v-2.69h-5.33v-.73h6.21v3.42Zm0-3.98h-.88v-5.48h.88v5.48Z"/><path class="cls-2" d="M167.87,113.64c.87,0,1.74,0,2.57-.03v-1.15h.89v1.12c.93-.03,1.81-.09,2.55-.18v.73c-1.55,.22-3.82,.25-6.01,.25v-.74Zm5.76-5.41h-5.59v-.72h2.38v-1.27h.9v1.27h2.31v.72Zm-2.76,3.89c-1.54,0-2.33-.79-2.33-1.78s.8-1.77,2.33-1.77,2.36,.79,2.36,1.78-.77,1.77-2.36,1.77Zm1.51-1.77c0-.59-.46-1.09-1.51-1.09-.98,0-1.5,.51-1.5,1.08,0,.61,.53,1.1,1.51,1.1,1.06,0,1.5-.47,1.5-1.09Zm3.03-4.01v4.23h1.54v.74h-1.54v4.45h-.87v-9.42h.87Z"/><path class="cls-2" d="M187.97,111.31v.74h-3.97v3.71h-.88v-3.71h-3.86v-.74h8.71Zm-2.52-.69c.18-.91,.35-2.32,.35-3.11h-5.35v-.73h6.3c0,1.51-.23,2.82-.39,3.84h-.91Z"/><path class="cls-2" d="M193.35,110.16c0,2.16-.89,3.32-2.44,3.32s-2.44-1.16-2.44-3.32,.96-3.33,2.44-3.33,2.44,1.1,2.44,3.33Zm-.87-.02c0-1.61-.48-2.59-1.56-2.59s-1.57,.96-1.57,2.59,.53,2.61,1.57,2.61c1.1,0,1.56-1.03,1.56-2.61Zm3.3,5.62h-.87v-9.42h.87v9.42Z"/><path class="cls-2" d="M201.82,106.8c-.11,2.89-2.18,4.07-4.16,4.77l-.44-.63c1.81-.64,3.54-1.68,3.66-3.43h-3.16v-.71h4.1Zm2.82,8.91h-6v-3.56h6v3.56Zm-.87-.7v-2.15h-4.25v2.15h4.25Zm.87-3.39h-.87v-5.27h.87v5.27Z"/></g><g><path class="cls-2" d="M298.12,92.89c1.52,0,2.47,1.04,2.47,2.26s-.88,2.25-2.47,2.25-2.46-1.04-2.46-2.25,.95-2.26,2.46-2.26Zm1.59,2.26c0-.82-.56-1.53-1.59-1.53-1.08,0-1.58,.71-1.58,1.53s.47,1.53,1.58,1.53c1.04,0,1.59-.71,1.59-1.53Zm3.5,6.94h-6.02v-3.55h6.02v3.55Zm-.88-.7v-2.14h-4.25v2.14h4.25Zm-1.43-6.63h1.43v-2.03h.88v5.27h-.88v-2.52h-1.43v-.72Z"/><path class="cls-2" d="M309.05,93.18c-.1,3-2.14,4.27-4.11,4.98l-.45-.65c1.87-.7,3.47-1.78,3.61-3.62h-3.12v-.71h4.07Zm2.91,9.01h-.87v-2.69h-5.34v-.73h6.21v3.42Zm0-3.96h-.87v-1.28h-1.88v-.73h1.88v-1.4h-1.81v-.72h1.81v-1.37h.87v5.5Z"/><path class="cls-2" d="M318.54,94.46h-5.61v-.69h2.35v-1.14h.91v1.14h2.35v.69Zm-2.8,4.19c-1.4,0-2.3-.88-2.3-1.91s.92-1.85,2.31-1.85,2.27,.81,2.27,1.85-.84,1.91-2.28,1.91Zm-1.43-1.92c0,.67,.48,1.23,1.44,1.23s1.41-.52,1.41-1.23c0-.65-.46-1.16-1.41-1.16s-1.44,.51-1.44,1.16Zm6.39,5.27h-6.2v-2.71h.88v1.97h5.32v.74Zm-.31-9.26v3.07h1.5v.73h-1.5v3.06h-.88v-6.86h.88Z"/><path class="cls-2" d="M299.71,111.63h-3.9v1.01h2.73v3.06h-6.35v-3.06h2.69v-1.01h-3.89v-.74h8.71v.74Zm-7.86-1.67v-.72h1.43l-.16-1.54h.87l.15,1.54h2.44l.12-1.54h.92l-.18,1.54h1.42v.72h-7.01Zm.21-2.66v-.74h6.58v.74h-6.58Zm5.58,7.7v-1.65h-4.57v1.65h4.57Z"/><path class="cls-2" d="M305.29,110.8c-.79-.32-1.9-1.03-2.39-1.85-.45,.97-1.46,1.59-2.39,2.07l-.5-.57c1.2-.6,2.42-1.34,2.42-2.87v-.21h-1.94v-.7h4.76v.7h-1.93v.2c0,1.47,1.21,2.13,2.35,2.59l-.38,.64Zm2.6,5h-6.32v-2.46h5.16v-1.04h-5.16v-.68h6.07v2.41h-5.16v1.09h5.41v.68Zm-.21-4.74h-.88v-4.72h.88v4.72Z"/><path class="cls-2" d="M308.55,111c.67,0,1.32,0,1.96-.02v-2.04h.88v2.02c1.16-.03,2.21-.11,3.11-.19v.69c-1.55,.24-3.73,.27-5.95,.27v-.73Zm5.25-4.18c-.03,.94-.19,2.51-.29,3.17h-.89c.12-.67,.23-1.77,.25-2.46h-3.75v-.71h4.69Zm2.48,8.79h-6.3v-2.89h.88v2.15h5.42v.74Zm1.21-5.58h-1.5v3.09h-.88v-6.78h.88v2.97h1.5v.72Z"/><path class="cls-2" d="M323.62,113.24c-1.72,.19-3.79,.24-5.36,.24v-3.73h3.25v-2.09h-3.25v-.73h4.11v3.53h-3.25v2.27c1.75,0,2.97-.08,4.5-.2v.71Zm1.64,2.52h-.88v-9.42h.88v9.42Z"/></g><g><path d="M201.63,41.68h0s-2.76-2.76-2.76-2.76h0s0,0,0,0l-5.52-5.52s0,0,0,0c0,0,0,0,0,0l-2.76-2.76s0,0,0,0,0,0,0,0l-5.52-5.52s0,0,0,0c0,0,0,0,0,0l-1.1-1.1c-.35-.35-.82-.54-1.31-.54s-.96,.19-1.31,.54l-15.45,15.45c-.72,.72-.72,1.9,0,2.62l5.3,5.3c-.75,1.01-.71,2.49,.14,3.35l1.5,1.5-2.93,2.93c-.67-.36-1.53-.26-2.09,.31l-6.14,6.14c-.33,.33-.52,.78-.52,1.25s.18,.92,.52,1.25l.91,.91c.33,.33,.78,.52,1.25,.52s.92-.18,1.25-.52l6.14-6.14c.57-.57,.67-1.42,.31-2.09l2.93-2.93,1.5,1.5c.45,.45,1.08,.68,1.73,.68,.57,0,1.15-.18,1.62-.53l5.3,5.3c.36,.36,.84,.54,1.31,.54s.95-.18,1.31-.54l15.45-15.45c.72-.72,.72-1.9,0-2.62l-1.06-1.06Zm-6.29-5.26l-17.04,17.04-2.24-2.24,17.04-17.04,2.24,2.24Zm-2.76-2.76l-17.04,17.04-2.24-2.24,17.04-17.04,2.24,2.24Zm-26.16,7.92c-.44-.44-.44-1.15,0-1.59l15.45-15.45c.21-.21,.49-.33,.8-.33s.58,.12,.8,.33l.84,.84-17.04,17.04-.84-.84Zm1.36,1.36l17.04-17.04,2.24,2.24-17.04,17.04-2.24-2.24Zm2.76,2.76l17.04-17.04,2.24,2.24-17.04,17.04-.82-.82s0,0,0,0c0,0,0,0,0,0l-1.42-1.42Zm-.56,10.45l.59,.59-1.09,1.09-.59-.59,1.09-1.09Zm.75,2.22l-6.14,6.14c-.2,.2-.46,.3-.74,.3s-.54-.11-.74-.3l-.91-.91c-.2-.2-.3-.46-.3-.74s.11-.54,.3-.74l6.14-6.14c.2-.2,.47-.3,.74-.3,.09,0,.19,.02,.28,.04l-1.25,1.25c-.07,.07-.11,.16-.11,.26s.04,.19,.11,.26l1.11,1.11c.07,.07,.16,.11,.26,.11s.19-.04,.26-.11l1.25-1.25c.1,.35,.01,.74-.26,1.02Zm.36-2.14l-.59-.59,2.87-2.87,.59,.59-2.87,2.87Zm5.4-1.37l-1.76-1.76s0,0,0,0l-.55-.55-2.31-2.31c-.59-.58-.62-1.59-.14-2.31l7.07,7.07c-.72,.48-1.73,.45-2.31-.14Zm3.11-.09s0,0,0,0c0,0,0,0,0,0l-.78-.78,17.04-17.04,2.24,2.24-17.04,17.04-1.46-1.46Zm1.98,1.98l17.04-17.04,2.24,2.24-17.04,17.04-2.24-2.24Zm20.6-11.89l-15.45,15.45c-.44,.44-1.15,.44-1.59,0l-.8-.8,17.04-17.04,.8,.8c.44,.44,.44,1.15,0,1.59Z"/><path d="M189.12,77.53s-.07,0-.11-.02c-.18-.06-.28-.25-.22-.43,.43-1.33-.62-2.67-1.74-4.09-.72-.91-1.45-1.85-1.77-2.81-.62-1.86-.49-3.82,.33-5.38-1.6,.6-2.02,1.95-2.42,3.25-.16,.51-.31,1-.53,1.44-.42,.85-1.19,1.34-2.04,1.29-.93-.04-1.77-.69-2.15-1.65-.53-1.36-.68-4.75,.47-6.7-2.57,1.3-2.93,3.21-2.95,4.62-.03,2.3-.31,6.28-1.85,7.08-.51,.27-1.08,.18-1.71-.24-.88-.6-.78-1.4-.65-2.41,.11-.87,.26-2.01-.07-3.6-.43,1.06-1.22,2.01-2.24,2.67-1.86,1.2-3.11,2.1-3.4,3.66-.01,.04-.35,1.25,0,2.9,.04,.18-.08,.37-.26,.4-.18,.04-.37-.08-.4-.26-.38-1.83,0-3.15,0-3.2,.33-1.79,1.74-2.82,3.7-4.08,1.21-.78,2.05-2.02,2.24-3.32,.02-.16,.18-.31,.34-.32,.16,0,.35,.12,.4,.27,.71,2.31,.51,3.91,.37,4.97-.13,1.04-.15,1.42,.35,1.76,.6,.41,.91,.25,1.01,.2,.87-.45,1.43-2.94,1.48-6.49,.04-2.91,1.65-4.83,4.92-5.86,.17-.06,.37,.04,.44,.21,.06,.16-.02,.36-.17,.44-1.99,.94-2,5.48-1.39,7.05,.28,.71,.89,1.19,1.55,1.22,.57,.01,1.1-.31,1.4-.92,.19-.39,.34-.85,.49-1.33,.47-1.52,1.05-3.4,3.66-3.92,.14-.03,.32,.05,.39,.17,.08,.12,.07,.31,0,.43-1.06,1.47-1.3,3.51-.66,5.44,.28,.85,.98,1.74,1.66,2.6,1.18,1.5,2.39,3.04,1.85,4.72-.05,.14-.18,.24-.32,.24Z"/></g><g><path d="M326.98,50.9h-2.36s0-3.3,0-3.3c0-.21-.16-.37-.37-.37h-13.33v-2.88h4.15c.44,0,.79-.35,.79-.79V26.69c0-.44-.36-.79-.79-.79h-7.27c-.06,.01-.09,.02-.12,.03-.08,.03-.12,.06-.14,.08l-5.58,5.58s-.05,.06-.07,.11c-.02,.07-.03,.1-.03,.13l-.02,.09v10.91c0,.41,.17,.8,.46,1.09,.29,.29,.68,.45,1.09,.45h6.79v2.88h-13.33c-.19,0-.35,.15-.37,.34v.11s0,0,0,0v3.22h-2.8c-.06,0-.09,.02-.12,.03-.08,.03-.12,.05-.14,.08l-4.18,4.18s-.05,.06-.07,.11c-.02,.07-.03,.1-.03,.13l-.02,.09v8.15c0,.69,.57,1.24,1.25,1.24h8.74c.38,0,.69-.31,.69-.69v-12.63c0-.38-.31-.69-.69-.69h-1.9s0-2.93,0-2.93h12.96v2.93h-2.58c-.05,0-.09,.02-.12,.03-.08,.03-.12,.06-.14,.08l-4.17,4.18s-.05,.06-.07,.11c-.02,.07-.03,.1-.03,.13l-.02,.09v8.15c0,.69,.57,1.24,1.25,1.24h8.74c.38,0,.69-.31,.69-.69v-12.63c0-.38-.31-.69-.69-.69h-2.13s0-2.93,0-2.93h12.96v2.93h-2.37s-.06,.02-.1,.03c-.08,.03-.12,.06-.14,.08l-4.17,4.18s-.05,.06-.07,.11c-.02,.07-.03,.1-.03,.13l-.02,.09v8.15c0,.69,.57,1.24,1.25,1.24h8.74c.38,0,.69-.31,.69-.69v-12.63c0-.38-.31-.69-.69-.69Zm-33.66,1.26v2.92s-2.92,0-2.92,0l2.92-2.92Zm5.76-.52v12.53s-8.69,0-8.69,0c-.28,0-.51-.23-.51-.51v-7.85s3.81,0,3.81,0c.1,0,.19-.04,.26-.11,.07-.07,.11-.16,.11-.26v-3.81s5.02,0,5.02,0Zm8.35-24.49v4.32s-4.32,0-4.32,0l4.32-4.32Zm-.19,25.01v2.92s-2.92,0-2.92,0l2.92-2.92Zm5.76-.52v12.53s-8.69,0-8.69,0c-.28,0-.51-.23-.51-.51v-7.85h3.81c.2,0,.37-.17,.37-.37v-3.81s5.02,0,5.02,0Zm-9.61-8.02c-.21,0-.41-.08-.57-.23-.15-.15-.23-.35-.23-.57v-10.61s5.21,0,5.21,0c.1,0,.19-.04,.26-.11,.07-.07,.11-.16,.11-.26v-5.21s6.96,0,6.96,0v16.99s-11.74,0-11.74,0Zm17.78,8.54v2.92h-2.92l2.92-2.92Zm-2.93,12.01c-.28,0-.51-.23-.51-.51v-7.85h3.81c.2,0,.37-.17,.37-.37v-3.81h5.02s0,12.53,0,12.53h-8.69Z"/><path d="M305.18,36.1h7.36c.26,0,.47-.21,.47-.47s-.21-.47-.47-.47h-7.36c-.26,0-.47,.21-.47,.47s.21,.47,.47,.47Z"/><path d="M305.18,38.73h7.36c.26,0,.47-.21,.47-.47s-.21-.47-.47-.47h-7.36c-.26,0-.47,.21-.47,.47s.21,.47,.47,.47Z"/><path d="M305.18,41.37h7.36c.26,0,.47-.21,.47-.47s-.21-.47-.47-.47h-7.36c-.26,0-.47,.21-.47,.47s.21,.47,.47,.47Z"/><path d="M297.51,68.89l-2.93,3.76c-.06,.07-.14,.09-.18,.09-.06,.01-.15-.02-.2-.09l-1.06-1.32c-.07-.09-.18-.14-.29-.14-.08,0-.17,.03-.23,.08-.16,.13-.19,.37-.06,.53l1.06,1.32c.19,.24,.47,.37,.77,.37,.31,0,.59-.14,.78-.38l2.93-3.76c.06-.08,.09-.18,.08-.28s-.06-.19-.14-.25c-.16-.13-.4-.1-.53,.07Z"/><path d="M297.19,72.55c-.21,0-.38,.17-.38,.38v1.86c0,.13-.11,.24-.24,.24h-4.82c-.13,0-.24-.11-.24-.24v-4.82c0-.13,.11-.24,.24-.24h3.54c.21,0,.38-.17,.38-.38s-.17-.38-.38-.38h-3.54c-.55,0-.99,.44-.99,.99v4.82c0,.55,.44,.99,.99,.99h4.82c.55,0,.99-.44,.99-.99v-1.86c0-.21-.17-.38-.38-.38Z"/><path d="M311.43,68.89l-2.93,3.76c-.04,.06-.11,.09-.18,.09-.07,.01-.15-.02-.2-.09l-1.06-1.32c-.07-.09-.18-.14-.29-.14-.08,0-.17,.03-.24,.08-.08,.06-.13,.15-.14,.25-.01,.1,.02,.2,.08,.28l1.06,1.32c.19,.24,.47,.37,.77,.37,.31,0,.59-.14,.78-.38l2.93-3.76c.06-.08,.09-.18,.08-.28-.01-.1-.06-.19-.14-.25-.16-.13-.4-.1-.53,.07Z"/><path d="M311.12,72.55c-.21,0-.38,.17-.38,.38v1.86c0,.13-.11,.24-.24,.24h-4.82c-.13,0-.24-.11-.24-.24v-4.82c0-.13,.11-.24,.24-.24h3.54c.21,0,.38-.17,.38-.38s-.17-.38-.38-.38h-3.54c-.55,0-.99,.44-.99,.99v4.82c0,.55,.44,.99,.99,.99h4.82c.55,0,.99-.44,.99-.99v-1.86c0-.21-.17-.38-.38-.38Z"/><path d="M325.36,68.89l-2.93,3.76c-.06,.07-.14,.09-.18,.09-.06,.01-.15-.02-.2-.09l-1.06-1.32c-.07-.09-.18-.14-.29-.14-.08,0-.17,.03-.23,.08-.16,.13-.19,.37-.06,.53l1.06,1.32c.19,.24,.47,.37,.77,.37,.31,0,.59-.14,.78-.38l2.93-3.76c.06-.08,.09-.18,.08-.28s-.06-.19-.14-.25c-.17-.13-.4-.1-.53,.07Z"/><path d="M325.04,72.55c-.21,0-.38,.17-.38,.38v1.86c0,.13-.11,.24-.24,.24h-4.82c-.13,0-.24-.11-.24-.24v-4.82c0-.13,.11-.24,.24-.24h3.54c.21,0,.38-.17,.38-.38s-.17-.38-.38-.38h-3.54c-.55,0-.99,.44-.99,.99v4.82c0,.55,.44,.99,.99,.99h4.82c.55,0,.99-.44,.99-.99v-1.86c0-.21-.17-.38-.38-.38Z"/></g><g><path d="M70.82,48.55c0-1.13-.32-2.19-.94-3.15-.24-.37-.47-.73-.7-1.1-.32-.51-.66-1.03-1-1.54-.38-.57-.46-1.15-.25-1.78,.12-.36,.23-.72,.35-1.13,.1-.33,.21-.71,.33-1.08,.38-1.16,.28-2.25-.28-3.34-.26-.5-.52-1.02-.75-1.49l-.03-.06c-.18-.36-.36-.73-.54-1.09-.11-.22-.19-.43,.09-.68,.28-.24,.41-.59,.41-1.07v-.89c-.02-.98-.03-2,0-3,.03-.95-.31-1.51-1.11-1.82h-8.22s-.03,0-.03,0c-.74,.37-1.06,.84-1.06,1.52,0,.72,0,1.43,0,2.15v2.04c0,.51,.18,.9,.53,1.16,.28,.21,.26,.41,.13,.66-.21,.4-.41,.81-.61,1.21l-.05,.09c-.22,.45-.46,.92-.69,1.37-.58,1.12-.67,2.22-.27,3.38,.08,.24,.16,.48,.24,.72l.02,.07c.13,.4,.26,.81,.41,1.2,.25,.66,.17,1.29-.25,1.91-.37,.55-.73,1.11-1.08,1.65l-.03,.05c-.23,.35-.45,.7-.68,1.05-.49,.75-.78,1.5-.86,2.27-.1,.91-.09,1.84-.07,2.74,0,.39,.02,.84,.01,1.28,0,.21,.13,.34,.42,.42h.02s.02,0,.02,0c.33-.11,.4-.35,.4-.7,0-.38,0-.77,0-1.15v-.03c-.02-.82-.03-1.68,.08-2.52,.08-.62,.32-1.22,.71-1.82,.23-.35,.46-.7,.68-1.06,.37-.58,.75-1.17,1.14-1.75,.55-.83,.66-1.68,.34-2.62-.21-.6-.41-1.22-.6-1.81l-.23-.71c-.05-.15-.09-.33,0-.46,.09-.13,.28-.14,.45-.15h.03c3.55,.01,6.85,.01,10.11,0,.16,0,.36,.02,.47,.15,.1,.13,.06,.32,0,.5-.1,.32-.19,.63-.28,.95v.02c-.16,.53-.33,1.08-.5,1.62-.27,.85-.17,1.63,.33,2.39l.68,1.05c.35,.55,.7,1.09,1.06,1.64,.53,.81,.81,1.73,.81,2.71,0,8.16,0,16.31,0,24.47,0,1.08-.57,1.66-1.65,1.66-.08,0-.16,0-.24,0h-.18c-.23,0-.53,0-.81,0-.19,0-.34,0-.44-.1-.1-.11-.09-.29-.07-.44,.11-.81,.05-1.59-.19-2.34-.24-.77-.67-1.29-1.3-1.6-.55-.27-.86-.71-.95-1.35-.08-.58-.16-1.06-.28-1.54-.09-.38-.32-.87-.92-1.07-.88-.29-1.52-.87-2.14-1.44-.12-.11-.24-.23-.36-.34l-.07-.07c-.55-.51-1.12-1.05-1.75-1.47-.39-.26-.81-.53-1.28-.62-.58-.12-.77-.52-.87-.85-.17-.58-.23-1.18-.3-1.76v-.03c-.03-.24-.06-.5-.09-.74v-.07c-.11-.74-.21-1.43-.49-2.1-.27-.63-.7-1.08-1.33-1.37h-.02c-.31-.05-.59-.07-.85-.07-1.45,0-2.33,.66-3.04,2.29-.16,.36-.3,.73-.45,1.09l-.04,.1c-.09,.23-.18,.45-.27,.68-.11,.28-.24,.54-.48,.69-.63,.4-1.05,.99-1.48,1.74-.45,.79-1.11,1.37-2,1.77l-.29,.13c-.5,.22-1.02,.45-1.49,.77-.66,.45-.91,1.02-.8,1.79,.03,.21,.08,.41,.14,.64,.1,.39,.21,.8,.17,1.23-.17,1.71-.79,3.3-1.84,4.71-.23,.31-.5,.46-.85,.49-.23,.02-.42,.15-.5,.33-.06,.15-.04,.31,.07,.45,.53,.66,1.21,1.34,2.18,1.34,4.9,0,9.86,.01,14.76,.01,2.14,0,4.27,0,6.38,0h4.81c1.47,0,2.47-.98,2.47-2.44,0-7.94,0-16.21,0-24.57Zm-7.52-22.34c.83,0,1.66,0,2.5,0,.67,0,.82,.16,.82,.82,0,1.28,0,2.56,0,3.84,0,.31-.1,.56-.29,.71-.14,.12-.32,.18-.54,.18-.09,0-.18,0-.27-.03-.31-.06-.31-.29-.31-.42v-.56c0-.26,0-.51,0-.77,0-.21-.05-.37-.15-.47-.07-.07-.16-.1-.29-.1h0c-.11,.01-.23,.03-.31,.12-.09,.09-.13,.25-.13,.44,.01,.23,0,.47,0,.67v.02c0,.19,0,.39,0,.59,.01,.33-.13,.48-.47,.49-.51,.02-.75,.03-.89-.11-.15-.14-.15-.39-.15-.89v-.23c0-.19,0-.37,0-.56,0-.35-.15-.54-.43-.54-.11,.02-.23,.03-.31,.11-.09,.09-.13,.24-.12,.43,0,.2,0,.41,0,.61v.02c0,.19,0,.4,0,.6,0,.12,0,.3-.12,.42-.09,.09-.22,.13-.41,.13h-.24c-.4,0-.56,0-.66-.11-.09-.09-.09-.22-.08-.46,0-.09,0-.21,0-.34,0-.12,0-.23,0-.35v-.02c0-.14,0-.28,0-.42-.03-.54-.3-.63-.47-.63-.27,0-.44,.22-.46,.61,0,.15,0,.3,0,.47,0,.21,0,.39,0,.57,0,.04,0,.08,.01,.14,.02,.17,.06,.47-.36,.53-.45,.06-.81,0-1.01-.17-.11-.09-.18-.22-.18-.36-.09-1.49-.08-3,0-4.48,.02-.43,.41-.52,.73-.52,.74,0,1.5,0,2.23,0h2.36Zm-4,6.38c2.01,.01,4.08,.01,6.16,0,.34,0,.53,.12,.68,.43,.28,.58,.57,1.17,.86,1.73l.06,.12c.17,.35,.35,.69,.52,1.04l.05,.09c.08,.15,.17,.31,.16,.55v.11h-10.24c-.36,0-.49,0-.55-.11-.07-.11-.02-.22,.15-.56l.11-.22c.45-.89,.92-1.81,1.36-2.74,.15-.32,.33-.44,.69-.44Zm-15.3,34.05c-.22-.88-.09-1.16,.72-1.58,.38-.2,.78-.38,1.17-.55h.02c1.14-.51,1.96-1.25,2.53-2.25,.36-.64,.76-1.1,1.24-1.44,.44-.31,.64-.8,.85-1.32l.03-.06c.08-.2,.16-.41,.24-.63,.18-.47,.36-.97,.62-1.42,.16-.29,.33-.51,.52-.69,.52-.49,1.15-.68,1.73-.53,.57,.15,1.02,.62,1.22,1.28,.22,.71,.29,1.44,.37,2.15v.03c.04,.31,.07,.63,.12,.94,.06,.43,.14,.88,.3,1.32,.24,.68,.65,1.07,1.29,1.22,.9,.22,1.56,.81,2.21,1.39l.05,.05c.24,.21,.48,.43,.72,.65l.05,.04c.36,.33,.73,.66,1.1,.98,.4,.35,.83,.6,1.27,.74,.41,.13,.64,.42,.71,.87,.08,.51,.16,1.04,.27,1.54,.15,.67,.54,1.19,1.13,1.48,.68,.34,1.06,.89,1.19,1.7,0,.03,0,.05,.02,.09,.01,.05,.03,.11,.03,.17,0,.13,.02,.28,.03,.41,.04,.46,.1,.98-.2,1.34h0c-.11,.13-.28,.2-.54,.2-.15,0-.31-.02-.48-.04-.15-.02-.3-.04-.44-.04-1.93,0-3.86,0-5.79,0h-1.93s-4.43,0-4.43,0c-3.09,0-6.18,0-9.27,0h-.09c-.15,0-.31,0-.48-.07-.24-.12-.42-.2-.45-.35-.03-.14,.07-.26,.28-.49,1.08-1.19,1.78-2.7,2.21-4.74,.18-.84,.03-1.64-.15-2.38Z"/><path d="M42.92,60.37c.39,.15,.8,.22,1.2,.22,.98,0,1.94-.43,2.61-1.21,.93-1.09,1.08-2.64,.37-3.76-1.04-1.65-2.46-2.9-4.07-4.26-.07-.06-.21-.15-.36-.11-.14,.03-.26,.15-.34,.33-.12,.25-.21,.52-.3,.77l-.05,.14c-.53,1.52-1.08,3.09-1.18,4.47-.05,1.61,.74,2.89,2.13,3.42Zm-1.16-3.98c.26-1.42,.71-2.73,1.12-3.82l.06-.15,.12,.11c1.13,1.02,2.22,2.03,3.12,3.26,.62,.85,.66,1.79,.11,2.7-.48,.8-1.2,1.22-2.09,1.22-.09,0-.19,0-.29-.02-1.04-.11-1.78-.69-2.14-1.67-.2-.55-.1-1.1,0-1.64Z"/><path d="M58.12,53.99c.1,.11,.31,.16,.61,.16h4.3c.96,0,1.92,0,2.88,0,.4,0,.63-.07,.67-.44,0-.11-.02-.19-.08-.26-.1-.11-.3-.18-.58-.18-.78,0-1.55,0-2.33,0h-2.92c-.64,0-1.28,0-1.92,0-.44,0-.69,.02-.72,.43,0,.12,.02,.22,.08,.28Z"/><path d="M58.64,50.45c-.43,0-.6,.12-.6,.43,0,.14,.03,.23,.1,.3,.09,.09,.24,.13,.44,.13,.02,0,.04,0,.07,0,.61,0,1.21,0,1.82,0h3.51c.65,0,1.3,0,1.95,0,.27,0,.47-.06,.57-.18,.06-.07,.09-.16,.07-.26-.04-.31-.21-.43-.64-.43-2.52,0-4.97,0-7.29,0h0Z"/><path d="M64.99,48.53c.24,0,.4-.05,.5-.15,.07-.07,.1-.17,.1-.31,0-.22-.08-.44-.61-.44-.39,0-.79,0-1.18,0h-2.7c-.41,0-.82,0-1.23,0-.23,0-.4,.05-.49,.14-.07,.07-.1,.17-.1,.3,0,.12,0,.44,.61,.44h5.11Z"/><path d="M51.05,67.95h-.02c-.27,0-.47,.06-.58,.18-.06,.07-.09,.15-.08,.26,.03,.32,.21,.44,.67,.44h0c.44,0,.65-.07,.67-.44,0-.12-.02-.22-.08-.29-.1-.11-.3-.16-.59-.16Z"/><path d="M50.01,64.59h.02c.61,0,.7-.22,.71-.43,0-.13-.03-.22-.09-.29-.1-.1-.28-.16-.55-.16h-.03c-.29,0-.49,.06-.6,.17-.06,.07-.09,.16-.08,.26,.02,.31,.2,.44,.62,.45Z"/><path d="M53.83,64.15c0,.1,.02,.19,.08,.26,.1,.12,.31,.18,.57,.18h0c.31,0,.5-.06,.6-.16,.07-.07,.1-.17,.09-.29-.02-.39-.27-.43-.67-.43h-.05c-.36,0-.59,.07-.62,.44Z"/><path d="M46.59,68.83h0c.42,0,.64-.06,.69-.4,.02-.12,0-.22-.07-.29-.1-.11-.29-.18-.54-.19-.32-.02-.55,.05-.66,.17-.06,.07-.09,.16-.08,.28,.03,.36,.26,.43,.65,.44Z"/><path d="M55.48,67.95c-.26,0-.46,.06-.57,.16-.07,.07-.1,.16-.1,.27,0,.2,.12,.44,.68,.44,.29,0,.5-.06,.6-.18,.07-.08,.09-.19,.07-.32-.06-.35-.3-.38-.68-.38Z"/><path d="M57.71,68.83v-.07s0,.07,0,.07c.03,0,.07,0,.1,0,.38,0,.55-.13,.58-.44,.01-.1-.01-.19-.07-.26-.1-.12-.31-.18-.57-.19h-.03c-.28,0-.47,.05-.57,.15-.04,.04-.1,.12-.1,.29,0,.22,.08,.44,.66,.44Z"/><path d="M53.34,67.95v.07s0-.07,0-.07c-.33,0-.58,.09-.68,.24-.07,.1-.07,.22,0,.37,.07,.17,.32,.29,.63,.29,.11,0,.22-.01,.33-.05,.34-.09,.36-.32,.35-.45-.02-.19-.12-.44-.61-.4Z"/><path d="M60.03,68.83h0c.2,0,.47,0,.56-.34,.04-.14,.02-.25-.05-.34-.1-.13-.31-.2-.62-.2h-.03c-.44,0-.61,.12-.64,.44,0,.1,.02,.18,.07,.24,.08,.09,.27,.19,.7,.2Z"/><path d="M48.86,68.83h0s0,0,0,0c.26,0,.47-.07,.57-.18,.06-.07,.09-.16,.08-.26-.03-.36-.27-.44-.63-.44h-.04c-.4,0-.64,.04-.66,.43,0,.13,.02,.22,.09,.29,.1,.1,.28,.15,.59,.16Z"/><path d="M52.54,64.6c.1,0,.19-.03,.26-.08,.09-.07,.15-.2,.17-.36,.01-.11-.01-.2-.08-.27-.11-.12-.31-.18-.61-.18h0c-.27,.02-.46,.04-.57,.15-.06,.07-.09,.16-.09,.28,.02,.37,.23,.44,.84,.45,.02,0,.05,0,.07,0Z"/><path d="M52.26,60.25s.03,0,.04,0c.26,0,.47-.06,.57-.18,.06-.07,.09-.16,.08-.26-.03-.32-.2-.44-.63-.44-.65,0-.71,.22-.71,.43,0,.13,.03,.23,.1,.3,.1,.1,.28,.16,.54,.16Z"/><path d="M45.84,70.94s.06,0,.08,0c.26,0,.44-.05,.54-.16,.06-.06,.08-.15,.07-.26-.03-.37-.26-.44-.67-.44h0c-.4,0-.63,.07-.66,.44-.01,.11,.01,.2,.07,.26,.12,.14,.38,.16,.57,.17Z"/><path d="M51.89,66.01c-.11-.11-.31-.17-.6-.18h-.04c-.25,0-.4,.04-.5,.13-.07,.07-.1,.17-.1,.31,0,.14,.03,.25,.1,.31,.08,.08,.22,.12,.44,.12,.04,0,.07,0,.12,0,.58,0,.67-.21,.68-.41,0-.12-.02-.21-.09-.28Z"/><path d="M61.21,70.94s.08,0,.12,0h.02c.35,0,.59-.08,.69-.23,.06-.1,.07-.22,.01-.36-.1-.25-.53-.38-.95-.26-.26,.07-.38,.23-.36,.45,.01,.09,.04,.23,.15,.32,.08,.06,.18,.09,.32,.09Z"/><path d="M50.31,70.07h-.01c-.27,0-.45,.06-.55,.16-.06,.07-.09,.16-.09,.28,0,.16,.05,.25,.12,.32,.08,.07,.19,.1,.38,.1,.04,0,.08,0,.12,0,.61,0,.7-.21,.71-.42,0-.12-.03-.21-.1-.28-.11-.11-.31-.17-.59-.17Z"/><path d="M57.78,66.7s.08,0,.13,0v-.07s0,.07,0,.07c.33,0,.58-.09,.68-.25,.04-.07,.08-.19,0-.37-.08-.17-.34-.29-.64-.29-.11,0-.22,.02-.33,.05-.25,.08-.37,.24-.34,.46,.03,.18,.11,.4,.48,.4Z"/><path d="M51.16,62.46s.06,0,.09,0v-.07s0,.07,0,.07c.34,0,.58-.08,.68-.24,.04-.07,.08-.19,0-.37-.12-.26-.35-.26-.64-.26-.28,0-.47,.06-.57,.16-.06,.07-.09,.16-.08,.28,.02,.31,.16,.43,.52,.43Z"/><path d="M54.78,70.07h-.03c-.42,0-.65,.08-.65,.44,0,.15,.03,.25,.1,.32,.08,.08,.21,.11,.41,.11,.03,0,.07,0,.1,0,.29,.02,.54-.05,.65-.18,.06-.06,.08-.15,.07-.25-.04-.32-.21-.44-.65-.44Z"/><path d="M48.82,66.69s.09,0,.13,0h.11s.06,0,.09,0c.02,0,.04,0,.06,0,.2,0,.34-.04,.43-.13,.07-.07,.11-.17,.1-.31,0-.2-.08-.27-.1-.29-.1-.09-.27-.13-.53-.13h-.05s-.02-.76-.02-.76l-.15,.76s-.06,0-.09,0c-.19,.04-.42,.14-.4,.46,.01,.24,.16,.38,.41,.4Z"/><path d="M54.16,66.08c-.08-.17-.34-.28-.64-.28-.11,0-.22,.02-.33,.05-.25,.08-.37,.24-.33,.46,.03,.18,.12,.39,.51,.39,.03,0,.07,0,.1,0v-.07s.01,.07,.01,.07c.33,0,.57-.09,.68-.25,.04-.07,.08-.19,0-.36Z"/><path d="M55.18,66.58c.12,.12,.36,.13,.57,.12v-.07h0l.02,.07s.09,0,.13,0c.32,0,.48-.13,.51-.43,.01-.1,0-.19-.07-.26-.1-.12-.32-.18-.62-.19-.17,0-.42,0-.54,.13-.07,.07-.1,.17-.1,.31,0,.14,.03,.24,.1,.31Z"/><path d="M46.91,66.7h.02c.41,0,.58-.12,.59-.43,0-.12-.02-.21-.08-.28-.1-.1-.28-.16-.56-.16-.28,0-.48,.05-.58,.16-.07,.07-.1,.16-.1,.29,0,.21,.06,.42,.71,.42Z"/><path d="M52.85,62.05c.02,.18,.1,.4,.5,.4,.04,0,.07,0,.12,0v-.07s.01,.07,.01,.07c.33,0,.57-.09,.68-.25,.04-.07,.08-.19,0-.36-.08-.17-.33-.29-.63-.29-.11,0-.22,.01-.33,.05-.25,.07-.37,.23-.34,.46Z"/><path d="M47.49,70.76c.1,.12,.32,.18,.61,.18s.49-.06,.59-.18c.06-.07,.08-.17,.07-.28-.05-.35-.25-.41-.7-.41h-.01c-.41,0-.59,.12-.63,.43-.01,.1,0,.19,.07,.26Z"/><path d="M52.54,70.04h0c-.28,0-.52,.1-.62,.26-.08,.14-.08,.27,0,.4,.13,.23,.34,.24,.63,.23,.05,0,.11,0,.16,0,.2,0,.36-.04,.46-.24,.07-.14,.07-.27-.01-.41-.09-.15-.33-.25-.61-.25Z"/><path d="M56.3,70.58c.03,.16,.12,.36,.47,.36,.04,0,.07,0,.11,0h.02c.34,0,.59-.09,.69-.24,.06-.1,.07-.21,0-.35-.07-.18-.34-.3-.64-.3-.11,0-.21,.01-.32,.04-.37,.11-.38,.35-.35,.49Z"/><path d="M58.53,70.52c.03,.33,.21,.42,.52,.42,.04,0,.08,0,.12,0,.46,0,.7-.14,.7-.42,0-.2-.11-.44-.66-.44h-.01c-.28,0-.48,.06-.58,.17-.06,.07-.09,.16-.08,.29Z"/></g></g></svg>