<?xml version="1.0" encoding="UTF-8"?><svg id="_레이어_2" xmlns="http://www.w3.org/2000/svg" viewBox="0 0 314.81 31.57"><defs><style>.cls-1{fill:#595757;}</style></defs><g id="_레이어_1-2"><g><path class="cls-1" d="M5.36,.66c-.15,3.49-2.68,4.94-4.91,5.73l-.46-.66c2.2-.78,4.22-2.1,4.4-4.33H.56V.66H5.36Zm3.41,10.64H1.68V7.04h7.09v4.26Zm-.89-.73v-2.79H2.58v2.79H7.88Zm.89-4.15h-.89V.11h.89V6.42Z"/><path class="cls-1" d="M10.16,8.09c2.27,.01,5.69-.07,7.63-.28v.74c-1.8,.26-5.04,.31-7.63,.31v-.78Zm3.56-1.99c-1.73,0-3.04-1.12-3.04-2.72s1.33-2.71,2.98-2.71c1.82,0,2.98,1.24,2.98,2.75s-1.12,2.69-2.92,2.69Zm2.01-2.71c0-1.16-.78-1.94-2.07-1.94s-2.08,.88-2.08,1.94c0,1.15,.8,1.94,2.11,1.94s2.05-.78,2.05-1.94Zm3.65,7.96h-.88V.11h.88V11.36Z"/><path class="cls-1" d="M27.17,1.46v1.09c0,1.8,1.47,2.65,2.82,3.2l-.4,.68c-1.02-.4-2.36-1.28-2.87-2.4-.49,1.29-1.71,2.1-2.85,2.69l-.52-.6c1.45-.73,2.89-1.7,2.89-3.56V1.46h-2.34V.72h5.59v.74h-2.33Zm5.62,9.71h-7.38v-3.63h.91v2.88h6.47v.76Zm-.26-3.13h-.88V3.77h-2.31v-.76h2.31V.11h.88v7.94Z"/><path class="cls-1" d="M43.95,6.51h-4.6v2.36h-.89v-2.36h-4.87v-.76h10.36v.76Zm-1.02,4.67h-7.91v-3.46h.89v2.7h7.01v.76Zm-.51-6.85h-7.32V.46h7.32v3.87Zm-.87-.77V1.22h-5.56V3.56h5.56Z"/><path class="cls-1" d="M49.25,.96c-.04,4.56-2,6.5-4.69,7.99l-.6-.68c2.98-1.58,4.32-3.61,4.33-6.56h-3.99V.96h4.95Zm3.24-.85V4.44h1.96v.79h-1.96v6.13h-.89V.11h.89Z"/><path class="cls-1" d="M59.6,.96c-.04,4.56-2,6.5-4.69,7.99l-.6-.68c2.98-1.58,4.32-3.61,4.33-6.56h-3.99V.96h4.95Zm3.24-.85V4.44h1.96v.79h-1.96v6.13h-.89V.11h.89Z"/><path class="cls-1" d="M70.81,.37c1.79,0,2.89,1.24,2.89,2.66s-1.04,2.66-2.89,2.66-2.89-1.22-2.89-2.66,1.11-2.66,2.89-2.66Zm2,2.66c0-1.02-.72-1.92-2-1.92-1.36,0-2,.9-2,1.92s.6,1.91,2,1.91c1.32,0,2-.88,2-1.91Zm3.99,8.26h-7.09V7.04h7.09v4.26Zm-.89-.73v-2.79h-5.31v2.79h5.31Zm-1.79-7.94h1.79V.11h.89V6.36h-.89V3.38h-1.79v-.75Z"/><path class="cls-1" d="M84.27,6.38c-1.02-.41-2.43-1.28-2.94-2.4-.51,1.29-1.76,2.1-2.91,2.69l-.51-.6c1.45-.73,2.94-1.7,2.94-3.56V.49h.93V2.49c0,1.8,1.53,2.65,2.88,3.2l-.4,.68Zm3.2,4.8h-7.38v-3.63h.91v2.88h6.47v.76Zm-.26-3.13h-.88V3.27h-2.42v-.76h2.42V.11h.88v7.94Z"/><path class="cls-1" d="M94.72,2.09h-6.62v-.72h2.85V0h.94V1.37h2.83v.72Zm-3.31,5.05c-1.64,0-2.69-1.03-2.69-2.23s1.07-2.17,2.71-2.17,2.67,.94,2.67,2.17-.99,2.23-2.68,2.23Zm-1.8-2.24c0,.84,.6,1.54,1.81,1.54s1.79-.65,1.79-1.54c0-.84-.58-1.47-1.79-1.47s-1.81,.63-1.81,1.47Zm7.72,6.29h-7.33v-3.26h.91v2.51h6.42v.76Zm-.39-11.07V3.81h1.81v.77h-1.81v3.69h-.88V.11h.88Z"/><path class="cls-1" d="M108,2.09h-6.62v-.72h2.85V0h.94V1.37h2.83v.72Zm-3.31,5.05c-1.63,0-2.69-1.03-2.69-2.23s1.07-2.17,2.71-2.17,2.67,.94,2.67,2.17-.99,2.23-2.68,2.23Zm-1.8-2.24c0,.84,.6,1.54,1.81,1.54s1.79-.65,1.79-1.54c0-.84-.58-1.47-1.79-1.47s-1.81,.63-1.81,1.47Zm7.72,6.29h-7.33v-3.26h.91v2.51h6.42v.76Zm-.39-11.07V3.81h1.81v.77h-1.81v3.69h-.88V.11h.88Z"/><path class="cls-1" d="M122.27,5.28h-4.74v2.04h3.29v4.1h-.89v-3.35h-6.73v-.75h3.4v-2.04h-4.69v-.75h7.56c.12-.76,.34-2.48,.35-3.31h-6.48V.44h7.46c-.04,1.02-.26,3.12-.41,4.08h1.88v.75Z"/><path class="cls-1" d="M128.31,6.38c-1.02-.41-2.43-1.28-2.94-2.4-.51,1.29-1.76,2.1-2.91,2.69l-.52-.6c1.45-.73,2.95-1.7,2.95-3.56V.49h.93V2.49c0,1.8,1.52,2.65,2.87,3.2l-.39,.68Zm3,4.8h-7.33v-3.63h.91v2.88h6.42v.76Zm-.39-11.07V3.2h1.81v.77h-1.81v4.14h-.88V.11h.88Z"/><path class="cls-1" d="M135.79,5.26c2.27,.01,5.53-.07,7.46-.26v.71c-.98,.14-2.35,.23-3.8,.28v1.8h-.89v-1.79c-.94,.02-1.88,.02-2.76,.02v-.75Zm3.49-4.98c1.63,0,2.78,.79,2.78,2s-1.12,2.01-2.78,2.01-2.79-.77-2.79-2.01,1.19-2,2.79-2Zm0,.68c-1.29,0-1.92,.55-1.92,1.32s.65,1.31,1.93,1.31,1.92-.56,1.92-1.31-.62-1.32-1.93-1.32Zm5.92,10.21h-7.68v-2.81h.89v2.05h6.79v.76Zm-.29-2.48h-.88v-1.16h-2.69v-.77h2.69V.11h.88V8.7Z"/><path class="cls-1" d="M156.26,9.77h-10.36v-.77h4.71v-2.61h.92v2.61h4.74v.77Zm-4.73-8.12h3.39v.77h-3.38v.31c0,1.61,2.29,2.95,3.98,3.53l-.51,.65c-1.41-.44-3.26-1.62-3.94-2.9-.66,1.28-2.36,2.34-3.94,2.91l-.51-.67c1.66-.52,3.96-1.91,3.96-3.51v-.31h-3.35v-.77h3.36V0h.93V1.65Z"/><path class="cls-1" d="M156.08,8.44c.92,.01,1.96,0,3.01-.02v-1.92h.91v1.88c1.24-.04,2.44-.11,3.37-.2v.74c-1.8,.28-4.67,.31-7.28,.31v-.79Zm3.49-2.5c-1.73,0-3.04-1.1-3.04-2.71s1.33-2.72,2.98-2.72c1.82,0,2.98,1.25,2.98,2.76s-1.12,2.67-2.92,2.67Zm2.01-2.7c0-1.16-.78-1.94-2.07-1.94s-2.07,.88-2.07,1.94c0,1.15,.79,1.94,2.09,1.94s2.05-.78,2.05-1.94Zm3.44-3.14V4.63h1.86v.77h-1.86v5.96h-.88V.11h.88Z"/><path class="cls-1" d="M169.85,8.59c.94,.01,2.15,0,3.22-.04v-2.24h.91v2.22c1.21-.04,2.6-.12,3.52-.22v.74c-1.8,.28-5.05,.31-7.65,.31v-.78Zm6.61-2.21c-1.07-.47-2.26-1.25-2.88-2.42-.52,1.14-1.79,2.09-2.96,2.54l-.49-.64c1.59-.67,2.96-1.66,2.96-3.36v-.16h-2.64v-.74h2.64V0h.93V1.61h2.63v.74h-2.63v.16c0,1.63,1.34,2.65,2.85,3.15l-.4,.72Zm2.51,4.98h-.88V.11h.88V11.36Z"/><path class="cls-1" d="M190.24,9.46h-10.36v-.76h3.82V4.58h.91v4.13h5.63v.76Zm-2.85-2.32c.31-1.59,.52-3.65,.52-5.43h-6.67V.96h7.65c-.07,2.41-.29,4.38-.6,6.19h-.89Z"/><path class="cls-1" d="M200.59,5.22h-10.36v-.76h7.52c.15-1,.36-2.57,.39-3.27h-6.47V.42h7.45c-.01,.79-.27,2.92-.44,4.04h1.92v.76Zm-1.45,6.08h-7.48V6.34h.88v1.63h5.72v-1.63h.88v4.95Zm-.88-.73v-1.86h-5.72v1.86h5.72Z"/><path class="cls-1" d="M204.91,2.37c0-1.17,1.25-2.17,3.78-2.17s3.78,.98,3.78,2.17-1.14,2.08-3.31,2.18v1.31h4.73v.75h-10.36v-.75h4.72v-1.31c-2.21-.1-3.33-1-3.33-2.18Zm7.53,9.04h-.89v-2.91h-6.73v-.77h7.62v3.68Zm-6.6-9.04c0,.91,1.18,1.48,2.85,1.48s2.85-.56,2.85-1.48c0-.84-1.2-1.44-2.85-1.44s-2.85,.61-2.85,1.44Z"/><path class="cls-1" d="M218.58,8.37h-4.28V.85h.88V3.73h2.53V.85h.87v7.52Zm-.87-.76v-3.13h-2.53v3.13h2.53Zm5.58,3.74h-.87V5.08h-1.62v5.91h-.87V.17h.87V4.26h1.62V.11h.87V11.36Z"/><path class="cls-1" d="M234.58,7.39h-2.76v3.97h-.89v-3.97h-3.08v3.85h-.91v-3.85h-2.72v-.77h10.36v.77Zm-1.36-4.65c0,1.54-1.32,2.46-3.82,2.46s-3.82-.92-3.82-2.46,1.34-2.45,3.82-2.45,3.82,.95,3.82,2.45Zm-3.82,1.74c1.72,0,2.92-.61,2.92-1.75,0-1.08-1.18-1.71-2.92-1.71s-2.93,.62-2.93,1.73,1.18,1.74,2.93,1.74Z"/><path class="cls-1" d="M244.93,5.29v.75h-10.36v-.75h10.36Zm-1.14,6.13h-7.79v-2.55h6.54v-1.12h-6.54v-.71h7.48v2.5h-6.52v1.17h6.82v.71Zm-7.73-7.09V1.91h6.41V.91h-6.41V.19h7.31V2.6h-6.4v1.01h6.69v.72h-7.6Z"/><path class="cls-1" d="M251.49,.62V3.68c-.01,1.93,1.47,3.31,2.95,4.04l-.45,.72c-.96-.55-2.35-1.52-2.98-3.07-.56,1.58-1.8,2.55-3.05,3.33l-.58-.65c1.67-.95,3.15-2.4,3.15-4.43V.62h.94Zm5.09-.52V3.98h1.95v.79h-1.95v6.58h-.88V.11h.88Z"/><path class="cls-1" d="M268.57,6.22h-10.36v-.74h2.8v-1.6c-.93-.35-1.41-.94-1.41-1.7,0-1.17,1.33-2,3.78-2s3.78,.82,3.78,2c0,.77-.48,1.33-1.38,1.68v1.62h2.8v.74Zm-1.29,3.19c0,1.22-1.25,2.16-3.89,2.16s-3.87-.94-3.87-2.16,1.26-2.15,3.87-2.15,3.89,.9,3.89,2.15Zm-3.89-1.44c-1.82,0-2.91,.58-2.91,1.43s1.08,1.44,2.91,1.44,2.92-.55,2.92-1.44-1.09-1.43-2.92-1.43Zm-2.86-5.79c0,.92,1.26,1.32,2.85,1.32s2.85-.4,2.85-1.32c0-.83-1.26-1.27-2.85-1.27s-2.85,.46-2.85,1.27Zm2.85,2.05c-.55,0-1.05-.05-1.47-.12v1.37h2.99v-1.38c-.45,.08-.96,.13-1.52,.13Z"/><path class="cls-1" d="M275,2.09h-6.62v-.72h2.85V0h.94V1.37h2.83v.72Zm-3.31,5.05c-1.63,0-2.69-1.03-2.69-2.23s1.07-2.17,2.71-2.17,2.67,.94,2.67,2.17-.99,2.23-2.68,2.23Zm-1.8-2.24c0,.84,.6,1.54,1.81,1.54s1.79-.65,1.79-1.54c0-.84-.58-1.47-1.79-1.47s-1.81,.63-1.81,1.47Zm7.72,6.29h-7.33v-3.26h.91v2.51h6.42v.76Zm-.39-11.07V3.81h1.81v.77h-1.81v3.69h-.88V.11h.88Z"/><path class="cls-1" d="M292.2,9.46h-10.36v-.76h3.82V4.58h.91v4.13h5.63v.76Zm-2.85-2.32c.31-1.59,.52-3.65,.52-5.43h-6.67V.96h7.65c-.07,2.41-.29,4.38-.6,6.19h-.89Z"/><path class="cls-1" d="M302.55,5.22h-10.36v-.76h7.52c.15-1,.36-2.57,.39-3.27h-6.47V.42h7.45c-.01,.79-.27,2.92-.44,4.04h1.92v.76Zm-1.45,6.08h-7.48V6.34h.88v1.63h5.72v-1.63h.88v4.95Zm-.88-.73v-1.86h-5.72v1.86h5.72Z"/><path class="cls-1" d="M308.3,.66c-.15,3.49-2.68,4.94-4.91,5.73l-.46-.66c2.2-.78,4.22-2.1,4.4-4.33h-3.83V.66h4.8Zm3.41,10.64h-7.09V7.04h7.09v4.26Zm-.89-.73v-2.79h-5.31v2.79h5.31Zm.89-4.15h-.89V.11h.89V6.42Z"/><path class="cls-1" d="M313.55,9.29h1.26v1.22h-1.26v-1.22Z"/><path class="cls-1" d="M45.72,28.59c.94,.01,2.15,0,3.22-.04v-2.24h.91v2.22c1.21-.04,2.6-.12,3.52-.22v.74c-1.8,.28-5.05,.31-7.65,.31v-.78Zm6.61-2.21c-1.07-.47-2.26-1.25-2.88-2.42-.52,1.14-1.79,2.09-2.96,2.54l-.49-.64c1.59-.67,2.96-1.66,2.96-3.36v-.16h-2.63v-.74h2.63v-1.61h.93v1.61h2.64v.74h-2.64v.16c0,1.63,1.34,2.65,2.85,3.15l-.4,.72Zm2.51,4.98h-.88v-11.25h.88v11.25Z"/><path class="cls-1" d="M62.11,26.1c-1.02-.41-2.36-1.28-2.87-2.4-.49,1.29-1.71,2.09-2.85,2.67l-.52-.6c1.45-.72,2.89-1.7,2.89-3.56v-.82h-2.34v-.74h5.59v.74h-2.33v.8c0,1.8,1.47,2.66,2.82,3.2l-.4,.7Zm2.93,5.31h-.88v-3.31h-6.45v-.76h7.33v4.07Zm.01-4.8h-.88v-3.05h-2.31v-.75h2.31v-2.71h.88v6.51Z"/><path class="cls-1" d="M66.31,28.09c2.27,.01,5.69-.07,7.63-.28v.74c-1.8,.26-5.04,.31-7.63,.31v-.78Zm3.56-1.99c-1.73,0-3.04-1.12-3.04-2.72s1.33-2.71,2.98-2.71c1.82,0,2.98,1.24,2.98,2.75s-1.12,2.69-2.92,2.69Zm2.01-2.71c0-1.16-.78-1.94-2.07-1.94s-2.08,.88-2.08,1.94c0,1.15,.8,1.94,2.11,1.94s2.05-.78,2.05-1.94Zm3.65,7.96h-.88v-11.25h.88v11.25Z"/><path class="cls-1" d="M82.39,20.44c1.79,0,2.88,1.27,2.88,2.7s-1.02,2.7-2.88,2.7-2.89-1.26-2.89-2.7,1.11-2.7,2.89-2.7Zm2,2.7c0-1.02-.72-1.94-2-1.94-1.38,0-2.01,.92-2.01,1.94s.6,1.94,2.01,1.94c1.32,0,2-.91,2-1.94Zm3.83,6.1c0,1.34-1.09,2.33-3.62,2.33s-3.65-.97-3.65-2.33,1.11-2.36,3.65-2.36,3.62,1.01,3.62,2.36Zm-.92,.01c0-1.01-.99-1.67-2.69-1.67s-2.72,.66-2.72,1.67c0,.94,.96,1.6,2.72,1.6s2.69-.61,2.69-1.6Zm2.54-4.58h-1.82v1.91h-.89v-6.48h.89v1.43h1.82v.75h-1.82v1.64h1.82v.74Z"/><path class="cls-1" d="M100.1,28.77v.75h-10.36v-.75h10.36Zm-1.36-5.28c0,1.55-1.34,2.92-3.82,2.92s-3.81-1.37-3.81-2.92,1.35-2.9,3.81-2.9,3.82,1.38,3.82,2.9Zm-.89,0c0-1.24-1.07-2.15-2.93-2.15s-2.93,.94-2.93,2.15,1.06,2.16,2.93,2.16,2.93-.98,2.93-2.16Z"/><path class="cls-1" d="M105.72,27.35v1.81h4.73v.76h-10.36v-.76h4.72v-1.81h.92Zm-4.15-.5v-3.43h6.44v-1.87h-6.47v-.76h7.36v3.37h-6.42v1.93h6.79v.76h-7.69Z"/><path class="cls-1" d="M119.82,22.04h-6.62v-.72h2.85v-1.37h.94v1.37h2.83v.72Zm-3.31,4.56c-1.73,0-2.69-.95-2.69-2.01s.98-1.94,2.71-1.94,2.67,.88,2.67,1.94-.93,2.01-2.68,2.01Zm-1.8-2.03c0,.68,.6,1.32,1.81,1.32s1.79-.61,1.79-1.32c0-.67-.58-1.25-1.79-1.25s-1.81,.58-1.81,1.25Zm7.54,4.87c0,1.22-1.08,2.12-3.64,2.12s-3.63-.92-3.63-2.13,1.12-2.15,3.65-2.15,3.62,.91,3.62,2.16Zm-.94-.01c0-.86-.98-1.44-2.69-1.44s-2.69,.54-2.69,1.44c0,.83,.95,1.43,2.71,1.43s2.68-.59,2.68-1.43Zm2.54-5.54h-1.81v3h-.88v-6.78h.88v3.03h1.81v.74Z"/><path class="cls-1" d="M129.78,25.98c-1.02-.4-2.43-1.28-2.94-2.39-.51,1.29-1.76,2.09-2.91,2.67l-.52-.6c1.45-.72,2.95-1.7,2.95-3.56v-1.64h.93v1.63c0,1.8,1.52,2.65,2.87,3.2l-.39,.68Zm2.94,3.26c0,1.34-1.09,2.33-3.62,2.33s-3.66-.97-3.66-2.33,1.11-2.36,3.66-2.36,3.62,1.01,3.62,2.36Zm-.93,.01c0-1.01-.99-1.67-2.68-1.67s-2.73,.66-2.73,1.67c0,.94,.98,1.6,2.73,1.6s2.68-.61,2.68-1.6Zm2.41-5.86h-1.81v3.2h-.88v-6.49h.88v2.54h1.81v.74Z"/><path class="cls-1" d="M142.43,28.3h-5.07v-7.4h.89v2.81h3.28v-2.81h.89v7.4Zm-.89-.76v-3.07h-3.28v3.07h3.28Zm6-2.71h-1.96v6.52h-.89v-11.25h.89v3.92h1.96v.8Z"/><path class="cls-1" d="M153.42,26.01c-1.02-.4-2.42-1.28-2.93-2.39-.51,1.29-1.76,2.1-2.91,2.69l-.53-.61c1.45-.72,2.95-1.7,2.95-3.56v-1.7h.93v1.69c0,1.8,1.52,2.66,2.87,3.21l-.39,.67Zm2.61,5.41h-.88v-3.3h-6.32v-.76h7.2v4.05Zm1.81-7.99h-1.81v3.3h-.88v-6.62h.88v2.57h1.81v.76Z"/><path class="cls-1" d="M164.16,22.09h-6.62v-.72h2.85v-1.37h.94v1.37h2.83v.72Zm-3.31,5.05c-1.64,0-2.69-1.03-2.69-2.23s1.07-2.17,2.71-2.17,2.67,.94,2.67,2.17-.99,2.23-2.68,2.23Zm-1.8-2.24c0,.84,.6,1.54,1.81,1.54s1.79-.65,1.79-1.54c0-.84-.58-1.47-1.79-1.47s-1.81,.63-1.81,1.47Zm7.72,6.29h-7.33v-3.26h.91v2.51h6.42v.76Zm-.39-11.07v3.71h1.81v.77h-1.81v3.69h-.88v-8.17h.88Z"/><path class="cls-1" d="M181.37,29.64h-10.36v-.76h4.71v-2.73h.92v2.73h4.74v.76Zm-1.25-3.23c-1.41-.44-3.26-1.62-3.94-2.9-.66,1.28-2.36,2.34-3.94,2.91l-.51-.67c1.66-.52,3.95-1.91,3.95-3.51v-.68h-3.29v-.76h7.59v.76h-3.31v.68c0,1.61,2.27,2.95,3.95,3.53l-.51,.65Z"/><path class="cls-1" d="M187.22,28.31h-5.11v-7.35h5.11v7.35Zm-.88-.74v-5.86h-3.34v5.86h3.34Zm3.35-7.46h.89v11.25h-.89v-11.25Z"/><path class="cls-1" d="M197.46,20.66c-.15,3.49-2.68,4.94-4.91,5.73l-.46-.66c2.2-.78,4.22-2.1,4.4-4.33h-3.83v-.74h4.8Zm3.41,10.64h-7.09v-4.26h7.09v4.26Zm-.89-.73v-2.79h-5.31v2.79h5.31Zm.89-4.15h-.89v-6.31h.89v6.31Z"/><path class="cls-1" d="M212.41,24.89v.74h-10.36v-.74h10.36Zm-8.98-2.87c0-1.17,1.39-1.94,3.78-1.94s3.78,.75,3.78,1.94c0,1.3-1.44,1.98-3.78,1.98s-3.78-.71-3.78-1.98Zm7.83,9.39h-7.79v-2.72h6.54v-1.3h-6.54v-.71h7.48v2.69h-6.52v1.33h6.82v.71Zm-6.91-9.39c0,.91,1.28,1.27,2.85,1.27s2.85-.36,2.85-1.27c0-.83-1.29-1.22-2.85-1.22s-2.85,.41-2.85,1.22Z"/><path class="cls-1" d="M225.7,25.29h-10.36v-.74h10.36v.74Zm-1.31-1.5c-1.82-.36-3.19-1.04-3.88-1.98-.61,.94-2.13,1.63-3.86,1.98l-.44-.65c1.82-.31,3.44-.96,3.81-2.13h-3.26v-.73h7.48v.73h-3.25c.39,1.2,2.05,1.81,3.81,2.13l-.42,.65Zm.16,7.63h-7.79v-2.79h6.54v-1.36h-6.54v-.72h7.48v2.76h-6.52v1.4h6.82v.71Z"/><path class="cls-1" d="M231.38,20.96c.02,4.63-1.88,6.52-4.69,7.99l-.6-.68c3.19-1.61,4.33-3.6,4.33-6.56h-3.98v-.74h4.94Zm3.47,10.4h-.89v-4.68h-2.29v-.78h2.29v-2.58h-2.24v-.77h2.24v-2.45h.89v11.25Z"/><path class="cls-1" d="M241.67,26.99v2.01h4.73v.77h-10.36v-.77h4.72v-2.01h.92Zm-4.15-.58v-5.77h.89v2.08h5.61v-2.08h.88v5.77h-7.39Zm6.51-.76v-2.2h-5.61v2.2h5.61Z"/><path class="cls-1" d="M251.58,28.42c-1.08-.65-1.96-1.73-2.37-2.82-.29,1.19-1.48,2.45-2.6,3.08l-.55-.64c1.8-1.05,2.72-2.71,2.72-4.19v-3.23h.91v3.23c0,1.63,.92,3.03,2.4,3.91l-.51,.65Zm2.24,2.58h-.88v-6.66h-2.09v-.8h2.09v-3.37h.88v10.83Zm2.15,.36h-.88v-11.25h.88v11.25Z"/><path class="cls-1" d="M264.44,26.69v2.29h2.66v.77h-10.36v-.77h2.68v-2.29h.89v2.29h3.25v-2.29h.88Zm1.29-3.33c0,1.55-1.34,2.85-3.82,2.85s-3.81-1.31-3.81-2.85,1.35-2.85,3.81-2.85,3.82,1.33,3.82,2.85Zm-.89,0c0-1.24-1.07-2.09-2.93-2.09s-2.93,.88-2.93,2.09,1.06,2.1,2.93,2.1,2.93-.92,2.93-2.1Z"/><path class="cls-1" d="M267.75,29.29h1.26v1.22h-1.26v-1.22Z"/></g></g></svg>