<?xml version="1.0" encoding="UTF-8"?><svg id="_레이어_2" xmlns="http://www.w3.org/2000/svg" viewBox="0 0 226.22 31.57"><defs><style>.cls-1{fill:#595757;}</style></defs><g id="_레이어_1-2"><g><path class="cls-1" d="M.21,1.82c.69-.55,1.43-.89,2.36-.89,1.38,0,2.55,.73,2.55,2.16,0,.91-.63,1.63-1.58,2.03,1.15,.32,1.95,1.17,1.95,2.35,0,1.45-1.15,2.59-2.76,2.59-1.01,0-2.01-.35-2.74-.92l.43-.64c.6,.5,1.49,.78,2.26,.78,1.4,0,1.96-1.03,1.96-1.83,0-1.55-1.45-1.92-2.65-1.92h-.65v-.73h.65c1.05,0,2.27-.58,2.27-1.71,0-.94-.74-1.4-1.76-1.4-.69,0-1.31,.32-1.85,.72L.21,1.82Z"/><path class="cls-1" d="M9.82,4.79c1.12,.44,1.64,1.46,1.64,2.48,0,1.44-.99,2.79-2.83,2.79-.94,0-1.87-.34-2.6-.97l.46-.6c.68,.61,1.47,.78,2.06,.78,1.33,0,2.07-.92,2.07-2,0-1.15-.82-2.06-2.53-2.06-.45,0-.95,.06-1.39,.12l.13-4.28h4.26v.71h-3.42l-.08,2.78c.17-.01,.4-.02,.6-.02,.56,0,1.16,.07,1.65,.28Z"/><path class="cls-1" d="M18.83,5.86c-1.98,.3-4.15,.28-6.13,.28V.67h.89V5.35c1.49,0,3.36,0,5.24-.22v.73Zm2.42,5.31h-7.38v-3.66h.89v2.9h6.48v.76Zm-.26-3.12h-.89V4.02h-2.89v-.72h2.89v-1.14h-2.89v-.72h2.89V.11h.89v7.95Z"/><path class="cls-1" d="M30.87,.66c-.15,3.49-2.68,4.94-4.91,5.73l-.46-.66c2.2-.78,4.22-2.1,4.4-4.33h-3.83V.66h4.8Zm3.41,10.64h-7.09V7.04h7.09v4.26Zm-.89-.73v-2.79h-5.31v2.79h5.31Zm.89-4.15h-.89V.11h.89V6.42Z"/><path class="cls-1" d="M35.67,8.09c2.27,.01,5.69-.07,7.63-.28v.74c-1.8,.26-5.04,.31-7.63,.31v-.78Zm3.56-1.99c-1.73,0-3.04-1.12-3.04-2.72s1.33-2.71,2.98-2.71c1.82,0,2.98,1.24,2.98,2.75s-1.12,2.69-2.92,2.69Zm2.01-2.71c0-1.16-.78-1.94-2.07-1.94s-2.08,.88-2.08,1.94c0,1.15,.8,1.94,2.11,1.94s2.05-.78,2.05-1.94Zm3.65,7.96h-.88V.11h.88V11.36Z"/><path class="cls-1" d="M54.86,5.98c-1.02-.4-2.37-1.22-2.87-2.33-.51,1.3-1.72,2.03-2.86,2.61l-.52-.6c1.46-.72,2.89-1.62,2.89-3.48v-.76h-2.34V.7h5.6v.74h-2.33v.74c0,1.8,1.46,2.58,2.81,3.13l-.39,.67Zm2.75,3.3c0,1.34-1.08,2.29-3.62,2.29s-3.65-.94-3.65-2.29,1.11-2.33,3.65-2.33,3.62,.97,3.62,2.33Zm-.92,.01c0-1.01-.99-1.63-2.69-1.63s-2.72,.62-2.72,1.63c0,.94,.96,1.56,2.72,1.56s2.69-.58,2.69-1.56Zm2.53-5.9h-1.81v3.24h-.88V.11h.88V2.65h1.81v.74Z"/><path class="cls-1" d="M62.41,.48c1.79,0,2.91,1.3,2.91,2.79s-1.08,2.79-2.91,2.79-2.91-1.29-2.91-2.79,1.13-2.79,2.91-2.79Zm0,.77c-1.34,0-1.95,.96-1.95,2.03s.62,2.02,1.95,2.02,1.95-.95,1.95-2.02-.55-2.03-1.95-2.03Zm6.17,9.93h-7.38v-3.91h.91v3.15h6.47v.76Zm-.26-3.13h-.89V.11h.89v7.94Z"/><path class="cls-1" d="M75.57,4.65c0,2.58-1.01,3.96-2.84,3.96s-2.83-1.38-2.83-3.96,1.09-3.95,2.83-3.95,2.84,1.32,2.84,3.95Zm-.89-.01c0-1.97-.58-3.18-1.93-3.18s-1.95,1.19-1.95,3.18,.62,3.2,1.95,3.2,1.93-1.27,1.93-3.2Zm3.86,6.72h-.89V.11h.89V11.36Z"/><path class="cls-1" d="M85.97,.37c1.79,0,2.89,1.24,2.89,2.66s-1.04,2.66-2.89,2.66-2.89-1.22-2.89-2.66,1.11-2.66,2.89-2.66Zm2,2.66c0-1.02-.72-1.92-2-1.92-1.36,0-2,.9-2,1.92s.6,1.91,2,1.91c1.32,0,2-.88,2-1.91Zm3.99,8.26h-7.09V7.04h7.09v4.26Zm-.89-.73v-2.79h-5.31v2.79h5.31Zm-1.79-7.94h1.79V.11h.89V6.36h-.89V3.38h-1.79v-.75Z"/><path class="cls-1" d="M99.43,6.38c-1.02-.41-2.43-1.28-2.94-2.4-.51,1.29-1.76,2.1-2.91,2.69l-.51-.6c1.45-.73,2.94-1.7,2.94-3.56V.49h.93V2.49c0,1.8,1.53,2.65,2.88,3.2l-.4,.68Zm3.2,4.8h-7.38v-3.63h.91v2.88h6.47v.76Zm-.26-3.13h-.88V3.27h-2.42v-.76h2.42V.11h.88v7.94Z"/><path class="cls-1" d="M109.88,2.09h-6.62v-.72h2.85V0h.94V1.37h2.83v.72Zm-3.31,5.05c-1.64,0-2.69-1.03-2.69-2.23s1.07-2.17,2.71-2.17,2.67,.94,2.67,2.17-.99,2.23-2.68,2.23Zm-1.8-2.24c0,.84,.6,1.54,1.81,1.54s1.79-.65,1.79-1.54c0-.84-.58-1.47-1.79-1.47s-1.81,.63-1.81,1.47Zm7.72,6.29h-7.33v-3.26h.91v2.51h6.42v.76Zm-.39-11.07V3.81h1.81v.77h-1.81v3.69h-.88V.11h.88Z"/><path class="cls-1" d="M116.96,5.26c2.27,.01,5.53-.07,7.46-.26v.71c-.98,.14-2.35,.23-3.8,.28v1.8h-.89v-1.79c-.94,.02-1.88,.02-2.76,.02v-.75Zm3.49-4.98c1.63,0,2.78,.79,2.78,2s-1.12,2.01-2.78,2.01-2.79-.77-2.79-2.01,1.19-2,2.79-2Zm0,.68c-1.29,0-1.92,.55-1.92,1.32s.65,1.31,1.93,1.31,1.92-.56,1.92-1.31-.62-1.32-1.93-1.32Zm5.92,10.21h-7.68v-2.81h.89v2.05h6.79v.76Zm-.29-2.48h-.88v-1.16h-2.69v-.77h2.69V.11h.88V8.7Z"/><path class="cls-1" d="M137.43,9.77h-10.36v-.77h4.71v-2.61h.92v2.61h4.74v.77Zm-4.73-8.12h3.39v.77h-3.38v.31c0,1.61,2.29,2.95,3.98,3.53l-.51,.65c-1.41-.44-3.26-1.62-3.94-2.9-.66,1.28-2.37,2.34-3.94,2.91l-.51-.67c1.66-.52,3.96-1.91,3.96-3.51v-.31h-3.35v-.77h3.36V0h.93V1.65Z"/><path class="cls-1" d="M137.25,8.44c.92,.01,1.96,0,3.01-.02v-1.92h.91v1.88c1.24-.04,2.44-.11,3.37-.2v.74c-1.8,.28-4.67,.31-7.28,.31v-.79Zm3.49-2.5c-1.73,0-3.04-1.1-3.04-2.71s1.33-2.72,2.98-2.72c1.82,0,2.98,1.25,2.98,2.76s-1.12,2.67-2.92,2.67Zm2.01-2.7c0-1.16-.78-1.94-2.07-1.94s-2.07,.88-2.07,1.94c0,1.15,.79,1.94,2.09,1.94s2.05-.78,2.05-1.94Zm3.44-3.14V4.63h1.86v.77h-1.86v5.96h-.88V.11h.88Z"/><path class="cls-1" d="M156.57,8.31h-5.11V.96h5.11v7.35Zm-.88-.74V1.7h-3.34V7.57h3.34ZM159.04,.11h.89V11.36h-.89V.11Z"/><path class="cls-1" d="M166.2,8.05c-1.08,.14-2.96,.14-4.48,.14V.91h.89V7.39c1.15,0,2.48,0,3.59-.12v.78Zm1.88,2.95h-.87V4.37h-2.58v-.77h2.58V.17h.87V11Zm2.39,.36h-.87V.11h.87V11.36Z"/><path class="cls-1" d="M178.18,5.32c-1.68,.22-4.61,.25-6.39,.25V2.64h3.98V1.17h-3.98V.44h4.86V3.35h-3.96v1.5c1.59,0,3.66-.01,5.49-.23v.71Zm2.07,6.09h-7.35v-2.77h6.15v-1.36h-6.15v-.72h7.08v2.77h-6.15v1.37h6.42v.71Zm-.29-11.31V2.41h1.81v.76h-1.81v2.75h-.89V.11h.89Z"/><path class="cls-1" d="M187.88,4.65c0,2.58-1.01,3.96-2.84,3.96s-2.83-1.38-2.83-3.96,1.09-3.95,2.83-3.95,2.84,1.32,2.84,3.95Zm-.89-.01c0-1.97-.58-3.18-1.93-3.18s-1.95,1.19-1.95,3.18,.62,3.2,1.95,3.2,1.93-1.27,1.93-3.2Zm3.86,6.72h-.89V.11h.89V11.36Z"/><path class="cls-1" d="M204.11,9.46c0,1.22-1.25,2.11-3.89,2.11s-3.87-.89-3.87-2.11,1.11-1.99,3.39-2.09v-1.09h-4.69v-.76h10.36v.76h-4.74v1.09c2.33,.08,3.45,.91,3.45,2.09Zm-8.07-4.97v-.76h1.74l-.19-1.98h.89l.19,1.98h3.09l.17-1.98h.92l-.2,1.98h1.72v.76h-8.33Zm.28-3.33V.39h7.79v.77h-7.79Zm3.89,6.91c-1.82,0-2.91,.53-2.91,1.38s1.08,1.39,2.91,1.39,2.92-.49,2.92-1.39-1.09-1.38-2.92-1.38Z"/><path class="cls-1" d="M215.75,7.53h-4.74v3.83h-.91v-3.83h-4.72v-.76h10.36v.76Zm-1.55-2.31h-7.27V.31h.89V1.98h5.49V.31h.88V5.22Zm-.88-.76v-1.74h-5.49v1.74h5.49Z"/><path class="cls-1" d="M222.18,2.09h-6.62v-.72h2.85V0h.94V1.37h2.83v.72Zm-3.31,5.05c-1.64,0-2.69-1.03-2.69-2.23s1.07-2.17,2.71-2.17,2.67,.94,2.67,2.17-.99,2.23-2.68,2.23Zm-1.8-2.24c0,.84,.6,1.54,1.81,1.54s1.79-.65,1.79-1.54c0-.84-.58-1.47-1.79-1.47s-1.81,.63-1.81,1.47Zm7.72,6.29h-7.33v-3.26h.91v2.51h6.42v.76Zm-.39-11.07V3.81h1.81v.77h-1.81v3.69h-.88V.11h.88Z"/><path class="cls-1" d="M11.15,26.55H.78v-.76H5.5v-1.27H2.3v-4.33h.88v1.45h5.56v-1.45h.87v4.33h-3.2v1.27h4.73v.76Zm-5.49,4.87h-.89v-2.95H1.84v-.76h3.81v3.71Zm3.09-7.65v-1.38H3.18v1.38h5.56Zm1.08,7.65h-.89v-2.95h-2.68v-.76h3.58v3.71Z"/><path class="cls-1" d="M21.49,26.67H11.13v-.77h10.36v.77Zm-8.98-4.15c0-1.17,1.27-2.23,3.78-2.23s3.78,1.04,3.78,2.23c0,1.3-1.27,2.26-3.78,2.26s-3.78-.98-3.78-2.26Zm7.95,8.66h-7.91v-3.33h.89v2.58h7.01v.76Zm-7.02-8.66c0,.91,1.01,1.54,2.85,1.54s2.85-.62,2.85-1.54c0-.84-1.11-1.5-2.85-1.5-1.84,0-2.85,.67-2.85,1.5Z"/><path class="cls-1" d="M28.4,21.37h2.46v.73h-2.46v.68c0,1.8,1.46,2.66,2.81,3.2l-.4,.7c-1.01-.41-2.36-1.29-2.87-2.4-.49,1.29-1.71,2.09-2.85,2.67l-.52-.6c1.45-.72,2.91-1.7,2.91-3.56v-.7h-2.46v-.73h2.46v-1.37h.92v1.37Zm5.58,9.81h-7.38v-3.51h.91v2.76h6.47v.76Zm-.26-3.13h-.88v-3.98h-2.07v-.76h2.07v-3.2h.88v7.94Z"/><path class="cls-1" d="M38.12,20.19c1.74,0,2.89,1.12,2.89,2.53s-1.15,2.54-2.89,2.54-2.89-1.1-2.89-2.54,1.21-2.53,2.89-2.53Zm2,2.53c0-1.02-.84-1.8-2-1.8-1.26,0-2,.78-2,1.8s.74,1.8,2,1.8c1.19,0,2-.76,2-1.8Zm4.12,8.7h-7.45v-2.9h6.25v-1.49h-6.25v-.71h7.18v2.89h-6.26v1.5h6.53v.71Zm-.25-5.76h-.89v-5.55h.89v5.55Z"/><path class="cls-1" d="M48.35,20.37c1.79,0,2.89,1.24,2.89,2.66s-1.04,2.66-2.89,2.66-2.89-1.22-2.89-2.66,1.11-2.66,2.89-2.66Zm2,2.66c0-1.02-.72-1.92-2-1.92-1.36,0-2,.9-2,1.92s.6,1.91,2,1.91c1.32,0,2-.88,2-1.91Zm3.99,8.26h-7.09v-4.28h7.09v4.28Zm-.89-.73v-2.82h-5.31v2.82h5.31Zm-1.83-9.21h1.83v-1.25h.89v6.24h-.89v-1.65h-1.83v-.74h1.83v-1.85h-1.83v-.74Z"/><path class="cls-1" d="M65.83,24.89v.74h-10.36v-.74h10.36Zm-8.98-2.87c0-1.17,1.39-1.94,3.78-1.94s3.78,.75,3.78,1.94c0,1.3-1.44,1.98-3.78,1.98s-3.78-.71-3.78-1.98Zm7.83,9.39h-7.79v-2.72h6.54v-1.3h-6.54v-.71h7.48v2.69h-6.52v1.33h6.82v.71Zm-6.91-9.39c0,.91,1.28,1.27,2.85,1.27s2.85-.36,2.85-1.27c0-.83-1.29-1.22-2.85-1.22s-2.85,.41-2.85,1.22Z"/><path class="cls-1" d="M72.39,20.62v3.06c-.01,1.93,1.47,3.31,2.95,4.04l-.45,.72c-.96-.55-2.35-1.52-2.98-3.07-.56,1.58-1.8,2.55-3.05,3.33l-.58-.65c1.67-.95,3.15-2.4,3.15-4.43v-3.01h.94Zm5.09-.52v3.87h1.95v.79h-1.95v6.58h-.88v-11.25h.88Z"/><path class="cls-1" d="M89.47,26.22h-10.36v-.74h2.8v-1.6c-.93-.35-1.41-.94-1.41-1.7,0-1.17,1.33-2,3.78-2s3.78,.82,3.78,2c0,.77-.48,1.33-1.38,1.68v1.62h2.8v.74Zm-1.29,3.19c0,1.22-1.25,2.16-3.89,2.16s-3.87-.94-3.87-2.16,1.26-2.15,3.87-2.15,3.89,.9,3.89,2.15Zm-3.89-1.44c-1.82,0-2.91,.58-2.91,1.43s1.08,1.44,2.91,1.44,2.92-.55,2.92-1.44-1.09-1.43-2.92-1.43Zm-2.86-5.79c0,.92,1.26,1.32,2.85,1.32s2.85-.4,2.85-1.32c0-.83-1.26-1.27-2.85-1.27s-2.85,.46-2.85,1.27Zm2.85,2.05c-.55,0-1.05-.05-1.47-.12v1.37h2.99v-1.38c-.45,.08-.96,.13-1.52,.13Z"/><path class="cls-1" d="M93.08,21.87h2.95v.74h-6.83v-.74h2.94v-1.75h.94v1.75Zm2.29,4.39c0,1.56-.99,2.85-2.74,2.85s-2.78-1.21-2.78-2.85c0-1.73,1.08-2.84,2.78-2.84s2.74,1.09,2.74,2.84Zm-.87,0c0-1.29-.6-2.09-1.87-2.09s-1.88,.83-1.88,2.09,.65,2.08,1.88,2.08,1.87-.83,1.87-2.08Zm3.62-6.15v4.76h1.96v.79h-1.96v5.7h-.88v-11.25h.88Z"/><path class="cls-1" d="M105.8,24.77c0,2.59-1.07,3.96-2.75,3.96s-2.75-1.37-2.75-3.96,1.08-3.95,2.75-3.95,2.75,1.32,2.75,3.95Zm-.89-.01c0-1.97-.62-3.18-1.85-3.18s-1.87,1.19-1.87,3.18,.65,3.21,1.87,3.21,1.85-1.27,1.85-3.21Zm1.22-2.35h2v-2.3h.89v11.25h-.89v-4.67h-2v-.78h2v-2.73h-2v-.77Z"/><path class="cls-1" d="M118.49,26.01h-5.02v-5.29h5.02v5.29Zm-.88-.74v-3.8h-3.26v3.8h3.26Zm4.55,5.91h-7.34v-3.79h.91v3.04h6.43v.76Zm-.4-11.07v3.2h1.81v.76h-1.81v4.1h-.88v-8.06h.88Z"/><path class="cls-1" d="M133.8,26.68h-10.36v-.77h10.36v.77Zm-1.02,4.5h-7.91v-3.29h.89v2.53h7.01v.76Zm-7.85-6.73v-3.99h7.44v.77h-6.55v2.47h6.68v.76h-7.56Z"/><path class="cls-1" d="M147.09,29.46h-10.36v-.76h3.82v-4.13h.91v4.13h5.63v.76Zm-2.85-2.32c.31-1.59,.52-3.65,.52-5.43h-6.67v-.76h7.65c-.07,2.41-.29,4.38-.6,6.19h-.89Z"/><path class="cls-1" d="M157.44,25.22h-10.36v-.76h7.52c.15-1,.36-2.57,.39-3.27h-6.47v-.77h7.45c-.01,.79-.27,2.92-.44,4.04h1.92v.76Zm-1.45,6.08h-7.48v-4.95h.88v1.63h5.72v-1.63h.88v4.95Zm-.88-.73v-1.86h-5.72v1.86h5.72Z"/><path class="cls-1" d="M165.54,28.49c-1.08-.66-2.04-1.88-2.4-2.88-.27,1.28-1.46,2.5-2.58,3.13l-.54-.63c1.8-1.06,2.66-2.67,2.66-4.16v-2.17h-2.06v-.75h5.05v.75h-2.06v2.17c0,1.57,.88,3,2.42,3.89l-.49,.66Zm4.41,2.87h-.88v-6.46h-1.59v6.11h-.87v-10.83h.87v3.9h1.59v-3.96h.88v11.25Z"/><path class="cls-1" d="M176.11,28.33c-1.27,.17-3.13,.18-4.78,.18v-4.31h2.96v-2.63h-2.98v-.74h3.86v4.1h-2.96v2.78c1.05,0,2.34,0,3.89-.13v.74Zm4.02,3.02h-.87v-6.39h-1.53v6.03h-.87v-10.83h.87v3.99h1.53v-4.05h.87v11.25Z"/><path class="cls-1" d="M186.83,20.66c-.15,3.49-2.68,4.94-4.91,5.73l-.46-.66c2.2-.78,4.22-2.1,4.4-4.33h-3.83v-.74h4.8Zm3.41,10.64h-7.09v-4.26h7.09v4.26Zm-.89-.73v-2.79h-5.31v2.79h5.31Zm.89-4.15h-.89v-6.31h.89v6.31Z"/><path class="cls-1" d="M194.76,20.34c1.72,0,2.89,1.17,2.89,2.59s-1.15,2.54-2.89,2.54-2.89-1.09-2.89-2.54,1.19-2.59,2.89-2.59Zm2,2.59c0-1.01-.78-1.85-2-1.85-1.29,0-2,.84-2,1.85s.71,1.85,2,1.85c1.22,0,2-.8,2-1.85Zm3.87,8.37h-7.09v-4.85h.89v1.66h5.31v-1.66h.89v4.85Zm-.89-.73v-1.73h-5.31v1.73h5.31Zm.89-4.73h-.89v-5.73h.89v5.73Z"/><path class="cls-1" d="M208.99,27.93c-1.88,.26-4.38,.26-6.22,.26v-7.36h.91v6.57c2.05,0,3.72-.05,5.32-.24v.77Zm1.89,3.43h-.89v-11.25h.89v11.25Z"/><path class="cls-1" d="M218.87,28.01c-1.98,.29-4.42,.26-6.4,.26v-7.32h5.27v.74h-4.37v5.78c1.46,0,3.65,.01,5.49-.24v.77Zm3.75-3.28h-1.96v6.62h-.89v-11.25h.89v3.84h1.96v.79Z"/><path class="cls-1" d="M223.13,29.29h1.26v1.22h-1.26v-1.22Z"/></g></g></svg>