<?xml version="1.0" encoding="UTF-8"?><svg id="_레이어_2" xmlns="http://www.w3.org/2000/svg" viewBox="0 0 275.71 31.47"><defs><style>.cls-1{fill:#595757;}</style></defs><g id="_레이어_1-2"><g><path class="cls-1" d="M2.91,.37c1.79,0,2.91,1.3,2.91,2.79s-1.08,2.79-2.91,2.79S0,4.67,0,3.17,1.13,.37,2.91,.37Zm0,.77c-1.34,0-1.95,.96-1.95,2.03s.62,2.01,1.95,2.01,1.95-.95,1.95-2.01-.55-2.03-1.95-2.03Zm6.28,9.93H1.81v-3.9h.91v3.14h6.47v.75Zm-2.99-6.75h1.83V2.17h-1.83v-.74h1.83V0h.89V7.96h-.89v-2.9h-1.83v-.74Z"/><path class="cls-1" d="M19.12,9.26c0,1.22-1.25,2.21-3.89,2.21s-3.87-.98-3.87-2.21,1.11-2.08,3.39-2.2v-1.24h-4.69v-.75h10.36v.75h-4.74v1.24c2.33,.12,3.45,1.02,3.45,2.2Zm-.01-5.13c-1.82-.38-3.28-1.22-3.89-2.17-.55,.96-2.04,1.75-3.85,2.17l-.45-.67c1.91-.41,3.58-1.21,3.82-2.41h-3.26V.29h7.48v.76h-3.26c.2,1.24,2.07,2.04,3.83,2.41l-.44,.67Zm-3.88,3.65c-1.82,0-2.91,.62-2.91,1.48s1.08,1.49,2.91,1.49,2.92-.6,2.92-1.49-1.09-1.48-2.92-1.48Z"/><path class="cls-1" d="M25.31,9.82V2.04l-1.32,1.1-.45-.55,1.92-1.65h.72V9.82h-.87Z"/><path class="cls-1" d="M31.27,4.68c1.12,.44,1.63,1.46,1.63,2.48,0,1.44-.99,2.79-2.83,2.79-.94,0-1.87-.34-2.6-.97l.46-.6c.68,.61,1.47,.78,2.06,.78,1.33,0,2.07-.92,2.07-2,0-1.15-.82-2.06-2.53-2.06-.45,0-.95,.06-1.39,.12l.13-4.28h4.26v.71h-3.42l-.08,2.78c.17-.01,.4-.02,.6-.02,.56,0,1.17,.07,1.65,.28Z"/><path class="cls-1" d="M35.48,4.49c.58,0,1.15,.43,1.58,.68,.42,.25,.75,.37,1.07,.37,.62,0,1.08-.67,1.21-1.32l.59,.13c-.19,.98-.93,1.86-1.8,1.86-.46,0-1.05-.2-1.52-.52-.36-.24-.78-.49-1.23-.49-.57,0-.96,.61-1.14,1.14l-.59-.22c.26-.77,.88-1.64,1.83-1.64Z"/><path class="cls-1" d="M45.91,9.1v.71h-5.24v-.77l1.92-2.11c1.76-1.94,2.29-2.87,2.29-3.68,0-.88-.6-1.66-1.74-1.66-.78,0-1.46,.43-2.01,.94l-.47-.6c.79-.73,1.62-1.1,2.53-1.1,1.58,0,2.55,1.06,2.55,2.4,0,1.26-.86,2.32-2.53,4.2l-1.49,1.68h4.19Z"/><path class="cls-1" d="M46.26,5.34c0-1.85,.66-4.5,2.86-4.5s2.88,2.62,2.88,4.52c0,2.06-.65,4.61-2.88,4.61s-2.86-2.79-2.86-4.63Zm.85,0c0,1.44,.4,3.89,2,3.89,1.71,0,2.05-2.47,2.05-3.86s-.38-3.78-2.02-3.78-2.02,2.4-2.02,3.75Z"/><path class="cls-1" d="M55.71,.08c1.74,0,2.89,1.12,2.89,2.53s-1.15,2.54-2.89,2.54-2.89-1.1-2.89-2.54S54.03,.08,55.71,.08Zm2,2.53c0-1.02-.83-1.8-2-1.8-1.26,0-2,.78-2,1.8s.74,1.8,2,1.8c1.19,0,2-.76,2-1.8Zm4.12,8.7h-7.45v-2.9h6.25v-1.49h-6.25v-.71h7.18v2.89h-6.26v1.5h6.53v.71Zm-.25-5.76h-.89V0h.89V5.55Z"/><path class="cls-1" d="M72,6.01c-1.02-.41-2.36-1.22-2.87-2.34-.49,1.29-1.71,2.03-2.85,2.61l-.52-.6c1.45-.72,2.89-1.62,2.89-3.48v-.88h-2.34V.59h5.59v.74h-2.33v.86c0,1.8,1.47,2.59,2.82,3.14l-.4,.67Zm3.05,3.13c0,1.34-1.14,2.33-3.68,2.33s-3.68-1.01-3.68-2.33,1.15-2.33,3.68-2.33,3.68,1,3.68,2.33Zm-.93,.01c0-.98-1.02-1.63-2.74-1.63s-2.74,.66-2.74,1.63c0,.91,1,1.6,2.74,1.6s2.74-.67,2.74-1.6Zm.82-2.67h-.88V3.51h-2.31v-.77h2.31V0h.88V6.48Z"/><path class="cls-1" d="M81.63,6.64v2.13h4.73v.75h-10.36v-.75h4.72v-2.13h.92Zm-4.17-.9V.7h7.47v.76h-6.59v3.54h6.74v.75h-7.62Z"/><path class="cls-1" d="M91.74,5.9h-5.02V.61h5.02V5.9Zm-.88-.74V1.35h-3.26v3.8h3.26Zm4.55,5.91h-7.34v-3.79h.91v3.04h6.44v.75Zm-.4-11.07V3.2h1.81v.76h-1.81v4.1h-.88V0h.88Z"/><path class="cls-1" d="M109.99,9.53h-10.36v-.75h4.72v-2.88h.92v2.88h4.73v.75Zm-4.71-8.01c0,1.86,2.43,3.57,4,4.08l-.55,.68c-1.38-.5-3.31-1.89-3.91-3.3-.67,1.4-2.31,2.7-3.89,3.3l-.55-.68c1.59-.52,3.93-2.22,3.93-4.08V.46h.98V1.52Z"/><path class="cls-1" d="M116.75,5.84c-1.68,.22-4.61,.25-6.39,.25V2.89h3.98V1.24h-3.98V.5h4.86V3.61h-3.96v1.74c1.59,0,3.66-.01,5.49-.23v.72Zm1.96,3.5c0,1.25-1.08,2.13-3.62,2.13s-3.64-.9-3.64-2.13,1.11-2.13,3.64-2.13,3.62,.9,3.62,2.13Zm-.95,0c0-.9-.95-1.44-2.67-1.44s-2.68,.56-2.68,1.44c0,.83,.94,1.43,2.68,1.43s2.67-.59,2.67-1.43Zm2.58-4.58h-1.81v2.09h-.89V0h.89V1.46h1.81v.74h-1.81v1.8h1.81v.75Z"/><path class="cls-1" d="M128.46,6.04c-.95-.54-1.95-1.33-2.32-2.25-.29,.95-1.24,1.86-2.36,2.57l-.57-.62c1.06-.64,2.47-1.74,2.47-3.33V.49h.89v1.91c0,1.52,1.33,2.45,2.33,2.96l-.45,.68Zm4.48,3.14c0,1.75-1.94,2.28-3.75,2.28s-3.72-.53-3.72-2.28,2.01-2.3,3.72-2.3,3.75,.56,3.75,2.3Zm-.94,.01c0-1.2-1.53-1.59-2.8-1.59s-2.79,.4-2.79,1.59,1.55,1.54,2.79,1.54,2.8-.35,2.8-1.54Zm.85-2.53h-.88V3.35h-1.61v2.87h-.87V.06h.87V2.54h1.61V0h.88V6.67Z"/><path class="cls-1" d="M139.67,6.27c-1.02-.41-2.43-1.28-2.94-2.4-.51,1.29-1.76,2.1-2.91,2.69l-.52-.6c1.45-.73,2.95-1.7,2.95-3.56V.38h.93V2.39c0,1.8,1.52,2.65,2.87,3.2l-.39,.68Zm3,4.8h-7.33v-3.63h.91v2.88h6.42v.75Zm-.39-11.07V3.09h1.81v.77h-1.81V8h-.88V0h.88Z"/><path class="cls-1" d="M144.22,6.06c1,.01,2.21,0,3.42-.04v-1.61h-2.39V.53h5.55v.73h-4.66V3.67h4.78v.74h-2.4v1.58c1.2-.05,2.35-.13,3.22-.22v.71c-1.8,.28-4.93,.32-7.53,.32v-.75Zm9.4,5.01h-7.68v-3.13h.89v2.38h6.79v.75Zm-.29-2.82h-.88V0h.88V8.25Z"/><path class="cls-1" d="M163.02,.55c-.15,3.49-2.68,4.94-4.91,5.73l-.46-.66c2.2-.78,4.22-2.1,4.4-4.33h-3.83V.55h4.8Zm3.41,10.64h-7.09V6.93h7.09v4.26Zm-.89-.73v-2.79h-5.31v2.79h5.31Zm.89-4.15h-.89V0h.89V6.31Z"/><path class="cls-1" d="M177.97,8.66v.75h-10.36v-.75h10.36Zm-1.36-5.28c0,1.55-1.34,2.91-3.82,2.91s-3.81-1.37-3.81-2.91,1.35-2.9,3.81-2.9,3.82,1.38,3.82,2.9Zm-.89,0c0-1.24-1.07-2.15-2.93-2.15s-2.93,.94-2.93,2.15,1.06,2.16,2.93,2.16,2.93-.98,2.93-2.16Z"/><path class="cls-1" d="M183.59,7.24v1.81h4.73v.76h-10.36v-.76h4.72v-1.81h.92Zm-4.15-.5V3.31h6.44V1.44h-6.47V.68h7.36v3.37h-6.42v1.93h6.79v.76h-7.69Z"/><path class="cls-1" d="M194.48,.26c1.79,0,2.89,1.27,2.89,2.7s-1.04,2.7-2.89,2.7-2.89-1.26-2.89-2.7,1.11-2.7,2.89-2.7Zm2,2.7c0-1.02-.72-1.96-2-1.96-1.37,0-2,.94-2,1.96s.6,1.94,2,1.94c1.32,0,2-.91,2-1.94Zm4.09,6.17c0,1.34-1.14,2.34-3.68,2.34s-3.68-1.02-3.68-2.34,1.15-2.34,3.68-2.34,3.68,1.01,3.68,2.34Zm-.93,.01c0-.98-1.02-1.64-2.74-1.64s-2.75,.67-2.75,1.64c0,.91,1.01,1.61,2.75,1.61s2.74-.68,2.74-1.61Zm-1.91-7.76h1.83V0h.89V6.46h-.89v-1.77h-1.83v-.74h1.83v-1.82h-1.83v-.74Z"/><path class="cls-1" d="M204.59,.34c1.79,0,2.88,1.27,2.88,2.7s-1.02,2.7-2.88,2.7-2.89-1.26-2.89-2.7,1.11-2.7,2.89-2.7Zm2,2.7c0-1.02-.72-1.94-2-1.94-1.38,0-2.01,.92-2.01,1.94s.6,1.94,2.01,1.94c1.32,0,2-.91,2-1.94Zm3.83,6.1c0,1.34-1.09,2.33-3.62,2.33s-3.65-.97-3.65-2.33,1.11-2.36,3.65-2.36,3.62,1.01,3.62,2.36Zm-.92,.01c0-1.01-.99-1.67-2.69-1.67s-2.72,.66-2.72,1.67c0,.94,.96,1.6,2.72,1.6s2.69-.61,2.69-1.6Zm2.54-4.58h-1.82v1.91h-.89V0h.89V1.43h1.82v.76h-1.82v1.64h1.82v.74Z"/><path class="cls-1" d="M222.3,6.68h-4.6v2.25h-.89v-2.25h-4.87v-.77h10.36v.77Zm-1.02,4.39h-7.91v-3.2h.89v2.45h7.01v.75Zm-7.82-6.42V.14h.88V1.67h5.56V.14h.87V4.65h-7.32Zm6.45-.76v-1.5h-5.56v1.5h5.56Z"/><path class="cls-1" d="M222.33,8c.71,.01,1.48,0,2.28-.01v-3.6h.91v3.57c1.48-.04,2.86-.12,3.98-.24v.74c-1.8,.26-4.56,.31-7.17,.31v-.78Zm6.19-7.15c-.11,1.99-.22,3.41-.52,5.24h-.86c.22-1.43,.34-3.05,.42-4.5h-4.65V.85h5.6Zm2.54-.85V4.35h1.85v.77h-1.85v6.13h-.88V0h.88Z"/><path class="cls-1" d="M241.45,8.2h-5.11V.85h5.11v7.35Zm-.88-.74V1.59h-3.34V7.46h3.34Zm3.35-7.46h.89V11.25h-.89V0Z"/><path class="cls-1" d="M251.08,7.94c-1.08,.14-2.96,.14-4.48,.14V.8h.89V7.28c1.15,0,2.48,0,3.59-.12v.78Zm1.88,2.95h-.87V4.26h-2.58v-.77h2.58V.06h.87V10.89Zm2.39,.36h-.87V0h.87V11.25Z"/><path class="cls-1" d="M263.05,5.22c-1.68,.22-4.61,.25-6.39,.25V2.53h3.98V1.07h-3.98V.34h4.86V3.24h-3.96v1.5c1.59,0,3.66-.01,5.49-.23v.71Zm2.07,6.09h-7.35v-2.77h6.15v-1.36h-6.15v-.72h7.08v2.77h-6.15v1.37h6.42v.71Zm-.29-11.31V2.3h1.81v.75h-1.81v2.75h-.89V0h.89Z"/><path class="cls-1" d="M272.75,4.54c0,2.58-1.01,3.96-2.84,3.96s-2.83-1.38-2.83-3.96,1.09-3.95,2.83-3.95,2.84,1.32,2.84,3.95Zm-.89-.01c0-1.97-.58-3.18-1.93-3.18s-1.95,1.19-1.95,3.18,.62,3.2,1.95,3.2,1.93-1.27,1.93-3.2Zm3.86,6.72h-.89V0h.89V11.25Z"/><path class="cls-1" d="M19.12,24.68c1.12,.44,1.63,1.46,1.63,2.48,0,1.44-.99,2.79-2.83,2.79-.94,0-1.87-.34-2.6-.97l.46-.6c.68,.61,1.47,.78,2.06,.78,1.33,0,2.07-.92,2.07-2,0-1.15-.82-2.06-2.53-2.06-.45,0-.95,.06-1.39,.12l.13-4.28h4.26v.71h-3.42l-.08,2.78c.17-.01,.4-.02,.6-.02,.56,0,1.17,.07,1.65,.28Z"/><path class="cls-1" d="M25.84,28.26h-4.28v-7.52h.88v2.88h2.53v-2.88h.87v7.52Zm-.87-.75v-3.13h-2.53v3.13h2.53Zm5.58,3.74h-.87v-6.27h-1.62v5.91h-.87v-10.83h.87v4.09h1.62v-4.15h.87v11.25Z"/><path class="cls-1" d="M38.23,27.82c-1.87,.26-4.49,.26-6.34,.26v-7.36h.91v6.57c2.05,0,3.84-.05,5.44-.24v.77Zm3.75-3.43h-1.96v6.86h-.89v-11.25h.89v3.61h1.96v.78Z"/><path class="cls-1" d="M53.83,29.35c0,1.22-1.25,2.11-3.89,2.11s-3.87-.89-3.87-2.11,1.11-1.99,3.39-2.09v-1.09h-4.69v-.76h10.36v.76h-4.74v1.09c2.33,.08,3.45,.91,3.45,2.09Zm-8.07-4.96v-.76h1.74l-.19-1.98h.89l.19,1.98h3.09l.17-1.98h.92l-.2,1.98h1.72v.76h-8.33Zm.28-3.33v-.77h7.79v.77h-7.79Zm3.89,6.91c-1.82,0-2.91,.53-2.91,1.38s1.08,1.39,2.91,1.39,2.92-.49,2.92-1.39-1.09-1.38-2.92-1.38Z"/><path class="cls-1" d="M65.47,27.42h-4.74v3.83h-.91v-3.83h-4.72v-.76h10.36v.76Zm-1.55-2.31h-7.27v-4.91h.89v1.67h5.49v-1.67h.88v4.91Zm-.88-.76v-1.74h-5.49v1.74h5.49Z"/><path class="cls-1" d="M71.9,21.98h-6.62v-.72h2.85v-1.37h.94v1.37h2.83v.72Zm-3.31,5.05c-1.64,0-2.69-1.03-2.69-2.23s1.07-2.17,2.71-2.17,2.67,.94,2.67,2.17-.99,2.23-2.68,2.23Zm-1.8-2.24c0,.84,.6,1.54,1.81,1.54s1.79-.65,1.79-1.54c0-.84-.58-1.48-1.79-1.48s-1.81,.64-1.81,1.48Zm7.72,6.28h-7.33v-3.26h.91v2.51h6.42v.75Zm-.39-11.07v3.71h1.81v.77h-1.81v3.69h-.88v-8.17h.88Z"/><path class="cls-1" d="M82.72,21.17h2.46v.73h-2.46v.5c0,1.8,1.46,2.65,2.81,3.2l-.4,.68c-1.01-.41-2.36-1.28-2.87-2.4-.49,1.29-1.71,2.16-2.85,2.75l-.52-.6c1.45-.72,2.91-1.76,2.91-3.62v-.52h-2.46v-.73h2.46v-1.31h.92v1.31Zm5.38,10.16c-1.4-.44-2.94-1.39-3.61-2.57-.61,1.12-2.19,2.11-3.61,2.57l-.46-.66c1.32-.38,3.6-1.59,3.6-3.09v-.44h.94v.44c0,1.49,2.28,2.71,3.6,3.09l-.46,.66Zm-.06-3.89h-.88v-3.61h-2.19v-.76h2.19v-3.08h.88v7.45Z"/><path class="cls-1" d="M102.4,27.03h-4.74v4.22h-.91v-4.22h-4.72v-.76h10.36v.76Zm-1.22-2.12c-1.46-.38-3.07-1.13-3.96-2.46-.79,1.34-2.55,2.08-3.95,2.45l-.46-.7c1.74-.42,3.92-1.44,3.92-2.95v-1.13h.98v1.13c0,1.5,2.38,2.58,3.92,2.95l-.44,.71Z"/><path class="cls-1" d="M105.85,22.15c1.67,0,2.67,.67,2.67,1.64,0,.84-.82,1.51-2.25,1.63v.77c1.17-.05,2.27-.11,3.17-.2v.71c-1.8,.26-4.55,.31-7.17,.31v-.76c.95,.01,2.04,0,3.12-.04v-.79c-1.42-.13-2.2-.8-2.2-1.63,0-.96,.94-1.64,2.66-1.64Zm3.12-.47h-6.35v-.74h2.76v-1.1h.92v1.1h2.67v.74Zm2.12,9.63h-.88v-2.59h-6.39v-.76h7.27v3.35Zm-3.46-7.52c0-.6-.55-1-1.78-1s-1.79,.4-1.79,1,.6,.98,1.79,.98,1.78-.42,1.78-.98Zm5.26,.47h-1.8v3.03h-.88v-7.29h.88v3.49h1.8v.77Z"/><path class="cls-1" d="M112.99,26.06c1,.01,2.21,0,3.42-.04v-1.61h-2.39v-3.89h5.55v.73h-4.66v2.41h4.78v.74h-2.4v1.58c1.2-.05,2.35-.13,3.22-.22v.71c-1.8,.28-4.93,.32-7.53,.32v-.75Zm9.4,5.01h-7.68v-3.13h.89v2.38h6.79v.75Zm-.29-2.82h-.88v-8.25h.88v8.25Z"/><path class="cls-1" d="M126.34,28.48c.94,.01,2.15,0,3.22-.04v-2.24h.91v2.22c1.21-.04,2.6-.12,3.52-.22v.74c-1.8,.28-5.05,.31-7.65,.31v-.78Zm6.61-2.21c-1.07-.47-2.26-1.25-2.88-2.42-.52,1.14-1.79,2.09-2.96,2.54l-.49-.64c1.59-.67,2.96-1.66,2.96-3.36v-.16h-2.63v-.74h2.63v-1.61h.93v1.61h2.64v.74h-2.64v.16c0,1.63,1.34,2.65,2.85,3.15l-.4,.72Zm2.51,4.98h-.88v-11.25h.88v11.25Z"/><path class="cls-1" d="M146.73,29.35h-10.36v-.76h3.82v-4.12h.91v4.12h5.63v.76Zm-2.85-2.31c.31-1.6,.52-3.65,.52-5.43h-6.67v-.75h7.65c-.07,2.41-.29,4.38-.6,6.19h-.89Z"/><path class="cls-1" d="M146.93,27.99c2.27,.01,5.69-.07,7.63-.28v.74c-1.8,.26-5.04,.31-7.63,.31v-.78Zm3.56-1.99c-1.73,0-3.04-1.12-3.04-2.72s1.33-2.71,2.98-2.71c1.82,0,2.98,1.24,2.98,2.75s-1.12,2.69-2.92,2.69Zm2.01-2.71c0-1.16-.78-1.94-2.07-1.94s-2.08,.88-2.08,1.94c0,1.15,.8,1.94,2.11,1.94s2.05-.78,2.05-1.94Zm3.65,7.96h-.88v-11.25h.88v11.25Z"/><path class="cls-1" d="M170.37,29.35h-10.36v-.76h3.82v-4.12h.91v4.12h5.63v.76Zm-2.85-2.31c.31-1.6,.52-3.65,.52-5.43h-6.67v-.75h7.65c-.07,2.41-.29,4.38-.6,6.19h-.89Z"/><path class="cls-1" d="M180.72,25.11h-10.36v-.76h7.52c.15-1,.37-2.57,.39-3.27h-6.47v-.77h7.45c-.01,.79-.27,2.91-.44,4.04h1.92v.76Zm-1.45,6.08h-7.48v-4.95h.88v1.63h5.72v-1.63h.88v4.95Zm-.88-.73v-1.86h-5.72v1.86h5.72Z"/><path class="cls-1" d="M194.01,25.56h-10.36v-.76h4.05v-2.11h.92v2.11h5.4v.76Zm-1.47-5.25c-.02,.9-.18,2.5-.33,3.66h-.92c.11-.8,.26-2.24,.27-2.89h-6.48v-.77h7.46Zm.02,10.88h-7.48v-4.79h.88v1.64h5.72v-1.64h.88v4.79Zm-.88-.73v-1.69h-5.72v1.69h5.72Z"/><path class="cls-1" d="M197.73,21.12h2.46v.73h-2.46v.35c0,1.8,1.45,2.66,2.8,3.21l-.39,.68c-1.02-.41-2.37-1.28-2.87-2.4-.51,1.3-1.72,2.09-2.86,2.67l-.52-.6c1.46-.72,2.91-1.7,2.91-3.56v-.36h-2.46v-.73h2.46v-1.32h.93v1.32Zm5.13,8.12c0,1.34-1.08,2.23-3.62,2.23s-3.65-.88-3.65-2.23,1.11-2.27,3.65-2.27,3.62,.91,3.62,2.27Zm-.92,.01c0-1.01-.99-1.57-2.69-1.57s-2.72,.56-2.72,1.57c0,.93,.96,1.5,2.72,1.5s2.69-.5,2.69-1.5Zm2.53-5.71h-1.81v3.12h-.88v-6.66h.88v2.78h1.81v.76Z"/><path class="cls-1" d="M217.65,25.47h-10.36v-.74h4.72v-1.2h-3.22v-3.36h7.43v.74h-6.55v1.86h6.68v.75h-3.42v1.2h4.73v.74Zm-1.14,5.84h-7.79v-2.73h6.54v-1.3h-6.54v-.71h7.48v2.69h-6.52v1.34h6.82v.71Z"/><path class="cls-1" d="M223.39,20.55c-.15,3.49-2.68,4.94-4.91,5.73l-.46-.66c2.2-.78,4.22-2.1,4.4-4.33h-3.83v-.74h4.8Zm3.41,10.64h-7.09v-4.26h7.09v4.26Zm-.89-.73v-2.79h-5.31v2.79h5.31Zm.89-4.15h-.89v-6.31h.89v6.31Z"/><path class="cls-1" d="M231.33,20.23c1.72,0,2.89,1.18,2.89,2.59s-1.15,2.54-2.89,2.54-2.89-1.09-2.89-2.54,1.19-2.59,2.89-2.59Zm2,2.59c0-1.01-.78-1.85-2-1.85-1.29,0-2,.84-2,1.85s.71,1.85,2,1.85c1.22,0,2-.8,2-1.85Zm3.87,8.37h-7.09v-4.85h.89v1.66h5.31v-1.66h.89v4.85Zm-.89-.73v-1.73h-5.31v1.73h5.31Zm.89-4.73h-.89v-5.73h.89v5.73Z"/><path class="cls-1" d="M245.56,27.82c-1.88,.26-4.38,.26-6.22,.26v-7.36h.91v6.57c2.05,0,3.72-.05,5.32-.24v.77Zm1.89,3.43h-.89v-11.25h.89v11.25Z"/><path class="cls-1" d="M255.44,27.9c-1.98,.29-4.42,.26-6.4,.26v-7.32h5.27v.74h-4.37v5.78c1.46,0,3.65,.01,5.49-.24v.77Zm3.75-3.27h-1.96v6.62h-.89v-11.25h.89v3.84h1.96v.79Z"/><path class="cls-1" d="M259.7,29.19h1.26v1.22h-1.26v-1.22Z"/></g></g></svg>