<?xml version="1.0" encoding="UTF-8"?><svg id="_레이어_2" xmlns="http://www.w3.org/2000/svg" viewBox="0 0 364.4 138"><defs><style>.cls-1{fill:none;stroke:#f5f5f5;stroke-miterlimit:10;stroke-width:2px;}.cls-2{fill:#231815;}</style></defs><g id="_레이어_1-2"><rect class="cls-1" x="1" y="1" width="110" height="136" rx="15.22" ry="15.22"/><rect class="cls-1" x="127.2" y="1" width="110" height="136" rx="15.22" ry="15.22"/><rect class="cls-1" x="253.4" y="1" width="110" height="136" rx="15.22" ry="15.22"/><g><path class="cls-2" d="M298.12,92.89c1.52,0,2.47,1.04,2.47,2.26s-.88,2.25-2.47,2.25-2.46-1.04-2.46-2.25,.95-2.26,2.46-2.26Zm1.59,2.26c0-.82-.56-1.53-1.59-1.53-1.08,0-1.58,.71-1.58,1.53s.47,1.53,1.58,1.53c1.04,0,1.59-.71,1.59-1.53Zm3.5,6.94h-6.02v-3.55h6.02v3.55Zm-.88-.7v-2.14h-4.25v2.14h4.25Zm-1.43-6.63h1.43v-2.03h.88v5.27h-.88v-2.52h-1.43v-.72Z"/><path class="cls-2" d="M309.05,93.18c-.1,3-2.14,4.27-4.11,4.98l-.45-.65c1.87-.7,3.47-1.78,3.61-3.62h-3.12v-.71h4.07Zm2.91,9.01h-.87v-2.69h-5.34v-.73h6.21v3.42Zm0-3.96h-.87v-1.28h-1.88v-.73h1.88v-1.4h-1.81v-.72h1.81v-1.37h.87v5.5Z"/><path class="cls-2" d="M318.54,94.46h-5.61v-.69h2.35v-1.14h.91v1.14h2.35v.69Zm-2.8,4.19c-1.4,0-2.3-.88-2.3-1.91s.92-1.85,2.31-1.85,2.27,.81,2.27,1.85-.84,1.91-2.28,1.91Zm-1.43-1.92c0,.67,.48,1.23,1.44,1.23s1.41-.52,1.41-1.23c0-.65-.46-1.16-1.41-1.16s-1.44,.51-1.44,1.16Zm6.39,5.27h-6.2v-2.71h.88v1.97h5.32v.74Zm-.31-9.26v3.07h1.5v.73h-1.5v3.06h-.88v-6.86h.88Z"/><path class="cls-2" d="M299.71,111.63h-3.9v1.01h2.73v3.06h-6.35v-3.06h2.69v-1.01h-3.89v-.74h8.71v.74Zm-7.86-1.67v-.72h1.43l-.16-1.54h.87l.15,1.54h2.44l.12-1.54h.92l-.18,1.54h1.42v.72h-7.01Zm.21-2.66v-.74h6.58v.74h-6.58Zm5.58,7.7v-1.65h-4.57v1.65h4.57Z"/><path class="cls-2" d="M305.29,110.8c-.79-.32-1.9-1.03-2.39-1.85-.45,.97-1.46,1.59-2.39,2.07l-.5-.57c1.2-.6,2.42-1.34,2.42-2.87v-.21h-1.94v-.7h4.76v.7h-1.93v.2c0,1.47,1.21,2.13,2.35,2.59l-.38,.64Zm2.6,5h-6.32v-2.46h5.16v-1.04h-5.16v-.68h6.07v2.41h-5.16v1.09h5.41v.68Zm-.21-4.74h-.88v-4.72h.88v4.72Z"/><path class="cls-2" d="M308.55,111c.67,0,1.32,0,1.96-.02v-2.04h.88v2.02c1.16-.03,2.21-.11,3.11-.19v.69c-1.55,.24-3.73,.27-5.95,.27v-.73Zm5.25-4.18c-.03,.94-.19,2.51-.29,3.17h-.89c.12-.67,.23-1.77,.25-2.46h-3.75v-.71h4.69Zm2.48,8.79h-6.3v-2.89h.88v2.15h5.42v.74Zm1.21-5.58h-1.5v3.09h-.88v-6.78h.88v2.97h1.5v.72Z"/><path class="cls-2" d="M323.62,113.24c-1.72,.19-3.79,.24-5.36,.24v-3.73h3.25v-2.09h-3.25v-.73h4.11v3.53h-3.25v2.27c1.75,0,2.97-.08,4.5-.2v.71Zm1.64,2.52h-.88v-9.42h.88v9.42Z"/></g><g><path d="M326.98,50.9h-2.36s0-3.3,0-3.3c0-.21-.16-.37-.37-.37h-13.33v-2.88h4.15c.44,0,.79-.35,.79-.79V26.69c0-.44-.36-.79-.79-.79h-7.27c-.06,.01-.09,.02-.12,.03-.08,.03-.12,.06-.14,.08l-5.58,5.58s-.05,.06-.07,.11c-.02,.07-.03,.1-.03,.13l-.02,.09v10.91c0,.41,.17,.8,.46,1.09,.29,.29,.68,.45,1.09,.45h6.79v2.88h-13.33c-.19,0-.35,.15-.37,.34v.11s0,0,0,0v3.22h-2.8c-.06,0-.09,.02-.12,.03-.08,.03-.12,.05-.14,.08l-4.18,4.18s-.05,.06-.07,.11c-.02,.07-.03,.1-.03,.13l-.02,.09v8.15c0,.69,.57,1.24,1.25,1.24h8.74c.38,0,.69-.31,.69-.69v-12.63c0-.38-.31-.69-.69-.69h-1.9s0-2.93,0-2.93h12.96v2.93h-2.58c-.05,0-.09,.02-.12,.03-.08,.03-.12,.06-.14,.08l-4.17,4.18s-.05,.06-.07,.11c-.02,.07-.03,.1-.03,.13l-.02,.09v8.15c0,.69,.57,1.24,1.25,1.24h8.74c.38,0,.69-.31,.69-.69v-12.63c0-.38-.31-.69-.69-.69h-2.13s0-2.93,0-2.93h12.96v2.93h-2.37s-.06,.02-.1,.03c-.08,.03-.12,.06-.14,.08l-4.17,4.18s-.05,.06-.07,.11c-.02,.07-.03,.1-.03,.13l-.02,.09v8.15c0,.69,.57,1.24,1.25,1.24h8.74c.38,0,.69-.31,.69-.69v-12.63c0-.38-.31-.69-.69-.69Zm-33.66,1.26v2.92s-2.92,0-2.92,0l2.92-2.92Zm5.76-.52v12.53s-8.69,0-8.69,0c-.28,0-.51-.23-.51-.51v-7.85s3.81,0,3.81,0c.1,0,.19-.04,.26-.11,.07-.07,.11-.16,.11-.26v-3.81s5.02,0,5.02,0Zm8.35-24.49v4.32s-4.32,0-4.32,0l4.32-4.32Zm-.19,25.01v2.92s-2.92,0-2.92,0l2.92-2.92Zm5.76-.52v12.53s-8.69,0-8.69,0c-.28,0-.51-.23-.51-.51v-7.85h3.81c.2,0,.37-.17,.37-.37v-3.81s5.02,0,5.02,0Zm-9.61-8.02c-.21,0-.41-.08-.57-.23-.15-.15-.23-.35-.23-.57v-10.61s5.21,0,5.21,0c.1,0,.19-.04,.26-.11,.07-.07,.11-.16,.11-.26v-5.21s6.96,0,6.96,0v16.99s-11.74,0-11.74,0Zm17.78,8.54v2.92h-2.92l2.92-2.92Zm-2.93,12.01c-.28,0-.51-.23-.51-.51v-7.85h3.81c.2,0,.37-.17,.37-.37v-3.81h5.02s0,12.53,0,12.53h-8.69Z"/><path d="M305.18,36.1h7.36c.26,0,.47-.21,.47-.47s-.21-.47-.47-.47h-7.36c-.26,0-.47,.21-.47,.47s.21,.47,.47,.47Z"/><path d="M305.18,38.73h7.36c.26,0,.47-.21,.47-.47s-.21-.47-.47-.47h-7.36c-.26,0-.47,.21-.47,.47s.21,.47,.47,.47Z"/><path d="M305.18,41.37h7.36c.26,0,.47-.21,.47-.47s-.21-.47-.47-.47h-7.36c-.26,0-.47,.21-.47,.47s.21,.47,.47,.47Z"/><path d="M297.51,68.89l-2.93,3.76c-.06,.07-.14,.09-.18,.09-.06,.01-.15-.02-.2-.09l-1.06-1.32c-.07-.09-.18-.14-.29-.14-.08,0-.17,.03-.23,.08-.16,.13-.19,.37-.06,.53l1.06,1.32c.19,.24,.47,.37,.77,.37,.31,0,.59-.14,.78-.38l2.93-3.76c.06-.08,.09-.18,.08-.28s-.06-.19-.14-.25c-.16-.13-.4-.1-.53,.07Z"/><path d="M297.19,72.55c-.21,0-.38,.17-.38,.38v1.86c0,.13-.11,.24-.24,.24h-4.82c-.13,0-.24-.11-.24-.24v-4.82c0-.13,.11-.24,.24-.24h3.54c.21,0,.38-.17,.38-.38s-.17-.38-.38-.38h-3.54c-.55,0-.99,.44-.99,.99v4.82c0,.55,.44,.99,.99,.99h4.82c.55,0,.99-.44,.99-.99v-1.86c0-.21-.17-.38-.38-.38Z"/><path d="M311.43,68.89l-2.93,3.76c-.04,.06-.11,.09-.18,.09-.07,.01-.15-.02-.2-.09l-1.06-1.32c-.07-.09-.18-.14-.29-.14-.08,0-.17,.03-.24,.08-.08,.06-.13,.15-.14,.25-.01,.1,.02,.2,.08,.28l1.06,1.32c.19,.24,.47,.37,.77,.37,.31,0,.59-.14,.78-.38l2.93-3.76c.06-.08,.09-.18,.08-.28-.01-.1-.06-.19-.14-.25-.16-.13-.4-.1-.53,.07Z"/><path d="M311.12,72.55c-.21,0-.38,.17-.38,.38v1.86c0,.13-.11,.24-.24,.24h-4.82c-.13,0-.24-.11-.24-.24v-4.82c0-.13,.11-.24,.24-.24h3.54c.21,0,.38-.17,.38-.38s-.17-.38-.38-.38h-3.54c-.55,0-.99,.44-.99,.99v4.82c0,.55,.44,.99,.99,.99h4.82c.55,0,.99-.44,.99-.99v-1.86c0-.21-.17-.38-.38-.38Z"/><path d="M325.36,68.89l-2.93,3.76c-.06,.07-.14,.09-.18,.09-.06,.01-.15-.02-.2-.09l-1.06-1.32c-.07-.09-.18-.14-.29-.14-.08,0-.17,.03-.23,.08-.16,.13-.19,.37-.06,.53l1.06,1.32c.19,.24,.47,.37,.77,.37,.31,0,.59-.14,.78-.38l2.93-3.76c.06-.08,.09-.18,.08-.28s-.06-.19-.14-.25c-.17-.13-.4-.1-.53,.07Z"/><path d="M325.04,72.55c-.21,0-.38,.17-.38,.38v1.86c0,.13-.11,.24-.24,.24h-4.82c-.13,0-.24-.11-.24-.24v-4.82c0-.13,.11-.24,.24-.24h3.54c.21,0,.38-.17,.38-.38s-.17-.38-.38-.38h-3.54c-.55,0-.99,.44-.99,.99v4.82c0,.55,.44,.99,.99,.99h4.82c.55,0,.99-.44,.99-.99v-1.86c0-.21-.17-.38-.38-.38Z"/></g><g><path class="cls-2" d="M31.2,92.89c1.52,0,2.47,1.04,2.47,2.26s-.88,2.25-2.47,2.25-2.46-1.04-2.46-2.25,.95-2.26,2.46-2.26Zm1.59,2.26c0-.82-.56-1.53-1.59-1.53s-1.58,.71-1.58,1.53,.47,1.53,1.58,1.53c1.04,0,1.59-.71,1.59-1.53Zm3.5,6.94h-6.01v-3.55h6.01v3.55Zm-.88-.7v-2.14h-4.25v2.14h4.25Zm-1.43-6.63h1.43v-2.03h.88v5.27h-.88v-2.52h-1.43v-.72Z"/><path class="cls-2" d="M42.73,98.04c-.84-.33-1.99-1.01-2.46-1.89-.44,1-1.49,1.62-2.43,2.1l-.5-.56c1.21-.59,2.47-1.43,2.47-2.93v-1.71h.9v1.69c0,1.46,1.27,2.17,2.41,2.63l-.39,.67Zm2.64,3.96h-6.25v-3.06h.88v2.32h5.37v.74Zm-.22-2.6h-.87v-3.96h-2.01v-.72h2.01v-1.99h.87v6.67Z"/><path class="cls-2" d="M46.36,97.78c.94,0,1.91,0,2.83-.04v-1.31h-1.97v-3.27h4.66v.71h-3.8v1.84h3.92v.72h-1.94v1.29c.95-.04,1.82-.09,2.55-.17v.69c-1.56,.23-4.08,.28-6.25,.28v-.74Zm7.91,4.22h-6.49v-2.6h.88v1.86h5.6v.74Zm-.23-2.34h-.88v-6.93h.88v6.93Z"/><path class="cls-2" d="M57.62,96.99c2.24,0,4.53-.07,6.11-.24v.7c-.81,.13-1.84,.2-2.95,.22v1.55h-.88v-1.53c-.75,.02-1.54,.02-2.28,.02v-.72Zm3.03-4.12c1.39,0,2.39,.66,2.39,1.7s-.98,1.68-2.39,1.68-2.39-.62-2.39-1.68,1.03-1.7,2.39-1.7Zm4.89,9.12h-6.48v-2.32h.88v1.58h5.6v.74Zm-4.89-8.46c-1.03,0-1.54,.41-1.54,1.03,0,.57,.53,1,1.55,1s1.54-.42,1.54-1c0-.63-.53-1.03-1.55-1.03Zm4.66,6.45h-.88v-.93h-2.22v-.75h2.22v-5.58h.88v7.26Z"/><path class="cls-2" d="M74.93,100.88h-8.71v-.74h3.91v-2.03h.9v2.03h3.9v.74Zm-3.89-6.86h2.88v.72h-2.88v.21c0,1.3,1.89,2.42,3.31,2.89l-.49,.63c-1.16-.36-2.66-1.29-3.28-2.32-.6,1.03-1.99,1.88-3.29,2.34l-.49-.65c1.37-.43,3.31-1.58,3.31-2.89v-.21h-2.88v-.72h2.88v-1.38h.93v1.38Z"/><path class="cls-2" d="M83.75,96.98v.71h-8.71v-.71h8.71Zm-.94,5.21h-6.57v-2.24h5.43v-.85h-5.43v-.69h6.35v2.2h-5.43v.9h5.65v.68Zm-6.52-5.9v-2.11h5.35v-.69h-5.35v-.71h6.21v2.07h-5.34v.74h5.56v.7h-6.44Z"/><path class="cls-2" d="M50.51,106.77v2.57c0,1.59,1.22,2.74,2.47,3.35l-.44,.68c-.8-.46-1.93-1.23-2.47-2.43-.5,1.22-1.52,1.99-2.55,2.65l-.56-.62c1.38-.79,2.64-2,2.64-3.65v-2.55h.91Zm4.22-.42v3.2h1.62v.76h-1.62v5.46h-.88v-9.42h.88Z"/><path class="cls-2" d="M64.89,111.5h-8.71v-.72h2.32v-1.23c-.77-.29-1.17-.79-1.17-1.45,0-1,1.13-1.71,3.19-1.71s3.21,.69,3.21,1.71c0,.65-.42,1.13-1.15,1.42v1.26h2.3v.72Zm-1.06,2.59c0,1.05-1.05,1.83-3.29,1.83s-3.27-.78-3.27-1.83,1.07-1.83,3.27-1.83,3.29,.77,3.29,1.83Zm-3.29-1.15c-1.47,0-2.33,.45-2.33,1.14s.86,1.14,2.33,1.14,2.33-.43,2.33-1.14-.86-1.14-2.33-1.14Zm-2.29-4.84c0,.73,1,1.05,2.27,1.05s2.28-.32,2.28-1.05c0-.66-1-1-2.28-1s-2.27,.35-2.27,1Zm2.27,1.74c-.42,0-.79-.02-1.14-.06v1h2.34v-1.02c-.36,.05-.77,.08-1.21,.08Z"/></g><g><path class="cls-2" d="M176.86,100.52c0,1.05-1.05,1.79-3.29,1.79s-3.27-.74-3.27-1.79c0-.98,.9-1.68,2.8-1.79v-.85h-3.89v-.73h8.71v.73h-3.91v.85c1.92,.09,2.85,.8,2.85,1.79Zm-6.8-4.16v-.73h1.43l-.16-1.54h.87l.16,1.54h2.43l.12-1.54h.92l-.18,1.54h1.42v.73h-7.01Zm.21-2.67v-.74h6.58v.74h-6.58Zm3.29,5.73c-1.47,0-2.33,.4-2.33,1.09s.86,1.1,2.33,1.1,2.33-.4,2.33-1.1-.86-1.09-2.33-1.09Z"/><path class="cls-2" d="M186.74,98.92h-3.91v3.23h-.89v-3.23h-3.91v-.74h8.71v.74Zm-1.22-1.86h-6.24v-4.18h.87v1.38h4.51v-1.38h.86v4.18Zm-.86-.74v-1.34h-4.51v1.34h4.51Z"/><path class="cls-2" d="M192.34,94.46h-5.61v-.69h2.35v-1.14h.91v1.14h2.35v.69Zm-2.8,4.19c-1.4,0-2.3-.88-2.3-1.91s.92-1.85,2.31-1.85,2.27,.81,2.27,1.85-.84,1.91-2.28,1.91Zm-1.43-1.92c0,.67,.48,1.23,1.44,1.23s1.41-.52,1.41-1.23c0-.65-.46-1.16-1.41-1.16s-1.44,.51-1.44,1.16Zm6.39,5.27h-6.2v-2.71h.88v1.97h5.32v.74Zm-.31-9.26v3.07h1.5v.73h-1.5v3.06h-.88v-6.86h.88Z"/><path class="cls-2" d="M153.05,106.5c1.52,0,2.47,1.08,2.47,2.3s-.88,2.28-2.47,2.28-2.46-1.07-2.46-2.28,.95-2.3,2.46-2.3Zm1.59,2.3c0-.83-.57-1.57-1.59-1.57-1.08,0-1.58,.74-1.58,1.57s.47,1.55,1.58,1.55c1.04,0,1.59-.73,1.59-1.55Zm3.58,5.23c0,1.15-.97,1.9-3.13,1.9s-3.11-.77-3.11-1.9,.98-1.91,3.11-1.91,3.13,.76,3.13,1.91Zm-.92,0c0-.78-.81-1.23-2.2-1.23s-2.18,.46-2.18,1.23c0,.73,.79,1.2,2.18,1.2s2.2-.46,2.2-1.2Zm-1.62-6.61h1.57v-1.08h.88v5.5h-.88v-1.53h-1.57v-.72h1.57v-1.44h-1.57v-.73Z"/><path class="cls-2" d="M161.73,106.57c1.52,0,2.46,1.09,2.46,2.29s-.86,2.29-2.46,2.29-2.46-1.07-2.46-2.29,.93-2.29,2.46-2.29Zm1.6,2.29c0-.81-.57-1.55-1.6-1.55-1.09,0-1.6,.74-1.6,1.55s.48,1.56,1.6,1.56c1.05,0,1.6-.72,1.6-1.56Zm3.3,5.13c0,1.15-.91,1.94-3.07,1.94s-3.08-.78-3.08-1.94,.93-1.98,3.08-1.98,3.07,.82,3.07,1.98Zm-.89,0c0-.8-.8-1.3-2.16-1.3s-2.18,.5-2.18,1.3c0,.75,.77,1.24,2.18,1.24s2.16-.45,2.16-1.24Zm2.23-3.76h-1.51v1.57h-.87v-5.46h.87v1.17h1.51v.74h-1.51v1.25h1.51v.73Z"/><path class="cls-2" d="M176.7,111.96h-3.79v1.87h-.87v-1.87h-4.05v-.72h8.71v.72Zm-.83,3.65h-6.68v-2.76h.89v2.02h5.79v.74Zm-6.63-5.31v-3.86h.86v1.27h4.52v-1.27h.86v3.86h-6.24Zm5.38-.74v-1.15h-4.52v1.15h4.52Z"/><path class="cls-2" d="M176.83,113.02c.65,0,1.25,0,1.87,0v-3.03h.89v3c1.21-.04,2.27-.11,3.17-.2v.71c-1.55,.24-3.73,.28-5.94,.28v-.75Zm5.24-5.98c-.08,1.69-.18,2.83-.43,4.4h-.86c.22-1.22,.3-2.5,.37-3.67h-3.83v-.73h4.75Zm2.16-.7v3.6h1.54v.75h-1.54v5.07h-.87v-9.42h.87Z"/><path class="cls-2" d="M193.08,113.24h-4.36v-6.21h4.36v6.21Zm-.86-.73v-4.75h-2.63v4.75h2.63Zm2.77-6.17h.88v9.42h-.88v-9.42Z"/><path class="cls-2" d="M201.26,113c-.97,.13-2.52,.13-3.79,.13v-6.14h.87v5.36c.92,0,1.95,0,2.92-.09v.74Zm1.62,2.45h-.86v-5.52h-2.14v-.74h2.14v-2.81h.86v9.06Zm1.97,.31h-.86v-9.42h.86v9.42Z"/><path class="cls-2" d="M211.41,110.73c-1.46,.16-3.87,.2-5.35,.2v-2.56h3.28v-1.06h-3.28v-.69h4.14v2.43h-3.28v1.19c1.29,0,2.94,0,4.49-.2v.69Zm1.77,5.07h-6.22v-2.41h5.09v-1.02h-5.09v-.67h6v2.38h-5.08v1.04h5.31v.68Zm-.25-9.46v1.9h1.5v.72h-1.5v2.2h-.87v-4.82h.87Z"/></g><path d="M204.2,52.42c-.1-.63-.18-.69-.38-.69-.14,0-.35,.05-.55,.1-.48,.12-.96,.25-1.46,.37l-.7,.18s-.02,0-.04,0c-.03,0-.07-.01-.1-.04-.04-.03-.05-.08-.05-.13l.03-.21c.02-.12,.03-.22,.05-.31l.45-2.32c.48-2.47,.96-4.94,1.43-7.41,.04-.23,0-.53-.12-.72-1.03-1.65-2.09-3.32-3.12-4.93l-.51-.79c-.16-.26-.27-.36-.38-.36-.1,0-.23,.07-.44,.22-.36,.26-.72,.52-1.07,.78-.77,.56-1.53,1.12-2.31,1.67-.31,.22-.48,.46-.56,.81-.14,.59-.31,1.18-.49,1.81-.08,.27-.15,.54-.23,.83-.02,.06-.07,.1-.14,.11h0c-.06,0-.12-.04-.14-.1l-.07-.23c-.04-.11-.06-.19-.08-.27l-.56-1.98c-.65-2.31-1.32-4.69-2-7.04-.06-.22-.25-.47-.44-.57-1.14-.66-2.29-1.32-3.44-1.97-.91-.52-1.83-1.04-2.74-1.56-.16-.09-.29-.14-.41-.14-.15,0-.3,.07-.47,.22-.63,.54-1.27,1.07-1.91,1.61-.69,.58-1.39,1.16-2.07,1.75-.22,.19-.41,.49-.5,.76-.29,.96-.56,1.92-.84,2.88-.32,1.11-.65,2.26-.99,3.38-.27,.88-.39,1.72-.36,2.56,.02,.59,.02,1.19,.01,1.77,0,.21,0,.42,0,.62h.7c0-.22,0-.44,0-.65,0-.62-.01-1.2,.01-1.8,.03-.6,.05-1.28,.22-1.92,.38-1.41,.78-2.78,1.21-4.24,.16-.56,.33-1.13,.5-1.7,.02-.05,.06-.09,.12-.1,0,0,.01,0,.02,0,.05,0,.09,.02,.12,.07l.13,.21c.08,.12,.14,.21,.2,.31,.32,.51,.63,1.02,.94,1.54,.76,1.24,1.54,2.52,2.35,3.76,.43,.65,.63,1.34,.67,2.23,.06,1.62,.15,3.26,.24,4.85l.08,1.47c.25,4.65,.5,9.29,.76,13.94l.26,4.74,.29,5.32c.05,.92,.1,1.83,.15,2.77l.07,1.37c0,.06-.03,.12-.09,.14-.02,0-.04,.01-.05,.01-.04,0-.08-.02-.11-.05l-.09-.11c-.05-.06-.09-.1-.12-.15l-.36-.56c-.45-.69-.92-1.41-1.36-2.13-.11-.18-.18-.4-.23-.7-.21-1.38-.41-2.75-.61-4.13-.14-.92-.27-1.85-.41-2.77l-.15-1.04c-.81-5.47-1.65-11.13-2.49-16.69-.03-.23-.19-.5-.36-.63-1.65-1.23-3.34-2.46-4.98-3.65l-.53-.38c-.18-.13-.3-.19-.39-.19-.08,0-.19,.04-.38,.37-.34,.59-.69,1.19-1.03,1.79l-.69,1.19c-.05,.08-.1,.16-.16,.25l-.09,.14s-.07,.06-.12,.06h0s-.09-.02-.12-.07l-.95-1.47c-1.06-1.64-2.06-3.19-3.1-4.76-.16-.24-.42-.45-.66-.53-1.96-.65-3.92-1.29-5.88-1.93-1.27-.41-2.54-.83-3.82-1.25-.14-.05-.25-.07-.35-.07-.15,0-.27,.05-.38,.17v10.9s.03,.03,.04,.05c.06,.07,.12,.14,.18,.22l.43,.7c1.1,1.78,2.23,3.63,3.32,5.45,.14,.23,.2,.56,.15,.82-.14,.74-.29,1.48-.44,2.21-.15,.72-.29,1.44-.43,2.16-.04,.23-.01,.51,.08,.71,2.81,6.32,5.58,12.51,7.91,17.72,.05,.11,.13,.22,.22,.33,.03,.03,.05,.07,.08,.1h5.16s.06-.09,.09-.14c.1-.14,.19-.28,.25-.43,.51-1.23,1-2.46,1.51-3.71l.5-1.24s.05-.07,.1-.09c.01,0,.02,0,.04,0,.03,0,.07,.01,.09,.03l.76,.62,1.8,1.48c.42,.34,.83,.69,1.25,1.03,.23,.19,.36,.28,.48,.28s.26-.09,.5-.26l2.18-1.57,.92-.66s.05-.03,.08-.03c0,0,.02,0,.03,0,.04,0,.07,.03,.09,.06l.51,.79c.38,.59,.75,1.17,1.13,1.74,.33,.5,.67,1,1.01,1.49l.4,.59h3.59l.64-.81c.67-.85,1.37-1.73,2.07-2.59,.17-.21,.45-.38,.71-.44,.77-.16,1.54-.31,2.31-.46,.9-.18,1.83-.36,2.74-.55,.28-.06,.62-.22,.74-.42,2.3-3.88,4.59-7.79,6.71-11.44,.09-.15,.13-.38,.1-.55-.39-2.46-.8-4.97-1.19-7.39l-.08-.46Zm-33.88-4.13l1.41-2.46,1.5-2.61s.05-.06,.09-.07c0,0,.02,0,.03,0,.03,0,.06,0,.08,.03l3.48,2.54,1.35,.98s.06,.07,.06,.12-.03,.09-.06,.12l-.79,.52c-.98,.64-1.92,1.25-2.86,1.86-.05,.03-.21,.13-.38,.13-.03,0-.06,0-.09,0-.98-.24-1.96-.49-2.95-.74l-.79-.2s-.08-.04-.1-.08-.01-.09,0-.13Zm-4.46-8.17s.09,.02,.12,.06l.09,.13c.06,.08,.11,.15,.16,.23l1.1,1.69c.91,1.4,1.81,2.8,2.73,4.19,.18,.27,.3,.57,.02,.91-.71,.84-.7,1.76-.45,2.89,1.1,5,2.19,10.27,3.43,16.59,.01,.07-.03,.14-.1,.16-.01,0-.03,0-.04,0-.06,0-.11-.03-.13-.09-3.94-9.07-8.68-17.6-12.36-24.02-.02-.03-.02-.08-.01-.11,.01-.04,.04-.07,.08-.09l5.31-2.54s.04-.01,.06-.01Zm-9.59,5.6c-.05-.02-.09-.07-.09-.13v-8.62s.02-.09,.06-.12c.02-.02,.05-.03,.08-.03,.01,0,.03,0,.04,0l1.17,.38,7.19,2.34c.05,.02,.09,.06,.1,.12,0,.06-.02,.11-.07,.14l-.16,.1c-.09,.06-.16,.1-.23,.14l-1.35,.65c-.99,.48-1.99,.95-2.98,1.43-.22,.11-.44,.27-.62,.46-.73,.74-1.44,1.49-2.18,2.27l-.8,.83s-.07,.04-.1,.04c-.02,0-.04,0-.05-.01Zm3.16,6.46c-.7-1.27-1.49-2.53-2.25-3.75-.22-.36-.45-.72-.67-1.07-.21-.33-.18-.57,.08-.84,.76-.77,1.49-1.53,2.26-2.34l.84-.88s.06-.04,.1-.04c0,0,.01,0,.02,0,.05,0,.08,.03,.11,.07l6.31,11.47c.03,.05,.02,.11-.01,.16-.03,.04-.07,.06-.11,.06-.01,0-.02,0-.04,0-.46-.12-.92-.25-1.36-.37-1.02-.28-1.98-.55-2.96-.74-1.08-.21-1.78-.72-2.32-1.72Zm.01,6.49s-.03-.07-.02-.11l.35-1.7,.51-2.49s.03-.07,.06-.09c.02-.01,.05-.02,.08-.02,.01,0,.02,0,.04,0l3.32,.87,2.58,.68s.08,.04,.1,.09c.02,.04,.01,.09-.01,.13l-.44,.69c-.55,.85-1.08,1.68-1.62,2.5-.09,.13-.29,.2-.44,.2-.02,0-.05,0-.07,0-1.13-.17-2.26-.35-3.43-.54l-.9-.15s-.07-.03-.1-.06Zm14.39,13.12c-.6,1.45-1.21,2.94-1.84,4.55-.12,.32-.29,.51-.7,.51-.6-.01-1.18-.02-1.76-.02h-1.05c-.35,0-.71,0-1.06,0-.06,0-.11-.03-.13-.08l-7.62-17.05s-.01-.1,.02-.15c.03-.04,.07-.06,.11-.06,0,0,.01,0,.02,0l.54,.08c.35,.05,.67,.1,1,.15,.24,.04,.47,.08,.71,.12,.51,.09,1.04,.17,1.57,.23,.37,.04,.59,.21,.75,.58,1.77,4.04,3.55,8.07,5.32,12.11l.88,2c.05,.12,.11,.24,.17,.36l.04,.07,.63-.27-.52-1.17-1.44-3.26-1.01-2.3c-1.15-2.62-2.3-5.23-3.46-7.84-.15-.34-.13-.6,.07-.9,.45-.66,.87-1.33,1.33-2.03l.53-.82s.07-.07,.12-.07c0,0,0,0,0,0,.05,0,.1,.03,.12,.08l.19,.4,.21,.46,1.24,2.64c1.67,3.55,3.33,7.1,5.01,10.64,.17,.36,.18,.67,.02,1.03Zm4.47,2.08s-.04,.02-.07,.02c-.03,0-.06-.01-.09-.03-.27-.22-.53-.44-.78-.65-.56-.47-1.09-.92-1.65-1.33-.67-.49-1.05-1.1-1.24-2-1.04-5.11-2.13-10.29-3.19-15.31l-1.05-5s0-.08,0-.12v-.08s.03-.08,.07-.11c.02-.02,.05-.03,.08-.03,.01,0,.02,0,.03,0,.25,.06,.5,.13,.74,.2,.54,.15,1.09,.3,1.64,.37,1.09,.15,1.41,.75,1.57,1.66,.96,5.51,1.99,11.11,2.98,16.52,.33,1.78,.65,3.56,.98,5.34,0,.05,.01,.11,.02,.2l.02,.2c0,.06-.02,.11-.08,.14Zm3.76-1.47c-.63,.43-1.24,.88-1.88,1.34l-.75,.54s-.05,.03-.08,.03c-.02,0-.04,0-.05-.01-.05-.02-.08-.06-.09-.11l-.28-1.56-.64-3.52-.93-5.1c-.79-4.33-1.58-8.67-2.37-13v-.04c-.17-.88-.14-.95,.62-1.45,.7-.46,1.39-.91,2.11-1.38l.89-.58s.05-.02,.08-.02c.02,0,.04,0,.06,.01,.04,.02,.08,.06,.08,.11l.24,1.57c.16,1.08,.32,2.14,.48,3.2l1.26,8.52,.67,4.49,.21,1.4c.24,1.59,.47,3.17,.71,4.76,.05,.36-.04,.6-.33,.8Zm20-30.2s.05,.08,.04,.13l-.15,.77c-.1,.53-.2,1.04-.29,1.54l-.39,2c-.36,1.85-.72,3.7-1.07,5.56-.06,.33-.21,.49-.52,.56-.61,.15-1.21,.31-1.85,.48l-.76,.2s-.02,0-.04,0c-.04,0-.07-.01-.1-.04-.04-.03-.05-.08-.05-.13l.16-1c.11-.69,.22-1.35,.33-2.02l.35-2.1c.26-1.59,.53-3.18,.78-4.77,.05-.34,.17-.56,.57-.64,.66-.13,1.31-.27,2-.42l.85-.19s.02,0,.03,0c.04,0,.07,.01,.1,.04Zm-6.63-3.86l2.08-1.53,.97-.71s.05-.03,.08-.03c0,0,.02,0,.03,0,.04,0,.07,.03,.09,.06l3.23,5.07s.03,.09,.01,.13-.05,.07-.1,.09l-.22,.06c-.15,.04-.28,.08-.42,.11-.4,.09-.8,.18-1.2,.26-.37,.08-.73,.16-1.1,.24-.1,.02-.18,.03-.26,.03-.21,0-.38-.09-.53-.27-.64-.8-1.28-1.58-1.96-2.41l-.75-.91s-.04-.07-.03-.11c0-.04,.03-.07,.06-.1Zm-1.68,16.8c.06-.9,.12-1.79,.18-2.69,.16-2.36,.32-4.81,.44-7.21,.02-.35-.09-.7-.2-1.08-.06-.21-.13-.43-.17-.65-.06-.3-.06-.56,0-.77,.2-.8,.42-1.6,.65-2.44l.25-.92c.01-.05,.06-.09,.11-.1,.01,0,.02,0,.03,0,.04,0,.08,.02,.11,.05l.62,.75c.69,.83,1.34,1.62,1.98,2.42,.12,.15,.15,.39,.12,.56-.57,3.49-1.14,6.98-1.72,10.46-.02,.13-.05,.28-.12,.42-.7,1.38-1.39,2.73-2.18,4.05-.03,.04-.07,.07-.12,.07-.01,0-.03,0-.04,0-.06-.02-.1-.08-.1-.15l.05-.88c.04-.62,.07-1.25,.11-1.87Zm-4.83,21.53c0,.08-.06,.14-.14,.14h-2.34c-.08,0-.14-.06-.14-.14l-1.98-36.72s.01-.08,.04-.11c.03-.03,.06-.04,.1-.04h4.76s.08,.02,.1,.04c.03,.03,.04,.06,.04,.1l-.44,36.72Zm.52-38.55l-.05,.7c0,.05-.03,.09-.05,.13,0,.01-.02,.03-.03,.05-.02,.05-.07,.08-.13,.08h-.93s-.93,0-.93,0c-.96,0-1.92,0-2.88,0-.18,0-.38-.14-.46-.27-1.21-1.94-2.42-3.88-3.64-5.86l-.72-1.16c-.04-.06-.02-.14,.03-.19l3.91-3.28s.06-.03,.09-.03c.02,0,.05,0,.07,.02l1.06,.6c1.6,.9,3.19,1.8,4.77,2.71,.15,.09,.32,.32,.3,.5-.13,2-.27,4.01-.42,6.01Zm2.54,33.93c-.05,1.01-.35,1.74-.95,2.37-.26,.27-.49,.57-.71,.87-.1,.14-.21,.27-.31,.41-.03,.04-.07,.05-.11,.05-.01,0-.03,0-.04,0l-.13-.04c-.06-.02-.12-.08-.12-.15,.12-5.39,.17-10.88,.21-16.18,.07-8.06,.14-16.4,.47-24.6,0-.07,.06-.13,.13-.14h.1s.09-.01,.09-.01c0,0,0,0,.01,0,.06,0,.12,.04,.14,.1l.11,.38c.08,.27,.16,.55,.24,.82,.21,.75,.43,1.5,.64,2.25,.6,2.11,1.22,4.29,1.78,6.45,.15,.59,.1,1.23,.05,1.85-.01,.14-.02,.29-.03,.43-.19,3.22-.4,6.44-.61,9.65l-.15,2.31c-.08,1.2-.16,2.41-.24,3.61-.21,3.14-.42,6.38-.59,9.57Zm.9-.79s-.03,0-.05,0c-.06-.02-.1-.08-.09-.14l.07-1.18,.45-7.08s0-.06,.01-.09c0-.03,0-.06,0-.09-.12-1.61,.52-2.98,1.16-4.11,.44-.77,.83-1.55,1.24-2.38,.18-.36,.37-.73,.56-1.1,.02-.04,.06-.07,.11-.08,0,0,0,0,.01,0,.04,0,.08,.02,.11,.05,.03,.04,.06,.07,.08,.1,.06,.06,.11,.12,.15,.2l.21,.39c.67,1.25,1.36,2.54,2.02,3.82,.09,.17,.12,.47,.02,.66-1.75,3.28-3.51,6.55-5.27,9.82l-.48,.89s-.05,.07-.09,.14l-.1,.14s-.07,.06-.12,.06Zm11.6-10.27l-1.91,3.27-.98,1.67c-1.1,1.87-2.19,3.74-3.28,5.62-.18,.31-.4,.46-.73,.52-1.05,.19-2.1,.4-3.18,.61l-1.17,.23s-.02,0-.03,0c-.04,0-.08-.02-.11-.05-.03-.04-.04-.1-.02-.15,.02-.06,.05-.11,.06-.16,.04-.1,.08-.19,.12-.27l1.68-3.13c1.51-2.8,3.01-5.6,4.51-8.41,.16-.31,.36-.44,.66-.44,.05,0,.11,0,.17,.01,.96,.12,1.91,.22,2.92,.33l1.16,.13s.09,.03,.11,.08,.02,.09,0,.14Zm.23-1.06s0,.09-.04,.12c-.03,.03-.06,.04-.1,.04,0,0-.01,0-.02,0-.38-.04-.76-.09-1.14-.14-.88-.11-1.71-.21-2.55-.25-.84-.03-1.34-.38-1.72-1.21-.4-.86-.87-1.72-1.32-2.55-.2-.36-.4-.73-.59-1.1-.05-.1-.1-.19-.15-.3l-.09-.17s-.02-.08,0-.12,.05-.07,.09-.08l.36-.09,5.9-1.55s.02,0,.04,0c.03,0,.05,0,.08,.02,.03,.02,.06,.06,.06,.1l.87,5.37,.31,1.9Z"/><g><path d="M79.86,39.27c-1.17-.47-2.14-1.15-2.93-1.76-.89-.69-1.72-1.04-2.59-1.12-1.64-.15-3.07-.77-4.38-1.91-.69-.6-1.52-.96-2.47-1.05-1.66-.17-3.14-.81-4.39-1.9-.19-.17-.41-.29-.64-.43-.18-.1-.36-.21-.53-.34-.22-.16-.5-.39-.62-.68-.55-1.23-1.79-2-3.08-1.94-.65,.03-1.24-.01-1.75-.13l-.06-.02c-1.58-.36-3.06-.71-4.61-.15-1.17,.42-2.39,.42-3.62,0-1.27-.43-2.6-.41-4.08,.04-1.1,.34-2.15,.34-3.2,0-1.4-.45-2.81-.45-4.32-.01-.54,.16-1.11,.23-1.66,.3-.25,.03-.49,.06-.74,.1h-.02s-.02,0-.02,0c-.89-.09-1.77,.24-2.39,.9-.62,.66-.9,1.54-.77,2.42,.2,1.3,.15,2.67-.15,4.19-.3,1.53-.56,3.17-.14,4.79,.53,2.07,.53,4.2,.01,6.32-.32,1.32-.32,2.67,0,4.02,.49,2.03,.5,4.08,.01,6.26-.21,.95-.38,1.98-.19,3.04l.04,.2c.35,1.96,.71,3.99,.42,6.1-.1,.74,.15,1.49,.72,2.1,.66,.71,1.64,1.11,2.57,1.04,.45-.03,1.12-.05,1.7,.13,1.87,.57,3.71,.56,5.61-.02,.27-.08,.55-.11,.84-.11s.56,.03,.82,.06c.34,.04,.68,.13,1,.21,.3,.08,.61,.16,.91,.2,2.66,.36,4.64,1.19,6.23,2.62,.27,.24,.73,.41,1.31,.49,2.15,.29,3.76,.97,5.04,2.15,.65,.6,1.48,.8,2.28,.96,.17,.03,.35,.07,.52,.1,.79,.15,1.6,.3,2.32,.65,1.02,.5,2.07,.55,2.95,.16,.83-.37,1.44-1.13,1.72-2.14,.33-1.19,.79-2.19,1.4-3.06,.54-.76,.95-1.41,1.29-2.04l.08-.14c.31-.57,.63-1.15,.74-1.75,.52-2.81,1.59-5.29,3.28-7.58,.4-.54,.67-1.14,.77-1.68,.54-2.96,1.66-5.56,3.44-7.95,.32-.43,.51-1,.66-1.5,.15-.51,.29-1.03,.43-1.54,.41-1.54,.83-3.13,1.72-4.57,.4-.64,.48-1.45,.23-2.22-.27-.83-.9-1.51-1.69-1.83Zm-33.6,30.12c-.47,0-.95-.07-1.45-.22-1.65-.49-3.1-.51-4.43-.05-1.19,.41-2.37,.22-3.38,0-1.05-.22-2.13-.3-2.96-.34-.73-.04-1.42-.38-1.84-.92-.34-.43-.47-.95-.37-1.47,.3-1.54,.06-3.06-.18-4.52-.1-.64-.21-1.3-.27-1.96-.07-.76,.04-1.54,.14-2.29,.03-.21,.06-.42,.08-.63,.04-.34,.11-.68,.17-1.01,.1-.49,.19-.96,.2-1.44,.02-.85-.06-1.73-.25-2.54-.48-2.13-.48-4.15,.01-6.2,.34-1.44,.35-2.74,.03-3.96-.55-2.08-.53-4.28,.06-6.91,.21-.95,.22-1.97,.02-3.11-.14-.8,.03-1.53,.49-2.04,.49-.55,1.26-.82,2.16-.77,.81,.04,1.66-.14,2.39-.33,1.41-.35,2.51-.35,3.55,0,1.31,.44,2.64,.44,3.96,.01,1.18-.38,2.4-.38,3.62,0,1.31,.41,2.47,.43,3.56,.06,1.65-.57,3.24-.28,4.43,.02,.71,.18,1.5,.2,2.23,.2,.66,.02,1.28,.24,1.72,.68,.42,.42,.65,1,.64,1.62,0,.03,0,.07,0,.1-.41,1.75-.08,3.5,.25,5.19l.11,.55c.22,1.15,.17,2.31-.13,3.44-.66,2.48-.31,4.92,.17,7.2,.24,1.13,.05,2.19-.16,3.08-.51,2.16-.48,4.42,.09,6.72,.34,1.35,.1,2.67-.12,3.95v.07c-.29,1.59-.5,3.02-.24,4.53,.13,.74-.03,1.37-.44,1.82-.53,.58-1.44,.84-2.65,.75-.14,.03-.31,.06-.49,.09-.54,.09-1.2,.21-1.86,.38-1.01,.27-1.93,.26-2.8,0-1.63-.51-3.16-.52-4.67-.01-.46,.15-.93,.23-1.41,.23Zm34.24-26.38c-.97,1.41-1.37,3.04-1.76,4.62-.13,.53-.27,1.08-.42,1.61-.16,.55-.35,.97-.59,1.29-1.8,2.41-2.97,5.11-3.47,8-.09,.52-.33,1.06-.65,1.48-1.78,2.36-2.92,5-3.48,8.07-.09,.47-.33,.92-.55,1.31-.41,.7-.85,1.4-1.31,2.07-.78,1.13-1.31,2.26-1.6,3.47-.17,.67-.55,1.18-1.11,1.46-.31,.16-.66,.23-1.03,.23s-.79-.08-1.18-.25c-.66-.28-1.38-.45-2.09-.62-.43-.1-.87-.21-1.3-.34-.4-.12-.78-.29-1.15-.46-.15-.07-.29-.13-.44-.2-.09-.04-.16-.1-.23-.16-1.47-1.27-3.02-1.95-4.77-2.1-.78-.06-1.5-.37-2.25-.97-.42-.34-.88-.65-1.32-.96-.2-.14-.4-.28-.6-.42l-.09-.06,.03-.49h.2c.15,.03,.29,.03,.44,.04,.33,.02,.68,.04,1.02,.09,.62,.1,1.25,.25,1.87,.42,.93,.26,1.82,.06,2.77-.15l.07-.02c.96-.21,1.91-.43,2.92-.36,1.38,.09,2.49-.84,3.11-2.62l.06-.17,.18,.05c.26,.07,.53,.14,.8,.22,.64,.17,1.31,.35,1.96,.56,.51,.16,.69,.16,.81-.16,.06-.14,.06-.26,.01-.36-.06-.13-.23-.23-.47-.3-1.02-.29-1.88-.51-2.69-.69-.38-.09-.71-.21-.82-.8-.17-.93,0-1.82,.15-2.68,.07-.38,.14-.77,.18-1.15,.04-.42,.12-.84,.19-1.2,.03-.15,.05-.29,.08-.42l.04-.21,1.32,.33c.9,.22,1.78,.43,2.66,.66,.38,.1,.75,.23,1.11,.36,.14,.05,.28,.1,.42,.15,.44,.15,.58-.02,.65-.21,.04-.1,.07-.24,0-.36-.06-.13-.2-.19-.3-.23-.73-.23-1.49-.46-2.26-.67-.23-.06-.47-.11-.7-.15-.15-.03-.3-.06-.45-.09-1.37-.3-2.93-.93-2.85-3.14,.01-.39-.06-.78-.14-1.19-.08-.39-.16-.8-.15-1.21,0-.61,.12-1.21,.23-1.85,.05-.29,.1-.58,.15-.9l.04-.29,.25,.15c.13,.08,.26,.15,.38,.22,.26,.14,.5,.28,.72,.46,1.65,1.33,3.46,2.11,5.56,2.4,.43,.06,.85,.22,1.25,.37,.14,.05,.28,.11,.43,.16,.49,.17,.63,0,.71-.19,.05-.14,.06-.26,0-.36-.07-.14-.24-.22-.36-.26-.2-.06-.4-.13-.61-.19-.56-.18-1.13-.37-1.7-.46-1.63-.28-3.04-.88-4.3-1.83-.33-.24-.68-.47-1.03-.68-.24-.15-.47-.29-.7-.45-.07-.05-.42-.29-.37-.56,.15-.91-.01-1.77-.19-2.68-.08-.39-.15-.8-.2-1.21-.05-.45-.12-.9-.2-1.36l-.14-.9,.25,.03c1.78,.19,3.25,.75,4.5,1.71,1.68,1.28,3.45,2.04,5.41,2.32,.45,.06,.88,.22,1.3,.37,.13,.05,.26,.09,.38,.14,.46,.16,.63,.11,.75-.19,.05-.14,.06-.25,.01-.35-.07-.15-.27-.24-.42-.28-.34-.1-.68-.19-1.02-.28-.46-.12-.93-.24-1.38-.39-.28-.09-.56-.18-.84-.27-.86-.26-1.75-.54-2.5-1.03-2.05-1.36-3.79-2.41-6.03-2.63l-.2-.02,.03-.2c.03-.23,.06-.46,.09-.68,.06-.48,.12-.94,.23-1.39,.34-1.33,.17-2.62-.08-4.16-.04-.27-.1-.54-.15-.81-.2-1.05-.41-2.14-.14-3.27l.14-.61,.23,.14c.07,.04,.14,.08,.2,.11,.13,.07,.26,.14,.36,.24,1.42,1.28,3.14,2.03,5.24,2.3,.6,.08,1.24,.36,1.69,.75,1.47,1.26,3.2,1.99,5.27,2.24,.42,.05,.88,.25,1.43,.59,.34,.22,.67,.45,.99,.68,.77,.55,1.57,1.12,2.5,1.45,.56,.2,1.02,.68,1.21,1.29,.19,.58,.12,1.18-.2,1.65Z"/><path d="M36.6,39l.19,.02c.68,.07,1.38,.14,2.06,.3,1.74,.41,3.37,.4,4.96-.02,.79-.21,1.58-.31,2.38-.31s1.58,.1,2.41,.29c.58,.14,1.17,.22,1.74,.3,.24,.03,.48,.07,.71,.11l.74-.1c.54-.08,1.05-.15,1.55-.22,.28-.04,.56-.08,.84-.13,.56-.09,1.12-.17,1.69-.24,.48-.06,.57-.2,.56-.47,0-.15-.05-.27-.13-.34-.12-.1-.3-.1-.43-.09l-.17,.02c-.81,.09-1.65,.19-2.45,.36-1.57,.34-2.98,.33-4.32-.02-1.83-.48-3.57-.49-5.3-.03-1.51,.4-3.1,.39-4.85-.04-.57-.14-1.18-.2-1.77-.26l-.43-.04c-.14-.02-.33-.01-.45,.09-.08,.07-.12,.17-.13,.32-.01,.28,.07,.44,.6,.49Z"/><path d="M36.63,46.11l.29,.03c.65,.07,1.31,.14,1.96,.29,1.7,.4,3.29,.4,4.84,0,.83-.22,1.65-.32,2.48-.32s1.68,.11,2.54,.33c.53,.13,1.08,.21,1.62,.28,.2,.03,.4,.05,.6,.08l.13-.03c.12,0,.25-.02,.37-.03,.26-.02,.54-.03,.8-.07,.86-.12,1.71-.26,2.57-.39l1.18-.18c.31-.05,.44-.19,.42-.48-.01-.14-.05-.25-.13-.31-.1-.08-.24-.08-.34-.08l-.49,.05c-.65,.06-1.32,.12-1.95,.27-1.7,.4-3.27,.39-4.79,0-1.67-.44-3.35-.44-5.01,0-1.54,.4-3.11,.41-4.79,.02-.6-.14-1.24-.21-1.85-.27l-.47-.05c-.16-.02-.37-.02-.49,.09-.08,.07-.12,.18-.12,.33,0,.31,.13,.41,.63,.47Z"/><path d="M36.61,53.21c.58,.06,1.15,.16,1.71,.24,.23,.04,.46,.07,.7,.11l2.36,.36c.25-.04,.51-.08,.77-.12,.59-.09,1.2-.18,1.79-.32,1.58-.38,3.05-.38,4.5,0,1.4,.36,2.64,.46,3.81,.29,1.26-.18,2.56-.37,3.85-.62,.09-.02,.29-.26,.32-.46,.02-.1,0-.19-.06-.25-.07-.07-.19-.11-.31-.1l-.38,.03c-.74,.07-1.51,.14-2.24,.3-1.66,.37-3.17,.37-4.62-.01-1.72-.45-3.47-.45-5.18,0-1.23,.32-2.51,.38-3.79,.18-.97-.16-2.12-.34-3.27-.5-.04,0-.09-.01-.14-.01-.11,0-.22,.02-.3,.09-.08,.06-.12,.17-.12,.32-.01,.32,.12,.42,.61,.47Z"/><path d="M56.44,59.89c0-.16-.03-.28-.11-.35-.12-.11-.32-.11-.47-.1l-.31,.03c-.71,.07-1.44,.15-2.13,.31-1.62,.38-3.13,.38-4.62-.02-1.72-.45-3.46-.45-5.19,0-1.46,.39-2.95,.39-4.56,.02-.71-.16-1.46-.24-2.18-.32l-.31-.03c-.19-.02-.35,.01-.44,.09-.08,.07-.12,.18-.12,.33,0,.26,.08,.41,.56,.46,.73,.07,1.5,.16,2.25,.33,1.79,.41,3.45,.4,5.08-.03,.76-.2,1.53-.3,2.31-.3s1.56,.1,2.37,.3c.57,.14,1.14,.22,1.74,.3,.26,.04,.53,.07,.79,.11l.75-.12c.61-.09,1.21-.19,1.81-.28l.54-.08c.53-.08,1.09-.17,1.64-.22,.47-.05,.59-.13,.59-.43Z"/></g></g></svg>