<?xml version="1.0" encoding="UTF-8"?><svg id="_레이어_2" xmlns="http://www.w3.org/2000/svg" viewBox="0 0 222.36 91.11"><defs><style>.cls-1{fill:#231815;}</style></defs><g id="_레이어_1-2"><g><path class="cls-1" d="M5.55,2.58H0v-.64H2.39V.23h.76V1.94h2.4v.64Zm-.35,3.41c0,1.67-.95,2.65-2.44,2.65S.31,7.6,.31,5.98s.98-2.55,2.46-2.55,2.44,.97,2.44,2.55Zm-.68-.01c0-1.13-.56-1.92-1.75-1.92s-1.75,.79-1.75,1.92c0,1.21,.56,2.03,1.75,2.03s1.75-.82,1.75-2.03Zm4.86,5.05h-.72V5.24h-1.63v5.41h-.71V.08h.71V4.54h1.63V.02h.72V11.02Z"/><path class="cls-1" d="M20.28,9.26H10.2v-.65h4.66v-2.52h.75v2.52h4.67v.65Zm-9.33-3.57c1.66-.6,3.87-1.93,3.87-3.49v-.85h-3.27V.7h7.35v.65h-3.27v.85c0,1.56,2.24,2.95,3.87,3.48l-.41,.58c-1.54-.55-3.18-1.65-3.86-2.93-.69,1.31-2.52,2.49-3.87,2.93l-.41-.56Z"/><path class="cls-1" d="M25.72,5.43h-4.67V.6h4.67V5.43Zm-.72-.62V1.22h-3.23v3.59h3.23Zm-2.75,4.19c0-1.57,1.87-2.18,3.54-2.18s3.54,.6,3.54,2.18-1.86,2.23-3.54,2.23-3.54-.61-3.54-2.23Zm.78,.01c0,1.16,1.48,1.61,2.75,1.61s2.78-.42,2.78-1.61-1.47-1.58-2.78-1.58-2.75,.43-2.75,1.58Zm3.47-7.42h1.98V.02h.75V6.26h-.75v-1.83h-1.98v-.65h1.98v-1.55h-1.98v-.65Z"/><path class="cls-1" d="M35.54,.88c-.04,4.23-1.94,6.37-4.57,7.81l-.48-.58c2.91-1.57,4.25-3.68,4.26-6.6h-3.96V.88h4.75ZM38.73,.02V4.23h1.93v.66h-1.93v6.13h-.75V.02h.75Z"/><path class="cls-1" d="M50.62,6.25h-10.08v-.65h10.08v.65Zm-1,4.58h-7.66v-3.24h.74v2.59h6.92v.65Zm-.24-6.85h-7.36V.17h.73V3.35h6.63v.64Z"/><path class="cls-1" d="M57.85,8.02c-.45,.02-1.95,.07-3.01,.07V.88h2.82v.64h-2.09V7.42c.84,0,1.96-.04,2.28-.06v.66Zm4-.12c-.78,.12-1.88,.14-3.4,.14V.88h2.98v.64h-2.26V7.39c1.04,0,2.16-.07,2.68-.12v.64Zm3.35-3.23h-1.93v6.34h-.73V.02h.73V4.03h1.93v.65Z"/><path class="cls-1" d="M74.85,5.43v.65h-10.08v-.65h10.08Zm-9.17,5.11c1.87-.52,3.78-1.5,3.78-2.99v-.3h.86v.3c.01,1.5,2.11,2.55,3.82,2.99l-.39,.56c-1.25-.36-3.17-1.15-3.87-2.57-.68,1.4-2.49,2.2-3.85,2.57l-.35-.56Zm3.66-6.6c-.86,.1-2.07,.11-3.49,.11V.32h3.28V.96h-2.59V3.42c.95,0,2.01-.01,2.8-.08v.61Zm.54,.11V.32h3.65V.96h-2.94V3.42h3.09v.63h-3.8Z"/><path class="cls-1" d="M78.44,1.76h2.92v.64h-6.59v-.64h2.88V.04h.79V1.76Zm2.27,4.21c0,1.52-.96,2.77-2.63,2.77s-2.67-1.16-2.67-2.77,1.05-2.75,2.67-2.75,2.63,1.06,2.63,2.75Zm-.72,0c0-1.31-.61-2.09-1.92-2.09s-1.94,.82-1.94,2.09,.68,2.11,1.94,2.11,1.92-.84,1.92-2.11ZM83.32,.02V4.74h1.92v.67h-1.92v5.61h-.73V.02h.73Z"/><path class="cls-1" d="M95.08,9.15h-10.08v-.65h3.78V4.41h.75v4.09h5.55v.65Zm-2.66-2.3c.29-1.57,.52-3.57,.52-5.35h-6.58V.85h7.37c-.05,2.33-.26,4.26-.58,6h-.73Z"/><path class="cls-1" d="M104.19,5.45h-4.8V.62h4.8V5.45Zm-.72-.64V1.26h-3.36v3.55h3.36Zm4.26,6.29c-1.31-.43-2.75-1.39-3.48-2.73-.69,1.39-2.22,2.3-3.48,2.75l-.45-.55c1.36-.38,3.53-1.7,3.53-3.2v-.54h.82v.54c0,1.45,2.05,2.75,3.49,3.2l-.44,.54Zm1.47-7.74h-1.78v3.98h-.75V.02h.75V2.7h1.78v.66Z"/><path class="cls-1" d="M112.55,.29c1.71,0,2.79,1.2,2.79,2.58s-1.01,2.58-2.79,2.58-2.79-1.19-2.79-2.58,1.06-2.58,2.79-2.58Zm6.11,10.76c-.85-.5-1.61-1.31-1.98-2.28-.41,.97-1.15,1.79-1.96,2.32-.98-.64-1.56-1.38-2-2.3-.29,.85-1.09,1.75-1.99,2.27l-.47-.5c1.22-.73,2.11-1.82,2.11-3.02v-.6h.76v.6c0,1.01,.66,2.11,1.56,2.73,.94-.61,1.6-1.73,1.6-2.73v-.6h.76v.6c0,1.33,.89,2.41,2.06,3.02l-.46,.5Zm-4.06-8.18c0-1.03-.74-1.93-2.05-1.93-1.4,0-2.06,.9-2.06,1.93s.61,1.91,2.06,1.91c1.34,0,2.05-.86,2.05-1.91ZM117.45,.02h.74V6.12h-.74V.02Z"/><path class="cls-1" d="M129.43,6.25h-10.08v-.65h10.08v.65Zm-1,4.58h-7.66v-3.24h.74v2.59h6.92v.65Zm-.24-6.85h-7.36V.17h.73V3.35h6.63v.64Z"/><path class="cls-1" d="M139.59,5.74c-1-.43-2.34-1.21-2.88-2.41-.54,1.37-1.72,2.1-2.81,2.66l-.47-.5c1.43-.73,2.91-1.69,2.91-3.53V.41h.75V1.96c0,1.8,1.48,2.65,2.83,3.21l-.33,.58Zm2.79,5.34h-.75v-3.38h-6.35v-.65h7.11v4.03Zm0-4.63h-.75V.02h.75V6.45Z"/><path class="cls-1" d="M150.36,5.68c-1.31,.13-2.91,.22-6.39,.22V.48h4.98v.62h-4.24v1.76h4.12v.6h-4.12v1.79c2.48,0,4.42-.04,5.65-.18v.61Zm1.53,5.4h-.75v-3.23h-6.21v-.66h6.96v3.89Zm1.78-7.74h-1.78v3.2h-.75V.02h.75V2.69h1.78v.66Z"/><path class="cls-1" d="M163.78,4.71v.65h-10.08v-.65h10.08Zm-8.72-2.85c0-1.13,1.35-1.86,3.66-1.86s3.65,.72,3.65,1.86c0,1.25-1.4,1.91-3.65,1.91s-3.66-.68-3.66-1.91Zm7.6,9.22h-7.54v-2.58h6.48v-1.38h-6.48v-.61h7.24v2.58h-6.45v1.39h6.75v.6Zm-6.82-9.22c0,.96,1.29,1.33,2.88,1.33s2.88-.37,2.88-1.33c0-.85-1.33-1.27-2.88-1.27s-2.88,.43-2.88,1.27Z"/><path class="cls-1" d="M172.89,5.82h-4.8V.62h4.8V5.82Zm-.72-.64V1.26h-3.37v3.92h3.37Zm4.33,5.65h-7.07v-3.63h.73v2.99h6.34v.65ZM176.12,.02V3.17h1.78v.66h-1.78V7.88h-.75V.02h.75Z"/><path class="cls-1" d="M188.01,4.65v.65h-10.08v-.65h10.08Zm-1.12,6.43h-7.54v-2.64h6.48v-1.37h-6.48v-.6h7.24v2.55h-6.47v1.45h6.78v.6Zm-7.48-7.62V.19h7.18V.84h-6.45V2.84h6.56v.62h-7.29Z"/><path class="cls-1" d="M193.58,.88c-.04,4.23-2.01,6.37-4.62,7.81l-.47-.58c2.89-1.57,4.28-3.68,4.29-6.6h-4.01V.88h4.81Zm3.17,10.15h-.73V.02h.73V11.02Z"/><path class="cls-1" d="M202.25,6.18c2.54,0,5.69-.07,7.49-.24v.59c-.94,.14-2.28,.23-3.71,.26v3.87h-.74v-3.86c-1.04,.02-2.07,.02-3.05,.02v-.65Zm6.53-3.67c0,1.43-1.22,2.25-2.86,2.25s-2.86-.82-2.86-2.25,1.29-2.29,2.86-2.29,2.86,.82,2.86,2.29Zm-2.86-1.65c-1.2,0-2.14,.68-2.14,1.64s.93,1.63,2.14,1.63c1.31,0,2.15-.66,2.15-1.63s-.89-1.64-2.15-1.64Zm5.28,10.17h-.74V.02h.74V11.02Z"/><path class="cls-1" d="M217.75,2.58h-5.55v-.64h2.39V.23h.76V1.94h2.4v.64Zm-.35,3.41c0,1.67-.95,2.65-2.44,2.65s-2.46-1.03-2.46-2.65,.98-2.55,2.46-2.55,2.44,.97,2.44,2.55Zm-.68-.01c0-1.13-.56-1.92-1.75-1.92s-1.75,.79-1.75,1.92c0,1.21,.57,2.03,1.75,2.03s1.75-.82,1.75-2.03Zm4.86,5.05h-.72V5.24h-1.64v5.41h-.71V.08h.71V4.54h1.64V.02h.72V11.02Z"/><path class="cls-1" d="M5.49,26.4v2.23h4.67v.65H.08v-.65H4.74v-2.23h.75Zm-3.94-.88v-4.93h.75v4.28h6.66v.65H1.55Z"/><path class="cls-1" d="M16.84,25.94c-1.61,.2-4.11,.23-5.85,.23v-3.24h3.52v-1.82h-3.52v-.62h4.25v3.07h-3.51v1.98c1.58,0,3.32-.01,5.11-.2v.61Zm2.27,5.15h-.76v-3.06h-6.36v-.65h7.13v3.71Zm0-4.33h-.75v-2.55h-2.11v-.62h2.11v-1.4h-2.11v-.63h2.11v-1.51h.75v6.73Z"/><path class="cls-1" d="M26.59,21.7h-6.39v-.6h2.8v-1.3h.79v1.3h2.8v.6Zm-3.2,4.38c-1.55,0-2.58-.88-2.58-1.92s1.02-1.83,2.6-1.83,2.56,.82,2.56,1.83-.98,1.92-2.59,1.92Zm-1.85-1.93c0,.71,.73,1.34,1.87,1.34s1.83-.61,1.83-1.34c0-.68-.68-1.25-1.83-1.25s-1.87,.56-1.87,1.25Zm7.19,6.81h-6.72v-4.14h.73v1.38h5.26v-1.38h.73v4.14Zm-.73-.63v-1.5h-5.26v1.5h5.26Zm2.49-6.78h-1.78v2.48h-.74v-6.01h.74v2.87h1.78v.66Z"/><path class="cls-1" d="M37.42,27.64c-1.85,.28-4.19,.26-6.02,.26v-7.29h.74v6.63c2.05,0,3.72-.05,5.28-.22v.61Zm1.87,3.38h-.75v-11h.75v11Z"/><path class="cls-1" d="M47.08,27.72c-1.81,.26-3.96,.25-6.16,.25v-7.1h5.05v.64h-4.31v5.8c1.88,0,3.79-.01,5.42-.22v.62Zm3.69-3.04h-1.93v6.34h-.75v-11h.75v4.01h1.93v.65Z"/><path class="cls-1" d="M51.36,29.17h1.07v1.08h-1.07v-1.08Z"/><path class="cls-1" d="M61.82,26.24c-1.02-.41-2.28-1.24-2.82-2.41-.54,1.38-1.67,2.1-2.78,2.67l-.41-.52c1.42-.72,2.81-1.67,2.81-3.51v-1.21h-2.31v-.64h5.38v.64h-2.31v1.2c0,1.8,1.41,2.66,2.76,3.2l-.33,.58Zm3.13,4.59h-7.13v-3.48h.74v2.83h6.39v.65Zm-.26-3.08h-.74v-4.28h-2.27v-.65h2.27v-2.79h.74v7.72Z"/><path class="cls-1" d="M72.56,24.75c-1.8,.28-4.11,.26-6.31,.26v-4.49h.73v3.84c1.49,0,3.75,0,5.58-.23v.61Zm1.54,6.21h-6.71v-4.14h6.71v4.14Zm-.74-.62v-2.89h-5.25v2.89h5.25Zm2.51-7.58h-1.78v3.39h-.75v-6.13h.75v2.08h1.78v.66Z"/><path class="cls-1" d="M84.72,21.79h-6.39v-.61h2.8v-1.35h.79v1.35h2.8v.61Zm-3.2,4.56c-1.65,0-2.58-.96-2.58-1.97s.94-1.89,2.6-1.89,2.56,.88,2.56,1.89-.91,1.97-2.59,1.97Zm-1.85-1.98c0,.7,.61,1.38,1.87,1.38s1.83-.66,1.83-1.38-.59-1.31-1.83-1.31-1.87,.62-1.87,1.31Zm7.2,6.6h-6.72v-3.72h6.72v3.72Zm-.73-.62v-2.47h-5.26v2.47h5.26Zm2.48-6.69h-1.78v3h-.74v-6.62h.74v2.97h1.78v.65Z"/><path class="cls-1" d="M88.78,25.22h1.41l-.13-3.3h.73l.11,3.29c.68-.01,1.34-.04,1.99-.06l.11-3.23h.72l-.12,3.19c.68-.05,1.32-.1,1.89-.14v.59c-1.76,.26-4.19,.3-6.71,.3v-.64Zm.27-3.98v-.63h5.71v.63h-5.71Zm1.6,7.76c0-1.57,1.87-2.18,3.55-2.18s3.53,.6,3.53,2.18-1.85,2.23-3.53,2.23-3.55-.61-3.55-2.23Zm.78,.01c0,1.16,1.49,1.61,2.76,1.61s2.76-.42,2.76-1.61-1.48-1.58-2.76-1.58-2.76,.43-2.76,1.58Zm3.54-7.21h1.92v-1.78h.74v6.5h-.74v-2.19h-1.92v-.62h1.92v-1.28h-1.92v-.62Z"/><path class="cls-1" d="M108.75,25.37h-4.51v2.95h-.76v-2.95h-4.81v-.65h7.41c.12-1.1,.27-2.34,.34-3.67h-6.33v-.63h7.15c-.09,1.33-.28,3.27-.42,4.3h1.93v.65Zm-1,5.46h-7.66v-3.67h.74v3.02h6.92v.65Z"/><path class="cls-1" d="M111.39,20.8c1.4,0,2.26,1.28,2.37,3.38h1.46v-4.1h.72v10.57h-.72v-5.77h-1.46c-.06,2.18-.89,3.54-2.37,3.54s-2.38-1.45-2.38-3.8,.87-3.81,2.38-3.81Zm-1.68,3.8c0,1.76,.57,3.15,1.68,3.15s1.67-1.38,1.67-3.15-.51-3.15-1.67-3.15-1.68,1.43-1.68,3.15Zm8.27,6.42h-.72v-11h.72v11Z"/><path class="cls-1" d="M121.52,26.18c2.54,0,5.69-.07,7.49-.24v.59c-.94,.14-2.28,.23-3.71,.26v3.87h-.74v-3.86c-1.04,.02-2.07,.02-3.05,.02v-.65Zm6.53-3.67c0,1.43-1.22,2.25-2.86,2.25s-2.86-.82-2.86-2.25,1.29-2.29,2.86-2.29,2.86,.82,2.86,2.29Zm-2.86-1.65c-1.2,0-2.14,.68-2.14,1.64s.93,1.63,2.14,1.63c1.31,0,2.15-.66,2.15-1.63s-.89-1.64-2.15-1.64Zm5.28,10.17h-.74v-11h.74v11Z"/><path class="cls-1" d="M137.85,28.44c-.92-.54-2.11-1.55-2.71-3.12-.61,1.69-1.68,2.6-2.87,3.36l-.48-.56c1.65-.94,2.96-2.39,2.96-4.4v-1.39h-2.6v-.62h2.6v-1.68h.76v1.68h2.6v.62h-2.6v1.38c0,1.92,1.26,3.38,2.74,4.11l-.41,.62Zm2.65,2.58h-.74v-11h.74v11Z"/><path class="cls-1" d="M147.95,21.91h-6.39v-.62h2.8v-1.36h.79v1.36h2.8v.62Zm-3.2,4.92c-1.55,0-2.58-1.01-2.58-2.18s1.04-2.1,2.6-2.1,2.56,.91,2.56,2.1-.96,2.18-2.59,2.18Zm-1.85-2.18c0,.85,.61,1.57,1.87,1.57s1.83-.67,1.83-1.57c0-.85-.59-1.51-1.83-1.51s-1.87,.66-1.87,1.51Zm7.54,6.19h-7.07v-3.12h.74v2.47h6.33v.65Zm-.37-10.81v3.66h1.78v.66h-1.78v3.63h-.74v-7.95h.74Z"/><path class="cls-1" d="M159.4,25.45h-4.8v-4.82h4.8v4.82Zm-.72-.64v-3.55h-3.37v3.55h3.37Zm4.26,6.29c-1.31-.43-2.75-1.39-3.48-2.73-.69,1.39-2.22,2.3-3.48,2.75l-.45-.55c1.36-.38,3.53-1.7,3.53-3.2v-.54h.82v.54c0,1.45,2.05,2.75,3.49,3.2l-.43,.54Zm1.47-7.74h-1.78v3.98h-.75v-7.32h.75v2.67h1.78v.66Z"/><path class="cls-1" d="M170.98,27.64c-1.82,.28-4.29,.26-6.09,.26v-7.29h.73v6.63c2.04,0,3.81-.05,5.36-.22v.61Zm3.69-3.24h-1.93v6.62h-.75v-11h.75v3.72h1.93v.66Z"/><path class="cls-1" d="M184.64,27.32h-4.68v3.72h-.75v-3.72h-4.65v-.65h10.08v.65Zm-9.14-2.35v-.65h1.84l-.25-2.54h.74l.24,2.54h3.07l.24-2.54h.74l-.24,2.54h1.81v.65h-8.19Zm.26-3.83v-.65h7.66v.65h-7.66Z"/><path class="cls-1" d="M194.75,29.26h-10.08v-.65h10.08v.65Zm-8.62-3.38v-5.12h7.21v.65h-6.48v3.83h6.56v.65h-7.29Z"/><path class="cls-1" d="M197.51,31.2c-1.21-1.74-1.81-3.66-1.81-5.53s.61-3.77,1.81-5.49h.48c-1.06,1.76-1.58,3.68-1.58,5.52s.53,3.74,1.58,5.5h-.48Z"/><path class="cls-1" d="M208.56,26.92h-4.68v4.1h-.75v-4.1h-4.65v-.65h10.08v.65Zm-9.26-2.55c1.58-.37,3.8-1.63,3.8-3.05v-.17h-3.24v-.66h7.28v.66h-3.24v.17c0,1.36,2.17,2.64,3.81,3.04l-.38,.59c-1.46-.37-3.07-1.39-3.82-2.58-.71,1.22-2.46,2.27-3.87,2.59l-.35-.59Z"/><path class="cls-1" d="M209.13,31.2c1.04-1.76,1.57-3.66,1.57-5.5s-.52-3.75-1.57-5.52h.47c1.2,1.73,1.81,3.62,1.81,5.49s-.61,3.79-1.81,5.53h-.47Z"/><path class="cls-1" d="M222.36,26.25h-10.08v-.65h10.08v.65Zm-1,4.58h-7.66v-3.24h.74v2.59h6.92v.65Zm-.24-6.85h-7.36v-3.81h.73v3.18h6.63v.64Z"/><path class="cls-1" d="M3.87,41.13h2.53v.62H3.87v.58c0,1.78,1.41,2.64,2.75,3.19l-.33,.59c-1.01-.41-2.27-1.25-2.81-2.41-.54,1.37-1.69,2.12-2.79,2.69l-.41-.52c1.44-.7,2.82-1.74,2.82-3.57v-.54H.56v-.62H3.11v-1.27h.76v1.27Zm-1.73,7.89c0-1.57,1.87-2.16,3.55-2.16s3.54,.58,3.54,2.16-1.87,2.21-3.54,2.21-3.55-.59-3.55-2.21Zm.78,.01c0,1.16,1.49,1.58,2.76,1.58s2.76-.4,2.76-1.58-1.48-1.56-2.76-1.56-2.76,.41-2.76,1.56Zm6.19-2.55h-.74v-2.99h-2.14v-.64h2.14v-2.83h.74v6.45Z"/><path class="cls-1" d="M16.35,45.92c-1.01-.38-2.27-1.19-2.81-2.37-.53,1.38-1.68,2.08-2.79,2.66l-.41-.52c1.41-.71,2.81-1.62,2.81-3.42v-1.03h-2.31v-.64h5.38v.64h-2.31v1.02c0,1.77,1.41,2.54,2.76,3.09l-.33,.56Zm-4.12,3.04c0-1.62,1.87-2.22,3.55-2.22s3.54,.6,3.54,2.22-1.87,2.27-3.54,2.27-3.55-.6-3.55-2.27Zm.78,.01c0,1.21,1.49,1.64,2.76,1.64s2.76-.42,2.76-1.64-1.48-1.62-2.76-1.62-2.76,.41-2.76,1.62Zm6.21-2.58h-.74v-3.11h-2.27v-.67h2.27v-2.59h.74v6.37Z"/><path class="cls-1" d="M25.78,42.58h-5.55v-.64h2.39v-1.71h.76v1.71h2.4v.64Zm-.35,3.41c0,1.67-.95,2.65-2.44,2.65s-2.46-1.03-2.46-2.65,.98-2.55,2.46-2.55,2.44,.97,2.44,2.55Zm-.68-.01c0-1.13-.56-1.92-1.75-1.92s-1.75,.79-1.75,1.92c0,1.21,.57,2.03,1.75,2.03s1.75-.82,1.75-2.03Zm4.86,5.05h-.72v-5.78h-1.64v5.41h-.71v-10.57h.71v4.46h1.64v-4.52h.72v11Z"/><path class="cls-1" d="M33.62,40.35c1.71,0,2.78,1.22,2.78,2.59s-1,2.6-2.78,2.6-2.78-1.2-2.78-2.6,1.05-2.59,2.78-2.59Zm2.05,2.59c0-1.03-.74-1.94-2.05-1.94-1.41,0-2.06,.91-2.06,1.94s.61,1.96,2.06,1.96c1.34,0,2.05-.9,2.05-1.96Zm3.71,8.14h-.74v-3.49h-6.36v-.65h7.11v4.14Zm-2.67-9.83h1.93v-1.22h.74v6.32h-.74v-1.76h-1.93v-.64h1.93v-2.06h-1.93v-.64Z"/><path class="cls-1" d="M40.75,47.79c2.53,0,5.69-.1,7.49-.26v.61c-1.78,.25-4.95,.29-7.49,.29v-.64Zm3.34-7.27c1.73,0,2.88,1.07,2.88,2.62s-1.26,2.64-2.83,2.64c-1.75,0-2.82-1.17-2.82-2.66s1.17-2.59,2.78-2.59Zm-2.02,2.62c0,1.16,.84,1.98,2.07,1.98,1.31,0,2.08-.9,2.08-1.98,0-1.16-.83-1.97-2.09-1.97s-2.06,.79-2.06,1.97Zm7.62,7.88h-.74v-11h.74v11Z"/><path class="cls-1" d="M61.23,45.17c-1-.41-2.27-1.19-2.81-2.38-.54,1.37-1.69,2.06-2.79,2.65l-.41-.52c1.41-.71,2.81-1.61,2.81-3.42v-.47h-2.29v-.62h5.38v.62h-2.32v.46c0,1.77,1.42,2.54,2.76,3.11l-.33,.56Zm2.99,5.91h-7.19v-2.71h6.17v-1.49h-6.17v-.6h6.93v2.67h-6.17v1.52h6.42v.6Zm-.24-5.41h-.74v-5.65h.74v5.65Z"/><path class="cls-1" d="M79.46,44.95h-10.08v-.65h4.66v-1.28h.76v1.28h4.66v.65Zm-1.26-1.58c-1.74-.35-3.08-.9-3.78-1.85-.64,.96-2.12,1.51-3.79,1.85l-.35-.54c1.78-.32,3.33-.86,3.73-2.06h-3.21v-.62h7.25v.62h-3.22c.41,1.23,1.99,1.73,3.74,2.06l-.36,.54Zm-3.39,3.42h3.62v.62h-8.04v-.62h3.62v-1.2h.79v1.2Zm2.96,2.81c0,1.01-1.06,1.67-3.35,1.67s-3.35-.65-3.35-1.67,1.05-1.63,3.35-1.63,3.35,.64,3.35,1.63Zm-.8,.01c0-.7-.99-1.09-2.55-1.09s-2.54,.38-2.54,1.09c0,.67,.91,1.09,2.54,1.09s2.55-.4,2.55-1.09Z"/><path class="cls-1" d="M89.57,46.5h-10.08v-.65h10.08v.65Zm-8.72-4.15c0-1.14,1.22-2.16,3.66-2.16s3.65,1.01,3.65,2.16c0,1.26-1.24,2.2-3.65,2.2s-3.66-.96-3.66-2.2Zm7.72,8.48h-7.66v-3.19h.74v2.54h6.92v.65Zm-6.94-8.48c0,.94,1.02,1.6,2.88,1.6s2.88-.66,2.88-1.6c0-.84-1.12-1.55-2.88-1.55-1.86,0-2.88,.72-2.88,1.55Z"/><path class="cls-1" d="M99.34,40.56c-.16,3.36-2.6,4.76-4.75,5.54l-.36-.56c2.18-.79,4.13-2.08,4.32-4.34h-3.79v-.64h4.59Zm3.35,10.4h-6.84v-4.14h6.84v4.14Zm-.73-.62v-2.89h-5.38v2.89h5.38Zm.73-4.17h-.74v-6.14h.74v6.14Z"/><path class="cls-1" d="M114.11,44.71v.65h-10.08v-.65h10.08Zm-8.72-2.85c0-1.13,1.35-1.86,3.66-1.86s3.65,.72,3.65,1.86c0,1.25-1.4,1.91-3.65,1.91s-3.66-.68-3.66-1.91Zm7.6,9.22h-7.54v-2.58h6.48v-1.38h-6.48v-.61h7.24v2.58h-6.45v1.39h6.75v.6Zm-6.82-9.22c0,.96,1.29,1.33,2.88,1.33s2.88-.37,2.88-1.33c0-.85-1.33-1.27-2.88-1.27s-2.88,.43-2.88,1.27Z"/><path class="cls-1" d="M118.58,45.12c2.52,0,5.54-.1,7.33-.26v.61c-.99,.14-2.39,.22-3.87,.26v1.83h-.74v-1.81c-.92,.01-1.84,.01-2.72,.01v-.65Zm3.53-4.99c1.58,0,2.68,.77,2.68,1.93s-1.08,1.93-2.68,1.93-2.65-.74-2.65-1.93,1.12-1.93,2.65-1.93Zm0,.58c-1.31,0-1.95,.56-1.95,1.36,0,.73,.67,1.33,1.96,1.33s1.98-.59,1.98-1.33c0-.8-.64-1.36-1.99-1.36Zm5.59,10.12h-7.42v-2.72h.75v2.07h6.67v.65Zm-.27-2.39h-.74v-1.1h-2.63v-.65h2.63v-6.67h.74v8.42Z"/><path class="cls-1" d="M135.82,47.04v1.9h2.82v.65h-10.08v-.65h2.83v-1.9h.73v1.9h2.96v-1.9h.73Zm-5.87-.53v-3.23h6.39v-1.95h-6.42v-.65h7.18v3.24h-6.4v1.93h6.75v.66h-7.49Z"/><path class="cls-1" d="M144.03,47.09v1.85h4.73v.65h-10.08v-.65h4.6v-1.85h.75Zm-3.96-.58v-3.23h6.39v-1.95h-6.42v-.65h7.18v3.24h-6.4v1.93h6.75v.66h-7.49Z"/><path class="cls-1" d="M156.65,41.76h2.92v.64h-6.59v-.64h2.88v-1.73h.79v1.73Zm2.27,4.21c0,1.52-.96,2.77-2.64,2.77s-2.67-1.16-2.67-2.77,1.05-2.75,2.67-2.75,2.64,1.06,2.64,2.75Zm-.72,0c0-1.31-.61-2.09-1.92-2.09s-1.94,.82-1.94,2.09,.68,2.11,1.94,2.11,1.92-.84,1.92-2.11Zm3.33-5.95v4.71h1.92v.67h-1.92v5.61h-.73v-11h.73Z"/><path class="cls-1" d="M168.97,44.59c0,2.48-1.01,3.83-2.62,3.83s-2.64-1.34-2.64-3.83,1.04-3.86,2.64-3.86,2.62,1.28,2.62,3.86Zm-.72-.01c0-1.98-.63-3.2-1.89-3.2s-1.92,1.19-1.92,3.2,.65,3.19,1.92,3.19,1.89-1.27,1.89-3.19Zm1.2-2.28h1.98v-2.28h.74v11h-.74v-4.62h-1.98v-.65h1.98v-2.78h-1.98v-.67Z"/><path class="cls-1" d="M183.05,40.56c-.17,3.36-2.6,4.76-4.75,5.54l-.37-.56c2.18-.79,4.13-2.08,4.32-4.34h-3.79v-.64h4.59Zm3.35,10.4h-6.83v-4.14h6.83v4.14Zm-.73-.62v-2.89h-5.38v2.89h5.38Zm.73-4.17h-.74v-6.14h.74v6.14Z"/><path class="cls-1" d="M202.13,46.68h-10.08v-.65h4.66v-1.52h-3.18v-4.34h.73v1.49h5.67v-1.49h.72v4.34h-3.18v1.52h4.66v.65Zm-1,4.15h-7.66v-3.04h.74v2.39h6.92v.65Zm-1.2-6.97v-1.57h-5.67v1.57h5.67Z"/><path class="cls-1" d="M208.44,45.17c-1-.41-2.27-1.19-2.81-2.38-.54,1.37-1.69,2.06-2.79,2.65l-.41-.52c1.41-.71,2.81-1.61,2.81-3.42v-.47h-2.29v-.62h5.38v.62h-2.32v.46c0,1.77,1.42,2.54,2.76,3.11l-.33,.56Zm2.99,5.91h-7.19v-2.71h6.17v-1.49h-6.17v-.6h6.93v2.67h-6.17v1.52h6.42v.6Zm-.24-5.41h-.74v-5.65h.74v5.65Z"/><path class="cls-1" d="M212.49,47.79c2.53,0,5.69-.1,7.49-.26v.61c-1.78,.25-4.95,.29-7.49,.29v-.64Zm3.34-7.27c1.73,0,2.88,1.07,2.88,2.62s-1.26,2.64-2.83,2.64c-1.75,0-2.82-1.17-2.82-2.66s1.16-2.59,2.78-2.59Zm-2.02,2.62c0,1.16,.83,1.98,2.07,1.98,1.31,0,2.08-.9,2.08-1.98,0-1.16-.83-1.97-2.09-1.97s-2.06,.79-2.06,1.97Zm7.62,7.88h-.74v-11h.74v11Z"/><path class="cls-1" d="M5.15,65.45H.35v-4.82H5.15v4.82Zm-.72-.64v-3.55H1.07v3.55h3.37Zm4.26,6.29c-1.31-.43-2.75-1.39-3.48-2.73-.69,1.39-2.22,2.3-3.48,2.75l-.45-.55c1.36-.38,3.53-1.7,3.53-3.2v-.54h.82v.54c0,1.45,2.05,2.75,3.49,3.2l-.43,.54Zm1.47-7.74h-1.78v3.98h-.75v-7.32h.75v2.67h1.78v.66Z"/><path class="cls-1" d="M10.05,67.99c.75,0,1.52,0,2.26-.01v-3.65h.74v3.62c1.59-.04,3.04-.12,4.15-.23v.6c-1.76,.28-4.64,.31-7.15,.31v-.65Zm6.05-7.14c-.11,1.92-.21,3.35-.49,5.12h-.69c.21-1.33,.34-3.05,.41-4.49h-4.69v-.63h5.47Zm2.64-.83v4.35h1.8v.66h-1.8v5.98h-.75v-11h.75Z"/><path class="cls-1" d="M31.62,61.82h-6.39v-.61h2.8v-1.36h.79v1.36h2.8v.61Zm-3.2,4.46c-1.65,0-2.58-.91-2.58-1.93s.94-1.87,2.6-1.87,2.56,.85,2.56,1.87-.91,1.93-2.59,1.93Zm-1.85-1.94c0,.7,.61,1.35,1.87,1.35s1.83-.64,1.83-1.35-.59-1.28-1.83-1.28-1.87,.6-1.87,1.28Zm.35,4.86c0-1.2,1.22-2.04,3.51-2.04s3.51,.85,3.51,2.04-1.18,2.04-3.51,2.04-3.51-.84-3.51-2.04Zm.75,0c0,.93,1.02,1.45,2.75,1.45s2.75-.55,2.75-1.45c0-.85-.99-1.45-2.75-1.45s-2.75,.59-2.75,1.45Zm7.85-4.26h-1.78v1.7h-.74v-6.62h.74v1.87h1.78v.64h-1.78v1.77h1.78v.64Z"/><path class="cls-1" d="M45.53,64.71v.65h-10.08v-.65h10.08Zm-8.72-2.85c0-1.13,1.35-1.86,3.66-1.86s3.65,.72,3.65,1.86c0,1.25-1.4,1.91-3.65,1.91s-3.66-.68-3.66-1.91Zm7.6,9.22h-7.54v-2.58h6.48v-1.38h-6.48v-.61h7.24v2.58h-6.45v1.39h6.75v.6Zm-6.82-9.22c0,.96,1.29,1.33,2.88,1.33s2.88-.37,2.88-1.33c0-.85-1.33-1.27-2.88-1.27s-2.88,.43-2.88,1.27Z"/><path class="cls-1" d="M55.58,68.21c-.96-.61-1.96-1.7-2.33-2.81-.35,1.16-1.46,2.38-2.53,3.06l-.48-.52c1.76-1.05,2.63-2.69,2.63-4.15v-2.23h-2.04v-.63h4.83v.63h-2.05v2.24c0,1.5,.84,2.96,2.37,3.85l-.41,.55Zm2.2,2.44h-.72v-6.36h-1.95v-.68h1.95v-3.53h.72v10.57Zm2.11,.37h-.72v-11h.72v11Z"/><path class="cls-1" d="M70.78,65.64h-10.08v-.65h4v-2.22h.76v2.22h5.32v.65Zm-8.75,3.41c0-1.19,1.19-2.17,3.73-2.17s3.71,.98,3.71,2.17-1.2,2.18-3.71,2.18-3.73-1-3.73-2.18Zm7.24-8.67c-.02,.88-.2,2.53-.34,3.66h-.74c.12-.82,.25-2.34,.27-3.02h-6.33v-.64h7.14Zm-3.51,7.08c-1.85,0-2.94,.7-2.94,1.58s1.09,1.62,2.94,1.62,2.93-.72,2.93-1.62-1.09-1.58-2.93-1.58Z"/><path class="cls-1" d="M74.37,61.76h2.92v.64h-6.59v-.64h2.88v-1.73h.79v1.73Zm2.27,4.21c0,1.52-.96,2.77-2.64,2.77s-2.67-1.16-2.67-2.77,1.05-2.75,2.67-2.75,2.64,1.06,2.64,2.75Zm-.72,0c0-1.31-.61-2.09-1.92-2.09s-1.94,.82-1.94,2.09,.68,2.11,1.94,2.11,1.92-.84,1.92-2.11Zm3.33-5.95v4.71h1.92v.67h-1.92v5.61h-.73v-11h.73Z"/><path class="cls-1" d="M86.47,60.88c-.04,4.23-2.01,6.37-4.62,7.81l-.47-.58c2.89-1.57,4.28-3.68,4.29-6.6h-4.01v-.64h4.81Zm3.17,10.15h-.73v-11h.73v11Z"/><path class="cls-1" d="M96.15,66.18c2.54,0,5.69-.07,7.49-.24v.59c-.94,.14-2.28,.23-3.71,.26v3.87h-.74v-3.86c-1.04,.02-2.07,.02-3.05,.02v-.65Zm6.53-3.67c0,1.43-1.22,2.25-2.86,2.25s-2.86-.82-2.86-2.25,1.29-2.29,2.86-2.29,2.86,.82,2.86,2.29Zm-2.86-1.65c-1.2,0-2.14,.68-2.14,1.64s.93,1.63,2.14,1.63c1.31,0,2.15-.66,2.15-1.63s-.89-1.64-2.15-1.64Zm5.28,10.17h-.74v-11h.74v11Z"/><path class="cls-1" d="M111.65,62.58h-5.55v-.64h2.39v-1.71h.76v1.71h2.4v.64Zm-.35,3.41c0,1.67-.95,2.65-2.44,2.65s-2.46-1.03-2.46-2.65,.98-2.55,2.46-2.55,2.44,.97,2.44,2.55Zm-.68-.01c0-1.13-.56-1.92-1.75-1.92s-1.75,.79-1.75,1.92c0,1.21,.57,2.03,1.75,2.03s1.75-.82,1.75-2.03Zm4.86,5.05h-.72v-5.78h-1.64v5.41h-.71v-10.57h.71v4.46h1.64v-4.52h.72v11Z"/><path class="cls-1" d="M121.6,68.44c.99,0,2.2-.01,3.22-.04v-2.32h.75v2.29c1.27-.04,2.61-.11,3.52-.19v.61c-1.76,.28-4.95,.3-7.49,.3v-.66Zm6.36-2.24c-1.07-.42-2.14-1.21-2.8-2.42-.52,1.16-1.75,2.12-2.88,2.59l-.42-.54c1.56-.66,2.89-1.76,2.89-3.43v-.19h-2.61v-.64h2.61v-1.68h.76v1.68h2.61v.64h-2.61v.19c0,1.51,1.35,2.77,2.81,3.25l-.37,.55Zm2.51,4.82h-.74v-11h.74v11Z"/><path class="cls-1" d="M137.59,65.82c-1.02-.4-2.28-1.22-2.82-2.4-.54,1.36-1.67,2.1-2.78,2.67l-.41-.52c1.42-.72,2.81-1.67,2.81-3.51v-.86h-2.32v-.64h5.38v.64h-2.29v.85c0,1.79,1.41,2.64,2.76,3.19l-.33,.58Zm2.87,5.27h-.74v-3.38h-6.35v-.65h7.09v4.03Zm0-4.63h-.74v-3.23h-2.27v-.65h2.27v-2.55h.74v6.43Z"/><path class="cls-1" d="M141.76,67.79c2.53,0,5.69-.1,7.49-.26v.61c-1.78,.25-4.95,.29-7.49,.29v-.64Zm3.34-7.27c1.73,0,2.88,1.07,2.88,2.62s-1.26,2.64-2.83,2.64c-1.75,0-2.82-1.17-2.82-2.66s1.17-2.59,2.78-2.59Zm-2.02,2.62c0,1.16,.84,1.98,2.07,1.98,1.31,0,2.08-.9,2.08-1.98,0-1.16-.83-1.97-2.09-1.97s-2.06,.79-2.06,1.97Zm7.62,7.88h-.74v-11h.74v11Z"/><path class="cls-1" d="M160.39,60.56v2.99c0,1.99,1.52,3.37,3,4.1l-.42,.61c-.95-.56-2.34-1.55-2.96-3.08-.56,1.51-1.8,2.57-3.05,3.36l-.48-.56c1.67-.95,3.14-2.43,3.14-4.47v-2.94h.78Zm5.2,10.46h-.75v-11h.75v11Z"/><path class="cls-1" d="M172.85,65.35c-.99-.41-2.33-1.19-2.87-2.37-.54,1.38-1.72,2.07-2.82,2.65l-.45-.49c1.42-.73,2.91-1.67,2.91-3.5v-1.34h.74v1.33c0,1.8,1.48,2.61,2.82,3.18l-.33,.55Zm3.11,5.73h-7.2v-2.75h6.15v-1.5h-6.15v-.6h6.93v2.69h-6.16v1.56h6.43v.6Zm-.25-5.47h-.75v-2.99h-2.38v-.65h2.38v-1.96h.75v5.59Z"/><path class="cls-1" d="M176.77,67.99c.75,0,1.52,0,2.26-.01v-3.65h.74v3.62c1.59-.04,3.04-.12,4.15-.23v.6c-1.76,.28-4.63,.31-7.15,.31v-.65Zm6.05-7.14c-.11,1.92-.21,3.35-.49,5.12h-.69c.21-1.33,.34-3.05,.41-4.49h-4.69v-.63h5.47Zm2.63-.83v4.35h1.8v.66h-1.8v5.98h-.75v-11h.75Z"/><path class="cls-1" d="M195.4,62.43c1.61,0,2.56,.7,2.56,1.62,0,.82-.8,1.54-2.2,1.63v.96c1.21-.06,2.33-.12,3.21-.22v.6c-1.75,.29-4.51,.32-7.01,.32v-.65c.99,0,2.05-.01,3.05-.04v-.98c-1.38-.11-2.15-.83-2.15-1.63,0-.91,.91-1.62,2.54-1.62Zm3.07-.61h-6.14v-.62h2.67v-1.21h.78v1.21h2.69v.62Zm-1.25,2.23c0-.61-.56-1.07-1.82-1.07s-1.82,.46-1.82,1.07,.62,1.09,1.82,1.09c1.26,0,1.82-.5,1.82-1.09Zm3.6,6.78h-7.19v-2.66h.74v2.01h6.45v.65Zm1.45-6.02h-1.78v3.43h-.74v-8.22h.74v4.11h1.78v.67Z"/><path class="cls-1" d="M207.47,60.56c-.11,3.44-2.49,4.95-4.68,5.78l-.39-.54c2.21-.88,4.09-2.18,4.27-4.61h-3.73v-.64h4.53Zm3.6,8.42c0,1.7-1.8,2.24-3.55,2.24s-3.54-.54-3.54-2.24,1.89-2.24,3.54-2.24,3.55,.59,3.55,2.24Zm-.79,.01c0-1.21-1.48-1.64-2.75-1.64s-2.76,.43-2.76,1.64,1.51,1.62,2.76,1.62,2.75-.41,2.75-1.62Zm.66-2.59h-.74v-1.69h-2.34v-.65h2.34v-1.68h-2.28v-.65h2.28v-1.71h.74v6.38Z"/><path class="cls-1" d="M222.36,64.71v.65h-10.08v-.65h10.08Zm-8.72-2.85c0-1.13,1.35-1.86,3.66-1.86s3.65,.72,3.65,1.86c0,1.25-1.4,1.91-3.65,1.91s-3.66-.68-3.66-1.91Zm7.6,9.22h-7.54v-2.58h6.48v-1.38h-6.48v-.61h7.24v2.58h-6.45v1.39h6.75v.6Zm-6.82-9.22c0,.96,1.29,1.33,2.88,1.33s2.88-.37,2.88-1.33c0-.85-1.33-1.27-2.88-1.27s-2.88,.43-2.88,1.27Z"/><path class="cls-1" d="M5.11,80.53c-.18,3.02-2.45,4.67-4.68,5.4l-.39-.55c2.22-.73,3.98-2.08,4.27-4.22H.58v-.62H5.11Zm3.61,10.57c-1.31-.42-2.91-1.39-3.57-2.72-.66,1.4-2.33,2.28-3.55,2.73l-.43-.56c1.33-.38,3.55-1.69,3.58-3.15H1.59v-.65h7.12v.65h-3.17c.02,1.45,2.24,2.76,3.59,3.15l-.41,.55Zm1.45-8.01h-1.78v2.82h-.75v-5.88h.75v2.41h1.78v.65Z"/><path class="cls-1" d="M20.28,87.18h-4.68v3.84h-.75v-3.84h-4.65v-.65h10.08v.65Zm-1.32-1.81c-1.73-.36-3.13-1.62-3.76-2.58-.58,.96-2.06,2.18-3.8,2.58l-.37-.58c1.86-.43,3.48-1.63,3.73-2.85h-3.29v-.65h3.33v-1.49h.76v1.49h3.34v.65h-3.31c.22,1.25,2.05,2.46,3.78,2.87l-.41,.56Z"/><path class="cls-1" d="M30.39,89.15h-10.08v-.65h3.78v-4.09h.75v4.09h5.55v.65Zm-2.66-2.3c.29-1.57,.52-3.57,.52-5.35h-6.58v-.65h7.37c-.05,2.33-.26,4.26-.58,6h-.73Z"/><path class="cls-1" d="M36.68,80.29c1.71,0,2.79,1.2,2.79,2.58s-1.01,2.58-2.79,2.58-2.79-1.19-2.79-2.58,1.06-2.58,2.79-2.58Zm6.11,10.76c-.85-.5-1.61-1.31-1.98-2.28-.41,.97-1.15,1.79-1.96,2.32-.98-.64-1.56-1.38-2-2.3-.29,.85-1.09,1.75-1.99,2.27l-.47-.5c1.22-.73,2.11-1.82,2.11-3.02v-.6h.76v.6c0,1.01,.66,2.11,1.56,2.73,.94-.61,1.6-1.73,1.6-2.73v-.6h.76v.6c0,1.33,.89,2.41,2.06,3.02l-.46,.5Zm-4.06-8.18c0-1.03-.74-1.93-2.05-1.93-1.4,0-2.06,.9-2.06,1.93s.61,1.91,2.06,1.91c1.34,0,2.05-.86,2.05-1.91Zm2.85-2.84h.74v6.09h-.74v-6.09Z"/><path class="cls-1" d="M53.56,84.82v.65h-10.08v-.65h10.08Zm-9.2-1.58c1.52-.34,3.74-1.21,3.74-2.62v-.65h.81v.65c0,1.39,2.17,2.25,3.75,2.63l-.38,.58c-1.42-.36-3.08-.97-3.78-2.22-.69,1.2-2.27,1.85-3.79,2.22l-.37-.59Zm7.78,7.72h-7.24v-4.56h.73v1.59h5.79v-1.59h.72v4.56Zm-.72-.62v-1.73h-5.79v1.73h5.79Z"/><path class="cls-1" d="M60.59,87.64c-1.85,.28-4.19,.26-6.02,.26v-7.29h.74v6.63c2.05,0,3.72-.05,5.28-.22v.61Zm1.87,3.38h-.75v-11h.75v11Z"/><path class="cls-1" d="M70.24,87.72c-1.81,.26-3.96,.25-6.16,.25v-7.1h5.05v.64h-4.31v5.8c1.88,0,3.79-.01,5.42-.22v.62Zm3.69-3.04h-1.93v6.34h-.75v-11h.75v4.01h1.93v.65Z"/><path class="cls-1" d="M74.52,89.17h1.07v1.08h-1.07v-1.08Z"/></g></g></svg>