<?xml version="1.0" encoding="UTF-8"?><svg id="_레이어_2" xmlns="http://www.w3.org/2000/svg" viewBox="0 0 364.4 138"><defs><style>.cls-1{fill:none;stroke:#f5f5f5;stroke-miterlimit:10;stroke-width:2px;}.cls-2{fill:#231815;}</style></defs><g id="_레이어_1-2"><rect class="cls-1" x="1" y="1" width="110" height="136" rx="15.22" ry="15.22"/><rect class="cls-1" x="127.2" y="1" width="110" height="136" rx="15.22" ry="15.22"/><rect class="cls-1" x="253.4" y="1" width="110" height="136" rx="15.22" ry="15.22"/><g><path class="cls-2" d="M298.12,92.89c1.52,0,2.47,1.04,2.47,2.26s-.88,2.25-2.47,2.25-2.46-1.04-2.46-2.25,.95-2.26,2.46-2.26Zm1.59,2.26c0-.82-.56-1.53-1.59-1.53s-1.58,.71-1.58,1.53,.47,1.53,1.58,1.53c1.04,0,1.59-.71,1.59-1.53Zm3.5,6.94h-6.01v-3.55h6.01v3.55Zm-.88-.7v-2.14h-4.25v2.14h4.25Zm-1.43-6.63h1.43v-2.03h.88v5.27h-.88v-2.52h-1.43v-.72Z"/><path class="cls-2" d="M309.05,93.18c-.1,3-2.14,4.27-4.1,4.98l-.45-.65c1.87-.7,3.47-1.78,3.61-3.62h-3.12v-.71h4.07Zm2.91,9.01h-.87v-2.69h-5.34v-.73h6.21v3.42Zm0-3.96h-.87v-1.28h-1.88v-.73h1.88v-1.4h-1.81v-.72h1.81v-1.37h.87v5.5Z"/><path class="cls-2" d="M318.54,94.46h-5.61v-.69h2.35v-1.14h.91v1.14h2.35v.69Zm-2.8,4.19c-1.4,0-2.3-.88-2.3-1.91s.92-1.85,2.31-1.85,2.27,.81,2.27,1.85-.84,1.91-2.28,1.91Zm-1.43-1.92c0,.67,.48,1.23,1.44,1.23s1.41-.52,1.41-1.23c0-.65-.46-1.16-1.41-1.16s-1.44,.51-1.44,1.16Zm6.39,5.27h-6.2v-2.71h.88v1.97h5.32v.74Zm-.31-9.26v3.07h1.5v.73h-1.5v3.06h-.88v-6.86h.88Z"/><path class="cls-2" d="M299.71,111.63h-3.9v1.01h2.73v3.06h-6.35v-3.06h2.69v-1.01h-3.89v-.74h8.71v.74Zm-7.86-1.67v-.72h1.43l-.16-1.54h.87l.15,1.54h2.44l.12-1.54h.92l-.18,1.54h1.42v.72h-7.01Zm.22-2.66v-.74h6.58v.74h-6.58Zm5.58,7.7v-1.65h-4.57v1.65h4.57Z"/><path class="cls-2" d="M305.29,110.8c-.79-.32-1.9-1.03-2.39-1.85-.45,.97-1.46,1.59-2.39,2.07l-.5-.57c1.2-.6,2.42-1.34,2.42-2.87v-.21h-1.94v-.7h4.76v.7h-1.93v.2c0,1.47,1.21,2.13,2.35,2.59l-.38,.64Zm2.6,5h-6.32v-2.46h5.16v-1.04h-5.16v-.68h6.07v2.41h-5.16v1.09h5.41v.68Zm-.22-4.74h-.88v-4.72h.88v4.72Z"/><path class="cls-2" d="M308.55,111c.67,0,1.32,0,1.96-.02v-2.04h.88v2.02c1.16-.03,2.21-.11,3.11-.19v.69c-1.55,.24-3.73,.27-5.95,.27v-.73Zm5.25-4.18c-.03,.94-.19,2.51-.29,3.17h-.89c.12-.67,.23-1.77,.24-2.46h-3.75v-.71h4.69Zm2.48,8.79h-6.3v-2.89h.88v2.15h5.42v.74Zm1.21-5.58h-1.5v3.09h-.88v-6.78h.88v2.97h1.5v.72Z"/><path class="cls-2" d="M323.62,113.24c-1.72,.19-3.79,.24-5.36,.24v-3.73h3.25v-2.09h-3.25v-.73h4.11v3.53h-3.25v2.27c1.75,0,2.97-.08,4.5-.2v.71Zm1.64,2.52h-.88v-9.42h.88v9.42Z"/></g><g><path d="M326.98,50.9h-2.36s0-3.3,0-3.3c0-.21-.16-.37-.37-.37h-13.33v-2.88h4.15c.44,0,.79-.35,.79-.79V26.69c0-.44-.36-.79-.79-.79h-7.27c-.06,.01-.09,.02-.12,.03-.08,.03-.12,.06-.14,.08l-5.58,5.58s-.05,.06-.07,.11c-.02,.07-.03,.1-.03,.13l-.02,.09v10.91c0,.41,.17,.8,.46,1.09,.29,.29,.68,.45,1.09,.45h6.79v2.88h-13.33c-.19,0-.35,.15-.37,.34v.11s0,0,0,0v3.22h-2.8c-.06,0-.09,.02-.12,.03-.08,.03-.12,.05-.14,.08l-4.18,4.18s-.05,.06-.07,.11c-.02,.07-.03,.1-.03,.13l-.02,.09v8.15c0,.69,.57,1.24,1.25,1.24h8.74c.38,0,.69-.31,.69-.69v-12.63c0-.38-.31-.69-.69-.69h-1.9s0-2.93,0-2.93h12.96v2.93h-2.58c-.05,0-.09,.02-.12,.03-.08,.03-.12,.06-.14,.08l-4.17,4.18s-.05,.06-.07,.11c-.02,.07-.03,.1-.03,.13l-.02,.09v8.15c0,.69,.57,1.24,1.25,1.24h8.74c.38,0,.69-.31,.69-.69v-12.63c0-.38-.31-.69-.69-.69h-2.13s0-2.93,0-2.93h12.96v2.93h-2.37s-.06,.02-.1,.03c-.08,.03-.12,.06-.14,.08l-4.17,4.18s-.05,.06-.07,.11c-.02,.07-.03,.1-.03,.13l-.02,.09v8.15c0,.69,.57,1.24,1.25,1.24h8.74c.38,0,.69-.31,.69-.69v-12.63c0-.38-.31-.69-.69-.69Zm-33.66,1.26v2.92s-2.92,0-2.92,0l2.92-2.92Zm5.76-.52v12.53s-8.69,0-8.69,0c-.28,0-.51-.23-.51-.51v-7.85s3.81,0,3.81,0c.1,0,.19-.04,.26-.11,.07-.07,.11-.16,.11-.26v-3.81s5.02,0,5.02,0Zm8.35-24.49v4.32s-4.32,0-4.32,0l4.32-4.32Zm-.19,25.01v2.92s-2.92,0-2.92,0l2.92-2.92Zm5.76-.52v12.53s-8.69,0-8.69,0c-.28,0-.51-.23-.51-.51v-7.85h3.81c.2,0,.37-.17,.37-.37v-3.81s5.02,0,5.02,0Zm-9.61-8.02c-.21,0-.41-.08-.57-.23-.15-.15-.23-.35-.23-.57v-10.61s5.21,0,5.21,0c.1,0,.19-.04,.26-.11,.07-.07,.11-.16,.11-.26v-5.21s6.96,0,6.96,0v16.99s-11.74,0-11.74,0Zm17.78,8.54v2.92h-2.92l2.92-2.92Zm-2.93,12.01c-.28,0-.51-.23-.51-.51v-7.85h3.81c.2,0,.37-.17,.37-.37v-3.81h5.02s0,12.53,0,12.53h-8.69Z"/><path d="M305.18,36.1h7.36c.26,0,.47-.21,.47-.47s-.21-.47-.47-.47h-7.36c-.26,0-.47,.21-.47,.47s.21,.47,.47,.47Z"/><path d="M305.18,38.73h7.36c.26,0,.47-.21,.47-.47s-.21-.47-.47-.47h-7.36c-.26,0-.47,.21-.47,.47s.21,.47,.47,.47Z"/><path d="M305.18,41.37h7.36c.26,0,.47-.21,.47-.47s-.21-.47-.47-.47h-7.36c-.26,0-.47,.21-.47,.47s.21,.47,.47,.47Z"/><path d="M297.51,68.89l-2.93,3.76c-.06,.07-.14,.09-.18,.09-.06,.01-.15-.02-.2-.09l-1.06-1.32c-.07-.09-.18-.14-.29-.14-.08,0-.17,.03-.23,.08-.16,.13-.19,.37-.06,.53l1.06,1.32c.19,.24,.47,.37,.77,.37,.31,0,.59-.14,.78-.38l2.93-3.76c.06-.08,.09-.18,.08-.28s-.06-.19-.14-.25c-.16-.13-.4-.1-.53,.07Z"/><path d="M297.19,72.55c-.21,0-.38,.17-.38,.38v1.86c0,.13-.11,.24-.24,.24h-4.82c-.13,0-.24-.11-.24-.24v-4.82c0-.13,.11-.24,.24-.24h3.54c.21,0,.38-.17,.38-.38s-.17-.38-.38-.38h-3.54c-.55,0-.99,.44-.99,.99v4.82c0,.55,.44,.99,.99,.99h4.82c.55,0,.99-.44,.99-.99v-1.86c0-.21-.17-.38-.38-.38Z"/><path d="M311.43,68.89l-2.93,3.76c-.04,.06-.11,.09-.18,.09-.07,.01-.15-.02-.2-.09l-1.06-1.32c-.07-.09-.18-.14-.29-.14-.08,0-.17,.03-.24,.08-.08,.06-.13,.15-.14,.25-.01,.1,.02,.2,.08,.28l1.06,1.32c.19,.24,.47,.37,.77,.37,.31,0,.59-.14,.78-.38l2.93-3.76c.06-.08,.09-.18,.08-.28-.01-.1-.06-.19-.14-.25-.16-.13-.4-.1-.53,.07Z"/><path d="M311.12,72.55c-.21,0-.38,.17-.38,.38v1.86c0,.13-.11,.24-.24,.24h-4.82c-.13,0-.24-.11-.24-.24v-4.82c0-.13,.11-.24,.24-.24h3.54c.21,0,.38-.17,.38-.38s-.17-.38-.38-.38h-3.54c-.55,0-.99,.44-.99,.99v4.82c0,.55,.44,.99,.99,.99h4.82c.55,0,.99-.44,.99-.99v-1.86c0-.21-.17-.38-.38-.38Z"/><path d="M325.36,68.89l-2.93,3.76c-.06,.07-.14,.09-.18,.09-.06,.01-.15-.02-.2-.09l-1.06-1.32c-.07-.09-.18-.14-.29-.14-.08,0-.17,.03-.23,.08-.16,.13-.19,.37-.06,.53l1.06,1.32c.19,.24,.47,.37,.77,.37,.31,0,.59-.14,.78-.38l2.93-3.76c.06-.08,.09-.18,.08-.28s-.06-.19-.14-.25c-.17-.13-.4-.1-.53,.07Z"/><path d="M325.04,72.55c-.21,0-.38,.17-.38,.38v1.86c0,.13-.11,.24-.24,.24h-4.82c-.13,0-.24-.11-.24-.24v-4.82c0-.13,.11-.24,.24-.24h3.54c.21,0,.38-.17,.38-.38s-.17-.38-.38-.38h-3.54c-.55,0-.99,.44-.99,.99v4.82c0,.55,.44,.99,.99,.99h4.82c.55,0,.99-.44,.99-.99v-1.86c0-.21-.17-.38-.38-.38Z"/></g><g><path class="cls-2" d="M31.2,92.89c1.52,0,2.47,1.04,2.47,2.26s-.88,2.25-2.47,2.25-2.46-1.04-2.46-2.25,.95-2.26,2.46-2.26Zm1.59,2.26c0-.82-.56-1.53-1.59-1.53s-1.58,.71-1.58,1.53,.47,1.53,1.58,1.53c1.04,0,1.59-.71,1.59-1.53Zm3.5,6.94h-6.01v-3.55h6.01v3.55Zm-.88-.7v-2.14h-4.25v2.14h4.25Zm-1.43-6.63h1.43v-2.03h.88v5.27h-.88v-2.52h-1.43v-.72Z"/><path class="cls-2" d="M42.73,98.04c-.84-.33-1.99-1.01-2.46-1.89-.44,1-1.49,1.62-2.43,2.1l-.5-.56c1.21-.59,2.47-1.43,2.47-2.93v-1.71h.9v1.69c0,1.46,1.27,2.17,2.41,2.63l-.39,.67Zm2.64,3.96h-6.25v-3.06h.88v2.32h5.37v.74Zm-.22-2.6h-.87v-3.96h-2.01v-.72h2.01v-1.99h.87v6.67Z"/><path class="cls-2" d="M46.36,97.78c.94,0,1.91,0,2.83-.04v-1.31h-1.97v-3.27h4.66v.71h-3.8v1.84h3.92v.72h-1.94v1.29c.95-.04,1.82-.09,2.55-.17v.69c-1.56,.23-4.08,.28-6.25,.28v-.74Zm7.91,4.22h-6.49v-2.6h.88v1.86h5.6v.74Zm-.23-2.34h-.88v-6.93h.88v6.93Z"/><path class="cls-2" d="M57.62,96.99c2.24,0,4.53-.07,6.11-.24v.7c-.81,.13-1.84,.2-2.95,.22v1.55h-.88v-1.53c-.75,.02-1.54,.02-2.28,.02v-.72Zm3.03-4.12c1.39,0,2.39,.66,2.39,1.7s-.98,1.68-2.39,1.68-2.39-.62-2.39-1.68,1.03-1.7,2.39-1.7Zm4.89,9.12h-6.48v-2.32h.88v1.58h5.6v.74Zm-4.89-8.46c-1.03,0-1.54,.41-1.54,1.03,0,.57,.53,1,1.55,1s1.54-.42,1.54-1c0-.63-.53-1.03-1.55-1.03Zm4.66,6.45h-.88v-.93h-2.22v-.75h2.22v-5.58h.88v7.26Z"/><path class="cls-2" d="M74.93,100.88h-8.71v-.74h3.91v-2.03h.9v2.03h3.9v.74Zm-3.89-6.86h2.88v.72h-2.88v.21c0,1.3,1.89,2.42,3.31,2.89l-.49,.63c-1.16-.36-2.66-1.29-3.28-2.32-.6,1.03-1.99,1.88-3.29,2.34l-.49-.65c1.37-.43,3.31-1.58,3.31-2.89v-.21h-2.88v-.72h2.88v-1.38h.93v1.38Z"/><path class="cls-2" d="M83.75,96.98v.71h-8.71v-.71h8.71Zm-.94,5.21h-6.57v-2.24h5.43v-.85h-5.43v-.69h6.35v2.2h-5.43v.9h5.65v.68Zm-6.52-5.9v-2.11h5.35v-.69h-5.35v-.71h6.21v2.07h-5.34v.74h5.56v.7h-6.44Z"/><path class="cls-2" d="M50.51,106.77v2.57c0,1.59,1.22,2.74,2.47,3.35l-.44,.68c-.8-.46-1.93-1.23-2.47-2.43-.5,1.22-1.52,1.99-2.55,2.65l-.56-.62c1.38-.79,2.64-2,2.64-3.65v-2.55h.91Zm4.22-.42v3.2h1.62v.76h-1.62v5.46h-.88v-9.42h.88Z"/><path class="cls-2" d="M64.89,111.5h-8.71v-.72h2.32v-1.23c-.77-.29-1.17-.79-1.17-1.45,0-1,1.13-1.71,3.19-1.71s3.21,.69,3.21,1.71c0,.65-.42,1.13-1.15,1.42v1.26h2.3v.72Zm-1.06,2.59c0,1.05-1.05,1.83-3.29,1.83s-3.27-.78-3.27-1.83,1.07-1.83,3.27-1.83,3.29,.77,3.29,1.83Zm-3.29-1.15c-1.47,0-2.33,.45-2.33,1.14s.86,1.14,2.33,1.14,2.33-.43,2.33-1.14-.86-1.14-2.33-1.14Zm-2.29-4.84c0,.73,1,1.05,2.27,1.05s2.28-.32,2.28-1.05c0-.66-1-1-2.28-1s-2.27,.35-2.27,1Zm2.27,1.74c-.42,0-.79-.02-1.14-.06v1h2.34v-1.02c-.36,.05-.77,.08-1.21,.08Z"/></g><g><path d="M79.86,39.27c-1.17-.47-2.14-1.15-2.93-1.76-.89-.69-1.72-1.04-2.59-1.12-1.64-.15-3.07-.77-4.38-1.91-.69-.6-1.52-.96-2.47-1.05-1.66-.17-3.14-.81-4.39-1.9-.19-.17-.41-.29-.64-.43-.18-.1-.36-.21-.53-.34-.22-.16-.5-.39-.62-.68-.55-1.23-1.79-2-3.08-1.94-.65,.03-1.24-.01-1.75-.13l-.06-.02c-1.58-.36-3.06-.71-4.61-.15-1.17,.42-2.39,.42-3.62,0-1.27-.43-2.6-.41-4.08,.04-1.1,.34-2.15,.34-3.2,0-1.4-.45-2.81-.45-4.32-.01-.54,.16-1.11,.23-1.66,.3-.25,.03-.49,.06-.74,.1h-.02s-.02,0-.02,0c-.89-.09-1.77,.24-2.39,.9-.62,.66-.9,1.54-.77,2.42,.2,1.3,.15,2.67-.15,4.19-.3,1.53-.56,3.17-.14,4.79,.53,2.07,.53,4.2,.01,6.32-.32,1.32-.32,2.67,0,4.02,.49,2.03,.5,4.08,.01,6.26-.21,.95-.38,1.98-.19,3.04l.04,.2c.35,1.96,.71,3.99,.42,6.1-.1,.74,.15,1.49,.72,2.1,.66,.71,1.64,1.11,2.57,1.04,.45-.03,1.12-.05,1.7,.13,1.87,.57,3.71,.56,5.61-.02,.27-.08,.55-.11,.84-.11s.56,.03,.82,.06c.34,.04,.68,.13,1,.21,.3,.08,.61,.16,.91,.2,2.66,.36,4.64,1.19,6.23,2.62,.27,.24,.73,.41,1.31,.49,2.15,.29,3.76,.97,5.04,2.15,.65,.6,1.48,.8,2.28,.96,.17,.03,.35,.07,.52,.1,.79,.15,1.6,.3,2.32,.65,1.02,.5,2.07,.55,2.95,.16,.83-.37,1.44-1.13,1.72-2.14,.33-1.19,.79-2.19,1.4-3.06,.54-.76,.95-1.41,1.29-2.04l.08-.14c.31-.57,.63-1.15,.74-1.75,.52-2.81,1.59-5.29,3.28-7.58,.4-.54,.67-1.14,.77-1.68,.54-2.96,1.66-5.56,3.44-7.95,.32-.43,.51-1,.66-1.5,.15-.51,.29-1.03,.43-1.54,.41-1.54,.83-3.13,1.72-4.57,.4-.64,.48-1.45,.23-2.22-.27-.83-.9-1.51-1.69-1.83Zm-33.6,30.12c-.47,0-.95-.07-1.45-.22-1.65-.49-3.1-.51-4.43-.05-1.19,.41-2.37,.22-3.38,0-1.05-.22-2.13-.3-2.96-.34-.73-.04-1.42-.38-1.84-.92-.34-.43-.47-.95-.37-1.47,.3-1.54,.06-3.06-.18-4.52-.1-.64-.21-1.3-.27-1.96-.07-.76,.04-1.54,.14-2.29,.03-.21,.06-.42,.08-.63,.04-.34,.11-.68,.17-1.01,.1-.49,.19-.96,.2-1.44,.02-.85-.06-1.73-.25-2.54-.48-2.13-.48-4.15,.01-6.2,.34-1.44,.35-2.74,.03-3.96-.55-2.08-.53-4.28,.06-6.91,.21-.95,.22-1.97,.02-3.11-.14-.8,.03-1.53,.49-2.04,.49-.55,1.26-.82,2.16-.77,.81,.04,1.66-.14,2.39-.33,1.41-.35,2.51-.35,3.55,0,1.31,.44,2.64,.44,3.96,.01,1.18-.38,2.4-.38,3.62,0,1.31,.41,2.47,.43,3.56,.06,1.65-.57,3.24-.28,4.43,.02,.71,.18,1.5,.2,2.23,.2,.66,.02,1.28,.24,1.72,.68,.42,.42,.65,1,.64,1.62,0,.03,0,.07,0,.1-.41,1.75-.08,3.5,.25,5.19l.11,.55c.22,1.15,.17,2.31-.13,3.44-.66,2.48-.31,4.92,.17,7.2,.24,1.13,.05,2.19-.16,3.08-.51,2.16-.48,4.42,.09,6.72,.34,1.35,.1,2.67-.12,3.95v.07c-.29,1.59-.5,3.02-.24,4.53,.13,.74-.03,1.37-.44,1.82-.53,.58-1.44,.84-2.65,.75-.14,.03-.31,.06-.49,.09-.54,.09-1.2,.21-1.86,.38-1.01,.27-1.93,.26-2.8,0-1.63-.51-3.16-.52-4.67-.01-.46,.15-.93,.23-1.41,.23Zm34.24-26.38c-.97,1.41-1.37,3.04-1.76,4.62-.13,.53-.27,1.08-.42,1.61-.16,.55-.35,.97-.59,1.29-1.8,2.41-2.97,5.11-3.47,8-.09,.52-.33,1.06-.65,1.48-1.78,2.36-2.92,5-3.48,8.07-.09,.47-.33,.92-.55,1.31-.41,.7-.85,1.4-1.31,2.07-.78,1.13-1.31,2.26-1.6,3.47-.17,.67-.55,1.18-1.11,1.46-.31,.16-.66,.23-1.03,.23s-.79-.08-1.18-.25c-.66-.28-1.38-.45-2.09-.62-.43-.1-.87-.21-1.3-.34-.4-.12-.78-.29-1.15-.46-.15-.07-.29-.13-.44-.2-.09-.04-.16-.1-.23-.16-1.47-1.27-3.02-1.95-4.77-2.1-.78-.06-1.5-.37-2.25-.97-.42-.34-.88-.65-1.32-.96-.2-.14-.4-.28-.6-.42l-.09-.06,.03-.49h.2c.15,.03,.29,.03,.44,.04,.33,.02,.68,.04,1.02,.09,.62,.1,1.25,.25,1.87,.42,.93,.26,1.82,.06,2.77-.15l.07-.02c.96-.21,1.91-.43,2.92-.36,1.38,.09,2.49-.84,3.11-2.62l.06-.17,.18,.05c.26,.07,.53,.14,.8,.22,.64,.17,1.31,.35,1.96,.56,.51,.16,.69,.16,.81-.16,.06-.14,.06-.26,.01-.36-.06-.13-.23-.23-.47-.3-1.02-.29-1.88-.51-2.69-.69-.38-.09-.71-.21-.82-.8-.17-.93,0-1.82,.15-2.68,.07-.38,.14-.77,.18-1.15,.04-.42,.12-.84,.19-1.2,.03-.15,.05-.29,.08-.42l.04-.21,1.32,.33c.9,.22,1.78,.43,2.66,.66,.38,.1,.75,.23,1.11,.36,.14,.05,.28,.1,.42,.15,.44,.15,.58-.02,.65-.21,.04-.1,.07-.24,0-.36-.06-.13-.2-.19-.3-.23-.73-.23-1.49-.46-2.26-.67-.23-.06-.47-.11-.7-.15-.15-.03-.3-.06-.45-.09-1.37-.3-2.93-.93-2.85-3.14,.01-.39-.06-.78-.14-1.19-.08-.39-.16-.8-.15-1.21,0-.61,.12-1.21,.23-1.85,.05-.29,.1-.58,.15-.9l.04-.29,.25,.15c.13,.08,.26,.15,.38,.22,.26,.14,.5,.28,.72,.46,1.65,1.33,3.46,2.11,5.56,2.4,.43,.06,.85,.22,1.25,.37,.14,.05,.28,.11,.43,.16,.49,.17,.63,0,.71-.19,.05-.14,.06-.26,0-.36-.07-.14-.24-.22-.36-.26-.2-.06-.4-.13-.61-.19-.56-.18-1.13-.37-1.7-.46-1.63-.28-3.04-.88-4.3-1.83-.33-.24-.68-.47-1.03-.68-.24-.15-.47-.29-.7-.45-.07-.05-.42-.29-.37-.56,.15-.91-.01-1.77-.19-2.68-.08-.39-.15-.8-.2-1.21-.05-.45-.12-.9-.2-1.36l-.14-.9,.25,.03c1.78,.19,3.25,.75,4.5,1.71,1.68,1.28,3.45,2.04,5.41,2.32,.45,.06,.88,.22,1.3,.37,.13,.05,.26,.09,.38,.14,.46,.16,.63,.11,.75-.19,.05-.14,.06-.25,.01-.35-.07-.15-.27-.24-.42-.28-.34-.1-.68-.19-1.02-.28-.46-.12-.93-.24-1.38-.39-.28-.09-.56-.18-.84-.27-.86-.26-1.75-.54-2.5-1.03-2.05-1.36-3.79-2.41-6.03-2.63l-.2-.02,.03-.2c.03-.23,.06-.46,.09-.68,.06-.48,.12-.94,.23-1.39,.34-1.33,.17-2.62-.08-4.16-.04-.27-.1-.54-.15-.81-.2-1.05-.41-2.14-.14-3.27l.14-.61,.23,.14c.07,.04,.14,.08,.2,.11,.13,.07,.26,.14,.36,.24,1.42,1.28,3.14,2.03,5.24,2.3,.6,.08,1.24,.36,1.69,.75,1.47,1.26,3.2,1.99,5.27,2.24,.42,.05,.88,.25,1.43,.59,.34,.22,.67,.45,.99,.68,.77,.55,1.57,1.12,2.5,1.45,.56,.2,1.02,.68,1.21,1.29,.19,.58,.12,1.18-.2,1.65Z"/><path d="M36.6,39l.19,.02c.68,.07,1.38,.14,2.06,.3,1.74,.41,3.37,.4,4.96-.02,.79-.21,1.58-.31,2.38-.31s1.58,.1,2.41,.29c.58,.14,1.17,.22,1.74,.3,.24,.03,.48,.07,.71,.11l.74-.1c.54-.08,1.05-.15,1.55-.22,.28-.04,.56-.08,.84-.13,.56-.09,1.12-.17,1.69-.24,.48-.06,.57-.2,.56-.47,0-.15-.05-.27-.13-.34-.12-.1-.3-.1-.43-.09l-.17,.02c-.81,.09-1.65,.19-2.45,.36-1.57,.34-2.98,.33-4.32-.02-1.83-.48-3.57-.49-5.3-.03-1.51,.4-3.1,.39-4.85-.04-.57-.14-1.18-.2-1.77-.26l-.43-.04c-.14-.02-.33-.01-.45,.09-.08,.07-.12,.17-.13,.32-.01,.28,.07,.44,.6,.49Z"/><path d="M36.63,46.11l.29,.03c.65,.07,1.31,.14,1.96,.29,1.7,.4,3.29,.4,4.84,0,.83-.22,1.65-.32,2.48-.32s1.68,.11,2.54,.33c.53,.13,1.08,.21,1.62,.28,.2,.03,.4,.05,.6,.08l.13-.03c.12,0,.25-.02,.37-.03,.26-.02,.54-.03,.8-.07,.86-.12,1.71-.26,2.57-.39l1.18-.18c.31-.05,.44-.19,.42-.48-.01-.14-.05-.25-.13-.31-.1-.08-.24-.08-.34-.08l-.49,.05c-.65,.06-1.32,.12-1.95,.27-1.7,.4-3.27,.39-4.79,0-1.67-.44-3.35-.44-5.01,0-1.54,.4-3.11,.41-4.79,.02-.6-.14-1.24-.21-1.85-.27l-.47-.05c-.16-.02-.37-.02-.49,.09-.08,.07-.12,.18-.12,.33,0,.31,.13,.41,.63,.47Z"/><path d="M36.61,53.21c.58,.06,1.15,.16,1.71,.24,.23,.04,.46,.07,.7,.11l2.36,.36c.25-.04,.51-.08,.77-.12,.59-.09,1.2-.18,1.79-.32,1.58-.38,3.05-.38,4.5,0,1.4,.36,2.64,.46,3.81,.29,1.26-.18,2.56-.37,3.85-.62,.09-.02,.29-.26,.32-.46,.02-.1,0-.19-.06-.25-.07-.07-.19-.11-.31-.1l-.38,.03c-.74,.07-1.51,.14-2.24,.3-1.66,.37-3.17,.37-4.62-.01-1.72-.45-3.47-.45-5.18,0-1.23,.32-2.51,.38-3.79,.18-.97-.16-2.12-.34-3.27-.5-.04,0-.09-.01-.14-.01-.11,0-.22,.02-.3,.09-.08,.06-.12,.17-.12,.32-.01,.32,.12,.42,.61,.47Z"/><path d="M56.44,59.89c0-.16-.03-.28-.11-.35-.12-.11-.32-.11-.47-.1l-.31,.03c-.71,.07-1.44,.15-2.13,.31-1.62,.38-3.13,.38-4.62-.02-1.72-.45-3.46-.45-5.19,0-1.46,.39-2.95,.39-4.56,.02-.71-.16-1.46-.24-2.18-.32l-.31-.03c-.19-.02-.35,.01-.44,.09-.08,.07-.12,.18-.12,.33,0,.26,.08,.41,.56,.46,.73,.07,1.5,.16,2.25,.33,1.79,.41,3.45,.4,5.08-.03,.76-.2,1.53-.3,2.31-.3s1.56,.1,2.37,.3c.57,.14,1.14,.22,1.74,.3,.26,.04,.53,.07,.79,.11l.75-.12c.61-.09,1.21-.19,1.81-.28l.54-.08c.53-.08,1.09-.17,1.64-.22,.47-.05,.59-.13,.59-.43Z"/></g><g><path class="cls-2" d="M168.2,93.94v.86c0,1.45,1.22,2.16,2.34,2.62l-.37,.68c-.79-.32-1.9-1.09-2.4-1.9-.45,.98-1.46,1.64-2.38,2.1l-.5-.56c1.21-.58,2.41-1.41,2.41-2.93v-.87h-1.93v-.7h4.76v.7h-1.93Zm4.66,8.06h-6.24v-3.02h.87v2.28h5.37v.74Zm-.22-2.6h-.88v-3.65h-1.9v-.73h1.9v-2.29h.88v6.67Z"/><path class="cls-2" d="M182.33,98.22h-8.71v-.73h3.91v-.85h-2.67v-3.76h6.19v.73h-5.32v.78h5.31v.7h-5.31v.82h5.41v.73h-2.71v.85h3.9v.73Zm-1.06,2.36c0,1.04-1.05,1.73-3.29,1.73s-3.27-.69-3.27-1.73,1.07-1.73,3.27-1.73,3.29,.67,3.29,1.73Zm-3.29-1.04c-1.47,0-2.33,.35-2.33,1.03s.86,1.04,2.33,1.04,2.33-.34,2.33-1.04-.86-1.03-2.33-1.03Z"/><path class="cls-2" d="M187.01,97.49h-4.34v-4.36h.86v1.48h2.62v-1.48h.86v4.36Zm-.86-.74v-1.42h-2.62v1.42h2.62Zm3.68,3.65c0,1.15-.92,1.91-3.07,1.91s-3.09-.75-3.09-1.91,.94-1.94,3.09-1.94,3.07,.77,3.07,1.94Zm-.9,0c0-.79-.78-1.26-2.16-1.26s-2.17,.47-2.17,1.26c0,.75,.77,1.21,2.17,1.21s2.16-.42,2.16-1.21Zm2.23-4.74h-1.5v2.58h-.87v-5.52h.87v2.21h1.5v.73Z"/><path class="cls-2" d="M196.78,97.72c-.85-.32-1.99-1-2.44-1.88-.45,.99-1.5,1.63-2.44,2.12l-.5-.57c1.21-.62,2.47-1.42,2.47-2.94v-1.45h.89v1.44c0,1.46,1.26,2.18,2.41,2.63l-.39,.65Zm2.31,4.47h-.87v-2.69h-5.32v-.73h6.19v3.42Zm.01-3.96h-.87v-5.5h.87v5.5Z"/><path class="cls-2" d="M164.63,111.31c-.8-.31-1.89-1.06-2.38-1.89-.46,.97-1.47,1.64-2.4,2.12l-.5-.57c1.2-.61,2.42-1.41,2.42-2.94v-.53h-1.94v-.71h4.76v.71h-1.93v.52c0,1.46,1.21,2.18,2.36,2.62l-.39,.67Zm2.37,4.49h-.88v-2.69h-5.33v-.73h6.21v3.42Zm0-3.98h-.88v-5.48h.88v5.48Z"/><path class="cls-2" d="M167.87,113.64c.87,0,1.74,0,2.57-.03v-1.15h.89v1.12c.93-.03,1.81-.09,2.55-.18v.73c-1.55,.22-3.82,.25-6,.25v-.74Zm5.76-5.41h-5.59v-.72h2.38v-1.27h.9v1.27h2.31v.72Zm-2.76,3.89c-1.54,0-2.33-.79-2.33-1.78s.8-1.77,2.33-1.77,2.36,.79,2.36,1.78-.77,1.77-2.36,1.77Zm1.51-1.77c0-.59-.46-1.09-1.51-1.09-.98,0-1.5,.51-1.5,1.08,0,.61,.53,1.1,1.51,1.1,1.06,0,1.5-.47,1.5-1.09Zm3.03-4.01v4.23h1.54v.74h-1.54v4.45h-.87v-9.42h.87Z"/><path class="cls-2" d="M187.97,111.31v.74h-3.97v3.71h-.88v-3.71h-3.86v-.74h8.71Zm-2.52-.69c.18-.91,.35-2.32,.35-3.11h-5.35v-.73h6.3c0,1.51-.23,2.82-.39,3.84h-.91Z"/><path class="cls-2" d="M193.35,110.16c0,2.16-.89,3.32-2.44,3.32s-2.44-1.16-2.44-3.32,.96-3.33,2.44-3.33,2.44,1.1,2.44,3.33Zm-.87-.02c0-1.61-.48-2.59-1.56-2.59s-1.57,.96-1.57,2.59,.53,2.61,1.57,2.61c1.1,0,1.56-1.03,1.56-2.61Zm3.3,5.62h-.87v-9.42h.87v9.42Z"/><path class="cls-2" d="M201.82,106.8c-.11,2.89-2.18,4.07-4.16,4.77l-.44-.63c1.81-.64,3.54-1.68,3.66-3.43h-3.16v-.71h4.1Zm2.82,8.91h-6v-3.56h6v3.56Zm-.87-.7v-2.15h-4.25v2.15h4.25Zm.87-3.39h-.87v-5.27h.87v5.27Z"/></g><g><path d="M201.63,41.68h0s-2.76-2.76-2.76-2.76h0s0,0,0,0l-5.52-5.52s0,0,0,0c0,0,0,0,0,0l-2.76-2.76s0,0,0,0,0,0,0,0l-5.52-5.52s0,0,0,0c0,0,0,0,0,0l-1.1-1.1c-.35-.35-.82-.54-1.31-.54s-.96,.19-1.31,.54l-15.45,15.45c-.72,.72-.72,1.9,0,2.62l5.3,5.3c-.75,1.01-.71,2.49,.14,3.35l1.5,1.5-2.93,2.93c-.67-.36-1.53-.26-2.09,.31l-6.14,6.14c-.33,.33-.52,.78-.52,1.25s.18,.92,.52,1.25l.91,.91c.33,.33,.78,.52,1.25,.52s.92-.18,1.25-.52l6.14-6.14c.57-.57,.67-1.42,.31-2.09l2.93-2.93,1.5,1.5c.45,.45,1.08,.68,1.73,.68,.57,0,1.15-.18,1.62-.53l5.3,5.3c.36,.36,.84,.54,1.31,.54s.95-.18,1.31-.54l15.45-15.45c.72-.72,.72-1.9,0-2.62l-1.06-1.06Zm-6.29-5.26l-17.04,17.04-2.24-2.24,17.04-17.04,2.24,2.24Zm-2.76-2.76l-17.04,17.04-2.24-2.24,17.04-17.04,2.24,2.24Zm-26.16,7.92c-.44-.44-.44-1.15,0-1.59l15.45-15.45c.21-.21,.49-.33,.8-.33s.58,.12,.8,.33l.84,.84-17.04,17.04-.84-.84Zm1.36,1.36l17.04-17.04,2.24,2.24-17.04,17.04-2.24-2.24Zm2.76,2.76l17.04-17.04,2.24,2.24-17.04,17.04-.82-.82s0,0,0,0c0,0,0,0,0,0l-1.42-1.42Zm-.56,10.45l.59,.59-1.09,1.09-.59-.59,1.09-1.09Zm.75,2.22l-6.14,6.14c-.2,.2-.46,.3-.74,.3s-.54-.11-.74-.3l-.91-.91c-.2-.2-.3-.46-.3-.74s.11-.54,.3-.74l6.14-6.14c.2-.2,.47-.3,.74-.3,.09,0,.19,.02,.28,.04l-1.25,1.25c-.07,.07-.11,.16-.11,.26s.04,.19,.11,.26l1.11,1.11c.07,.07,.16,.11,.26,.11s.19-.04,.26-.11l1.25-1.25c.1,.35,.01,.74-.26,1.02Zm.36-2.14l-.59-.59,2.87-2.87,.59,.59-2.87,2.87Zm5.4-1.37l-1.76-1.76s0,0,0,0l-.55-.55-2.31-2.31c-.59-.58-.62-1.59-.14-2.31l7.07,7.07c-.72,.48-1.73,.45-2.31-.14Zm3.11-.09s0,0,0,0c0,0,0,0,0,0l-.78-.78,17.04-17.04,2.24,2.24-17.04,17.04-1.46-1.46Zm1.98,1.98l17.04-17.04,2.24,2.24-17.04,17.04-2.24-2.24Zm20.6-11.89l-15.45,15.45c-.44,.44-1.15,.44-1.59,0l-.8-.8,17.04-17.04,.8,.8c.44,.44,.44,1.15,0,1.59Z"/><path d="M189.12,77.53s-.07,0-.11-.02c-.18-.06-.28-.25-.22-.43,.43-1.33-.62-2.67-1.74-4.09-.72-.91-1.45-1.85-1.77-2.81-.62-1.86-.49-3.82,.33-5.38-1.6,.6-2.02,1.95-2.42,3.25-.16,.51-.31,1-.53,1.44-.42,.85-1.19,1.34-2.04,1.29-.93-.04-1.77-.69-2.15-1.65-.53-1.36-.68-4.75,.47-6.7-2.57,1.3-2.93,3.21-2.95,4.62-.03,2.3-.31,6.28-1.85,7.08-.51,.27-1.08,.18-1.71-.24-.88-.6-.78-1.4-.65-2.41,.11-.87,.26-2.01-.07-3.6-.43,1.06-1.22,2.01-2.24,2.67-1.86,1.2-3.11,2.1-3.4,3.66-.01,.04-.35,1.25,0,2.9,.04,.18-.08,.37-.26,.4-.18,.04-.37-.08-.4-.26-.38-1.83,0-3.15,0-3.2,.33-1.79,1.74-2.82,3.7-4.08,1.21-.78,2.05-2.02,2.24-3.32,.02-.16,.18-.31,.34-.32,.16,0,.35,.12,.4,.27,.71,2.31,.51,3.91,.37,4.97-.13,1.04-.15,1.42,.35,1.76,.6,.41,.91,.25,1.01,.2,.87-.45,1.43-2.94,1.48-6.49,.04-2.91,1.65-4.83,4.92-5.86,.17-.06,.37,.04,.44,.21,.06,.16-.02,.36-.17,.44-1.99,.94-2,5.48-1.39,7.05,.28,.71,.89,1.19,1.55,1.22,.57,.01,1.1-.31,1.4-.92,.19-.39,.34-.85,.49-1.33,.47-1.52,1.05-3.4,3.66-3.92,.14-.03,.32,.05,.39,.17,.08,.12,.07,.31,0,.43-1.06,1.47-1.3,3.51-.66,5.44,.28,.85,.98,1.74,1.66,2.6,1.18,1.5,2.39,3.04,1.85,4.72-.05,.14-.18,.24-.32,.24Z"/></g></g></svg>