<?xml version="1.0" encoding="UTF-8"?><svg id="_레이어_2" xmlns="http://www.w3.org/2000/svg" viewBox="0 0 346.26 11.57"><defs><style>.cls-1{fill:#595757;}</style></defs><g id="_레이어_1-2"><g><path class="cls-1" d="M10.36,9.46H0v-.76H3.82V4.58h.91v4.12h5.63v.76Zm-2.85-2.31c.31-1.6,.52-3.65,.52-5.43H1.37V.96h7.65c-.07,2.41-.29,4.38-.6,6.19h-.89Z"/><path class="cls-1" d="M20.71,6.32h-4.74v1.34h3.29v3.63h-7.48v-3.63h3.26v-1.34h-4.69v-.75h10.36v.75Zm-9.36-1.82v-.76h1.74l-.19-1.98h.89l.19,1.98h3.09l.17-1.98h.92l-.2,1.98h1.72v.76H11.35Zm.28-3.33V.4h7.79v.77h-7.79Zm6.75,9.4v-2.17h-5.72v2.17h5.72Z"/><path class="cls-1" d="M27.17,5.43c-1.01-.41-2.36-1.22-2.86-2.34-.51,1.3-1.72,2.03-2.86,2.61l-.52-.6c1.45-.72,2.89-1.62,2.89-3.48v-.38h-2.34V.5h5.59v.74h-2.33v.37c0,1.8,1.47,2.59,2.82,3.13l-.4,.68Zm3.07,5.98h-7.45v-2.83h6.25v-1.43h-6.25v-.71h7.18v2.83h-6.25v1.43h6.52v.71Zm-.25-5.6h-.88V.11h.88V5.82Z"/><path class="cls-1" d="M40.43,2.09h-6.62v-.72h2.85V0h.94V1.37h2.83v.72Zm-3.31,5.05c-1.64,0-2.69-1.03-2.69-2.23s1.07-2.17,2.71-2.17,2.67,.94,2.67,2.17-.99,2.23-2.68,2.23Zm-1.8-2.24c0,.84,.6,1.54,1.81,1.54s1.79-.65,1.79-1.54c0-.84-.58-1.48-1.79-1.48s-1.81,.64-1.81,1.48Zm7.72,6.28h-7.33v-3.26h.91v2.51h6.42v.75ZM42.66,.11V3.81h1.81v.77h-1.81v3.69h-.88V.11h.88Z"/><path class="cls-1" d="M54.7,5.28h-4.74v2.04h3.29v4.1h-.89v-3.35h-6.73v-.76h3.4v-2.04h-4.69v-.76h7.56c.12-.76,.34-2.48,.35-3.31h-6.48V.44h7.46c-.04,1.02-.26,3.12-.41,4.08h1.88v.76Z"/><path class="cls-1" d="M60.74,6.38c-1.02-.41-2.43-1.28-2.94-2.4-.51,1.29-1.76,2.1-2.91,2.69l-.52-.6c1.45-.73,2.95-1.7,2.95-3.56V.49h.93V2.5c0,1.8,1.52,2.65,2.87,3.2l-.39,.68Zm3,4.8h-7.33v-3.63h.91v2.88h6.42v.75ZM63.35,.11V3.2h1.81v.77h-1.81v4.14h-.88V.11h.88Z"/><path class="cls-1" d="M68.22,5.27c2.27,.01,5.53-.07,7.46-.26v.71c-.98,.14-2.35,.23-3.8,.28v1.8h-.89v-1.79c-.94,.02-1.88,.02-2.76,.02v-.76Zm3.49-4.98c1.64,0,2.78,.79,2.78,2s-1.12,2.02-2.78,2.02-2.79-.77-2.79-2.02,1.19-2,2.79-2Zm0,.68c-1.29,0-1.92,.55-1.92,1.32s.65,1.31,1.93,1.31,1.92-.56,1.92-1.31-.62-1.32-1.93-1.32Zm5.92,10.21h-7.68v-2.81h.89v2.05h6.79v.75Zm-.29-2.48h-.88v-1.16h-2.69v-.77h2.69V.11h.88V8.7Z"/><path class="cls-1" d="M88.69,9.78h-10.36v-.77h4.71v-2.62h.92v2.62h4.74v.77Zm-4.73-8.12h3.39v.77h-3.38v.31c0,1.61,2.29,2.95,3.98,3.53l-.51,.65c-1.41-.44-3.26-1.62-3.94-2.9-.66,1.28-2.37,2.34-3.94,2.91l-.51-.67c1.66-.52,3.96-1.91,3.96-3.51v-.31h-3.35v-.77h3.36V0h.93V1.66Z"/><path class="cls-1" d="M88.51,8.44c.92,.01,1.96,0,3.01-.02v-1.92h.91v1.88c1.24-.04,2.44-.11,3.37-.2v.74c-1.8,.28-4.67,.31-7.28,.31v-.79Zm3.49-2.49c-1.73,0-3.04-1.1-3.04-2.71s1.33-2.72,2.98-2.72c1.82,0,2.98,1.25,2.98,2.76s-1.12,2.67-2.92,2.67Zm2.01-2.7c0-1.16-.78-1.94-2.07-1.94s-2.07,.88-2.07,1.94c0,1.15,.79,1.94,2.09,1.94s2.05-.78,2.05-1.94ZM97.45,.11V4.63h1.86v.77h-1.86v5.96h-.88V.11h.88Z"/><path class="cls-1" d="M102.28,8.59c.94,.01,2.15,0,3.22-.04v-2.24h.91v2.22c1.21-.04,2.6-.12,3.52-.21v.74c-1.8,.28-5.05,.31-7.65,.31v-.78Zm6.61-2.21c-1.07-.47-2.26-1.25-2.88-2.42-.52,1.14-1.79,2.09-2.96,2.54l-.49-.64c1.59-.67,2.96-1.66,2.96-3.36v-.16h-2.64v-.74h2.64V0h.93V1.61h2.63v.74h-2.63v.16c0,1.63,1.34,2.65,2.85,3.15l-.4,.72Zm2.51,4.98h-.88V.11h.88V11.36Z"/><path class="cls-1" d="M122.67,9.46h-10.36v-.76h3.82V4.58h.91v4.12h5.63v.76Zm-2.85-2.31c.31-1.6,.52-3.65,.52-5.43h-6.67V.96h7.65c-.07,2.41-.29,4.38-.6,6.19h-.89Z"/><path class="cls-1" d="M133.02,5.22h-10.36v-.76h7.52c.15-1,.37-2.57,.39-3.27h-6.47V.42h7.45c-.01,.79-.27,2.91-.44,4.04h1.92v.76Zm-1.45,6.08h-7.48V6.34h.88v1.63h5.72v-1.63h.88v4.95Zm-.88-.73v-1.86h-5.72v1.86h5.72Z"/><path class="cls-1" d="M137.33,2.38c0-1.18,1.25-2.17,3.78-2.17s3.78,.98,3.78,2.17-1.14,2.08-3.31,2.18v1.31h4.73v.76h-10.36v-.76h4.72v-1.31c-2.21-.1-3.33-1-3.33-2.18Zm7.53,9.04h-.89v-2.91h-6.73v-.77h7.62v3.68Zm-6.6-9.04c0,.91,1.18,1.47,2.85,1.47s2.85-.56,2.85-1.47c0-.84-1.2-1.44-2.85-1.44s-2.85,.61-2.85,1.44Z"/><path class="cls-1" d="M151.01,8.37h-4.28V.85h.88V3.73h2.53V.85h.87v7.52Zm-.87-.75v-3.13h-2.53v3.13h2.53Zm5.58,3.74h-.87V5.09h-1.62v5.91h-.87V.17h.87V4.26h1.62V.11h.87V11.36Z"/><path class="cls-1" d="M167.01,7.39h-2.76v3.97h-.89v-3.97h-3.08v3.85h-.91v-3.85h-2.72v-.77h10.36v.77Zm-1.36-4.65c0,1.54-1.32,2.46-3.82,2.46s-3.82-.92-3.82-2.46,1.34-2.45,3.82-2.45,3.82,.95,3.82,2.45Zm-3.82,1.74c1.72,0,2.92-.61,2.92-1.75,0-1.08-1.18-1.71-2.92-1.71s-2.93,.62-2.93,1.73,1.18,1.74,2.93,1.74Z"/><path class="cls-1" d="M177.36,5.29v.76h-10.36v-.76h10.36Zm-1.14,6.13h-7.79v-2.55h6.54v-1.12h-6.54v-.71h7.48v2.49h-6.52v1.18h6.82v.71Zm-7.73-7.09V1.91h6.41V.91h-6.41V.19h7.31V2.6h-6.4v1.01h6.69v.72h-7.6Z"/><path class="cls-1" d="M186.41,4.65c0,2.58-1.01,3.96-2.83,3.96s-2.83-1.38-2.83-3.96,1.09-3.95,2.83-3.95,2.83,1.32,2.83,3.95Zm-.89-.01c0-1.97-.58-3.18-1.93-3.18s-1.95,1.19-1.95,3.18,.62,3.2,1.95,3.2,1.93-1.27,1.93-3.2Zm3.86,6.72h-.89V.11h.89V11.36Z"/><path class="cls-1" d="M200.99,6.22h-10.36v-.74h2.8v-1.59c-.93-.35-1.41-.94-1.41-1.7,0-1.18,1.33-2,3.78-2s3.78,.82,3.78,2c0,.77-.48,1.33-1.38,1.68v1.62h2.8v.74Zm-1.29,3.19c0,1.22-1.25,2.16-3.89,2.16s-3.87-.94-3.87-2.16,1.26-2.15,3.87-2.15,3.89,.9,3.89,2.15Zm-3.89-1.44c-1.82,0-2.91,.58-2.91,1.43s1.08,1.44,2.91,1.44,2.92-.55,2.92-1.44-1.09-1.43-2.92-1.43Zm-2.86-5.79c0,.92,1.26,1.32,2.85,1.32s2.85-.4,2.85-1.32c0-.83-1.26-1.27-2.85-1.27s-2.85,.46-2.85,1.27Zm2.85,2.05c-.55,0-1.05-.05-1.47-.12v1.37h2.99v-1.38c-.45,.08-.96,.13-1.52,.13Z"/><path class="cls-1" d="M207.42,2.09h-6.62v-.72h2.85V0h.94V1.37h2.83v.72Zm-3.31,5.05c-1.64,0-2.69-1.03-2.69-2.23s1.07-2.17,2.71-2.17,2.67,.94,2.67,2.17-.99,2.23-2.68,2.23Zm-1.8-2.24c0,.84,.6,1.54,1.81,1.54s1.79-.65,1.79-1.54c0-.84-.58-1.48-1.79-1.48s-1.81,.64-1.81,1.48Zm7.72,6.28h-7.33v-3.26h.91v2.51h6.42v.75Zm-.39-11.07V3.81h1.81v.77h-1.81v3.69h-.88V.11h.88Z"/><path class="cls-1" d="M220.21,8.3h-5.18V.9h.88V3.71h3.41V.9h.88v7.4Zm-.88-.75v-3.07h-3.41v3.07h3.41ZM222.61,.11h.89V11.36h-.89V.11Z"/><path class="cls-1" d="M234.98,9.43h-10.36v-.76h10.36v.76Zm-1.25-2.81c-1.41-.43-3.26-1.67-3.94-2.95-.66,1.28-2.36,2.4-3.94,2.96l-.51-.67c1.66-.5,3.95-1.97,3.95-3.56v-.77h-3.29V.88h7.59v.75h-3.31v.77c0,1.6,2.27,3,3.95,3.57l-.51,.65Z"/><path class="cls-1" d="M242.2,7.93c-1.88,.26-4.38,.26-6.22,.26V.83h.91V7.4c2.05,0,3.72-.05,5.32-.24v.77Zm1.89,3.43h-.89V.11h.89V11.36Z"/><path class="cls-1" d="M255.68,9.58h-10.36v-.75h10.36v.75Zm-4.71-7.59c0,1.86,2.43,3.47,4,3.96l-.55,.68c-1.38-.49-3.31-1.79-3.91-3.2-.67,1.42-2.31,2.61-3.89,3.2l-.55-.68c1.59-.5,3.93-2.1,3.93-3.96V.62h.98V1.99Z"/><path class="cls-1" d="M262.24,.62V3.68c-.01,1.93,1.47,3.31,2.95,4.04l-.45,.72c-.96-.55-2.35-1.52-2.98-3.07-.56,1.58-1.8,2.55-3.05,3.33l-.58-.65c1.67-.95,3.15-2.4,3.15-4.43V.62h.94Zm5.09-.52V3.98h1.95v.79h-1.95v6.58h-.88V.11h.88Z"/><path class="cls-1" d="M275.08,4.65c0,2.58-1.01,3.96-2.83,3.96s-2.83-1.38-2.83-3.96,1.09-3.95,2.83-3.95,2.83,1.32,2.83,3.95Zm-.89-.01c0-1.97-.58-3.18-1.93-3.18s-1.95,1.19-1.95,3.18,.62,3.2,1.95,3.2,1.93-1.27,1.93-3.2Zm3.86,6.72h-.89V.11h.89V11.36Z"/><path class="cls-1" d="M289.66,9.43h-10.36v-.76h10.36v.76Zm-1.25-2.81c-1.41-.43-3.26-1.67-3.94-2.95-.66,1.28-2.37,2.4-3.94,2.96l-.51-.67c1.66-.5,3.95-1.97,3.95-3.56v-.77h-3.29V.88h7.59v.75h-3.31v.77c0,1.6,2.27,3,3.95,3.57l-.51,.65Z"/><path class="cls-1" d="M297.76,8.49c-1.08-.66-2.04-1.88-2.4-2.88-.27,1.28-1.46,2.49-2.58,3.13l-.54-.64c1.8-1.05,2.66-2.67,2.66-4.16V1.78h-2.06v-.76h5.05v.76h-2.06V3.95c0,1.57,.88,3,2.42,3.89l-.49,.66Zm2.26,2.51h-.88V4.58h-1.98v-.79h1.98V.17h.88V11Zm2.15,.36h-.88V.11h.88V11.36Z"/><path class="cls-1" d="M313.3,6.32h-4.74v1.34h3.29v3.63h-7.48v-3.63h3.26v-1.34h-4.69v-.75h10.36v.75Zm-9.36-1.82v-.76h1.74l-.19-1.98h.89l.19,1.98h3.09l.17-1.98h.92l-.2,1.98h1.72v.76h-8.33Zm.28-3.33V.4h7.79v.77h-7.79Zm6.75,9.4v-2.17h-5.72v2.17h5.72Z"/><path class="cls-1" d="M316.64,.34c1.72,0,2.89,1.18,2.89,2.59s-1.15,2.54-2.89,2.54-2.89-1.09-2.89-2.54,1.19-2.59,2.89-2.59Zm2,2.59c0-1.01-.78-1.85-2-1.85-1.29,0-2,.84-2,1.85s.71,1.85,2,1.85c1.22,0,2-.8,2-1.85Zm3.87,8.37h-7.09V6.45h.89v1.65h5.31v-1.65h.89v4.85Zm-.89-.73v-1.73h-5.31v1.73h5.31Zm.89-4.72h-.89V.11h.89V5.84Z"/><path class="cls-1" d="M330.87,7.93c-1.88,.26-4.38,.26-6.22,.26V.83h.91V7.4c2.05,0,3.72-.05,5.32-.24v.77Zm1.89,3.43h-.89V.11h.89V11.36Z"/><path class="cls-1" d="M340.75,8.01c-1.98,.29-4.42,.26-6.4,.26V.96h5.27v.74h-4.37V7.48c1.46,0,3.65,.01,5.49-.24v.77Zm3.75-3.27h-1.96v6.62h-.89V.11h.89V3.95h1.96v.79Z"/><path class="cls-1" d="M345,9.29h1.26v1.22h-1.26v-1.22Z"/></g></g></svg>