<?xml version="1.0" encoding="UTF-8"?><svg id="_레이어_2" xmlns="http://www.w3.org/2000/svg" viewBox="0 0 364.4 138"><defs><style>.cls-1{fill:none;stroke:#f5f5f5;stroke-miterlimit:10;stroke-width:2px;}.cls-2{fill:#231815;}</style></defs><g id="_레이어_1-2"><rect class="cls-1" x="1" y="1" width="110" height="136" rx="15.22" ry="15.22"/><rect class="cls-1" x="127.2" y="1" width="110" height="136" rx="15.22" ry="15.22"/><rect class="cls-1" x="253.4" y="1" width="110" height="136" rx="15.22" ry="15.22"/><g><path class="cls-2" d="M298.12,92.89c1.52,0,2.47,1.04,2.47,2.26s-.88,2.25-2.47,2.25-2.46-1.04-2.46-2.25,.95-2.26,2.46-2.26Zm1.59,2.26c0-.82-.56-1.53-1.59-1.53-1.08,0-1.58,.71-1.58,1.53s.47,1.53,1.58,1.53c1.04,0,1.59-.71,1.59-1.53Zm3.5,6.94h-6.02v-3.55h6.02v3.55Zm-.88-.7v-2.14h-4.25v2.14h4.25Zm-1.43-6.63h1.43v-2.03h.88v5.27h-.88v-2.52h-1.43v-.72Z"/><path class="cls-2" d="M309.05,93.18c-.1,3-2.14,4.27-4.11,4.98l-.45-.65c1.87-.7,3.47-1.78,3.61-3.62h-3.12v-.71h4.07Zm2.91,9.01h-.87v-2.69h-5.34v-.73h6.21v3.42Zm0-3.96h-.87v-1.28h-1.88v-.73h1.88v-1.4h-1.81v-.72h1.81v-1.37h.87v5.5Z"/><path class="cls-2" d="M318.54,94.46h-5.61v-.69h2.35v-1.14h.91v1.14h2.35v.69Zm-2.8,4.19c-1.4,0-2.3-.88-2.3-1.91s.92-1.85,2.31-1.85,2.27,.81,2.27,1.85-.84,1.91-2.28,1.91Zm-1.43-1.92c0,.67,.48,1.23,1.44,1.23s1.41-.52,1.41-1.23c0-.65-.46-1.16-1.41-1.16s-1.44,.51-1.44,1.16Zm6.39,5.27h-6.2v-2.71h.88v1.97h5.32v.74Zm-.31-9.26v3.07h1.5v.73h-1.5v3.06h-.88v-6.86h.88Z"/><path class="cls-2" d="M299.71,111.63h-3.9v1.01h2.73v3.06h-6.35v-3.06h2.69v-1.01h-3.89v-.74h8.71v.74Zm-7.86-1.67v-.72h1.43l-.16-1.54h.87l.15,1.54h2.44l.12-1.54h.92l-.18,1.54h1.42v.72h-7.01Zm.21-2.66v-.74h6.58v.74h-6.58Zm5.58,7.7v-1.65h-4.57v1.65h4.57Z"/><path class="cls-2" d="M305.29,110.8c-.79-.32-1.9-1.03-2.39-1.85-.45,.97-1.46,1.59-2.39,2.07l-.5-.57c1.2-.6,2.42-1.34,2.42-2.87v-.21h-1.94v-.7h4.76v.7h-1.93v.2c0,1.47,1.21,2.13,2.35,2.59l-.38,.64Zm2.6,5h-6.32v-2.46h5.16v-1.04h-5.16v-.68h6.07v2.41h-5.16v1.09h5.41v.68Zm-.21-4.74h-.88v-4.72h.88v4.72Z"/><path class="cls-2" d="M308.55,111c.67,0,1.32,0,1.96-.02v-2.04h.88v2.02c1.16-.03,2.21-.11,3.11-.19v.69c-1.55,.24-3.73,.27-5.95,.27v-.73Zm5.25-4.18c-.03,.94-.19,2.51-.29,3.17h-.89c.12-.67,.23-1.77,.25-2.46h-3.75v-.71h4.69Zm2.48,8.79h-6.3v-2.89h.88v2.15h5.42v.74Zm1.21-5.58h-1.5v3.09h-.88v-6.78h.88v2.97h1.5v.72Z"/><path class="cls-2" d="M323.62,113.24c-1.72,.19-3.79,.24-5.36,.24v-3.73h3.25v-2.09h-3.25v-.73h4.11v3.53h-3.25v2.27c1.75,0,2.97-.08,4.5-.2v.71Zm1.64,2.52h-.88v-9.42h.88v9.42Z"/></g><g><path d="M326.98,50.9h-2.36s0-3.3,0-3.3c0-.21-.16-.37-.37-.37h-13.33v-2.88h4.15c.44,0,.79-.35,.79-.79V26.69c0-.44-.36-.79-.79-.79h-7.27c-.06,.01-.09,.02-.12,.03-.08,.03-.12,.06-.14,.08l-5.58,5.58s-.05,.06-.07,.11c-.02,.07-.03,.1-.03,.13l-.02,.09v10.91c0,.41,.17,.8,.46,1.09,.29,.29,.68,.45,1.09,.45h6.79v2.88h-13.33c-.19,0-.35,.15-.37,.34v.11s0,0,0,0v3.22h-2.8c-.06,0-.09,.02-.12,.03-.08,.03-.12,.05-.14,.08l-4.18,4.18s-.05,.06-.07,.11c-.02,.07-.03,.1-.03,.13l-.02,.09v8.15c0,.69,.57,1.24,1.25,1.24h8.74c.38,0,.69-.31,.69-.69v-12.63c0-.38-.31-.69-.69-.69h-1.9s0-2.93,0-2.93h12.96v2.93h-2.58c-.05,0-.09,.02-.12,.03-.08,.03-.12,.06-.14,.08l-4.17,4.18s-.05,.06-.07,.11c-.02,.07-.03,.1-.03,.13l-.02,.09v8.15c0,.69,.57,1.24,1.25,1.24h8.74c.38,0,.69-.31,.69-.69v-12.63c0-.38-.31-.69-.69-.69h-2.13s0-2.93,0-2.93h12.96v2.93h-2.37s-.06,.02-.1,.03c-.08,.03-.12,.06-.14,.08l-4.17,4.18s-.05,.06-.07,.11c-.02,.07-.03,.1-.03,.13l-.02,.09v8.15c0,.69,.57,1.24,1.25,1.24h8.74c.38,0,.69-.31,.69-.69v-12.63c0-.38-.31-.69-.69-.69Zm-33.66,1.26v2.92s-2.92,0-2.92,0l2.92-2.92Zm5.76-.52v12.53s-8.69,0-8.69,0c-.28,0-.51-.23-.51-.51v-7.85s3.81,0,3.81,0c.1,0,.19-.04,.26-.11,.07-.07,.11-.16,.11-.26v-3.81s5.02,0,5.02,0Zm8.35-24.49v4.32s-4.32,0-4.32,0l4.32-4.32Zm-.19,25.01v2.92s-2.92,0-2.92,0l2.92-2.92Zm5.76-.52v12.53s-8.69,0-8.69,0c-.28,0-.51-.23-.51-.51v-7.85h3.81c.2,0,.37-.17,.37-.37v-3.81s5.02,0,5.02,0Zm-9.61-8.02c-.21,0-.41-.08-.57-.23-.15-.15-.23-.35-.23-.57v-10.61s5.21,0,5.21,0c.1,0,.19-.04,.26-.11,.07-.07,.11-.16,.11-.26v-5.21s6.96,0,6.96,0v16.99s-11.74,0-11.74,0Zm17.78,8.54v2.92h-2.92l2.92-2.92Zm-2.93,12.01c-.28,0-.51-.23-.51-.51v-7.85h3.81c.2,0,.37-.17,.37-.37v-3.81h5.02s0,12.53,0,12.53h-8.69Z"/><path d="M305.18,36.1h7.36c.26,0,.47-.21,.47-.47s-.21-.47-.47-.47h-7.36c-.26,0-.47,.21-.47,.47s.21,.47,.47,.47Z"/><path d="M305.18,38.73h7.36c.26,0,.47-.21,.47-.47s-.21-.47-.47-.47h-7.36c-.26,0-.47,.21-.47,.47s.21,.47,.47,.47Z"/><path d="M305.18,41.37h7.36c.26,0,.47-.21,.47-.47s-.21-.47-.47-.47h-7.36c-.26,0-.47,.21-.47,.47s.21,.47,.47,.47Z"/><path d="M297.51,68.89l-2.93,3.76c-.06,.07-.14,.09-.18,.09-.06,.01-.15-.02-.2-.09l-1.06-1.32c-.07-.09-.18-.14-.29-.14-.08,0-.17,.03-.23,.08-.16,.13-.19,.37-.06,.53l1.06,1.32c.19,.24,.47,.37,.77,.37,.31,0,.59-.14,.78-.38l2.93-3.76c.06-.08,.09-.18,.08-.28s-.06-.19-.14-.25c-.16-.13-.4-.1-.53,.07Z"/><path d="M297.19,72.55c-.21,0-.38,.17-.38,.38v1.86c0,.13-.11,.24-.24,.24h-4.82c-.13,0-.24-.11-.24-.24v-4.82c0-.13,.11-.24,.24-.24h3.54c.21,0,.38-.17,.38-.38s-.17-.38-.38-.38h-3.54c-.55,0-.99,.44-.99,.99v4.82c0,.55,.44,.99,.99,.99h4.82c.55,0,.99-.44,.99-.99v-1.86c0-.21-.17-.38-.38-.38Z"/><path d="M311.43,68.89l-2.93,3.76c-.04,.06-.11,.09-.18,.09-.07,.01-.15-.02-.2-.09l-1.06-1.32c-.07-.09-.18-.14-.29-.14-.08,0-.17,.03-.24,.08-.08,.06-.13,.15-.14,.25-.01,.1,.02,.2,.08,.28l1.06,1.32c.19,.24,.47,.37,.77,.37,.31,0,.59-.14,.78-.38l2.93-3.76c.06-.08,.09-.18,.08-.28-.01-.1-.06-.19-.14-.25-.16-.13-.4-.1-.53,.07Z"/><path d="M311.12,72.55c-.21,0-.38,.17-.38,.38v1.86c0,.13-.11,.24-.24,.24h-4.82c-.13,0-.24-.11-.24-.24v-4.82c0-.13,.11-.24,.24-.24h3.54c.21,0,.38-.17,.38-.38s-.17-.38-.38-.38h-3.54c-.55,0-.99,.44-.99,.99v4.82c0,.55,.44,.99,.99,.99h4.82c.55,0,.99-.44,.99-.99v-1.86c0-.21-.17-.38-.38-.38Z"/><path d="M325.36,68.89l-2.93,3.76c-.06,.07-.14,.09-.18,.09-.06,.01-.15-.02-.2-.09l-1.06-1.32c-.07-.09-.18-.14-.29-.14-.08,0-.17,.03-.23,.08-.16,.13-.19,.37-.06,.53l1.06,1.32c.19,.24,.47,.37,.77,.37,.31,0,.59-.14,.78-.38l2.93-3.76c.06-.08,.09-.18,.08-.28s-.06-.19-.14-.25c-.17-.13-.4-.1-.53,.07Z"/><path d="M325.04,72.55c-.21,0-.38,.17-.38,.38v1.86c0,.13-.11,.24-.24,.24h-4.82c-.13,0-.24-.11-.24-.24v-4.82c0-.13,.11-.24,.24-.24h3.54c.21,0,.38-.17,.38-.38s-.17-.38-.38-.38h-3.54c-.55,0-.99,.44-.99,.99v4.82c0,.55,.44,.99,.99,.99h4.82c.55,0,.99-.44,.99-.99v-1.86c0-.21-.17-.38-.38-.38Z"/></g><g><path class="cls-2" d="M30.86,94.65c0-1.01,1.06-1.86,3.19-1.86s3.21,.84,3.21,1.86-.95,1.75-2.74,1.86v.98h3.9v.73h-8.71v-.73h3.91v-.98c-1.83-.1-2.76-.85-2.76-1.86Zm6.4,7.54h-.9v-2.31h-5.56v-.74h6.47v3.05Zm-5.48-7.54c0,.72,.93,1.17,2.27,1.17s2.28-.45,2.28-1.17c0-.67-.96-1.14-2.28-1.14s-2.27,.49-2.27,1.14Z"/><path class="cls-2" d="M47.24,98.78h-3.91v3.37h-.89v-3.37h-3.91v-.73h8.71v.73Zm-1.04-1.9c-1.2-.31-2.53-.94-3.3-1.99-.7,1.03-2.16,1.69-3.32,1.97l-.44-.66c1.46-.35,3.27-1.18,3.27-2.42v-.97h.95v.97c0,1.21,1.99,2.11,3.27,2.42l-.43,.68Z"/><path class="cls-2" d="M56.07,98.78h-3.91v3.37h-.89v-3.37h-3.91v-.73h8.71v.73Zm-1.04-1.9c-1.2-.31-2.53-.94-3.3-1.99-.7,1.03-2.17,1.69-3.32,1.97l-.44-.66c1.46-.35,3.27-1.18,3.27-2.42v-.97h.95v.97c0,1.21,1.99,2.11,3.27,2.42l-.43,.68Z"/><path class="cls-2" d="M60.2,99.63h-3.64v-6.3h.86v2.29h1.95v-2.29h.83v6.3Zm-.83-.74v-2.55h-1.95v2.55h1.95Zm4.75,3.26h-.86v-5.31h-1.21v5h-.87v-9.06h.87v3.29h1.21v-3.33h.86v9.42Z"/><path class="cls-2" d="M69.83,96.65c0,2.16-.98,3.32-2.41,3.32s-2.4-1.16-2.4-3.32,.98-3.33,2.4-3.33,2.41,1.1,2.41,3.33Zm-.89-.01c0-1.61-.54-2.59-1.51-2.59s-1.52,.95-1.52,2.59,.55,2.59,1.52,2.59,1.51-1.03,1.51-2.59Zm3.31-3.91v3.41h1.63v.75h-1.63v5.26h-.87v-9.42h.87Z"/><path class="cls-2" d="M82.52,98.79h-2.27v3.36h-.87v-3.36h-2.42v3.26h-.88v-3.26h-2.26v-.73h8.71v.73Zm-1.12-3.85c0,1.29-1.11,2.09-3.23,2.09s-3.23-.8-3.23-2.09,1.14-2.08,3.23-2.08,3.23,.81,3.23,2.08Zm-3.23,1.39c1.37,0,2.33-.48,2.33-1.4,0-.85-.94-1.36-2.33-1.36s-2.35,.5-2.35,1.37c0,.92,.94,1.39,2.35,1.39Z"/><path class="cls-2" d="M50.8,107.24h2.14v.7h-2.14v.2c0,1.45,1.21,2.17,2.35,2.63l-.39,.67c-.79-.33-1.9-1.09-2.4-1.91-.44,.98-1.45,1.64-2.38,2.12l-.5-.57c1.21-.6,2.43-1.41,2.43-2.93v-.21h-2.15v-.7h2.15v-1.06h.89v1.06Zm4.41,8.46h-6.02v-3.39h6.02v3.39Zm-.88-.7v-1.97h-4.26v1.97h4.26Zm.88-3.19h-.88v-2.3h-1.71v-.72h1.71v-2.45h.88v5.47Z"/><path class="cls-2" d="M60.73,107.04c-.05,3.76-1.67,5.46-3.99,6.74l-.58-.65c2.5-1.4,3.61-2.95,3.62-5.36h-3.29v-.73h4.23Zm2.66-.69v3.6h1.64v.76h-1.64v5.06h-.87v-9.42h.87Z"/></g><g><path class="cls-2" d="M168.2,93.94v.86c0,1.45,1.22,2.16,2.34,2.62l-.37,.68c-.79-.32-1.9-1.09-2.4-1.9-.45,.98-1.46,1.64-2.38,2.1l-.5-.56c1.21-.58,2.41-1.41,2.41-2.93v-.87h-1.93v-.7h4.76v.7h-1.93Zm4.66,8.06h-6.24v-3.02h.87v2.28h5.37v.74Zm-.22-2.6h-.88v-3.65h-1.9v-.73h1.9v-2.29h.88v6.67Z"/><path class="cls-2" d="M182.33,98.22h-8.71v-.73h3.91v-.85h-2.67v-3.76h6.19v.73h-5.32v.78h5.31v.7h-5.31v.82h5.41v.73h-2.71v.85h3.9v.73Zm-1.06,2.36c0,1.04-1.05,1.73-3.29,1.73s-3.27-.69-3.27-1.73,1.07-1.73,3.27-1.73,3.29,.67,3.29,1.73Zm-3.29-1.04c-1.47,0-2.33,.35-2.33,1.03s.86,1.04,2.33,1.04,2.33-.34,2.33-1.04-.86-1.03-2.33-1.03Z"/><path class="cls-2" d="M187.01,97.49h-4.34v-4.36h.86v1.48h2.62v-1.48h.86v4.36Zm-.86-.74v-1.42h-2.62v1.42h2.62Zm3.68,3.65c0,1.15-.92,1.91-3.07,1.91s-3.09-.75-3.09-1.91,.94-1.94,3.09-1.94,3.07,.77,3.07,1.94Zm-.9,0c0-.79-.78-1.26-2.16-1.26s-2.17,.47-2.17,1.26c0,.75,.77,1.21,2.17,1.21s2.16-.42,2.16-1.21Zm2.23-4.74h-1.5v2.58h-.87v-5.52h.87v2.21h1.5v.73Z"/><path class="cls-2" d="M196.78,97.72c-.85-.32-1.99-1-2.44-1.88-.45,.99-1.5,1.63-2.44,2.12l-.5-.57c1.21-.62,2.47-1.42,2.47-2.94v-1.45h.89v1.44c0,1.46,1.26,2.18,2.41,2.63l-.39,.65Zm2.31,4.47h-.87v-2.69h-5.32v-.73h6.19v3.42Zm.01-3.96h-.87v-5.5h.87v5.5Z"/><path class="cls-2" d="M164.63,111.31c-.8-.31-1.89-1.06-2.38-1.89-.46,.97-1.47,1.64-2.4,2.12l-.5-.57c1.21-.61,2.42-1.41,2.42-2.94v-.53h-1.94v-.71h4.76v.71h-1.93v.52c0,1.46,1.21,2.18,2.36,2.62l-.39,.67Zm2.37,4.49h-.88v-2.69h-5.33v-.73h6.21v3.42Zm0-3.98h-.88v-5.48h.88v5.48Z"/><path class="cls-2" d="M167.87,113.64c.87,0,1.74,0,2.57-.03v-1.15h.89v1.12c.93-.03,1.81-.09,2.55-.18v.73c-1.55,.22-3.82,.25-6.01,.25v-.74Zm5.76-5.41h-5.59v-.72h2.38v-1.27h.9v1.27h2.31v.72Zm-2.76,3.89c-1.54,0-2.33-.79-2.33-1.78s.8-1.77,2.33-1.77,2.36,.79,2.36,1.78-.77,1.77-2.36,1.77Zm1.51-1.77c0-.59-.46-1.09-1.51-1.09-.98,0-1.5,.51-1.5,1.08,0,.61,.53,1.1,1.51,1.1,1.06,0,1.5-.47,1.5-1.09Zm3.03-4.01v4.23h1.54v.74h-1.54v4.45h-.87v-9.42h.87Z"/><path class="cls-2" d="M187.97,111.31v.74h-3.97v3.71h-.88v-3.71h-3.86v-.74h8.71Zm-2.52-.69c.18-.91,.35-2.32,.35-3.11h-5.35v-.73h6.3c0,1.51-.23,2.82-.39,3.84h-.91Z"/><path class="cls-2" d="M193.35,110.16c0,2.16-.89,3.32-2.44,3.32s-2.44-1.16-2.44-3.32,.96-3.33,2.44-3.33,2.44,1.1,2.44,3.33Zm-.87-.02c0-1.61-.48-2.59-1.56-2.59s-1.57,.96-1.57,2.59,.53,2.61,1.57,2.61c1.1,0,1.56-1.03,1.56-2.61Zm3.3,5.62h-.87v-9.42h.87v9.42Z"/><path class="cls-2" d="M201.82,106.8c-.11,2.89-2.18,4.07-4.16,4.77l-.44-.63c1.81-.64,3.54-1.68,3.66-3.43h-3.16v-.71h4.1Zm2.82,8.91h-6v-3.56h6v3.56Zm-.87-.7v-2.15h-4.25v2.15h4.25Zm.87-3.39h-.87v-5.27h.87v5.27Z"/></g><g><path d="M201.63,41.68h0s-2.76-2.76-2.76-2.76h0s0,0,0,0l-5.52-5.52s0,0,0,0c0,0,0,0,0,0l-2.76-2.76s0,0,0,0,0,0,0,0l-5.52-5.52s0,0,0,0c0,0,0,0,0,0l-1.1-1.1c-.35-.35-.82-.54-1.31-.54s-.96,.19-1.31,.54l-15.45,15.45c-.72,.72-.72,1.9,0,2.62l5.3,5.3c-.75,1.01-.71,2.49,.14,3.35l1.5,1.5-2.93,2.93c-.67-.36-1.53-.26-2.09,.31l-6.14,6.14c-.33,.33-.52,.78-.52,1.25s.18,.92,.52,1.25l.91,.91c.33,.33,.78,.52,1.25,.52s.92-.18,1.25-.52l6.14-6.14c.57-.57,.67-1.42,.31-2.09l2.93-2.93,1.5,1.5c.45,.45,1.08,.68,1.73,.68,.57,0,1.15-.18,1.62-.53l5.3,5.3c.36,.36,.84,.54,1.31,.54s.95-.18,1.31-.54l15.45-15.45c.72-.72,.72-1.9,0-2.62l-1.06-1.06Zm-6.29-5.26l-17.04,17.04-2.24-2.24,17.04-17.04,2.24,2.24Zm-2.76-2.76l-17.04,17.04-2.24-2.24,17.04-17.04,2.24,2.24Zm-26.16,7.92c-.44-.44-.44-1.15,0-1.59l15.45-15.45c.21-.21,.49-.33,.8-.33s.58,.12,.8,.33l.84,.84-17.04,17.04-.84-.84Zm1.36,1.36l17.04-17.04,2.24,2.24-17.04,17.04-2.24-2.24Zm2.76,2.76l17.04-17.04,2.24,2.24-17.04,17.04-.82-.82s0,0,0,0c0,0,0,0,0,0l-1.42-1.42Zm-.56,10.45l.59,.59-1.09,1.09-.59-.59,1.09-1.09Zm.75,2.22l-6.14,6.14c-.2,.2-.46,.3-.74,.3s-.54-.11-.74-.3l-.91-.91c-.2-.2-.3-.46-.3-.74s.11-.54,.3-.74l6.14-6.14c.2-.2,.47-.3,.74-.3,.09,0,.19,.02,.28,.04l-1.25,1.25c-.07,.07-.11,.16-.11,.26s.04,.19,.11,.26l1.11,1.11c.07,.07,.16,.11,.26,.11s.19-.04,.26-.11l1.25-1.25c.1,.35,.01,.74-.26,1.02Zm.36-2.14l-.59-.59,2.87-2.87,.59,.59-2.87,2.87Zm5.4-1.37l-1.76-1.76s0,0,0,0l-.55-.55-2.31-2.31c-.59-.58-.62-1.59-.14-2.31l7.07,7.07c-.72,.48-1.73,.45-2.31-.14Zm3.11-.09s0,0,0,0c0,0,0,0,0,0l-.78-.78,17.04-17.04,2.24,2.24-17.04,17.04-1.46-1.46Zm1.98,1.98l17.04-17.04,2.24,2.24-17.04,17.04-2.24-2.24Zm20.6-11.89l-15.45,15.45c-.44,.44-1.15,.44-1.59,0l-.8-.8,17.04-17.04,.8,.8c.44,.44,.44,1.15,0,1.59Z"/><path d="M189.12,77.53s-.07,0-.11-.02c-.18-.06-.28-.25-.22-.43,.43-1.33-.62-2.67-1.74-4.09-.72-.91-1.45-1.85-1.77-2.81-.62-1.86-.49-3.82,.33-5.38-1.6,.6-2.02,1.95-2.42,3.25-.16,.51-.31,1-.53,1.44-.42,.85-1.19,1.34-2.04,1.29-.93-.04-1.77-.69-2.15-1.65-.53-1.36-.68-4.75,.47-6.7-2.57,1.3-2.93,3.21-2.95,4.62-.03,2.3-.31,6.28-1.85,7.08-.51,.27-1.08,.18-1.71-.24-.88-.6-.78-1.4-.65-2.41,.11-.87,.26-2.01-.07-3.6-.43,1.06-1.22,2.01-2.24,2.67-1.86,1.2-3.11,2.1-3.4,3.66-.01,.04-.35,1.25,0,2.9,.04,.18-.08,.37-.26,.4-.18,.04-.37-.08-.4-.26-.38-1.83,0-3.15,0-3.2,.33-1.79,1.74-2.82,3.7-4.08,1.21-.78,2.05-2.02,2.24-3.32,.02-.16,.18-.31,.34-.32,.16,0,.35,.12,.4,.27,.71,2.31,.51,3.91,.37,4.97-.13,1.04-.15,1.42,.35,1.76,.6,.41,.91,.25,1.01,.2,.87-.45,1.43-2.94,1.48-6.49,.04-2.91,1.65-4.83,4.92-5.86,.17-.06,.37,.04,.44,.21,.06,.16-.02,.36-.17,.44-1.99,.94-2,5.48-1.39,7.05,.28,.71,.89,1.19,1.55,1.22,.57,.01,1.1-.31,1.4-.92,.19-.39,.34-.85,.49-1.33,.47-1.52,1.05-3.4,3.66-3.92,.14-.03,.32,.05,.39,.17,.08,.12,.07,.31,0,.43-1.06,1.47-1.3,3.51-.66,5.44,.28,.85,.98,1.74,1.66,2.6,1.18,1.5,2.39,3.04,1.85,4.72-.05,.14-.18,.24-.32,.24Z"/></g><g><path d="M77.72,34.47h0c.04-.14,.03-.26-.02-.36-.06-.09-.16-.16-.3-.19-.1-.02-.42-.09-.57,.43,0,.03-.01,.06-.02,.1-.01,.08-.03,.14-.05,.2-.18,.55-.36,1.1-.53,1.62l-.27,.83-2.72-.74v-.21c-.04-.95-.77-1.58-1.55-2.25-.86-.73-1.6-1.21-2.47-1.13l-.2,.02-1.11-2.35,.16-.14c1.15-1.01,3.34-1.84,4.88-1.84,1.84,0,3.09,.81,3.71,2.37,.08,.19,.18,.32,.31,.38,.1,.04,.21,.04,.32-.01,.27-.11,.34-.37,.21-.72-.55-1.42-1.56-2.34-3-2.75-.16-.04-.32-.09-.48-.13l-.23-.06h-1.54s-.08,.04-.13,.05c-1.65,.25-3.21,.92-4.77,2.05-.22,.16-.59,.15-.83,.06-1.08-.43-2.19-.19-2.98,.66-.62,.66-.93,1.27-.98,1.9l-.02,.21-1.75,.37-.11-.13c-.31-.38-.59-.58-.86-.6-.27-.03-.57,.11-.93,.41-1.23,1.02-2.47,2.07-3.7,3.11-.55,.46-1.11,.97-1.68,1.5-.19,.18-.22,.45-.07,.64,.18,.21,.41,.23,.67,.04,.09-.06,.16-.14,.24-.21l.03-.03s.08-.07,.12-.11l.25-.22c1.3-1.12,2.6-2.24,3.9-3.36,.06-.06,.14-.1,.23-.16l.77-.53-.23,.87c-.02,.07-.03,.12-.05,.17-1.67,4.29-2.95,9.01-4.03,14.86-.65,3.54-1.44,6.18-2.56,8.54-.14,.28-.44,.51-.68,.62-.57,.27-1.14,.53-1.71,.78l-.11,.05c-.65,.3-1.33,.6-1.98,.92-.19,.09-.31,.21-.35,.34-.03,.11,0,.22,.06,.35,.15,.25,.42,.28,.73,.1,3.46-2.04,7.38-2.87,11.99-2.53,1.81,.13,3.53-.24,5.13-1.09,.1-.05,.2-.1,.32-.16l1-.5-.46,.91c-.04,.08-.06,.13-.09,.18-2.6,4.17-5.06,7.41-7.75,10.21-2.64,2.74-4.94,4.49-7.48,5.66-3.81,1.76-7.41,1.5-10.7-.8-.37-.26-.68-.6-.42-1.28,1.11-2.91,2.59-5.33,4.54-7.4,.18-.19,.36-.37,.54-.55,.15-.14,.29-.29,.44-.44,.24-.24,.26-.51,.07-.7-.26-.27-.56-.08-.71,.05-.13,.11-.26,.24-.38,.36-1.69,1.65-3.13,3.63-4.27,5.89-.04,.09-.09,.17-.15,.27l-.54,.95-.14-.97c-.01-.08-.02-.13-.02-.17-.04-1.93,.18-3.92,.67-5.89,.97-3.93,2.81-7.66,5.81-11.73,1.64-2.22,3.59-4.48,5.97-6.89,.16-.17,.25-.33,.25-.48,0-.1-.05-.2-.14-.29-.21-.21-.46-.17-.73,.1-3.54,3.59-6.15,6.83-8.21,10.19-3.33,5.43-4.81,10.71-4.5,16.15,0,.1-.02,.18-.04,.26,0,.04-.02,.07-.03,.12l-.12,.59-.37-.47c-1.19-1.51-1.84-3.15-1.98-5-.17-2.23,.29-4.52,1.45-7.22,1.27-2.96,3.07-5.82,5.83-9.26,2.17-2.71,4.73-5.47,7.84-8.46,.41-.39,.28-.63,.15-.77-.09-.1-.18-.14-.29-.15h0c-.16,0-.32,.08-.47,.23-4.45,4.3-7.75,8.07-10.38,11.86-2.3,3.31-3.68,6.06-4.48,8.9-.98,3.48-.75,6.45,.69,9.07,.12,.22,.03,.59-.14,.77-.32,.34-.65,.68-.97,1-.18,.18-.35,.35-.52,.52-.4,.4-.59,.84-.57,1.28,.02,.43,.26,.86,.69,1.22,1.2,1.02,2.26,1.91,3.25,2.73,.44,.37,.9,.53,1.33,.47,.43-.06,.84-.34,1.19-.82,.3-.41,.59-.83,.89-1.25l.58-.82,.41,.14c.13,.04,.25,.08,.37,.13,1.81,.65,3.7,.78,5.63,.39,2.34-.47,4.58-1.57,7.04-3.45,2.28-1.74,4.43-3.9,6.76-6.8,1.84-2.29,3.62-4.84,5.27-7.58,.31-.51,.44-1.19-.13-1.55-.65-.41-.65-.94-.58-1.35l.02-.14,.13-.06c1.81-.89,2.57-2.05,2.41-3.68l-.02-.19,.17-.09c1.75-.9,2.52-2.04,2.43-3.59v-.2s.17-.08,.17-.08c1.76-.75,2.53-1.93,2.37-3.61l-.02-.21,.39-.15c.08-.03,.15-.06,.22-.09,.64-.33,1.5-1.07,1.78-2.1,.19-.68,.08-1.35-.32-1.99-.25-.4-.17-.69-.06-1,.32-.86,.68-1.88,.98-2.91Zm-36.91,40.67c-.25,.36-.52,.74-.79,1.11-.14,.2-.31,.32-.5,.34-.02,0-.05,0-.07,0-.17,0-.33-.07-.5-.21-1.11-.93-2.21-1.86-3.32-2.79-.21-.17-.32-.36-.33-.56,0-.18,.06-.34,.2-.49,.37-.37,.73-.73,1.14-1.12l.59-.58,4.13,3.49-.56,.79Zm27.91-41.25c.62-.34,1.26-.24,1.91,.32,.15,.13,.31,.27,.47,.4l.03,.02c.21,.17,.43,.36,.63,.54,.57,.52,.73,1.21,.44,1.88-.33,.77-1.14,1.4-1.8,1.4-.03,0-.05,0-.08,0-.17-.01-.35-.1-.53-.25-.61-.5-1.31-1.07-1.97-1.65-.15-.13-.24-.31-.31-.44-.02-.04-.04-.08-.06-.1l-.05-.09v-.1c.13-.89,.55-1.52,1.32-1.94Zm-6.85,9.7c-.47-.35-.61-.78-.46-1.36,.23-.86,1.24-1.75,2.07-1.83h.08s.07,.02,.07,.02c.08,.04,.17,.07,.25,.1,.21,.08,.43,.17,.63,.32,.5,.38,1.02,.81,1.65,1.37,.77,.68,.84,1.61,.19,2.36-.3,.35-.71,.69-1.2,1.01-.13,.08-.27,.13-.41,.13-.24,0-.48-.11-.72-.34-.83-.76-1.48-1.31-2.13-1.79Zm1.54,4.67c-.31,.36-.73,.69-1.23,.98-.08,.04-.17,.07-.28,.07-.26,0-.56-.13-.72-.26-.87-.69-1.71-1.41-2.5-2.09-.16-.14-.35-.38-.39-.64-.07-.45,.14-1,.54-1.47,.47-.54,1.1-.87,1.69-.87h.04s.07,.02,.07,.02c.05,.02,.09,.04,.14,.05,.18,.07,.42,.16,.62,.32,.57,.44,1.15,.92,1.83,1.53,.78,.69,.86,1.6,.19,2.36Zm1.45-8.32c-.15-.13-.24-.3-.31-.43-.02-.04-.04-.08-.06-.11l-.06-.09v-.1c.14-.9,.57-1.53,1.33-1.94,.62-.33,1.28-.21,1.9,.34,.19,.17,.39,.33,.59,.5,.23,.19,.47,.39,.69,.59,.58,.52,.75,1.2,.47,1.88-.32,.78-1.12,1.41-1.8,1.41-.02,0-.05,0-.07,0-.18-.01-.39-.1-.55-.23-.8-.66-1.48-1.22-2.15-1.82Zm-1.25-8.08c.32-.82,1.12-1.44,1.87-1.44,.82,0,2.14,1.06,2.32,1.86,.12,.52-.06,1.13-.46,1.64-.39,.49-.93,.78-1.44,.78-.25,0-.5-.13-.65-.26-.18-.15-.35-.31-.53-.47-.23-.21-.47-.43-.72-.62-.75-.55-.48-1.26-.39-1.49Zm-3.36,3.21c.24-.84,1.19-1.57,2.04-1.57h.07s.04,.02,.07,.02c.14,.03,.35,.07,.52,.2l.27,.21c.46,.35,.93,.7,1.3,1.14,.27,.33,.45,1.02,.26,1.46-.27,.63-.82,1.12-1.13,1.36-.21,.16-.43,.24-.65,.24-.32,0-.63-.16-.9-.46-.42-.48-.94-.88-1.4-1.21-.69-.5-.5-1.16-.44-1.38Zm-1.78,4.73c.18-.61,.37-1.22,.57-1.87l.42-1.35,.33,.29c.18,.15,.35,.3,.52,.44,.42,.36,.81,.69,1.18,1.06,.19,.19,.33,.51,.38,.87,.12,.9-.88,2.19-1.81,2.34-.06,0-.12,.01-.18,.01-.39,0-.8-.2-1.08-.52-.33-.37-.45-.85-.32-1.27Zm-.46,1.61l.36,.49c.67,.92,.46,1.8-.64,2.78l-.68,.6,.96-3.87Zm-1.76,7.81v-.02c.08-.37,.15-.74,.21-1.12,.04-.25,.14-.44,.31-.55,.16-.11,.35-.13,.57-.08,.29,.07,.66,.18,.95,.4,.84,.65,1.49,1.2,2.05,1.73,.24,.22,.39,.51,.5,.72,.04,.07,.06,.12,.09,.15l.04,.07v.08c.02,1.17-1.17,2.49-2.03,2.59-.03,0-.07,0-.11,0-.23,0-.45-.07-.6-.19-.54-.44-1.25-1.02-1.92-1.65-.22-.2-.35-.58-.31-.86,.06-.44,.15-.87,.23-1.28Zm.49,7.53c-.31,.33-.74,.51-1.18,.51-.35,0-.67-.11-.94-.33-.19-.15-.29-.47-.22-.69,.31-.97,.63-1.95,.95-2.89l.42-1.26,.32,.28c.15,.13,.3,.26,.46,.39,.36,.3,.71,.61,1.04,.94,.49,.51,.52,1.34,.07,1.96-.29,.39-.59,.76-.91,1.09Zm1,.54l.22-.41c.34-.65,.82-1.02,1.39-1.08,.65-.06,1.34,.31,1.94,1.03l.38,.46h-3.94Zm8.48-2.12c-.1,.49-.24,.98-.82,1.21l-.05,.03c-.77,.41-1.27,.66-1.71,.66-.53,0-.97-.35-1.76-1.02-.39-.33-.8-.63-1.15-.89-.55-.4-.53-1.02-.28-1.43,.4-.65,.84-1.17,1.3-1.56,.49-.41,1.21-.38,1.78,.08,.64,.51,1.39,1.11,2.09,1.76,.21,.19,.32,.44,.44,.68,.05,.1,.09,.19,.14,.28l.05,.09-.02,.1Zm2.58-3.87c-.11,.82-.97,1.97-1.79,2.1-.05,0-.1,.01-.16,.01-.27,0-.56-.09-.76-.24-.73-.55-1.5-1.16-2.4-1.91-.21-.17-.31-.48-.33-.69-.05-.48,.17-1.05,.6-1.54,.41-.47,.93-.75,1.39-.76,.35,0,.74,.11,1,.31,.73,.55,1.34,1.06,1.88,1.58,.2,.2,.31,.45,.42,.7,.04,.1,.08,.2,.13,.29l.04,.08v.09Zm2.55-3.98c-.12,.81-.99,1.98-1.77,2.12-.06,.01-.12,.02-.19,.02-.28,0-.6-.1-.82-.26-.45-.33-.89-.68-1.32-1.03l-.04-.03c-.21-.17-.41-.34-.62-.5-.51-.4-.49-1-.25-1.39,.35-.58,.77-1.08,1.22-1.44,.48-.38,1.16-.35,1.73,.09,.51,.39,1.03,.8,1.49,1.27,.2,.2,.3,.45,.41,.7,.05,.11,.09,.2,.13,.29l.04,.08v.09Zm2.56-3.71c-.13,.82-.92,1.87-1.76,1.98-.04,0-.08,0-.13,0-.24,0-.51-.09-.7-.22-.61-.45-1.24-.94-1.87-1.47-.42-.36-.5-.89-.19-1.47,.41-.79,.97-1.28,1.57-1.38,.54-.09,1.09,.12,1.62,.61,.09,.09,.2,.17,.3,.25,.21,.17,.41,.32,.57,.52,.18,.22,.3,.48,.41,.71,.05,.11,.1,.2,.14,.29l.04,.08v.09Zm1.36-2.18c-.27,.23-.54,.35-.82,.35s-.59-.12-.89-.37c-.16-.13-.33-.26-.5-.39-.27-.21-.54-.41-.78-.62-.16-.14-.26-.34-.32-.47-.02-.04-.03-.07-.05-.1l-.05-.08v-.09c.09-.89,.5-1.53,1.28-1.97,.62-.35,1.28-.25,1.91,.3l.07,.06c.07,.06,.14,.12,.21,.18,.58,.43,.89,.92,.91,1.45,.02,.59-.3,1.18-.97,1.76Z"/><path d="M43.96,70.15s-.04,0-.06,0c-.22,0-.35,.13-.39,.39-.02,.13,0,.25,.06,.33,.06,.08,.16,.14,.3,.16,.33,.05,.69,.07,1,.09,.15,0,.3,.02,.44,.03,1.76-.02,3.51-.39,5.35-1.14,2.93-1.19,5.7-3.11,8.48-5.88,.55-.54,1.09-1.15,1.56-1.69l.39-.44c.08-.09,.25-.32,.06-.52-.11-.12-.35-.23-.48-.22-.07,0-.22,.1-.43,.33-1.63,1.89-3.31,3.45-5.12,4.78-2.72,1.99-6.44,4.22-11.18,3.76Z"/><path d="M47.36,55.32c-.33,.72-.6,1.49-.86,2.22-.07,.2-.06,.39,.03,.52,.08,.11,.21,.18,.38,.19,.21-.02,.36-.15,.45-.41l.15-.43c.16-.46,.33-.93,.53-1.38,1.34-3.03,3.2-5.71,4.68-7.71,.16-.21,.23-.41,.2-.56-.02-.1-.07-.18-.17-.25-.09-.07-.17-.1-.26-.1-.16,0-.32,.11-.48,.33-2.09,2.81-3.58,5.22-4.66,7.58Z"/></g></g></svg>