<?xml version="1.0" encoding="UTF-8"?><svg id="_레이어_2" xmlns="http://www.w3.org/2000/svg" viewBox="0 0 360.08 11.65"><defs><style>.cls-1{fill:#595757;}</style></defs><g id="_레이어_1-2"><g><path class="cls-1" d="M7.36,8.44c-.61-.52-1.49-1.93-1.62-2.65-.16,.76-1.07,2.33-1.64,2.84-.65-.53-1.47-1.94-1.69-2.86-.24,1.02-1.06,2.17-1.76,2.76l-.65-.58c1.2-1.01,1.96-2.66,1.96-4.29V1.7H.48V.96H3.81v.74h-.95v1.97c0,1.67,.6,3,1.22,3.81,.59-.88,1.19-2.19,1.19-3.81V1.7h-.94V.96h3.16v.74h-1.32v1.97c0,1.71,.6,3.09,1.67,4.05l-.48,.72Zm3.88-3.59h-1.79v6.5h-.88V.11h.88v3.96h1.79v.79Z"/><path class="cls-1" d="M17.45,8.53c-.96-.56-2.31-1.54-2.93-3.07-.56,1.57-1.75,2.54-3,3.32l-.58-.65c1.66-.95,3.11-2.4,3.11-4.43V1.7h-2.49V.96h5.93v.74h-2.51V3.75c0,1.93,1.44,3.31,2.91,4.04l-.44,.73Zm2.6,2.83h-.89V.11h.89V11.36Z"/><path class="cls-1" d="M27.17,.25c1.79,0,2.88,1.26,2.88,2.67s-1.02,2.7-2.88,2.7-2.89-1.25-2.89-2.7,1.11-2.67,2.89-2.67Zm2,2.67c0-1.01-.72-1.93-2-1.93-1.38,0-2.01,.92-2.01,1.93s.6,1.94,2.01,1.94c1.32,0,2-.9,2-1.94Zm-.58,8.23c-.8,.14-2.16,.12-3.18,.12V6.93h.88v3.59c.69,0,1.56-.01,2.29-.1v.73Zm5.06-3.2h-5.02v-.68h2.06v-1.21h.91v1.21h2.06v.68Zm-.34,2.09c0,.92-.67,1.61-2.15,1.61s-2.14-.7-2.14-1.61,.69-1.62,2.14-1.62,2.15,.71,2.15,1.62Zm-.85,.01c0-.61-.49-1.02-1.29-1.02s-1.33,.42-1.33,1.01,.51,.97,1.32,.97,1.31-.37,1.31-.96ZM32.8,.11V2.35h1.81v.77h-1.81v2.45h-.89V.11h.89Z"/><path class="cls-1" d="M44.88,9.46h-10.36v-.76h3.82V4.58h.91v4.13h5.63v.76Zm-2.85-2.32c.31-1.59,.52-3.65,.52-5.43h-6.67V.96h7.65c-.07,2.41-.29,4.38-.6,6.19h-.89Z"/><path class="cls-1" d="M53.22,8.3h-5.07V.9h.89V3.71h3.28V.9h.89v7.4Zm-.89-.76v-3.07h-3.28v3.07h3.28Zm6-2.71h-1.96v6.53h-.89V.11h.89v3.92h1.96v.8Z"/><path class="cls-1" d="M64.21,6.01c-1.02-.4-2.42-1.28-2.93-2.39-.51,1.29-1.76,2.1-2.91,2.69l-.53-.61c1.45-.72,2.95-1.7,2.95-3.56V.43h.93v1.69c0,1.8,1.52,2.66,2.87,3.21l-.39,.67Zm2.61,5.41h-.88v-3.3h-6.32v-.76h7.2v4.05Zm1.81-7.99h-1.81v3.3h-.88V.11h.88V2.67h1.81v.76Z"/><path class="cls-1" d="M74.95,2.09h-6.62v-.72h2.85V0h.94V1.37h2.83v.72Zm-3.31,5.05c-1.64,0-2.69-1.03-2.69-2.23s1.07-2.17,2.71-2.17,2.67,.94,2.67,2.17-.99,2.23-2.68,2.23Zm-1.8-2.24c0,.84,.6,1.54,1.81,1.54s1.79-.65,1.79-1.54c0-.84-.58-1.48-1.79-1.48s-1.81,.64-1.81,1.48Zm7.72,6.28h-7.33v-3.26h.91v2.51h6.42v.75Zm-.39-11.07V3.81h1.81v.77h-1.81v3.69h-.88V.11h.88Z"/><path class="cls-1" d="M87.56,.66c-.15,3.49-2.68,4.94-4.91,5.73l-.46-.66c2.2-.78,4.22-2.1,4.4-4.33h-3.83V.66h4.8Zm3.41,10.64h-7.09V7.04h7.09v4.26Zm-.89-.73v-2.79h-5.31v2.79h5.31Zm.89-4.15h-.89V.11h.89V6.42Z"/><path class="cls-1" d="M98.29,8.53c-.96-.56-2.31-1.54-2.93-3.07-.56,1.57-1.75,2.54-3,3.32l-.58-.65c1.67-.95,3.11-2.4,3.11-4.43V1.7h-2.49V.96h5.93v.74h-2.49V3.75c0,1.93,1.42,3.31,2.91,4.04l-.45,.73Zm4.47-3.67h-1.95v6.5h-.88V.11h.88v3.95h1.95v.8Z"/><path class="cls-1" d="M107.82,6.17h-5.07V.62h.87v1.98h3.33V.62h.87V6.17Zm-.87-.77V3.36h-3.33v2.04h3.33Zm4.48,5.78h-7.33v-3.72h.91v2.96h6.42v.75Zm-.39-11.07V3.31h1.81v.76h-1.81v4.1h-.89V.11h.89Z"/><path class="cls-1" d="M115.51,.84c1.44,0,2.33,1.27,2.46,3.37h1.39V.17h.88V11h-.88V5.02h-1.38c-.06,2.26-.93,3.63-2.47,3.63s-2.48-1.5-2.48-3.91,.92-3.91,2.48-3.91Zm-1.62,3.9c0,1.75,.54,3.12,1.61,3.12,1.14,0,1.64-1.35,1.64-3.12s-.49-3.12-1.64-3.12-1.61,1.39-1.61,3.12Zm8.42,6.62h-.87V.11h.87V11.36Z"/><path class="cls-1" d="M131.54,.5c-.08,3.23-2.59,4.76-4.92,5.54l-.45-.67c1.44-.47,2.75-1.19,3.58-2.18-1.15,.11-2.28,.18-3.33,.19v-.7c1.18-.02,2.42-.07,3.79-.19,.2-.38,.32-.82,.36-1.26h-3.91V.5h4.87Zm3.44,10.91h-7.35v-2.81h6.15v-1.38h-6.15v-.71h7.08v2.78h-6.15v1.4h6.42v.71Zm1.52-8.26h-1.81v2.73h-.89V.11h.89V2.4h1.81v.76Z"/><path class="cls-1" d="M146.84,5.82h-2.82v1.62h1.38v3.86h-7.48v-3.86h1.39v-1.62h-2.82v-.76h10.36v.76Zm-9.51-2.39c1.53-.3,3.82-1.3,3.82-2.71V.12h.98V.72c0,1.4,2.22,2.39,3.82,2.72l-.44,.67c-1.55-.37-3.21-1.12-3.88-2.32-.66,1.15-2.19,1.91-3.86,2.32l-.45-.68Zm7.18,7.13v-2.4h-5.72v2.4h5.72Zm-1.39-3.13v-1.62h-2.92v1.62h2.92Z"/><path class="cls-1" d="M152.95,4.65c0,2.58-1.01,3.96-2.84,3.96s-2.83-1.38-2.83-3.96,1.09-3.95,2.83-3.95,2.84,1.32,2.84,3.95Zm-.89-.01c0-1.97-.58-3.18-1.93-3.18s-1.95,1.19-1.95,3.18,.62,3.2,1.95,3.2,1.93-1.27,1.93-3.2Zm3.86,6.72h-.89V.11h.89V11.36Z"/><path class="cls-1" d="M169.18,9.46c0,1.22-1.25,2.11-3.89,2.11s-3.87-.89-3.87-2.11,1.11-1.99,3.39-2.09v-1.09h-4.69v-.76h10.36v.76h-4.74v1.09c2.33,.08,3.45,.91,3.45,2.09Zm-8.07-4.97v-.76h1.74l-.19-1.98h.89l.19,1.98h3.09l.16-1.98h.92l-.2,1.98h1.72v.76h-8.33Zm.28-3.33V.4h7.79v.77h-7.79Zm3.89,6.91c-1.82,0-2.91,.53-2.91,1.38s1.08,1.39,2.91,1.39,2.92-.49,2.92-1.39-1.09-1.38-2.92-1.38Z"/><path class="cls-1" d="M180.82,7.53h-4.74v3.83h-.91v-3.83h-4.72v-.76h10.36v.76Zm-1.55-2.31h-7.27V.31h.89V1.98h5.49V.31h.88V5.22Zm-.88-.76v-1.74h-5.49v1.74h5.49Z"/><path class="cls-1" d="M187.26,2.09h-6.62v-.72h2.85V0h.94V1.37h2.83v.72Zm-3.31,5.05c-1.64,0-2.69-1.03-2.69-2.23s1.07-2.17,2.71-2.17,2.67,.94,2.67,2.17-.99,2.23-2.68,2.23Zm-1.8-2.24c0,.84,.6,1.54,1.81,1.54s1.79-.65,1.79-1.54c0-.84-.58-1.48-1.79-1.48s-1.81,.64-1.81,1.48Zm7.72,6.28h-7.33v-3.26h.91v2.51h6.42v.75Zm-.39-11.07V3.81h1.81v.77h-1.81v3.69h-.88V.11h.88Z"/><path class="cls-1" d="M199.67,5.15h-4.89V.5h4.89V5.15Zm-.88-.74V1.25h-3.14v3.15h3.14Zm4.73,7.02h-7.45v-2.89h6.25v-1.48h-6.25v-.71h7.18v2.88h-6.26v1.49h6.53v.71Zm-3.09-10.18h1.95V.11h.89V5.68h-.89v-1.37h-1.95v-.74h1.95V1.97h-1.95v-.73Z"/><path class="cls-1" d="M210.98,8.77c-.95-.56-2.25-1.59-2.87-3.08-.56,1.58-1.75,2.54-3,3.32l-.58-.65c1.66-.94,3.11-2.4,3.11-4.43v-1.38h-2.61v-.74h2.61V.11h.93V1.81h2.62v.74h-2.62v1.43c0,1.93,1.39,3.33,2.86,4.07l-.45,.72Zm2.62,2.59h-.89V.11h.89V11.36Z"/><path class="cls-1" d="M220.11,.96c-.04,4.56-2,6.5-4.69,7.99l-.6-.68c2.98-1.58,4.32-3.61,4.33-6.56h-3.99V.96h4.95Zm3.24-.85V4.44h1.96v.79h-1.96v6.13h-.89V.11h.89Z"/><path class="cls-1" d="M238.45,4.91v.74h-10.36v-.74h10.36Zm-1.14,6.51h-7.79v-2.7h6.54v-1.26h-6.54v-.71h7.48v2.65h-6.52v1.31h6.82v.71Zm-7.73-7.71V.28h7.44v.74h-6.55v1.93h6.68v.76h-7.56Z"/><path class="cls-1" d="M244.43,4.77c0,2.59-1.07,3.96-2.75,3.96s-2.75-1.37-2.75-3.96,1.08-3.95,2.75-3.95,2.75,1.32,2.75,3.95Zm-.89-.01c0-1.97-.62-3.18-1.85-3.18s-1.87,1.19-1.87,3.18,.65,3.21,1.87,3.21,1.85-1.27,1.85-3.21Zm4.12,6.6h-.89V4.93h-1.79v-.81h1.79V.11h.89V11.36Z"/><path class="cls-1" d="M252.13,.35c1.79,0,2.89,1.26,2.89,2.7s-1.07,2.7-2.89,2.7-2.89-1.26-2.89-2.7,1.11-2.7,2.89-2.7Zm6.27,11.06c-.87-.52-1.68-1.31-2.01-2.18-.36,.89-1.12,1.67-1.99,2.21-1.05-.67-1.62-1.37-2-2.21-.28,.79-1.09,1.66-2.05,2.18l-.56-.59c1.24-.73,2.16-1.85,2.16-3.06v-.72h.89v.72c0,1,.65,2.11,1.54,2.72,.91-.6,1.54-1.73,1.54-2.72v-.72h.91v.72c0,1.35,.94,2.46,2.14,3.06l-.58,.59Zm-8.27-8.36c0,1.03,.68,1.94,2,1.94s2-.94,2-1.94-.68-1.96-2-1.96-2,.94-2,1.96Zm6.98-2.94h.89V6.38h-.89V.11Z"/><path class="cls-1" d="M269.49,6.54h-10.36v-.76h10.36v.76Zm-1.02,4.64h-7.91v-3.37h.89v2.62h7.01v.75Zm-.22-6.88h-7.62V.25h.88V3.53h6.74v.77Z"/><path class="cls-1" d="M282.78,9.46h-10.36v-.76h3.82V4.58h.91v4.13h5.63v.76Zm-2.85-2.32c.31-1.59,.52-3.65,.52-5.43h-6.67V.96h7.65c-.07,2.41-.29,4.38-.6,6.19h-.89Z"/><path class="cls-1" d="M293.13,5.22h-10.36v-.76h7.52c.15-1,.36-2.57,.39-3.28h-6.47V.42h7.45c-.01,.79-.27,2.92-.44,4.04h1.92v.76Zm-1.45,6.08h-7.48V6.34h.88v1.63h5.72v-1.63h.88v4.95Zm-.88-.73v-1.86h-5.72v1.86h5.72Z"/><path class="cls-1" d="M301.82,.66c-.15,3.49-2.68,4.94-4.91,5.73l-.46-.66c2.2-.78,4.22-2.1,4.4-4.33h-3.83V.66h4.8Zm3.41,10.64h-7.09V7.04h7.09v4.26Zm-.89-.73v-2.79h-5.31v2.79h5.31Zm.89-4.15h-.89V.11h.89V6.42Z"/><path class="cls-1" d="M312.56,8.53c-.96-.56-2.31-1.54-2.93-3.07-.56,1.57-1.75,2.54-3,3.32l-.58-.65c1.67-.95,3.11-2.4,3.11-4.43V1.7h-2.49V.96h5.93v.74h-2.49V3.75c0,1.93,1.42,3.31,2.91,4.04l-.45,.73Zm4.47-3.67h-1.95v6.5h-.88V.11h.88v3.95h1.95v.8Z"/><path class="cls-1" d="M322.08,6.17h-5.07V.62h.87v1.98h3.33V.62h.87V6.17Zm-.87-.77V3.36h-3.33v2.04h3.33Zm4.48,5.78h-7.33v-3.72h.91v2.96h6.42v.75Zm-.39-11.07V3.31h1.81v.76h-1.81v4.1h-.89V.11h.89Z"/><path class="cls-1" d="M330.46,.34c1.72,0,2.89,1.17,2.89,2.59s-1.15,2.54-2.89,2.54-2.89-1.09-2.89-2.54,1.19-2.59,2.89-2.59Zm2,2.59c0-1.01-.78-1.85-2-1.85-1.29,0-2,.84-2,1.85s.71,1.85,2,1.85c1.22,0,2-.8,2-1.85Zm3.87,8.37h-7.09V6.45h.89v1.66h5.31v-1.66h.89v4.85Zm-.89-.73v-1.73h-5.31v1.73h5.31Zm.89-4.72h-.89V.11h.89V5.84Z"/><path class="cls-1" d="M344.69,7.93c-1.88,.26-4.38,.26-6.22,.26V.83h.91V7.4c2.05,0,3.72-.05,5.32-.24v.77Zm1.89,3.43h-.89V.11h.89V11.36Z"/><path class="cls-1" d="M354.56,8.01c-1.98,.29-4.42,.26-6.4,.26V.96h5.27v.74h-4.36V7.48c1.46,0,3.65,.01,5.49-.24v.77Zm3.75-3.27h-1.96v6.62h-.89V.11h.89V3.95h1.96v.79Z"/><path class="cls-1" d="M358.82,9.29h1.26v1.22h-1.26v-1.22Z"/></g></g></svg>