<?xml version="1.0" encoding="UTF-8"?><svg id="_레이어_2" xmlns="http://www.w3.org/2000/svg" viewBox="0 0 364.4 138"><defs><style>.cls-1{fill:none;stroke:#f5f5f5;stroke-miterlimit:10;stroke-width:2px;}.cls-2{fill:#231815;}</style></defs><g id="_레이어_1-2"><rect class="cls-1" x="1" y="1" width="110" height="136" rx="15.22" ry="15.22"/><rect class="cls-1" x="127.2" y="1" width="110" height="136" rx="15.22" ry="15.22"/><rect class="cls-1" x="253.4" y="1" width="110" height="136" rx="15.22" ry="15.22"/><g><path class="cls-2" d="M298.12,92.89c1.52,0,2.47,1.04,2.47,2.26s-.88,2.25-2.47,2.25-2.46-1.04-2.46-2.25,.95-2.26,2.46-2.26Zm1.59,2.26c0-.82-.56-1.53-1.59-1.53s-1.58,.71-1.58,1.53,.47,1.53,1.58,1.53c1.04,0,1.59-.71,1.59-1.53Zm3.5,6.94h-6.01v-3.55h6.01v3.55Zm-.88-.7v-2.14h-4.25v2.14h4.25Zm-1.43-6.63h1.43v-2.03h.88v5.27h-.88v-2.52h-1.43v-.72Z"/><path class="cls-2" d="M309.05,93.18c-.1,3-2.14,4.27-4.1,4.98l-.45-.65c1.87-.7,3.47-1.78,3.61-3.62h-3.12v-.71h4.07Zm2.91,9.01h-.87v-2.69h-5.34v-.73h6.21v3.42Zm0-3.96h-.87v-1.28h-1.88v-.73h1.88v-1.4h-1.81v-.72h1.81v-1.37h.87v5.5Z"/><path class="cls-2" d="M318.54,94.46h-5.61v-.69h2.35v-1.14h.91v1.14h2.35v.69Zm-2.8,4.19c-1.4,0-2.3-.88-2.3-1.91s.92-1.85,2.31-1.85,2.27,.81,2.27,1.85-.84,1.91-2.28,1.91Zm-1.43-1.92c0,.67,.48,1.23,1.44,1.23s1.41-.52,1.41-1.23c0-.65-.46-1.16-1.41-1.16s-1.44,.51-1.44,1.16Zm6.39,5.27h-6.2v-2.71h.88v1.97h5.32v.74Zm-.31-9.27v3.07h1.5v.73h-1.5v3.06h-.88v-6.86h.88Z"/><path class="cls-2" d="M299.71,111.63h-3.9v1.01h2.73v3.06h-6.35v-3.06h2.69v-1.01h-3.89v-.74h8.71v.74Zm-7.86-1.67v-.72h1.43l-.16-1.54h.87l.15,1.54h2.44l.12-1.54h.92l-.18,1.54h1.42v.72h-7.01Zm.22-2.66v-.74h6.58v.74h-6.58Zm5.58,7.7v-1.65h-4.57v1.65h4.57Z"/><path class="cls-2" d="M305.29,110.8c-.79-.32-1.9-1.03-2.39-1.85-.45,.97-1.46,1.59-2.39,2.07l-.5-.57c1.2-.6,2.42-1.34,2.42-2.87v-.21h-1.94v-.7h4.76v.7h-1.93v.2c0,1.47,1.21,2.13,2.35,2.59l-.38,.64Zm2.6,5h-6.32v-2.46h5.16v-1.04h-5.16v-.68h6.07v2.41h-5.16v1.09h5.41v.68Zm-.22-4.74h-.88v-4.72h.88v4.72Z"/><path class="cls-2" d="M308.55,111c.67,0,1.32,0,1.96-.02v-2.04h.88v2.02c1.16-.03,2.21-.11,3.11-.19v.69c-1.55,.24-3.73,.27-5.95,.27v-.73Zm5.25-4.18c-.03,.94-.19,2.51-.29,3.17h-.89c.12-.67,.23-1.77,.24-2.46h-3.75v-.71h4.69Zm2.48,8.79h-6.3v-2.89h.88v2.15h5.42v.74Zm1.21-5.58h-1.5v3.09h-.88v-6.78h.88v2.97h1.5v.72Z"/><path class="cls-2" d="M323.62,113.24c-1.72,.19-3.79,.24-5.36,.24v-3.73h3.25v-2.09h-3.25v-.73h4.11v3.53h-3.25v2.27c1.75,0,2.97-.08,4.5-.2v.71Zm1.64,2.52h-.88v-9.42h.88v9.42Z"/></g><g><path d="M326.98,50.9h-2.36s0-3.3,0-3.3c0-.21-.16-.37-.37-.37h-13.33v-2.88h4.15c.44,0,.79-.35,.79-.79V26.69c0-.44-.36-.79-.79-.79h-7.27c-.06,.01-.09,.02-.12,.03-.08,.03-.12,.06-.14,.08l-5.58,5.58s-.05,.06-.07,.11c-.02,.07-.03,.1-.03,.13l-.02,.09v10.91c0,.41,.17,.8,.46,1.09,.29,.29,.68,.45,1.09,.45h6.79v2.88h-13.33c-.19,0-.35,.15-.37,.34v.11s0,0,0,0v3.22h-2.8c-.06,0-.09,.02-.12,.03-.08,.03-.12,.05-.14,.08l-4.18,4.18s-.05,.06-.07,.11c-.02,.07-.03,.1-.03,.13l-.02,.09v8.15c0,.69,.57,1.24,1.25,1.24h8.74c.38,0,.69-.31,.69-.69v-12.63c0-.38-.31-.69-.69-.69h-1.9s0-2.93,0-2.93h12.96v2.93h-2.58c-.05,0-.09,.02-.12,.03-.08,.03-.12,.06-.14,.08l-4.17,4.18s-.05,.06-.07,.11c-.02,.07-.03,.1-.03,.13l-.02,.09v8.15c0,.69,.57,1.24,1.25,1.24h8.74c.38,0,.69-.31,.69-.69v-12.63c0-.38-.31-.69-.69-.69h-2.13s0-2.93,0-2.93h12.96v2.93h-2.37s-.06,.02-.1,.03c-.08,.03-.12,.06-.14,.08l-4.17,4.18s-.05,.06-.07,.11c-.02,.07-.03,.1-.03,.13l-.02,.09v8.15c0,.69,.57,1.24,1.25,1.24h8.74c.38,0,.69-.31,.69-.69v-12.63c0-.38-.31-.69-.69-.69Zm-33.66,1.26v2.92s-2.92,0-2.92,0l2.92-2.92Zm5.76-.52v12.53s-8.69,0-8.69,0c-.28,0-.51-.23-.51-.51v-7.85s3.81,0,3.81,0c.1,0,.19-.04,.26-.11,.07-.07,.11-.16,.11-.26v-3.81s5.02,0,5.02,0Zm8.35-24.49v4.32s-4.32,0-4.32,0l4.32-4.32Zm-.19,25.01v2.92s-2.92,0-2.92,0l2.92-2.92Zm5.76-.52v12.53s-8.69,0-8.69,0c-.28,0-.51-.23-.51-.51v-7.85h3.81c.2,0,.37-.17,.37-.37v-3.81s5.02,0,5.02,0Zm-9.61-8.02c-.21,0-.41-.08-.57-.23-.15-.15-.23-.35-.23-.57v-10.61s5.21,0,5.21,0c.1,0,.19-.04,.26-.11,.07-.07,.11-.16,.11-.26v-5.21s6.96,0,6.96,0v16.99s-11.74,0-11.74,0Zm17.78,8.54v2.92h-2.92l2.92-2.92Zm-2.93,12.01c-.28,0-.51-.23-.51-.51v-7.85h3.81c.2,0,.37-.17,.37-.37v-3.81h5.02s0,12.53,0,12.53h-8.69Z"/><path d="M305.18,36.1h7.36c.26,0,.47-.21,.47-.47s-.21-.47-.47-.47h-7.36c-.26,0-.47,.21-.47,.47s.21,.47,.47,.47Z"/><path d="M305.18,38.73h7.36c.26,0,.47-.21,.47-.47s-.21-.47-.47-.47h-7.36c-.26,0-.47,.21-.47,.47s.21,.47,.47,.47Z"/><path d="M305.18,41.37h7.36c.26,0,.47-.21,.47-.47s-.21-.47-.47-.47h-7.36c-.26,0-.47,.21-.47,.47s.21,.47,.47,.47Z"/><path d="M297.51,68.89l-2.93,3.76c-.06,.07-.14,.09-.18,.09-.06,.01-.15-.02-.2-.09l-1.06-1.32c-.07-.09-.18-.14-.29-.14-.08,0-.17,.03-.23,.08-.16,.13-.19,.37-.06,.53l1.06,1.32c.19,.24,.47,.37,.77,.37,.31,0,.59-.14,.78-.38l2.93-3.76c.06-.08,.09-.18,.08-.28s-.06-.19-.14-.25c-.16-.13-.4-.1-.53,.07Z"/><path d="M297.19,72.55c-.21,0-.38,.17-.38,.38v1.86c0,.13-.11,.24-.24,.24h-4.82c-.13,0-.24-.11-.24-.24v-4.82c0-.13,.11-.24,.24-.24h3.54c.21,0,.38-.17,.38-.38s-.17-.38-.38-.38h-3.54c-.55,0-.99,.44-.99,.99v4.82c0,.55,.44,.99,.99,.99h4.82c.55,0,.99-.44,.99-.99v-1.86c0-.21-.17-.38-.38-.38Z"/><path d="M311.43,68.89l-2.93,3.76c-.04,.06-.11,.09-.18,.09-.07,.01-.15-.02-.2-.09l-1.06-1.32c-.07-.09-.18-.14-.29-.14-.08,0-.17,.03-.24,.08-.08,.06-.13,.15-.14,.25-.01,.1,.02,.2,.08,.28l1.06,1.32c.19,.24,.47,.37,.77,.37,.31,0,.59-.14,.78-.38l2.93-3.76c.06-.08,.09-.18,.08-.28-.01-.1-.06-.19-.14-.25-.16-.13-.4-.1-.53,.07Z"/><path d="M311.12,72.55c-.21,0-.38,.17-.38,.38v1.86c0,.13-.11,.24-.24,.24h-4.82c-.13,0-.24-.11-.24-.24v-4.82c0-.13,.11-.24,.24-.24h3.54c.21,0,.38-.17,.38-.38s-.17-.38-.38-.38h-3.54c-.55,0-.99,.44-.99,.99v4.82c0,.55,.44,.99,.99,.99h4.82c.55,0,.99-.44,.99-.99v-1.86c0-.21-.17-.38-.38-.38Z"/><path d="M325.36,68.89l-2.93,3.76c-.06,.07-.14,.09-.18,.09-.06,.01-.15-.02-.2-.09l-1.06-1.32c-.07-.09-.18-.14-.29-.14-.08,0-.17,.03-.23,.08-.16,.13-.19,.37-.06,.53l1.06,1.32c.19,.24,.47,.37,.77,.37,.31,0,.59-.14,.78-.38l2.93-3.76c.06-.08,.09-.18,.08-.28s-.06-.19-.14-.25c-.17-.13-.4-.1-.53,.07Z"/><path d="M325.04,72.55c-.21,0-.38,.17-.38,.38v1.86c0,.13-.11,.24-.24,.24h-4.82c-.13,0-.24-.11-.24-.24v-4.82c0-.13,.11-.24,.24-.24h3.54c.21,0,.38-.17,.38-.38s-.17-.38-.38-.38h-3.54c-.55,0-.99,.44-.99,.99v4.82c0,.55,.44,.99,.99,.99h4.82c.55,0,.99-.44,.99-.99v-1.86c0-.21-.17-.38-.38-.38Z"/></g><g><path class="cls-2" d="M168.2,93.94v.86c0,1.45,1.22,2.16,2.34,2.62l-.37,.68c-.79-.32-1.9-1.09-2.4-1.9-.45,.98-1.46,1.64-2.38,2.1l-.5-.56c1.21-.58,2.41-1.41,2.41-2.93v-.87h-1.93v-.7h4.76v.7h-1.93Zm4.66,8.06h-6.24v-3.02h.87v2.28h5.37v.74Zm-.22-2.6h-.88v-3.65h-1.9v-.73h1.9v-2.29h.88v6.67Z"/><path class="cls-2" d="M182.33,98.22h-8.71v-.73h3.91v-.85h-2.67v-3.76h6.19v.73h-5.32v.78h5.31v.7h-5.31v.82h5.41v.73h-2.71v.85h3.9v.73Zm-1.06,2.36c0,1.04-1.05,1.73-3.29,1.73s-3.27-.69-3.27-1.73,1.07-1.73,3.27-1.73,3.29,.67,3.29,1.73Zm-3.29-1.04c-1.47,0-2.33,.35-2.33,1.03s.86,1.04,2.33,1.04,2.33-.34,2.33-1.04-.86-1.03-2.33-1.03Z"/><path class="cls-2" d="M187.01,97.49h-4.34v-4.36h.86v1.48h2.62v-1.48h.86v4.36Zm-.86-.74v-1.42h-2.62v1.42h2.62Zm3.68,3.65c0,1.15-.92,1.91-3.07,1.91s-3.09-.75-3.09-1.91,.94-1.94,3.09-1.94,3.07,.77,3.07,1.94Zm-.9,0c0-.79-.78-1.26-2.16-1.26s-2.17,.47-2.17,1.26,.77,1.21,2.17,1.21,2.16-.42,2.16-1.21Zm2.23-4.74h-1.5v2.58h-.87v-5.52h.87v2.21h1.5v.73Z"/><path class="cls-2" d="M196.78,97.72c-.85-.32-1.99-1-2.44-1.88-.45,.99-1.5,1.63-2.44,2.12l-.5-.57c1.21-.62,2.47-1.42,2.47-2.94v-1.45h.89v1.44c0,1.46,1.26,2.18,2.41,2.63l-.39,.65Zm2.31,4.47h-.87v-2.69h-5.32v-.73h6.19v3.42Zm.01-3.96h-.87v-5.5h.87v5.5Z"/><path class="cls-2" d="M164.63,111.31c-.8-.31-1.89-1.06-2.38-1.89-.46,.97-1.47,1.64-2.4,2.12l-.5-.57c1.2-.61,2.42-1.41,2.42-2.94v-.53h-1.94v-.71h4.76v.71h-1.93v.52c0,1.46,1.21,2.18,2.36,2.62l-.39,.67Zm2.37,4.49h-.88v-2.69h-5.33v-.73h6.21v3.42Zm0-3.98h-.88v-5.48h.88v5.48Z"/><path class="cls-2" d="M167.87,113.64c.87,0,1.74,0,2.57-.03v-1.15h.89v1.12c.93-.03,1.81-.09,2.55-.18v.73c-1.55,.22-3.82,.25-6,.25v-.74Zm5.76-5.41h-5.59v-.72h2.38v-1.27h.9v1.27h2.31v.72Zm-2.76,3.89c-1.54,0-2.33-.79-2.33-1.78s.8-1.77,2.33-1.77,2.36,.79,2.36,1.78-.77,1.77-2.36,1.77Zm1.51-1.77c0-.59-.46-1.09-1.51-1.09-.98,0-1.5,.51-1.5,1.08,0,.61,.53,1.1,1.51,1.1,1.06,0,1.5-.47,1.5-1.09Zm3.03-4.01v4.23h1.54v.74h-1.54v4.45h-.87v-9.42h.87Z"/><path class="cls-2" d="M187.97,111.31v.74h-3.97v3.71h-.88v-3.71h-3.86v-.74h8.71Zm-2.52-.69c.18-.91,.35-2.32,.35-3.11h-5.35v-.73h6.3c0,1.51-.23,2.82-.39,3.84h-.91Z"/><path class="cls-2" d="M193.35,110.16c0,2.16-.89,3.32-2.44,3.32s-2.44-1.16-2.44-3.32,.96-3.33,2.44-3.33,2.44,1.1,2.44,3.33Zm-.87-.02c0-1.61-.48-2.59-1.56-2.59s-1.57,.96-1.57,2.59,.53,2.61,1.57,2.61c1.1,0,1.56-1.03,1.56-2.61Zm3.3,5.62h-.87v-9.42h.87v9.42Z"/><path class="cls-2" d="M201.82,106.8c-.11,2.89-2.18,4.07-4.16,4.77l-.44-.63c1.81-.64,3.54-1.68,3.66-3.43h-3.16v-.71h4.1Zm2.82,8.91h-6v-3.56h6v3.56Zm-.87-.7v-2.15h-4.25v2.15h4.25Zm.87-3.39h-.87v-5.27h.87v5.27Z"/></g><g><path d="M201.63,41.68h0s-2.76-2.76-2.76-2.76h0s0,0,0,0l-5.52-5.52s0,0,0,0c0,0,0,0,0,0l-2.76-2.76s0,0,0,0,0,0,0,0l-5.52-5.52s0,0,0,0c0,0,0,0,0,0l-1.1-1.1c-.35-.35-.82-.54-1.31-.54s-.96,.19-1.31,.54l-15.45,15.45c-.72,.72-.72,1.9,0,2.62l5.3,5.3c-.75,1.01-.71,2.49,.14,3.35l1.5,1.5-2.93,2.93c-.67-.36-1.53-.26-2.09,.31l-6.14,6.14c-.33,.33-.52,.78-.52,1.25s.18,.92,.52,1.25l.91,.91c.33,.33,.78,.52,1.25,.52s.92-.18,1.25-.52l6.14-6.14c.57-.57,.67-1.42,.31-2.09l2.93-2.93,1.5,1.5c.45,.45,1.08,.68,1.73,.68,.57,0,1.15-.18,1.62-.53l5.3,5.3c.36,.36,.84,.54,1.31,.54s.95-.18,1.31-.54l15.45-15.45c.72-.72,.72-1.9,0-2.62l-1.06-1.06Zm-6.29-5.26l-17.04,17.04-2.24-2.24,17.04-17.04,2.24,2.24Zm-2.76-2.76l-17.04,17.04-2.24-2.24,17.04-17.04,2.24,2.24Zm-26.16,7.92c-.44-.44-.44-1.15,0-1.59l15.45-15.45c.21-.21,.49-.33,.8-.33s.58,.12,.8,.33l.84,.84-17.04,17.04-.84-.84Zm1.36,1.36l17.04-17.04,2.24,2.24-17.04,17.04-2.24-2.24Zm2.76,2.76l17.04-17.04,2.24,2.24-17.04,17.04-.82-.82s0,0,0,0c0,0,0,0,0,0l-1.42-1.42Zm-.56,10.45l.59,.59-1.09,1.09-.59-.59,1.09-1.09Zm.75,2.22l-6.14,6.14c-.2,.2-.46,.3-.74,.3s-.54-.11-.74-.3l-.91-.91c-.2-.2-.3-.46-.3-.74s.11-.54,.3-.74l6.14-6.14c.2-.2,.47-.3,.74-.3,.09,0,.19,.02,.28,.04l-1.25,1.25c-.07,.07-.11,.16-.11,.26s.04,.19,.11,.26l1.11,1.11c.07,.07,.16,.11,.26,.11s.19-.04,.26-.11l1.25-1.25c.1,.35,.01,.74-.26,1.02Zm.36-2.14l-.59-.59,2.87-2.87,.59,.59-2.87,2.87Zm5.4-1.37l-1.76-1.76s0,0,0,0l-.55-.55-2.31-2.31c-.59-.58-.62-1.59-.14-2.31l7.07,7.07c-.72,.48-1.73,.45-2.31-.14Zm3.11-.09s0,0,0,0c0,0,0,0,0,0l-.78-.78,17.04-17.04,2.24,2.24-17.04,17.04-1.46-1.46Zm1.98,1.98l17.04-17.04,2.24,2.24-17.04,17.04-2.24-2.24Zm20.6-11.89l-15.45,15.45c-.44,.44-1.15,.44-1.59,0l-.8-.8,17.04-17.04,.8,.8c.44,.44,.44,1.15,0,1.59Z"/><path d="M189.12,77.53s-.07,0-.11-.02c-.18-.06-.28-.25-.22-.43,.43-1.33-.62-2.67-1.74-4.09-.72-.91-1.45-1.85-1.77-2.81-.62-1.86-.49-3.82,.33-5.38-1.6,.6-2.02,1.95-2.42,3.25-.16,.51-.31,1-.53,1.44-.42,.85-1.19,1.34-2.04,1.29-.93-.04-1.77-.69-2.15-1.65-.53-1.36-.68-4.75,.47-6.7-2.57,1.3-2.93,3.21-2.95,4.62-.03,2.3-.31,6.28-1.85,7.08-.51,.27-1.08,.18-1.71-.24-.88-.6-.78-1.4-.65-2.41,.11-.87,.26-2.01-.07-3.6-.43,1.06-1.22,2.01-2.24,2.67-1.86,1.2-3.11,2.1-3.4,3.66-.01,.04-.35,1.25,0,2.9,.04,.18-.08,.37-.26,.4-.18,.04-.37-.08-.4-.26-.38-1.83,0-3.15,0-3.2,.33-1.79,1.74-2.82,3.7-4.08,1.21-.78,2.05-2.02,2.24-3.32,.02-.16,.18-.31,.34-.32,.16,0,.35,.12,.4,.27,.71,2.31,.51,3.91,.37,4.97-.13,1.04-.15,1.42,.35,1.76,.6,.41,.91,.25,1.01,.2,.87-.45,1.43-2.94,1.48-6.49,.04-2.91,1.65-4.83,4.92-5.86,.17-.06,.37,.04,.44,.21,.06,.16-.02,.36-.17,.44-1.99,.94-2,5.48-1.39,7.05,.28,.71,.89,1.19,1.55,1.22,.57,.01,1.1-.31,1.4-.92,.19-.39,.34-.85,.49-1.33,.47-1.52,1.05-3.4,3.66-3.92,.14-.03,.32,.05,.39,.17,.08,.12,.07,.31,0,.43-1.06,1.47-1.3,3.51-.66,5.44,.28,.85,.98,1.74,1.66,2.6,1.18,1.5,2.39,3.04,1.85,4.72-.05,.14-.18,.24-.32,.24Z"/></g><g><path class="cls-2" d="M27.31,93.62h2.14v.7h-2.14v.09c0,1.46,1.17,2.18,2.31,2.63l-.39,.67c-.81-.32-1.86-1.07-2.34-1.9-.47,.97-1.46,1.64-2.41,2.12l-.5-.57c1.22-.61,2.43-1.42,2.43-2.94v-.1h-2.12v-.7h2.12v-1.06h.9v1.06Zm4.11,8.46h-5.91v-3.34h5.91v3.34Zm-.88-.7v-1.92h-4.14v1.92h4.14Zm2.36-5.65h-1.5v2.51h-.88v-5.52h.88v2.3h1.5v.71Z"/><path class="cls-2" d="M37.9,93.42c-.04,3.76-1.7,5.47-4.04,6.75l-.57-.65c2.5-1.4,3.65-2.96,3.67-5.37h-3.35v-.73h4.28Zm2.68,8.73h-.87v-9.42h.87v9.42Z"/><path class="cls-2" d="M50.43,97.4v.74h-8.71v-.74h8.71Zm-1.17,4.69h-6.35v-3.19h6.35v3.19Zm-6.3-5.45v-2.25h5.35v-.78h-5.35v-.73h6.21v2.22h-5.34v.81h5.56v.73h-6.44Zm5.41,4.75v-1.77h-4.57v1.77h4.57Z"/><path class="cls-2" d="M50.56,99.41c.65,0,1.25,0,1.87,0v-3.03h.89v3c1.21-.04,2.27-.11,3.17-.2v.71c-1.55,.24-3.73,.28-5.94,.28v-.75Zm5.24-5.98c-.08,1.69-.18,2.83-.43,4.4h-.86c.22-1.22,.3-2.5,.37-3.67h-3.83v-.73h4.75Zm2.16-.7v3.6h1.54v.75h-1.54v5.07h-.87v-9.42h.87Z"/><path class="cls-2" d="M70.52,96.66v.72h-8.71v-.72h8.71Zm-.94,5.53h-6.57v-2.38h5.43v-.96h-5.43v-.69h6.35v2.33h-5.43v1.02h5.65v.68Zm-6.52-6.45v-2.89h6.31v.73h-5.44v1.45h5.51v.71h-6.39Z"/><path class="cls-2" d="M75.63,93.42c-.04,3.76-1.7,5.47-4.04,6.75l-.57-.65c2.5-1.4,3.65-2.96,3.67-5.37h-3.35v-.73h4.28Zm2.68,8.73h-.87v-9.42h.87v9.42Z"/><path class="cls-2" d="M88.16,97.4v.74h-8.71v-.74h8.71Zm-1.17,4.69h-6.35v-3.19h6.35v3.19Zm-6.3-5.45v-2.25h5.35v-.78h-5.35v-.73h6.21v2.22h-5.34v.81h5.56v.73h-6.44Zm5.41,4.75v-1.77h-4.57v1.77h4.57Z"/><path class="cls-2" d="M50.8,107.24h2.14v.7h-2.14v.2c0,1.45,1.21,2.17,2.35,2.63l-.39,.67c-.79-.33-1.9-1.09-2.4-1.91-.44,.98-1.45,1.64-2.38,2.12l-.5-.57c1.21-.6,2.43-1.41,2.43-2.93v-.21h-2.15v-.7h2.15v-1.06h.89v1.06Zm4.41,8.46h-6.02v-3.39h6.02v3.39Zm-.88-.7v-1.97h-4.26v1.97h4.26Zm.88-3.19h-.88v-2.3h-1.71v-.72h1.71v-2.45h.88v5.47Z"/><path class="cls-2" d="M60.73,107.04c-.05,3.76-1.67,5.46-3.99,6.74l-.58-.65c2.5-1.4,3.61-2.95,3.62-5.36h-3.29v-.73h4.23Zm2.66-.69v3.6h1.64v.76h-1.64v5.06h-.87v-9.42h.87Z"/></g><g><path d="M50.64,41.57c-.89-1.33-1.39-2.79-1.5-4.34-.02-.28-.04-.62,.45-.81,.48-.19,.72-.59,.72-1.18v-2.29c0-1.37,0-2.73,0-4.1,0-.79-.48-1.28-1.25-1.29-1.34,0-2.7-.01-4.09-.01s-2.71,0-4.09,.01c-.79,0-1.25,.47-1.26,1.27-.01,1.4,0,2.81,0,4.21,0,.75,0,1.5,0,2.25,0,.51,.22,.87,.72,1.17,.21,.12,.43,.44,.42,.71-.03,1.35-.4,2.62-1.1,3.77-.52,.85-1.12,1.74-1.9,2.81-1.37,1.88-2.04,3.96-2.03,6.37,.01,2.88,0,5.77,0,8.65v7.25c0,3.12,0,6.25,0,9.37,0,1.42,.73,2.15,2.16,2.15,4.71,0,9.43,0,14.14,0,1.45,0,2.15-.7,2.15-2.15,0-3.45,0-6.9,0-10.35,0-5.02,0-10.03,0-15.05,0-2.34-.66-4.39-2.02-6.25-.46-.63-1-1.39-1.52-2.17Zm-10.15-13.13l.42-.03c.31-.02,.6-.02,.89-.02,.57,0,1.14,0,1.72,0,1.66,0,3.37,0,5.05-.02,.36,0,.59,.06,.74,.22,.19,.2,.19,.5,.17,.73-.03,.36-.02,.74-.02,1.13,0,.18,0,.37,0,.56v.2h-.85c-.49,0-.96,0-1.43,0-.41,0-.63,.1-.83,.43-.28,.45-.8,.72-1.38,.72h0c-.6,0-1.13-.28-1.41-.74-.19-.31-.4-.42-.78-.41-.48,0-.96,0-1.44,0h-.47c-.05,0-.1-.02-.15-.03l-.23-.06v-2.69Zm.02,7.18v-3.53h.68c.42,0,.86-.01,1.29,.01,.22,.01,.42,.18,.57,.33,1.07,1.03,2.74,1.03,3.82,0,.19-.18,.48-.31,.75-.33,.38-.03,.77-.02,1.15-.02,.15,0,.31,0,.47,0h.2v3.53h-8.93Zm8.6,5.36l-4.16,3.47-4.13-3.47,1.03-4.4h6.23l1.04,4.4Zm4.16,34.91c-.02,.33-.49,.61-.69,.71-.13,.07-.28,.08-.42,.08-.06,0-.12,0-.18,0-.05,0-.11,0-.16,0-4.56,0-9.13,0-13.69,0-.63,0-1.01-.05-1.25-.29-.24-.24-.28-.64-.28-1.27,0-.86,0-1.72,.01-2.58,0-.06,.02-.11,.04-.16l.08-.22h16.57v1.09c0,.87,.01,1.77-.03,2.66Zm-16.65-4.68v-4.92h16.66v4.92h-16.66Zm16.69-21.46c.02,3.86,.02,7.72,.01,11.58v3.41c0,.08,0,.17-.02,.27l-.02,.36h-16.65l-.02-.4c0-.16-.02-.31-.02-.46v-4.7c0-3.25,0-6.49,0-9.74,0-2.25,.62-4.18,1.92-5.91,.38-.51,.75-1.04,1.13-1.57,.17-.25,.35-.5,.53-.75l.13-.18,4.05,3.4q.61,.51,1.25-.01l4.08-3.4,.12,.19c.32,.49,.67,.97,1,1.43,.91,1.25,1.85,2.54,2.22,4.13,.19,.83,.29,1.62,.3,2.35Z"/><path d="M73.9,50.55c-1.95-2.38-2.8-5.19-2.59-8.57,.02-.29,.25-.6,.47-.73,.48-.3,.69-.62,.69-1.06,0-1.28,.01-2.66,0-4.05,0-.56-.3-.95-.82-1.07-.56-.14-.61-.49-.6-.84,.01-.92,.01-1.84,0-2.76,0-.58-.11-.68-.68-.69-1.08,0-2.15,0-3.23,0s-2.15,0-3.23,0c-.57,0-.67,.1-.67,.68,0,.33,0,.67,0,1,0,.63,0,1.26-.02,1.89,0,.25-.22,.56-.45,.64-.75,.29-.99,.62-.99,1.36,0,.54,0,1.08,0,1.62,0,.67,0,1.34,0,2.01,0,.61,.24,1.01,.79,1.3,.19,.1,.4,.37,.41,.61,.06,1.78,.06,3.66-.75,5.4-.54,1.16-1.27,2.39-2.24,3.76-1.43,2.01-2.11,4.15-2.09,6.55,.02,1.93,.01,3.89,.01,5.79,0,.84,0,1.68,0,2.52v2.74c0,2.22,0,4.44,0,6.66,0,1.54,.7,2.23,2.25,2.23,4.63,0,9.26,0,13.9,0,1.61,0,2.3-.69,2.3-2.32,0-1.68,0-3.36,0-5.04-.01-3.91-.02-7.96,.03-11.93,.04-3.08-.78-5.59-2.49-7.69Zm-9.78-18.87h6.03v3.26h-6.03v-3.26Zm-1.35,8.65c-.1-.1-.15-.25-.15-.45,0-.89,0-1.78,0-2.69v-1.3s8.97,0,8.97,0v4.59h-8.24s-.04,0-.06,0c-.21,0-.39-.01-.53-.15Zm1.08,1.45c0-.05,.01-.1,.03-.15l.06-.25h6.49v.44c0,.16,0,.32,0,.48-.04,1.88,.18,3.51,.66,4.96,.09,.26-.07,.65-.26,.82-.6,.52-1.22,1.04-1.83,1.55-.47,.39-.94,.79-1.41,1.19-.16,.14-.31,.21-.46,.21s-.31-.07-.48-.22c-.49-.42-.99-.84-1.49-1.26-.57-.48-1.14-.96-1.7-1.44-.18-.15-.39-.51-.3-.76,.66-1.88,.72-3.78,.69-5.57Zm-5.03,24.51h16.65v4.92h-16.65v-4.92Zm16.67,9.46c-.01,.5-.35,.84-.9,.9-.15,.02-.29,.02-.44,.02h-13.91c-1.18,0-1.45-.27-1.45-1.45v-3.07h16.71v1.18c0,.81,0,1.62,0,2.42Zm.02-10.97c0,.09-.01,.18-.03,.28l-.04,.31h-16.58v-.2c0-.9,0-1.81-.01-2.71-.01-2.16-.03-4.39,.04-6.58,.05-1.63,.9-3.03,1.54-3.95l2.3-3.3,3.58,3c.1,.08,.2,.16,.29,.25,.35,.36,.63,.35,1.05-.01,.77-.67,1.57-1.33,2.34-1.97l.86-.72c.12-.1,.24-.19,.36-.29l.33-.26,.12,.18c.27,.39,.54,.77,.8,1.16,.61,.88,1.19,1.71,1.74,2.58,.84,1.32,1.27,2.87,1.27,4.61,0,2.01,0,4.03,0,6.04v1.58Z"/></g></g></svg>