<?xml version="1.0" encoding="UTF-8"?><svg id="_레이어_2" xmlns="http://www.w3.org/2000/svg" viewBox="0 0 334.75 11.65"><defs><style>.cls-1{fill:#595757;}</style></defs><g id="_레이어_1-2"><g><path class="cls-1" d="M7.36,8.44c-.61-.52-1.49-1.93-1.62-2.65-.16,.76-1.07,2.33-1.64,2.84-.65-.53-1.47-1.94-1.69-2.86-.24,1.02-1.06,2.17-1.76,2.76l-.65-.58c1.2-1.01,1.96-2.66,1.96-4.29V1.7H.48V.96H3.81v.74h-.95v1.97c0,1.67,.6,3,1.22,3.81,.59-.88,1.19-2.19,1.19-3.81V1.7h-.94V.96h3.16v.74h-1.32v1.97c0,1.71,.6,3.09,1.67,4.05l-.48,.72Zm3.88-3.59h-1.79v6.5h-.88V.11h.88v3.96h1.79v.79Z"/><path class="cls-1" d="M17.45,8.53c-.96-.56-2.31-1.54-2.93-3.07-.56,1.57-1.75,2.54-3,3.32l-.58-.65c1.66-.95,3.11-2.4,3.11-4.43V1.7h-2.49V.96h5.93v.74h-2.51V3.75c0,1.93,1.44,3.31,2.91,4.04l-.44,.73Zm2.6,2.83h-.89V.11h.89V11.36Z"/><path class="cls-1" d="M27.17,.25c1.79,0,2.88,1.26,2.88,2.67s-1.02,2.7-2.88,2.7-2.89-1.25-2.89-2.7,1.11-2.67,2.89-2.67Zm2,2.67c0-1.01-.72-1.93-2-1.93-1.38,0-2.01,.92-2.01,1.93s.6,1.94,2.01,1.94c1.32,0,2-.9,2-1.94Zm-.58,8.23c-.8,.14-2.16,.12-3.18,.12V6.93h.88v3.59c.69,0,1.56-.01,2.29-.1v.73Zm5.06-3.2h-5.02v-.68h2.06v-1.21h.91v1.21h2.06v.68Zm-.34,2.09c0,.92-.67,1.61-2.15,1.61s-2.14-.7-2.14-1.61,.69-1.62,2.14-1.62,2.15,.71,2.15,1.62Zm-.85,.01c0-.61-.49-1.02-1.29-1.02s-1.33,.42-1.33,1.01,.51,.97,1.32,.97,1.31-.37,1.31-.96ZM32.8,.11V2.35h1.81v.77h-1.81v2.45h-.89V.11h.89Z"/><path class="cls-1" d="M44.88,9.46h-10.36v-.76h3.82V4.58h.91v4.13h5.63v.76Zm-2.85-2.32c.31-1.59,.52-3.65,.52-5.43h-6.67V.96h7.65c-.07,2.41-.29,4.38-.6,6.19h-.89Z"/><path class="cls-1" d="M58.17,9.46h-10.36v-.76h3.82V4.58h.91v4.13h5.63v.76Zm-2.85-2.32c.31-1.59,.52-3.65,.52-5.43h-6.67V.96h7.65c-.07,2.41-.29,4.38-.6,6.19h-.89Z"/><path class="cls-1" d="M68.52,9.64h-10.36v-.75h4.72v-2.88h.92v2.88h4.73v.75ZM63.81,1.63c0,1.86,2.44,3.57,4,4.08l-.55,.68c-1.38-.5-3.31-1.9-3.91-3.3-.67,1.4-2.31,2.7-3.89,3.3l-.55-.68c1.59-.52,3.93-2.22,3.93-4.08V.56h.98V1.63Z"/><path class="cls-1" d="M74.95,2.09h-6.62v-.72h2.85V0h.94V1.37h2.83v.72Zm-3.31,5.05c-1.64,0-2.69-1.03-2.69-2.23s1.07-2.17,2.71-2.17,2.67,.94,2.67,2.17-.99,2.23-2.68,2.23Zm-1.8-2.24c0,.84,.6,1.54,1.81,1.54s1.79-.65,1.79-1.54c0-.84-.58-1.48-1.79-1.48s-1.81,.64-1.81,1.48Zm7.72,6.28h-7.33v-3.26h.91v2.51h6.42v.75Zm-.39-11.07V3.81h1.81v.77h-1.81v3.69h-.88V.11h.88Z"/><path class="cls-1" d="M88.32,6.01c-1.01-.4-2.44-1.28-2.93-2.39-.51,1.29-1.76,2.09-2.91,2.67l-.52-.6c1.45-.72,2.95-1.7,2.95-3.56V.43h.92v1.69c0,1.8,1.53,2.65,2.88,3.2l-.4,.68Zm2.75,5.41h-.88v-3.3h-6.45v-.76h7.33v4.05Zm.01-4.8h-.88V.11h.88V6.62Z"/><path class="cls-1" d="M99.02,5.94c-1.35,.14-2.85,.24-6.49,.24V.58h5.19v.73h-4.29v1.64h4.18v.74h-4.18v1.74c2.49,0,4.35-.08,5.6-.21v.72Zm1.67,5.48h-.89v-3.2h-6.31v-.74h7.2v3.95Zm1.81-7.86h-1.81v3.27h-.89V.11h.89V2.81h1.81v.76Z"/><path class="cls-1" d="M105.64,6.3c2.27,.01,5.69-.07,7.63-.28v.74c-.94,.14-2.26,.23-3.66,.26v3.97h-.89v-3.95c-1.05,.02-2.11,.02-3.08,.02v-.78Zm6.59-3.62c0,1.46-1.27,2.35-2.98,2.35s-2.98-.86-2.98-2.35,1.35-2.38,2.98-2.38,2.98,.85,2.98,2.38Zm-2.98-1.64c-1.19,0-2.12,.67-2.12,1.63s.92,1.62,2.12,1.62c1.27,0,2.11-.66,2.11-1.62s-.88-1.63-2.11-1.63Zm5.6,10.33h-.88V.11h.88V11.36Z"/><path class="cls-1" d="M115.99,8.09c2.27,.01,5.69-.07,7.63-.28v.74c-1.8,.26-5.04,.31-7.63,.31v-.78Zm3.56-1.99c-1.73,0-3.04-1.12-3.04-2.72s1.33-2.71,2.98-2.71c1.82,0,2.98,1.24,2.98,2.75s-1.12,2.69-2.92,2.69Zm2.01-2.71c0-1.16-.78-1.94-2.07-1.94s-2.08,.88-2.08,1.94c0,1.15,.8,1.94,2.11,1.94s2.05-.78,2.05-1.94Zm3.65,7.96h-.88V.11h.88V11.36Z"/><path class="cls-1" d="M134.39,5.59h-5.07V.56h.87v1.71h3.33V.56h.87V5.59Zm-.87-.76v-1.79h-3.33v1.79h3.33Zm4.12,6.46h-6.96V6.7h.89v1.52h5.18v-1.52h.89v4.59Zm-.89-.73v-1.61h-5.18v1.61h5.18Zm2.68-7.35h-1.81v2.85h-.89V.11h.89V2.46h1.81v.76Z"/><path class="cls-1" d="M145.05,6.75v2.13h4.73v.75h-10.36v-.75h4.72v-2.13h.92Zm-4.16-.9V.8h7.47v.76h-6.59v3.54h6.74v.76h-7.62Z"/><path class="cls-1" d="M160.13,6.1h-4.74v1.56h3.29v3.75h-.89v-3h-6.73v-.76h3.4v-1.56h-4.69v-.77h10.36v.77Zm-8.87-2.11V.4h7.45v.77h-6.56V3.24h6.69v.75h-7.58Z"/><path class="cls-1" d="M160.84,9.46h1.26v1.22h-1.26v-1.22Zm.14-8.97h1.01l-.18,7.66h-.68l-.15-7.66Z"/><path class="cls-1" d="M171.16,5.59h-5.07V.56h.87v1.71h3.33V.56h.87V5.59Zm-.87-.76v-1.79h-3.33v1.79h3.33Zm4.12,6.46h-6.96V6.7h.89v1.52h5.18v-1.52h.89v4.59Zm-.89-.73v-1.61h-5.18v1.61h5.18Zm2.68-7.35h-1.81v2.85h-.89V.11h.89V2.46h1.81v.76Z"/><path class="cls-1" d="M184.75,5.77h-4.95V.66h4.95V5.77Zm-.88-.74V1.4h-3.2v3.62h3.2Zm4.41,6.39h-.89v-3.42h-6.44v-.77h7.33v4.19Zm.01-4.82h-.89V3.41h-2.06v-.76h2.06V.11h.89V6.6Z"/><path class="cls-1" d="M199.83,6.54h-10.36v-.76h10.36v.76Zm-1.02,4.64h-7.91v-3.37h.89v2.62h7.01v.75Zm-.22-6.88h-7.62V.25h.88V3.53h6.74v.77Z"/><path class="cls-1" d="M213.12,9.64h-10.36v-.75h4.72v-2.88h.92v2.88h4.73v.75Zm-4.71-8.01c0,1.86,2.44,3.57,4,4.08l-.55,.68c-1.38-.5-3.31-1.9-3.91-3.3-.67,1.4-2.31,2.7-3.89,3.3l-.55-.68c1.59-.52,3.93-2.22,3.93-4.08V.56h.98V1.63Z"/><path class="cls-1" d="M220.25,8.33c-1.99,.24-4.38,.28-6.27,.28V4.23h4V1.58h-4V.84h4.88V4.98h-3.99v2.82c2.15,0,3.48-.06,5.38-.2v.74Zm2.09,3.02h-.89V.11h.89V11.36Z"/><path class="cls-1" d="M226.65,.96c0,3.65-.75,5.67-2.76,7.36l-.64-.56c2.08-1.59,2.49-3.54,2.49-6.06h-2.07V.96h2.98Zm3.22,0c0,3.43-.41,6.09-2.88,8.23l-.65-.55c2.36-1.98,2.6-4.32,2.6-6.93h-1.81V.96h2.74Zm2.33-.85V4.35h1.96v.78h-1.96v6.22h-.88V.11h.88Z"/><path class="cls-1" d="M240.38,8.53c-.96-.56-2.31-1.54-2.93-3.07-.56,1.57-1.75,2.54-3,3.32l-.58-.65c1.66-.95,3.11-2.4,3.11-4.43V1.7h-2.49V.96h5.93v.74h-2.51V3.75c0,1.93,1.44,3.31,2.91,4.04l-.44,.73Zm2.6,2.83h-.89V.11h.89V11.36Z"/><path class="cls-1" d="M257.45,5.29h-10.36v-.74h10.36v.74Zm-1.31-1.5c-1.82-.36-3.19-1.04-3.88-1.98-.61,.94-2.13,1.63-3.86,1.98l-.44-.65c1.82-.31,3.44-.96,3.81-2.13h-3.26V.28h7.48v.73h-3.25c.39,1.2,2.05,1.81,3.81,2.13l-.42,.65Zm.16,7.63h-7.79v-2.79h6.54v-1.35h-6.54v-.72h7.48v2.76h-6.52v1.4h6.82v.71Z"/><path class="cls-1" d="M263.08,.62c-.2,3.29-2.41,4.56-4.85,5.42l-.46-.67c2.29-.77,4.11-1.94,4.33-4.02h-3.76V.62h4.74Zm3.53,10.67h-7.09V6.57h.89v1.59h5.31v-1.59h.89v4.73Zm-.89-.73v-1.67h-5.31v1.67h5.31Zm.89-4.62h-.89V3.57h-2.29v-.75h2.29V.11h.89V5.95Z"/><path class="cls-1" d="M272.28,1.02c-.01,3.93-1.46,6.06-3.89,7.81l-.69-.55c2.14-1.52,3.65-3.36,3.65-6.5h-3.13v-.75h4.07Zm2.58,9.98h-.87V5.16h-1.83v-.79h1.83V.17h.87V11Zm2.25,.36h-.87V.11h.87V11.36Z"/><path class="cls-1" d="M286.65,2.81h-5.79v-.74h2.44V.25h.93v1.81h2.42v.74Zm-.35,3.37c0,1.73-.99,2.72-2.55,2.72s-2.55-1.07-2.55-2.72,1-2.66,2.55-2.66,2.55,1.02,2.55,2.66Zm-.85-.01c0-1.13-.54-1.9-1.71-1.9s-1.71,.77-1.71,1.9c0,1.2,.55,1.99,1.71,1.99s1.71-.79,1.71-1.99Zm5.21,5.19h-.88V5.25h-1.52v5.75h-.88V.17h.88V4.44h1.52V.11h.88V11.36Z"/><path class="cls-1" d="M301.79,9.58h-10.36v-.76h10.36v.76Zm-8.89-3.42V.86h7.47v.76h-6.59v3.78h6.74v.77h-7.62Z"/><path class="cls-1" d="M308.97,5.49c-1.68,.2-4.55,.24-6.33,.24V2.75h3.92V1.31h-3.92V.58h4.8V3.47h-3.92v1.52c1.6,0,3.6-.01,5.45-.23v.73Zm1.98,5.8h-7.09V6.68h.89v1.54h5.31v-1.54h.89v4.62Zm-.89-.73v-1.62h-5.31v1.62h5.31Zm.89-4.47h-.89V.11h.89V6.09Z"/><path class="cls-1" d="M319.36,7.93c-1.88,.26-4.38,.26-6.22,.26V.83h.91V7.4c2.05,0,3.72-.05,5.32-.24v.77Zm1.89,3.43h-.89V.11h.89V11.36Z"/><path class="cls-1" d="M329.23,8.01c-1.98,.29-4.42,.26-6.4,.26V.96h5.27v.74h-4.36V7.48c1.46,0,3.65,.01,5.49-.24v.77Zm3.75-3.27h-1.96v6.62h-.89V.11h.89V3.95h1.96v.79Z"/><path class="cls-1" d="M333.49,9.29h1.26v1.22h-1.26v-1.22Z"/></g></g></svg>