<?xml version="1.0" encoding="UTF-8"?><svg id="_레이어_2" xmlns="http://www.w3.org/2000/svg" viewBox="0 0 364.4 138"><defs><style>.cls-1{fill:none;stroke:#f5f5f5;stroke-miterlimit:10;stroke-width:2px;}.cls-2{fill:#231815;}</style></defs><g id="_레이어_1-2"><rect class="cls-1" x="1" y="1" width="110" height="136" rx="15.22" ry="15.22"/><rect class="cls-1" x="127.2" y="1" width="110" height="136" rx="15.22" ry="15.22"/><rect class="cls-1" x="253.4" y="1" width="110" height="136" rx="15.22" ry="15.22"/><g><path class="cls-2" d="M298.12,92.89c1.52,0,2.47,1.04,2.47,2.26s-.88,2.25-2.47,2.25-2.46-1.04-2.46-2.25,.95-2.26,2.46-2.26Zm1.59,2.26c0-.82-.56-1.53-1.59-1.53-1.08,0-1.58,.71-1.58,1.53s.47,1.53,1.58,1.53c1.04,0,1.59-.71,1.59-1.53Zm3.5,6.94h-6.02v-3.55h6.02v3.55Zm-.88-.7v-2.14h-4.25v2.14h4.25Zm-1.43-6.63h1.43v-2.03h.88v5.27h-.88v-2.52h-1.43v-.72Z"/><path class="cls-2" d="M309.05,93.18c-.1,3-2.14,4.27-4.11,4.98l-.45-.65c1.87-.7,3.47-1.78,3.61-3.62h-3.12v-.71h4.07Zm2.91,9.01h-.87v-2.69h-5.34v-.73h6.21v3.42Zm0-3.96h-.87v-1.28h-1.88v-.73h1.88v-1.4h-1.81v-.72h1.81v-1.37h.87v5.5Z"/><path class="cls-2" d="M318.54,94.46h-5.61v-.69h2.35v-1.14h.91v1.14h2.35v.69Zm-2.8,4.19c-1.4,0-2.3-.88-2.3-1.91s.92-1.85,2.31-1.85,2.27,.81,2.27,1.85-.84,1.91-2.28,1.91Zm-1.43-1.92c0,.67,.48,1.23,1.44,1.23s1.41-.52,1.41-1.23c0-.65-.46-1.16-1.41-1.16s-1.44,.51-1.44,1.16Zm6.39,5.27h-6.2v-2.71h.88v1.97h5.32v.74Zm-.31-9.27v3.07h1.5v.73h-1.5v3.06h-.88v-6.86h.88Z"/><path class="cls-2" d="M299.71,111.63h-3.9v1.01h2.73v3.06h-6.35v-3.06h2.69v-1.01h-3.89v-.74h8.71v.74Zm-7.86-1.67v-.72h1.43l-.16-1.54h.87l.15,1.54h2.44l.12-1.54h.92l-.18,1.54h1.42v.72h-7.01Zm.21-2.66v-.74h6.58v.74h-6.58Zm5.58,7.7v-1.65h-4.57v1.65h4.57Z"/><path class="cls-2" d="M305.29,110.8c-.79-.32-1.9-1.03-2.39-1.85-.45,.97-1.46,1.59-2.39,2.07l-.5-.57c1.2-.6,2.42-1.34,2.42-2.87v-.21h-1.94v-.7h4.76v.7h-1.93v.2c0,1.47,1.21,2.13,2.35,2.59l-.38,.64Zm2.6,5h-6.32v-2.46h5.16v-1.04h-5.16v-.68h6.07v2.41h-5.16v1.09h5.41v.68Zm-.21-4.74h-.88v-4.72h.88v4.72Z"/><path class="cls-2" d="M308.55,111c.67,0,1.32,0,1.96-.02v-2.04h.88v2.02c1.16-.03,2.21-.11,3.11-.19v.69c-1.55,.24-3.73,.27-5.95,.27v-.73Zm5.25-4.18c-.03,.94-.19,2.51-.29,3.17h-.89c.12-.67,.23-1.77,.25-2.46h-3.75v-.71h4.69Zm2.48,8.79h-6.3v-2.89h.88v2.15h5.42v.74Zm1.21-5.58h-1.5v3.09h-.88v-6.78h.88v2.97h1.5v.72Z"/><path class="cls-2" d="M323.62,113.24c-1.72,.19-3.79,.24-5.36,.24v-3.73h3.25v-2.09h-3.25v-.73h4.11v3.53h-3.25v2.27c1.75,0,2.97-.08,4.5-.2v.71Zm1.64,2.52h-.88v-9.42h.88v9.42Z"/></g><g><path d="M326.98,50.9h-2.36s0-3.3,0-3.3c0-.21-.16-.37-.37-.37h-13.33v-2.88h4.15c.44,0,.79-.35,.79-.79V26.69c0-.44-.36-.79-.79-.79h-7.27c-.06,.01-.09,.02-.12,.03-.08,.03-.12,.06-.14,.08l-5.58,5.58s-.05,.06-.07,.11c-.02,.07-.03,.1-.03,.13l-.02,.09v10.91c0,.41,.17,.8,.46,1.09,.29,.29,.68,.45,1.09,.45h6.79v2.88h-13.33c-.19,0-.35,.15-.37,.34v.11s0,0,0,0v3.22h-2.8c-.06,0-.09,.02-.12,.03-.08,.03-.12,.05-.14,.08l-4.18,4.18s-.05,.06-.07,.11c-.02,.07-.03,.1-.03,.13l-.02,.09v8.15c0,.69,.57,1.24,1.25,1.24h8.74c.38,0,.69-.31,.69-.69v-12.63c0-.38-.31-.69-.69-.69h-1.9s0-2.93,0-2.93h12.96v2.93h-2.58c-.05,0-.09,.02-.12,.03-.08,.03-.12,.06-.14,.08l-4.17,4.18s-.05,.06-.07,.11c-.02,.07-.03,.1-.03,.13l-.02,.09v8.15c0,.69,.57,1.24,1.25,1.24h8.74c.38,0,.69-.31,.69-.69v-12.63c0-.38-.31-.69-.69-.69h-2.13s0-2.93,0-2.93h12.96v2.93h-2.37s-.06,.02-.1,.03c-.08,.03-.12,.06-.14,.08l-4.17,4.18s-.05,.06-.07,.11c-.02,.07-.03,.1-.03,.13l-.02,.09v8.15c0,.69,.57,1.24,1.25,1.24h8.74c.38,0,.69-.31,.69-.69v-12.63c0-.38-.31-.69-.69-.69Zm-33.66,1.26v2.92s-2.92,0-2.92,0l2.92-2.92Zm5.76-.52v12.53s-8.69,0-8.69,0c-.28,0-.51-.23-.51-.51v-7.85s3.81,0,3.81,0c.1,0,.19-.04,.26-.11,.07-.07,.11-.16,.11-.26v-3.81s5.02,0,5.02,0Zm8.35-24.49v4.32s-4.32,0-4.32,0l4.32-4.32Zm-.19,25.01v2.92s-2.92,0-2.92,0l2.92-2.92Zm5.76-.52v12.53s-8.69,0-8.69,0c-.28,0-.51-.23-.51-.51v-7.85h3.81c.2,0,.37-.17,.37-.37v-3.81s5.02,0,5.02,0Zm-9.61-8.02c-.21,0-.41-.08-.57-.23-.15-.15-.23-.35-.23-.57v-10.61s5.21,0,5.21,0c.1,0,.19-.04,.26-.11,.07-.07,.11-.16,.11-.26v-5.21s6.96,0,6.96,0v16.99s-11.74,0-11.74,0Zm17.78,8.54v2.92h-2.92l2.92-2.92Zm-2.93,12.01c-.28,0-.51-.23-.51-.51v-7.85h3.81c.2,0,.37-.17,.37-.37v-3.81h5.02s0,12.53,0,12.53h-8.69Z"/><path d="M305.18,36.1h7.36c.26,0,.47-.21,.47-.47s-.21-.47-.47-.47h-7.36c-.26,0-.47,.21-.47,.47s.21,.47,.47,.47Z"/><path d="M305.18,38.73h7.36c.26,0,.47-.21,.47-.47s-.21-.47-.47-.47h-7.36c-.26,0-.47,.21-.47,.47s.21,.47,.47,.47Z"/><path d="M305.18,41.37h7.36c.26,0,.47-.21,.47-.47s-.21-.47-.47-.47h-7.36c-.26,0-.47,.21-.47,.47s.21,.47,.47,.47Z"/><path d="M297.51,68.89l-2.93,3.76c-.06,.07-.14,.09-.18,.09-.06,.01-.15-.02-.2-.09l-1.06-1.32c-.07-.09-.18-.14-.29-.14-.08,0-.17,.03-.23,.08-.16,.13-.19,.37-.06,.53l1.06,1.32c.19,.24,.47,.37,.77,.37,.31,0,.59-.14,.78-.38l2.93-3.76c.06-.08,.09-.18,.08-.28s-.06-.19-.14-.25c-.16-.13-.4-.1-.53,.07Z"/><path d="M297.19,72.55c-.21,0-.38,.17-.38,.38v1.86c0,.13-.11,.24-.24,.24h-4.82c-.13,0-.24-.11-.24-.24v-4.82c0-.13,.11-.24,.24-.24h3.54c.21,0,.38-.17,.38-.38s-.17-.38-.38-.38h-3.54c-.55,0-.99,.44-.99,.99v4.82c0,.55,.44,.99,.99,.99h4.82c.55,0,.99-.44,.99-.99v-1.86c0-.21-.17-.38-.38-.38Z"/><path d="M311.43,68.89l-2.93,3.76c-.04,.06-.11,.09-.18,.09-.07,.01-.15-.02-.2-.09l-1.06-1.32c-.07-.09-.18-.14-.29-.14-.08,0-.17,.03-.24,.08-.08,.06-.13,.15-.14,.25-.01,.1,.02,.2,.08,.28l1.06,1.32c.19,.24,.47,.37,.77,.37,.31,0,.59-.14,.78-.38l2.93-3.76c.06-.08,.09-.18,.08-.28-.01-.1-.06-.19-.14-.25-.16-.13-.4-.1-.53,.07Z"/><path d="M311.12,72.55c-.21,0-.38,.17-.38,.38v1.86c0,.13-.11,.24-.24,.24h-4.82c-.13,0-.24-.11-.24-.24v-4.82c0-.13,.11-.24,.24-.24h3.54c.21,0,.38-.17,.38-.38s-.17-.38-.38-.38h-3.54c-.55,0-.99,.44-.99,.99v4.82c0,.55,.44,.99,.99,.99h4.82c.55,0,.99-.44,.99-.99v-1.86c0-.21-.17-.38-.38-.38Z"/><path d="M325.36,68.89l-2.93,3.76c-.06,.07-.14,.09-.18,.09-.06,.01-.15-.02-.2-.09l-1.06-1.32c-.07-.09-.18-.14-.29-.14-.08,0-.17,.03-.23,.08-.16,.13-.19,.37-.06,.53l1.06,1.32c.19,.24,.47,.37,.77,.37,.31,0,.59-.14,.78-.38l2.93-3.76c.06-.08,.09-.18,.08-.28s-.06-.19-.14-.25c-.17-.13-.4-.1-.53,.07Z"/><path d="M325.04,72.55c-.21,0-.38,.17-.38,.38v1.86c0,.13-.11,.24-.24,.24h-4.82c-.13,0-.24-.11-.24-.24v-4.82c0-.13,.11-.24,.24-.24h3.54c.21,0,.38-.17,.38-.38s-.17-.38-.38-.38h-3.54c-.55,0-.99,.44-.99,.99v4.82c0,.55,.44,.99,.99,.99h4.82c.55,0,.99-.44,.99-.99v-1.86c0-.21-.17-.38-.38-.38Z"/></g><g><path class="cls-2" d="M34.58,99.63h-4.36v-6.21h4.36v6.21Zm-.86-.73v-4.75h-2.64v4.75h2.64Zm2.77-6.17h.88v9.42h-.88v-9.42Z"/><path class="cls-2" d="M41.09,92.94c1.52,0,2.47,1.07,2.47,2.28s-.88,2.27-2.47,2.27-2.46-1.05-2.46-2.27,.95-2.28,2.46-2.28Zm1.59,2.28c0-.82-.56-1.55-1.59-1.55s-1.58,.73-1.58,1.55,.47,1.54,1.58,1.54c1.04,0,1.59-.71,1.59-1.54Zm3.48,6.97h-.87v-2.89h-5.33v-.71h6.2v3.6Zm-2.43-8.38h1.57v-1.08h.88v5.29h-.88v-1.25h-1.57v-.7h1.57v-1.54h-1.57v-.72Z"/><path class="cls-2" d="M52.29,97.92h-1.17v-1.09h1.17v1.09Z"/><path class="cls-2" d="M61.93,99.38c-1.61,.23-3.3,.23-5.28,.23v-6.19h4.49v.73h-3.61v4.7c1.47,0,2.94,0,4.41-.2v.73Zm3.25-2.71h-1.64v5.48h-.87v-9.42h.87v3.17h1.64v.77Z"/><path class="cls-2" d="M68.54,93.15v2.57c0,1.59,1.23,2.74,2.47,3.35l-.43,.68c-.8-.46-1.94-1.23-2.48-2.43-.5,1.22-1.52,1.99-2.55,2.65l-.55-.62c1.38-.79,2.62-2,2.62-3.65v-2.55h.91Zm4.45,9h-.88v-9.42h.88v9.42Z"/><path class="cls-2" d="M78.59,99.63h-4.43v-6.21h4.43v6.21Zm-.88-.73v-4.75h-2.67v4.75h2.67Zm5.1-2.25h-1.63v5.5h-.87v-9.42h.87v3.15h1.63v.77Z"/><path class="cls-2" d="M26.57,111.53h-1.17v-1.09h1.17v1.09Z"/><path class="cls-2" d="M35.35,110.64h-4.17v-3.97h4.17v3.97Zm-.85-.71v-2.55h-2.47v2.55h2.47Zm4.06,5.87h-6.31v-2.42h5.16v-1.02h-5.16v-.67h6.06v2.38h-5.15v1.05h5.4v.68Zm-2.71-8.49h1.63v-.97h.87v4.78h-.87v-1.26h-1.63v-.7h1.63v-1.14h-1.63v-.71Z"/><path class="cls-2" d="M45.02,113.64c-.8-.48-1.87-1.32-2.4-2.46-.5,1.19-1.45,2-2.48,2.64l-.54-.6c1.39-.81,2.54-2,2.54-3.67v-1.1h-2.17v-.72h2.17v-1.39h.91v1.39h2.19v.72h-2.19v1.14c0,1.6,1.16,2.74,2.39,3.35l-.42,.7Zm2.18,2.12h-.88v-9.42h.88v9.42Z"/><path class="cls-2" d="M59.4,111.96h-3.79v1.87h-.87v-1.87h-4.05v-.72h8.71v.72Zm-.83,3.65h-6.68v-2.76h.89v2.02h5.79v.74Zm-6.63-5.31v-3.86h.86v1.27h4.52v-1.27h.86v3.86h-6.24Zm5.38-.74v-1.15h-4.52v1.15h4.52Z"/><path class="cls-2" d="M64.01,110.57h-4.28v-3.9h4.28v3.9Zm-.85-.72v-2.47h-2.57v2.47h2.57Zm3.81,5.95h-6.22v-2.48h5.09v-1.08h-5.09v-.69h5.99v2.46h-5.08v1.11h5.31v.68Zm1.25-7.04h-1.5v2.2h-.87v-4.62h.87v1.68h1.5v.74Z"/><path class="cls-2" d="M74.22,107.24h2.15v.7h-2.15v.2c0,1.45,1.21,2.17,2.35,2.63l-.39,.67c-.79-.33-1.9-1.09-2.4-1.91-.44,.98-1.45,1.64-2.38,2.12l-.5-.57c1.21-.6,2.43-1.41,2.43-2.93v-.21h-2.15v-.7h2.15v-1.06h.89v1.06Zm4.41,8.46h-6.01v-3.39h6.01v3.39Zm-.88-.7v-1.97h-4.26v1.97h4.26Zm.88-3.19h-.88v-2.3h-1.71v-.72h1.71v-2.45h.88v5.47Z"/><path class="cls-2" d="M84.15,107.04c-.05,3.76-1.67,5.46-3.99,6.74l-.58-.65c2.5-1.4,3.6-2.95,3.62-5.36h-3.29v-.73h4.23Zm2.67-.69v3.6h1.64v.76h-1.64v5.06h-.87v-9.42h.87Z"/></g><g><path class="cls-2" d="M168.2,93.94v.86c0,1.45,1.22,2.16,2.34,2.62l-.37,.68c-.79-.32-1.9-1.09-2.4-1.9-.45,.98-1.46,1.64-2.38,2.1l-.5-.56c1.21-.58,2.41-1.41,2.41-2.93v-.87h-1.93v-.7h4.76v.7h-1.93Zm4.66,8.06h-6.24v-3.02h.87v2.28h5.37v.74Zm-.22-2.6h-.88v-3.65h-1.9v-.73h1.9v-2.29h.88v6.67Z"/><path class="cls-2" d="M182.33,98.22h-8.71v-.73h3.91v-.85h-2.67v-3.76h6.19v.73h-5.32v.78h5.31v.7h-5.31v.82h5.41v.73h-2.71v.85h3.9v.73Zm-1.06,2.36c0,1.04-1.05,1.73-3.29,1.73s-3.27-.69-3.27-1.73,1.07-1.73,3.27-1.73,3.29,.67,3.29,1.73Zm-3.29-1.04c-1.47,0-2.33,.35-2.33,1.03s.86,1.04,2.33,1.04,2.33-.34,2.33-1.04-.86-1.03-2.33-1.03Z"/><path class="cls-2" d="M187.01,97.49h-4.34v-4.36h.86v1.48h2.62v-1.48h.86v4.36Zm-.86-.74v-1.42h-2.62v1.42h2.62Zm3.68,3.65c0,1.15-.92,1.91-3.07,1.91s-3.09-.75-3.09-1.91,.94-1.94,3.09-1.94,3.07,.77,3.07,1.94Zm-.9,0c0-.79-.78-1.26-2.16-1.26s-2.17,.47-2.17,1.26,.77,1.21,2.17,1.21,2.16-.42,2.16-1.21Zm2.23-4.74h-1.5v2.58h-.87v-5.52h.87v2.21h1.5v.73Z"/><path class="cls-2" d="M196.78,97.72c-.85-.32-1.99-1-2.44-1.88-.45,.99-1.5,1.63-2.44,2.12l-.5-.57c1.21-.62,2.47-1.42,2.47-2.94v-1.45h.89v1.44c0,1.46,1.26,2.18,2.41,2.63l-.39,.65Zm2.31,4.47h-.87v-2.69h-5.32v-.73h6.19v3.42Zm.01-3.96h-.87v-5.5h.87v5.5Z"/><path class="cls-2" d="M164.63,111.31c-.8-.31-1.89-1.06-2.38-1.89-.46,.97-1.47,1.64-2.4,2.12l-.5-.57c1.21-.61,2.42-1.41,2.42-2.94v-.53h-1.94v-.71h4.76v.71h-1.93v.52c0,1.46,1.21,2.18,2.36,2.62l-.39,.67Zm2.37,4.49h-.88v-2.69h-5.33v-.73h6.21v3.42Zm0-3.98h-.88v-5.48h.88v5.48Z"/><path class="cls-2" d="M167.87,113.64c.87,0,1.74,0,2.57-.03v-1.15h.89v1.12c.93-.03,1.81-.09,2.55-.18v.73c-1.55,.22-3.82,.25-6.01,.25v-.74Zm5.76-5.41h-5.59v-.72h2.38v-1.27h.9v1.27h2.31v.72Zm-2.76,3.89c-1.54,0-2.33-.79-2.33-1.78s.8-1.77,2.33-1.77,2.36,.79,2.36,1.78-.77,1.77-2.36,1.77Zm1.51-1.77c0-.59-.46-1.09-1.51-1.09-.98,0-1.5,.51-1.5,1.08,0,.61,.53,1.1,1.51,1.1,1.06,0,1.5-.47,1.5-1.09Zm3.03-4.01v4.23h1.54v.74h-1.54v4.45h-.87v-9.42h.87Z"/><path class="cls-2" d="M187.97,111.31v.74h-3.97v3.71h-.88v-3.71h-3.86v-.74h8.71Zm-2.52-.69c.18-.91,.35-2.32,.35-3.11h-5.35v-.73h6.3c0,1.51-.23,2.82-.39,3.84h-.91Z"/><path class="cls-2" d="M193.35,110.16c0,2.16-.89,3.32-2.44,3.32s-2.44-1.16-2.44-3.32,.96-3.33,2.44-3.33,2.44,1.1,2.44,3.33Zm-.87-.02c0-1.61-.48-2.59-1.56-2.59s-1.57,.96-1.57,2.59,.53,2.61,1.57,2.61c1.1,0,1.56-1.03,1.56-2.61Zm3.3,5.62h-.87v-9.42h.87v9.42Z"/><path class="cls-2" d="M201.82,106.8c-.11,2.89-2.18,4.07-4.16,4.77l-.44-.63c1.81-.64,3.54-1.68,3.66-3.43h-3.16v-.71h4.1Zm2.82,8.91h-6v-3.56h6v3.56Zm-.87-.7v-2.15h-4.25v2.15h4.25Zm.87-3.39h-.87v-5.27h.87v5.27Z"/></g><g><path d="M201.63,41.68h0s-2.76-2.76-2.76-2.76h0s0,0,0,0l-5.52-5.52s0,0,0,0c0,0,0,0,0,0l-2.76-2.76s0,0,0,0,0,0,0,0l-5.52-5.52s0,0,0,0c0,0,0,0,0,0l-1.1-1.1c-.35-.35-.82-.54-1.31-.54s-.96,.19-1.31,.54l-15.45,15.45c-.72,.72-.72,1.9,0,2.62l5.3,5.3c-.75,1.01-.71,2.49,.14,3.35l1.5,1.5-2.93,2.93c-.67-.36-1.53-.26-2.09,.31l-6.14,6.14c-.33,.33-.52,.78-.52,1.25s.18,.92,.52,1.25l.91,.91c.33,.33,.78,.52,1.25,.52s.92-.18,1.25-.52l6.14-6.14c.57-.57,.67-1.42,.31-2.09l2.93-2.93,1.5,1.5c.45,.45,1.08,.68,1.73,.68,.57,0,1.15-.18,1.62-.53l5.3,5.3c.36,.36,.84,.54,1.31,.54s.95-.18,1.31-.54l15.45-15.45c.72-.72,.72-1.9,0-2.62l-1.06-1.06Zm-6.29-5.26l-17.04,17.04-2.24-2.24,17.04-17.04,2.24,2.24Zm-2.76-2.76l-17.04,17.04-2.24-2.24,17.04-17.04,2.24,2.24Zm-26.16,7.92c-.44-.44-.44-1.15,0-1.59l15.45-15.45c.21-.21,.49-.33,.8-.33s.58,.12,.8,.33l.84,.84-17.04,17.04-.84-.84Zm1.36,1.36l17.04-17.04,2.24,2.24-17.04,17.04-2.24-2.24Zm2.76,2.76l17.04-17.04,2.24,2.24-17.04,17.04-.82-.82s0,0,0,0c0,0,0,0,0,0l-1.42-1.42Zm-.56,10.45l.59,.59-1.09,1.09-.59-.59,1.09-1.09Zm.75,2.22l-6.14,6.14c-.2,.2-.46,.3-.74,.3s-.54-.11-.74-.3l-.91-.91c-.2-.2-.3-.46-.3-.74s.11-.54,.3-.74l6.14-6.14c.2-.2,.47-.3,.74-.3,.09,0,.19,.02,.28,.04l-1.25,1.25c-.07,.07-.11,.16-.11,.26s.04,.19,.11,.26l1.11,1.11c.07,.07,.16,.11,.26,.11s.19-.04,.26-.11l1.25-1.25c.1,.35,.01,.74-.26,1.02Zm.36-2.14l-.59-.59,2.87-2.87,.59,.59-2.87,2.87Zm5.4-1.37l-1.76-1.76s0,0,0,0l-.55-.55-2.31-2.31c-.59-.58-.62-1.59-.14-2.31l7.07,7.07c-.72,.48-1.73,.45-2.31-.14Zm3.11-.09s0,0,0,0c0,0,0,0,0,0l-.78-.78,17.04-17.04,2.24,2.24-17.04,17.04-1.46-1.46Zm1.98,1.98l17.04-17.04,2.24,2.24-17.04,17.04-2.24-2.24Zm20.6-11.89l-15.45,15.45c-.44,.44-1.15,.44-1.59,0l-.8-.8,17.04-17.04,.8,.8c.44,.44,.44,1.15,0,1.59Z"/><path d="M189.12,77.53s-.07,0-.11-.02c-.18-.06-.28-.25-.22-.43,.43-1.33-.62-2.67-1.74-4.09-.72-.91-1.45-1.85-1.77-2.81-.62-1.86-.49-3.82,.33-5.38-1.6,.6-2.02,1.95-2.42,3.25-.16,.51-.31,1-.53,1.44-.42,.85-1.19,1.34-2.04,1.29-.93-.04-1.77-.69-2.15-1.65-.53-1.36-.68-4.75,.47-6.7-2.57,1.3-2.93,3.21-2.95,4.62-.03,2.3-.31,6.28-1.85,7.08-.51,.27-1.08,.18-1.71-.24-.88-.6-.78-1.4-.65-2.41,.11-.87,.26-2.01-.07-3.6-.43,1.06-1.22,2.01-2.24,2.67-1.86,1.2-3.11,2.1-3.4,3.66-.01,.04-.35,1.25,0,2.9,.04,.18-.08,.37-.26,.4-.18,.04-.37-.08-.4-.26-.38-1.83,0-3.15,0-3.2,.33-1.79,1.74-2.82,3.7-4.08,1.21-.78,2.05-2.02,2.24-3.32,.02-.16,.18-.31,.34-.32,.16,0,.35,.12,.4,.27,.71,2.31,.51,3.91,.37,4.97-.13,1.04-.15,1.42,.35,1.76,.6,.41,.91,.25,1.01,.2,.87-.45,1.43-2.94,1.48-6.49,.04-2.91,1.65-4.83,4.92-5.86,.17-.06,.37,.04,.44,.21,.06,.16-.02,.36-.17,.44-1.99,.94-2,5.48-1.39,7.05,.28,.71,.89,1.19,1.55,1.22,.57,.01,1.1-.31,1.4-.92,.19-.39,.34-.85,.49-1.33,.47-1.52,1.05-3.4,3.66-3.92,.14-.03,.32,.05,.39,.17,.08,.12,.07,.31,0,.43-1.06,1.47-1.3,3.51-.66,5.44,.28,.85,.98,1.74,1.66,2.6,1.18,1.5,2.39,3.04,1.85,4.72-.05,.14-.18,.24-.32,.24Z"/></g><g><path d="M86.08,55.9c.9-.64,1.79-1.27,2.7-1.89,.43-.29,.78-.62,.96-1.11v-.59c-.28-.89-.91-1.22-1.82-1.18-.99,.05-1.99-.07-2.95,.24-.6,.19-1.2,.43-1.77,.69-.91,.41-1.8,.88-2.71,1.29-.33,.15-.7,.26-1.05,.26-1.33,.02-2.65,0-3.98,0,0,0,0-.02,.02-.03,.89-1.34,1.12-2.89,.67-4.6-.74-2.87-3.64-4.67-6.75-4.21-.23,.03-.55-.07-.71-.27-.51-.67-1.21-1.1-1.97-1.19-.7-.08-1.4,.13-1.96,.59-.57,.47-.92,1.13-.97,1.85-.05,.76,.22,1.53,.76,2.15,.16,.18,.23,.49,.2,.7-.04,.25-.09,.49-.14,.74-.08,.37-.15,.73-.16,1.08,0,1.11-.35,2.12-1.06,3.18,0,0,0,.02,0,.03h-4.09c-.07-.14-.14-.27-.23-.4-1.29-1.96-1.29-3.9,0-5.94,1.38-2.19,1.39-4.47,.02-6.79-.43-.73-.72-1.43-.86-2.08-.3-1.3,0-2.57,.95-4.01,.95-1.45,1.18-3.25,.62-4.95-.56-1.72-1.84-3.05-3.48-3.65-.28-.11-.57-.17-.88-.25-.14-.03-.26-.06-.4-.1l-1.74,.02c-.05,.02-.13,.05-.2,.06-2.9,.48-4.87,2.75-4.91,5.66,0,1.05-.35,2.05-1.01,3.05-1.28,1.9-1.28,4.68,0,6.61,1.36,2.05,1.36,4.05,0,6.1-.75,1.12-1.05,2.4-.92,3.9,.1,1.11,.46,2.11,1.08,2.98l.12,.17-.16,.12c-.81,.58-1.26,1.45-1.25,2.36,.02,.92,.51,1.75,1.38,2.32l.11,.07-.05,.24c-.03,.05-.05,.1-.08,.15-1.58,2.53-1.61,4.89-.08,7.21,.75,1.15,1,2.35,.79,3.72-.15,.91-.6,1.66-1.04,2.4l-.17,.29c-.46,.8-.69,1.64-.68,2.55h1.06c.04-1.11,.49-2,.95-2.74,1.4-2.26,1.4-4.55-.02-6.77-.88-1.4-1.15-2.7-.82-3.95,.34-1.27,.72-2.67,2.41-3.15,1.15-.32,1.71-1.61,1.59-2.67-.14-1.2-1-2.14-2.21-2.38-.35-.07-.69-.16-.87-.41-1.33-1.75-1.37-4.19-.11-6.04,1.38-2.03,1.39-4.85,0-6.85-1.24-1.8-1.25-3.95-.06-5.78,.72-1.08,1.08-2.18,1.1-3.34,.05-2.75,1.73-4.55,4.47-4.82,2.38-.25,4.6,1.24,5.15,3.43,.36,1.45,.1,2.85-.82,4.28-1.38,2.17-1.39,4.37-.02,6.55,1.33,2.1,1.32,4.14,0,6.22-.39,.62-.65,1.19-.78,1.72-.4,1.66-.18,3.21,.65,4.58,.07,.11,.12,.21,.18,.31h-2.21c-.65,0-1.24,.14-1.79,.38-.15-.31-.32-.62-.53-.94-.8-1.23-1.05-2.48-.73-3.73,.17-.71,.49-1.45,1-2.34,.56-.98,.85-2,.86-3.13,.02-1.18-.34-2.28-1.15-3.56-.92-1.44-1.08-2.97-.49-4.56,.18-.47,.44-.91,.69-1.34,.07-.11,.14-.23,.21-.34,.51-.88,.75-1.75,.73-2.65h-1.06c-.05,1.19-.57,2.15-1.1,3.05-1.19,2.01-1.2,4.07-.02,6.14l.19,.33c.22,.35,.44,.73,.59,1.13,.57,1.53,.44,3.05-.41,4.53l-.19,.34c-.33,.55-.65,1.14-.82,1.73-.45,1.67-.24,3.25,.63,4.67,.27,.45,.49,.86,.66,1.25-.07,.06-.15,.1-.22,.16-1.05,.94-1,2.4,.1,3.28,.11,.08,.22,.15,.32,.24-.13,.36-.3,.73-.52,1.09-.47,.76-.96,1.56-1.11,2.51-.25,1.65,.08,3.15,1.02,4.59,1.2,1.85,1.2,3.77,.02,5.74-.25,.4-.49,.81-.68,1.23-.29,.64-.44,1.32-.42,2.03h1.06c.05-1.27,.64-2.32,1.25-3.28,.44-.7,.66-1.51,.72-2.56,.07-1.33-.29-2.55-1.09-3.76-.83-1.24-1.08-2.51-.76-3.78,.17-.7,.49-1.44,1-2.33,.15-.27,.28-.55,.4-.83,1.04,.7,2.14,1.29,3.31,1.74-.19,.42-.34,.85-.4,1.32-.23,1.61,.12,3.11,1.07,4.58,1.14,1.78,1.15,3.65,.02,5.56l-.07,.14c-.23,.38-.46,.78-.65,1.18-.3,.62-.44,1.28-.42,2.03h1.05c.04-.93,.35-1.82,.95-2.73,1.4-2.14,1.37-4.77-.06-6.89-1-1.46-1.14-3.29-.45-4.87,.25,.08,.51,.17,.77,.24,1.05,.25,2.15,.35,3.22,.53,.15,.02,.32,.11,.41,.22,.48,.61,.94,1.23,1.41,1.84-.1,.92-.4,1.82-.95,2.55-1.27,1.75-1.25,4.54,.06,6.5,.33,.49,.55,1.06,.75,1.61l.15,.37c.08,.19,.08,.4,.09,.59v.05h1.03c.02-1.06-.32-2.07-1.03-3.09-1.23-1.78-1.24-3.92,0-5.71,.45-.65,.74-1.38,.9-2.14,.26,.06,.55,.05,.84-.05,.62-.21,1.01-.73,1.04-1.41,.02-.33,0-.66,0-.99v-.4c.46-.04,.9-.09,1.34-.11,.07,0,.17,.1,.23,.18,.19,.3,.35,.62,.54,.92,.43,.66,1.04,.95,1.82,.84,1.38-.22,2.76-.45,4.15-.68,.04,.55-.03,1.11-.18,1.66-.18,.62-.5,1.19-.81,1.75-.08,.14-.15,.26-.23,.4-1.01,1.87-1.05,3.7-.15,5.45,.13,.25,.26,.47,.4,.71,.46,.8,.95,1.63,.95,2.65h1.06c.02-.93-.24-1.8-.76-2.66-.41-.65-.79-1.27-1-1.96-.38-1.31-.18-2.65,.58-3.99l.12-.2c.37-.65,.75-1.31,.92-2,.17-.73,.22-1.42,.15-2.08,.84-.43,1.19-1.45,.72-2.37-.08-.15-.16-.3-.25-.47,1.37-.46,2.72-.75,4.08,0,.88,.47,1.8,.87,2.7,1.31,1,.49,2.05,.74,3.15,.73,.38,0,.76-.03,1.14,0,.91,.07,1.55-.25,1.87-1.13v-.65c-.18-.49-.55-.82-.97-1.1-.91-.62-1.8-1.26-2.7-1.9-.51-.35-.51-.69,0-1.05Zm-37.38-1.09c.41,0,.83,.17,1.13,.48,.31,.31,.48,.73,.48,1.14,0,.88-.75,1.62-1.62,1.62h0c-.87,0-1.61-.75-1.61-1.63,0-.42,.17-.83,.48-1.14,.31-.3,.71-.48,1.15-.47Zm16.64-9.98c.31-.3,.73-.45,1.14-.45,.88,0,1.59,.75,1.58,1.64,0,.43-.18,.84-.49,1.14-.3,.3-.7,.45-1.12,.45h-.02c-.88,0-1.6-.75-1.58-1.64,0-.43,.17-.84,.49-1.14Zm.15,5.75c0-.3,.04-.61,.08-.92,.13-.83,.24-.94,1.07-1,.07,0,.15,0,.21-.03,1.36-.29,2.1-1.14,2.32-2.65l.02-.17h.18c.15,0,.3,0,.45,0,.33,0,.67,0,1.01,0,2.42,.14,4.37,2.12,4.44,4.52,.04,1.1-.28,2.15-.95,3.17-.03,.04-.04,.07-.06,.11-.85,0-1.69,0-2.54,0-.05,0-.11-.02-.21-.04,0-.52,0-1.03,0-1.54-.04-1.27-.95-2.13-2.19-2.03-.45,.04-.84,.25-1.17,.55-1.05,.94-2.1,1.87-3.15,2.82-.11,.1-.24,.16-.36,.19,.58-1,.87-1.99,.86-3.01Zm4.87,2.45c0,.19,0,.38,0,.57h-3.95c.95-.84,1.8-1.63,2.71-2.36,.2-.15,.47-.17,.71-.09,.26,.09,.48,.3,.52,.57,.05,.44,.05,.87,.03,1.31Zm-12.45,6.58c-1.23-.47-2.36-1.06-3.41-1.81-.32-.24-.63-.48-.94-.74,0-.02-.03-.03-.04-.04-.39-.34-.41-.94-.05-1.29,.03-.02,.04-.05,.06-.07,.27-.22,.58-.45,.89-.61,.18-.09,.36-.17,.55-.19,1.05-.15,2.12-.11,3.18-.13,.06,0,.16,.09,.19,.16,.67,1.64,.52,3.2-.45,4.71Zm6.34,2.48c.06,.32,.08,.65,.09,.99,0-.34-.04-.67-.09-.99Zm1.85,.92c0,.15-.14,.32-.26,.38-.08,.05-.25,.04-.35-.02-.03,0-.05-.03-.07-.04-.41-.49-.79-1.01-1.23-1.57,0,0,0-.02-.02-.03h1.95c0,.45,.02,.86-.02,1.27Zm9.51-1.37c-.17,.03-.35,.05-.53,.09-1.37,.23-2.75,.46-4.14,.67-.19,.03-.47-.09-.61-.24-.06-.06-.1-.15-.15-.22-.12-.17-.22-.35-.3-.5,.23-.06,.45-.12,.68-.17,1.28-.32,2.55-.64,3.83-.96,.2-.05,.39-.09,.59-.15,.21-.05,.35-.09,.47-.1,.03,0,.05,0,.08,0,.24,0,.31,.15,.53,.61,.12,.24,.11,.47,0,.65-.09,.16-.25,.28-.47,.32Zm2.35-3.51c-.03,.07-.15,.12-.24,.15-.95,.24-1.89,.49-2.84,.75-.35,.1-.7,.19-1.05,.28-1.25,.33-2.49,.64-3.75,.88h0c-.36,.07-.73,.14-1.1,.19-1.33,.2-2.67,.29-4.02,.3-.39,0-.79,0-1.19-.02-1.01-.05-2.02-.13-3.03-.26-.39-.05-.77-.16-1.15-.25-.16-.05-.33-.1-.52-.15,.16-.25,.31-.52,.44-.79,.06-.02,.13-.03,.18-.03,.51,0,1.03,0,1.54,0,.4,0,.62-.19,.63-.52,.02-.34-.21-.56-.61-.57-.45-.02-.88,0-1.35,0,.09-.35,.15-.7,.16-1.06,.1,0,.21,0,.31,0h13.84c.07,0,.15,0,.22,0,.1,0,.2-.02,.29-.04,.27-.08,.39-.29,.37-.56-.03-.26-.17-.44-.44-.47-.05,0-.09,0-.14,0-.1,0-.2,0-.3,0h-14.17c-.05-.4-.14-.78-.26-1.16h3.42c.12,0,.25,0,.36,0h13.88c.58,0,.59,0,.76,.55,.05,.18,.08,.37,.15,.62-.58,0-1.1,0-1.63,0-.3,0-.48,.18-.53,.47-.04,.26,.09,.48,.35,.57,.13,.05,.28,.05,.43,.05,.44,0,.88,0,1.42,0-.15,.42-.28,.78-.43,1.14Zm7.33-.38c.15,.11,.3,.22,.45,.32,.89,.63,1.79,1.25,2.66,1.88,.12,.09,.23,.28,.22,.41,0,.1-.21,.25-.33,.25-.8,0-1.59,.02-2.38-.05-1.07-.08-1.98-.65-2.95-1.08-1.22-.54-2.32-1.4-3.78-1.35,.4-1.15,.4-2.26,0-3.41,.75,.02,1.4-.16,2.04-.49,.91-.46,1.85-.86,2.76-1.35,1.37-.73,2.85-.68,4.34-.65,.11,0,.26,.15,.3,.25,.04,.09-.05,.25-.12,.35-.06,.09-.17,.14-.26,.2-.97,.68-1.95,1.35-2.91,2.05-.95,.69-.96,1.95-.04,2.65Z"/><path d="M55.98,55.84c-.35,0-.62,.27-.62,.62,0,.33,.27,.61,.6,.61,.34,0,.63-.29,.63-.62,0-.33-.28-.6-.6-.61Z"/><path d="M44.37,25.62c-.11-.04-.21-.08-.32-.13l-.1-.04h-1l-.11,.04c-.1,.04-.2,.09-.31,.12-1.2,.44-1.95,1.71-1.73,2.93,.24,1.32,1.35,2.27,2.64,2.27h0c1.31,0,2.4-.94,2.64-2.27,.22-1.22-.52-2.48-1.73-2.93Zm-.89,4.13s-.02,0-.03,0c-.86,0-1.6-.72-1.61-1.59,0-.42,.15-.82,.45-1.14,.3-.31,.72-.5,1.14-.5h.03c.86,0,1.6,.72,1.62,1.59,.02,.87-.71,1.63-1.59,1.65Z"/><path d="M42.76,46.5c-1.29-2.04-1.25-4.08,.1-6.07,.98-1.44,1.21-3.06,.69-4.81-.81-2.72-3.04-4.24-6.12-4.16-3,.07-5.48,2.54-5.52,5.5-.02,1.15-.34,2.2-1.03,3.29-1.23,1.97-1.3,4.07-.2,6.25,.26,.52,.54,1.02,.84,1.56,.12,.21,.24,.42,.36,.64l1.03-.18c-.09-.18-.17-.36-.25-.53-.25-.54-.48-1.05-.77-1.52-.69-1.14-.97-2.19-.89-3.29,.07-.95,.39-1.84,.97-2.71,.69-1.02,1.02-2.14,1-3.41,0-.36,.05-.73,.16-1.12,.64-2.27,2.99-4.11,6.26-3.23,1.4,.38,2.5,1.41,3.03,2.83,.55,1.5,.35,3.18-.54,4.48-1.43,2.09-1.47,4.74-.1,6.91,.41,.65,.7,1.31,.85,1.93,.31,1.3,.06,2.6-.74,3.87-.46,.74-.89,1.48-1.03,2.34-.28,1.74,.04,3.25,.99,4.63,.85,1.24,1.11,2.59,.76,3.92-.22,.86-.66,1.67-1.01,2.28-1.05,1.82-1.14,3.74-.25,5.71,.13,.29,.28,.58,.42,.87,.46,.92,.94,1.87,.97,2.97h1.06c-.02-1.38-.57-2.53-1.15-3.58-1.15-2.05-1.14-4.01,.03-5.66,1.44-2.02,1.43-5.25,0-7.2-1.12-1.52-1.14-3.82-.05-5.48,1.57-2.38,1.62-4.68,.15-7.01Z"/><path d="M37.53,65.82l.04-.11c.02-.08,.04-.12,.06-.16,1.12-2.32,1-4.44-.35-6.47-.58-.87-.87-1.77-.88-2.74-.01-1.13,.33-2.19,1.09-3.34,.55-.84,.85-1.79,.89-2.91,.05-1.3-.32-2.51-1.16-3.81-.69-1.06-.94-2.28-.74-3.63,.14-.9,.58-1.65,1.01-2.38l.19-.32c.46-.8,.69-1.64,.68-2.57h-1.06c-.05,1.07-.47,1.99-1.07,3.01-.4,.68-.66,1.33-.78,1.92-.34,1.65-.04,3.18,.89,4.54,.89,1.3,1.17,2.63,.85,3.95-.13,.53-.37,1.04-.6,1.53-.1,.22-.21,.44-.3,.66-.09,.21-.19,.42-.29,.63-.22,.46-.43,.9-.53,1.36-.35,1.67,0,3.3,1.03,4.85,1.07,1.61,1.13,3.38,.16,5.25-.12,.23-.43,.39-.65,.4-1.38,.11-2.4,1.03-2.6,2.35-.18,1.21,.56,2.4,1.79,2.87,.17,.06,.39,.15,.47,.34,.18,.47,.43,.93,.66,1.38,.49,.91,1,1.86,.99,2.99h1.14c-.04-.18-.09-.37-.13-.55-.13-.58-.25-1.12-.44-1.64-.19-.52-.46-1.04-.72-1.53-.12-.22-.24-.45-.35-.67l-.09-.18,.18-.09c1.02-.52,1.62-1.18,1.78-1.95,.18-.85-.19-1.83-1.08-2.91l-.07-.09Zm-1.47,3.97h-.03c-.43,0-.83-.18-1.14-.5-.3-.31-.46-.71-.45-1.14,.02-.87,.74-1.57,1.62-1.57h.02c.43,0,.84,.18,1.14,.5,.3,.31,.46,.71,.45,1.13-.02,.89-.73,1.57-1.62,1.57Z"/><path d="M31.84,59.09c-1.15-1.69-1.16-3.91-.04-5.65,.24-.37,.54-.86,.74-1.39,.13-.33,.21-.69,.29-1.07,.02-.1,.04-.19,.07-.29l-.93-.09c-.1,.22-.19,.44-.29,.66-.24,.56-.46,1.08-.76,1.56-1.37,2.18-1.34,4.83,.07,6.91,1.18,1.73,1.18,3.97,.02,5.69-1.38,2.04-1.49,4.26-.35,6.61,.08,.17,.17,.34,.26,.51,.45,.89,.92,1.82,.95,2.89h1.05c-.02-1.38-.56-2.53-1.15-3.57-1.14-2.04-1.12-3.97,.06-5.75,1.45-2.19,1.46-4.88,0-7.02Z"/><path d="M74.51,36.81h0c.72,0,1.4-.28,1.9-.79,.51-.51,.78-1.19,.78-1.92-.01-1.46-1.21-2.64-2.68-2.64h-.01c-.71,0-1.38,.29-1.89,.79-.5,.51-.78,1.18-.78,1.89,0,1.47,1.21,2.67,2.68,2.67Zm.03-4.29c.43,0,.83,.18,1.13,.49,.3,.31,.46,.71,.46,1.14-.01,.88-.73,1.58-1.61,1.58h-.02c-.43,0-.83-.18-1.13-.49-.3-.31-.46-.71-.45-1.14,.01-.88,.74-1.61,1.64-1.58Z"/><path d="M69.01,68.74c.13-.96,.61-1.74,1.08-2.49,.46-.75,.71-1.47,.78-2.25l-1.06-.07c-.15,.95-.59,1.73-1.02,2.48l-.14,.24c-1.05,1.86-1.09,3.72-.11,5.52,.11,.2,.22,.39,.33,.59,.47,.81,.96,1.65,.97,2.69h1.07s0-.05,0-.08c.02-1-.31-1.95-1.04-2.98-.75-1.06-1.04-2.28-.86-3.65Z"/></g></g></svg>