<?xml version="1.0" encoding="UTF-8"?><svg id="_레이어_2" xmlns="http://www.w3.org/2000/svg" viewBox="0 0 307.46 51.54"><defs><style>.cls-1{fill:#595757;}</style></defs><g id="_레이어_1-2"><g><path class="cls-1" d="M2.89,.47c1.79,0,2.89,1.24,2.89,2.66s-1.04,2.66-2.89,2.66S0,4.57,0,3.13,1.11,.47,2.89,.47Zm2,2.66c0-1.02-.72-1.92-2-1.92C1.53,1.21,.89,2.11,.89,3.13s.6,1.91,2,1.91c1.32,0,2-.88,2-1.91Zm3.99,8.26H1.79V7.11h7.09v4.28Zm-.89-.73v-2.82H2.68v2.82H7.99ZM6.15,1.45h1.83V.2h.89V6.44h-.89v-1.66h-1.83v-.74h1.83v-1.85h-1.83v-.74Z"/><path class="cls-1" d="M15.64,6.85v2.13h4.73v.75H10.01v-.75h4.72v-2.13h.92Zm-4.17-.9V.9h7.47v.76h-6.59v3.54h6.74v.76h-7.62Z"/><path class="cls-1" d="M30.72,5.38v.76h-10.36v-.76h10.36Zm-1.14,6.13h-7.79v-2.55h6.54v-1.12h-6.54v-.71h7.48v2.49h-6.52v1.18h6.82v.71Zm-7.73-7.09V2h6.41v-1h-6.41V.29h7.31V2.7h-6.4v1.01h6.69v.72h-7.6Z"/><path class="cls-1" d="M33.96,8.68c.94,.01,2.15,0,3.22-.04v-2.24h.91v2.22c1.21-.04,2.6-.12,3.52-.21v.74c-1.8,.28-5.05,.31-7.65,.31v-.78Zm6.61-2.21c-1.07-.47-2.26-1.25-2.88-2.42-.52,1.14-1.79,2.09-2.96,2.54l-.49-.64c1.59-.67,2.96-1.66,2.96-3.36v-.16h-2.63v-.74h2.63V.1h.93V1.7h2.64v.74h-2.64v.16c0,1.63,1.34,2.65,2.85,3.15l-.4,.72Zm2.51,4.98h-.88V.2h.88V11.45Z"/><path class="cls-1" d="M54.36,9.74h-10.36v-.75h4.72v-2.88h.92v2.88h4.73v.75ZM49.65,1.73c0,1.86,2.43,3.57,4,4.08l-.55,.68c-1.38-.5-3.31-1.89-3.91-3.3-.67,1.4-2.31,2.7-3.89,3.3l-.55-.68c1.59-.52,3.93-2.22,3.93-4.08V.66h.98V1.73Z"/><path class="cls-1" d="M58.27,7.5v1.43c1.18-.05,2.31-.11,3.19-.21v.74c-1.8,.26-4.67,.3-7.28,.3v-.78c.96,.01,2.07,0,3.18-.04v-1.45h.92Zm2.76-5.13h-6.65v-.73h2.88V.12h.93V1.63h2.83v.73Zm-3.19,4.72c-1.86,0-2.85-.94-2.85-2.11s1-2.12,2.79-2.12,2.85,.97,2.85,2.13-1.07,2.1-2.79,2.1Zm1.92-2.1c0-.77-.64-1.43-1.98-1.43-1.24,0-1.95,.67-1.95,1.42s.73,1.39,1.96,1.39c1.35,0,1.96-.61,1.96-1.38ZM63.12,.2V5.33h1.86v.77h-1.86v5.36h-.88V.2h.88Z"/><path class="cls-1" d="M70.27,2.9h-5.79v-.74h2.44V.35h.93v1.81h2.42v.74Zm-.35,3.37c0,1.73-.99,2.72-2.55,2.72s-2.55-1.07-2.55-2.72,1-2.66,2.55-2.66,2.55,1.02,2.55,2.66Zm-.85-.01c0-1.13-.54-1.9-1.71-1.9s-1.71,.77-1.71,1.9c0,1.2,.55,1.99,1.71,1.99s1.71-.79,1.71-1.99Zm5.21,5.19h-.88V5.35h-1.52v5.74h-.88V.26h.88V4.53h1.52V.2h.88V11.45Z"/><path class="cls-1" d="M83.58,4.87c0,2.59-1.13,3.96-2.81,3.96s-2.8-1.37-2.8-3.96,1.13-3.95,2.8-3.95,2.81,1.32,2.81,3.95Zm-.89-.01c0-1.97-.68-3.18-1.91-3.18s-1.93,1.19-1.93,3.18,.71,3.21,1.93,3.21,1.91-1.27,1.91-3.21ZM86.59,.2V4.33h1.95v.79h-1.95v6.33h-.89V.2h.89Z"/><path class="cls-1" d="M94.46,4.75c0,2.58-1.01,3.96-2.84,3.96s-2.83-1.38-2.83-3.96,1.09-3.95,2.83-3.95,2.84,1.32,2.84,3.95Zm-.89-.01c0-1.97-.58-3.18-1.93-3.18s-1.95,1.19-1.95,3.18,.62,3.2,1.95,3.2,1.93-1.27,1.93-3.2Zm3.86,6.72h-.89V.2h.89V11.45Z"/><path class="cls-1" d="M98.51,8.54c.92,.01,1.96,0,3.01-.02v-1.92h.91v1.88c1.24-.04,2.44-.11,3.37-.2v.74c-1.8,.28-4.67,.31-7.28,.31v-.79Zm3.49-2.49c-1.73,0-3.04-1.1-3.04-2.71s1.33-2.72,2.98-2.72c1.82,0,2.98,1.25,2.98,2.76s-1.12,2.67-2.92,2.67Zm2.01-2.7c0-1.16-.78-1.94-2.07-1.94s-2.07,.88-2.07,1.94c0,1.15,.79,1.94,2.09,1.94s2.05-.78,2.05-1.94Zm3.44-3.14V4.73h1.86v.77h-1.86v5.96h-.88V.2h.88Z"/><path class="cls-1" d="M118.41,2.1h-6.62v-.72h2.85V0h.94V1.38h2.83v.72Zm-3.31,4.52c-1.73,0-2.69-.96-2.69-2.03s.98-1.96,2.71-1.96,2.67,.89,2.67,1.96-.93,2.03-2.68,2.03Zm-1.8-2.04c0,.68,.6,1.33,1.81,1.33s1.79-.62,1.79-1.33-.58-1.26-1.79-1.26-1.81,.59-1.81,1.26Zm7.35,6.81h-6.96v-3.93h6.96v3.93Zm-.88-.73v-2.47h-5.19v2.47h5.19Zm2.67-6.68h-1.81v2.85h-.88V.2h.88V3.23h1.81v.76Z"/><path class="cls-1" d="M125.3,1.12c0,3.54-.72,5.27-2.62,7.08l-.67-.56c1.82-1.54,2.39-3.21,2.39-5.76h-1.79v-.76h2.69Zm2.56,0c.02,4.2-.53,5.83-2.69,7.95l-.66-.55c2.34-2.27,2.42-3.51,2.49-6.64h-1.29v-.76h2.15Zm0,3.06h1.33V.26h.86V11.09h-.86V4.99h-1.33v-.82Zm4.17,7.28h-.87V.2h.87V11.45Z"/><path class="cls-1" d="M138.56,.58c1.79,0,2.91,1.29,2.91,2.79s-1.07,2.79-2.91,2.79-2.89-1.29-2.89-2.79,1.13-2.79,2.89-2.79Zm0,.77c-1.34,0-1.95,.96-1.95,2.03s.62,2.01,1.95,2.01,1.96-.95,1.96-2.01-.55-2.03-1.96-2.03Zm6.08,9.93h-7.34v-3.9h.91v3.14h6.44v.75Zm1.42-7.47h-1.82v4.34h-.89V.2h.89V3.01h1.82v.79Z"/><path class="cls-1" d="M152.48,5.87c-1.01-.41-2.44-1.28-2.93-2.4-.51,1.29-1.76,2.1-2.91,2.69l-.52-.6c1.45-.73,2.95-1.7,2.95-3.56V.53h.92V1.98c0,1.8,1.53,2.65,2.88,3.2l-.4,.68Zm2.76,5.53h-7.09V7.26h7.09v4.14Zm-.88-.73v-2.66h-5.32v2.66h5.32Zm.88-4.03h-.88V.2h.88V6.63Z"/><path class="cls-1" d="M159.93,1.97h2.95v.74h-6.83v-.74h2.94V.22h.94V1.97Zm2.29,4.39c0,1.56-.99,2.85-2.74,2.85s-2.78-1.21-2.78-2.85c0-1.73,1.08-2.84,2.78-2.84s2.74,1.09,2.74,2.84Zm-.87,0c0-1.29-.6-2.09-1.87-2.09s-1.88,.83-1.88,2.09,.65,2.08,1.88,2.08,1.87-.83,1.87-2.08Zm3.62-6.15V4.96h1.96v.79h-1.96v5.7h-.88V.2h.88Z"/><path class="cls-1" d="M177.01,9.56h-10.36v-.76h3.82V4.68h.91v4.12h5.63v.76Zm-2.85-2.31c.31-1.6,.52-3.65,.52-5.43h-6.67v-.75h7.65c-.07,2.41-.29,4.38-.6,6.19h-.89Z"/><path class="cls-1" d="M185.57,5.87h-4.95V.76h4.95V5.87Zm-.88-.74V1.5h-3.2v3.62h3.2Zm4.41,6.39h-.89v-3.42h-6.44v-.77h7.33v4.19Zm.01-4.82h-.89V3.5h-2.06v-.76h2.06V.2h.89V6.69Z"/><path class="cls-1" d="M200.65,4.99v.74h-10.36v-.74h10.36Zm-8.98-2.87c0-1.18,1.39-1.94,3.78-1.94s3.78,.76,3.78,1.94c0,1.29-1.43,1.98-3.78,1.98s-3.78-.71-3.78-1.98Zm7.83,9.39h-7.79v-2.72h6.54v-1.29h-6.54v-.71h7.48v2.69h-6.52v1.33h6.82v.71Zm-6.91-9.39c0,.91,1.28,1.27,2.85,1.27s2.85-.36,2.85-1.27c0-.83-1.29-1.22-2.85-1.22s-2.85,.41-2.85,1.22Z"/><path class="cls-1" d="M213.94,7.23h-4.74v4.22h-.91V7.23h-4.72v-.76h10.36v.76Zm-1.22-2.12c-1.46-.38-3.07-1.13-3.96-2.46-.79,1.34-2.55,2.08-3.95,2.45l-.46-.7c1.74-.42,3.92-1.44,3.92-2.95V.32h.98V1.45c0,1.5,2.38,2.58,3.92,2.95l-.44,.71Z"/><path class="cls-1" d="M220.22,.44c1.79,0,2.89,1.26,2.89,2.7s-1.07,2.7-2.89,2.7-2.89-1.26-2.89-2.7,1.11-2.7,2.89-2.7Zm6.27,11.06c-.87-.52-1.68-1.31-2.01-2.18-.37,.89-1.12,1.67-1.99,2.21-1.05-.67-1.62-1.37-2-2.21-.28,.79-1.09,1.66-2.05,2.18l-.56-.59c1.24-.73,2.17-1.85,2.17-3.06v-.72h.89v.72c0,1,.65,2.11,1.54,2.72,.91-.6,1.54-1.73,1.54-2.72v-.72h.91v.72c0,1.36,.94,2.46,2.14,3.06l-.58,.59Zm-8.27-8.36c0,1.03,.68,1.94,2,1.94s2-.94,2-1.94-.68-1.96-2-1.96-2,.94-2,1.96Zm6.98-2.94h.89V6.48h-.89V.2Z"/><path class="cls-1" d="M237.58,6.63h-10.36v-.76h10.36v.76Zm-1.02,4.64h-7.91v-3.37h.89v2.61h7.01v.75Zm-.22-6.88h-7.62V.35h.88V3.62h6.74v.77Z"/><path class="cls-1" d="M247.38,5.42c-1.35,.14-2.85,.24-6.49,.24V.76h5.19v.74h-4.29v3.39c2.49,0,4.35-.07,5.6-.2v.73Zm1.69,5.97h-6.96V7.14h6.96v4.26Zm-.89-.73v-2.79h-5.18v2.79h5.18Zm2.68-7.4h-1.81v3.25h-.89V.2h.89V2.51h1.81v.75Z"/><path class="cls-1" d="M255.53,6.08h-4.27V.72h.88v1.88h2.52V.72h.87V6.08Zm-.87-.76v-1.97h-2.52v1.97h2.52Zm5.52,6.19h-.88v-3.37h-6.52v-.75h7.4v4.12Zm0-4.82h-.87V3.62h-1.67v3.07h-.88V.26h.88V2.83h1.67V.2h.87V6.69Z"/><path class="cls-1" d="M267.65,2.18h-6.62v-.72h2.85V.1h.94V1.46h2.83v.72Zm-3.31,5.05c-1.64,0-2.69-1.03-2.69-2.23s1.07-2.17,2.71-2.17,2.67,.94,2.67,2.17-.99,2.23-2.68,2.23Zm-1.8-2.24c0,.84,.6,1.54,1.81,1.54s1.79-.65,1.79-1.54c0-.84-.58-1.48-1.79-1.48s-1.81,.64-1.81,1.48Zm7.72,6.28h-7.33v-3.26h.91v2.51h6.42v.75Zm-.39-11.07V3.91h1.81v.77h-1.81v3.69h-.88V.2h.88Z"/><path class="cls-1" d="M280.25,.76c-.15,3.49-2.68,4.94-4.91,5.73l-.46-.66c2.2-.78,4.22-2.1,4.4-4.33h-3.83V.76h4.8Zm3.41,10.64h-7.09V7.14h7.09v4.26Zm-.89-.73v-2.79h-5.31v2.79h5.31Zm.89-4.15h-.89V.2h.89V6.51Z"/><path class="cls-1" d="M290.99,8.62c-.96-.56-2.31-1.54-2.93-3.07-.57,1.57-1.75,2.54-3,3.32l-.58-.65c1.67-.95,3.11-2.4,3.11-4.42V1.8h-2.49v-.74h5.93v.74h-2.49V3.85c0,1.93,1.42,3.31,2.91,4.04l-.45,.73Zm4.47-3.67h-1.95v6.5h-.88V.2h.88v3.95h1.95v.8Z"/><path class="cls-1" d="M300.52,6.26h-5.07V.72h.87v1.98h3.33V.72h.87V6.26Zm-.87-.77V3.45h-3.33v2.04h3.33Zm4.48,5.78h-7.33v-3.72h.91v2.96h6.42v.75Zm-.39-11.07V3.41h1.81v.76h-1.81v4.1h-.89V.2h.89Z"/><path class="cls-1" d="M306.21,9.39h1.26v1.22h-1.26v-1.22Z"/><path class="cls-1" d="M16.64,22.18h-6.62v-.72h2.85v-1.37h.94v1.37h2.83v.72Zm-3.31,5.05c-1.64,0-2.69-1.03-2.69-2.23s1.07-2.17,2.71-2.17,2.67,.94,2.67,2.17-.99,2.23-2.68,2.23Zm-1.8-2.24c0,.84,.6,1.54,1.81,1.54s1.79-.65,1.79-1.54c0-.84-.58-1.48-1.79-1.48s-1.81,.64-1.81,1.48Zm7.72,6.28h-7.33v-3.26h.91v2.51h6.42v.75Zm-.39-11.07v3.71h1.81v.77h-1.81v3.69h-.88v-8.17h.88Z"/><path class="cls-1" d="M30.9,25.37h-4.74v2.04h3.29v4.1h-.89v-3.35h-6.73v-.76h3.4v-2.04h-4.69v-.76h7.56c.12-.76,.34-2.48,.35-3.31h-6.48v-.77h7.46c-.04,1.02-.26,3.12-.41,4.08h1.88v.76Z"/><path class="cls-1" d="M44.19,27.48h-2.76v3.97h-.89v-3.97h-3.08v3.85h-.91v-3.85h-2.72v-.77h10.36v.77Zm-1.36-4.65c0,1.54-1.32,2.46-3.82,2.46s-3.82-.92-3.82-2.46,1.34-2.45,3.82-2.45,3.82,.95,3.82,2.45Zm-3.82,1.74c1.72,0,2.92-.61,2.92-1.75,0-1.08-1.18-1.71-2.92-1.71s-2.93,.62-2.93,1.73,1.18,1.74,2.93,1.74Z"/><path class="cls-1" d="M50.04,21.06c-.04,4.56-2.06,6.5-4.76,7.99l-.6-.68c2.98-1.58,4.39-3.61,4.4-6.56h-4.05v-.74h5.01Zm3.25,10.4h-.89v-11.25h.89v11.25Z"/><path class="cls-1" d="M64.89,27.23h-4.74v4.22h-.91v-4.22h-4.72v-.76h10.36v.76Zm-1.22-2.12c-1.46-.38-3.07-1.13-3.96-2.46-.79,1.34-2.55,2.08-3.95,2.45l-.46-.7c1.74-.42,3.92-1.44,3.92-2.95v-1.13h.98v1.13c0,1.5,2.38,2.58,3.92,2.95l-.43,.71Z"/><path class="cls-1" d="M70.93,26.48c-1.02-.41-2.43-1.28-2.94-2.4-.51,1.29-1.76,2.1-2.91,2.69l-.52-.6c1.45-.73,2.95-1.7,2.95-3.56v-2.01h.93v2c0,1.8,1.52,2.65,2.87,3.2l-.39,.68Zm3,4.8h-7.33v-3.63h.91v2.88h6.42v.75Zm-.39-11.07v3.09h1.81v.77h-1.81v4.14h-.88v-8h.88Z"/><path class="cls-1" d="M88.53,25.67h-10.36v-.74h4.72v-1.2h-3.22v-3.36h7.44v.74h-6.55v1.86h6.68v.76h-3.42v1.2h4.73v.74Zm-1.14,5.84h-7.79v-2.73h6.54v-1.29h-6.54v-.71h7.48v2.69h-6.52v1.34h6.82v.71Z"/><path class="cls-1" d="M94.28,20.76c-.15,3.49-2.68,4.94-4.91,5.73l-.46-.66c2.2-.78,4.22-2.1,4.4-4.33h-3.83v-.74h4.8Zm3.41,10.64h-7.09v-4.26h7.09v4.26Zm-.89-.73v-2.79h-5.31v2.79h5.31Zm.89-4.15h-.89v-6.31h.89v6.31Z"/><path class="cls-1" d="M101.53,20.94c1.44,0,2.33,1.27,2.46,3.37h1.39v-4.04h.88v10.83h-.88v-5.97h-1.38c-.06,2.25-.93,3.63-2.47,3.63s-2.48-1.5-2.48-3.91,.92-3.91,2.48-3.91Zm-1.62,3.9c0,1.75,.54,3.12,1.61,3.12,1.14,0,1.63-1.35,1.63-3.12s-.49-3.12-1.63-3.12-1.61,1.39-1.61,3.12Zm8.42,6.62h-.87v-11.25h.87v11.25Z"/><path class="cls-1" d="M122.51,25.37h-4.74v2.04h3.29v4.1h-.89v-3.35h-6.73v-.76h3.4v-2.04h-4.69v-.76h7.56c.12-.76,.34-2.48,.35-3.31h-6.48v-.77h7.46c-.04,1.02-.26,3.12-.41,4.08h1.88v.76Z"/><path class="cls-1" d="M127.65,28.14c-1.08,.14-2.96,.14-4.48,.14v-7.28h.89v6.48c1.15,0,2.48,0,3.59-.12v.78Zm4.27,3.31h-.87v-6.73h-1.76v6.37h-.88v-10.83h.88v3.66h1.76v-3.72h.87v11.25Z"/><path class="cls-1" d="M138.9,26.48c-1.02-.41-2.43-1.28-2.94-2.4-.51,1.29-1.76,2.1-2.91,2.69l-.52-.6c1.45-.73,2.95-1.7,2.95-3.56v-2.01h.93v2c0,1.8,1.52,2.65,2.87,3.2l-.39,.68Zm3,4.8h-7.33v-3.63h.91v2.88h6.42v.75Zm-.39-11.07v3.09h1.81v.77h-1.81v4.14h-.88v-8h.88Z"/><path class="cls-1" d="M152.01,28.41h-5.11v-7.35h5.11v7.35Zm-.88-.74v-5.87h-3.34v5.87h3.34Zm3.35-7.46h.89v11.25h-.89v-11.25Z"/><path class="cls-1" d="M159.72,20.53c1.79,0,2.89,1.26,2.89,2.69s-1.04,2.69-2.89,2.69-2.89-1.25-2.89-2.69,1.11-2.69,2.89-2.69Zm2,2.69c0-1.02-.72-1.93-2-1.93-1.37,0-2,.91-2,1.93s.6,1.93,2,1.93c1.32,0,2-.9,2-1.93Zm3.98,8.3h-.89v-3.54h-6.44v-.77h7.33v4.31Zm-2.72-10h1.83v-1.31h.89v6.37h-.89v-1.61h-1.83v-.75h1.83v-1.96h-1.83v-.74Z"/><path class="cls-1" d="M167.53,29.39h1.26v1.03c0,.3-.02,.48-.07,.66-.18,.64-.58,1.12-1.04,1.43l-.26-.25c.34-.29,.81-.92,.78-1.64h-.67v-1.22Z"/><path class="cls-1" d="M179.11,28.11c-1.98,.29-4.42,.26-6.4,.26v-7.32h5.27v.74h-4.36v5.78c1.46,0,3.65,.01,5.49-.24v.77Zm3.75-3.27h-1.96v6.62h-.89v-11.25h.89v3.84h1.96v.79Z"/><path class="cls-1" d="M186.69,20.72v3.06c-.01,1.93,1.48,3.31,2.95,4.04l-.45,.72c-.95-.55-2.35-1.52-2.98-3.07-.57,1.58-1.8,2.55-3.05,3.33l-.58-.65c1.67-.95,3.17-2.4,3.17-4.43v-3.01h.93Zm5.31,10.73h-.88v-11.25h.88v11.25Z"/><path class="cls-1" d="M198.69,28.41h-5.19v-7.35h5.19v7.35Zm-.89-.74v-5.87h-3.4v5.87h3.4Zm6-2.85h-1.96v6.64h-.88v-11.25h.88v3.81h1.96v.79Z"/><path class="cls-1" d="M204.09,29.39h1.26v1.03c0,.3-.02,.48-.07,.66-.18,.64-.58,1.12-1.04,1.43l-.26-.25c.34-.29,.81-.92,.78-1.64h-.67v-1.22Z"/><path class="cls-1" d="M214.49,25.24h-4.89v-4.64h4.89v4.64Zm-.88-.74v-3.15h-3.14v3.15h3.14Zm4.73,7.02h-7.45v-2.89h6.25v-1.47h-6.25v-.71h7.18v2.88h-6.26v1.49h6.53v.71Zm-3.09-10.18h1.95v-1.13h.89v5.58h-.89v-1.37h-1.95v-.74h1.95v-1.61h-1.95v-.73Z"/><path class="cls-1" d="M225.79,28.86c-.95-.56-2.25-1.6-2.87-3.08-.56,1.58-1.75,2.54-3,3.32l-.58-.65c1.66-.94,3.11-2.4,3.11-4.43v-1.38h-2.61v-.74h2.61v-1.7h.93v1.7h2.62v.74h-2.62v1.43c0,1.93,1.39,3.33,2.86,4.07l-.45,.72Zm2.62,2.59h-.89v-11.25h.89v11.25Z"/><path class="cls-1" d="M242.91,26.88h-4.6v2.25h-.89v-2.25h-4.87v-.77h10.36v.77Zm-1.02,4.39h-7.91v-3.2h.89v2.45h7.01v.75Zm-7.82-6.42v-4.51h.88v1.52h5.56v-1.52h.87v4.51h-7.32Zm6.45-.76v-1.5h-5.56v1.5h5.56Z"/><path class="cls-1" d="M248.3,25.21h-5.02v-4.61h5.02v4.61Zm-.88-.74v-3.12h-3.26v3.12h3.26Zm4.46,7.05h-7.36v-2.89h6.16v-1.49h-6.16v-.71h7.08v2.89h-6.15v1.49h6.44v.71Zm1.51-8.52h-1.81v2.79h-.88v-5.59h.88v2.04h1.81v.75Z"/><path class="cls-1" d="M258.88,27.45v1.81h4.73v.75h-10.36v-.75h4.72v-1.81h.92Zm-4.15-.5v-3.43h6.43v-1.87h-6.47v-.75h7.37v3.37h-6.42v1.93h6.79v.75h-7.69Z"/><path class="cls-1" d="M272.11,22.9h-5.79v-.74h2.44v-1.81h.93v1.81h2.42v.74Zm-.35,3.37c0,1.73-.99,2.72-2.55,2.72s-2.55-1.07-2.55-2.72,1-2.66,2.55-2.66,2.55,1.02,2.55,2.66Zm-.85-.01c0-1.13-.54-1.9-1.71-1.9s-1.71,.77-1.71,1.9c0,1.2,.55,1.99,1.71,1.99s1.71-.79,1.71-1.99Zm5.21,5.19h-.88v-6.1h-1.52v5.74h-.88v-10.83h.88v4.27h1.52v-4.33h.88v11.25Z"/><path class="cls-1" d="M287.25,25.53h-4.74v1.18h3.29v2.71h-6.52v1.39h6.82v.71h-7.79v-2.77h6.54v-1.32h-6.54v-.72h3.26v-1.18h-4.69v-.76h10.36v.76Zm-8.85-1.86v-3.3h7.32v3.3h-7.32Zm6.45-.74v-1.81h-5.56v1.81h5.56Z"/><path class="cls-1" d="M287.44,28.19c2.27,.01,5.69-.07,7.63-.28v.74c-1.8,.26-5.04,.31-7.63,.31v-.78Zm3.56-1.99c-1.73,0-3.04-1.12-3.04-2.72s1.33-2.71,2.98-2.71c1.82,0,2.98,1.24,2.98,2.75s-1.12,2.69-2.92,2.69Zm2.01-2.71c0-1.16-.78-1.94-2.07-1.94s-2.08,.88-2.08,1.94c0,1.15,.8,1.94,2.11,1.94s2.05-.78,2.05-1.94Zm3.65,7.96h-.88v-11.25h.88v11.25Z"/><path class="cls-1" d="M86.14,40.76c-.15,3.49-2.62,4.82-4.85,5.61l-.46-.66c2.2-.78,4.17-1.98,4.34-4.21h-3.78v-.74h4.74Zm3.35,10.64h-6.96v-4.26h6.96v4.26Zm-.89-.73v-2.79h-5.18v2.79h5.18Zm2.68-7.05h-1.81v2.9h-.89v-6.31h.89v2.65h1.81v.76Z"/><path class="cls-1" d="M95.33,41.07h2.46v.73h-2.46v.02c0,1.8,1.46,2.66,2.81,3.21l-.4,.67c-1.01-.41-2.36-1.27-2.86-2.39-.51,1.29-1.72,2.07-2.86,2.66l-.52-.59c1.45-.72,2.91-1.69,2.91-3.56v-.04h-2.46v-.73h2.46v-1.26h.92v1.26Zm5.48,10.45h-7.45v-2.75h6.25v-1.33h-6.25v-.72h7.18v2.75h-6.25v1.34h6.52v.71Zm-.25-5.41h-.88v-5.9h.88v5.9Z"/><path class="cls-1" d="M107.02,45.87h-5.02v-5.05h5.02v5.05Zm-.88-.74v-3.56h-3.26v3.56h3.26Zm4.47,6.42c-1.44-.43-2.94-1.51-3.61-2.69-.62,1.12-2.13,2.22-3.62,2.69l-.45-.66c1.31-.38,3.6-1.73,3.6-3.21v-.5h.93v.5c0,1.47,2.28,2.83,3.6,3.21l-.45,.66Zm1.49-7.87h-1.81v4.04h-.88v-7.51h.88v2.71h1.81v.76Z"/><path class="cls-1" d="M122.33,44.99v.74h-10.36v-.74h10.36Zm-8.98-2.87c0-1.18,1.39-1.94,3.78-1.94s3.78,.76,3.78,1.94c0,1.29-1.44,1.98-3.78,1.98s-3.78-.71-3.78-1.98Zm7.83,9.39h-7.79v-2.72h6.54v-1.29h-6.54v-.71h7.48v2.69h-6.52v1.33h6.82v.71Zm-6.91-9.39c0,.91,1.28,1.27,2.85,1.27s2.85-.36,2.85-1.27c0-.83-1.29-1.22-2.85-1.22s-2.85,.41-2.85,1.22Z"/><path class="cls-1" d="M131.31,45.62c-1.02-.41-2.44-1.28-2.94-2.4-.51,1.29-1.76,2.09-2.91,2.67l-.52-.6c1.45-.72,2.95-1.7,2.95-3.56v-1.33h.93v1.32c0,1.8,1.52,2.66,2.87,3.21l-.39,.68Zm2.92,5.89h-7.36v-2.84h6.17v-1.42h-6.17v-.71h7.08v2.82h-6.15v1.44h6.43v.71Zm1.51-8.26h-1.81v2.66h-.88v-5.71h.88v2.29h1.81v.76Z"/><path class="cls-1" d="M142.8,46.46c-1.68,.2-4.55,.24-6.33,.24v-3.31h3.92v-1.87h-3.92v-.73h4.8v3.32h-3.92v1.85c1.6,0,3.6-.01,5.45-.22v.72Zm2.24,4.81h-7.38v-3.39h.89v2.64h6.48v.75Zm-.26-3.01h-.89v-8.06h.89v8.06Z"/><path class="cls-1" d="M159.26,48.88v.76h-10.36v-.76h10.36Zm-2.56-6.43l-.26,3.36h2v.76h-8.75v-.76h2.01l-.24-3.36h.89l.24,3.36h2.96l.22-3.36h.92Zm-6.74-.73v-.76h8.22v.76h-8.22Z"/><path class="cls-1" d="M166.39,48.43c-1.99,.24-4.38,.28-6.27,.28v-4.38h4v-2.65h-4v-.74h4.88v4.14h-3.99v2.82c2.15,0,3.48-.06,5.38-.2v.74Zm2.09,3.02h-.89v-11.25h.89v11.25Z"/><path class="cls-1" d="M175.46,48.41h-5.11v-7.35h5.11v7.35Zm-.88-.74v-5.87h-3.34v5.87h3.34Zm3.35-7.46h.89v11.25h-.89v-11.25Z"/><path class="cls-1" d="M183.17,40.47c1.79,0,2.89,1.24,2.89,2.66s-1.04,2.66-2.89,2.66-2.89-1.22-2.89-2.66,1.11-2.66,2.89-2.66Zm2,2.66c0-1.02-.72-1.92-2-1.92-1.37,0-2,.9-2,1.92s.6,1.91,2,1.91c1.32,0,2-.88,2-1.91Zm3.99,8.26h-7.09v-4.26h7.09v4.26Zm-.89-.73v-2.79h-5.31v2.79h5.31Zm-1.79-7.94h1.79v-2.52h.89v6.25h-.89v-2.97h-1.79v-.76Z"/><path class="cls-1" d="M203.59,49.56h-10.36v-.76h3.82v-4.12h.91v4.12h5.63v.76Zm-2.85-2.31c.31-1.6,.52-3.65,.52-5.43h-6.67v-.75h7.65c-.07,2.41-.29,4.38-.6,6.19h-.89Z"/><path class="cls-1" d="M213.94,45.31h-10.36v-.76h7.52c.15-1,.36-2.57,.39-3.27h-6.47v-.77h7.45c-.01,.79-.27,2.91-.44,4.04h1.92v.76Zm-1.45,6.08h-7.48v-4.95h.88v1.63h5.72v-1.63h.88v4.95Zm-.88-.73v-1.86h-5.72v1.86h5.72Z"/><path class="cls-1" d="M219.69,40.76c-.15,3.49-2.68,4.94-4.91,5.73l-.46-.66c2.2-.78,4.22-2.1,4.4-4.33h-3.83v-.74h4.8Zm3.41,10.64h-7.09v-4.26h7.09v4.26Zm-.89-.73v-2.79h-5.31v2.79h5.31Zm.89-4.15h-.89v-6.31h.89v6.31Z"/><path class="cls-1" d="M224.94,49.39h1.26v1.22h-1.26v-1.22Z"/></g></g></svg>