<?xml version="1.0" encoding="UTF-8"?><svg id="_레이어_2" xmlns="http://www.w3.org/2000/svg" viewBox="0 0 306.67 51.33"><defs><style>.cls-1{fill:#231815;}</style></defs><g id="_레이어_1-2"><g><path class="cls-1" d="M8.21,.49c1.71,0,2.79,1.25,2.79,2.71s-1.05,2.71-2.79,2.71-2.79-1.25-2.79-2.71S6.49,.49,8.21,.49Zm0,.66c-1.38,0-2,.97-2,2.05s.63,2.05,2,2.05,2.01-.98,2.01-2.05-.58-2.05-2.01-2.05Zm5.85,9.79H6.97v-3.62h.74v2.97h6.34v.65Zm1.4-7.36h-1.78V7.8h-.74V.13h.74V2.93h1.78v.65Z"/><path class="cls-1" d="M21.56,6.34c-1.02-.41-2.28-1.24-2.82-2.41-.54,1.38-1.67,2.1-2.78,2.67l-.41-.52c1.42-.72,2.81-1.67,2.81-3.51V1.37h-2.31V.73h5.38v.64h-2.31v1.2c0,1.8,1.41,2.66,2.76,3.2l-.33,.58Zm3.13,4.59h-7.13v-3.48h.74v2.83h6.39v.65Zm-.26-3.08h-.74V3.57h-2.27v-.65h2.27V.13h.74V7.86Z"/><path class="cls-1" d="M31.8,2.02h-6.39v-.62h2.8V.04h.79V1.39h2.8v.62Zm-3.2,4.92c-1.55,0-2.58-1.01-2.58-2.18s1.04-2.1,2.6-2.1,2.56,.91,2.56,2.1-.96,2.18-2.59,2.18Zm-1.85-2.18c0,.85,.61,1.57,1.87,1.57s1.83-.67,1.83-1.57c0-.85-.59-1.51-1.83-1.51s-1.87,.66-1.87,1.51Zm7.54,6.19h-7.07v-3.12h.74v2.47h6.33v.65Zm-.37-10.81V3.79h1.78v.66h-1.78v3.63h-.74V.13h.74Z"/><path class="cls-1" d="M44.69,5.85c-1-.43-2.34-1.21-2.88-2.41-.54,1.37-1.72,2.1-2.81,2.66l-.47-.5c1.44-.73,2.91-1.69,2.91-3.53V.52h.75v1.55c0,1.8,1.48,2.65,2.83,3.21l-.33,.58Zm2.79,5.34h-.75v-3.38h-6.35v-.65h7.11v4.03Zm0-4.63h-.75V.13h.75V6.56Z"/><path class="cls-1" d="M58.77,6.19h-4.68v1.48h3.26v3.41h-7.24v-3.41h3.21v-1.48h-4.63v-.65h10.08v.65Zm-9.09-1.88v-.67h1.73l-.19-1.99h.74l.18,1.99h3.19l.17-1.99h.75l-.18,1.99h1.69v.67h-8.08Zm.27-3.24V.43h7.54v.64h-7.54Zm6.68,9.38v-2.17h-5.79v2.17h5.79Z"/><path class="cls-1" d="M66.73,8.32c-.96-.61-1.96-1.7-2.33-2.81-.35,1.16-1.46,2.37-2.53,3.06l-.48-.52c1.76-1.05,2.63-2.69,2.63-4.15V1.68h-2.04v-.64h4.83v.64h-2.05V3.92c0,1.5,.84,2.96,2.37,3.85l-.41,.55Zm2.2,2.44h-.72V4.4h-1.95v-.68h1.95V.19h.72V10.76Zm2.11,.37h-.72V.13h.72V11.13Z"/><path class="cls-1" d="M81.93,9.37h-10.08v-.65h4.66v-2.52h.75v2.52h4.67v.65Zm-9.33-3.57c1.66-.6,3.87-1.93,3.87-3.49v-.85h-3.27V.8h7.35v.65h-3.27v.85c0,1.56,2.24,2.95,3.87,3.48l-.41,.58c-1.54-.55-3.18-1.65-3.86-2.93-.69,1.31-2.52,2.49-3.87,2.93l-.41-.56Z"/><path class="cls-1" d="M82.7,9.28h1.07v.96c0,.28-.02,.38-.07,.56-.17,.56-.51,.97-.93,1.27l-.19-.18c.35-.3,.75-.8,.73-1.54h-.61v-1.08Z"/><path class="cls-1" d="M92.49,.98c-.04,4.23-1.94,6.37-4.57,7.81l-.48-.58c2.91-1.57,4.25-3.68,4.26-6.6h-3.96V.98h4.75Zm3.19-.85V4.34h1.93v.66h-1.93v6.13h-.75V.13h.75Z"/><path class="cls-1" d="M107.57,5.75h-10.08v-.65h4V2.88h.76v2.22h5.32v.65Zm-8.75,3.41c0-1.19,1.19-2.17,3.73-2.17s3.71,.98,3.71,2.17-1.2,2.18-3.71,2.18-3.73-1-3.73-2.18ZM106.05,.48c-.02,.88-.2,2.53-.34,3.66h-.74c.12-.82,.25-2.34,.27-3.02h-6.33V.48h7.14Zm-3.51,7.08c-1.85,0-2.94,.7-2.94,1.58s1.09,1.62,2.94,1.62,2.93-.72,2.93-1.62-1.09-1.58-2.93-1.58Z"/><path class="cls-1" d="M117.68,4.82v.65h-10.08v-.65h10.08Zm-8.72-2.85c0-1.13,1.35-1.86,3.66-1.86s3.65,.72,3.65,1.86c0,1.25-1.4,1.91-3.65,1.91s-3.66-.68-3.66-1.91Zm7.6,9.22h-7.54v-2.58h6.48v-1.38h-6.48v-.61h7.24v2.58h-6.45v1.39h6.75v.6Zm-6.82-9.22c0,.96,1.29,1.33,2.88,1.33s2.88-.37,2.88-1.33c0-.85-1.33-1.27-2.88-1.27s-2.88,.43-2.88,1.27Z"/><path class="cls-1" d="M120.74,6.29c2.54,0,5.69-.07,7.49-.24v.59c-.94,.14-2.28,.23-3.71,.26v3.87h-.74v-3.86c-1.04,.02-2.07,.02-3.05,.02v-.65Zm6.53-3.67c0,1.43-1.22,2.25-2.86,2.25s-2.86-.82-2.86-2.25,1.29-2.29,2.86-2.29,2.86,.82,2.86,2.29Zm-2.86-1.66c-1.2,0-2.14,.68-2.14,1.64s.93,1.63,2.14,1.63c1.31,0,2.15-.66,2.15-1.63s-.89-1.64-2.15-1.64Zm5.28,10.17h-.74V.13h.74V11.13Z"/><path class="cls-1" d="M134.32,1.87h2.92v.64h-6.59v-.64h2.88V.14h.79V1.87Zm2.27,4.21c0,1.52-.96,2.77-2.64,2.77s-2.67-1.16-2.67-2.77,1.05-2.75,2.67-2.75,2.64,1.06,2.64,2.75Zm-.72,0c0-1.31-.61-2.09-1.92-2.09s-1.94,.82-1.94,2.09,.68,2.11,1.94,2.11,1.92-.84,1.92-2.11Zm3.33-5.95V4.85h1.92v.67h-1.92v5.61h-.73V.13h.73Z"/><path class="cls-1" d="M146.65,4.7c0,2.48-1.01,3.83-2.62,3.83s-2.63-1.34-2.63-3.83,1.04-3.86,2.63-3.86,2.62,1.28,2.62,3.86Zm-.72-.01c0-1.98-.64-3.2-1.89-3.2s-1.92,1.19-1.92,3.2,.65,3.19,1.92,3.19,1.89-1.27,1.89-3.19Zm1.2-2.28h1.98V.13h.74V11.13h-.74V6.51h-1.98v-.65h1.98V3.08h-1.98v-.67Z"/><path class="cls-1" d="M154.07,5.23c2.52,0,5.54-.1,7.33-.26v.61c-.99,.14-2.39,.22-3.87,.26v1.83h-.74v-1.81c-.92,.01-1.83,.01-2.72,.01v-.65Zm3.53-4.99c1.58,0,2.68,.77,2.68,1.93s-1.08,1.93-2.68,1.93-2.65-.74-2.65-1.93,1.12-1.93,2.65-1.93Zm0,.58c-1.31,0-1.95,.56-1.95,1.36,0,.73,.67,1.33,1.96,1.33s1.98-.59,1.98-1.33c0-.8-.63-1.36-1.99-1.36Zm5.59,10.12h-7.42v-2.72h.75v2.08h6.67v.65Zm-.27-2.39h-.74v-1.1h-2.64v-.65h2.64V.13h.74V8.55Z"/><path class="cls-1" d="M171.31,7.15v1.89h2.82v.65h-10.08v-.65h2.83v-1.89h.73v1.89h2.96v-1.89h.73Zm-5.87-.53V3.39h6.39V1.44h-6.42V.79h7.18v3.24h-6.4v1.93h6.75v.66h-7.49Z"/><path class="cls-1" d="M176.78,.91c1.4,0,2.26,1.28,2.36,3.38h1.46V.19h.72V10.76h-.72V4.99h-1.46c-.06,2.18-.89,3.54-2.36,3.54s-2.38-1.45-2.38-3.8,.87-3.81,2.38-3.81Zm-1.68,3.8c0,1.76,.56,3.15,1.68,3.15s1.67-1.38,1.67-3.15-.51-3.15-1.67-3.15-1.68,1.43-1.68,3.15Zm8.27,6.42h-.72V.13h.72V11.13Z"/><path class="cls-1" d="M187.91,.67V3.66c0,1.99,1.52,3.37,3,4.1l-.4,.61c-.96-.56-2.35-1.55-2.98-3.08-.56,1.51-1.8,2.57-3.05,3.36l-.48-.56c1.67-.95,3.14-2.43,3.14-4.47V.67h.76Zm5.33,10.46h-.74V4.08h-2.59v-.66h2.59V.13h.74V11.13Z"/><path class="cls-1" d="M197.61,8.55c.99,0,2.2-.01,3.22-.04v-2.31h.75v2.29c1.27-.04,2.61-.11,3.52-.19v.61c-1.76,.28-4.95,.3-7.49,.3v-.66Zm6.37-2.24c-1.07-.42-2.14-1.21-2.8-2.42-.52,1.16-1.75,2.12-2.88,2.59l-.42-.54c1.57-.66,2.89-1.76,2.89-3.43v-.19h-2.61v-.64h2.61V0h.76V1.68h2.61v.64h-2.61v.19c0,1.51,1.35,2.77,2.81,3.25l-.36,.55Zm2.51,4.82h-.74V.13h.74V11.13Z"/><path class="cls-1" d="M217.53,5.94h-10.08v-.64h4.66v-1.67h.76v1.67h4.66v.64Zm-1.26-1.8c-1.74-.38-3.16-1.26-3.79-2.24-.58,1-2.04,1.83-3.78,2.24l-.36-.58c1.87-.42,3.48-1.26,3.73-2.5h-3.2V.43h7.25v.64h-3.22c.22,1.26,2.01,2.1,3.75,2.5l-.38,.58Zm-.06,5.07c0,1.18-1.27,2.12-3.72,2.12s-3.72-.95-3.72-2.12,1.31-2.11,3.72-2.11,3.72,.91,3.72,2.11Zm-3.72-1.54c-1.85,0-2.93,.66-2.93,1.52s1.08,1.56,2.93,1.56,2.94-.65,2.94-1.56-1.11-1.52-2.94-1.52Z"/><path class="cls-1" d="M222.55,8.32c-.96-.61-1.96-1.7-2.33-2.81-.35,1.16-1.46,2.37-2.53,3.06l-.48-.52c1.76-1.05,2.64-2.69,2.64-4.15V1.68h-2.04v-.64h4.83v.64h-2.05V3.92c0,1.5,.83,2.96,2.36,3.85l-.41,.55Zm2.2,2.44h-.72V4.4h-1.95v-.68h1.95V.19h.72V10.76Zm2.11,.37h-.72V.13h.72V11.13Z"/><path class="cls-1" d="M237.75,6.19h-4.68v1.48h3.26v3.41h-7.24v-3.41h3.21v-1.48h-4.63v-.65h10.08v.65Zm-9.09-1.88v-.67h1.73l-.19-1.99h.74l.18,1.99h3.19l.17-1.99h.75l-.18,1.99h1.69v.67h-8.08Zm.27-3.24V.43h7.54v.64h-7.54Zm6.68,9.38v-2.17h-5.79v2.17h5.79Z"/><path class="cls-1" d="M240.4,.91c1.4,0,2.26,1.28,2.36,3.38h1.46V.19h.72V10.76h-.72V4.99h-1.46c-.06,2.18-.89,3.54-2.36,3.54s-2.38-1.45-2.38-3.8,.87-3.81,2.38-3.81Zm-1.68,3.8c0,1.76,.56,3.15,1.68,3.15s1.67-1.38,1.67-3.15-.51-3.15-1.67-3.15-1.68,1.43-1.68,3.15Zm8.27,6.42h-.72V.13h.72V11.13Z"/><path class="cls-1" d="M256.86,4.57c0,2.51-1,3.84-2.75,3.84-1.66,0-2.76-1.33-2.76-3.84s1.11-3.85,2.76-3.85c1.74,0,2.75,1.28,2.75,3.85Zm-.73-.01c0-1.97-.64-3.19-2.01-3.19s-2.04,1.19-2.04,3.19,.67,3.2,2.04,3.2,2.01-1.26,2.01-3.2Zm3.59,6.57h-.74V.13h.74V11.13Z"/><path class="cls-1" d="M271.03,8.74v.65h-10.08v-.65h10.08Zm-8.67-2.07V3.42h6.39V1.44h-6.42V.79h7.18v3.26h-6.4v1.96h6.75v.66h-7.49Z"/><path class="cls-1" d="M276.61,.98c-.04,4.23-2.01,6.37-4.62,7.81l-.47-.58c2.89-1.57,4.28-3.68,4.29-6.6h-4.01V.98h4.81Zm3.17,10.15h-.73V.13h.73V11.13Z"/><path class="cls-1" d="M284.13,.98c-.01,3.5-.72,5.5-2.65,7.12l-.54-.48c2.01-1.58,2.46-3.53,2.46-6.01h-2.11V.98h2.84Zm3.12,0c0,3.31-.42,5.92-2.76,7.98l-.53-.48c2.29-1.94,2.52-4.29,2.52-6.86h-1.83V.98h2.61Zm2.44-.85V4.34h1.93v.66h-1.93v6.13h-.74V.13h.74Z"/><path class="cls-1" d="M297.66,8.41c-.93-.54-2.18-1.47-2.85-3.05-.62,1.59-1.76,2.54-2.95,3.32l-.48-.55c1.66-.96,3.06-2.39,3.06-4.38V1.62h-2.48V.98h5.71v.64h-2.46V3.8c0,1.9,1.39,3.29,2.87,4.01l-.41,.6Zm2.65,2.72h-.74V.13h.74V11.13Z"/><path class="cls-1" d="M5.41,26.54v2.24h4.67v.65H0v-.65H4.66v-2.24h.75Zm-3.94-.84v-4.89h7.14v4.89H1.47Zm6.41-.65v-3.6H2.21v3.6H7.88Z"/><path class="cls-1" d="M20.2,26.51H10.11v-.65h10.08v.65Zm-1,4.43h-7.66v-3.23h.74v2.58h6.92v.65Zm-7.6-6.67v-3.79h7.18v.63h-6.45v2.52h6.56v.63h-7.29Z"/><path class="cls-1" d="M29.81,25.61c-1.29,.13-2.78,.24-6.26,.24v-5.12h4.98v.64h-4.24v3.81c2.48,0,4.29-.07,5.52-.2v.64Zm2.02,5.33h-7.06v-3.67h.73v3.02h6.33v.65Zm-.36-10.81v2.58h1.78v.65h-1.78v4.63h-.75v-7.86h.75Z"/><path class="cls-1" d="M37.56,21.04c-.02,3.79-1.42,5.86-3.78,7.57l-.58-.47c2.11-1.52,3.58-3.37,3.58-6.46h-3.08v-.64h3.86Zm.04,1.79h1.83v-2.64h.71v10.57h-.71v-4.08h-1.8v-.68h1.8v-2.48h-1.83v-.68Zm4.71,8.3h-.72v-11h.72v11Z"/><path class="cls-1" d="M46.01,20.91c1.4,0,2.26,1.28,2.36,3.38h1.46v-4.1h.72v10.57h-.72v-5.77h-1.46c-.06,2.18-.89,3.54-2.36,3.54s-2.38-1.45-2.38-3.8,.87-3.81,2.38-3.81Zm-1.68,3.8c0,1.76,.56,3.15,1.68,3.15s1.67-1.38,1.67-3.15-.51-3.15-1.67-3.15-1.68,1.43-1.68,3.15Zm8.27,6.42h-.72v-11h.72v11Z"/><path class="cls-1" d="M57.14,20.67v2.99c0,1.99,1.52,3.37,3,4.1l-.4,.61c-.96-.56-2.35-1.55-2.98-3.08-.56,1.51-1.8,2.57-3.05,3.36l-.48-.56c1.67-.95,3.14-2.43,3.14-4.47v-2.94h.76Zm5.33,10.46h-.74v-7.05h-2.59v-.66h2.59v-3.29h.74v11Z"/><path class="cls-1" d="M69.9,20.49c1.71,0,2.8,1.25,2.8,2.71s-1.06,2.71-2.8,2.71-2.8-1.25-2.8-2.71,1.09-2.71,2.8-2.71Zm0,.66c-1.38,0-2,.97-2,2.05s.63,2.05,2,2.05,2-.98,2-2.05-.58-2.05-2-2.05Zm5.87,9.79h-7.13v-3.63h.74v2.99h6.39v.65Zm-.26-3.08h-.74v-7.72h.74v7.72Z"/><path class="cls-1" d="M81.69,28.54c-1-.64-1.94-1.78-2.31-2.84-.28,1.09-1.34,2.36-2.48,3.07l-.48-.49c1.76-1.08,2.6-2.65,2.6-4.11v-1.52h-2.24v-.64h2.24v-1.67h.76v1.67h2.22v.64h-2.22v1.44c0,1.54,.81,3.05,2.33,3.95l-.42,.52Zm2.2,2.22h-.72v-5.71h-1.95v-.68h1.95v-4.17h.72v10.57Zm2.08,.37h-.72v-11h.72v11Z"/><path class="cls-1" d="M87,27.9c2.53,0,5.69-.1,7.49-.26v.61c-1.78,.25-4.95,.29-7.49,.29v-.64Zm3.34-7.27c1.73,0,2.88,1.07,2.88,2.62s-1.26,2.64-2.83,2.64c-1.75,0-2.82-1.17-2.82-2.66s1.16-2.59,2.78-2.59Zm-2.02,2.62c0,1.16,.83,1.98,2.07,1.98,1.31,0,2.08-.9,2.08-1.98,0-1.16-.83-1.97-2.09-1.97s-2.06,.79-2.06,1.97Zm7.62,7.88h-.74v-11h.74v11Z"/><path class="cls-1" d="M105.15,20.73c-.08,3.91-2.82,5.42-4.69,6.12l-.4-.55c2.33-.94,4.24-2.4,4.29-4.93h-3.73v-.64h4.53Zm3.74,10.21h-7.13v-3.48h.74v2.83h6.39v.65Zm-.27-3.08h-.74v-3.73h-2.38v-.65h2.38v-3.35h.74v7.72Z"/><path class="cls-1" d="M114.98,20.67c-.11,3.44-2.51,4.96-4.68,5.79l-.4-.54c2.22-.88,4.09-2.19,4.27-4.62h-3.72v-.64h4.53Zm3.48,8.42c0,1.3-1.15,2.24-3.51,2.24s-3.53-.92-3.53-2.24,1.19-2.28,3.53-2.28,3.51,.96,3.51,2.28Zm-.78,0c0-1-.99-1.67-2.72-1.67s-2.76,.67-2.76,1.67,.99,1.64,2.76,1.64,2.72-.62,2.72-1.64Zm2.35-5.82h-1.78v3.24h-.75v-6.38h.75v2.5h1.78v.65Z"/><path class="cls-1" d="M130.15,24.82v.65h-10.08v-.65h10.08Zm-8.72-2.85c0-1.13,1.35-1.86,3.66-1.86s3.65,.72,3.65,1.86c0,1.25-1.4,1.91-3.65,1.91s-3.66-.68-3.66-1.91Zm7.6,9.22h-7.54v-2.58h6.48v-1.38h-6.48v-.61h7.24v2.58h-6.45v1.39h6.75v.6Zm-6.82-9.22c0,.96,1.29,1.33,2.88,1.33s2.88-.37,2.88-1.33c0-.85-1.33-1.27-2.88-1.27s-2.88,.43-2.88,1.27Z"/><path class="cls-1" d="M138.59,22.69h-5.55v-.64h2.39v-1.71h.76v1.71h2.4v.64Zm-.35,3.41c0,1.67-.95,2.65-2.44,2.65s-2.46-1.03-2.46-2.65,.98-2.55,2.46-2.55,2.44,.97,2.44,2.55Zm-.68-.01c0-1.13-.56-1.92-1.75-1.92s-1.75,.79-1.75,1.92c0,1.21,.57,2.03,1.75,2.03s1.75-.82,1.75-2.03Zm4.86,5.05h-.72v-5.78h-1.64v5.41h-.71v-10.57h.71v4.46h1.64v-4.52h.72v11Z"/><path class="cls-1" d="M149.52,21.61h-6.39v-.62h2.8v-1.25h.79v1.25h2.8v.62Zm-3.2,4.29c-1.65,0-2.58-.86-2.58-1.88s.94-1.81,2.6-1.81,2.56,.78,2.56,1.81-.91,1.88-2.59,1.88Zm-1.83-1.9c0,.7,.6,1.3,1.86,1.3s1.82-.58,1.82-1.3-.58-1.22-1.82-1.22-1.86,.53-1.86,1.22Zm7.43,7.18h-7.09v-2.55h6.07v-1.34h-6.07v-.6h6.83v2.53h-6.07v1.35h6.33v.61Zm1.51-7.87h-1.78v2.65h-.74v-5.84h.74v2.54h1.78v.65Z"/><path class="cls-1" d="M166.37,27.27h-4.68v3.86h-.75v-3.86h-4.65v-.65h10.08v.65Zm-1.37-4.59c0,1.49-1.34,2.42-3.67,2.42s-3.69-.94-3.69-2.42,1.4-2.4,3.69-2.4,3.67,.95,3.67,2.4Zm-3.67,1.76c1.66,0,2.91-.61,2.91-1.77,0-1.08-1.25-1.71-2.91-1.71s-2.92,.62-2.92,1.73c0,1.16,1.24,1.76,2.92,1.76Z"/><path class="cls-1" d="M173.38,28.18c-1.93,.22-4.29,.23-6.15,.23v-4.22h3.45v-2.7h-3.45v-.64h4.19v3.97h-3.46v2.94c2.33,0,3.6-.06,5.42-.2v.62Zm2,2.95h-.73v-5.21h-2.11v-.65h2.11v-2.13h-2.11v-.65h2.11v-2.36h.73v11Z"/><path class="cls-1" d="M181.63,20.98c-.04,4.23-1.94,6.37-4.57,7.81l-.48-.58c2.91-1.57,4.25-3.68,4.26-6.6h-3.96v-.64h4.75Zm3.19-.85v4.21h1.93v.66h-1.93v6.13h-.75v-11h.75Z"/><path class="cls-1" d="M192.89,20.4c1.71,0,2.79,1.2,2.79,2.58s-1.01,2.58-2.79,2.58-2.79-1.19-2.79-2.58,1.06-2.58,2.79-2.58Zm6.11,10.76c-.85-.5-1.61-1.31-1.98-2.28-.41,.97-1.15,1.79-1.96,2.32-.98-.64-1.57-1.38-2-2.3-.29,.85-1.09,1.75-1.99,2.27l-.47-.5c1.22-.73,2.11-1.82,2.11-3.02v-.6h.76v.6c0,1.01,.66,2.11,1.56,2.73,.94-.61,1.6-1.73,1.6-2.73v-.6h.76v.6c0,1.33,.89,2.41,2.06,3.02l-.46,.5Zm-4.06-8.18c0-1.03-.74-1.93-2.05-1.93-1.4,0-2.06,.9-2.06,1.93s.61,1.91,2.06,1.91c1.34,0,2.05-.86,2.05-1.91Zm2.85-2.84h.74v6.09h-.74v-6.09Z"/><path class="cls-1" d="M209.76,26.36h-10.08v-.65h10.08v.65Zm-1,4.58h-7.66v-3.24h.74v2.59h6.92v.65Zm-.24-6.85h-7.36v-3.81h.73v3.18h6.63v.64Z"/><path class="cls-1" d="M212.82,26.29c2.54,0,5.69-.07,7.49-.24v.59c-.94,.14-2.28,.23-3.71,.26v3.87h-.74v-3.86c-1.04,.02-2.07,.02-3.05,.02v-.65Zm6.53-3.67c0,1.43-1.22,2.25-2.86,2.25s-2.86-.82-2.86-2.25,1.29-2.29,2.86-2.29,2.86,.82,2.86,2.29Zm-2.86-1.66c-1.2,0-2.14,.68-2.14,1.64s.93,1.63,2.14,1.63c1.31,0,2.15-.66,2.15-1.63s-.89-1.64-2.15-1.64Zm5.28,10.17h-.74v-11h.74v11Z"/><path class="cls-1" d="M228.32,22.69h-5.55v-.64h2.39v-1.71h.76v1.71h2.4v.64Zm-.35,3.41c0,1.67-.95,2.65-2.44,2.65s-2.46-1.03-2.46-2.65,.98-2.55,2.46-2.55,2.44,.97,2.44,2.55Zm-.68-.01c0-1.13-.56-1.92-1.75-1.92s-1.75,.79-1.75,1.92c0,1.21,.57,2.03,1.75,2.03s1.75-.82,1.75-2.03Zm4.86,5.05h-.72v-5.78h-1.64v5.41h-.71v-10.57h.71v4.46h1.64v-4.52h.72v11Z"/><path class="cls-1" d="M240.42,26.72v2.18h2.62v.65h-10.08v-.65h2.65v-2.18h.73v2.18h3.36v-2.18h.72Zm-6.09-3.32c0-1.49,1.31-2.78,3.68-2.78s3.67,1.29,3.67,2.78-1.29,2.77-3.67,2.77-3.68-1.3-3.68-2.77Zm.79,0c0,1.19,1.05,2.12,2.89,2.12s2.89-.94,2.89-2.12-1.01-2.13-2.89-2.13-2.89,.88-2.89,2.13Z"/><path class="cls-1" d="M253.16,29.43h-10.08v-.65h4.66v-2.72h.75v2.72h4.67v.65Zm-4.65-7.64c0,1.81,2.33,3.38,3.88,3.89l-.43,.55c-1.33-.5-3.2-1.71-3.84-3.2-.63,1.46-2.28,2.61-3.8,3.21l-.44-.56c1.59-.53,3.81-2.07,3.81-3.89v-1.17h.81v1.17Z"/><path class="cls-1" d="M263.27,25.24v.64h-10.08v-.64h10.08Zm-1.12,5.95h-7.54v-2.45h6.48v-1.2h-6.48v-.6h7.24v2.39h-6.47v1.26h6.78v.6Zm-7.49-7.03v-2.28h6.28v-1.07h-6.28v-.6h7.04v2.25h-6.28v1.1h6.54v.59h-7.29Z"/><path class="cls-1" d="M269.6,22.32c1.61,0,2.56,.65,2.56,1.56,0,.83-.8,1.46-2.2,1.55v.92c1.21-.04,2.33-.1,3.21-.18v.6c-1.75,.26-4.51,.31-7.01,.31v-.67c1,0,2.05-.01,3.05-.04v-.95c-1.38-.08-2.15-.73-2.15-1.55,0-.9,.91-1.56,2.54-1.56Zm3.07-.56h-6.14v-.62h2.67v-1.14h.78v1.14h2.69v.62Zm2.02,9.44h-.74v-2.62h-6.28v-.66h7.02v3.27Zm-3.27-7.32c0-.61-.56-1.02-1.82-1.02s-1.82,.41-1.82,1.02,.62,1.01,1.82,1.01c1.26,0,1.82-.42,1.82-1.01Zm5.05,.59h-1.78v2.82h-.74v-7.15h.74v3.68h1.78v.65Z"/><path class="cls-1" d="M279.7,20.49c1.71,0,2.8,1.25,2.8,2.71s-1.06,2.71-2.8,2.71-2.8-1.25-2.8-2.71,1.09-2.71,2.8-2.71Zm0,.66c-1.38,0-2,.97-2,2.05s.64,2.05,2,2.05,2-.98,2-2.05-.58-2.05-2-2.05Zm5.87,9.79h-7.13v-3.63h.74v2.99h6.39v.65Zm-.26-3.08h-.74v-7.72h.74v7.72Z"/><path class="cls-1" d="M290.02,21.87h2.92v.64h-6.59v-.64h2.88v-1.73h.79v1.73Zm2.27,4.21c0,1.52-.96,2.77-2.64,2.77s-2.67-1.16-2.67-2.77,1.05-2.75,2.67-2.75,2.64,1.06,2.64,2.75Zm-.72,0c0-1.31-.61-2.09-1.92-2.09s-1.94,.82-1.94,2.09,.68,2.11,1.94,2.11,1.92-.84,1.92-2.11Zm3.33-5.95v4.71h1.92v.67h-1.92v5.61h-.73v-11h.73Z"/><path class="cls-1" d="M306.67,29.26h-10.08v-.65h3.78v-4.09h.75v4.09h5.55v.65Zm-2.66-2.3c.29-1.57,.52-3.57,.52-5.35h-6.58v-.65h7.36c-.05,2.33-.26,4.26-.58,6h-.73Z"/><path class="cls-1" d="M71.74,49.21c0,1.18-1.27,2.12-3.72,2.12s-3.72-.95-3.72-2.12,1.15-2.01,3.31-2.11v-1.36h-4.64v-.65h10.08v.65h-4.68v1.36c2.21,.08,3.36,.97,3.36,2.11Zm0-5.05c-1.73-.36-3.14-1.27-3.78-2.27-.53,1-2.05,1.87-3.79,2.27l-.36-.56c1.87-.43,3.48-1.26,3.72-2.53h-3.19v-.64h7.25v.64h-3.2c.21,1.28,2,2.13,3.74,2.53l-.39,.56Zm-3.72,3.51c-1.85,0-2.93,.66-2.93,1.52s1.08,1.56,2.93,1.56,2.94-.65,2.94-1.56-1.11-1.52-2.94-1.52Z"/><path class="cls-1" d="M79.24,45.73c-1.01-.4-2.27-1.19-2.81-2.38-.53,1.38-1.68,2.06-2.79,2.65l-.41-.52c1.41-.71,2.81-1.61,2.81-3.42v-.77h-2.31v-.64h5.38v.64h-2.31v.76c0,1.77,1.41,2.55,2.76,3.11l-.33,.56Zm2.87,5.34h-6.86v-4.04h6.86v4.04Zm-.74-.62v-2.77h-5.39v2.77h5.39Zm.74-4.12h-.74v-3.17h-2.27v-.65h2.27v-2.38h.74v6.19Z"/><path class="cls-1" d="M86.06,45.67c.74,0,1.53,0,2.31-.02v-2.41h.73v2.4c1.51-.05,2.92-.11,3.98-.23v.61c-1.75,.26-4.51,.3-7.01,.3v-.65Zm5.89-4.98c-.05,1.08-.21,2.93-.34,3.69h-.73c.13-.79,.26-2.22,.29-3.06h-4.47v-.64h5.25Zm2.96,10.24h-7.19v-3.38h.74v2.74h6.45v.65Zm1.45-6.62h-1.78v3.68h-.74v-7.87h.74v3.53h1.78v.66Z"/><path class="cls-1" d="M103.3,48.17c-1.94,.22-4.24,.24-6.12,.24v-4.22h3.88v-2.7h-3.88v-.64h4.62v3.97h-3.89v2.93c2.09,0,3.55-.05,5.39-.19v.61Zm1.93,2.96h-.74v-11h.74v11Z"/><path class="cls-1" d="M109.92,41.87h2.92v.64h-6.59v-.64h2.88v-1.73h.79v1.73Zm2.27,4.21c0,1.52-.96,2.77-2.64,2.77s-2.67-1.16-2.67-2.77,1.05-2.75,2.67-2.75,2.64,1.06,2.64,2.75Zm-.72,0c0-1.31-.61-2.09-1.92-2.09s-1.94,.82-1.94,2.09,.68,2.11,1.94,2.11,1.92-.84,1.92-2.11Zm3.33-5.95v4.71h1.92v.67h-1.92v5.61h-.73v-11h.73Z"/><path class="cls-1" d="M126.56,46.36h-10.08v-.65h10.08v.65Zm-1,4.58h-7.66v-3.24h.74v2.59h6.92v.65Zm-.24-6.85h-7.36v-3.81h.73v3.18h6.63v.64Z"/><path class="cls-1" d="M129.39,48.1c.75,0,1.52,0,2.26-.01v-3.65h.74v3.62c1.59-.04,3.04-.12,4.15-.23v.6c-1.76,.28-4.64,.31-7.15,.31v-.65Zm6.05-7.14c-.11,1.92-.21,3.35-.49,5.12h-.69c.21-1.33,.34-3.05,.41-4.49h-4.69v-.64h5.47Zm2.64-.83v4.35h1.8v.66h-1.8v5.98h-.75v-11h.75Z"/><path class="cls-1" d="M145.93,41.9h-6.39v-.61h2.8v-1.35h.79v1.35h2.8v.61Zm-3.2,4.73c-1.65,0-2.58-.98-2.58-1.99s.94-1.98,2.6-1.98,2.56,.94,2.56,1.98c0,.97-.91,1.99-2.59,1.99Zm-1.85-2c0,.7,.61,1.4,1.87,1.4s1.83-.68,1.83-1.4-.59-1.39-1.83-1.39-1.87,.7-1.87,1.39Zm7.18,6.57h-.73v-3.02h-6.22v-.66h6.95v3.68Zm1.78-7.15h-1.78v2.79h-.74v-6.71h.74v3.26h1.78v.65Z"/><path class="cls-1" d="M155.92,45.92c-1.02-.4-2.28-1.22-2.82-2.4-.54,1.36-1.67,2.1-2.78,2.67l-.41-.52c1.42-.72,2.81-1.67,2.81-3.51v-.86h-2.32v-.64h5.38v.64h-2.29v.85c0,1.79,1.41,2.64,2.76,3.19l-.33,.58Zm2.87,5.27h-.74v-3.38h-6.35v-.65h7.09v4.03Zm0-4.63h-.74v-3.23h-2.27v-.65h2.27v-2.55h.74v6.43Z"/><path class="cls-1" d="M163.22,40.49c1.71,0,2.8,1.25,2.8,2.71s-1.06,2.71-2.8,2.71-2.8-1.25-2.8-2.71,1.09-2.71,2.8-2.71Zm0,.66c-1.38,0-2,.97-2,2.05s.63,2.05,2,2.05,2-.98,2-2.05-.58-2.05-2-2.05Zm5.87,9.79h-7.13v-3.63h.74v2.99h6.39v.65Zm-.26-3.08h-.74v-7.72h.74v7.72Z"/><path class="cls-1" d="M173.01,46.29c2.54,0,5.69-.07,7.49-.24v.59c-.94,.14-2.28,.23-3.71,.26v3.87h-.74v-3.86c-1.04,.02-2.07,.02-3.05,.02v-.65Zm6.53-3.67c0,1.43-1.22,2.25-2.86,2.25s-2.86-.82-2.86-2.25,1.29-2.29,2.86-2.29,2.86,.82,2.86,2.29Zm-2.86-1.66c-1.2,0-2.14,.68-2.14,1.64s.93,1.63,2.14,1.63c1.31,0,2.15-.66,2.15-1.63s-.89-1.64-2.15-1.64Zm5.28,10.17h-.74v-11h.74v11Z"/><path class="cls-1" d="M188.08,46.06c-.93-.52-1.89-1.31-2.28-2.27-.34,1-1.26,1.88-2.31,2.57l-.49-.52c1.04-.65,2.41-1.73,2.41-3.3v-1.91h.75v1.91c0,1.51,1.28,2.41,2.27,2.93l-.35,.59Zm4.32,3.07c0,1.7-1.86,2.21-3.61,2.21s-3.59-.5-3.59-2.21,1.94-2.21,3.59-2.21,3.61,.55,3.61,2.21Zm-.78,.01c0-1.21-1.54-1.62-2.82-1.62s-2.82,.41-2.82,1.62,1.58,1.59,2.82,1.59,2.82-.38,2.82-1.59Zm.72-2.47h-.72v-3.33h-1.73v2.87h-.71v-6.01h.71v2.45h1.73v-2.51h.72v6.54Z"/><path class="cls-1" d="M193.07,45.67c.74,0,1.53,0,2.31-.02v-2.41h.73v2.4c1.51-.05,2.92-.11,3.98-.23v.61c-1.75,.26-4.51,.3-7.01,.3v-.65Zm5.89-4.98c-.05,1.08-.21,2.93-.34,3.69h-.73c.13-.79,.26-2.22,.29-3.06h-4.47v-.64h5.25Zm2.96,10.24h-7.19v-3.38h.74v2.74h6.45v.65Zm1.45-6.62h-1.78v3.68h-.74v-7.87h.74v3.53h1.78v.66Z"/><path class="cls-1" d="M210.32,48.17c-1.94,.22-4.24,.24-6.12,.24v-4.22h3.88v-2.7h-3.88v-.64h4.62v3.97h-3.89v2.93c2.09,0,3.55-.05,5.39-.19v.61Zm1.93,2.96h-.74v-11h.74v11Z"/><path class="cls-1" d="M217.09,40.67v2.99c0,1.99,1.52,3.37,3,4.1l-.42,.61c-.95-.56-2.34-1.55-2.96-3.08-.56,1.51-1.8,2.57-3.05,3.36l-.48-.56c1.67-.95,3.14-2.43,3.14-4.47v-2.94h.78Zm5.2,10.46h-.75v-11h.75v11Z"/><path class="cls-1" d="M233.58,49.36h-10.08v-.65h10.08v.65Zm-4.65-7.39c0,1.82,2.33,3.38,3.88,3.9l-.43,.54c-1.33-.49-3.2-1.7-3.84-3.19-.63,1.46-2.28,2.61-3.8,3.2l-.44-.55c1.59-.53,3.81-2.08,3.81-3.9v-1.29h.81v1.29Z"/><path class="cls-1" d="M238.69,45.65c-.96,.1-2.17,.18-4.42,.18v-5.17h3.78v.62h-3.05v1.55h2.69v.6h-2.69v1.74c1.34,0,2.81-.06,3.69-.14v.62Zm3.98,5.42h-7.09v-3.84h7.09v3.84Zm-.73-.62v-2.59h-5.62v2.59h5.62Zm-1.39-3.87h-.71v-3.24h-1.57v-.67h1.57v-2.47h.71v6.38Zm2.12,0h-.72v-6.44h.72v6.44Z"/></g></g></svg>