<?xml version="1.0" encoding="UTF-8"?><svg id="_레이어_2" xmlns="http://www.w3.org/2000/svg" viewBox="0 0 173 11.58"><g id="_레이어_1-2"><g><path d="M10.37,8.78v.75H0v-.75H10.37ZM7.8,2.35l-.26,3.36h2v.75H.79v-.75H2.8l-.24-3.36h.89l.24,3.36h2.96l.22-3.36h.92ZM1.06,1.62V.86H9.28v.76H1.06Z"/><path d="M17.12,5.95c-1.68,.22-4.61,.25-6.39,.25V3.02h3.98V1.34h-3.98V.61h4.86V3.74h-3.96v1.72c1.59,0,3.66-.01,5.49-.23v.72Zm1.96,3.5c0,1.25-1.08,2.13-3.62,2.13s-3.63-.9-3.63-2.13,1.11-2.13,3.63-2.13,3.62,.9,3.62,2.13Zm-.95,0c0-.9-.95-1.44-2.67-1.44s-2.68,.56-2.68,1.44c0,.83,.94,1.43,2.68,1.43s2.67-.59,2.67-1.43ZM18.9,.11V2.99h1.81v.75h-1.81v3.2h-.89V.11h.89Z"/><path d="M31.06,9.58h-10.36v-.75h10.36v.75ZM26.36,1.99c0,1.86,2.43,3.47,4,3.96l-.55,.68c-1.38-.49-3.31-1.79-3.91-3.2-.67,1.42-2.31,2.61-3.89,3.2l-.55-.68c1.59-.5,3.93-2.1,3.93-3.96V.62h.98V1.99Z"/><path d="M40.52,6.01c-1.01-.4-2.44-1.28-2.93-2.39-.51,1.29-1.76,2.09-2.91,2.67l-.52-.6c1.45-.72,2.95-1.7,2.95-3.56V.43h.92v1.69c0,1.8,1.53,2.65,2.88,3.2l-.4,.68Zm2.75,5.41h-.88v-3.3h-6.45v-.76h7.33v4.05Zm.01-4.8h-.88V.11h.88V6.62Z"/><path d="M54.7,6.32h-4.74v1.34h3.29v3.63h-7.48v-3.63h3.26v-1.34h-4.69v-.76h10.36v.76Zm-9.36-1.82v-.76h1.74l-.19-1.98h.89l.19,1.98h3.09l.17-1.98h.92l-.2,1.98h1.72v.76h-8.33Zm.28-3.33V.4h7.79v.77h-7.79Zm6.75,9.4v-2.17h-5.72v2.17h5.72Z"/><path d="M62.95,5.95h-5.07V.56h.87v1.91h3.33V.56h.87V5.95Zm-.87-.76v-1.97h-3.33v1.97h3.33Zm4.09,6.22h-.89v-3.42h-6.31v-.77h7.2v4.19Zm1.81-7.92h-1.81v3.08h-.89V.11h.89V2.75h1.81v.76Z"/><path d="M74.75,5.76c-1.68,.2-4.61,.24-6.39,.24V2.9h3.98V1.31h-3.98V.58h4.86V3.63h-3.96v1.62c1.59,0,3.66-.01,5.49-.22v.72Zm1.8,5.54h-6.96v-3.9h6.96v3.9Zm-.89-.73v-2.43h-5.18v2.43h5.18ZM76.53,.11V2.75h1.81v.76h-1.81v3.26h-.89V.11h.89Z"/><path d="M82.73,7.4v1.44c1.28-.04,2.52-.11,3.43-.2v.73c-1.8,.26-5.04,.31-7.63,.31v-.78c.94,.01,2.11,0,3.27-.04v-1.46h.93Zm2.88-5.13h-6.81v-.73h2.99V0h.93V1.54h2.89v.73Zm-3.3,4.73c-1.86,0-2.86-.94-2.86-2.11s1.01-2.12,2.8-2.12,2.85,.97,2.85,2.13-1.07,2.1-2.79,2.1Zm1.91-2.1c0-.77-.64-1.43-1.96-1.43-1.24,0-1.95,.67-1.95,1.42s.73,1.39,1.96,1.39c1.34,0,1.95-.61,1.95-1.38Zm3.54,6.46h-.88V.11h.88V11.36Z"/><path d="M96.69,2.34c-.72-.43-1.27-.66-2.01-.66-1.09,0-1.74,.53-1.74,1.37,0,.97,.75,1.33,2.25,1.98,1.38,.6,2.34,1.32,2.34,2.63,0,1.68-1.46,2.41-2.88,2.41-1.06,0-2.04-.34-2.95-1.1l.46-.66c.62,.54,1.51,.97,2.41,.97s2.08-.34,2.08-1.61c0-.85-.78-1.42-2.11-1.98-1.33-.59-2.47-1.19-2.47-2.58,0-1.66,1.36-2.21,2.6-2.21,.88,0,1.71,.32,2.44,.74l-.41,.7Z"/><path d="M99.48,9.92h-.87V1.04h.87V9.92Z"/><path d="M107.88,9.92h-.92l-.86-2.36h-3.95l-.87,2.36h-.91l3.28-8.88h.94l3.28,8.88Zm-2.04-3.07l-1.72-4.82-1.73,4.82h3.45Z"/><path d="M113.81,9.92h-5.12V1.04h.87V9.21h4.25v.71Z"/><path d="M120.62,1.04c1.63,0,2.87,1.1,2.87,2.72s-1.24,2.75-2.86,2.75h-2.05v3.41h-.87V1.04h2.91Zm-2.04,.71V5.77h2.01c1.15,0,1.99-.8,1.99-2s-.84-2.01-1.99-2.01h-2.01Z"/><path d="M130.43,9.92h-.92l-.86-2.36h-3.95l-.87,2.36h-.91l3.28-8.88h.94l3.28,8.88Zm-2.04-3.07l-1.72-4.82-1.73,4.82h3.45Z"/><path d="M137.59,9.92h-1.06l-2.47-3.81h-1.94v3.81h-.87V1.04h2.99c1.54,0,2.88,.9,2.88,2.51,0,1.21-.82,2.17-2.08,2.47l2.55,3.9Zm-3.42-4.5c1.07,0,2.01-.61,2.01-1.87s-.89-1.8-1.95-1.8h-2.11v3.67h2.05Z"/><path d="M139.33,9.92h-.87V1.04h.87V9.92Z"/><path d="M145.24,2.34c-.72-.43-1.27-.66-2.01-.66-1.09,0-1.74,.53-1.74,1.37,0,.97,.75,1.33,2.25,1.98,1.38,.6,2.34,1.32,2.34,2.63,0,1.68-1.46,2.41-2.88,2.41-1.06,0-2.04-.34-2.95-1.1l.46-.66c.62,.54,1.51,.97,2.41,.97s2.08-.34,2.08-1.61c0-.85-.78-1.42-2.11-1.98-1.33-.59-2.47-1.19-2.47-2.58,0-1.66,1.36-2.21,2.6-2.21,.88,0,1.71,.32,2.44,.74l-.41,.7Z"/><path d="M154.94,9.21v.71h-5.24v-.77l1.92-2.11c1.77-1.94,2.29-2.87,2.29-3.68,0-.88-.6-1.65-1.74-1.65-.78,0-1.46,.43-2.01,.94l-.47-.6c.79-.73,1.62-1.1,2.53-1.1,1.58,0,2.55,1.05,2.55,2.4,0,1.26-.86,2.31-2.53,4.2l-1.49,1.68h4.19Z"/><path d="M155.29,5.44c0-1.85,.66-4.5,2.86-4.5s2.88,2.61,2.88,4.52c0,2.06-.65,4.61-2.88,4.61s-2.86-2.79-2.86-4.63Zm.85,0c0,1.44,.4,3.89,2,3.89,1.71,0,2.05-2.47,2.05-3.86s-.38-3.78-2.02-3.78-2.02,2.4-2.02,3.75Z"/><path d="M167.03,9.21v.71h-5.24v-.77l1.92-2.11c1.76-1.94,2.29-2.87,2.29-3.68,0-.88-.6-1.65-1.74-1.65-.78,0-1.46,.43-2.01,.94l-.47-.6c.79-.73,1.62-1.1,2.53-1.1,1.58,0,2.55,1.05,2.55,2.4,0,1.26-.86,2.31-2.53,4.2l-1.49,1.68h4.19Z"/><path d="M173,9.21v.71h-5.23v-.77l1.92-2.11c1.76-1.94,2.29-2.87,2.29-3.68,0-.88-.6-1.65-1.74-1.65-.78,0-1.46,.43-2.01,.94l-.47-.6c.79-.73,1.62-1.1,2.53-1.1,1.58,0,2.55,1.05,2.55,2.4,0,1.26-.86,2.31-2.53,4.2l-1.49,1.68h4.19Z"/></g></g></svg>