<?xml version="1.0" encoding="UTF-8"?><svg id="_레이어_2" xmlns="http://www.w3.org/2000/svg" viewBox="0 0 135.88 31.89"><g id="_레이어_1-2"><g><path d="M32.75,6.3h-4.27V.94h.88v1.88h2.52V.94h.87V6.3Zm-.87-.76v-1.97h-2.52v1.97h2.52Zm5.52,6.19h-.88v-3.37h-6.52v-.76h7.4v4.13Zm0-4.82h-.87V3.84h-1.67v3.07h-.88V.48h.88V3.05h1.67V.42h.87V6.91Z"/><path d="M43.82,6.32h-5.02V1.03h5.02V6.32Zm-.88-.74V1.78h-3.26v3.8h3.26Zm4.55,5.91h-7.34v-3.79h.91v3.04h6.44v.76Zm-.4-11.07V3.62h1.81v.75h-1.81v4.1h-.88V.42h.88Z"/><path d="M59.13,5.98h-4.71v1.19h3.26v2.59h-6.52v1.26h6.82v.71h-7.79v-2.65h6.54v-1.2h-6.54v-.71h3.29v-1.19h-4.73v-.74h10.36v.74Zm-8.91-1.83V.38h.87V1.56h5.58V.38h.87v3.77h-7.32Zm6.45-.74v-1.13h-5.58v1.13h5.58Z"/><path d="M72.42,7.45h-4.74v4.22h-.91V7.45h-4.72v-.75h10.36v.75Zm-1.22-2.12c-1.46-.38-3.07-1.13-3.96-2.46-.79,1.34-2.55,2.07-3.95,2.45l-.46-.7c1.74-.42,3.92-1.44,3.92-2.95V.54h.98V1.67c0,1.5,2.38,2.58,3.92,2.95l-.44,.71Z"/><path d="M82.77,5.82h-4.74v1.28h3.29v2.63h-6.52v1.29h6.82v.71h-7.79v-2.69h6.54v-1.24h-6.54v-.71h3.26v-1.28h-4.69v-.75h10.36v.75Zm-4.73-4.71h3.41v.74h-3.38c.4,1.15,2.05,1.71,3.81,2.03l-.42,.67c-1.82-.36-3.19-.96-3.88-1.91-.61,.95-2.13,1.56-3.86,1.91l-.44-.67c1.82-.3,3.44-.89,3.81-2.03h-3.38v-.74h3.4V0h.92V1.1Z"/><path d="M82.97,8.41c2.27,.01,5.69-.07,7.63-.28v.74c-1.8,.26-5.04,.31-7.63,.31v-.78Zm3.56-1.99c-1.73,0-3.04-1.12-3.04-2.72s1.33-2.71,2.98-2.71c1.82,0,2.98,1.24,2.98,2.75s-1.12,2.69-2.92,2.69Zm2.01-2.71c0-1.16-.78-1.94-2.07-1.94s-2.08,.88-2.08,1.94c0,1.15,.8,1.94,2.11,1.94s2.05-.78,2.05-1.94Zm3.65,7.96h-.88V.42h.88V11.67Z"/><path d="M102.93,5.69c-1.35,.14-2.85,.24-6.49,.24V.89h5.19v.73h-4.29v1.36h4.18v.73h-4.18v1.48c2.49,0,4.35-.08,5.6-.22v.72Zm1.69,5.92h-6.96V7.02h.89v1.52h5.18v-1.52h.89v4.59Zm-.89-.73v-1.61h-5.18v1.61h5.18Zm.87-10.46V2.93h1.81v.76h-1.81v2.72h-.89V.42h.89Z"/><path d="M107.09,9.61h1.26v1.03c0,.3-.02,.48-.07,.66-.18,.64-.58,1.12-1.04,1.43l-.26-.25c.34-.29,.81-.92,.78-1.64h-.67v-1.22Z"/><path d="M6.36,26.69c-1.02-.41-2.44-1.28-2.94-2.4-.51,1.29-1.76,2.1-2.91,2.69l-.52-.6c1.45-.73,2.95-1.7,2.95-3.56v-2.01h.93v2c0,1.8,1.52,2.65,2.87,3.2l-.39,.68Zm3,4.8H2.04v-3.63h.91v2.88h6.42v.76Zm-.39-11.07v3.09h1.81v.77h-1.81v4.14h-.88v-8h.88Z"/><path d="M13.89,20.65c1.72,0,2.89,1.17,2.89,2.59s-1.15,2.62-2.89,2.62-2.89-1.16-2.89-2.62,1.19-2.59,2.89-2.59Zm2,2.59c0-1.01-.78-1.85-2-1.85-1.29,0-2,.84-2,1.85s.71,1.85,2,1.85c1.22,0,2-.8,2-1.85Zm3.99,8.37h-7.09v-4.77h.89v1.62h5.31v-1.62h.89v4.77Zm-.89-.73v-1.69h-5.31v1.69h5.31Zm.89-4.65h-.89v-2.65h-1.79v-.76h1.79v-2.4h.89v5.8Z"/><path d="M31.37,26.94h-10.36v-.76h4.72v-1.17h-3.22v-4.39h7.31v.74h-6.42v1.08h6.41v.71h-6.41v1.12h6.53v.74h-3.27v1.17h4.73v.76Zm-1.29,2.88c0,1.22-1.25,2.06-3.89,2.06s-3.87-.84-3.87-2.06,1.26-2.05,3.87-2.05,3.89,.8,3.89,2.05Zm-3.89-1.34c-1.82,0-2.91,.48-2.91,1.33s1.08,1.34,2.91,1.34,2.92-.44,2.92-1.34-1.09-1.33-2.92-1.33Z"/><path d="M37.41,26.3c-1.02-.4-2.44-1.28-2.94-2.39-.51,1.29-1.76,2.09-2.91,2.67l-.52-.6c1.45-.72,2.95-1.7,2.95-3.56v-1.64h.93v1.63c0,1.8,1.52,2.65,2.87,3.2l-.39,.68Zm2.94,3.26c0,1.34-1.09,2.33-3.62,2.33s-3.66-.97-3.66-2.33,1.11-2.36,3.66-2.36,3.62,1.01,3.62,2.36Zm-.93,.01c0-1.01-.99-1.67-2.68-1.67s-2.73,.66-2.73,1.67c0,.94,.98,1.6,2.73,1.6s2.68-.61,2.68-1.6Zm2.41-5.86h-1.81v3.2h-.88v-6.49h.88v2.54h1.81v.74Z"/><path d="M52.07,27.84h-4.74v3.83h-.91v-3.83h-4.72v-.76h10.36v.76Zm-1.55-2.31h-7.27v-4.91h.89v1.67h5.49v-1.67h.88v4.91Zm-.88-.76v-1.74h-5.49v1.74h5.49Z"/><path d="M58.17,26.3c-1.02-.4-2.36-1.22-2.87-2.33-.51,1.3-1.72,2.03-2.86,2.61l-.52-.6c1.46-.72,2.89-1.62,2.89-3.48v-.76h-2.34v-.74h5.6v.74h-2.33v.74c0,1.8,1.46,2.58,2.81,3.13l-.39,.67Zm2.75,3.3c0,1.34-1.08,2.29-3.62,2.29s-3.65-.94-3.65-2.29,1.11-2.33,3.65-2.33,3.62,.97,3.62,2.33Zm-.92,.01c0-1.01-.99-1.63-2.69-1.63s-2.72,.62-2.72,1.63c0,.94,.96,1.56,2.72,1.56s2.69-.58,2.69-1.56Zm2.53-5.9h-1.81v3.24h-.88v-6.52h.88v2.54h1.81v.74Z"/><path d="M62.29,26.04c.73,.01,1.53,0,2.34-.01v-2.46h.91v2.43c1.42-.05,2.84-.12,3.92-.23v.71c-1.8,.26-4.55,.31-7.16,.31v-.76Zm6.16-5.04c-.04,1.1-.25,3.07-.36,3.83h-.89c.12-.78,.26-2.27,.29-3.08h-4.52v-.74h5.48Zm3,10.48h-7.46v-3.42h.91v2.66h6.55v.76Zm1.45-6.73h-1.8v3.73h-.88v-8.07h.88v3.59h1.8v.76Z"/><path d="M78.81,26.3c-1.02-.4-2.44-1.28-2.94-2.39-.51,1.29-1.76,2.09-2.91,2.67l-.52-.6c1.45-.72,2.95-1.7,2.95-3.56v-1.64h.93v1.63c0,1.8,1.52,2.65,2.87,3.2l-.39,.68Zm2.94,3.26c0,1.34-1.09,2.33-3.62,2.33s-3.66-.97-3.66-2.33,1.11-2.36,3.66-2.36,3.62,1.01,3.62,2.36Zm-.93,.01c0-1.01-.99-1.67-2.68-1.67s-2.73,.66-2.73,1.67c0,.94,.98,1.6,2.73,1.6s2.68-.61,2.68-1.6Zm2.41-5.86h-1.81v3.2h-.88v-6.49h.88v2.54h1.81v.74Z"/><path d="M93.53,27.05v2.24h2.87v.77h-10.36v-.77h2.87v-2.24h.89v2.24h2.85v-2.24h.88Zm.32-4.33l-.24,2.81h1.96v.76h-8.75v-.76h1.98l-.22-2.81h.89l.22,2.81h3.04l.2-2.81h.92Zm-6.75-.85v-.76h8.22v.76h-8.22Z"/><path d="M100.13,21.54h2.46v.73h-2.46v.35c0,1.8,1.45,2.66,2.8,3.21l-.39,.68c-1.02-.41-2.36-1.28-2.87-2.4-.51,1.3-1.72,2.09-2.86,2.68l-.52-.6c1.46-.72,2.91-1.7,2.91-3.56v-.36h-2.46v-.73h2.46v-1.32h.93v1.32Zm5.13,8.12c0,1.34-1.08,2.23-3.62,2.23s-3.65-.88-3.65-2.23,1.11-2.27,3.65-2.27,3.62,.91,3.62,2.27Zm-.92,.01c0-1.01-.99-1.57-2.69-1.57s-2.72,.56-2.72,1.57c0,.93,.96,1.5,2.72,1.5s2.69-.5,2.69-1.5Zm2.53-5.71h-1.81v3.12h-.88v-6.66h.88v2.78h1.81v.76Z"/><path d="M109.5,31.84c-1.25-1.8-1.87-3.79-1.87-5.72s.62-3.9,1.87-5.69h.69c-1.11,1.82-1.66,3.83-1.66,5.71s.56,3.87,1.66,5.7h-.69Z"/><path d="M116.25,29.52v.71h-5.24v-.77l1.92-2.11c1.77-1.94,2.29-2.87,2.29-3.68,0-.88-.6-1.65-1.74-1.65-.78,0-1.46,.43-2.01,.94l-.47-.6c.79-.73,1.62-1.1,2.53-1.1,1.58,0,2.55,1.05,2.55,2.4,0,1.26-.86,2.31-2.53,4.2l-1.49,1.68h4.19Z"/><path d="M116.6,25.76c0-1.85,.66-4.5,2.86-4.5s2.88,2.61,2.88,4.52c0,2.06-.65,4.61-2.88,4.61s-2.86-2.79-2.86-4.63Zm.85,0c0,1.44,.4,3.89,2,3.89,1.71,0,2.05-2.47,2.05-3.86s-.38-3.78-2.02-3.78-2.02,2.4-2.02,3.75Z"/><path d="M124.66,30.24v-7.78l-1.32,1.1-.45-.55,1.92-1.65h.72v8.89h-.87Z"/><path d="M128,29.67c1.92-.4,3.19-1.75,3.65-3.57-.67,.65-1.49,.85-2.15,.85-1.66,0-2.59-1.32-2.59-2.77,0-1.68,1.02-2.94,2.76-2.94s2.89,1.32,2.89,3.75c0,2.61-1.72,4.89-4.4,5.4l-.17-.72Zm-.24-5.54c0,1.15,.73,2.11,1.86,2.11,.76,0,1.53-.31,2.06-1.04,.02-.17,.04-.36,.04-.55,0-1.31-.59-2.69-2.01-2.69-1.2,0-1.94,.94-1.94,2.17Z"/><path d="M133.31,31.84c1.09-1.82,1.66-3.79,1.66-5.7s-.55-3.89-1.66-5.71h.69c1.25,1.79,1.87,3.77,1.87,5.69s-.62,3.92-1.87,5.72h-.69Z"/></g></g></svg>