<?xml version="1.0" encoding="UTF-8"?><svg id="_레이어_2" xmlns="http://www.w3.org/2000/svg" viewBox="0 0 118.05 9.14"><g id="_레이어_1-2"><g><path d="M5.25,8.28v.71H.01v-.77l1.92-2.11c1.76-1.94,2.29-2.87,2.29-3.68,0-.88-.6-1.65-1.74-1.65-.78,0-1.46,.43-2.01,.94l-.47-.6C.79,.37,1.62,0,2.53,0c1.58,0,2.55,1.05,2.55,2.4,0,1.26-.86,2.31-2.53,4.2l-1.49,1.68H5.25Z"/><path d="M5.6,4.51C5.6,2.66,6.26,.01,8.46,.01s2.88,2.61,2.88,4.52c0,2.06-.65,4.61-2.88,4.61s-2.86-2.79-2.86-4.63Zm.85,0c0,1.44,.4,3.89,2,3.89,1.71,0,2.05-2.47,2.05-3.86s-.38-3.78-2.02-3.78-2.02,2.4-2.02,3.75Z"/><path d="M17.34,8.28v.71h-5.24v-.77l1.92-2.11c1.76-1.94,2.29-2.87,2.29-3.68,0-.88-.6-1.65-1.74-1.65-.78,0-1.46,.43-2.01,.94l-.47-.6c.79-.73,1.62-1.1,2.53-1.1,1.58,0,2.55,1.05,2.55,2.4,0,1.26-.86,2.31-2.53,4.2l-1.49,1.68h4.19Z"/><path d="M23.31,8.28v.71h-5.24v-.77l1.92-2.11c1.76-1.94,2.29-2.87,2.29-3.68,0-.88-.6-1.65-1.74-1.65-.78,0-1.46,.43-2.01,.94l-.47-.6c.79-.73,1.62-1.1,2.53-1.1,1.58,0,2.55,1.05,2.55,2.4,0,1.26-.86,2.31-2.53,4.2l-1.49,1.68h4.19Z"/><path d="M28.25,3.95L32.13,.11h1.21l-4.25,4.16,4.83,4.71h-1.22l-4.46-4.37v4.37h-.87V.11h.87V3.95Z"/><path d="M34.17,5v-.78h5.38v.78h-5.38Z"/><path d="M46.29,8.98h-5.6V.11h5.47V.82h-4.6v3.2h4.36v.7h-4.36v3.56h4.73v.71Z"/><path d="M51.78,.11h.98l-2.63,4.35,2.75,4.52h-.99l-2.26-3.75-2.24,3.75h-1.01l2.75-4.52L46.5,.11h.99l2.14,3.59L51.78,.11Z"/><path d="M56.55,.11c1.64,0,2.87,1.1,2.87,2.72s-1.24,2.75-2.86,2.75h-2.05v3.41h-.87V.11h2.91Zm-2.04,.71V4.83h2.01c1.15,0,1.99-.8,1.99-2s-.83-2.01-1.99-2.01h-2.01Z"/><path d="M59.85,4.57C59.85,2.07,61.14,.01,63.72,.01s3.94,2.06,3.94,4.56-1.37,4.56-3.94,4.56-3.87-2.1-3.87-4.56Zm3.87,3.84c2.05,0,3.01-1.9,3.01-3.84s-1.02-3.85-3.01-3.85-2.99,1.87-2.99,3.85,.96,3.84,2.99,3.84Z"/><path d="M78.25,.11l-3.12,8.88h-1.04L70.98,.11h.92l2.72,7.89L77.33,.11h.92Z"/><path d="M79.94,8.98h-.87V.11h.87V8.98Z"/><path d="M87.17,8.98h-5.6V.11h5.47V.82h-4.6v3.2h4.37v.7h-4.37v3.56h4.73v.71Z"/><path d="M93.94,.82h-2.74V8.98h-.87V.82h-2.73V.11h6.34V.82Z"/><path d="M101.07,8.98h-.96l-4.42-7.41v7.41h-.87V.11h.95l4.44,7.46V.11h.87V8.98Z"/><path d="M109.39,8.98h-.92l-.86-2.36h-3.95l-.87,2.36h-.91L105.17,.11h.94l3.28,8.88Zm-2.04-3.07l-1.72-4.82-1.73,4.82h3.45Z"/><path d="M118.05,8.98h-.85V1.59l-2.67,5.03h-.8l-2.67-5.03v7.39h-.85V.11h.94l2.98,5.61L117.11,.11h.94V8.98Z"/></g></g></svg>