<?xml version="1.0" encoding="UTF-8"?><svg id="_레이어_2" xmlns="http://www.w3.org/2000/svg" viewBox="0 0 181.69 11.68"><defs><style>.cls-1{fill:#231815;}</style></defs><g id="_레이어_1-2"><g><path class="cls-1" d="M5.25,9.32v.71H.01v-.77l1.92-2.11c1.76-1.94,2.29-2.87,2.29-3.68,0-.88-.6-1.66-1.74-1.66-.78,0-1.46,.43-2.01,.94l-.47-.6c.79-.73,1.62-1.1,2.53-1.1,1.58,0,2.55,1.06,2.55,2.4,0,1.26-.86,2.32-2.53,4.2l-1.49,1.68H5.25Z"/><path class="cls-1" d="M5.6,5.55c0-1.85,.66-4.5,2.86-4.5s2.88,2.62,2.88,4.52c0,2.06-.65,4.61-2.88,4.61s-2.86-2.79-2.86-4.63Zm.85,0c0,1.44,.4,3.89,2,3.89,1.71,0,2.05-2.47,2.05-3.86s-.38-3.78-2.02-3.78-2.02,2.4-2.02,3.75Z"/><path class="cls-1" d="M17.34,9.32v.71h-5.24v-.77l1.92-2.11c1.76-1.94,2.29-2.87,2.29-3.68,0-.88-.6-1.66-1.74-1.66-.78,0-1.46,.43-2.01,.94l-.47-.6c.79-.73,1.62-1.1,2.53-1.1,1.58,0,2.55,1.06,2.55,2.4,0,1.26-.86,2.32-2.53,4.2l-1.49,1.68h4.19Z"/><path class="cls-1" d="M23.31,9.32v.71h-5.24v-.77l1.92-2.11c1.76-1.94,2.29-2.87,2.29-3.68,0-.88-.6-1.66-1.74-1.66-.78,0-1.46,.43-2.01,.94l-.47-.6c.79-.73,1.62-1.1,2.53-1.1,1.58,0,2.55,1.06,2.55,2.4,0,1.26-.86,2.32-2.53,4.2l-1.49,1.68h4.19Z"/><path class="cls-1" d="M36.94,7.24h-4.74v4.22h-.91V7.24h-4.72v-.76h10.36v.76Zm-1.22-2.12c-1.46-.38-3.07-1.13-3.96-2.46-.79,1.34-2.55,2.08-3.95,2.45l-.46-.7c1.74-.42,3.92-1.44,3.92-2.95V.34h.98V1.46c0,1.5,2.38,2.58,3.92,2.95l-.43,.71Z"/><path class="cls-1" d="M43.5,1.98h-6.51v-.72h2.84V0h.94V1.26h2.73v.72Zm-3.2,4.47c-1.64,0-2.68-.91-2.68-1.98s1.05-1.9,2.69-1.9,2.68,.83,2.68,1.9-1.01,1.98-2.69,1.98Zm-1.8-1.99c0,.68,.71,1.3,1.81,1.3s1.79-.59,1.79-1.3-.66-1.21-1.79-1.21-1.81,.54-1.81,1.21Zm7.84,6.95h-7.09V7.06h.89v1.43h5.32v-1.43h.88v4.34Zm-.88-.73v-1.44h-5.32v1.44h5.32Zm.88-4.31h-.88v-1.1h-1.91v-.76h1.91v-1.32h-1.91v-.77h1.91V.22h.88V6.37Z"/><path class="cls-1" d="M56.34,9.47c0,1.22-1.25,2.21-3.89,2.21s-3.87-.98-3.87-2.21,1.11-2.07,3.39-2.2v-1.23h-4.69v-.76h10.36v.76h-4.74v1.23c2.33,.12,3.45,1.02,3.45,2.2Zm-.01-5.13c-1.82-.38-3.28-1.22-3.89-2.17-.55,.96-2.04,1.75-3.85,2.17l-.45-.67c1.91-.41,3.58-1.21,3.82-2.41h-3.26V.5h7.48v.76h-3.26c.2,1.23,2.07,2.04,3.83,2.41l-.44,.67Zm-3.88,3.65c-1.82,0-2.91,.62-2.91,1.48s1.08,1.49,2.91,1.49,2.92-.6,2.92-1.49-1.09-1.48-2.92-1.48Z"/><path class="cls-1" d="M60.62,.49c1.79,0,2.88,1.27,2.88,2.7s-1.02,2.7-2.88,2.7-2.89-1.26-2.89-2.7,1.11-2.7,2.89-2.7Zm2,2.7c0-1.02-.72-1.95-2-1.95-1.38,0-2.01,.94-2.01,1.95s.6,1.94,2.01,1.94c1.32,0,2-.91,2-1.94Zm3.83,6.17c0,1.34-1.09,2.33-3.62,2.33s-3.65-.97-3.65-2.33,1.11-2.36,3.65-2.36,3.62,1.01,3.62,2.36Zm-.92,.01c0-1.01-.99-1.67-2.69-1.67s-2.72,.66-2.72,1.67c0,.94,.96,1.59,2.72,1.59s2.69-.61,2.69-1.59Zm2.53-5.96h-1.81v3.3h-.89V.22h.89V2.66h1.81v.74Z"/><path class="cls-1" d="M72.38,7.51v1.44c1.28-.04,2.52-.11,3.44-.2v.73c-1.8,.26-5.04,.31-7.63,.31v-.78c.94,.01,2.11,0,3.27-.04v-1.46h.93Zm2.88-5.13h-6.81v-.73h2.99V.11h.93V1.64h2.89v.73Zm-3.31,4.72c-1.86,0-2.86-.94-2.86-2.11s1.01-2.12,2.8-2.12,2.85,.97,2.85,2.13-1.07,2.1-2.79,2.1Zm1.91-2.1c0-.77-.63-1.43-1.96-1.43-1.24,0-1.95,.67-1.95,1.42s.73,1.39,1.96,1.39c1.34,0,1.95-.61,1.95-1.38Zm3.54,6.46h-.88V.22h.88V11.46Z"/><path class="cls-1" d="M81.65,5.61c0-2.5,1.29-4.56,3.87-4.56s3.94,2.06,3.94,4.56-1.37,4.56-3.94,4.56-3.87-2.1-3.87-4.56Zm3.87,3.84c2.05,0,3.01-1.9,3.01-3.84s-1.02-3.85-3.01-3.85-2.99,1.87-2.99,3.85,.96,3.84,2.99,3.84Z"/><path class="cls-1" d="M95.43,9.32v.71h-5.24v-.77l1.92-2.11c1.76-1.94,2.29-2.87,2.29-3.68,0-.88-.6-1.66-1.74-1.66-.78,0-1.46,.43-2.01,.94l-.47-.6c.79-.73,1.62-1.1,2.53-1.1,1.58,0,2.55,1.06,2.55,2.4,0,1.26-.86,2.32-2.53,4.2l-1.49,1.68h4.19Z"/><path class="cls-1" d="M96.15,5.61c0-2.5,1.29-4.56,3.87-4.56s3.94,2.06,3.94,4.56-1.37,4.56-3.94,4.56-3.87-2.1-3.87-4.56Zm3.87,3.84c2.05,0,3.01-1.9,3.01-3.84s-1.02-3.85-3.01-3.85-2.99,1.87-2.99,3.85,.96,3.84,2.99,3.84Z"/><path class="cls-1" d="M112.69,8.3c-1.4,.18-3.51,.19-4.86,.19V.95h4.14v.74h-3.25v2.54h3.13v.74h-3.13v2.73c.81,0,2.61-.01,3.96-.14v.73Zm3.96,3.17h-.87V5.07h-1.59v6.03h-.87V.28h.87v3.99h1.59V.22h.87V11.46Z"/><path class="cls-1" d="M127.94,5.38h-4.74v2.04h3.29v4.1h-.89v-3.35h-6.73v-.76h3.4v-2.04h-4.69v-.76h7.56c.12-.76,.34-2.48,.35-3.31h-6.48V.55h7.46c-.04,1.02-.26,3.12-.41,4.08h1.88v.76Z"/><path class="cls-1" d="M141.23,7.54h-4.74v3.92h-.91v-3.92h-4.72v-.76h10.36v.76Zm-1.51-2.47h-7.36V.7h7.36V5.07Zm-.88-.76V1.45h-5.59v2.87h5.59Z"/><path class="cls-1" d="M144.45,.54c1.79,0,2.89,1.26,2.89,2.69s-1.04,2.69-2.89,2.69-2.89-1.25-2.89-2.69,1.11-2.69,2.89-2.69Zm2,2.69c0-1.02-.72-1.93-2-1.93-1.36,0-2,.91-2,1.93s.6,1.93,2,1.93c1.32,0,2-.9,2-1.93Zm3.98,8.3h-.89v-3.54h-6.43v-.77h7.33v4.31Zm-2.72-10h1.83V.22h.89V6.58h-.89v-1.61h-1.83v-.75h1.83v-1.96h-1.83v-.74Z"/><path class="cls-1" d="M157.62,6.09c-1.02-.39-2.43-1.28-2.94-2.39-.51,1.29-1.76,2.09-2.91,2.67l-.52-.6c1.45-.72,2.95-1.7,2.95-3.56V.58h.93v1.63c0,1.8,1.52,2.65,2.87,3.2l-.39,.68Zm2.94,3.26c0,1.34-1.09,2.33-3.62,2.33s-3.66-.97-3.66-2.33,1.11-2.36,3.66-2.36,3.62,1.01,3.62,2.36Zm-.93,.01c0-1.01-.99-1.67-2.68-1.67s-2.73,.66-2.73,1.67c0,.94,.98,1.59,2.73,1.59s2.68-.61,2.68-1.59Zm2.41-5.87h-1.81v3.2h-.88V.22h.88V2.76h1.81v.74Z"/><path class="cls-1" d="M168.79,5.43c-1.35,.14-2.85,.24-6.49,.24V.77h5.19v.74h-4.29v3.39c2.49,0,4.35-.07,5.6-.2v.73Zm1.69,5.97h-6.96V7.15h6.96v4.26Zm-.89-.73v-2.79h-5.18v2.79h5.18Zm2.68-7.4h-1.81v3.25h-.89V.22h.89V2.52h1.81v.75Z"/><path class="cls-1" d="M176.67,7.51v1.44c1.28-.04,2.52-.11,3.44-.2v.73c-1.8,.26-5.04,.31-7.63,.31v-.78c.94,.01,2.11,0,3.27-.04v-1.46h.93Zm2.88-5.13h-6.81v-.73h2.99V.11h.93V1.64h2.89v.73Zm-3.31,4.72c-1.86,0-2.86-.94-2.86-2.11s1.01-2.12,2.8-2.12,2.85,.97,2.85,2.13-1.07,2.1-2.79,2.1Zm1.91-2.1c0-.77-.63-1.43-1.96-1.43-1.24,0-1.95,.67-1.95,1.42s.73,1.39,1.96,1.39c1.34,0,1.95-.61,1.95-1.38Zm3.54,6.46h-.88V.22h.88V11.46Z"/></g></g></svg>