<?xml version="1.0" encoding="UTF-8"?><svg id="_레이어_2" xmlns="http://www.w3.org/2000/svg" viewBox="0 0 212.53 11.48"><g id="_레이어_1-2"><g><path d="M5.61,4.67c0,2.59-1.13,3.96-2.81,3.96S0,7.26,0,4.67,1.13,.72,2.8,.72s2.81,1.32,2.81,3.95Zm-.89-.01c0-1.97-.68-3.18-1.91-3.18S.88,2.66,.88,4.65s.71,3.21,1.93,3.21,1.91-1.27,1.91-3.21ZM8.62,0V4.12h1.95v.79h-1.95v6.33h-.89V0h.89Z"/><path d="M17.51,8.23c-1.99,.24-4.38,.28-6.27,.28V4.12h4V1.47h-4V.73h4.88V4.87h-3.99v2.82c2.15,0,3.48-.06,5.38-.2v.74Zm2.09,3.02h-.89V0h.89V11.25Z"/><path d="M27.49,5.84c-1.68,.22-4.61,.25-6.39,.25V2.91h3.98V1.24h-3.98V.5h4.86V3.63h-3.96v1.71c1.59,0,3.66-.01,5.49-.23v.72Zm1.96,3.5c0,1.25-1.08,2.13-3.62,2.13s-3.64-.9-3.64-2.13,1.11-2.13,3.64-2.13,3.62,.9,3.62,2.13Zm-.95,0c0-.9-.95-1.44-2.67-1.44s-2.68,.56-2.68,1.44c0,.83,.94,1.43,2.68,1.43s2.67-.59,2.67-1.43Zm.76-9.34V2.88h1.81v.76h-1.81v3.2h-.89V0h.89Z"/><path d="M37.52,1.64h-2.74V9.81h-.87V1.64h-2.73V.94h6.34v.71Z"/><path d="M44.91,.94l-3.12,8.88h-1.04L37.64,.94h.92l2.72,7.89,2.72-7.89h.92Z"/><path d="M52.96,2.23c-.72-.43-1.27-.66-2.01-.66-1.09,0-1.74,.53-1.74,1.37,0,.97,.75,1.33,2.25,1.98,1.38,.6,2.34,1.32,2.34,2.63,0,1.68-1.46,2.41-2.88,2.41-1.06,0-2.04-.34-2.95-1.1l.46-.66c.62,.54,1.51,.97,2.41,.97s2.08-.34,2.08-1.61c0-.85-.78-1.42-2.11-1.98-1.33-.59-2.47-1.19-2.47-2.58,0-1.66,1.36-2.21,2.6-2.21,.88,0,1.71,.32,2.44,.74l-.41,.7Z"/><path d="M55.62,4.12c.45-.66,1.11-.96,1.72-.96,.83,0,1.6,.5,1.91,1.26,.41-.78,1.18-1.26,1.95-1.26,1.21,0,2.22,.74,2.22,2.23v4.41h-.86V5.34c0-.97-.66-1.48-1.48-1.48-.76,0-1.55,.53-1.55,1.78v4.17h-.86V5.44c0-1.05-.68-1.58-1.46-1.58-.86,0-1.59,.65-1.59,1.75v4.2h-.86V3.36h.86v.77Z"/><path d="M64.96,3.73c.59-.41,1.4-.58,2.07-.58,1.14,0,1.81,.54,2.12,1.27,.12,.3,.19,.71,.19,1.12v2.97c0,.4,.01,.89,.12,1.3h-.84c-.09-.3-.16-.78-.16-.78-.4,.56-1.18,.9-2.07,.9-1.11,0-2.19-.77-2.19-2.09,0-1.58,1.18-2.27,3.17-2.27,.35,0,.72,.02,1.12,.06v-.19c.01-.92-.47-1.58-1.51-1.58-.51,0-1.18,.17-1.66,.5l-.35-.64Zm3.52,2.58c-.37-.04-.68-.05-.99-.05-1.61,0-2.42,.49-2.42,1.52,0,.91,.75,1.38,1.49,1.38,1.11,0,1.92-.74,1.92-1.63v-1.22Z"/><path d="M71.48,4.49c.39-.82,1.13-1.31,2.01-1.31,.09,0,.19,0,.28,.01v.79c-.09-.01-.19-.02-.28-.02-1.09,0-2.01,.92-2.01,1.96v3.9h-.87V3.36h.87v1.13Z"/><path d="M74.96,1.67l.87-.28v1.97h1.53v.71h-1.53v4.16c0,.85,.65,.98,1.41,1v.73c-1.37-.01-2.28-.32-2.28-1.67V4.07h-.92v-.71h.92V1.67Z"/><path d="M83.93,3.11c0,.85-.52,1.56-1.21,1.94,1.07,.47,1.64,1.32,1.64,2.28,0,1.39-.89,2.48-2.96,2.48h-3.08V.94h3.02c1.48,0,2.6,.71,2.6,2.17Zm-4.75-1.46v3.13h2.31c.96,0,1.61-.65,1.61-1.67s-.65-1.46-1.85-1.46h-2.07Zm2.21,7.46c1.36,0,2.11-.67,2.11-1.85,0-1.04-.75-1.78-2.01-1.78h-2.31v3.62h2.21Z"/><path d="M85.28,.68h1.04V1.87h-1.04V.68Zm.08,2.67h.87v6.45h-.87V3.36Z"/><path d="M87.05,9.21l3.8-5.15h-3.56v-.71h4.61v.66l-3.78,5.08h4.04v.71h-5.11v-.6Z"/><path d="M102.76,9.81h-.92l-.86-2.36h-3.95l-.87,2.36h-.91l3.28-8.88h.94l3.28,8.88Zm-2.04-3.07l-1.72-4.82-1.73,4.82h3.45Z"/><path d="M108.05,9.16c-.58,.53-1.32,.77-2.13,.77-1.89,0-3.19-1.44-3.19-3.35,0-2.09,1.32-3.41,3.21-3.41,.75,0,1.38,.22,1.95,.52l-.34,.64c-.42-.23-.98-.43-1.61-.43-1.36,0-2.32,1.08-2.32,2.7,0,1.76,1.25,2.62,2.34,2.62,.59,0,1.19-.22,1.66-.59l.42,.54Z"/><path d="M113.78,9.16c-.58,.53-1.32,.77-2.13,.77-1.89,0-3.19-1.44-3.19-3.35,0-2.09,1.32-3.41,3.21-3.41,.75,0,1.38,.22,1.95,.52l-.34,.64c-.42-.23-.98-.43-1.61-.43-1.36,0-2.32,1.08-2.32,2.7,0,1.76,1.25,2.62,2.34,2.62,.59,0,1.19-.22,1.66-.59l.42,.54Z"/><path d="M119.37,9.31c-.57,.41-1.24,.64-2.02,.64-1.78,0-3.15-1.28-3.15-3.29s1.04-3.47,2.89-3.47,2.73,1.49,2.73,3.01c0,.18,0,.31-.02,.49h-4.71c.05,1.85,1.24,2.54,2.31,2.54,.62,0,1.15-.17,1.63-.5l.34,.58Zm-.39-3.33c0-1.03-.69-2.06-1.93-2.06-1.04,0-1.83,1.06-1.93,2.06h3.86Z"/><path d="M120.77,.68h.87V9.81h-.87V.68Z"/><path d="M127.87,9.31c-.56,.41-1.24,.64-2.02,.64-1.78,0-3.15-1.28-3.15-3.29s1.04-3.47,2.89-3.47,2.73,1.49,2.73,3.01c0,.18,0,.31-.02,.49h-4.71c.05,1.85,1.24,2.54,2.31,2.54,.62,0,1.15-.17,1.63-.5l.34,.58Zm-.39-3.33c0-1.03-.69-2.06-1.93-2.06-1.04,0-1.83,1.06-1.93,2.06h3.86Z"/><path d="M130.15,4.49c.39-.82,1.13-1.31,2.01-1.31,.09,0,.19,0,.28,.01v.79c-.09-.01-.19-.02-.28-.02-1.09,0-2.01,.92-2.01,1.96v3.9h-.87V3.36h.87v1.13Z"/><path d="M133.04,3.73c.59-.41,1.4-.58,2.07-.58,1.14,0,1.81,.54,2.12,1.27,.12,.3,.19,.71,.19,1.12v2.97c0,.4,.01,.89,.12,1.3h-.83c-.09-.3-.17-.78-.17-.78-.4,.56-1.18,.9-2.07,.9-1.11,0-2.19-.77-2.19-2.09,0-1.58,1.18-2.27,3.16-2.27,.35,0,.72,.02,1.12,.06v-.19c.01-.92-.47-1.58-1.51-1.58-.51,0-1.18,.17-1.66,.5l-.35-.64Zm3.52,2.58c-.36-.04-.68-.05-.99-.05-1.61,0-2.42,.49-2.42,1.52,0,.91,.75,1.38,1.49,1.38,1.11,0,1.92-.74,1.92-1.63v-1.22Z"/><path d="M138.99,1.67l.87-.28v1.97h1.53v.71h-1.53v4.16c0,.85,.65,.98,1.41,1v.73c-1.36-.01-2.28-.32-2.28-1.67V4.07h-.92v-.71h.92V1.67Z"/><path d="M144.77,3.18c1.67,0,3,1.3,3,3.38s-1.29,3.39-3,3.39-2.99-1.31-2.99-3.39,1.31-3.38,2.99-3.38Zm0,6.08c1.15,0,2.11-.97,2.11-2.7s-.95-2.69-2.11-2.69-2.09,.97-2.09,2.69,.95,2.7,2.09,2.7Z"/><path d="M149.68,4.49c.39-.82,1.13-1.31,2.01-1.31,.09,0,.19,0,.28,.01v.79c-.09-.01-.19-.02-.28-.02-1.09,0-2.01,.92-2.01,1.96v3.9h-.87V3.36h.87v1.13Z"/><path d="M155.69,4.34c-.33-.22-.88-.46-1.34-.46-.78,0-1.18,.38-1.18,.91,0,.64,.49,.9,1.53,1.4,.96,.48,1.68,1,1.68,1.91,0,1.33-1.13,1.81-2.11,1.81-.79,0-1.55-.23-2.21-.89l.47-.59c.4,.4,1.05,.74,1.71,.74,.71,0,1.29-.31,1.29-1.06,0-.6-.59-.94-1.31-1.27-.88-.4-1.87-.9-1.87-1.99,0-1.26,1-1.71,1.93-1.71,.72,0,1.29,.24,1.81,.58l-.41,.61Z"/><path d="M162.28,11.42c-1.25-1.8-1.87-3.79-1.87-5.72s.62-3.9,1.87-5.68h.69c-1.11,1.82-1.66,3.83-1.66,5.71s.56,3.87,1.66,5.7h-.69Z"/><path d="M169.03,9.1v.71h-5.24v-.77l1.92-2.11c1.76-1.94,2.29-2.87,2.29-3.68,0-.88-.6-1.66-1.74-1.66-.78,0-1.46,.43-2.01,.94l-.47-.6c.79-.73,1.62-1.1,2.53-1.1,1.58,0,2.55,1.06,2.55,2.4,0,1.26-.86,2.32-2.53,4.2l-1.49,1.68h4.19Z"/><path d="M169.38,5.34c0-1.85,.66-4.5,2.86-4.5s2.88,2.62,2.88,4.52c0,2.06-.65,4.61-2.88,4.61s-2.86-2.79-2.86-4.63Zm.85,0c0,1.44,.4,3.89,2,3.89,1.71,0,2.05-2.47,2.05-3.86s-.38-3.78-2.02-3.78-2.02,2.4-2.02,3.75Z"/><path d="M177.43,9.82V2.04l-1.32,1.1-.45-.55,1.92-1.65h.72V9.82h-.87Z"/><path d="M180.77,9.25c1.92-.4,3.19-1.75,3.65-3.57-.67,.65-1.49,.85-2.15,.85-1.66,0-2.59-1.32-2.59-2.77,0-1.68,1.02-2.94,2.76-2.94s2.89,1.32,2.89,3.75c0,2.61-1.72,4.89-4.4,5.4l-.16-.72Zm-.24-5.54c0,1.15,.73,2.11,1.86,2.11,.76,0,1.53-.31,2.06-1.04,.02-.17,.04-.36,.04-.55,0-1.31-.59-2.69-2.01-2.69-1.2,0-1.94,.94-1.94,2.17Z"/><path d="M186.31,9.19h1.26v1.22h-1.26v-1.22Z"/><path d="M194.45,7.38c0,1.75-1.35,2.61-3.02,2.61-1.58,0-2.99-.88-2.99-2.6,0-.98,.77-2,1.98-2.43-.86-.38-1.55-1.1-1.55-1.98,0-1.5,1.37-2.16,2.61-2.16s2.55,.72,2.55,2.13c0,.97-.8,1.66-1.53,2,1.04,.4,1.95,1.36,1.95,2.42Zm-.92,.01c0-1.06-.85-1.74-2.06-2-1.22,.2-2.12,.96-2.12,2.01s.8,1.88,2.08,1.88c1.19,0,2.09-.68,2.09-1.89Zm-.36-4.44c0-1.02-.93-1.46-1.69-1.46-.87,0-1.75,.46-1.75,1.46,0,.9,.81,1.42,1.74,1.67,1.24-.35,1.71-1.03,1.71-1.67Z"/><path d="M195.34,9.19h1.26v1.22h-1.26v-1.22Z"/><path d="M202.89,9.1v.71h-5.24v-.77l1.92-2.11c1.77-1.94,2.29-2.87,2.29-3.68,0-.88-.6-1.66-1.74-1.66-.78,0-1.46,.43-2.01,.94l-.47-.6c.79-.73,1.62-1.1,2.53-1.1,1.58,0,2.55,1.06,2.55,2.4,0,1.26-.86,2.32-2.53,4.2l-1.49,1.68h4.19Z"/><path d="M204.64,9.25c1.92-.4,3.19-1.75,3.65-3.57-.67,.65-1.49,.85-2.15,.85-1.66,0-2.59-1.32-2.59-2.77,0-1.68,1.02-2.94,2.77-2.94s2.89,1.32,2.89,3.75c0,2.61-1.72,4.89-4.4,5.4l-.17-.72Zm-.23-5.54c0,1.15,.73,2.11,1.86,2.11,.76,0,1.53-.31,2.06-1.04,.02-.17,.04-.36,.04-.55,0-1.31-.59-2.69-2.01-2.69-1.2,0-1.94,.94-1.94,2.17Z"/><path d="M209.96,11.42c1.09-1.82,1.66-3.79,1.66-5.7s-.55-3.89-1.66-5.71h.69c1.25,1.79,1.87,3.77,1.87,5.68s-.62,3.92-1.87,5.72h-.69Z"/></g></g></svg>