<?xml version="1.0" encoding="UTF-8"?><svg id="_레이어_2" xmlns="http://www.w3.org/2000/svg" viewBox="0 0 155.73 11.89"><defs><style>.cls-1{fill:#231815;}</style></defs><g id="_레이어_1-2"><g><path class="cls-1" d="M5.25,9.52v.71H.01v-.77l1.92-2.11c1.76-1.94,2.29-2.87,2.29-3.68,0-.88-.6-1.65-1.74-1.65-.78,0-1.46,.43-2.01,.94l-.47-.6c.79-.73,1.62-1.1,2.53-1.1,1.58,0,2.55,1.05,2.55,2.4,0,1.26-.86,2.31-2.53,4.2l-1.49,1.68H5.25Z"/><path class="cls-1" d="M5.6,5.76c0-1.85,.66-4.5,2.86-4.5s2.88,2.61,2.88,4.52c0,2.06-.65,4.61-2.88,4.61s-2.86-2.79-2.86-4.63Zm.85,0c0,1.44,.4,3.89,2,3.89,1.71,0,2.05-2.47,2.05-3.86s-.38-3.78-2.02-3.78-2.02,2.4-2.02,3.75Z"/><path class="cls-1" d="M17.34,9.52v.71h-5.24v-.77l1.92-2.11c1.76-1.94,2.29-2.87,2.29-3.68,0-.88-.6-1.65-1.74-1.65-.78,0-1.46,.43-2.01,.94l-.47-.6c.79-.73,1.62-1.1,2.53-1.1,1.58,0,2.55,1.05,2.55,2.4,0,1.26-.86,2.31-2.53,4.2l-1.49,1.68h4.19Z"/><path class="cls-1" d="M23.31,9.52v.71h-5.24v-.77l1.92-2.11c1.76-1.94,2.29-2.87,2.29-3.68,0-.88-.6-1.65-1.74-1.65-.78,0-1.46,.43-2.01,.94l-.47-.6c.79-.73,1.62-1.1,2.53-1.1,1.58,0,2.55,1.05,2.55,2.4,0,1.26-.86,2.31-2.53,4.2l-1.49,1.68h4.19Z"/><path class="cls-1" d="M31.29,4.49h1.61V.48h.88V11.31h-.88V5.3h-1.61v3.38h-4.28V1.16h.88v2.88h2.53V1.16h.87v3.32Zm-.87,3.44v-3.13h-2.53v3.13h2.53Zm5.58,3.74h-.87V.42h.87V11.67Z"/><path class="cls-1" d="M47.29,9.16v.75h-10.36v-.75h10.36Zm-8.89-2.1V1.12h7.36v.76h-6.48v1.83h6.48v.74h-6.48v1.85h6.62v.77h-7.51Z"/><path class="cls-1" d="M54.16,5.31c-1.98,.29-4.44,.26-6.42,.26V.92h.89v3.87c1.49,0,3.66,0,5.53-.21v.73Zm1.69,6.3h-6.96V7.29h6.96v4.32Zm-.89-.73v-2.85h-5.18v2.85h5.18Zm2.68-7.6h-1.81v3.39h-.89V.42h.89V2.52h1.81v.76Z"/><path class="cls-1" d="M64.55,.94V3.99c-.01,1.93,1.48,3.31,2.95,4.04l-.45,.72c-.95-.55-2.35-1.52-2.98-3.07-.57,1.58-1.8,2.55-3.05,3.33l-.58-.65c1.67-.95,3.17-2.4,3.17-4.43V.94h.93Zm5.31,10.73h-.88V.42h.88V11.67Z"/><path class="cls-1" d="M77.03,6.3c-1.02-.4-2.37-1.22-2.87-2.33-.51,1.3-1.72,2.03-2.86,2.61l-.52-.6c1.46-.72,2.89-1.62,2.89-3.48v-.76h-2.34v-.74h5.6v.74h-2.33v.74c0,1.8,1.46,2.58,2.81,3.13l-.39,.67Zm2.75,3.3c0,1.34-1.08,2.29-3.62,2.29s-3.65-.94-3.65-2.29,1.11-2.33,3.65-2.33,3.62,.97,3.62,2.33Zm-.92,.01c0-1.01-.99-1.63-2.69-1.63s-2.72,.62-2.72,1.63c0,.94,.96,1.56,2.72,1.56s2.69-.58,2.69-1.56Zm2.53-5.9h-1.81v3.24h-.88V.42h.88V2.96h1.81v.74Z"/><path class="cls-1" d="M85.75,1.33c-.01,3.93-1.46,6.06-3.89,7.81l-.69-.55c2.14-1.52,3.65-3.36,3.65-6.5h-3.13v-.75h4.07Zm4.82,10.34h-.87V5.23h-1.74v6.08h-.88V.48h.88v3.92h1.74V.42h.87V11.67Z"/><path class="cls-1" d="M95.59,1.54h2.46v.73h-2.46v.5c0,1.8,1.46,2.65,2.81,3.2l-.4,.68c-1.01-.41-2.37-1.28-2.87-2.4-.49,1.29-1.71,2.1-2.85,2.67l-.52-.6c1.45-.72,2.91-1.69,2.91-3.55v-.52h-2.46v-.73h2.46V.22h.92V1.54Zm5.31,10.19h-.88v-3.13h-6.45v-.76h7.33v3.89Zm.01-4.62h-.88v-2.97h-2.07v-.75h2.07V.42h.88V7.11Z"/><path class="cls-1" d="M115.26,7.45h-4.74v4.22h-.91V7.45h-4.72v-.75h10.36v.75Zm-1.22-2.12c-1.46-.38-3.07-1.13-3.96-2.46-.79,1.34-2.55,2.07-3.95,2.45l-.46-.7c1.74-.42,3.92-1.44,3.92-2.95V.54h.98V1.67c0,1.5,2.38,2.58,3.92,2.95l-.44,.71Z"/><path class="cls-1" d="M125.61,5.82h-4.74v1.28h3.29v2.63h-6.52v1.29h6.82v.71h-7.79v-2.69h6.54v-1.24h-6.54v-.71h3.26v-1.28h-4.69v-.75h10.36v.75Zm-4.73-4.71h3.41v.74h-3.38c.4,1.15,2.05,1.71,3.81,2.03l-.42,.67c-1.82-.36-3.19-.96-3.88-1.91-.61,.95-2.13,1.56-3.86,1.91l-.43-.67c1.82-.3,3.43-.89,3.81-2.03h-3.38v-.74h3.4V0h.92V1.1Z"/><path class="cls-1" d="M131.65,6.3c-1.02-.4-2.43-1.28-2.94-2.39-.51,1.29-1.76,2.09-2.91,2.67l-.52-.6c1.45-.72,2.95-1.7,2.95-3.56V.78h.93v1.63c0,1.8,1.52,2.65,2.87,3.2l-.39,.68Zm2.94,3.26c0,1.34-1.09,2.33-3.62,2.33s-3.66-.97-3.66-2.33,1.11-2.36,3.66-2.36,3.62,1.01,3.62,2.36Zm-.93,.01c0-1.01-.99-1.67-2.68-1.67s-2.73,.66-2.73,1.67c0,.94,.98,1.6,2.73,1.6s2.68-.61,2.68-1.6Zm2.41-5.86h-1.81v3.2h-.88V.42h.88V2.96h1.81v.74Z"/><path class="cls-1" d="M142.83,5.64c-1.35,.14-2.85,.24-6.49,.24V.97h5.19v.74h-4.29v3.39c2.49,0,4.35-.07,5.6-.2v.73Zm1.69,5.97h-6.96V7.35h6.96v4.26Zm-.89-.73v-2.79h-5.18v2.79h5.18Zm2.68-7.4h-1.81v3.25h-.89V.42h.89V2.72h1.81v.76Z"/><path class="cls-1" d="M150.71,7.71v1.44c1.28-.04,2.52-.11,3.44-.2v.73c-1.8,.26-5.04,.31-7.63,.31v-.78c.94,.01,2.11,0,3.27-.04v-1.46h.93Zm2.88-5.13h-6.81v-.73h2.99V.31h.93V1.85h2.89v.73Zm-3.31,4.73c-1.86,0-2.86-.94-2.86-2.11s1.01-2.12,2.8-2.12,2.85,.97,2.85,2.13-1.07,2.1-2.79,2.1Zm1.91-2.1c0-.77-.63-1.43-1.96-1.43-1.24,0-1.95,.67-1.95,1.42s.73,1.39,1.96,1.39c1.34,0,1.95-.61,1.95-1.38Zm3.54,6.46h-.88V.42h.88V11.67Z"/></g></g></svg>