<?xml version="1.0" encoding="UTF-8"?><svg id="_레이어_2" xmlns="http://www.w3.org/2000/svg" viewBox="0 0 71.86 15.8"><defs><style>.cls-1{fill:#b3b3b3;}</style></defs><g id="_레이어_1-2"><g><path class="cls-1" d="M7.97,.75c-.16,4.82-3.75,6.83-7.11,7.97l-.87-1.18c3.04-1.06,5.91-2.69,6.16-5.44H.88V.75H7.97Zm4.67,14.68H2.42v-5.95H12.65v5.95Zm-1.7-1.33v-3.25H4.13v3.25h6.82Zm1.7-5.49h-1.71V0h1.71V8.61Z"/><path class="cls-1" d="M23.06,11.78c-1.36-.77-3.11-1.98-4.03-3.84-.86,1.91-2.37,3.14-4.07,4.18l-1.07-1.15c2.34-1.31,4.24-3.27,4.24-5.92V2.54h-3.31V1.15h8.39v1.39h-3.31v2.56c0,2.54,1.92,4.4,4,5.38l-.83,1.3Zm6.32-5.03h-2.69V15.51h-1.71V0h1.71V5.31h2.69v1.44Z"/><path class="cls-1" d="M36.8,8.4h-7.46V.7h1.7V3.33h4.07V.7h1.7v7.7Zm-1.7-1.36v-2.4h-4.07v2.4h4.07Zm6.64,8.23h-10.55v-5.2h1.74v3.81h8.8v1.39Zm-.51-15.27V4.32h2.48v1.39h-2.48v5.49h-1.71V0h1.71Z"/><path class="cls-1" d="M58.42,8.13h-14.71v-1.38h5.57V3.87h1.76v2.88h7.38v1.38Zm-1.74,4.42c0,1.74-1.83,3.25-5.6,3.25s-5.57-1.5-5.57-3.25,1.83-3.22,5.57-3.22,5.6,1.44,5.6,3.22Zm-.26-12.1c-.03,1.31-.29,3.5-.53,5.17h-1.73c.19-1.17,.37-2.83,.42-3.78h-8.9V.45h10.74Zm-5.35,10.21c-2.35,0-3.75,.85-3.75,1.87,0,1.09,1.39,1.94,3.75,1.94s3.75-.82,3.75-1.94c0-1.06-1.39-1.87-3.75-1.87Z"/><path class="cls-1" d="M67.54,8.42c-1.38-.51-3.17-1.58-4.03-2.88-.79,1.49-2.46,2.46-4.02,3.25l-.96-1.06c2.02-.99,4.08-2.21,4.08-4.66v-.93h-3.23V.8h8.16v1.34h-3.2v.91c0,2.32,2.03,3.41,3.95,4.13l-.75,1.23Zm4.32,4.16c0,1.94-1.65,3.22-5.31,3.22s-5.31-1.31-5.31-3.22,1.63-3.22,5.31-3.22,5.31,1.31,5.31,3.22Zm-1.81,.02c0-1.22-1.31-1.9-3.47-1.9s-3.55,.7-3.55,1.9c0,1.12,1.3,1.89,3.55,1.89s3.47-.75,3.47-1.89Zm1.66-3.51h-1.71V4.98h-2.87v-1.38h2.87V0h1.71V9.09Z"/></g></g></svg>