<?xml version="1.0" encoding="UTF-8"?><svg id="_레이어_2" xmlns="http://www.w3.org/2000/svg" xmlns:xlink="http://www.w3.org/1999/xlink" viewBox="0 0 224.4 173.63"><defs><style>.cls-1,.cls-2{fill:#fff;}.cls-3,.cls-4{fill:none;}.cls-3,.cls-2{stroke:#000;stroke-miterlimit:10;}.cls-5{clip-path:url(#clippath-2);}.cls-6{clip-path:url(#clippath-1);}.cls-7{clip-path:url(#clippath);}.cls-8{fill:#ccc;}</style><clipPath id="clippath"><ellipse class="cls-4" cx="35.76" cy="114.83" rx="24.16" ry="5.59"/></clipPath><clipPath id="clippath-1"><ellipse class="cls-4" cx="192.84" cy="19.91" rx="24.16" ry="5.59"/></clipPath><clipPath id="clippath-2"><ellipse class="cls-4" cx="116.62" cy="19.91" rx="24.16" ry="5.59"/></clipPath></defs><g id="_레이어_1-2"><rect class="cls-8" x="85.07" y="156.63" width="63.11" height="17" rx="8.5" ry="8.5"/><rect class="cls-8" x="161.28" y="156.63" width="63.11" height="17" rx="8.5" ry="8.5"/><rect class="cls-8" x="4.21" y="156.63" width="63.11" height="17" rx="8.5" ry="8.5"/><rect class="cls-8" x="85.07" y="56.57" width="63.11" height="17" rx="8.5" ry="8.5"/><rect class="cls-8" x="161.28" y="56.57" width="63.11" height="17" rx="8.5" ry="8.5"/><rect x="4.21" y="56.57" width="63.11" height="17" rx="8.5" ry="8.5"/><g><path class="cls-1" d="M16.14,67.17c-.68-.38-1.55-.99-2.02-1.92-.43,.95-1.18,1.57-2.03,2.09l-.54-.58c1.17-.66,2.12-1.63,2.12-2.96v-1.25h-1.66v-.7h4.19v.7h-1.65v1.28c0,1.27,.96,2.2,2,2.69l-.42,.65Zm3.16-2.51h-1.34v4.37h-.86v-7.75h.86v2.65h1.34v.72Z"/><path class="cls-1" d="M23.01,65.48h-3.73v-3.85h.85v1.31h2.03v-1.31h.85v3.85Zm-.85-.68v-1.2h-2.03v1.2h2.03Zm3.32,4.11h-5.27v-2.6h.87v1.9h4.4v.7Zm-.26-7.63v2.16h1.24v.7h-1.24v2.74h-.86v-5.6h.86Z"/><path class="cls-1" d="M33.82,65.58h-7.35v-.7h1.92v-.92c-.63-.25-.97-.66-.97-1.2,0-.86,.95-1.43,2.71-1.43s2.71,.57,2.71,1.43c0,.54-.33,.94-.94,1.18v.94h1.91v.7Zm-.87,2.05c0,.88-.91,1.54-2.8,1.54s-2.78-.66-2.78-1.54,.91-1.54,2.78-1.54,2.8,.66,2.8,1.54Zm-2.8-.87c-1.18,0-1.87,.34-1.87,.86s.7,.89,1.87,.89,1.87-.34,1.87-.89-.7-.86-1.87-.86Zm-1.85-3.99c0,.56,.8,.79,1.83,.79s1.83-.23,1.83-.79c0-.5-.81-.78-1.83-.78s-1.83,.28-1.83,.78Zm1.83,1.46c-.32,0-.62-.02-.88-.05v.7h1.81v-.71c-.29,.04-.59,.06-.93,.06Z"/><path class="cls-1" d="M40.12,61.66c-.08,2.41-1.87,3.41-3.55,3.98l-.43-.59c1.52-.53,2.95-1.34,3.08-2.72h-2.64v-.67h3.54Zm2.33,7.33h-5.11v-2.97h5.11v2.97Zm-.85-.66v-1.62h-3.41v1.62h3.41Zm.85-2.74h-.86v-4.3h.86v4.3Z"/><path class="cls-1" d="M49.09,65.3c-.41-.21-1.19-.86-1.55-1.46-.34,.62-1.05,1.21-1.78,1.59l-.53-.58c.9-.41,1.85-1.23,1.85-2.27v-.98h.87v.98c0,.99,.85,1.8,1.6,2.17l-.47,.56Zm-3.72,1.49c.57,0,1.16,0,1.71-.02v-1.46h.84v1.45c.56-.02,1.1-.06,1.53-.1v.67c-1.1,.14-2.49,.15-4.08,.15v-.7Zm6.95,2.25h-.83v-3.97h-.78v3.73h-.82v-7.46h.82v2.98h.78v-3.03h.83v7.75Z"/><path class="cls-1" d="M57.26,65.09c-.69-.27-1.58-.82-2.02-1.47-.39,.74-1.23,1.24-2.01,1.62l-.48-.53c1.01-.48,2.04-1.11,2.04-2.33v-.17h-1.62v-.66h4.08v.66h-1.6v.16c0,1.17,1.01,1.69,1.96,2.07l-.36,.64Zm2.25,3.98h-5.36v-2.09h4.29v-.7h-4.29v-.66h5.17v2.02h-4.29v.78h4.49v.65Zm-.17-3.9h-.86v-1.67h-1.43v-.7h1.43v-1.52h.86v3.89Z"/></g><g><path class="cls-1" d="M108.9,61.66c-.08,2.41-1.87,3.41-3.55,3.98l-.43-.59c1.52-.53,2.95-1.34,3.08-2.72h-2.64v-.67h3.54Zm2.33,7.33h-5.11v-2.97h5.11v2.97Zm-.85-.66v-1.62h-3.41v1.62h3.41Zm.85-2.74h-.86v-4.3h.86v4.3Z"/><path class="cls-1" d="M121.48,65.86h-7.35v-.7h3.25v-.74h-2.22v-3.09h.83v.98h3.64v-.98h.83v3.09h-2.21v.74h3.23v.7Zm-3.95,3.21h-.85v-1.96h-1.9v-.69h2.74v2.65Zm2.09-5.32v-.76h-3.64v.76h3.64Zm.87,5.32h-.85v-1.96h-1.72v-.69h2.57v2.65Z"/><path class="cls-1" d="M125.76,61.86c-.03,3.13-1.44,4.45-3.42,5.5l-.55-.59c2.08-1.16,3.04-2.32,3.07-4.21h-2.78v-.7h3.69Zm2.23,7.17h-.86v-7.75h.86v7.75Z"/></g><g><path class="cls-1" d="M179.86,67.85h-7.35v-.7h3.25v-1.57h.87v1.57h3.23v.7Zm-.92-2.09c-.97-.31-2.21-1.03-2.75-1.86-.51,.84-1.66,1.5-2.76,1.87l-.47-.62c1.16-.35,2.77-1.29,2.77-2.33v-.36h-2.25v-.69h5.44v.69h-2.25v.36c0,1.04,1.57,1.93,2.77,2.33l-.48,.6Z"/><path class="cls-1" d="M184.15,66.98h-3.67v-5.13h3.67v5.13Zm-.86-.68v-3.75h-1.96v3.75h1.96Zm2.31-5.02h.86v7.75h-.86v-7.75Z"/><path class="cls-1" d="M196.66,66.85h-3.24v2.18h-.86v-2.18h-3.25v-.7h7.35v.7Zm-3.23-4.82h2.53v.67h-5.96v-.67h2.54v-.87h.88v.87Zm2.02,2.32c0,.81-.75,1.38-2.47,1.38s-2.47-.58-2.47-1.38,.66-1.38,2.47-1.38c1.71,0,2.47,.59,2.47,1.38Zm-.87,0c0-.44-.57-.75-1.6-.75s-1.61,.31-1.61,.75c0,.41,.55,.74,1.61,.74s1.6-.31,1.6-.74Z"/><path class="cls-1" d="M206.1,65.86h-7.35v-.7h3.25v-.74h-2.22v-3.09h.83v.98h3.64v-.98h.83v3.09h-2.21v.74h3.23v.7Zm-3.95,3.21h-.85v-1.96h-1.9v-.69h2.74v2.65Zm2.1-5.32v-.76h-3.64v.76h3.64Zm.87,5.32h-.85v-1.96h-1.72v-.69h2.57v2.65Z"/><path class="cls-1" d="M210.38,61.86c-.03,3.13-1.44,4.45-3.42,5.5l-.55-.59c2.08-1.16,3.04-2.32,3.07-4.21h-2.78v-.7h3.69Zm2.23,7.17h-.86v-7.75h.86v7.75Z"/></g><g><path class="cls-1" d="M11.3,161.71c-.03,3.13-1.44,4.45-3.42,5.5l-.55-.59c2.08-1.16,3.04-2.32,3.07-4.21h-2.78v-.7h3.69Zm2.23,7.17h-.86v-7.75h.86v7.75Z"/><path class="cls-1" d="M21.74,164.96v.67h-7.35v-.67h7.35Zm-.98,3.89h-5.38v-2.69h5.38v2.69Zm-5.34-4.42v-1.91h4.38v-.57h-4.38v-.66h5.23v1.89h-4.38v.59h4.58v.67h-5.43Zm4.49,3.76v-1.36h-3.68v1.36h3.68Z"/><path class="cls-1" d="M26.81,161.87h1.73v.66h-1.73v.06c0,1.15,1.02,1.74,1.98,2.11l-.38,.66c-.69-.28-1.57-.83-2.02-1.5-.4,.76-1.23,1.26-2.01,1.66l-.48-.53c1.01-.49,2.04-1.17,2.04-2.38v-.08h-1.73v-.66h1.73v-.86h.86v.86Zm3.66,6.97h-5.12v-2.75h5.12v2.75Zm-.86-.66v-1.42h-3.41v1.42h3.41Zm.86-2.5h-.86v-1.84h-1.33v-.69h1.33v-2.02h.86v4.54Z"/><path class="cls-1" d="M35.09,161.71c-.03,3.12-1.4,4.53-3.38,5.6l-.54-.61c2.06-1.14,2.98-2.38,3.01-4.29h-2.73v-.7h3.64Zm2.22-.58v2.94h1.35v.7h-1.35v4.1h-.86v-7.75h.86Z"/><path class="cls-1" d="M47.98,166.7h-3.24v2.18h-.86v-2.18h-3.25v-.7h7.35v.7Zm-3.23-4.82h2.53v.67h-5.96v-.67h2.54v-.87h.88v.87Zm2.02,2.32c0,.81-.75,1.38-2.47,1.38s-2.47-.57-2.47-1.38,.66-1.38,2.47-1.38c1.71,0,2.47,.59,2.47,1.38Zm-.87,0c0-.44-.57-.75-1.6-.75s-1.61,.31-1.61,.75c0,.41,.55,.74,1.61,.74s1.6-.31,1.6-.74Z"/><path class="cls-1" d="M57.42,165.72h-7.35v-.7h3.25v-.74h-2.22v-3.09h.83v.97h3.64v-.97h.83v3.09h-2.21v.74h3.23v.7Zm-3.95,3.21h-.85v-1.96h-1.9v-.69h2.74v2.65Zm2.09-5.32v-.76h-3.64v.76h3.64Zm.87,5.32h-.85v-1.96h-1.72v-.69h2.57v2.65Z"/><path class="cls-1" d="M61.7,161.71c-.03,3.13-1.44,4.45-3.42,5.5l-.55-.59c2.08-1.16,3.04-2.32,3.07-4.21h-2.78v-.7h3.69Zm2.23,7.17h-.86v-7.75h.86v7.75Z"/></g><g><path class="cls-1" d="M182.05,165.14h-3.73v-3.71h.85v1.25h2.03v-1.25h.85v3.71Zm2.21,3.78h-.86v-2.21h-4.33v-.68h5.19v2.89Zm-3.06-4.45v-1.12h-2.03v1.12h2.03Zm4.3-.97h-1.24v2.08h-.86v-4.45h.86v1.7h1.24v.68Z"/><path class="cls-1" d="M192.86,167.71h-7.35v-.7h7.35v.7Zm-3.21-5.24c0,1.2,1.7,2.31,2.8,2.65l-.52,.63c-.93-.35-2.2-1.18-2.72-2.06-.53,.9-1.62,1.67-2.72,2.07l-.52-.64c1.13-.37,2.76-1.46,2.76-2.65v-.97h.92v.97Z"/><path class="cls-1" d="M196.99,165.91v1.23h3.23v.7h-7.35v-.7h3.25v-1.23h.87Zm1.52-3.07l-.2,2h1.35v.68h-6.24v-.68h1.35l-.19-2h.87l.18,2h1.82l.17-2h.88Zm-4.91-.53v-.69h5.89v.69h-5.89Z"/><path class="cls-1" d="M204.6,165.32c-.66-.26-1.57-.82-2-1.46-.41,.74-1.21,1.24-2.01,1.63l-.49-.54c1.02-.5,2.04-1.11,2.04-2.32v-.42h-1.62v-.67h4.08v.67h-1.59v.42c0,1.16,1.02,1.69,1.97,2.06l-.38,.63Zm2,2.1c0,.97-.78,1.61-2.61,1.61s-2.61-.64-2.61-1.61,.78-1.63,2.61-1.63,2.61,.65,2.61,1.63Zm-.88,0c0-.62-.62-.98-1.72-.98s-1.73,.36-1.73,.98c0,.58,.62,.94,1.73,.94s1.72-.34,1.72-.94Zm1.95-3.9h-1.24v2.1h-.86v-4.49h.86v1.71h1.24v.68Z"/></g><g><path class="cls-1" d="M113.41,165.91v1.23h3.23v.7h-7.35v-.7h3.25v-1.23h.87Zm1.52-3.07l-.2,2h1.35v.68h-6.24v-.68h1.35l-.19-2h.87l.18,2h1.82l.17-2h.88Zm-4.91-.53v-.69h5.89v.69h-5.89Z"/><path class="cls-1" d="M121.03,165.32c-.66-.26-1.57-.82-2-1.46-.41,.74-1.21,1.24-2.01,1.63l-.49-.54c1.02-.5,2.04-1.11,2.04-2.32v-.42h-1.62v-.67h4.08v.67h-1.59v.42c0,1.16,1.02,1.69,1.97,2.06l-.38,.63Zm2,2.1c0,.97-.78,1.61-2.61,1.61s-2.61-.64-2.61-1.61,.78-1.63,2.61-1.63,2.61,.65,2.61,1.63Zm-.88,0c0-.62-.62-.98-1.72-.98s-1.73,.36-1.73,.98c0,.58,.62,.94,1.73,.94s1.72-.34,1.72-.94Zm1.95-3.9h-1.24v2.1h-.86v-4.49h.86v1.71h1.24v.68Z"/></g><g><g><path d="M202.33,142.67h-19.01v-9.85l-8.89,2.4,4.34-6.74,8.46-2.28,.54,.74-3.05,4.73h16.19l-3.02-4.74,.55-.74,8.46,2.28,4.34,6.74-8.92-2.41v9.86Zm-18.01-1h17.01s0-9,0-9h-17.01v9Zm17.82-9.95l6.87,1.85-2.73-4.24-6.83-1.84,2.69,4.23Zm-22.74-2.39l-2.73,4.24,6.82-1.84,2.73-4.24-6.82,1.84Z"/><polygon points="195.91 116.84 195.19 116.15 198.66 112.49 198.66 109.33 187.02 109.33 187.02 112.49 190.49 116.15 189.77 116.83 186.02 112.89 186.02 108.33 199.66 108.33 199.66 112.89 195.91 116.84"/><polygon points="187.59 124.65 184.26 123.71 185.45 119.02 190.01 116.25 190.53 117.11 186.32 119.66 185.47 123.01 187.86 123.69 187.59 124.65"/><polygon points="198.11 124.65 197.83 123.68 200.21 123.01 199.36 119.66 195.15 117.11 195.67 116.25 200.23 119.02 201.42 123.71 198.11 124.65"/><path d="M192.84,118.84c-1.83,0-3.32-1.49-3.32-3.32s1.49-3.32,3.32-3.32,3.32,1.49,3.32,3.32-1.49,3.32-3.32,3.32Zm0-5.65c-1.28,0-2.32,1.04-2.32,2.32s1.04,2.32,2.32,2.32,2.32-1.04,2.32-2.32-1.04-2.32-2.32-2.32Z"/><path d="M192.84,116.4c-.48,0-.88-.39-.88-.88s.39-.88,.88-.88,.88,.39,.88,.88-.39,.88-.88,.88Zm0-1c-.07,0-.12,.05-.12,.12,0,.13,.24,.13,.24,0,0-.07-.05-.12-.12-.12Z"/><rect x="185.84" y="138.38" width="1.76" height="1.76"/><rect x="189.13" y="138.38" width="1.76" height="1.76"/><rect x="183.81" y="131.66" width="18.05" height="1"/></g><rect x="187.03" y="126.26" width="11.61" height="1"/></g><g><path d="M136.74,139.36h-40.24c-1.91,0-3.47-1.55-3.47-3.47,0-.59,.15-1.18,.44-1.69l2.18-15.78,.99,.14-2.26,16.06c-.23,.38-.35,.82-.35,1.27,0,1.36,1.11,2.47,2.47,2.47h40.24c1.36,0,2.47-1.11,2.47-2.47,0-.43-.11-.86-.33-1.23l-.06-.17-2.57-15.92,.99-.16,2.55,15.83c.27,.5,.42,1.07,.42,1.65,0,1.91-1.55,3.47-3.47,3.47Z"/><path d="M136.74,139.36h-40.24c-1.91,0-3.47-1.55-3.47-3.47s1.55-3.47,3.47-3.47h40.24c1.91,0,3.47,1.55,3.47,3.47s-1.55,3.47-3.47,3.47Zm-40.24-5.93c-1.36,0-2.47,1.11-2.47,2.47s1.11,2.47,2.47,2.47h40.24c1.36,0,2.47-1.11,2.47-2.47s-1.11-2.47-2.47-2.47h-40.24Z"/><path d="M96.65,118.66h-1c0-1.67,1.36-3.03,3.03-3.03h35.52v1h-35.52c-1.12,0-2.03,.91-2.03,2.03Z"/><path d="M137.24,118.66h-1c0-1.12-.91-2.03-2.03-2.03v-1c1.67,0,3.03,1.36,3.03,3.03Z"/><path d="M96.5,136.74c-.47,0-.85-.38-.85-.85s.38-.85,.85-.85,.85,.38,.85,.85-.38,.85-.85,.85Zm0-1c-.08,0-.15,.07-.15,.15,0,.17,.3,.17,.3,0,0-.08-.07-.15-.15-.15Z"/><path d="M136.74,136.74c-.47,0-.85-.38-.85-.85s.38-.85,.85-.85,.85,.38,.85,.85-.38,.85-.85,.85Zm0-1c-.08,0-.15,.07-.15,.15,0,.17,.3,.17,.3,0,0-.08-.07-.15-.15-.15Z"/></g><g><path class="cls-2" d="M123.11,127.73h-12.98c-1.4,0-2.51-1.17-2.44-2.56l.88-18.27h16.11l.88,18.27c.07,1.39-1.05,2.56-2.44,2.56Z"/><line class="cls-3" x1="108.43" y1="109.77" x2="124.83" y2="109.77"/></g><g><g><path d="M29.51,144.96c-.63-.21-1.37-.53-1.51-1.16-.14-.61,.36-1.09,.75-1.48,.16-.15,.45-.44,.47-.56h0s-.15-.19-.91-.44l.31-.95c.98,.32,1.46,.68,1.58,1.18,.14,.61-.35,1.1-.75,1.49-.16,.16-.45,.44-.48,.56h0s.14,.18,.85,.42l-.32,.95Z"/><path d="M33.95,144.96c-.63-.21-1.37-.53-1.51-1.16-.14-.61,.36-1.09,.75-1.48,.16-.15,.45-.44,.48-.56,0,0-.11-.18-.91-.44l.31-.95c.98,.32,1.46,.68,1.58,1.18,.14,.61-.35,1.1-.75,1.49-.16,.15-.45,.44-.48,.56,0,0,.11,.17,.85,.42l-.32,.95Z"/><path d="M38.39,144.96c-.63-.21-1.37-.53-1.51-1.16-.14-.61,.36-1.09,.75-1.48,.16-.15,.45-.44,.48-.56,0,0-.11-.18-.91-.44l.31-.95c.98,.32,1.46,.68,1.58,1.18,.14,.61-.35,1.1-.75,1.49-.16,.16-.45,.44-.48,.56h0s.14,.18,.85,.42l-.32,.95Z"/><path d="M42.83,144.96c-.63-.21-1.37-.53-1.51-1.16-.14-.61,.36-1.09,.75-1.48,.16-.15,.45-.44,.47-.56h0s-.15-.19-.91-.44l.31-.95c.98,.32,1.46,.68,1.58,1.18,.14,.61-.35,1.1-.75,1.49-.16,.16-.45,.44-.48,.56h0s.14,.18,.85,.42l-.32,.95Z"/></g><path class="cls-2" d="M11.6,114.83H59.92v12.83c0,5.25-4.26,9.51-9.51,9.51H21.12c-5.25,0-9.51-4.26-9.51-9.51v-12.83h0Z"/><ellipse class="cls-2" cx="35.76" cy="114.83" rx="24.16" ry="5.59"/><g class="cls-7"><g><g><path d="M30.35,115.7c3.12,1.14-1.38,2.24-1.07,1.23-6.16-1.13-.58-.83,.48-1.38,4.54-.62-.36-.18-2.1-.93,.95-.53,1.82-1.38,2.7,1.08Z"/><path d="M22.32,121.31s-.99,.51-.63,1.17,1.56,.63,2.16-.51,1.41-3.39,1.2-1.47-1.26,1.89-.75,2.13,2.34-1.89,1.74-2.49-1.34-1.98-2.69-.78c-1.36,1.2-1.57,.72-1.42,1.53s-.9,.9-.9,.9l1.29-.48Z"/><path d="M27.17,121.34c0,.06-1-.03-.85,.51s.72,1.11,.72,1.11c0,0,2.31-.54,1.89-1.08s-.66-2.49,0-.93,.27,2.58-.15,2.67-1.65-.73-1.29,.15,2.88-.81,2.88-.81c0,0,.3-1.35-.3-2.01s-.48-2.1-1.41-1.17-1.5,1.57-1.5,1.57Z"/><path d="M24.31,117.03c.54-.63,1.2,.09,1.2,.09,0,0,.48,1.12-.33,1.24s-.84,0-1.74-.07-1.41,.98-1.65-.6,.36-3.33-1.02-1.68c-1.38,1.65-1.56,1.47-1.44,1.89s.66,.93,.66,.93c0,0,1.89,1.08,2.22,0,.33-1.08-.12-1.68,.39-2.19s.99-1.14,1.32-.66,.39,1.05,.39,1.05Z"/><path d="M28.19,118.26c-.63,.51-1.23,1.05-1.23,1.05l-1.05-1.71s.48-.81,.99-.33,1.65-.36,1.71,.27-.23,1.53-.23,1.53c0,0-.59,.93-1.25,.96s-.78,.26-.84-.36,1.89-1.41,1.89-1.41Z"/><path d="M31.36,118.97c-1.32-.02-1.5-.1-1.56,.27s.24,.57,.45,.79,1.11,0,1.11,0c0,0,.33-.44,.33-.79s.72-.85,.72-.27,1.32,.89,1.02,.27-.15-1.13-1.11-1.28-1.44-.66-1.74,0,.57,.12,.27,.48,.51,.53,.51,.53Z"/><path d="M25.44,114.87c-.99,.09-.69-.48-1.23,.48s.54,.99,.69,.99,.24,.27,.54,.21,.69-.39,1.14-1.14,1.01-1.11,.39-1.56c-.63-.45-.36-.57-1.08-.57s-.21-.06-.24-.6-.84-.45-1.05,.12,.15,.84,.15,.84c0,0-.12,.99,.15,.96s.54,.27,.54,.27Z"/></g><g><path d="M34.81,122.09c-.54,3.28-2.46-.94-1.41-.83-.04-6.26,.71-.72,1.45,.21,1.46,4.34,.11-.39,.52-2.24,.7,.83,1.7,1.53-.56,2.85Z"/><path d="M27.8,115.25s-.69-.88-1.27-.4-.33,1.65,.91,2.03,3.6,.75,1.67,.9-2.09-.89-2.23-.34,2.3,1.95,2.77,1.24,1.7-1.68,.26-2.79c-1.43-1.11-1-1.41-1.77-1.11s-1.05-.72-1.05-.72l.72,1.18Z"/><path d="M28.67,120.03c-.06,0-.15-.99-.65-.74s-.95,.92-.95,.92c0,0,.96,2.17,1.41,1.66s2.32-1.11,.91-.17-2.49,.75-2.65,.35,.41-1.76-.39-1.24,1.34,2.68,1.34,2.68c0,0,1.38,.04,1.92-.67s1.97-.86,.89-1.61-1.82-1.18-1.82-1.18Z"/><path d="M32.37,116.41c.72,.41,.14,1.2,.14,1.2,0,0-1.01,.68-1.28-.09s-.15-.83-.26-1.72-1.23-1.2,.28-1.74,3.34-.27,1.46-1.32c-1.88-1.05-1.74-1.26-2.13-1.06s-.79,.82-.79,.82c0,0-.71,2.06,.42,2.18,1.12,.12,1.63-.43,2.23-.03s1.31,.76,.9,1.17-.96,.58-.96,.58Z"/><path d="M31.88,120.45c-.62-.52-1.26-1.01-1.26-1.01l1.48-1.35s.89,.32,.51,.91,.66,1.55,.05,1.73-1.55,.06-1.55,.06c0,0-1.02-.4-1.18-1.04s-.4-.72,.2-.89,1.74,1.6,1.74,1.6Z"/><path d="M31.78,123.7c-.23-1.3-.18-1.49-.56-1.48s-.52,.34-.69,.59,.21,1.09,.21,1.09c0,0,.49,.24,.84,.18s.97,.55,.4,.66-.63,1.46-.08,1.05,1.08-.36,1.05-1.33c-.03-.97,.38-1.54-.33-1.71s-.01,.58-.42,.36-.42,.6-.42,.6Z"/><path d="M34.7,117.12c-.27-.96,.34-.77-.7-1.12s-.87,.72-.84,.86-.22,.29-.1,.57,.51,.61,1.33,.91,1.28,.79,1.61,.09,.49-.46,.36-1.16,.02-.21,.55-.35,.28-.91-.31-1.01-.8,.3-.8,.3c0,0-1,.07-.92,.33s-.16,.58-.16,.58Z"/></g><g><path d="M18.87,114.64c1.97-2.68,1.77,1.95,.88,1.37-2.8,5.6-.96,.33-1.19-.85,.67-4.53-.27,.3-1.48,1.76-.24-1.05-.82-2.13,1.79-2.29Z"/><path d="M22.01,123.92s.22,1.09,.95,.93,1.04-1.32,.11-2.22-2.87-2.3-1.08-1.56c1.79,.74,1.47,1.74,1.84,1.31s-1.16-2.78-1.91-2.37-2.28,.73-1.5,2.37c.78,1.64,.26,1.71,1.08,1.79s.61,1.12,.61,1.12l-.11-1.37Z"/><path d="M23.4,119.27c.05,.02-.31,.95,.25,.95s1.26-.38,1.26-.38c0,0,.13-2.37-.51-2.12s-2.58-.06-.89-.26c1.68-.2,2.56,.46,2.52,.89s-1.16,1.38-.22,1.28c.94-.1,.02-2.99,.02-2.99,0,0-1.21-.66-2.01-.27s-2.15-.12-1.52,1.03,1.09,1.87,1.09,1.87Z"/><path d="M18.46,120.81c-.46-.69,.42-1.13,.42-1.13,0,0,1.21-.15,1.1,.66s-.24,.81-.55,1.65c-.31,.85,.55,1.63-1.04,1.42-1.59-.21-3.1-1.27-1.9,.51s.98,1.91,1.42,1.91,1.08-.38,1.08-.38c0,0,1.56-1.52,.62-2.13s-1.65-.35-2-.99-.82-1.27-.27-1.45,1.12-.08,1.12-.08Z"/><path d="M20.73,117.44c.31,.75,.66,1.47,.66,1.47l-1.93,.53s-.64-.69-.04-1.04,.11-1.69,.74-1.57,1.41,.64,1.41,.64c0,0,.73,.82,.58,1.46s.03,.82-.58,.71-.82-2.21-.82-2.21Z"/><path d="M22.29,114.59c-.38,1.26-.52,1.41-.17,1.57s.62-.07,.88-.21,.31-1.07,.31-1.07c0,0-.33-.44-.67-.54s-.62-.93-.06-.77,1.22-1.02,.54-.91-1.13-.17-1.54,.71-1.04,1.2-.48,1.67,.27-.51,.54-.13,.65-.34,.65-.34Z"/><path d="M16.7,119.13c-.19,.98-.65,.53,.12,1.32s1.1-.24,1.14-.39,.32-.16,.35-.46-.18-.77-.78-1.41-.79-1.28-1.39-.81-.65,.18-.85,.87-.12,.18-.64,.06-.67,.68-.18,1.04,.85,.09,.85,.09c0,0,.92,.39,.96,.12s.41-.44,.41-.44Z"/></g><g><path d="M55,115.32c3.12,1.14-1.38,2.24-1.07,1.23-6.16-1.13-.58-.83,.48-1.38,4.54-.62-.36-.18-2.1-.93,.95-.53,1.82-1.38,2.7,1.08Z"/><path d="M46.97,120.93s-.99,.51-.63,1.17,1.56,.63,2.16-.51,1.41-3.39,1.2-1.47-1.26,1.89-.75,2.13,2.34-1.89,1.74-2.49-1.34-1.98-2.69-.78c-1.36,1.2-1.57,.72-1.42,1.53s-.9,.9-.9,.9l1.29-.48Z"/><path d="M51.82,120.97c0,.06-1-.03-.85,.51s.72,1.11,.72,1.11c0,0,2.31-.54,1.89-1.08s-.66-2.49,0-.93,.27,2.58-.15,2.67-1.65-.73-1.29,.15,2.88-.81,2.88-.81c0,0,.3-1.35-.3-2.01s-.48-2.1-1.41-1.17c-.93,.93-1.5,1.57-1.5,1.57Z"/><path d="M48.97,116.65c.54-.63,1.2,.09,1.2,.09,0,0,.48,1.12-.33,1.24s-.84,0-1.74-.07-1.41,.98-1.65-.6,.36-3.33-1.02-1.68-1.56,1.47-1.44,1.89,.66,.93,.66,.93c0,0,1.89,1.08,2.22,0,.33-1.08-.12-1.68,.39-2.19s.99-1.14,1.32-.66,.39,1.05,.39,1.05Z"/><path d="M52.84,117.89c-.63,.51-1.23,1.05-1.23,1.05l-1.05-1.71s.48-.81,.99-.33,1.65-.36,1.71,.27-.23,1.53-.23,1.53c0,0-.59,.93-1.25,.96s-.78,.26-.84-.36,1.89-1.41,1.89-1.41Z"/><path d="M56.01,118.6c-1.32-.02-1.5-.1-1.56,.27s.24,.57,.45,.79,1.11,0,1.11,0c0,0,.33-.44,.33-.79s.72-.85,.72-.27,1.32,.89,1.02,.27-.15-1.13-1.11-1.28-1.44-.66-1.74,0,.57,.12,.27,.48,.51,.53,.51,.53Z"/><path d="M50.1,114.5c-.99,.09-.69-.48-1.23,.48s.54,.99,.69,.99,.24,.27,.54,.21,.69-.39,1.14-1.14c.45-.75,1.01-1.11,.39-1.56s-.36-.57-1.08-.57-.21-.06-.24-.6-.84-.45-1.05,.12,.15,.84,.15,.84c0,0-.12,.99,.15,.96s.54,.27,.54,.27Z"/></g><g><path d="M40.17,115.85c3.12,1.14-1.38,2.24-1.07,1.23-6.16-1.13-.58-.83,.48-1.38,4.54-.62-.36-.18-2.1-.93,.95-.53,1.82-1.38,2.7,1.08Z"/><path d="M32.13,121.46s-.99,.51-.63,1.17,1.56,.63,2.16-.51,1.41-3.39,1.2-1.47-1.26,1.89-.75,2.13,2.34-1.89,1.74-2.49-1.34-1.98-2.69-.78c-1.36,1.2-1.57,.72-1.42,1.53s-.9,.9-.9,.9l1.29-.48Z"/><path d="M36.99,121.5c0,.06-1-.03-.85,.51s.72,1.11,.72,1.11c0,0,2.31-.54,1.89-1.08s-.66-2.49,0-.93,.27,2.58-.15,2.67-1.65-.73-1.29,.15,2.88-.81,2.88-.81c0,0,.3-1.35-.3-2.01s-.48-2.1-1.41-1.17-1.5,1.57-1.5,1.57Z"/><path d="M34.13,117.18c.54-.63,1.2,.09,1.2,.09,0,0,.48,1.12-.33,1.24s-.84,0-1.74-.07-1.41,.98-1.65-.6,.36-3.33-1.02-1.68c-1.38,1.65-1.56,1.47-1.44,1.89s.66,.93,.66,.93c0,0,1.89,1.08,2.22,0,.33-1.08-.12-1.68,.39-2.19s.99-1.14,1.32-.66,.39,1.05,.39,1.05Z"/><path d="M38,118.42c-.63,.51-1.23,1.05-1.23,1.05l-1.05-1.71s.48-.81,.99-.33,1.65-.36,1.71,.27-.23,1.53-.23,1.53c0,0-.59,.93-1.25,.96s-.78,.26-.84-.36,1.89-1.41,1.89-1.41Z"/><path d="M41.17,119.13c-1.32-.02-1.5-.1-1.56,.27s.24,.57,.45,.79,1.11,0,1.11,0c0,0,.33-.44,.33-.79s.72-.85,.72-.27,1.32,.89,1.02,.27-.15-1.13-1.11-1.28-1.44-.66-1.74,0,.57,.12,.27,.48,.51,.53,.51,.53Z"/><path d="M35.26,115.03c-.99,.09-.69-.48-1.23,.48s.54,.99,.69,.99,.24,.27,.54,.21,.69-.39,1.14-1.14,1.01-1.11,.39-1.56c-.63-.45-.36-.57-1.08-.57s-.21-.06-.24-.6-.84-.45-1.05,.12,.15,.84,.15,.84c0,0-.12,.99,.15,.96s.54,.27,.54,.27Z"/></g><g><path d="M43.85,124c3.12,1.14-1.38,2.24-1.07,1.23-6.16-1.13-.58-.83,.48-1.38,4.54-.62-.36-.18-2.1-.93,.95-.53,1.82-1.38,2.7,1.08Z"/><path d="M35.81,129.61s-.99,.51-.63,1.17,1.56,.63,2.16-.51,1.41-3.39,1.2-1.47-1.26,1.89-.75,2.13,2.34-1.89,1.74-2.49c-.6-.6-1.34-1.98-2.69-.78-1.36,1.2-1.57,.72-1.42,1.53s-.9,.9-.9,.9l1.29-.48Z"/><path d="M40.67,129.65c0,.06-1-.03-.85,.51s.72,1.11,.72,1.11c0,0,2.31-.54,1.89-1.08s-.66-2.49,0-.93,.27,2.58-.15,2.67-1.65-.73-1.29,.15,2.88-.81,2.88-.81c0,0,.3-1.35-.3-2.01s-.48-2.1-1.41-1.17c-.93,.93-1.5,1.57-1.5,1.57Z"/><path d="M37.81,125.33c.54-.63,1.2,.09,1.2,.09,0,0,.48,1.12-.33,1.24s-.84,0-1.74-.07-1.41,.98-1.65-.6c-.24-1.59,.36-3.33-1.02-1.68-1.38,1.65-1.56,1.47-1.44,1.89s.66,.93,.66,.93c0,0,1.89,1.08,2.22,0s-.12-1.68,.39-2.19,.99-1.14,1.32-.66,.39,1.05,.39,1.05Z"/><path d="M41.68,126.57c-.63,.51-1.23,1.05-1.23,1.05l-1.05-1.71s.48-.81,.99-.33,1.65-.36,1.71,.27-.23,1.53-.23,1.53c0,0-.59,.93-1.25,.96s-.78,.26-.84-.36,1.89-1.41,1.89-1.41Z"/><path d="M44.86,127.28c-1.32-.02-1.5-.1-1.56,.27s.24,.57,.45,.79,1.11,0,1.11,0c0,0,.33-.44,.33-.79s.72-.85,.72-.27,1.32,.89,1.02,.27-.15-1.13-1.11-1.28-1.44-.66-1.74,0,.57,.12,.27,.48,.51,.53,.51,.53Z"/><path d="M38.94,123.17c-.99,.09-.69-.48-1.23,.48s.54,.99,.69,.99,.24,.27,.54,.21,.69-.39,1.14-1.14,1.01-1.11,.39-1.56-.36-.57-1.08-.57-.21-.06-.24-.6-.84-.45-1.05,.12,.15,.84,.15,.84c0,0-.12,.99,.15,.96s.54,.27,.54,.27Z"/></g><g><path d="M50.76,120.95c2.29,2.41-2.23,1.39-1.51,.63-5.02-3.74-.15-1,1.04-1.03,4.35,1.45-.25-.32-1.47-1.77,1.08-.05,2.24-.44,1.94,2.16Z"/><path d="M41.07,122.42s-1.12,.02-1.09,.77,1.12,1.26,2.16,.5,2.77-2.42,1.73-.79-1.97,1.14-1.62,1.58,2.94-.66,2.67-1.46-.32-2.37-2.07-1.89c-1.75,.47-1.73-.05-1.95,.74s-1.21,.41-1.21,.41l1.37,.14Z"/><path d="M45.4,124.6s-.88-.47-.98,.08,.16,1.31,.16,1.31c0,0,2.31,.54,2.17-.13s.51-2.53,.41-.83-.9,2.43-1.32,2.33-1.16-1.38-1.22-.44,2.94,.55,2.94,.55c0,0,.87-1.08,.62-1.93s.5-2.1-.75-1.67c-1.25,.42-2.03,.74-2.03,.74Z"/><path d="M44.75,119.47c.76-.33,1.04,.61,1.04,.61,0,0-.07,1.22-.84,.96s-.75-.38-1.53-.83-1.7,.26-1.21-1.27c.49-1.53,1.8-2.82-.17-1.96-1.97,.87-2.05,.63-2.13,1.06s.18,1.13,.18,1.13c0,0,1.22,1.81,1.99,.98s.64-1.56,1.32-1.79c.68-.23,1.39-.58,1.48,0s-.12,1.12-.12,1.12Z"/><path d="M47.68,122.29c-.79,.18-1.57,.39-1.57,.39l-.19-2s.79-.51,1.03,.14,1.64,.41,1.41,1-.88,1.27-.88,1.27c0,0-.94,.58-1.54,.31s-.82-.11-.59-.7,2.32-.42,2.32-.42Z"/><path d="M50.21,124.33c-1.18-.6-1.3-.76-1.52-.45s-.04,.62,.05,.91,1,.49,1,.49c0,0,.49-.25,.65-.56s1.02-.45,.77,.08,.79,1.38,.8,.7,.37-1.08-.43-1.64-1-1.23-1.56-.77,.46,.36,.03,.55,.22,.7,.22,.7Z"/><path d="M46.72,118.03c-.93-.36-.41-.74-1.32-.11s.05,1.13,.18,1.19,.1,.35,.39,.43,.79-.04,1.53-.52,1.4-.55,1.04-1.23-.07-.67-.71-.99-.16-.15,.05-.64-.56-.78-1-.36-.24,.82-.24,.82c0,0-.55,.84-.29,.93s.36,.48,.36,.48Z"/></g><g><path d="M38.18,119.56c-3.04-1.35,1.53-2.14,1.15-1.16,6.07,1.53,.52,.87-.57,1.35-4.57,.32,.35,.2,2.04,1.07-.98,.46-1.9,1.26-2.62-1.26Z"/><path d="M46.56,114.49s1.02-.45,.71-1.13-1.52-.73-2.19,.37-1.63,3.29-1.3,1.39,1.38-1.8,.89-2.08-2.46,1.73-1.9,2.37,1.2,2.07,2.64,.96c1.43-1.11,1.61-.62,1.52-1.43s.96-.84,.96-.84l-1.32,.4Z"/><path d="M41.72,114.13c0-.05,.99,.1,.88-.45s-.65-1.15-.65-1.15c0,0-2.34,.38-1.96,.95s.5,2.53-.06,.93c-.56-1.6-.1-2.59,.33-2.66s1.6,.83,1.3-.06-2.93,.62-2.93,.62c0,0-.39,1.33,.17,2.02s.34,2.13,1.33,1.26,1.6-1.46,1.6-1.46Z"/><path d="M44.29,118.63c-.58,.59-1.19-.17-1.19-.17,0,0-.41-1.15,.41-1.21s.84,.06,1.73,.18,1.47-.89,1.61,.71c.14,1.6-.58,3.3,.91,1.74,1.49-1.56,1.65-1.37,1.56-1.79s-.6-.97-.6-.97c0,0-1.82-1.2-2.22-.15s0,1.69-.53,2.16-1.06,1.07-1.36,.57-.32-1.07-.32-1.07Z"/><path d="M40.5,117.14c.66-.47,1.3-.96,1.3-.96l.94,1.77s-.53,.78-1.01,.26-1.67,.25-1.69-.38,.33-1.51,.33-1.51c0,0,.64-.89,1.31-.88s.8-.21,.81,.42-1.98,1.28-1.98,1.28Z"/><path d="M37.38,116.22c1.32,.1,1.49,.2,1.58-.17s-.2-.59-.4-.82-1.11-.07-1.11-.07c0,0-.36,.42-.38,.77s-.78,.8-.74,.22-1.26-.97-1-.34,.08,1.14,1.02,1.35,1.39,.75,1.74,.11-.56-.16-.24-.5-.47-.56-.47-.56Z"/><path d="M43.02,120.71c.99-.02,.66,.52,1.26-.4,.6-.92-.47-1.02-.62-1.03s-.22-.28-.53-.24-.71,.34-1.21,1.06-1.08,1.04-.49,1.53,.32,.59,1.04,.64,.2,.07,.2,.61,.81,.5,1.06-.05-.09-.85-.09-.85c0,0,.19-.98-.09-.97s-.52-.31-.52-.31Z"/></g><g><path d="M36.67,125.85c2.29,2.41-2.23,1.39-1.51,.63-5.02-3.74-.15-1,1.04-1.03,4.35,1.45-.25-.32-1.47-1.77,1.08-.05,2.24-.44,1.94,2.16Z"/><path d="M26.99,127.31s-1.12,.02-1.09,.77,1.12,1.26,2.16,.5,2.77-2.42,1.73-.79c-1.04,1.63-1.97,1.14-1.62,1.58s2.94-.66,2.67-1.46-.32-2.37-2.07-1.89-1.73-.05-1.95,.74-1.21,.41-1.21,.41l1.37,.14Z"/><path d="M31.32,129.5s-.88-.47-.98,.08,.16,1.31,.16,1.31c0,0,2.31,.54,2.17-.13s.51-2.53,.41-.83-.9,2.43-1.32,2.33-1.16-1.38-1.22-.44,2.94,.55,2.94,.55c0,0,.87-1.08,.62-1.93s.5-2.1-.75-1.67c-1.25,.42-2.03,.74-2.03,.74Z"/><path d="M30.67,124.37c.76-.33,1.04,.61,1.04,.61,0,0-.07,1.22-.84,.96s-.75-.38-1.53-.83-1.7,.26-1.21-1.27c.49-1.53,1.8-2.82-.17-1.96-1.97,.87-2.05,.63-2.13,1.06s.18,1.13,.18,1.13c0,0,1.22,1.81,1.99,.98s.64-1.56,1.32-1.79,1.39-.58,1.48,0-.12,1.12-.12,1.12Z"/><path d="M33.6,127.19c-.79,.18-1.57,.39-1.57,.39l-.19-2s.79-.51,1.03,.14,1.64,.41,1.41,1-.88,1.27-.88,1.27c0,0-.94,.58-1.54,.31s-.82-.11-.59-.7,2.32-.42,2.32-.42Z"/><path d="M36.13,129.23c-1.18-.6-1.3-.76-1.52-.45s-.04,.62,.05,.91,1,.49,1,.49c0,0,.49-.25,.65-.56s1.02-.45,.77,.08,.79,1.38,.8,.7,.37-1.08-.43-1.64-1-1.23-1.56-.77,.46,.36,.03,.55,.22,.7,.22,.7Z"/><path d="M32.64,122.93c-.93-.36-.41-.74-1.32-.11s.05,1.13,.18,1.19,.1,.35,.39,.43,.79-.04,1.53-.52,1.4-.55,1.04-1.23-.07-.67-.71-.99-.16-.15,.05-.64-.56-.78-1-.36-.24,.82-.24,.82c0,0-.55,.84-.29,.93s.36,.48,.36,.48Z"/></g></g></g><g><path d="M39.17,102.89h-6.82v-1.87l-2.96-2.96h-1.28v-3.14h15.31v3.14h-1.28l-2.96,2.96v1.87Zm-5.82-1h4.82v-1.28l3.55-3.55h.7v-1.14h-13.31v1.14h.7l3.55,3.55v1.28Z"/><path d="M36.17,105.95l-.41-.6-.42,.6c-.28,.42-1.71,2.55-1.71,3.55,0,1.17,.96,2.12,2.13,2.12s2.12-.95,2.12-2.12c0-1-1.43-3.13-1.71-3.55Zm-.41,4.67c-.62,0-1.13-.5-1.13-1.12,0-.37,.53-1.4,1.13-2.35,.59,.95,1.12,1.98,1.12,2.35,0,.62-.5,1.12-1.12,1.12Z"/><path class="cls-1" d="M36.88,109.5c0,.62-.5,1.12-1.12,1.12s-1.13-.5-1.13-1.12c0-.37,.53-1.4,1.13-2.35,.59,.95,1.12,1.98,1.12,2.35Z"/></g></g><g><g><path d="M186.59,50.05c-.63-.21-1.37-.53-1.51-1.16-.14-.61,.36-1.09,.75-1.48,.16-.15,.45-.44,.47-.56h0s-.15-.19-.91-.44l.31-.95c.98,.32,1.46,.68,1.58,1.18,.14,.61-.35,1.1-.75,1.49-.16,.16-.45,.44-.48,.56h0s.14,.18,.85,.42l-.32,.95Z"/><path d="M191.03,50.05c-.63-.21-1.37-.53-1.51-1.16-.14-.61,.36-1.09,.75-1.48,.16-.15,.45-.44,.48-.56,0,0-.11-.18-.91-.44l.31-.95c.98,.32,1.46,.68,1.58,1.18,.14,.61-.35,1.1-.75,1.49-.16,.15-.45,.44-.48,.56,0,0,.11,.17,.85,.42l-.32,.95Z"/><path d="M195.47,50.05c-.63-.21-1.37-.53-1.51-1.16-.14-.61,.36-1.09,.75-1.48,.16-.15,.45-.44,.48-.56,0,0-.11-.18-.91-.44l.31-.95c.98,.32,1.46,.68,1.58,1.18,.14,.61-.35,1.1-.75,1.49-.16,.16-.45,.44-.48,.56h0s.14,.18,.85,.42l-.32,.95Z"/><path d="M199.91,50.05c-.63-.21-1.37-.53-1.51-1.16-.14-.61,.36-1.09,.75-1.48,.16-.15,.45-.44,.47-.56h0s-.15-.19-.91-.44l.31-.95c.98,.32,1.46,.68,1.58,1.18,.14,.61-.35,1.1-.75,1.49-.16,.16-.45,.44-.48,.56h0s.14,.18,.85,.42l-.32,.95Z"/></g><path class="cls-2" d="M168.68,19.91h48.32v12.83c0,5.25-4.26,9.51-9.51,9.51h-29.29c-5.25,0-9.51-4.26-9.51-9.51v-12.83h0Z"/><ellipse class="cls-2" cx="192.84" cy="19.91" rx="24.16" ry="5.59"/><g class="cls-6"><g><g><path d="M187.43,20.78c3.12,1.14-1.38,2.24-1.07,1.23-6.16-1.13-.58-.83,.48-1.38,4.54-.62-.36-.18-2.1-.93,.95-.53,1.82-1.38,2.7,1.08Z"/><path d="M179.4,26.39s-.99,.51-.63,1.17,1.56,.63,2.16-.51,1.41-3.39,1.2-1.47-1.26,1.89-.75,2.13,2.34-1.89,1.74-2.49-1.34-1.98-2.69-.78-1.57,.72-1.42,1.53-.9,.9-.9,.9l1.29-.48Z"/><path d="M184.25,26.43c0,.06-1-.03-.85,.51s.72,1.11,.72,1.11c0,0,2.31-.54,1.89-1.08s-.66-2.49,0-.93,.27,2.58-.15,2.67-1.65-.73-1.29,.15,2.88-.81,2.88-.81c0,0,.3-1.35-.3-2.01s-.48-2.1-1.41-1.17c-.93,.93-1.5,1.57-1.5,1.57Z"/><path d="M181.39,22.11c.54-.63,1.2,.09,1.2,.09,0,0,.48,1.12-.33,1.24s-.84,0-1.74-.07c-.9-.06-1.41,.98-1.65-.6s.36-3.33-1.02-1.68-1.56,1.47-1.44,1.89,.66,.93,.66,.93c0,0,1.89,1.08,2.22,0,.33-1.08-.12-1.68,.39-2.19s.99-1.14,1.32-.66,.39,1.05,.39,1.05Z"/><path d="M185.27,23.34c-.63,.51-1.23,1.05-1.23,1.05l-1.05-1.71s.48-.81,.99-.33,1.65-.36,1.71,.27-.23,1.53-.23,1.53c0,0-.59,.93-1.25,.96s-.78,.26-.84-.36,1.89-1.41,1.89-1.41Z"/><path d="M188.44,24.05c-1.32-.02-1.5-.1-1.56,.27s.24,.57,.45,.79,1.11,0,1.11,0c0,0,.33-.44,.33-.79s.72-.85,.72-.27,1.32,.89,1.02,.27-.15-1.13-1.11-1.28-1.44-.66-1.74,0,.57,.12,.27,.48,.51,.53,.51,.53Z"/><path d="M182.52,19.95c-.99,.09-.69-.48-1.23,.48s.54,.99,.69,.99,.24,.27,.54,.21,.69-.39,1.14-1.14,1.01-1.11,.39-1.56-.36-.57-1.08-.57-.21-.06-.24-.6-.84-.45-1.05,.12,.15,.84,.15,.84c0,0-.12,.99,.15,.96s.54,.27,.54,.27Z"/></g><g><path d="M191.89,27.17c-.54,3.28-2.46-.94-1.41-.83-.04-6.26,.71-.72,1.45,.21,1.46,4.34,.11-.39,.52-2.24,.7,.83,1.7,1.53-.56,2.85Z"/><path d="M184.88,20.33s-.69-.88-1.27-.4-.33,1.65,.91,2.03c1.23,.38,3.6,.75,1.67,.9-1.93,.15-2.09-.89-2.23-.34s2.3,1.95,2.77,1.24,1.7-1.68,.26-2.79c-1.43-1.11-1-1.41-1.77-1.11s-1.05-.72-1.05-.72l.72,1.18Z"/><path d="M185.75,25.11c-.06,0-.15-.99-.65-.74s-.95,.92-.95,.92c0,0,.96,2.17,1.41,1.66s2.32-1.11,.91-.17c-1.41,.94-2.49,.75-2.65,.35s.41-1.76-.39-1.24,1.34,2.68,1.34,2.68c0,0,1.38,.04,1.92-.67,.54-.71,1.97-.86,.89-1.61s-1.82-1.18-1.82-1.18Z"/><path d="M189.45,21.49c.72,.41,.14,1.2,.14,1.2,0,0-1.01,.68-1.28-.09s-.15-.83-.26-1.72-1.23-1.2,.28-1.74c1.51-.53,3.34-.27,1.46-1.32-1.88-1.05-1.74-1.26-2.13-1.06s-.79,.82-.79,.82c0,0-.71,2.06,.42,2.18,1.12,.12,1.63-.43,2.23-.03s1.31,.76,.9,1.17-.96,.58-.96,.58Z"/><path d="M188.96,25.53c-.62-.52-1.26-1.01-1.26-1.01l1.48-1.35s.89,.32,.51,.91,.66,1.55,.05,1.73-1.55,.06-1.55,.06c0,0-1.02-.4-1.18-1.04s-.4-.72,.2-.89,1.74,1.6,1.74,1.6Z"/><path d="M188.86,28.78c-.23-1.3-.18-1.49-.56-1.48s-.52,.34-.69,.59,.21,1.09,.21,1.09c0,0,.49,.24,.84,.18s.97,.55,.4,.66-.63,1.46-.08,1.05,1.08-.36,1.05-1.33,.38-1.54-.33-1.71-.01,.58-.42,.36-.42,.6-.42,.6Z"/><path d="M191.78,22.2c-.27-.96,.34-.77-.7-1.12-1.04-.35-.87,.72-.84,.86s-.22,.29-.1,.57,.51,.61,1.33,.91,1.28,.79,1.61,.09,.49-.46,.36-1.16,.02-.21,.55-.35,.28-.91-.31-1.01-.8,.3-.8,.3c0,0-1,.07-.92,.33s-.16,.58-.16,.58Z"/></g><g><path d="M175.95,19.73c1.97-2.68,1.77,1.95,.88,1.37-2.8,5.6-.96,.33-1.19-.85,.67-4.53-.27,.3-1.48,1.76-.24-1.05-.82-2.13,1.79-2.29Z"/><path d="M179.09,29s.22,1.09,.95,.93,1.04-1.32,.11-2.22-2.87-2.3-1.08-1.56c1.79,.74,1.47,1.74,1.84,1.31s-1.16-2.78-1.91-2.37-2.28,.73-1.5,2.37c.78,1.64,.26,1.71,1.08,1.79s.61,1.12,.61,1.12l-.11-1.37Z"/><path d="M180.48,24.35c.05,.02-.31,.95,.25,.95s1.26-.38,1.26-.38c0,0,.13-2.37-.51-2.12s-2.58-.06-.89-.26c1.68-.2,2.56,.46,2.52,.89s-1.16,1.38-.22,1.28c.94-.1,.02-2.99,.02-2.99,0,0-1.21-.66-2.01-.27s-2.15-.12-1.52,1.03,1.09,1.87,1.09,1.87Z"/><path d="M175.54,25.89c-.46-.69,.42-1.13,.42-1.13,0,0,1.21-.15,1.1,.66s-.24,.81-.55,1.65,.55,1.63-1.04,1.42-3.1-1.27-1.9,.51,.98,1.91,1.42,1.91,1.08-.38,1.08-.38c0,0,1.56-1.52,.62-2.13s-1.65-.35-2-.99c-.35-.63-.82-1.27-.27-1.45s1.12-.08,1.12-.08Z"/><path d="M177.81,22.52c.31,.75,.66,1.47,.66,1.47l-1.93,.53s-.64-.69-.04-1.04,.11-1.69,.74-1.57,1.41,.64,1.41,.64c0,0,.73,.82,.58,1.46s.03,.82-.58,.71-.82-2.21-.82-2.21Z"/><path d="M179.37,19.67c-.38,1.26-.52,1.41-.17,1.57s.62-.07,.88-.21,.31-1.07,.31-1.07c0,0-.33-.44-.67-.54s-.62-.93-.06-.77,1.22-1.02,.54-.91-1.13-.17-1.54,.71-1.04,1.2-.48,1.67,.27-.51,.54-.13,.65-.34,.65-.34Z"/><path d="M173.78,24.21c-.19,.98-.65,.53,.12,1.32s1.1-.24,1.14-.39,.32-.16,.35-.46-.18-.77-.78-1.41-.79-1.28-1.39-.81-.65,.18-.85,.87-.12,.18-.64,.06-.67,.68-.18,1.04,.85,.09,.85,.09c0,0,.92,.39,.96,.12s.41-.44,.41-.44Z"/></g><g><path d="M212.08,20.4c3.12,1.14-1.38,2.24-1.07,1.23-6.16-1.13-.58-.83,.48-1.38,4.54-.62-.36-.18-2.1-.93,.95-.53,1.82-1.38,2.7,1.08Z"/><path d="M204.05,26.01s-.99,.51-.63,1.17,1.56,.63,2.16-.51,1.41-3.39,1.2-1.47-1.26,1.89-.75,2.13,2.34-1.89,1.74-2.49-1.34-1.98-2.69-.78c-1.36,1.2-1.57,.72-1.42,1.53s-.9,.9-.9,.9l1.29-.48Z"/><path d="M208.9,26.05c0,.06-1-.03-.85,.51s.72,1.11,.72,1.11c0,0,2.31-.54,1.89-1.08s-.66-2.49,0-.93,.27,2.58-.15,2.67-1.65-.73-1.29,.15,2.88-.81,2.88-.81c0,0,.3-1.35-.3-2.01s-.48-2.1-1.41-1.17-1.5,1.57-1.5,1.57Z"/><path d="M206.05,21.73c.54-.63,1.2,.09,1.2,.09,0,0,.48,1.12-.33,1.24s-.84,0-1.74-.07-1.41,.98-1.65-.6,.36-3.33-1.02-1.68c-1.38,1.65-1.56,1.47-1.44,1.89s.66,.93,.66,.93c0,0,1.89,1.08,2.22,0s-.12-1.68,.39-2.19,.99-1.14,1.32-.66,.39,1.05,.39,1.05Z"/><path d="M209.92,22.97c-.63,.51-1.23,1.05-1.23,1.05l-1.05-1.71s.48-.81,.99-.33,1.65-.36,1.71,.27-.23,1.53-.23,1.53c0,0-.59,.93-1.25,.96s-.78,.26-.84-.36,1.89-1.41,1.89-1.41Z"/><path d="M213.09,23.68c-1.32-.02-1.5-.1-1.56,.27s.24,.57,.45,.79,1.11,0,1.11,0c0,0,.33-.44,.33-.79s.72-.85,.72-.27,1.32,.89,1.02,.27-.15-1.13-1.11-1.28-1.44-.66-1.74,0,.57,.12,.27,.48,.51,.53,.51,.53Z"/><path d="M207.18,19.58c-.99,.09-.69-.48-1.23,.48s.54,.99,.69,.99,.24,.27,.54,.21,.69-.39,1.14-1.14,1.01-1.11,.39-1.56-.36-.57-1.08-.57-.21-.06-.24-.6-.84-.45-1.05,.12,.15,.84,.15,.84c0,0-.12,.99,.15,.96s.54,.27,.54,.27Z"/></g><g><path d="M197.25,20.94c3.12,1.14-1.38,2.24-1.07,1.23-6.16-1.13-.58-.83,.48-1.38,4.54-.62-.36-.18-2.1-.93,.95-.53,1.82-1.38,2.7,1.08Z"/><path d="M189.21,26.54s-.99,.51-.63,1.17,1.56,.63,2.16-.51,1.41-3.39,1.2-1.47-1.26,1.89-.75,2.13,2.34-1.89,1.74-2.49-1.34-1.98-2.69-.78c-1.36,1.2-1.57,.72-1.42,1.53s-.9,.9-.9,.9l1.29-.48Z"/><path d="M194.07,26.58c0,.06-1-.03-.85,.51s.72,1.11,.72,1.11c0,0,2.31-.54,1.89-1.08s-.66-2.49,0-.93c.66,1.56,.27,2.58-.15,2.67s-1.65-.73-1.29,.15,2.88-.81,2.88-.81c0,0,.3-1.35-.3-2.01s-.48-2.1-1.41-1.17-1.5,1.57-1.5,1.57Z"/><path d="M191.21,22.27c.54-.63,1.2,.09,1.2,.09,0,0,.48,1.12-.33,1.24s-.84,0-1.74-.07-1.41,.98-1.65-.6,.36-3.33-1.02-1.68-1.56,1.47-1.44,1.89,.66,.93,.66,.93c0,0,1.89,1.08,2.22,0,.33-1.08-.12-1.68,.39-2.19s.99-1.14,1.32-.66,.39,1.05,.39,1.05Z"/><path d="M195.08,23.5c-.63,.51-1.23,1.05-1.23,1.05l-1.05-1.71s.48-.81,.99-.33,1.65-.36,1.71,.27-.23,1.53-.23,1.53c0,0-.59,.93-1.25,.96s-.78,.26-.84-.36,1.89-1.41,1.89-1.41Z"/><path d="M198.25,24.21c-1.32-.02-1.5-.1-1.56,.27s.24,.57,.45,.79,1.11,0,1.11,0c0,0,.33-.44,.33-.79s.72-.85,.72-.27,1.32,.89,1.02,.27-.15-1.13-1.11-1.28-1.44-.66-1.74,0,.57,.12,.27,.48,.51,.53,.51,.53Z"/><path d="M192.34,20.11c-.99,.09-.69-.48-1.23,.48s.54,.99,.69,.99,.24,.27,.54,.21,.69-.39,1.14-1.14c.45-.75,1.01-1.11,.39-1.56s-.36-.57-1.08-.57-.21-.06-.24-.6-.84-.45-1.05,.12,.15,.84,.15,.84c0,0-.12,.99,.15,.96s.54,.27,.54,.27Z"/></g><g><path d="M200.93,29.08c3.12,1.14-1.38,2.24-1.07,1.23-6.16-1.13-.58-.83,.48-1.38,4.54-.62-.36-.18-2.1-.93,.95-.53,1.82-1.38,2.7,1.08Z"/><path d="M192.89,34.69s-.99,.51-.63,1.17,1.56,.63,2.16-.51c.6-1.14,1.41-3.39,1.2-1.47s-1.26,1.89-.75,2.13,2.34-1.89,1.74-2.49-1.34-1.98-2.69-.78-1.57,.72-1.42,1.53-.9,.9-.9,.9l1.29-.48Z"/><path d="M197.75,34.73c0,.06-1-.03-.85,.51s.72,1.11,.72,1.11c0,0,2.31-.54,1.89-1.08s-.66-2.49,0-.93,.27,2.58-.15,2.67-1.65-.73-1.29,.15,2.88-.81,2.88-.81c0,0,.3-1.35-.3-2.01s-.48-2.1-1.41-1.17-1.5,1.57-1.5,1.57Z"/><path d="M194.89,30.41c.54-.63,1.2,.09,1.2,.09,0,0,.48,1.12-.33,1.24s-.84,0-1.74-.07-1.41,.98-1.65-.6c-.24-1.59,.36-3.33-1.02-1.68-1.38,1.65-1.56,1.47-1.44,1.89s.66,.93,.66,.93c0,0,1.89,1.08,2.22,0,.33-1.08-.12-1.68,.39-2.19s.99-1.14,1.32-.66,.39,1.05,.39,1.05Z"/><path d="M198.76,31.65c-.63,.51-1.23,1.05-1.23,1.05l-1.05-1.71s.48-.81,.99-.33,1.65-.36,1.71,.27-.23,1.53-.23,1.53c0,0-.59,.93-1.25,.96s-.78,.26-.84-.36,1.89-1.41,1.89-1.41Z"/><path d="M201.94,32.36c-1.32-.02-1.5-.1-1.56,.27s.24,.57,.45,.79,1.11,0,1.11,0c0,0,.33-.44,.33-.79s.72-.85,.72-.27,1.32,.89,1.02,.27-.15-1.13-1.11-1.28-1.44-.66-1.74,0,.57,.12,.27,.48,.51,.53,.51,.53Z"/><path d="M196.02,28.26c-.99,.09-.69-.48-1.23,.48s.54,.99,.69,.99,.24,.27,.54,.21,.69-.39,1.14-1.14,1.01-1.11,.39-1.56-.36-.57-1.08-.57-.21-.06-.24-.6-.84-.45-1.05,.12,.15,.84,.15,.84c0,0-.12,.99,.15,.96s.54,.27,.54,.27Z"/></g><g><path d="M207.83,26.03c2.29,2.41-2.23,1.39-1.51,.63-5.02-3.74-.15-1,1.04-1.03,4.35,1.45-.25-.32-1.47-1.77,1.08-.05,2.24-.44,1.94,2.16Z"/><path d="M198.15,27.5s-1.12,.02-1.09,.77,1.12,1.26,2.16,.5,2.77-2.42,1.73-.79c-1.04,1.63-1.97,1.14-1.62,1.58s2.94-.66,2.67-1.46-.32-2.37-2.07-1.89-1.73-.05-1.95,.74-1.21,.41-1.21,.41l1.37,.14Z"/><path d="M202.48,29.69s-.88-.47-.98,.08,.16,1.31,.16,1.31c0,0,2.31,.54,2.17-.13s.51-2.53,.41-.83-.9,2.43-1.32,2.33-1.16-1.38-1.22-.44c-.06,.94,2.94,.55,2.94,.55,0,0,.87-1.08,.62-1.93s.5-2.1-.75-1.67-2.03,.74-2.03,.74Z"/><path d="M201.83,24.55c.76-.33,1.04,.61,1.04,.61,0,0-.07,1.22-.84,.96s-.75-.38-1.53-.83-1.7,.26-1.21-1.27c.49-1.53,1.8-2.82-.17-1.96-1.97,.87-2.05,.63-2.13,1.06s.18,1.13,.18,1.13c0,0,1.22,1.81,1.99,.98s.64-1.56,1.32-1.79,1.39-.58,1.48,0-.12,1.12-.12,1.12Z"/><path d="M204.76,27.37c-.79,.18-1.57,.39-1.57,.39l-.19-2s.79-.51,1.03,.14,1.64,.41,1.41,1-.88,1.27-.88,1.27c0,0-.94,.58-1.54,.31s-.82-.11-.59-.7,2.32-.42,2.32-.42Z"/><path d="M207.29,29.41c-1.18-.6-1.3-.76-1.52-.45s-.04,.62,.05,.91,1,.49,1,.49c0,0,.49-.25,.65-.56s1.02-.45,.77,.08,.79,1.38,.8,.7,.37-1.08-.43-1.64-1-1.23-1.56-.77,.46,.36,.03,.55,.22,.7,.22,.7Z"/><path d="M203.8,23.12c-.93-.36-.41-.74-1.32-.11s.05,1.13,.18,1.19,.1,.35,.39,.43,.79-.04,1.53-.52,1.4-.55,1.04-1.23-.07-.67-.71-.99-.16-.15,.05-.64-.56-.78-1-.36-.24,.82-.24,.82c0,0-.55,.84-.29,.93s.36,.48,.36,.48Z"/></g><g><path d="M195.26,24.64c-3.04-1.35,1.53-2.14,1.15-1.16,6.07,1.53,.52,.87-.57,1.35-4.57,.32,.35,.2,2.04,1.07-.98,.46-1.9,1.26-2.62-1.26Z"/><path d="M203.64,19.57s1.02-.45,.71-1.13c-.32-.68-1.52-.73-2.19,.37s-1.63,3.29-1.3,1.39,1.38-1.8,.89-2.08-2.46,1.73-1.9,2.37,1.2,2.07,2.64,.96c1.43-1.11,1.61-.62,1.52-1.43s.96-.84,.96-.84l-1.32,.4Z"/><path d="M198.8,19.21c0-.05,.99,.1,.88-.45s-.65-1.15-.65-1.15c0,0-2.34,.38-1.96,.95s.5,2.53-.06,.93c-.56-1.6-.1-2.59,.33-2.66s1.6,.83,1.3-.06c-.3-.9-2.93,.62-2.93,.62,0,0-.39,1.33,.17,2.02s.34,2.13,1.33,1.26,1.6-1.46,1.6-1.46Z"/><path d="M201.37,23.71c-.58,.59-1.19-.17-1.19-.17,0,0-.41-1.15,.41-1.21s.84,.06,1.73,.18,1.47-.89,1.61,.71c.14,1.6-.58,3.3,.91,1.74s1.65-1.37,1.56-1.79-.6-.97-.6-.97c0,0-1.82-1.2-2.22-.15s0,1.69-.53,2.16-1.06,1.07-1.36,.57-.32-1.07-.32-1.07Z"/><path d="M197.58,22.22c.66-.47,1.3-.96,1.3-.96l.94,1.77s-.53,.78-1.01,.26c-.48-.51-1.67,.25-1.69-.38s.33-1.51,.33-1.51c0,0,.64-.89,1.31-.88s.8-.21,.81,.42-1.98,1.28-1.98,1.28Z"/><path d="M194.46,21.3c1.32,.1,1.49,.2,1.58-.17s-.2-.59-.4-.82-1.11-.07-1.11-.07c0,0-.36,.42-.38,.77s-.78,.8-.74,.22-1.26-.97-1-.34,.08,1.14,1.02,1.35,1.39,.75,1.74,.11-.56-.16-.24-.5-.47-.56-.47-.56Z"/><path d="M200.1,25.79c.99-.02,.66,.52,1.26-.4s-.47-1.02-.62-1.03-.22-.28-.53-.24-.71,.34-1.21,1.06-1.08,1.04-.49,1.53,.32,.59,1.04,.64,.2,.07,.2,.61,.81,.5,1.06-.05-.09-.85-.09-.85c0,0,.19-.98-.09-.97s-.52-.31-.52-.31Z"/></g><g><path d="M193.75,30.93c2.29,2.41-2.23,1.39-1.51,.63-5.02-3.74-.15-1,1.04-1.03,4.35,1.45-.25-.32-1.47-1.77,1.08-.05,2.24-.44,1.94,2.16Z"/><path d="M184.07,32.4s-1.12,.02-1.09,.77,1.12,1.26,2.16,.5,2.77-2.42,1.73-.79-1.97,1.14-1.62,1.58,2.94-.66,2.67-1.46-.32-2.37-2.07-1.89c-1.75,.47-1.73-.05-1.95,.74s-1.21,.41-1.21,.41l1.37,.14Z"/><path d="M188.4,34.58s-.88-.47-.98,.08,.16,1.31,.16,1.31c0,0,2.31,.54,2.17-.13s.51-2.53,.41-.83-.9,2.43-1.32,2.33-1.16-1.38-1.22-.44,2.94,.55,2.94,.55c0,0,.87-1.08,.62-1.93s.5-2.1-.75-1.67c-1.25,.42-2.03,.74-2.03,.74Z"/><path d="M187.75,29.45c.76-.33,1.04,.61,1.04,.61,0,0-.07,1.22-.84,.96s-.75-.38-1.53-.83-1.7,.26-1.21-1.27c.49-1.53,1.8-2.82-.17-1.96-1.97,.87-2.05,.63-2.13,1.06s.18,1.13,.18,1.13c0,0,1.22,1.81,1.99,.98s.64-1.56,1.32-1.79,1.39-.58,1.48,0-.12,1.12-.12,1.12Z"/><path d="M190.68,32.27c-.79,.18-1.57,.39-1.57,.39l-.19-2s.79-.51,1.03,.14,1.64,.41,1.41,1-.88,1.27-.88,1.27c0,0-.94,.58-1.54,.31s-.82-.11-.59-.7,2.32-.42,2.32-.42Z"/><path d="M193.21,34.31c-1.18-.6-1.3-.76-1.52-.45s-.04,.62,.05,.91,1,.49,1,.49c0,0,.49-.25,.65-.56s1.02-.45,.77,.08,.79,1.38,.8,.7,.37-1.08-.43-1.64-1-1.23-1.56-.77,.46,.36,.03,.55,.22,.7,.22,.7Z"/><path d="M189.72,28.01c-.93-.36-.41-.74-1.32-.11s.05,1.13,.18,1.19,.1,.35,.39,.43,.79-.04,1.53-.52,1.4-.55,1.04-1.23-.07-.67-.71-.99-.16-.15,.05-.64-.56-.78-1-.36-.24,.82-.24,.82c0,0-.55,.84-.29,.93s.36,.48,.36,.48Z"/></g></g></g><path d="M196.25,7.97h-6.82v-1.87l-2.96-2.96h-1.28V0h15.31V3.14h-1.28l-2.96,2.96v1.87Zm-5.82-1h4.82v-1.28l3.55-3.55h.7V1h-13.31v1.14h.7l3.55,3.55v1.28Z"/><circle class="cls-2" cx="190.79" cy="10.91" r=".81"/><circle class="cls-2" cx="194.75" cy="11.96" r=".81"/><circle class="cls-2" cx="195.87" cy="16.83" r=".81"/><circle class="cls-2" cx="189.16" cy="16.89" r=".81"/><circle class="cls-2" cx="192.56" cy="15.14" r=".81"/></g><g><path d="M110.37,50.05c-.63-.21-1.37-.53-1.51-1.16-.14-.61,.36-1.09,.75-1.48,.16-.15,.45-.44,.47-.56h0s-.15-.19-.91-.44l.31-.95c.98,.32,1.46,.68,1.58,1.18,.14,.61-.35,1.1-.75,1.49-.16,.16-.45,.44-.48,.56h0s.14,.18,.85,.42l-.32,.95Z"/><path d="M114.81,50.05c-.63-.21-1.37-.53-1.51-1.16-.14-.61,.36-1.09,.75-1.48,.16-.15,.45-.44,.48-.56,0,0-.11-.18-.91-.44l.31-.95c.98,.32,1.46,.68,1.58,1.18,.14,.61-.35,1.1-.75,1.49-.16,.15-.45,.44-.48,.56,0,0,.11,.17,.85,.42l-.32,.95Z"/><path d="M119.25,50.05c-.63-.21-1.37-.53-1.51-1.16-.14-.61,.36-1.09,.75-1.48,.16-.15,.45-.44,.48-.56,0,0-.11-.18-.91-.44l.31-.95c.98,.32,1.46,.68,1.58,1.18,.14,.61-.35,1.1-.75,1.49-.16,.16-.45,.44-.48,.56h0s.14,.18,.85,.42l-.32,.95Z"/><path d="M123.69,50.05c-.63-.21-1.37-.53-1.51-1.16-.14-.61,.36-1.09,.75-1.48,.16-.15,.45-.44,.47-.56h0s-.15-.19-.91-.44l.31-.95c.98,.32,1.46,.68,1.58,1.18,.14,.61-.35,1.1-.75,1.49-.16,.16-.45,.44-.48,.56h0s.14,.18,.85,.42l-.32,.95Z"/></g><path class="cls-2" d="M92.46,19.91h48.32v12.83c0,5.25-4.26,9.51-9.51,9.51h-29.29c-5.25,0-9.51-4.26-9.51-9.51v-12.83h0Z"/><ellipse class="cls-2" cx="116.62" cy="19.91" rx="24.16" ry="5.59"/><g class="cls-5"><g><g><path d="M111.21,20.78c3.12,1.14-1.38,2.24-1.07,1.23-6.16-1.13-.58-.83,.48-1.38,4.54-.62-.36-.18-2.1-.93,.95-.53,1.82-1.38,2.7,1.08Z"/><path d="M103.18,26.39s-.99,.51-.63,1.17,1.56,.63,2.16-.51c.6-1.14,1.41-3.39,1.2-1.47s-1.26,1.89-.75,2.13,2.34-1.89,1.74-2.49c-.6-.6-1.34-1.98-2.69-.78-1.36,1.2-1.57,.72-1.42,1.53s-.9,.9-.9,.9l1.29-.48Z"/><path d="M108.03,26.43c0,.06-1-.03-.85,.51s.72,1.11,.72,1.11c0,0,2.31-.54,1.89-1.08s-.66-2.49,0-.93,.27,2.58-.15,2.67-1.65-.73-1.29,.15,2.88-.81,2.88-.81c0,0,.3-1.35-.3-2.01s-.48-2.1-1.41-1.17-1.5,1.57-1.5,1.57Z"/><path d="M105.17,22.11c.54-.63,1.2,.09,1.2,.09,0,0,.48,1.12-.33,1.24s-.84,0-1.74-.07c-.9-.06-1.41,.98-1.65-.6s.36-3.33-1.02-1.68-1.56,1.47-1.44,1.89,.66,.93,.66,.93c0,0,1.89,1.08,2.22,0,.33-1.08-.12-1.68,.39-2.19s.99-1.14,1.32-.66,.39,1.05,.39,1.05Z"/><path d="M109.05,23.34c-.63,.51-1.23,1.05-1.23,1.05l-1.05-1.71s.48-.81,.99-.33,1.65-.36,1.71,.27-.23,1.53-.23,1.53c0,0-.59,.93-1.25,.96s-.78,.26-.84-.36,1.89-1.41,1.89-1.41Z"/><path d="M112.22,24.05c-1.32-.02-1.5-.1-1.56,.27s.24,.57,.45,.79,1.11,0,1.11,0c0,0,.33-.44,.33-.79s.72-.85,.72-.27,1.32,.89,1.02,.27-.15-1.13-1.11-1.28-1.44-.66-1.74,0,.57,.12,.27,.48,.51,.53,.51,.53Z"/><path d="M106.3,19.95c-.99,.09-.69-.48-1.23,.48s.54,.99,.69,.99,.24,.27,.54,.21,.69-.39,1.14-1.14,1.01-1.11,.39-1.56-.36-.57-1.08-.57-.21-.06-.24-.6-.84-.45-1.05,.12,.15,.84,.15,.84c0,0-.12,.99,.15,.96s.54,.27,.54,.27Z"/></g><g><path d="M115.67,27.17c-.54,3.28-2.46-.94-1.41-.83-.04-6.26,.71-.72,1.45,.21,1.46,4.34,.11-.39,.52-2.24,.7,.83,1.7,1.53-.56,2.85Z"/><path d="M108.66,20.33s-.69-.88-1.27-.4-.33,1.65,.91,2.03c1.23,.38,3.6,.75,1.67,.9-1.93,.15-2.09-.89-2.23-.34s2.3,1.95,2.77,1.24c.48-.7,1.7-1.68,.26-2.79-1.43-1.11-1-1.41-1.77-1.11-.77,.3-1.05-.72-1.05-.72l.72,1.18Z"/><path d="M109.53,25.11c-.06,0-.15-.99-.65-.74s-.95,.92-.95,.92c0,0,.96,2.17,1.41,1.66s2.32-1.11,.91-.17-2.49,.75-2.65,.35,.41-1.76-.39-1.24,1.34,2.68,1.34,2.68c0,0,1.38,.04,1.92-.67s1.97-.86,.89-1.61-1.82-1.18-1.82-1.18Z"/><path d="M113.23,21.49c.72,.41,.14,1.2,.14,1.2,0,0-1.01,.68-1.28-.09s-.15-.83-.26-1.72-1.23-1.2,.28-1.74c1.51-.53,3.34-.27,1.46-1.32-1.88-1.05-1.74-1.26-2.13-1.06s-.79,.82-.79,.82c0,0-.71,2.06,.42,2.18,1.12,.12,1.63-.43,2.23-.03s1.31,.76,.9,1.17-.96,.58-.96,.58Z"/><path d="M112.75,25.53c-.62-.52-1.26-1.01-1.26-1.01l1.48-1.35s.89,.32,.51,.91,.66,1.55,.05,1.73-1.55,.06-1.55,.06c0,0-1.02-.4-1.18-1.04s-.4-.72,.2-.89,1.74,1.6,1.74,1.6Z"/><path d="M112.64,28.78c-.23-1.3-.18-1.49-.56-1.48s-.52,.34-.69,.59,.21,1.09,.21,1.09c0,0,.49,.24,.84,.18s.97,.55,.4,.66-.63,1.46-.08,1.05,1.08-.36,1.05-1.33c-.03-.97,.38-1.54-.33-1.71s-.01,.58-.42,.36-.42,.6-.42,.6Z"/><path d="M115.57,22.2c-.27-.96,.34-.77-.7-1.12s-.87,.72-.84,.86-.22,.29-.1,.57,.51,.61,1.33,.91,1.28,.79,1.61,.09,.49-.46,.36-1.16,.02-.21,.55-.35,.28-.91-.31-1.01-.8,.3-.8,.3c0,0-1,.07-.92,.33s-.16,.58-.16,.58Z"/></g><g><path d="M99.73,19.73c1.97-2.68,1.77,1.95,.88,1.37-2.8,5.6-.96,.33-1.19-.85,.67-4.53-.27,.3-1.48,1.76-.24-1.05-.82-2.13,1.79-2.29Z"/><path d="M102.88,29s.22,1.09,.95,.93,1.04-1.32,.11-2.22c-.93-.89-2.87-2.3-1.08-1.56,1.79,.74,1.47,1.74,1.84,1.31s-1.16-2.78-1.91-2.37-2.28,.73-1.5,2.37,.26,1.71,1.08,1.79,.61,1.12,.61,1.12l-.11-1.37Z"/><path d="M104.27,24.35c.05,.02-.31,.95,.25,.95s1.26-.38,1.26-.38c0,0,.13-2.37-.51-2.12s-2.58-.06-.89-.26c1.68-.2,2.56,.46,2.52,.89s-1.16,1.38-.22,1.28c.94-.1,.02-2.99,.02-2.99,0,0-1.21-.66-2.01-.27s-2.15-.12-1.52,1.03,1.09,1.87,1.09,1.87Z"/><path d="M99.32,25.89c-.46-.69,.42-1.13,.42-1.13,0,0,1.21-.15,1.1,.66s-.24,.81-.55,1.65c-.31,.85,.55,1.63-1.04,1.42s-3.1-1.27-1.9,.51c1.2,1.79,.98,1.91,1.42,1.91s1.08-.38,1.08-.38c0,0,1.56-1.52,.62-2.13s-1.65-.35-2-.99-.82-1.27-.27-1.45,1.12-.08,1.12-.08Z"/><path d="M101.59,22.52c.31,.75,.66,1.47,.66,1.47l-1.93,.53s-.64-.69-.04-1.04,.11-1.69,.74-1.57,1.41,.64,1.41,.64c0,0,.73,.82,.58,1.46s.03,.82-.58,.71-.82-2.21-.82-2.21Z"/><path d="M103.15,19.67c-.38,1.26-.52,1.41-.17,1.57s.62-.07,.88-.21,.31-1.07,.31-1.07c0,0-.33-.44-.67-.54s-.62-.93-.06-.77,1.22-1.02,.54-.91-1.13-.17-1.54,.71c-.41,.88-1.04,1.2-.48,1.67s.27-.51,.54-.13,.65-.34,.65-.34Z"/><path d="M97.57,24.21c-.19,.98-.65,.53,.12,1.32s1.1-.24,1.14-.39,.32-.16,.35-.46-.18-.77-.78-1.41-.79-1.28-1.39-.81-.65,.18-.85,.87-.12,.18-.64,.06-.67,.68-.18,1.04,.85,.09,.85,.09c0,0,.92,.39,.96,.12s.41-.44,.41-.44Z"/></g><g><path d="M135.86,20.4c3.12,1.14-1.38,2.24-1.07,1.23-6.16-1.13-.58-.83,.48-1.38,4.54-.62-.36-.18-2.1-.93,.95-.53,1.82-1.38,2.7,1.08Z"/><path d="M127.83,26.01s-.99,.51-.63,1.17,1.56,.63,2.16-.51,1.41-3.39,1.2-1.47-1.26,1.89-.75,2.13,2.34-1.89,1.74-2.49-1.34-1.98-2.69-.78c-1.36,1.2-1.57,.72-1.42,1.53s-.9,.9-.9,.9l1.29-.48Z"/><path d="M132.69,26.05c0,.06-1-.03-.85,.51s.72,1.11,.72,1.11c0,0,2.31-.54,1.89-1.08s-.66-2.49,0-.93,.27,2.58-.15,2.67-1.65-.73-1.29,.15,2.88-.81,2.88-.81c0,0,.3-1.35-.3-2.01s-.48-2.1-1.41-1.17-1.5,1.57-1.5,1.57Z"/><path d="M129.83,21.73c.54-.63,1.2,.09,1.2,.09,0,0,.48,1.12-.33,1.24s-.84,0-1.74-.07-1.41,.98-1.65-.6,.36-3.33-1.02-1.68c-1.38,1.65-1.56,1.47-1.44,1.89s.66,.93,.66,.93c0,0,1.89,1.08,2.22,0s-.12-1.68,.39-2.19,.99-1.14,1.32-.66,.39,1.05,.39,1.05Z"/><path d="M133.7,22.97c-.63,.51-1.23,1.05-1.23,1.05l-1.05-1.71s.48-.81,.99-.33,1.65-.36,1.71,.27-.23,1.53-.23,1.53c0,0-.59,.93-1.25,.96s-.78,.26-.84-.36,1.89-1.41,1.89-1.41Z"/><path d="M136.87,23.68c-1.32-.02-1.5-.1-1.56,.27s.24,.57,.45,.79,1.11,0,1.11,0c0,0,.33-.44,.33-.79s.72-.85,.72-.27,1.32,.89,1.02,.27-.15-1.13-1.11-1.28-1.44-.66-1.74,0,.57,.12,.27,.48,.51,.53,.51,.53Z"/><path d="M130.96,19.58c-.99,.09-.69-.48-1.23,.48s.54,.99,.69,.99,.24,.27,.54,.21,.69-.39,1.14-1.14,1.01-1.11,.39-1.56-.36-.57-1.08-.57-.21-.06-.24-.6-.84-.45-1.05,.12,.15,.84,.15,.84c0,0-.12,.99,.15,.96s.54,.27,.54,.27Z"/></g><g><path d="M121.03,20.94c3.12,1.14-1.38,2.24-1.07,1.23-6.16-1.13-.58-.83,.48-1.38,4.54-.62-.36-.18-2.1-.93,.95-.53,1.82-1.38,2.7,1.08Z"/><path d="M112.99,26.54s-.99,.51-.63,1.17,1.56,.63,2.16-.51c.6-1.14,1.41-3.39,1.2-1.47s-1.26,1.89-.75,2.13,2.34-1.89,1.74-2.49c-.6-.6-1.34-1.98-2.69-.78-1.36,1.2-1.57,.72-1.42,1.53s-.9,.9-.9,.9l1.29-.48Z"/><path d="M117.85,26.58c0,.06-1-.03-.85,.51s.72,1.11,.72,1.11c0,0,2.31-.54,1.89-1.08s-.66-2.49,0-.93,.27,2.58-.15,2.67-1.65-.73-1.29,.15,2.88-.81,2.88-.81c0,0,.3-1.35-.3-2.01s-.48-2.1-1.41-1.17c-.93,.93-1.5,1.57-1.5,1.57Z"/><path d="M114.99,22.27c.54-.63,1.2,.09,1.2,.09,0,0,.48,1.12-.33,1.24s-.84,0-1.74-.07-1.41,.98-1.65-.6,.36-3.33-1.02-1.68-1.56,1.47-1.44,1.89,.66,.93,.66,.93c0,0,1.89,1.08,2.22,0,.33-1.08-.12-1.68,.39-2.19s.99-1.14,1.32-.66,.39,1.05,.39,1.05Z"/><path d="M118.86,23.5c-.63,.51-1.23,1.05-1.23,1.05l-1.05-1.71s.48-.81,.99-.33,1.65-.36,1.71,.27-.23,1.53-.23,1.53c0,0-.59,.93-1.25,.96s-.78,.26-.84-.36,1.89-1.41,1.89-1.41Z"/><path d="M122.04,24.21c-1.32-.02-1.5-.1-1.56,.27s.24,.57,.45,.79,1.11,0,1.11,0c0,0,.33-.44,.33-.79s.72-.85,.72-.27,1.32,.89,1.02,.27-.15-1.13-1.11-1.28-1.44-.66-1.74,0,.57,.12,.27,.48,.51,.53,.51,.53Z"/><path d="M116.12,20.11c-.99,.09-.69-.48-1.23,.48-.54,.96,.54,.99,.69,.99s.24,.27,.54,.21,.69-.39,1.14-1.14,1.01-1.11,.39-1.56-.36-.57-1.08-.57-.21-.06-.24-.6-.84-.45-1.05,.12,.15,.84,.15,.84c0,0-.12,.99,.15,.96s.54,.27,.54,.27Z"/></g><g><path d="M124.71,29.08c3.12,1.14-1.38,2.24-1.07,1.23-6.16-1.13-.58-.83,.48-1.38,4.54-.62-.36-.18-2.1-.93,.95-.53,1.82-1.38,2.7,1.08Z"/><path d="M116.68,34.69s-.99,.51-.63,1.17,1.56,.63,2.16-.51,1.41-3.39,1.2-1.47c-.21,1.92-1.26,1.89-.75,2.13s2.34-1.89,1.74-2.49-1.34-1.98-2.69-.78c-1.36,1.2-1.57,.72-1.42,1.53s-.9,.9-.9,.9l1.29-.48Z"/><path d="M121.53,34.73c0,.06-1-.03-.85,.51s.72,1.11,.72,1.11c0,0,2.31-.54,1.89-1.08s-.66-2.49,0-.93,.27,2.58-.15,2.67-1.65-.73-1.29,.15,2.88-.81,2.88-.81c0,0,.3-1.35-.3-2.01s-.48-2.1-1.41-1.17-1.5,1.57-1.5,1.57Z"/><path d="M118.67,30.41c.54-.63,1.2,.09,1.2,.09,0,0,.48,1.12-.33,1.24s-.84,0-1.74-.07-1.41,.98-1.65-.6c-.24-1.59,.36-3.33-1.02-1.68s-1.56,1.47-1.44,1.89,.66,.93,.66,.93c0,0,1.89,1.08,2.22,0,.33-1.08-.12-1.68,.39-2.19s.99-1.14,1.32-.66,.39,1.05,.39,1.05Z"/><path d="M122.55,31.65c-.63,.51-1.23,1.05-1.23,1.05l-1.05-1.71s.48-.81,.99-.33,1.65-.36,1.71,.27-.23,1.53-.23,1.53c0,0-.59,.93-1.25,.96s-.78,.26-.84-.36,1.89-1.41,1.89-1.41Z"/><path d="M125.72,32.36c-1.32-.02-1.5-.1-1.56,.27s.24,.57,.45,.79,1.11,0,1.11,0c0,0,.33-.44,.33-.79s.72-.85,.72-.27,1.32,.89,1.02,.27-.15-1.13-1.11-1.28-1.44-.66-1.74,0,.57,.12,.27,.48,.51,.53,.51,.53Z"/><path d="M119.8,28.26c-.99,.09-.69-.48-1.23,.48s.54,.99,.69,.99,.24,.27,.54,.21,.69-.39,1.14-1.14,1.01-1.11,.39-1.56-.36-.57-1.08-.57-.21-.06-.24-.6-.84-.45-1.05,.12,.15,.84,.15,.84c0,0-.12,.99,.15,.96s.54,.27,.54,.27Z"/></g><g><path d="M131.62,26.03c2.29,2.41-2.23,1.39-1.51,.63-5.02-3.74-.15-1,1.04-1.03,4.35,1.45-.25-.32-1.47-1.77,1.08-.05,2.24-.44,1.94,2.16Z"/><path d="M121.93,27.5s-1.12,.02-1.09,.77,1.12,1.26,2.16,.5,2.77-2.42,1.73-.79c-1.04,1.63-1.97,1.14-1.62,1.58s2.94-.66,2.67-1.46-.32-2.37-2.07-1.89-1.73-.05-1.95,.74-1.21,.41-1.21,.41l1.37,.14Z"/><path d="M126.26,29.69s-.88-.47-.98,.08,.16,1.31,.16,1.31c0,0,2.31,.54,2.17-.13s.51-2.53,.41-.83c-.1,1.69-.9,2.43-1.32,2.33s-1.16-1.38-1.22-.44,2.94,.55,2.94,.55c0,0,.87-1.08,.62-1.93s.5-2.1-.75-1.67c-1.25,.42-2.03,.74-2.03,.74Z"/><path d="M125.61,24.55c.76-.33,1.04,.61,1.04,.61,0,0-.07,1.22-.84,.96s-.75-.38-1.53-.83-1.7,.26-1.21-1.27c.49-1.53,1.8-2.82-.17-1.96-1.97,.87-2.05,.63-2.13,1.06s.18,1.13,.18,1.13c0,0,1.22,1.81,1.99,.98s.64-1.56,1.32-1.79,1.39-.58,1.48,0-.12,1.12-.12,1.12Z"/><path d="M128.54,27.37c-.79,.18-1.57,.39-1.57,.39l-.19-2s.79-.51,1.03,.14,1.64,.41,1.41,1-.88,1.27-.88,1.27c0,0-.94,.58-1.54,.31s-.82-.11-.59-.7,2.32-.42,2.32-.42Z"/><path d="M131.07,29.41c-1.18-.6-1.3-.76-1.52-.45s-.04,.62,.05,.91,1,.49,1,.49c0,0,.49-.25,.65-.56s1.02-.45,.77,.08,.79,1.38,.8,.7,.37-1.08-.43-1.64-1-1.23-1.56-.77,.46,.36,.03,.55,.22,.7,.22,.7Z"/><path d="M127.58,23.12c-.93-.36-.41-.74-1.32-.11s.05,1.13,.18,1.19,.1,.35,.39,.43,.79-.04,1.53-.52,1.4-.55,1.04-1.23-.07-.67-.71-.99-.16-.15,.05-.64-.56-.78-1-.36-.24,.82-.24,.82c0,0-.55,.84-.29,.93s.36,.48,.36,.48Z"/></g><g><path d="M119.04,24.64c-3.04-1.35,1.53-2.14,1.15-1.16,6.07,1.53,.52,.87-.57,1.35-4.57,.32,.35,.2,2.04,1.07-.98,.46-1.9,1.26-2.62-1.26Z"/><path d="M127.42,19.57s1.02-.45,.71-1.13-1.52-.73-2.19,.37-1.63,3.29-1.3,1.39c.34-1.9,1.38-1.8,.89-2.08s-2.46,1.73-1.9,2.37,1.2,2.07,2.64,.96c1.43-1.11,1.61-.62,1.52-1.43s.96-.84,.96-.84l-1.32,.4Z"/><path d="M122.58,19.21c0-.05,.99,.1,.88-.45s-.65-1.15-.65-1.15c0,0-2.34,.38-1.96,.95s.5,2.53-.06,.93c-.56-1.6-.1-2.59,.33-2.66s1.6,.83,1.3-.06c-.3-.9-2.93,.62-2.93,.62,0,0-.39,1.33,.17,2.02s.34,2.13,1.33,1.26,1.6-1.46,1.6-1.46Z"/><path d="M125.15,23.71c-.58,.59-1.19-.17-1.19-.17,0,0-.41-1.15,.41-1.21s.84,.06,1.73,.18,1.47-.89,1.61,.71c.14,1.6-.58,3.3,.91,1.74,1.49-1.56,1.65-1.37,1.56-1.79s-.6-.97-.6-.97c0,0-1.82-1.2-2.22-.15s0,1.69-.53,2.16-1.06,1.07-1.36,.57-.32-1.07-.32-1.07Z"/><path d="M121.37,22.22c.66-.47,1.3-.96,1.3-.96l.94,1.77s-.53,.78-1.01,.26-1.67,.25-1.69-.38,.33-1.51,.33-1.51c0,0,.64-.89,1.31-.88s.8-.21,.81,.42-1.98,1.28-1.98,1.28Z"/><path d="M118.25,21.3c1.32,.1,1.49,.2,1.58-.17s-.2-.59-.4-.82-1.11-.07-1.11-.07c0,0-.36,.42-.38,.77s-.78,.8-.74,.22-1.26-.97-1-.34,.08,1.14,1.02,1.35c.95,.21,1.39,.75,1.74,.11s-.56-.16-.24-.5-.47-.56-.47-.56Z"/><path d="M123.88,25.79c.99-.02,.66,.52,1.26-.4,.6-.92-.47-1.02-.62-1.03s-.22-.28-.53-.24-.71,.34-1.21,1.06-1.08,1.04-.49,1.53,.32,.59,1.04,.64,.2,.07,.2,.61,.81,.5,1.06-.05-.09-.85-.09-.85c0,0,.19-.98-.09-.97s-.52-.31-.52-.31Z"/></g><g><path d="M117.54,30.93c2.29,2.41-2.23,1.39-1.51,.63-5.02-3.74-.15-1,1.04-1.03,4.35,1.45-.25-.32-1.47-1.77,1.08-.05,2.24-.44,1.94,2.16Z"/><path d="M107.85,32.4s-1.12,.02-1.09,.77,1.12,1.26,2.16,.5c1.04-.76,2.77-2.42,1.73-.79-1.04,1.63-1.97,1.14-1.62,1.58s2.94-.66,2.67-1.46c-.27-.8-.32-2.37-2.07-1.89-1.75,.47-1.73-.05-1.95,.74s-1.21,.41-1.21,.41l1.37,.14Z"/><path d="M112.18,34.58s-.88-.47-.98,.08,.16,1.31,.16,1.31c0,0,2.31,.54,2.17-.13s.51-2.53,.41-.83c-.1,1.69-.9,2.43-1.32,2.33s-1.16-1.38-1.22-.44,2.94,.55,2.94,.55c0,0,.87-1.08,.62-1.93s.5-2.1-.75-1.67c-1.25,.42-2.03,.74-2.03,.74Z"/><path d="M111.53,29.45c.76-.33,1.04,.61,1.04,.61,0,0-.07,1.22-.84,.96s-.75-.38-1.53-.83-1.7,.26-1.21-1.27c.49-1.53,1.8-2.82-.17-1.96-1.97,.87-2.05,.63-2.13,1.06s.18,1.13,.18,1.13c0,0,1.22,1.81,1.99,.98s.64-1.56,1.32-1.79c.68-.23,1.39-.58,1.48,0s-.12,1.12-.12,1.12Z"/><path d="M114.46,32.27c-.79,.18-1.57,.39-1.57,.39l-.19-2s.79-.51,1.03,.14,1.64,.41,1.41,1-.88,1.27-.88,1.27c0,0-.94,.58-1.54,.31s-.82-.11-.59-.7,2.32-.42,2.32-.42Z"/><path d="M116.99,34.31c-1.18-.6-1.3-.76-1.52-.45s-.04,.62,.05,.91,1,.49,1,.49c0,0,.49-.25,.65-.56s1.02-.45,.77,.08,.79,1.38,.8,.7,.37-1.08-.43-1.64-1-1.23-1.56-.77c-.56,.46,.46,.36,.03,.55s.22,.7,.22,.7Z"/><path d="M113.5,28.01c-.93-.36-.41-.74-1.32-.11s.05,1.13,.18,1.19,.1,.35,.39,.43,.79-.04,1.53-.52,1.4-.55,1.04-1.23-.07-.67-.71-.99-.16-.15,.05-.64-.56-.78-1-.36-.24,.82-.24,.82c0,0-.55,.84-.29,.93s.36,.48,.36,.48Z"/></g></g></g><g><g><g><path d="M48.43,24.24c2.56,.94-1.13,1.83-.88,1.01-5.05-.93-.47-.68,.39-1.13,3.72-.51-.3-.15-1.72-.76,.77-.43,1.49-1.13,2.21,.89Z"/><path d="M41.85,28.83s-.81,.42-.52,.96,1.28,.52,1.77-.42,1.16-2.78,.98-1.21-1.03,1.55-.61,1.75,1.92-1.55,1.43-2.04-1.09-1.62-2.21-.64c-1.11,.98-1.29,.59-1.16,1.25s-.74,.74-.74,.74l1.06-.4Z"/><path d="M45.83,28.86s-.82-.03-.69,.41,.59,.91,.59,.91c0,0,1.89-.44,1.55-.88s-.54-2.04,0-.76,.22,2.12-.12,2.19-1.35-.6-1.06,.12,2.36-.66,2.36-.66c0,0,.25-1.1-.25-1.65s-.39-1.72-1.16-.96-1.23,1.28-1.23,1.28Z"/><path d="M43.48,25.33c.44-.52,.98,.07,.98,.07,0,0,.39,.92-.27,1.01s-.69,0-1.43-.05-1.16,.81-1.35-.5c-.2-1.3,.3-2.73-.84-1.37-1.13,1.35-1.28,1.21-1.18,1.55s.54,.76,.54,.76c0,0,1.55,.89,1.82,0,.27-.89-.1-1.38,.32-1.8s.81-.93,1.08-.54,.32,.86,.32,.86Z"/><path d="M46.66,26.34c-.52,.42-1.01,.86-1.01,.86l-.86-1.4s.39-.66,.81-.27,1.35-.3,1.4,.22-.18,1.25-.18,1.25c0,0-.48,.76-1.02,.79s-.64,.21-.69-.3,1.55-1.15,1.55-1.15Z"/><path d="M49.26,26.92c-1.08-.01-1.23-.08-1.28,.22s.2,.47,.37,.65,.91,0,.91,0c0,0,.27-.36,.27-.65s.59-.7,.59-.22,1.08,.73,.84,.22-.12-.92-.91-1.05-1.18-.54-1.43,0,.47,.1,.22,.39,.42,.43,.42,.43Z"/><path d="M44.41,23.56c-.81,.07-.57-.39-1.01,.39s.44,.81,.57,.81,.2,.22,.44,.17,.57-.32,.93-.93,.83-.91,.32-1.28-.29-.47-.88-.47-.17-.05-.2-.49-.69-.37-.86,.1,.12,.69,.12,.69c0,0-.1,.81,.12,.79s.44,.22,.44,.22Z"/></g><g><path d="M52.08,29.48c-.44,2.69-2.01-.77-1.15-.68-.03-5.13,.58-.59,1.19,.18,1.2,3.56,.09-.32,.43-1.83,.57,.68,1.39,1.25-.46,2.34Z"/><path d="M46.34,23.87s-.57-.72-1.04-.33-.27,1.35,.74,1.66,2.95,.62,1.37,.74c-1.58,.13-1.72-.73-1.83-.28s1.88,1.6,2.27,1.02,1.39-1.38,.22-2.29c-1.17-.91-.82-1.15-1.45-.91s-.86-.59-.86-.59l.59,.96Z"/><path d="M47.05,27.78s-.12-.81-.54-.6-.78,.75-.78,.75c0,0,.79,1.78,1.16,1.36s1.9-.91,.75-.14c-1.16,.77-2.04,.61-2.17,.29s.33-1.44-.32-1.02,1.09,2.2,1.09,2.2c0,0,1.13,.04,1.57-.55s1.62-.71,.73-1.32-1.49-.96-1.49-.96Z"/><path d="M50.09,24.82c.59,.34,.11,.98,.11,.98,0,0-.83,.56-1.05-.08s-.12-.68-.21-1.41-1.01-.99,.23-1.42c1.24-.44,2.73-.22,1.19-1.08s-1.42-1.03-1.74-.87-.65,.67-.65,.67c0,0-.58,1.69,.34,1.79s1.33-.35,1.82-.02,1.07,.62,.73,.96-.79,.48-.79,.48Z"/><path d="M49.69,28.13c-.51-.43-1.03-.83-1.03-.83l1.21-1.11s.73,.26,.42,.75,.54,1.27,.04,1.42-1.27,.05-1.27,.05c0,0-.84-.33-.96-.86s-.33-.59,.16-.73,1.42,1.31,1.42,1.31Z"/><path d="M49.6,30.79c-.19-1.07-.15-1.22-.46-1.22s-.43,.28-.57,.48,.17,.89,.17,.89c0,0,.41,.2,.69,.14s.8,.45,.33,.54-.51,1.2-.06,.86,.89-.29,.86-1.09,.31-1.26-.27-1.4,0,.48-.35,.29-.35,.49-.35,.49Z"/><path d="M52,25.4c-.22-.78,.28-.63-.58-.92s-.71,.59-.69,.71-.18,.23-.09,.47,.42,.5,1.09,.74,1.05,.64,1.32,.07,.4-.37,.29-.95,.02-.18,.45-.28,.23-.75-.26-.83-.65,.25-.65,.25c0,0-.82,.06-.75,.27s-.13,.48-.13,.48Z"/></g><g><path d="M39.02,23.37c1.61-2.2,1.45,1.6,.72,1.13-2.29,4.59-.79,.27-.98-.69,.55-3.72-.22,.25-1.21,1.44-.2-.86-.67-1.75,1.47-1.87Z"/><path d="M41.6,30.98s.18,.9,.78,.76,.85-1.08,.09-1.82-2.35-1.88-.88-1.28,1.2,1.42,1.51,1.08-.95-2.27-1.56-1.94-1.86,.6-1.23,1.94,.21,1.4,.88,1.47,.5,.91,.5,.91l-.09-1.13Z"/><path d="M42.74,27.16s-.25,.78,.2,.78,1.04-.31,1.04-.31c0,0,.1-1.94-.42-1.73s-2.11-.05-.73-.21,2.09,.38,2.07,.73-.95,1.13-.18,1.05,.02-2.45,.02-2.45c0,0-.99-.54-1.65-.22s-1.76-.1-1.24,.84c.52,.94,.89,1.53,.89,1.53Z"/><path d="M38.69,28.43c-.37-.57,.34-.92,.34-.92,0,0,.99-.12,.9,.54s-.2,.66-.45,1.36,.45,1.33-.85,1.16-2.54-1.04-1.55,.42c.98,1.46,.8,1.56,1.16,1.57s.88-.31,.88-.31c0,0,1.28-1.24,.51-1.75s-1.35-.29-1.64-.81-.67-1.04-.22-1.19,.92-.07,.92-.07Z"/><path d="M40.55,25.66c.26,.61,.54,1.21,.54,1.21l-1.58,.44s-.53-.56-.03-.86,.09-1.38,.6-1.29,1.15,.53,1.15,.53c0,0,.6,.67,.47,1.2s.03,.67-.48,.58-.68-1.81-.68-1.81Z"/><path d="M41.83,23.33c-.32,1.04-.42,1.16-.14,1.29s.51-.06,.72-.17,.25-.87,.25-.87c0,0-.27-.36-.55-.44s-.51-.76-.05-.63,1-.84,.45-.74-.92-.14-1.26,.58-.85,.98-.4,1.37,.22-.42,.44-.1,.53-.28,.53-.28Z"/><path d="M37.25,27.05c-.16,.8-.54,.43,.1,1.08s.9-.2,.94-.32,.27-.13,.29-.38-.15-.63-.64-1.16-.64-1.05-1.14-.66-.53,.15-.69,.72-.09,.15-.53,.05-.55,.56-.15,.86,.7,.07,.7,.07c0,0,.75,.32,.79,.1s.34-.36,.34-.36Z"/></g><g><path d="M68.63,23.93c2.56,.94-1.13,1.83-.88,1.01-5.05-.93-.47-.68,.39-1.13,3.72-.51-.3-.15-1.72-.76,.77-.43,1.49-1.13,2.21,.89Z"/><path d="M62.05,28.52s-.81,.42-.52,.96,1.28,.52,1.77-.42c.49-.93,1.16-2.78,.98-1.21s-1.03,1.55-.61,1.75,1.92-1.55,1.43-2.04-1.09-1.62-2.21-.64c-1.11,.98-1.29,.59-1.16,1.25s-.74,.74-.74,.74l1.06-.4Z"/><path d="M66.02,28.56s-.82-.03-.69,.41,.59,.91,.59,.91c0,0,1.89-.44,1.55-.88s-.54-2.04,0-.76,.22,2.12-.12,2.19-1.35-.6-1.06,.12,2.36-.66,2.36-.66c0,0,.25-1.1-.25-1.65s-.39-1.72-1.16-.96-1.23,1.28-1.23,1.28Z"/><path d="M63.68,25.02c.44-.52,.98,.07,.98,.07,0,0,.39,.92-.27,1.01s-.69,0-1.43-.05-1.16,.81-1.35-.5c-.2-1.3,.3-2.73-.84-1.37-1.13,1.35-1.28,1.21-1.18,1.55s.54,.76,.54,.76c0,0,1.55,.89,1.82,0s-.1-1.38,.32-1.8,.81-.93,1.08-.54,.32,.86,.32,.86Z"/><path d="M66.86,26.03c-.52,.42-1.01,.86-1.01,.86l-.86-1.4s.39-.66,.81-.27,1.35-.3,1.4,.22-.18,1.25-.18,1.25c0,0-.48,.76-1.02,.79s-.64,.21-.69-.3,1.55-1.15,1.55-1.15Z"/><path d="M69.46,26.61c-1.08-.01-1.23-.08-1.28,.22s.2,.47,.37,.65,.91,0,.91,0c0,0,.27-.36,.27-.65s.59-.7,.59-.22,1.08,.73,.84,.22-.12-.92-.91-1.05-1.18-.54-1.43,0,.47,.1,.22,.39,.42,.43,.42,.43Z"/><path d="M64.61,23.25c-.81,.07-.57-.39-1.01,.39s.44,.81,.57,.81,.2,.22,.44,.17,.57-.32,.93-.93,.83-.91,.32-1.28-.29-.47-.88-.47-.17-.05-.2-.49-.69-.37-.86,.1,.12,.69,.12,.69c0,0-.1,.81,.12,.79s.44,.22,.44,.22Z"/></g><g><path d="M56.47,24.36c2.56,.94-1.13,1.83-.88,1.01-5.05-.93-.47-.68,.39-1.13,3.72-.51-.3-.15-1.72-.76,.77-.43,1.49-1.13,2.21,.89Z"/><path d="M49.89,28.96s-.81,.42-.52,.96,1.28,.52,1.77-.42,1.16-2.78,.98-1.21-1.03,1.55-.61,1.75,1.92-1.55,1.43-2.04-1.09-1.62-2.21-.64c-1.11,.98-1.29,.59-1.16,1.25s-.74,.74-.74,.74l1.06-.4Z"/><path d="M53.87,28.99s-.82-.03-.69,.41,.59,.91,.59,.91c0,0,1.89-.44,1.55-.88s-.54-2.04,0-.76,.22,2.12-.12,2.19-1.35-.6-1.06,.12,2.36-.66,2.36-.66c0,0,.25-1.1-.25-1.65s-.39-1.72-1.16-.96-1.23,1.28-1.23,1.28Z"/><path d="M51.53,25.46c.44-.52,.98,.07,.98,.07,0,0,.39,.92-.27,1.01s-.69,0-1.43-.05-1.16,.81-1.35-.5c-.2-1.3,.3-2.73-.84-1.37s-1.28,1.21-1.18,1.55,.54,.76,.54,.76c0,0,1.55,.89,1.82,0s-.1-1.38,.32-1.8,.81-.93,1.08-.54,.32,.86,.32,.86Z"/><path d="M54.7,26.47c-.52,.42-1.01,.86-1.01,.86l-.86-1.4s.39-.66,.81-.27,1.35-.3,1.4,.22-.18,1.25-.18,1.25c0,0-.48,.76-1.02,.79s-.64,.21-.69-.3,1.55-1.15,1.55-1.15Z"/><path d="M57.3,27.05c-1.08-.01-1.23-.08-1.28,.22s.2,.47,.37,.65,.91,0,.91,0c0,0,.27-.36,.27-.65s.59-.7,.59-.22,1.08,.73,.84,.22-.12-.92-.91-1.05-1.18-.54-1.43,0,.47,.1,.22,.39,.42,.43,.42,.43Z"/><path d="M52.45,23.69c-.81,.07-.57-.39-1.01,.39s.44,.81,.57,.81,.2,.22,.44,.17,.57-.32,.93-.93,.83-.91,.32-1.28-.29-.47-.88-.47-.17-.05-.2-.49-.69-.37-.86,.1,.12,.69,.12,.69c0,0-.1,.81,.12,.79s.44,.22,.44,.22Z"/></g><g><path d="M59.49,31.04c2.56,.94-1.13,1.83-.88,1.01-5.05-.93-.47-.68,.39-1.13,3.72-.51-.3-.15-1.72-.76,.77-.43,1.49-1.13,2.21,.89Z"/><path d="M52.91,35.63s-.81,.42-.52,.96,1.28,.52,1.77-.42c.49-.93,1.16-2.78,.98-1.21-.17,1.57-1.03,1.55-.61,1.75s1.92-1.55,1.43-2.04-1.09-1.62-2.21-.64c-1.11,.98-1.29,.59-1.16,1.25s-.74,.74-.74,.74l1.06-.4Z"/><path d="M56.88,35.67s-.82-.03-.69,.41,.59,.91,.59,.91c0,0,1.89-.44,1.55-.88s-.54-2.04,0-.76,.22,2.12-.12,2.19-1.35-.6-1.06,.12,2.36-.66,2.36-.66c0,0,.25-1.1-.25-1.65s-.39-1.72-1.16-.96-1.23,1.28-1.23,1.28Z"/><path d="M54.54,32.13c.44-.52,.98,.07,.98,.07,0,0,.39,.92-.27,1.01s-.69,0-1.43-.05-1.16,.81-1.35-.5,.3-2.73-.84-1.37c-1.13,1.35-1.28,1.21-1.18,1.55s.54,.76,.54,.76c0,0,1.55,.89,1.82,0s-.1-1.38,.32-1.8,.81-.93,1.08-.54,.32,.86,.32,.86Z"/><path d="M57.72,33.14c-.52,.42-1.01,.86-1.01,.86l-.86-1.4s.39-.66,.81-.27,1.35-.3,1.4,.22-.18,1.25-.18,1.25c0,0-.48,.76-1.02,.79s-.64,.21-.69-.3,1.55-1.15,1.55-1.15Z"/><path d="M60.32,33.72c-1.08-.01-1.23-.08-1.28,.22s.2,.47,.37,.65,.91,0,.91,0c0,0,.27-.36,.27-.65s.59-.7,.59-.22,1.08,.73,.84,.22-.12-.92-.91-1.05-1.18-.54-1.43,0,.47,.1,.22,.39,.42,.43,.42,.43Z"/><path d="M55.47,30.36c-.81,.07-.57-.39-1.01,.39s.44,.81,.57,.81,.2,.22,.44,.17,.57-.32,.93-.93,.83-.91,.32-1.28-.29-.47-.88-.47-.17-.05-.2-.49-.69-.37-.86,.1,.12,.69,.12,.69c0,0-.1,.81,.12,.79s.44,.22,.44,.22Z"/></g><g><path d="M65.15,28.54c1.88,1.97-1.83,1.14-1.24,.51-4.11-3.07-.12-.82,.85-.84,3.56,1.19-.2-.26-1.21-1.45,.89-.04,1.84-.36,1.59,1.77Z"/><path d="M57.21,29.74s-.91,.02-.89,.63,.92,1.03,1.77,.41,2.27-1.98,1.42-.64c-.85,1.34-1.61,.93-1.33,1.29s2.41-.54,2.18-1.2-.26-1.94-1.7-1.55-1.41-.04-1.6,.61-.99,.33-.99,.33l1.12,.11Z"/><path d="M60.76,31.53s-.72-.39-.81,.06,.13,1.08,.13,1.08c0,0,1.89,.44,1.78-.1s.42-2.07,.34-.68c-.08,1.39-.74,1.99-1.08,1.91s-.95-1.13-1-.36,2.41,.45,2.41,.45c0,0,.71-.88,.51-1.58s.41-1.72-.61-1.37-1.67,.61-1.67,.61Z"/><path d="M60.23,27.33c.63-.27,.85,.5,.85,.5,0,0-.05,1-.69,.79s-.62-.31-1.26-.68-1.39,.21-.99-1.04,1.47-2.31-.14-1.6-1.68,.51-1.75,.87,.15,.92,.15,.92c0,0,1,1.48,1.63,.81s.52-1.28,1.08-1.47,1.14-.48,1.21,0-.09,.91-.09,.91Z"/><path d="M62.63,29.64c-.65,.15-1.28,.32-1.28,.32l-.15-1.64s.65-.42,.85,.12,1.34,.33,1.16,.82-.72,1.04-.72,1.04c0,0-.77,.47-1.26,.25s-.67-.09-.49-.57,1.9-.35,1.9-.35Z"/><path d="M64.7,31.31c-.96-.49-1.07-.62-1.25-.37s-.03,.51,.04,.74,.82,.4,.82,.4c0,0,.4-.2,.53-.46s.84-.37,.63,.06,.65,1.13,.65,.57,.3-.88-.35-1.34-.82-1.01-1.28-.63,.38,.3,.02,.45,.18,.57,.18,.57Z"/><path d="M61.84,26.15c-.76-.29-.33-.6-1.08-.09s.04,.92,.15,.98,.08,.28,.32,.35,.65-.04,1.25-.42,1.15-.45,.85-1.01-.05-.55-.58-.81-.13-.12,.04-.53-.46-.64-.82-.29-.19,.67-.19,.67c0,0-.45,.68-.24,.76s.3,.39,.3,.39Z"/></g><g><path d="M54.84,27.4c-2.49-1.1,1.25-1.76,.94-.95,4.97,1.26,.43,.71-.47,1.1-3.75,.26,.29,.17,1.67,.87-.8,.38-1.56,1.03-2.15-1.03Z"/><path d="M61.71,23.25s.84-.37,.58-.93-1.24-.6-1.79,.3c-.55,.9-1.34,2.7-1.06,1.14s1.13-1.48,.73-1.7-2.02,1.42-1.56,1.94,.99,1.69,2.16,.78c1.18-.91,1.32-.5,1.24-1.18s.78-.69,.78-.69l-1.08,.33Z"/><path d="M57.75,22.95s.81,.08,.72-.37-.53-.94-.53-.94c0,0-1.92,.31-1.6,.78s.41,2.07-.05,.76c-.46-1.31-.08-2.13,.27-2.18s1.31,.68,1.06-.05-2.4,.51-2.4,.51c0,0-.32,1.09,.14,1.66s.28,1.74,1.09,1.03,1.31-1.2,1.31-1.2Z"/><path d="M59.85,26.64c-.48,.49-.98-.14-.98-.14,0,0-.33-.94,.34-.99s.69,.05,1.42,.15c.73,.1,1.21-.73,1.32,.58,.11,1.31-.47,2.7,.74,1.43,1.22-1.28,1.36-1.12,1.28-1.47s-.49-.8-.49-.8c0,0-1.49-.99-1.82-.12s0,1.38-.44,1.77-.87,.88-1.12,.47-.26-.88-.26-.88Z"/><path d="M56.75,25.42c.54-.38,1.06-.79,1.06-.79l.77,1.45s-.44,.64-.83,.22-1.37,.21-1.38-.31,.27-1.24,.27-1.24c0,0,.53-.73,1.07-.72s.65-.17,.67,.34-1.62,1.05-1.62,1.05Z"/><path d="M54.19,24.67c1.08,.09,1.22,.16,1.29-.14s-.17-.48-.33-.67-.91-.06-.91-.06c0,0-.29,.34-.31,.63s-.64,.66-.6,.18-1.03-.8-.82-.28,.06,.93,.84,1.11,1.14,.62,1.42,.09-.46-.13-.2-.41-.39-.46-.39-.46Z"/><path d="M58.81,28.34c.81-.02,.54,.43,1.03-.33,.49-.76-.39-.84-.51-.85s-.18-.23-.43-.2-.59,.28-.99,.87c-.41,.59-.89,.85-.4,1.26s.26,.49,.85,.52,.17,.06,.16,.5,.66,.41,.87-.04-.08-.7-.08-.7c0,0,.15-.8-.07-.79s-.43-.25-.43-.25Z"/></g><g><path d="M53.61,32.55c1.88,1.97-1.83,1.14-1.24,.51-4.11-3.07-.12-.82,.85-.84,3.56,1.19-.2-.26-1.21-1.45,.89-.04,1.84-.36,1.59,1.77Z"/><path d="M45.68,33.75s-.91,.02-.89,.63,.92,1.03,1.77,.41,2.27-1.98,1.42-.64-1.61,.93-1.33,1.29,2.41-.54,2.18-1.2-.26-1.94-1.7-1.55c-1.43,.39-1.41-.04-1.6,.61s-.99,.33-.99,.33l1.12,.11Z"/><path d="M49.23,35.55s-.72-.39-.81,.06,.13,1.08,.13,1.08c0,0,1.89,.44,1.78-.1s.42-2.07,.34-.68c-.08,1.39-.74,1.99-1.08,1.91s-.95-1.13-1-.36,2.41,.45,2.41,.45c0,0,.71-.88,.51-1.58s.41-1.72-.61-1.37-1.67,.61-1.67,.61Z"/><path d="M48.7,31.34c.63-.27,.85,.5,.85,.5,0,0-.05,1-.69,.79s-.62-.31-1.26-.68-1.39,.21-.99-1.04,1.47-2.31-.14-1.6-1.68,.51-1.75,.87,.15,.92,.15,.92c0,0,1,1.48,1.63,.81,.63-.67,.52-1.28,1.08-1.47s1.14-.48,1.21,0-.09,.91-.09,.91Z"/><path d="M51.09,33.65c-.65,.15-1.28,.32-1.28,.32l-.15-1.64s.65-.42,.85,.12,1.34,.33,1.16,.82-.72,1.04-.72,1.04c0,0-.77,.47-1.26,.25s-.67-.09-.49-.57,1.9-.35,1.9-.35Z"/><path d="M53.16,35.32c-.96-.49-1.07-.62-1.25-.37s-.03,.51,.04,.74,.82,.4,.82,.4c0,0,.4-.2,.53-.46s.84-.37,.63,.06,.65,1.13,.65,.57,.3-.88-.35-1.34-.82-1.01-1.28-.63,.38,.3,.02,.45,.18,.57,.18,.57Z"/><path d="M50.31,30.16c-.76-.29-.33-.6-1.08-.09s.04,.92,.15,.98,.08,.28,.32,.35,.65-.04,1.25-.42,1.15-.45,.85-1.01-.05-.55-.58-.81-.13-.12,.04-.53-.46-.64-.82-.29-.19,.67-.19,.67c0,0-.45,.68-.24,.76s.3,.39,.3,.39Z"/></g></g><g><g><g><path class="cls-1" d="M46.09,36.34l-6.31,.66-2.35-15.53c-.09-1.38,.96-2.58,2.35-2.67,1.39-.09,2.59,.95,2.69,2.33l3.62,15.21Z"/><path d="M39.41,37.47l-2.41-15.94c-.06-.82,.2-1.58,.72-2.17,.52-.59,1.24-.94,2.03-1,.79-.05,1.55,.2,2.14,.72,.6,.52,.95,1.23,1,2.02l3.72,15.62-7.22,.75Zm.55-18.25s-.1,0-.14,0c-.56,.04-1.07,.29-1.43,.7-.37,.42-.55,.95-.51,1.5l2.28,15.08,5.4-.56-3.51-14.73c-.05-.62-.3-1.13-.72-1.49-.38-.33-.87-.51-1.37-.51Z"/></g><g><ellipse class="cls-1" cx="43.03" cy="37.17" rx="3.23" ry="3.2" transform="translate(-2.38 2.94) rotate(-3.81)"/><path d="M43.02,40.81c-1.91,0-3.52-1.48-3.65-3.4-.06-.97,.26-1.91,.9-2.64,.64-.73,1.54-1.17,2.51-1.23,.98-.06,1.92,.25,2.65,.89,.74,.64,1.18,1.53,1.24,2.5s-.26,1.91-.9,2.64c-.64,.73-1.54,1.17-2.51,1.23-.08,0-.17,0-.25,0Zm.01-6.41c-.06,0-.13,0-.19,0-.74,.05-1.42,.38-1.92,.94-.49,.56-.73,1.27-.68,2.01,.1,1.52,1.43,2.68,2.97,2.58,.74-.05,1.42-.38,1.92-.94,.49-.56,.73-1.27,.68-2.01h0c-.05-.74-.38-1.41-.94-1.9-.51-.44-1.16-.68-1.83-.68Z"/></g></g><g><g><path class="cls-1" d="M37.9,19.01l2.24,13.86h0c.22,.38,.35,.82,.35,1.29,0,1.43-1.16,2.58-2.58,2.58H9.83c-1.43,0-2.58-1.16-2.58-2.58,0-.49,.13-.94,.37-1.33h0l1.91-13.82"/><path d="M37.9,37.18H9.83c-1.66,0-3.02-1.35-3.02-3.02,0-.52,.13-1.03,.38-1.48l1.9-13.74,.86,.12-1.97,13.99c-.2,.33-.31,.72-.31,1.11,0,1.18,.96,2.15,2.15,2.15h28.07c1.18,0,2.15-.96,2.15-2.15,0-.38-.1-.75-.29-1.07l-.05-.15-2.24-13.86,.86-.14,2.22,13.79c.24,.44,.36,.93,.36,1.44,0,1.66-1.35,3.02-3.02,3.02Z"/></g><path d="M37.9,37.18H9.83c-1.66,0-3.02-1.35-3.02-3.02s1.35-3.02,3.02-3.02h28.07v.87H9.83c-1.18,0-2.15,.96-2.15,2.15s.96,2.15,2.15,2.15h28.07c1.18,0,2.15-.96,2.15-2.15s-.96-2.15-2.15-2.15v-.87c1.66,0,3.02,1.35,3.02,3.02s-1.35,3.02-3.02,3.02Z"/><path d="M9.96,19.16h-.87c0-1.46,1.18-2.64,2.64-2.64h23.97v.87H11.73c-.98,0-1.77,.79-1.77,1.77Z"/><path d="M38.34,19.16h-.87c0-.98-.79-1.77-1.77-1.77v-.87c1.46,0,2.64,1.18,2.64,2.64Z"/><path d="M9.83,34.9c-.41,0-.74-.33-.74-.74s.33-.74,.74-.74,.74,.33,.74,.74-.33,.74-.74,.74Zm0-.87c-.07,0-.13,.06-.13,.13,0,.15,.27,.15,.27,0,0-.07-.06-.13-.13-.13Z"/><path d="M37.9,34.9c-.41,0-.74-.33-.74-.74s.33-.74,.74-.74,.74,.33,.74,.74-.33,.74-.74,.74Zm0-.87c-.07,0-.13,.06-.13,.13,0,.15,.27,.15,.27,0,0-.07-.06-.13-.13-.13Z"/></g><g><g><path class="cls-1" d="M46.09,29.77l-6.31,.66-2.35-15.53c-.09-1.38,.96-2.58,2.35-2.67s2.59,.95,2.69,2.33l3.62,15.21Z"/><path d="M39.41,30.91l-2.41-15.94c-.06-.82,.2-1.58,.72-2.17,.52-.59,1.24-.94,2.03-1,.79-.05,1.55,.2,2.14,.72,.6,.52,.95,1.23,1,2.02l3.72,15.62-7.22,.75Zm.55-18.25s-.1,0-.14,0c-.56,.04-1.07,.29-1.43,.7-.37,.42-.55,.95-.51,1.5l2.28,15.08,5.4-.56-3.51-14.73c-.05-.62-.3-1.13-.72-1.49-.38-.33-.87-.51-1.37-.51Z"/></g><g><ellipse class="cls-1" cx="43.03" cy="30.61" rx="3.23" ry="3.2" transform="translate(-1.94 2.93) rotate(-3.81)"/><path d="M43.02,34.24c-.88,0-1.73-.31-2.4-.9-.74-.64-1.18-1.53-1.24-2.5-.13-2,1.4-3.74,3.41-3.87,2.02-.13,3.76,1.39,3.89,3.39,.06,.97-.26,1.91-.9,2.64-.64,.73-1.54,1.17-2.51,1.23-.08,0-.17,0-.25,0Zm.01-6.41c-.06,0-.13,0-.19,0-1.54,.1-2.7,1.42-2.6,2.95,.05,.74,.38,1.41,.94,1.9,.56,.49,1.28,.73,2.02,.68,.74-.05,1.43-.38,1.92-.94,.49-.56,.73-1.27,.68-2.01h0c-.1-1.46-1.33-2.58-2.78-2.58Z"/></g></g></g><g><path d="M11.25,22.7c2.68-.46,6.4-.27,5.07,.4s3.06,.04,7.55-.13c4.49-.16,5.35,1.37,4.59,1.65s4.01-1.75,5.07-1.93,7.36,1.52,3.54,1.68-16.44,.35-16.44,.35c0,0,13.86-1.69,8.51-.99-5.35,.7-7.65-.08-13.48,.65-5.83,.73-11.09,2.07-5.83,.73,5.26-1.34,9.56-1.69-.67-1.37s-6.79-.73-3.92-.83,6.02-.21,6.02-.21Z"/><path d="M25.86,25.66c.43-.19,6.17-.19,6.88-.33s5.16-.43,1.19-.86-.67-1.1-5.16-.29-3.59,1.67-6.72,1.67,7.19-.57,.41-.96c-6.79-.38-6.4-.67-9.41,.14-3.01,.81-5.55,.91-3.78,1.15s1.77,.38,5.45,.24-.24,.14,5.21-.38l5.45-.53,.48,.14Z"/><path d="M12.4,21.31s.22-1.67,3.76-.62c3.53,1.05,4.3,2.2,7.93,1.1,3.63-1.1,9.37-1.67,10.56-1.62,1.19,.05,5.07,.59,3.2,1.03s-4.64,.96-5.07,1.04-.24-1.16-3.06-.69-.14,.19-5.5,.86c-5.35,.67-3.63,1.15-8.08,.67s-3.11,0-5.69-.67c-2.58-.67-1.77-1.48-3.78-1.05s-7.07,.72-2.87-.24c4.21-.96,4.92-.14,6.69-.14s1.89,.74,1.89,.74v-.41Z"/><path d="M25.14,26.95s7.99,.91,9.97,.62,4.04-.21,3.42-1.06c-.62-.85-4.14-.45-4.14-.45,0,0-.73,1.01-4.16,.6s-7.57-.66-7.57-.66c0,0-2.85,1.88-8.21,1.07-5.36-.81-3.36-.59-7.56-.85s-5.13-.61-5.32,.12-3.58,1.43,.23,1.71c3.81,.28,7.62-.15,7.62-.15,0,0,3.61-.35,7.35-.45s5.64,.21,6.25,.05,2.12-.56,2.12-.56Z"/></g></g></g></svg>