<?xml version="1.0" encoding="UTF-8"?><svg id="_레이어_2" xmlns="http://www.w3.org/2000/svg" viewBox="0 0 220.19 173.04"><defs><style>.cls-1{fill:#fff;}.cls-2{fill:#ccc;}</style></defs><g id="_레이어_1-2"><rect class="cls-2" x="80.86" y="156.04" width="63.11" height="17" rx="8.5" ry="8.5"/><rect class="cls-2" x="157.08" y="156.04" width="63.11" height="17" rx="8.5" ry="8.5"/><rect class="cls-2" x="0" y="156.04" width="63.11" height="17" rx="8.5" ry="8.5"/><rect class="cls-2" x="80.86" y="55.98" width="63.11" height="17" rx="8.5" ry="8.5"/><rect class="cls-2" x="157.08" y="55.98" width="63.11" height="17" rx="8.5" ry="8.5"/><rect x="0" y="55.98" width="63.11" height="17" rx="8.5" ry="8.5"/><g><path class="cls-1" d="M18.58,64.75h-7.35v-.69h2.78v-1.44h.88v1.44h3.69v.69Zm-.87,2.21c0,.87-.91,1.62-2.8,1.62s-2.78-.75-2.78-1.62,.91-1.61,2.78-1.61,2.8,.72,2.8,1.61Zm-.13-6.04c-.02,.66-.14,1.75-.26,2.58h-.86c.1-.58,.18-1.42,.21-1.89h-4.45v-.7h5.37Zm-2.67,5.1c-1.18,0-1.87,.42-1.87,.94,0,.54,.7,.97,1.87,.97s1.87-.41,1.87-.97c0-.53-.7-.94-1.87-.94Z"/><path class="cls-1" d="M25.94,64.26h-7.35v-.68h5.22c.08-.64,.18-1.52,.2-1.99h-4.44v-.7h5.36c0,.54-.14,1.87-.25,2.69h1.25v.68Zm-.98,4.13h-5.38v-3.42h.86v1.06h3.68v-1.06h.85v3.42Zm-.85-.66v-1.02h-3.68v1.02h3.68Z"/><path class="cls-1" d="M32.23,64.26h-3.65v-3.3h3.65v3.3Zm2.4,4.29c-1.08-.32-2.13-.88-2.6-1.57-.5,.74-1.73,1.33-2.6,1.57l-.46-.62c1.31-.36,2.18-.94,2.54-1.58h-2.22v-.67h2.31v-.85h.9v.85h2.29v.67h-2.21c.4,.76,1.5,1.33,2.54,1.58l-.46,.62Zm-3.25-4.94v-1.97h-1.95v1.97h1.95Zm2.33-2.92h.86v4.2h-.86v-4.2Z"/><path class="cls-1" d="M44.82,64.73v.7h-3.24v3.01h-.86v-3.01h-3.25v-.7h7.35Zm-2.14-.54c.13-.75,.24-1.8,.25-2.46h-4.42v-.69h5.34c-.02,1.17-.14,2.29-.29,3.14h-.88Z"/><path class="cls-1" d="M49.33,63.84c0,1.81-.76,2.76-2.08,2.76s-2.09-.95-2.09-2.76,.82-2.74,2.09-2.74,2.08,.91,2.08,2.74Zm-.85,0c0-1.27-.38-2.06-1.22-2.06s-1.24,.77-1.24,2.06,.4,2.06,1.24,2.06,1.22-.82,1.22-2.06Zm2.85,4.61h-.85v-7.75h.85v7.75Z"/></g><g><path class="cls-1" d="M112.56,67.25h-7.35v-.7h3.25v-1.57h.87v1.57h3.23v.7Zm-.92-2.09c-.97-.31-2.21-1.03-2.75-1.86-.51,.84-1.66,1.5-2.76,1.87l-.47-.62c1.16-.35,2.77-1.29,2.77-2.33v-.36h-2.25v-.69h5.44v.69h-2.25v.36c0,1.04,1.57,1.93,2.77,2.33l-.48,.6Z"/><path class="cls-1" d="M116.85,66.39h-3.67v-5.13h3.67v5.13Zm-.86-.68v-3.75h-1.96v3.75h1.96Zm2.31-5.02h.86v7.75h-.86v-7.75Z"/></g><g><path class="cls-1" d="M165.51,66.7v.65h-3.85v-.63l1.36-1.49c1.2-1.32,1.57-1.97,1.57-2.52s-.38-1.05-1.1-1.05c-.54,0-1.02,.31-1.42,.69l-.44-.52c.6-.56,1.22-.83,1.89-.83,1.16,0,1.87,.74,1.87,1.7,0,.86-.68,1.77-1.78,2.98l-.93,1.02h2.83Z"/><path class="cls-1" d="M170.21,66.74c-.67-.4-1.51-1.03-1.97-1.92-.43,.91-1.24,1.54-2.09,2.07l-.54-.58c1.18-.64,2.18-1.63,2.18-2.96v-.84h-1.81v-.7h1.81v-1.13h.87v1.13h1.8v.7h-1.8v.87c0,1.27,.93,2.22,1.97,2.72l-.42,.64Zm1.78-6.05v2.83h1.34v.71h-1.34v4.21h-.86v-7.75h.86Z"/><path class="cls-1" d="M182.57,64.73v.7h-3.24v3.01h-.86v-3.01h-3.25v-.7h7.35Zm-2.14-.54c.13-.75,.24-1.8,.25-2.46h-4.42v-.69h5.34c-.02,1.17-.14,2.29-.29,3.14h-.88Z"/><path class="cls-1" d="M187.09,63.84c0,1.81-.76,2.76-2.08,2.76s-2.09-.95-2.09-2.76,.82-2.74,2.09-2.74,2.08,.91,2.08,2.74Zm-.85,0c0-1.27-.38-2.06-1.22-2.06s-1.24,.77-1.24,2.06,.4,2.06,1.24,2.06,1.22-.82,1.22-2.06Zm2.85,4.61h-.85v-7.75h.85v7.75Z"/><path class="cls-1" d="M196.22,64.26h-3.65v-3.3h3.65v3.3Zm2.4,4.29c-1.08-.32-2.13-.88-2.6-1.57-.5,.74-1.73,1.33-2.6,1.57l-.46-.62c1.31-.36,2.18-.94,2.53-1.58h-2.22v-.67h2.31v-.85h.9v.85h2.29v.67h-2.21c.4,.76,1.5,1.33,2.53,1.58l-.46,.62Zm-3.25-4.94v-1.97h-1.95v1.97h1.95Zm2.33-2.92h.86v4.2h-.86v-4.2Z"/><path class="cls-1" d="M206.06,65.11c-.72-.25-1.63-.78-2.05-1.46-.39,.76-1.27,1.28-2.04,1.66l-.49-.54c1-.5,2.08-1.16,2.08-2.38v-1.44h.86v1.43c0,1.15,1.06,1.73,2.02,2.12l-.38,.6Zm2.21,3.21h-5.32v-2.58h.87v1.88h4.45v.7Zm-.18-2.1h-.86v-3.21h-1.5v-.69h1.5v-1.62h.86v5.52Z"/><path class="cls-1" d="M212.9,64.3h-3.61v-3.38h.85v1.12h1.92v-1.12h.84v3.38Zm-.84-.66v-.94h-1.92v.94h1.92Zm3.48,4.83h-5.36v-2.02h4.28v-.72h-4.28v-.66h5.17v2.01h-4.28v.74h4.47v.65Zm-2.29-6.9h1.25v-.89h.86v3.95h-.86v-.83h-1.25v-.66h1.25v-.91h-1.25v-.66Z"/></g><g><path class="cls-1" d="M28.82,164.35c-.69-.27-1.58-.82-2.01-1.47-.39,.74-1.23,1.24-2.01,1.62l-.48-.53c1.01-.48,2.04-1.11,2.04-2.33v-.17h-1.62v-.66h4.08v.66h-1.6v.16c0,1.17,1.01,1.69,1.96,2.07l-.36,.64Zm2.25,3.98h-5.37v-2.09h4.29v-.7h-4.29v-.66h5.17v2.02h-4.29v.78h4.49v.65Zm-.17-3.9h-.86v-1.67h-1.43v-.7h1.43v-1.52h.86v3.89Z"/><path class="cls-1" d="M36.38,164.43c-1.02,.1-1.9,.17-4.48,.17v-3.64h3.66v.67h-2.82v2.28c1.63,0,2.72-.05,3.64-.14v.66Zm1.62,3.74h-5.27v-2.7h.87v2.01h4.4v.7Zm-.26-7.63v1.77h1.24v.7h-1.24v3.13h-.86v-5.6h.86Z"/></g><g><path class="cls-1" d="M177.85,164.55h-3.73v-3.71h.85v1.25h2.03v-1.25h.85v3.71Zm2.21,3.78h-.86v-2.21h-4.33v-.68h5.19v2.89Zm-3.06-4.45v-1.12h-2.03v1.12h2.03Zm4.3-.97h-1.24v2.08h-.86v-4.45h.86v1.7h1.24v.68Z"/><path class="cls-1" d="M188.65,167.12h-7.35v-.7h7.35v.7Zm-3.21-5.25c0,1.2,1.7,2.31,2.8,2.65l-.52,.63c-.93-.35-2.2-1.18-2.72-2.06-.53,.9-1.62,1.67-2.72,2.07l-.52-.64c1.13-.37,2.76-1.46,2.76-2.65v-.97h.92v.97Z"/><path class="cls-1" d="M192.78,165.32v1.23h3.23v.7h-7.35v-.7h3.25v-1.23h.87Zm1.52-3.07l-.2,2h1.35v.68h-6.24v-.68h1.35l-.19-2h.87l.18,2h1.82l.17-2h.88Zm-4.91-.53v-.69h5.89v.69h-5.89Z"/><path class="cls-1" d="M200.4,164.72c-.66-.26-1.57-.82-2-1.46-.41,.74-1.21,1.24-2.01,1.63l-.49-.54c1.02-.5,2.04-1.11,2.04-2.32v-.42h-1.62v-.67h4.08v.67h-1.59v.42c0,1.16,1.02,1.69,1.97,2.06l-.38,.63Zm2,2.1c0,.97-.78,1.61-2.61,1.61s-2.61-.64-2.61-1.61,.78-1.63,2.61-1.63,2.61,.65,2.61,1.63Zm-.88,0c0-.62-.62-.98-1.72-.98s-1.74,.36-1.74,.98c0,.58,.62,.94,1.74,.94s1.72-.34,1.72-.94Zm1.95-3.9h-1.24v2.09h-.86v-4.49h.86v1.71h1.24v.68Z"/></g><g><path class="cls-1" d="M109.21,165.32v1.23h3.23v.7h-7.35v-.7h3.25v-1.23h.87Zm1.52-3.07l-.2,2h1.35v.68h-6.24v-.68h1.35l-.19-2h.87l.18,2h1.82l.17-2h.88Zm-4.91-.53v-.69h5.89v.69h-5.89Z"/><path class="cls-1" d="M116.82,164.72c-.66-.26-1.57-.82-2-1.46-.41,.74-1.21,1.24-2.01,1.63l-.49-.54c1.02-.5,2.04-1.11,2.04-2.32v-.42h-1.62v-.67h4.08v.67h-1.59v.42c0,1.16,1.02,1.69,1.97,2.06l-.38,.63Zm2,2.1c0,.97-.78,1.61-2.61,1.61s-2.61-.64-2.61-1.61,.78-1.63,2.61-1.63,2.61,.65,2.61,1.63Zm-.88,0c0-.62-.62-.98-1.72-.98s-1.74,.36-1.74,.98c0,.58,.62,.94,1.74,.94s1.72-.34,1.72-.94Zm1.95-3.9h-1.24v2.09h-.86v-4.49h.86v1.71h1.24v.68Z"/></g><g><g><g><path class="cls-1" d="M57.16,36.22l-7.25,.75-2.7-17.84c-.11-1.59,1.1-2.96,2.7-3.06s2.98,1.09,3.08,2.68l4.16,17.47Z"/><path d="M49.49,37.52l-2.77-18.31c-.06-.94,.23-1.81,.83-2.49,.6-.68,1.43-1.08,2.33-1.15,.91-.06,1.78,.23,2.46,.83,.68,.59,1.09,1.42,1.15,2.32l4.28,17.94-8.29,.86Zm.63-20.96c-.05,0-.11,0-.16,0-.64,.04-1.23,.33-1.65,.81-.42,.48-.63,1.09-.59,1.72l2.62,17.32,6.21-.64-4.03-16.92c-.05-.72-.34-1.29-.82-1.71-.44-.38-1-.59-1.58-.59Z"/></g><g><ellipse class="cls-1" cx="53.64" cy="37.18" rx="3.7" ry="3.68" transform="translate(-2.35 3.65) rotate(-3.81)"/><path d="M53.63,41.35c-2.19,0-4.04-1.7-4.19-3.9-.07-1.11,.29-2.19,1.03-3.03,.74-.84,1.76-1.34,2.88-1.42,1.12-.07,2.2,.29,3.05,1.02,.85,.74,1.35,1.75,1.43,2.87s-.29,2.19-1.03,3.03c-.74,.84-1.76,1.34-2.88,1.42-.1,0-.19,0-.28,0Zm.02-7.36c-.07,0-.15,0-.22,0-.85,.06-1.64,.44-2.2,1.08-.56,.64-.84,1.46-.79,2.3,.12,1.75,1.64,3.08,3.41,2.96,.85-.06,1.64-.44,2.2-1.08,.56-.64,.84-1.46,.79-2.3h0c-.06-.85-.44-1.62-1.08-2.18-.59-.51-1.33-.79-2.1-.79Z"/></g></g><g><g><path class="cls-1" d="M47.75,16.32l2.57,15.92h0c.25,.44,.4,.94,.4,1.48,0,1.64-1.33,2.97-2.97,2.97H15.52c-1.64,0-2.97-1.33-2.97-2.97,0-.56,.15-1.08,.42-1.53h0l2.19-15.87"/><path d="M47.76,37.19H15.52c-1.91,0-3.47-1.55-3.47-3.47,0-.59,.15-1.18,.44-1.69l2.18-15.78,.99,.14-2.26,16.06c-.23,.38-.35,.82-.35,1.27,0,1.36,1.11,2.47,2.47,2.47H47.76c1.36,0,2.47-1.11,2.47-2.47,0-.43-.11-.86-.33-1.23l-.06-.17-2.57-15.92,.99-.16,2.55,15.83c.27,.5,.42,1.07,.42,1.65,0,1.91-1.55,3.47-3.47,3.47Z"/></g><path d="M47.76,37.19H15.52c-1.91,0-3.47-1.55-3.47-3.47s1.55-3.47,3.47-3.47H47.75v1H15.52c-1.36,0-2.47,1.11-2.47,2.47s1.11,2.47,2.47,2.47H47.76c1.36,0,2.47-1.11,2.47-2.47s-1.11-2.47-2.47-2.47v-1c1.91,0,3.47,1.55,3.47,3.47s-1.55,3.47-3.47,3.47Z"/><path d="M15.67,16.49h-1c0-1.67,1.36-3.03,3.03-3.03h27.52v1H17.7c-1.12,0-2.03,.91-2.03,2.03Z"/><path d="M48.26,16.49h-1c0-1.12-.91-2.03-2.03-2.03v-1c1.67,0,3.03,1.36,3.03,3.03Z"/><path d="M15.52,34.57c-.47,0-.85-.38-.85-.85s.38-.85,.85-.85,.85,.38,.85,.85-.38,.85-.85,.85Zm0-1c-.08,0-.15,.07-.15,.15,0,.17,.31,.17,.31,0,0-.08-.07-.15-.15-.15Z"/><path d="M47.76,34.57c-.47,0-.85-.38-.85-.85s.38-.85,.85-.85,.85,.38,.85,.85-.38,.85-.85,.85Zm0-1c-.08,0-.15,.07-.15,.15,0,.17,.31,.17,.31,0,0-.08-.07-.15-.15-.15Z"/></g><g><g><path class="cls-1" d="M57.16,28.68l-7.25,.75-2.7-17.84c-.11-1.59,1.1-2.96,2.7-3.06s2.98,1.09,3.08,2.68l4.16,17.47Z"/><path d="M49.49,29.98l-2.77-18.31c-.06-.94,.23-1.81,.83-2.49,.6-.68,1.43-1.08,2.33-1.15,.9-.05,1.78,.23,2.46,.83,.68,.59,1.09,1.42,1.15,2.32l4.28,17.94-8.29,.86Zm.63-20.96c-.05,0-.11,0-.16,0-.64,.04-1.23,.33-1.65,.81-.42,.48-.63,1.09-.59,1.72l2.62,17.32,6.21-.64-4.03-16.92c-.05-.72-.34-1.29-.82-1.71-.44-.38-1-.59-1.58-.59Z"/></g><g><ellipse class="cls-1" cx="53.64" cy="29.64" rx="3.7" ry="3.68" transform="translate(-1.85 3.63) rotate(-3.81)"/><path d="M53.63,33.81c-1.02,0-1.99-.36-2.76-1.03-.85-.74-1.35-1.75-1.43-2.87-.15-2.3,1.6-4.29,3.92-4.45,2.32-.14,4.32,1.59,4.47,3.89,.07,1.11-.29,2.19-1.03,3.03-.74,.84-1.76,1.34-2.88,1.42-.1,0-.19,0-.29,0Zm.02-7.36c-.07,0-.14,0-.22,0-1.76,.12-3.1,1.63-2.99,3.38,.06,.85,.44,1.62,1.08,2.18,.64,.56,1.47,.83,2.32,.78,.85-.06,1.64-.44,2.2-1.08,.56-.64,.84-1.46,.79-2.3h0c-.11-1.68-1.52-2.96-3.19-2.96Z"/></g></g><path d="M43.92,18.05l1.01,8.21H27.64l.7-8.21h15.57m.88-1H27.43l-.88,10.21h19.5l-1.25-10.21h0Z"/><polygon points="25.27 27.26 5.77 27.26 8.29 17.05 26.14 17.05 25.27 27.26"/></g><g><path d="M129.2,41.35h-33.57c-2,0-3.63-1.63-3.63-3.63s1.63-3.63,3.63-3.63h33.57c2,0,3.63,1.63,3.63,3.63s-1.63,3.63-3.63,3.63Zm-33.57-6.27c-1.45,0-2.63,1.18-2.63,2.63s1.18,2.63,2.63,2.63h33.57c1.45,0,2.63-1.18,2.63-2.63s-1.18-2.63-2.63-2.63h-33.57Z"/><path d="M95.63,38.68c-.53,0-.96-.43-.96-.96s.43-.96,.96-.96,.96,.43,.96,.96-.43,.96-.96,.96Zm-.04-.96s.02,.04,.04,.04l-.04-.04Z"/><path d="M129.2,38.7c-.53,0-.96-.43-.96-.96s.43-.96,.96-.96,.96,.43,.96,.96-.43,.96-.96,.96Zm-.04-.96s.02,.04,.04,.04l-.04-.04Z"/><path d="M115.83,16.83h-6.82v-1.87l-2.96-2.96h-1.28v-3.14h15.31v3.14h-1.28l-2.96,2.96v1.87Zm-5.82-1h4.82v-1.28l3.55-3.55h.7v-1.14h-13.31v1.14h.7l3.55,3.55v1.28Z"/><path d="M112.42,25.56c-1.17,0-2.12-.95-2.12-2.12,0-1,1.43-3.13,1.71-3.54l.41-.6,.41,.6c.29,.42,1.71,2.54,1.71,3.54,0,1.17-.95,2.12-2.12,2.12Zm0-4.47c-.6,.95-1.12,1.98-1.12,2.35,0,.62,.5,1.12,1.12,1.12s1.12-.5,1.12-1.12c0-.37-.53-1.4-1.12-2.35Z"/><g><rect x="87.51" y="31.22" width="23.69" height="1.53"/><rect x="113.64" y="31.22" width="23.69" height="1.53"/></g></g><g><path d="M204.75,41.35h-32.24c-1.91,0-3.47-1.55-3.47-3.47,0-.59,.15-1.18,.44-1.69l2.18-15.78,.99,.14-2.26,16.06c-.23,.38-.35,.82-.35,1.27,0,1.36,1.11,2.47,2.47,2.47h32.24c1.36,0,2.47-1.11,2.47-2.47,0-.43-.11-.86-.33-1.23l-.06-.17-2.57-15.92,.99-.16,2.55,15.83c.27,.5,.42,1.07,.42,1.65,0,1.91-1.55,3.47-3.47,3.47Z"/><path d="M204.75,41.35h-32.24c-1.91,0-3.47-1.55-3.47-3.47s1.55-3.47,3.47-3.47h32.24c1.91,0,3.47,1.55,3.47,3.47s-1.55,3.47-3.47,3.47Zm-32.24-5.93c-1.36,0-2.47,1.11-2.47,2.47s1.11,2.47,2.47,2.47h32.24c1.36,0,2.47-1.11,2.47-2.47s-1.11-2.47-2.47-2.47h-32.24Z"/><path d="M172.67,20.66h-1c0-1.67,1.36-3.03,3.03-3.03h27.52v1h-27.52c-1.12,0-2.03,.91-2.03,2.03Z"/><path d="M205.25,20.66h-1c0-1.12-.91-2.03-2.03-2.03v-1c1.67,0,3.03,1.36,3.03,3.03Z"/><path d="M172.51,38.74c-.47,0-.85-.38-.85-.85s.38-.85,.85-.85,.85,.38,.85,.85-.38,.85-.85,.85Zm0-1c-.08,0-.15,.07-.15,.15,0,.17,.3,.17,.3,0,0-.08-.07-.15-.15-.15Z"/><path d="M204.75,38.74c-.47,0-.85-.38-.85-.85s.38-.85,.85-.85,.85,.38,.85,.85-.38,.85-.85,.85Zm0-1c-.08,0-.15,.07-.15,.15,0,.17,.3,.17,.3,0,0-.08-.07-.15-.15-.15Z"/></g><polygon points="198.38 31.42 178.89 31.42 179.76 21.22 197.13 21.22 198.38 31.42"/><g><path d="M181.69,9.67c-.63-.21-1.37-.53-1.51-1.16-.14-.61,.36-1.09,.75-1.48,.16-.15,.45-.44,.47-.56h0s-.15-.19-.91-.44l.31-.95c.98,.32,1.46,.68,1.58,1.18,.14,.61-.35,1.1-.75,1.49-.16,.16-.45,.44-.48,.56h0s.14,.18,.85,.42l-.32,.95Z"/><path d="M186.13,9.67c-.63-.21-1.37-.53-1.51-1.16-.14-.61,.36-1.09,.75-1.48,.16-.15,.45-.44,.48-.56,0,0-.11-.18-.91-.44l.31-.95c.98,.32,1.46,.68,1.58,1.18,.14,.61-.35,1.1-.75,1.49-.16,.15-.45,.44-.48,.56,0,0,.11,.17,.85,.42l-.32,.95Z"/><path d="M190.57,9.67c-.63-.21-1.37-.53-1.51-1.16-.14-.61,.36-1.09,.75-1.48,.16-.15,.45-.44,.48-.56,0,0-.11-.18-.91-.44l.31-.95c.98,.32,1.46,.68,1.58,1.18,.14,.61-.35,1.1-.75,1.49-.16,.16-.45,.44-.48,.56h0s.14,.18,.85,.42l-.32,.95Z"/><path d="M195,9.67c-.63-.21-1.37-.53-1.51-1.16-.14-.61,.36-1.09,.75-1.48,.16-.15,.45-.44,.47-.56h0s-.15-.19-.91-.44l.31-.95c.98,.32,1.46,.68,1.58,1.18,.14,.61-.35,1.1-.75,1.49-.16,.16-.45,.44-.48,.56h0s.14,.18,.85,.42l-.32,.95Z"/></g><g><path d="M25.47,4.59c-.63-.21-1.37-.53-1.51-1.16-.14-.61,.36-1.09,.75-1.48,.16-.15,.45-.44,.47-.56h0s-.15-.19-.91-.44l.31-.95c.98,.32,1.46,.68,1.58,1.18,.14,.61-.35,1.1-.75,1.49-.16,.16-.45,.44-.48,.56h0s.14,.18,.85,.42l-.32,.95Z"/><path d="M29.91,4.59c-.63-.21-1.37-.53-1.51-1.16-.14-.61,.36-1.09,.75-1.48,.16-.15,.45-.44,.48-.56,0,0-.11-.18-.91-.44l.31-.95c.98,.32,1.46,.68,1.58,1.18,.14,.61-.35,1.1-.75,1.49-.16,.15-.45,.44-.48,.56,0,0,.11,.17,.85,.42l-.32,.95Z"/><path d="M34.34,4.59c-.63-.21-1.37-.53-1.51-1.16-.14-.61,.36-1.09,.75-1.48,.16-.15,.45-.44,.48-.56,0,0-.11-.18-.91-.44l.31-.95c.98,.32,1.46,.68,1.58,1.18,.14,.61-.35,1.1-.75,1.49-.16,.16-.45,.44-.48,.56h0s.14,.18,.85,.42l-.32,.95Z"/><path d="M38.78,4.59c-.63-.21-1.37-.53-1.51-1.16-.14-.61,.36-1.09,.75-1.48,.16-.15,.45-.44,.47-.56h0s-.15-.19-.91-.44l.31-.95c.98,.32,1.46,.68,1.58,1.18,.14,.61-.35,1.1-.75,1.49-.16,.16-.45,.44-.48,.56h0s.14,.18,.85,.42l-.32,.95Z"/></g><g><polygon points="52.85 134.46 49.33 119.61 13.59 119.61 10.27 134.45 9.29 134.24 12.78 118.61 50.12 118.61 53.82 134.23 52.85 134.46"/><polygon points="19.27 131.91 22.21 121.54 16.01 121.54 14.4 131.91 19.27 131.91"/><polygon points="42.59 131.91 39.71 121.54 34.7 121.54 36.08 131.91 42.59 131.91"/><polygon points="20.36 131.91 23.24 121.54 28.26 121.54 26.87 131.91 20.36 131.91"/><polygon points="48.71 131.91 46.95 121.54 40.7 121.54 43.6 131.91 48.71 131.91"/><polygon points="35.07 131.91 33.99 121.54 29.12 121.54 27.9 131.91 35.07 131.91"/><path d="M53.83,137.87H9.28v-4.03H53.83v4.03Zm-43.56-1H52.83v-2.03H10.28v2.03Z"/></g><g><g><path d="M198.12,142.07h-19.01v-9.85l-8.89,2.4,4.34-6.74,8.46-2.28,.54,.74-3.05,4.73h16.19l-3.02-4.74,.55-.74,8.46,2.28,4.34,6.74-8.92-2.41v9.86Zm-18.01-1h17.01s0-9,0-9h-17.01v9Zm17.82-9.95l6.87,1.85-2.73-4.24-6.83-1.84,2.69,4.23Zm-22.74-2.39l-2.73,4.24,6.82-1.84,2.73-4.24-6.82,1.84Z"/><polygon points="191.71 116.24 190.98 115.55 194.46 111.89 194.46 108.74 182.81 108.74 182.81 111.89 186.29 115.55 185.56 116.24 181.81 112.29 181.81 107.74 195.46 107.74 195.46 112.29 191.71 116.24"/><polygon points="183.39 124.06 180.05 123.12 181.25 118.43 185.8 115.66 186.32 116.51 182.12 119.07 181.26 122.42 183.66 123.1 183.39 124.06"/><polygon points="193.9 124.05 193.63 123.09 196.01 122.42 195.15 119.07 190.95 116.51 191.47 115.66 196.02 118.43 197.22 123.12 193.9 124.05"/><path d="M188.63,118.25c-1.83,0-3.32-1.49-3.32-3.32s1.49-3.32,3.32-3.32,3.32,1.49,3.32,3.32-1.49,3.32-3.32,3.32Zm0-5.65c-1.28,0-2.32,1.04-2.32,2.32s1.04,2.32,2.32,2.32,2.32-1.04,2.32-2.32-1.04-2.32-2.32-2.32Z"/><path d="M188.63,115.8c-.48,0-.88-.39-.88-.88s.39-.88,.88-.88,.88,.39,.88,.88-.39,.88-.88,.88Zm0-1c-.07,0-.12,.05-.12,.12,0,.13,.24,.13,.24,0,0-.07-.05-.12-.12-.12Z"/><rect x="181.64" y="137.79" width="1.76" height="1.76"/><rect x="184.93" y="137.79" width="1.76" height="1.76"/><rect x="179.61" y="131.07" width="18.05" height="1"/></g><rect x="182.83" y="125.67" width="11.61" height="1"/></g><g><g><path d="M132.54,138.76h-40.24c-1.91,0-3.47-1.55-3.47-3.47,0-.59,.15-1.18,.44-1.69l2.18-15.78,.99,.14-2.26,16.06c-.23,.38-.35,.82-.35,1.27,0,1.36,1.11,2.47,2.47,2.47h40.24c1.36,0,2.47-1.11,2.47-2.47,0-.43-.11-.86-.33-1.23l-.06-.17-2.57-15.92,.99-.16,2.55,15.83c.27,.5,.42,1.07,.42,1.65,0,1.91-1.55,3.47-3.47,3.47Z"/><path d="M132.54,138.76h-40.24c-1.91,0-3.47-1.55-3.47-3.47s1.55-3.47,3.47-3.47h40.24c1.91,0,3.47,1.55,3.47,3.47s-1.55,3.47-3.47,3.47Zm-40.24-5.93c-1.36,0-2.47,1.11-2.47,2.47s1.11,2.47,2.47,2.47h40.24c1.36,0,2.47-1.11,2.47-2.47s-1.11-2.47-2.47-2.47h-40.24Z"/><path d="M92.45,118.07h-1c0-1.67,1.36-3.03,3.03-3.03h35.52v1h-35.52c-1.12,0-2.03,.91-2.03,2.03Z"/><path d="M133.04,118.07h-1c0-1.12-.91-2.03-2.03-2.03v-1c1.67,0,3.03,1.36,3.03,3.03Z"/><path d="M92.3,136.14c-.47,0-.85-.38-.85-.85s.38-.85,.85-.85,.85,.38,.85,.85-.38,.85-.85,.85Zm0-1c-.08,0-.15,.07-.15,.15,0,.17,.3,.17,.3,0,0-.08-.07-.15-.15-.15Z"/><path d="M132.54,136.14c-.47,0-.85-.38-.85-.85s.38-.85,.85-.85,.85,.38,.85,.85-.38,.85-.85,.85Zm0-1c-.08,0-.15,.07-.15,.15,0,.17,.3,.17,.3,0,0-.08-.07-.15-.15-.15Z"/></g><g><g><path d="M110.57,128.16h-12.41c-.14,0-.27-.05-.36-.15s-.15-.23-.14-.36l.11-3.25c0-.27,.23-.48,.5-.48h12.3c.28,0,.5,.22,.5,.5v3.25c0,.28-.22,.5-.5,.5Zm-11.89-1h11.39v-2.25h-11.31l-.08,2.25Z"/><g><polygon class="cls-1" points="98.27 124.42 98.81 120.25 109.65 120.25 110.57 124.42 98.27 124.42"/><path d="M110.57,124.92h-12.3c-.14,0-.28-.06-.38-.17-.09-.11-.14-.25-.12-.39l.54-4.17c.03-.25,.24-.44,.5-.44h10.84c.23,0,.44,.16,.49,.39l.91,4.17c.03,.15,0,.3-.1,.42-.1,.12-.24,.19-.39,.19Zm-11.73-1h11.11l-.69-3.17h-10l-.41,3.17Z"/></g></g><g><path d="M126.67,128.16h-12.41c-.14,0-.27-.05-.36-.15s-.15-.23-.14-.36l.11-3.25c0-.27,.23-.48,.5-.48h12.3c.28,0,.5,.22,.5,.5v3.25c0,.28-.22,.5-.5,.5Zm-11.89-1h11.39v-2.25h-11.31l-.08,2.25Z"/><g><polygon class="cls-1" points="114.38 124.42 114.92 120.25 125.76 120.25 126.67 124.42 114.38 124.42"/><path d="M126.67,124.92h-12.3c-.14,0-.28-.06-.38-.17-.1-.11-.14-.25-.12-.39l.54-4.17c.03-.25,.24-.44,.5-.44h10.84c.23,0,.44,.16,.49,.39l.91,4.17c.03,.15,0,.3-.1,.42-.1,.12-.24,.19-.39,.19Zm-11.73-1h11.11l-.69-3.17h-10l-.41,3.17Z"/></g></g></g></g></g></svg>