<?xml version="1.0" encoding="UTF-8"?><svg id="_레이어_2" xmlns="http://www.w3.org/2000/svg" viewBox="0 0 72.77 15.8"><g id="_레이어_1-2"><g><path d="M7.62,11.73c-1.18-.75-2.43-2.18-2.98-3.43-.62,1.41-2.18,2.91-3.67,3.75l-.98-1.12c2.5-1.46,3.73-3.62,3.73-5.59V2.61H.86V1.23h7.33v1.38h-2.75v2.74c0,2.1,1.02,3.95,3.07,5.19l-.9,1.2Zm6.64,3.78h-1.68V6.8h-1.86V15.03h-1.67V.1h1.67V5.33h1.86V0h1.68V15.51Z"/><path d="M22.6,11.4c-1.99,.27-4.18,.29-6.55,.29V5.49h3.97V2.35h-4V.99h5.68V6.85h-3.97v3.41c1.3,0,2.48,0,4.87-.21v1.34Zm6.02,4.11h-1.68V6.9h-1.7V15.03h-1.68V.1h1.68V5.46h1.7V0h1.68V15.51Z"/><path d="M38.32,.75c-.16,4.82-3.75,6.83-7.11,7.97l-.86-1.18c3.04-1.06,5.91-2.69,6.16-5.44h-5.28V.75h7.09Zm4.67,14.68h-10.23v-5.95h10.23v5.95Zm-1.7-1.33v-3.25h-6.82v3.25h6.82Zm1.7-5.49h-1.71V0h1.71V8.61Z"/><path d="M59.33,8.13h-14.71v-1.38h5.57V3.87h1.76v2.88h7.38v1.38Zm-1.74,4.42c0,1.74-1.83,3.25-5.6,3.25s-5.57-1.5-5.57-3.25,1.82-3.22,5.57-3.22,5.6,1.44,5.6,3.22Zm-.26-12.1c-.03,1.31-.29,3.5-.53,5.17h-1.73c.19-1.17,.37-2.83,.42-3.78h-8.9V.45h10.74Zm-5.35,10.21c-2.35,0-3.75,.85-3.75,1.87,0,1.09,1.39,1.94,3.75,1.94s3.75-.82,3.75-1.94c0-1.06-1.39-1.87-3.75-1.87Z"/><path d="M68.45,8.42c-1.38-.51-3.17-1.58-4.03-2.88-.78,1.49-2.46,2.46-4.02,3.25l-.96-1.06c2.02-.99,4.08-2.21,4.08-4.66v-.93h-3.23V.8h8.16v1.34h-3.2v.91c0,2.32,2.03,3.41,3.95,4.13l-.75,1.23Zm4.32,4.16c0,1.94-1.65,3.22-5.31,3.22s-5.31-1.31-5.31-3.22,1.63-3.22,5.31-3.22,5.31,1.31,5.31,3.22Zm-1.81,.02c0-1.22-1.31-1.9-3.47-1.9s-3.55,.7-3.55,1.9c0,1.12,1.3,1.89,3.55,1.89s3.47-.75,3.47-1.89Zm1.66-3.51h-1.71V4.98h-2.87v-1.38h2.87V0h1.71V9.09Z"/></g></g></svg>