<?xml version="1.0" encoding="UTF-8"?><svg id="_레이어_2" xmlns="http://www.w3.org/2000/svg" viewBox="0 0 311.83 119.25"><defs><style>.cls-1{fill:#fff;}.cls-2{stroke:#c71126;stroke-linecap:round;}.cls-2,.cls-3{fill:none;stroke-miterlimit:10;}.cls-3{stroke:#fff;stroke-width:.5px;}</style></defs><g id="_레이어_1-2"><g><g><path class="cls-1" d="M20.66,1.45c-.16,3.36-2.6,4.76-4.75,5.54l-.36-.56c2.18-.79,4.13-2.08,4.32-4.34h-3.79v-.64h4.59Zm3.35,10.4h-6.84V7.71h6.84v4.14Zm-.73-.62v-2.89h-5.38v2.89h5.38Zm.73-4.17h-.74V.91h.74V7.05Z"/><path class="cls-1" d="M31.52,1.27c1.71,0,2.79,1.25,2.79,2.71s-1.05,2.71-2.79,2.71-2.79-1.25-2.79-2.71,1.07-2.71,2.79-2.71Zm0,.66c-1.44,0-2.01,.97-2.01,2.05s.64,2.05,2.01,2.05,2-.98,2-2.05-.58-2.05-2-2.05Zm5.99,9.79h-7.13v-3.63h.74v2.99h6.39v.65Zm-2.93-6.64h1.93V2.89h-1.93v-.64h1.93V.91h.74v7.83h-.74v-3.03h-1.93v-.64Z"/><path class="cls-1" d="M48.49,6.99v.65h-4.68v4.28h-.75V7.64h-4.65v-.65h10.08Zm-2.62-1.04c.2-1.08,.39-2.9,.39-3.85h-6.48v-.65h7.26c-.01,1.7-.22,3.32-.42,4.5h-.74Z"/><path class="cls-1" d="M52.8,1.82c-.02,3.79-1.42,5.86-3.78,7.57l-.58-.47c2.11-1.52,3.58-3.37,3.58-6.46h-3.08v-.63h3.86Zm4.74,10.09h-.72V5.54h-1.83v6h-.73V.97h.73v3.87h1.83V.91h.72V11.9Z"/><path class="cls-1" d="M63.7,5.97h-4.8V1.25h.72v1.75h3.36V1.25h.72V5.97Zm-.72-.62v-1.73h-3.36v1.73h3.36Zm4.23,6.62h-7.09v-2.72h6.05v-1.54h-6.05v-.59h6.82v2.7h-6.07v1.55h6.34v.6Zm1.49-8.26h-1.78v2.82h-.75V.91h.75V3.05h1.78v.65Z"/><path class="cls-1" d="M69.48,10.06h1.07v.96c0,.28-.02,.38-.07,.56-.17,.56-.51,.97-.93,1.27l-.19-.18c.35-.3,.75-.8,.73-1.54h-.61v-1.08Z"/><path class="cls-1" d="M80.27,6.99c-1-.42-2.34-1.21-2.88-2.41-.54,1.38-1.72,2.11-2.81,2.69l-.47-.53c1.44-.71,2.91-1.69,2.91-3.53V1.41h.75v1.79c0,1.8,1.48,2.65,2.83,3.21l-.33,.58Zm3.05,4.73h-7.13v-3.48h.74v2.83h6.39v.65Zm-.26-3.08h-.75V.91h.75v7.72Z"/><path class="cls-1" d="M89.26,9.1c-.96-.61-1.96-1.7-2.33-2.81-.35,1.16-1.46,2.38-2.53,3.06l-.48-.52c1.76-1.06,2.64-2.69,2.64-4.15V2.45h-2.04v-.63h4.83v.63h-2.05v2.24c0,1.5,.84,2.96,2.36,3.85l-.41,.55Zm2.2,2.43h-.72V5.18h-1.95v-.68h1.95V.97h.72V11.53Zm2.11,.37h-.72V.91h.72V11.9Z"/><path class="cls-1" d="M104.46,6.96h-4.68v1.48h3.26v3.41h-7.24v-3.41h3.21v-1.48h-4.64v-.65h10.08v.65Zm-9.09-1.88v-.67h1.73l-.19-1.99h.74l.18,1.99h3.19l.16-1.99h.75l-.18,1.99h1.69v.67h-8.08Zm.27-3.24v-.64h7.54v.64h-7.54Zm6.68,9.38v-2.17h-5.79v2.17h5.79Z"/><path class="cls-1" d="M113.47,9.18c-.93-.54-2.11-1.49-2.78-3.06-.62,1.59-1.72,2.55-2.91,3.33l-.47-.55c1.65-.96,2.98-2.41,2.98-4.4V2.39h-2.4v-.64h5.58v.64h-2.41v2.12c0,1.89,1.34,3.35,2.81,4.07l-.4,.6Zm4.31-3.68h-1.93v6.4h-.74V.91h.74v3.93h1.93v.66Z"/><path class="cls-1" d="M122.56,9.31c-1-.64-1.94-1.77-2.31-2.84-.28,1.09-1.34,2.36-2.48,3.07l-.48-.49c1.76-1.08,2.6-2.65,2.6-4.11v-1.52h-2.24v-.64h2.24V1.11h.76v1.67h2.22v.64h-2.22v1.44c0,1.54,.81,3.05,2.33,3.95l-.42,.52Zm2.2,2.22h-.72V5.82h-1.95v-.68h1.95V.97h.72V11.53Zm2.08,.37h-.72V.91h.72V11.9Z"/><path class="cls-1" d="M133.83,1.27c1.71,0,2.79,1.25,2.79,2.71s-1.05,2.71-2.79,2.71-2.79-1.25-2.79-2.71,1.07-2.71,2.79-2.71Zm0,.66c-1.44,0-2.01,.97-2.01,2.05s.64,2.05,2.01,2.05,2-.98,2-2.05-.58-2.05-2-2.05Zm5.99,9.79h-7.13v-3.63h.74v2.99h6.39v.65Zm-2.93-6.64h1.93V2.89h-1.93v-.64h1.93V.91h.74v7.83h-.74v-3.03h-1.93v-.64Z"/><path class="cls-1" d="M150.8,6.99v.65h-4.68v4.28h-.75V7.64h-4.65v-.65h10.08Zm-2.62-1.04c.2-1.08,.39-2.9,.39-3.85h-6.48v-.65h7.26c-.01,1.7-.22,3.32-.42,4.5h-.74Z"/><path class="cls-1" d="M155.11,1.82c-.02,3.79-1.42,5.86-3.78,7.57l-.58-.47c2.11-1.52,3.58-3.37,3.58-6.46h-3.08v-.63h3.86Zm4.74,10.09h-.72V5.54h-1.83v6h-.73V.97h.73v3.87h1.83V.91h.72V11.9Z"/><path class="cls-1" d="M166.01,5.97h-4.8V1.25h.72v1.75h3.36V1.25h.72V5.97Zm-.72-.62v-1.73h-3.36v1.73h3.36Zm4.23,6.62h-7.09v-2.72h6.05v-1.54h-6.05v-.59h6.82v2.7h-6.07v1.55h6.34v.6Zm1.49-8.26h-1.78v2.82h-.75V.91h.75V3.05h1.78v.65Z"/><path class="cls-1" d="M177.08,5.34c0,2.51-1,3.84-2.75,3.84-1.66,0-2.76-1.33-2.76-3.84s1.11-3.85,2.76-3.85c1.74,0,2.75,1.28,2.75,3.85Zm-.73-.01c0-1.97-.64-3.19-2.01-3.19s-2.04,1.19-2.04,3.19,.67,3.2,2.04,3.2,2.01-1.26,2.01-3.2Zm3.59,6.57h-.74V.91h.74V11.9Z"/><path class="cls-1" d="M189.23,1.76c-.04,4.23-1.94,6.37-4.56,7.81l-.48-.58c2.91-1.57,4.25-3.68,4.26-6.6h-3.96v-.64h4.75Zm3.19-.85V5.12h1.93v.66h-1.93v6.13h-.75V.91h.75Z"/><path class="cls-1" d="M204.31,5.94v.66h-10.08v-.66h10.08Zm-1.32,4.04c0,1.18-1.16,2.12-3.72,2.12s-3.72-.95-3.72-2.12,1.19-2.11,3.72-2.11,3.72,.91,3.72,2.11Zm-7.28-5.46V.99h.73V3.89h6.63v.64h-7.36Zm3.56,3.92c-1.85,0-2.93,.66-2.93,1.52s1.08,1.56,2.93,1.56,2.94-.65,2.94-1.56-1.11-1.52-2.94-1.52Z"/><path class="cls-1" d="M210.62,2.59h-6.39v-.6h2.8V.69h.79V1.99h2.8v.6Zm-3.2,4.38c-1.55,0-2.58-.88-2.58-1.92s1.02-1.83,2.6-1.83,2.56,.82,2.56,1.83-.98,1.92-2.59,1.92Zm-1.85-1.93c0,.71,.73,1.34,1.87,1.34s1.83-.61,1.83-1.34c0-.68-.68-1.25-1.83-1.25s-1.87,.56-1.87,1.25Zm7.19,6.81h-6.72V7.71h.73v1.38h5.26v-1.38h.73v4.14Zm-.73-.64v-1.5h-5.26v1.5h5.26Zm2.49-6.78h-1.78v2.48h-.74V.91h.74V3.77h1.78v.66Z"/><path class="cls-1" d="M221.45,8.52c-1.85,.28-4.19,.26-6.02,.26V1.49h.74v6.63c2.05,0,3.72-.05,5.28-.22v.61Zm1.87,3.38h-.75V.91h.75V11.9Z"/><path class="cls-1" d="M231.11,8.61c-1.81,.26-3.96,.25-6.16,.25V1.76h5.05v.64h-4.31v5.8c1.88,0,3.79-.01,5.42-.22v.62Zm3.69-3.05h-1.93v6.34h-.75V.91h.75V4.91h1.93v.65Z"/><path class="cls-1" d="M235.38,10.06h1.07v1.08h-1.07v-1.08Z"/></g><g><rect class="cls-3" x=".25" y="3.65" width="7.56" height="7.56"/><polyline class="cls-2" points="2.1 5.39 4.03 8.8 6.99 .5"/></g></g><g><g><path class="cls-1" d="M15.52,44.33c.99,0,2.2-.01,3.22-.04v-2.32h.75v2.29c1.27-.04,2.61-.11,3.52-.19v.61c-1.76,.28-4.95,.3-7.49,.3v-.66Zm6.36-2.24c-1.07-.42-2.14-1.21-2.8-2.42-.52,1.16-1.75,2.12-2.88,2.59l-.42-.54c1.56-.66,2.89-1.76,2.89-3.43v-.19h-2.61v-.64h2.61v-1.68h.76v1.68h2.61v.64h-2.61v.19c0,1.51,1.35,2.77,2.81,3.25l-.36,.55Zm2.51,4.82h-.74v-11h.74v11Z"/><path class="cls-1" d="M31.47,41.99c-1-.42-2.34-1.21-2.88-2.41-.54,1.38-1.72,2.11-2.81,2.69l-.47-.53c1.44-.71,2.91-1.69,2.91-3.53v-1.8h.75v1.79c0,1.8,1.48,2.65,2.83,3.21l-.33,.58Zm3.05,4.73h-7.13v-3.48h.74v2.83h6.39v.65Zm-.26-3.08h-.75v-7.72h.75v7.72Z"/><path class="cls-1" d="M41.01,36.76c-.04,4.23-2.01,6.37-4.62,7.81l-.47-.58c2.89-1.57,4.28-3.68,4.29-6.6h-4.01v-.64h4.81Zm3.16,10.15h-.73v-11h.73v11Z"/><path class="cls-1" d="M49.86,36.82c-.02,3.79-1.42,5.86-3.78,7.57l-.58-.47c2.11-1.52,3.58-3.37,3.58-6.46h-3.08v-.63h3.86Zm.04,1.79h1.84v-2.64h.71v10.57h-.71v-4.08h-1.8v-.68h1.8v-2.48h-1.84v-.68Zm4.71,8.3h-.72v-11h.72v11Z"/><path class="cls-1" d="M61.74,41.23c-.99-.41-2.33-1.19-2.87-2.38-.54,1.38-1.72,2.08-2.82,2.65l-.45-.49c1.42-.73,2.91-1.67,2.91-3.5v-1.34h.74v1.33c0,1.8,1.48,2.61,2.82,3.18l-.33,.55Zm3.11,5.73h-7.2v-2.75h6.15v-1.5h-6.15v-.6h6.93v2.69h-6.16v1.56h6.44v.6Zm-.25-5.47h-.75v-2.99h-2.38v-.65h2.38v-1.96h.75v5.59Z"/><path class="cls-1" d="M71.52,43.89h-4.91v-7.21h.73v2.85h3.46v-2.85h.72v7.21Zm-.72-.63v-3.08h-3.46v3.08h3.46Zm3.24-7.35h.73v11h-.73v-11Z"/><path class="cls-1" d="M84.4,40.79h-4.74v-4.49h4.74v4.49Zm3.51,6.2c-1.38-.44-2.93-1.33-3.6-2.48-.61,1.12-2.31,2.1-3.62,2.48l-.42-.56c1.86-.53,3.16-1.44,3.64-2.57h-3.31v-.65h3.34v-1.47h.79v1.47h3.29v.65h-3.28c.48,1.21,1.95,2.11,3.62,2.57l-.45,.56Zm-4.24-6.84v-3.24h-3.29v3.24h3.29Zm3.35-4.25h.75v5.9h-.75v-5.9Z"/><path class="cls-1" d="M92.19,44.33c.99,0,2.2-.01,3.22-.04v-2.32h.75v2.29c1.27-.04,2.61-.11,3.52-.19v.61c-1.76,.28-4.95,.3-7.49,.3v-.66Zm6.36-2.24c-1.07-.42-2.14-1.21-2.8-2.42-.52,1.16-1.75,2.12-2.88,2.59l-.42-.54c1.56-.66,2.89-1.76,2.89-3.43v-.19h-2.61v-.64h2.61v-1.68h.76v1.68h2.61v.64h-2.61v.19c0,1.51,1.35,2.77,2.81,3.25l-.36,.55Zm2.51,4.82h-.74v-11h.74v11Z"/><path class="cls-1" d="M108.18,41.7c-1.02-.4-2.28-1.22-2.82-2.4-.54,1.36-1.67,2.1-2.78,2.67l-.41-.52c1.42-.72,2.81-1.67,2.81-3.51v-.86h-2.32v-.64h5.38v.64h-2.29v.85c0,1.79,1.41,2.64,2.76,3.19l-.33,.58Zm2.87,5.26h-.74v-3.38h-6.35v-.65h7.09v4.03Zm0-4.63h-.74v-3.23h-2.27v-.65h2.27v-2.55h.74v6.43Z"/><path class="cls-1" d="M115.82,42.94v1.59c1.27-.04,2.44-.1,3.33-.18v.61c-1.76,.26-4.62,.26-7.15,.26v-.64c.99,0,2.05-.01,3.06-.04v-1.62h.76Zm2.84-5.06h-6.47v-.62h2.86v-1.45h.76v1.45h2.85v.62Zm-3.15,4.64c-1.54,0-2.72-.77-2.72-2,0-1.13,.92-2.03,2.64-2.03s2.67,.89,2.67,2.03-1.02,2-2.59,2Zm1.87-2c0-.78-.6-1.43-1.95-1.43-1.26,0-1.93,.66-1.93,1.43s.68,1.39,1.94,1.39c1.36,0,1.94-.6,1.94-1.39Zm3.31-4.61v5.05h1.8v.67h-1.8v5.28h-.75v-11h.75Z"/><path class="cls-1" d="M135.28,41.52h-10.08v-.65h4v-2.22h.76v2.22h5.32v.65Zm-8.75,3.41c0-1.19,1.19-2.17,3.73-2.17s3.71,.98,3.71,2.17-1.2,2.18-3.71,2.18-3.73-1-3.73-2.18Zm7.23-8.67c-.02,.88-.2,2.53-.34,3.66h-.74c.12-.82,.25-2.34,.27-3.02h-6.33v-.64h7.14Zm-3.51,7.08c-1.85,0-2.94,.7-2.94,1.58s1.09,1.62,2.94,1.62,2.93-.72,2.93-1.62-1.09-1.58-2.93-1.58Z"/><path class="cls-1" d="M141.46,41.81c-1.01-.38-2.27-1.19-2.81-2.38-.53,1.38-1.68,2.07-2.79,2.66l-.41-.52c1.41-.71,2.81-1.62,2.81-3.42v-1.03h-2.31v-.64h5.38v.64h-2.31v1.02c0,1.77,1.41,2.54,2.76,3.09l-.33,.56Zm-4.12,3.03c0-1.62,1.87-2.22,3.55-2.22s3.54,.6,3.54,2.22-1.87,2.27-3.54,2.27-3.55-.6-3.55-2.27Zm.78,.01c0,1.21,1.49,1.64,2.76,1.64s2.76-.42,2.76-1.64-1.48-1.62-2.76-1.62-2.76,.41-2.76,1.62Zm6.21-2.58h-.74v-3.11h-2.27v-.67h2.27v-2.59h.74v6.37Z"/><path class="cls-1" d="M149.13,36.45v2.99c0,1.99,1.52,3.37,3,4.1l-.42,.61c-.95-.56-2.34-1.55-2.96-3.08-.56,1.51-1.8,2.57-3.05,3.36l-.48-.56c1.67-.95,3.14-2.43,3.14-4.47v-2.94h.78Zm5.2,10.46h-.75v-11h.75v11Z"/><path class="cls-1" d="M165.62,45.13h-10.08v-.65h10.08v.65Zm-4.65-7.39c0,1.82,2.33,3.38,3.88,3.9l-.44,.54c-1.33-.49-3.2-1.7-3.84-3.19-.64,1.46-2.28,2.62-3.8,3.2l-.44-.55c1.59-.53,3.81-2.08,3.81-3.9v-1.29h.81v1.29Z"/><path class="cls-1" d="M170.73,41.43c-.96,.1-2.16,.18-4.42,.18v-5.17h3.78v.62h-3.05v1.55h2.69v.6h-2.69v1.74c1.34,0,2.81-.06,3.69-.14v.62Zm3.98,5.42h-7.09v-3.84h7.09v3.84Zm-.73-.62v-2.59h-5.62v2.59h5.62Zm-1.39-3.87h-.71v-3.24h-1.56v-.67h1.56v-2.47h.71v6.38Zm2.12,0h-.72v-6.44h.72v6.44Z"/><path class="cls-1" d="M185.84,40.6v.65h-10.08v-.65h10.08Zm-8.72-2.85c0-1.13,1.35-1.86,3.66-1.86s3.65,.72,3.65,1.86c0,1.25-1.4,1.91-3.65,1.91s-3.66-.68-3.66-1.91Zm7.6,9.22h-7.54v-2.58h6.48v-1.38h-6.48v-.61h7.24v2.58h-6.45v1.39h6.75v.6Zm-6.82-9.22c0,.96,1.29,1.33,2.88,1.33s2.88-.37,2.88-1.33c0-.85-1.33-1.27-2.88-1.27s-2.88,.43-2.88,1.27Z"/><path class="cls-1" d="M193.84,36.41c-.18,3.02-2.45,4.67-4.68,5.4l-.39-.55c2.22-.73,3.98-2.08,4.27-4.22h-3.73v-.62h4.53Zm3.61,10.57c-1.31-.42-2.91-1.39-3.56-2.72-.66,1.4-2.33,2.28-3.55,2.73l-.44-.56c1.33-.38,3.55-1.69,3.58-3.15h-3.15v-.65h7.12v.65h-3.17c.02,1.45,2.24,2.76,3.59,3.15l-.41,.55Zm1.45-8.01h-1.78v2.82h-.75v-5.88h.75v2.41h1.78v.65Z"/><path class="cls-1" d="M209.01,43.07h-4.68v3.84h-.75v-3.84h-4.65v-.65h10.08v.65Zm-1.32-1.81c-1.73-.36-3.13-1.62-3.76-2.58-.58,.96-2.06,2.18-3.8,2.58l-.36-.58c1.86-.43,3.48-1.63,3.73-2.85h-3.29v-.65h3.33v-1.49h.76v1.49h3.34v.65h-3.31c.22,1.25,2.05,2.46,3.78,2.87l-.41,.56Z"/><path class="cls-1" d="M219.12,45.03h-10.08v-.65h3.78v-4.09h.75v4.09h5.55v.65Zm-2.66-2.3c.29-1.57,.52-3.57,.52-5.35h-6.58v-.65h7.36c-.05,2.33-.26,4.26-.58,6h-.73Z"/><path class="cls-1" d="M219.88,45.06h1.07v.96c0,.28-.02,.38-.07,.56-.17,.56-.51,.97-.93,1.27l-.19-.18c.35-.3,.75-.8,.73-1.54h-.61v-1.08Z"/><path class="cls-1" d="M21.52,57.59h-6.39v-.6h2.8v-1.29h.79v1.29h2.8v.6Zm-3.2,4.38c-1.55,0-2.58-.88-2.58-1.92s1.02-1.83,2.6-1.83,2.56,.82,2.56,1.83-.98,1.92-2.59,1.92Zm-1.85-1.93c0,.71,.73,1.34,1.87,1.34s1.83-.61,1.83-1.34c0-.68-.68-1.25-1.83-1.25s-1.87,.56-1.87,1.25Zm7.19,6.81h-6.72v-4.14h.73v1.38h5.26v-1.38h.73v4.14Zm-.73-.64v-1.5h-5.26v1.5h5.26Zm2.49-6.78h-1.78v2.48h-.74v-6.01h.74v2.87h1.78v.66Z"/><path class="cls-1" d="M32.4,63.94c-1.94,.22-4.24,.24-6.12,.24v-4.22h3.88v-2.7h-3.88v-.64h4.62v3.97h-3.89v2.93c2.09,0,3.55-.05,5.39-.19v.61Zm1.93,2.96h-.74v-11h.74v11Z"/><path class="cls-1" d="M41.62,61.7c-1.02-.4-2.28-1.22-2.82-2.4-.54,1.36-1.67,2.1-2.78,2.67l-.41-.52c1.42-.72,2.81-1.67,2.81-3.51v-.86h-2.32v-.64h5.38v.64h-2.29v.85c0,1.79,1.41,2.64,2.76,3.19l-.33,.58Zm2.87,5.26h-.74v-3.38h-6.35v-.65h7.09v4.03Zm0-4.63h-.74v-3.23h-2.27v-.65h2.27v-2.55h.74v6.43Z"/><path class="cls-1" d="M48.92,56.27c1.71,0,2.8,1.25,2.8,2.71s-1.06,2.71-2.8,2.71-2.8-1.25-2.8-2.71,1.09-2.71,2.8-2.71Zm0,.66c-1.38,0-2,.97-2,2.05s.64,2.05,2,2.05,2-.98,2-2.05-.58-2.05-2-2.05Zm5.87,9.79h-7.13v-3.63h.74v2.99h6.39v.65Zm-.26-3.08h-.74v-7.72h.74v7.72Z"/><path class="cls-1" d="M63.75,56.76c-.04,4.23-1.94,6.37-4.56,7.81l-.48-.58c2.91-1.57,4.25-3.68,4.26-6.6h-3.96v-.64h4.75Zm3.19-.85v4.21h1.93v.66h-1.93v6.13h-.75v-11h.75Z"/><path class="cls-1" d="M74.05,56.45c-.11,3.44-2.49,4.94-4.68,5.77l-.39-.54c2.21-.88,4.09-2.17,4.27-4.59h-3.73v-.64h4.53Zm3.47,10.52h-.74v-3.32h-6.35v-.65h7.09v3.97Zm0-4.61h-.74v-1.76h-2.34v-.65h2.34v-1.69h-2.29v-.66h2.29v-1.69h.74v6.45Z"/><path class="cls-1" d="M88.94,60.6v.65h-10.08v-.65h10.08Zm-8.72-2.85c0-1.13,1.35-1.86,3.66-1.86s3.65,.72,3.65,1.86c0,1.25-1.4,1.91-3.65,1.91s-3.66-.68-3.66-1.91Zm7.6,9.22h-7.54v-2.58h6.48v-1.38h-6.48v-.61h7.24v2.58h-6.45v1.39h6.75v.6Zm-6.82-9.22c0,.96,1.29,1.33,2.88,1.33s2.88-.37,2.88-1.33c0-.85-1.33-1.27-2.88-1.27s-2.88,.43-2.88,1.27Z"/><path class="cls-1" d="M96.9,64.1c-.96-.61-1.96-1.7-2.33-2.81-.35,1.16-1.46,2.38-2.53,3.06l-.48-.52c1.76-1.06,2.64-2.69,2.64-4.15v-2.23h-2.04v-.63h4.83v.63h-2.05v2.24c0,1.5,.84,2.96,2.36,3.85l-.41,.55Zm2.2,2.43h-.72v-6.36h-1.95v-.68h1.95v-3.53h.72v10.57Zm2.11,.37h-.72v-11h.72v11Z"/><path class="cls-1" d="M112.11,61.52h-10.08v-.65h4v-2.22h.76v2.22h5.32v.65Zm-8.75,3.41c0-1.19,1.19-2.17,3.73-2.17s3.71,.98,3.71,2.17-1.2,2.18-3.71,2.18-3.73-1-3.73-2.18Zm7.23-8.67c-.02,.88-.2,2.53-.34,3.66h-.74c.12-.82,.25-2.34,.27-3.02h-6.33v-.64h7.14Zm-3.51,7.08c-1.85,0-2.94,.7-2.94,1.58s1.09,1.62,2.94,1.62,2.93-.72,2.93-1.62-1.09-1.58-2.93-1.58Z"/><path class="cls-1" d="M115.69,57.65h2.92v.64h-6.59v-.64h2.88v-1.73h.79v1.73Zm2.27,4.21c0,1.52-.96,2.77-2.64,2.77s-2.67-1.16-2.67-2.77,1.05-2.75,2.67-2.75,2.64,1.06,2.64,2.75Zm-.72,0c0-1.31-.61-2.09-1.92-2.09s-1.94,.82-1.94,2.09,.68,2.11,1.94,2.11,1.92-.84,1.92-2.11Zm3.33-5.95v4.71h1.92v.67h-1.92v5.61h-.73v-11h.73Z"/><path class="cls-1" d="M132.34,65.03h-10.08v-.65h3.78v-4.09h.75v4.09h5.55v.65Zm-2.66-2.3c.29-1.57,.52-3.57,.52-5.35h-6.58v-.65h7.36c-.05,2.33-.26,4.26-.58,6h-.73Z"/><path class="cls-1" d="M138.62,56.17c1.71,0,2.79,1.2,2.79,2.58s-1.01,2.58-2.79,2.58-2.79-1.19-2.79-2.58,1.06-2.58,2.79-2.58Zm6.11,10.76c-.85-.5-1.61-1.31-1.98-2.28-.41,.97-1.15,1.79-1.96,2.31-.98-.63-1.56-1.38-2-2.3-.29,.85-1.09,1.75-1.99,2.27l-.47-.5c1.22-.73,2.11-1.82,2.11-3.02v-.6h.76v.6c0,1.01,.66,2.11,1.56,2.73,.94-.61,1.6-1.73,1.6-2.73v-.6h.76v.6c0,1.33,.89,2.41,2.06,3.02l-.46,.5Zm-4.06-8.18c0-1.03-.74-1.93-2.05-1.93-1.4,0-2.06,.9-2.06,1.93s.61,1.91,2.06,1.91c1.34,0,2.05-.86,2.05-1.91Zm2.85-2.84h.74v6.09h-.74v-6.09Z"/><path class="cls-1" d="M155.5,60.71v.65h-10.08v-.65h10.08Zm-9.2-1.58c1.52-.34,3.74-1.21,3.74-2.62v-.65h.81v.65c0,1.39,2.17,2.25,3.75,2.63l-.38,.58c-1.42-.36-3.08-.97-3.78-2.22-.69,1.2-2.27,1.85-3.79,2.22l-.36-.59Zm7.78,7.72h-7.24v-4.56h.73v1.59h5.79v-1.59h.72v4.56Zm-.72-.62v-1.73h-5.79v1.73h5.79Z"/><path class="cls-1" d="M162.53,63.52c-1.85,.28-4.19,.26-6.02,.26v-7.29h.74v6.63c2.05,0,3.72-.05,5.28-.22v.61Zm1.87,3.38h-.75v-11h.75v11Z"/><path class="cls-1" d="M172.19,63.61c-1.81,.26-3.96,.25-6.16,.25v-7.1h5.05v.64h-4.31v5.8c1.88,0,3.79-.01,5.42-.22v.62Zm3.69-3.05h-1.93v6.34h-.75v-11h.75v4.01h1.93v.65Z"/><path class="cls-1" d="M176.47,65.06h1.07v1.08h-1.07v-1.08Z"/></g><rect class="cls-3" x=".25" y="37.98" width="7.56" height="7.56"/><polyline class="cls-2" points="2.1 39.71 4.03 43.12 6.99 34.82"/></g><g><g><path class="cls-1" d="M21.9,96.94h-.68v-4.21h-4.49v4.21h-.68v-8.52h.68v3.74h4.49v-3.74h.68v8.52Z"/><path class="cls-1" d="M29.92,96.94h-.71l-.84-2.3h-3.98l-.85,2.3h-.69l3.14-8.52h.78l3.14,8.52Zm-1.74-2.87l-1.79-5.01-1.8,5.01h3.59Z"/><path class="cls-1" d="M36.46,96.26c-.65,.48-1.51,.8-2.58,.8-2.42,0-4-1.94-4-4.39,0-2.61,1.65-4.39,3.95-4.39,.95,0,1.92,.23,2.52,.61l-.32,.49c-.49-.25-1.35-.5-2.21-.5-2.08,0-3.25,1.78-3.25,3.79s1.29,3.79,3.31,3.79c.91,0,1.78-.35,2.25-.7l.33,.49Z"/><path class="cls-1" d="M43.74,96.26c-.65,.48-1.51,.8-2.58,.8-2.42,0-4-1.94-4-4.39,0-2.61,1.65-4.39,3.95-4.39,.95,0,1.92,.23,2.52,.61l-.32,.49c-.49-.25-1.35-.5-2.21-.5-2.08,0-3.25,1.78-3.25,3.79s1.29,3.79,3.31,3.79c.91,0,1.78-.35,2.25-.7l.33,.49Z"/><path class="cls-1" d="M47.56,88.42c1.55,0,2.71,1.06,2.71,2.59s-1.15,2.6-2.69,2.6h-2.07v3.32h-.68v-8.52h2.74Zm-2.06,.56v4.03h2.04c1.16,0,2.02-.79,2.02-2s-.86-2.03-2.02-2.03h-2.04Z"/><path class="cls-1" d="M50.47,96.46h1.07v.96c0,.28-.02,.38-.07,.56-.17,.56-.51,.97-.93,1.27l-.19-.18c.35-.3,.75-.8,.73-1.54h-.61v-1.08Z"/><path class="cls-1" d="M60.94,88.98h-4.31v3.33h4.08v.56h-4.08v4.05h-.68v-8.52h4.99v.56Z"/><path class="cls-1" d="M65.88,89.49c-.68-.41-1.21-.6-1.93-.6-1.11,0-1.78,.58-1.78,1.42,0,1.03,.86,1.38,2.24,1.99,1.21,.54,2.24,1.31,2.24,2.5,0,1.59-1.38,2.28-2.72,2.28-1,0-1.92-.3-2.78-1.01l.35-.53c.62,.52,1.47,.94,2.34,.94s2.11-.38,2.11-1.67c0-.88-.79-1.43-2.09-1.99-1.28-.55-2.38-1.13-2.38-2.45,0-1.56,1.31-2.08,2.46-2.08,.82,0,1.59,.29,2.26,.67l-.32,.53Z"/><path class="cls-1" d="M71.9,89.49c-.68-.41-1.21-.6-1.93-.6-1.11,0-1.78,.58-1.78,1.42,0,1.03,.86,1.38,2.24,1.99,1.21,.54,2.24,1.31,2.24,2.5,0,1.59-1.38,2.28-2.72,2.28-1,0-1.92-.3-2.78-1.01l.35-.53c.62,.52,1.47,.94,2.34,.94s2.11-.38,2.11-1.67c0-.88-.79-1.43-2.09-1.99-1.28-.55-2.38-1.13-2.38-2.45,0-1.56,1.31-2.08,2.46-2.08,.82,0,1.59,.29,2.26,.67l-.32,.53Z"/><path class="cls-1" d="M79.79,96.26c-.65,.48-1.51,.8-2.58,.8-2.42,0-4-1.94-4-4.39,0-2.61,1.65-4.39,3.95-4.39,.95,0,1.92,.23,2.52,.61l-.32,.49c-.49-.25-1.35-.5-2.21-.5-2.08,0-3.25,1.78-3.25,3.79s1.29,3.79,3.31,3.79c.91,0,1.78-.35,2.25-.7l.33,.49Z"/><path class="cls-1" d="M85.51,96.36v.58h-4.94v-.67l1.88-2.06c1.74-1.92,2.24-2.79,2.24-3.61,0-.89-.61-1.68-1.79-1.68-.76,0-1.44,.38-1.96,.86l-.35-.47c.74-.66,1.54-1,2.36-1,1.49,0,2.41,.98,2.41,2.25,0,1.2-.91,2.31-2.45,4.05l-1.56,1.74h4.16Z"/><path class="cls-1" d="M91.33,96.36v.58h-4.94v-.67l1.88-2.06c1.74-1.92,2.24-2.79,2.24-3.61,0-.89-.61-1.68-1.79-1.68-.76,0-1.44,.38-1.96,.86l-.35-.47c.74-.66,1.54-1,2.36-1,1.49,0,2.41,.98,2.41,2.25,0,1.2-.91,2.31-2.45,4.05l-1.56,1.74h4.16Z"/><path class="cls-1" d="M91.88,92.62c0-1.78,.62-4.33,2.71-4.33s2.74,2.52,2.74,4.35c0,1.99-.61,4.44-2.74,4.44s-2.71-2.69-2.71-4.46Zm.66,0c0,1.44,.4,3.87,2.05,3.87,1.73,0,2.08-2.46,2.08-3.85s-.39-3.75-2.07-3.75-2.06,2.38-2.06,3.73Z"/><path class="cls-1" d="M98.32,92.62c0-1.78,.62-4.33,2.71-4.33s2.74,2.52,2.74,4.35c0,1.99-.61,4.44-2.74,4.44s-2.71-2.69-2.71-4.46Zm.66,0c0,1.44,.4,3.87,2.05,3.87,1.73,0,2.08-2.46,2.08-3.85s-.39-3.75-2.07-3.75-2.06,2.38-2.06,3.73Z"/><path class="cls-1" d="M104.77,92.62c0-1.78,.62-4.33,2.71-4.33s2.74,2.52,2.74,4.35c0,1.99-.61,4.44-2.74,4.44s-2.71-2.69-2.71-4.46Zm.66,0c0,1.44,.4,3.87,2.05,3.87,1.73,0,2.08-2.46,2.08-3.85s-.39-3.75-2.07-3.75-2.06,2.38-2.06,3.73Z"/><path class="cls-1" d="M111.45,96.46h1.07v.96c0,.28-.02,.38-.07,.56-.17,.56-.51,.97-.93,1.27l-.19-.18c.35-.3,.75-.8,.73-1.54h-.61v-1.08Z"/><path class="cls-1" d="M122.78,96.94h-.68v-4.21h-4.49v4.21h-.68v-8.52h.68v3.74h4.49v-3.74h.68v8.52Z"/><path class="cls-1" d="M130.81,96.94h-.71l-.84-2.3h-3.98l-.85,2.3h-.69l3.14-8.52h.78l3.14,8.52Zm-1.74-2.87l-1.79-5.01-1.8,5.01h3.59Z"/><path class="cls-1" d="M136.6,96.94h-4.82v-8.52h.68v7.94h4.14v.58Z"/><path class="cls-1" d="M144.07,96.94h-.71l-.84-2.3h-3.98l-.85,2.3h-.69l3.14-8.52h.78l3.14,8.52Zm-1.74-2.87l-1.79-5.01-1.8,5.01h3.59Z"/><path class="cls-1" d="M149.87,96.94h-4.82v-8.52h.68v7.94h4.14v.58Z"/><path class="cls-1" d="M150.88,96.46h1.07v.96c0,.28-.02,.38-.07,.56-.17,.56-.51,.97-.93,1.27l-.19-.18c.35-.3,.75-.8,.73-1.54h-.61v-1.08Z"/><path class="cls-1" d="M165.64,94.44h-2.72v3.87h-.75v-3.87h-3.18v3.75h-.74v-3.75h-2.69v-.65h10.08v.65Zm-1.36-4.59c0,1.49-1.34,2.42-3.67,2.42s-3.69-.94-3.69-2.42,1.4-2.4,3.69-2.4,3.67,.95,3.67,2.4Zm-3.67,1.76c1.66,0,2.91-.61,2.91-1.78,0-1.08-1.25-1.71-2.91-1.71s-2.92,.62-2.92,1.73c0,1.16,1.24,1.76,2.92,1.76Z"/><path class="cls-1" d="M171.21,88.16c-.04,4.23-2.01,6.37-4.62,7.81l-.47-.58c2.89-1.57,4.28-3.68,4.29-6.6h-4.01v-.64h4.81Zm3.16,10.15h-.73v-11h.73v11Z"/><path class="cls-1" d="M180.9,88.16c-.04,4.23-1.94,6.37-4.56,7.81l-.48-.58c2.91-1.57,4.25-3.68,4.26-6.6h-3.96v-.64h4.75Zm3.19-.85v4.21h1.93v.66h-1.93v6.13h-.75v-11h.75Z"/><path class="cls-1" d="M195.98,92.92h-10.08v-.65h4v-2.22h.76v2.22h5.32v.65Zm-8.75,3.41c0-1.19,1.19-2.17,3.73-2.17s3.71,.98,3.71,2.17-1.2,2.18-3.71,2.18-3.73-1-3.73-2.18Zm7.23-8.67c-.02,.88-.2,2.53-.34,3.66h-.74c.12-.82,.25-2.34,.27-3.02h-6.33v-.64h7.14Zm-3.51,7.08c-1.85,0-2.94,.7-2.94,1.58s1.09,1.62,2.94,1.62,2.93-.72,2.93-1.62-1.09-1.58-2.93-1.58Z"/><path class="cls-1" d="M202.13,93.03c-1-.43-2.34-1.21-2.88-2.41-.54,1.37-1.72,2.1-2.81,2.66l-.47-.5c1.44-.73,2.91-1.69,2.91-3.53v-1.56h.75v1.55c0,1.8,1.48,2.65,2.83,3.21l-.33,.58Zm2.79,5.34h-.75v-3.38h-6.35v-.65h7.11v4.03Zm0-4.63h-.75v-6.43h.75v6.43Z"/><path class="cls-1" d="M216.21,93.36h-4.68v1.48h3.26v3.41h-7.24v-3.41h3.21v-1.48h-4.64v-.65h10.08v.65Zm-9.09-1.88v-.67h1.73l-.19-1.99h.74l.18,1.99h3.19l.16-1.99h.75l-.18,1.99h1.69v.67h-8.08Zm.27-3.24v-.64h7.54v.64h-7.54Zm6.68,9.38v-2.17h-5.79v2.17h5.79Z"/><path class="cls-1" d="M229.26,92.51v.65h-10.08v-.65h10.08Zm-1.32,3.9c0,1.19-1.27,2.1-3.72,2.1s-3.72-.91-3.72-2.1,1.31-2.1,3.72-2.1,3.72,.9,3.72,2.1Zm-7.28-5.23v-3.57h7.18v.64h-6.45v2.29h6.56v.65h-7.29Zm3.56,3.71c-1.85,0-2.93,.65-2.93,1.51s1.08,1.54,2.93,1.54,2.94-.62,2.94-1.54-1.11-1.51-2.94-1.51Z"/><path class="cls-1" d="M20.66,107.84c-.16,3.36-2.6,4.76-4.75,5.54l-.36-.56c2.18-.79,4.13-2.08,4.32-4.34h-3.79v-.64h4.59Zm3.35,10.4h-6.84v-4.14h6.84v4.14Zm-.73-.62v-2.89h-5.38v2.89h5.38Zm.73-4.17h-.74v-6.14h.74v6.14Z"/><path class="cls-1" d="M33.28,115.5c-.96-.61-1.96-1.7-2.33-2.81-.35,1.16-1.46,2.38-2.53,3.06l-.48-.52c1.76-1.06,2.64-2.69,2.64-4.15v-2.23h-2.04v-.63h4.83v.63h-2.05v2.24c0,1.5,.84,2.96,2.36,3.85l-.41,.55Zm2.2,2.43h-.72v-6.36h-1.95v-.68h1.95v-3.53h.72v10.57Zm2.11,.37h-.72v-11h.72v11Z"/><path class="cls-1" d="M48.49,116.54h-10.08v-.65h4.66v-2.52h.75v2.52h4.67v.65Zm-9.33-3.57c1.66-.6,3.87-1.93,3.87-3.49v-.85h-3.27v-.65h7.35v.65h-3.27v.85c0,1.56,2.24,2.95,3.87,3.48l-.41,.58c-1.54-.55-3.18-1.66-3.86-2.93-.69,1.31-2.52,2.5-3.87,2.93l-.41-.56Z"/><path class="cls-1" d="M49.25,116.46h1.07v.96c0,.28-.02,.38-.07,.56-.17,.56-.51,.97-.93,1.27l-.19-.18c.35-.3,.75-.8,.73-1.54h-.61v-1.08Z"/><path class="cls-1" d="M58.96,113.23c-.93-.52-1.89-1.31-2.28-2.27-.34,1-1.26,1.88-2.31,2.57l-.49-.52c1.04-.65,2.41-1.73,2.41-3.3v-1.91h.75v1.91c0,1.51,1.28,2.41,2.27,2.93l-.35,.59Zm4.32,3.07c0,1.7-1.86,2.21-3.61,2.21s-3.59-.5-3.59-2.21,1.94-2.21,3.59-2.21,3.61,.55,3.61,2.21Zm-.78,.01c0-1.21-1.54-1.62-2.82-1.62s-2.82,.41-2.82,1.62,1.58,1.6,2.82,1.6,2.82-.38,2.82-1.6Zm.72-2.47h-.72v-3.33h-1.73v2.87h-.71v-6.01h.71v2.45h1.73v-2.51h.72v6.54Z"/><path class="cls-1" d="M69.97,113.39c-.99-.42-2.34-1.21-2.88-2.41-.53,1.38-1.71,2.11-2.81,2.69l-.46-.53c1.42-.71,2.91-1.69,2.91-3.53v-1.8h.75v1.79c0,1.8,1.48,2.65,2.84,3.21l-.34,.58Zm2.85,4.73h-7.07v-3.48h.74v2.83h6.33v.65Zm-.36-10.81v3.05h1.78v.66h-1.78v4.08h-.74v-7.78h.74Z"/><path class="cls-1" d="M76.77,108.08c1.4,0,2.26,1.28,2.36,3.38h1.46v-4.1h.72v10.57h-.72v-5.77h-1.46c-.06,2.18-.89,3.54-2.36,3.54s-2.38-1.45-2.38-3.8,.87-3.81,2.38-3.81Zm-1.68,3.8c0,1.76,.56,3.15,1.68,3.15s1.67-1.38,1.67-3.15-.51-3.15-1.67-3.15-1.68,1.43-1.68,3.15Zm8.27,6.42h-.72v-11h.72v11Z"/><path class="cls-1" d="M92.62,113.71v2.24h4.67v.65h-10.08v-.65h4.66v-2.24h.75Zm-3.94-.84v-4.89h7.14v4.89h-7.14Zm6.41-.65v-3.6h-5.67v3.6h5.67Z"/><path class="cls-1" d="M107.4,113.69h-10.08v-.65h10.08v.65Zm-1,4.43h-7.66v-3.23h.74v2.58h6.92v.65Zm-7.6-6.67v-3.79h7.18v.64h-6.45v2.52h6.56v.64h-7.29Z"/><path class="cls-1" d="M113.72,107.67c1.71,0,2.8,1.25,2.8,2.71s-1.06,2.71-2.8,2.71-2.8-1.25-2.8-2.71,1.09-2.71,2.8-2.71Zm0,.66c-1.38,0-2,.97-2,2.05s.64,2.05,2,2.05,2-.98,2-2.05-.58-2.05-2-2.05Zm5.87,9.79h-7.13v-3.63h.74v2.99h6.39v.65Zm-.26-3.08h-.74v-7.72h.74v7.72Z"/><path class="cls-1" d="M130.57,112.31v.65h-10.08v-.65h10.08Zm-1.26-.89c-1.74-.37-3.16-1.38-3.79-2.36-.58,1-2.04,1.97-3.78,2.36l-.36-.56c1.87-.42,3.48-1.38,3.73-2.61h-3.2v-.64h7.25v.64h-3.22c.22,1.26,2.01,2.22,3.75,2.61l-.38,.56Zm-.02,4.96c0,1.18-1.28,2.12-3.73,2.12s-3.72-.95-3.72-2.12,1.31-2.11,3.72-2.11,3.73,.91,3.73,2.11Zm-3.73-1.54c-1.85,0-2.93,.66-2.93,1.52s1.08,1.56,2.93,1.56,2.93-.65,2.93-1.56-1.09-1.52-2.93-1.52Z"/><path class="cls-1" d="M130.46,115.27c.75,0,1.52,0,2.26-.01v-3.65h.74v3.62c1.59-.04,3.04-.12,4.15-.23v.6c-1.76,.28-4.64,.31-7.15,.31v-.65Zm6.05-7.14c-.11,1.92-.21,3.35-.49,5.12h-.69c.21-1.33,.34-3.05,.41-4.49h-4.69v-.63h5.47Zm2.64-.83v4.35h1.8v.66h-1.8v5.98h-.75v-11h.75Z"/><path class="cls-1" d="M149.69,115.58c-.93-.54-2.11-1.49-2.78-3.06-.62,1.59-1.72,2.55-2.91,3.33l-.47-.55c1.65-.96,2.98-2.41,2.98-4.4v-2.11h-2.4v-.64h5.58v.64h-2.41v2.12c0,1.89,1.34,3.35,2.81,4.07l-.4,.6Zm4.31-3.68h-1.93v6.4h-.74v-11h.74v3.93h1.93v.66Z"/><path class="cls-1" d="M159.08,107.84c-.11,3.44-2.49,4.94-4.68,5.77l-.39-.54c2.21-.88,4.09-2.17,4.27-4.59h-3.73v-.64h4.53Zm3.47,10.52h-.74v-3.32h-6.35v-.65h7.09v3.97Zm0-4.61h-.74v-1.76h-2.34v-.65h2.34v-1.69h-2.29v-.66h2.29v-1.69h.74v6.45Z"/><path class="cls-1" d="M173.97,111.99v.65h-10.08v-.65h10.08Zm-8.72-2.85c0-1.13,1.35-1.86,3.66-1.86s3.65,.72,3.65,1.86c0,1.25-1.4,1.91-3.65,1.91s-3.66-.68-3.66-1.91Zm7.6,9.22h-7.54v-2.58h6.48v-1.38h-6.48v-.61h7.24v2.58h-6.45v1.39h6.75v.6Zm-6.82-9.22c0,.96,1.29,1.33,2.88,1.33s2.88-.37,2.88-1.33c0-.85-1.33-1.27-2.88-1.27s-2.88,.43-2.88,1.27Z"/><path class="cls-1" d="M181.96,107.81c-.18,3.02-2.45,4.67-4.68,5.4l-.39-.55c2.22-.73,3.98-2.08,4.27-4.22h-3.73v-.62h4.53Zm3.61,10.57c-1.31-.42-2.91-1.39-3.56-2.72-.66,1.4-2.33,2.28-3.55,2.73l-.44-.56c1.33-.38,3.55-1.69,3.58-3.15h-3.15v-.65h7.12v.65h-3.17c.02,1.45,2.24,2.76,3.59,3.15l-.41,.55Zm1.45-8.01h-1.78v2.82h-.75v-5.88h.75v2.41h1.78v.65Z"/><path class="cls-1" d="M197.13,113.63h-4.51v2.34h-.76v-2.34h-4.81v-.66h10.08v.66Zm-1.33-1.71c-1.73-.37-3.08-1.22-3.72-2.16-.58,.93-1.98,1.76-3.71,2.16l-.38-.58c1.87-.42,3.44-1.22,3.68-2.41h-3.26v-.64h3.28v-1.2h.75v1.2h3.29v.64h-3.27c.26,1.21,1.98,2.03,3.72,2.41l-.4,.58Zm.33,6.2h-7.66v-3.23h.74v2.58h6.92v.65Z"/><path class="cls-1" d="M206.26,113.52c-1.02-.41-2.28-1.24-2.82-2.41-.54,1.38-1.67,2.1-2.78,2.67l-.41-.52c1.42-.72,2.81-1.67,2.81-3.51v-1.21h-2.31v-.64h5.38v.64h-2.31v1.2c0,1.8,1.41,2.66,2.76,3.2l-.33,.58Zm3.13,4.59h-7.13v-3.48h.74v2.83h6.39v.65Zm-.26-3.08h-.74v-4.28h-2.27v-.65h2.27v-2.79h.74v7.72Z"/><path class="cls-1" d="M220.3,113.51h-4.52v2.35h-.75v-2.35h-4.81v-.66h10.08v.66Zm-1,4.62h-7.66v-3.31h.74v2.65h6.92v.66Zm-.48-6.76h-7.12v-3.71h7.12v3.71Zm-.72-.64v-2.41h-5.67v2.41h5.67Z"/><path class="cls-1" d="M228.69,107.84c-.16,3.36-2.6,4.76-4.75,5.54l-.36-.56c2.18-.79,4.13-2.08,4.32-4.34h-3.79v-.64h4.59Zm3.35,10.4h-6.84v-4.14h6.84v4.14Zm-.73-.62v-2.89h-5.38v2.89h5.38Zm.73-4.17h-.74v-6.14h.74v6.14Z"/><path class="cls-1" d="M241.31,115.5c-.96-.61-1.96-1.7-2.33-2.81-.35,1.16-1.46,2.38-2.53,3.06l-.48-.52c1.76-1.06,2.64-2.69,2.64-4.15v-2.23h-2.04v-.63h4.83v.63h-2.05v2.24c0,1.5,.84,2.96,2.36,3.85l-.41,.55Zm2.2,2.43h-.72v-6.36h-1.95v-.68h1.95v-3.53h.72v10.57Zm2.11,.37h-.72v-11h.72v11Z"/><path class="cls-1" d="M256.52,116.54h-10.08v-.65h4.66v-2.52h.75v2.52h4.67v.65Zm-9.33-3.57c1.66-.6,3.87-1.93,3.87-3.49v-.85h-3.27v-.65h7.35v.65h-3.27v.85c0,1.56,2.24,2.95,3.87,3.48l-.41,.58c-1.54-.55-3.18-1.66-3.86-2.93-.69,1.31-2.52,2.5-3.87,2.93l-.41-.56Z"/><path class="cls-1" d="M262.69,107.57c1.64,0,2.78,1.12,2.78,2.5s-1.13,2.51-2.78,2.51-2.78-1.13-2.78-2.51,1.13-2.5,2.78-2.5Zm2.05,2.5c0-1.02-.79-1.85-2.05-1.85-1.34,0-2.06,.83-2.06,1.85s.72,1.86,2.06,1.86c1.26,0,2.05-.82,2.05-1.86Zm3.71,8.18h-6.86v-4.67h.74v1.62h5.39v-1.62h.73v4.67Zm-.73-.62v-1.8h-5.39v1.8h5.39Zm.73-4.74h-.74v-2.59h-1.83v-.65h1.83v-2.34h.74v5.58Z"/><path class="cls-1" d="M274.62,115.71c-1-.64-1.94-1.77-2.31-2.84-.28,1.09-1.34,2.36-2.48,3.07l-.48-.49c1.76-1.08,2.6-2.65,2.6-4.11v-1.52h-2.24v-.64h2.24v-1.67h.76v1.67h2.22v.64h-2.22v1.44c0,1.54,.81,3.05,2.33,3.95l-.42,.52Zm2.2,2.22h-.72v-5.71h-1.95v-.68h1.95v-4.17h.72v10.57Zm2.08,.37h-.72v-11h.72v11Z"/><path class="cls-1" d="M283.04,107.57c1.65,0,2.79,1.12,2.79,2.5s-1.13,2.51-2.79,2.51-2.79-1.13-2.79-2.51,1.14-2.5,2.79-2.5Zm2.05,2.5c0-1.02-.8-1.85-2.05-1.85-1.33,0-2.06,.83-2.06,1.85s.73,1.86,2.06,1.86c1.25,0,2.05-.82,2.05-1.86Zm3.59,8.18h-6.86v-4.59h.74v1.58h5.39v-1.58h.73v4.59Zm-.73-.62v-1.76h-5.39v1.76h5.39Zm.73-4.68h-.74v-5.64h.74v5.64Z"/><path class="cls-1" d="M296.83,114.92c-1.85,.28-4.19,.26-6.02,.26v-7.29h.74v6.63c2.05,0,3.72-.05,5.28-.22v.61Zm1.87,3.38h-.75v-11h.75v11Z"/><path class="cls-1" d="M306.49,115.01c-1.81,.26-3.96,.25-6.16,.25v-7.1h5.05v.64h-4.31v5.8c1.88,0,3.79-.01,5.42-.22v.62Zm3.69-3.05h-1.93v6.34h-.75v-11h.75v4.01h1.93v.65Z"/><path class="cls-1" d="M310.76,116.46h1.07v1.08h-1.07v-1.08Z"/></g><g><rect class="cls-3" x=".25" y="88.71" width="7.56" height="7.56"/><polyline class="cls-2" points="2.1 90.43 4.03 93.84 6.99 85.54"/></g></g></g></svg>