<?xml version="1.0" encoding="UTF-8"?><svg id="_레이어_2" xmlns="http://www.w3.org/2000/svg" viewBox="0 0 92.59 18"><defs><style>.cls-1{fill:#fff;}.cls-2{fill:none;stroke:#fff;stroke-miterlimit:10;stroke-width:.5px;}.cls-3{fill:#231815;}</style></defs><g id="_레이어_1-2"><g><rect class="cls-3" x="0" y="0" width="92.59" height="18"/><g><g><path class="cls-1" d="M21.21,9.32c-.7-.29-1.6-.81-2-1.53-.38,.78-1.23,1.29-1.99,1.7l-.48-.55c.99-.51,2.03-1.2,2.03-2.44v-1.23h.84v1.22c0,1.2,1.04,1.78,1.96,2.16l-.37,.67Zm2.04,2.17c0,.99-.77,1.64-2.56,1.64s-2.55-.64-2.55-1.64,.76-1.67,2.55-1.67,2.56,.67,2.56,1.67Zm-.87,0c0-.64-.61-.99-1.68-.99s-1.69,.35-1.69,.99c0,.59,.6,.96,1.69,.96s1.68-.34,1.68-.96Zm1.86-4.01h-1.21v2.13h-.83V5.02h.83v1.76h1.21v.7Z"/><path class="cls-1" d="M28.94,8.71c-.99,.13-1.85,.19-4.37,.19v-3.49h3.57v.69h-2.75v2.08c1.59,0,2.65-.05,3.55-.16v.68Zm1.35,4.23h-4.9v-3.01h4.9v3.01Zm-.84-.68v-1.63h-3.22v1.63h3.22Zm2.03-4.93h-1.2v2.13h-.83V5.02h.83v1.6h1.2v.7Z"/><path class="cls-1" d="M34.3,6.24h1.89v.7h-4.63v-.7h1.88v-1.21h.86v1.21Zm1.54,3.19c0,1.12-.69,2.05-1.96,2.05s-1.96-.87-1.96-2.05c0-1.26,.76-2.06,1.96-2.06,1.26,0,1.96,.78,1.96,2.06Zm-.81,0c0-.85-.37-1.35-1.15-1.35-.73,0-1.13,.53-1.13,1.35s.4,1.34,1.13,1.34c.78,0,1.15-.54,1.15-1.34Zm2.68-4.41v3.28h1.26v.75h-1.26v3.93h-.83V5.02h.83Z"/><path class="cls-1" d="M43.73,10.88c-1.47,.19-2.9,.21-4.2,.21v-3.23h2.42v-1.63h-2.42v-.7h3.25v3.04h-2.42v1.8c1.55,0,2.11-.08,3.37-.18v.69Zm1.67,2.1h-.83v-4.51h-1.29v-.74h1.29v-2.7h.83v7.95Z"/><path class="cls-1" d="M50.1,5.62c-.03,3.2-1.36,4.65-3.3,5.75l-.52-.62c2.01-1.17,2.91-2.45,2.94-4.41h-2.67v-.71h3.55Zm2.17-.59v3.02h1.32v.72h-1.32v4.21h-.83V5.02h.83Z"/><path class="cls-1" d="M57.8,5.62c-.03,3.21-1.4,4.56-3.34,5.65l-.54-.61c2.03-1.19,2.96-2.38,2.99-4.33h-2.71v-.71h3.59Zm2.17,7.36h-.83V5.02h.83v7.95Z"/></g><polyline class="cls-2" points="65.63 10.37 75.85 10.37 73.11 7.63"/></g></g></g></svg>