<?xml version="1.0" encoding="UTF-8"?><svg id="_레이어_2" xmlns="http://www.w3.org/2000/svg" viewBox="0 0 621.93 48.36"><defs><style>.cls-1{fill:#c71126;}.cls-2{fill:#231815;}.cls-3{fill:#9d9d9e;}</style></defs><g id="_레이어_1-2"><g><g><path class="cls-2" d="M10.81,30.41H0v-1.02H3.87v-3.67h1.27v3.67h5.67v1.02Zm-3.24-2.46c.32-1.63,.53-3.59,.54-5.34H1.51v-1.04h7.95c-.07,2.54-.29,4.47-.64,6.38h-1.25Z"/><path class="cls-2" d="M15.89,21.31c-.04,3.15-1.59,5.01-4.21,6.12l-.74-.86c2.46-1.12,3.44-2.28,3.66-4.25h-3.07v-1.01h4.36Zm4.72,11.06h-1.26v-3.27h-6.58v-1h7.84v4.27Zm0-4.91h-1.24v-3.01h-1.41v3.01h-1.21v-6.71h1.21v2.59h1.41v-2.66h1.24v6.78Z"/><path class="cls-2" d="M21.86,28.8c2.82,0,5.8-.08,7.81-.31v1.02c-1.96,.29-5.09,.32-7.81,.32v-1.03Zm3.76-1.91c-1.86,0-3.25-1.19-3.25-2.9s1.42-2.88,3.19-2.88c1.95,0,3.19,1.32,3.19,2.91s-1.21,2.87-3.13,2.87Zm1.85-2.89c0-1.08-.71-1.82-1.91-1.82s-1.93,.84-1.93,1.82c0,1.09,.73,1.85,1.95,1.85s1.88-.74,1.88-1.85Zm4.05,8.3h-1.26v-11.62h1.26v11.62Z"/><path class="cls-2" d="M32.68,29.35c1.13,0,2.29,0,3.41-.04v-1.66h1.26v1.62c1.16-.07,2.25-.13,3.14-.23v1.01c-1.96,.28-5.09,.32-7.81,.32v-1.03Zm.94-2.19v-3.41h4.8v-1.43h-4.81v-.98h6.09v3.37h-4.81v1.45h5.11v1h-6.38Zm8.72,5.14h-1.26v-11.62h1.26v11.62Z"/></g><g><path class="cls-2" d="M120.95,29.47c-.87-.56-1.79-1.63-2.19-2.57-.46,1.05-1.6,2.18-2.69,2.81l-.72-.84c1.84-1.09,2.74-2.71,2.74-4.19v-2.05h-2.11v-1.03h5.39v1.03h-2.02v2.05c0,1.57,.75,2.96,2.26,3.89l-.66,.9Zm2.64,2.47h-1.22v-6.48h-1.79v-1.03h1.79v-3.68h1.22v11.19Zm2.25,.36h-1.24v-11.62h1.24v11.62Z"/><path class="cls-2" d="M137.32,27.16h-4.75v1.21h3.31v3.87h-7.92v-3.87h3.29v-1.21h-4.74v-1.04h10.81v1.04Zm-9.8-1.82v-1.03h1.76l-.2-1.73h1.26l.18,1.73h2.79l.15-1.73h1.32l-.21,1.73h1.72v1.03h-8.76Zm.28-3.32v-1.04h8.24v1.04h-8.24Zm6.82,9.23v-1.86h-5.41v1.86h5.41Z"/><path class="cls-2" d="M143.71,26.96c-1.06-.42-2.41-1.19-3.02-2.23-.58,1.14-1.86,1.88-3,2.48l-.72-.8c1.49-.74,3.06-1.75,3.06-3.56v-1.8h1.27v1.79c0,1.75,1.58,2.6,2.96,3.15l-.55,.97Zm3.08,3.17c0,1.45-1.16,2.4-3.86,2.4s-3.85-.94-3.85-2.4,1.15-2.43,3.85-2.43,3.86,.98,3.86,2.43Zm-1.31,.01c0-.94-.92-1.45-2.54-1.45s-2.55,.52-2.55,1.45c0,.86,.91,1.4,2.55,1.4s2.54-.49,2.54-1.4Zm2.8-5.86h-1.82v3.12h-1.26v-6.7h1.26v2.57h1.82v1.02Z"/><path class="cls-2" d="M155.14,26.07c-1.49,.19-2.79,.28-6.59,.28v-5.1h5.39v1.01h-4.15v3.05c2.4,0,4-.07,5.35-.23v1Zm2.04,6.18h-7.4v-4.4h7.4v4.4Zm-1.27-1v-2.39h-4.86v2.39h4.86Zm3.06-7.21h-1.81v3.12h-1.26v-6.48h1.26v2.34h1.81v1.02Z"/></g><g><path class="cls-2" d="M247.06,21.61c0,.66-.05,1.27-.13,1.85h1.58v-2.7h1.22v11.19h-1.22v-4.2h-1.82v-1.07h1.82v-2.18h-1.73v-.2c-.54,2.51-1.92,4.14-3.85,5.52l-.95-.74c2.17-1.55,3.74-3.41,3.78-6.43h-3.18v-1.03h4.48Zm4.87,10.7h-1.24v-11.62h1.24v11.62Z"/><path class="cls-2" d="M256.16,20.96c1.91,0,3.11,1.32,3.11,2.85s-1.11,2.82-3.11,2.82-3.09-1.31-3.09-2.82,1.19-2.85,3.09-2.85Zm1.85,2.85c0-.97-.65-1.81-1.85-1.81s-1.83,.84-1.83,1.81,.56,1.81,1.83,1.81,1.85-.86,1.85-1.81Zm4.04,8.55h-1.26v-3.5h-6.39v-1.03h7.65v4.53Zm1.82-6.68h-1.82v1.48h-1.26v-6.48h1.26v1.45h1.82v1.04h-1.82v1.48h1.82v1.03Z"/></g><g><path class="cls-2" d="M344.84,25.86c2.8,0,5.66-.07,7.67-.3v1c-1.01,.13-2.28,.23-3.62,.29v1.74h-1.25v-1.71c-.94,.02-1.88,.02-2.8,.02v-1.03Zm3.78-4.99c1.75,0,3.02,.76,3.02,2.06s-1.25,2.1-3.02,2.1-3.01-.76-3.01-2.1,1.32-2.06,3.01-2.06Zm6.07,11.25h-8.11v-2.93h1.27v1.88h6.83v1.04Zm-6.07-10.3c-1.2,0-1.78,.42-1.78,1.12,0,.66,.61,1.09,1.8,1.09s1.77-.42,1.77-1.09c0-.71-.6-1.12-1.79-1.12Zm5.8,7.84h-1.26v-1.07h-2.61v-1.04h2.61v-6.87h1.26v8.98Z"/><path class="cls-2" d="M360.46,20.96l-3.89,11.23h-1.18l3.88-11.23h1.19Z"/><path class="cls-2" d="M371.28,28.38h-4.76v3.92h-1.27v-3.92h-4.78v-1.04h10.81v1.04Zm-1.51-2.29h-7.8v-5.21h1.23v1.69h5.33v-1.69h1.23v5.21Zm-1.23-1.01v-1.5h-5.33v1.5h5.33Z"/><path class="cls-2" d="M377.75,29.51c-1-.58-2.28-1.49-2.96-2.88-.63,1.43-1.74,2.35-2.99,3.13l-.79-.86c1.72-.98,3.12-2.45,3.12-4.44v-1.87h-2.43v-1.04h6.16v1.04h-2.44v1.92c0,1.91,1.41,3.3,2.94,4.03l-.61,.97Zm4.65-3.77h-1.98v6.56h-1.26v-11.62h1.26v3.98h1.98v1.08Z"/><path class="cls-2" d="M387.36,29.47c-.87-.56-1.79-1.63-2.19-2.57-.46,1.05-1.6,2.18-2.69,2.81l-.72-.84c1.83-1.09,2.74-2.71,2.74-4.19v-2.05h-2.11v-1.03h5.39v1.03h-2.02v2.05c0,1.57,.75,2.96,2.26,3.89l-.66,.9Zm4.88,2.83h-1.24v-6.52h-1.36v6.17h-1.22v-11.19h1.22v3.92h1.36v-3.99h1.24v11.62Z"/><path class="cls-2" d="M361.44,36.9c1.84,0,3.12,1.24,3.12,2.75s-1.25,2.77-3.12,2.77-3.11-1.25-3.11-2.77,1.31-2.75,3.11-2.75Zm1.85,2.75c0-.96-.73-1.7-1.85-1.7s-1.82,.74-1.82,1.7,.66,1.73,1.82,1.73,1.85-.76,1.85-1.73Zm4.36,8.6h-7.54v-4.94h1.25v1.57h5.02v-1.57h1.27v4.94Zm-1.27-1.01v-1.34h-5.02v1.34h5.02Zm1.26-4.53h-1.26v-6.02h1.26v6.02Z"/><path class="cls-2" d="M379.56,46.41h-10.81v-1.02h3.87v-3.67h1.27v3.67h5.67v1.02Zm-3.24-2.46c.32-1.63,.53-3.59,.54-5.34h-6.61v-1.04h7.95c-.07,2.54-.29,4.47-.63,6.38h-1.25Z"/></g><g><path class="cls-2" d="M461.36,29.47c-.87-.56-1.79-1.63-2.19-2.57-.46,1.05-1.6,2.18-2.69,2.81l-.72-.84c1.83-1.09,2.74-2.71,2.74-4.19v-2.05h-2.11v-1.03h5.39v1.03h-2.02v2.05c0,1.57,.75,2.96,2.26,3.89l-.66,.9Zm2.63,2.47h-1.22v-6.48h-1.79v-1.03h1.79v-3.68h1.22v11.19Zm2.25,.36h-1.24v-11.62h1.24v11.62Z"/><path class="cls-2" d="M477.73,27.16h-4.75v1.21h3.3v3.87h-7.92v-3.87h3.29v-1.21h-4.74v-1.04h10.81v1.04Zm-9.8-1.82v-1.03h1.76l-.2-1.73h1.26l.18,1.73h2.79l.15-1.73h1.32l-.21,1.73h1.72v1.03h-8.76Zm.28-3.32v-1.04h8.24v1.04h-8.24Zm6.82,9.23v-1.86h-5.41v1.86h5.41Z"/><path class="cls-2" d="M483.01,26.98c-.99-.53-1.78-1.2-2.21-2.03-.43,.84-1.34,1.66-2.43,2.35l-.8-.84c1.09-.66,2.56-1.79,2.56-3.35v-2.08h1.26v2.08c0,1.49,1.2,2.43,2.22,2.94l-.6,.92Zm4.85,3.17c0,1.88-2.04,2.37-3.95,2.37s-3.94-.49-3.94-2.37,2.13-2.4,3.94-2.4,3.95,.54,3.95,2.4Zm-1.3,.01c0-1.09-1.44-1.4-2.64-1.4s-2.64,.31-2.64,1.4,1.48,1.37,2.64,1.37,2.64-.26,2.64-1.37Zm1.2-2.6h-1.23v-3.23h-1.25v2.77h-1.21v-6.34h1.21v2.5h1.25v-2.57h1.23v6.87Z"/><path class="cls-2" d="M494.93,27.33c-1.06-.37-2.41-1.19-3.02-2.2-.58,1.15-1.86,1.9-3,2.47l-.72-.79c1.49-.74,3.06-1.74,3.06-3.56v-2.16h1.27v2.15c0,1.73,1.58,2.59,2.96,3.15l-.55,.94Zm3.14,4.8h-7.75v-3.93h1.26v2.89h6.49v1.04Zm-.39-11.44v3.13h1.82v1.03h-1.82v4.19h-1.26v-8.35h1.26Z"/><path class="cls-2" d="M508.61,26.04h-5.37v-4.95h5.37v4.95Zm3.53,6.43c-1.59-.48-3.13-1.32-3.82-2.35-.74,1.1-2.54,1.99-3.82,2.35l-.68-.94c1.93-.54,3.21-1.4,3.73-2.37h-3.27v-1.01h3.4v-1.27h1.32v1.27h3.36v1.01h-3.26c.59,1.14,2.2,1.99,3.73,2.37l-.68,.94Zm-4.78-7.41v-2.96h-2.87v2.96h2.87Zm3.44-4.38h1.26v6.3h-1.26v-6.3Z"/><path class="cls-2" d="M473.85,43.16h-4.75v1.21h3.3v3.87h-7.92v-3.87h3.29v-1.21h-4.74v-1.04h10.81v1.04Zm-9.8-1.82v-1.03h1.76l-.2-1.73h1.26l.18,1.73h2.79l.15-1.73h1.32l-.21,1.73h1.72v1.03h-8.76Zm.28-3.32v-1.04h8.24v1.04h-8.24Zm6.82,9.23v-1.86h-5.41v1.86h5.41Z"/><path class="cls-2" d="M480.67,42.32c-1.01-.4-2.32-1.2-2.96-2.2-.59,1.12-1.81,1.86-2.95,2.45l-.71-.8c1.49-.72,3-1.66,3-3.49v-.19h-2.38v-1h6v1h-2.35v.18c0,1.75,1.51,2.53,2.89,3.11l-.54,.95Zm3.21,6.04h-7.89v-3.15h6.32v-1.07h-6.32v-1h7.6v3.06h-6.3v1.19h6.6v.97Zm-.26-5.9h-1.26v-5.78h1.26v5.78Z"/><path class="cls-2" d="M490.76,37.25c-.15,3.61-2.71,5-5.18,5.85l-.65-.9c2.25-.8,4.29-1.87,4.47-3.95h-3.82v-1.01h5.18Zm3.54,11h-7.52v-4.45h7.52v4.45Zm-1.25-1v-2.43h-5.01v2.43h5.01Zm1.25-4.11h-1.26v-2.59h-2.19v-1.04h2.19v-2.82h1.26v6.45Z"/><path class="cls-2" d="M499.52,37.21v3.23c0,1.89,1.52,3.27,3.05,4.03l-.61,.98c-.99-.58-2.36-1.51-3.07-2.88-.64,1.36-1.88,2.35-3.12,3.12l-.79-.86c1.72-.98,3.26-2.45,3.26-4.43v-3.19h1.28Zm5.15-.53v3.92h1.95v1.08h-1.95v6.62h-1.26v-11.62h1.26Z"/></g><g><path class="cls-2" d="M583.92,29.47c-.87-.56-1.79-1.63-2.19-2.57-.46,1.05-1.6,2.18-2.69,2.81l-.72-.84c1.84-1.09,2.74-2.71,2.74-4.19v-2.05h-2.11v-1.03h5.39v1.03h-2.02v2.05c0,1.57,.75,2.96,2.26,3.89l-.66,.9Zm2.64,2.47h-1.22v-6.48h-1.79v-1.03h1.79v-3.68h1.22v11.19Zm2.25,.36h-1.23v-11.62h1.23v11.62Z"/><path class="cls-2" d="M600.3,27.16h-4.75v1.21h3.31v3.87h-7.92v-3.87h3.29v-1.21h-4.74v-1.04h10.81v1.04Zm-9.8-1.82v-1.03h1.77l-.2-1.73h1.26l.18,1.73h2.79l.15-1.73h1.32l-.21,1.73h1.72v1.03h-8.77Zm.28-3.32v-1.04h8.23v1.04h-8.23Zm6.82,9.23v-1.86h-5.41v1.86h5.41Z"/><path class="cls-2" d="M611.11,26.56h-4.75v1.02h3.3v2.82h-6.61v1.01h6.93v.96h-8.24v-2.89h6.62v-.95h-6.62v-.95h3.29v-1.02h-4.74v-1.02h10.81v1.02Zm-4.75-5.18h3.45v.98h-3.33c.54,.91,2.14,1.39,3.84,1.73l-.59,.89c-1.87-.36-3.27-.9-4.01-1.71-.71,.8-2.25,1.38-3.99,1.71l-.6-.89c1.82-.34,3.41-.78,3.85-1.73h-3.34v-.98h3.44v-1.12h1.29v1.12Z"/><path class="cls-2" d="M621.93,30.41h-10.81v-1.02h3.87v-3.67h1.27v3.67h5.67v1.02Zm-3.24-2.46c.32-1.63,.53-3.59,.54-5.34h-6.61v-1.04h7.95c-.07,2.54-.29,4.47-.64,6.38h-1.25Z"/></g><g><g><path class="cls-3" d="M10.79,.84c-.46-.27-.82-.4-1.31-.4-.75,0-1.21,.38-1.21,.94,0,.69,.58,.92,1.52,1.33,.82,.36,1.52,.87,1.52,1.66,0,1.06-.94,1.52-1.85,1.52-.68,0-1.3-.2-1.89-.67l.24-.35c.42,.34,1,.62,1.59,.62s1.43-.26,1.43-1.11c0-.58-.54-.95-1.42-1.33-.87-.37-1.61-.75-1.61-1.63C7.8,.38,8.69,.04,9.48,.04c.56,0,1.08,.19,1.54,.45l-.22,.35Z"/><path class="cls-3" d="M15.71,.5h-1.81V5.8h-.46V.5h-1.8V.13h4.08v.38Z"/><path class="cls-3" d="M20.29,5.8h-3.59V.13h3.51v.38h-3.05V2.65h2.89v.38h-2.89v2.39h3.13v.38Z"/><path class="cls-3" d="M23.31,.13c1.06,0,1.84,.7,1.84,1.73s-.78,1.74-1.83,1.74h-1.41v2.21h-.46V.13h1.86Zm-1.4,.38V3.19h1.38c.79,0,1.38-.53,1.38-1.34s-.58-1.35-1.38-1.35h-1.38Z"/><path class="cls-3" d="M28.42,2.93c0-1.18,.42-2.89,1.84-2.89s1.86,1.68,1.86,2.9c0,1.33-.42,2.96-1.86,2.96s-1.84-1.79-1.84-2.97Zm.45,0c0,.96,.27,2.58,1.39,2.58,1.18,0,1.42-1.64,1.42-2.57s-.26-2.5-1.41-2.5-1.4,1.58-1.4,2.49Z"/><path class="cls-3" d="M34.12,5.8V.7l-.92,.76-.23-.29,1.23-1.04h.38V5.8h-.46Z"/></g><g><path class="cls-3" d="M126.02,.84c-.46-.27-.82-.4-1.31-.4-.75,0-1.21,.38-1.21,.94,0,.69,.58,.92,1.52,1.33,.82,.36,1.52,.87,1.52,1.66,0,1.06-.94,1.52-1.85,1.52-.68,0-1.3-.2-1.89-.67l.24-.35c.42,.34,1,.62,1.59,.62s1.43-.26,1.43-1.11c0-.58-.54-.95-1.42-1.33-.87-.37-1.62-.75-1.62-1.63,0-1.04,.89-1.38,1.67-1.38,.56,0,1.08,.19,1.54,.45l-.22,.35Z"/><path class="cls-3" d="M130.94,.5h-1.82V5.8h-.46V.5h-1.8V.13h4.08v.38Z"/><path class="cls-3" d="M135.52,5.8h-3.59V.13h3.51v.38h-3.05V2.65h2.89v.38h-2.89v2.39h3.13v.38Z"/><path class="cls-3" d="M138.54,.13c1.06,0,1.84,.7,1.84,1.73s-.78,1.74-1.83,1.74h-1.41v2.21h-.46V.13h1.86Zm-1.4,.38V3.19h1.38c.79,0,1.38-.53,1.38-1.34s-.58-1.35-1.38-1.35h-1.38Z"/><path class="cls-3" d="M143.65,2.93c0-1.18,.42-2.89,1.84-2.89s1.86,1.68,1.86,2.9c0,1.33-.42,2.96-1.86,2.96s-1.84-1.79-1.84-2.97Zm.45,0c0,.96,.27,2.58,1.39,2.58,1.18,0,1.42-1.64,1.42-2.57s-.26-2.5-1.41-2.5-1.4,1.58-1.4,2.49Z"/><path class="cls-3" d="M151.71,5.42v.38h-3.36v-.45l1.28-1.38c1.18-1.28,1.52-1.86,1.52-2.41,0-.59-.42-1.12-1.22-1.12-.52,0-.98,.26-1.34,.58l-.24-.31c.5-.44,1.05-.66,1.61-.66,1.02,0,1.64,.66,1.64,1.5,0,.8-.62,1.54-1.66,2.7l-1.06,1.16h2.83Z"/></g><g><path class="cls-3" d="M241.95,.84c-.46-.27-.82-.4-1.31-.4-.75,0-1.21,.38-1.21,.94,0,.69,.58,.92,1.52,1.33,.82,.36,1.52,.87,1.52,1.66,0,1.06-.94,1.52-1.85,1.52-.68,0-1.3-.2-1.89-.67l.24-.35c.42,.34,1,.62,1.59,.62s1.43-.26,1.43-1.11c0-.58-.54-.95-1.42-1.33-.87-.37-1.62-.75-1.62-1.63,0-1.04,.89-1.38,1.67-1.38,.56,0,1.08,.19,1.54,.45l-.22,.35Z"/><path class="cls-3" d="M246.86,.5h-1.82V5.8h-.46V.5h-1.8V.13h4.08v.38Z"/><path class="cls-3" d="M251.44,5.8h-3.59V.13h3.51v.38h-3.05V2.65h2.89v.38h-2.89v2.39h3.13v.38Z"/><path class="cls-3" d="M254.47,.13c1.06,0,1.84,.7,1.84,1.73s-.78,1.74-1.83,1.74h-1.41v2.21h-.46V.13h1.86Zm-1.4,.38V3.19h1.38c.79,0,1.38-.53,1.38-1.34s-.58-1.35-1.38-1.35h-1.38Z"/><path class="cls-3" d="M259.57,2.93c0-1.18,.42-2.89,1.84-2.89s1.86,1.68,1.86,2.9c0,1.33-.42,2.96-1.86,2.96s-1.84-1.79-1.84-2.97Zm.45,0c0,.96,.27,2.58,1.39,2.58,1.18,0,1.42-1.64,1.42-2.57s-.26-2.5-1.41-2.5-1.4,1.58-1.4,2.49Z"/><path class="cls-3" d="M264.33,.59c.44-.33,.93-.55,1.5-.55,.88,0,1.64,.46,1.64,1.36,0,.57-.4,1.09-1.14,1.31,.84,.19,1.39,.73,1.39,1.53,0,.92-.74,1.66-1.78,1.66-.65,0-1.28-.21-1.75-.57l.23-.34c.41,.31,.98,.5,1.49,.5,.98,0,1.34-.73,1.34-1.28,0-1.04-.98-1.3-1.8-1.3h-.37v-.39h.37c.72,0,1.54-.38,1.54-1.14,0-.63-.49-.95-1.21-.95-.48,0-.85,.21-1.22,.46l-.25-.3Z"/></g><g><path class="cls-3" d="M357.87,.84c-.46-.27-.82-.4-1.31-.4-.75,0-1.21,.38-1.21,.94,0,.69,.58,.92,1.52,1.33,.82,.36,1.52,.87,1.52,1.66,0,1.06-.94,1.52-1.85,1.52-.68,0-1.3-.2-1.89-.67l.24-.35c.42,.34,1,.62,1.59,.62s1.43-.26,1.43-1.11c0-.58-.54-.95-1.42-1.33-.87-.37-1.62-.75-1.62-1.63,0-1.04,.89-1.38,1.67-1.38,.56,0,1.08,.19,1.54,.45l-.22,.35Z"/><path class="cls-3" d="M362.78,.5h-1.81V5.8h-.46V.5h-1.8V.13h4.08v.38Z"/><path class="cls-3" d="M367.36,5.8h-3.59V.13h3.51v.38h-3.05V2.65h2.89v.38h-2.89v2.39h3.13v.38Z"/><path class="cls-3" d="M370.39,.13c1.06,0,1.84,.7,1.84,1.73s-.78,1.74-1.83,1.74h-1.41v2.21h-.46V.13h1.86Zm-1.4,.38V3.19h1.38c.79,0,1.38-.53,1.38-1.34s-.58-1.35-1.38-1.35h-1.38Z"/><path class="cls-3" d="M375.49,2.93c0-1.18,.42-2.89,1.84-2.89s1.86,1.68,1.86,2.9c0,1.33-.42,2.96-1.86,2.96s-1.84-1.79-1.84-2.97Zm.45,0c0,.96,.27,2.58,1.39,2.58,1.18,0,1.42-1.64,1.42-2.57s-.26-2.5-1.41-2.5-1.4,1.58-1.4,2.49Z"/><path class="cls-3" d="M383.9,4.29h-.82v1.52h-.46v-1.52h-2.68v-.43l2.69-3.73h.46V3.91h.82v.38Zm-1.29-.38V.82l-2.21,3.09h2.21Z"/></g><g><path class="cls-3" d="M473.85,.84c-.46-.27-.82-.4-1.31-.4-.75,0-1.21,.38-1.21,.94,0,.69,.58,.92,1.52,1.33,.82,.36,1.52,.87,1.52,1.66,0,1.06-.94,1.52-1.85,1.52-.68,0-1.3-.2-1.89-.67l.24-.35c.42,.34,1,.62,1.59,.62s1.43-.26,1.43-1.11c0-.58-.54-.95-1.42-1.33-.87-.37-1.62-.75-1.62-1.63,0-1.04,.89-1.38,1.67-1.38,.56,0,1.08,.19,1.54,.45l-.22,.35Z"/><path class="cls-3" d="M478.76,.5h-1.82V5.8h-.46V.5h-1.8V.13h4.08v.38Z"/><path class="cls-3" d="M483.34,5.8h-3.59V.13h3.51v.38h-3.05V2.65h2.89v.38h-2.89v2.39h3.13v.38Z"/><path class="cls-3" d="M486.37,.13c1.06,0,1.84,.7,1.84,1.73s-.78,1.74-1.83,1.74h-1.41v2.21h-.46V.13h1.86Zm-1.4,.38V3.19h1.38c.79,0,1.38-.53,1.38-1.34s-.58-1.35-1.38-1.35h-1.38Z"/><path class="cls-3" d="M491.47,2.93c0-1.18,.42-2.89,1.84-2.89s1.86,1.68,1.86,2.9c0,1.33-.42,2.96-1.86,2.96s-1.84-1.79-1.84-2.97Zm.45,0c0,.96,.27,2.58,1.39,2.58,1.17,0,1.41-1.64,1.41-2.57s-.26-2.5-1.41-2.5-1.4,1.58-1.4,2.49Z"/><path class="cls-3" d="M498.51,2.53c.72,.28,1.1,.93,1.1,1.58,0,.91-.69,1.8-1.88,1.8-.62,0-1.19-.19-1.66-.59l.25-.32c.46,.38,.97,.51,1.36,.51,.92,0,1.46-.67,1.46-1.4,0-.78-.59-1.38-1.76-1.38-.28,0-.59,.03-.87,.06l.09-2.67h2.72V.49h-2.28l-.06,1.88c.13-.02,.32-.02,.46-.02,.36,0,.74,.05,1.07,.18Z"/></g><g><path class="cls-3" d="M589.71,.84c-.46-.27-.82-.4-1.31-.4-.75,0-1.21,.38-1.21,.94,0,.69,.58,.92,1.52,1.33,.82,.36,1.52,.87,1.52,1.66,0,1.06-.94,1.52-1.85,1.52-.68,0-1.3-.2-1.89-.67l.24-.35c.42,.34,1,.62,1.59,.62s1.43-.26,1.43-1.11c0-.58-.54-.95-1.42-1.33-.87-.37-1.62-.75-1.62-1.63,0-1.04,.89-1.38,1.67-1.38,.56,0,1.08,.19,1.54,.45l-.22,.35Z"/><path class="cls-3" d="M594.63,.5h-1.82V5.8h-.46V.5h-1.8V.13h4.08v.38Z"/><path class="cls-3" d="M599.21,5.8h-3.59V.13h3.51v.38h-3.05V2.65h2.89v.38h-2.89v2.39h3.13v.38Z"/><path class="cls-3" d="M602.23,.13c1.06,0,1.84,.7,1.84,1.73s-.78,1.74-1.83,1.74h-1.41v2.21h-.46V.13h1.86Zm-1.4,.38V3.19h1.38c.79,0,1.38-.53,1.38-1.34s-.58-1.35-1.38-1.35h-1.38Z"/><path class="cls-3" d="M607.34,2.93c0-1.18,.42-2.89,1.84-2.89s1.86,1.68,1.86,2.9c0,1.33-.42,2.96-1.86,2.96s-1.84-1.79-1.84-2.97Zm.45,0c0,.96,.27,2.58,1.39,2.58,1.17,0,1.41-1.64,1.41-2.57s-.26-2.5-1.41-2.5-1.4,1.58-1.4,2.49Z"/><path class="cls-3" d="M614.92,.39c-1.32,.29-2.17,1.22-2.44,2.5,.5-.53,1.08-.66,1.51-.66,1.06,0,1.66,.83,1.66,1.76,0,1.07-.66,1.9-1.78,1.9s-1.87-.83-1.87-2.43c0-1.68,1.12-3.13,2.81-3.47l.1,.39Zm.28,3.64c0-.78-.5-1.42-1.3-1.42-.53,0-1.06,.21-1.42,.7-.02,.11-.02,.25-.02,.38,0,.87,.41,1.82,1.4,1.82,.83,0,1.34-.65,1.34-1.48Z"/></g></g><g><polygon class="cls-1" points="75.73 31.35 75.73 23.06 82.8 27.2 75.73 31.35"/><polygon class="cls-1" points="191.48 31.35 191.48 23.06 198.54 27.2 191.48 31.35"/><polygon class="cls-1" points="307.22 31.35 307.22 23.06 314.28 27.2 307.22 31.35"/><polygon class="cls-1" points="422.96 31.35 422.96 23.06 430.03 27.2 422.96 31.35"/><polygon class="cls-1" points="538.71 31.35 538.71 23.06 545.77 27.2 538.71 31.35"/></g></g></g></svg>