<?xml version="1.0" encoding="UTF-8"?><svg id="_레이어_2" xmlns="http://www.w3.org/2000/svg" viewBox="0 0 624.05 57.26"><defs><style>.cls-1{fill:#595757;}.cls-2{fill:#231815;}</style></defs><g id="_레이어_1-2"><g><path class="cls-2" d="M304.19,10.21c0,3.73-2.1,6.87-6.16,6.87s-6.15-3.14-6.15-6.87,2.13-6.87,6.15-6.87,6.16,3.15,6.16,6.87Zm-6.16-4.95c-2.45,0-3.73,2.43-3.73,4.95s1.26,4.96,3.73,4.96,3.75-2.42,3.75-4.96-1.28-4.95-3.75-4.95Z"/><path class="cls-2" d="M310.51,3.51c3.94,0,6.32,2.82,6.32,6.69,0,3.67-2.45,6.69-6.32,6.69h-4.48V3.51h4.48Zm-.05,11.49c2.61,0,4.02-2.18,4.02-4.82,0-2.93-1.55-4.79-4.02-4.79h-2.11V15h2.11Z"/><path class="cls-2" d="M324.73,10.9l3.95-7.4h2.18v13.38h-2.27V7.89l-2.96,5.68h-1.81l-2.95-5.68v9h-2.27V3.51h2.18l3.95,7.4Z"/></g><g><path class="cls-1" d="M354.08,9.88c-1.06-.42-2.41-1.19-3.02-2.23-.58,1.14-1.86,1.88-3,2.48l-.72-.8c1.49-.74,3.06-1.75,3.06-3.56v-1.8h1.27v1.79c0,1.75,1.58,2.6,2.96,3.15l-.55,.97Zm3.08,3.17c0,1.45-1.16,2.4-3.86,2.4s-3.85-.94-3.85-2.4,1.15-2.43,3.85-2.43,3.86,.98,3.86,2.43Zm-1.31,.01c0-.94-.92-1.45-2.54-1.45s-2.55,.52-2.55,1.45c0,.86,.91,1.4,2.55,1.4s2.54-.49,2.54-1.4Zm2.8-5.86h-1.82v3.12h-1.26V3.6h1.26v2.57h1.82v1.02Z"/><path class="cls-1" d="M369.33,10.08h-4.75v1.21h3.31v3.87h-7.92v-3.87h3.29v-1.21h-4.74v-1.04h10.81v1.04Zm-9.8-1.82v-1.03h1.76l-.2-1.73h1.26l.18,1.73h2.79l.15-1.73h1.32l-.21,1.73h1.72v1.03h-8.76Zm.28-3.32v-1.04h8.24v1.04h-8.24Zm6.82,9.24v-1.86h-5.41v1.86h5.41Z"/><path class="cls-1" d="M375.62,4.47c-.05,4.69-2.12,6.67-5.04,8.25l-.81-.89c3.06-1.74,4.47-3.48,4.52-6.32h-4.09v-1.04h5.42Zm3.28,10.76h-1.26V3.6h1.26V15.22Z"/><path class="cls-1" d="M384.35,5.81c1.78,0,2.91,.7,2.91,1.75,0,.9-.87,1.59-2.31,1.74v.58c1.16-.05,2.25-.12,3.18-.24v.95c-1.94,.3-4.96,.36-7.69,.36v-1c1.09,0,2.2-.01,3.27-.04v-.61c-1.45-.16-2.27-.85-2.27-1.74,0-1.03,1.08-1.75,2.92-1.75Zm3.2-.25h-6.67v-1.01h2.8v-1.1h1.29v1.1h2.58v1.01Zm2.45,9.73h-1.26v-2.55h-6.66v-1.01h7.92v3.56Zm-4.01-7.72c0-.53-.54-.84-1.64-.84s-1.67,.31-1.67,.84,.6,.88,1.67,.88,1.64-.38,1.64-.88Zm4.01,3.57h-1.26V3.6h1.26v7.53Z"/><path class="cls-1" d="M393.81,4.27c1.54,0,2.49,1.28,2.66,3.38h1.12V3.68h1.24V14.87h-1.24v-6.1h-1.09c-.09,2.29-1.05,3.68-2.68,3.68s-2.64-1.57-2.64-4.09,.99-4.08,2.64-4.08Zm-1.41,4.07c0,1.7,.47,3.02,1.4,3.02,1.04,0,1.47-1.31,1.47-3.02s-.44-3.01-1.47-3.01-1.4,1.33-1.4,3.01Zm8.52,6.88h-1.24V3.6h1.24V15.22Z"/><path class="cls-1" d="M406.13,4.13v3.23c0,1.89,1.53,3.27,3.05,4.03l-.61,.98c-.99-.58-2.36-1.51-3.06-2.88-.64,1.36-1.88,2.35-3.12,3.12l-.81-.86c1.73-.98,3.27-2.45,3.27-4.43v-3.19h1.28Zm5.47,11.09h-1.26v-7.16h-2.49v-1.04h2.49V3.6h1.26V15.22Z"/><path class="cls-1" d="M420.59,4.53c-.01,4.14-1.58,6.37-4.13,8.2l-.95-.74c2.17-1.55,3.74-3.41,3.78-6.43h-3.18v-1.03h4.48Zm4.87,10.7h-1.24v-6.5h-1.41v6.14h-1.22V3.68h1.22v3.95h1.41V3.6h1.24V15.22Z"/><path class="cls-1" d="M432.24,9.02h-5.48V3.96h1.25v1.68h2.99v-1.68h1.25v5.06Zm-1.25-.98v-1.4h-2.99v1.4h2.99Zm4.8,7.24h-7.79v-3.07h6.22v-1.1h-6.22v-.98h7.52v3.06h-6.22v1.13h6.49v.97Zm1.53-8.44h-1.82v2.63h-1.26V3.6h1.26v2.18h1.82v1.06Z"/><path class="cls-1" d="M437.91,12.71h1.59v1.16c0,.34-.02,.53-.07,.72-.19,.71-.66,1.34-1.24,1.7l-.38-.38c.34-.26,.88-.91,.88-1.71h-.79v-1.49Z"/><path class="cls-1" d="M448.39,9.9c-.99-.53-1.78-1.2-2.21-2.03-.43,.84-1.34,1.66-2.43,2.35l-.8-.84c1.09-.66,2.57-1.79,2.57-3.35V3.96h1.26v2.08c0,1.49,1.2,2.43,2.22,2.94l-.6,.92Zm4.85,3.17c0,1.88-2.04,2.37-3.95,2.37s-3.94-.49-3.94-2.37,2.13-2.4,3.94-2.4,3.95,.54,3.95,2.4Zm-1.31,.01c0-1.09-1.43-1.4-2.63-1.4s-2.64,.31-2.64,1.4,1.48,1.37,2.64,1.37,2.63-.26,2.63-1.37Zm1.2-2.6h-1.24v-3.23h-1.25v2.77h-1.21V3.68h1.21v2.5h1.25V3.6h1.24v6.87Z"/><path class="cls-1" d="M460.32,10.25c-1.06-.37-2.41-1.19-3.02-2.2-.58,1.15-1.86,1.89-3,2.47l-.72-.79c1.49-.74,3.06-1.74,3.06-3.56v-2.16h1.27v2.15c0,1.73,1.58,2.59,2.96,3.15l-.55,.94Zm3.14,4.8h-7.75v-3.93h1.26v2.89h6.49v1.04Zm-.39-11.44v3.13h1.82v1.03h-1.82v4.19h-1.26V3.6h1.26Z"/><path class="cls-1" d="M465.36,12.71h1.59v1.16c0,.34-.02,.53-.07,.72-.19,.71-.66,1.34-1.24,1.7l-.38-.38c.34-.26,.88-.91,.88-1.71h-.79v-1.49Z"/><path class="cls-1" d="M481.38,10.08h-4.75v1.21h3.31v3.87h-7.92v-3.87h3.29v-1.21h-4.74v-1.04h10.81v1.04Zm-9.8-1.82v-1.03h1.76l-.2-1.73h1.26l.18,1.73h2.79l.15-1.73h1.32l-.21,1.73h1.72v1.03h-8.76Zm.28-3.32v-1.04h8.24v1.04h-8.24Zm6.82,9.24v-1.86h-5.41v1.86h5.41Z"/><path class="cls-1" d="M488.2,9.24c-1.01-.4-2.32-1.2-2.96-2.2-.59,1.12-1.81,1.86-2.95,2.45l-.71-.8c1.49-.72,3-1.66,3-3.49v-.19h-2.38v-1h6v1h-2.35v.18c0,1.75,1.51,2.53,2.89,3.11l-.54,.95Zm3.21,6.04h-7.89v-3.15h6.32v-1.07h-6.32v-1h7.6v3.06h-6.31v1.19h6.6v.97Zm-.26-5.9h-1.26V3.6h1.26v5.78Z"/><path class="cls-1" d="M492.11,9.3c.81,0,1.6,0,2.38-.02v-2.48h1.27v2.46c1.34-.05,2.58-.13,3.66-.25v1c-1.95,.28-4.58,.32-7.31,.32v-1.02Zm6.58-5.1c-.06,1.2-.23,3.2-.36,4.01h-1.27c.12-.79,.26-2.16,.31-3h-4.58v-1.01h5.91Zm3.04,10.84h-7.91v-3.61h1.29v2.57h6.61v1.04Zm1.46-6.79h-1.82v3.75h-1.26V3.6h1.26v3.63h1.82v1.02Z"/><path class="cls-1" d="M510.54,12.14c-2.21,.28-4.58,.32-6.55,.32V7.75h3.91v-2.39h-3.91v-1.02h5.15v4.44h-3.91v2.6c2.12,0,3.44-.1,5.31-.24v1Zm2.09,3.08h-1.26V3.6h1.26V15.22Z"/><path class="cls-1" d="M516.68,4.27c1.54,0,2.49,1.28,2.66,3.38h1.12V3.68h1.24V14.87h-1.24v-6.1h-1.09c-.09,2.29-1.05,3.68-2.68,3.68s-2.63-1.57-2.63-4.09,.99-4.08,2.63-4.08Zm-1.41,4.07c0,1.7,.47,3.02,1.4,3.02,1.04,0,1.47-1.31,1.47-3.02s-.43-3.01-1.47-3.01-1.4,1.33-1.4,3.01Zm8.52,6.88h-1.24V3.6h1.24V15.22Z"/><path class="cls-1" d="M528.99,4.13v3.23c0,1.89,1.53,3.27,3.05,4.03l-.61,.98c-.99-.58-2.37-1.51-3.06-2.88-.63,1.36-1.88,2.35-3.12,3.12l-.81-.86c1.73-.98,3.27-2.45,3.27-4.43v-3.19h1.28Zm5.47,11.09h-1.26v-7.16h-2.49v-1.04h2.49V3.6h1.26V15.22Z"/><path class="cls-1" d="M549.35,9.48h-4.75v1.02h3.31v2.82h-6.61v1.01h6.93v.96h-8.24v-2.89h6.62v-.95h-6.62v-.95h3.29v-1.02h-4.74v-1.02h10.81v1.02Zm-4.75-5.18h3.45v.98h-3.33c.54,.91,2.14,1.39,3.83,1.73l-.59,.89c-1.87-.36-3.27-.9-4.01-1.71-.71,.8-2.25,1.38-3.99,1.71l-.6-.89c1.82-.34,3.41-.78,3.85-1.73h-3.34v-.98h3.44v-1.12h1.29v1.12Z"/><path class="cls-1" d="M553.37,5.38h2.86v1.02h-6.99v-1.02h2.83v-1.77h1.29v1.77Zm2.32,4.67c0,1.64-1.05,3-2.95,3s-2.96-1.27-2.96-3c0-1.85,1.15-3.01,2.96-3.01,1.91,0,2.95,1.14,2.95,3.01Zm-1.22,0c0-1.24-.55-1.97-1.73-1.97-1.11,0-1.71,.77-1.71,1.97s.6,1.96,1.71,1.96c1.18,0,1.73-.79,1.73-1.96Zm4.05-6.44v4.79h1.89v1.09h-1.89v5.74h-1.26V3.6h1.26Z"/><path class="cls-1" d="M562.86,4.51c1.44,0,2.33,1.27,2.46,3.37h1.39V3.84h.88V14.67h-.88v-5.97h-1.38c-.06,2.25-.93,3.63-2.47,3.63s-2.48-1.5-2.48-3.91,.92-3.91,2.48-3.91Zm-1.62,3.9c0,1.75,.54,3.12,1.61,3.12,1.14,0,1.64-1.36,1.64-3.12s-.49-3.12-1.64-3.12-1.61,1.39-1.61,3.12Zm8.42,6.62h-.87V3.78h.87V15.03Z"/><path class="cls-1" d="M579.61,8.33c0,2.58-1.01,3.96-2.83,3.96s-2.83-1.38-2.83-3.96,1.09-3.95,2.83-3.95,2.83,1.32,2.83,3.95Zm-.89-.01c0-1.97-.58-3.18-1.93-3.18s-1.95,1.19-1.95,3.18,.62,3.2,1.95,3.2,1.93-1.27,1.93-3.2Zm3.86,6.72h-.89V3.78h.89V15.03Z"/><path class="cls-1" d="M594.19,12.47v.75h-10.36v-.75h10.36Zm-8.88-1.99v-3.39h6.43v-1.85h-6.47v-.76h7.37v3.35h-6.42v1.89h6.79v.76h-7.69Z"/><path class="cls-1" d="M600.04,4.63c-.04,4.56-2.06,6.5-4.76,7.99l-.6-.68c2.98-1.58,4.39-3.61,4.4-6.56h-4.05v-.74h5.01Zm3.25,10.4h-.89V3.78h.89V15.03Z"/><path class="cls-1" d="M607.73,4.63c0,3.65-.75,5.67-2.76,7.36l-.63-.56c2.08-1.59,2.49-3.54,2.49-6.06h-2.07v-.74h2.98Zm3.22,0c0,3.43-.41,6.09-2.88,8.23l-.65-.55c2.37-1.98,2.6-4.32,2.6-6.93h-1.81v-.74h2.74Zm2.33-.85v4.25h1.96v.78h-1.96v6.22h-.88V3.78h.88Z"/><path class="cls-1" d="M621.45,12.2c-.96-.56-2.31-1.54-2.93-3.07-.57,1.57-1.75,2.54-3,3.32l-.58-.65c1.66-.95,3.11-2.4,3.11-4.43v-2h-2.49v-.74h5.93v.74h-2.51v2.05c0,1.93,1.43,3.31,2.91,4.04l-.44,.73Zm2.6,2.83h-.89V3.78h.89V15.03Z"/><path class="cls-1" d="M351.64,25.14v1.09c0,1.8,1.47,2.65,2.82,3.2l-.4,.68c-1.02-.4-2.36-1.28-2.87-2.4-.49,1.3-1.71,2.1-2.85,2.69l-.52-.6c1.45-.73,2.89-1.7,2.89-3.56v-1.1h-2.34v-.74h5.59v.74h-2.33Zm5.62,9.71h-7.38v-3.63h.91v2.88h6.47v.76Zm-.26-3.13h-.88v-4.28h-2.31v-.76h2.31v-2.9h.88v7.94Z"/><path class="cls-1" d="M361.05,31.78c.71,.01,1.48,0,2.28-.01v-3.6h.91v3.57c1.48-.04,2.86-.12,3.98-.24v.74c-1.8,.26-4.56,.31-7.17,.31v-.78Zm6.19-7.15c-.11,1.99-.22,3.41-.52,5.24h-.86c.22-1.43,.34-3.05,.42-4.5h-4.65v-.74h5.6Zm2.54-.85v4.35h1.85v.77h-1.85v6.13h-.88v-11.25h.88Z"/><path class="cls-1" d="M377.71,29.79c-1.02-.41-2.37-1.22-2.87-2.34-.49,1.29-1.71,2.03-2.85,2.61l-.52-.6c1.45-.72,2.89-1.62,2.89-3.48v-.88h-2.34v-.74h5.59v.74h-2.33v.86c0,1.8,1.47,2.59,2.82,3.14l-.4,.67Zm3.05,3.13c0,1.34-1.14,2.33-3.68,2.33s-3.68-1.01-3.68-2.33,1.15-2.33,3.68-2.33,3.68,1,3.68,2.33Zm-.93,.01c0-.98-1.02-1.63-2.74-1.63s-2.74,.66-2.74,1.63c0,.91,1,1.59,2.74,1.59s2.74-.67,2.74-1.59Zm.82-2.67h-.88v-2.96h-2.31v-.77h2.31v-2.75h.88v6.48Z"/><path class="cls-1" d="M392.07,28.57v.74h-10.36v-.74h10.36Zm-8.98-2.87c0-1.18,1.39-1.94,3.78-1.94s3.78,.76,3.78,1.94c0,1.29-1.43,1.98-3.78,1.98s-3.78-.71-3.78-1.98Zm7.83,9.39h-7.79v-2.72h6.54v-1.29h-6.54v-.71h7.48v2.69h-6.52v1.33h6.82v.71Zm-6.91-9.39c0,.91,1.28,1.27,2.85,1.27s2.85-.36,2.85-1.27c0-.83-1.29-1.22-2.85-1.22s-2.85,.41-2.85,1.22Z"/><path class="cls-1" d="M400.17,32.17c-1.08-.66-2.04-1.88-2.4-2.88-.27,1.28-1.46,2.5-2.58,3.13l-.54-.63c1.8-1.06,2.66-2.67,2.66-4.16v-2.17h-2.06v-.76h5.05v.76h-2.06v2.17c0,1.57,.88,3,2.42,3.89l-.49,.66Zm2.26,2.51h-.88v-6.42h-1.98v-.79h1.98v-3.62h.88v10.83Zm2.15,.36h-.88v-11.25h.88v11.25Z"/><path class="cls-1" d="M415.7,33.32h-10.36v-.76h4.71v-2.73h.92v2.73h4.74v.76Zm-1.25-3.23c-1.41-.44-3.26-1.62-3.94-2.9-.66,1.28-2.37,2.34-3.94,2.91l-.51-.67c1.66-.52,3.95-1.91,3.95-3.51v-.68h-3.29v-.76h7.59v.76h-3.31v.68c0,1.61,2.27,2.95,3.95,3.53l-.51,.65Z"/><path class="cls-1" d="M420.1,31.08v1.44c1.28-.04,2.52-.11,3.44-.2v.73c-1.8,.26-5.04,.31-7.63,.31v-.78c.94,.01,2.11,0,3.27-.04v-1.46h.93Zm2.88-5.13h-6.81v-.73h2.99v-1.54h.93v1.54h2.89v.73Zm-3.31,4.72c-1.86,0-2.86-.94-2.86-2.11s1.01-2.12,2.8-2.12,2.85,.97,2.85,2.13-1.07,2.1-2.79,2.1Zm1.91-2.1c0-.77-.63-1.43-1.96-1.43-1.24,0-1.95,.67-1.95,1.42s.73,1.39,1.96,1.39c1.34,0,1.95-.61,1.95-1.38Zm3.54,6.46h-.88v-11.25h.88v11.25Z"/><path class="cls-1" d="M429.67,24.3v3.06c-.01,1.93,1.47,3.31,2.95,4.04l-.45,.72c-.96-.55-2.35-1.52-2.98-3.07-.56,1.58-1.8,2.55-3.05,3.33l-.58-.65c1.67-.95,3.15-2.4,3.15-4.42v-3.01h.94Zm5.09-.52v3.87h1.95v.79h-1.95v6.58h-.88v-11.25h.88Z"/><path class="cls-1" d="M439.05,24.51c1.44,0,2.33,1.27,2.46,3.37h1.39v-4.04h.88v10.83h-.88v-5.97h-1.38c-.06,2.25-.93,3.63-2.47,3.63s-2.48-1.5-2.48-3.91,.92-3.91,2.48-3.91Zm-1.62,3.9c0,1.75,.54,3.12,1.61,3.12,1.14,0,1.64-1.36,1.64-3.12s-.49-3.12-1.64-3.12-1.61,1.39-1.61,3.12Zm8.42,6.62h-.87v-11.25h.87v11.25Z"/><path class="cls-1" d="M450.72,24.3v3.06c-.01,1.93,1.48,3.31,2.95,4.04l-.45,.72c-.95-.55-2.35-1.52-2.98-3.07-.57,1.58-1.8,2.55-3.05,3.33l-.58-.65c1.67-.95,3.17-2.4,3.17-4.42v-3.01h.93Zm5.36,10.73h-.88v-7.15h-2.63v-.78h2.63v-3.32h.88v11.25Z"/><path class="cls-1" d="M470.39,30.79h-4.73v4.25h-.92v-4.25h-4.72v-.76h10.36v.76Zm-9.55-2.65c1.59-.35,3.87-1.54,3.87-2.95v-.17h-3.28v-.76h7.53v.76h-3.27v.17c0,1.37,2.21,2.57,3.87,2.95l-.41,.7c-1.54-.37-3.18-1.35-3.94-2.48-.85,1.24-2.48,2.15-3.94,2.48l-.42-.7Z"/><path class="cls-1" d="M476.01,30.43v2.13h4.73v.76h-10.36v-.76h4.72v-2.13h.92Zm-4.16-.9v-5.05h7.47v.76h-6.59v3.54h6.74v.76h-7.62Z"/><path class="cls-1" d="M484.34,25.55h2.95v.74h-6.83v-.74h2.94v-1.75h.94v1.75Zm2.29,4.39c0,1.56-.99,2.85-2.74,2.85s-2.78-1.21-2.78-2.85c0-1.73,1.08-2.84,2.78-2.84s2.74,1.09,2.74,2.84Zm-.87,0c0-1.29-.6-2.09-1.87-2.09s-1.88,.83-1.88,2.09,.65,2.08,1.88,2.08,1.87-.83,1.87-2.08Zm3.62-6.15v4.76h1.96v.79h-1.96v5.7h-.88v-11.25h.88Z"/><path class="cls-1" d="M497.07,28.45c0,2.59-1.07,3.96-2.75,3.96s-2.75-1.37-2.75-3.96,1.08-3.95,2.75-3.95,2.75,1.32,2.75,3.95Zm-.89-.01c0-1.97-.62-3.18-1.85-3.18s-1.87,1.19-1.87,3.18,.65,3.21,1.87,3.21,1.85-1.27,1.85-3.21Zm1.22-2.35h2v-2.3h.89v11.25h-.89v-4.67h-2v-.78h2v-2.73h-2v-.77Z"/><path class="cls-1" d="M504.22,29.25h1.45l-.13-3.41h.88l.12,3.39c.73-.01,1.49-.04,2.2-.07l.12-3.32h.89l-.15,3.29c.68-.05,1.34-.1,1.88-.16v.71c-1.8,.28-4.65,.32-7.26,.32v-.76Zm.27-4.11v-.74h6.29v.74h-6.29Zm8.94,9.71h-7.34v-3.55h.91v2.79h6.44v.76Zm-.4-11.07v3.2h1.81v.76h-1.81v4.16h-.88v-8.12h.88Z"/><path class="cls-1" d="M519.41,31.97h-4.27v-7.29h4.27v7.29Zm-.87-.74v-5.79h-2.52v5.79h2.52Zm5.59,3.8h-.87v-6.68h-1.65v6.32h-.87v-10.83h.87v3.72h1.65v-3.78h.87v11.25Z"/><path class="cls-1" d="M529.47,31.08v1.44c1.28-.04,2.52-.11,3.44-.2v.73c-1.8,.26-5.04,.31-7.63,.31v-.78c.94,.01,2.11,0,3.27-.04v-1.46h.93Zm2.88-5.13h-6.81v-.73h2.99v-1.54h.93v1.54h2.89v.73Zm-3.31,4.72c-1.86,0-2.86-.94-2.86-2.11s1.01-2.12,2.8-2.12,2.85,.97,2.85,2.13-1.07,2.1-2.79,2.1Zm1.91-2.1c0-.77-.63-1.43-1.96-1.43-1.24,0-1.95,.67-1.95,1.42s.73,1.39,1.96,1.39c1.34,0,1.95-.61,1.95-1.38Zm3.54,6.46h-.88v-11.25h.88v11.25Z"/><path class="cls-1" d="M539.04,24.3v3.06c-.01,1.93,1.47,3.31,2.95,4.04l-.45,.72c-.96-.55-2.35-1.52-2.98-3.07-.56,1.58-1.8,2.55-3.05,3.33l-.58-.65c1.67-.95,3.15-2.4,3.15-4.42v-3.01h.94Zm5.09-.52v3.87h1.95v.79h-1.95v6.58h-.88v-11.25h.88Z"/><path class="cls-1" d="M548.42,24.51c1.44,0,2.33,1.27,2.46,3.37h1.39v-4.04h.88v10.83h-.88v-5.97h-1.38c-.06,2.25-.93,3.63-2.47,3.63s-2.48-1.5-2.48-3.91,.92-3.91,2.48-3.91Zm-1.62,3.9c0,1.75,.54,3.12,1.61,3.12,1.14,0,1.63-1.36,1.63-3.12s-.49-3.12-1.63-3.12-1.61,1.39-1.61,3.12Zm8.42,6.62h-.87v-11.25h.87v11.25Z"/><path class="cls-1" d="M564.22,32.17c-1.08-.66-2.04-1.88-2.4-2.88-.27,1.28-1.46,2.5-2.58,3.13l-.54-.63c1.8-1.06,2.66-2.67,2.66-4.16v-2.17h-2.06v-.76h5.05v.76h-2.06v2.17c0,1.57,.88,3,2.42,3.89l-.49,.66Zm2.26,2.51h-.88v-6.42h-1.98v-.79h1.98v-3.62h.88v10.83Zm2.15,.36h-.88v-11.25h.88v11.25Z"/><path class="cls-1" d="M579.75,29.56h-10.36v-.76h4.05v-2.27h.92v2.27h5.4v.76Zm-1.29,3.42c0,1.22-1.25,2.27-3.89,2.27s-3.87-1.04-3.87-2.27,1.26-2.27,3.87-2.27,3.89,1.02,3.89,2.27Zm-.18-8.86c-.02,.9-.2,2.66-.35,3.83h-.92c.12-.84,.27-2.39,.29-3.06h-6.48v-.77h7.46Zm-3.72,7.3c-1.82,0-2.91,.68-2.91,1.55s1.08,1.55,2.91,1.55,2.92-.66,2.92-1.55-1.09-1.55-2.92-1.55Z"/><path class="cls-1" d="M583.36,25.55h2.95v.74h-6.83v-.74h2.94v-1.75h.94v1.75Zm2.29,4.39c0,1.56-.99,2.85-2.74,2.85s-2.78-1.21-2.78-2.85c0-1.73,1.08-2.84,2.78-2.84s2.74,1.09,2.74,2.84Zm-.87,0c0-1.29-.6-2.09-1.87-2.09s-1.88,.83-1.88,2.09,.65,2.08,1.88,2.08,1.87-.83,1.87-2.08Zm3.62-6.15v4.76h1.96v.79h-1.96v5.7h-.88v-11.25h.88Z"/><path class="cls-1" d="M600.45,30.21h-10.36v-.76h10.36v.76Zm-1.02,4.64h-7.91v-3.37h.89v2.62h7.01v.76Zm-.22-6.88h-7.62v-4.04h.88v3.27h6.74v.77Z"/><path class="cls-1" d="M354.07,49.78c-1.02-.41-2.36-1.28-2.87-2.4-.49,1.3-1.71,2.09-2.85,2.67l-.52-.6c1.45-.72,2.89-1.7,2.89-3.56v-.82h-2.34v-.74h5.59v.74h-2.33v.8c0,1.8,1.47,2.66,2.82,3.2l-.4,.7Zm2.93,5.31h-.88v-3.31h-6.45v-.76h7.33v4.07Zm.01-4.8h-.88v-3.05h-2.31v-.75h2.31v-2.71h.88v6.51Z"/><path class="cls-1" d="M368.43,49.23h-10.36v-.77h7.46c.15-.91,.42-2.78,.45-3.57h-6.47v-.77h7.45c-.01,.88-.33,3.38-.49,4.34h1.98v.77Zm-1.45,5.86h-.89v-3.6h-6.73v-.76h7.62v4.35Z"/><path class="cls-1" d="M374.77,49.78c-1.02-.41-2.37-1.28-2.87-2.4-.49,1.3-1.71,2.09-2.85,2.67l-.52-.6c1.45-.72,2.89-1.7,2.89-3.56v-.82h-2.34v-.74h5.59v.74h-2.33v.8c0,1.8,1.47,2.66,2.82,3.2l-.4,.7Zm2.93,5.31h-.88v-3.31h-6.45v-.76h7.33v4.07Zm.01-4.8h-.88v-3.05h-2.31v-.75h2.31v-2.71h.88v6.51Z"/><path class="cls-1" d="M386.2,44.69c-.01,3.93-1.46,6.06-3.89,7.81l-.69-.55c2.14-1.52,3.65-3.36,3.65-6.5h-3.13v-.76h4.07Zm4.82,10.34h-.87v-6.44h-1.74v6.08h-.88v-10.83h.88v3.92h1.74v-3.98h.87v11.25Z"/><path class="cls-1" d="M397.38,48.98h-5.07v-4.85h.87v1.69h3.33v-1.69h.87v4.85Zm-.87-.74v-1.67h-3.33v1.67h3.33Zm4.39,6.86h-7.35v-2.79h6.15v-1.39h-6.15v-.71h7.08v2.79h-6.15v1.39h6.42v.71Zm1.52-8.38h-1.81v2.85h-.89v-5.78h.89v2.16h1.81v.77Z"/><path class="cls-1" d="M410.53,49.83c-.95-.54-1.95-1.33-2.32-2.25-.29,.95-1.24,1.86-2.37,2.57l-.56-.62c1.06-.64,2.47-1.74,2.47-3.33v-1.91h.89v1.91c0,1.52,1.33,2.45,2.33,2.96l-.45,.68Zm4.48,3.14c0,1.75-1.94,2.28-3.75,2.28s-3.72-.53-3.72-2.28,2.01-2.3,3.72-2.3,3.75,.56,3.75,2.3Zm-.94,.01c0-1.2-1.53-1.6-2.8-1.6s-2.79,.4-2.79,1.6,1.55,1.54,2.79,1.54,2.8-.35,2.8-1.54Zm.85-2.53h-.88v-3.32h-1.61v2.87h-.87v-6.15h.87v2.48h1.61v-2.54h.88v6.67Z"/><path class="cls-1" d="M421.75,50.06c-1.02-.41-2.44-1.28-2.94-2.4-.51,1.29-1.76,2.1-2.91,2.69l-.52-.6c1.45-.73,2.95-1.7,2.95-3.56v-2.01h.93v2c0,1.8,1.52,2.65,2.87,3.2l-.39,.68Zm3,4.8h-7.33v-3.63h.91v2.88h6.42v.76Zm-.39-11.07v3.09h1.81v.77h-1.81v4.14h-.88v-8h.88Z"/><path class="cls-1" d="M431.37,49.5h-5.07v-5.23h.87v1.82h3.33v-1.82h.87v5.23Zm-.87-.76v-1.89h-3.33v1.89h3.33Zm4.29,4.21c0,1.34-1.09,2.29-3.62,2.29s-3.65-.94-3.65-2.29,1.11-2.33,3.65-2.33,3.62,.97,3.62,2.33Zm-.92,.01c0-1.01-.99-1.63-2.69-1.63s-2.72,.62-2.72,1.63c0,.94,.96,1.56,2.72,1.56s2.69-.58,2.69-1.56Zm2.53-5.62h-1.81v3.01h-.89v-6.57h.89v2.81h1.81v.75Z"/><path class="cls-1" d="M442.91,49.68c-1.01-.4-2.44-1.28-2.93-2.39-.51,1.3-1.76,2.09-2.91,2.67l-.52-.6c1.45-.72,2.95-1.7,2.95-3.56v-1.7h.92v1.69c0,1.8,1.53,2.65,2.88,3.2l-.4,.68Zm2.75,5.41h-.88v-3.3h-6.45v-.76h7.33v4.05Zm.01-4.8h-.88v-6.51h.88v6.51Z"/><path class="cls-1" d="M450.09,44.01c1.72,0,2.89,1.18,2.89,2.59s-1.15,2.54-2.89,2.54-2.89-1.09-2.89-2.54,1.19-2.59,2.89-2.59Zm2,2.59c0-1.01-.78-1.85-2-1.85-1.29,0-2,.84-2,1.85s.71,1.85,2,1.85c1.22,0,2-.8,2-1.85Zm3.87,8.37h-7.09v-4.84h.89v1.66h5.31v-1.66h.89v4.84Zm-.89-.73v-1.73h-5.31v1.73h5.31Zm.89-4.73h-.89v-5.73h.89v5.73Z"/><path class="cls-1" d="M464.32,51.6c-1.88,.26-4.38,.26-6.22,.26v-7.36h.91v6.57c2.05,0,3.72-.05,5.32-.24v.77Zm1.89,3.43h-.89v-11.25h.89v11.25Z"/><path class="cls-1" d="M474.2,51.69c-1.98,.29-4.42,.26-6.4,.26v-7.32h5.27v.74h-4.37v5.78c1.46,0,3.65,.01,5.49-.24v.77Zm3.75-3.27h-1.96v6.62h-.89v-11.25h.89v3.84h1.96v.79Z"/><path class="cls-1" d="M478.45,52.97h1.26v1.22h-1.26v-1.22Z"/></g><g><path class="cls-2" d="M12.31,10.21c0,3.73-2.1,6.87-6.16,6.87S0,13.94,0,10.21,2.13,3.35,6.15,3.35s6.16,3.15,6.16,6.87ZM6.15,5.27c-2.45,0-3.73,2.43-3.73,4.95s1.26,4.96,3.73,4.96,3.75-2.42,3.75-4.96-1.28-4.95-3.75-4.95Z"/><path class="cls-2" d="M23.19,16.89H14.14V3.51h8.88v1.89h-6.56v3.6h6.23v1.89h-6.23v4.11h6.72v1.89Z"/><path class="cls-2" d="M30.96,10.9l3.95-7.4h2.18v13.38h-2.27V7.89l-2.96,5.68h-1.81l-2.94-5.68v9h-2.27V3.51h2.18l3.95,7.4Z"/></g><g><path class="cls-1" d="M62.69,9.25c-1.49,.14-2.8,.25-6.59,.25V4.05h5.39v1.01h-4.15v3.42c2.4,0,4-.07,5.35-.22v1Zm2.39,5.61h-7.75v-4.05h1.28v3.01h6.47v1.04Zm-.38-11.44v2.65h1.82v1.06h-1.82v4.69h-1.26V3.43h1.26Z"/><path class="cls-1" d="M77.33,10.07h-4.62v2.35h-1.27v-2.35h-4.92v-1.02h10.81v1.02Zm-10-2.87c1.55-.34,3.92-1.34,3.92-2.72v-.97h1.35v.97c0,1.38,2.27,2.36,3.93,2.74l-.61,.91c-1.6-.36-3.25-1.09-4-2.22-.76,1.06-2.31,1.8-4,2.23l-.59-.94Zm8.98,7.66h-8.34v-3.69h1.27v2.65h7.07v1.04Z"/><path class="cls-1" d="M84.21,5.69h-7.05v-.97h2.89v-1.39h1.27v1.39h2.88v.97Zm-3.51,5.04c-1.78,0-2.91-1-2.91-2.28,0-1.37,1.14-2.27,2.92-2.27s2.87,.95,2.87,2.27c0,1.25-1.07,2.28-2.88,2.28Zm-1.64-2.29c0,.76,.54,1.32,1.65,1.32s1.62-.53,1.62-1.32-.53-1.28-1.62-1.28-1.65,.5-1.65,1.28Zm7.79,6.43h-7.75v-3.41h1.26v2.36h6.49v1.04Zm-.39-11.44v3.77h1.82v1.02h-1.82v3.72h-1.26V3.43h1.26Z"/><path class="cls-1" d="M102.03,10.87h-4.76v4.17h-1.27v-4.17h-4.78v-1.04h10.81v1.04Zm-1.31-2.21c-1.47-.4-3.12-1.16-4.08-2.38-.91,1.17-2.69,1.99-4.11,2.34l-.64-.95c1.8-.41,4.05-1.44,4.05-2.88v-1.26h1.35v1.26c0,1.42,2.45,2.52,4.02,2.88l-.6,.98Z"/><path class="cls-1" d="M109.03,9.55c-1.49,.17-2.79,.26-6.59,.26V3.89h5.46v.98h-4.22v1.43h4.09v.97h-4.09v1.54c2.42,0,4.01-.08,5.35-.24v.98Zm2.01,5.55h-1.26v-3.24h-6.38v-1h7.64v4.23Zm1.82-7.9h-1.82v3.03h-1.26V3.43h1.26v2.72h1.82v1.05Z"/><path class="cls-1" d="M117.77,4.35c-.01,4.14-1.58,6.37-4.13,8.2l-.95-.74c2.17-1.55,3.74-3.41,3.78-6.43h-3.18v-1.03h4.48Zm4.87,10.7h-1.24v-6.5h-1.41v6.14h-1.22V3.5h1.22v3.95h1.41V3.43h1.24V15.05Z"/><path class="cls-1" d="M131.01,9c-2.04,.28-3.99,.28-6.44,.28V3.94h1.24v4.28c1.47,0,3.18,0,5.2-.25v1.03Zm2.31,5.99h-7.53v-4.45h7.53v4.45Zm-1.27-1v-2.42h-5v2.42h5Zm1.26-4.08h-1.26v-2.57h-2.93v-1h2.93v-.78h-2.93v-.98h2.93v-1.16h1.26v6.49Z"/><path class="cls-1" d="M145.31,12.25v1.03h-10.81v-1.03h10.81Zm-1.38-5.12c0,1.61-1.4,3.07-4.02,3.07s-4.02-1.46-4.02-3.07,1.42-3.08,4.02-3.08,4.02,1.44,4.02,3.08Zm-1.26,0c0-1.18-1-2.06-2.76-2.06s-2.78,.91-2.78,2.06c0,1.09,1,2.03,2.78,2.03s2.76-.94,2.76-2.03Z"/><path class="cls-1" d="M151.37,10.88v1.7h4.75v1.05h-10.81v-1.05h4.78v-1.7h1.28Zm-4.58-.48v-3.69h6.52v-1.64h-6.55v-1.02h7.82v3.69h-6.52v1.63h6.95v1.03h-8.22Z"/><path class="cls-1" d="M60.96,32.22c-.87-.56-1.79-1.63-2.19-2.57-.46,1.05-1.6,2.18-2.69,2.81l-.72-.84c1.84-1.09,2.74-2.71,2.74-4.19v-2.05h-2.11v-1.03h5.39v1.03h-2.02v2.05c0,1.57,.75,2.96,2.26,3.89l-.66,.9Zm2.64,2.47h-1.22v-6.48h-1.79v-1.03h1.79v-3.68h1.22v11.19Zm2.25,.36h-1.24v-11.62h1.24v11.62Z"/><path class="cls-1" d="M77.33,29.9h-4.75v1.21h3.31v3.87h-7.92v-3.87h3.29v-1.21h-4.74v-1.04h10.81v1.04Zm-9.8-1.82v-1.03h1.76l-.2-1.73h1.26l.18,1.73h2.79l.15-1.73h1.32l-.21,1.73h1.72v1.03h-8.76Zm.28-3.32v-1.04h8.24v1.04h-8.24Zm6.82,9.24v-1.86h-5.41v1.86h5.41Z"/><path class="cls-1" d="M88.15,28.27v1.02h-10.81v-1.02h10.81Zm-9.41-2.77c0-1.27,1.47-2.1,3.99-2.1s3.99,.82,3.99,2.1c0,1.38-1.52,2.13-3.99,2.13s-3.99-.78-3.99-2.13Zm8.28,9.61h-8.24v-3h6.62v-1.05h-6.62v-.98h7.92v2.97h-6.61v1.1h6.93v.96Zm-6.99-9.61c0,.83,1.19,1.15,2.69,1.15s2.69-.32,2.69-1.15c0-.73-1.24-1.12-2.69-1.12s-2.69,.4-2.69,1.12Z"/><path class="cls-1" d="M96.49,29.72c-.99-.53-1.78-1.2-2.21-2.03-.44,.84-1.34,1.66-2.44,2.35l-.8-.84c1.09-.66,2.56-1.79,2.56-3.35v-2.08h1.26v2.08c0,1.49,1.2,2.43,2.22,2.94l-.6,.92Zm4.85,3.17c0,1.88-2.04,2.37-3.95,2.37s-3.94-.49-3.94-2.37,2.13-2.4,3.94-2.4,3.95,.54,3.95,2.4Zm-1.31,.01c0-1.09-1.44-1.4-2.64-1.4s-2.64,.31-2.64,1.4,1.48,1.37,2.64,1.37,2.64-.26,2.64-1.37Zm1.2-2.6h-1.24v-3.23h-1.25v2.77h-1.21v-6.34h1.21v2.5h1.25v-2.57h1.24v6.87Z"/><path class="cls-1" d="M108.41,30.07c-1.06-.37-2.41-1.19-3.02-2.2-.58,1.15-1.86,1.89-3,2.47l-.72-.79c1.49-.74,3.06-1.74,3.06-3.56v-2.16h1.27v2.15c0,1.73,1.58,2.59,2.96,3.15l-.55,.94Zm3.14,4.8h-7.75v-3.93h1.26v2.89h6.49v1.04Zm-.39-11.44v3.13h1.82v1.03h-1.82v4.19h-1.26v-8.35h1.26Z"/><path class="cls-1" d="M119.84,28.33c-2,.29-4.01,.29-6.49,.29v-4.68h1.24v3.61c1.48,0,3.27-.01,5.26-.23v1.01Zm2.02,6.66h-7.39v-5.08h1.27v1.64h4.87v-1.64h1.25v5.08Zm-1.25-1v-1.45h-4.87v1.45h4.87Zm3.06-7.57h-1.82v2.9h-1.26v-5.9h1.26v1.97h1.82v1.03Z"/><path class="cls-1" d="M134.49,29.9h-4.75v1.21h3.31v3.87h-7.92v-3.87h3.29v-1.21h-4.74v-1.04h10.81v1.04Zm-9.8-1.82v-1.03h1.76l-.2-1.73h1.26l.18,1.73h2.79l.15-1.73h1.32l-.21,1.73h1.72v1.03h-8.76Zm.28-3.32v-1.04h8.24v1.04h-8.24Zm6.82,9.24v-1.86h-5.41v1.86h5.41Z"/><path class="cls-1" d="M138.51,25.2h2.86v1.02h-6.99v-1.02h2.83v-1.77h1.29v1.77Zm2.32,4.67c0,1.64-1.05,3-2.95,3s-2.96-1.27-2.96-3c0-1.85,1.15-3.01,2.96-3.01,1.91,0,2.95,1.14,2.95,3.01Zm-1.22,0c0-1.24-.55-1.97-1.73-1.97-1.11,0-1.71,.77-1.71,1.97s.6,1.96,1.71,1.96c1.18,0,1.73-.79,1.73-1.96Zm4.05-6.44v4.79h1.89v1.09h-1.89v5.74h-1.26v-11.62h1.26Z"/><path class="cls-1" d="M156.13,30.2h-10.81v-1.04h10.81v1.04Zm-1.02,4.67h-8.34v-3.61h1.27v2.57h7.07v1.04Zm-.22-6.99h-8.06v-4.31h1.25v3.26h6.81v1.04Z"/><path class="cls-1" d="M164.93,29.35h-5.48v-5.43h1.25v1.8h2.99v-1.8h1.25v5.43Zm-1.25-1v-1.62h-2.99v1.62h2.99Zm4.71,4.5c0,1.45-1.15,2.41-3.82,2.41s-3.87-.96-3.87-2.41,1.15-2.43,3.87-2.43,3.82,.96,3.82,2.43Zm-1.29,.01c0-.94-.93-1.45-2.52-1.45s-2.59,.52-2.59,1.45c0,.86,.93,1.42,2.59,1.42s2.52-.5,2.52-1.42Zm2.92-5.83h-1.82v3.17h-1.26v-6.78h1.26v2.59h1.82v1.02Z"/><path class="cls-1" d="M176.88,29.72c-1.07-.41-2.41-1.19-3.02-2.23-.59,1.14-1.86,1.88-3.01,2.48l-.71-.8c1.48-.75,3.05-1.75,3.05-3.56v-1.85h1.28v1.83c0,1.74,1.59,2.59,2.98,3.15l-.56,.97Zm2.88,5.39h-1.26v-3.29h-6.51v-1h7.76v4.28Zm0-4.92h-1.26v-6.76h1.26v6.76Z"/><path class="cls-1" d="M184.19,23.83c1.72,0,2.89,1.18,2.89,2.59s-1.15,2.54-2.89,2.54-2.89-1.09-2.89-2.54,1.19-2.59,2.89-2.59Zm2,2.59c0-1.01-.78-1.85-2-1.85-1.29,0-2,.84-2,1.85s.71,1.85,2,1.85c1.22,0,2-.8,2-1.85Zm3.87,8.37h-7.09v-4.84h.89v1.66h5.31v-1.66h.89v4.84Zm-.89-.73v-1.73h-5.31v1.73h5.31Zm.89-4.73h-.89v-5.73h.89v5.73Z"/><path class="cls-1" d="M198.42,31.42c-1.88,.26-4.38,.26-6.22,.26v-7.36h.91v6.57c2.05,0,3.72-.05,5.32-.24v.77Zm1.89,3.43h-.89v-11.25h.89v11.25Z"/><path class="cls-1" d="M208.3,31.51c-1.98,.29-4.42,.26-6.4,.26v-7.32h5.27v.74h-4.36v5.78c1.46,0,3.65,.01,5.49-.24v.77Zm3.75-3.27h-1.96v6.62h-.89v-11.25h.89v3.84h1.96v.79Z"/><path class="cls-1" d="M212.56,32.79h1.26v1.22h-1.26v-1.22Z"/></g><rect class="cls-2" x="255.86" width="1.59" height="57.26"/></g></svg>