<svg xmlns="http://www.w3.org/2000/svg" viewBox="0 0 158.45 31.93"><defs><style>.cls-1{fill:#595757;}</style></defs><title>자산 47</title><g id="레이어_2" data-name="레이어 2"><g id="레이어_1-2" data-name="레이어 1"><path class="cls-1" d="M7.33,5.92a56.23,56.23,0,0,1-6.59.26V.72H6.13v1H2V5.15a51.14,51.14,0,0,0,5.35-.22Zm2.39,5.62H2V7.48H3.25v3H9.72ZM9.34.1V2.75h1.82v1H9.34V8.49H8.08V.1Z"/><path class="cls-1" d="M22,6.74H17.35V9.09H16.08V6.74H11.16v-1H22ZM12,3.87c1.55-.33,3.92-1.34,3.92-2.72v-1h1.35v1c0,1.38,2.27,2.36,3.93,2.74l-.61.91a6.61,6.61,0,0,1-4-2.22,7.17,7.17,0,0,1-4,2.23Zm9,7.67H12.61V7.84h1.27V10.5H21Z"/><path class="cls-1" d="M28.85,2.36h-7v-1h2.9V0H26V1.39h2.88Zm-3.51,5c-1.77,0-2.9-1-2.9-2.28s1.14-2.27,2.92-2.27,2.87.95,2.87,2.27S27.16,7.4,25.34,7.4ZM23.71,5.11c0,.76.54,1.32,1.65,1.32S27,5.9,27,5.11s-.53-1.28-1.62-1.28S23.71,4.33,23.71,5.11Zm7.79,6.43H23.74V8.13H25V10.5h6.5ZM31.11.1V3.86h1.82v1H31.11V8.6H29.85V.1Z"/><path class="cls-1" d="M46.67,7.54H41.9v4.18H40.63V7.54H35.86v-1H46.67Zm-1.31-2.2A8,8,0,0,1,41.28,3,7.84,7.84,0,0,1,37.17,5.3l-.63-1c1.8-.4,4-1.43,4-2.87V.22h1.36V1.48c0,1.41,2.45,2.51,4,2.87Z"/><path class="cls-1" d="M53.66,6.22a51,51,0,0,1-6.58.27V.56h5.45v1H48.31V3H52.4V4H48.31V5.48a44.92,44.92,0,0,0,5.35-.24Zm2,5.56H54.42V8.54H48v-1h7.64ZM57.5,3.87H55.68v3H54.42V.1h1.26V2.82H57.5Z"/><path class="cls-1" d="M62.41,1a9.07,9.07,0,0,1-4.13,8.2l-1-.74c2.16-1.55,3.74-3.41,3.78-6.43H57.93V1Zm4.87,10.7H66.05V5.22H64.64v6.14H63.41V.17h1.23V4.11h1.41V.1h1.23Z"/><path class="cls-1" d="M75.64,5.67A46.36,46.36,0,0,1,69.21,6V.61h1.23V4.89a40.24,40.24,0,0,0,5.2-.25Zm2.31,6H70.42V7.21H78Zm-1.27-1V8.24h-5v2.42Zm1.26-4.08H76.68V4H73.75V3h2.93V2.24H73.75v-1h2.93V.1h1.26Z"/><path class="cls-1" d="M89.94,8.92v1H79.13v-1ZM88.57,3.8c0,1.61-1.4,3.07-4,3.07s-4-1.46-4-3.07,1.42-3.08,4-3.08S88.57,2.16,88.57,3.8Zm-1.26,0c0-1.17-1-2.06-2.77-2.06s-2.77.91-2.77,2.06,1,2,2.77,2S87.31,4.89,87.31,3.8Z"/><path class="cls-1" d="M96,7.56v1.7h4.75v1.05H90V9.26h4.78V7.56Zm-4.58-.48V3.38H98V1.74H91.4v-1h7.82V4.41H92.7V6h7v1Z"/><path class="cls-1" d="M5.6,28.89a6.47,6.47,0,0,1-2.19-2.57A6.84,6.84,0,0,1,.72,29.13L0,28.29A5.05,5.05,0,0,0,2.74,24.1V22.05H.64V21H6v1H4V24.1A4.45,4.45,0,0,0,6.26,28Zm2.64,2.47H7V24.88H5.22v-1H7V20.17H8.24Zm2.24.36H9.25V20.1h1.23Z"/><path class="cls-1" d="M22,26.57H17.22v1.21h3.3v3.88H12.61V27.78H15.9V26.57H11.16v-1H22Zm-9.8-1.82v-1h1.77L13.74,22H15l.17,1.73H18L18.11,22h1.32l-.21,1.73h1.72v1Zm.28-3.32V20.38h8.24v1.05Zm6.83,9.23V28.8H13.87v1.86Z"/><path class="cls-1" d="M32.79,24.94v1H22v-1Zm-9.41-2.77c0-1.27,1.47-2.1,4-2.1s4,.82,4,2.1-1.52,2.14-4,2.14S23.38,23.53,23.38,22.17Zm8.28,9.61H23.43v-3h6.62V27.72H23.43v-1h7.91v3H24.73v1.11h6.93Zm-7-9.61c0,.83,1.19,1.15,2.7,1.15s2.69-.32,2.69-1.15-1.23-1.11-2.69-1.11S24.67,21.45,24.67,22.17Z"/><path class="cls-1" d="M41.13,26.39a5.17,5.17,0,0,1-2.22-2,6.87,6.87,0,0,1-2.43,2.35l-.8-.84c1.09-.66,2.56-1.79,2.56-3.35V20.46H39.5v2.07a3.46,3.46,0,0,0,2.23,2.94ZM46,29.56c0,1.88-2,2.37-3.95,2.37s-3.94-.49-3.94-2.37,2.13-2.4,3.94-2.4S46,27.7,46,29.56Zm-1.3,0c0-1.09-1.44-1.4-2.64-1.4s-2.63.31-2.63,1.4,1.48,1.37,2.63,1.37S44.67,30.67,44.67,29.57Zm1.2-2.6H44.63V23.74H43.39v2.77H42.17V20.17h1.22v2.49h1.24V20.1h1.24Z"/><path class="cls-1" d="M53.05,26.74a6.14,6.14,0,0,1-3-2.19A6.47,6.47,0,0,1,47,27l-.72-.8c1.49-.74,3.06-1.73,3.06-3.56V20.5h1.27v2.15c0,1.73,1.58,2.59,3,3.16Zm3.14,4.8H48.44V27.6H49.7v2.9h6.49ZM55.8,20.1v3.13h1.83v1H55.8v4.18H54.55V20.1Z"/><path class="cls-1" d="M64.48,25a45.14,45.14,0,0,1-6.49.29V20.61h1.23v3.61A46.47,46.47,0,0,0,64.48,24Zm2,6.66H59.12V26.57h1.27v1.65h4.87V26.57h1.25Zm-1.25-1V29.21H60.39v1.45Zm3.06-7.57H66.49V26H65.23V20.1h1.26v2h1.83Z"/><path class="cls-1" d="M79.13,26.57H74.37v1.21h3.31v3.88H69.76V27.78h3.29V26.57H68.31v-1H79.13Zm-9.8-1.82v-1h1.76L70.89,22h1.26l.18,1.73h2.78L75.27,22h1.31l-.21,1.73h1.72v1Zm.28-3.32V20.38h8.23v1.05Zm6.82,9.23V28.8H71v1.86Z"/><path class="cls-1" d="M83.14,21.87H86v1H79v-1h2.84V20.1h1.29Zm2.32,4.67a3,3,0,1,1-5.92,0,2.79,2.79,0,0,1,3-3A2.72,2.72,0,0,1,85.46,26.54Zm-1.22,0c0-1.24-.55-2-1.73-2s-1.71.77-1.71,2,.6,1.95,1.71,1.95S84.24,27.7,84.24,26.54Zm4.05-6.44v4.78h1.89V26H88.29v5.75H87V20.1Z"/><path class="cls-1" d="M100.76,26.87H90v-1h10.81Zm-1,4.67H91.4V27.93h1.27V30.5h7.07Zm-.22-7H91.46V20.24H92.7V23.5h6.82Z"/><path class="cls-1" d="M109.57,26h-5.48V20.59h1.24v1.8h3v-1.8h1.25Zm-1.25-1V23.41h-3V25ZM113,29.52c0,1.45-1.15,2.41-3.83,2.41s-3.87-1-3.87-2.41,1.16-2.43,3.87-2.43S113,28.05,113,29.52Zm-1.3,0c0-.94-.93-1.46-2.51-1.46s-2.59.52-2.59,1.46.93,1.41,2.59,1.41S111.73,30.45,111.73,29.54Zm2.92-5.83h-1.82v3.16h-1.26V20.1h1.26v2.59h1.82Z"/><path class="cls-1" d="M121.52,26.39a6.12,6.12,0,0,1-3-2.23,6.6,6.6,0,0,1-3,2.48l-.7-.8c1.48-.75,3-1.75,3-3.56V20.43h1.29v1.84c0,1.74,1.58,2.59,3,3.15Zm2.88,5.39h-1.26V28.49h-6.5v-1h7.76Zm0-4.92h-1.26V20.1h1.26Z"/><path class="cls-1" d="M128.83,20.5a2.7,2.7,0,0,1,2.9,2.59,2.92,2.92,0,0,1-5.79,0A2.7,2.7,0,0,1,128.83,20.5Zm2,2.59a1.87,1.87,0,0,0-2-1.84,1.85,1.85,0,1,0,0,3.69A1.84,1.84,0,0,0,130.83,23.09Zm3.87,8.38h-7.09V26.62h.89v1.66h5.31V26.62h.89Zm-.89-.74V29H128.5v1.72ZM134.7,26h-.89V20.28h.89Z"/><path class="cls-1" d="M143.06,28.1a50,50,0,0,1-6.22.26V21h.9v6.57a44.86,44.86,0,0,0,5.32-.24Zm1.9,3.43h-.9V20.28h.9Z"/><path class="cls-1" d="M152.94,28.18a47.25,47.25,0,0,1-6.4.26V21.13h5.27v.74h-4.36v5.78a43.24,43.24,0,0,0,5.49-.24Zm3.75-3.27h-2v6.62h-.9V20.28h.9v3.83h2Z"/><path class="cls-1" d="M157.19,29.46h1.26v1.23h-1.26Z"/></g></g></svg>