<?xml version="1.0" encoding="UTF-8"?><svg id="_레이어_2" xmlns="http://www.w3.org/2000/svg" viewBox="0 0 99.03 18"><defs><style>.cls-1{fill:#fff;}.cls-2{fill:none;stroke:#fff;stroke-miterlimit:10;stroke-width:.5px;}</style></defs><g id="_레이어_1-2"><g><rect x="0" y="0" width="99.03" height="18"/><g><path class="cls-1" d="M23.12,11.9h-7.17v-.71h1.95v-1.57h.83v1.57h1.62v-1.57h.83v1.57h1.93v.71Zm-3.13-5.8c0,1.23,1.66,2.41,2.73,2.77l-.51,.63c-.9-.36-2.14-1.25-2.65-2.15-.51,.92-1.58,1.75-2.65,2.16l-.51-.64c1.1-.38,2.69-1.54,2.69-2.77v-.75h.9v.75Z"/><path class="cls-1" d="M23.47,8.49h.95l-.09-1.85h.84l.06,1.83c.42,0,.84-.02,1.24-.04l.05-1.79h.83l-.08,1.74c.43-.02,.83-.06,1.2-.11v.69c-1.3,.19-3.21,.23-5.02,.23v-.71Zm.19-2.37v-.69h4.39v.69h-4.39Zm6.21,5.34c0,.99-.8,1.67-2.58,1.67s-2.6-.69-2.6-1.67,.8-1.67,2.6-1.67,2.58,.67,2.58,1.67Zm-.87,0c0-.62-.65-1-1.7-1s-1.73,.38-1.73,1c0,.57,.63,.98,1.73,.98s1.7-.4,1.7-.98Zm.8-1.8h-.83V5.02h.83v4.65Z"/><path class="cls-1" d="M37.78,9.07h-7.17v-.7h3.17v-.66h-2.17v-2.58h5.17v2.58h-2.15v.66h3.15v.7Zm-.75,3.95h-5.46v-2.01h4.39v-.67h-4.39v-.66h5.25v1.97h-4.38v.71h4.59v.66Zm-1.06-5.99v-1.21h-3.55v1.21h3.55Z"/><path class="cls-1" d="M43.98,10.92h-3.7V5.58h.83v1.84h2.04v-1.84h.83v5.34Zm-.83-.71v-2.07h-2.04v2.07h2.04Zm4.26-1.72h-1.32v4.5h-.83V5.02h.83v2.71h1.32v.75Z"/><path class="cls-1" d="M51.47,10.13v1.17h3.15v.72h-7.17v-.72h3.17v-1.17h.85Zm-3.03-.33v-2.53h4.32v-1.12h-4.34v-.7h5.19v2.53h-4.32v1.12h4.61v.71h-5.45Z"/><path class="cls-1" d="M58.59,5.62c-.03,3.2-1.36,4.65-3.3,5.75l-.52-.62c2.01-1.17,2.91-2.45,2.94-4.41h-2.67v-.71h3.55Zm2.17-.59v3.02h1.32v.72h-1.32v4.21h-.83V5.02h.83Z"/><path class="cls-1" d="M66.29,5.62c-.03,3.21-1.4,4.56-3.34,5.65l-.54-.61c2.03-1.19,2.96-2.38,2.99-4.33h-2.71v-.71h3.6Zm2.17,7.36h-.83V5.02h.83v7.96Z"/></g><polyline class="cls-2" points="73.59 10.67 83.81 10.67 81.07 7.93"/></g></g></svg>