<?xml version="1.0" encoding="UTF-8"?><svg id="_레이어_2" xmlns="http://www.w3.org/2000/svg" viewBox="0 0 364.4 138"><defs><style>.cls-1{fill:none;stroke:#f5f5f5;stroke-miterlimit:10;stroke-width:2px;}</style></defs><g id="_레이어_1-2"><rect class="cls-1" x="1" y="1" width="110" height="136" rx="15.22" ry="15.22"/><rect class="cls-1" x="127.2" y="1" width="110" height="136" rx="15.22" ry="15.22"/><rect class="cls-1" x="253.4" y="1" width="110" height="136" rx="15.22" ry="15.22"/><g><path d="M28.38,100.73h-8.71v-.73h3.91v-2.17h.9v2.17h3.9v.73Zm-3.88-6.68c0,1.51,2.04,2.92,3.33,3.34l-.53,.66c-1.12-.41-2.67-1.54-3.25-2.65-.62,1.13-1.94,2.18-3.24,2.66l-.54-.67c1.32-.44,3.28-1.83,3.28-3.34v-.95h.95v.95Z"/><path d="M37.2,97.26h-8.71v-.73h6.25c.13-.79,.26-2.17,.3-2.8h-5.36v-.73h6.31c0,.71-.24,2.63-.35,3.53h1.56v.73Zm-1.17,4.83h-6.35v-3.61h6.35v3.61Zm-.89-.7v-2.2h-4.58v2.2h4.58Z"/><path d="M42.8,94.39h-5.61v-.69h2.35v-1.14h.91v1.14h2.35v.69Zm-2.8,3.76c-1.49,0-2.3-.78-2.3-1.69s.83-1.62,2.31-1.62,2.27,.71,2.27,1.62-.78,1.69-2.28,1.69Zm-1.43-1.7c0,.53,.48,1,1.44,1s1.41-.45,1.41-1-.46-.95-1.41-.95-1.44,.42-1.44,.95Zm6.08,5.64h-5.9v-3.28h5.9v3.28Zm-.87-.7v-1.86h-4.15v1.86h4.15Zm2.36-5.39h-1.5v2.3h-.88v-5.57h.88v2.55h1.5v.72Z"/><path d="M51.82,97.66c-1.46,.17-3.87,.2-5.35,.2v-2.72h3.28v-1.3h-3.28v-.7h4.14v2.69h-3.28v1.32c1.29,0,2.94,0,4.49-.2v.71Zm1.68,2.88c0,1.06-.91,1.78-3.06,1.78s-3.09-.73-3.09-1.78,.94-1.79,3.09-1.79,3.06,.74,3.06,1.79Zm-.93,0c0-.73-.76-1.11-2.13-1.11s-2.16,.4-2.16,1.11c0,.66,.76,1.11,2.16,1.11s2.13-.44,2.13-1.11Zm2.26-3.79h-1.49v1.69h-.87v-5.71h.87v1.2h1.49v.73h-1.49v1.39h1.49v.7Z"/><path d="M63.66,98.34h-8.71v-.73h8.71v.73Zm-7.56-3.58c0-.99,1.08-1.9,3.19-1.9s3.21,.9,3.21,1.9c0,1.11-1.09,1.93-3.21,1.93s-3.19-.84-3.19-1.93Zm6.73,7.24h-6.68v-2.78h.89v2.03h5.79v.75Zm-5.81-7.24c0,.73,.8,1.23,2.27,1.23s2.28-.5,2.28-1.23c0-.65-.89-1.18-2.28-1.18-1.47,0-2.27,.54-2.27,1.18Z"/><path d="M74.93,97.11h-3.9v1.01h2.73v2.34h-5.43v1.05h5.65v.68h-6.57v-2.41h5.43v-.99h-5.43v-.67h2.69v-1.01h-3.89v-.73h8.71v.73Zm-1.1-1.27c-1.51-.29-2.64-.82-3.25-1.56-.55,.74-1.8,1.28-3.23,1.56l-.42-.62c1.52-.27,2.82-.75,3.15-1.65h-2.67v-.72h6.35v.72h-2.67c.35,.92,1.71,1.37,3.15,1.65l-.41,.62Z"/><path d="M80.31,96.55c0,2.16-.89,3.32-2.44,3.32s-2.44-1.16-2.44-3.32,.96-3.33,2.44-3.33,2.44,1.1,2.44,3.33Zm-.87-.02c0-1.61-.48-2.59-1.56-2.59s-1.57,.96-1.57,2.59,.53,2.61,1.57,2.61c1.1,0,1.56-1.03,1.56-2.61Zm3.3,5.62h-.87v-9.42h.87v9.42Z"/><path d="M92.57,100.58h-8.71v-.74h3.17v-3.31h.9v3.31h4.63v.74Zm-2.5-1.92c.26-1.34,.44-3.02,.44-4.49h-5.51v-.74h6.46c-.04,2.04-.25,3.71-.5,5.23h-.89Z"/><path d="M20.82,107.98c0-1.01,1.18-1.66,3.19-1.66s3.21,.64,3.21,1.66-1.05,1.6-2.74,1.69v.72h3.9v.73h-8.71v-.73h3.91v-.72c-1.75-.09-2.76-.69-2.76-1.69Zm6.62,7.83h-6.57v-2.31h5.43v-.93h-5.43v-.69h6.35v2.29h-5.43v.96h5.65v.68Zm-5.7-7.83c0,.73,1.02,1,2.27,1s2.28-.27,2.28-1c0-.65-1.03-.97-2.28-.97s-2.27,.33-2.27,.97Z"/><path d="M34.65,113.24c-1.72,.19-3.79,.24-5.36,.24v-3.73h3.25v-2.09h-3.25v-.73h4.12v3.53h-3.25v2.27c1.75,0,2.97-.08,4.5-.2v.71Zm1.63,2.52h-.88v-9.42h.88v9.42Z"/><path d="M46.02,113.57v.73h-8.71v-.73h8.71Zm-7.47-1.78v-4.94h.87v1.72h4.52v-1.72h.87v4.94h-6.26Zm5.39-.73v-1.76h-4.52v1.76h4.52Z"/><path d="M54.84,112.4h-2.27v3.36h-.87v-3.36h-2.42v3.26h-.88v-3.26h-2.26v-.73h8.71v.73Zm-1.12-3.85c0,1.29-1.11,2.09-3.23,2.09s-3.23-.8-3.23-2.09,1.14-2.08,3.23-2.08,3.23,.81,3.23,2.08Zm-3.23,1.39c1.37,0,2.33-.48,2.33-1.4,0-.85-.94-1.36-2.33-1.36s-2.35,.5-2.35,1.37c0,.92,.94,1.39,2.35,1.39Z"/><path d="M59.76,112.45v1.4h3.9v.74h-8.71v-.74h3.91v-1.4h.9Zm-3.59-.51v-2.93h5.35v-1.44h-5.38v-.72h6.26v2.89h-5.34v1.47h5.68v.73h-6.57Z"/><path d="M74.93,111.31v.74h-3.97v3.71h-.88v-3.71h-3.86v-.74h8.71Zm-2.52-.69c.18-.91,.35-2.32,.35-3.11h-5.35v-.73h6.3c0,1.51-.22,2.82-.39,3.84h-.91Z"/><path d="M83.75,111.79h-3.79v1.91h-.87v-1.91h-4.05v-.73h8.71v.73Zm-7.56-3.47c0-1,1.06-1.86,3.19-1.86s3.21,.85,3.21,1.86c0,1.1-1.12,1.88-3.21,1.88s-3.19-.8-3.19-1.88Zm6.73,7.29h-6.68v-2.89h.89v2.15h5.79v.74Zm-5.81-7.29c0,.72,.93,1.17,2.27,1.17s2.28-.45,2.28-1.17c0-.66-.96-1.14-2.28-1.14s-2.27,.49-2.27,1.14Z"/><path d="M88.78,106.8c-.11,2.89-2.19,4.07-4.16,4.77l-.44-.63c1.81-.64,3.54-1.68,3.66-3.43h-3.16v-.71h4.11Zm2.82,8.91h-6v-3.56h6v3.56Zm-.87-.7v-2.15h-4.25v2.15h4.25Zm.87-3.39h-.87v-5.27h.87v5.27Z"/></g><g><path d="M168.2,93.94v.86c0,1.45,1.22,2.16,2.34,2.62l-.37,.68c-.79-.32-1.9-1.09-2.4-1.9-.45,.98-1.46,1.64-2.38,2.1l-.5-.56c1.21-.58,2.41-1.41,2.41-2.93v-.87h-1.93v-.7h4.76v.7h-1.93Zm4.66,8.06h-6.24v-3.02h.87v2.28h5.37v.74Zm-.22-2.6h-.88v-3.65h-1.9v-.73h1.9v-2.29h.88v6.67Z"/><path d="M182.33,98.22h-8.71v-.73h3.91v-.85h-2.67v-3.76h6.19v.73h-5.32v.78h5.31v.7h-5.31v.82h5.41v.73h-2.71v.85h3.9v.73Zm-1.06,2.36c0,1.04-1.05,1.73-3.29,1.73s-3.27-.69-3.27-1.73,1.07-1.73,3.27-1.73,3.29,.67,3.29,1.73Zm-3.29-1.04c-1.47,0-2.33,.35-2.33,1.03s.86,1.04,2.33,1.04,2.33-.34,2.33-1.04-.86-1.03-2.33-1.03Z"/><path d="M187.01,97.49h-4.34v-4.36h.86v1.48h2.62v-1.48h.86v4.36Zm-.86-.74v-1.42h-2.62v1.42h2.62Zm3.68,3.65c0,1.15-.92,1.91-3.07,1.91s-3.09-.75-3.09-1.91,.94-1.94,3.09-1.94,3.07,.77,3.07,1.94Zm-.9,0c0-.79-.78-1.26-2.16-1.26s-2.17,.47-2.17,1.26c0,.75,.77,1.21,2.17,1.21s2.16-.42,2.16-1.21Zm2.23-4.74h-1.5v2.58h-.87v-5.52h.87v2.21h1.5v.73Z"/><path d="M196.78,97.72c-.85-.32-1.99-1-2.44-1.88-.45,.99-1.5,1.63-2.44,2.12l-.5-.57c1.21-.62,2.47-1.42,2.47-2.94v-1.45h.89v1.44c0,1.46,1.26,2.18,2.41,2.63l-.39,.65Zm2.31,4.47h-.87v-2.69h-5.32v-.73h6.19v3.42Zm.01-3.96h-.87v-5.5h.87v5.5Z"/><path d="M164.63,111.31c-.8-.31-1.89-1.06-2.38-1.89-.46,.97-1.47,1.64-2.4,2.12l-.5-.57c1.2-.61,2.42-1.41,2.42-2.94v-.53h-1.94v-.71h4.76v.71h-1.93v.52c0,1.46,1.21,2.18,2.36,2.62l-.39,.67Zm2.37,4.49h-.88v-2.69h-5.33v-.73h6.21v3.42Zm0-3.98h-.88v-5.48h.88v5.48Z"/><path d="M167.87,113.64c.87,0,1.74,0,2.57-.03v-1.15h.89v1.12c.93-.03,1.81-.09,2.55-.18v.73c-1.55,.22-3.82,.25-6,.25v-.74Zm5.76-5.41h-5.59v-.72h2.38v-1.27h.9v1.27h2.31v.72Zm-2.76,3.89c-1.54,0-2.33-.79-2.33-1.78s.8-1.77,2.33-1.77,2.36,.79,2.36,1.78-.77,1.77-2.36,1.77Zm1.51-1.77c0-.59-.46-1.09-1.51-1.09-.98,0-1.5,.51-1.5,1.08,0,.61,.53,1.1,1.51,1.1,1.06,0,1.5-.47,1.5-1.09Zm3.03-4.01v4.23h1.54v.74h-1.54v4.45h-.87v-9.42h.87Z"/><path d="M187.97,111.31v.74h-3.97v3.71h-.88v-3.71h-3.86v-.74h8.71Zm-2.52-.69c.18-.91,.35-2.32,.35-3.11h-5.35v-.73h6.3c0,1.51-.23,2.82-.39,3.84h-.91Z"/><path d="M193.35,110.16c0,2.16-.89,3.32-2.44,3.32s-2.44-1.16-2.44-3.32,.96-3.33,2.44-3.33,2.44,1.1,2.44,3.33Zm-.87-.02c0-1.61-.48-2.59-1.56-2.59s-1.57,.96-1.57,2.59,.53,2.61,1.57,2.61c1.1,0,1.56-1.03,1.56-2.61Zm3.3,5.62h-.87v-9.42h.87v9.42Z"/><path d="M201.82,106.8c-.11,2.89-2.18,4.07-4.16,4.77l-.44-.63c1.81-.64,3.54-1.68,3.66-3.43h-3.16v-.71h4.1Zm2.82,8.91h-6v-3.56h6v3.56Zm-.87-.7v-2.15h-4.25v2.15h4.25Zm.87-3.39h-.87v-5.27h.87v5.27Z"/></g><g><path d="M298.12,92.89c1.52,0,2.47,1.04,2.47,2.26s-.88,2.25-2.47,2.25-2.46-1.04-2.46-2.25,.95-2.26,2.46-2.26Zm1.59,2.26c0-.82-.56-1.53-1.59-1.53s-1.58,.71-1.58,1.53,.47,1.53,1.58,1.53c1.04,0,1.59-.71,1.59-1.53Zm3.5,6.94h-6.01v-3.55h6.01v3.55Zm-.88-.7v-2.14h-4.25v2.14h4.25Zm-1.43-6.63h1.43v-2.03h.88v5.27h-.88v-2.52h-1.43v-.72Z"/><path d="M309.05,93.18c-.1,3-2.13,4.27-4.1,4.98l-.45-.65c1.87-.7,3.47-1.78,3.61-3.62h-3.12v-.71h4.07Zm2.91,9.01h-.87v-2.69h-5.34v-.73h6.21v3.42Zm0-3.96h-.87v-1.28h-1.88v-.73h1.88v-1.4h-1.81v-.72h1.81v-1.37h.87v5.5Z"/><path d="M318.54,94.46h-5.61v-.69h2.35v-1.14h.91v1.14h2.35v.69Zm-2.8,4.19c-1.4,0-2.3-.88-2.3-1.91s.92-1.85,2.31-1.85,2.27,.81,2.27,1.85-.84,1.91-2.28,1.91Zm-1.43-1.92c0,.67,.48,1.23,1.44,1.23s1.41-.52,1.41-1.23c0-.65-.46-1.16-1.41-1.16s-1.44,.51-1.44,1.16Zm6.39,5.27h-6.2v-2.71h.88v1.97h5.32v.74Zm-.31-9.26v3.07h1.5v.73h-1.5v3.06h-.88v-6.86h.88Z"/><path d="M299.71,111.63h-3.9v1.01h2.73v3.06h-6.35v-3.06h2.69v-1.01h-3.89v-.74h8.71v.74Zm-7.86-1.67v-.72h1.43l-.16-1.54h.87l.15,1.54h2.44l.12-1.54h.92l-.18,1.54h1.42v.72h-7.01Zm.22-2.66v-.74h6.58v.74h-6.58Zm5.58,7.7v-1.65h-4.58v1.65h4.58Z"/><path d="M305.29,110.8c-.79-.32-1.9-1.03-2.39-1.85-.45,.97-1.46,1.59-2.39,2.07l-.5-.57c1.2-.6,2.42-1.34,2.42-2.87v-.21h-1.94v-.7h4.76v.7h-1.93v.2c0,1.47,1.21,2.13,2.35,2.59l-.38,.64Zm2.6,5h-6.32v-2.46h5.16v-1.04h-5.16v-.68h6.07v2.41h-5.16v1.09h5.41v.68Zm-.22-4.74h-.88v-4.72h.88v4.72Z"/><path d="M308.55,111c.67,0,1.32,0,1.96-.02v-2.04h.88v2.02c1.16-.03,2.21-.11,3.11-.19v.69c-1.55,.24-3.73,.27-5.95,.27v-.73Zm5.25-4.18c-.03,.94-.19,2.51-.29,3.17h-.89c.12-.67,.23-1.77,.25-2.46h-3.75v-.71h4.69Zm2.48,8.79h-6.3v-2.89h.88v2.15h5.42v.74Zm1.21-5.58h-1.5v3.09h-.88v-6.78h.88v2.97h1.5v.72Z"/><path d="M323.62,113.24c-1.72,.19-3.79,.24-5.36,.24v-3.73h3.25v-2.09h-3.25v-.73h4.11v3.53h-3.25v2.27c1.75,0,2.97-.08,4.5-.2v.71Zm1.64,2.52h-.88v-9.42h.88v9.42Z"/></g><g><g><path d="M46.3,71.13h-5.74c-.22,0-.39-.17-.39-.39s.17-.39,.39-.39h5.74c.22,0,.39,.17,.39,.39s-.18,.39-.39,.39Z"/><path d="M50.88,71.13h-2.02c-.22,0-.39-.17-.39-.39s.17-.39,.39-.39h2.02c.22,0,.39,.17,.39,.39s-.17,.39-.39,.39Z"/><path d="M47.56,72.86h-8.62c-.22,0-.39-.18-.39-.39s.18-.39,.39-.39h8.62c.22,0,.39,.18,.39,.39s-.18,.39-.39,.39Z"/><path d="M52.51,72.86h-2.64c-.22,0-.39-.18-.39-.39s.17-.39,.39-.39h2.64c.22,0,.39,.18,.39,.39s-.18,.39-.39,.39Z"/><path d="M49.43,43.66h-7.43c-.22,0-.39-.18-.39-.39s.17-.39,.39-.39h7.43c.22,0,.39,.18,.39,.39s-.17,.39-.39,.39Z"/><path d="M52.98,51.44c-.14,0-.27-.07-.34-.2-.1-.19-.03-.43,.16-.53,2.44-1.34,3.9-3.64,3.9-6.16,0-3.84-3.42-7.03-7.79-7.25-.22-.01-.38-.2-.37-.41,.01-.22,.2-.38,.41-.37,4.79,.25,8.53,3.78,8.53,8.03,0,2.81-1.61,5.37-4.31,6.85-.06,.03-.12,.05-.19,.05Z"/><path d="M51.66,48.74c-.13,0-.27-.07-.34-.2-.11-.19-.04-.43,.14-.53,1.39-.8,2.22-2.1,2.22-3.47,0-2.17-2.1-4.04-4.79-4.25-.22-.02-.38-.21-.36-.42,.02-.21,.2-.38,.42-.36,3.14,.24,5.51,2.4,5.51,5.03,0,1.65-.98,3.2-2.61,4.15-.06,.04-.13,.05-.2,.05Z"/><path d="M52.22,49.84c-.14,0-.28-.08-.35-.22-.39-.78-.81-1.59-1.26-2.39-1.25-2.22-1.96-4.75-2.07-7.32,0-.22,.16-.4,.37-.41,.22,0,.4,.16,.41,.37,.1,2.44,.79,4.85,1.97,6.97,.46,.81,.89,1.63,1.28,2.42,.1,.19,.02,.43-.18,.52-.06,.03-.12,.04-.17,.04Z"/><path d="M40.56,52.19c-.05,0-.11-.01-.16-.04-.2-.09-.28-.32-.2-.52,.54-1.18,1.17-2.43,1.88-3.7,.44-.79,.83-1.63,1.15-2.49,.08-.2,.3-.3,.5-.23,.2,.08,.31,.3,.23,.5-.33,.9-.74,1.77-1.2,2.6-.7,1.25-1.32,2.48-1.85,3.64-.07,.14-.21,.23-.36,.23Z"/><g><path d="M52.19,65.3s-.09,0-.13-.02c-.2-.07-.31-.29-.24-.5,.54-1.55,.81-3.33,.81-5.29,0-.22,.17-.39,.39-.39s.39,.18,.39,.39c0,2.04-.29,3.91-.85,5.55-.06,.16-.21,.26-.37,.26Z"/><path d="M50.58,68.3c-.09,0-.17-.03-.25-.09-.17-.13-.2-.38-.06-.55,.26-.32,.5-.68,.72-1.06,.11-.19,.35-.25,.53-.14,.19,.11,.25,.35,.14,.54-.24,.41-.5,.8-.79,1.16-.08,.1-.19,.15-.3,.15Z"/></g><path d="M52.63,75.47h-13.81c-.22,0-.39-.17-.39-.39v-2.29c0-.3,.12-.6,.34-.82l1.22-1.21c-2.69-2.37-4.16-6.35-4.16-11.26,0-4.08,2.38-9.16,4.37-12.71,1.28-2.27,1.95-4.83,1.95-7.41v-6.04c0-.57-.2-1.13-.55-1.58l-1.68-2.12c-.2-.25-.23-.58-.1-.86,.14-.29,.42-.46,.74-.46h8.86c.26,0,.5,.12,.65,.33,.16,.21,.2,.47,.13,.72l-.78,2.66c-.07,.23-.1,.47-.1,.71v5.41c0,.22-.18,.39-.39,.39s-.39-.18-.39-.39v-5.41c0-.31,.04-.63,.13-.93l.78-2.66s0-.02,0-.03c0-.01-.02-.01-.03-.01h-8.86s-.02,0-.03,.02c0,.02,0,.03,0,.04l1.68,2.12c.46,.58,.72,1.32,.72,2.06v6.04c0,2.71-.71,5.41-2.05,7.79-1.95,3.46-4.27,8.42-4.27,12.32,0,4.87,1.5,8.76,4.21,10.94,.13,.1,.18,.28,.12,.43-.03,.07-.07,.13-.13,.18l-1.48,1.48c-.07,.07-.11,.17-.11,.26v1.9h13.03v-1.9c0-.1-.04-.19-.11-.26l-1.5-1.49c-.05-.04-.09-.1-.11-.17-.05-.16,0-.33,.12-.43,2.71-2.18,4.21-6.07,4.21-10.94,0-2.21-.75-5-2.22-8.29-.09-.2,0-.43,.2-.52,.2-.09,.43,0,.52,.2,1.52,3.39,2.29,6.29,2.29,8.61,0,4.91-1.48,8.89-4.16,11.26l1.22,1.21c.22,.21,.34,.51,.34,.82v2.29c0,.22-.18,.39-.39,.39Z"/><path d="M48.92,29.1c-.22,0-.39-.17-.39-.39v-2.38h-5.61v2.38c0,.22-.17,.39-.39,.39s-.39-.17-.39-.39v-2.78c0-.22,.17-.39,.39-.39h6.39c.22,0,.39,.18,.39,.39v2.78c0,.22-.17,.39-.39,.39Z"/><path d="M46.71,33.73h-4.18c-.22,0-.39-.18-.39-.39s.17-.39,.39-.39h4.18c.22,0,.39,.18,.39,.39s-.17,.39-.39,.39Z"/></g><g><path d="M59.13,52.48h0c-.26,0-.48-.07-.65-.22-.16-.12-.33-.37-.31-.83,.06-1.46,1.99-4.14,5.54-6.46,3.81-2.56,9.04-2.76,10.56-2.76,1,0,1.15,.04,1.25,.29,.06,.15,.02,.32-.1,.43-.05,.05-.12,.08-.19,.1-.53,.21-5.69,3.05-9.23,5.51,0,0,0,0-.01,0-.74,.48-1.45,.95-2.07,1.36-2.41,1.6-3.87,2.57-4.8,2.57Zm14.46-9.47c-1.84,.07-6.25,.46-9.45,2.62-3.46,2.25-4.99,4.63-5.17,5.68-.04,.22,0,.32,0,.34,.04,.03,.09,.04,.16,.04,.69,0,2.32-1.08,4.37-2.44,.62-.41,1.32-.88,2.07-1.36,2.12-1.48,4.69-2.99,6.03-3.77,.65-.38,1.37-.78,1.99-1.12Z"/><path d="M84.32,61.53c-1.01,0-2.02-1.64-3.84-4.61-.4-.66-.86-1.4-1.34-2.18,0,0,0,0,0-.01-2.25-3.87-5.88-8.7-6.31-9.15-.06-.04-.1-.1-.13-.17-.05-.12-.04-.26,.04-.37,.07-.11,.2-.18,.33-.18,.01,0,.03,0,.04,0,.04,0,.08,0,.12,.03,1.13,.34,6.94,3.06,9.61,7.5,2.32,3.71,2.94,7.07,2.37,8.46-.18,.43-.45,.58-.65,.63-.08,.02-.16,.03-.24,.03Zm-4.51-7.2c.49,.78,.94,1.52,1.35,2.18,1.33,2.18,2.59,4.24,3.17,4.24,.01,0,.02,0,.04,0,0,0,.01,0,.02,0,.02,0,.09-.08,.15-.28,.31-1.05-.05-3.95-2.35-7.64-2-3.31-5.81-5.6-7.85-6.6,.43,.57,.92,1.24,1.41,1.93,.94,1.32,2.72,3.87,4.08,6.19Z"/><path d="M68.15,73.9c-2.26,0-4.09-2.23-4.09-4.96s1.84-4.96,4.09-4.96,4.09,2.23,4.09,4.96-1.84,4.96-4.09,4.96Zm0-9.14c-1.82,0-3.31,1.88-3.31,4.18s1.49,4.18,3.31,4.18,3.31-1.88,3.31-4.18-1.48-4.18-3.31-4.18Z"/><path d="M68.15,71.94c-1.03,0-2.14-1.21-2.14-3,0-.22,.18-.39,.39-.39s.39,.18,.39,.39c0,1.38,.79,2.22,1.35,2.22,.22,0,.39,.18,.39,.39s-.17,.39-.39,.39Z"/><path d="M75.24,66.82c-1.76,0-3.46-1.21-4.33-3.09-1.16-2.48-.43-5.27,1.61-6.23,.46-.21,.96-.32,1.47-.32,1.76,0,3.46,1.21,4.33,3.09,1.16,2.48,.43,5.27-1.61,6.23-.46,.21-.96,.32-1.47,.32Zm-1.25-8.86c-.4,0-.79,.08-1.14,.25-1.65,.77-2.21,3.1-1.23,5.19,.74,1.58,2.19,2.64,3.62,2.64,.4,0,.79-.08,1.14-.25,1.65-.77,2.21-3.1,1.23-5.19-.74-1.58-2.19-2.64-3.62-2.64Z"/><path d="M75.24,64.87c-.82,0-1.93-.61-2.56-1.96-.09-.2,0-.43,.19-.52,.2-.09,.43,0,.52,.19,.52,1.11,1.39,1.51,1.85,1.51,.22,0,.39,.17,.39,.39s-.18,.39-.39,.39Z"/><path d="M68.15,65.82c-.21,0-.39-.17-.39-.39,0-.04-.04-4.33,.92-9.37,.89-4.68,2.84-11,7.11-14.51,.17-.14,.41-.11,.55,.05,.14,.17,.11,.41-.05,.55-7.85,6.46-7.75,23.09-7.74,23.26,0,.22-.17,.39-.39,.4h0Z"/><path d="M73.22,59.1c-.12,0-.24-.05-.31-.16-2.36-3.12-3.62-5.11-3.63-5.13-.12-.18-.06-.42,.12-.54,.18-.12,.42-.06,.54,.12,.01,.02,1.25,1.98,3.59,5.07,.13,.17,.1,.42-.08,.55-.07,.05-.15,.08-.24,.08Z"/><path d="M62.3,61.73c-.76,0-1.47-.22-2.06-.63-.91-.64-1.46-1.66-1.54-2.89-.08-1.2,.28-2.45,1.04-3.52,1.01-1.45,2.6-2.35,4.14-2.35,.76,0,1.47,.22,2.06,.63,.91,.64,1.46,1.66,1.54,2.89,.08,1.2-.28,2.45-1.04,3.52-1.01,1.45-2.6,2.35-4.14,2.35Zm1.58-8.61c-1.29,0-2.63,.77-3.5,2.01-.65,.93-.97,2-.9,3.02,.07,.99,.5,1.81,1.21,2.3,.46,.32,1.01,.49,1.61,.49,1.29,0,2.63-.77,3.5-2.02,.65-.93,.97-2,.9-3.02-.07-.99-.5-1.81-1.21-2.3-.46-.32-1.01-.49-1.61-.49Z"/><path d="M61.58,59.57c-.08,0-.16-.02-.22-.07-.56-.39-.69-1.06-.71-1.42-.05-.74,.2-1.56,.69-2.26,.12-.18,.37-.22,.54-.1,.18,.12,.22,.37,.1,.55-.39,.55-.59,1.19-.55,1.76,.02,.22,.09,.63,.38,.84,.18,.12,.22,.37,.1,.54-.08,.11-.2,.17-.32,.17Z"/><path d="M65.25,54.32c-.12,0-.24-.06-.32-.17-.12-.18-.08-.42,.09-.55,2.55-1.8,5.08-2.9,5.19-2.95,.2-.09,.43,0,.51,.2,.09,.2,0,.43-.2,.51-.03,.01-2.57,1.12-5.05,2.87-.07,.05-.15,.07-.23,.07Z"/></g></g><g><path d="M201.63,41.68h0s-2.76-2.76-2.76-2.76h0s0,0,0,0l-5.52-5.52s0,0,0,0c0,0,0,0,0,0l-2.76-2.76s0,0,0,0,0,0,0,0l-5.52-5.52s0,0,0,0c0,0,0,0,0,0l-1.1-1.1c-.35-.35-.82-.54-1.31-.54s-.96,.19-1.31,.54l-15.45,15.45c-.72,.72-.72,1.9,0,2.62l5.3,5.3c-.75,1.01-.71,2.49,.14,3.35l1.5,1.5-2.93,2.93c-.67-.36-1.53-.26-2.09,.31l-6.14,6.14c-.33,.33-.52,.78-.52,1.25s.18,.92,.52,1.25l.91,.91c.33,.33,.78,.52,1.25,.52s.92-.18,1.25-.52l6.14-6.14c.57-.57,.67-1.42,.31-2.09l2.93-2.93,1.5,1.5c.45,.45,1.08,.68,1.73,.68,.57,0,1.15-.18,1.62-.53l5.3,5.3c.36,.36,.84,.54,1.31,.54s.95-.18,1.31-.54l15.45-15.45c.72-.72,.72-1.9,0-2.62l-1.06-1.06Zm-6.29-5.26l-17.04,17.04-2.24-2.24,17.04-17.04,2.24,2.24Zm-2.76-2.76l-17.04,17.04-2.24-2.24,17.04-17.04,2.24,2.24Zm-26.16,7.92c-.44-.44-.44-1.15,0-1.59l15.45-15.45c.21-.21,.49-.33,.8-.33s.58,.12,.8,.33l.84,.84-17.04,17.04-.84-.84Zm1.36,1.36l17.04-17.04,2.24,2.24-17.04,17.04-2.24-2.24Zm2.76,2.76l17.04-17.04,2.24,2.24-17.04,17.04-.82-.82s0,0,0,0c0,0,0,0,0,0l-1.42-1.42Zm-.56,10.45l.59,.59-1.09,1.09-.59-.59,1.09-1.09Zm.75,2.22l-6.14,6.14c-.2,.2-.46,.3-.74,.3s-.54-.11-.74-.3l-.91-.91c-.2-.2-.3-.46-.3-.74s.11-.54,.3-.74l6.14-6.14c.2-.2,.47-.3,.74-.3,.09,0,.19,.02,.28,.04l-1.25,1.25c-.07,.07-.11,.16-.11,.26s.04,.19,.11,.26l1.11,1.11c.07,.07,.16,.11,.26,.11s.19-.04,.26-.11l1.25-1.25c.1,.35,.01,.74-.26,1.02Zm.36-2.14l-.59-.59,2.87-2.87,.59,.59-2.87,2.87Zm5.4-1.37l-1.76-1.76s0,0,0,0l-.55-.55-2.31-2.31c-.59-.58-.62-1.59-.14-2.31l7.07,7.07c-.72,.48-1.73,.45-2.31-.14Zm3.11-.09s0,0,0,0c0,0,0,0,0,0l-.78-.78,17.04-17.04,2.24,2.24-17.04,17.04-1.46-1.46Zm1.98,1.98l17.04-17.04,2.24,2.24-17.04,17.04-2.24-2.24Zm20.6-11.89l-15.45,15.45c-.44,.44-1.15,.44-1.59,0l-.8-.8,17.04-17.04,.8,.8c.44,.44,.44,1.15,0,1.59Z"/><path d="M189.12,77.53s-.07,0-.11-.02c-.18-.06-.28-.25-.22-.43,.43-1.33-.62-2.67-1.74-4.09-.72-.91-1.45-1.85-1.77-2.81-.62-1.86-.49-3.82,.33-5.38-1.6,.6-2.02,1.95-2.42,3.25-.16,.51-.31,1-.53,1.44-.42,.85-1.19,1.34-2.04,1.29-.93-.04-1.77-.69-2.15-1.65-.53-1.36-.68-4.75,.47-6.7-2.57,1.3-2.93,3.21-2.95,4.62-.03,2.3-.31,6.28-1.85,7.08-.51,.27-1.08,.18-1.71-.24-.88-.6-.78-1.4-.65-2.41,.11-.87,.26-2.01-.07-3.6-.43,1.06-1.22,2.01-2.24,2.67-1.86,1.2-3.11,2.1-3.4,3.66-.01,.04-.35,1.25,0,2.9,.04,.18-.08,.37-.26,.4-.18,.04-.37-.08-.4-.26-.38-1.83,0-3.15,0-3.2,.33-1.79,1.74-2.82,3.7-4.08,1.21-.78,2.05-2.02,2.24-3.32,.02-.16,.18-.31,.34-.32,.16,0,.35,.12,.4,.27,.71,2.31,.51,3.91,.37,4.97-.13,1.04-.15,1.42,.35,1.76,.6,.41,.91,.25,1.01,.2,.87-.45,1.43-2.94,1.48-6.49,.04-2.91,1.65-4.83,4.92-5.86,.17-.06,.37,.04,.44,.21,.06,.16-.02,.36-.17,.44-1.99,.94-2,5.48-1.39,7.05,.28,.71,.89,1.19,1.55,1.22,.57,.01,1.1-.31,1.4-.92,.19-.39,.34-.85,.49-1.33,.47-1.52,1.05-3.4,3.66-3.92,.14-.03,.32,.05,.39,.17,.08,.12,.07,.31,0,.43-1.06,1.47-1.3,3.51-.66,5.44,.28,.85,.98,1.74,1.66,2.6,1.18,1.5,2.39,3.04,1.85,4.72-.05,.14-.18,.24-.32,.24Z"/></g><g><path d="M326.98,50.9h-2.36s0-3.3,0-3.3c0-.21-.16-.37-.37-.37h-13.33v-2.88h4.15c.44,0,.79-.35,.79-.79V26.69c0-.44-.36-.79-.79-.79h-7.27c-.06,.01-.09,.02-.12,.03-.08,.03-.12,.06-.14,.08l-5.58,5.58s-.05,.06-.07,.11c-.02,.07-.03,.1-.03,.13l-.02,.09v10.91c0,.41,.17,.8,.46,1.09,.29,.29,.68,.45,1.09,.45h6.79v2.88h-13.33c-.19,0-.35,.15-.37,.34v.11s0,0,0,0v3.22h-2.8c-.06,0-.09,.02-.12,.03-.08,.03-.12,.05-.14,.08l-4.18,4.18s-.05,.06-.07,.11c-.02,.07-.03,.1-.03,.13l-.02,.09v8.15c0,.69,.57,1.24,1.25,1.24h8.74c.38,0,.69-.31,.69-.69v-12.63c0-.38-.31-.69-.69-.69h-1.9s0-2.93,0-2.93h12.96v2.93h-2.58c-.05,0-.09,.02-.12,.03-.08,.03-.12,.06-.14,.08l-4.17,4.18s-.05,.06-.07,.11c-.02,.07-.03,.1-.03,.13l-.02,.09v8.15c0,.69,.57,1.24,1.25,1.24h8.74c.38,0,.69-.31,.69-.69v-12.63c0-.38-.31-.69-.69-.69h-2.13s0-2.93,0-2.93h12.96v2.93h-2.37s-.06,.02-.1,.03c-.08,.03-.12,.06-.14,.08l-4.17,4.18s-.05,.06-.07,.11c-.02,.07-.03,.1-.03,.13l-.02,.09v8.15c0,.69,.57,1.24,1.25,1.24h8.74c.38,0,.69-.31,.69-.69v-12.63c0-.38-.31-.69-.69-.69Zm-33.66,1.26v2.92s-2.92,0-2.92,0l2.92-2.92Zm5.76-.52v12.53s-8.69,0-8.69,0c-.28,0-.51-.23-.51-.51v-7.85s3.81,0,3.81,0c.1,0,.19-.04,.26-.11,.07-.07,.11-.16,.11-.26v-3.81s5.02,0,5.02,0Zm8.35-24.49v4.32s-4.32,0-4.32,0l4.32-4.32Zm-.19,25.01v2.92s-2.92,0-2.92,0l2.92-2.92Zm5.76-.52v12.53s-8.69,0-8.69,0c-.28,0-.51-.23-.51-.51v-7.85h3.81c.2,0,.37-.17,.37-.37v-3.81s5.02,0,5.02,0Zm-9.61-8.02c-.21,0-.41-.08-.57-.23-.15-.15-.23-.35-.23-.57v-10.61s5.21,0,5.21,0c.1,0,.19-.04,.26-.11,.07-.07,.11-.16,.11-.26v-5.21s6.96,0,6.96,0v16.99s-11.74,0-11.74,0Zm17.78,8.54v2.92h-2.92l2.92-2.92Zm-2.93,12.01c-.28,0-.51-.23-.51-.51v-7.85h3.81c.2,0,.37-.17,.37-.37v-3.81h5.02s0,12.53,0,12.53h-8.69Z"/><path d="M305.18,36.1h7.36c.26,0,.47-.21,.47-.47s-.21-.47-.47-.47h-7.36c-.26,0-.47,.21-.47,.47s.21,.47,.47,.47Z"/><path d="M305.18,38.73h7.36c.26,0,.47-.21,.47-.47s-.21-.47-.47-.47h-7.36c-.26,0-.47,.21-.47,.47s.21,.47,.47,.47Z"/><path d="M305.18,41.37h7.36c.26,0,.47-.21,.47-.47s-.21-.47-.47-.47h-7.36c-.26,0-.47,.21-.47,.47s.21,.47,.47,.47Z"/><path d="M297.51,68.89l-2.93,3.76c-.06,.07-.14,.09-.18,.09-.06,.01-.15-.02-.2-.09l-1.06-1.32c-.07-.09-.18-.14-.29-.14-.08,0-.17,.03-.23,.08-.16,.13-.19,.37-.06,.53l1.06,1.32c.19,.24,.47,.37,.77,.37,.31,0,.59-.14,.78-.38l2.93-3.76c.06-.08,.09-.18,.08-.28s-.06-.19-.14-.25c-.16-.13-.4-.1-.53,.07Z"/><path d="M297.19,72.55c-.21,0-.38,.17-.38,.38v1.86c0,.13-.11,.24-.24,.24h-4.82c-.13,0-.24-.11-.24-.24v-4.82c0-.13,.11-.24,.24-.24h3.54c.21,0,.38-.17,.38-.38s-.17-.38-.38-.38h-3.54c-.55,0-.99,.44-.99,.99v4.82c0,.55,.44,.99,.99,.99h4.82c.55,0,.99-.44,.99-.99v-1.86c0-.21-.17-.38-.38-.38Z"/><path d="M311.43,68.89l-2.93,3.76c-.04,.06-.11,.09-.18,.09-.07,.01-.15-.02-.2-.09l-1.06-1.32c-.07-.09-.18-.14-.29-.14-.08,0-.17,.03-.24,.08-.08,.06-.13,.15-.14,.25-.01,.1,.02,.2,.08,.28l1.06,1.32c.19,.24,.47,.37,.77,.37,.31,0,.59-.14,.78-.38l2.93-3.76c.06-.08,.09-.18,.08-.28-.01-.1-.06-.19-.14-.25-.16-.13-.4-.1-.53,.07Z"/><path d="M311.12,72.55c-.21,0-.38,.17-.38,.38v1.86c0,.13-.11,.24-.24,.24h-4.82c-.13,0-.24-.11-.24-.24v-4.82c0-.13,.11-.24,.24-.24h3.54c.21,0,.38-.17,.38-.38s-.17-.38-.38-.38h-3.54c-.55,0-.99,.44-.99,.99v4.82c0,.55,.44,.99,.99,.99h4.82c.55,0,.99-.44,.99-.99v-1.86c0-.21-.17-.38-.38-.38Z"/><path d="M325.36,68.89l-2.93,3.76c-.06,.07-.14,.09-.18,.09-.06,.01-.15-.02-.2-.09l-1.06-1.32c-.07-.09-.18-.14-.29-.14-.08,0-.17,.03-.23,.08-.16,.13-.19,.37-.06,.53l1.06,1.32c.19,.24,.47,.37,.77,.37,.31,0,.59-.14,.78-.38l2.93-3.76c.06-.08,.09-.18,.08-.28s-.06-.19-.14-.25c-.17-.13-.4-.1-.53,.07Z"/><path d="M325.04,72.55c-.21,0-.38,.17-.38,.38v1.86c0,.13-.11,.24-.24,.24h-4.82c-.13,0-.24-.11-.24-.24v-4.82c0-.13,.11-.24,.24-.24h3.54c.21,0,.38-.17,.38-.38s-.17-.38-.38-.38h-3.54c-.55,0-.99,.44-.99,.99v4.82c0,.55,.44,.99,.99,.99h4.82c.55,0,.99-.44,.99-.99v-1.86c0-.21-.17-.38-.38-.38Z"/></g></g></svg>