<?xml version="1.0" encoding="UTF-8"?><svg id="_레이어_2" xmlns="http://www.w3.org/2000/svg" viewBox="0 0 344.03 31.57"><defs><style>.cls-1{fill:#595757;}</style></defs><g id="_레이어_1-2"><g><path class="cls-1" d="M0,8.59c.94,.01,2.15,0,3.22-.04v-2.24h.91v2.22c1.21-.04,2.6-.12,3.52-.22v.74c-1.8,.28-5.05,.31-7.65,.31v-.78Zm6.61-2.21c-1.07-.47-2.26-1.25-2.88-2.42-.52,1.14-1.79,2.09-2.96,2.54l-.49-.64c1.59-.67,2.96-1.66,2.96-3.36v-.16H.6v-.74H3.24V0h.93V1.61h2.64v.74h-2.64v.16c0,1.63,1.34,2.65,2.85,3.15l-.4,.72Zm2.51,4.98h-.88V.11h.88V11.36Z"/><path class="cls-1" d="M16.56,6.38c-1.01-.41-2.44-1.28-2.93-2.4-.51,1.29-1.76,2.1-2.91,2.69l-.52-.6c1.45-.73,2.95-1.7,2.95-3.56V.49h.92V2.5c0,1.8,1.53,2.65,2.88,3.2l-.4,.68Zm3.02,4.8h-7.38v-3.63h.91v2.88h6.47v.75Zm-.26-3.13h-.88V.11h.88v7.94Z"/><path class="cls-1" d="M23.53,6.3c2.27,.01,5.69-.07,7.63-.28v.74c-.94,.14-2.26,.23-3.66,.26v3.97h-.89v-3.95c-1.05,.02-2.11,.02-3.08,.02v-.78Zm6.59-3.62c0,1.46-1.27,2.35-2.98,2.35s-2.98-.86-2.98-2.35,1.35-2.38,2.98-2.38,2.98,.85,2.98,2.38Zm-2.98-1.64c-1.19,0-2.12,.67-2.12,1.63s.92,1.62,2.12,1.62c1.27,0,2.11-.66,2.11-1.62s-.88-1.63-2.11-1.63Zm5.6,10.33h-.88V.11h.88V11.36Z"/><path class="cls-1" d="M38.86,6.15c-.95-.54-1.95-1.33-2.32-2.25-.29,.95-1.24,1.86-2.36,2.57l-.56-.62c1.06-.64,2.47-1.74,2.47-3.33V.6h.89v1.91c0,1.52,1.33,2.45,2.33,2.96l-.45,.68Zm4.48,3.14c0,1.75-1.94,2.28-3.75,2.28s-3.72-.53-3.72-2.28,2.01-2.3,3.72-2.3,3.75,.56,3.75,2.3Zm-.94,.01c0-1.2-1.53-1.59-2.8-1.59s-2.79,.4-2.79,1.59,1.55,1.54,2.79,1.54,2.8-.35,2.8-1.54Zm.85-2.53h-.88V3.45h-1.61v2.87h-.87V.17h.87V2.65h1.61V.11h.88V6.78Z"/><path class="cls-1" d="M50.31,5.59c-1.02-.41-2.44-1.28-2.94-2.4-.51,1.29-1.76,2.09-2.91,2.67l-.52-.6c1.46-.72,2.95-1.7,2.95-3.56V.31h.93V1.69c0,1.8,1.52,2.66,2.88,3.21l-.4,.68Zm3.32,5.83h-7.46v-2.83h6.26v-1.43h-6.26v-.71h7.18v2.83h-6.25v1.43h6.53v.71Zm-.32-5.6h-.88V2.84h-2.42v-.76h2.42V.11h.88V5.82Z"/><path class="cls-1" d="M60.31,8.3h-5.18V.9h.88V3.71h3.41V.9h.88v7.4Zm-.88-.76v-3.07h-3.41v3.07h3.41ZM62.71,.11h.89V11.36h-.89V.11Z"/><path class="cls-1" d="M70.35,7.35v1.81h4.73v.76h-10.36v-.76h4.72v-1.81h.92Zm-4.15-.5V3.42h6.44V1.55h-6.47V.79h7.36v3.37h-6.42v1.93h6.79v.76h-7.69Z"/><path class="cls-1" d="M83.77,.66c-.15,3.49-2.68,4.94-4.91,5.73l-.46-.66c2.2-.78,4.22-2.1,4.4-4.33h-3.83V.66h4.8Zm3.41,10.64h-7.09V7.04h7.09v4.26Zm-.89-.73v-2.79h-5.31v2.79h5.31Zm.89-4.15h-.89V.11h.89V6.42Z"/><path class="cls-1" d="M88.56,8.1c2.27,.01,5.69-.07,7.63-.28v.74c-1.8,.26-5.04,.31-7.63,.31v-.78Zm3.56-1.99c-1.73,0-3.04-1.12-3.04-2.72s1.33-2.71,2.98-2.71c1.82,0,2.98,1.24,2.98,2.75s-1.12,2.69-2.92,2.69Zm2.01-2.71c0-1.16-.78-1.94-2.07-1.94s-2.08,.88-2.08,1.94c0,1.15,.8,1.94,2.11,1.94s2.05-.78,2.05-1.94Zm3.65,7.96h-.88V.11h.88V11.36Z"/><path class="cls-1" d="M105.57,1.46v1.09c0,1.8,1.47,2.65,2.82,3.2l-.4,.68c-1.02-.4-2.36-1.28-2.87-2.4-.49,1.29-1.71,2.1-2.85,2.69l-.52-.6c1.45-.73,2.89-1.7,2.89-3.56V1.46h-2.34V.72h5.59v.74h-2.33Zm5.62,9.71h-7.38v-3.63h.91v2.88h6.47v.75Zm-.26-3.13h-.88V3.77h-2.31v-.75h2.31V.11h.88v7.94Z"/><path class="cls-1" d="M122.35,6.51h-4.6v2.36h-.89v-2.36h-4.87v-.76h10.36v.76Zm-1.02,4.67h-7.91v-3.45h.89v2.7h7.01v.75Zm-.51-6.85h-7.32V.46h7.32v3.87Zm-.87-.77V1.22h-5.56V3.56h5.56Z"/><path class="cls-1" d="M127.66,.96c-.04,4.56-2,6.5-4.69,7.99l-.6-.68c2.98-1.58,4.32-3.61,4.33-6.56h-3.99V.96h4.95Zm3.24-.85V4.44h1.96v.79h-1.96v6.13h-.89V.11h.89Z"/><path class="cls-1" d="M138,.96c-.04,4.56-2,6.5-4.69,7.99l-.6-.68c2.98-1.58,4.32-3.61,4.33-6.56h-3.99V.96h4.95Zm3.24-.85V4.44h1.96v.79h-1.96v6.13h-.89V.11h.89Z"/><path class="cls-1" d="M149.21,.37c1.79,0,2.89,1.24,2.89,2.66s-1.04,2.66-2.89,2.66-2.89-1.22-2.89-2.66,1.11-2.66,2.89-2.66Zm2,2.66c0-1.02-.72-1.92-2-1.92-1.36,0-2,.9-2,1.92s.6,1.91,2,1.91c1.32,0,2-.88,2-1.91Zm3.99,8.26h-7.09V7.04h7.09v4.26Zm-.89-.73v-2.79h-5.31v2.79h5.31Zm-1.79-7.94h1.79V.11h.89V6.36h-.89V3.38h-1.79v-.75Z"/><path class="cls-1" d="M162.68,6.38c-1.02-.41-2.44-1.28-2.94-2.4-.51,1.29-1.76,2.1-2.91,2.69l-.51-.6c1.45-.73,2.94-1.7,2.94-3.56V.49h.93V2.5c0,1.8,1.53,2.65,2.88,3.2l-.4,.68Zm3.2,4.8h-7.38v-3.63h.91v2.88h6.47v.75Zm-.26-3.13h-.88V3.27h-2.42v-.76h2.42V.11h.88v7.94Z"/><path class="cls-1" d="M173.12,2.09h-6.62v-.72h2.85V0h.94V1.37h2.83v.72Zm-3.31,5.05c-1.64,0-2.69-1.03-2.69-2.23s1.07-2.17,2.71-2.17,2.67,.94,2.67,2.17-.99,2.23-2.68,2.23Zm-1.8-2.24c0,.84,.6,1.54,1.81,1.54s1.79-.65,1.79-1.54c0-.84-.58-1.48-1.79-1.48s-1.81,.64-1.81,1.48Zm7.72,6.28h-7.33v-3.26h.91v2.51h6.42v.75Zm-.39-11.07V3.81h1.81v.77h-1.81v3.69h-.88V.11h.88Z"/><path class="cls-1" d="M186.41,2.09h-6.62v-.72h2.85V0h.94V1.37h2.83v.72Zm-3.31,5.05c-1.64,0-2.69-1.03-2.69-2.23s1.07-2.17,2.71-2.17,2.67,.94,2.67,2.17-.99,2.23-2.68,2.23Zm-1.8-2.24c0,.84,.6,1.54,1.81,1.54s1.79-.65,1.79-1.54c0-.84-.58-1.48-1.79-1.48s-1.81,.64-1.81,1.48Zm7.72,6.28h-7.33v-3.26h.91v2.51h6.42v.75Zm-.39-11.07V3.81h1.81v.77h-1.81v3.69h-.88V.11h.88Z"/><path class="cls-1" d="M200.68,5.28h-4.74v2.04h3.29v4.1h-.89v-3.35h-6.73v-.75h3.4v-2.04h-4.69v-.76h7.56c.12-.76,.34-2.48,.35-3.31h-6.48V.44h7.46c-.04,1.02-.26,3.12-.41,4.08h1.88v.76Z"/><path class="cls-1" d="M206.72,6.38c-1.02-.41-2.44-1.28-2.94-2.4-.51,1.29-1.76,2.1-2.91,2.69l-.52-.6c1.45-.73,2.95-1.7,2.95-3.56V.49h.93V2.5c0,1.8,1.52,2.65,2.87,3.2l-.39,.68Zm3,4.8h-7.33v-3.63h.91v2.88h6.42v.75Zm-.39-11.07V3.2h1.81v.77h-1.81v4.14h-.88V.11h.88Z"/><path class="cls-1" d="M214.2,5.27c2.27,.01,5.53-.07,7.46-.26v.71c-.98,.14-2.35,.23-3.8,.28v1.8h-.89v-1.79c-.94,.02-1.88,.02-2.76,.02v-.75Zm3.49-4.98c1.64,0,2.78,.79,2.78,2s-1.12,2.01-2.78,2.01-2.79-.77-2.79-2.01,1.19-2,2.79-2Zm0,.68c-1.29,0-1.92,.55-1.92,1.32s.65,1.31,1.93,1.31,1.92-.56,1.92-1.31-.62-1.32-1.93-1.32Zm5.92,10.21h-7.68v-2.81h.89v2.05h6.79v.75Zm-.29-2.48h-.88v-1.16h-2.69v-.77h2.69V.11h.88V8.7Z"/><path class="cls-1" d="M234.66,9.77h-10.36v-.77h4.71v-2.61h.92v2.61h4.74v.77Zm-4.73-8.12h3.39v.77h-3.38v.31c0,1.61,2.29,2.95,3.98,3.53l-.51,.65c-1.41-.44-3.26-1.62-3.94-2.9-.66,1.28-2.36,2.34-3.94,2.91l-.51-.67c1.66-.52,3.96-1.91,3.96-3.51v-.31h-3.35v-.77h3.36V0h.93V1.66Z"/><path class="cls-1" d="M234.48,8.44c.92,.01,1.96,0,3.01-.02v-1.92h.91v1.88c1.24-.04,2.44-.11,3.36-.2v.74c-1.8,.28-4.67,.31-7.28,.31v-.79Zm3.49-2.49c-1.73,0-3.04-1.1-3.04-2.71s1.33-2.72,2.98-2.72c1.82,0,2.98,1.25,2.98,2.76s-1.12,2.67-2.92,2.67Zm2.01-2.7c0-1.16-.78-1.94-2.07-1.94s-2.07,.88-2.07,1.94c0,1.15,.79,1.94,2.09,1.94s2.05-.78,2.05-1.94Zm3.44-3.14V4.63h1.86v.77h-1.86v5.96h-.88V.11h.88Z"/><path class="cls-1" d="M258.3,5.67h-4.71v1.19h3.26v2.59h-6.52v1.26h6.82v.71h-7.79v-2.65h6.54v-1.2h-6.54v-.71h3.29v-1.19h-4.73v-.74h10.36v.74Zm-8.91-1.83V.07h.87V1.25h5.58V.07h.87V3.84h-7.32Zm6.45-.74V1.97h-5.58v1.13h5.58Z"/><path class="cls-1" d="M263.91,6.93v2.01h4.74v.77h-10.36v-.77h4.71v-2.01h.92Zm2.2-4.58l-.26,3.12h1.98v.76h-8.75v-.76h1.99l-.24-3.12h.89l.24,3.12h3.01l.22-3.12h.92Zm-6.76-.79V.8h8.22v.76h-8.22Z"/><path class="cls-1" d="M272.56,7.4v1.43c1.18-.05,2.31-.11,3.19-.2v.74c-1.8,.26-4.67,.3-7.28,.3v-.78c.96,.01,2.07,0,3.18-.04v-1.45h.92Zm2.76-5.13h-6.65v-.73h2.88V.02h.93V1.54h2.83v.73Zm-3.19,4.73c-1.86,0-2.85-.94-2.85-2.11s1-2.12,2.79-2.12,2.85,.97,2.85,2.13-1.07,2.1-2.79,2.1Zm1.92-2.1c0-.77-.64-1.43-1.98-1.43-1.23,0-1.95,.67-1.95,1.42s.73,1.39,1.96,1.39c1.35,0,1.96-.61,1.96-1.38Zm3.35-4.79V5.23h1.86v.77h-1.86v5.36h-.88V.11h.88Z"/><path class="cls-1" d="M285.56,8.53c-.96-.56-2.31-1.54-2.93-3.07-.56,1.57-1.75,2.54-3,3.32l-.58-.65c1.66-.95,3.11-2.4,3.11-4.43V1.7h-2.49V.96h5.93v.74h-2.51V3.75c0,1.93,1.44,3.31,2.91,4.04l-.44,.73Zm2.6,2.83h-.89V.11h.89V11.36Z"/><path class="cls-1" d="M294.66,5.83h-5.07V.6h.87v1.82h3.33V.6h.87V5.83Zm-.87-.76v-1.89h-3.33v1.89h3.33Zm4.29,4.21c0,1.34-1.09,2.29-3.62,2.29s-3.65-.94-3.65-2.29,1.11-2.33,3.65-2.33,3.62,.97,3.62,2.33Zm-.92,.01c0-1.01-.99-1.63-2.69-1.63s-2.72,.62-2.72,1.63c0,.94,.96,1.56,2.72,1.56s2.69-.58,2.69-1.56Zm2.53-5.62h-1.81v3.01h-.89V.11h.89V2.92h1.81v.75Z"/><path class="cls-1" d="M305.74,6.38c-1.02-.41-2.44-1.28-2.94-2.4-.51,1.29-1.76,2.1-2.91,2.69l-.52-.6c1.45-.73,2.95-1.7,2.95-3.56V.49h.93V2.5c0,1.8,1.52,2.65,2.87,3.2l-.39,.68Zm3,4.8h-7.33v-3.63h.91v2.88h6.42v.75Zm-.39-11.07V3.2h1.81v.77h-1.81v4.14h-.88V.11h.88Z"/><path class="cls-1" d="M316.16,4.65c0,2.58-1.01,3.96-2.84,3.96s-2.83-1.38-2.83-3.96,1.09-3.95,2.83-3.95,2.84,1.32,2.84,3.95Zm-.89-.01c0-1.97-.58-3.18-1.93-3.18s-1.95,1.19-1.95,3.18,.62,3.2,1.95,3.2,1.93-1.27,1.93-3.2Zm3.86,6.72h-.89V.11h.89V11.36Z"/><path class="cls-1" d="M333.68,5.79h-10.36v-.76h4.72v-1.5h-3.22V.13h.88V2.78h6.74v.76h-3.48v1.5h4.73v.76Zm-9.35,5.5v-.73h1.79l-.12-2.04h.91l.09,2.04h3l.08-2.04h.91l-.12,2.04h1.76v.73h-8.31Zm.28-3.53v-.73h7.76v.73h-7.76Z"/><path class="cls-1" d="M344.03,9.46h-10.36v-.76h3.82V4.58h.91v4.12h5.63v.76Zm-2.85-2.31c.31-1.6,.52-3.65,.52-5.43h-6.67V.96h7.65c-.07,2.41-.29,4.38-.6,6.19h-.89Z"/><path class="cls-1" d="M33.65,22.04h-6.62v-.72h2.85v-1.37h.94v1.37h2.83v.72Zm-3.31,4.56c-1.73,0-2.69-.95-2.69-2.01s.98-1.94,2.71-1.94,2.67,.88,2.67,1.94-.93,2.01-2.68,2.01Zm-1.8-2.03c0,.68,.6,1.32,1.81,1.32s1.79-.61,1.79-1.32c0-.67-.58-1.25-1.79-1.25s-1.81,.58-1.81,1.25Zm7.54,4.87c0,1.22-1.08,2.12-3.64,2.12s-3.64-.92-3.64-2.13,1.12-2.15,3.65-2.15,3.62,.91,3.62,2.16Zm-.94-.01c0-.86-.98-1.44-2.69-1.44s-2.69,.54-2.69,1.44c0,.83,.95,1.43,2.71,1.43s2.68-.59,2.68-1.43Zm2.54-5.54h-1.81v3h-.88v-6.78h.88v3.03h1.81v.74Z"/><path class="cls-1" d="M43.61,26.38c-1.02-.41-2.44-1.28-2.94-2.4-.51,1.29-1.76,2.1-2.91,2.69l-.52-.6c1.45-.73,2.95-1.7,2.95-3.56v-2.01h.93v2c0,1.8,1.52,2.65,2.87,3.2l-.39,.68Zm3,4.8h-7.33v-3.63h.91v2.88h6.42v.75Zm-.39-11.07v3.09h1.81v.77h-1.81v4.14h-.88v-8h.88Z"/><path class="cls-1" d="M51.83,27.4v1.43c1.18-.05,2.31-.11,3.19-.2v.74c-1.8,.26-4.67,.3-7.28,.3v-.78c.96,.01,2.07,0,3.18-.04v-1.45h.92Zm2.76-5.13h-6.65v-.73h2.88v-1.51h.93v1.51h2.83v.73Zm-3.19,4.73c-1.86,0-2.85-.94-2.85-2.11s1-2.12,2.79-2.12,2.85,.97,2.85,2.13-1.07,2.1-2.79,2.1Zm1.92-2.1c0-.77-.64-1.43-1.98-1.43-1.23,0-1.95,.67-1.95,1.42s.73,1.39,1.96,1.39c1.35,0,1.96-.61,1.96-1.38Zm3.35-4.79v5.12h1.86v.77h-1.86v5.36h-.88v-11.25h.88Z"/><path class="cls-1" d="M67.31,25.97c-1.02-.4-2.36-1.28-2.87-2.4-.51,1.31-1.72,2.1-2.86,2.69l-.52-.6c1.46-.72,2.89-1.7,2.89-3.56v-.7h-2.34v-.74h5.6v.74h-2.33v.68c0,1.8,1.46,2.65,2.81,3.2l-.39,.68Zm2.55,5.45h-.88v-3.3h-6.32v-.76h7.2v4.05Zm1.81-7.99h-1.81v3.3h-.88v-6.62h.88v2.57h1.81v.76Z"/><path class="cls-1" d="M81.91,26.22h-10.36v-.74h2.8v-1.6c-.93-.35-1.41-.94-1.41-1.7,0-1.17,1.33-2,3.78-2s3.78,.82,3.78,2c0,.77-.48,1.33-1.38,1.68v1.62h2.8v.74Zm-1.29,3.19c0,1.22-1.25,2.16-3.89,2.16s-3.87-.94-3.87-2.16,1.26-2.15,3.87-2.15,3.89,.9,3.89,2.15Zm-3.89-1.44c-1.82,0-2.91,.58-2.91,1.43s1.08,1.44,2.91,1.44,2.92-.55,2.92-1.44-1.09-1.43-2.92-1.43Zm-2.86-5.79c0,.92,1.26,1.32,2.85,1.32s2.85-.4,2.85-1.32c0-.83-1.26-1.27-2.85-1.27s-2.85,.46-2.85,1.27Zm2.85,2.05c-.55,0-1.05-.05-1.47-.12v1.37h2.99v-1.38c-.45,.08-.96,.13-1.52,.13Z"/><path class="cls-1" d="M88.02,24.65c0,2.58-1.01,3.96-2.84,3.96s-2.83-1.38-2.83-3.96,1.09-3.95,2.83-3.95,2.84,1.32,2.84,3.95Zm-.89-.01c0-1.97-.58-3.18-1.93-3.18s-1.95,1.19-1.95,3.18,.62,3.2,1.95,3.2,1.93-1.27,1.93-3.2Zm3.86,6.72h-.89v-11.25h.89v11.25Z"/><path class="cls-1" d="M95.51,26.48c2.27,.01,5.82-.07,7.75-.26v.73c-.95,.14-2.32,.23-3.78,.26v3.79h-.89v-3.77c-1.06,.04-2.12,.04-3.08,.04v-.79Zm3.53-1.75c-.71,.06-1.47,.1-3.09,.1v-4.2h2.91v.74h-2.04v2.7c.82,0,1.73-.02,2.22-.06v.72Zm3.71,.1h-3.22v-4.2h3.08v.74h-2.21v2.7h2.35v.75Zm1.98,6.54h-.88v-11.25h.88v11.25Z"/><path class="cls-1" d="M111.53,24.77c0,2.59-1.07,3.96-2.75,3.96s-2.75-1.37-2.75-3.96,1.08-3.95,2.75-3.95,2.75,1.32,2.75,3.95Zm-.89-.01c0-1.97-.62-3.18-1.85-3.18s-1.87,1.19-1.87,3.18,.65,3.21,1.87,3.21,1.85-1.27,1.85-3.21Zm4.12,6.6h-.89v-6.43h-1.79v-.82h1.79v-4.01h.89v11.25Z"/><path class="cls-1" d="M122.76,25.61c-1.98,.29-4.44,.26-6.42,.26v-5.21h.89v4.43c1.49,0,3.66,0,5.53-.22v.73Zm2.06,5.56h-7.33v-3.83h.91v3.07h6.42v.75Zm-.39-11.07v2.65h1.81v.76h-1.81v4.65h-.89v-8.06h.89Z"/><path class="cls-1" d="M129.48,28.59c.94,.01,2.15,0,3.22-.04v-2.24h.91v2.22c1.21-.04,2.6-.12,3.52-.22v.74c-1.8,.28-5.05,.31-7.65,.31v-.78Zm6.61-2.21c-1.07-.47-2.26-1.25-2.88-2.42-.52,1.14-1.79,2.09-2.96,2.54l-.49-.64c1.59-.67,2.96-1.66,2.96-3.36v-.16h-2.64v-.74h2.64v-1.61h.93v1.61h2.64v.74h-2.64v.16c0,1.63,1.34,2.65,2.85,3.15l-.4,.72Zm2.51,4.98h-.88v-11.25h.88v11.25Z"/><path class="cls-1" d="M149.88,29.46h-10.36v-.76h3.82v-4.12h.91v4.12h5.63v.76Zm-2.85-2.31c.31-1.6,.52-3.65,.52-5.43h-6.67v-.75h7.65c-.07,2.41-.29,4.38-.6,6.19h-.89Z"/><path class="cls-1" d="M160.23,25.22h-10.36v-.76h7.52c.15-1,.36-2.57,.39-3.27h-6.47v-.77h7.45c-.01,.79-.27,2.91-.44,4.04h1.92v.76Zm-1.45,6.08h-7.48v-4.95h.88v1.63h5.72v-1.63h.88v4.95Zm-.88-.73v-1.86h-5.72v1.86h5.72Z"/><path class="cls-1" d="M168.78,26.93v2.01h4.74v.77h-10.36v-.77h4.71v-2.01h.92Zm2.2-4.58l-.26,3.12h1.98v.76h-8.75v-.76h1.99l-.24-3.12h.89l.24,3.12h3.01l.22-3.12h.92Zm-6.76-.79v-.76h8.22v.76h-8.22Z"/><path class="cls-1" d="M179.14,26.75v2.13h4.73v.75h-10.36v-.75h4.72v-2.13h.92Zm-4.16-.9v-5.05h7.47v.76h-6.59v3.54h6.74v.75h-7.62Z"/><path class="cls-1" d="M191.28,28.44c-.61-.52-1.55-1.93-1.68-2.65-.17,.76-1.14,2.33-1.72,2.84-.64-.53-1.53-1.94-1.76-2.85-.22,1.02-1.12,2.17-1.82,2.76l-.65-.58c1.2-1.01,2.04-2.66,2.04-4.29v-3.05h.89v3.05c0,1.73,.6,2.96,1.29,3.81,.66-.94,1.26-2.09,1.26-3.81v-3.05h.91v3.05c0,1.62,.66,3.09,1.73,4.05l-.48,.72Zm2.06,2.92h-.88v-11.25h.88v11.25Z"/><path class="cls-1" d="M204.56,27.39h-2.76v3.97h-.89v-3.97h-3.08v3.85h-.91v-3.85h-2.72v-.77h10.36v.77Zm-1.36-4.65c0,1.54-1.32,2.46-3.82,2.46s-3.82-.92-3.82-2.46,1.34-2.45,3.82-2.45,3.82,.95,3.82,2.45Zm-3.82,1.74c1.72,0,2.92-.61,2.92-1.75,0-1.08-1.18-1.71-2.92-1.71s-2.93,.62-2.93,1.73,1.18,1.74,2.93,1.74Z"/><path class="cls-1" d="M214.91,25.29v.76h-10.36v-.76h10.36Zm-1.14,6.13h-7.79v-2.55h6.54v-1.12h-6.54v-.71h7.48v2.5h-6.52v1.17h6.82v.71Zm-7.73-7.09v-2.42h6.41v-1h-6.41v-.72h7.31v2.41h-6.4v1.01h6.69v.72h-7.6Z"/><path class="cls-1" d="M221.47,20.62v3.06c-.01,1.93,1.47,3.31,2.95,4.04l-.45,.72c-.96-.55-2.35-1.52-2.98-3.07-.56,1.58-1.8,2.55-3.05,3.33l-.58-.65c1.67-.95,3.15-2.4,3.15-4.43v-3.01h.94Zm5.09-.52v3.87h1.95v.79h-1.95v6.58h-.88v-11.25h.88Z"/><path class="cls-1" d="M238.55,26.22h-10.36v-.74h2.8v-1.6c-.93-.35-1.41-.94-1.41-1.7,0-1.17,1.33-2,3.78-2s3.78,.82,3.78,2c0,.77-.48,1.33-1.38,1.68v1.62h2.8v.74Zm-1.29,3.19c0,1.22-1.25,2.16-3.89,2.16s-3.87-.94-3.87-2.16,1.26-2.15,3.87-2.15,3.89,.9,3.89,2.15Zm-3.89-1.44c-1.82,0-2.91,.58-2.91,1.43s1.08,1.44,2.91,1.44,2.92-.55,2.92-1.44-1.09-1.43-2.92-1.43Zm-2.86-5.79c0,.92,1.26,1.32,2.85,1.32s2.85-.4,2.85-1.32c0-.83-1.26-1.27-2.85-1.27s-2.85,.46-2.85,1.27Zm2.85,2.05c-.55,0-1.05-.05-1.47-.12v1.37h2.99v-1.38c-.45,.08-.96,.13-1.52,.13Z"/><path class="cls-1" d="M244.98,22.09h-6.62v-.72h2.85v-1.37h.94v1.37h2.83v.72Zm-3.31,5.05c-1.64,0-2.69-1.03-2.69-2.23s1.07-2.17,2.71-2.17,2.67,.94,2.67,2.17-.99,2.23-2.68,2.23Zm-1.8-2.24c0,.84,.6,1.54,1.81,1.54s1.79-.65,1.79-1.54c0-.84-.58-1.48-1.79-1.48s-1.81,.64-1.81,1.48Zm7.72,6.28h-7.33v-3.26h.91v2.51h6.42v.75Zm-.39-11.07v3.71h1.81v.77h-1.81v3.69h-.88v-8.17h.88Z"/><path class="cls-1" d="M262.19,29.46h-10.36v-.76h3.82v-4.12h.91v4.12h5.63v.76Zm-2.85-2.31c.31-1.6,.52-3.65,.52-5.43h-6.67v-.75h7.65c-.07,2.41-.29,4.38-.6,6.19h-.89Z"/><path class="cls-1" d="M272.53,25.22h-10.36v-.76h7.52c.15-1,.36-2.57,.39-3.27h-6.47v-.77h7.45c-.01,.79-.27,2.91-.44,4.04h1.92v.76Zm-1.45,6.08h-7.48v-4.95h.88v1.63h5.72v-1.63h.88v4.95Zm-.88-.73v-1.86h-5.72v1.86h5.72Z"/><path class="cls-1" d="M278.28,20.66c-.15,3.49-2.68,4.94-4.91,5.73l-.46-.66c2.2-.78,4.22-2.1,4.4-4.33h-3.83v-.74h4.8Zm3.41,10.64h-7.09v-4.26h7.09v4.26Zm-.89-.73v-2.79h-5.31v2.79h5.31Zm.89-4.15h-.89v-6.31h.89v6.31Z"/><path class="cls-1" d="M286.22,20.34c1.72,0,2.89,1.18,2.89,2.59s-1.15,2.54-2.89,2.54-2.89-1.09-2.89-2.54,1.19-2.59,2.89-2.59Zm2,2.59c0-1.01-.78-1.85-2-1.85-1.29,0-2,.84-2,1.85s.71,1.85,2,1.85c1.22,0,2-.8,2-1.85Zm3.87,8.37h-7.09v-4.85h.89v1.66h5.31v-1.66h.89v4.85Zm-.89-.73v-1.73h-5.31v1.73h5.31Zm.89-4.73h-.89v-5.73h.89v5.73Z"/><path class="cls-1" d="M300.45,27.93c-1.88,.26-4.38,.26-6.22,.26v-7.36h.91v6.57c2.05,0,3.72-.05,5.32-.24v.77Zm1.89,3.43h-.89v-11.25h.89v11.25Z"/><path class="cls-1" d="M310.33,28.01c-1.98,.29-4.42,.26-6.4,.26v-7.32h5.27v.74h-4.36v5.78c1.46,0,3.65,.01,5.49-.24v.77Zm3.75-3.27h-1.96v6.62h-.89v-11.25h.89v3.84h1.96v.79Z"/><path class="cls-1" d="M314.58,29.29h1.26v1.22h-1.26v-1.22Z"/></g></g></svg>