<?xml version="1.0" encoding="UTF-8"?><svg id="_레이어_2" xmlns="http://www.w3.org/2000/svg" viewBox="0 0 364.4 138"><defs><style>.cls-1{fill:none;stroke:#f5f5f5;stroke-miterlimit:10;stroke-width:2px;}.cls-2{fill:#231815;}</style></defs><g id="_레이어_1-2"><rect class="cls-1" x="1" y="1" width="110" height="136" rx="15.22" ry="15.22"/><rect class="cls-1" x="127.2" y="1" width="110" height="136" rx="15.22" ry="15.22"/><rect class="cls-1" x="253.4" y="1" width="110" height="136" rx="15.22" ry="15.22"/><g><path class="cls-2" d="M45.67,93.06c-.04,1.67-.79,3.14-2.36,4l-.47-.54c1.37-.78,1.84-1.71,1.94-2.76h-1.67v-.7h2.56Zm4.82,9.12h-6.36v-2.44h5.18v-1.02h-5.18v-.68h6.08v2.39h-5.16v1.07h5.44v.68Zm-2.22-9.12c-.03,2.24-1.02,3.46-2.4,4.38l-.54-.52c1.25-.79,2.02-1.84,2.07-3.16h-1.29v-.7h2.17Zm3.44,2.23h-1.5v2.21h-.86v-4.77h.86v1.84h1.5v.72Z"/><path class="cls-2" d="M59.46,93c-.03,.93-.23,2.76-.35,3.53h1.37v.73h-8.71v-.73h2.67c.12-.71,.28-2.08,.31-2.8h-2.14v-.73h3.08c-.04,.93-.26,2.76-.4,3.53h2.95c.13-.71,.25-2.07,.28-2.8h-2.24v-.73h3.17Zm-.15,9.08h-6.35v-3.61h6.35v3.61Zm-.89-.7v-2.2h-4.57v2.2h4.57Z"/><path class="cls-2" d="M66.07,94.46h-5.61v-.69h2.35v-1.14h.91v1.14h2.35v.69Zm-2.8,4.19c-1.4,0-2.3-.88-2.3-1.91s.92-1.85,2.31-1.85,2.27,.81,2.27,1.85-.84,1.91-2.28,1.91Zm-1.43-1.92c0,.67,.48,1.23,1.44,1.23s1.41-.52,1.41-1.23c0-.65-.46-1.16-1.41-1.16s-1.44,.51-1.44,1.16Zm6.39,5.27h-6.2v-2.71h.88v1.97h5.32v.74Zm-.31-9.26v3.07h1.5v.73h-1.5v3.06h-.88v-6.86h.88Z"/><path class="cls-2" d="M43.35,112.09v1.57h3.9v.73h-8.71v-.73h3.91v-1.57h.9Zm1.82-3.79l-.24,2.48h1.66v.72h-7.39v-.72h1.65l-.23-2.48h.87l.23,2.48h2.36l.2-2.48h.89Zm-5.75-.65v-.74h6.95v.74h-6.95Z"/><path class="cls-2" d="M52.17,111.81v1.8h3.9v.73h-8.71v-.73h3.91v-1.8h.9Zm-3.59-.49v-4.41h6.33v.74h-5.45v2.94h5.54v.73h-6.43Z"/><path class="cls-2" d="M62.4,113.38c-.47-.39-1.15-1.38-1.4-2.04-.24,.7-.97,1.79-1.41,2.19-.51-.41-1.19-1.46-1.47-2.2-.25,.8-.94,1.63-1.51,2.09l-.62-.54c1-.84,1.69-2.2,1.69-3.55v-2.57h.89v2.57c0,1.41,.43,2.38,.99,3.05,.52-.74,.98-1.68,.98-3.05v-2.57h.88v2.57c0,1.32,.57,2.53,1.45,3.35l-.47,.7Zm1.79,2.38h-.87v-9.42h.87v9.42Z"/><path class="cls-2" d="M73.7,112.4h-2.27v3.36h-.87v-3.36h-2.42v3.26h-.88v-3.26h-2.26v-.73h8.71v.73Zm-1.12-3.85c0,1.29-1.11,2.09-3.23,2.09s-3.23-.8-3.23-2.09,1.14-2.08,3.23-2.08,3.23,.81,3.23,2.08Zm-3.23,1.39c1.37,0,2.33-.48,2.33-1.4,0-.85-.94-1.36-2.33-1.36s-2.35,.5-2.35,1.37c0,.92,.94,1.39,2.35,1.39Z"/></g><g><path class="cls-2" d="M168.2,93.94v.86c0,1.45,1.22,2.16,2.34,2.62l-.37,.68c-.79-.32-1.9-1.09-2.4-1.9-.45,.98-1.46,1.64-2.38,2.1l-.5-.56c1.21-.58,2.41-1.41,2.41-2.93v-.87h-1.93v-.7h4.76v.7h-1.93Zm4.66,8.06h-6.24v-3.02h.87v2.28h5.37v.74Zm-.22-2.6h-.88v-3.65h-1.9v-.73h1.9v-2.29h.88v6.67Z"/><path class="cls-2" d="M182.33,98.22h-8.71v-.73h3.91v-.85h-2.67v-3.76h6.19v.73h-5.32v.78h5.31v.7h-5.31v.82h5.41v.73h-2.71v.85h3.9v.73Zm-1.06,2.36c0,1.04-1.05,1.73-3.29,1.73s-3.27-.69-3.27-1.73,1.07-1.73,3.27-1.73,3.29,.67,3.29,1.73Zm-3.29-1.04c-1.47,0-2.33,.35-2.33,1.03s.86,1.04,2.33,1.04,2.33-.34,2.33-1.04-.86-1.03-2.33-1.03Z"/><path class="cls-2" d="M187.01,97.49h-4.34v-4.36h.86v1.48h2.62v-1.48h.86v4.36Zm-.86-.74v-1.42h-2.62v1.42h2.62Zm3.68,3.65c0,1.15-.92,1.91-3.07,1.91s-3.09-.75-3.09-1.91,.94-1.94,3.09-1.94,3.07,.77,3.07,1.94Zm-.9,0c0-.79-.78-1.26-2.16-1.26s-2.17,.47-2.17,1.26c0,.75,.77,1.21,2.17,1.21s2.16-.42,2.16-1.21Zm2.23-4.74h-1.5v2.58h-.87v-5.52h.87v2.21h1.5v.73Z"/><path class="cls-2" d="M196.78,97.72c-.85-.32-1.99-1-2.44-1.88-.45,.99-1.5,1.63-2.44,2.12l-.5-.57c1.21-.62,2.47-1.42,2.47-2.94v-1.45h.89v1.44c0,1.46,1.26,2.18,2.41,2.63l-.39,.65Zm2.31,4.47h-.87v-2.69h-5.32v-.73h6.19v3.42Zm.01-3.96h-.87v-5.5h.87v5.5Z"/><path class="cls-2" d="M164.63,111.31c-.8-.31-1.89-1.06-2.38-1.89-.46,.97-1.47,1.64-2.4,2.12l-.5-.57c1.2-.61,2.42-1.41,2.42-2.94v-.53h-1.94v-.71h4.76v.71h-1.93v.52c0,1.46,1.21,2.18,2.36,2.62l-.39,.67Zm2.37,4.49h-.88v-2.69h-5.33v-.73h6.21v3.42Zm0-3.98h-.88v-5.48h.88v5.48Z"/><path class="cls-2" d="M167.87,113.64c.87,0,1.74,0,2.57-.03v-1.15h.89v1.12c.93-.03,1.81-.09,2.55-.18v.73c-1.55,.22-3.82,.25-6,.25v-.74Zm5.76-5.41h-5.59v-.72h2.38v-1.27h.9v1.27h2.31v.72Zm-2.76,3.89c-1.54,0-2.33-.79-2.33-1.78s.8-1.77,2.33-1.77,2.36,.79,2.36,1.78-.77,1.77-2.36,1.77Zm1.51-1.77c0-.59-.46-1.09-1.51-1.09-.98,0-1.5,.51-1.5,1.08,0,.61,.53,1.1,1.51,1.1,1.06,0,1.5-.47,1.5-1.09Zm3.03-4.01v4.23h1.54v.74h-1.54v4.45h-.87v-9.42h.87Z"/><path class="cls-2" d="M187.97,111.31v.74h-3.97v3.71h-.88v-3.71h-3.86v-.74h8.71Zm-2.52-.69c.18-.91,.35-2.32,.35-3.11h-5.35v-.73h6.3c0,1.51-.23,2.82-.39,3.84h-.91Z"/><path class="cls-2" d="M193.35,110.16c0,2.16-.89,3.32-2.44,3.32s-2.44-1.16-2.44-3.32,.96-3.33,2.44-3.33,2.44,1.1,2.44,3.33Zm-.87-.02c0-1.61-.48-2.59-1.56-2.59s-1.57,.96-1.57,2.59,.53,2.61,1.57,2.61c1.1,0,1.56-1.03,1.56-2.61Zm3.3,5.62h-.87v-9.42h.87v9.42Z"/><path class="cls-2" d="M201.82,106.8c-.11,2.89-2.18,4.07-4.16,4.77l-.44-.63c1.81-.64,3.54-1.68,3.66-3.43h-3.16v-.71h4.1Zm2.82,8.91h-6v-3.56h6v3.56Zm-.87-.7v-2.15h-4.25v2.15h4.25Zm.87-3.39h-.87v-5.27h.87v5.27Z"/></g><g><path class="cls-2" d="M298.12,92.89c1.52,0,2.47,1.04,2.47,2.26s-.88,2.25-2.47,2.25-2.46-1.04-2.46-2.25,.95-2.26,2.46-2.26Zm1.59,2.26c0-.82-.56-1.53-1.59-1.53s-1.58,.71-1.58,1.53,.47,1.53,1.58,1.53c1.04,0,1.59-.71,1.59-1.53Zm3.5,6.94h-6.01v-3.55h6.01v3.55Zm-.88-.7v-2.14h-4.25v2.14h4.25Zm-1.43-6.63h1.43v-2.03h.88v5.27h-.88v-2.52h-1.43v-.72Z"/><path class="cls-2" d="M309.05,93.18c-.1,3-2.14,4.27-4.1,4.98l-.45-.65c1.87-.7,3.47-1.78,3.61-3.62h-3.12v-.71h4.07Zm2.91,9.01h-.87v-2.69h-5.34v-.73h6.21v3.42Zm0-3.96h-.87v-1.28h-1.88v-.73h1.88v-1.4h-1.81v-.72h1.81v-1.37h.87v5.5Z"/><path class="cls-2" d="M318.54,94.46h-5.61v-.69h2.35v-1.14h.91v1.14h2.35v.69Zm-2.8,4.19c-1.4,0-2.3-.88-2.3-1.91s.92-1.85,2.31-1.85,2.27,.81,2.27,1.85-.84,1.91-2.28,1.91Zm-1.43-1.92c0,.67,.48,1.23,1.44,1.23s1.41-.52,1.41-1.23c0-.65-.46-1.16-1.41-1.16s-1.44,.51-1.44,1.16Zm6.39,5.27h-6.2v-2.71h.88v1.97h5.32v.74Zm-.31-9.26v3.07h1.5v.73h-1.5v3.06h-.88v-6.86h.88Z"/><path class="cls-2" d="M299.71,111.63h-3.9v1.01h2.73v3.06h-6.35v-3.06h2.69v-1.01h-3.89v-.74h8.71v.74Zm-7.86-1.67v-.72h1.43l-.16-1.54h.87l.15,1.54h2.44l.12-1.54h.92l-.18,1.54h1.42v.72h-7.01Zm.22-2.66v-.74h6.58v.74h-6.58Zm5.58,7.7v-1.65h-4.57v1.65h4.57Z"/><path class="cls-2" d="M305.29,110.8c-.79-.32-1.9-1.03-2.39-1.85-.45,.97-1.46,1.59-2.39,2.07l-.5-.57c1.2-.6,2.42-1.34,2.42-2.87v-.21h-1.94v-.7h4.76v.7h-1.93v.2c0,1.47,1.21,2.13,2.35,2.59l-.38,.64Zm2.6,5h-6.32v-2.46h5.16v-1.04h-5.16v-.68h6.07v2.41h-5.16v1.09h5.41v.68Zm-.22-4.74h-.88v-4.72h.88v4.72Z"/><path class="cls-2" d="M308.55,111c.67,0,1.32,0,1.96-.02v-2.04h.88v2.02c1.16-.03,2.21-.11,3.11-.19v.69c-1.55,.24-3.73,.27-5.95,.27v-.73Zm5.25-4.18c-.03,.94-.19,2.51-.29,3.17h-.89c.12-.67,.23-1.77,.24-2.46h-3.75v-.71h4.69Zm2.48,8.79h-6.3v-2.89h.88v2.15h5.42v.74Zm1.21-5.58h-1.5v3.09h-.88v-6.78h.88v2.97h1.5v.72Z"/><path class="cls-2" d="M323.62,113.24c-1.72,.19-3.79,.24-5.36,.24v-3.73h3.25v-2.09h-3.25v-.73h4.11v3.53h-3.25v2.27c1.75,0,2.97-.08,4.5-.2v.71Zm1.64,2.52h-.88v-9.42h.88v9.42Z"/></g><g><path d="M44.3,71.13h-5.74c-.22,0-.39-.17-.39-.39s.17-.39,.39-.39h5.74c.22,0,.39,.17,.39,.39s-.18,.39-.39,.39Z"/><path d="M48.88,71.13h-2.02c-.22,0-.39-.17-.39-.39s.17-.39,.39-.39h2.02c.22,0,.39,.17,.39,.39s-.17,.39-.39,.39Z"/><path d="M45.56,72.86h-8.62c-.22,0-.39-.18-.39-.39s.18-.39,.39-.39h8.62c.22,0,.39,.18,.39,.39s-.18,.39-.39,.39Z"/><path d="M50.51,72.86h-2.64c-.22,0-.39-.18-.39-.39s.17-.39,.39-.39h2.64c.22,0,.39,.18,.39,.39s-.18,.39-.39,.39Z"/><path d="M47.43,43.66h-7.43c-.22,0-.39-.18-.39-.39s.17-.39,.39-.39h7.43c.22,0,.39,.18,.39,.39s-.17,.39-.39,.39Z"/><path d="M50.98,51.44c-.14,0-.27-.07-.34-.2-.1-.19-.03-.43,.16-.53,2.44-1.34,3.9-3.64,3.9-6.16,0-3.84-3.42-7.03-7.79-7.25-.22-.01-.38-.2-.37-.41,.01-.22,.2-.38,.41-.37,4.79,.25,8.53,3.78,8.53,8.03,0,2.81-1.61,5.37-4.31,6.85-.06,.03-.12,.05-.19,.05Z"/><path d="M49.66,48.74c-.13,0-.27-.07-.34-.2-.11-.19-.04-.43,.14-.53,1.39-.8,2.22-2.1,2.22-3.47,0-2.17-2.1-4.04-4.79-4.25-.22-.02-.38-.21-.36-.42,.02-.21,.2-.38,.42-.36,3.14,.24,5.51,2.4,5.51,5.03,0,1.65-.98,3.2-2.61,4.15-.06,.04-.13,.05-.2,.05Z"/><path d="M50.22,49.84c-.14,0-.28-.08-.35-.22-.39-.78-.81-1.59-1.26-2.39-1.25-2.22-1.96-4.75-2.07-7.32,0-.22,.16-.4,.37-.41,.22,0,.4,.16,.41,.37,.1,2.44,.79,4.85,1.97,6.97,.46,.81,.89,1.63,1.28,2.42,.1,.19,.02,.43-.18,.52-.06,.03-.12,.04-.17,.04Z"/><path d="M38.56,52.19c-.05,0-.11-.01-.16-.04-.2-.09-.28-.32-.2-.52,.54-1.18,1.17-2.43,1.88-3.7,.44-.79,.83-1.63,1.15-2.49,.08-.2,.3-.3,.5-.23,.2,.08,.31,.3,.23,.5-.33,.9-.74,1.77-1.2,2.6-.7,1.25-1.32,2.48-1.85,3.64-.07,.14-.21,.23-.36,.23Z"/><g><path d="M50.19,65.3s-.09,0-.13-.02c-.2-.07-.31-.29-.24-.5,.54-1.55,.81-3.33,.81-5.29,0-.22,.17-.39,.39-.39s.39,.18,.39,.39c0,2.04-.29,3.91-.85,5.55-.06,.16-.21,.26-.37,.26Z"/><path d="M48.58,68.3c-.09,0-.17-.03-.25-.09-.17-.13-.2-.38-.06-.55,.26-.32,.5-.68,.72-1.06,.11-.19,.35-.25,.53-.14,.19,.11,.25,.35,.14,.54-.24,.41-.5,.8-.79,1.16-.08,.1-.19,.15-.3,.15Z"/></g><path d="M50.63,75.47h-13.81c-.22,0-.39-.17-.39-.39v-2.29c0-.3,.12-.6,.34-.82l1.22-1.21c-2.69-2.37-4.16-6.35-4.16-11.26,0-4.08,2.38-9.16,4.37-12.71,1.28-2.27,1.95-4.83,1.95-7.41v-6.04c0-.57-.2-1.13-.55-1.58l-1.68-2.12c-.2-.25-.23-.58-.1-.86,.14-.29,.42-.46,.74-.46h8.86c.26,0,.5,.12,.65,.33,.16,.21,.2,.47,.13,.72l-.78,2.66c-.07,.23-.1,.47-.1,.71v5.41c0,.22-.18,.39-.39,.39s-.39-.18-.39-.39v-5.41c0-.31,.04-.63,.13-.93l.78-2.66s0-.02,0-.03c0-.01-.02-.01-.03-.01h-8.86s-.02,0-.03,.02c0,.02,0,.03,0,.04l1.68,2.12c.46,.59,.72,1.32,.72,2.06v6.04c0,2.71-.71,5.41-2.05,7.79-1.95,3.46-4.27,8.42-4.27,12.32,0,4.87,1.5,8.76,4.21,10.94,.13,.1,.18,.28,.12,.43-.03,.07-.07,.13-.13,.18l-1.48,1.48c-.07,.07-.11,.17-.11,.26v1.9h13.03v-1.9c0-.1-.04-.19-.11-.26l-1.5-1.49c-.05-.04-.09-.1-.11-.17-.05-.16,0-.33,.12-.43,2.71-2.18,4.21-6.07,4.21-10.94,0-2.21-.75-5-2.22-8.29-.09-.2,0-.43,.2-.52,.2-.09,.43,0,.52,.2,1.52,3.39,2.29,6.29,2.29,8.61,0,4.91-1.48,8.89-4.16,11.26l1.22,1.21c.22,.21,.34,.51,.34,.82v2.29c0,.22-.18,.39-.39,.39Z"/><path d="M46.92,29.1c-.22,0-.39-.17-.39-.39v-2.38h-5.61v2.38c0,.22-.17,.39-.39,.39s-.39-.17-.39-.39v-2.78c0-.22,.17-.39,.39-.39h6.39c.22,0,.39,.18,.39,.39v2.78c0,.22-.17,.39-.39,.39Z"/><path d="M44.71,33.73h-4.18c-.22,0-.39-.18-.39-.39s.17-.39,.39-.39h4.18c.22,0,.39,.18,.39,.39s-.17,.39-.39,.39Z"/></g><g><path d="M201.63,41.68h0s-2.76-2.76-2.76-2.76h0s0,0,0,0l-5.52-5.52s0,0,0,0c0,0,0,0,0,0l-2.76-2.76s0,0,0,0,0,0,0,0l-5.52-5.52s0,0,0,0c0,0,0,0,0,0l-1.1-1.1c-.35-.35-.82-.54-1.31-.54s-.96,.19-1.31,.54l-15.45,15.45c-.72,.72-.72,1.9,0,2.62l5.3,5.3c-.75,1.01-.71,2.49,.14,3.35l1.5,1.5-2.93,2.93c-.67-.36-1.53-.26-2.09,.31l-6.14,6.14c-.33,.33-.52,.78-.52,1.25s.18,.92,.52,1.25l.91,.91c.33,.33,.78,.52,1.25,.52s.92-.18,1.25-.52l6.14-6.14c.57-.57,.67-1.42,.31-2.09l2.93-2.93,1.5,1.5c.45,.45,1.08,.68,1.73,.68,.57,0,1.15-.18,1.62-.53l5.3,5.3c.36,.36,.84,.54,1.31,.54s.95-.18,1.31-.54l15.45-15.45c.72-.72,.72-1.9,0-2.62l-1.06-1.06Zm-6.29-5.26l-17.04,17.04-2.24-2.24,17.04-17.04,2.24,2.24Zm-2.76-2.76l-17.04,17.04-2.24-2.24,17.04-17.04,2.24,2.24Zm-26.16,7.92c-.44-.44-.44-1.15,0-1.59l15.45-15.45c.21-.21,.49-.33,.8-.33s.58,.12,.8,.33l.84,.84-17.04,17.04-.84-.84Zm1.36,1.36l17.04-17.04,2.24,2.24-17.04,17.04-2.24-2.24Zm2.76,2.76l17.04-17.04,2.24,2.24-17.04,17.04-.82-.82s0,0,0,0c0,0,0,0,0,0l-1.42-1.42Zm-.56,10.45l.59,.59-1.09,1.09-.59-.59,1.09-1.09Zm.75,2.22l-6.14,6.14c-.2,.2-.46,.3-.74,.3s-.54-.11-.74-.3l-.91-.91c-.2-.2-.3-.46-.3-.74s.11-.54,.3-.74l6.14-6.14c.2-.2,.47-.3,.74-.3,.09,0,.19,.02,.28,.04l-1.25,1.25c-.07,.07-.11,.16-.11,.26s.04,.19,.11,.26l1.11,1.11c.07,.07,.16,.11,.26,.11s.19-.04,.26-.11l1.25-1.25c.1,.35,.01,.74-.26,1.02Zm.36-2.14l-.59-.59,2.87-2.87,.59,.59-2.87,2.87Zm5.4-1.37l-1.76-1.76s0,0,0,0l-.55-.55-2.31-2.31c-.59-.58-.62-1.59-.14-2.31l7.07,7.07c-.72,.48-1.73,.45-2.31-.14Zm3.11-.09s0,0,0,0c0,0,0,0,0,0l-.78-.78,17.04-17.04,2.24,2.24-17.04,17.04-1.46-1.46Zm1.98,1.98l17.04-17.04,2.24,2.24-17.04,17.04-2.24-2.24Zm20.6-11.89l-15.45,15.45c-.44,.44-1.15,.44-1.59,0l-.8-.8,17.04-17.04,.8,.8c.44,.44,.44,1.15,0,1.59Z"/><path d="M189.12,77.53s-.07,0-.11-.02c-.18-.06-.28-.25-.22-.43,.43-1.33-.62-2.67-1.74-4.09-.72-.91-1.45-1.85-1.77-2.81-.62-1.86-.49-3.82,.33-5.38-1.6,.6-2.02,1.95-2.42,3.25-.16,.51-.31,1-.53,1.44-.42,.85-1.19,1.34-2.04,1.29-.93-.04-1.77-.69-2.15-1.65-.53-1.36-.68-4.75,.47-6.7-2.57,1.3-2.93,3.21-2.95,4.62-.03,2.3-.31,6.28-1.85,7.08-.51,.27-1.08,.18-1.71-.24-.88-.6-.78-1.4-.65-2.41,.11-.87,.26-2.01-.07-3.6-.43,1.06-1.22,2.01-2.24,2.67-1.86,1.2-3.11,2.1-3.4,3.66-.01,.04-.35,1.25,0,2.9,.04,.18-.08,.37-.26,.4-.18,.04-.37-.08-.4-.26-.38-1.83,0-3.15,0-3.2,.33-1.79,1.74-2.82,3.7-4.08,1.21-.78,2.05-2.02,2.24-3.32,.02-.16,.18-.31,.34-.32,.16,0,.35,.12,.4,.27,.71,2.31,.51,3.91,.37,4.97-.13,1.04-.15,1.42,.35,1.76,.6,.41,.91,.25,1.01,.2,.87-.45,1.43-2.94,1.48-6.49,.04-2.91,1.65-4.83,4.92-5.86,.17-.06,.37,.04,.44,.21,.06,.16-.02,.36-.17,.44-1.99,.94-2,5.48-1.39,7.05,.28,.71,.89,1.19,1.55,1.22,.57,.01,1.1-.31,1.4-.92,.19-.39,.34-.85,.49-1.33,.47-1.52,1.05-3.4,3.66-3.92,.14-.03,.32,.05,.39,.17,.08,.12,.07,.31,0,.43-1.06,1.47-1.3,3.51-.66,5.44,.28,.85,.98,1.74,1.66,2.6,1.18,1.5,2.39,3.04,1.85,4.72-.05,.14-.18,.24-.32,.24Z"/></g><g><path d="M326.98,50.9h-2.36s0-3.3,0-3.3c0-.21-.16-.37-.37-.37h-13.33v-2.88h4.15c.44,0,.79-.35,.79-.79V26.69c0-.44-.36-.79-.79-.79h-7.27c-.06,.01-.09,.02-.12,.03-.08,.03-.12,.06-.14,.08l-5.58,5.58s-.05,.06-.07,.11c-.02,.07-.03,.1-.03,.13l-.02,.09v10.91c0,.41,.17,.8,.46,1.09,.29,.29,.68,.45,1.09,.45h6.79v2.88h-13.33c-.19,0-.35,.15-.37,.34v.11s0,0,0,0v3.22h-2.8c-.06,0-.09,.02-.12,.03-.08,.03-.12,.05-.14,.08l-4.18,4.18s-.05,.06-.07,.11c-.02,.07-.03,.1-.03,.13l-.02,.09v8.15c0,.69,.57,1.24,1.25,1.24h8.74c.38,0,.69-.31,.69-.69v-12.63c0-.38-.31-.69-.69-.69h-1.9s0-2.93,0-2.93h12.96v2.93h-2.58c-.05,0-.09,.02-.12,.03-.08,.03-.12,.06-.14,.08l-4.17,4.18s-.05,.06-.07,.11c-.02,.07-.03,.1-.03,.13l-.02,.09v8.15c0,.69,.57,1.24,1.25,1.24h8.74c.38,0,.69-.31,.69-.69v-12.63c0-.38-.31-.69-.69-.69h-2.13s0-2.93,0-2.93h12.96v2.93h-2.37s-.06,.02-.1,.03c-.08,.03-.12,.06-.14,.08l-4.17,4.18s-.05,.06-.07,.11c-.02,.07-.03,.1-.03,.13l-.02,.09v8.15c0,.69,.57,1.24,1.25,1.24h8.74c.38,0,.69-.31,.69-.69v-12.63c0-.38-.31-.69-.69-.69Zm-33.66,1.26v2.92s-2.92,0-2.92,0l2.92-2.92Zm5.76-.52v12.53s-8.69,0-8.69,0c-.28,0-.51-.23-.51-.51v-7.85s3.81,0,3.81,0c.1,0,.19-.04,.26-.11,.07-.07,.11-.16,.11-.26v-3.81s5.02,0,5.02,0Zm8.35-24.49v4.32s-4.32,0-4.32,0l4.32-4.32Zm-.19,25.01v2.92s-2.92,0-2.92,0l2.92-2.92Zm5.76-.52v12.53s-8.69,0-8.69,0c-.28,0-.51-.23-.51-.51v-7.85h3.81c.2,0,.37-.17,.37-.37v-3.81s5.02,0,5.02,0Zm-9.61-8.02c-.21,0-.41-.08-.57-.23-.15-.15-.23-.35-.23-.57v-10.61s5.21,0,5.21,0c.1,0,.19-.04,.26-.11,.07-.07,.11-.16,.11-.26v-5.21s6.96,0,6.96,0v16.99s-11.74,0-11.74,0Zm17.78,8.54v2.92h-2.92l2.92-2.92Zm-2.93,12.01c-.28,0-.51-.23-.51-.51v-7.85h3.81c.2,0,.37-.17,.37-.37v-3.81h5.02s0,12.53,0,12.53h-8.69Z"/><path d="M305.18,36.1h7.36c.26,0,.47-.21,.47-.47s-.21-.47-.47-.47h-7.36c-.26,0-.47,.21-.47,.47s.21,.47,.47,.47Z"/><path d="M305.18,38.73h7.36c.26,0,.47-.21,.47-.47s-.21-.47-.47-.47h-7.36c-.26,0-.47,.21-.47,.47s.21,.47,.47,.47Z"/><path d="M305.18,41.37h7.36c.26,0,.47-.21,.47-.47s-.21-.47-.47-.47h-7.36c-.26,0-.47,.21-.47,.47s.21,.47,.47,.47Z"/><path d="M297.51,68.89l-2.93,3.76c-.06,.07-.14,.09-.18,.09-.06,.01-.15-.02-.2-.09l-1.06-1.32c-.07-.09-.18-.14-.29-.14-.08,0-.17,.03-.23,.08-.16,.13-.19,.37-.06,.53l1.06,1.32c.19,.24,.47,.37,.77,.37,.31,0,.59-.14,.78-.38l2.93-3.76c.06-.08,.09-.18,.08-.28s-.06-.19-.14-.25c-.16-.13-.4-.1-.53,.07Z"/><path d="M297.19,72.55c-.21,0-.38,.17-.38,.38v1.86c0,.13-.11,.24-.24,.24h-4.82c-.13,0-.24-.11-.24-.24v-4.82c0-.13,.11-.24,.24-.24h3.54c.21,0,.38-.17,.38-.38s-.17-.38-.38-.38h-3.54c-.55,0-.99,.44-.99,.99v4.82c0,.55,.44,.99,.99,.99h4.82c.55,0,.99-.44,.99-.99v-1.86c0-.21-.17-.38-.38-.38Z"/><path d="M311.43,68.89l-2.93,3.76c-.04,.06-.11,.09-.18,.09-.07,.01-.15-.02-.2-.09l-1.06-1.32c-.07-.09-.18-.14-.29-.14-.08,0-.17,.03-.24,.08-.08,.06-.13,.15-.14,.25-.01,.1,.02,.2,.08,.28l1.06,1.32c.19,.24,.47,.37,.77,.37,.31,0,.59-.14,.78-.38l2.93-3.76c.06-.08,.09-.18,.08-.28-.01-.1-.06-.19-.14-.25-.16-.13-.4-.1-.53,.07Z"/><path d="M311.12,72.55c-.21,0-.38,.17-.38,.38v1.86c0,.13-.11,.24-.24,.24h-4.82c-.13,0-.24-.11-.24-.24v-4.82c0-.13,.11-.24,.24-.24h3.54c.21,0,.38-.17,.38-.38s-.17-.38-.38-.38h-3.54c-.55,0-.99,.44-.99,.99v4.82c0,.55,.44,.99,.99,.99h4.82c.55,0,.99-.44,.99-.99v-1.86c0-.21-.17-.38-.38-.38Z"/><path d="M325.36,68.89l-2.93,3.76c-.06,.07-.14,.09-.18,.09-.06,.01-.15-.02-.2-.09l-1.06-1.32c-.07-.09-.18-.14-.29-.14-.08,0-.17,.03-.23,.08-.16,.13-.19,.37-.06,.53l1.06,1.32c.19,.24,.47,.37,.77,.37,.31,0,.59-.14,.78-.38l2.93-3.76c.06-.08,.09-.18,.08-.28s-.06-.19-.14-.25c-.17-.13-.4-.1-.53,.07Z"/><path d="M325.04,72.55c-.21,0-.38,.17-.38,.38v1.86c0,.13-.11,.24-.24,.24h-4.82c-.13,0-.24-.11-.24-.24v-4.82c0-.13,.11-.24,.24-.24h3.54c.21,0,.38-.17,.38-.38s-.17-.38-.38-.38h-3.54c-.55,0-.99,.44-.99,.99v4.82c0,.55,.44,.99,.99,.99h4.82c.55,0,.99-.44,.99-.99v-1.86c0-.21-.17-.38-.38-.38Z"/></g><path d="M77.75,39.91l.26,.42c2.17,3.51,6.61,4.78,10.31,2.96l.35-.17-.17-.35c-1.81-3.7-6.24-5.43-10.08-3.94l-.42,.17,.09-.45c.48-2.46,.12-5.15-1.02-7.58l-.69,.34c2.31,4.96,1.06,10.51-2.86,12.69l-.07,.04h-.08c-.55-.05-1.11,.02-1.63,.2l-.18,.06-.11-.16c-1.16-1.74-3.45-2.36-5.33-1.44-1.16,.57-1.98,1.62-2.25,2.89l-.07,.31-.29-.14c-.58-.28-1.2-.42-1.84-.42s-1.25,.14-1.83,.43c-1,.49-1.76,1.35-2.12,2.41s-.29,2.2,.2,3.2c.4,.82,1.04,1.47,1.86,1.89l.34,.17-.3,.24c-1.51,1.24-1.97,3.33-1.11,5.09,.56,1.14,1.59,1.95,2.83,2.24l.43,.1-.3,.32c-1.21,1.27-1.51,3.18-.74,4.74,.31,.64,.77,1.17,1.35,1.58l.18,.13-.1,.19c-.62,1.18-.64,2.6-.06,3.79,.49,1,1.35,1.76,2.41,2.12,1.06,.36,2.2,.29,3.2-.2,1.3-.64,2.17-1.89,2.32-3.34l.03-.26,.26,.04c.86,.15,1.76,.02,2.53-.37,1.45-.71,2.37-2.22,2.34-3.84v-.28s.27,.03,.27,.03c.76,.08,1.54-.06,2.25-.4,1.64-.8,2.57-2.56,2.3-4.37l-.04-.3h.3c.7,.05,1.41-.1,2.02-.4,2.08-1.02,2.94-3.54,1.92-5.61-.38-.79-1-1.43-1.78-1.85l-.24-.12,.14-.23c.77-1.23,.85-2.78,.23-4.06-.5-1.02-1.36-1.78-2.43-2.14-1.05-.36-2.18-.28-3.18,.22l-.22,.11-.11-.22c-.41-.84-1.08-1.51-1.92-1.92l-.36-.18,.32-.25c1.18-.91,2.11-2.17,2.69-3.67l.18-.46Zm1.02-.38c3.24-1.22,6.9,.04,8.71,2.98l.16,.26-.28,.11c-.81,.31-1.67,.46-2.54,.46-2.5,0-4.86-1.32-6.17-3.45l-.16-.26,.28-.11Zm-12.3,3.87c1.48-.72,3.27-.29,4.25,1.03l.15,.2-.2,.15s-.04,.04-.06,.05c-.17,.12-.31,.24-.43,.35-.14,.14-.25,.26-.38,.42l-.08,.1c-.11,.15-.2,.28-.28,.42h0s-.05,.09-.05,.09c-.07,.13-.14,.28-.21,.45l-.05,.12c-.06,.17-.12,.34-.16,.51v.07c-.05,.16-.07,.32-.08,.48v.12c-.02,.18-.02,.37-.01,.54v.1c.02,.15,.05,.31,.08,.47l.08,.4-.35-.02c-.38-.07-.77-.09-1.18-.05h-.11c-.19,.04-.36,.07-.53,.11l-.11,.03s-.04,.01-.07,.02c-.01,0-.02,0-.03,0l-.09,.03-.09-.04c-.19-.09-.37-.19-.52-.3l-.1-.07v-.11s-.01-.03-.01-.05c-.03-.22-.07-.43-.12-.62l-.03-.1c-.07-.23-.14-.42-.23-.61-.08-.18-.2-.36-.34-.56l-.06-.09c-.12-.16-.26-.32-.41-.48l-.1-.11v-.11c.04-1.27,.78-2.4,1.91-2.96Zm5.59,9.62v-.11s.08-.12,.08-.12c.24-.22,.5-.4,.78-.54,.17-.08,.35-.15,.58-.21,.05-.01,.09-.02,.14-.03h.04c.14-.04,.29-.06,.45-.08h.04s.08-.01,.13-.01c.2-.01,.4,0,.6,.03,.2,.03,.38,.08,.54,.13,.15,.05,.31,.11,.48,.2l.05,.02s.07,.03,.11,.05c.15,.08,.31,.19,.48,.32,.05,.03,.06,.05,.08,.06,.17,.14,.32,.29,.46,.47l.02,.03c.14,.18,.26,.37,.37,.58l.09,.22c.19,.45,.28,.92,.26,1.42v.06c0,.12-.02,.24-.04,.38,0,.03-.01,.07-.02,.12-.02,.12-.06,.23-.08,.32v.04s-.03,.07-.04,.1v.02c-.04,.09-.08,.18-.12,.27l-.02,.05s-.04,.09-.06,.13c-.03,.06-.07,.12-.1,.17l-.09,.14s-.04,.07-.07,.1l-.12,.14h-.19s0,0,0,0c-.43-.08-.85-.1-1.28-.05h-.08c-.19,.04-.39,.08-.59,.13-.03,0-.06,.02-.09,.03-.25,.08-.43,.15-.6,.23-.2,.09-.38,.21-.56,.33l-.28,.2-.1-.33s-.02-.04-.02-.06c-.07-.21-.14-.39-.21-.55-.07-.13-.14-.27-.24-.42-.02-.04-.05-.07-.07-.1l-.02-.03c-.06-.09-.12-.17-.19-.25-.04-.05-.08-.09-.12-.14-.07-.08-.14-.15-.22-.22l-.12-.11c-.13-.11-.25-.21-.37-.29l-.13-.13,.06-.22s.02-.06,.03-.08c.08-.17,.15-.32,.19-.45,0-.02,.02-.05,.02-.07v-.04c.07-.19,.11-.35,.14-.51v-.09c.05-.18,.06-.37,.07-.56v-.06c0-.21,0-.42-.03-.61Zm-.46,3.74c.1,.09,.19,.19,.29,.3l.03,.04s.07,.08,.1,.12c.14,.18,.25,.36,.34,.54,.09,.18,.16,.38,.21,.59,.02,.06,.03,.13,.04,.2l.03,.16c.02,.1,.04,.21,.04,.32v.09s-.04,.07-.04,.07c-.44,.63-.7,1.39-.74,2.19v.08s-.06,.07-.06,.07c-.1,.11-.2,.22-.31,.32l-.07,.07h-.1c-.14-.01-.3,0-.49,0h-.07c-.13,.02-.27,.04-.4,.07-.03,0-.05,0-.07,.01h-.02c-.13,.04-.25,.07-.38,.11l-.11,.04c-.17,.06-.31,.12-.44,.18-.16,.08-.31,.17-.46,.27l-.08,.06-.3-.05-.06-.12c-.06-.12-.13-.24-.2-.35-.04-.06-.08-.12-.12-.18l-.07-.1s-.02-.04-.04-.05c-.07-.09-.14-.17-.21-.26l-.04-.05h0c-.08-.09-.16-.17-.25-.25l-.04-.03c-.08-.07-.17-.14-.27-.21l-.06-.05c-.08-.06-.17-.12-.26-.17l-.05-.04c-.09-.05-.19-.1-.28-.15l-.07-.04c-.09-.04-.19-.08-.29-.12l-.13-.06-.08-.13c-.07-.24-.12-.49-.13-.74v-.09s.05-.07,.05-.07c.1-.14,.19-.29,.29-.49,0-.02,.02-.04,.03-.06,.16-.33,.29-.69,.36-1.06v-.07c.05-.2,.07-.38,.08-.54v-.08s.1-.11,.1-.11c.13-.14,.27-.28,.42-.39l.05-.04c.2-.15,.37-.25,.54-.33,.18-.09,.37-.16,.6-.22,.02,0,.05-.02,.08-.02,.19-.05,.39-.08,.59-.09h.06c.25-.01,.45,0,.62,.02,.01,0,.03,0,.05,0,.21,.04,.39,.08,.55,.13h.02s.05,.02,.07,.03c.17,.06,.33,.14,.47,.21,.08,.04,.16,.09,.24,.14,.11,.07,.2,.14,.29,.21,.06,.05,.12,.1,.19,.16Zm-.56-1.8h0s-.03,.07-.03,.07c-.02,.04-.04,.07-.06,.1-.02,.03-.02,.04-.03,.05l-.1,.19-.2-.07c-.12-.04-.25-.08-.37-.11-.12-.03-.25-.05-.38-.07-.41-.06-.82-.06-1.22,0-.11,.02-.23,.04-.36,.07h-.04c-.12,.04-.22,.08-.33,.11l-.09,.03c-.12,.05-.25,.1-.38,.17-.15,.08-.31,.17-.5,.3l-.3,.2-.15-.31s-.01-.03-.02-.04c-.07-.22-.14-.39-.22-.55-.07-.15-.16-.3-.28-.47l-.07-.1c-.11-.15-.21-.29-.32-.4-.13-.15-.27-.27-.43-.41l-.07-.05c-.13-.1-.26-.2-.41-.29l-.18-.11,.02-.17c.03-.17,.07-.35,.12-.53l.04-.08,.08-.1c.05-.06,.1-.11,.15-.17,.04-.04,.08-.09,.11-.14,.05-.06,.09-.12,.13-.18,.04-.05,.07-.1,.1-.15,.04-.07,.08-.13,.12-.2v-.03s.06-.1,.09-.15c.03-.06,.06-.12,.08-.18l.11-.19c.33-.29,.72-.51,1.16-.66,.15-.05,.29-.09,.42-.11,.04,0,.08-.02,.12-.02h.03c.17-.03,.33-.04,.48-.04h.08c.42,0,.82,.09,1.21,.24l.09,.03c.12,.05,.22,.1,.32,.15l.07,.06s.04,.05,.06,.07l.06,.07c.07,.1,.15,.18,.23,.27,.07,.07,.13,.14,.2,.21,.05,.05,.11,.1,.17,.15,.06,.05,.12,.1,.18,.14,.07,.05,.13,.1,.2,.14l.12,.11c.05,.08,.1,.17,.15,.27,.09,.19,.17,.4,.23,.64l.03,.14c.16,.71,.08,1.44-.21,2.11Zm-12.41-3.9c-.83-1.7-.13-3.75,1.57-4.58h.02c1.22-.6,2.68-.41,3.71,.48,.14,.13,.28,.27,.43,.45,.02,.02,.04,.03,.05,.05,.14,.18,.26,.38,.37,.59,.1,.21,.18,.43,.24,.66v.06c.06,.23,.09,.43,.1,.62,.03,.63-.12,1.25-.42,1.81l-.02,.04s-.03,.05-.04,.07c-.1,.16-.21,.32-.33,.46l-.07,.07c-.3,.33-.65,.6-1.03,.78-.09,.04-.19,.08-.28,.12l-.05,.02h-.11c-.09-.01-.17-.01-.26-.01h-.1s-.05,0-.05,0c-.08,0-.17,0-.26,.02-.04,0-.08,0-.11,.01-.1,.01-.2,.03-.29,.04l-.1,.02c-.1,.02-.2,.05-.29,.08l-.12,.02h-.01c-1.11-.17-2.06-.87-2.55-1.88Zm.79,7.39c-.83-1.7-.13-3.75,1.57-4.58,.2-.1,.39-.16,.56-.21,.05-.02,.11-.03,.16-.05,.17-.04,.35-.07,.53-.08,.1,0,.2-.01,.3,0,.15,0,.29,0,.42,.03,.39,.05,.76,.18,1.13,.37,.08,.04,.15,.08,.22,.13,.11,.07,.22,.15,.32,.23l.04,.03c.05,.04,.09,.07,.13,.11,.1,.09,.2,.2,.31,.33l.04,.05s.06,.06,.08,.1c.13,.18,.25,.36,.34,.55,.08,.17,.15,.36,.22,.58l.03,.1c.04,.15,.06,.31,.08,.51,0,.07,.01,.14,.01,.22,0,.09,0,.17,0,.25v.13c-.01,.08-.02,.16-.03,.24-.01,.08-.03,.15-.05,.22l-.02,.06c-.05,.19-.11,.39-.2,.57l-.03,.07c-.03,.07-.06,.13-.09,.19-.03,.06-.08,.13-.12,.19l-.06,.08c-.35,.51-.79,.89-1.31,1.15-.47,.23-.98,.35-1.5,.35-1.3,0-2.51-.75-3.08-1.92Zm2.21,7.4c-.83-1.7-.13-3.75,1.57-4.58,.78-.38,1.67-.45,2.51-.19,.15,.04,.3,.11,.48,.2,.02,0,.04,.02,.05,.02,.03,.01,.07,.03,.1,.05,.15,.08,.31,.19,.48,.33,.05,.03,.07,.05,.09,.07,.15,.13,.31,.28,.45,.46l.03,.03c.16,.2,.28,.4,.38,.61,.07,.13,.13,.28,.18,.46l.04,.12-.08,.1c-.19,.25-.36,.53-.51,.87l-.03,.07s-.03,.06-.04,.09h0c-.03,.09-.05,.17-.08,.25l-.05,.15c-.02,.08-.04,.14-.06,.2-.02,.07-.03,.14-.04,.21v.07s-.02,.07-.03,.11c-.01,.05-.02,.08-.02,.12l-.03,.25-.31-.03c-.18-.03-.36-.04-.54-.05-.05,0-.11,0-.15,0-.17,0-.32,.01-.47,.03h-.11c-.16,.04-.34,.08-.54,.13-.04,.01-.07,.02-.11,.03-.24,.08-.41,.15-.58,.23-.19,.09-.37,.2-.56,.34l-.09,.06c-.16,.12-.32,.26-.48,.42l-.18,.17-.17-.11c-.48-.34-.86-.77-1.12-1.3Zm5.95,7.26c-.47,.23-.98,.35-1.5,.35-.38,0-.75-.06-1.12-.19-.87-.3-1.56-.91-1.97-1.73-.58-1.18-.41-2.61,.42-3.64,.06-.08,.13-.15,.19-.22,.07-.07,.14-.14,.22-.21l.03-.03c.08-.07,.15-.13,.23-.19,.03-.02,.07-.04,.1-.07l.07-.04c.4-.25,.83-.41,1.28-.48,.05,0,.09-.02,.13-.02,.21-.03,.42-.03,.64-.01,.12,0,.22,.01,.32,.03,.13,.02,.25,.06,.37,.09,.02,0,.03,0,.05,.01,.06,.01,.11,.03,.16,.04,.06,.02,.12,.05,.18,.08l.09,.04c.11,.05,.24,.11,.36,.18,.06,.04,.11,.08,.17,.12l.1,.07c.09,.06,.17,.12,.25,.19s.14,.14,.2,.21l.1,.11s.09,.1,.14,.16c.14,.19,.26,.37,.35,.57,.09,.18,.16,.37,.22,.6h0c.03,.11,.04,.21,.05,.3l.02,.12c.02,.09,.04,.19,.04,.28,.08,1.38-.67,2.67-1.91,3.28Zm5.14-3.93c-.48,.23-.98,.35-1.49,.35-.29,0-.58-.04-.86-.11l-.16-.04-.03-.16c-.04-.16-.07-.31-.12-.45l-.03-.1c-.06-.19-.13-.34-.19-.47-.09-.18-.19-.35-.32-.54l-.07-.1c-.12-.16-.25-.31-.39-.46l-.06-.06c-.31-.3-.66-.55-1.04-.74l-.12-.07-.04-.16h0s0-.07,0-.09c0-.06,0-.12,0-.17v-.07s0-.04,.01-.06c.03-.22,.08-.43,.14-.63v-.04c.08-.2,.17-.39,.27-.57h0s.04-.06,.04-.06c.12-.21,.27-.41,.43-.58l.03-.04c.14-.15,.29-.29,.45-.41,.07-.05,.14-.1,.21-.14,.1-.06,.2-.13,.32-.19,.16-.08,.34-.14,.57-.21,.06-.02,.12-.03,.18-.05,.14-.03,.29-.05,.44-.07h.05s.08-.02,.11-.02c.4-.02,.81,.04,1.22,.17,.17,.06,.33,.13,.46,.2l.05,.03s.08,.03,.12,.05c.09,.05,.18,.12,.27,.18l.07,.05c.46,.34,.81,.75,1.04,1.23,.08,.16,.15,.34,.21,.57l.04,.12c.38,1.55-.38,3.19-1.82,3.89Zm6.6-6.47c-.3,.87-.91,1.56-1.73,1.97-.47,.23-.98,.35-1.49,.35-.24,0-.47-.03-.71-.08l-.13-.03-.03-.08h0s-.03-.09-.03-.09c-.07-.2-.13-.36-.2-.49-.06-.12-.12-.24-.2-.36,0-.02-.02-.03-.03-.04l-.03-.05c-.06-.09-.11-.17-.17-.25l-.07-.08c-.06-.08-.12-.15-.19-.22-.02-.02-.04-.05-.07-.07-.07-.08-.15-.15-.22-.21l-.07-.06c-.08-.07-.15-.13-.23-.18-.03-.02-.06-.04-.09-.07-.07-.05-.15-.1-.23-.14h-.02s-.06-.05-.1-.07c-.06-.03-.12-.06-.19-.1l-.06-.03s-.09-.04-.12-.06l-.15-.07-.06-.15c0-.06,0-.12-.01-.19v-.26c0-.75,.25-1.5,.71-2.09l.15-.19s.05-.06,.08-.09c.08-.08,.17-.16,.25-.23,.04-.04,.09-.08,.14-.11,.08-.06,.17-.12,.25-.17,.05-.03,.11-.07,.17-.1,.09-.05,.17-.09,.26-.13,.11-.05,.23-.09,.36-.13,.13-.04,.26-.07,.4-.1,.1-.02,.2-.04,.3-.05,.11,0,.21-.01,.31-.02,.11,0,.21,0,.31,.02h.08s.1,.01,.14,.02c.15,.02,.3,.06,.49,.12,.15,.05,.3,.11,.49,.2l.05,.02c.05,.02,.08,.04,.11,.05,.14,.08,.25,.16,.37,.25,.03,.03,.05,.04,.08,.05,.05,.03,.09,.06,.13,.09,.09,.08,.17,.16,.24,.25l.05,.06s.03,.04,.05,.05c.05,.05,.09,.09,.13,.14,.14,.19,.27,.39,.37,.59,.4,.82,.46,1.75,.16,2.62Zm4.42-7.69c.4,.82,.46,1.75,.16,2.62s-.91,1.56-1.73,1.97c-.47,.23-.97,.35-1.49,.35-.22,0-.44-.02-.66-.06l-.14-.03-.05-.14c-.07-.14-.17-.31-.29-.48l-.06-.09c-.24-.33-.53-.63-.85-.88-.19-.14-.37-.26-.55-.36l-.05-.03-.15-.15,.1-.17c.17-.28,.31-.58,.42-.91,.02-.05,.03-.11,.05-.16,.03-.12,.06-.24,.09-.39v-.06c.02-.05,.03-.08,.03-.11,.02-.17,.04-.33,.04-.49,0-.07,0-.13,0-.19v-.1c0-.07-.01-.15-.02-.22,0-.1-.02-.2-.04-.3l-.02-.12c-.02-.11-.04-.22-.08-.33l-.04-.16,.12-.1c.15-.13,.43-.36,.63-.46,.19-.09,.39-.17,.62-.23,.07-.02,.14-.03,.21-.04l.15-.03c.11-.02,.2-.04,.28-.04,.09,0,.18,0,.27,0h.16c.07,0,.14,0,.21,.02,.11,.01,.22,.04,.33,.07h.05c1.01,.25,1.84,.91,2.28,1.82Zm-6.53-7.48l-.03-.17,.15-.09c.82-.47,1.78-.57,2.69-.29,.9,.28,1.66,.92,2.07,1.76,.56,1.14,.43,2.54-.34,3.56l-.09,.13-.19-.04c-.42-.08-.85-.1-1.27-.05-.03,0-.06,0-.08,0-.2,.03-.4,.07-.59,.12-.03,0-.06,.02-.09,.03-.25,.08-.43,.15-.6,.23-.01,0-.05,.03-.1,.06-.18,.1-.32,.18-.44,.27l-.2,.14-.17-.24c-.09-.13-.18-.25-.29-.38l-.05-.06c-.25-.28-.53-.52-.84-.72-.02-.01-.03-.02-.05-.03-.12-.08-.3-.19-.49-.27l-.33-.15,.28-.3c.09-.09,.17-.19,.26-.31l.04-.05c.09-.12,.17-.25,.24-.37,.5-.85,.69-1.85,.53-2.81Zm-1.06-.82v.02c.09,.17,.17,.37,.22,.57v.04s.02,.06,.03,.09v.09c.04,.1,.06,.23,.08,.35,0,.07,0,.13,.01,.2v.09c0,.12,0,.2,0,.27,0,.1-.02,.21-.03,.31-.01,.08-.03,.16-.05,.24-.02,.1-.05,.2-.08,.3-.02,.06-.04,.12-.07,.18l-.05,.12c-.03,.07-.06,.14-.09,.21-.09,.17-.18,.32-.28,.46-.02,.03-.04,.05-.06,.08l-.03,.04c-.11,.13-.2,.24-.3,.33-.03,.03-.06,.06-.1,.09l-.03,.03c-.11,.1-.25,.22-.42,.32l-.07,.04h-.08s-.05,0-.07,0c-.32-.02-.66,0-.99,.06l-.13,.03c-.13,.03-.25,.06-.37,.1l-.14,.04c-.16,.05-.29,.11-.42,.17l-.03,.02-.1,.03h-.06c-.38-.08-.75-.22-1.08-.41l-.07-.04c-.43-.26-.79-.61-1.07-1.03l-.04-.06c-.08-.12-.14-.22-.19-.33-.4-.82-.46-1.75-.16-2.61,.3-.87,.91-1.56,1.73-1.97,.82-.4,1.75-.46,2.62-.16,.87,.3,1.56,.91,1.97,1.73Z"/></g></svg>