<svg xmlns="http://www.w3.org/2000/svg" viewBox="0 0 22 92.67"><defs><style>.cls-1{fill:#e6e6e6;}.cls-2{fill:#fff;}</style></defs><title>자산 176</title><g id="레이어_2" data-name="레이어 2"><g id="레이어_1-2" data-name="레이어 1"><path class="cls-1" d="M14.67,0H22a0,0,0,0,1,0,0V92.67a0,0,0,0,1,0,0H14.67A14.67,14.67,0,0,1,0,78V14.67A14.67,14.67,0,0,1,14.67,0Z"/><path class="cls-2" d="M9.76,20.39v-4.2h7v.91H10.49v3.29Z"/><path class="cls-2" d="M10.46,24.13a1.85,1.85,0,0,1-.83-1.47,1.82,1.82,0,0,1,1.93-1.95h3.33v.91H11.65a1.16,1.16,0,0,0-1.3,1.12,1.43,1.43,0,0,0,1.56,1.39h3V25H9.76v-.91Z"/><path class="cls-2" d="M14.19,27.06A1.85,1.85,0,0,1,15,28.53a1.82,1.82,0,0,1-1.93,1.95H9.76v-.91H13a1.16,1.16,0,0,0,1.3-1.12,1.44,1.44,0,0,0-1.56-1.39h-3v-.9h5.13v.9Z"/><path class="cls-2" d="M10.3,35.6a2.49,2.49,0,0,1-.67-1.76,2.54,2.54,0,0,1,2.67-2.57A2.53,2.53,0,0,1,15,33.86a3.32,3.32,0,0,1-.46,1.63l-.69-.35a2.51,2.51,0,0,0,.39-1.28c0-1-.79-1.66-2-1.66a1.73,1.73,0,0,0-1.89,1.67,1.93,1.93,0,0,0,.5,1.29Z"/><path class="cls-2" d="M14.19,37.15A1.85,1.85,0,0,1,15,38.62a1.8,1.8,0,0,1-1.93,1.93H9.76v-.89H13a1.16,1.16,0,0,0,1.3-1.12,1.44,1.44,0,0,0-1.56-1.39h-3v-.9h7.18v.9Z"/><path class="cls-2" d="M10.47,42.54H9.76v-.91h7.18v.91H14.12A1.85,1.85,0,0,1,15,44.09c0,1.27-1,2.24-2.69,2.24s-2.7-.82-2.7-2.24A1.88,1.88,0,0,1,10.47,42.54Zm1.87,2.88c1.06,0,2-.46,2-1.43s-.89-1.45-2-1.45h-.1c-1.2,0-1.92.63-1.92,1.44C10.32,45,11.34,45.42,12.34,45.42Z"/><path class="cls-2" d="M15,49.25a2.47,2.47,0,0,1-2.71,2.41,2.43,2.43,0,1,1,0-4.83A2.48,2.48,0,0,1,15,49.25Zm-4.69,0c0,.82.73,1.5,2,1.5s2-.68,2-1.5-.73-1.5-2-1.5S10.34,48.43,10.34,49.25Z"/><path class="cls-2" d="M13,53.91l1.85,1.25v1L12.35,54.4,9.76,56.19v-1l1.86-1.26L9.76,52.62v-1l2.56,1.78,2.57-1.74v1Z"/><path class="cls-2" d="M16.94,59v.91H9.76V59Z"/><path class="cls-2" d="M14.52,61.1a3.21,3.21,0,0,1,.53,1.75A1.74,1.74,0,0,1,14,64.61a2.45,2.45,0,0,1-.87.12H10.87a4.14,4.14,0,0,0-1.11.13v-.92a3.86,3.86,0,0,1,.48-.08,2.23,2.23,0,0,1-.62-1.49,1.73,1.73,0,0,1,1.71-1.83c1.35,0,1.87,1.08,1.87,2.55,0,.24,0,.49,0,.74h.09a1,1,0,0,0,1.05-1.07,2.3,2.3,0,0,0-.42-1.28Zm-4.15,1.36a1.28,1.28,0,0,0,1.3,1.37h.79c0-.22,0-.48,0-.67,0-1-.3-1.72-1.12-1.72A1,1,0,0,0,10.37,62.46Z"/><path class="cls-2" d="M11,67.47l3.93,1.4v.94L9.76,67.9V67l5.13-1.91v1Z"/><path class="cls-2" d="M10.2,74.11a2.74,2.74,0,0,1-.56-1.68,2.49,2.49,0,0,1,2.61-2.55c1.61,0,2.78.85,2.78,2.35a2.25,2.25,0,0,1-2.44,2.2,2.84,2.84,0,0,1-.45,0V70.81a1.64,1.64,0,0,0-1.75,1.65,2.19,2.19,0,0,0,.44,1.3Zm2.67-.55a1.39,1.39,0,0,0,1.44-1.36c0-.72-.75-1.25-1.44-1.35Z"/><path class="cls-2" d="M14.18,76.13A1.77,1.77,0,0,1,15,77.62a2.11,2.11,0,0,1,0,.25h-.8v0c0-.07,0-.14,0-.21a1.39,1.39,0,0,0-1.28-1.51H9.76v-.91h5.13v.91Z"/></g></g></svg>