<svg xmlns="http://www.w3.org/2000/svg" viewBox="0 0 22 92.67"><defs><style>.cls-1{fill:#fff;}</style></defs><title>자산 208</title><g id="레이어_2" data-name="레이어 2"><g id="레이어_1-2" data-name="레이어 1"><path d="M14.67,0H22a0,0,0,0,1,0,0V92.67a0,0,0,0,1,0,0H14.67A14.67,14.67,0,0,1,0,78V14.67A14.67,14.67,0,0,1,14.67,0Z"/><path class="cls-1" d="M9.76,23.76v-4.2h7v.91H10.49v3.29Z"/><path class="cls-1" d="M14.52,24.35a3.21,3.21,0,0,1,.53,1.75A1.73,1.73,0,0,1,14,27.86a2.45,2.45,0,0,1-.87.13H10.87a4.47,4.47,0,0,0-1.11.12v-.92c.12,0,.48-.08.48-.08a2.21,2.21,0,0,1-.62-1.49,1.72,1.72,0,0,1,1.71-1.82c1.35,0,1.87,1.07,1.87,2.55,0,.23,0,.48,0,.73h.09A1,1,0,0,0,14.3,26a2.32,2.32,0,0,0-.42-1.28Zm-4.15,1.36a1.28,1.28,0,0,0,1.3,1.37h.79c0-.21,0-.48,0-.66,0-1-.3-1.72-1.12-1.72A1,1,0,0,0,10.37,25.71Z"/><path class="cls-1" d="M11,30.72l3.94,1.4v1L9.76,31.15v-.86l5.13-1.91v.95Z"/><path class="cls-1" d="M10.2,37.36a2.74,2.74,0,0,1-.56-1.68,2.48,2.48,0,0,1,2.61-2.54c1.6,0,2.77.84,2.77,2.34a2.24,2.24,0,0,1-2.43,2.2,2.84,2.84,0,0,1-.45,0V34.06a1.64,1.64,0,0,0-1.75,1.65,2.19,2.19,0,0,0,.44,1.3Zm2.67-.54a1.4,1.4,0,0,0,1.44-1.36,1.58,1.58,0,0,0-1.44-1.36Z"/><path class="cls-1" d="M14.18,39.38A1.76,1.76,0,0,1,15,40.87a2.09,2.09,0,0,1,0,.25H14.2v0a1.49,1.49,0,0,0,0-.21,1.39,1.39,0,0,0-1.28-1.51H9.76v-.91h5.13v.91Z"/><path class="cls-1" d="M10.47,44.86H7.65V44h7.24v.91h-.77a1.85,1.85,0,0,1,.9,1.55c0,1.26-1,2.23-2.68,2.23s-2.7-.81-2.7-2.23A1.83,1.83,0,0,1,10.47,44.86Zm1.87,2.87c1.05,0,2-.46,2-1.43s-.89-1.44-2-1.44h-.1c-1.2,0-1.92.62-1.92,1.44C10.32,47.3,11.34,47.73,12.34,47.73Z"/><path class="cls-1" d="M15,51.56A2.47,2.47,0,0,1,12.32,54a2.43,2.43,0,1,1,0-4.83A2.46,2.46,0,0,1,15,51.56Zm-4.68,0c0,.82.73,1.5,2,1.5s2-.68,2-1.5-.73-1.5-2-1.5S10.34,50.74,10.34,51.56Z"/><path class="cls-1" d="M11.13,56.06l3.76,1v.9l-3.75,1,3.75,1v.88L9.76,59.36V58.5l3.82-1-3.82-1v-.85l5.13-1.45v.88Z"/><path class="cls-1" d="M9.64,63.28c0-1.42,1-2.23,2.7-2.23S15,62,15,63.28a1.85,1.85,0,0,1-.9,1.56h2.82v.9H9.76v-.9h.71A1.86,1.86,0,0,1,9.64,63.28Zm.68.12c0,.81.72,1.44,1.92,1.44h.1c1.09,0,2-.48,2-1.45s-.93-1.43-2-1.43S10.32,62.39,10.32,63.4Z"/><path class="cls-1" d="M10.2,70.74a2.75,2.75,0,0,1-.56-1.69,2.48,2.48,0,0,1,2.61-2.54c1.6,0,2.77.85,2.77,2.35a2.24,2.24,0,0,1-2.43,2.19l-.45,0V67.44a1.64,1.64,0,0,0-1.75,1.65,2.16,2.16,0,0,0,.44,1.29Zm2.67-.55a1.39,1.39,0,0,0,1.44-1.36c0-.72-.75-1.25-1.44-1.36Z"/><path class="cls-1" d="M14.18,72.76A1.76,1.76,0,0,1,15,74.25a1.93,1.93,0,0,1,0,.24H14.2a1.64,1.64,0,0,0,0-.22,1.38,1.38,0,0,0-1.28-1.5H9.76v-.91h5.13v.91Z"/></g></g></svg>