<svg xmlns="http://www.w3.org/2000/svg" viewBox="0 0 22 92.67"><defs><style>.cls-1{fill:#fff;}</style></defs><title>자산 173</title><g id="레이어_2" data-name="레이어 2"><g id="레이어_1-2" data-name="레이어 1"><path d="M14.67,0H22a0,0,0,0,1,0,0V92.67a0,0,0,0,1,0,0H14.67A14.67,14.67,0,0,1,0,78V14.67A14.67,14.67,0,0,1,14.67,0Z"/><path class="cls-1" d="M15.6,19.88a3.14,3.14,0,0,0,.55-1.61c0-.78-.4-1.22-1-1.22s-1,.56-1.45,1.66-1.09,1.87-2.12,1.87a2.08,2.08,0,0,1-2-2.34,3.59,3.59,0,0,1,.93-2.43l.68.48a3,3,0,0,0-.83,1.9c0,.62.26,1.45,1.17,1.45.62,0,1-.55,1.44-1.52s1-2,2.1-2c1.33,0,1.79,1.14,1.79,2.15a4,4,0,0,1-.64,2Z"/><path class="cls-1" d="M10.2,25.35a2.75,2.75,0,0,1-.56-1.69,2.48,2.48,0,0,1,2.61-2.54c1.6,0,2.77.85,2.77,2.35a2.24,2.24,0,0,1-2.43,2.2,2.84,2.84,0,0,1-.45,0V22.05a1.64,1.64,0,0,0-1.75,1.65A2.16,2.16,0,0,0,10.83,25Zm2.67-.55a1.39,1.39,0,0,0,1.44-1.36c0-.72-.75-1.25-1.44-1.36Z"/><path class="cls-1" d="M14.52,26.65a3.21,3.21,0,0,1,.53,1.75A1.73,1.73,0,0,1,14,30.16a2.45,2.45,0,0,1-.87.13H10.87a4.47,4.47,0,0,0-1.11.12v-.92l.48-.08a2.21,2.21,0,0,1-.62-1.49,1.72,1.72,0,0,1,1.71-1.82c1.35,0,1.87,1.07,1.87,2.55,0,.23,0,.48,0,.73h.09a1,1,0,0,0,1.05-1.07A2.32,2.32,0,0,0,13.88,27ZM10.37,28a1.28,1.28,0,0,0,1.3,1.37h.79c0-.21,0-.48,0-.66,0-1-.3-1.72-1.12-1.72A1,1,0,0,0,10.37,28Z"/><path class="cls-1" d="M13.91,33.83a1.91,1.91,0,0,0,.39-1.06c0-.52-.26-.78-.61-.78s-.66.34-1,1.09-.81,1.37-1.56,1.37A1.56,1.56,0,0,1,9.6,32.71a2.42,2.42,0,0,1,.78-1.83l.61.48a2.12,2.12,0,0,0-.64,1.33c0,.47.24.88.74.88s.68-.45.91-.93c.31-.69.78-1.51,1.63-1.51A1.41,1.41,0,0,1,15,32.72a2.78,2.78,0,0,1-.51,1.54Z"/><path class="cls-1" d="M15,37.3a2.47,2.47,0,0,1-2.7,2.42,2.43,2.43,0,1,1,0-4.84A2.47,2.47,0,0,1,15,37.3Zm-4.68,0c0,.82.73,1.5,2,1.5s2-.68,2-1.5-.73-1.5-2-1.5S10.34,36.48,10.34,37.3Z"/><path class="cls-1" d="M14.19,41.43a1.86,1.86,0,0,1-1.1,3.41H9.76v-.91H13a1.16,1.16,0,0,0,1.29-1.12,1.42,1.42,0,0,0-1.55-1.38h-3v-.91h5.13v.91Z"/><path class="cls-1" d="M10.2,49.87a2.75,2.75,0,0,1-.56-1.69,2.48,2.48,0,0,1,2.61-2.54c1.6,0,2.77.85,2.77,2.35a2.24,2.24,0,0,1-2.43,2.2,2.84,2.84,0,0,1-.45,0V46.57a1.64,1.64,0,0,0-1.75,1.65,2.16,2.16,0,0,0,.44,1.29Zm2.67-.55A1.39,1.39,0,0,0,14.31,48c0-.72-.75-1.25-1.44-1.36Z"/><path class="cls-1" d="M9.64,53c0-1.42,1-2.23,2.7-2.23S15,51.69,15,53a1.85,1.85,0,0,1-.9,1.56h2.82v.9H9.76v-.9h.71A1.86,1.86,0,0,1,9.64,53Zm.68.12c0,.81.72,1.44,1.92,1.44h.1c1.09,0,2-.48,2-1.45s-.93-1.43-2-1.43S10.32,52.06,10.32,53.07Z"/><path class="cls-1" d="M16.94,58.74v.91H9.76v-.91Z"/><path class="cls-1" d="M14.52,60.88a3.21,3.21,0,0,1,.53,1.75A1.73,1.73,0,0,1,14,64.39a2.45,2.45,0,0,1-.87.13H10.87a4,4,0,0,0-1.11.12v-.92l.48-.08a2.21,2.21,0,0,1-.62-1.49,1.72,1.72,0,0,1,1.71-1.82c1.35,0,1.87,1.07,1.87,2.55,0,.23,0,.48,0,.73h.09a1,1,0,0,0,1.05-1.07,2.32,2.32,0,0,0-.42-1.28Zm-4.15,1.36a1.28,1.28,0,0,0,1.3,1.37h.79c0-.21,0-.48,0-.66,0-1-.3-1.72-1.12-1.72A1,1,0,0,0,10.37,62.24Z"/><path class="cls-1" d="M11,67.25l3.94,1.4v.95L9.76,67.68v-.86l5.13-1.91v1Z"/><path class="cls-1" d="M10.2,73.89a2.74,2.74,0,0,1-.56-1.68,2.48,2.48,0,0,1,2.61-2.54c1.6,0,2.77.84,2.77,2.34a2.24,2.24,0,0,1-2.43,2.2,2.84,2.84,0,0,1-.45,0V70.59a1.64,1.64,0,0,0-1.75,1.65,2.19,2.19,0,0,0,.44,1.3Zm2.67-.54A1.4,1.4,0,0,0,14.31,72a1.58,1.58,0,0,0-1.44-1.36Z"/><path class="cls-1" d="M14.18,75.91A1.76,1.76,0,0,1,15,77.4a2.09,2.09,0,0,1,0,.25H14.2v0a1.49,1.49,0,0,0,0-.21,1.39,1.39,0,0,0-1.28-1.51H9.76V75h5.13v.91Z"/></g></g></svg>