<svg xmlns="http://www.w3.org/2000/svg" viewBox="0 0 22 92.67"><defs><style>.cls-1{fill:#fff;}</style></defs><title>자산 212</title><g id="레이어_2" data-name="레이어 2"><g id="레이어_1-2" data-name="레이어 1"><path d="M14.67,0H22a0,0,0,0,1,0,0V92.67a0,0,0,0,1,0,0H14.67A14.67,14.67,0,0,1,0,78V14.67A14.67,14.67,0,0,1,14.67,0Z"/><path class="cls-1" d="M9.66,16.82a3.36,3.36,0,0,1,3.61-3.35,3.39,3.39,0,0,1,3.63,3.32A4.08,4.08,0,0,1,16.3,19l-.65-.36a3.81,3.81,0,0,0,.5-1.84c0-1.54-1.36-2.4-2.88-2.4a2.57,2.57,0,0,0-2.84,2.41,4.57,4.57,0,0,0,.29,1.46h2v-1.8h.73v2.7h-3.2A4.74,4.74,0,0,1,9.66,16.82Z"/><path class="cls-1" d="M14.18,21.16A1.76,1.76,0,0,1,15,22.65a2.09,2.09,0,0,1,0,.25H14.2v0a1.49,1.49,0,0,0,0-.21,1.39,1.39,0,0,0-1.28-1.51H9.76v-.91h5.13v.91Z"/><path class="cls-1" d="M14.52,23.36a3.21,3.21,0,0,1,.53,1.75A1.75,1.75,0,0,1,14,26.88a2.74,2.74,0,0,1-.87.12H10.87a4.47,4.47,0,0,0-1.11.12V26.2c.12,0,.48-.07.48-.07a2.26,2.26,0,0,1-.62-1.5,1.72,1.72,0,0,1,1.71-1.82c1.35,0,1.87,1.07,1.87,2.55,0,.24,0,.48,0,.73h.09A1,1,0,0,0,14.3,25a2.32,2.32,0,0,0-.42-1.28Zm-4.15,1.36a1.28,1.28,0,0,0,1.3,1.37h.79c0-.21,0-.48,0-.66,0-1-.3-1.72-1.12-1.72A1,1,0,0,0,10.37,24.72Z"/><path class="cls-1" d="M14.19,29a1.86,1.86,0,0,1-1.1,3.41H9.76v-.91H13a1.16,1.16,0,0,0,1.29-1.12A1.42,1.42,0,0,0,12.74,29h-3v-.91h5.13V29Z"/><path class="cls-1" d="M10.46,36.81a1.85,1.85,0,0,1-.83-1.47,1.82,1.82,0,0,1,1.93-2h3.33v.91H11.65a1.16,1.16,0,0,0-1.3,1.12,1.43,1.43,0,0,0,1.56,1.39h3v.91H9.76v-.91Z"/><path class="cls-1" d="M16.94,38.84v.9H9.76v-.9Z"/><path class="cls-1" d="M14.52,41a3.2,3.2,0,0,1,.53,1.74A1.74,1.74,0,0,1,14,44.49a2.48,2.48,0,0,1-.87.12H10.87a4.1,4.1,0,0,0-1.11.13v-.92a3.86,3.86,0,0,1,.48-.08,2.25,2.25,0,0,1-.62-1.49,1.73,1.73,0,0,1,1.71-1.83c1.35,0,1.87,1.08,1.87,2.55,0,.24,0,.49,0,.73h.09a1,1,0,0,0,1.05-1.06,2.3,2.3,0,0,0-.42-1.28Zm-4.15,1.36a1.28,1.28,0,0,0,1.3,1.36h.79c0-.21,0-.47,0-.66,0-1-.3-1.72-1.12-1.72A1,1,0,0,0,10.37,42.34Z"/><path class="cls-1" d="M16.16,45.88l.28.91H14.89V48h-.73V46.79H11c-.59,0-.66.49-.67,1.08H9.63c0-1.19.25-2,1.37-2h3.16v-.7h.73v.7Z"/><path class="cls-1" d="M10.2,52.48a2.75,2.75,0,0,1-.56-1.69,2.48,2.48,0,0,1,2.61-2.54c1.6,0,2.77.85,2.77,2.35a2.24,2.24,0,0,1-2.43,2.2,2.84,2.84,0,0,1-.45,0V49.18a1.64,1.64,0,0,0-1.75,1.65,2.21,2.21,0,0,0,.44,1.3Zm2.67-.55a1.39,1.39,0,0,0,1.44-1.36c0-.72-.75-1.25-1.44-1.35Z"/><path class="cls-1" d="M9.64,55.57c0-1.42,1-2.24,2.7-2.24S15,54.3,15,55.57a1.85,1.85,0,0,1-.9,1.55h2.82V58H9.76v-.91h.71A1.84,1.84,0,0,1,9.64,55.57Zm.68.11c0,.81.72,1.44,1.92,1.44h.1c1.09,0,2-.48,2-1.45s-.93-1.43-2-1.43S10.32,54.67,10.32,55.68Z"/><path class="cls-1" d="M16.94,61.35v.91H9.76v-.91Z"/><path class="cls-1" d="M14.52,63.49a3.21,3.21,0,0,1,.53,1.75A1.75,1.75,0,0,1,14,67a2.74,2.74,0,0,1-.87.12H10.87a4.47,4.47,0,0,0-1.11.12v-.92c.12,0,.48-.07.48-.07a2.26,2.26,0,0,1-.62-1.5,1.72,1.72,0,0,1,1.71-1.82c1.35,0,1.87,1.07,1.87,2.55,0,.24,0,.48,0,.73h.09a1,1,0,0,0,1.05-1.07,2.32,2.32,0,0,0-.42-1.28Zm-4.15,1.36a1.28,1.28,0,0,0,1.3,1.37h.79c0-.21,0-.48,0-.66,0-1-.3-1.72-1.12-1.72A1,1,0,0,0,10.37,64.85Z"/><path class="cls-1" d="M11,69.86l3.94,1.4v.95L9.76,70.29v-.86l5.13-1.91v1Z"/><path class="cls-1" d="M10.2,76.5a2.72,2.72,0,0,1-.56-1.68,2.48,2.48,0,0,1,2.61-2.54c1.6,0,2.77.85,2.77,2.35a2.24,2.24,0,0,1-2.43,2.19l-.45,0V73.21a1.64,1.64,0,0,0-1.75,1.64,2.19,2.19,0,0,0,.44,1.3ZM12.87,76a1.4,1.4,0,0,0,1.44-1.36c0-.72-.75-1.25-1.44-1.36Z"/><path class="cls-1" d="M14.18,78.52A1.77,1.77,0,0,1,15,80a2.09,2.09,0,0,1,0,.25H14.2v0a1.49,1.49,0,0,0,0-.21,1.39,1.39,0,0,0-1.28-1.51H9.76v-.9h5.13v.9Z"/></g></g></svg>