<svg xmlns="http://www.w3.org/2000/svg" viewBox="0 0 22 92.67"><defs><style>.cls-1{fill:#fff;}</style></defs><title>자산 199</title><g id="레이어_2" data-name="레이어 2"><g id="레이어_1-2" data-name="레이어 1"><path d="M14.67,0H22a0,0,0,0,1,0,0V92.67a0,0,0,0,1,0,0H14.67A14.67,14.67,0,0,1,0,78V14.67A14.67,14.67,0,0,1,14.67,0Z"/><path class="cls-1" d="M9.66,23.33A3.36,3.36,0,0,1,13.27,20,3.39,3.39,0,0,1,16.9,23.3a4.1,4.1,0,0,1-.6,2.22l-.65-.37a3.77,3.77,0,0,0,.5-1.83c0-1.54-1.36-2.4-2.88-2.4a2.57,2.57,0,0,0-2.84,2.41,4.45,4.45,0,0,0,.29,1.45h2V23h.73v2.71h-3.2A4.74,4.74,0,0,1,9.66,23.33Z"/><path class="cls-1" d="M14.89,26.74v.91H9.76v-.91Zm2.05-.06v1h-1.1v-1Z"/><path class="cls-1" d="M14.35,29.6A1.52,1.52,0,0,1,15,30.79a1.69,1.69,0,0,1-.95,1.52A1.66,1.66,0,0,1,15,33.75a1.7,1.7,0,0,1-1.81,1.82H9.76v-.89h3.5a1,1,0,0,0,1-1,1,1,0,0,0-1.19-1.07H9.76v-.88h3.42a1,1,0,0,0,1.11-1,1.09,1.09,0,0,0-1.2-1.09H9.76v-.89h5.13v.89Z"/><path class="cls-1" d="M10.47,37.63H9.76v-.9h7.18v.9H14.12a1.85,1.85,0,0,1,.9,1.56c0,1.26-1,2.23-2.68,2.23s-2.7-.81-2.7-2.23A1.86,1.86,0,0,1,10.47,37.63Zm1.87,2.88c1.05,0,2-.46,2-1.43s-.89-1.45-2-1.45h-.1c-1.2,0-1.92.63-1.92,1.44C10.32,40.08,11.34,40.51,12.34,40.51Z"/><path class="cls-1" d="M14.52,42.39a3.2,3.2,0,0,1,.53,1.74A1.74,1.74,0,0,1,14,45.9a2.48,2.48,0,0,1-.87.12H10.87a4.1,4.1,0,0,0-1.11.13v-.92a3.86,3.86,0,0,1,.48-.08,2.25,2.25,0,0,1-.62-1.49,1.73,1.73,0,0,1,1.71-1.83c1.35,0,1.87,1.08,1.87,2.55,0,.24,0,.49,0,.73h.09a1,1,0,0,0,1.05-1.06,2.3,2.3,0,0,0-.42-1.28Zm-4.15,1.36a1.28,1.28,0,0,0,1.3,1.36h.79c0-.21,0-.47,0-.66,0-1-.3-1.72-1.12-1.72A1,1,0,0,0,10.37,43.75Z"/><path class="cls-1" d="M10.47,48H9.76v-.91h7.18V48H14.12a1.85,1.85,0,0,1,.9,1.55c0,1.26-1,2.23-2.68,2.23s-2.7-.81-2.7-2.23A1.83,1.83,0,0,1,10.47,48Zm1.87,2.87c1.05,0,2-.46,2-1.42s-.89-1.45-2-1.45h-.1c-1.2,0-1.92.62-1.92,1.44C10.32,50.43,11.34,50.86,12.34,50.86Z"/><path class="cls-1" d="M16.94,54.84v.91H9.76v-.91Z"/><path class="cls-1" d="M14.52,57a3.21,3.21,0,0,1,.53,1.75A1.75,1.75,0,0,1,14,60.5a2.74,2.74,0,0,1-.87.12H10.87a4.47,4.47,0,0,0-1.11.12v-.92c.12,0,.48-.07.48-.07a2.25,2.25,0,0,1-.62-1.49,1.72,1.72,0,0,1,1.71-1.83c1.35,0,1.87,1.08,1.87,2.55,0,.24,0,.48,0,.73h.09a1,1,0,0,0,1.05-1.07,2.32,2.32,0,0,0-.42-1.28Zm-4.15,1.36a1.28,1.28,0,0,0,1.3,1.37h.79c0-.21,0-.48,0-.66,0-1-.3-1.72-1.12-1.72A1,1,0,0,0,10.37,58.34Z"/><path class="cls-1" d="M11,63.35l3.94,1.4v1L9.76,63.78v-.86L14.89,61V62Z"/><path class="cls-1" d="M10.2,70a2.72,2.72,0,0,1-.56-1.68,2.48,2.48,0,0,1,2.61-2.54c1.6,0,2.77.85,2.77,2.35a2.24,2.24,0,0,1-2.43,2.19l-.45,0V66.7a1.64,1.64,0,0,0-1.75,1.65,2.18,2.18,0,0,0,.44,1.29Zm2.67-.54a1.4,1.4,0,0,0,1.44-1.36c0-.72-.75-1.25-1.44-1.36Z"/><path class="cls-1" d="M14.18,72A1.77,1.77,0,0,1,15,73.5a2.09,2.09,0,0,1,0,.25H14.2v0a1.49,1.49,0,0,0,0-.21A1.39,1.39,0,0,0,12.94,72H9.76v-.9h5.13V72Z"/></g></g></svg>