<svg xmlns="http://www.w3.org/2000/svg" viewBox="0 0 22 92.67"><defs><style>.cls-1{fill:#fff;}</style></defs><title>자산 183</title><g id="레이어_2" data-name="레이어 2"><g id="레이어_1-2" data-name="레이어 1"><path d="M14.67,0H22a0,0,0,0,1,0,0V92.67a0,0,0,0,1,0,0H14.67A14.67,14.67,0,0,1,0,78V14.67A14.67,14.67,0,0,1,14.67,0Z"/><path class="cls-1" d="M9.66,17.89a3.36,3.36,0,0,1,3.61-3.35,3.38,3.38,0,0,1,3.63,3.32,4.08,4.08,0,0,1-.6,2.22l-.65-.36a3.81,3.81,0,0,0,.5-1.84c0-1.54-1.36-2.4-2.88-2.4a2.57,2.57,0,0,0-2.84,2.41,4.57,4.57,0,0,0,.29,1.46h2v-1.8h.73v2.71h-3.2A4.79,4.79,0,0,1,9.66,17.89Z"/><path class="cls-1" d="M15,23.47a2.47,2.47,0,0,1-2.71,2.41,2.43,2.43,0,1,1,0-4.83A2.47,2.47,0,0,1,15,23.47Zm-4.69,0c0,.82.73,1.49,2,1.49s2-.67,2-1.49-.73-1.5-2-1.5S10.34,22.64,10.34,23.47Z"/><path class="cls-1" d="M10.47,27.59H7.65v-.9h7.24v.9h-.77A1.86,1.86,0,0,1,15,29.15c0,1.26-1,2.23-2.69,2.23s-2.7-.81-2.7-2.23A1.88,1.88,0,0,1,10.47,27.59Zm1.87,2.88c1.06,0,2-.46,2-1.43s-.89-1.45-2-1.45h-.1c-1.2,0-1.92.63-1.92,1.44C10.32,30,11.34,30.47,12.34,30.47Z"/><path class="cls-1" d="M10.3,36.21a2.49,2.49,0,0,1-.67-1.76,2.54,2.54,0,0,1,2.67-2.57A2.53,2.53,0,0,1,15,34.46a3.26,3.26,0,0,1-.46,1.63l-.69-.34a2.52,2.52,0,0,0,.39-1.29c0-1-.79-1.65-2-1.65a1.73,1.73,0,0,0-1.89,1.67,2,2,0,0,0,.5,1.29Z"/><path class="cls-1" d="M14.19,37.76A1.85,1.85,0,0,1,15,39.23a1.8,1.8,0,0,1-1.93,1.93H9.76v-.89H13a1.16,1.16,0,0,0,1.3-1.12,1.43,1.43,0,0,0-1.56-1.39h-3v-.91h7.18v.91Z"/><path class="cls-1" d="M14.52,42.44a3.18,3.18,0,0,1,.53,1.74A1.74,1.74,0,0,1,14,46a2.45,2.45,0,0,1-.87.12H10.87a4.51,4.51,0,0,0-1.11.12v-.91a3.86,3.86,0,0,1,.48-.08,2.25,2.25,0,0,1-.62-1.49,1.72,1.72,0,0,1,1.71-1.83c1.35,0,1.87,1.08,1.87,2.55,0,.24,0,.49,0,.73h.09a1,1,0,0,0,1.05-1.07,2.27,2.27,0,0,0-.42-1.27ZM10.37,43.8a1.28,1.28,0,0,0,1.3,1.36h.79c0-.21,0-.47,0-.66,0-1-.3-1.72-1.12-1.72A1,1,0,0,0,10.37,43.8Z"/><path class="cls-1" d="M14.19,48a1.86,1.86,0,0,1-1.1,3.41H9.76v-.91H13a1.15,1.15,0,0,0,1.3-1.12A1.43,1.43,0,0,0,12.74,48h-3v-.91h5.13V48Z"/><path class="cls-1" d="M15,54.51a1.83,1.83,0,0,1-.91,1.54h.77V57H10.26a2.27,2.27,0,0,1-2.54-2.36,4,4,0,0,1,.47-1.8l.7.32a3.2,3.2,0,0,0-.44,1.46c0,.79.54,1.48,1.73,1.48h.39a1.79,1.79,0,0,1-.82-1.55c0-1.34.91-2.24,2.61-2.24S15,53.21,15,54.51Zm-.71.1c0-1-1-1.44-2-1.44s-1.94.48-1.94,1.44.76,1.44,1.74,1.44h.42A1.58,1.58,0,0,0,14.32,54.61Z"/><path class="cls-1" d="M16.94,60.28v.91H9.76v-.91Z"/><path class="cls-1" d="M14.52,62.42a3.21,3.21,0,0,1,.53,1.75A1.73,1.73,0,0,1,14,65.93a2.41,2.41,0,0,1-.87.13H10.87a4.51,4.51,0,0,0-1.11.12v-.92c.12,0,.48-.08.48-.08a2.21,2.21,0,0,1-.62-1.49,1.72,1.72,0,0,1,1.71-1.82c1.35,0,1.87,1.07,1.87,2.55,0,.23,0,.48,0,.73h.09a1,1,0,0,0,1.05-1.07,2.32,2.32,0,0,0-.42-1.28Zm-4.15,1.36a1.28,1.28,0,0,0,1.3,1.37h.79c0-.21,0-.48,0-.66,0-1-.3-1.72-1.12-1.72A1,1,0,0,0,10.37,63.78Z"/><path class="cls-1" d="M11,68.79l3.93,1.4v1L9.76,69.22v-.86l5.13-1.91v1Z"/><path class="cls-1" d="M10.2,75.43a2.72,2.72,0,0,1-.56-1.68,2.48,2.48,0,0,1,2.61-2.54c1.61,0,2.78.84,2.78,2.34a2.25,2.25,0,0,1-2.44,2.2l-.45,0V72.13a1.65,1.65,0,0,0-1.75,1.65,2.19,2.19,0,0,0,.44,1.3Zm2.67-.54a1.4,1.4,0,0,0,1.44-1.36,1.58,1.58,0,0,0-1.44-1.36Z"/><path class="cls-1" d="M14.18,77.45A1.77,1.77,0,0,1,15,78.94a2.11,2.11,0,0,1,0,.25h-.8v0c0-.07,0-.14,0-.21A1.39,1.39,0,0,0,13,77.45H9.76v-.91h5.13v.91Z"/></g></g></svg>