<svg xmlns="http://www.w3.org/2000/svg" viewBox="0 0 364.4 138"><defs><style>.cls-1{fill:none;stroke:#f5f5f5;stroke-miterlimit:10;stroke-width:2px;}.cls-2{fill:#231815;}</style></defs><title>자산 166</title><g id="레이어_2" data-name="레이어 2"><g id="레이어_1-2" data-name="레이어 1"><rect class="cls-1" x="1" y="1" width="110" height="136" rx="15.22"/><rect class="cls-1" x="127.2" y="1" width="110" height="136" rx="15.22"/><rect class="cls-1" x="253.4" y="1" width="110" height="136" rx="15.22"/><path class="cls-2" d="M31.41,100.93h-.88l-3.74-6.21v6.21H26V93.25h.88l3.75,6.21V93.25h.82Z"/><path class="cls-2" d="M36.42,100.15a2.11,2.11,0,0,1-1.67.92A2,2,0,0,1,32.63,99V95.34h.84v3.54a1.37,1.37,0,0,0,1.33,1.51,1.66,1.66,0,0,0,1.62-1.8V95.34h.84v5.59h-.84Z"/><path class="cls-2" d="M38.69,93.91l.82-.27v1.7h1.3V96h-1.3v3.53c0,.71.55.8,1.2.81v.7c-1.22,0-2-.27-2-1.46V96h-.78v-.69h.78Z"/><path class="cls-2" d="M41.93,93.91l.81-.27v1.7H44V96h-1.3v3.53c0,.71.56.8,1.2.81v.7c-1.22,0-2-.27-2-1.46V96h-.79v-.69h.79Z"/><path class="cls-2" d="M44.4,102.59a2.31,2.31,0,0,0,1.9-1.74l-2.06-5.51h.9l1.58,4.46,1.53-4.46h.9l-1.82,5.11c-.61,1.7-1,2.48-2.66,2.85Z"/><path class="cls-2" d="M52.31,95.7a3.42,3.42,0,0,1,1.85-.54A1.85,1.85,0,0,1,56,96.33a2.84,2.84,0,0,1,.12,1v2.47a4.72,4.72,0,0,0,.12,1.18h-.84c0-.19-.09-.65-.09-.65a2.23,2.23,0,0,1-1.72.78,1.83,1.83,0,0,1-2-1.83c0-1.46,1.16-2,2.75-2,.29,0,.59,0,.9,0V97.2a1.16,1.16,0,0,0-1.27-1.33,2.53,2.53,0,0,0-1.39.45Zm1.42,4.63a1.46,1.46,0,0,0,1.6-1.46v-.93a7.75,7.75,0,0,0-.82,0c-1.19,0-2,.34-2,1.29A1.14,1.14,0,0,0,53.73,100.33Z"/><path class="cls-2" d="M58.13,96.12a2.11,2.11,0,0,1,1.66-.92,2,2,0,0,1,2.13,2.09v3.64h-.85V97.39a1.36,1.36,0,0,0-1.33-1.51,1.66,1.66,0,0,0-1.61,1.8v3.25h-.85V95.34h.85Z"/><path class="cls-2" d="M65.23,95.19a2,2,0,0,1,1.7.94V93.06h.84v7.87h-.84v-.73a2,2,0,0,1-1.7.87c-1.51,0-2.48-1.1-2.48-2.9S63.72,95.19,65.23,95.19Zm0,.68c-1.21,0-1.64,1.19-1.64,2.31s.5,2.24,1.64,2.24,1.65-1,1.68-2.16v-.21C66.9,96.58,66.22,95.87,65.25,95.87Z"/><path class="cls-2" d="M72.24,96.14a1.82,1.82,0,0,1,1.65-1l.3,0V96l-.27,0a1.56,1.56,0,0,0-1.68,1.47v3.53H71.4V95.34h.84Z"/><path class="cls-2" d="M74.69,93.06h1v1.1h-1Zm.07,2.28h.84v5.59h-.84Z"/><path class="cls-2" d="M81.12,100.39a2.62,2.62,0,0,1-1.87.68,3,3,0,0,1,0-5.91,3.44,3.44,0,0,1,1.73.49l-.34.62a2.82,2.82,0,0,0-1.39-.4,2.28,2.28,0,0,0,0,4.51,2.17,2.17,0,0,0,1.42-.52Z"/><path class="cls-2" d="M82.64,96.11a2.16,2.16,0,0,1,1.66-.91,2,2,0,0,1,2.13,2.08v3.65h-.85V97.38a1.35,1.35,0,0,0-1.33-1.5,1.65,1.65,0,0,0-1.61,1.79v3.26h-.85V93.06h.85Z"/><path class="cls-2" d="M36.73,109.9a2.13,2.13,0,0,0-1.16-.42c-.63,0-.94.32-.94.75s.4.76,1.26,1.18,1.47.88,1.47,1.69a1.65,1.65,0,0,1-1.85,1.6,2.6,2.6,0,0,1-1.95-.79l.45-.58a2.25,2.25,0,0,0,1.47.67c.57,0,1.06-.28,1.06-.88s-.5-.79-1.09-1.06c-.76-.35-1.63-.8-1.63-1.77a1.52,1.52,0,0,1,1.7-1.51,2.85,2.85,0,0,1,1.6.52Z"/><path class="cls-2" d="M42.42,114.1a2.93,2.93,0,0,1-1.79.58,2.69,2.69,0,0,1-2.74-2.85c0-1.75.94-3.06,2.5-3.06a2.48,2.48,0,0,1,2.4,2.68,3.52,3.52,0,0,1,0,.45h-4A1.9,1.9,0,0,0,40.67,114a2.42,2.42,0,0,0,1.41-.45ZM42,111.21a1.63,1.63,0,0,0-1.58-1.73,1.84,1.84,0,0,0-1.6,1.73Z"/><path class="cls-2" d="M46.34,109.9a2.2,2.2,0,0,0-1.17-.42c-.63,0-.94.32-.94.75s.4.76,1.26,1.18,1.47.88,1.47,1.69a1.65,1.65,0,0,1-1.85,1.6,2.61,2.61,0,0,1-2-.79l.45-.58a2.27,2.27,0,0,0,1.47.67c.57,0,1.06-.28,1.06-.88s-.5-.79-1.09-1.06c-.76-.35-1.62-.8-1.62-1.77a1.51,1.51,0,0,1,1.69-1.51,2.86,2.86,0,0,1,1.61.52Z"/><path class="cls-2" d="M48,109.31a3.47,3.47,0,0,1,1.85-.54,1.84,1.84,0,0,1,1.88,1.17,2.8,2.8,0,0,1,.13,1v2.47a4.72,4.72,0,0,0,.12,1.18h-.84c0-.19-.09-.65-.09-.65a2.23,2.23,0,0,1-1.72.78,1.83,1.83,0,0,1-2-1.83c0-1.46,1.16-2,2.75-2,.29,0,.59,0,.9,0v-.07a1.16,1.16,0,0,0-1.27-1.33,2.53,2.53,0,0,0-1.39.45Zm1.43,4.63a1.47,1.47,0,0,0,1.6-1.46v-.93a7.75,7.75,0,0,0-.82,0c-1.19,0-2,.34-2,1.29A1.14,1.14,0,0,0,49.45,113.94Z"/><path class="cls-2" d="M53.83,109.57a1.72,1.72,0,0,1,1.39-.75,1.75,1.75,0,0,1,1.65,1,1.88,1.88,0,0,1,1.66-1,1.81,1.81,0,0,1,1.94,1.94v3.78h-.84v-3.82a1.14,1.14,0,0,0-1.2-1.22A1.3,1.3,0,0,0,57.15,111v3.57h-.83V110.8a1.18,1.18,0,0,0-1.19-1.3,1.33,1.33,0,0,0-1.3,1.45v3.59H53V109h.83Z"/><path class="cls-2" d="M65.86,114.1a2.93,2.93,0,0,1-1.79.58,2.69,2.69,0,0,1-2.74-2.85c0-1.75.94-3.06,2.5-3.06a2.48,2.48,0,0,1,2.4,2.68,3.52,3.52,0,0,1,0,.45h-4A1.9,1.9,0,0,0,64.11,114a2.42,2.42,0,0,0,1.41-.45Zm-.44-2.89a1.64,1.64,0,0,0-1.59-1.73,1.84,1.84,0,0,0-1.6,1.73Z"/><path class="cls-2" d="M71.86,108.8a3,3,0,1,1-2.61,2.94A2.67,2.67,0,0,1,71.86,108.8Zm0,5.21c1,0,1.74-.83,1.74-2.27s-.79-2.27-1.74-2.27-1.75.83-1.75,2.27S70.9,114,71.86,114Z"/><path class="cls-2" d="M75.28,106.68h1v1.09h-1Zm.06,2.27h.85v5.59h-.85Z"/><path class="cls-2" d="M77.36,106.68h.85v7.86h-.85Z"/><path d="M151,93.94h-2.35v7h-.84v-7h-2.34v-.69H151Z"/><path d="M151.49,96.14a1.82,1.82,0,0,1,1.66-1l.29,0V96l-.26,0a1.56,1.56,0,0,0-1.69,1.47v3.53h-.84V95.34h.84Z"/><path d="M154,95.7a3.45,3.45,0,0,1,1.85-.54,1.84,1.84,0,0,1,1.88,1.17,2.8,2.8,0,0,1,.13,1v2.47a4.72,4.72,0,0,0,.12,1.18h-.84c0-.19-.09-.65-.09-.65a2.25,2.25,0,0,1-1.73.78,1.83,1.83,0,0,1-2-1.83c0-1.46,1.17-2,2.76-2,.29,0,.58,0,.9,0V97.2a1.17,1.17,0,0,0-1.28-1.33,2.53,2.53,0,0,0-1.39.45Zm1.43,4.63a1.47,1.47,0,0,0,1.6-1.46v-.93a7.94,7.94,0,0,0-.83,0c-1.18,0-2,.34-2,1.29A1.13,1.13,0,0,0,155.38,100.33Z"/><path d="M161.11,95.19a2,2,0,0,1,1.7.94V93.06h.84v7.87h-.84v-.73a2,2,0,0,1-1.7.87c-1.5,0-2.48-1.1-2.48-2.9S159.61,95.19,161.11,95.19Zm0,.68c-1.2,0-1.63,1.19-1.63,2.31s.5,2.24,1.63,2.24,1.65-1,1.68-2.16v-.21C162.78,96.58,162.1,95.87,161.13,95.87Z"/><path d="M164.76,93.06h1v1.1h-1Zm.07,2.28h.84v5.59h-.84Z"/><path d="M167.1,93.91l.82-.27v1.7h1.3V96h-1.3v3.53c0,.71.55.8,1.2.81v.7c-1.22,0-2-.27-2-1.46V96h-.78v-.69h.78Z"/><path d="M170,93.06h1v1.1h-1Zm.07,2.28h.84v5.59h-.84Z"/><path d="M174.41,95.19a3,3,0,1,1-2.6,2.94A2.67,2.67,0,0,1,174.41,95.19Zm0,5.21c1,0,1.75-.83,1.75-2.27s-.8-2.27-1.75-2.27-1.74.83-1.74,2.27S173.46,100.4,174.41,100.4Z"/><path d="M178.74,96.12a2.12,2.12,0,0,1,1.67-.92,2,2,0,0,1,2.12,2.09v3.64h-.84V97.39a1.36,1.36,0,0,0-1.33-1.51,1.66,1.66,0,0,0-1.62,1.8v3.25h-.84V95.34h.84Z"/><path d="M183.9,95.7a3.45,3.45,0,0,1,1.85-.54,1.84,1.84,0,0,1,1.88,1.17,2.8,2.8,0,0,1,.13,1v2.47a4.72,4.72,0,0,0,.12,1.18H187c0-.19-.09-.65-.09-.65a2.21,2.21,0,0,1-1.72.78,1.83,1.83,0,0,1-1.95-1.83c0-1.46,1.17-2,2.75-2,.3,0,.59,0,.91,0V97.2a1.17,1.17,0,0,0-1.28-1.33,2.53,2.53,0,0,0-1.39.45Zm1.43,4.63a1.47,1.47,0,0,0,1.6-1.46v-.93a7.94,7.94,0,0,0-.83,0c-1.18,0-2,.34-2,1.29A1.14,1.14,0,0,0,185.33,100.33Z"/><path d="M188.88,93.06h.84v7.87h-.84Z"/><path d="M195.53,95.16a1.87,1.87,0,0,1,1.69,1v-.79h.85v5.09a2.47,2.47,0,0,1-2.52,2.77,3.88,3.88,0,0,1-2-.54l.29-.64a3.52,3.52,0,0,0,1.65.47c.91,0,1.69-.62,1.69-2.08V100a1.93,1.93,0,0,1-1.7.95c-1.45,0-2.47-1.1-2.47-2.9S194.1,95.16,195.53,95.16Zm0,.71c-1.21,0-1.64,1.08-1.64,2.2s.56,2.2,1.64,2.2,1.64-.9,1.67-2.06v-.07C197.22,96.59,196.53,95.87,195.55,95.87Z"/><path d="M200.09,96.14a1.82,1.82,0,0,1,1.65-1l.3,0V96l-.27,0a1.56,1.56,0,0,0-1.68,1.47v3.53h-.84V95.34h.84Z"/><path d="M202.54,93.06h1v1.1h-1Zm.07,2.28h.84v5.59h-.84Z"/><path d="M204.62,93.06h.85v7.87h-.85Z"/><path d="M206.64,93.06h.85v7.87h-.85Z"/><path d="M212.89,100.49a2.9,2.9,0,0,1-1.78.58,2.69,2.69,0,0,1-2.74-2.85c0-1.75.94-3.06,2.5-3.06a2.48,2.48,0,0,1,2.4,2.68,3.52,3.52,0,0,1,0,.45h-4a1.9,1.9,0,0,0,1.91,2.09,2.42,2.42,0,0,0,1.41-.45Zm-.44-2.89a1.63,1.63,0,0,0-1.58-1.73,1.84,1.84,0,0,0-1.6,1.73Z"/><path d="M216.32,95.19a1.94,1.94,0,0,1,1.69.94V93.06h.84v7.87H218v-.73a2,2,0,0,1-1.69.87c-1.51,0-2.48-1.1-2.48-2.9S214.81,95.19,216.32,95.19Zm0,.68c-1.21,0-1.64,1.19-1.64,2.31s.5,2.24,1.64,2.24,1.64-1,1.67-2.16v-.21C218,96.58,217.3,95.87,216.34,95.87Z"/><path d="M155.41,108.29a2.2,2.2,0,0,0-1.17-.42c-.62,0-.94.32-.94.75s.4.76,1.27,1.18,1.47.88,1.47,1.69a1.65,1.65,0,0,1-1.85,1.6,2.59,2.59,0,0,1-1.95-.79l.45-.58a2.25,2.25,0,0,0,1.47.67c.56,0,1.05-.28,1.05-.88s-.5-.79-1.08-1.06c-.77-.35-1.63-.8-1.63-1.77a1.51,1.51,0,0,1,1.69-1.51,2.86,2.86,0,0,1,1.61.52Z"/><path d="M161.09,112.49a2.9,2.9,0,0,1-1.78.58,2.69,2.69,0,0,1-2.74-2.85c0-1.75.94-3.06,2.49-3.06a2.48,2.48,0,0,1,2.4,2.68c0,.15,0,.29,0,.45h-4a1.9,1.9,0,0,0,1.91,2.09,2.42,2.42,0,0,0,1.41-.45Zm-.44-2.89a1.64,1.64,0,0,0-1.59-1.73,1.83,1.83,0,0,0-1.59,1.73Z"/><path d="M162.56,107.7a3.48,3.48,0,0,1,1.86-.54,1.85,1.85,0,0,1,1.88,1.17,3.13,3.13,0,0,1,.12,1v2.47a4.72,4.72,0,0,0,.12,1.18h-.84c0-.19-.09-.65-.09-.65a2.23,2.23,0,0,1-1.72.78,1.83,1.83,0,0,1-1.95-1.83c0-1.46,1.16-2,2.75-2,.29,0,.59,0,.9,0v-.07a1.16,1.16,0,0,0-1.27-1.33,2.53,2.53,0,0,0-1.39.45Zm1.43,4.63a1.46,1.46,0,0,0,1.6-1.46v-.93a7.75,7.75,0,0,0-.82,0c-1.19,0-2,.34-2,1.29A1.14,1.14,0,0,0,164,112.33Z"/><path d="M169,111.77l1.16-4.43H171l1.17,4.42,1.19-4.42h.82l-1.59,5.59h-.81l-1.21-4.51-1.19,4.51h-.82l-1.59-5.59h.83Z"/><path d="M179,112.49a2.92,2.92,0,0,1-1.78.58,2.7,2.7,0,0,1-2.75-2.85c0-1.75.94-3.06,2.5-3.06a2.48,2.48,0,0,1,2.4,2.68,3.52,3.52,0,0,1,0,.45h-4a1.9,1.9,0,0,0,1.91,2.09,2.42,2.42,0,0,0,1.41-.45Zm-.44-2.89a1.64,1.64,0,0,0-1.59-1.73,1.84,1.84,0,0,0-1.6,1.73Z"/><path d="M184.44,112.49a2.93,2.93,0,0,1-1.79.58,2.69,2.69,0,0,1-2.74-2.85c0-1.75.94-3.06,2.5-3.06a2.48,2.48,0,0,1,2.4,2.68,3.52,3.52,0,0,1,0,.45h-4a1.9,1.9,0,0,0,1.91,2.09,2.42,2.42,0,0,0,1.41-.45ZM184,109.6a1.63,1.63,0,0,0-1.58-1.73,1.84,1.84,0,0,0-1.6,1.73Z"/><path d="M187.86,107.19a1.94,1.94,0,0,1,1.69.94v-3.07h.84v7.87h-.84v-.73a2,2,0,0,1-1.69.87c-1.51,0-2.48-1.1-2.48-2.9S186.35,107.19,187.86,107.19Zm0,.68c-1.21,0-1.64,1.19-1.64,2.31s.5,2.24,1.64,2.24,1.64-1,1.67-2.16v-.21C189.52,108.58,188.85,107.87,187.88,107.87Z"/><path d="M196.33,107.19a3,3,0,1,1-2.6,2.94A2.67,2.67,0,0,1,196.33,107.19Zm0,5.21c.95,0,1.75-.83,1.75-2.27s-.8-2.27-1.75-2.27-1.74.83-1.74,2.27S195.38,112.4,196.33,112.4Z"/><path d="M201.53,111.89l1.61-4.55H204L202,112.93h-.87L199,107.34h.89Z"/><path d="M208.64,112.49a2.92,2.92,0,0,1-1.78.58,2.69,2.69,0,0,1-2.74-2.85c0-1.75.94-3.06,2.49-3.06a2.48,2.48,0,0,1,2.4,2.68,3.52,3.52,0,0,1,0,.45h-4a1.9,1.9,0,0,0,1.91,2.09,2.42,2.42,0,0,0,1.41-.45Zm-.44-2.89a1.64,1.64,0,0,0-1.59-1.73A1.83,1.83,0,0,0,205,109.6Z"/><path d="M210.72,108.14a1.82,1.82,0,0,1,1.66-1l.29,0V108l-.26,0a1.56,1.56,0,0,0-1.69,1.47v3.53h-.84v-5.59h.84Z"/><path d="M164.68,119.19a1.94,1.94,0,0,1,1.69.94v-3.07h.84v7.87h-.84v-.73a2,2,0,0,1-1.69.87c-1.51,0-2.48-1.1-2.48-2.9S163.17,119.19,164.68,119.19Zm0,.68c-1.2,0-1.63,1.19-1.63,2.31s.5,2.24,1.63,2.24,1.65-1,1.68-2.16v-.21C166.34,120.58,165.66,119.87,164.69,119.87Z"/><path d="M168.32,117.06h1v1.1h-1Zm.07,2.28h.84v5.59h-.84Z"/><path d="M171.25,120.14a1.82,1.82,0,0,1,1.66-1l.29,0V120l-.26,0a1.56,1.56,0,0,0-1.69,1.47v3.53h-.84v-5.59h.84Z"/><path d="M177.76,124.49a2.93,2.93,0,0,1-1.79.58,2.69,2.69,0,0,1-2.74-2.85c0-1.75.94-3.06,2.5-3.06a2.48,2.48,0,0,1,2.4,2.68,3.52,3.52,0,0,1,0,.45h-4a1.9,1.9,0,0,0,1.91,2.09,2.42,2.42,0,0,0,1.41-.45Zm-.44-2.89a1.64,1.64,0,0,0-1.59-1.73,1.84,1.84,0,0,0-1.6,1.73Z"/><path d="M183.34,124.39a2.64,2.64,0,0,1-1.87.68,3,3,0,0,1,0-5.91,3.44,3.44,0,0,1,1.73.49l-.34.62a2.82,2.82,0,0,0-1.39-.4,2.28,2.28,0,0,0,0,4.51,2.17,2.17,0,0,0,1.42-.52Z"/><path d="M184.27,117.91l.81-.27v1.7h1.3V120h-1.3v3.53c0,.71.56.8,1.2.81v.7c-1.22,0-2-.27-2-1.46V120h-.79v-.69h.79Z"/><path d="M189.94,119.34v-.6a3,3,0,0,1,.11-.88,1.4,1.4,0,0,1,1.42-1,3.06,3.06,0,0,1,1,.21l-.25.66a2.29,2.29,0,0,0-.69-.14.68.68,0,0,0-.69.44,1.89,1.89,0,0,0-.1.69v.63H192V120h-1.17v4.9h-.84V120h-.77v-.69Z"/><path d="M192.8,117.06h1v1.1h-1Zm.07,2.28h.84v5.59h-.84Z"/><path d="M195.73,120.14a1.82,1.82,0,0,1,1.66-1l.29,0V120l-.26,0a1.57,1.57,0,0,0-1.69,1.47v3.53h-.84v-5.59h.84Z"/><path d="M202.24,124.49a2.93,2.93,0,0,1-1.79.58,2.69,2.69,0,0,1-2.74-2.85c0-1.75.94-3.06,2.5-3.06a2.48,2.48,0,0,1,2.4,2.68,3.52,3.52,0,0,1,0,.45h-4a1.9,1.9,0,0,0,1.91,2.09,2.42,2.42,0,0,0,1.41-.45Zm-.44-2.89a1.64,1.64,0,0,0-1.59-1.73,1.84,1.84,0,0,0-1.6,1.73Z"/><path d="M286.21,94.46a3.26,3.26,0,0,0-1.75-.6c-.9,0-1.43.45-1.43,1.14s.63,1.11,1.89,1.66,2,1.15,2,2.29c0,1.47-1.27,2.11-2.52,2.11a3.87,3.87,0,0,1-2.59-1l.45-.64a3.29,3.29,0,0,0,2.08.88c.73,0,1.72-.3,1.72-1.36,0-.71-.65-1.18-1.76-1.65s-2.16-1-2.16-2.26c0-1.44,1.21-1.92,2.28-1.92a4.16,4.16,0,0,1,2.15.67Z"/><path d="M288.05,93.91l.81-.27v1.7h1.3V96h-1.3v3.53c0,.71.56.8,1.21.81v.7c-1.23,0-2-.27-2-1.46V96h-.79v-.69h.79Z"/><path d="M291.87,96.14a1.82,1.82,0,0,1,1.65-1l.3,0V96l-.27,0a1.56,1.56,0,0,0-1.68,1.47v3.53H291V95.34h.84Z"/><path d="M294.32,93.06h1v1.1h-1Zm.07,2.28h.84v5.59h-.84Z"/><path d="M300.76,100.39a2.65,2.65,0,0,1-1.87.68,3,3,0,0,1,0-5.91,3.44,3.44,0,0,1,1.73.49l-.33.62a2.89,2.89,0,0,0-1.4-.4,2.28,2.28,0,0,0,0,4.51,2.21,2.21,0,0,0,1.43-.52Z"/><path d="M301.68,93.91l.81-.27v1.7h1.3V96h-1.3v3.53c0,.71.56.8,1.21.81v.7c-1.23,0-2-.27-2-1.46V96h-.78v-.69h.78Z"/><path d="M309.29,95.19a2,2,0,0,1,1.7.94v-.79h.84v7.94H311V100.2a2,2,0,0,1-1.7.87c-1.51,0-2.48-1.1-2.48-2.9S307.78,95.19,309.29,95.19Zm0,.68c-1.2,0-1.63,1.19-1.63,2.31s.5,2.24,1.63,2.24,1.65-1,1.68-2.16v-.21C311,96.58,310.28,95.87,309.31,95.87Z"/><path d="M316.75,100.15a2.11,2.11,0,0,1-1.67.92A2,2,0,0,1,313,99V95.34h.84v3.54a1.37,1.37,0,0,0,1.33,1.51,1.66,1.66,0,0,0,1.62-1.8V95.34h.84v5.59h-.84Z"/><path d="M319,95.7a3.42,3.42,0,0,1,1.85-.54,1.85,1.85,0,0,1,1.88,1.17,2.84,2.84,0,0,1,.12,1v2.47a4.72,4.72,0,0,0,.12,1.18h-.84c0-.19-.09-.65-.09-.65a2.23,2.23,0,0,1-1.72.78,1.83,1.83,0,0,1-1.95-1.83c0-1.46,1.16-2,2.75-2,.3,0,.59,0,.9,0V97.2a1.16,1.16,0,0,0-1.27-1.33,2.53,2.53,0,0,0-1.39.45Zm1.43,4.63A1.46,1.46,0,0,0,322,98.87v-.93a7.75,7.75,0,0,0-.82,0c-1.19,0-2,.34-2,1.29A1.14,1.14,0,0,0,320.44,100.33Z"/><path d="M324,93.06h.85v7.87H324Z"/><path d="M325.93,93.06h1v1.1h-1Zm.07,2.28h.84v5.59H326Z"/><path d="M328.27,93.91l.82-.27v1.7h1.3V96h-1.3v3.53c0,.71.56.8,1.2.81v.7c-1.22,0-2-.27-2-1.46V96h-.78v-.69h.78Z"/><path d="M330.75,102.59a2.31,2.31,0,0,0,1.9-1.74l-2.06-5.51h.9l1.58,4.46,1.53-4.46h.9l-1.83,5.11c-.6,1.7-1,2.48-2.65,2.85Z"/><path d="M298.15,114a2.62,2.62,0,0,1-1.87.68,3,3,0,0,1,0-5.9,3.44,3.44,0,0,1,1.73.49l-.34.62a2.82,2.82,0,0,0-1.39-.41,2.28,2.28,0,0,0,0,4.51,2.17,2.17,0,0,0,1.42-.52Z"/><path d="M301.13,108.81a3,3,0,1,1-2.6,2.93A2.66,2.66,0,0,1,301.13,108.81Zm0,5.2c1,0,1.75-.83,1.75-2.27s-.79-2.26-1.75-2.26-1.74.83-1.74,2.26S300.19,114,301.13,114Z"/><path d="M305.47,109.73a2.12,2.12,0,0,1,1.66-.91,2,2,0,0,1,2.13,2.08v3.64h-.84V111a1.37,1.37,0,0,0-1.34-1.5,1.65,1.65,0,0,0-1.61,1.79v3.25h-.85V109h.85Z"/><path d="M310.64,107.53l.81-.27V109h1.31v.69h-1.31v3.52c0,.71.56.8,1.21.81v.7c-1.22,0-2-.27-2-1.46v-3.57h-.78V109h.78Z"/><path d="M314.46,109.76a1.83,1.83,0,0,1,1.66-1l.29,0v.75l-.26,0a1.57,1.57,0,0,0-1.69,1.46v3.53h-.84V109h.84Z"/><path d="M319.05,108.81a3,3,0,1,1-2.61,2.93A2.66,2.66,0,0,1,319.05,108.81Zm0,5.2c.95,0,1.74-.83,1.74-2.27s-.79-2.26-1.74-2.26-1.74.83-1.74,2.26S318.1,114,319.05,114Z"/><path d="M322.54,106.68h.84v7.86h-.84Z"/><path d="M201.63,41.68h0l-2.76-2.76h0l-5.52-5.52h0l-2.76-2.76h0l-5.52-5.52h0L184,24a1.87,1.87,0,0,0-2.63,0L165.9,39.47a1.86,1.86,0,0,0,0,2.62l5.3,5.31a2.61,2.61,0,0,0,.15,3.34l1.49,1.5-2.92,2.93a1.78,1.78,0,0,0-2.09.3l-6.15,6.15a1.76,1.76,0,0,0,0,2.5l.91.91a1.79,1.79,0,0,0,1.25.52,1.75,1.75,0,0,0,1.25-.52l6.15-6.15a1.76,1.76,0,0,0,.3-2.09l2.93-2.92,1.5,1.49a2.38,2.38,0,0,0,1.72.68,2.78,2.78,0,0,0,1.63-.53l5.3,5.3a1.86,1.86,0,0,0,2.62,0l15.45-15.45a1.86,1.86,0,0,0,0-2.62Zm-6.29-5.26-17,17-2.25-2.25,17-17Zm-2.76-2.76-17,17-2.25-2.25,17-17Zm-26.16,7.92a1.12,1.12,0,0,1,0-1.59l15.45-15.45a1.12,1.12,0,0,1,1.59,0l.84.84-17,17Zm1.35,1.36,17-17,2.24,2.25-17,17Zm2.76,2.76,17.05-17.05,2.24,2.25-17,17-.82-.82h0ZM170,56.15l.6.59-1.09,1.08-.59-.59Zm.75,2.22-6.14,6.14a1,1,0,0,1-.74.31,1,1,0,0,1-.73-.31l-.91-.91a1,1,0,0,1-.31-.73,1,1,0,0,1,.31-.74L168.34,56a1.07,1.07,0,0,1,.74-.31.92.92,0,0,1,.28,0L168.11,57a.37.37,0,0,0-.1.26.35.35,0,0,0,.1.26l1.11,1.11a.36.36,0,0,0,.52,0L171,57.35A1,1,0,0,1,170.72,58.37Zm.36-2.15-.59-.59,2.87-2.87.59.59Zm5.4-1.37-1.75-1.76h0l-.56-.55-2.31-2.31a1.87,1.87,0,0,1-.14-2.31L178.8,55A1.89,1.89,0,0,1,176.48,54.85Zm3.11-.09h0l-.78-.79,17-17,2.25,2.24-17,17Zm2,2,17-17,2.25,2.24L183.81,59Zm20.6-11.89L186.72,60.29a1.12,1.12,0,0,1-1.59,0l-.8-.8,17-17,.8.8A1.12,1.12,0,0,1,202.17,44.84Z"/><path d="M189.12,77.53H189a.34.34,0,0,1-.22-.43c.43-1.33-.62-2.67-1.74-4.09a10.36,10.36,0,0,1-1.77-2.81,6.92,6.92,0,0,1,.33-5.38c-1.6.6-2,2-2.42,3.25a9.36,9.36,0,0,1-.53,1.44,2.13,2.13,0,0,1-2,1.29,2.5,2.5,0,0,1-2.15-1.65,9.41,9.41,0,0,1,.48-6.7,4.82,4.82,0,0,0-3,4.62c0,2.3-.31,6.29-1.85,7.09a1.63,1.63,0,0,1-1.71-.24c-.88-.6-.78-1.4-.65-2.42a10,10,0,0,0-.07-3.6,5.82,5.82,0,0,1-2.23,2.67c-1.87,1.19-3.11,2.1-3.4,3.66a6.44,6.44,0,0,0,0,2.9.35.35,0,0,1-.26.41.34.34,0,0,1-.4-.27,7.17,7.17,0,0,1,0-3.2c.34-1.79,1.74-2.82,3.7-4.08a5,5,0,0,0,2.24-3.32.39.39,0,0,1,.34-.32.45.45,0,0,1,.4.28,10.79,10.79,0,0,1,.37,5c-.13,1-.15,1.42.35,1.76s.91.25,1,.2c.87-.45,1.44-2.94,1.49-6.49,0-2.91,1.64-4.82,4.91-5.85a.36.36,0,0,1,.44.21.37.37,0,0,1-.17.44c-2,.94-2,5.48-1.39,7a1.81,1.81,0,0,0,1.54,1.22,1.52,1.52,0,0,0,1.4-.92,7.88,7.88,0,0,0,.49-1.33c.47-1.52,1-3.4,3.66-3.93a.42.42,0,0,1,.39.17.39.39,0,0,1,0,.43,6.06,6.06,0,0,0-.65,5.44,9.79,9.79,0,0,0,1.66,2.61c1.18,1.49,2.39,3,1.85,4.72A.35.35,0,0,1,189.12,77.53Z"/><path d="M327,50.9h-2.36v-3.3a.37.37,0,0,0-.37-.37H310.92V44.36h4.15a.79.79,0,0,0,.79-.79V26.69a.79.79,0,0,0-.79-.8H307.8l-.12,0-.14.08L302,31.58a.3.3,0,0,0-.07.11.45.45,0,0,0,0,.13l0,.09V42.82a1.54,1.54,0,0,0,1.54,1.54h6.79v2.88H296.86a.36.36,0,0,0-.37.34v.1h0v3.23h-2.81l-.12,0-.14.08-4.17,4.18a.26.26,0,0,0-.07.1.5.5,0,0,0,0,.14l0,.09v8.15a1.25,1.25,0,0,0,1.24,1.24h8.75a.68.68,0,0,0,.68-.68V51.59a.68.68,0,0,0-.68-.69h-1.9V48h12.95v2.94h-2.57a.33.33,0,0,0-.12,0l-.14.08-4.18,4.18-.07.1c0,.07,0,.1,0,.14v8.24a1.24,1.24,0,0,0,1.24,1.24h8.74a.69.69,0,0,0,.69-.68V51.59a.69.69,0,0,0-.69-.69h-2.13V48h13v2.94h-2.37l-.1,0-.14.08-4.17,4.18a.26.26,0,0,0-.07.1.5.5,0,0,0,0,.14l0,.09v8.15a1.25,1.25,0,0,0,1.24,1.24H327a.68.68,0,0,0,.68-.68V51.59A.68.68,0,0,0,327,50.9Zm-33.66,1.26v2.92H290.4Zm5.76-.52V64.17h-8.7a.5.5,0,0,1-.5-.51V55.82h3.8a.38.38,0,0,0,.37-.37V51.64Zm8.35-24.49v4.32h-4.32Zm-.19,25v2.92h-2.92Zm5.76-.52V64.17h-8.69a.51.51,0,0,1-.51-.51V55.82h3.81a.38.38,0,0,0,.37-.37V51.64Zm-9.61-8a.83.83,0,0,1-.57-.23.79.79,0,0,1-.23-.57V32.21h5.21a.38.38,0,0,0,.37-.37V26.63h7v17Zm17.78,8.54v2.92h-2.92Zm-2.94,12a.5.5,0,0,1-.5-.51V55.82h3.8a.37.37,0,0,0,.37-.37V51.64h5V64.17Z"/><path d="M305.18,36.1h7.36a.48.48,0,0,0,0-1h-7.36a.48.48,0,0,0,0,1Z"/><path d="M305.18,38.73h7.36a.47.47,0,0,0,0-.94h-7.36a.47.47,0,0,0,0,.94Z"/><path d="M305.18,41.37h7.36a.47.47,0,0,0,.47-.47.48.48,0,0,0-.47-.48h-7.36a.48.48,0,0,0-.47.48A.47.47,0,0,0,305.18,41.37Z"/><path d="M297.51,68.89l-2.93,3.75a.22.22,0,0,1-.18.09.21.21,0,0,1-.2-.09l-1.05-1.32a.41.41,0,0,0-.3-.14.35.35,0,0,0-.23.09.37.37,0,0,0-.06.52l1.06,1.33a1,1,0,0,0,1.55,0l2.93-3.76a.4.4,0,0,0,.08-.28.41.41,0,0,0-.15-.25A.36.36,0,0,0,297.51,68.89Z"/><path d="M297.19,72.55a.38.38,0,0,0-.37.38v1.86a.23.23,0,0,1-.24.23h-4.81a.23.23,0,0,1-.24-.23V70a.24.24,0,0,1,.24-.24h3.54a.38.38,0,0,0,0-.75h-3.54a1,1,0,0,0-1,1v4.82a1,1,0,0,0,1,1h4.81a1,1,0,0,0,1-1V72.93A.38.38,0,0,0,297.19,72.55Z"/><path d="M311.43,68.89l-2.93,3.75a.2.2,0,0,1-.17.09.19.19,0,0,1-.2-.09l-1.06-1.32a.37.37,0,0,0-.29-.14.38.38,0,0,0-.24.09.39.39,0,0,0-.14.25.36.36,0,0,0,.08.27l1.06,1.33a1,1,0,0,0,.77.37,1,1,0,0,0,.79-.38L312,69.35a.36.36,0,0,0,.08-.28.35.35,0,0,0-.14-.25A.37.37,0,0,0,311.43,68.89Z"/><path d="M311.12,72.55a.38.38,0,0,0-.38.38v1.86a.23.23,0,0,1-.23.23h-4.82a.23.23,0,0,1-.24-.23V70a.24.24,0,0,1,.24-.24h3.54a.38.38,0,1,0,0-.75h-3.54a1,1,0,0,0-1,1v4.82a1,1,0,0,0,1,1h4.82a1,1,0,0,0,1-1V72.93A.38.38,0,0,0,311.12,72.55Z"/><path d="M325.36,68.89l-2.93,3.75a.22.22,0,0,1-.18.09.21.21,0,0,1-.2-.09L321,71.32a.41.41,0,0,0-.3-.14.35.35,0,0,0-.23.09.37.37,0,0,0-.06.52l1.06,1.33a1,1,0,0,0,1.55,0L326,69.35a.4.4,0,0,0,.08-.28.41.41,0,0,0-.15-.25A.36.36,0,0,0,325.36,68.89Z"/><path d="M325,72.55a.38.38,0,0,0-.37.38v1.86a.23.23,0,0,1-.24.23h-4.81a.23.23,0,0,1-.24-.23V70a.24.24,0,0,1,.24-.24h3.54a.38.38,0,0,0,0-.75h-3.54a1,1,0,0,0-1,1v4.82a1,1,0,0,0,1,1h4.81a1,1,0,0,0,1-1V72.93A.38.38,0,0,0,325,72.55Z"/><path d="M70.82,48.55a5.81,5.81,0,0,0-.94-3.15c-.24-.36-.47-.73-.7-1.1s-.66-1-1-1.54A1.93,1.93,0,0,1,67.93,41c.11-.36.22-.72.34-1.13s.21-.71.33-1.08a4.13,4.13,0,0,0-.28-3.33L67.57,34l0-.06L67,32.8a.48.48,0,0,1,.09-.68,1.32,1.32,0,0,0,.42-1.07v-.89c0-1,0-2,0-3a1.65,1.65,0,0,0-1.11-1.82H58.14a1.61,1.61,0,0,0-1.06,1.52v4.18a1.34,1.34,0,0,0,.53,1.16.45.45,0,0,1,.13.67c-.21.4-.41.81-.61,1.21l-.05.09c-.22.45-.46.92-.69,1.37a4.09,4.09,0,0,0-.27,3.38l.24.73,0,.06c.13.4.26.81.41,1.21a2,2,0,0,1-.25,1.91l-1.08,1.65,0,.06-.69,1.05a5.17,5.17,0,0,0-.86,2.27,20.94,20.94,0,0,0-.07,2.74c0,.39,0,.84,0,1.28,0,.21.13.33.42.41h0c.33-.1.4-.34.4-.7s0-.77,0-1.15v0a17.78,17.78,0,0,1,.08-2.52,4.39,4.39,0,0,1,.71-1.81L56.14,45c.37-.58.76-1.17,1.14-1.75a2.76,2.76,0,0,0,.34-2.62c-.21-.6-.41-1.22-.6-1.81l-.23-.71a.53.53,0,0,1,0-.46c.1-.13.29-.14.45-.16h0c3.55,0,6.85,0,10.11,0a.55.55,0,0,1,.46.16.58.58,0,0,1,0,.5c-.1.31-.19.63-.29,1v0c-.16.53-.32,1.08-.5,1.62a2.68,2.68,0,0,0,.33,2.39l.68,1.05,1.06,1.64a4.85,4.85,0,0,1,.8,2.7q0,12.24,0,24.47a1.49,1.49,0,0,1-1.65,1.67H67.07c-.19,0-.35,0-.44-.1a.52.52,0,0,1-.08-.44,5.26,5.26,0,0,0-.18-2.34,2.51,2.51,0,0,0-1.31-1.6,1.69,1.69,0,0,1-1-1.35c-.08-.58-.16-1.06-.27-1.54a1.37,1.37,0,0,0-.92-1.06,6.06,6.06,0,0,1-2.14-1.45l-.36-.34-.07-.07a15.47,15.47,0,0,0-1.75-1.47,3.62,3.62,0,0,0-1.28-.62,1.09,1.09,0,0,1-.87-.85,9.82,9.82,0,0,1-.3-1.76v0c0-.24,0-.49-.09-.74v-.07a8.13,8.13,0,0,0-.48-2.1,2.48,2.48,0,0,0-1.33-1.37h0a6.65,6.65,0,0,0-.85-.06c-1.45,0-2.33.66-3,2.29-.15.36-.3.73-.44,1.09l0,.1c-.09.22-.18.45-.28.67a1.28,1.28,0,0,1-.48.69,4.69,4.69,0,0,0-1.48,1.75,4.14,4.14,0,0,1-2,1.77l-.29.13a8.68,8.68,0,0,0-1.48.77,1.68,1.68,0,0,0-.8,1.79,5.71,5.71,0,0,0,.14.64,3.57,3.57,0,0,1,.17,1.22,9.32,9.32,0,0,1-1.84,4.71,1.12,1.12,0,0,1-.85.49.6.6,0,0,0-.5.34.42.42,0,0,0,.06.44,2.91,2.91,0,0,0,2.19,1.34H68.35a2.33,2.33,0,0,0,2.47-2.44ZM63.3,26.21c.83,0,1.66,0,2.5,0,.66,0,.82.15.82.82v3.84a.87.87,0,0,1-.29.71.8.8,0,0,1-.54.18,1.24,1.24,0,0,1-.27,0,.36.36,0,0,1-.31-.42V30a.69.69,0,0,0-.14-.47.38.38,0,0,0-.29-.1h0a.45.45,0,0,0-.31.12.61.61,0,0,0-.13.44c0,.23,0,.46,0,.67v.61c0,.33-.12.48-.46.49-.51,0-.75,0-.89-.11s-.15-.4-.15-.89V30c0-.35-.16-.54-.43-.54a.5.5,0,0,0-.32.12A.53.53,0,0,0,62,30c0,.2,0,.41,0,.61v0c0,.18,0,.39,0,.6a.65.65,0,0,1-.12.43.59.59,0,0,1-.41.13h-.24c-.4,0-.56,0-.66-.11s-.09-.22-.08-.45V30c0-.54-.31-.63-.48-.63s-.44.22-.46.61a3.68,3.68,0,0,0,0,.47c0,.21,0,.39,0,.57a.35.35,0,0,0,0,.14c0,.17.06.47-.36.53a1.29,1.29,0,0,1-1-.16.5.5,0,0,1-.19-.36,41.84,41.84,0,0,1,0-4.48c0-.43.41-.53.73-.53H63.3Zm-4,6.38c2,0,4.07,0,6.15,0a.65.65,0,0,1,.68.43c.28.59.58,1.17.86,1.74l.06.12c.18.35.35.69.52,1l.05.09a1.12,1.12,0,0,1,.16.55v.11H57.54c-.36,0-.49,0-.55-.12s0-.22.15-.56l.11-.22c.45-.89.92-1.81,1.36-2.74A.67.67,0,0,1,59.3,32.59ZM44,66.64c-.22-.87-.09-1.15.72-1.57.38-.2.78-.38,1.17-.55h0a5.26,5.26,0,0,0,2.53-2.25,4.22,4.22,0,0,1,1.23-1.44,2.73,2.73,0,0,0,.85-1.32l0-.06c.08-.21.16-.41.24-.63a10.44,10.44,0,0,1,.63-1.42,2.77,2.77,0,0,1,.52-.69,1.82,1.82,0,0,1,1.73-.52,1.78,1.78,0,0,1,1.22,1.28,11.55,11.55,0,0,1,.38,2.15v0c0,.31.07.63.11.94a7.84,7.84,0,0,0,.3,1.32A1.75,1.75,0,0,0,57,63.12a5.25,5.25,0,0,1,2.21,1.38l0,0,.72.65,0,0c.36.33.73.67,1.1,1a3.52,3.52,0,0,0,1.27.74,1,1,0,0,1,.71.87c.08.51.16,1,.27,1.54a2.08,2.08,0,0,0,1.13,1.47,2.11,2.11,0,0,1,1.18,1.71s0,0,0,.08a.55.55,0,0,1,0,.17c0,.13,0,.28,0,.41a1.76,1.76,0,0,1-.2,1.34h0a.64.64,0,0,1-.54.19,4.23,4.23,0,0,1-.48,0l-.43,0H42.58a1.06,1.06,0,0,1-.48-.07c-.25-.12-.42-.2-.45-.35s.07-.26.28-.49A9.75,9.75,0,0,0,44.14,69,5.3,5.3,0,0,0,44,66.64Z"/><path d="M42.92,60.37a3.31,3.31,0,0,0,1.2.22,3.41,3.41,0,0,0,2.6-1.21,3.22,3.22,0,0,0,.37-3.76A19,19,0,0,0,43,51.36a.42.42,0,0,0-.36-.11.5.5,0,0,0-.34.33,8.15,8.15,0,0,0-.3.77l-.05.14A18.84,18.84,0,0,0,40.79,57,3.36,3.36,0,0,0,42.92,60.37Zm-1.16-4a22.29,22.29,0,0,1,1.12-3.82l.06-.15.12.11a21.38,21.38,0,0,1,3.12,3.26,2.3,2.3,0,0,1,.11,2.7,2.35,2.35,0,0,1-2.09,1.23l-.3,0A2.43,2.43,0,0,1,41.76,58,3,3,0,0,1,41.76,56.39Z"/><path d="M58.12,54a.89.89,0,0,0,.61.16h7.18c.4,0,.64-.07.67-.44a.32.32,0,0,0-.08-.26.73.73,0,0,0-.57-.18H58.75c-.44,0-.69,0-.71.43A.34.34,0,0,0,58.12,54Z"/><path d="M58.64,50.45c-.43,0-.6.13-.6.44a.4.4,0,0,0,.1.3.61.61,0,0,0,.44.13h7.35a.77.77,0,0,0,.58-.18.32.32,0,0,0,.07-.26c0-.31-.21-.43-.64-.43h-7.3Z"/><path d="M65,48.53a.7.7,0,0,0,.5-.15.4.4,0,0,0,.1-.3c0-.22-.08-.44-.61-.44H59.86a.7.7,0,0,0-.49.14.41.41,0,0,0-.1.31c0,.12,0,.44.61.44Z"/><path d="M51.05,68h0a.82.82,0,0,0-.58.17.33.33,0,0,0-.07.26c0,.32.21.45.67.45h0c.44,0,.65-.08.67-.44a.36.36,0,0,0-.08-.28A.8.8,0,0,0,51.05,68Z"/><path d="M50,64.59h0c.61,0,.7-.21.71-.43a.44.44,0,0,0-.09-.29.78.78,0,0,0-.55-.16h0a.84.84,0,0,0-.6.17.35.35,0,0,0-.08.27C49.42,64.46,49.6,64.59,50,64.59Z"/><path d="M53.83,64.15a.34.34,0,0,0,.08.26.81.81,0,0,0,.57.18h0a.9.9,0,0,0,.6-.16.39.39,0,0,0,.08-.29c0-.39-.26-.42-.67-.43h0C54.1,63.71,53.87,63.78,53.83,64.15Z"/><path d="M46.59,68.83h0c.42,0,.64-.06.69-.4a.32.32,0,0,0-.07-.29.68.68,0,0,0-.53-.19.82.82,0,0,0-.66.17.34.34,0,0,0-.08.27C46,68.75,46.2,68.82,46.59,68.83Z"/><path d="M55.48,68a.79.79,0,0,0-.57.16.41.41,0,0,0-.1.27c0,.21.12.45.68.45a.8.8,0,0,0,.6-.19.36.36,0,0,0,.07-.31C56.1,68,55.86,68,55.48,68Z"/><path d="M57.71,68.83v0h.09c.38,0,.55-.13.59-.44a.33.33,0,0,0-.07-.26.81.81,0,0,0-.57-.18h0a.82.82,0,0,0-.57.14.4.4,0,0,0-.1.29C57.05,68.6,57.13,68.82,57.71,68.83Z"/><path d="M53.34,68v0a.79.79,0,0,0-.68.24.37.37,0,0,0,0,.37.68.68,0,0,0,.63.29,1,1,0,0,0,.33,0c.35-.09.37-.32.35-.45S53.83,67.91,53.34,68Z"/><path d="M60,68.83h0c.2,0,.47,0,.56-.34a.39.39,0,0,0,0-.34.78.78,0,0,0-.62-.2h0c-.44,0-.61.12-.64.44a.31.31,0,0,0,.07.24C59.41,68.72,59.6,68.82,60,68.83Z"/><path d="M48.86,68.83h0a.79.79,0,0,0,.57-.19.32.32,0,0,0,.08-.26c0-.36-.27-.43-.63-.43h0c-.4,0-.64,0-.66.43a.39.39,0,0,0,.08.29A.88.88,0,0,0,48.86,68.83Z"/><path d="M52.54,64.6a.41.41,0,0,0,.25-.08.51.51,0,0,0,.17-.36.35.35,0,0,0-.08-.27.78.78,0,0,0-.6-.18h0a.87.87,0,0,0-.56.16.38.38,0,0,0-.09.28c0,.37.24.44.84.45Z"/><path d="M52.26,60.25h0a.79.79,0,0,0,.58-.18.34.34,0,0,0,.08-.26c0-.32-.2-.44-.63-.44-.64,0-.7.22-.71.42a.4.4,0,0,0,.1.3A.76.76,0,0,0,52.26,60.25Z"/><path d="M45.84,70.94h.09a.71.71,0,0,0,.54-.17.31.31,0,0,0,.07-.26c0-.37-.26-.44-.67-.44h0c-.4,0-.63.07-.67.44a.32.32,0,0,0,.08.26A.81.81,0,0,0,45.84,70.94Z"/><path d="M51.89,66a.8.8,0,0,0-.6-.18h0a.69.69,0,0,0-.49.13.4.4,0,0,0-.11.31.46.46,0,0,0,.1.31.64.64,0,0,0,.44.12h.12c.58,0,.67-.21.68-.42A.38.38,0,0,0,51.89,66Z"/><path d="M61.21,70.94h.14a.81.81,0,0,0,.69-.23.37.37,0,0,0,0-.37c-.1-.24-.53-.37-.95-.25a.41.41,0,0,0-.36.45.43.43,0,0,0,.16.31A.48.48,0,0,0,61.21,70.94Z"/><path d="M50.31,70.07h0a.78.78,0,0,0-.55.16.44.44,0,0,0-.09.29.43.43,0,0,0,.13.32.53.53,0,0,0,.38.1h.12c.62,0,.71-.21.71-.42a.34.34,0,0,0-.1-.28A.82.82,0,0,0,50.31,70.07Z"/><path d="M57.78,66.7h.13v-.08l0,.08a.79.79,0,0,0,.68-.25.39.39,0,0,0,0-.37A.7.7,0,0,0,58,65.8a1,1,0,0,0-.33,0,.39.39,0,0,0-.33.46A.42.42,0,0,0,57.78,66.7Z"/><path d="M51.16,62.46h.09v0a.75.75,0,0,0,.68-.24.36.36,0,0,0,0-.37c-.12-.26-.35-.26-.64-.25a.76.76,0,0,0-.57.16.35.35,0,0,0-.08.28C50.66,62.33,50.8,62.46,51.16,62.46Z"/><path d="M54.78,70.07h0c-.42,0-.64.07-.65.44a.44.44,0,0,0,.1.32.61.61,0,0,0,.41.11h.1a.93.93,0,0,0,.66-.18.32.32,0,0,0,.06-.26C55.4,70.18,55.22,70.07,54.78,70.07Z"/><path d="M48.82,66.69h.39a.63.63,0,0,0,.43-.13.38.38,0,0,0,.1-.31c0-.2-.07-.27-.1-.29a.7.7,0,0,0-.53-.14h0v-.76l-.15.76h-.09a.41.41,0,0,0-.4.45A.4.4,0,0,0,48.82,66.69Z"/><path d="M54.16,66.08a.71.71,0,0,0-.64-.28.88.88,0,0,0-.33,0,.41.41,0,0,0-.34.46c0,.19.12.39.52.39h.1v0a.79.79,0,0,0,.68-.26A.37.37,0,0,0,54.16,66.08Z"/><path d="M55.18,66.58a.88.88,0,0,0,.58.11v-.07h0v.07h.13a.45.45,0,0,0,.52-.43.3.3,0,0,0-.07-.25.83.83,0,0,0-.62-.19.77.77,0,0,0-.54.13.51.51,0,0,0,0,.62Z"/><path d="M46.91,66.7h0c.42,0,.58-.12.6-.43a.37.37,0,0,0-.09-.28.72.72,0,0,0-.56-.16.79.79,0,0,0-.58.16.37.37,0,0,0-.1.29C46.2,66.49,46.26,66.69,46.91,66.7Z"/><path d="M52.85,62.05a.44.44,0,0,0,.5.41h.12v-.07l0,.07a.78.78,0,0,0,.67-.25.32.32,0,0,0,0-.35.67.67,0,0,0-.63-.3,1.26,1.26,0,0,0-.33.05C53,61.67,52.82,61.83,52.85,62.05Z"/><path d="M47.49,70.76a.85.85,0,0,0,.61.18.78.78,0,0,0,.6-.18.32.32,0,0,0,.06-.28c0-.35-.25-.41-.7-.41h0c-.4,0-.59.12-.63.43A.33.33,0,0,0,47.49,70.76Z"/><path d="M52.54,70h0a.75.75,0,0,0-.61.26.36.36,0,0,0,0,.41c.12.23.33.24.63.22h.16a.44.44,0,0,0,.46-.24.4.4,0,0,0,0-.41A.71.71,0,0,0,52.54,70Z"/><path d="M56.3,70.58a.42.42,0,0,0,.48.36h.14a.81.81,0,0,0,.68-.24.35.35,0,0,0,0-.36A.69.69,0,0,0,57,70a1.12,1.12,0,0,0-.31,0A.41.41,0,0,0,56.3,70.58Z"/><path d="M58.53,70.52c0,.33.21.42.53.42h.12c.46,0,.7-.15.7-.43s-.11-.44-.66-.44h0a.79.79,0,0,0-.58.17A.35.35,0,0,0,58.53,70.52Z"/></g></g></svg>