<svg xmlns="http://www.w3.org/2000/svg" viewBox="0 0 302.12 32.13"><defs><style>.cls-1{fill:#595757;}</style></defs><title>자산 168</title><g id="레이어_2" data-name="레이어 2"><g id="레이어_1-2" data-name="레이어 1"><path class="cls-1" d="M.87,9.37H0V.49H.87Z"/><path class="cls-1" d="M2.69,1.22,3.56,1v2H5.09v.71H3.56V7.78c0,.86.65,1,1.42,1v.73c-1.37,0-2.29-.32-2.29-1.67V3.62H1.78V2.91h.91Z"/><path class="cls-1" d="M8.8.24h1V1.43h-1Zm.08,2.67h.87V9.37H8.88Z"/><path class="cls-1" d="M14.21,3.9a2.75,2.75,0,0,0-1.34-.46c-.78,0-1.18.39-1.18.91s.49.9,1.53,1.41,1.68,1,1.68,1.9a1.86,1.86,0,0,1-2.1,1.81,3,3,0,0,1-2.22-.88L11.05,8a2.55,2.55,0,0,0,1.71.74c.71,0,1.29-.31,1.29-1s-.58-.94-1.3-1.27c-.88-.4-1.87-.9-1.87-2a1.72,1.72,0,0,1,1.93-1.72,3.22,3.22,0,0,1,1.81.58Z"/><path class="cls-1" d="M19.59,3.92a2.44,2.44,0,0,1,2-1.2A2.27,2.27,0,0,1,24,5.13V9.37h-.87V5.24a1.65,1.65,0,0,0-1.63-1.83,2.06,2.06,0,0,0-1.95,2.17V9.37h-.87V.24h.87Z"/><path class="cls-1" d="M25.23.24h1V1.43h-1Zm.08,2.67h.87V9.37h-.87Z"/><path class="cls-1" d="M32.14,3.91v-1H33V8.83A2.86,2.86,0,0,1,30.08,12a4.62,4.62,0,0,1-2.22-.6l.32-.66a3.87,3.87,0,0,0,1.88.52c1.11,0,2.08-.75,2.08-2.49V8.32a2.41,2.41,0,0,1-2.08,1.06c-1.67,0-2.82-1.19-2.82-3.27s1.09-3.39,2.83-3.39A2.36,2.36,0,0,1,32.14,3.91Zm-4,2.17c0,1.28.61,2.62,2,2.62s2-1.13,2-2.62V6c0-1.7-.86-2.63-2-2.63C28.74,3.41,28.13,4.74,28.13,6.08Z"/><path class="cls-1" d="M35.27,3.92a2.42,2.42,0,0,1,2-1.2,2.27,2.27,0,0,1,2.42,2.41V9.37h-.87V5.24a1.64,1.64,0,0,0-1.62-1.83,2.06,2.06,0,0,0-1.95,2.17V9.37H34.4V.24h.87Z"/><path class="cls-1" d="M40.67,5.38V4.61H46v.77Z"/><path class="cls-1" d="M51.65,3.91v-1h.87v9.2h-.87V8.4a2.49,2.49,0,0,1-2.07,1.1c-1.73,0-2.83-1.26-2.83-3.35s1.09-3.43,2.85-3.43A2.34,2.34,0,0,1,51.65,3.91Zm-4,2.23c0,1.28.61,2.68,2,2.68s2-1.19,2-2.68V6c0-1.7-.86-2.63-2-2.63C48.25,3.41,47.64,4.8,47.64,6.14Z"/><path class="cls-1" d="M58.29,8.3a2.38,2.38,0,0,1-2,1.2,2.27,2.27,0,0,1-2.42-2.41V2.91h.87V7a1.65,1.65,0,0,0,1.62,1.84,2,2,0,0,0,1.95-2.18V2.91h.88V9.37h-.88Z"/><path class="cls-1" d="M60.8,3.29a3.78,3.78,0,0,1,2.07-.58A2.11,2.11,0,0,1,65,4a3.41,3.41,0,0,1,.18,1.12v3a5.78,5.78,0,0,0,.12,1.3h-.83a5.74,5.74,0,0,1-.17-.78,2.5,2.5,0,0,1-2.07.9A2.1,2.1,0,0,1,60,7.4c0-1.58,1.18-2.27,3.17-2.27.35,0,.72,0,1.12.06V5a1.41,1.41,0,0,0-1.52-1.58,3.14,3.14,0,0,0-1.66.5Zm3.52,2.58a9,9,0,0,0-1,0c-1.61,0-2.43.49-2.43,1.52a1.4,1.4,0,0,0,1.5,1.38,1.77,1.77,0,0,0,1.92-1.63Z"/><path class="cls-1" d="M66.44.24h.87V9.37h-.87Z"/><path class="cls-1" d="M68.62.24h1V1.43h-1Zm.08,2.67h.87V9.37H68.7Z"/><path class="cls-1" d="M71.26,1.22,72.13,1v2h1.53v.71H72.13V7.78c0,.86.65,1,1.42,1v.73c-1.37,0-2.29-.32-2.29-1.67V3.62h-.91V2.91h.91Z"/><path class="cls-1" d="M74,11.39a2.66,2.66,0,0,0,2.18-2.07L73.76,2.91h.93l1.89,5.35,1.84-5.35h.93L77.24,8.84c-.69,1.95-1.15,2.88-3,3.29Z"/><path class="cls-1" d="M82.82.24h.87V9.37h-.87Z"/><path class="cls-1" d="M85.39,3.29a3.78,3.78,0,0,1,2.07-.58A2.11,2.11,0,0,1,89.58,4a3.41,3.41,0,0,1,.18,1.12v3a5.78,5.78,0,0,0,.12,1.3h-.83a5.74,5.74,0,0,1-.17-.78,2.5,2.5,0,0,1-2.07.9A2.1,2.1,0,0,1,84.62,7.4c0-1.58,1.18-2.27,3.17-2.27.35,0,.72,0,1.12.06V5A1.42,1.42,0,0,0,87.4,3.42a3.14,3.14,0,0,0-1.66.5Zm3.52,2.58a9,9,0,0,0-1,0c-1.61,0-2.43.49-2.43,1.52A1.4,1.4,0,0,0,87,8.72a1.77,1.77,0,0,0,1.92-1.63Z"/><path class="cls-1" d="M93,8.38,95,2.91h.92l-2.4,6.46h-.94l-2.4-6.46h.93Z"/><path class="cls-1" d="M101.21,8.86a3.39,3.39,0,0,1-2,.64A3.09,3.09,0,0,1,96,6.21c0-2,1-3.46,2.89-3.46a2.79,2.79,0,0,1,2.73,3,4,4,0,0,1,0,.49H96.92a2.31,2.31,0,0,0,2.31,2.54,2.84,2.84,0,0,0,1.64-.5Zm-.39-3.33a2,2,0,0,0-1.93-2.06A2.18,2.18,0,0,0,97,5.53Z"/><path class="cls-1" d="M103.49,4a2.19,2.19,0,0,1,2-1.31,1.32,1.32,0,0,1,.28,0v.79l-.28,0a2,2,0,0,0-2,2v3.9h-.87V2.91h.87Z"/><path class="cls-1" d="M110.22,3.68a2.05,2.05,0,0,1,3.63.3,2.26,2.26,0,0,1,2-1.26A2.09,2.09,0,0,1,118,5V9.37h-.85V4.89a1.38,1.38,0,0,0-1.49-1.47,1.57,1.57,0,0,0-1.55,1.77V9.37h-.86V5a1.44,1.44,0,0,0-1.46-1.58,1.61,1.61,0,0,0-1.59,1.75v4.2h-.85V2.91h.85Z"/><path class="cls-1" d="M119.56,3.29a3.78,3.78,0,0,1,2.07-.58A2.11,2.11,0,0,1,123.75,4a3.16,3.16,0,0,1,.19,1.12v3a5.25,5.25,0,0,0,.12,1.3h-.84a6.93,6.93,0,0,1-.16-.78,2.52,2.52,0,0,1-2.07.9A2.1,2.1,0,0,1,118.8,7.4c0-1.58,1.17-2.27,3.16-2.27.35,0,.72,0,1.12.06V5a1.41,1.41,0,0,0-1.52-1.58,3.14,3.14,0,0,0-1.65.5Zm3.52,2.58a8.86,8.86,0,0,0-1,0c-1.61,0-2.42.49-2.42,1.52a1.39,1.39,0,0,0,1.49,1.38,1.77,1.77,0,0,0,1.92-1.63Z"/><path class="cls-1" d="M129.78,3.91V.24h.87V9.37h-.87v-1a2.52,2.52,0,0,1-2.09,1.1c-1.67,0-2.81-1.25-2.81-3.36s1.06-3.42,2.86-3.42A2.35,2.35,0,0,1,129.78,3.91Zm-4,2.23c0,1.28.61,2.68,2,2.68s2-1.19,2-2.68V6c0-1.7-.86-2.63-2-2.63C126.38,3.41,125.77,4.8,125.77,6.14Z"/><path class="cls-1" d="M136.87,8.86a3.33,3.33,0,0,1-2,.64,3.08,3.08,0,0,1-3.15-3.29c0-2,1-3.46,2.89-3.46a2.79,2.79,0,0,1,2.73,3,4,4,0,0,1,0,.49h-4.71a2.31,2.31,0,0,0,2.31,2.54,2.78,2.78,0,0,0,1.63-.5Zm-.38-3.33a2,2,0,0,0-1.93-2.06,2.18,2.18,0,0,0-1.93,2.06Z"/><path class="cls-1" d="M146.52,8.29l1.42-5.38h.84L147,9.37h-.86L144.65,3.9,143.2,9.37h-.86l-1.82-6.46h.83l1.43,5.38,1.41-5.38h.92Z"/><path class="cls-1" d="M149.38.24h1V1.43h-1Zm.09,2.67h.87V9.37h-.87Z"/><path class="cls-1" d="M152,1.22,152.9,1v2h1.53v.71H152.9V7.78c0,.86.65,1,1.41,1v.73C153,9.5,152,9.19,152,7.84V3.62h-.92V2.91H152Z"/><path class="cls-1" d="M156.15,3.92a2.42,2.42,0,0,1,2-1.2,2.27,2.27,0,0,1,2.42,2.41V9.37h-.87V5.24a1.64,1.64,0,0,0-1.62-1.83,2.06,2.06,0,0,0-1.95,2.17V9.37h-.87V.24h.87Z"/><path class="cls-1" d="M165.11,1.22,166,1v2h1.53v.71H166V7.78c0,.86.65,1,1.41,1v.73c-1.36,0-2.28-.32-2.28-1.67V3.62h-.92V2.91h.92Z"/><path class="cls-1" d="M169.22,3.92a2.45,2.45,0,0,1,2-1.2,2.27,2.27,0,0,1,2.42,2.41V9.37h-.87V5.24a1.64,1.64,0,0,0-1.62-1.83,2.06,2.06,0,0,0-2,2.17V9.37h-.87V.24h.87Z"/><path class="cls-1" d="M179.77,8.86a3.33,3.33,0,0,1-2,.64,3.08,3.08,0,0,1-3.15-3.29c0-2,1-3.46,2.89-3.46a2.79,2.79,0,0,1,2.73,3,4,4,0,0,1,0,.49h-4.71a2.31,2.31,0,0,0,2.31,2.54,2.78,2.78,0,0,0,1.63-.5Zm-.38-3.33a2,2,0,0,0-1.93-2.06,2.18,2.18,0,0,0-1.93,2.06Z"/><path class="cls-1" d="M184.12.24H185V9.37h-.87Z"/><path class="cls-1" d="M186.69,3.29a3.78,3.78,0,0,1,2.07-.58A2.11,2.11,0,0,1,190.88,4a3.41,3.41,0,0,1,.18,1.12v3a5.78,5.78,0,0,0,.12,1.3h-.83a5.74,5.74,0,0,1-.17-.78,2.52,2.52,0,0,1-2.07.9,2.1,2.1,0,0,1-2.19-2.09c0-1.58,1.18-2.27,3.17-2.27.35,0,.71,0,1.11.06l0-.19a1.42,1.42,0,0,0-1.52-1.58,3.14,3.14,0,0,0-1.66.5Zm3.51,2.58a8.69,8.69,0,0,0-1,0c-1.62,0-2.43.49-2.43,1.52a1.4,1.4,0,0,0,1.5,1.38,1.77,1.77,0,0,0,1.91-1.63Z"/><path class="cls-1" d="M192.64,1.22l.87-.27v2H195v.71h-1.53V7.78c0,.86.64,1,1.41,1v.73c-1.37,0-2.28-.32-2.28-1.67V3.62h-.92V2.91h.92Z"/><path class="cls-1" d="M200.6,8.86a3.33,3.33,0,0,1-2,.64,3.09,3.09,0,0,1-3.16-3.29c0-2,1-3.46,2.9-3.46a2.79,2.79,0,0,1,2.73,3,2.69,2.69,0,0,1,0,.49h-4.7a2.3,2.3,0,0,0,2.3,2.54,2.79,2.79,0,0,0,1.64-.5Zm-.39-3.33a2,2,0,0,0-1.93-2.06,2.2,2.2,0,0,0-1.93,2.06Z"/><path class="cls-1" d="M205.08,3.9a2.72,2.72,0,0,0-1.34-.46c-.78,0-1.18.39-1.18.91s.5.9,1.53,1.41,1.68,1,1.68,1.9a1.86,1.86,0,0,1-2.1,1.81,3,3,0,0,1-2.21-.88l.47-.59a2.52,2.52,0,0,0,1.7.74c.71,0,1.3-.31,1.3-1s-.59-.94-1.31-1.27c-.88-.4-1.87-.9-1.87-2a1.72,1.72,0,0,1,1.93-1.72,3.2,3.2,0,0,1,1.81.58Z"/><path class="cls-1" d="M207,1.22l.87-.27v2h1.53v.71h-1.53V7.78c0,.86.65,1,1.41,1v.73c-1.36,0-2.28-.32-2.28-1.67V3.62H206V2.91H207Z"/><path class="cls-1" d="M218.12,8.72a3,3,0,0,1-2.13.77,3.15,3.15,0,0,1-3.18-3.35A3.12,3.12,0,0,1,216,2.73a4.13,4.13,0,0,1,1.95.52l-.34.64A3.39,3.39,0,0,0,216,3.46a2.39,2.39,0,0,0-2.32,2.69A2.42,2.42,0,0,0,216,8.77a2.73,2.73,0,0,0,1.66-.59Z"/><path class="cls-1" d="M218.87.24h.87V9.37h-.87Z"/><path class="cls-1" d="M226,8.86a3.39,3.39,0,0,1-2,.64,3.09,3.09,0,0,1-3.15-3.29c0-2,1-3.46,2.89-3.46a2.79,2.79,0,0,1,2.73,3,4,4,0,0,1,0,.49h-4.71A2.31,2.31,0,0,0,224,8.79a2.84,2.84,0,0,0,1.64-.5Zm-.39-3.33a2,2,0,0,0-1.93-2.06,2.18,2.18,0,0,0-1.93,2.06Z"/><path class="cls-1" d="M227.68,3.29a3.78,3.78,0,0,1,2.07-.58A2.11,2.11,0,0,1,231.87,4a3.16,3.16,0,0,1,.19,1.12v3a5.25,5.25,0,0,0,.12,1.3h-.84a6.93,6.93,0,0,1-.16-.78,2.52,2.52,0,0,1-2.08.9,2.09,2.09,0,0,1-2.18-2.09c0-1.58,1.17-2.27,3.16-2.27.35,0,.72,0,1.12.06V5a1.41,1.41,0,0,0-1.52-1.58,3.2,3.2,0,0,0-1.66.5Zm3.52,2.58a8.86,8.86,0,0,0-1,0c-1.61,0-2.42.49-2.42,1.52a1.39,1.39,0,0,0,1.49,1.38,1.77,1.77,0,0,0,1.92-1.63Z"/><path class="cls-1" d="M234.2,3.92a2.4,2.4,0,0,1,2-1.2,2.27,2.27,0,0,1,2.42,2.41V9.37h-.87V5.24a1.64,1.64,0,0,0-1.62-1.83,2,2,0,0,0-2,2.17V9.37h-.87V2.91h.87Z"/><path class="cls-1" d="M243.15,2.91V2.16a3.74,3.74,0,0,1,.11-1A1.63,1.63,0,0,1,244.88,0,3.2,3.2,0,0,1,246,.22l-.25.68A2.78,2.78,0,0,0,245,.74a.86.86,0,0,0-.87.57,2.27,2.27,0,0,0-.1.81v.79h1.36v.71H244V9.37h-.87V3.62h-.91V2.91Z"/><path class="cls-1" d="M246.36,3.29a3.75,3.75,0,0,1,2.07-.58A2.09,2.09,0,0,1,250.54,4a3.16,3.16,0,0,1,.19,1.12v3a5.25,5.25,0,0,0,.12,1.3H250a5.74,5.74,0,0,1-.17-.78,2.52,2.52,0,0,1-2.07.9,2.1,2.1,0,0,1-2.19-2.09c0-1.58,1.18-2.27,3.17-2.27.35,0,.71,0,1.11.06l0-.19a1.42,1.42,0,0,0-1.52-1.58,3.14,3.14,0,0,0-1.66.5Zm3.51,2.58a8.69,8.69,0,0,0-1,0c-1.62,0-2.43.49-2.43,1.52A1.4,1.4,0,0,0,248,8.72a1.77,1.77,0,0,0,1.91-1.63Z"/><path class="cls-1" d="M257,8.72a3.07,3.07,0,0,1-2.13.77,3.15,3.15,0,0,1-3.19-3.35,3.13,3.13,0,0,1,3.21-3.41,4.1,4.1,0,0,1,1.95.52l-.34.64a3.36,3.36,0,0,0-1.61-.43,2.4,2.4,0,0,0-2.32,2.69,2.42,2.42,0,0,0,2.34,2.62,2.73,2.73,0,0,0,1.66-.59Z"/><path class="cls-1" d="M257.65.24h1V1.43h-1Zm.08,2.67h.87V9.37h-.87Z"/><path class="cls-1" d="M260,.24h.87V9.37H260Z"/><path class="cls-1" d="M262.16.24h1V1.43h-1Zm.08,2.67h.87V9.37h-.87Z"/><path class="cls-1" d="M264.81,1.22l.87-.27v2h1.53v.71h-1.53V7.78c0,.86.64,1,1.41,1v.73c-1.37,0-2.28-.32-2.28-1.67V3.62h-.92V2.91h.92Z"/><path class="cls-1" d="M268,.24h1V1.43h-1Zm.08,2.67h.87V9.37h-.87Z"/><path class="cls-1" d="M275.15,8.86a3.39,3.39,0,0,1-2,.64A3.09,3.09,0,0,1,270,6.21c0-2,1-3.46,2.89-3.46a2.79,2.79,0,0,1,2.73,3,4,4,0,0,1,0,.49h-4.71a2.31,2.31,0,0,0,2.31,2.54,2.78,2.78,0,0,0,1.63-.5Zm-.39-3.33a2,2,0,0,0-1.93-2.06,2.18,2.18,0,0,0-1.93,2.06Z"/><path class="cls-1" d="M279.63,3.9a2.76,2.76,0,0,0-1.35-.46c-.77,0-1.17.39-1.17.91s.49.9,1.53,1.41,1.68,1,1.68,1.9a1.87,1.87,0,0,1-2.11,1.81A3,3,0,0,1,276,8.59l.47-.59a2.55,2.55,0,0,0,1.71.74c.7,0,1.29-.31,1.29-1s-.59-.94-1.3-1.27c-.89-.4-1.87-.9-1.87-2a1.72,1.72,0,0,1,1.93-1.72,3.22,3.22,0,0,1,1.81.58Z"/><path class="cls-1" d="M284.45,3.29a3.75,3.75,0,0,1,2.07-.58A2.09,2.09,0,0,1,288.63,4a3.16,3.16,0,0,1,.19,1.12v3a5.25,5.25,0,0,0,.12,1.3h-.84a6.93,6.93,0,0,1-.16-.78,2.52,2.52,0,0,1-2.07.9,2.1,2.1,0,0,1-2.19-2.09c0-1.58,1.18-2.27,3.17-2.27.35,0,.71,0,1.11.06L288,5a1.42,1.42,0,0,0-1.52-1.58,3.14,3.14,0,0,0-1.66.5ZM288,5.87a8.69,8.69,0,0,0-1,0c-1.62,0-2.43.49-2.43,1.52a1.4,1.4,0,0,0,1.5,1.38A1.77,1.77,0,0,0,288,7.09Z"/><path class="cls-1" d="M291,3.92a2.4,2.4,0,0,1,2-1.2,2.28,2.28,0,0,1,2.43,2.41V9.37h-.87V5.24a1.65,1.65,0,0,0-1.63-1.83,2,2,0,0,0-2,2.17V9.37h-.87V2.91H291Z"/><path class="cls-1" d="M301.25,3.91V.24h.87V9.37h-.87v-1a2.52,2.52,0,0,1-2.09,1.1c-1.67,0-2.81-1.25-2.81-3.36s1.06-3.42,2.86-3.42A2.35,2.35,0,0,1,301.25,3.91Zm-4,2.23c0,1.28.61,2.68,2,2.68s2-1.19,2-2.68V6c0-1.7-.86-2.63-2-2.63C297.85,3.41,297.24,4.8,297.24,6.14Z"/><path class="cls-1" d="M52.39,28.72a3.07,3.07,0,0,1-2.13.77,3.15,3.15,0,0,1-3.19-3.35,3.13,3.13,0,0,1,3.21-3.41,4.1,4.1,0,0,1,1.95.52l-.34.64a3.36,3.36,0,0,0-1.61-.43A2.4,2.4,0,0,0,48,26.15a2.42,2.42,0,0,0,2.34,2.62A2.73,2.73,0,0,0,52,28.18Z"/><path class="cls-1" d="M53.44,23.29a3.78,3.78,0,0,1,2.07-.58A2.11,2.11,0,0,1,57.63,24a3.16,3.16,0,0,1,.19,1.12v3a5.25,5.25,0,0,0,.12,1.3H57.1a6.93,6.93,0,0,1-.16-.78,2.52,2.52,0,0,1-2.07.9,2.1,2.1,0,0,1-2.19-2.09c0-1.58,1.17-2.27,3.16-2.27.36,0,.72,0,1.12.06V25a1.41,1.41,0,0,0-1.52-1.58,3.14,3.14,0,0,0-1.65.5ZM57,25.87a8.74,8.74,0,0,0-1-.05c-1.61,0-2.42.49-2.42,1.52A1.39,1.39,0,0,0,55,28.72,1.77,1.77,0,0,0,57,27.09Z"/><path class="cls-1" d="M60,24a2.21,2.21,0,0,1,2-1.31,1.32,1.32,0,0,1,.28,0v.79l-.28,0a2,2,0,0,0-2,2v3.9h-.87V22.91H60Z"/><path class="cls-1" d="M67.44,28.86a3.38,3.38,0,0,1-2,.64,3.09,3.09,0,0,1-3.16-3.29c0-2,1-3.46,2.9-3.46a2.79,2.79,0,0,1,2.73,3,2.69,2.69,0,0,1,0,.49h-4.7a2.3,2.3,0,0,0,2.3,2.54,2.81,2.81,0,0,0,1.64-.5Zm-.39-3.33a2,2,0,0,0-1.93-2.06,2.2,2.2,0,0,0-1.93,2.06Z"/><path class="cls-1" d="M69.14,22.91v-.75a3.7,3.7,0,0,1,.12-1A1.62,1.62,0,0,1,70.87,20a3.16,3.16,0,0,1,1.14.22l-.24.68a2.85,2.85,0,0,0-.78-.16.85.85,0,0,0-.87.57,2.23,2.23,0,0,0-.11.81v.79h1.37v.71H70v5.75h-.87V23.62h-.9v-.71Z"/><path class="cls-1" d="M76.79,28.3a2.41,2.41,0,0,1-2,1.2,2.27,2.27,0,0,1-2.42-2.41V22.91h.87V27a1.66,1.66,0,0,0,1.62,1.84,2.05,2.05,0,0,0,2-2.18V22.91h.87v6.46h-.87Z"/><path class="cls-1" d="M79,20.24h.87v9.13H79Z"/><path class="cls-1" d="M81.24,20.24h.87v9.13h-.87Z"/><path class="cls-1" d="M82.94,31.39a2.66,2.66,0,0,0,2.18-2.07l-2.37-6.41h.93l1.89,5.35,1.84-5.35h.93l-2.11,5.93c-.69,1.95-1.15,2.88-3,3.29Z"/><path class="cls-1" d="M94.89,23.9a2.76,2.76,0,0,0-1.35-.46c-.77,0-1.17.39-1.17.91s.49.9,1.53,1.41,1.68,1,1.68,1.9a1.87,1.87,0,0,1-2.11,1.81,3,3,0,0,1-2.21-.88l.47-.59a2.55,2.55,0,0,0,1.71.74c.7,0,1.29-.31,1.29-1s-.59-.94-1.3-1.27c-.89-.4-1.87-.9-1.87-2a1.72,1.72,0,0,1,1.93-1.72,3.22,3.22,0,0,1,1.81.58Z"/><path class="cls-1" d="M101.29,28.86a3.33,3.33,0,0,1-2,.64,3.09,3.09,0,0,1-3.15-3.29c0-2,1-3.46,2.89-3.46a2.79,2.79,0,0,1,2.73,3,4,4,0,0,1,0,.49H97a2.31,2.31,0,0,0,2.31,2.54,2.78,2.78,0,0,0,1.63-.5Zm-.38-3.33A2,2,0,0,0,99,23.47a2.18,2.18,0,0,0-1.93,2.06Z"/><path class="cls-1" d="M102.7,20.24h.87v9.13h-.87Z"/><path class="cls-1" d="M109.8,28.86a3.39,3.39,0,0,1-2,.64,3.09,3.09,0,0,1-3.15-3.29c0-2,1-3.46,2.9-3.46a2.78,2.78,0,0,1,2.72,3,4,4,0,0,1,0,.49h-4.7a2.3,2.3,0,0,0,2.3,2.54,2.84,2.84,0,0,0,1.64-.5Zm-.39-3.33a2,2,0,0,0-1.93-2.06,2.18,2.18,0,0,0-1.93,2.06Z"/><path class="cls-1" d="M116.18,28.72a3,3,0,0,1-2.13.77,3.15,3.15,0,0,1-3.18-3.35,3.12,3.12,0,0,1,3.21-3.41,4.13,4.13,0,0,1,2,.52l-.34.64a3.39,3.39,0,0,0-1.61-.43,2.39,2.39,0,0,0-2.32,2.69,2.42,2.42,0,0,0,2.34,2.62,2.73,2.73,0,0,0,1.66-.59Z"/><path class="cls-1" d="M117.24,21.22l.87-.27v2h1.53v.71h-1.53v4.16c0,.86.65,1,1.41,1v.73c-1.36,0-2.28-.32-2.28-1.67V23.62h-.92v-.71h.92Z"/><path class="cls-1" d="M125.2,28.86a3.33,3.33,0,0,1-2,.64A3.08,3.08,0,0,1,120,26.21c0-2,1-3.46,2.89-3.46a2.79,2.79,0,0,1,2.73,3,4,4,0,0,1,0,.49h-4.71a2.31,2.31,0,0,0,2.31,2.54,2.78,2.78,0,0,0,1.63-.5Zm-.39-3.33a2,2,0,0,0-1.93-2.06A2.18,2.18,0,0,0,121,25.53Z"/><path class="cls-1" d="M131.19,23.91V20.24h.87v9.13h-.87v-1a2.53,2.53,0,0,1-2.1,1.1c-1.67,0-2.81-1.25-2.81-3.36s1.06-3.42,2.86-3.42A2.38,2.38,0,0,1,131.19,23.91Zm-4,2.23c0,1.28.61,2.68,2,2.68s2-1.19,2-2.68V26c0-1.7-.86-2.63-2-2.63C127.79,23.41,127.18,24.8,127.18,26.14Z"/><path class="cls-1" d="M139.3,22.72c1.8,0,2.86,1.33,2.86,3.42S141,29.5,139.35,29.5a2.54,2.54,0,0,1-2.1-1.1v1h-.87V20.24h.87v3.67A2.38,2.38,0,0,1,139.3,22.72Zm0,.69c-1.17,0-2,.93-2,2.63v.1c0,1.49.66,2.68,2,2.68s2-1.4,2-2.68S140.65,23.41,139.28,23.41Z"/><path class="cls-1" d="M142.53,31.39a2.66,2.66,0,0,0,2.19-2.07l-2.37-6.41h.93l1.89,5.35L147,22.91h.92l-2.1,5.93c-.7,1.95-1.15,2.88-3,3.29Z"/><path class="cls-1" d="M152.39,24.33l3.88-3.84h1.21l-4.24,4.16,4.83,4.72h-1.22L152.39,25v4.37h-.87V20.49h.87Z"/><path class="cls-1" d="M160.73,22.73a3.08,3.08,0,0,1,3,3.39c0,2.08-1.3,3.39-3,3.39s-3-1.31-3-3.39S159.05,22.73,160.73,22.73Zm0,6.09c1.15,0,2.1-1,2.1-2.7s-1-2.69-2.1-2.69-2.1,1-2.1,2.69S159.59,28.82,160.73,28.82Z"/><path class="cls-1" d="M165.64,24a2.21,2.21,0,0,1,2-1.31,1.42,1.42,0,0,1,.29,0v.79a2.85,2.85,0,0,0-.29,0,2,2,0,0,0-2,2v3.9h-.87V22.91h.87Z"/><path class="cls-1" d="M173.12,28.86a3.33,3.33,0,0,1-2,.64A3.08,3.08,0,0,1,168,26.21c0-2,1-3.46,2.89-3.46a2.79,2.79,0,0,1,2.73,3,4,4,0,0,1,0,.49h-4.71a2.31,2.31,0,0,0,2.31,2.54,2.78,2.78,0,0,0,1.63-.5Zm-.38-3.33a2,2,0,0,0-1.93-2.06,2.18,2.18,0,0,0-1.93,2.06Z"/><path class="cls-1" d="M174.84,23.29a3.78,3.78,0,0,1,2.07-.58A2.11,2.11,0,0,1,179,24a3.16,3.16,0,0,1,.19,1.12v3a5.76,5.76,0,0,0,.11,1.3h-.83a5.74,5.74,0,0,1-.17-.78,2.5,2.5,0,0,1-2.07.9,2.1,2.1,0,0,1-2.19-2.09c0-1.58,1.18-2.27,3.17-2.27.35,0,.72,0,1.12.06V25a1.41,1.41,0,0,0-1.52-1.58,3.17,3.17,0,0,0-1.66.5Zm3.52,2.58a9,9,0,0,0-1-.05c-1.61,0-2.42.49-2.42,1.52a1.39,1.39,0,0,0,1.49,1.38,1.77,1.77,0,0,0,1.92-1.63Z"/><path class="cls-1" d="M181.35,23.92a2.41,2.41,0,0,1,2-1.2,2.27,2.27,0,0,1,2.42,2.41v4.24h-.87V25.24a1.64,1.64,0,0,0-1.62-1.83,2,2,0,0,0-2,2.17v3.79h-.87V22.91h.87Z"/><path class="cls-1" d="M190,20.24h.87v9.13H190Z"/><path class="cls-1" d="M192.57,23.29a3.78,3.78,0,0,1,2.07-.58A2.11,2.11,0,0,1,196.76,24,3.16,3.16,0,0,1,197,25.1v3a5.25,5.25,0,0,0,.12,1.3h-.84a6.93,6.93,0,0,1-.16-.78,2.52,2.52,0,0,1-2.07.9,2.1,2.1,0,0,1-2.19-2.09c0-1.58,1.17-2.27,3.16-2.27.36,0,.72,0,1.12.06V25a1.41,1.41,0,0,0-1.52-1.58,3.14,3.14,0,0,0-1.65.5Zm3.52,2.58a8.74,8.74,0,0,0-1-.05c-1.61,0-2.42.49-2.42,1.52a1.39,1.39,0,0,0,1.49,1.38,1.77,1.77,0,0,0,1.92-1.63Z"/><path class="cls-1" d="M200.23,28.38l1.94-5.47h.93l-2.4,6.46h-.94l-2.4-6.46h.93Z"/><path class="cls-1" d="M208.39,28.86a3.33,3.33,0,0,1-2,.64,3.08,3.08,0,0,1-3.15-3.29c0-2,1-3.46,2.89-3.46a2.79,2.79,0,0,1,2.73,3,2.69,2.69,0,0,1,0,.49h-4.7a2.31,2.31,0,0,0,2.31,2.54,2.78,2.78,0,0,0,1.63-.5ZM208,25.53a2,2,0,0,0-1.93-2.06,2.2,2.2,0,0,0-1.93,2.06Z"/><path class="cls-1" d="M210.67,24a2.21,2.21,0,0,1,2-1.31,1.42,1.42,0,0,1,.29,0v.79a2.85,2.85,0,0,0-.29,0,2,2,0,0,0-2,2v3.9h-.87V22.91h.87Z"/><path class="cls-1" d="M221.39,28.86a3.39,3.39,0,0,1-2,.64,3.09,3.09,0,0,1-3.15-3.29c0-2,1-3.46,2.89-3.46a2.79,2.79,0,0,1,2.73,3,4,4,0,0,1,0,.49H217.1a2.31,2.31,0,0,0,2.31,2.54,2.78,2.78,0,0,0,1.63-.5ZM221,25.53a2,2,0,0,0-1.93-2.06,2.18,2.18,0,0,0-1.93,2.06Z"/><path class="cls-1" d="M224.78,25.43l1.72-2.52h1l-2.23,3.2,2.26,3.26h-1l-1.73-2.55L223,29.37h-1l2.25-3.24-2.2-3.22h1Z"/><path class="cls-1" d="M231,22.72c1.76,0,2.86,1.31,2.86,3.43S232.77,29.5,231,29.5A2.51,2.51,0,0,1,229,28.4v3.71h-.87v-9.2H229v1A2.34,2.34,0,0,1,231,22.72Zm0,.69c-1.16,0-2,.93-2,2.63v.1c0,1.49.66,2.68,2,2.68s2-1.4,2-2.68S232.37,23.41,231,23.41Z"/><path class="cls-1" d="M239.77,28.86a3.39,3.39,0,0,1-2,.64,3.09,3.09,0,0,1-3.15-3.29c0-2,1-3.46,2.89-3.46a2.79,2.79,0,0,1,2.73,3,4,4,0,0,1,0,.49h-4.71a2.31,2.31,0,0,0,2.31,2.54,2.84,2.84,0,0,0,1.64-.5Zm-.39-3.33a2,2,0,0,0-1.93-2.06,2.18,2.18,0,0,0-1.93,2.06Z"/><path class="cls-1" d="M242.05,24a2.21,2.21,0,0,1,2-1.31,1.32,1.32,0,0,1,.28,0v.79l-.28,0a2,2,0,0,0-2,2v3.9h-.87V22.91h.87Z"/><path class="cls-1" d="M245.53,21.22l.87-.27v2h1.53v.71H246.4v4.16c0,.86.65,1,1.41,1v.73c-1.36,0-2.28-.32-2.28-1.67V23.62h-.92v-.71h.92Z"/><path class="cls-1" d="M251.84,23.9a2.72,2.72,0,0,0-1.34-.46c-.77,0-1.17.39-1.17.91s.49.9,1.53,1.41,1.68,1,1.68,1.9a1.87,1.87,0,0,1-2.11,1.81,3,3,0,0,1-2.21-.88l.47-.59a2.55,2.55,0,0,0,1.71.74c.7,0,1.29-.31,1.29-1s-.59-.94-1.31-1.27c-.88-.4-1.87-.9-1.87-2a1.72,1.72,0,0,1,1.93-1.72,3.23,3.23,0,0,1,1.82.58Z"/><path class="cls-1" d="M253.39,28.74h1.26V30h-1.26Z"/></g></g></svg>