<svg xmlns="http://www.w3.org/2000/svg" viewBox="0 0 371.21 52.13"><defs><style>.cls-1{fill:#595757;}</style></defs><title>자산 171</title><g id="레이어_2" data-name="레이어 2"><g id="레이어_1-2" data-name="레이어 1"><path class="cls-1" d="M2.91.49A2.7,2.7,0,0,1,5.78,3.21,2.7,2.7,0,0,1,2.92,6h-2V9.37H0V.49Zm-2,.71v4h2a1.91,1.91,0,0,0,2-2,1.9,1.9,0,0,0-2-2Z"/><path class="cls-1" d="M7.64,4a2.21,2.21,0,0,1,2-1.31,1.37,1.37,0,0,1,.28,0v.79l-.28,0a2,2,0,0,0-2,2v3.9H6.77V2.91h.87Z"/><path class="cls-1" d="M15.13,8.86a3.39,3.39,0,0,1-2,.64A3.09,3.09,0,0,1,10,6.21c0-2,1-3.46,2.89-3.46a2.79,2.79,0,0,1,2.73,3,4,4,0,0,1,0,.49H10.84a2.32,2.32,0,0,0,2.31,2.54,2.78,2.78,0,0,0,1.63-.5Zm-.39-3.33a2,2,0,0,0-1.93-2.06,2.18,2.18,0,0,0-1.93,2.06Z"/><path class="cls-1" d="M17.39,3.68A2.05,2.05,0,0,1,21,4,2.26,2.26,0,0,1,23,2.72,2.09,2.09,0,0,1,25.19,5V9.37h-.86V4.89a1.38,1.38,0,0,0-1.48-1.47A1.57,1.57,0,0,0,21.3,5.19V9.37h-.86V5A1.44,1.44,0,0,0,19,3.42a1.61,1.61,0,0,0-1.59,1.75v4.2h-.86V2.91h.86Z"/><path class="cls-1" d="M26.34.24h1V1.43h-1Zm.08,2.67h.88V9.37h-.88Z"/><path class="cls-1" d="M33.07,8.3a2.4,2.4,0,0,1-2,1.2,2.28,2.28,0,0,1-2.43-2.41V2.91h.87V7a1.65,1.65,0,0,0,1.63,1.83,2,2,0,0,0,1.95-2.17V2.91h.87V9.37h-.87Z"/><path class="cls-1" d="M36.13,3.68a2,2,0,0,1,3.62.3,2.27,2.27,0,0,1,2-1.26A2.09,2.09,0,0,1,43.93,5V9.37h-.86V4.89a1.38,1.38,0,0,0-1.48-1.47A1.57,1.57,0,0,0,40,5.19V9.37h-.86V5a1.43,1.43,0,0,0-1.45-1.58,1.61,1.61,0,0,0-1.59,1.75v4.2h-.86V2.91h.86Z"/><path class="cls-1" d="M52.67,3.91v-1h.88v9.2h-.88V8.39A2.46,2.46,0,0,1,50.6,9.5c-1.72,0-2.83-1.26-2.83-3.35s1.09-3.43,2.86-3.43A2.33,2.33,0,0,1,52.67,3.91Zm-4,2.23c0,1.28.61,2.67,2,2.67s2-1.18,2-2.67V6c0-1.7-.85-2.63-2-2.63C49.27,3.41,48.66,4.8,48.66,6.14Z"/><path class="cls-1" d="M59.32,8.3a2.41,2.41,0,0,1-2,1.2,2.27,2.27,0,0,1-2.42-2.41V2.91h.87V7a1.65,1.65,0,0,0,1.63,1.83,2,2,0,0,0,2-2.17V2.91h.87V9.37h-.87Z"/><path class="cls-1" d="M61.82,3.29a3.78,3.78,0,0,1,2.07-.58A2.11,2.11,0,0,1,66,4,3.16,3.16,0,0,1,66.2,5.1v3a5.25,5.25,0,0,0,.12,1.3h-.84a6.93,6.93,0,0,1-.16-.78,2.52,2.52,0,0,1-2.07.9A2.1,2.1,0,0,1,61.06,7.4c0-1.58,1.17-2.27,3.16-2.27.35,0,.72,0,1.12.06V5a1.41,1.41,0,0,0-1.52-1.58,3.2,3.2,0,0,0-1.66.5Zm3.52,2.57c-.37,0-.68,0-1,0-1.61,0-2.42.49-2.42,1.52a1.39,1.39,0,0,0,1.49,1.38,1.77,1.77,0,0,0,1.92-1.63Z"/><path class="cls-1" d="M67.47.24h.87V9.37h-.87Z"/><path class="cls-1" d="M69.64.24h1V1.43h-1Zm.08,2.67h.87V9.37h-.87Z"/><path class="cls-1" d="M72.29,1.22,73.16,1v2h1.53v.71H73.16V7.78c0,.85.65,1,1.41,1v.73c-1.36,0-2.28-.32-2.28-1.67V3.62h-.92V2.91h.92Z"/><path class="cls-1" d="M75,11.39a2.69,2.69,0,0,0,2.19-2.07L74.78,2.91h.93L77.6,8.26l1.84-5.35h.93L78.26,8.84c-.69,1.95-1.15,2.88-3,3.29Z"/><path class="cls-1" d="M83.85.24h.87V9.37h-.87Z"/><path class="cls-1" d="M86.41,3.29a3.78,3.78,0,0,1,2.07-.58A2.11,2.11,0,0,1,90.6,4a3.16,3.16,0,0,1,.19,1.12v3a5.25,5.25,0,0,0,.12,1.3h-.84a6.93,6.93,0,0,1-.16-.78,2.52,2.52,0,0,1-2.08.9A2.09,2.09,0,0,1,85.65,7.4c0-1.58,1.17-2.27,3.16-2.27.35,0,.72,0,1.12.06V5a1.41,1.41,0,0,0-1.52-1.58,3.2,3.2,0,0,0-1.66.5Zm3.52,2.57c-.37,0-.68,0-1,0-1.61,0-2.42.49-2.42,1.52A1.39,1.39,0,0,0,88,8.72a1.77,1.77,0,0,0,1.92-1.63Z"/><path class="cls-1" d="M94.07,8.38,96,2.91h.93l-2.4,6.46H93.6L91.2,2.91h.93Z"/><path class="cls-1" d="M102.23,8.86a3.33,3.33,0,0,1-2,.64,3.1,3.1,0,0,1-3.16-3.29c0-2,1-3.46,2.9-3.46a2.79,2.79,0,0,1,2.73,3,2.69,2.69,0,0,1,0,.49H98a2.31,2.31,0,0,0,2.3,2.54,2.79,2.79,0,0,0,1.64-.5Zm-.39-3.33a2,2,0,0,0-1.93-2.06A2.2,2.2,0,0,0,98,5.53Z"/><path class="cls-1" d="M104.51,4a2.21,2.21,0,0,1,2-1.31,1.27,1.27,0,0,1,.28,0v.79a2.4,2.4,0,0,0-.28,0,2,2,0,0,0-2,2v3.9h-.87V2.91h.87Z"/><path class="cls-1" d="M110.7,1.22l.87-.27v2h1.53v.71h-1.53V7.78c0,.85.64,1,1.41,1v.73c-1.37,0-2.28-.32-2.28-1.67V3.62h-.92V2.91h.92Z"/><path class="cls-1" d="M114.81,3.92a2.44,2.44,0,0,1,2-1.2,2.28,2.28,0,0,1,2.43,2.41V9.37h-.87V5.24a1.65,1.65,0,0,0-1.63-1.83,2.06,2.06,0,0,0-2,2.17V9.37h-.87V.24h.87Z"/><path class="cls-1" d="M120.83,3.29a3.78,3.78,0,0,1,2.07-.58A2.11,2.11,0,0,1,125,4a3.16,3.16,0,0,1,.19,1.12v3a5.25,5.25,0,0,0,.12,1.3h-.84a6.93,6.93,0,0,1-.16-.78,2.52,2.52,0,0,1-2.07.9,2.1,2.1,0,0,1-2.19-2.09c0-1.58,1.17-2.27,3.16-2.27.36,0,.72,0,1.12.06V5a1.41,1.41,0,0,0-1.52-1.58,3.14,3.14,0,0,0-1.65.5Zm3.52,2.57c-.36,0-.68,0-1,0-1.61,0-2.42.49-2.42,1.52a1.39,1.39,0,0,0,1.49,1.38,1.77,1.77,0,0,0,1.92-1.63Z"/><path class="cls-1" d="M126.78,1.22l.87-.27v2h1.53v.71h-1.53V7.78c0,.85.65,1,1.42,1v.73c-1.37,0-2.29-.32-2.29-1.67V3.62h-.91V2.91h.91Z"/><path class="cls-1" d="M132.89.24h1V1.43h-1ZM133,2.91h.87V9.37H133Z"/><path class="cls-1" d="M138.3,3.9A2.75,2.75,0,0,0,137,3.44c-.78,0-1.18.39-1.18.91s.49.9,1.53,1.41,1.68,1,1.68,1.9a1.86,1.86,0,0,1-2.1,1.81,3,3,0,0,1-2.22-.88l.47-.59a2.59,2.59,0,0,0,1.71.74c.71,0,1.29-.31,1.29-1s-.58-.94-1.3-1.27c-.88-.4-1.87-.9-1.87-2a1.72,1.72,0,0,1,1.93-1.71,3.22,3.22,0,0,1,1.81.58Z"/><path class="cls-1" d="M143.68,3.92a2.44,2.44,0,0,1,2-1.2,2.27,2.27,0,0,1,2.42,2.41V9.37h-.87V5.24a1.65,1.65,0,0,0-1.63-1.83,2.06,2.06,0,0,0-1.95,2.17V9.37h-.87V.24h.87Z"/><path class="cls-1" d="M154.23,8.86a3.33,3.33,0,0,1-2,.64,3.09,3.09,0,0,1-3.15-3.29c0-2,1-3.46,2.89-3.46a2.79,2.79,0,0,1,2.73,3,4,4,0,0,1,0,.49H150a2.32,2.32,0,0,0,2.31,2.54,2.78,2.78,0,0,0,1.63-.5Zm-.39-3.33a2,2,0,0,0-1.93-2.06A2.2,2.2,0,0,0,150,5.53Z"/><path class="cls-1" d="M156,3.29A3.78,3.78,0,0,1,158,2.71,2.11,2.11,0,0,1,160.14,4a3.41,3.41,0,0,1,.18,1.12v3a5.78,5.78,0,0,0,.12,1.3h-.83a5.74,5.74,0,0,1-.17-.78,2.52,2.52,0,0,1-2.07.9,2.1,2.1,0,0,1-2.19-2.09c0-1.58,1.18-2.27,3.17-2.27.35,0,.71,0,1.11.06l0-.19A1.42,1.42,0,0,0,158,3.42a3.14,3.14,0,0,0-1.66.5Zm3.51,2.57c-.36,0-.68,0-1,0-1.62,0-2.43.49-2.43,1.52a1.4,1.4,0,0,0,1.5,1.38,1.77,1.77,0,0,0,1.91-1.63Z"/><path class="cls-1" d="M161.59.24h.87V9.37h-.87Z"/><path class="cls-1" d="M164.16,1.22,165,1v2h1.53v.71H165V7.78c0,.85.64,1,1.41,1v.73c-1.37,0-2.28-.32-2.28-1.67V3.62h-.92V2.91h.92Z"/><path class="cls-1" d="M168.27,3.92a2.44,2.44,0,0,1,2-1.2,2.28,2.28,0,0,1,2.43,2.41V9.37h-.87V5.24a1.65,1.65,0,0,0-1.63-1.83,2.06,2.06,0,0,0-1.95,2.17V9.37h-.87V.24h.87Z"/><path class="cls-1" d="M173.42,11.39a2.67,2.67,0,0,0,2.19-2.07l-2.38-6.41h.93l1.9,5.35,1.83-5.35h.93l-2.1,5.93c-.7,1.95-1.16,2.88-3,3.29Z"/><path class="cls-1" d="M182.61,3.29a3.75,3.75,0,0,1,2.07-.58A2.09,2.09,0,0,1,186.79,4,3.16,3.16,0,0,1,187,5.1v3a5.25,5.25,0,0,0,.12,1.3h-.83a5.74,5.74,0,0,1-.17-.78,2.52,2.52,0,0,1-2.07.9,2.1,2.1,0,0,1-2.19-2.09c0-1.58,1.18-2.27,3.17-2.27.35,0,.71,0,1.11.06l0-.19a1.42,1.42,0,0,0-1.52-1.58,3.14,3.14,0,0,0-1.66.5Zm3.51,2.57c-.36,0-.68,0-1,0-1.62,0-2.43.49-2.43,1.52a1.4,1.4,0,0,0,1.5,1.38,1.77,1.77,0,0,0,1.91-1.63Z"/><path class="cls-1" d="M189.12,3.92a2.41,2.41,0,0,1,2-1.2,2.27,2.27,0,0,1,2.42,2.41V9.37h-.87V5.24a1.65,1.65,0,0,0-1.63-1.83,2,2,0,0,0-1.95,2.17V9.37h-.87V2.91h.87Z"/><path class="cls-1" d="M199.41,3.91V.24h.87V9.37h-.87v-1a2.51,2.51,0,0,1-2.09,1.11c-1.67,0-2.81-1.25-2.81-3.36s1.06-3.42,2.86-3.42A2.35,2.35,0,0,1,199.41,3.91Zm-4,2.23c0,1.28.61,2.67,2,2.67s2-1.18,2-2.67V6c0-1.7-.86-2.63-2-2.63C196,3.41,195.4,4.8,195.4,6.14Z"/><path class="cls-1" d="M204.92,1.22l.87-.27v2h1.52v.71h-1.52V7.78c0,.85.64,1,1.41,1v.73c-1.37,0-2.28-.32-2.28-1.67V3.62H204V2.91h.92Z"/><path class="cls-1" d="M208.23,3.29a3.78,3.78,0,0,1,2.07-.58A2.11,2.11,0,0,1,212.42,4a3.16,3.16,0,0,1,.19,1.12v3a5.25,5.25,0,0,0,.12,1.3h-.84a6.93,6.93,0,0,1-.16-.78,2.52,2.52,0,0,1-2.08.9,2.09,2.09,0,0,1-2.18-2.09c0-1.58,1.17-2.27,3.16-2.27.35,0,.72,0,1.12.06V5a1.41,1.41,0,0,0-1.52-1.58,3.2,3.2,0,0,0-1.66.5Zm3.52,2.57c-.37,0-.68,0-1,0-1.61,0-2.42.49-2.42,1.52a1.39,1.39,0,0,0,1.49,1.38,1.77,1.77,0,0,0,1.92-1.63Z"/><path class="cls-1" d="M213.79.24h1V1.43h-1Zm.09,2.67h.87V9.37h-.87Z"/><path class="cls-1" d="M216.13.24H217V9.37h-.87Z"/><path class="cls-1" d="M221,2.73a3.08,3.08,0,0,1,3,3.39c0,2.08-1.3,3.39-3,3.39s-3-1.31-3-3.39S219.36,2.73,221,2.73Zm0,6.08c1.15,0,2.1-1,2.1-2.69s-.95-2.69-2.1-2.69-2.1,1-2.1,2.69S219.9,8.81,221,8.81Z"/><path class="cls-1" d="M226,4a2.21,2.21,0,0,1,2-1.31,1.42,1.42,0,0,1,.29,0v.79a2.85,2.85,0,0,0-.29,0,2,2,0,0,0-2,2v3.9h-.87V2.91H226Z"/><path class="cls-1" d="M233.43,8.86a3.33,3.33,0,0,1-2,.64,3.09,3.09,0,0,1-3.15-3.29c0-2,1-3.46,2.89-3.46a2.79,2.79,0,0,1,2.73,3,4,4,0,0,1,0,.49h-4.71a2.32,2.32,0,0,0,2.31,2.54,2.78,2.78,0,0,0,1.63-.5Zm-.38-3.33a2,2,0,0,0-1.93-2.06,2.18,2.18,0,0,0-1.93,2.06Z"/><path class="cls-1" d="M239.42,3.91V.24h.87V9.37h-.87v-1a2.51,2.51,0,0,1-2.09,1.11c-1.67,0-2.82-1.25-2.82-3.36s1.06-3.42,2.86-3.42A2.37,2.37,0,0,1,239.42,3.91Zm-4,2.23c0,1.28.61,2.67,2,2.67s2-1.18,2-2.67V6c0-1.7-.86-2.63-2-2.63C236,3.41,235.41,4.8,235.41,6.14Z"/><path class="cls-1" d="M244.92,1.22l.87-.27v2h1.53v.71h-1.53V7.78c0,.85.65,1,1.41,1v.73c-1.36,0-2.28-.32-2.28-1.67V3.62H244V2.91h.92Z"/><path class="cls-1" d="M250.7,2.73a3.08,3.08,0,0,1,3,3.39c0,2.08-1.3,3.39-3,3.39s-3-1.31-3-3.39S249,2.73,250.7,2.73Zm0,6.08c1.15,0,2.1-1,2.1-2.69s-1-2.69-2.1-2.69-2.1,1-2.1,2.69S249.56,8.81,250.7,8.81Z"/><path class="cls-1" d="M258,1.22l.87-.27v2h1.53v.71h-1.53V7.78c0,.85.64,1,1.41,1v.73c-1.37,0-2.28-.32-2.28-1.67V3.62h-.92V2.91H258Z"/><path class="cls-1" d="M262.1,3.92a2.44,2.44,0,0,1,2-1.2,2.27,2.27,0,0,1,2.42,2.41V9.37h-.87V5.24a1.64,1.64,0,0,0-1.62-1.83,2.06,2.06,0,0,0-2,2.17V9.37h-.87V.24h.87Z"/><path class="cls-1" d="M272.65,8.86a3.33,3.33,0,0,1-2,.64,3.09,3.09,0,0,1-3.15-3.29c0-2,1-3.46,2.89-3.46a2.79,2.79,0,0,1,2.73,3,4,4,0,0,1,0,.49h-4.71a2.32,2.32,0,0,0,2.31,2.54,2.78,2.78,0,0,0,1.63-.5Zm-.38-3.33a2,2,0,0,0-1.93-2.06,2.18,2.18,0,0,0-1.93,2.06Z"/><path class="cls-1" d="M277.31,1.22l.87-.27v2h1.53v.71h-1.53V7.78c0,.85.65,1,1.41,1v.73c-1.36,0-2.28-.32-2.28-1.67V3.62h-.92V2.91h.92Z"/><path class="cls-1" d="M280.63,3.29a3.73,3.73,0,0,1,2.07-.58A2.09,2.09,0,0,1,284.81,4,3.16,3.16,0,0,1,285,5.1v3a5.25,5.25,0,0,0,.12,1.3h-.84a6.93,6.93,0,0,1-.16-.78,2.52,2.52,0,0,1-2.07.9,2.1,2.1,0,0,1-2.19-2.09c0-1.58,1.18-2.27,3.16-2.27.36,0,.72,0,1.12.06V5a1.41,1.41,0,0,0-1.51-1.58,3.14,3.14,0,0,0-1.66.5Zm3.51,2.57c-.36,0-.68,0-1,0-1.61,0-2.42.49-2.42,1.52a1.4,1.4,0,0,0,1.5,1.38,1.77,1.77,0,0,0,1.91-1.63Z"/><path class="cls-1" d="M289.34,3.9A2.72,2.72,0,0,0,288,3.44c-.78,0-1.18.39-1.18.91s.5.9,1.53,1.41,1.68,1,1.68,1.9a1.86,1.86,0,0,1-2.1,1.81,3,3,0,0,1-2.21-.88l.47-.59a2.57,2.57,0,0,0,1.7.74c.71,0,1.3-.31,1.3-1s-.59-.94-1.31-1.27c-.88-.4-1.87-.9-1.87-2a1.72,1.72,0,0,1,1.93-1.71,3.2,3.2,0,0,1,1.81.58Z"/><path class="cls-1" d="M291.22,1.22l.87-.27v2h1.53v.71h-1.53V7.78c0,.85.65,1,1.41,1v.73c-1.36,0-2.28-.32-2.28-1.67V3.62h-.92V2.91h.92Z"/><path class="cls-1" d="M299.18,8.86a3.33,3.33,0,0,1-2,.64A3.09,3.09,0,0,1,294,6.21c0-2,1-3.46,2.89-3.46a2.79,2.79,0,0,1,2.73,3,4,4,0,0,1,0,.49H294.9a2.32,2.32,0,0,0,2.31,2.54,2.78,2.78,0,0,0,1.63-.5Zm-.38-3.33a2,2,0,0,0-1.93-2.06,2.18,2.18,0,0,0-1.93,2.06Z"/><path class="cls-1" d="M306.18,2.73a3.08,3.08,0,0,1,3,3.39c0,2.08-1.29,3.39-3,3.39s-3-1.31-3-3.39S304.5,2.73,306.18,2.73Zm0,6.08c1.15,0,2.11-1,2.11-2.69s-1-2.69-2.11-2.69-2.09,1-2.09,2.69S305,8.81,306.18,8.81Z"/><path class="cls-1" d="M310.52,2.91V2.16a3.32,3.32,0,0,1,.12-1A1.61,1.61,0,0,1,312.25,0a3.2,3.2,0,0,1,1.14.22l-.25.68a2.71,2.71,0,0,0-.77-.16.85.85,0,0,0-.87.57,2,2,0,0,0-.11.81v.79h1.36v.71h-1.36V9.37h-.87V3.62h-.91V2.91Z"/><path class="cls-1" d="M321.69,8.72a3.06,3.06,0,0,1-2.13.77,3.16,3.16,0,0,1-3.19-3.35,3.13,3.13,0,0,1,3.22-3.41,4.13,4.13,0,0,1,2,.52l-.34.64a3.42,3.42,0,0,0-1.61-.44,2.4,2.4,0,0,0-2.32,2.7,2.42,2.42,0,0,0,2.34,2.62,2.73,2.73,0,0,0,1.66-.59Z"/><path class="cls-1" d="M323.31,3.92a2.44,2.44,0,0,1,2-1.2,2.27,2.27,0,0,1,2.42,2.41V9.37h-.87V5.24a1.64,1.64,0,0,0-1.62-1.83,2.06,2.06,0,0,0-2,2.17V9.37h-.87V.24h.87Z"/><path class="cls-1" d="M329,.24h1V1.43h-1ZM329,2.91h.87V9.37H329Z"/><path class="cls-1" d="M331.29.24h.87V9.37h-.87Z"/><path class="cls-1" d="M338.12,3.91V.24H339V9.37h-.87v-1A2.51,2.51,0,0,1,336,9.5c-1.67,0-2.82-1.25-2.82-3.36s1.06-3.42,2.86-3.42A2.37,2.37,0,0,1,338.12,3.91Zm-4,2.23c0,1.28.61,2.67,2,2.67s2-1.18,2-2.67V6c0-1.7-.86-2.63-2-2.63C334.72,3.41,334.11,4.8,334.11,6.14Z"/><path class="cls-1" d="M341.25,4a2.19,2.19,0,0,1,2-1.31,1.32,1.32,0,0,1,.28,0v.79l-.28,0a2,2,0,0,0-2,2v3.9h-.87V2.91h.87Z"/><path class="cls-1" d="M348.73,8.86a3.39,3.39,0,0,1-2,.64,3.09,3.09,0,0,1-3.15-3.29c0-2,1-3.46,2.9-3.46a2.78,2.78,0,0,1,2.72,3,4,4,0,0,1,0,.49h-4.7a2.3,2.3,0,0,0,2.3,2.54,2.84,2.84,0,0,0,1.64-.5Zm-.39-3.33a2,2,0,0,0-1.93-2.06,2.18,2.18,0,0,0-1.93,2.06Z"/><path class="cls-1" d="M351,3.92a2.4,2.4,0,0,1,2-1.2,2.27,2.27,0,0,1,2.42,2.41V9.37h-.87V5.24A1.64,1.64,0,0,0,353,3.41,2,2,0,0,0,351,5.58V9.37h-.87V2.91H351Z"/><path class="cls-1" d="M362.58,2.72c1.8,0,2.86,1.33,2.86,3.42S364.3,9.5,362.63,9.5a2.53,2.53,0,0,1-2.1-1.11v1h-.87V.24h.87V3.91A2.38,2.38,0,0,1,362.58,2.72Zm0,.69c-1.17,0-2,.93-2,2.63v.1c0,1.49.66,2.67,2,2.67s2-1.39,2-2.67S363.93,3.41,362.56,3.41Z"/><path class="cls-1" d="M365.81,11.39A2.66,2.66,0,0,0,368,9.32l-2.38-6.41h.93l1.9,5.35,1.83-5.35h.93l-2.1,5.93c-.7,1.95-1.16,2.88-3,3.29Z"/><path class="cls-1" d="M14.55,23.29a3.78,3.78,0,0,1,2.07-.58A2.11,2.11,0,0,1,18.74,24a3.41,3.41,0,0,1,.18,1.12v3a5.78,5.78,0,0,0,.12,1.3h-.83a5.74,5.74,0,0,1-.17-.78,2.5,2.5,0,0,1-2.07.9,2.1,2.1,0,0,1-2.19-2.09c0-1.58,1.18-2.27,3.17-2.27.35,0,.72,0,1.12.06V25a1.42,1.42,0,0,0-1.52-1.58,3.14,3.14,0,0,0-1.66.5Zm3.52,2.57c-.37,0-.69,0-1,0-1.61,0-2.43.49-2.43,1.52a1.4,1.4,0,0,0,1.5,1.38,1.77,1.77,0,0,0,1.92-1.63Z"/><path class="cls-1" d="M24.77,23.91V20.24h.87v9.13h-.87v-1a2.51,2.51,0,0,1-2.1,1.11c-1.67,0-2.81-1.25-2.81-3.36s1.06-3.42,2.86-3.42A2.38,2.38,0,0,1,24.77,23.91Zm-4,2.23c0,1.28.61,2.67,2,2.67s2-1.18,2-2.67V26c0-1.7-.86-2.63-2-2.63C21.37,23.41,20.76,24.8,20.76,26.14Z"/><path class="cls-1" d="M31.6,23.91V20.24h.87v9.13H31.6v-1a2.51,2.51,0,0,1-2.09,1.11c-1.67,0-2.81-1.25-2.81-3.36s1.05-3.42,2.85-3.42A2.37,2.37,0,0,1,31.6,23.91Zm-4,2.23c0,1.28.61,2.67,2,2.67s2-1.18,2-2.67V26c0-1.7-.86-2.63-2-2.63C28.2,23.41,27.59,24.8,27.59,26.14Z"/><path class="cls-1" d="M33.77,20.24h1v1.19h-1Zm.09,2.67h.87v6.46h-.87Z"/><path class="cls-1" d="M37,23.92a2.39,2.39,0,0,1,2-1.2,2.27,2.27,0,0,1,2.42,2.41v4.24h-.87V25.24a1.64,1.64,0,0,0-1.62-1.83A2,2,0,0,0,37,25.58v3.79h-.88V22.91H37Z"/><path class="cls-1" d="M47.28,23.91v-1h.87v5.92A2.87,2.87,0,0,1,45.22,32a4.66,4.66,0,0,1-2.23-.6l.32-.66a3.93,3.93,0,0,0,1.88.52c1.11,0,2.09-.75,2.09-2.49v-.48a2.43,2.43,0,0,1-2.09,1.06c-1.67,0-2.82-1.19-2.82-3.28s1.09-3.38,2.84-3.38A2.36,2.36,0,0,1,47.28,23.91Zm-4,2.17c0,1.28.61,2.61,2,2.61s2-1.12,2-2.61v0c0-1.7-.86-2.63-2-2.63C43.88,23.41,43.27,24.74,43.27,26.08Z"/><path class="cls-1" d="M55.12,22.73a3.08,3.08,0,0,1,3,3.39c0,2.08-1.29,3.39-3,3.39s-3-1.31-3-3.39S53.44,22.73,55.12,22.73Zm0,6.08c1.15,0,2.11-1,2.11-2.69s-1-2.69-2.11-2.69S53,24.4,53,26.12,54,28.81,55.12,28.81Z"/><path class="cls-1" d="M60,24a2.21,2.21,0,0,1,2-1.31,1.37,1.37,0,0,1,.28,0v.79l-.28,0a2,2,0,0,0-2,2v3.9h-.87V22.91H60Z"/><path class="cls-1" d="M67.26,23.91v-1h.87v5.92A2.87,2.87,0,0,1,65.2,32a4.66,4.66,0,0,1-2.23-.6l.32-.66a3.93,3.93,0,0,0,1.88.52c1.11,0,2.09-.75,2.09-2.49v-.48a2.43,2.43,0,0,1-2.09,1.06c-1.67,0-2.82-1.19-2.82-3.28s1.1-3.38,2.84-3.38A2.36,2.36,0,0,1,67.26,23.91Zm-4,2.17c0,1.28.61,2.61,2,2.61s2-1.12,2-2.61v0c0-1.7-.86-2.63-2-2.63C63.86,23.41,63.25,24.74,63.25,26.08Z"/><path class="cls-1" d="M69.82,23.29a3.78,3.78,0,0,1,2.07-.58A2.11,2.11,0,0,1,74,24a3.4,3.4,0,0,1,.19,1.12v3a5.76,5.76,0,0,0,.11,1.3h-.83a5.74,5.74,0,0,1-.17-.78,2.5,2.5,0,0,1-2.07.9,2.1,2.1,0,0,1-2.19-2.09c0-1.58,1.18-2.27,3.17-2.27.35,0,.72,0,1.12.06V25a1.41,1.41,0,0,0-1.52-1.58,3.14,3.14,0,0,0-1.66.5Zm3.52,2.57c-.37,0-.69,0-1,0-1.61,0-2.43.49-2.43,1.52a1.4,1.4,0,0,0,1.5,1.38,1.77,1.77,0,0,0,1.92-1.63Z"/><path class="cls-1" d="M76.33,23.92a2.41,2.41,0,0,1,2-1.2,2.27,2.27,0,0,1,2.42,2.41v4.24h-.87V25.24a1.64,1.64,0,0,0-1.62-1.83,2,2,0,0,0-2,2.17v3.79h-.87V22.91h.87Z"/><path class="cls-1" d="M82,20.24h1v1.19H82Zm.08,2.67h.87v6.46h-.87Z"/><path class="cls-1" d="M89.28,28.72a3,3,0,0,1-2.13.77A3.15,3.15,0,0,1,84,26.14a3.12,3.12,0,0,1,3.21-3.41,4.13,4.13,0,0,1,1.95.52l-.34.64a3.39,3.39,0,0,0-1.61-.44,2.4,2.4,0,0,0-2.32,2.7,2.42,2.42,0,0,0,2.34,2.62,2.73,2.73,0,0,0,1.66-.59Z"/><path class="cls-1" d="M98,28.72a3.07,3.07,0,0,1-2.13.77,3.16,3.16,0,0,1-3.19-3.35,3.13,3.13,0,0,1,3.21-3.41,4.14,4.14,0,0,1,2,.52l-.34.64a3.43,3.43,0,0,0-1.62-.44,2.4,2.4,0,0,0-2.31,2.7,2.41,2.41,0,0,0,2.34,2.62,2.73,2.73,0,0,0,1.66-.59Z"/><path class="cls-1" d="M99,23.29a3.75,3.75,0,0,1,2.07-.58A2.09,2.09,0,0,1,103.19,24a3.16,3.16,0,0,1,.19,1.12v3a5.25,5.25,0,0,0,.12,1.3h-.83a5.74,5.74,0,0,1-.17-.78,2.52,2.52,0,0,1-2.07.9,2.1,2.1,0,0,1-2.19-2.09c0-1.58,1.18-2.27,3.17-2.27.35,0,.71,0,1.11.06l0-.19A1.42,1.42,0,0,0,101,23.42a3.14,3.14,0,0,0-1.66.5Zm3.51,2.57c-.36,0-.68,0-1,0-1.62,0-2.43.49-2.43,1.52a1.4,1.4,0,0,0,1.5,1.38,1.77,1.77,0,0,0,1.91-1.63Z"/><path class="cls-1" d="M105.52,23.92a2.4,2.4,0,0,1,2-1.2A2.28,2.28,0,0,1,110,25.13v4.24h-.87V25.24a1.65,1.65,0,0,0-1.63-1.83,2,2,0,0,0-2,2.17v3.79h-.87V22.91h.87Z"/><path class="cls-1" d="M113.88,22.73a3.08,3.08,0,0,1,3,3.39c0,2.08-1.29,3.39-3,3.39s-3-1.31-3-3.39S112.2,22.73,113.88,22.73Zm0,6.08c1.16,0,2.11-1,2.11-2.69s-.95-2.69-2.11-2.69-2.09,1-2.09,2.69S112.74,28.81,113.88,28.81Z"/><path class="cls-1" d="M117.93,20.24h.87v9.13h-.87Z"/><path class="cls-1" d="M120.49,23.29a3.78,3.78,0,0,1,2.07-.58A2.11,2.11,0,0,1,124.68,24a3.16,3.16,0,0,1,.19,1.12v3a5.25,5.25,0,0,0,.12,1.3h-.84a6.93,6.93,0,0,1-.16-.78,2.52,2.52,0,0,1-2.07.9,2.1,2.1,0,0,1-2.19-2.09c0-1.58,1.17-2.27,3.16-2.27.35,0,.72,0,1.12.06V25a1.41,1.41,0,0,0-1.52-1.58,3.2,3.2,0,0,0-1.66.5ZM124,25.86c-.37,0-.68,0-1,0-1.61,0-2.42.49-2.42,1.52a1.39,1.39,0,0,0,1.49,1.38A1.77,1.77,0,0,0,124,27.09Z"/><path class="cls-1" d="M131.72,22.73a3.08,3.08,0,0,1,3,3.39c0,2.08-1.29,3.39-3,3.39s-3-1.31-3-3.39S130,22.73,131.72,22.73Zm0,6.08c1.16,0,2.11-1,2.11-2.69s-1-2.69-2.11-2.69-2.09,1-2.09,2.69S130.58,28.81,131.72,28.81Z"/><path class="cls-1" d="M135.69,20.24h1v1.19h-1Zm.08,2.67h.87v6.46h-.87Z"/><path class="cls-1" d="M138,20.24h.88v9.13H138Z"/><path class="cls-1" d="M140.28,28.74h1.26v1a2.33,2.33,0,0,1-.07.66,2.59,2.59,0,0,1-1,1.43l-.26-.25A2.16,2.16,0,0,0,141,30h-.67Z"/><path class="cls-1" d="M148.87,23.9a2.72,2.72,0,0,0-1.34-.46c-.78,0-1.18.39-1.18.91s.5.9,1.53,1.41,1.68,1,1.68,1.9a1.86,1.86,0,0,1-2.1,1.81,3,3,0,0,1-2.21-.88l.47-.59a2.57,2.57,0,0,0,1.7.74c.71,0,1.3-.31,1.3-1s-.59-.94-1.31-1.27c-.88-.4-1.87-.9-1.87-2a1.72,1.72,0,0,1,1.93-1.71,3.2,3.2,0,0,1,1.81.58Z"/><path class="cls-1" d="M155.28,28.86a3.38,3.38,0,0,1-2,.64,3.1,3.1,0,0,1-3.16-3.29c0-2,1-3.46,2.9-3.46a2.79,2.79,0,0,1,2.73,3,2.69,2.69,0,0,1,0,.49H151a2.3,2.3,0,0,0,2.3,2.54,2.79,2.79,0,0,0,1.64-.5Zm-.39-3.33A2,2,0,0,0,153,23.47,2.2,2.2,0,0,0,151,25.53Z"/><path class="cls-1" d="M157,23.29a3.78,3.78,0,0,1,2.07-.58A2.1,2.1,0,0,1,161.18,24a3.16,3.16,0,0,1,.19,1.12v3a5.25,5.25,0,0,0,.12,1.3h-.84a6.93,6.93,0,0,1-.16-.78,2.52,2.52,0,0,1-2.07.9,2.1,2.1,0,0,1-2.19-2.09c0-1.58,1.18-2.27,3.16-2.27.36,0,.72,0,1.12.06V25A1.41,1.41,0,0,0,159,23.42a3.14,3.14,0,0,0-1.66.5Zm3.52,2.57c-.36,0-.68,0-1,0-1.61,0-2.42.49-2.42,1.52a1.39,1.39,0,0,0,1.49,1.38,1.77,1.77,0,0,0,1.92-1.63Z"/><path class="cls-1" d="M166.44,23.68a2,2,0,0,1,3.62.3A2.27,2.27,0,0,1,172,22.72,2.09,2.09,0,0,1,174.24,25v4.42h-.86V24.89a1.38,1.38,0,0,0-1.48-1.47,1.57,1.57,0,0,0-1.56,1.77v4.18h-.86V25A1.43,1.43,0,0,0,168,23.42a1.61,1.61,0,0,0-1.59,1.75v4.2h-.86V22.91h.86Z"/><path class="cls-1" d="M179.86,28.3a2.41,2.41,0,0,1-2,1.2,2.27,2.27,0,0,1-2.42-2.41V22.91h.87V27a1.64,1.64,0,0,0,1.62,1.83,2,2,0,0,0,2-2.17V22.91h.87v6.46h-.87Z"/><path class="cls-1" d="M185.12,23.9a2.72,2.72,0,0,0-1.34-.46c-.77,0-1.17.39-1.17.91s.49.9,1.53,1.41,1.68,1,1.68,1.9a1.87,1.87,0,0,1-2.11,1.81,3,3,0,0,1-2.21-.88L182,28a2.59,2.59,0,0,0,1.71.74c.7,0,1.29-.31,1.29-1s-.59-.94-1.3-1.27c-.89-.4-1.88-.9-1.88-2a1.72,1.72,0,0,1,1.93-1.71,3.23,3.23,0,0,1,1.82.58Z"/><path class="cls-1" d="M187,21.22l.88-.27v2h1.52v.71h-1.52v4.16c0,.85.64,1,1.41,1v.73c-1.37,0-2.29-.32-2.29-1.67V23.62h-.91v-.71H187Z"/><path class="cls-1" d="M190.32,23.29a3.78,3.78,0,0,1,2.07-.58A2.11,2.11,0,0,1,194.51,24a3.16,3.16,0,0,1,.19,1.12v3a5.25,5.25,0,0,0,.12,1.3H194a6.93,6.93,0,0,1-.16-.78,2.52,2.52,0,0,1-2.08.9,2.09,2.09,0,0,1-2.18-2.09c0-1.58,1.17-2.27,3.16-2.27.35,0,.72,0,1.12.06V25a1.41,1.41,0,0,0-1.52-1.58,3.2,3.2,0,0,0-1.66.5Zm3.52,2.57c-.37,0-.68,0-1,0-1.61,0-2.42.49-2.42,1.52a1.39,1.39,0,0,0,1.49,1.38,1.77,1.77,0,0,0,1.92-1.63Z"/><path class="cls-1" d="M196.84,24a2.19,2.19,0,0,1,2-1.31,1.32,1.32,0,0,1,.28,0v.79l-.28,0a2,2,0,0,0-2,2v3.9H196V22.91h.87Z"/><path class="cls-1" d="M204.06,23.91V20.24h.87v9.13h-.87v-1A2.51,2.51,0,0,1,202,29.5c-1.67,0-2.81-1.25-2.81-3.36s1.06-3.42,2.86-3.42A2.38,2.38,0,0,1,204.06,23.91Zm-4,2.23c0,1.28.61,2.67,2,2.67s2-1.18,2-2.67V26c0-1.7-.86-2.63-2-2.63C200.66,23.41,200.05,24.8,200.05,26.14Z"/><path class="cls-1" d="M206.31,28.74h1.26v1a2.33,2.33,0,0,1-.07.66,2.49,2.49,0,0,1-1,1.43l-.26-.25A2.2,2.2,0,0,0,207,30h-.68Z"/><path class="cls-1" d="M216.49,22.91l-3,2.88,3.71,3.58H216l-3.32-3.24v3.24h-.87V20.24h.87v5.23l2.6-2.56Z"/><path class="cls-1" d="M222.17,28.86a3.38,3.38,0,0,1-2,.64A3.1,3.1,0,0,1,217,26.21c0-2,1-3.46,2.9-3.46a2.79,2.79,0,0,1,2.73,3,2.69,2.69,0,0,1,0,.49h-4.7a2.3,2.3,0,0,0,2.3,2.54,2.81,2.81,0,0,0,1.64-.5Zm-.39-3.33a2,2,0,0,0-1.93-2.06,2.2,2.2,0,0,0-1.93,2.06Z"/><path class="cls-1" d="M223.58,20.24h.87v9.13h-.87Z"/><path class="cls-1" d="M228.75,22.72c1.77,0,2.86,1.31,2.86,3.43s-1.1,3.35-2.83,3.35a2.48,2.48,0,0,1-2.07-1.11v3.72h-.87v-9.2h.87v1A2.33,2.33,0,0,1,228.75,22.72Zm0,.69c-1.17,0-2,.93-2,2.63v.1c0,1.49.66,2.67,2,2.67s2-1.39,2-2.67S230.11,23.41,228.73,23.41Z"/><path class="cls-1" d="M232.67,28.74h1.26v1a2.76,2.76,0,0,1-.07.66,2.55,2.55,0,0,1-1,1.43l-.26-.25a2.2,2.2,0,0,0,.78-1.64h-.67Z"/><path class="cls-1" d="M238.49,23.29a3.78,3.78,0,0,1,2.07-.58A2.11,2.11,0,0,1,242.68,24a3.4,3.4,0,0,1,.19,1.12v3a5.76,5.76,0,0,0,.11,1.3h-.83a5.74,5.74,0,0,1-.17-.78,2.5,2.5,0,0,1-2.07.9,2.1,2.1,0,0,1-2.19-2.09c0-1.58,1.18-2.27,3.17-2.27.35,0,.72,0,1.12.06V25a1.41,1.41,0,0,0-1.52-1.58,3.17,3.17,0,0,0-1.66.5ZM242,25.86c-.37,0-.69,0-1,0-1.61,0-2.42.49-2.42,1.52a1.39,1.39,0,0,0,1.49,1.38A1.77,1.77,0,0,0,242,27.09Z"/><path class="cls-1" d="M245,23.92a2.41,2.41,0,0,1,2-1.2,2.27,2.27,0,0,1,2.42,2.41v4.24h-.87V25.24A1.64,1.64,0,0,0,247,23.41a2,2,0,0,0-2,2.17v3.79h-.87V22.91H245Z"/><path class="cls-1" d="M255.3,23.91V20.24h.87v9.13h-.87v-1a2.53,2.53,0,0,1-2.1,1.11c-1.67,0-2.81-1.25-2.81-3.36s1.06-3.42,2.86-3.42A2.38,2.38,0,0,1,255.3,23.91Zm-4,2.23c0,1.28.62,2.67,2,2.67s2-1.18,2-2.67V26c0-1.7-.86-2.63-2-2.63C251.9,23.41,251.28,24.8,251.28,26.14Z"/><path class="cls-1" d="M260.8,23.29a3.78,3.78,0,0,1,2.07-.58A2.11,2.11,0,0,1,265,24a3.41,3.41,0,0,1,.18,1.12v3a5.78,5.78,0,0,0,.12,1.3h-.83a5.74,5.74,0,0,1-.17-.78,2.52,2.52,0,0,1-2.07.9A2.1,2.1,0,0,1,260,27.4c0-1.58,1.18-2.27,3.17-2.27.35,0,.72,0,1.11.06l0-.19a1.42,1.42,0,0,0-1.52-1.58,3.14,3.14,0,0,0-1.66.5Zm3.51,2.57c-.36,0-.68,0-1,0-1.62,0-2.43.49-2.43,1.52a1.4,1.4,0,0,0,1.5,1.38,1.77,1.77,0,0,0,1.91-1.63Z"/><path class="cls-1" d="M267.31,23.92a2.41,2.41,0,0,1,2-1.2,2.27,2.27,0,0,1,2.42,2.41v4.24h-.87V25.24a1.65,1.65,0,0,0-1.62-1.83,2,2,0,0,0-2,2.17v3.79h-.87V22.91h.87Z"/><path class="cls-1" d="M278,28.72a3,3,0,0,1-2.13.77,3.15,3.15,0,0,1-3.18-3.35,3.12,3.12,0,0,1,3.21-3.41,4.13,4.13,0,0,1,2,.52l-.34.64a3.39,3.39,0,0,0-1.61-.44,2.4,2.4,0,0,0-2.32,2.7,2.42,2.42,0,0,0,2.34,2.62,2.73,2.73,0,0,0,1.66-.59Z"/><path class="cls-1" d="M279.63,23.92a2.42,2.42,0,0,1,2-1.2,2.27,2.27,0,0,1,2.42,2.41v4.24h-.87V25.24a1.64,1.64,0,0,0-1.62-1.83,2.06,2.06,0,0,0-1.95,2.17v3.79h-.88V20.24h.88Z"/><path class="cls-1" d="M288,22.73a3.08,3.08,0,0,1,3,3.39c0,2.08-1.3,3.39-3,3.39s-3-1.31-3-3.39S286.3,22.73,288,22.73Zm0,6.08c1.15,0,2.1-1,2.1-2.69s-.95-2.69-2.1-2.69-2.1,1-2.1,2.69S286.85,28.81,288,28.81Z"/><path class="cls-1" d="M293.93,28.38l1.94-5.47h.93l-2.4,6.46h-.94l-2.4-6.46H292Z"/><path class="cls-1" d="M296.81,31.39A2.66,2.66,0,0,0,299,29.32l-2.37-6.41h.93l1.89,5.35,1.84-5.35h.93l-2.11,5.93c-.69,1.95-1.15,2.88-3,3.29Z"/><path class="cls-1" d="M308.6,22.72c1.77,0,2.86,1.31,2.86,3.43s-1.11,3.35-2.83,3.35a2.5,2.5,0,0,1-2.08-1.11v3.72h-.87v-9.2h.87v1A2.36,2.36,0,0,1,308.6,22.72Zm0,.69c-1.17,0-2,.93-2,2.63v.1c0,1.49.66,2.67,2,2.67s2-1.39,2-2.67S310,23.41,308.58,23.41Z"/><path class="cls-1" d="M315.16,22.73a3.08,3.08,0,0,1,3,3.39c0,2.08-1.29,3.39-3,3.39s-3-1.31-3-3.39S313.48,22.73,315.16,22.73Zm0,6.08c1.16,0,2.11-1,2.11-2.69s-.95-2.69-2.11-2.69-2.09,1-2.09,2.69S314,28.81,315.16,28.81Z"/><path class="cls-1" d="M324.5,28.29l1.43-5.38h.83l-1.82,6.46h-.86l-1.45-5.47-1.45,5.47h-.85l-1.83-6.46h.84l1.42,5.38,1.41-5.38h.92Z"/><path class="cls-1" d="M332,23.91V20.24h.87v9.13H332v-1a2.51,2.51,0,0,1-2.1,1.11c-1.67,0-2.81-1.25-2.81-3.36s1.06-3.42,2.86-3.42A2.38,2.38,0,0,1,332,23.91Zm-4,2.23c0,1.28.61,2.67,2,2.67s2-1.18,2-2.67V26c0-1.7-.86-2.63-2-2.63C328.63,23.41,328,24.8,328,26.14Z"/><path class="cls-1" d="M339.12,28.86a3.38,3.38,0,0,1-2,.64,3.1,3.1,0,0,1-3.16-3.29c0-2,1-3.46,2.9-3.46a2.79,2.79,0,0,1,2.73,3,2.69,2.69,0,0,1,0,.49h-4.7a2.3,2.3,0,0,0,2.3,2.54,2.79,2.79,0,0,0,1.64-.5Zm-.39-3.33a2,2,0,0,0-1.93-2.06,2.2,2.2,0,0,0-1.93,2.06Z"/><path class="cls-1" d="M341.4,24a2.21,2.21,0,0,1,2-1.31,1.27,1.27,0,0,1,.28,0v.79a2.4,2.4,0,0,0-.28,0,2,2,0,0,0-2,2v3.9h-.87V22.91h.87Z"/><path class="cls-1" d="M347.58,21.22l.88-.27v2H350v.71h-1.52v4.16c0,.85.64,1,1.41,1v.73c-1.37,0-2.29-.32-2.29-1.67V23.62h-.91v-.71h.91Z"/><path class="cls-1" d="M353.36,22.73a3.08,3.08,0,0,1,3,3.39c0,2.08-1.29,3.39-3,3.39s-3-1.31-3-3.39S351.68,22.73,353.36,22.73Zm0,6.08c1.15,0,2.11-1,2.11-2.69s-1-2.69-2.11-2.69-2.09,1-2.09,2.69S352.22,28.81,353.36,28.81Z"/><path class="cls-1" d="M113.93,48.72a3.07,3.07,0,0,1-2.13.77,3.15,3.15,0,0,1-3.19-3.35,3.13,3.13,0,0,1,3.21-3.41,4.1,4.1,0,0,1,2,.52l-.34.64a3.39,3.39,0,0,0-1.61-.44,2.4,2.4,0,0,0-2.32,2.7,2.42,2.42,0,0,0,2.34,2.62,2.73,2.73,0,0,0,1.66-.59Z"/><path class="cls-1" d="M115,43.29a3.78,3.78,0,0,1,2.07-.58A2.11,2.11,0,0,1,119.17,44a3.16,3.16,0,0,1,.19,1.12v3a5.25,5.25,0,0,0,.12,1.3h-.84a6.93,6.93,0,0,1-.16-.78,2.52,2.52,0,0,1-2.07.9,2.1,2.1,0,0,1-2.19-2.09c0-1.58,1.17-2.27,3.16-2.27.35,0,.72,0,1.12.06V45A1.41,1.41,0,0,0,117,43.42a3.2,3.2,0,0,0-1.66.5Zm3.52,2.57c-.37,0-.68,0-1,0-1.61,0-2.42.49-2.42,1.52a1.39,1.39,0,0,0,1.49,1.38,1.77,1.77,0,0,0,1.92-1.63Z"/><path class="cls-1" d="M121.5,44a2.19,2.19,0,0,1,2-1.31,1.32,1.32,0,0,1,.28,0v.79l-.28,0a2,2,0,0,0-2,2v3.9h-.87V42.91h.87Z"/><path class="cls-1" d="M129,48.86a3.39,3.39,0,0,1-2,.64,3.09,3.09,0,0,1-3.15-3.29c0-2,1-3.46,2.9-3.46a2.78,2.78,0,0,1,2.72,3,4,4,0,0,1,0,.49h-4.7a2.3,2.3,0,0,0,2.3,2.54,2.81,2.81,0,0,0,1.64-.5Zm-.39-3.33a2,2,0,0,0-1.93-2.06,2.2,2.2,0,0,0-1.93,2.06Z"/><path class="cls-1" d="M130.68,42.91v-.75a3.66,3.66,0,0,1,.12-1A1.62,1.62,0,0,1,132.41,40a3.16,3.16,0,0,1,1.14.22l-.24.68a2.85,2.85,0,0,0-.78-.16.85.85,0,0,0-.87.57,2.19,2.19,0,0,0-.11.81v.79h1.37v.71h-1.37v5.75h-.87V43.62h-.9v-.71Z"/><path class="cls-1" d="M138.33,48.3a2.41,2.41,0,0,1-2,1.2,2.27,2.27,0,0,1-2.42-2.41V42.91h.87V47a1.65,1.65,0,0,0,1.62,1.83,2,2,0,0,0,2-2.17V42.91h.87v6.46h-.87Z"/><path class="cls-1" d="M140.52,40.24h.87v9.13h-.87Z"/><path class="cls-1" d="M142.78,40.24h.87v9.13h-.87Z"/><path class="cls-1" d="M144.48,51.39a2.66,2.66,0,0,0,2.18-2.07l-2.37-6.41h.93l1.89,5.35L149,42.91h.93l-2.11,5.93c-.69,1.95-1.15,2.88-3,3.29Z"/><path class="cls-1" d="M156.42,43.9a2.68,2.68,0,0,0-1.34-.46c-.77,0-1.17.39-1.17.91s.49.9,1.53,1.41,1.68,1,1.68,1.9A1.87,1.87,0,0,1,155,49.47a3,3,0,0,1-2.21-.88l.47-.59a2.59,2.59,0,0,0,1.71.74c.7,0,1.29-.31,1.29-1.05s-.59-.94-1.3-1.27c-.89-.4-1.87-.9-1.87-2A1.71,1.71,0,0,1,155,42.71a3.23,3.23,0,0,1,1.82.58Z"/><path class="cls-1" d="M162.83,48.86a3.33,3.33,0,0,1-2,.64,3.09,3.09,0,0,1-3.15-3.29c0-2,1-3.46,2.89-3.46a2.79,2.79,0,0,1,2.73,3,4,4,0,0,1,0,.49h-4.71a2.32,2.32,0,0,0,2.31,2.54,2.78,2.78,0,0,0,1.63-.5Zm-.38-3.33a2,2,0,0,0-1.93-2.06,2.18,2.18,0,0,0-1.93,2.06Z"/><path class="cls-1" d="M164.24,40.24h.87v9.13h-.87Z"/><path class="cls-1" d="M171.34,48.86a3.39,3.39,0,0,1-2,.64,3.09,3.09,0,0,1-3.15-3.29c0-2,1-3.46,2.89-3.46a2.79,2.79,0,0,1,2.73,3,4,4,0,0,1,0,.49h-4.71a2.32,2.32,0,0,0,2.31,2.54,2.84,2.84,0,0,0,1.64-.5ZM171,45.53A2,2,0,0,0,169,43.47a2.18,2.18,0,0,0-1.93,2.06Z"/><path class="cls-1" d="M177.72,48.72a3.06,3.06,0,0,1-2.13.77,3.16,3.16,0,0,1-3.19-3.35,3.13,3.13,0,0,1,3.22-3.41,4.13,4.13,0,0,1,1.95.52l-.34.64a3.42,3.42,0,0,0-1.61-.44,2.4,2.4,0,0,0-2.32,2.7,2.42,2.42,0,0,0,2.34,2.62,2.73,2.73,0,0,0,1.66-.59Z"/><path class="cls-1" d="M178.78,41.22l.87-.27v2h1.53v.71h-1.53v4.16c0,.85.65,1,1.41,1v.73c-1.36,0-2.28-.32-2.28-1.67V43.62h-.92v-.71h.92Z"/><path class="cls-1" d="M186.74,48.86a3.33,3.33,0,0,1-2,.64,3.09,3.09,0,0,1-3.15-3.29c0-2,1-3.46,2.89-3.46a2.79,2.79,0,0,1,2.73,3,4,4,0,0,1,0,.49h-4.71a2.32,2.32,0,0,0,2.31,2.54,2.78,2.78,0,0,0,1.63-.5Zm-.39-3.33a2,2,0,0,0-1.93-2.06,2.18,2.18,0,0,0-1.92,2.06Z"/><path class="cls-1" d="M192.73,43.91V40.24h.87v9.13h-.87v-1a2.51,2.51,0,0,1-2.1,1.11c-1.67,0-2.81-1.25-2.81-3.36s1.06-3.42,2.86-3.42A2.38,2.38,0,0,1,192.73,43.91Zm-4,2.23c0,1.28.61,2.67,2,2.67s2-1.18,2-2.67V46c0-1.7-.86-2.63-2-2.63C189.33,43.41,188.72,44.8,188.72,46.14Z"/><path class="cls-1" d="M198.9,44.33l3.88-3.84H204l-4.24,4.16,4.83,4.72h-1.22L198.9,45v4.37H198V40.49h.87Z"/><path class="cls-1" d="M207.24,42.73a3.08,3.08,0,0,1,3,3.39c0,2.08-1.3,3.39-3,3.39s-3-1.31-3-3.39S205.56,42.73,207.24,42.73Zm0,6.08c1.15,0,2.1-1,2.1-2.69s-1-2.69-2.1-2.69-2.1,1-2.1,2.69S206.1,48.81,207.24,48.81Z"/><path class="cls-1" d="M212.15,44a2.21,2.21,0,0,1,2-1.31,1.37,1.37,0,0,1,.28,0v.79l-.28,0a2,2,0,0,0-2,2v3.9h-.87V42.91h.87Z"/><path class="cls-1" d="M219.63,48.86a3.33,3.33,0,0,1-2,.64,3.09,3.09,0,0,1-3.15-3.29c0-2,1-3.46,2.89-3.46a2.79,2.79,0,0,1,2.73,3,4,4,0,0,1,0,.49h-4.71a2.32,2.32,0,0,0,2.31,2.54,2.78,2.78,0,0,0,1.63-.5Zm-.38-3.33a2,2,0,0,0-1.93-2.06,2.18,2.18,0,0,0-1.93,2.06Z"/><path class="cls-1" d="M221.35,43.29a3.78,3.78,0,0,1,2.07-.58A2.11,2.11,0,0,1,225.54,44a3.16,3.16,0,0,1,.19,1.12v3a5.76,5.76,0,0,0,.11,1.3H225a5.74,5.74,0,0,1-.17-.78,2.5,2.5,0,0,1-2.07.9,2.1,2.1,0,0,1-2.19-2.09c0-1.58,1.18-2.27,3.17-2.27.35,0,.72,0,1.12.06V45a1.41,1.41,0,0,0-1.52-1.58,3.17,3.17,0,0,0-1.66.5Zm3.52,2.57c-.37,0-.69,0-1,0-1.61,0-2.42.49-2.42,1.52A1.39,1.39,0,0,0,223,48.72a1.77,1.77,0,0,0,1.92-1.63Z"/><path class="cls-1" d="M227.86,43.92a2.42,2.42,0,0,1,2-1.2,2.27,2.27,0,0,1,2.42,2.41v4.24h-.87V45.24a1.64,1.64,0,0,0-1.62-1.83,2,2,0,0,0-2,2.17v3.79H227V42.91h.87Z"/><path class="cls-1" d="M236.52,40.24h.87v9.13h-.87Z"/><path class="cls-1" d="M239.08,43.29a3.78,3.78,0,0,1,2.07-.58A2.11,2.11,0,0,1,243.27,44a3.16,3.16,0,0,1,.19,1.12v3a5.25,5.25,0,0,0,.12,1.3h-.84a6.93,6.93,0,0,1-.16-.78,2.52,2.52,0,0,1-2.07.9,2.1,2.1,0,0,1-2.19-2.09c0-1.58,1.18-2.27,3.16-2.27.36,0,.72,0,1.12.06V45a1.41,1.41,0,0,0-1.51-1.58,3.14,3.14,0,0,0-1.66.5Zm3.52,2.57c-.36,0-.68,0-1,0-1.61,0-2.42.49-2.42,1.52a1.39,1.39,0,0,0,1.49,1.38,1.77,1.77,0,0,0,1.92-1.63Z"/><path class="cls-1" d="M246.74,48.38l1.94-5.47h.93l-2.4,6.46h-.94l-2.4-6.46h.93Z"/><path class="cls-1" d="M254.9,48.86a3.33,3.33,0,0,1-2,.64,3.09,3.09,0,0,1-3.15-3.29c0-2,1-3.46,2.89-3.46a2.79,2.79,0,0,1,2.73,3,4,4,0,0,1,0,.49h-4.71a2.32,2.32,0,0,0,2.31,2.54,2.78,2.78,0,0,0,1.63-.5Zm-.39-3.33a2,2,0,0,0-1.93-2.06,2.18,2.18,0,0,0-1.92,2.06Z"/><path class="cls-1" d="M257.18,44a2.21,2.21,0,0,1,2-1.31,1.42,1.42,0,0,1,.29,0v.79a2.85,2.85,0,0,0-.29,0,2,2,0,0,0-2,2v3.9h-.87V42.91h.87Z"/><path class="cls-1" d="M260.1,48.74h1.26V50H260.1Z"/></g></g></svg>