<svg xmlns="http://www.w3.org/2000/svg" viewBox="0 0 361.08 52.15"><defs><style>.cls-1{fill:#595757;}</style></defs><title>자산 178</title><g id="레이어_2" data-name="레이어 2"><g id="레이어_1-2" data-name="레이어 1"><path class="cls-1" d="M6.19,9.37H5.32V5.05H.87V9.37H0V.49H.87V4.34H5.32V.49h.87Z"/><path class="cls-1" d="M7.55.24h1V1.43h-1Zm.08,2.67H8.5V9.37H7.63Z"/><path class="cls-1" d="M14.47,3.91v-1h.87V8.83A2.87,2.87,0,0,1,12.41,12a4.69,4.69,0,0,1-2.23-.6l.32-.66a3.93,3.93,0,0,0,1.88.52c1.11,0,2.09-.75,2.09-2.49V8.32a2.43,2.43,0,0,1-2.09,1.06c-1.67,0-2.82-1.19-2.82-3.28s1.1-3.38,2.84-3.38A2.36,2.36,0,0,1,14.47,3.91Zm-4,2.17c0,1.28.61,2.61,2,2.61s2-1.12,2-2.61V6c0-1.7-.86-2.63-2-2.63C11.07,3.41,10.46,4.74,10.46,6.08Z"/><path class="cls-1" d="M17.59,3.92a2.44,2.44,0,0,1,2-1.2A2.27,2.27,0,0,1,22,5.13V9.37h-.87V5.24a1.64,1.64,0,0,0-1.62-1.83,2.06,2.06,0,0,0-2,2.17V9.37h-.87V.24h.87Z"/><path class="cls-1" d="M23,5.38V4.61h5.38v.77Z"/><path class="cls-1" d="M34,3.91v-1h.87v9.2H34V8.39A2.49,2.49,0,0,1,31.91,9.5c-1.73,0-2.84-1.26-2.84-3.35s1.09-3.43,2.86-3.43A2.35,2.35,0,0,1,34,3.91ZM30,6.14c0,1.28.62,2.67,2,2.67s2-1.18,2-2.67V6c0-1.7-.86-2.63-2-2.63C30.58,3.41,30,4.8,30,6.14Z"/><path class="cls-1" d="M40.62,8.3a2.4,2.4,0,0,1-2,1.2,2.28,2.28,0,0,1-2.43-2.41V2.91H37V7a1.65,1.65,0,0,0,1.63,1.83,2,2,0,0,0,1.95-2.17V2.91h.87V9.37h-.87Z"/><path class="cls-1" d="M43.12,3.29a3.78,3.78,0,0,1,2.07-.58A2.11,2.11,0,0,1,47.31,4,3.16,3.16,0,0,1,47.5,5.1v3a5.25,5.25,0,0,0,.12,1.3h-.84a6.93,6.93,0,0,1-.16-.78,2.52,2.52,0,0,1-2.07.9A2.1,2.1,0,0,1,42.36,7.4c0-1.58,1.18-2.27,3.16-2.27.36,0,.72,0,1.12.06V5a1.41,1.41,0,0,0-1.51-1.58,3.14,3.14,0,0,0-1.66.5Zm3.52,2.57c-.36,0-.68,0-1,0-1.61,0-2.42.49-2.42,1.52a1.39,1.39,0,0,0,1.49,1.38,1.77,1.77,0,0,0,1.92-1.63Z"/><path class="cls-1" d="M48.77.24h.87V9.37h-.87Z"/><path class="cls-1" d="M50.94.24h1V1.43h-1ZM51,2.91h.87V9.37H51Z"/><path class="cls-1" d="M53.59,1.22,54.46,1v2H56v.71H54.46V7.78c0,.85.65,1,1.41,1v.73c-1.36,0-2.28-.32-2.28-1.67V3.62h-.92V2.91h.92Z"/><path class="cls-1" d="M56.27,11.39a2.67,2.67,0,0,0,2.19-2.07L56.08,2.91H57l1.9,5.35,1.83-5.35h.93L59.56,8.84c-.69,1.95-1.15,2.88-3,3.29Z"/><path class="cls-1" d="M68.22,3.9a2.72,2.72,0,0,0-1.34-.46c-.78,0-1.18.39-1.18.91s.5.9,1.53,1.41,1.68,1,1.68,1.9a1.86,1.86,0,0,1-2.1,1.81,3,3,0,0,1-2.21-.88L65.07,8a2.57,2.57,0,0,0,1.7.74c.71,0,1.3-.31,1.3-1s-.59-.94-1.31-1.27c-.88-.4-1.87-.9-1.87-2a1.72,1.72,0,0,1,1.93-1.71,3.2,3.2,0,0,1,1.81.58Z"/><path class="cls-1" d="M74.63,8.86a3.36,3.36,0,0,1-2,.64,3.1,3.1,0,0,1-3.16-3.29c0-2,1-3.46,2.9-3.46a2.79,2.79,0,0,1,2.73,3,2.69,2.69,0,0,1,0,.49h-4.7a2.3,2.3,0,0,0,2.3,2.54,2.79,2.79,0,0,0,1.64-.5Zm-.39-3.33a2,2,0,0,0-1.93-2.06,2.2,2.2,0,0,0-1.93,2.06Z"/><path class="cls-1" d="M76.34,3.29a3.81,3.81,0,0,1,2.08-.58A2.09,2.09,0,0,1,80.53,4a3.16,3.16,0,0,1,.19,1.12v3a5.25,5.25,0,0,0,.12,1.3H80a6.93,6.93,0,0,1-.16-.78,2.52,2.52,0,0,1-2.07.9A2.1,2.1,0,0,1,75.58,7.4c0-1.58,1.18-2.27,3.17-2.27.35,0,.71,0,1.11.06V5a1.41,1.41,0,0,0-1.51-1.58,3.14,3.14,0,0,0-1.66.5Zm3.52,2.57c-.36,0-.68,0-1,0-1.61,0-2.42.49-2.42,1.52A1.4,1.4,0,0,0,78,8.72a1.77,1.77,0,0,0,1.91-1.63Z"/><path class="cls-1" d="M87.28,8.29l1.43-5.38h.83L87.72,9.37h-.86L85.41,3.9,84,9.37h-.86L81.28,2.91h.84l1.42,5.38L85,2.91h.92Z"/><path class="cls-1" d="M95.07,8.86a3.39,3.39,0,0,1-2,.64,3.09,3.09,0,0,1-3.15-3.29c0-2,1-3.46,2.9-3.46a2.79,2.79,0,0,1,2.73,3,2.69,2.69,0,0,1,0,.49h-4.7a2.3,2.3,0,0,0,2.3,2.54,2.79,2.79,0,0,0,1.64-.5Zm-.39-3.33a2,2,0,0,0-1.93-2.06,2.2,2.2,0,0,0-1.93,2.06Z"/><path class="cls-1" d="M101.31,8.86a3.33,3.33,0,0,1-2,.64,3.09,3.09,0,0,1-3.15-3.29c0-2,1-3.46,2.89-3.46a2.79,2.79,0,0,1,2.73,3,4,4,0,0,1,0,.49H97a2.32,2.32,0,0,0,2.31,2.54,2.78,2.78,0,0,0,1.63-.5Zm-.39-3.33A2,2,0,0,0,99,3.47a2.18,2.18,0,0,0-1.93,2.06Z"/><path class="cls-1" d="M107.3,3.91V.24h.87V9.37h-.87v-1a2.51,2.51,0,0,1-2.09,1.11c-1.68,0-2.82-1.25-2.82-3.36s1.06-3.42,2.86-3.42A2.38,2.38,0,0,1,107.3,3.91Zm-4,2.23c0,1.28.61,2.67,2,2.67s2-1.18,2-2.67V6c0-1.7-.86-2.63-2-2.63C103.9,3.41,103.29,4.8,103.29,6.14Z"/><path class="cls-1" d="M113.35,3.68A2.05,2.05,0,0,1,117,4a2.26,2.26,0,0,1,2-1.26A2.09,2.09,0,0,1,121.15,5V9.37h-.86V4.89a1.38,1.38,0,0,0-1.48-1.47,1.57,1.57,0,0,0-1.55,1.77V9.37h-.86V5a1.44,1.44,0,0,0-1.46-1.58,1.61,1.61,0,0,0-1.59,1.75v4.2h-.86V2.91h.86Z"/><path class="cls-1" d="M122.69,3.29a3.78,3.78,0,0,1,2.07-.58A2.11,2.11,0,0,1,126.88,4a3.16,3.16,0,0,1,.19,1.12v3a5.76,5.76,0,0,0,.11,1.3h-.83a5.74,5.74,0,0,1-.17-.78,2.5,2.5,0,0,1-2.07.9,2.09,2.09,0,0,1-2.18-2.09c0-1.58,1.17-2.27,3.16-2.27.35,0,.72,0,1.12.06V5a1.41,1.41,0,0,0-1.52-1.58,3.2,3.2,0,0,0-1.66.5Zm3.52,2.57c-.37,0-.68,0-1,0-1.61,0-2.42.49-2.42,1.52a1.39,1.39,0,0,0,1.49,1.38,1.77,1.77,0,0,0,1.92-1.63Z"/><path class="cls-1" d="M132.91,3.91V.24h.87V9.37h-.87v-1a2.51,2.51,0,0,1-2.09,1.11c-1.67,0-2.81-1.25-2.81-3.36s1.05-3.42,2.86-3.42A2.36,2.36,0,0,1,132.91,3.91Zm-4,2.23c0,1.28.61,2.67,2,2.67s2-1.18,2-2.67V6c0-1.7-.86-2.63-2-2.63C129.51,3.41,128.9,4.8,128.9,6.14Z"/><path class="cls-1" d="M140,8.86a3.33,3.33,0,0,1-2,.64,3.09,3.09,0,0,1-3.15-3.29c0-2,1-3.46,2.89-3.46a2.79,2.79,0,0,1,2.73,3,4,4,0,0,1,0,.49h-4.71A2.32,2.32,0,0,0,138,8.79a2.78,2.78,0,0,0,1.63-.5Zm-.39-3.33a2,2,0,0,0-1.93-2.06,2.18,2.18,0,0,0-1.92,2.06Z"/><path class="cls-1" d="M149.65,8.29l1.42-5.38h.84l-1.83,6.46h-.86L147.78,3.9l-1.45,5.47h-.86l-1.82-6.46h.83l1.43,5.38,1.41-5.38h.91Z"/><path class="cls-1" d="M152.51.24h1V1.43h-1Zm.09,2.67h.87V9.37h-.87Z"/><path class="cls-1" d="M155.16,1.22,156,1v2h1.53v.71H156V7.78c0,.85.65,1,1.41,1v.73c-1.36,0-2.28-.32-2.28-1.67V3.62h-.92V2.91h.92Z"/><path class="cls-1" d="M159.28,3.92a2.42,2.42,0,0,1,2-1.2,2.27,2.27,0,0,1,2.42,2.41V9.37h-.87V5.24a1.64,1.64,0,0,0-1.62-1.83,2.06,2.06,0,0,0-1.95,2.17V9.37h-.87V.24h.87Z"/><path class="cls-1" d="M168.22,2.91V2.16a3.66,3.66,0,0,1,.12-1A1.62,1.62,0,0,1,170,0a3.21,3.21,0,0,1,1.15.22l-.25.68a2.78,2.78,0,0,0-.78-.16.85.85,0,0,0-.87.57,2.24,2.24,0,0,0-.1.81v.79h1.36v.71H169.1V9.37h-.88V3.62h-.9V2.91Z"/><path class="cls-1" d="M172.35,4a2.21,2.21,0,0,1,2-1.31,1.42,1.42,0,0,1,.29,0v.79a2.85,2.85,0,0,0-.29,0,2,2,0,0,0-2,2v3.9h-.87V2.91h.87Z"/><path class="cls-1" d="M179.83,8.86a3.33,3.33,0,0,1-2,.64,3.09,3.09,0,0,1-3.15-3.29c0-2,1-3.46,2.89-3.46a2.79,2.79,0,0,1,2.73,3,4,4,0,0,1,0,.49h-4.71a2.32,2.32,0,0,0,2.31,2.54,2.78,2.78,0,0,0,1.63-.5Zm-.38-3.33a2,2,0,0,0-1.93-2.06,2.18,2.18,0,0,0-1.93,2.06Z"/><path class="cls-1" d="M184.31,3.9A2.72,2.72,0,0,0,183,3.44c-.77,0-1.17.39-1.17.91s.49.9,1.53,1.41,1.68,1,1.68,1.9a1.87,1.87,0,0,1-2.11,1.81,3,3,0,0,1-2.21-.88l.47-.59a2.59,2.59,0,0,0,1.71.74c.7,0,1.29-.31,1.29-1s-.59-.94-1.31-1.27c-.88-.4-1.87-.9-1.87-2a1.72,1.72,0,0,1,1.93-1.71,3.17,3.17,0,0,1,1.81.58Z"/><path class="cls-1" d="M186.76,3.92a2.42,2.42,0,0,1,2-1.2,2.28,2.28,0,0,1,2.43,2.41V9.37h-.88V5.24a1.64,1.64,0,0,0-1.62-1.83,2.06,2.06,0,0,0-2,2.17V9.37h-.87V.24h.87Z"/><path class="cls-1" d="M196.39,4.33,200.27.49h1.21l-4.24,4.16,4.83,4.72h-1.22L196.39,5V9.37h-.87V.49h.87Z"/><path class="cls-1" d="M204.73,2.73a3.08,3.08,0,0,1,3,3.39c0,2.08-1.3,3.39-3,3.39s-3-1.31-3-3.39S203.05,2.73,204.73,2.73Zm0,6.08c1.15,0,2.1-1,2.1-2.69s-1-2.69-2.1-2.69-2.1,1-2.1,2.69S203.59,8.81,204.73,8.81Z"/><path class="cls-1" d="M209.64,4a2.21,2.21,0,0,1,2-1.31,1.42,1.42,0,0,1,.29,0v.79a2.85,2.85,0,0,0-.29,0,2,2,0,0,0-2,2v3.9h-.87V2.91h.87Z"/><path class="cls-1" d="M217.12,8.86a3.33,3.33,0,0,1-2,.64A3.09,3.09,0,0,1,212,6.21c0-2,1-3.46,2.89-3.46a2.79,2.79,0,0,1,2.73,3,4,4,0,0,1,0,.49h-4.71a2.32,2.32,0,0,0,2.31,2.54,2.78,2.78,0,0,0,1.63-.5Zm-.38-3.33a2,2,0,0,0-1.93-2.06,2.18,2.18,0,0,0-1.93,2.06Z"/><path class="cls-1" d="M218.84,3.29a3.78,3.78,0,0,1,2.07-.58A2.11,2.11,0,0,1,223,4a3.4,3.4,0,0,1,.19,1.12v3a5.76,5.76,0,0,0,.11,1.3h-.83a5.74,5.74,0,0,1-.17-.78,2.5,2.5,0,0,1-2.07.9,2.1,2.1,0,0,1-2.19-2.09c0-1.58,1.18-2.27,3.17-2.27.35,0,.72,0,1.12.06V5a1.41,1.41,0,0,0-1.52-1.58,3.14,3.14,0,0,0-1.66.5Zm3.52,2.57c-.37,0-.69,0-1,0-1.61,0-2.42.49-2.42,1.52a1.39,1.39,0,0,0,1.49,1.38,1.77,1.77,0,0,0,1.92-1.63Z"/><path class="cls-1" d="M225.35,3.92a2.41,2.41,0,0,1,2-1.2,2.27,2.27,0,0,1,2.42,2.41V9.37h-.87V5.24a1.64,1.64,0,0,0-1.62-1.83,2,2,0,0,0-2,2.17V9.37h-.87V2.91h.87Z"/><path class="cls-1" d="M234,.24h.87V9.37H234Z"/><path class="cls-1" d="M236.57,3.29a3.78,3.78,0,0,1,2.07-.58A2.11,2.11,0,0,1,240.76,4,3.16,3.16,0,0,1,241,5.1v3a5.25,5.25,0,0,0,.12,1.3h-.84a6.93,6.93,0,0,1-.16-.78,2.52,2.52,0,0,1-2.07.9,2.1,2.1,0,0,1-2.19-2.09c0-1.58,1.17-2.27,3.16-2.27.36,0,.72,0,1.12.06V5a1.41,1.41,0,0,0-1.52-1.58,3.14,3.14,0,0,0-1.65.5Zm3.52,2.57c-.36,0-.68,0-1,0-1.61,0-2.42.49-2.42,1.52a1.39,1.39,0,0,0,1.49,1.38,1.77,1.77,0,0,0,1.92-1.63Z"/><path class="cls-1" d="M244.23,8.38l1.94-5.47h.93l-2.4,6.46h-.94l-2.4-6.46h.93Z"/><path class="cls-1" d="M252.39,8.86a3.33,3.33,0,0,1-2,.64,3.09,3.09,0,0,1-3.15-3.29c0-2,1-3.46,2.89-3.46a2.79,2.79,0,0,1,2.73,3,4,4,0,0,1,0,.49h-4.71a2.31,2.31,0,0,0,2.31,2.54,2.78,2.78,0,0,0,1.63-.5ZM252,5.53a2,2,0,0,0-1.93-2.06,2.2,2.2,0,0,0-1.93,2.06Z"/><path class="cls-1" d="M254.67,4a2.21,2.21,0,0,1,2-1.31,1.42,1.42,0,0,1,.29,0v.79a2.85,2.85,0,0,0-.29,0,2,2,0,0,0-2,2v3.9h-.87V2.91h.87Z"/><path class="cls-1" d="M265.53,8.72a3.07,3.07,0,0,1-2.13.77,3.15,3.15,0,0,1-3.19-3.35,3.13,3.13,0,0,1,3.21-3.41,4.17,4.17,0,0,1,2,.52l-.35.64a3.36,3.36,0,0,0-1.61-.44,2.41,2.41,0,0,0-2.32,2.7,2.42,2.42,0,0,0,2.35,2.62,2.73,2.73,0,0,0,1.65-.59Z"/><path class="cls-1" d="M266.58,3.29a3.78,3.78,0,0,1,2.07-.58A2.1,2.1,0,0,1,270.77,4,3.16,3.16,0,0,1,271,5.1v3a5.25,5.25,0,0,0,.12,1.3h-.84a6.93,6.93,0,0,1-.16-.78,2.52,2.52,0,0,1-2.07.9,2.1,2.1,0,0,1-2.19-2.09c0-1.58,1.18-2.27,3.16-2.27.36,0,.72,0,1.12.06V5a1.41,1.41,0,0,0-1.51-1.58,3.14,3.14,0,0,0-1.66.5Zm3.52,2.57c-.36,0-.68,0-1,0-1.61,0-2.42.49-2.42,1.52a1.39,1.39,0,0,0,1.49,1.38,1.77,1.77,0,0,0,1.92-1.63Z"/><path class="cls-1" d="M273.1,4a2.21,2.21,0,0,1,2-1.31,1.27,1.27,0,0,1,.28,0v.79a2.4,2.4,0,0,0-.28,0,2,2,0,0,0-2,2v3.9h-.87V2.91h.87Z"/><path class="cls-1" d="M280.58,8.86a3.36,3.36,0,0,1-2,.64,3.1,3.1,0,0,1-3.16-3.29c0-2,1-3.46,2.9-3.46a2.79,2.79,0,0,1,2.73,3,2.69,2.69,0,0,1,0,.49h-4.7a2.3,2.3,0,0,0,2.3,2.54,2.79,2.79,0,0,0,1.64-.5Zm-.39-3.33a2,2,0,0,0-1.93-2.06,2.2,2.2,0,0,0-1.93,2.06Z"/><path class="cls-1" d="M282.28,2.91V2.16a3.66,3.66,0,0,1,.12-1A1.62,1.62,0,0,1,284,0a3.16,3.16,0,0,1,1.14.22l-.24.68a2.78,2.78,0,0,0-.78-.16.85.85,0,0,0-.87.57,2.19,2.19,0,0,0-.11.81v.79h1.37v.71h-1.37V9.37h-.87V3.62h-.9V2.91Z"/><path class="cls-1" d="M289.93,8.3a2.4,2.4,0,0,1-2,1.2,2.28,2.28,0,0,1-2.43-2.41V2.91h.87V7A1.65,1.65,0,0,0,288,8.81a2,2,0,0,0,1.95-2.17V2.91h.87V9.37h-.87Z"/><path class="cls-1" d="M292.13.24H293V9.37h-.87Z"/><path class="cls-1" d="M294.38.24h.87V9.37h-.87Z"/><path class="cls-1" d="M296.08,11.39a2.69,2.69,0,0,0,2.19-2.07l-2.38-6.41h.93l1.89,5.35,1.84-5.35h.93l-2.11,5.93c-.69,1.95-1.15,2.88-3,3.29Z"/><path class="cls-1" d="M308,3.9a2.75,2.75,0,0,0-1.34-.46c-.78,0-1.18.39-1.18.91s.49.9,1.53,1.41,1.68,1,1.68,1.9a1.86,1.86,0,0,1-2.1,1.81,3,3,0,0,1-2.22-.88l.47-.59a2.59,2.59,0,0,0,1.71.74c.71,0,1.29-.31,1.29-1s-.58-.94-1.3-1.27c-.88-.4-1.87-.9-1.87-2a1.72,1.72,0,0,1,1.93-1.71,3.22,3.22,0,0,1,1.81.58Z"/><path class="cls-1" d="M314.44,8.86a3.39,3.39,0,0,1-2,.64,3.09,3.09,0,0,1-3.15-3.29c0-2,1-3.46,2.89-3.46a2.79,2.79,0,0,1,2.73,3,4,4,0,0,1,0,.49h-4.71a2.32,2.32,0,0,0,2.31,2.54,2.84,2.84,0,0,0,1.64-.5Zm-.39-3.33a2,2,0,0,0-1.93-2.06,2.18,2.18,0,0,0-1.93,2.06Z"/><path class="cls-1" d="M315.85.24h.87V9.37h-.87Z"/><path class="cls-1" d="M322.94,8.86a3.38,3.38,0,0,1-2,.64,3.1,3.1,0,0,1-3.16-3.29c0-2,1-3.46,2.9-3.46a2.79,2.79,0,0,1,2.73,3,2.69,2.69,0,0,1,0,.49h-4.7A2.3,2.3,0,0,0,321,8.79a2.79,2.79,0,0,0,1.64-.5Zm-.39-3.33a2,2,0,0,0-1.93-2.06,2.2,2.2,0,0,0-1.93,2.06Z"/><path class="cls-1" d="M329.32,8.72a3,3,0,0,1-2.12.77A3.15,3.15,0,0,1,324,6.14a3.12,3.12,0,0,1,3.21-3.41,4.13,4.13,0,0,1,1.95.52l-.34.64a3.39,3.39,0,0,0-1.61-.44,2.4,2.4,0,0,0-2.32,2.7,2.42,2.42,0,0,0,2.34,2.62,2.73,2.73,0,0,0,1.66-.59Z"/><path class="cls-1" d="M330.38,1.22l.87-.27v2h1.53v.71h-1.53V7.78c0,.85.65,1,1.41,1v.73c-1.36,0-2.28-.32-2.28-1.67V3.62h-.92V2.91h.92Z"/><path class="cls-1" d="M338.34,8.86a3.33,3.33,0,0,1-2,.64,3.09,3.09,0,0,1-3.15-3.29c0-2,1-3.46,2.89-3.46a2.79,2.79,0,0,1,2.73,3,4,4,0,0,1,0,.49h-4.71a2.32,2.32,0,0,0,2.31,2.54,2.78,2.78,0,0,0,1.63-.5ZM338,5.53A2,2,0,0,0,336,3.47a2.18,2.18,0,0,0-1.93,2.06Z"/><path class="cls-1" d="M344.33,3.91V.24h.87V9.37h-.87v-1a2.51,2.51,0,0,1-2.09,1.11c-1.67,0-2.82-1.25-2.82-3.36s1.06-3.42,2.86-3.42A2.37,2.37,0,0,1,344.33,3.91Zm-4,2.23c0,1.28.61,2.67,2,2.67s2-1.18,2-2.67V6c0-1.7-.86-2.63-2-2.63C340.93,3.41,340.32,4.8,340.32,6.14Z"/><path class="cls-1" d="M352.44,2.72c1.8,0,2.86,1.33,2.86,3.42s-1.14,3.36-2.81,3.36a2.51,2.51,0,0,1-2.09-1.11v1h-.87V.24h.87V3.91A2.35,2.35,0,0,1,352.44,2.72Zm0,.69c-1.16,0-2,.93-2,2.63v.1c0,1.49.66,2.67,2,2.67s2-1.39,2-2.67S353.8,3.41,352.42,3.41Z"/><path class="cls-1" d="M355.68,11.39a2.66,2.66,0,0,0,2.18-2.07l-2.37-6.41h.93l1.89,5.35,1.84-5.35h.93L359,8.84c-.69,1.95-1.15,2.88-3,3.29Z"/><path class="cls-1" d="M69.3,20.24h.87v9.13H69.3Z"/><path class="cls-1" d="M71.87,23.29a3.75,3.75,0,0,1,2.07-.58A2.09,2.09,0,0,1,76.05,24a3.16,3.16,0,0,1,.19,1.12v3a5.25,5.25,0,0,0,.12,1.3h-.84a6.93,6.93,0,0,1-.16-.78,2.52,2.52,0,0,1-2.07.9A2.1,2.1,0,0,1,71.1,27.4c0-1.58,1.18-2.27,3.17-2.27.35,0,.71,0,1.11.06V25a1.41,1.41,0,0,0-1.51-1.58,3.14,3.14,0,0,0-1.66.5Zm3.51,2.57c-.36,0-.68,0-1,0-1.61,0-2.42.49-2.42,1.52a1.4,1.4,0,0,0,1.5,1.38,1.77,1.77,0,0,0,1.91-1.63Z"/><path class="cls-1" d="M79.52,28.38l1.94-5.47h.93L80,29.37h-.94l-2.4-6.46h.93Z"/><path class="cls-1" d="M87.68,28.86a3.33,3.33,0,0,1-2,.64,3.09,3.09,0,0,1-3.15-3.29c0-2,1-3.46,2.89-3.46a2.79,2.79,0,0,1,2.73,3,4,4,0,0,1,0,.49H83.4a2.32,2.32,0,0,0,2.31,2.54,2.78,2.78,0,0,0,1.63-.5Zm-.38-3.33a2,2,0,0,0-1.93-2.06,2.18,2.18,0,0,0-1.93,2.06Z"/><path class="cls-1" d="M90,24a2.21,2.21,0,0,1,2-1.31,1.37,1.37,0,0,1,.28,0v.79l-.28,0a2,2,0,0,0-2,2v3.9h-.87V22.91H90Z"/><path class="cls-1" d="M100.68,28.86a3.38,3.38,0,0,1-2,.64,3.1,3.1,0,0,1-3.16-3.29c0-2,1-3.46,2.9-3.46a2.79,2.79,0,0,1,2.73,3,2.69,2.69,0,0,1,0,.49H96.4a2.3,2.3,0,0,0,2.3,2.54,2.79,2.79,0,0,0,1.64-.5Zm-.39-3.33a2,2,0,0,0-1.93-2.06,2.2,2.2,0,0,0-1.93,2.06Z"/><path class="cls-1" d="M104.08,25.43l1.71-2.52h1l-2.22,3.19,2.25,3.27h-1l-1.73-2.55-1.74,2.55h-1l2.24-3.24-2.2-3.22h1Z"/><path class="cls-1" d="M110.31,22.72c1.76,0,2.86,1.31,2.86,3.43s-1.11,3.35-2.84,3.35a2.49,2.49,0,0,1-2.07-1.11v3.72h-.87v-9.2h.87v1A2.35,2.35,0,0,1,110.31,22.72Zm0,.69c-1.17,0-2,.93-2,2.63v.1c0,1.49.66,2.67,2,2.67s2-1.39,2-2.67S111.66,23.41,110.29,23.41Z"/><path class="cls-1" d="M119.06,28.86a3.36,3.36,0,0,1-2,.64,3.1,3.1,0,0,1-3.16-3.29c0-2,1-3.46,2.9-3.46a2.79,2.79,0,0,1,2.73,3,2.69,2.69,0,0,1,0,.49h-4.7a2.3,2.3,0,0,0,2.3,2.54,2.79,2.79,0,0,0,1.64-.5Zm-.39-3.33a2,2,0,0,0-1.93-2.06,2.2,2.2,0,0,0-1.93,2.06Z"/><path class="cls-1" d="M121.34,24a2.21,2.21,0,0,1,2-1.31,1.27,1.27,0,0,1,.28,0v.79a2.4,2.4,0,0,0-.28,0,2,2,0,0,0-2,2v3.9h-.87V22.91h.87Z"/><path class="cls-1" d="M124.82,21.22l.87-.27v2h1.53v.71h-1.53v4.16c0,.85.65,1,1.41,1v.73c-1.36,0-2.28-.32-2.28-1.67V23.62h-.92v-.71h.92Z"/><path class="cls-1" d="M131.14,23.9a2.76,2.76,0,0,0-1.35-.46c-.77,0-1.17.39-1.17.91s.49.9,1.53,1.41,1.68,1,1.68,1.9a1.87,1.87,0,0,1-2.11,1.81,3,3,0,0,1-2.21-.88L128,28a2.59,2.59,0,0,0,1.71.74c.71,0,1.29-.31,1.29-1s-.58-.94-1.3-1.27c-.89-.4-1.87-.9-1.87-2a1.72,1.72,0,0,1,1.93-1.71,3.22,3.22,0,0,1,1.81.58Z"/><path class="cls-1" d="M136,23.29a3.75,3.75,0,0,1,2.07-.58A2.09,2.09,0,0,1,140.14,24a3.16,3.16,0,0,1,.19,1.12v3a5.25,5.25,0,0,0,.12,1.3h-.83a5.74,5.74,0,0,1-.17-.78,2.52,2.52,0,0,1-2.07.9,2.1,2.1,0,0,1-2.19-2.09c0-1.58,1.18-2.27,3.17-2.27.35,0,.71,0,1.11.06l0-.19A1.42,1.42,0,0,0,138,23.42a3.14,3.14,0,0,0-1.66.5Zm3.51,2.57c-.36,0-.68,0-1,0-1.62,0-2.43.49-2.43,1.52a1.4,1.4,0,0,0,1.5,1.38,1.77,1.77,0,0,0,1.91-1.63Z"/><path class="cls-1" d="M142.47,23.92a2.41,2.41,0,0,1,2-1.2,2.27,2.27,0,0,1,2.42,2.41v4.24h-.87V25.24a1.65,1.65,0,0,0-1.63-1.83,2,2,0,0,0-1.95,2.17v3.79h-.87V22.91h.87Z"/><path class="cls-1" d="M152.76,23.91V20.24h.87v9.13h-.87v-1a2.51,2.51,0,0,1-2.09,1.11c-1.67,0-2.81-1.25-2.81-3.36s1.06-3.42,2.86-3.42A2.35,2.35,0,0,1,152.76,23.91Zm-4,2.23c0,1.28.61,2.67,2,2.67s2-1.18,2-2.67V26c0-1.7-.86-2.63-2-2.63C149.36,23.41,148.75,24.8,148.75,26.14Z"/><path class="cls-1" d="M158.26,21.22l.88-.27v2h1.53v.71h-1.53v4.16c0,.85.64,1,1.41,1v.73c-1.37,0-2.29-.32-2.29-1.67V23.62h-.91v-.71h.91Z"/><path class="cls-1" d="M162.38,23.92a2.42,2.42,0,0,1,2-1.2,2.28,2.28,0,0,1,2.43,2.41v4.24H166V25.24a1.65,1.65,0,0,0-1.63-1.83,2.06,2.06,0,0,0-2,2.17v3.79h-.87V20.24h.87Z"/><path class="cls-1" d="M172.93,28.86a3.33,3.33,0,0,1-2,.64,3.1,3.1,0,0,1-3.16-3.29c0-2,1-3.46,2.9-3.46a2.79,2.79,0,0,1,2.73,3,2.69,2.69,0,0,1,0,.49h-4.7a2.31,2.31,0,0,0,2.3,2.54,2.79,2.79,0,0,0,1.64-.5Zm-.39-3.33a2,2,0,0,0-1.93-2.06,2.2,2.2,0,0,0-1.93,2.06Z"/><path class="cls-1" d="M178.15,23.92a2.42,2.42,0,0,1,2-1.2,2.28,2.28,0,0,1,2.43,2.41v4.24h-.87V25.24a1.65,1.65,0,0,0-1.63-1.83,2.06,2.06,0,0,0-1.95,2.17v3.79h-.87V20.24h.87Z"/><path class="cls-1" d="M183.78,20.24h1v1.19h-1Zm.09,2.67h.87v6.46h-.87Z"/><path class="cls-1" d="M190.7,23.91v-1h.87v5.92a2.87,2.87,0,0,1-2.93,3.2,4.62,4.62,0,0,1-2.22-.6l.32-.66a3.87,3.87,0,0,0,1.88.52c1.1,0,2.08-.75,2.08-2.49v-.48a2.41,2.41,0,0,1-2.08,1.06c-1.67,0-2.83-1.19-2.83-3.28s1.1-3.38,2.84-3.38A2.36,2.36,0,0,1,190.7,23.91Zm-4,2.17c0,1.28.61,2.61,2,2.61s2-1.12,2-2.61v0c0-1.7-.86-2.63-2-2.63C187.3,23.41,186.69,24.74,186.69,26.08Z"/><path class="cls-1" d="M193.83,23.92a2.42,2.42,0,0,1,2-1.2,2.27,2.27,0,0,1,2.42,2.41v4.24h-.87V25.24a1.64,1.64,0,0,0-1.62-1.83,2.06,2.06,0,0,0-1.95,2.17v3.79H193V20.24h.87Z"/><path class="cls-1" d="M204.38,28.86a3.39,3.39,0,0,1-2,.64,3.09,3.09,0,0,1-3.15-3.29c0-2,1-3.46,2.89-3.46a2.79,2.79,0,0,1,2.73,3,4,4,0,0,1,0,.49h-4.71a2.32,2.32,0,0,0,2.31,2.54,2.84,2.84,0,0,0,1.64-.5ZM204,25.53a2,2,0,0,0-1.93-2.06,2.18,2.18,0,0,0-1.93,2.06Z"/><path class="cls-1" d="M208.86,23.9a2.75,2.75,0,0,0-1.34-.46c-.78,0-1.18.39-1.18.91s.49.9,1.53,1.41,1.68,1,1.68,1.9a1.86,1.86,0,0,1-2.1,1.81,3,3,0,0,1-2.22-.88l.47-.59a2.59,2.59,0,0,0,1.71.74c.71,0,1.29-.31,1.29-1s-.58-.94-1.3-1.27c-.88-.4-1.87-.9-1.87-2a1.72,1.72,0,0,1,1.93-1.71,3.22,3.22,0,0,1,1.81.58Z"/><path class="cls-1" d="M210.74,21.22l.87-.27v2h1.53v.71h-1.53v4.16c0,.85.64,1,1.41,1v.73c-1.37,0-2.28-.32-2.28-1.67V23.62h-.92v-.71h.92Z"/><path class="cls-1" d="M221.5,23.91v-1h.87v9.2h-.87V28.39a2.49,2.49,0,0,1-2.07,1.11c-1.73,0-2.84-1.26-2.84-3.35s1.1-3.43,2.86-3.43A2.35,2.35,0,0,1,221.5,23.91Zm-4,2.23c0,1.28.61,2.67,2,2.67s2-1.18,2-2.67V26c0-1.7-.86-2.63-2-2.63C218.1,23.41,217.49,24.8,217.49,26.14Z"/><path class="cls-1" d="M228.14,28.3a2.4,2.4,0,0,1-2,1.2,2.27,2.27,0,0,1-2.42-2.41V22.91h.87V27a1.64,1.64,0,0,0,1.62,1.83,2,2,0,0,0,1.95-2.17V22.91H229v6.46h-.87Z"/><path class="cls-1" d="M230.65,23.29a3.75,3.75,0,0,1,2.07-.58A2.09,2.09,0,0,1,234.83,24,3.16,3.16,0,0,1,235,25.1v3a5.25,5.25,0,0,0,.12,1.3h-.84a6.93,6.93,0,0,1-.16-.78,2.52,2.52,0,0,1-2.07.9,2.1,2.1,0,0,1-2.19-2.09c0-1.58,1.18-2.27,3.17-2.27.35,0,.71,0,1.11.06l0-.19a1.42,1.42,0,0,0-1.52-1.58,3.14,3.14,0,0,0-1.66.5Zm3.51,2.57c-.36,0-.68,0-1,0-1.62,0-2.43.49-2.43,1.52a1.4,1.4,0,0,0,1.5,1.38,1.77,1.77,0,0,0,1.91-1.63Z"/><path class="cls-1" d="M236.29,20.24h.87v9.13h-.87Z"/><path class="cls-1" d="M238.47,20.24h1v1.19h-1Zm.08,2.67h.87v6.46h-.87Z"/><path class="cls-1" d="M241.11,21.22,242,21v2h1.53v.71H242v4.16c0,.85.65,1,1.41,1v.73c-1.36,0-2.28-.32-2.28-1.67V23.62h-.91v-.71h.91Z"/><path class="cls-1" d="M243.79,31.39A2.66,2.66,0,0,0,246,29.32l-2.38-6.41h.93l1.9,5.35,1.83-5.35h.93l-2.1,5.93c-.7,1.95-1.16,2.88-3,3.29Z"/><path class="cls-1" d="M257.65,28.72a3.07,3.07,0,0,1-2.13.77,3.16,3.16,0,0,1-3.19-3.35,3.13,3.13,0,0,1,3.21-3.41,4.14,4.14,0,0,1,2,.52l-.35.64a3.36,3.36,0,0,0-1.61-.44,2.4,2.4,0,0,0-2.31,2.7,2.41,2.41,0,0,0,2.34,2.62,2.78,2.78,0,0,0,1.66-.59Z"/><path class="cls-1" d="M261.05,22.73a3.08,3.08,0,0,1,3,3.39c0,2.08-1.3,3.39-3,3.39s-3-1.31-3-3.39S259.36,22.73,261.05,22.73Zm0,6.08c1.15,0,2.1-1,2.1-2.69s-.95-2.69-2.1-2.69-2.1,1-2.1,2.69S259.91,28.81,261.05,28.81Z"/><path class="cls-1" d="M266,24a2.21,2.21,0,0,1,2-1.31,1.27,1.27,0,0,1,.28,0v.79a2.4,2.4,0,0,0-.28,0,2,2,0,0,0-2,2v3.9h-.87V22.91H266Z"/><path class="cls-1" d="M269.77,23.92a2.4,2.4,0,0,1,2-1.2,2.28,2.28,0,0,1,2.43,2.41v4.24h-.87V25.24a1.65,1.65,0,0,0-1.63-1.83,2,2,0,0,0-2,2.17v3.79h-.87V22.91h.87Z"/><path class="cls-1" d="M281.07,22.73a3.08,3.08,0,0,1,3,3.39c0,2.08-1.29,3.39-3,3.39s-3-1.31-3-3.39S279.39,22.73,281.07,22.73Zm0,6.08c1.16,0,2.11-1,2.11-2.69s-.95-2.69-2.11-2.69-2.09,1-2.09,2.69S279.93,28.81,281.07,28.81Z"/><path class="cls-1" d="M285,20.24h1v1.19h-1Zm.08,2.67H286v6.46h-.87Z"/><path class="cls-1" d="M287.38,20.24h.87v9.13h-.87Z"/><path class="cls-1" d="M289.61,28.74h1.26V30h-1.26Z"/><path class="cls-1" d="M43,49.37H42.1L41.24,47h-4l-.87,2.37h-.91l3.29-8.88h.94ZM41,46.3l-1.72-4.83L37.54,46.3Z"/><path class="cls-1" d="M43.74,40.24h.87v9.13h-.87Z"/><path class="cls-1" d="M51.29,48.29l1.42-5.38h.84l-1.83,6.46h-.86L49.42,43.9,48,49.37h-.86l-1.82-6.46h.83l1.43,5.38L49,42.91h.92Z"/><path class="cls-1" d="M54.54,43.29a3.78,3.78,0,0,1,2.07-.58A2.11,2.11,0,0,1,58.73,44a3.16,3.16,0,0,1,.19,1.12v3a5.25,5.25,0,0,0,.12,1.3H58.2a6.93,6.93,0,0,1-.16-.78,2.52,2.52,0,0,1-2.07.9,2.1,2.1,0,0,1-2.19-2.09c0-1.58,1.17-2.27,3.16-2.27.36,0,.72,0,1.12.06V45a1.41,1.41,0,0,0-1.52-1.58,3.14,3.14,0,0,0-1.65.5Zm3.52,2.57c-.36,0-.68,0-1,0-1.61,0-2.42.49-2.42,1.52a1.39,1.39,0,0,0,1.49,1.38,1.77,1.77,0,0,0,1.92-1.63Z"/><path class="cls-1" d="M59.62,51.39a2.66,2.66,0,0,0,2.19-2.07l-2.38-6.41h.93l1.9,5.35,1.83-5.35H65l-2.1,5.93c-.7,1.95-1.16,2.88-3,3.29Z"/><path class="cls-1" d="M68.63,43.9a2.72,2.72,0,0,0-1.34-.46c-.78,0-1.18.39-1.18.91s.5.9,1.53,1.41,1.69,1,1.69,1.9a1.87,1.87,0,0,1-2.11,1.81A3,3,0,0,1,65,48.59l.47-.59a2.59,2.59,0,0,0,1.7.74c.71,0,1.3-.31,1.3-1.05s-.59-.94-1.31-1.27c-.88-.4-1.87-.9-1.87-2a1.72,1.72,0,0,1,1.93-1.71,3.17,3.17,0,0,1,1.81.58Z"/><path class="cls-1" d="M78,48.86a3.33,3.33,0,0,1-2,.64,3.09,3.09,0,0,1-3.15-3.29c0-2,1-3.46,2.89-3.46a2.79,2.79,0,0,1,2.73,3,4,4,0,0,1,0,.49H73.7A2.32,2.32,0,0,0,76,48.79a2.78,2.78,0,0,0,1.63-.5Zm-.39-3.33a2,2,0,0,0-1.93-2.06,2.18,2.18,0,0,0-1.92,2.06Z"/><path class="cls-1" d="M80.26,43.92a2.41,2.41,0,0,1,2-1.2,2.27,2.27,0,0,1,2.42,2.41v4.24h-.87V45.24a1.65,1.65,0,0,0-1.63-1.83,2,2,0,0,0-1.95,2.17v3.79h-.87V42.91h.87Z"/><path class="cls-1" d="M84.51,51.45c1.17-.24,1.63-.7,1.63-1.75V42.91H87v6.8a2.36,2.36,0,0,1-2.27,2.44Zm1.55-11.21h1v1.19h-1Z"/><path class="cls-1" d="M91,42.73a3.07,3.07,0,0,1,3,3.39c0,2.08-1.29,3.39-3,3.39s-3-1.31-3-3.39S89.35,42.73,91,42.73Zm0,6.08c1.16,0,2.11-1,2.11-2.69s-1-2.69-2.11-2.69-2.09,1-2.09,2.69S89.89,48.81,91,48.81Z"/><path class="cls-1" d="M94.4,51.39a2.66,2.66,0,0,0,2.18-2.07l-2.37-6.41h.93L97,48.26l1.84-5.35h.93l-2.11,5.93c-.69,1.95-1.15,2.88-3,3.29Z"/><path class="cls-1" d="M108.25,48.72a3.07,3.07,0,0,1-2.13.77,3.16,3.16,0,0,1-3.19-3.35,3.13,3.13,0,0,1,3.22-3.41,4.13,4.13,0,0,1,1.95.52l-.34.64a3.42,3.42,0,0,0-1.61-.44,2.4,2.4,0,0,0-2.32,2.7,2.42,2.42,0,0,0,2.34,2.62,2.73,2.73,0,0,0,1.66-.59Z"/><path class="cls-1" d="M109.87,44a2.21,2.21,0,0,1,2-1.31,1.42,1.42,0,0,1,.29,0v.79a2.85,2.85,0,0,0-.29,0,2,2,0,0,0-2,2v3.9H109V42.91h.87Z"/><path class="cls-1" d="M112.73,40.24h1v1.19h-1Zm.08,2.67h.87v6.46h-.87Z"/><path class="cls-1" d="M118.14,43.9a2.72,2.72,0,0,0-1.34-.46c-.78,0-1.18.39-1.18.91s.5.9,1.53,1.41,1.68,1,1.68,1.9a1.86,1.86,0,0,1-2.1,1.81,3,3,0,0,1-2.21-.88L115,48a2.59,2.59,0,0,0,1.7.74c.71,0,1.3-.31,1.3-1.05s-.59-.94-1.31-1.27c-.88-.4-1.87-.9-1.87-2a1.72,1.72,0,0,1,1.93-1.71,3.17,3.17,0,0,1,1.81.58Z"/><path class="cls-1" d="M122.63,42.72c1.77,0,2.86,1.31,2.86,3.43s-1.1,3.35-2.83,3.35a2.48,2.48,0,0,1-2.07-1.11v3.72h-.87v-9.2h.87v1A2.33,2.33,0,0,1,122.63,42.72Zm0,.69c-1.16,0-2,.93-2,2.63v.1c0,1.49.66,2.67,2,2.67s2-1.39,2-2.67S124,43.41,122.61,43.41Z"/><path class="cls-1" d="M125.87,51.39a2.66,2.66,0,0,0,2.18-2.07l-2.37-6.41h.93l1.89,5.35,1.84-5.35h.93l-2.11,5.93c-.69,1.95-1.15,2.88-3,3.29Z"/><path class="cls-1" d="M137.82,43.9a2.76,2.76,0,0,0-1.35-.46c-.77,0-1.17.39-1.17.91s.49.9,1.53,1.41,1.68,1,1.68,1.9a1.87,1.87,0,0,1-2.11,1.81,3,3,0,0,1-2.21-.88l.47-.59a2.59,2.59,0,0,0,1.71.74c.7,0,1.29-.31,1.29-1.05s-.59-.94-1.3-1.27c-.89-.4-1.87-.9-1.87-2a1.72,1.72,0,0,1,1.93-1.71,3.22,3.22,0,0,1,1.81.58Z"/><path class="cls-1" d="M144.23,48.86a3.39,3.39,0,0,1-2,.64,3.09,3.09,0,0,1-3.15-3.29c0-2,1-3.46,2.89-3.46a2.79,2.79,0,0,1,2.73,3,4,4,0,0,1,0,.49h-4.71a2.32,2.32,0,0,0,2.31,2.54,2.78,2.78,0,0,0,1.63-.5Zm-.39-3.33a2,2,0,0,0-1.93-2.06A2.18,2.18,0,0,0,140,45.53Z"/><path class="cls-1" d="M145.94,43.29a3.78,3.78,0,0,1,2.07-.58A2.11,2.11,0,0,1,150.13,44a3.16,3.16,0,0,1,.19,1.12v3a5.76,5.76,0,0,0,.11,1.3h-.83a5.74,5.74,0,0,1-.17-.78,2.5,2.5,0,0,1-2.07.9,2.09,2.09,0,0,1-2.18-2.09c0-1.58,1.17-2.27,3.16-2.27.35,0,.72,0,1.12.06V45A1.41,1.41,0,0,0,148,43.42a3.2,3.2,0,0,0-1.66.5Zm3.52,2.57c-.37,0-.68,0-1,0-1.61,0-2.42.49-2.42,1.52a1.39,1.39,0,0,0,1.49,1.38,1.77,1.77,0,0,0,1.92-1.63Z"/><path class="cls-1" d="M154.66,43.9a2.76,2.76,0,0,0-1.35-.46c-.77,0-1.17.39-1.17.91s.49.9,1.53,1.41,1.68,1,1.68,1.9a1.87,1.87,0,0,1-2.11,1.81,3,3,0,0,1-2.21-.88l.47-.59a2.59,2.59,0,0,0,1.71.74c.7,0,1.29-.31,1.29-1.05s-.59-.94-1.3-1.27c-.89-.4-1.87-.9-1.87-2a1.72,1.72,0,0,1,1.93-1.71,3.22,3.22,0,0,1,1.81.58Z"/><path class="cls-1" d="M158.88,42.73a3.08,3.08,0,0,1,3,3.39c0,2.08-1.3,3.39-3,3.39s-3-1.31-3-3.39S157.19,42.73,158.88,42.73Zm0,6.08c1.15,0,2.1-1,2.1-2.69s-.95-2.69-2.1-2.69-2.1,1-2.1,2.69S157.74,48.81,158.88,48.81Z"/><path class="cls-1" d="M163.79,43.92a2.41,2.41,0,0,1,2-1.2,2.27,2.27,0,0,1,2.42,2.41v4.24h-.87V45.24a1.65,1.65,0,0,0-1.62-1.83,2,2,0,0,0-2,2.17v3.79h-.87V42.91h.87Z"/><path class="cls-1" d="M174.34,48.86a3.33,3.33,0,0,1-2,.64,3.09,3.09,0,0,1-3.15-3.29c0-2,1-3.46,2.89-3.46a2.79,2.79,0,0,1,2.73,3,4,4,0,0,1,0,.49h-4.71a2.31,2.31,0,0,0,2.31,2.54,2.78,2.78,0,0,0,1.63-.5ZM174,45.53A2,2,0,0,0,172,43.47a2.2,2.2,0,0,0-1.93,2.06Z"/><path class="cls-1" d="M180.33,43.91V40.24h.87v9.13h-.87v-1a2.53,2.53,0,0,1-2.1,1.11c-1.67,0-2.81-1.25-2.81-3.36s1.06-3.42,2.86-3.42A2.38,2.38,0,0,1,180.33,43.91Zm-4,2.23c0,1.28.61,2.67,2,2.67s2-1.18,2-2.67V46c0-1.7-.86-2.63-2-2.63C176.93,43.41,176.32,44.8,176.32,46.14Z"/><path class="cls-1" d="M185.52,40.24h.87v9.13h-.87Z"/><path class="cls-1" d="M188.09,43.29a3.78,3.78,0,0,1,2.07-.58A2.11,2.11,0,0,1,192.28,44a3.41,3.41,0,0,1,.18,1.12v3a5.78,5.78,0,0,0,.12,1.3h-.83a5.74,5.74,0,0,1-.17-.78,2.5,2.5,0,0,1-2.07.9,2.1,2.1,0,0,1-2.19-2.09c0-1.58,1.18-2.27,3.17-2.27.35,0,.72,0,1.12.06V45a1.42,1.42,0,0,0-1.52-1.58,3.14,3.14,0,0,0-1.66.5Zm3.52,2.57c-.37,0-.69,0-1,0-1.62,0-2.43.49-2.43,1.52a1.4,1.4,0,0,0,1.5,1.38,1.77,1.77,0,0,0,1.92-1.63Z"/><path class="cls-1" d="M195.74,48.38l1.94-5.47h.93l-2.4,6.46h-.94l-2.4-6.46h.93Z"/><path class="cls-1" d="M203.91,48.86a3.39,3.39,0,0,1-2,.64,3.09,3.09,0,0,1-3.15-3.29c0-2,1-3.46,2.89-3.46a2.79,2.79,0,0,1,2.73,3,4,4,0,0,1,0,.49h-4.71a2.32,2.32,0,0,0,2.31,2.54,2.84,2.84,0,0,0,1.64-.5Zm-.39-3.33a2,2,0,0,0-1.93-2.06,2.18,2.18,0,0,0-1.93,2.06Z"/><path class="cls-1" d="M206.19,44a2.19,2.19,0,0,1,2-1.31,1.32,1.32,0,0,1,.28,0v.79l-.28,0a2,2,0,0,0-2,2v3.9h-.87V42.91h.87Z"/><path class="cls-1" d="M212,40.24h1v1.19h-1Zm.09,2.67h.87v6.46h-.87Z"/><path class="cls-1" d="M215.19,43.92a2.41,2.41,0,0,1,2-1.2,2.27,2.27,0,0,1,2.42,2.41v4.24h-.87V45.24a1.64,1.64,0,0,0-1.62-1.83,2,2,0,0,0-2,2.17v3.79h-.87V42.91h.87Z"/><path class="cls-1" d="M224.16,41.22,225,41v2h1.52v.71H225v4.16c0,.85.64,1,1.41,1v.73c-1.37,0-2.28-.32-2.28-1.67V43.62h-.92v-.71h.92Z"/><path class="cls-1" d="M228.27,43.92a2.42,2.42,0,0,1,2-1.2,2.28,2.28,0,0,1,2.43,2.41v4.24h-.87V45.24a1.65,1.65,0,0,0-1.63-1.83,2.06,2.06,0,0,0-1.95,2.17v3.79h-.87V40.24h.87Z"/><path class="cls-1" d="M238.82,48.86a3.33,3.33,0,0,1-2,.64,3.1,3.1,0,0,1-3.16-3.29c0-2,1-3.46,2.9-3.46a2.79,2.79,0,0,1,2.73,3,2.69,2.69,0,0,1,0,.49h-4.7a2.31,2.31,0,0,0,2.3,2.54,2.79,2.79,0,0,0,1.64-.5Zm-.39-3.33a2,2,0,0,0-1.93-2.06,2.2,2.2,0,0,0-1.93,2.06Z"/><path class="cls-1" d="M245.82,42.73a3.08,3.08,0,0,1,3,3.39c0,2.08-1.3,3.39-3,3.39s-3-1.31-3-3.39S244.13,42.73,245.82,42.73Zm0,6.08c1.15,0,2.1-1,2.1-2.69s-.95-2.69-2.1-2.69-2.1,1-2.1,2.69S244.68,48.81,245.82,48.81Z"/><path class="cls-1" d="M252.78,42.72c1.76,0,2.86,1.31,2.86,3.43s-1.11,3.35-2.84,3.35a2.49,2.49,0,0,1-2.07-1.11v3.72h-.87v-9.2h.87v1A2.35,2.35,0,0,1,252.78,42.72Zm0,.69c-1.17,0-2,.93-2,2.63v.1c0,1.49.66,2.67,2,2.67s2-1.39,2-2.67S254.13,43.41,252.76,43.41Z"/><path class="cls-1" d="M257,41.22l.87-.27v2h1.53v.71h-1.53v4.16c0,.85.65,1,1.41,1v.73c-1.36,0-2.28-.32-2.28-1.67V43.62h-.92v-.71H257Z"/><path class="cls-1" d="M260.16,40.24h1v1.19h-1Zm.09,2.67h.87v6.46h-.87Z"/><path class="cls-1" d="M263.36,43.68A2.05,2.05,0,0,1,267,44a2.26,2.26,0,0,1,1.95-1.26A2.09,2.09,0,0,1,271.16,45v4.42h-.86V44.89a1.38,1.38,0,0,0-1.48-1.47,1.57,1.57,0,0,0-1.55,1.77v4.18h-.86V45A1.44,1.44,0,0,0,265,43.42a1.61,1.61,0,0,0-1.59,1.75v4.2h-.86V42.91h.86Z"/><path class="cls-1" d="M272.7,43.29a3.78,3.78,0,0,1,2.07-.58A2.11,2.11,0,0,1,276.89,44a3.4,3.4,0,0,1,.19,1.12v3a5.76,5.76,0,0,0,.11,1.3h-.83a5.74,5.74,0,0,1-.17-.78,2.5,2.5,0,0,1-2.07.9,2.1,2.1,0,0,1-2.19-2.09c0-1.58,1.18-2.27,3.17-2.27.35,0,.72,0,1.12.06V45a1.41,1.41,0,0,0-1.52-1.58,3.17,3.17,0,0,0-1.66.5Zm3.52,2.57c-.37,0-.69,0-1,0-1.61,0-2.42.49-2.42,1.52a1.39,1.39,0,0,0,1.49,1.38,1.77,1.77,0,0,0,1.92-1.63Z"/><path class="cls-1" d="M278.34,40.24h.87v9.13h-.87Z"/><path class="cls-1" d="M283.85,43.29a3.78,3.78,0,0,1,2.07-.58A2.11,2.11,0,0,1,288,44a3.41,3.41,0,0,1,.18,1.12v3a5.78,5.78,0,0,0,.12,1.3h-.83a5.74,5.74,0,0,1-.17-.78,2.5,2.5,0,0,1-2.07.9,2.1,2.1,0,0,1-2.19-2.09c0-1.58,1.18-2.27,3.17-2.27.35,0,.71,0,1.12.06V45a1.42,1.42,0,0,0-1.52-1.58,3.14,3.14,0,0,0-1.66.5Zm3.52,2.57c-.37,0-.69,0-1,0-1.62,0-2.43.49-2.43,1.52a1.4,1.4,0,0,0,1.5,1.38,1.77,1.77,0,0,0,1.92-1.63Z"/><path class="cls-1" d="M290.35,43.68a2.09,2.09,0,0,1,1.72-1A2.06,2.06,0,0,1,294,44a2.28,2.28,0,0,1,2-1.26A2.09,2.09,0,0,1,298.15,45v4.42h-.86V44.89a1.38,1.38,0,0,0-1.48-1.47,1.57,1.57,0,0,0-1.55,1.77v4.18h-.86V45a1.44,1.44,0,0,0-1.46-1.58,1.61,1.61,0,0,0-1.59,1.75v4.2h-.86V42.91h.86Z"/><path class="cls-1" d="M302,42.73a3.08,3.08,0,0,1,3,3.39c0,2.08-1.29,3.39-3,3.39s-3-1.31-3-3.39S300.35,42.73,302,42.73Zm0,6.08c1.15,0,2.1-1,2.1-2.69s-.95-2.69-2.1-2.69-2.09,1-2.09,2.69S300.89,48.81,302,48.81Z"/><path class="cls-1" d="M310.46,48.3a2.4,2.4,0,0,1-2,1.2A2.28,2.28,0,0,1,306,47.09V42.91h.88V47a1.64,1.64,0,0,0,1.62,1.83,2,2,0,0,0,1.95-2.17V42.91h.87v6.46h-.87Z"/><path class="cls-1" d="M313.53,43.92a2.4,2.4,0,0,1,2-1.2A2.28,2.28,0,0,1,318,45.13v4.24h-.87V45.24a1.65,1.65,0,0,0-1.63-1.83,2,2,0,0,0-2,2.17v3.79h-.87V42.91h.87Z"/><path class="cls-1" d="M319.55,41.22l.87-.27v2H322v.71h-1.53v4.16c0,.85.65,1,1.41,1v.73c-1.36,0-2.28-.32-2.28-1.67V43.62h-.92v-.71h.92Z"/><path class="cls-1" d="M322.77,48.74H324V50h-1.26Z"/></g></g></svg>