<svg xmlns="http://www.w3.org/2000/svg" viewBox="0 0 403.69 32.13"><defs><style>.cls-1{fill:#595757;}</style></defs><title>자산 181</title><g id="레이어_2" data-name="레이어 2"><g id="레이어_1-2" data-name="레이어 1"><path class="cls-1" d="M16.58,9.37h-.87V.49h.87Z"/><path class="cls-1" d="M18.4,1.22,19.28,1v2H20.8v.71H19.28V7.78c0,.86.64,1,1.41,1v.73c-1.37,0-2.29-.32-2.29-1.67V3.62h-.91V2.91h.91Z"/><path class="cls-1" d="M24.51.24h1V1.43h-1Zm.08,2.67h.87V9.37h-.87Z"/><path class="cls-1" d="M29.92,3.9a2.72,2.72,0,0,0-1.34-.46c-.78,0-1.18.39-1.18.91s.49.9,1.53,1.41,1.68,1,1.68,1.9a1.86,1.86,0,0,1-2.1,1.81,3,3,0,0,1-2.22-.88L26.77,8a2.52,2.52,0,0,0,1.7.74c.71,0,1.3-.31,1.3-1s-.59-.94-1.31-1.27c-.88-.4-1.87-.9-1.87-2a1.72,1.72,0,0,1,1.93-1.72,3.2,3.2,0,0,1,1.81.58Z"/><path class="cls-1" d="M34.74,3.29a3.78,3.78,0,0,1,2.07-.58A2.11,2.11,0,0,1,38.93,4a3.4,3.4,0,0,1,.19,1.12v3a5.76,5.76,0,0,0,.11,1.3H38.4a5.74,5.74,0,0,1-.17-.78,2.5,2.5,0,0,1-2.07.9A2.1,2.1,0,0,1,34,7.4c0-1.58,1.18-2.27,3.17-2.27.35,0,.72,0,1.12.06V5a1.41,1.41,0,0,0-1.52-1.58,3.14,3.14,0,0,0-1.66.5Zm3.52,2.58a9,9,0,0,0-1,0c-1.61,0-2.43.49-2.43,1.52a1.4,1.4,0,0,0,1.5,1.38,1.77,1.77,0,0,0,1.92-1.63Z"/><path class="cls-1" d="M44.19,3.92a2.45,2.45,0,0,1,2-1.2,2.27,2.27,0,0,1,2.42,2.41V9.37h-.87V5.24a1.64,1.64,0,0,0-1.62-1.83,2.06,2.06,0,0,0-2,2.17V9.37h-.87V.24h.87Z"/><path class="cls-1" d="M49.83.24h1V1.43h-1Zm.08,2.67h.87V9.37h-.87Z"/><path class="cls-1" d="M56.74,3.91v-1h.87V8.83A2.86,2.86,0,0,1,54.68,12a4.62,4.62,0,0,1-2.22-.6l.32-.66a3.93,3.93,0,0,0,1.88.52c1.11,0,2.08-.75,2.08-2.49V8.32a2.41,2.41,0,0,1-2.08,1.06c-1.67,0-2.82-1.19-2.82-3.27s1.09-3.39,2.83-3.39A2.36,2.36,0,0,1,56.74,3.91Zm-4,2.17c0,1.28.61,2.62,2,2.62s2-1.13,2-2.62V6c0-1.7-.86-2.63-2-2.63C53.34,3.41,52.73,4.74,52.73,6.08Z"/><path class="cls-1" d="M59.87,3.92a2.42,2.42,0,0,1,2-1.2,2.28,2.28,0,0,1,2.43,2.41V9.37h-.87V5.24a1.65,1.65,0,0,0-1.63-1.83,2.06,2.06,0,0,0-2,2.17V9.37H59V.24h.87Z"/><path class="cls-1" d="M65.27,5.38V4.61h5.37v.77Z"/><path class="cls-1" d="M76.25,3.91v-1h.87v9.2h-.87V8.4a2.49,2.49,0,0,1-2.07,1.1c-1.73,0-2.83-1.26-2.83-3.35s1.09-3.43,2.86-3.43A2.33,2.33,0,0,1,76.25,3.91Zm-4,2.23c0,1.28.61,2.68,2,2.68s2-1.19,2-2.68V6c0-1.7-.86-2.63-2-2.63C72.85,3.41,72.24,4.8,72.24,6.14Z"/><path class="cls-1" d="M82.9,8.3a2.41,2.41,0,0,1-2,1.2,2.27,2.27,0,0,1-2.42-2.41V2.91h.87V7a1.65,1.65,0,0,0,1.62,1.84,2.05,2.05,0,0,0,2-2.18V2.91h.87V9.37H82.9Z"/><path class="cls-1" d="M85.4,3.29a3.78,3.78,0,0,1,2.07-.58A2.11,2.11,0,0,1,89.59,4a3.16,3.16,0,0,1,.19,1.12v3a5.76,5.76,0,0,0,.11,1.3h-.83a5.74,5.74,0,0,1-.17-.78,2.5,2.5,0,0,1-2.07.9A2.1,2.1,0,0,1,84.63,7.4c0-1.58,1.18-2.27,3.17-2.27.35,0,.72,0,1.12.06V5a1.41,1.41,0,0,0-1.52-1.58,3.17,3.17,0,0,0-1.66.5Zm3.52,2.58a9,9,0,0,0-1,0c-1.61,0-2.42.49-2.42,1.52A1.39,1.39,0,0,0,87,8.72a1.77,1.77,0,0,0,1.92-1.63Z"/><path class="cls-1" d="M91,.24h.88V9.37H91Z"/><path class="cls-1" d="M93.22.24h1V1.43h-1Zm.08,2.67h.87V9.37H93.3Z"/><path class="cls-1" d="M95.87,1.22,96.74,1v2h1.53v.71H96.74V7.78c0,.86.64,1,1.41,1v.73c-1.37,0-2.28-.32-2.28-1.67V3.62H95V2.91h.92Z"/><path class="cls-1" d="M98.55,11.39a2.66,2.66,0,0,0,2.18-2.07L98.36,2.91h.93l1.89,5.35L103,2.91H104l-2.11,5.93c-.69,1.95-1.15,2.88-3,3.29Z"/><path class="cls-1" d="M107.73,1.22,108.6,1v2h1.53v.71H108.6V7.78c0,.86.65,1,1.41,1v.73c-1.36,0-2.28-.32-2.28-1.67V3.62h-.92V2.91h.92Z"/><path class="cls-1" d="M111.85,4a2.21,2.21,0,0,1,2-1.31,1.32,1.32,0,0,1,.28,0v.79l-.28,0a2,2,0,0,0-2,2v3.9H111V2.91h.87Z"/><path class="cls-1" d="M114.74,3.29a3.78,3.78,0,0,1,2.07-.58A2.11,2.11,0,0,1,118.93,4a3.16,3.16,0,0,1,.19,1.12v3a5.76,5.76,0,0,0,.11,1.3h-.83a5.74,5.74,0,0,1-.17-.78,2.5,2.5,0,0,1-2.07.9A2.09,2.09,0,0,1,114,7.4c0-1.58,1.17-2.27,3.16-2.27.35,0,.72,0,1.12.06V5a1.41,1.41,0,0,0-1.52-1.58,3.2,3.2,0,0,0-1.66.5Zm3.52,2.58a8.86,8.86,0,0,0-1,0c-1.61,0-2.42.49-2.42,1.52a1.39,1.39,0,0,0,1.49,1.38,1.77,1.77,0,0,0,1.92-1.63Z"/><path class="cls-1" d="M125,3.91V.24h.87V9.37H125v-1a2.52,2.52,0,0,1-2.09,1.1c-1.67,0-2.81-1.25-2.81-3.36s1-3.42,2.85-3.42A2.37,2.37,0,0,1,125,3.91Zm-4,2.23c0,1.28.61,2.68,2,2.68s2-1.19,2-2.68V6c0-1.7-.86-2.63-2-2.63C121.56,3.41,121,4.8,121,6.14Z"/><path class="cls-1" d="M127.13.24h1V1.43h-1Zm.09,2.67h.87V9.37h-.87Z"/><path class="cls-1" d="M129.78,1.22l.87-.27v2h1.53v.71h-1.53V7.78c0,.86.65,1,1.41,1v.73c-1.36,0-2.28-.32-2.28-1.67V3.62h-.92V2.91h.92Z"/><path class="cls-1" d="M132.94.24h1V1.43h-1ZM133,2.91h.87V9.37H133Z"/><path class="cls-1" d="M137.93,2.73a3.08,3.08,0,0,1,3,3.39c0,2.08-1.29,3.39-3,3.39s-3-1.31-3-3.39S136.25,2.73,137.93,2.73Zm0,6.09c1.15,0,2.11-1,2.11-2.7s-1-2.69-2.11-2.69-2.09,1-2.09,2.69S136.79,8.82,137.93,8.82Z"/><path class="cls-1" d="M142.85,3.92a2.4,2.4,0,0,1,2-1.2,2.27,2.27,0,0,1,2.42,2.41V9.37h-.87V5.24a1.64,1.64,0,0,0-1.62-1.83,2,2,0,0,0-2,2.17V9.37H142V2.91h.87Z"/><path class="cls-1" d="M148.87,3.29a3.78,3.78,0,0,1,2.07-.58A2.11,2.11,0,0,1,153.06,4a3.41,3.41,0,0,1,.18,1.12v3a5.78,5.78,0,0,0,.12,1.3h-.83a5.74,5.74,0,0,1-.17-.78,2.52,2.52,0,0,1-2.07.9A2.1,2.1,0,0,1,148.1,7.4c0-1.58,1.18-2.27,3.17-2.27.35,0,.72,0,1.11.06l0-.19a1.42,1.42,0,0,0-1.52-1.58,3.14,3.14,0,0,0-1.66.5Zm3.51,2.58a8.69,8.69,0,0,0-1,0c-1.61,0-2.43.49-2.43,1.52a1.4,1.4,0,0,0,1.5,1.38,1.77,1.77,0,0,0,1.91-1.63Z"/><path class="cls-1" d="M154.51.24h.87V9.37h-.87Z"/><path class="cls-1" d="M159.71.24h.87V9.37h-.87Z"/><path class="cls-1" d="M162.27,3.29a3.78,3.78,0,0,1,2.07-.58A2.11,2.11,0,0,1,166.46,4a3.16,3.16,0,0,1,.19,1.12v3a5.25,5.25,0,0,0,.12,1.3h-.84a6.93,6.93,0,0,1-.16-.78,2.52,2.52,0,0,1-2.07.9,2.1,2.1,0,0,1-2.19-2.09c0-1.58,1.17-2.27,3.16-2.27.36,0,.72,0,1.12.06V5a1.41,1.41,0,0,0-1.51-1.58,3.14,3.14,0,0,0-1.66.5Zm3.52,2.58a8.74,8.74,0,0,0-1,0c-1.61,0-2.42.49-2.42,1.52a1.39,1.39,0,0,0,1.49,1.38,1.77,1.77,0,0,0,1.92-1.63Z"/><path class="cls-1" d="M169.93,8.38l1.94-5.47h.93l-2.4,6.46h-.94l-2.4-6.46H168Z"/><path class="cls-1" d="M178.09,8.86a3.33,3.33,0,0,1-2,.64,3.08,3.08,0,0,1-3.15-3.29c0-2,1-3.46,2.89-3.46a2.79,2.79,0,0,1,2.73,3,4,4,0,0,1,0,.49h-4.71a2.31,2.31,0,0,0,2.31,2.54,2.78,2.78,0,0,0,1.63-.5Zm-.39-3.33a2,2,0,0,0-1.93-2.06,2.2,2.2,0,0,0-1.93,2.06Z"/><path class="cls-1" d="M180.37,4a2.21,2.21,0,0,1,2-1.31,1.42,1.42,0,0,1,.29,0v.79a2.85,2.85,0,0,0-.29,0,2,2,0,0,0-2,2v3.9h-.87V2.91h.87Z"/><path class="cls-1" d="M187.11,3.68a2.09,2.09,0,0,1,1.72-1A2.06,2.06,0,0,1,190.73,4a2.28,2.28,0,0,1,2-1.26A2.09,2.09,0,0,1,194.91,5V9.37h-.86V4.89a1.38,1.38,0,0,0-1.48-1.47A1.57,1.57,0,0,0,191,5.19V9.37h-.86V5a1.44,1.44,0,0,0-1.46-1.58,1.61,1.61,0,0,0-1.59,1.75v4.2h-.86V2.91h.86Z"/><path class="cls-1" d="M196.45,3.29a3.78,3.78,0,0,1,2.07-.58A2.11,2.11,0,0,1,200.64,4a3.41,3.41,0,0,1,.18,1.12v3a5.78,5.78,0,0,0,.12,1.3h-.83a5.74,5.74,0,0,1-.17-.78,2.52,2.52,0,0,1-2.07.9,2.1,2.1,0,0,1-2.19-2.09c0-1.58,1.18-2.27,3.17-2.27.35,0,.72,0,1.11.06L200,5a1.42,1.42,0,0,0-1.52-1.58,3.14,3.14,0,0,0-1.66.5ZM200,5.87a8.69,8.69,0,0,0-1,0c-1.61,0-2.43.49-2.43,1.52a1.4,1.4,0,0,0,1.5,1.38A1.77,1.77,0,0,0,200,7.09Z"/><path class="cls-1" d="M206.67,3.91V.24h.87V9.37h-.87v-1a2.53,2.53,0,0,1-2.1,1.1c-1.67,0-2.81-1.25-2.81-3.36s1.06-3.42,2.86-3.42A2.38,2.38,0,0,1,206.67,3.91Zm-4,2.23c0,1.28.61,2.68,2,2.68s2-1.19,2-2.68V6c0-1.7-.86-2.63-2-2.63C203.27,3.41,202.66,4.8,202.66,6.14Z"/><path class="cls-1" d="M213.76,8.86a3.38,3.38,0,0,1-2,.64,3.09,3.09,0,0,1-3.16-3.29c0-2,1-3.46,2.9-3.46a2.79,2.79,0,0,1,2.73,3,2.69,2.69,0,0,1,0,.49h-4.7a2.3,2.3,0,0,0,2.3,2.54,2.79,2.79,0,0,0,1.64-.5Zm-.39-3.33a2,2,0,0,0-1.93-2.06,2.2,2.2,0,0,0-1.93,2.06Z"/><path class="cls-1" d="M223.4,8.29l1.43-5.38h.83l-1.82,6.46H223L221.53,3.9l-1.45,5.47h-.85L217.4,2.91h.84l1.42,5.38,1.41-5.38H222Z"/><path class="cls-1" d="M226.27.24h1V1.43h-1Zm.08,2.67h.87V9.37h-.87Z"/><path class="cls-1" d="M228.92,1.22l.87-.27v2h1.53v.71h-1.53V7.78c0,.86.64,1,1.41,1v.73c-1.37,0-2.28-.32-2.28-1.67V3.62H228V2.91h.92Z"/><path class="cls-1" d="M233,3.92a2.44,2.44,0,0,1,2-1.2,2.27,2.27,0,0,1,2.42,2.41V9.37h-.87V5.24A1.65,1.65,0,0,0,235,3.41a2.06,2.06,0,0,0-2,2.17V9.37h-.87V.24H233Z"/><path class="cls-1" d="M242.56,4a2.21,2.21,0,0,1,2-1.31,1.32,1.32,0,0,1,.28,0v.79l-.28,0a2,2,0,0,0-2,2v3.9h-.87V2.91h.87Z"/><path class="cls-1" d="M245.45,3.29a3.78,3.78,0,0,1,2.07-.58A2.11,2.11,0,0,1,249.64,4a3.16,3.16,0,0,1,.19,1.12v3a5.76,5.76,0,0,0,.11,1.3h-.83a5.74,5.74,0,0,1-.17-.78,2.5,2.5,0,0,1-2.07.9,2.09,2.09,0,0,1-2.18-2.09c0-1.58,1.17-2.27,3.16-2.27.35,0,.72,0,1.12.06V5a1.41,1.41,0,0,0-1.52-1.58,3.2,3.2,0,0,0-1.66.5ZM249,5.87a8.86,8.86,0,0,0-1,0c-1.61,0-2.42.49-2.42,1.52a1.39,1.39,0,0,0,1.49,1.38A1.77,1.77,0,0,0,249,7.09Z"/><path class="cls-1" d="M256.39,8.29l1.42-5.38h.84l-1.83,6.46H256L254.52,3.9l-1.45,5.47h-.86l-1.82-6.46h.83l1.43,5.38,1.41-5.38H255Z"/><path class="cls-1" d="M262.28.24h.87V9.37h-.87Z"/><path class="cls-1" d="M264.84,3.29a3.78,3.78,0,0,1,2.07-.58A2.11,2.11,0,0,1,269,4a3.16,3.16,0,0,1,.19,1.12v3a5.25,5.25,0,0,0,.12,1.3h-.84a6.93,6.93,0,0,1-.16-.78,2.52,2.52,0,0,1-2.07.9,2.1,2.1,0,0,1-2.19-2.09c0-1.58,1.17-2.27,3.16-2.27.36,0,.72,0,1.12.06V5a1.41,1.41,0,0,0-1.52-1.58,3.14,3.14,0,0,0-1.65.5Zm3.52,2.58a8.74,8.74,0,0,0-1,0c-1.61,0-2.42.49-2.42,1.52a1.39,1.39,0,0,0,1.49,1.38,1.77,1.77,0,0,0,1.92-1.63Z"/><path class="cls-1" d="M272.5,8.38l1.94-5.47h.93L273,9.37H272l-2.4-6.46h.93Z"/><path class="cls-1" d="M280.66,8.86a3.33,3.33,0,0,1-2,.64,3.08,3.08,0,0,1-3.15-3.29c0-2,1-3.46,2.89-3.46a2.79,2.79,0,0,1,2.73,3,2.69,2.69,0,0,1,0,.49h-4.7a2.3,2.3,0,0,0,2.3,2.54,2.79,2.79,0,0,0,1.64-.5Zm-.39-3.33a2,2,0,0,0-1.93-2.06,2.2,2.2,0,0,0-1.93,2.06Z"/><path class="cls-1" d="M282.94,4a2.21,2.21,0,0,1,2-1.31,1.42,1.42,0,0,1,.29,0v.79a2.85,2.85,0,0,0-.29,0,2,2,0,0,0-2,2v3.9h-.87V2.91h.87Z"/><path class="cls-1" d="M293.8,8.72a3.07,3.07,0,0,1-2.13.77,3.15,3.15,0,0,1-3.19-3.35,3.13,3.13,0,0,1,3.21-3.41,4.1,4.1,0,0,1,1.95.52l-.34.64a3.36,3.36,0,0,0-1.61-.43,2.4,2.4,0,0,0-2.32,2.69,2.42,2.42,0,0,0,2.34,2.62,2.73,2.73,0,0,0,1.66-.59Z"/><path class="cls-1" d="M294.85,3.29a3.78,3.78,0,0,1,2.07-.58A2.1,2.1,0,0,1,299,4a3.16,3.16,0,0,1,.19,1.12v3a5.25,5.25,0,0,0,.12,1.3h-.84a6.93,6.93,0,0,1-.16-.78,2.52,2.52,0,0,1-2.07.9,2.1,2.1,0,0,1-2.19-2.09c0-1.58,1.18-2.27,3.16-2.27.36,0,.72,0,1.12.06V5a1.41,1.41,0,0,0-1.51-1.58,3.14,3.14,0,0,0-1.66.5Zm3.52,2.58a8.74,8.74,0,0,0-1,0c-1.61,0-2.42.49-2.42,1.52a1.39,1.39,0,0,0,1.49,1.38,1.77,1.77,0,0,0,1.92-1.63Z"/><path class="cls-1" d="M301.37,4a2.21,2.21,0,0,1,2-1.31,1.32,1.32,0,0,1,.28,0v.79l-.28,0a2,2,0,0,0-2,2v3.9h-.87V2.91h.87Z"/><path class="cls-1" d="M308.85,8.86a3.36,3.36,0,0,1-2,.64,3.09,3.09,0,0,1-3.16-3.29c0-2,1-3.46,2.9-3.46a2.79,2.79,0,0,1,2.73,3,2.69,2.69,0,0,1,0,.49h-4.7a2.3,2.3,0,0,0,2.3,2.54,2.79,2.79,0,0,0,1.64-.5Zm-.39-3.33a2,2,0,0,0-1.93-2.06,2.2,2.2,0,0,0-1.93,2.06Z"/><path class="cls-1" d="M310.55,2.91V2.16a3.7,3.7,0,0,1,.12-1A1.62,1.62,0,0,1,312.28,0a3.16,3.16,0,0,1,1.14.22l-.24.68a2.78,2.78,0,0,0-.78-.16.85.85,0,0,0-.87.57,2.23,2.23,0,0,0-.11.81v.79h1.37v.71h-1.37V9.37h-.87V3.62h-.9V2.91Z"/><path class="cls-1" d="M318.2,8.3a2.41,2.41,0,0,1-2,1.2,2.27,2.27,0,0,1-2.42-2.41V2.91h.87V7a1.66,1.66,0,0,0,1.63,1.84,2.05,2.05,0,0,0,1.95-2.18V2.91h.87V9.37h-.87Z"/><path class="cls-1" d="M320.4.24h.87V9.37h-.87Z"/><path class="cls-1" d="M322.65.24h.87V9.37h-.87Z"/><path class="cls-1" d="M324.35,11.39a2.69,2.69,0,0,0,2.19-2.07l-2.38-6.41h.93L327,8.26l1.84-5.35h.93l-2.11,5.93c-.69,1.95-1.15,2.88-3,3.29Z"/><path class="cls-1" d="M336.3,3.9A2.75,2.75,0,0,0,335,3.44c-.78,0-1.18.39-1.18.91s.49.9,1.53,1.41,1.68,1,1.68,1.9a1.87,1.87,0,0,1-2.11,1.81,3,3,0,0,1-2.21-.88l.47-.59a2.55,2.55,0,0,0,1.71.74c.7,0,1.29-.31,1.29-1s-.59-.94-1.3-1.27c-.88-.4-1.87-.9-1.87-2a1.72,1.72,0,0,1,1.93-1.72,3.22,3.22,0,0,1,1.81.58Z"/><path class="cls-1" d="M342.71,8.86a3.39,3.39,0,0,1-2,.64,3.09,3.09,0,0,1-3.15-3.29c0-2,1-3.46,2.89-3.46a2.79,2.79,0,0,1,2.73,3,4,4,0,0,1,0,.49h-4.71a2.31,2.31,0,0,0,2.31,2.54,2.84,2.84,0,0,0,1.64-.5Zm-.39-3.33a2,2,0,0,0-1.93-2.06,2.18,2.18,0,0,0-1.93,2.06Z"/><path class="cls-1" d="M344.12.24H345V9.37h-.87Z"/><path class="cls-1" d="M351.21,8.86a3.38,3.38,0,0,1-2,.64A3.09,3.09,0,0,1,346,6.21c0-2,1-3.46,2.9-3.46a2.79,2.79,0,0,1,2.73,3,2.69,2.69,0,0,1,0,.49h-4.7a2.3,2.3,0,0,0,2.3,2.54,2.81,2.81,0,0,0,1.64-.5Zm-.39-3.33a2,2,0,0,0-1.93-2.06A2.2,2.2,0,0,0,347,5.53Z"/><path class="cls-1" d="M357.59,8.72a3,3,0,0,1-2.13.77,3.15,3.15,0,0,1-3.18-3.35,3.12,3.12,0,0,1,3.21-3.41,4.1,4.1,0,0,1,1.95.52l-.34.64a3.39,3.39,0,0,0-1.61-.43,2.39,2.39,0,0,0-2.32,2.69,2.42,2.42,0,0,0,2.34,2.62,2.73,2.73,0,0,0,1.66-.59Z"/><path class="cls-1" d="M358.65,1.22l.87-.27v2h1.53v.71h-1.53V7.78c0,.86.65,1,1.41,1v.73c-1.36,0-2.28-.32-2.28-1.67V3.62h-.92V2.91h.92Z"/><path class="cls-1" d="M366.61,8.86a3.33,3.33,0,0,1-2,.64,3.08,3.08,0,0,1-3.15-3.29c0-2,1-3.46,2.89-3.46a2.79,2.79,0,0,1,2.73,3,4,4,0,0,1,0,.49h-4.71a2.31,2.31,0,0,0,2.31,2.54,2.78,2.78,0,0,0,1.63-.5Zm-.38-3.33a2,2,0,0,0-1.93-2.06,2.18,2.18,0,0,0-1.93,2.06Z"/><path class="cls-1" d="M372.6,3.91V.24h.87V9.37h-.87v-1a2.52,2.52,0,0,1-2.09,1.1c-1.68,0-2.82-1.25-2.82-3.36s1.06-3.42,2.86-3.42A2.37,2.37,0,0,1,372.6,3.91Zm-4,2.23c0,1.28.61,2.68,2,2.68s2-1.19,2-2.68V6c0-1.7-.86-2.63-2-2.63C369.2,3.41,368.59,4.8,368.59,6.14Z"/><path class="cls-1" d="M380.71,2.72c1.8,0,2.86,1.33,2.86,3.42s-1.14,3.36-2.81,3.36a2.52,2.52,0,0,1-2.09-1.1v1h-.87V.24h.87V3.91A2.35,2.35,0,0,1,380.71,2.72Zm0,.69c-1.16,0-2,.93-2,2.63v.1c0,1.49.66,2.68,2,2.68s2-1.4,2-2.68S382.07,3.41,380.69,3.41Z"/><path class="cls-1" d="M384,11.39a2.66,2.66,0,0,0,2.18-2.07l-2.37-6.41h.93l1.89,5.35,1.84-5.35h.93l-2.11,5.93c-.69,1.95-1.15,2.88-3,3.29Z"/><path class="cls-1" d="M.76,23.29a3.8,3.8,0,0,1,2.07-.58A2.1,2.1,0,0,1,5,24a3.16,3.16,0,0,1,.19,1.12v3a5.25,5.25,0,0,0,.12,1.3H4.42a6.93,6.93,0,0,1-.16-.78,2.52,2.52,0,0,1-2.07.9A2.1,2.1,0,0,1,0,27.4c0-1.58,1.18-2.27,3.17-2.27.35,0,.71,0,1.11.06V25a1.41,1.41,0,0,0-1.51-1.58,3.14,3.14,0,0,0-1.66.5Zm3.52,2.58a8.74,8.74,0,0,0-1-.05c-1.61,0-2.42.49-2.42,1.52a1.4,1.4,0,0,0,1.5,1.38,1.77,1.77,0,0,0,1.91-1.63Z"/><path class="cls-1" d="M10.21,23.68a2,2,0,0,1,3.62.3,2.27,2.27,0,0,1,1.95-1.26A2.09,2.09,0,0,1,18,25v4.42h-.86V24.89a1.38,1.38,0,0,0-1.48-1.47,1.57,1.57,0,0,0-1.56,1.77v4.18h-.86V25a1.43,1.43,0,0,0-1.45-1.58,1.61,1.61,0,0,0-1.59,1.75v4.2H9.35V22.91h.86Z"/><path class="cls-1" d="M19.54,23.29a3.81,3.81,0,0,1,2.08-.58A2.09,2.09,0,0,1,23.73,24a3.16,3.16,0,0,1,.19,1.12v3a5.25,5.25,0,0,0,.12,1.3H23.2a6.93,6.93,0,0,1-.16-.78,2.52,2.52,0,0,1-2.07.9,2.1,2.1,0,0,1-2.19-2.09c0-1.58,1.18-2.27,3.17-2.27.35,0,.71,0,1.11.06V25a1.41,1.41,0,0,0-1.51-1.58,3.14,3.14,0,0,0-1.66.5Zm3.52,2.58a8.74,8.74,0,0,0-1-.05c-1.61,0-2.42.49-2.42,1.52a1.4,1.4,0,0,0,1.5,1.38,1.77,1.77,0,0,0,1.91-1.63Z"/><path class="cls-1" d="M28.26,23.9a2.72,2.72,0,0,0-1.34-.46c-.78,0-1.18.39-1.18.91s.5.9,1.53,1.41,1.68,1,1.68,1.9a1.86,1.86,0,0,1-2.1,1.81,3,3,0,0,1-2.21-.88l.47-.59a2.52,2.52,0,0,0,1.7.74c.71,0,1.3-.31,1.3-1s-.59-.94-1.31-1.27c-.88-.4-1.87-.9-1.87-2a1.72,1.72,0,0,1,1.93-1.72,3.2,3.2,0,0,1,1.81.58Z"/><path class="cls-1" d="M30.14,21.22,31,21v2h1.53v.71H31v4.16c0,.86.65,1,1.41,1v.73c-1.36,0-2.28-.32-2.28-1.67V23.62h-.92v-.71h.92Z"/><path class="cls-1" d="M38.1,28.86a3.33,3.33,0,0,1-2,.64,3.08,3.08,0,0,1-3.15-3.29c0-2,1-3.46,2.89-3.46a2.79,2.79,0,0,1,2.73,3,4,4,0,0,1,0,.49H33.82a2.31,2.31,0,0,0,2.31,2.54,2.78,2.78,0,0,0,1.63-.5Zm-.38-3.33a2,2,0,0,0-1.93-2.06,2.18,2.18,0,0,0-1.93,2.06Z"/><path class="cls-1" d="M40.38,24a2.21,2.21,0,0,1,2-1.31,1.37,1.37,0,0,1,.28,0v.79l-.28,0a2,2,0,0,0-2,2v3.9h-.87V22.91h.87Z"/><path class="cls-1" d="M48.91,22.73a3.08,3.08,0,0,1,3,3.39c0,2.08-1.29,3.39-3,3.39s-3-1.31-3-3.39S47.23,22.73,48.91,22.73Zm0,6.09c1.15,0,2.11-1,2.11-2.7s-1-2.69-2.11-2.69-2.09,1-2.09,2.69S47.77,28.82,48.91,28.82Z"/><path class="cls-1" d="M53.25,22.91v-.75a3.36,3.36,0,0,1,.12-1A1.61,1.61,0,0,1,55,20a3.16,3.16,0,0,1,1.14.22l-.25.68a2.71,2.71,0,0,0-.77-.16.85.85,0,0,0-.87.57,2.23,2.23,0,0,0-.11.81v.79h1.36v.71H54.12v5.75h-.87V23.62h-.91v-.71Z"/><path class="cls-1" d="M59.45,20.24h.87v9.13h-.87Z"/><path class="cls-1" d="M62,23.29a3.78,3.78,0,0,1,2.07-.58A2.11,2.11,0,0,1,66.2,24a3.16,3.16,0,0,1,.19,1.12v3a5.76,5.76,0,0,0,.11,1.3h-.83a5.74,5.74,0,0,1-.17-.78,2.5,2.5,0,0,1-2.07.9,2.09,2.09,0,0,1-2.18-2.09c0-1.58,1.17-2.27,3.16-2.27.35,0,.72,0,1.12.06V25A1.41,1.41,0,0,0,64,23.42a3.17,3.17,0,0,0-1.66.5Zm3.52,2.58a9,9,0,0,0-1-.05c-1.61,0-2.42.49-2.42,1.52a1.39,1.39,0,0,0,1.49,1.38,1.77,1.77,0,0,0,1.92-1.63Z"/><path class="cls-1" d="M69.67,28.38l1.94-5.47h.93l-2.4,6.46H69.2l-2.4-6.46h.93Z"/><path class="cls-1" d="M77.83,28.86a3.38,3.38,0,0,1-2,.64,3.09,3.09,0,0,1-3.16-3.29c0-2,1-3.46,2.9-3.46a2.79,2.79,0,0,1,2.73,3,2.69,2.69,0,0,1,0,.49h-4.7a2.3,2.3,0,0,0,2.3,2.54,2.81,2.81,0,0,0,1.64-.5Zm-.39-3.33a2,2,0,0,0-1.93-2.06,2.2,2.2,0,0,0-1.93,2.06Z"/><path class="cls-1" d="M80.11,24a2.21,2.21,0,0,1,2-1.31,1.32,1.32,0,0,1,.28,0v.79l-.28,0a2,2,0,0,0-2,2v3.9h-.87V22.91h.87Z"/><path class="cls-1" d="M91.28,28.29l1.43-5.38h.83l-1.82,6.46h-.86L89.41,23.9,88,29.37h-.85l-1.83-6.46h.84l1.42,5.38L89,22.91h.92Z"/><path class="cls-1" d="M94.15,20.24h1v1.19h-1Zm.08,2.67h.87v6.46h-.87Z"/><path class="cls-1" d="M96.8,21.22l.87-.27v2H99.2v.71H97.67v4.16c0,.86.64,1,1.41,1v.73c-1.37,0-2.28-.32-2.28-1.67V23.62h-.92v-.71h.92Z"/><path class="cls-1" d="M100.91,23.92a2.44,2.44,0,0,1,2-1.2,2.27,2.27,0,0,1,2.42,2.41v4.24h-.87V25.24a1.65,1.65,0,0,0-1.62-1.83,2.06,2.06,0,0,0-2,2.17v3.79H100V20.24h.87Z"/><path class="cls-1" d="M109.36,21.27a3.65,3.65,0,0,1,2.36-.89c1.38,0,2.55.74,2.55,2.16a2.26,2.26,0,0,1-1.57,2,2.44,2.44,0,0,1,2,2.35,2.62,2.62,0,0,1-2.77,2.59,4.54,4.54,0,0,1-2.74-.92l.44-.64a3.65,3.65,0,0,0,2.26.78,1.83,1.83,0,0,0,2-1.83c0-1.55-1.44-1.92-2.64-1.92h-.65v-.73h.65c1,0,2.27-.58,2.27-1.72,0-.93-.75-1.4-1.77-1.4a3.18,3.18,0,0,0-1.85.72Z"/><path class="cls-1" d="M119,24.23a2.6,2.6,0,0,1,1.64,2.49,2.7,2.7,0,0,1-2.84,2.79,3.94,3.94,0,0,1-2.6-1l.46-.6a3.09,3.09,0,0,0,2.06.78,1.94,1.94,0,0,0,2.07-2c0-1.15-.82-2.07-2.53-2.07a10.87,10.87,0,0,0-1.39.12l.13-4.28h4.26v.71H116.8L116.72,24l.6,0A4.42,4.42,0,0,1,119,24.23Z"/><path class="cls-1" d="M124,31.39a2.67,2.67,0,0,0,2.19-2.07l-2.38-6.41h.93l1.9,5.35,1.83-5.35h.93l-2.1,5.93c-.7,1.95-1.16,2.88-3,3.29Z"/><path class="cls-1" d="M134.69,28.86a3.39,3.39,0,0,1-2,.64,3.09,3.09,0,0,1-3.15-3.29c0-2,1-3.46,2.9-3.46a2.78,2.78,0,0,1,2.72,3,4,4,0,0,1,0,.49h-4.7a2.3,2.3,0,0,0,2.3,2.54,2.84,2.84,0,0,0,1.64-.5Zm-.39-3.33a2,2,0,0,0-1.93-2.06,2.18,2.18,0,0,0-1.93,2.06Z"/><path class="cls-1" d="M136.4,23.29a3.78,3.78,0,0,1,2.07-.58A2.11,2.11,0,0,1,140.59,24a3.16,3.16,0,0,1,.19,1.12v3a5.25,5.25,0,0,0,.12,1.3h-.84a6.93,6.93,0,0,1-.16-.78,2.52,2.52,0,0,1-2.07.9,2.1,2.1,0,0,1-2.19-2.09c0-1.58,1.17-2.27,3.16-2.27.36,0,.72,0,1.12.06V25a1.41,1.41,0,0,0-1.52-1.58,3.14,3.14,0,0,0-1.65.5Zm3.52,2.58a8.74,8.74,0,0,0-1-.05c-1.61,0-2.42.49-2.42,1.52A1.39,1.39,0,0,0,138,28.72a1.77,1.77,0,0,0,1.92-1.63Z"/><path class="cls-1" d="M142.92,24a2.21,2.21,0,0,1,2-1.31,1.32,1.32,0,0,1,.28,0v.79l-.28,0a2,2,0,0,0-2,2v3.9h-.87V22.91h.87Z"/><path class="cls-1" d="M148.93,23.9a2.72,2.72,0,0,0-1.34-.46c-.78,0-1.18.39-1.18.91s.49.9,1.53,1.41,1.68,1,1.68,1.9a1.86,1.86,0,0,1-2.1,1.81,3,3,0,0,1-2.22-.88l.48-.59a2.5,2.5,0,0,0,1.7.74c.71,0,1.3-.31,1.3-1s-.59-.94-1.31-1.27c-.88-.4-1.87-.9-1.87-2a1.72,1.72,0,0,1,1.93-1.72,3.2,3.2,0,0,1,1.81.58Z"/><path class="cls-1" d="M156.09,22.73a3.08,3.08,0,0,1,3,3.39c0,2.08-1.3,3.39-3,3.39s-3-1.31-3-3.39S154.41,22.73,156.09,22.73Zm0,6.09c1.15,0,2.11-1,2.11-2.7s-1-2.69-2.11-2.69-2.09,1-2.09,2.69S155,28.82,156.09,28.82Z"/><path class="cls-1" d="M160.43,22.91v-.75a3.36,3.36,0,0,1,.12-1A1.61,1.61,0,0,1,162.16,20a3.2,3.2,0,0,1,1.14.22l-.25.68a2.78,2.78,0,0,0-.78-.16.87.87,0,0,0-.87.57,2.27,2.27,0,0,0-.1.81v.79h1.36v.71H161.3v5.75h-.87V23.62h-.91v-.71Z"/><path class="cls-1" d="M171.46,28.86a3.36,3.36,0,0,1-2,.64,3.09,3.09,0,0,1-3.16-3.29c0-2,1-3.46,2.9-3.46a2.79,2.79,0,0,1,2.73,3,2.69,2.69,0,0,1,0,.49h-4.7a2.3,2.3,0,0,0,2.3,2.54,2.79,2.79,0,0,0,1.64-.5Zm-.39-3.33a2,2,0,0,0-1.93-2.06,2.2,2.2,0,0,0-1.93,2.06Z"/><path class="cls-1" d="M174.86,25.43l1.72-2.52h1l-2.22,3.2,2.26,3.26h-1l-1.73-2.55-1.75,2.55h-1l2.25-3.24-2.2-3.22h1Z"/><path class="cls-1" d="M181.09,22.72c1.77,0,2.86,1.31,2.86,3.43s-1.11,3.35-2.84,3.35A2.51,2.51,0,0,1,179,28.4v3.71h-.87v-9.2H179v1A2.35,2.35,0,0,1,181.09,22.72Zm0,.69c-1.17,0-2,.93-2,2.63v.1c0,1.49.66,2.68,2,2.68s2-1.4,2-2.68S182.44,23.41,181.07,23.41Z"/><path class="cls-1" d="M189.84,28.86a3.33,3.33,0,0,1-2,.64,3.08,3.08,0,0,1-3.15-3.29c0-2,1-3.46,2.89-3.46a2.79,2.79,0,0,1,2.73,3,2.69,2.69,0,0,1,0,.49h-4.7a2.3,2.3,0,0,0,2.3,2.54,2.79,2.79,0,0,0,1.64-.5Zm-.39-3.33a2,2,0,0,0-1.93-2.06,2.2,2.2,0,0,0-1.93,2.06Z"/><path class="cls-1" d="M192.12,24a2.21,2.21,0,0,1,2-1.31,1.42,1.42,0,0,1,.29,0v.79a2.85,2.85,0,0,0-.29,0,2,2,0,0,0-2,2v3.9h-.87V22.91h.87Z"/><path class="cls-1" d="M195,20.24h1v1.19h-1Zm.08,2.67h.87v6.46h-.87Z"/><path class="cls-1" d="M202.15,28.86a3.33,3.33,0,0,1-2,.64A3.08,3.08,0,0,1,197,26.21c0-2,1-3.46,2.89-3.46a2.79,2.79,0,0,1,2.73,3,4,4,0,0,1,0,.49h-4.71a2.31,2.31,0,0,0,2.31,2.54,2.78,2.78,0,0,0,1.63-.5Zm-.38-3.33a2,2,0,0,0-1.93-2.06,2.18,2.18,0,0,0-1.93,2.06Z"/><path class="cls-1" d="M204.43,23.92a2.41,2.41,0,0,1,2-1.2,2.27,2.27,0,0,1,2.42,2.41v4.24H208V25.24a1.64,1.64,0,0,0-1.62-1.83,2,2,0,0,0-2,2.17v3.79h-.87V22.91h.87Z"/><path class="cls-1" d="M215.13,28.72a3.07,3.07,0,0,1-2.13.77,3.15,3.15,0,0,1-3.19-3.35A3.13,3.13,0,0,1,213,22.73a4.1,4.1,0,0,1,1.95.52l-.34.64a3.39,3.39,0,0,0-1.61-.43,2.39,2.39,0,0,0-2.32,2.69A2.42,2.42,0,0,0,213,28.77a2.73,2.73,0,0,0,1.66-.59Z"/><path class="cls-1" d="M220.71,28.86a3.33,3.33,0,0,1-2,.64,3.09,3.09,0,0,1-3.16-3.29c0-2,1-3.46,2.9-3.46a2.79,2.79,0,0,1,2.73,3,2.69,2.69,0,0,1,0,.49h-4.7a2.3,2.3,0,0,0,2.3,2.54,2.79,2.79,0,0,0,1.64-.5Zm-.39-3.33a2,2,0,0,0-1.93-2.06,2.2,2.2,0,0,0-1.93,2.06Z"/><path class="cls-1" d="M225.37,23.29a3.75,3.75,0,0,1,2.07-.58A2.09,2.09,0,0,1,229.55,24a3.16,3.16,0,0,1,.19,1.12v3a5.25,5.25,0,0,0,.12,1.3H229a6.93,6.93,0,0,1-.16-.78,2.52,2.52,0,0,1-2.07.9,2.1,2.1,0,0,1-2.19-2.09c0-1.58,1.18-2.27,3.17-2.27.35,0,.71,0,1.11.06l0-.19a1.42,1.42,0,0,0-1.52-1.58,3.14,3.14,0,0,0-1.66.5Zm3.51,2.58a8.69,8.69,0,0,0-1-.05c-1.62,0-2.43.49-2.43,1.52a1.4,1.4,0,0,0,1.5,1.38,1.77,1.77,0,0,0,1.91-1.63Z"/><path class="cls-1" d="M231.88,23.92a2.4,2.4,0,0,1,2-1.2,2.28,2.28,0,0,1,2.43,2.41v4.24h-.87V25.24a1.65,1.65,0,0,0-1.63-1.83,2,2,0,0,0-2,2.17v3.79H231V22.91h.87Z"/><path class="cls-1" d="M242.17,23.91V20.24H243v9.13h-.87v-1a2.52,2.52,0,0,1-2.09,1.1c-1.67,0-2.81-1.25-2.81-3.36s1.06-3.42,2.86-3.42A2.36,2.36,0,0,1,242.17,23.91Zm-4,2.23c0,1.28.61,2.68,2,2.68s2-1.19,2-2.68V26c0-1.7-.86-2.63-2-2.63C238.77,23.41,238.16,24.8,238.16,26.14Z"/><path class="cls-1" d="M248.24,24a2.21,2.21,0,0,1,2-1.31,1.32,1.32,0,0,1,.28,0v.79l-.28,0a2,2,0,0,0-2,2v3.9h-.87V22.91h.87Z"/><path class="cls-1" d="M253.53,22.73a3.08,3.08,0,0,1,3,3.39c0,2.08-1.29,3.39-3,3.39s-3-1.31-3-3.39S251.85,22.73,253.53,22.73Zm0,6.09c1.15,0,2.11-1,2.11-2.7s-1-2.69-2.11-2.69-2.09,1-2.09,2.69S252.39,28.82,253.53,28.82Z"/><path class="cls-1" d="M257.88,23.29a3.78,3.78,0,0,1,2.07-.58A2.11,2.11,0,0,1,262.07,24a3.16,3.16,0,0,1,.19,1.12v3a5.25,5.25,0,0,0,.12,1.3h-.84a6.93,6.93,0,0,1-.16-.78,2.52,2.52,0,0,1-2.08.9,2.09,2.09,0,0,1-2.18-2.09c0-1.58,1.17-2.27,3.16-2.27.35,0,.72,0,1.12.06V25a1.41,1.41,0,0,0-1.52-1.58,3.2,3.2,0,0,0-1.66.5Zm3.52,2.58a8.86,8.86,0,0,0-1-.05c-1.61,0-2.42.49-2.42,1.52a1.39,1.39,0,0,0,1.49,1.38,1.77,1.77,0,0,0,1.92-1.63Z"/><path class="cls-1" d="M266.6,23.9a2.75,2.75,0,0,0-1.34-.46c-.78,0-1.18.39-1.18.91s.49.9,1.53,1.41,1.68,1,1.68,1.9a1.86,1.86,0,0,1-2.1,1.81,3,3,0,0,1-2.22-.88l.47-.59a2.55,2.55,0,0,0,1.71.74c.71,0,1.29-.31,1.29-1s-.58-.94-1.3-1.27c-.88-.4-1.87-.9-1.87-2a1.72,1.72,0,0,1,1.93-1.72,3.22,3.22,0,0,1,1.81.58Z"/><path class="cls-1" d="M268.48,21.22l.87-.27v2h1.53v.71h-1.53v4.16c0,.86.65,1,1.41,1v.73c-1.37,0-2.28-.32-2.28-1.67V23.62h-.92v-.71h.92Z"/><path class="cls-1" d="M276.44,28.86a3.33,3.33,0,0,1-2,.64,3.09,3.09,0,0,1-3.16-3.29c0-2,1-3.46,2.9-3.46a2.79,2.79,0,0,1,2.73,3,2.69,2.69,0,0,1,0,.49h-4.7a2.3,2.3,0,0,0,2.3,2.54,2.79,2.79,0,0,0,1.64-.5Zm-.39-3.33a2,2,0,0,0-1.93-2.06,2.2,2.2,0,0,0-1.93,2.06Z"/><path class="cls-1" d="M282.43,23.91V20.24h.87v9.13h-.87v-1a2.54,2.54,0,0,1-2.1,1.1c-1.67,0-2.81-1.25-2.81-3.36s1.06-3.42,2.86-3.42A2.38,2.38,0,0,1,282.43,23.91Zm-4,2.23c0,1.28.62,2.68,2,2.68s2-1.19,2-2.68V26c0-1.7-.86-2.63-2-2.63C279,23.41,278.41,24.8,278.41,26.14Z"/><path class="cls-1" d="M290.54,22.72c1.8,0,2.86,1.33,2.86,3.42s-1.14,3.36-2.81,3.36a2.54,2.54,0,0,1-2.1-1.1v1h-.87V20.24h.87v3.67A2.38,2.38,0,0,1,290.54,22.72Zm0,.69c-1.17,0-2,.93-2,2.63v.1c0,1.49.66,2.68,2,2.68s2-1.4,2-2.68S291.89,23.41,290.52,23.41Z"/><path class="cls-1" d="M294.76,23.29a3.78,3.78,0,0,1,2.07-.58A2.11,2.11,0,0,1,299,24a3.16,3.16,0,0,1,.19,1.12v3a5.76,5.76,0,0,0,.11,1.3h-.83c-.09-.3-.17-.78-.17-.78a2.5,2.5,0,0,1-2.07.9A2.09,2.09,0,0,1,294,27.4c0-1.58,1.17-2.27,3.16-2.27.35,0,.72,0,1.12.06V25a1.41,1.41,0,0,0-1.52-1.58,3.2,3.2,0,0,0-1.66.5Zm3.52,2.58a8.86,8.86,0,0,0-1-.05c-1.61,0-2.42.49-2.42,1.52a1.39,1.39,0,0,0,1.49,1.38,1.77,1.77,0,0,0,1.92-1.63Z"/><path class="cls-1" d="M299.84,31.39A2.67,2.67,0,0,0,302,29.32l-2.38-6.41h.93l1.9,5.35,1.83-5.35h.93l-2.11,5.93c-.69,1.95-1.15,2.88-3,3.29Z"/><path class="cls-1" d="M311.79,23.9a2.72,2.72,0,0,0-1.34-.46c-.78,0-1.18.39-1.18.91s.5.9,1.53,1.41,1.68,1,1.68,1.9a1.86,1.86,0,0,1-2.1,1.81,3,3,0,0,1-2.21-.88l.47-.59a2.52,2.52,0,0,0,1.7.74c.71,0,1.3-.31,1.3-1s-.59-.94-1.31-1.27c-.88-.4-1.87-.9-1.87-2a1.72,1.72,0,0,1,1.93-1.72,3.2,3.2,0,0,1,1.81.58Z"/><path class="cls-1" d="M313.67,23.29a3.78,3.78,0,0,1,2.07-.58A2.11,2.11,0,0,1,317.86,24a3.16,3.16,0,0,1,.19,1.12v3a5.76,5.76,0,0,0,.11,1.3h-.83a5.74,5.74,0,0,1-.17-.78,2.5,2.5,0,0,1-2.07.9,2.09,2.09,0,0,1-2.18-2.09c0-1.58,1.17-2.27,3.16-2.27.35,0,.72,0,1.12.06V25a1.41,1.41,0,0,0-1.52-1.58,3.17,3.17,0,0,0-1.66.5Zm3.52,2.58a9,9,0,0,0-1-.05c-1.61,0-2.42.49-2.42,1.52a1.39,1.39,0,0,0,1.49,1.38,1.77,1.77,0,0,0,1.92-1.63Z"/><path class="cls-1" d="M319.31,20.24h.88v9.13h-.88Z"/><path class="cls-1" d="M321.88,21.22l.87-.27v2h1.53v.71h-1.53v4.16c0,.86.65,1,1.41,1v.73c-1.36,0-2.28-.32-2.28-1.67V23.62H321v-.71h.92Z"/><path class="cls-1" d="M328.93,24a2.21,2.21,0,0,1,2-1.31,1.37,1.37,0,0,1,.28,0v.79l-.28,0a2,2,0,0,0-2,2v3.9h-.87V22.91h.87Z"/><path class="cls-1" d="M331.79,20.24h1v1.19h-1Zm.08,2.67h.87v6.46h-.87Z"/><path class="cls-1" d="M339.11,28.72a3.07,3.07,0,0,1-2.13.77,3.15,3.15,0,0,1-3.19-3.35A3.13,3.13,0,0,1,337,22.73a4.17,4.17,0,0,1,2,.52l-.35.64a3.36,3.36,0,0,0-1.61-.43,2.4,2.4,0,0,0-2.32,2.69A2.42,2.42,0,0,0,337,28.77a2.73,2.73,0,0,0,1.65-.59Z"/><path class="cls-1" d="M340.73,23.92a2.42,2.42,0,0,1,2-1.2,2.28,2.28,0,0,1,2.43,2.41v4.24h-.87V25.24a1.65,1.65,0,0,0-1.63-1.83,2.06,2.06,0,0,0-1.95,2.17v3.79h-.87V20.24h.87Z"/><path class="cls-1" d="M349.3,20.24h1v1.19h-1Zm.08,2.67h.87v6.46h-.87Z"/><path class="cls-1" d="M352.51,23.92a2.41,2.41,0,0,1,2-1.2A2.27,2.27,0,0,1,357,25.13v4.24h-.87V25.24a1.65,1.65,0,0,0-1.62-1.83,2,2,0,0,0-2,2.17v3.79h-.87V22.91h.87Z"/><path class="cls-1" d="M362,23.68a2,2,0,0,1,3.62.3,2.27,2.27,0,0,1,2-1.26A2.1,2.1,0,0,1,369.83,25v4.42H369V24.89a1.38,1.38,0,0,0-1.48-1.47,1.57,1.57,0,0,0-1.56,1.77v4.18h-.86V25a1.44,1.44,0,0,0-1.46-1.58A1.61,1.61,0,0,0,362,25.17v4.2h-.86V22.91H362Z"/><path class="cls-1" d="M371,20.24h1v1.19h-1Zm.08,2.67h.87v6.46h-.87Z"/><path class="cls-1" d="M374.19,23.92a2.4,2.4,0,0,1,2-1.2,2.27,2.27,0,0,1,2.42,2.41v4.24h-.87V25.24a1.64,1.64,0,0,0-1.62-1.83,2,2,0,0,0-1.95,2.17v3.79h-.87V22.91h.87Z"/><path class="cls-1" d="M384.74,28.86a3.39,3.39,0,0,1-2,.64,3.09,3.09,0,0,1-3.15-3.29c0-2,1-3.46,2.89-3.46a2.79,2.79,0,0,1,2.73,3,4,4,0,0,1,0,.49h-4.71a2.31,2.31,0,0,0,2.31,2.54,2.78,2.78,0,0,0,1.63-.5Zm-.39-3.33a2,2,0,0,0-1.93-2.06,2.18,2.18,0,0,0-1.93,2.06Z"/><path class="cls-1" d="M387,24a2.19,2.19,0,0,1,2-1.31,1.32,1.32,0,0,1,.28,0v.79l-.28,0a2,2,0,0,0-2,2v3.9h-.87V22.91H387Z"/><path class="cls-1" d="M389.91,23.29a3.78,3.78,0,0,1,2.07-.58A2.11,2.11,0,0,1,394.1,24a3.4,3.4,0,0,1,.19,1.12v3a5.76,5.76,0,0,0,.11,1.3h-.83a5.74,5.74,0,0,1-.17-.78,2.5,2.5,0,0,1-2.07.9,2.1,2.1,0,0,1-2.19-2.09c0-1.58,1.18-2.27,3.17-2.27.35,0,.72,0,1.12.06V25a1.41,1.41,0,0,0-1.52-1.58,3.17,3.17,0,0,0-1.66.5Zm3.52,2.58a9,9,0,0,0-1-.05c-1.61,0-2.43.49-2.43,1.52a1.4,1.4,0,0,0,1.5,1.38,1.77,1.77,0,0,0,1.92-1.63Z"/><path class="cls-1" d="M395.55,20.24h.87v9.13h-.87Z"/><path class="cls-1" d="M400.88,23.9a2.72,2.72,0,0,0-1.34-.46c-.78,0-1.18.39-1.18.91s.5.9,1.53,1.41,1.69,1,1.69,1.9a1.87,1.87,0,0,1-2.11,1.81,3,3,0,0,1-2.21-.88l.47-.59a2.54,2.54,0,0,0,1.7.74c.71,0,1.3-.31,1.3-1s-.59-.94-1.31-1.27c-.88-.4-1.87-.9-1.87-2a1.72,1.72,0,0,1,1.93-1.72,3.17,3.17,0,0,1,1.81.58Z"/><path class="cls-1" d="M402.43,28.74h1.26V30h-1.26Z"/></g></g></svg>