<svg xmlns="http://www.w3.org/2000/svg" viewBox="0 0 364.4 138"><defs><style>.cls-1{fill:none;stroke:#f5f5f5;stroke-miterlimit:10;stroke-width:2px;}.cls-2{fill:#231815;}</style></defs><title>자산 189</title><g id="레이어_2" data-name="레이어 2"><g id="레이어_1-2" data-name="레이어 1"><rect class="cls-1" x="1" y="1" width="110" height="136" rx="15.22"/><rect class="cls-1" x="127.2" y="1" width="110" height="136" rx="15.22"/><rect class="cls-1" x="253.4" y="1" width="110" height="136" rx="15.22"/><path class="cls-2" d="M30.51,93.25V98.5a2.51,2.51,0,0,1-2.76,2.56A2.51,2.51,0,0,1,25,98.5V93.25h.84v5.09a1.84,1.84,0,0,0,1.94,2,1.79,1.79,0,0,0,1.92-2V93.25Z"/><path class="cls-2" d="M34.4,96.29a2.13,2.13,0,0,0-1.16-.42c-.63,0-.94.32-.94.75s.4.76,1.26,1.18S35,98.68,35,99.49a1.65,1.65,0,0,1-1.85,1.6,2.6,2.6,0,0,1-1.95-.79l.45-.58a2.25,2.25,0,0,0,1.47.67c.57,0,1.06-.28,1.06-.88s-.5-.79-1.09-1.06c-.76-.35-1.62-.8-1.62-1.77a1.51,1.51,0,0,1,1.69-1.51,2.86,2.86,0,0,1,1.61.52Z"/><path class="cls-2" d="M35.79,93.06h1v1.1h-1Zm.07,2.28h.84v5.59h-.84Z"/><path class="cls-2" d="M38.72,96.12a2.11,2.11,0,0,1,1.66-.92,2,2,0,0,1,2.13,2.09v3.64h-.84V97.39a1.37,1.37,0,0,0-1.34-1.51,1.66,1.66,0,0,0-1.61,1.8v3.25h-.85V95.34h.85Z"/><path class="cls-2" d="M45.82,95.16a1.89,1.89,0,0,1,1.7,1v-.79h.84v5.09a2.47,2.47,0,0,1-2.52,2.77,3.91,3.91,0,0,1-2-.54l.3-.64a3.48,3.48,0,0,0,1.64.47c.91,0,1.7-.62,1.7-2.08V100a2,2,0,0,1-1.71.95c-1.45,0-2.47-1.1-2.47-2.9S44.39,95.16,45.82,95.16Zm0,.71c-1.2,0-1.63,1.08-1.63,2.2s.55,2.2,1.63,2.2,1.65-.9,1.68-2.06v-.07C47.52,96.59,46.82,95.87,45.84,95.87Z"/><path class="cls-2" d="M56.34,100.39a2.65,2.65,0,0,1-1.87.68,3,3,0,0,1,0-5.91,3.44,3.44,0,0,1,1.73.49l-.33.62a2.89,2.89,0,0,0-1.4-.4,2.28,2.28,0,0,0,0,4.51,2.17,2.17,0,0,0,1.42-.52Z"/><path class="cls-2" d="M57.24,95.7a3.45,3.45,0,0,1,1.85-.54A1.84,1.84,0,0,1,61,96.33a2.8,2.8,0,0,1,.13,1v2.47a4.72,4.72,0,0,0,.12,1.18h-.85c0-.19-.08-.65-.08-.65a2.25,2.25,0,0,1-1.73.78,1.83,1.83,0,0,1-2-1.83c0-1.46,1.17-2,2.75-2,.3,0,.59,0,.91,0V97.2A1.17,1.17,0,0,0,59,95.87a2.53,2.53,0,0,0-1.39.45Zm1.43,4.63a1.47,1.47,0,0,0,1.6-1.46v-.93a7.94,7.94,0,0,0-.83,0c-1.18,0-2,.34-2,1.29A1.14,1.14,0,0,0,58.67,100.33Z"/><path class="cls-2" d="M63.06,96.14a1.82,1.82,0,0,1,1.66-1l.29,0V96l-.27,0a1.56,1.56,0,0,0-1.68,1.47v3.53h-.84V95.34h.84Z"/><path class="cls-2" d="M69.57,100.49a2.93,2.93,0,0,1-1.79.58A2.69,2.69,0,0,1,65,98.22c0-1.75.94-3.06,2.5-3.06a2.48,2.48,0,0,1,2.4,2.68,3.52,3.52,0,0,1,0,.45h-4a1.9,1.9,0,0,0,1.91,2.09,2.42,2.42,0,0,0,1.41-.45Zm-.44-2.89a1.64,1.64,0,0,0-1.59-1.73,1.84,1.84,0,0,0-1.6,1.73Z"/><path class="cls-2" d="M71.05,95.34v-.6a3.5,3.5,0,0,1,.1-.88,1.42,1.42,0,0,1,1.43-1,3,3,0,0,1,1,.21l-.24.66a2.35,2.35,0,0,0-.7-.14A.67.67,0,0,0,72,94a1.89,1.89,0,0,0-.1.69v.63h1.17V96H71.89v4.9h-.84V96h-.78v-.69Z"/><path class="cls-2" d="M77.72,100.15a2.11,2.11,0,0,1-1.67.92A2,2,0,0,1,73.93,99V95.34h.84v3.54a1.37,1.37,0,0,0,1.33,1.51,1.66,1.66,0,0,0,1.62-1.8V95.34h.84v5.59h-.84Z"/><path class="cls-2" d="M79.74,93.06h.84v7.87h-.84Z"/><path class="cls-2" d="M81.76,93.06h.84v7.87h-.84Z"/><path class="cls-2" d="M83.27,102.59a2.28,2.28,0,0,0,1.9-1.74l-2.06-5.51H84l1.58,4.46,1.53-4.46H88l-1.82,5.11c-.61,1.7-1,2.48-2.66,2.85Z"/><path class="cls-2" d="M41.09,108.29a2.13,2.13,0,0,0-1.16-.42c-.63,0-.94.32-.94.75s.4.76,1.26,1.18,1.47.88,1.47,1.69a1.65,1.65,0,0,1-1.85,1.6,2.6,2.6,0,0,1-1.95-.79l.45-.58a2.25,2.25,0,0,0,1.47.67c.57,0,1.06-.28,1.06-.88s-.5-.79-1.09-1.06c-.76-.35-1.63-.8-1.63-1.77a1.52,1.52,0,0,1,1.7-1.51,2.83,2.83,0,0,1,1.6.52Z"/><path class="cls-2" d="M46.78,112.49a2.93,2.93,0,0,1-1.79.58,2.69,2.69,0,0,1-2.74-2.85c0-1.75.94-3.06,2.5-3.06a2.48,2.48,0,0,1,2.4,2.68,3.52,3.52,0,0,1,0,.45h-4A1.9,1.9,0,0,0,45,112.38a2.42,2.42,0,0,0,1.41-.45Zm-.44-2.89a1.64,1.64,0,0,0-1.59-1.73,1.84,1.84,0,0,0-1.6,1.73Z"/><path class="cls-2" d="M48,105.06h.85v7.87H48Z"/><path class="cls-2" d="M54.26,112.49a2.9,2.9,0,0,1-1.78.58,2.69,2.69,0,0,1-2.74-2.85c0-1.75.94-3.06,2.5-3.06a2.48,2.48,0,0,1,2.4,2.68,3.52,3.52,0,0,1,0,.45h-4a1.9,1.9,0,0,0,1.91,2.09,2.42,2.42,0,0,0,1.41-.45Zm-.44-2.89a1.64,1.64,0,0,0-1.58-1.73,1.83,1.83,0,0,0-1.6,1.73Z"/><path class="cls-2" d="M59.85,112.39a2.65,2.65,0,0,1-1.87.68,3,3,0,0,1,0-5.91,3.43,3.43,0,0,1,1.72.49l-.33.62a2.82,2.82,0,0,0-1.39-.4,2.28,2.28,0,0,0,0,4.51,2.17,2.17,0,0,0,1.42-.52Z"/><path class="cls-2" d="M60.77,105.91l.82-.27v1.7h1.3V108h-1.3v3.53c0,.71.55.8,1.2.81v.7c-1.22,0-2-.27-2-1.46V108H60v-.69h.78Z"/><path class="cls-2" d="M67.89,112.49a2.93,2.93,0,0,1-1.79.58,2.69,2.69,0,0,1-2.74-2.85c0-1.75.94-3.06,2.5-3.06a2.48,2.48,0,0,1,2.4,2.68,3.52,3.52,0,0,1,0,.45h-4a1.9,1.9,0,0,0,1.91,2.09,2.42,2.42,0,0,0,1.41-.45Zm-.45-2.89a1.63,1.63,0,0,0-1.58-1.73,1.84,1.84,0,0,0-1.6,1.73Z"/><path class="cls-2" d="M71.31,107.19a1.94,1.94,0,0,1,1.69.94v-3.07h.84v7.87H73v-.73a2,2,0,0,1-1.69.87c-1.51,0-2.48-1.1-2.48-2.9S69.8,107.19,71.31,107.19Zm0,.68c-1.21,0-1.64,1.19-1.64,2.31s.5,2.24,1.64,2.24,1.64-1,1.67-2.16v-.21C73,108.58,72.3,107.87,71.33,107.87Z"/><path class="cls-2" d="M29,120.14a1.82,1.82,0,0,1,1.66-1l.29,0V120l-.26,0A1.56,1.56,0,0,0,29,121.4v3.53h-.84v-5.59H29Z"/><path class="cls-2" d="M31.46,119.7a3.47,3.47,0,0,1,1.85-.54,1.84,1.84,0,0,1,1.88,1.17,2.8,2.8,0,0,1,.13,1v2.47a4.72,4.72,0,0,0,.12,1.18H34.6c0-.19-.09-.65-.09-.65a2.25,2.25,0,0,1-1.73.78,1.83,1.83,0,0,1-2-1.83c0-1.46,1.17-2,2.76-2,.29,0,.58,0,.9,0v-.07a1.17,1.17,0,0,0-1.28-1.33,2.53,2.53,0,0,0-1.39.45Zm1.43,4.63a1.47,1.47,0,0,0,1.6-1.46v-.93a7.88,7.88,0,0,0-.82,0c-1.19,0-2,.34-2,1.29A1.14,1.14,0,0,0,32.89,124.33Z"/><path class="cls-2" d="M37.85,123.77,39,119.34h.86L41,123.76l1.2-4.42h.82l-1.6,5.59h-.81l-1.2-4.51-1.2,4.51h-.81l-1.59-5.59h.82Z"/><path class="cls-2" d="M46.91,120a1.72,1.72,0,0,1,1.4-.75,1.74,1.74,0,0,1,1.64,1,1.89,1.89,0,0,1,1.66-1,1.81,1.81,0,0,1,1.94,1.94v3.78h-.84v-3.82a1.13,1.13,0,0,0-1.2-1.22,1.29,1.29,0,0,0-1.27,1.47v3.57H49.4v-3.74a1.18,1.18,0,0,0-1.19-1.3,1.33,1.33,0,0,0-1.3,1.45v3.59h-.83v-5.59h.83Z"/><path class="cls-2" d="M54.94,119.7a3.47,3.47,0,0,1,1.85-.54,1.84,1.84,0,0,1,1.88,1.17,2.8,2.8,0,0,1,.13,1v2.47a4.72,4.72,0,0,0,.12,1.18h-.84c0-.19-.09-.65-.09-.65a2.23,2.23,0,0,1-1.73.78,1.82,1.82,0,0,1-1.94-1.83c0-1.46,1.16-2,2.75-2,.29,0,.58,0,.9,0v-.07a1.16,1.16,0,0,0-1.28-1.33,2.58,2.58,0,0,0-1.39.45Zm1.43,4.63a1.47,1.47,0,0,0,1.6-1.46v-.93a7.88,7.88,0,0,0-.82,0c-1.19,0-2,.34-2,1.29A1.14,1.14,0,0,0,56.37,124.33Z"/><path class="cls-2" d="M60.17,117.91l.82-.27v1.7h1.3V120H61v3.53c0,.71.56.8,1.2.81v.7c-1.22,0-2-.27-2-1.46V120h-.78v-.69h.78Z"/><path class="cls-2" d="M67.29,124.49a2.92,2.92,0,0,1-1.78.58,2.7,2.7,0,0,1-2.75-2.85c0-1.75.94-3.06,2.5-3.06a2.48,2.48,0,0,1,2.4,2.68,3.52,3.52,0,0,1,0,.45h-4a1.9,1.9,0,0,0,1.91,2.09,2.42,2.42,0,0,0,1.41-.45Zm-.44-2.89a1.64,1.64,0,0,0-1.59-1.73,1.84,1.84,0,0,0-1.6,1.73Z"/><path class="cls-2" d="M69.37,120.14a1.82,1.82,0,0,1,1.65-1l.3,0V120l-.27,0a1.56,1.56,0,0,0-1.68,1.47v3.53h-.85v-5.59h.85Z"/><path class="cls-2" d="M71.82,117.06h1v1.1h-1Zm.07,2.28h.84v5.59h-.84Z"/><path class="cls-2" d="M74.14,119.7a3.45,3.45,0,0,1,1.85-.54,1.84,1.84,0,0,1,1.88,1.17,2.8,2.8,0,0,1,.13,1v2.47a4.72,4.72,0,0,0,.12,1.18h-.85c0-.19-.08-.65-.08-.65a2.25,2.25,0,0,1-1.73.78,1.83,1.83,0,0,1-1.95-1.83c0-1.46,1.17-2,2.76-2,.29,0,.58,0,.9,0v-.07a1.17,1.17,0,0,0-1.28-1.33,2.53,2.53,0,0,0-1.39.45Zm1.43,4.63a1.47,1.47,0,0,0,1.6-1.46v-.93a7.94,7.94,0,0,0-.83,0c-1.18,0-2,.34-2,1.29A1.13,1.13,0,0,0,75.57,124.33Z"/><path class="cls-2" d="M79.12,117.06H80v7.87h-.84Z"/><path class="cls-2" d="M83.82,120.29a2.14,2.14,0,0,0-1.17-.42c-.62,0-.94.32-.94.75s.41.76,1.27,1.18,1.47.88,1.47,1.69a1.65,1.65,0,0,1-1.85,1.6,2.6,2.6,0,0,1-1.95-.79l.45-.58a2.25,2.25,0,0,0,1.47.67c.57,0,1.05-.28,1.05-.88s-.49-.79-1.08-1.06c-.77-.35-1.63-.8-1.63-1.77a1.52,1.52,0,0,1,1.7-1.51,2.85,2.85,0,0,1,1.6.52Z"/><path class="cls-2" d="M174,100.93h-1l-2.12-3.26h-1.57v3.26h-.84V93.25H171a2.27,2.27,0,0,1,2.53,2.19,2.24,2.24,0,0,1-1.77,2.14Zm-3-3.94a1.59,1.59,0,0,0,1.76-1.55,1.52,1.52,0,0,0-1.69-1.5h-1.74v3Z"/><path class="cls-2" d="M174.54,93.06h1v1.1h-1Zm.07,2.28h.84v5.59h-.84Z"/><path class="cls-2" d="M181,100.39a2.65,2.65,0,0,1-1.87.68,3,3,0,0,1,0-5.91,3.43,3.43,0,0,1,1.72.49l-.33.62a2.88,2.88,0,0,0-1.39-.4,2.28,2.28,0,0,0,0,4.51,2.21,2.21,0,0,0,1.43-.52Z"/><path class="cls-2" d="M182.49,96.11a2.18,2.18,0,0,1,1.66-.91,2,2,0,0,1,2.13,2.08v3.65h-.84V97.38a1.36,1.36,0,0,0-1.34-1.5,1.65,1.65,0,0,0-1.61,1.79v3.26h-.85V93.06h.85Z"/><path class="cls-2" d="M189.79,93.06h1v1.1h-1Zm.07,2.28h.84v5.59h-.84Z"/><path class="cls-2" d="M192.72,96.12a2.11,2.11,0,0,1,1.66-.92,2,2,0,0,1,2.13,2.09v3.64h-.84V97.39a1.37,1.37,0,0,0-1.34-1.51,1.66,1.66,0,0,0-1.61,1.8v3.25h-.84V95.34h.84Z"/><path class="cls-2" d="M135.41,109.73a2.14,2.14,0,0,1,1.67-.91,2,2,0,0,1,2.13,2.08v3.64h-.85V111a1.36,1.36,0,0,0-1.33-1.5,1.66,1.66,0,0,0-1.62,1.79v3.25h-.84V109h.84Z"/><path class="cls-2" d="M144.08,113.76a2.12,2.12,0,0,1-1.67.92,2,2,0,0,1-2.13-2.09V109h.85v3.53a1.36,1.36,0,0,0,1.33,1.51,1.66,1.66,0,0,0,1.62-1.8V109h.84v5.58h-.84Z"/><path class="cls-2" d="M146.35,107.53l.81-.27V109h1.31v.69h-1.31v3.52c0,.71.56.8,1.21.81v.7c-1.23,0-2-.27-2-1.46v-3.57h-.78V109h.78Z"/><path class="cls-2" d="M150.17,109.76a1.83,1.83,0,0,1,1.66-1l.29,0v.75l-.26,0a1.57,1.57,0,0,0-1.69,1.46v3.53h-.84V109h.84Z"/><path class="cls-2" d="M152.62,106.68h1v1.1h-1Zm.07,2.28h.84v5.58h-.84Z"/><path class="cls-2" d="M158.94,114.1a2.92,2.92,0,0,1-1.78.58,2.69,2.69,0,0,1-2.74-2.85c0-1.75.94-3,2.49-3a2.47,2.47,0,0,1,2.4,2.67,3.52,3.52,0,0,1,0,.45h-4A1.9,1.9,0,0,0,157.2,114a2.42,2.42,0,0,0,1.41-.45Zm-.44-2.89a1.64,1.64,0,0,0-1.59-1.73,1.84,1.84,0,0,0-1.59,1.73Z"/><path class="cls-2" d="M161,109.73a2.13,2.13,0,0,1,1.67-.91,2,2,0,0,1,2.12,2.08v3.64H164V111a1.36,1.36,0,0,0-1.33-1.5,1.66,1.66,0,0,0-1.62,1.79v3.25h-.84V109H161Z"/><path class="cls-2" d="M166.2,107.53l.81-.27V109h1.3v.69H167v3.52c0,.71.56.8,1.2.81v.7c-1.22,0-2-.27-2-1.46v-3.57h-.79V109h.79Z"/><path class="cls-2" d="M171.86,109.9a2.28,2.28,0,0,0-1.17-.42c-.62,0-.94.33-.94.75s.4.76,1.27,1.18,1.47.88,1.47,1.69a1.66,1.66,0,0,1-1.86,1.6,2.61,2.61,0,0,1-1.95-.79l.46-.58a2.24,2.24,0,0,0,1.46.67c.57,0,1.06-.28,1.06-.88s-.5-.79-1.08-1.06c-.77-.35-1.63-.8-1.63-1.77a1.51,1.51,0,0,1,1.69-1.5,2.86,2.86,0,0,1,1.61.52Z"/><path class="cls-2" d="M176,109.32a3.42,3.42,0,0,1,1.85-.54,1.86,1.86,0,0,1,1.88,1.16,2.84,2.84,0,0,1,.12,1v2.47a4.72,4.72,0,0,0,.12,1.18h-.84c0-.19-.09-.65-.09-.65a2.23,2.23,0,0,1-1.72.78,1.83,1.83,0,0,1-1.95-1.83c0-1.46,1.16-2,2.75-2,.29,0,.59,0,.9,0v-.06c0-.76-.33-1.34-1.27-1.34a2.54,2.54,0,0,0-1.39.46Zm1.43,4.62a1.46,1.46,0,0,0,1.59-1.46v-.93a7.75,7.75,0,0,0-.82,0c-1.19,0-2,.34-2,1.29A1.14,1.14,0,0,0,177.43,113.94Z"/><path class="cls-2" d="M181.82,109.73a2.12,2.12,0,0,1,1.66-.91,2,2,0,0,1,2.13,2.08v3.64h-.85V111a1.36,1.36,0,0,0-1.33-1.5,1.65,1.65,0,0,0-1.61,1.79v3.25H181V109h.85Z"/><path class="cls-2" d="M188.92,108.81a2,2,0,0,1,1.7.94v-3.07h.84v7.86h-.84v-.73a2,2,0,0,1-1.7.87c-1.51,0-2.48-1.1-2.48-2.9S187.41,108.81,188.92,108.81Zm0,.67c-1.21,0-1.64,1.19-1.64,2.31s.5,2.24,1.64,2.24,1.65-1,1.68-2.16v-.21C190.59,110.19,189.91,109.48,188.94,109.48Z"/><path class="cls-2" d="M195.92,109.58a1.69,1.69,0,0,1,1.39-.75,1.74,1.74,0,0,1,1.64,1,1.89,1.89,0,0,1,1.66-1,1.81,1.81,0,0,1,1.94,1.93v3.78h-.83v-3.82a1.14,1.14,0,0,0-1.21-1.21,1.29,1.29,0,0,0-1.27,1.46v3.57h-.83V110.8a1.17,1.17,0,0,0-1.2-1.29,1.32,1.32,0,0,0-1.29,1.44v3.59h-.83V109h.83Z"/><path class="cls-2" d="M203.64,106.68h1v1.1h-1Zm.07,2.28h.84v5.58h-.84Z"/><path class="cls-2" d="M206.57,109.73a2.13,2.13,0,0,1,1.67-.91,2,2,0,0,1,2.12,2.08v3.64h-.84V111a1.36,1.36,0,0,0-1.33-1.5,1.66,1.66,0,0,0-1.62,1.79v3.25h-.84V109h.84Z"/><path class="cls-2" d="M215.72,114.1a2.9,2.9,0,0,1-1.78.58,2.69,2.69,0,0,1-2.74-2.85c0-1.75.94-3,2.49-3a2.47,2.47,0,0,1,2.4,2.67c0,.15,0,.29,0,.45h-4A1.9,1.9,0,0,0,214,114a2.42,2.42,0,0,0,1.41-.45Zm-.44-2.89a1.64,1.64,0,0,0-1.59-1.73,1.84,1.84,0,0,0-1.59,1.73Z"/><path class="cls-2" d="M217.8,109.76a1.82,1.82,0,0,1,1.66-1l.29,0v.75l-.26,0A1.56,1.56,0,0,0,217.8,111v3.53H217V109h.84Z"/><path class="cls-2" d="M220.26,109.32a3.45,3.45,0,0,1,1.85-.54,1.85,1.85,0,0,1,1.88,1.16,2.8,2.8,0,0,1,.13,1v2.47a4.72,4.72,0,0,0,.12,1.18h-.84c0-.19-.09-.65-.09-.65a2.25,2.25,0,0,1-1.73.78,1.83,1.83,0,0,1-2-1.83c0-1.46,1.17-2,2.76-2,.29,0,.58,0,.9,0v-.06a1.17,1.17,0,0,0-1.28-1.34,2.54,2.54,0,0,0-1.39.46Zm1.43,4.62a1.47,1.47,0,0,0,1.6-1.46v-.93a7.88,7.88,0,0,0-.82,0c-1.19,0-2,.34-2,1.29A1.13,1.13,0,0,0,221.69,113.94Z"/><path class="cls-2" d="M225.24,106.68h.84v7.86h-.84Z"/><path class="cls-2" d="M229.94,109.9a2.21,2.21,0,0,0-1.16-.42c-.63,0-.94.33-.94.75s.4.76,1.26,1.18,1.47.88,1.47,1.69a1.65,1.65,0,0,1-1.85,1.6,2.6,2.6,0,0,1-1.95-.79l.45-.58a2.25,2.25,0,0,0,1.47.67c.57,0,1.06-.28,1.06-.88s-.5-.79-1.09-1.06c-.77-.35-1.63-.8-1.63-1.77a1.51,1.51,0,0,1,1.7-1.5,2.85,2.85,0,0,1,1.6.52Z"/><path d="M286.21,94.46a3.26,3.26,0,0,0-1.75-.6c-.9,0-1.43.45-1.43,1.14s.63,1.11,1.89,1.66,2,1.15,2,2.29c0,1.47-1.28,2.11-2.52,2.11a3.87,3.87,0,0,1-2.59-1l.46-.64a3.24,3.24,0,0,0,2.07.88c.73,0,1.72-.3,1.72-1.36,0-.71-.65-1.18-1.76-1.65s-2.16-1-2.16-2.26c0-1.44,1.21-1.92,2.28-1.92a4.16,4.16,0,0,1,2.15.67Z"/><path d="M288.05,93.91l.81-.27v1.7h1.3V96h-1.3v3.53c0,.71.56.8,1.21.81v.7c-1.23,0-2-.27-2-1.46V96h-.79v-.69h.79Z"/><path d="M291.87,96.14a1.82,1.82,0,0,1,1.65-1l.3,0V96l-.27,0a1.56,1.56,0,0,0-1.68,1.47v3.53H291V95.34h.84Z"/><path d="M294.32,93.06h1v1.1h-1Zm.07,2.28h.84v5.59h-.84Z"/><path d="M300.76,100.39a2.65,2.65,0,0,1-1.87.68,3,3,0,0,1,0-5.91,3.44,3.44,0,0,1,1.73.49l-.33.62a2.89,2.89,0,0,0-1.4-.4,2.28,2.28,0,0,0,0,4.51,2.17,2.17,0,0,0,1.42-.52Z"/><path d="M301.68,93.91l.81-.27v1.7h1.31V96h-1.31v3.53c0,.71.56.8,1.21.81v.7c-1.23,0-2-.27-2-1.46V96h-.78v-.69h.78Z"/><path d="M309.29,95.19a2,2,0,0,1,1.7.94v-.79h.84v7.94H311V100.2a2,2,0,0,1-1.7.87c-1.51,0-2.48-1.1-2.48-2.9S307.78,95.19,309.29,95.19Zm0,.68c-1.2,0-1.63,1.19-1.63,2.31s.5,2.24,1.63,2.24,1.65-1,1.68-2.16v-.21C311,96.58,310.28,95.87,309.31,95.87Z"/><path d="M316.75,100.15a2.11,2.11,0,0,1-1.67.92A2,2,0,0,1,313,99V95.34h.84v3.54a1.37,1.37,0,0,0,1.33,1.51,1.66,1.66,0,0,0,1.62-1.8V95.34h.84v5.59h-.84Z"/><path d="M319,95.7a3.42,3.42,0,0,1,1.85-.54,1.85,1.85,0,0,1,1.88,1.17,2.84,2.84,0,0,1,.12,1v2.47a4.72,4.72,0,0,0,.12,1.18h-.84c0-.19-.09-.65-.09-.65a2.23,2.23,0,0,1-1.72.78,1.83,1.83,0,0,1-1.95-1.83c0-1.46,1.16-2,2.75-2,.29,0,.59,0,.9,0V97.2a1.16,1.16,0,0,0-1.27-1.33,2.53,2.53,0,0,0-1.39.45Zm1.43,4.63A1.46,1.46,0,0,0,322,98.87v-.93a7.75,7.75,0,0,0-.82,0c-1.19,0-2,.34-2,1.29A1.14,1.14,0,0,0,320.44,100.33Z"/><path d="M324,93.06h.85v7.87H324Z"/><path d="M325.93,93.06h1v1.1h-1Zm.07,2.28h.84v5.59H326Z"/><path d="M328.28,93.91l.81-.27v1.7h1.3V96h-1.3v3.53c0,.71.56.8,1.2.81v.7c-1.22,0-2-.27-2-1.46V96h-.79v-.69h.79Z"/><path d="M330.75,102.59a2.31,2.31,0,0,0,1.9-1.74l-2.06-5.51h.9l1.58,4.46,1.53-4.46h.9l-1.83,5.11c-.6,1.7-1,2.48-2.65,2.85Z"/><path d="M298.15,114a2.62,2.62,0,0,1-1.87.68,3,3,0,0,1,0-5.9,3.44,3.44,0,0,1,1.73.49l-.34.62a2.82,2.82,0,0,0-1.39-.41,2.28,2.28,0,0,0,0,4.51,2.17,2.17,0,0,0,1.42-.52Z"/><path d="M301.13,108.81a3,3,0,1,1-2.6,2.93A2.66,2.66,0,0,1,301.13,108.81Zm0,5.2c1,0,1.75-.83,1.75-2.27s-.79-2.26-1.75-2.26-1.74.83-1.74,2.26S300.18,114,301.13,114Z"/><path d="M305.47,109.73a2.12,2.12,0,0,1,1.66-.91,2,2,0,0,1,2.13,2.08v3.64h-.84V111a1.37,1.37,0,0,0-1.34-1.5,1.65,1.65,0,0,0-1.61,1.79v3.25h-.85V109h.85Z"/><path d="M310.64,107.53l.81-.27V109h1.31v.69h-1.31v3.52c0,.71.56.8,1.21.81v.7c-1.23,0-2-.27-2-1.46v-3.57h-.78V109h.78Z"/><path d="M314.46,109.76a1.83,1.83,0,0,1,1.66-1l.29,0v.75l-.26,0a1.57,1.57,0,0,0-1.69,1.46v3.53h-.84V109h.84Z"/><path d="M319.05,108.81a3,3,0,1,1-2.61,2.93A2.66,2.66,0,0,1,319.05,108.81Zm0,5.2c.95,0,1.74-.83,1.74-2.27s-.79-2.26-1.74-2.26-1.74.83-1.74,2.26S318.1,114,319.05,114Z"/><path d="M322.54,106.68h.84v7.86h-.84Z"/><path d="M327,50.9h-2.36v-3.3a.37.37,0,0,0-.37-.37H310.92V44.36h4.15a.79.79,0,0,0,.79-.79V26.69a.79.79,0,0,0-.79-.8H307.8l-.12,0-.14.08L302,31.58a.3.3,0,0,0-.07.11.45.45,0,0,0,0,.13l0,.09V42.82a1.54,1.54,0,0,0,1.54,1.54h6.79v2.88H296.86a.36.36,0,0,0-.37.34v.1h0v3.23h-2.81l-.12,0-.14.08-4.17,4.18a.26.26,0,0,0-.07.1.5.5,0,0,0,0,.14l0,.09v8.15a1.25,1.25,0,0,0,1.24,1.24h8.75a.68.68,0,0,0,.68-.68V51.59a.68.68,0,0,0-.68-.69h-1.9V48h12.95v2.94h-2.57a.33.33,0,0,0-.12,0l-.14.08-4.18,4.18-.07.1c0,.07,0,.1,0,.14v8.24a1.24,1.24,0,0,0,1.24,1.24h8.74a.69.69,0,0,0,.69-.68V51.59a.69.69,0,0,0-.69-.69h-2.13V48h13v2.94h-2.37l-.1,0-.14.08-4.17,4.18a.26.26,0,0,0-.07.1.5.5,0,0,0,0,.14l0,.09v8.15a1.25,1.25,0,0,0,1.24,1.24H327a.68.68,0,0,0,.68-.68V51.59A.68.68,0,0,0,327,50.9Zm-33.66,1.26v2.92H290.4Zm5.76-.52V64.17h-8.7a.5.5,0,0,1-.5-.51V55.82h3.8a.38.38,0,0,0,.37-.37V51.64Zm8.35-24.49v4.32h-4.32Zm-.19,25v2.92h-2.92Zm5.76-.52V64.17h-8.69a.51.51,0,0,1-.51-.51V55.82h3.81a.38.38,0,0,0,.37-.37V51.64Zm-9.61-8a.83.83,0,0,1-.57-.23.79.79,0,0,1-.23-.57V32.21h5.21a.38.38,0,0,0,.37-.37V26.63h7v17Zm17.78,8.54v2.92h-2.92Zm-2.94,12a.5.5,0,0,1-.5-.51V55.82h3.8a.37.37,0,0,0,.37-.37V51.64h5V64.17Z"/><path d="M305.18,36.1h7.36a.48.48,0,0,0,0-1h-7.36a.48.48,0,0,0,0,1Z"/><path d="M305.18,38.73h7.36a.47.47,0,0,0,0-.94h-7.36a.47.47,0,0,0,0,.94Z"/><path d="M305.18,41.37h7.36a.47.47,0,0,0,.47-.47.48.48,0,0,0-.47-.48h-7.36a.48.48,0,0,0-.47.48A.47.47,0,0,0,305.18,41.37Z"/><path d="M297.51,68.89l-2.93,3.75a.22.22,0,0,1-.18.09.21.21,0,0,1-.2-.09l-1.05-1.32a.41.41,0,0,0-.3-.14.35.35,0,0,0-.23.09.37.37,0,0,0-.06.52l1.06,1.33a1,1,0,0,0,1.55,0l2.93-3.76a.4.4,0,0,0,.08-.28.41.41,0,0,0-.15-.25A.36.36,0,0,0,297.51,68.89Z"/><path d="M297.19,72.55a.38.38,0,0,0-.37.38v1.86a.23.23,0,0,1-.24.23h-4.81a.23.23,0,0,1-.24-.23V70a.24.24,0,0,1,.24-.24h3.54a.38.38,0,0,0,0-.75h-3.54a1,1,0,0,0-1,1v4.82a1,1,0,0,0,1,1h4.81a1,1,0,0,0,1-1V72.93A.38.38,0,0,0,297.19,72.55Z"/><path d="M311.43,68.89l-2.93,3.75a.2.2,0,0,1-.17.09.19.19,0,0,1-.2-.09l-1.06-1.32a.37.37,0,0,0-.29-.14.38.38,0,0,0-.24.09.39.39,0,0,0-.14.25.36.36,0,0,0,.08.27l1.06,1.33a1,1,0,0,0,.77.37,1,1,0,0,0,.79-.38L312,69.35a.36.36,0,0,0,.08-.28.35.35,0,0,0-.14-.25A.37.37,0,0,0,311.43,68.89Z"/><path d="M311.12,72.55a.38.38,0,0,0-.38.38v1.86a.23.23,0,0,1-.23.23h-4.82a.23.23,0,0,1-.24-.23V70a.24.24,0,0,1,.24-.24h3.54a.38.38,0,1,0,0-.75h-3.54a1,1,0,0,0-1,1v4.82a1,1,0,0,0,1,1h4.82a1,1,0,0,0,1-1V72.93A.38.38,0,0,0,311.12,72.55Z"/><path d="M325.36,68.89l-2.93,3.75a.22.22,0,0,1-.18.09.21.21,0,0,1-.2-.09L321,71.32a.41.41,0,0,0-.3-.14.35.35,0,0,0-.23.09.37.37,0,0,0-.06.52l1.06,1.33a1,1,0,0,0,1.55,0L326,69.35a.4.4,0,0,0,.08-.28.41.41,0,0,0-.15-.25A.36.36,0,0,0,325.36,68.89Z"/><path d="M325,72.55a.38.38,0,0,0-.37.38v1.86a.23.23,0,0,1-.24.23h-4.81a.23.23,0,0,1-.24-.23V70a.24.24,0,0,1,.24-.24h3.54a.38.38,0,0,0,0-.75h-3.54a1,1,0,0,0-1,1v4.82a1,1,0,0,0,1,1h4.81a1,1,0,0,0,1-1V72.93A.38.38,0,0,0,325,72.55Z"/><path d="M204.2,52.42c-.11-.63-.18-.68-.38-.68a2.69,2.69,0,0,0-.55.1l-1.47.37-.7.18h0a.18.18,0,0,1-.1,0,.15.15,0,0,1,0-.13l0-.2c0-.13,0-.22.05-.32l.45-2.32q.72-3.7,1.43-7.41a1.12,1.12,0,0,0-.13-.72c-1-1.65-2.09-3.32-3.12-4.93l-.5-.8c-.17-.25-.28-.36-.39-.36a1,1,0,0,0-.44.22l-1.07.79c-.77.56-1.53,1.12-2.31,1.67a1.32,1.32,0,0,0-.56.81c-.14.59-.31,1.18-.49,1.81-.07.26-.15.54-.23.82a.14.14,0,0,1-.13.11h0a.14.14,0,0,1-.14-.1l-.07-.24c0-.11-.06-.19-.09-.27l-.56-2c-.65-2.31-1.32-4.69-2-7a1.08,1.08,0,0,0-.43-.57c-1.15-.67-2.3-1.32-3.45-2L184,27.67a.87.87,0,0,0-.41-.14.72.72,0,0,0-.47.22c-.64.55-1.28,1.08-1.91,1.61l-2.08,1.75a1.84,1.84,0,0,0-.5.76c-.28,1-.56,1.93-.83,2.89s-.65,2.26-1,3.38a7.69,7.69,0,0,0-.36,2.56c0,.59,0,1.19,0,1.76v.63h.69v-.66c0-.62,0-1.2,0-1.8a9.11,9.11,0,0,1,.22-1.91c.38-1.41.79-2.78,1.21-4.24.17-.56.33-1.13.5-1.7a.13.13,0,0,1,.12-.1h0a.15.15,0,0,1,.12.07l.13.21.2.31c.32.51.63,1,.94,1.54.76,1.23,1.55,2.51,2.35,3.75a4.16,4.16,0,0,1,.67,2.23c.06,1.62.15,3.27.24,4.86l.08,1.47q.38,7,.76,13.94l.26,4.74.29,5.32c0,.91.1,1.83.14,2.77l.08,1.38a.15.15,0,0,1-.1.14h0a.16.16,0,0,1-.11,0l-.09-.11-.12-.14-.37-.57c-.45-.69-.91-1.41-1.36-2.12a2,2,0,0,1-.23-.7c-.2-1.38-.4-2.75-.61-4.13-.13-.92-.27-1.85-.4-2.77l-.16-1c-.81-5.47-1.65-11.13-2.49-16.69a1,1,0,0,0-.37-.62c-1.64-1.24-3.34-2.47-5-3.66l-.53-.38a.78.78,0,0,0-.39-.19c-.08,0-.19,0-.38.37l-1,1.78-.68,1.2a2.79,2.79,0,0,1-.17.25l-.09.13a.14.14,0,0,1-.12.07h0a.15.15,0,0,1-.12-.07l-1-1.46c-1.06-1.64-2.06-3.19-3.1-4.76a1.32,1.32,0,0,0-.65-.53L160,37.29,156.18,36a1,1,0,0,0-.35-.07.49.49,0,0,0-.38.18v10.9l0,.05a1,1,0,0,1,.17.22l.44.7c1.09,1.79,2.22,3.63,3.32,5.45a1.24,1.24,0,0,1,.15.82c-.14.74-.29,1.48-.44,2.22s-.3,1.44-.44,2.16a1.31,1.31,0,0,0,.08.71c2.81,6.32,5.58,12.51,7.91,17.72a1.58,1.58,0,0,0,.22.33l.08.1h5.15l.1-.14a2.09,2.09,0,0,0,.25-.43L174,73.25l.5-1.24a.14.14,0,0,1,.1-.08h0a.14.14,0,0,1,.09,0l.76.63,1.8,1.48c.42.34.84.68,1.25,1,.23.19.37.28.48.28a1.11,1.11,0,0,0,.5-.26l2.18-1.57.92-.66a.16.16,0,0,1,.09,0h0a.13.13,0,0,1,.09.06l.51.79c.38.59.75,1.17,1.13,1.74l1,1.5.4.58h3.59l.63-.8c.68-.85,1.38-1.74,2.08-2.59a1.3,1.3,0,0,1,.71-.44l2.31-.46,2.74-.55a1.17,1.17,0,0,0,.73-.43c2.31-3.87,4.59-7.78,6.71-11.43a1,1,0,0,0,.11-.55c-.39-2.47-.8-5-1.2-7.39ZM170.32,48.3l1.41-2.46,1.5-2.61a.13.13,0,0,1,.09-.07h0l.09,0,3.48,2.55,1.35,1a.15.15,0,0,1,0,.24l-.79.51-2.86,1.87a.78.78,0,0,1-.38.13h-.09l-3-.74-.79-.2a.15.15,0,0,1-.1-.09A.13.13,0,0,1,170.32,48.3Zm-4.46-8.17a.13.13,0,0,1,.11.06l.1.13.16.22,1.1,1.7q1.35,2.09,2.73,4.19a.68.68,0,0,1,0,.91,3.08,3.08,0,0,0-.45,2.89c1.1,5,2.19,10.27,3.44,16.59a.16.16,0,0,1-.1.17h0a.16.16,0,0,1-.14-.08,244.68,244.68,0,0,0-12.36-24,.17.17,0,0,1,0-.12.11.11,0,0,1,.08-.08l5.3-2.55Zm-9.59,5.6a.15.15,0,0,1-.09-.14V37a.14.14,0,0,1,.06-.12.11.11,0,0,1,.08,0h.05l1.17.38,7.19,2.34a.14.14,0,0,1,.09.12.14.14,0,0,1-.06.14l-.16.1a1.15,1.15,0,0,1-.24.13L163,40.7c-1,.48-2,.95-3,1.44a2.23,2.23,0,0,0-.62.45c-.73.74-1.44,1.49-2.19,2.27l-.8.83a.12.12,0,0,1-.1.05Zm3.16,6.45c-.7-1.27-1.49-2.53-2.26-3.74-.22-.36-.44-.72-.67-1.08a.59.59,0,0,1,.09-.84l2.26-2.34.84-.88a.13.13,0,0,1,.1,0h0a.12.12,0,0,1,.11.07l6.31,11.47a.15.15,0,0,1,0,.16.14.14,0,0,1-.12.06h0l-1.36-.37c-1-.28-2-.55-3-.74A3.09,3.09,0,0,1,159.43,52.18Zm0,6.49a.14.14,0,0,1,0-.11l.34-1.69.52-2.49a.11.11,0,0,1,.06-.09.11.11,0,0,1,.08,0h0l3.32.87,2.59.68a.16.16,0,0,1,.09.09.15.15,0,0,1,0,.13l-.44.69c-.55.85-1.08,1.68-1.63,2.5a.56.56,0,0,1-.44.2h-.07l-3.42-.54-.91-.15A.11.11,0,0,1,159.44,58.67Zm14.39,13.12c-.61,1.45-1.21,2.94-1.84,4.55a.68.68,0,0,1-.7.51l-1.76,0h-2.11a.13.13,0,0,1-.13-.09l-7.63-17a.14.14,0,0,1,0-.14.14.14,0,0,1,.11-.06h0l.55.08,1,.16.7.11c.52.09,1.05.18,1.57.24a.84.84,0,0,1,.75.58q2.66,6.06,5.32,12.11l.88,2c0,.12.11.24.17.37l0,.07.63-.27-.51-1.18-1.44-3.26-1-2.3c-1.15-2.62-2.3-5.23-3.46-7.85a.8.8,0,0,1,.06-.89c.45-.66.88-1.33,1.33-2l.53-.82a.12.12,0,0,1,.12-.07h0a.16.16,0,0,1,.12.08l.18.4.22.46,1.24,2.63q2.49,5.33,5,10.65A1.16,1.16,0,0,1,173.83,71.79Zm4.46,2.08-.06,0a.17.17,0,0,1-.1,0l-.78-.66c-.56-.47-1.09-.92-1.65-1.32a3,3,0,0,1-1.24-2c-1.05-5.11-2.13-10.3-3.19-15.31l-1-5a.24.24,0,0,1,0-.12v-.08a.2.2,0,0,1,.06-.11l.09,0h0l.75.19a13,13,0,0,0,1.64.38c1.09.15,1.41.74,1.57,1.66,1,5.51,2,11.11,3,16.52.33,1.78.65,3.56,1,5.34,0,.06,0,.11,0,.2l0,.2A.15.15,0,0,1,178.29,73.87Zm3.76-1.46c-.63.43-1.24.87-1.89,1.34l-.74.54a.16.16,0,0,1-.09,0h-.05a.14.14,0,0,1-.09-.11l-.28-1.56-.64-3.52-.93-5.1L175,51v0c-.17-.88-.14-.95.63-1.45l2.11-1.38.89-.58a.1.1,0,0,1,.07,0h.06a.14.14,0,0,1,.09.11l.23,1.57c.16,1.08.32,2.14.48,3.2L180.79,61l.67,4.49.21,1.41c.23,1.59.47,3.17.71,4.76A.74.74,0,0,1,182.05,72.41Zm20-30.21a.14.14,0,0,1,0,.13l-.14.78c-.1.53-.2,1-.3,1.54l-.38,2q-.54,2.78-1.07,5.55a.61.61,0,0,1-.52.56l-1.85.48-.77.21h0a.13.13,0,0,1-.1,0,.14.14,0,0,1,0-.12l.16-1c.11-.69.21-1.35.32-2l.35-2.1c.27-1.59.53-3.18.79-4.77a.64.64,0,0,1,.56-.64c.66-.12,1.31-.27,2-.42l.85-.18h0A.15.15,0,0,1,202.05,42.2Zm-6.63-3.86,2.09-1.53,1-.7a.11.11,0,0,1,.08,0h0a.15.15,0,0,1,.09.06l3.23,5.08a.1.1,0,0,1,0,.12.12.12,0,0,1-.09.09l-.22.06-.42.12-1.2.26-1.1.24-.25,0a.64.64,0,0,1-.53-.27c-.64-.8-1.28-1.59-2-2.41l-.75-.91a.11.11,0,0,1,0-.11A.12.12,0,0,1,195.42,38.34Zm-1.68,16.8.18-2.69c.15-2.36.32-4.81.44-7.21a3.59,3.59,0,0,0-.2-1.08c-.06-.21-.13-.43-.17-.65a1.66,1.66,0,0,1,0-.77c.2-.8.42-1.6.65-2.44l.25-.92a.14.14,0,0,1,.11-.1h0a.14.14,0,0,1,.11.06l.62.74c.68.83,1.33,1.62,2,2.42a.76.76,0,0,1,.13.56q-.86,5.22-1.72,10.46a1.41,1.41,0,0,1-.12.42c-.69,1.38-1.38,2.73-2.17,4a.15.15,0,0,1-.13.07h0a.12.12,0,0,1-.1-.14l0-.88C193.67,56.39,193.7,55.77,193.74,55.14Zm-4.82,21.53a.15.15,0,0,1-.15.14h-2.33a.15.15,0,0,1-.15-.13l-2-36.72a.15.15,0,0,1,0-.11.12.12,0,0,1,.1,0h4.76a.12.12,0,0,1,.1,0,.14.14,0,0,1,.05.1Zm.51-38.55-.05.7a.28.28,0,0,1,0,.13l0,0a.16.16,0,0,1-.13.08h-4.74a.61.61,0,0,1-.46-.27c-1.22-1.94-2.42-3.89-3.65-5.86l-.71-1.16a.14.14,0,0,1,0-.19l3.91-3.28a.14.14,0,0,1,.09,0l.07,0,1.06.6,4.77,2.7a.65.65,0,0,1,.3.51Q189.66,35.11,189.43,38.12ZM192,72a3.5,3.5,0,0,1-.95,2.37,9.64,9.64,0,0,0-.71.87c-.11.14-.21.28-.32.41a.11.11,0,0,1-.11.06h0l-.13,0a.18.18,0,0,1-.12-.15c.12-5.39.17-10.87.22-16.18.07-8.06.14-16.4.47-24.6a.15.15,0,0,1,.13-.14h.2a.15.15,0,0,1,.14.1l.11.38.24.82c.21.75.43,1.5.64,2.25.6,2.11,1.22,4.29,1.78,6.45a5.72,5.72,0,0,1,.05,1.85l0,.43c-.19,3.21-.4,6.43-.6,9.65l-.15,2.31-.24,3.61C192.36,65.61,192.15,68.85,192,72Zm.89-.78h-.05a.15.15,0,0,1-.09-.15l.08-1.17.44-7.08a.28.28,0,0,0,0-.09.31.31,0,0,0,0-.09,7.2,7.2,0,0,1,1.16-4.11c.44-.77.83-1.55,1.25-2.38.18-.36.36-.73.55-1.1a.17.17,0,0,1,.12-.08h0a.13.13,0,0,1,.11.06l.08.09a1.3,1.3,0,0,1,.15.2l.21.39c.66,1.24,1.35,2.54,2,3.82a.78.78,0,0,1,0,.65q-2.62,4.92-5.27,9.82l-.48.89a.76.76,0,0,1-.1.14l-.1.14A.14.14,0,0,1,192.87,71.26ZM204.47,61l-1.91,3.27-1,1.67c-1.09,1.87-2.19,3.74-3.27,5.61a1,1,0,0,1-.73.53c-1.06.19-2.11.4-3.18.61l-1.17.22h0a.14.14,0,0,1-.11-.06.14.14,0,0,1,0-.14l.06-.16q.06-.15.12-.27l1.69-3.13q2.25-4.2,4.51-8.41a.7.7,0,0,1,.66-.44l.17,0c1,.12,1.92.22,2.93.33l1.15.13a.12.12,0,0,1,.11.07A.12.12,0,0,1,204.47,61Zm.23-1.06a.11.11,0,0,1,0,.12.12.12,0,0,1-.1.05h0L203.41,60c-.88-.11-1.71-.21-2.55-.25a1.8,1.8,0,0,1-1.73-1.2c-.4-.87-.86-1.72-1.31-2.55-.2-.37-.4-.73-.59-1.1q-.07-.13-.15-.3l-.09-.18a.13.13,0,0,1,0-.12.14.14,0,0,1,.09-.08l.36-.09,5.9-1.55h0a.1.1,0,0,1,.07,0,.14.14,0,0,1,.07.1l.87,5.37Z"/><path d="M79.86,39.27a12.36,12.36,0,0,1-2.93-1.76,4.86,4.86,0,0,0-2.58-1.12A7.4,7.4,0,0,1,70,34.48a4.38,4.38,0,0,0-2.48-1.06,7.63,7.63,0,0,1-4.39-1.9,4,4,0,0,0-.64-.43,4.32,4.32,0,0,1-.53-.34,1.75,1.75,0,0,1-.62-.67,3.25,3.25,0,0,0-3.08-1.94A6.85,6.85,0,0,1,56.48,28l-.07,0a7.89,7.89,0,0,0-4.61-.15,5.42,5.42,0,0,1-3.62,0,6.41,6.41,0,0,0-4.08,0,5.15,5.15,0,0,1-3.2,0,7.18,7.18,0,0,0-4.33,0,10.52,10.52,0,0,1-1.66.3l-.74.1h0a2.87,2.87,0,0,0-2.39.9A2.84,2.84,0,0,0,31,31.6a12,12,0,0,1-.15,4.19,10.78,10.78,0,0,0-.14,4.8,12.88,12.88,0,0,1,0,6.32,8.29,8.29,0,0,0,0,4,13.51,13.51,0,0,1,0,6.26,7.69,7.69,0,0,0-.19,3l0,.2a19.08,19.08,0,0,1,.41,6.1,2.55,2.55,0,0,0,.73,2.1,3.26,3.26,0,0,0,2.57,1,4.89,4.89,0,0,1,1.7.13,9.34,9.34,0,0,0,5.61,0,2.94,2.94,0,0,1,.84-.11,7.18,7.18,0,0,1,.82.06,8.49,8.49,0,0,1,1,.22c.3.07.61.15.91.19a11.09,11.09,0,0,1,6.23,2.63,2.57,2.57,0,0,0,1.32.49,8.84,8.84,0,0,1,5,2.14,4.5,4.5,0,0,0,2.28,1l.52.1a9.12,9.12,0,0,1,2.31.65,3.46,3.46,0,0,0,3,.15,3.18,3.18,0,0,0,1.72-2.13,9.59,9.59,0,0,1,1.41-3.06,21.75,21.75,0,0,0,1.29-2l.07-.14A6.18,6.18,0,0,0,71,68.15a18,18,0,0,1,3.28-7.58,4.13,4.13,0,0,0,.76-1.68,18.6,18.6,0,0,1,3.45-8,4.88,4.88,0,0,0,.65-1.5c.16-.51.29-1,.43-1.55a16.73,16.73,0,0,1,1.72-4.57,2.6,2.6,0,0,0,.23-2.22A3,3,0,0,0,79.86,39.27ZM46.26,69.39a5,5,0,0,1-1.45-.22,7,7,0,0,0-4.43,0,6.25,6.25,0,0,1-3.38,0,19.23,19.23,0,0,0-3-.34,2.52,2.52,0,0,1-1.84-.92,1.79,1.79,0,0,1-.37-1.47,12.92,12.92,0,0,0-.17-4.52c-.11-.64-.21-1.3-.27-2a9.8,9.8,0,0,1,.14-2.29c0-.21.05-.42.08-.63s.11-.68.17-1a8,8,0,0,0,.2-1.44A10.33,10.33,0,0,0,31.74,52a13.39,13.39,0,0,1,0-6.2,7.93,7.93,0,0,0,0-4,14.18,14.18,0,0,1,.06-6.91,7.66,7.66,0,0,0,0-3.1,2.36,2.36,0,0,1,.49-2A2.59,2.59,0,0,1,34.52,29a8.52,8.52,0,0,0,2.39-.33,6.13,6.13,0,0,1,3.56,0,6.17,6.17,0,0,0,4,0,5.82,5.82,0,0,1,3.62,0,5.44,5.44,0,0,0,3.56.06,7.62,7.62,0,0,1,4.43,0,9.26,9.26,0,0,0,2.23.2,2.51,2.51,0,0,1,1.72.68,2.22,2.22,0,0,1,.64,1.62.38.38,0,0,1,0,.1,12.43,12.43,0,0,0,.25,5.19l.11.55a7.69,7.69,0,0,1-.13,3.44A15.54,15.54,0,0,0,61,47.78a7.13,7.13,0,0,1-.16,3.09,14,14,0,0,0,.08,6.72,9.37,9.37,0,0,1-.11,3.95l0,.07a13.41,13.41,0,0,0-.23,4.53A2,2,0,0,1,60.14,68a3.16,3.16,0,0,1-2.65.75L57,68.8c-.54.09-1.21.21-1.87.38a4.81,4.81,0,0,1-2.79,0,7.39,7.39,0,0,0-4.67,0A4.25,4.25,0,0,1,46.26,69.39ZM80.5,43a13.93,13.93,0,0,0-1.76,4.62c-.13.53-.27,1.08-.42,1.62a4.08,4.08,0,0,1-.6,1.29,18.65,18.65,0,0,0-3.47,8A3.38,3.38,0,0,1,73.61,60a18.56,18.56,0,0,0-3.48,8.07,4.1,4.1,0,0,1-.56,1.3c-.4.71-.84,1.4-1.31,2.07a10.54,10.54,0,0,0-1.6,3.47,2.15,2.15,0,0,1-1.11,1.46,2.27,2.27,0,0,1-1,.23,3,3,0,0,1-1.18-.25,13.43,13.43,0,0,0-2.08-.61c-.43-.1-.87-.21-1.3-.34A8.89,8.89,0,0,1,58.8,75l-.44-.2a1.3,1.3,0,0,1-.23-.15,8.1,8.1,0,0,0-4.76-2.1,4,4,0,0,1-2.25-1c-.43-.33-.88-.65-1.32-1l-.6-.42-.08-.06,0-.49h.19l.44,0c.33,0,.68,0,1,.09.62.11,1.25.25,1.87.42A5.34,5.34,0,0,0,55.44,70h.07a10.13,10.13,0,0,1,2.92-.36c1.38.09,2.49-.83,3.1-2.61l.06-.18.18.05.8.22c.64.17,1.31.35,2,.55s.69.16.81-.16a.39.39,0,0,0,0-.35.68.68,0,0,0-.47-.3c-1-.29-1.87-.51-2.68-.7a.9.9,0,0,1-.82-.79,7.26,7.26,0,0,1,.15-2.68c.07-.38.14-.76.19-1.15s.12-.83.19-1.2c0-.15.05-.29.07-.42l0-.21,1.32.33c.9.22,1.78.43,2.66.66.38.1.75.24,1.11.36l.42.15c.45.15.58,0,.65-.21a.47.47,0,0,0,0-.37.5.5,0,0,0-.3-.22c-.73-.23-1.49-.46-2.27-.67-.23-.06-.47-.11-.7-.15l-.45-.09c-1.37-.3-2.93-.93-2.85-3.14a5.51,5.51,0,0,0-.14-1.19A5.56,5.56,0,0,1,61.33,54a10.88,10.88,0,0,1,.23-1.85l.15-.9,0-.29.25.15.38.22a5.21,5.21,0,0,1,.72.46,11,11,0,0,0,5.56,2.4,6,6,0,0,1,1.25.37c.14,0,.28.11.43.15.49.17.62,0,.7-.19a.43.43,0,0,0,0-.35.58.58,0,0,0-.36-.26l-.61-.19a12.59,12.59,0,0,0-1.7-.47,9.78,9.78,0,0,1-4.31-1.82,11.3,11.3,0,0,0-1-.68c-.24-.15-.48-.29-.71-.45-.07,0-.41-.29-.37-.55A7.37,7.37,0,0,0,61.78,47c-.07-.4-.15-.81-.2-1.21s-.12-.9-.2-1.37l-.13-.89.25,0A8.67,8.67,0,0,1,66,45.29a11.41,11.41,0,0,0,5.41,2.32,7.17,7.17,0,0,1,1.3.37l.38.14c.46.15.64.11.75-.19a.41.41,0,0,0,0-.34.67.67,0,0,0-.43-.28c-.33-.11-.67-.19-1-.28s-.93-.24-1.39-.4l-.84-.26a9.76,9.76,0,0,1-2.49-1c-2-1.36-3.79-2.42-6-2.64l-.2,0,0-.2c0-.23.06-.46.09-.68a12.59,12.59,0,0,1,.23-1.39,10,10,0,0,0-.08-4.16c0-.26-.09-.53-.15-.8a7.65,7.65,0,0,1-.14-3.27l.14-.61.23.14.2.11a1.88,1.88,0,0,1,.36.24,9.29,9.29,0,0,0,5.24,2.3,3.41,3.41,0,0,1,1.69.75,9.63,9.63,0,0,0,5.28,2.24A3.51,3.51,0,0,1,76,38c.34.21.67.45,1,.68a10.6,10.6,0,0,0,2.51,1.45,2,2,0,0,1,1.21,1.28A1.86,1.86,0,0,1,80.5,43Z"/><path d="M36.6,39l.19,0a16,16,0,0,1,2.06.3,10.14,10.14,0,0,0,5,0A9.22,9.22,0,0,1,46.2,39a10.23,10.23,0,0,1,2.41.29c.58.14,1.17.22,1.74.3l.71.11.74-.11,1.56-.22.83-.12c.56-.09,1.12-.17,1.69-.24s.57-.21.56-.47a.43.43,0,0,0-.13-.34.57.57,0,0,0-.42-.09l-.17,0c-.81.09-1.65.19-2.45.36a9.12,9.12,0,0,1-4.32,0,10.18,10.18,0,0,0-5.31,0,9.5,9.5,0,0,1-4.85,0A13,13,0,0,0,37,38.14l-.43,0a.62.62,0,0,0-.46.09.5.5,0,0,0-.13.32C36,38.79,36.08,39,36.6,39Z"/><path d="M36.63,46.11l.3,0a16.39,16.39,0,0,1,2,.29,9.83,9.83,0,0,0,4.85,0,9.61,9.61,0,0,1,2.48-.33,10.32,10.32,0,0,1,2.55.33,14.4,14.4,0,0,0,1.62.27l.6.09.12,0,.38,0,.8-.07,2.57-.39L56,46.09c.32-.05.44-.19.42-.48a.41.41,0,0,0-.13-.31.48.48,0,0,0-.34-.08l-.49.05a15.77,15.77,0,0,0-1.95.27,9.58,9.58,0,0,1-4.79,0,9.89,9.89,0,0,0-5,0,9.74,9.74,0,0,1-4.8,0,16.34,16.34,0,0,0-1.84-.28l-.48-.05a.65.65,0,0,0-.49.09.5.5,0,0,0-.12.33C36,46,36.13,46.06,36.63,46.11Z"/><path d="M36.61,53.21c.58.06,1.16.15,1.72.24l.69.11,2.36.36.77-.12c.59-.08,1.2-.17,1.79-.31a9.14,9.14,0,0,1,4.5,0,9.61,9.61,0,0,0,3.81.29c1.26-.18,2.56-.37,3.85-.62a.68.68,0,0,0,.32-.45.29.29,0,0,0-.06-.26.34.34,0,0,0-.31-.09l-.37,0a16.53,16.53,0,0,0-2.24.3,9.48,9.48,0,0,1-4.62,0,10.15,10.15,0,0,0-5.19,0,9,9,0,0,1-3.79.18c-1-.16-2.11-.34-3.27-.5h-.14a.45.45,0,0,0-.3.09.42.42,0,0,0-.13.32C36,53.05,36.12,53.15,36.61,53.21Z"/><path d="M56.44,59.89a.45.45,0,0,0-.11-.35.6.6,0,0,0-.47-.1l-.31,0a16.81,16.81,0,0,0-2.13.31,9.22,9.22,0,0,1-4.61,0,10,10,0,0,0-5.19,0,9.25,9.25,0,0,1-4.56,0,20.09,20.09,0,0,0-2.18-.32l-.32,0a.58.58,0,0,0-.44.09.5.5,0,0,0-.12.33c0,.26.09.41.57.46a16.29,16.29,0,0,1,2.25.33,10.63,10.63,0,0,0,5.08,0,8.56,8.56,0,0,1,2.3-.31,9.81,9.81,0,0,1,2.37.3,16,16,0,0,0,1.75.3l.79.11.75-.11,1.81-.28.54-.09c.53-.08,1.09-.17,1.64-.22S56.43,60.18,56.44,59.89Z"/></g></g></svg>