<svg xmlns="http://www.w3.org/2000/svg" viewBox="0 0 358.62 49.97"><defs><style>.cls-1{fill:#595757;}</style></defs><title>자산 188</title><g id="레이어_2" data-name="레이어 2"><g id="레이어_1-2" data-name="레이어 1"><path class="cls-1" d="M14.85,1.2H12.11V9.37h-.87V1.2H8.51V.49h6.34Z"/><path class="cls-1" d="M16,3.92a2.42,2.42,0,0,1,2-1.2,2.28,2.28,0,0,1,2.43,2.41V9.37h-.87V5.24A1.65,1.65,0,0,0,18,3.41,2.06,2.06,0,0,0,16,5.58V9.37h-.87V.24H16Z"/><path class="cls-1" d="M21.64.24h1V1.43h-1Zm.09,2.67h.87V9.37h-.87Z"/><path class="cls-1" d="M27.05,3.9a2.72,2.72,0,0,0-1.34-.46c-.77,0-1.17.39-1.17.91s.49.9,1.53,1.41,1.68,1,1.68,1.9a1.87,1.87,0,0,1-2.11,1.81,3,3,0,0,1-2.21-.88L23.9,8a2.55,2.55,0,0,0,1.71.74c.7,0,1.29-.31,1.29-1s-.59-.94-1.3-1.27c-.89-.4-1.88-.9-1.88-2a1.72,1.72,0,0,1,1.93-1.72,3.23,3.23,0,0,1,1.82.58Z"/><path class="cls-1" d="M31.57.24h.87V9.37h-.87Z"/><path class="cls-1" d="M34.13,3.29a3.78,3.78,0,0,1,2.07-.58A2.11,2.11,0,0,1,38.32,4a3.16,3.16,0,0,1,.19,1.12v3a5.25,5.25,0,0,0,.12,1.3h-.84a6.93,6.93,0,0,1-.16-.78,2.52,2.52,0,0,1-2.07.9A2.1,2.1,0,0,1,33.37,7.4c0-1.58,1.17-2.27,3.16-2.27.36,0,.72,0,1.12.06V5a1.41,1.41,0,0,0-1.52-1.58,3.14,3.14,0,0,0-1.65.5Zm3.52,2.58a8.74,8.74,0,0,0-1,0c-1.61,0-2.42.49-2.42,1.52a1.39,1.39,0,0,0,1.49,1.38,1.77,1.77,0,0,0,1.92-1.63Z"/><path class="cls-1" d="M41.79,8.38l1.94-5.47h.93l-2.4,6.46h-.94l-2.4-6.46h.93Z"/><path class="cls-1" d="M50,8.86a3.33,3.33,0,0,1-2,.64,3.08,3.08,0,0,1-3.15-3.29c0-2,1-3.46,2.89-3.46a2.79,2.79,0,0,1,2.73,3,4,4,0,0,1,0,.49H45.67A2.31,2.31,0,0,0,48,8.79a2.78,2.78,0,0,0,1.63-.5Zm-.39-3.33a2,2,0,0,0-1.93-2.06A2.2,2.2,0,0,0,45.7,5.53Z"/><path class="cls-1" d="M52.23,4a2.21,2.21,0,0,1,2-1.31,1.42,1.42,0,0,1,.29,0v.79a2.85,2.85,0,0,0-.29,0,2,2,0,0,0-2,2v3.9h-.87V2.91h.87Z"/><path class="cls-1" d="M58,.24h1V1.43H58Zm.08,2.67H59V9.37h-.87Z"/><path class="cls-1" d="M63.44,3.9a2.72,2.72,0,0,0-1.34-.46c-.78,0-1.18.39-1.18.91s.5.9,1.53,1.41,1.68,1,1.68,1.9A1.86,1.86,0,0,1,62,9.47a3,3,0,0,1-2.21-.88L60.29,8a2.52,2.52,0,0,0,1.7.74c.71,0,1.3-.31,1.3-1S62.7,6.75,62,6.42c-.88-.4-1.87-.9-1.87-2A1.72,1.72,0,0,1,62,2.71a3.2,3.2,0,0,1,1.81.58Z"/><path class="cls-1" d="M70.87,2.72c1.77,0,2.86,1.31,2.86,3.43S72.62,9.5,70.9,9.5a2.51,2.51,0,0,1-2.08-1.1v3.71H68V2.91h.87v1A2.35,2.35,0,0,1,70.87,2.72Zm0,.69c-1.17,0-2,.93-2,2.63v.1c0,1.49.66,2.68,2,2.68s2-1.4,2-2.68S72.22,3.41,70.85,3.41Z"/><path class="cls-1" d="M75.66,4a2.19,2.19,0,0,1,2-1.31,1.32,1.32,0,0,1,.28,0v.79l-.28,0a2,2,0,0,0-2,2v3.9h-.87V2.91h.87Z"/><path class="cls-1" d="M81,2.73a3.08,3.08,0,0,1,3,3.39c0,2.08-1.29,3.39-3,3.39S78,8.2,78,6.12,79.27,2.73,81,2.73Zm0,6.09c1.15,0,2.11-1,2.11-2.7S82.1,3.43,81,3.43s-2.09,1-2.09,2.69S79.81,8.82,81,8.82Z"/><path class="cls-1" d="M89.57,3.91V.24h.87V9.37h-.87v-1a2.52,2.52,0,0,1-2.09,1.1c-1.67,0-2.82-1.25-2.82-3.36s1.06-3.42,2.86-3.42A2.37,2.37,0,0,1,89.57,3.91Zm-4,2.23c0,1.28.61,2.68,2,2.68s2-1.19,2-2.68V6c0-1.7-.86-2.63-2-2.63C86.17,3.41,85.56,4.8,85.56,6.14Z"/><path class="cls-1" d="M96.21,8.3a2.4,2.4,0,0,1-2,1.2,2.27,2.27,0,0,1-2.42-2.41V2.91h.87V7a1.65,1.65,0,0,0,1.62,1.84,2,2,0,0,0,1.95-2.18V2.91h.87V9.37h-.87Z"/><path class="cls-1" d="M103.39,8.72a3.07,3.07,0,0,1-2.13.77,3.15,3.15,0,0,1-3.19-3.35,3.13,3.13,0,0,1,3.21-3.41,4.14,4.14,0,0,1,2,.52l-.35.64a3.36,3.36,0,0,0-1.61-.43A2.4,2.4,0,0,0,99,6.15a2.42,2.42,0,0,0,2.35,2.62A2.73,2.73,0,0,0,103,8.18Z"/><path class="cls-1" d="M109,8.86a3.33,3.33,0,0,1-2,.64,3.08,3.08,0,0,1-3.15-3.29c0-2,1-3.46,2.89-3.46a2.79,2.79,0,0,1,2.73,3,4,4,0,0,1,0,.49h-4.71A2.31,2.31,0,0,0,107,8.79a2.78,2.78,0,0,0,1.63-.5Zm-.38-3.33a2,2,0,0,0-1.93-2.06,2.18,2.18,0,0,0-1.93,2.06Z"/><path class="cls-1" d="M115,3.91V.24h.87V9.37H115v-1a2.52,2.52,0,0,1-2.09,1.1c-1.67,0-2.82-1.25-2.82-3.36s1.06-3.42,2.86-3.42A2.37,2.37,0,0,1,115,3.91Zm-4,2.23c0,1.28.61,2.68,2,2.68s2-1.19,2-2.68V6c0-1.7-.86-2.63-2-2.63C111.56,3.41,111,4.8,111,6.14Z"/><path class="cls-1" d="M120.07.24h1V1.43h-1Zm.09,2.67H121V9.37h-.87Z"/><path class="cls-1" d="M123.28,3.92a2.41,2.41,0,0,1,2-1.2,2.27,2.27,0,0,1,2.42,2.41V9.37h-.87V5.24a1.64,1.64,0,0,0-1.62-1.83,2,2,0,0,0-2,2.17V9.37h-.87V2.91h.87Z"/><path class="cls-1" d="M135,3.9a2.72,2.72,0,0,0-1.34-.46c-.78,0-1.18.39-1.18.91s.5.9,1.53,1.41,1.68,1,1.68,1.9a1.86,1.86,0,0,1-2.1,1.81,3,3,0,0,1-2.21-.88l.47-.59a2.52,2.52,0,0,0,1.7.74c.71,0,1.3-.31,1.3-1s-.59-.94-1.31-1.27c-.88-.4-1.87-.9-1.87-2a1.72,1.72,0,0,1,1.93-1.72,3.2,3.2,0,0,1,1.81.58Z"/><path class="cls-1" d="M137.44,3.68a2.05,2.05,0,0,1,3.63.3,2.26,2.26,0,0,1,2-1.26A2.09,2.09,0,0,1,145.24,5V9.37h-.86V4.89a1.38,1.38,0,0,0-1.48-1.47,1.57,1.57,0,0,0-1.55,1.77V9.37h-.86V5A1.44,1.44,0,0,0,139,3.42a1.61,1.61,0,0,0-1.59,1.75v4.2h-.86V2.91h.86Z"/><path class="cls-1" d="M146.78,3.29a3.78,3.78,0,0,1,2.07-.58A2.11,2.11,0,0,1,151,4a3.16,3.16,0,0,1,.19,1.12v3a5.76,5.76,0,0,0,.11,1.3h-.83a5.74,5.74,0,0,1-.17-.78,2.5,2.5,0,0,1-2.07.9A2.09,2.09,0,0,1,146,7.4c0-1.58,1.17-2.27,3.16-2.27.35,0,.72,0,1.12.06V5a1.41,1.41,0,0,0-1.52-1.58,3.2,3.2,0,0,0-1.66.5Zm3.52,2.58a8.86,8.86,0,0,0-1,0c-1.61,0-2.42.49-2.42,1.52a1.39,1.39,0,0,0,1.49,1.38,1.77,1.77,0,0,0,1.92-1.63Z"/><path class="cls-1" d="M152.42.24h.87V9.37h-.87Z"/><path class="cls-1" d="M154.68.24h.87V9.37h-.87Z"/><path class="cls-1" d="M164.46,3.91v-1h.87v9.2h-.87V8.4a2.51,2.51,0,0,1-2.07,1.1c-1.73,0-2.84-1.26-2.84-3.35s1.09-3.43,2.86-3.43A2.35,2.35,0,0,1,164.46,3.91Zm-4,2.23c0,1.28.62,2.68,2,2.68s2-1.19,2-2.68V6c0-1.7-.86-2.63-2-2.63C161.06,3.41,160.44,4.8,160.44,6.14Z"/><path class="cls-1" d="M171.1,8.3a2.4,2.4,0,0,1-2,1.2,2.28,2.28,0,0,1-2.43-2.41V2.91h.87V7a1.66,1.66,0,0,0,1.63,1.84,2.05,2.05,0,0,0,1.95-2.18V2.91H172V9.37h-.87Z"/><path class="cls-1" d="M173.6,3.29a3.78,3.78,0,0,1,2.07-.58A2.1,2.1,0,0,1,177.79,4,3.16,3.16,0,0,1,178,5.1v3a5.25,5.25,0,0,0,.12,1.3h-.84a6.93,6.93,0,0,1-.16-.78,2.52,2.52,0,0,1-2.07.9,2.1,2.1,0,0,1-2.19-2.09c0-1.58,1.18-2.27,3.16-2.27.36,0,.72,0,1.12.06V5a1.41,1.41,0,0,0-1.51-1.58,3.14,3.14,0,0,0-1.66.5Zm3.52,2.58a8.74,8.74,0,0,0-1,0c-1.61,0-2.42.49-2.42,1.52a1.39,1.39,0,0,0,1.49,1.38,1.77,1.77,0,0,0,1.92-1.63Z"/><path class="cls-1" d="M180.12,3.92a2.4,2.4,0,0,1,2-1.2,2.28,2.28,0,0,1,2.43,2.41V9.37h-.87V5.24a1.65,1.65,0,0,0-1.63-1.83,2,2,0,0,0-1.95,2.17V9.37h-.87V2.91h.87Z"/><path class="cls-1" d="M186.14,1.22,187,1v2h1.53v.71H187V7.78c0,.86.65,1,1.41,1v.73c-1.36,0-2.28-.32-2.28-1.67V3.62h-.92V2.91h.92Z"/><path class="cls-1" d="M189.3.24h1V1.43h-1Zm.09,2.67h.87V9.37h-.87Z"/><path class="cls-1" d="M192,1.22l.87-.27v2h1.53v.71h-1.53V7.78c0,.86.65,1,1.41,1v.73c-1.36,0-2.28-.32-2.28-1.67V3.62H191V2.91H192Z"/><path class="cls-1" d="M195.11.24h1V1.43h-1Zm.08,2.67h.87V9.37h-.87Z"/><path class="cls-1" d="M202.29,8.86a3.39,3.39,0,0,1-2,.64,3.09,3.09,0,0,1-3.15-3.29c0-2,1-3.46,2.9-3.46a2.78,2.78,0,0,1,2.72,3,4,4,0,0,1,0,.49H198a2.3,2.3,0,0,0,2.3,2.54,2.84,2.84,0,0,0,1.64-.5Zm-.39-3.33A2,2,0,0,0,200,3.47,2.18,2.18,0,0,0,198,5.53Z"/><path class="cls-1" d="M206.77,3.9a2.72,2.72,0,0,0-1.34-.46c-.78,0-1.18.39-1.18.91s.49.9,1.53,1.41,1.68,1,1.68,1.9a1.86,1.86,0,0,1-2.1,1.81,3,3,0,0,1-2.22-.88l.47-.59a2.55,2.55,0,0,0,1.71.74c.71,0,1.29-.31,1.29-1s-.58-.94-1.3-1.27c-.88-.4-1.87-.9-1.87-2a1.72,1.72,0,0,1,1.93-1.72,3.22,3.22,0,0,1,1.81.58Z"/><path class="cls-1" d="M211.58,2.91V2.16a3.74,3.74,0,0,1,.11-1A1.63,1.63,0,0,1,213.31,0a3.2,3.2,0,0,1,1.14.22L214.2.9a2.78,2.78,0,0,0-.78-.16.86.86,0,0,0-.87.57,2.27,2.27,0,0,0-.1.81v.79h1.36v.71h-1.36V9.37h-.87V3.62h-.91V2.91Z"/><path class="cls-1" d="M217.19,2.73a3.08,3.08,0,0,1,3,3.39c0,2.08-1.3,3.39-3,3.39s-3-1.31-3-3.39S215.5,2.73,217.19,2.73Zm0,6.09c1.15,0,2.1-1,2.1-2.7s-.95-2.69-2.1-2.69-2.1,1-2.1,2.69S216.05,8.82,217.19,8.82Z"/><path class="cls-1" d="M222.1,4a2.21,2.21,0,0,1,2-1.31,1.42,1.42,0,0,1,.29,0v.79a2.85,2.85,0,0,0-.29,0,2,2,0,0,0-2,2v3.9h-.87V2.91h.87Z"/><path class="cls-1" d="M230.63,2.73a3.08,3.08,0,0,1,3,3.39c0,2.08-1.3,3.39-3,3.39s-3-1.31-3-3.39S229,2.73,230.63,2.73Zm0,6.09c1.15,0,2.1-1,2.1-2.7s-.95-2.69-2.1-2.69-2.1,1-2.1,2.69S229.49,8.82,230.63,8.82Z"/><path class="cls-1" d="M235.54,3.92a2.41,2.41,0,0,1,2-1.2A2.27,2.27,0,0,1,240,5.13V9.37h-.87V5.24a1.65,1.65,0,0,0-1.62-1.83,2,2,0,0,0-2,2.17V9.37h-.87V2.91h.87Z"/><path class="cls-1" d="M241.26.24h.87V9.37h-.87Z"/><path class="cls-1" d="M243,11.39a2.67,2.67,0,0,0,2.19-2.07l-2.38-6.41h.93l1.9,5.35,1.83-5.35h.93l-2.1,5.93c-.7,1.95-1.16,2.88-3,3.29Z"/><path class="cls-1" d="M253.1,9.38V1.6l-1.32,1.1-.44-.55L253.25.49H254V9.38Z"/><path class="cls-1" d="M259.06,4.23a2.6,2.6,0,0,1,1.64,2.49,2.7,2.7,0,0,1-2.84,2.79,3.94,3.94,0,0,1-2.6-1l.46-.6a3.07,3.07,0,0,0,2.06.78,1.94,1.94,0,0,0,2.07-2c0-1.15-.82-2.07-2.53-2.07a10.87,10.87,0,0,0-1.39.12l.13-4.28h4.26V1.2H256.9L256.82,4l.6,0A4.42,4.42,0,0,1,259.06,4.23Z"/><path class="cls-1" d="M265,1.22l.87-.27v2h1.53v.71h-1.53V7.78c0,.86.65,1,1.41,1v.73c-1.36,0-2.28-.32-2.28-1.67V3.62h-.92V2.91H265Z"/><path class="cls-1" d="M270.78,2.73a3.08,3.08,0,0,1,3,3.39c0,2.08-1.3,3.39-3,3.39s-3-1.31-3-3.39S269.09,2.73,270.78,2.73Zm0,6.09c1.15,0,2.1-1,2.1-2.7s-.95-2.69-2.1-2.69-2.1,1-2.1,2.69S269.63,8.82,270.78,8.82Z"/><path class="cls-1" d="M282.71,8.66v.71h-5.23V8.6l1.92-2.11c1.76-1.94,2.29-2.87,2.29-3.68A1.62,1.62,0,0,0,280,1.15a3,3,0,0,0-2,.94l-.47-.6A3.66,3.66,0,0,1,280,.38a2.37,2.37,0,0,1,2.55,2.4c0,1.26-.86,2.32-2.53,4.2l-1.49,1.68Z"/><path class="cls-1" d="M283.06,4.89c0-1.84.66-4.49,2.86-4.49S288.8,3,288.8,4.92c0,2.06-.64,4.6-2.88,4.6S283.06,6.73,283.06,4.89Zm.85,0c0,1.44.4,3.89,2,3.89s2-2.47,2-3.86-.38-3.78-2-3.78S283.91,3.54,283.91,4.89Z"/><path class="cls-1" d="M297.37,3.91V.24h.87V9.37h-.87v-1a2.54,2.54,0,0,1-2.1,1.1c-1.67,0-2.81-1.25-2.81-3.36s1.06-3.42,2.86-3.42A2.38,2.38,0,0,1,297.37,3.91Zm-4,2.23c0,1.28.62,2.68,2,2.68s2-1.19,2-2.68V6c0-1.7-.86-2.63-2-2.63C294,3.41,293.35,4.8,293.35,6.14Z"/><path class="cls-1" d="M299.93,3.29A3.78,3.78,0,0,1,302,2.71,2.11,2.11,0,0,1,304.12,4a3.41,3.41,0,0,1,.18,1.12v3a5.78,5.78,0,0,0,.12,1.3h-.83a5.74,5.74,0,0,1-.17-.78,2.5,2.5,0,0,1-2.07.9,2.1,2.1,0,0,1-2.19-2.09c0-1.58,1.18-2.27,3.17-2.27.35,0,.72,0,1.12.06V5a1.42,1.42,0,0,0-1.52-1.58,3.14,3.14,0,0,0-1.66.5Zm3.52,2.58a9,9,0,0,0-1,0c-1.61,0-2.43.49-2.43,1.52a1.4,1.4,0,0,0,1.5,1.38,1.77,1.77,0,0,0,1.92-1.63Z"/><path class="cls-1" d="M305,11.39a2.69,2.69,0,0,0,2.19-2.07l-2.38-6.41h.93l1.89,5.35,1.84-5.35h.93L308.3,8.84c-.69,1.95-1.15,2.88-3,3.29Z"/><path class="cls-1" d="M314,3.9a2.75,2.75,0,0,0-1.34-.46c-.78,0-1.18.39-1.18.91s.49.9,1.53,1.41,1.68,1,1.68,1.9a1.86,1.86,0,0,1-2.1,1.81,3,3,0,0,1-2.22-.88l.47-.59a2.55,2.55,0,0,0,1.71.74c.71,0,1.29-.31,1.29-1s-.58-.94-1.3-1.27c-.88-.4-1.87-.9-1.87-2a1.72,1.72,0,0,1,1.93-1.72,3.22,3.22,0,0,1,1.81.58Z"/><path class="cls-1" d="M318.84,3.29a3.78,3.78,0,0,1,2.07-.58A2.11,2.11,0,0,1,323,4a3.41,3.41,0,0,1,.18,1.12v3a5.78,5.78,0,0,0,.12,1.3h-.83a5.74,5.74,0,0,1-.17-.78,2.52,2.52,0,0,1-2.07.9,2.1,2.1,0,0,1-2.19-2.09c0-1.58,1.18-2.27,3.17-2.27.35,0,.72,0,1.11.06l0-.19a1.42,1.42,0,0,0-1.52-1.58,3.14,3.14,0,0,0-1.66.5Zm3.51,2.58a8.69,8.69,0,0,0-1,0c-1.62,0-2.43.49-2.43,1.52a1.4,1.4,0,0,0,1.5,1.38,1.77,1.77,0,0,0,1.91-1.63Z"/><path class="cls-1" d="M326.86,11.39A2.66,2.66,0,0,0,329,9.32l-2.37-6.41h.93l1.89,5.35,1.84-5.35h.93l-2.11,5.93c-.69,1.95-1.15,2.88-3,3.29Z"/><path class="cls-1" d="M337.51,8.86a3.33,3.33,0,0,1-2,.64,3.08,3.08,0,0,1-3.15-3.29c0-2,1-3.46,2.89-3.46a2.79,2.79,0,0,1,2.73,3,4,4,0,0,1,0,.49h-4.71a2.31,2.31,0,0,0,2.31,2.54,2.78,2.78,0,0,0,1.63-.5Zm-.38-3.33a2,2,0,0,0-1.93-2.06,2.18,2.18,0,0,0-1.93,2.06Z"/><path class="cls-1" d="M339.23,3.29a3.78,3.78,0,0,1,2.07-.58A2.11,2.11,0,0,1,343.42,4a3.4,3.4,0,0,1,.19,1.12v3a5.76,5.76,0,0,0,.11,1.3h-.83a5.74,5.74,0,0,1-.17-.78,2.5,2.5,0,0,1-2.07.9,2.1,2.1,0,0,1-2.19-2.09c0-1.58,1.18-2.27,3.17-2.27.35,0,.72,0,1.12.06V5a1.41,1.41,0,0,0-1.52-1.58,3.14,3.14,0,0,0-1.66.5Zm3.52,2.58a9,9,0,0,0-1,0c-1.61,0-2.43.49-2.43,1.52a1.4,1.4,0,0,0,1.5,1.38,1.77,1.77,0,0,0,1.92-1.63Z"/><path class="cls-1" d="M345.74,4a2.21,2.21,0,0,1,2-1.31,1.37,1.37,0,0,1,.28,0v.79l-.28,0a2,2,0,0,0-2,2v3.9h-.87V2.91h.87Z"/><path class="cls-1" d="M348.68,8.74h1.26v1a2.3,2.3,0,0,1-.07.65,2.49,2.49,0,0,1-1,1.43l-.26-.25a2.16,2.16,0,0,0,.77-1.64h-.67Z"/><path class="cls-1" d="M.76,23.29a3.78,3.78,0,0,1,2.07-.58A2.1,2.1,0,0,1,5,24a3.16,3.16,0,0,1,.19,1.12v3a5.25,5.25,0,0,0,.12,1.3H4.42a6.93,6.93,0,0,1-.16-.78,2.52,2.52,0,0,1-2.07.9A2.1,2.1,0,0,1,0,27.4c0-1.58,1.18-2.27,3.16-2.27.36,0,.72,0,1.12.06V25a1.41,1.41,0,0,0-1.51-1.58,3.14,3.14,0,0,0-1.66.5Zm3.52,2.58a8.74,8.74,0,0,0-1-.05c-1.61,0-2.42.49-2.42,1.52a1.39,1.39,0,0,0,1.49,1.38,1.77,1.77,0,0,0,1.92-1.63Z"/><path class="cls-1" d="M7.28,23.92a2.4,2.4,0,0,1,2-1.2,2.28,2.28,0,0,1,2.43,2.41v4.24h-.87V25.24a1.65,1.65,0,0,0-1.63-1.83,2,2,0,0,0-1.95,2.17v3.79H6.41V22.91h.87Z"/><path class="cls-1" d="M17.57,23.91V20.24h.87v9.13h-.87v-1a2.52,2.52,0,0,1-2.09,1.1c-1.67,0-2.81-1.25-2.81-3.36s1.05-3.42,2.85-3.42A2.37,2.37,0,0,1,17.57,23.91Zm-4,2.23c0,1.28.61,2.68,2,2.68s2-1.19,2-2.68V26c0-1.7-.86-2.63-2-2.63C14.17,23.41,13.56,24.8,13.56,26.14Z"/><path class="cls-1" d="M22.68,20.24h1v1.19h-1Zm.09,2.67h.87v6.46h-.87Z"/><path class="cls-1" d="M28.1,23.9a2.76,2.76,0,0,0-1.35-.46c-.77,0-1.17.39-1.17.91s.49.9,1.53,1.41,1.68,1,1.68,1.9a1.87,1.87,0,0,1-2.11,1.81,3,3,0,0,1-2.21-.88l.47-.59a2.55,2.55,0,0,0,1.71.74c.7,0,1.29-.31,1.29-1s-.59-.94-1.3-1.27c-.89-.4-1.87-.9-1.87-2a1.72,1.72,0,0,1,1.93-1.72,3.22,3.22,0,0,1,1.81.58Z"/><path class="cls-1" d="M32.92,21.22l.87-.27v2h1.53v.71H33.79v4.16c0,.86.64,1,1.41,1v.73c-1.37,0-2.28-.32-2.28-1.67V23.62H32v-.71h.92Z"/><path class="cls-1" d="M37,23.92a2.44,2.44,0,0,1,2-1.2,2.27,2.27,0,0,1,2.42,2.41v4.24h-.87V25.24A1.65,1.65,0,0,0,39,23.41,2.06,2.06,0,0,0,37,25.58v3.79h-.87V20.24H37Z"/><path class="cls-1" d="M47.58,28.86a3.33,3.33,0,0,1-2,.64,3.08,3.08,0,0,1-3.15-3.29c0-2,1-3.46,2.89-3.46a2.79,2.79,0,0,1,2.73,3,4,4,0,0,1,0,.49H43.3a2.31,2.31,0,0,0,2.31,2.54,2.78,2.78,0,0,0,1.63-.5Zm-.39-3.33a2,2,0,0,0-1.93-2.06,2.2,2.2,0,0,0-1.93,2.06Z"/><path class="cls-1" d="M52.23,22.91v-.75a3.74,3.74,0,0,1,.11-1A1.63,1.63,0,0,1,54,20a3.2,3.2,0,0,1,1.14.22l-.25.68a2.78,2.78,0,0,0-.78-.16.85.85,0,0,0-.87.57,2.27,2.27,0,0,0-.1.81v.79h1.36v.71H53.1v5.75h-.87V23.62h-.91v-.71Z"/><path class="cls-1" d="M55.4,20.24h1v1.19h-1Zm.08,2.67h.87v6.46h-.87Z"/><path class="cls-1" d="M58.61,24a2.21,2.21,0,0,1,2-1.31,1.42,1.42,0,0,1,.29,0v.79a2.85,2.85,0,0,0-.29,0,2,2,0,0,0-2,2v3.9h-.87V22.91h.87Z"/><path class="cls-1" d="M64.62,23.9a2.72,2.72,0,0,0-1.34-.46c-.78,0-1.18.39-1.18.91s.5.9,1.53,1.41,1.68,1,1.68,1.9a1.86,1.86,0,0,1-2.1,1.81A3,3,0,0,1,61,28.59l.47-.59a2.54,2.54,0,0,0,1.7.74c.71,0,1.3-.31,1.3-1s-.59-.94-1.31-1.27c-.88-.4-1.87-.9-1.87-2a1.72,1.72,0,0,1,1.93-1.72,3.17,3.17,0,0,1,1.81.58Z"/><path class="cls-1" d="M66.5,21.22l.87-.27v2H68.9v.71H67.37v4.16c0,.86.65,1,1.41,1v.73c-1.36,0-2.28-.32-2.28-1.67V23.62h-.92v-.71h.92Z"/><path class="cls-1" d="M69.43,25.38v-.77h5.38v.77Z"/><path class="cls-1" d="M76.71,23.92a2.42,2.42,0,0,1,2-1.2,2.28,2.28,0,0,1,2.43,2.41v4.24h-.87V25.24a1.65,1.65,0,0,0-1.63-1.83,2.06,2.06,0,0,0-2,2.17v3.79h-.87V20.24h.87Z"/><path class="cls-1" d="M82.73,23.29a3.78,3.78,0,0,1,2.07-.58A2.11,2.11,0,0,1,86.92,24a3.16,3.16,0,0,1,.19,1.12v3a5.76,5.76,0,0,0,.11,1.3h-.83a5.74,5.74,0,0,1-.17-.78,2.5,2.5,0,0,1-2.07.9A2.09,2.09,0,0,1,82,27.4c0-1.58,1.17-2.27,3.16-2.27.35,0,.72,0,1.12.06V25a1.41,1.41,0,0,0-1.52-1.58,3.2,3.2,0,0,0-1.66.5Zm3.52,2.58a8.86,8.86,0,0,0-1-.05c-1.61,0-2.42.49-2.42,1.52a1.39,1.39,0,0,0,1.49,1.38,1.77,1.77,0,0,0,1.92-1.63Z"/><path class="cls-1" d="M89.25,24a2.18,2.18,0,0,1,2-1.31,1.32,1.32,0,0,1,.28,0v.79l-.28,0a2,2,0,0,0-2,2v3.9h-.88V22.91h.88Z"/><path class="cls-1" d="M94.2,28.38l1.94-5.47h.93l-2.4,6.46h-.94l-2.4-6.46h.93Z"/><path class="cls-1" d="M102.36,28.86a3.38,3.38,0,0,1-2,.64,3.09,3.09,0,0,1-3.16-3.29c0-2,1-3.46,2.9-3.46a2.79,2.79,0,0,1,2.73,3,2.69,2.69,0,0,1,0,.49h-4.7a2.3,2.3,0,0,0,2.3,2.54,2.79,2.79,0,0,0,1.64-.5ZM102,25.53A2,2,0,0,0,100,23.47a2.2,2.2,0,0,0-1.93,2.06Z"/><path class="cls-1" d="M106.84,23.9a2.72,2.72,0,0,0-1.34-.46c-.78,0-1.18.39-1.18.91s.5.9,1.53,1.41,1.68,1,1.68,1.9a1.86,1.86,0,0,1-2.1,1.81,3,3,0,0,1-2.21-.88l.47-.59a2.52,2.52,0,0,0,1.7.74c.71,0,1.3-.31,1.3-1s-.59-.94-1.31-1.27c-.88-.4-1.87-.9-1.87-2a1.72,1.72,0,0,1,1.93-1.72,3.2,3.2,0,0,1,1.81.58Z"/><path class="cls-1" d="M108.72,21.22l.87-.27v2h1.53v.71h-1.53v4.16c0,.86.65,1,1.41,1v.73c-1.36,0-2.28-.32-2.28-1.67V23.62h-.92v-.71h.92Z"/><path class="cls-1" d="M116.68,28.86a3.33,3.33,0,0,1-2,.64,3.08,3.08,0,0,1-3.15-3.29c0-2,1-3.46,2.89-3.46a2.79,2.79,0,0,1,2.73,3,4,4,0,0,1,0,.49H112.4a2.31,2.31,0,0,0,2.31,2.54,2.78,2.78,0,0,0,1.63-.5Zm-.39-3.33a2,2,0,0,0-1.92-2.06,2.18,2.18,0,0,0-1.93,2.06Z"/><path class="cls-1" d="M122.67,23.91V20.24h.87v9.13h-.87v-1a2.53,2.53,0,0,1-2.1,1.1c-1.67,0-2.81-1.25-2.81-3.36s1.06-3.42,2.86-3.42A2.37,2.37,0,0,1,122.67,23.91Zm-4,2.23c0,1.28.61,2.68,2,2.68s2-1.19,2-2.68V26c0-1.7-.86-2.63-2-2.63C119.27,23.41,118.66,24.8,118.66,26.14Z"/><path class="cls-1" d="M124.92,28.74h1.26v1a2.3,2.3,0,0,1-.07.65,2.49,2.49,0,0,1-1,1.43l-.26-.25A2.2,2.2,0,0,0,125.6,30h-.68Z"/><path class="cls-1" d="M131.31,23.92a2.42,2.42,0,0,1,2-1.2,2.28,2.28,0,0,1,2.43,2.41v4.24h-.87V25.24a1.65,1.65,0,0,0-1.63-1.83,2.06,2.06,0,0,0-1.95,2.17v3.79h-.87V20.24h.87Z"/><path class="cls-1" d="M136.94,20.24h1v1.19h-1Zm.09,2.67h.87v6.46H137Z"/><path class="cls-1" d="M143.86,23.91v-1h.87v5.92A2.87,2.87,0,0,1,141.8,32a4.62,4.62,0,0,1-2.22-.6l.32-.66a3.87,3.87,0,0,0,1.88.52c1.1,0,2.08-.75,2.08-2.49v-.48a2.41,2.41,0,0,1-2.08,1.06c-1.67,0-2.83-1.19-2.83-3.27s1.1-3.39,2.84-3.39A2.36,2.36,0,0,1,143.86,23.91Zm-4,2.17c0,1.28.61,2.62,2,2.62s2-1.13,2-2.62v0c0-1.7-.86-2.63-2-2.63C140.46,23.41,139.85,24.74,139.85,26.08Z"/><path class="cls-1" d="M147,23.92a2.42,2.42,0,0,1,2-1.2,2.27,2.27,0,0,1,2.42,2.41v4.24h-.87V25.24a1.64,1.64,0,0,0-1.62-1.83A2.06,2.06,0,0,0,147,25.58v3.79h-.87V20.24H147Z"/><path class="cls-1" d="M152.38,25.38v-.77h5.38v.77Z"/><path class="cls-1" d="M163.37,23.91v-1h.87v9.2h-.87V28.4a2.51,2.51,0,0,1-2.07,1.1c-1.73,0-2.84-1.26-2.84-3.35s1.1-3.43,2.86-3.43A2.35,2.35,0,0,1,163.37,23.91Zm-4,2.23c0,1.28.61,2.68,2,2.68s2-1.19,2-2.68V26c0-1.7-.86-2.63-2-2.63C160,23.41,159.36,24.8,159.36,26.14Z"/><path class="cls-1" d="M170,28.3a2.4,2.4,0,0,1-2,1.2,2.27,2.27,0,0,1-2.42-2.41V22.91h.87V27a1.65,1.65,0,0,0,1.62,1.84A2,2,0,0,0,170,26.64V22.91h.87v6.46H170Z"/><path class="cls-1" d="M172.52,23.29a3.75,3.75,0,0,1,2.07-.58A2.09,2.09,0,0,1,176.7,24a3.16,3.16,0,0,1,.19,1.12v3a5.25,5.25,0,0,0,.12,1.3h-.83a5.74,5.74,0,0,1-.17-.78,2.52,2.52,0,0,1-2.07.9,2.1,2.1,0,0,1-2.19-2.09c0-1.58,1.18-2.27,3.17-2.27.35,0,.71,0,1.11.06l0-.19a1.42,1.42,0,0,0-1.52-1.58,3.14,3.14,0,0,0-1.66.5ZM176,25.87a8.69,8.69,0,0,0-1-.05c-1.62,0-2.43.49-2.43,1.52a1.4,1.4,0,0,0,1.5,1.38A1.77,1.77,0,0,0,176,27.09Z"/><path class="cls-1" d="M178.16,20.24H179v9.13h-.87Z"/><path class="cls-1" d="M180.34,20.24h1v1.19h-1Zm.08,2.67h.87v6.46h-.87Z"/><path class="cls-1" d="M183,21.22l.87-.27v2h1.53v.71h-1.53v4.16c0,.86.65,1,1.42,1v.73c-1.37,0-2.29-.32-2.29-1.67V23.62h-.91v-.71H183Z"/><path class="cls-1" d="M185.66,31.39a2.66,2.66,0,0,0,2.19-2.07l-2.37-6.41h.92l1.9,5.35,1.83-5.35h.93L189,28.84c-.7,1.95-1.16,2.88-3,3.29Z"/><path class="cls-1" d="M191.6,28.74h1.26v1a2.3,2.3,0,0,1-.07.65,2.59,2.59,0,0,1-1,1.43l-.26-.25a2.16,2.16,0,0,0,.77-1.64h-.67Z"/><path class="cls-1" d="M198,23.92a2.42,2.42,0,0,1,2-1.2,2.28,2.28,0,0,1,2.43,2.41v4.24h-.88V25.24a1.64,1.64,0,0,0-1.62-1.83A2.06,2.06,0,0,0,198,25.58v3.79h-.87V20.24H198Z"/><path class="cls-1" d="M203.62,20.24h1v1.19h-1Zm.08,2.67h.87v6.46h-.87Z"/><path class="cls-1" d="M210.54,23.91v-1h.87v5.92a2.87,2.87,0,0,1-2.93,3.2,4.62,4.62,0,0,1-2.22-.6l.31-.66a3.93,3.93,0,0,0,1.89.52c1.1,0,2.08-.75,2.08-2.49v-.48a2.43,2.43,0,0,1-2.08,1.06c-1.68,0-2.83-1.19-2.83-3.27s1.1-3.39,2.84-3.39A2.36,2.36,0,0,1,210.54,23.91Zm-4,2.17c0,1.28.61,2.62,2,2.62s2-1.13,2-2.62v0c0-1.7-.86-2.63-2-2.63C207.14,23.41,206.53,24.74,206.53,26.08Z"/><path class="cls-1" d="M213.66,23.92a2.45,2.45,0,0,1,2-1.2,2.27,2.27,0,0,1,2.42,2.41v4.24h-.87V25.24a1.64,1.64,0,0,0-1.62-1.83,2.06,2.06,0,0,0-2,2.17v3.79h-.87V20.24h.87Z"/><path class="cls-1" d="M219.06,25.38v-.77h5.38v.77Z"/><path class="cls-1" d="M230.05,23.91v-1h.87v5.92A2.87,2.87,0,0,1,228,32a4.66,4.66,0,0,1-2.23-.6l.32-.66a3.93,3.93,0,0,0,1.88.52c1.11,0,2.09-.75,2.09-2.49v-.48A2.43,2.43,0,0,1,228,29.38c-1.67,0-2.82-1.19-2.82-3.27s1.1-3.39,2.84-3.39A2.36,2.36,0,0,1,230.05,23.91Zm-4,2.17c0,1.28.61,2.62,2,2.62s2-1.13,2-2.62v0c0-1.7-.86-2.63-2-2.63C226.65,23.41,226,24.74,226,26.08Z"/><path class="cls-1" d="M233.17,24a2.21,2.21,0,0,1,2-1.31,1.37,1.37,0,0,1,.28,0v.79l-.28,0a2,2,0,0,0-2,2v3.9h-.87V22.91h.87Z"/><path class="cls-1" d="M236.07,23.29a3.75,3.75,0,0,1,2.07-.58A2.09,2.09,0,0,1,240.25,24a3.16,3.16,0,0,1,.19,1.12v3a5.25,5.25,0,0,0,.12,1.3h-.83a5.74,5.74,0,0,1-.17-.78,2.52,2.52,0,0,1-2.07.9,2.1,2.1,0,0,1-2.19-2.09c0-1.58,1.18-2.27,3.17-2.27.35,0,.71,0,1.11.06l0-.19a1.42,1.42,0,0,0-1.52-1.58,3.14,3.14,0,0,0-1.66.5Zm3.51,2.58a8.69,8.69,0,0,0-1-.05c-1.62,0-2.43.49-2.43,1.52a1.4,1.4,0,0,0,1.5,1.38,1.77,1.77,0,0,0,1.91-1.63Z"/><path class="cls-1" d="M246.29,23.91V20.24h.87v9.13h-.87v-1a2.54,2.54,0,0,1-2.1,1.1c-1.67,0-2.81-1.25-2.81-3.36s1.06-3.42,2.86-3.42A2.38,2.38,0,0,1,246.29,23.91Zm-4,2.23c0,1.28.61,2.68,2,2.68s2-1.19,2-2.68V26c0-1.7-.86-2.63-2-2.63C242.89,23.41,242.28,24.8,242.28,26.14Z"/><path class="cls-1" d="M253.38,28.86a3.39,3.39,0,0,1-2,.64,3.09,3.09,0,0,1-3.15-3.29c0-2,1-3.46,2.9-3.46a2.79,2.79,0,0,1,2.73,3,2.69,2.69,0,0,1,0,.49h-4.7a2.3,2.3,0,0,0,2.3,2.54,2.81,2.81,0,0,0,1.64-.5ZM253,25.53a2,2,0,0,0-1.93-2.06,2.2,2.2,0,0,0-1.93,2.06Z"/><path class="cls-1" d="M262.3,23.91v-1h.87v5.92a2.86,2.86,0,0,1-2.92,3.2,4.63,4.63,0,0,1-2.23-.6l.32-.66a3.93,3.93,0,0,0,1.88.52c1.11,0,2.08-.75,2.08-2.49v-.48a2.4,2.4,0,0,1-2.08,1.06c-1.67,0-2.82-1.19-2.82-3.27s1.09-3.39,2.83-3.39A2.35,2.35,0,0,1,262.3,23.91Zm-4,2.17c0,1.28.61,2.62,2,2.62s2-1.13,2-2.62v0c0-1.7-.85-2.63-2-2.63C258.9,23.41,258.29,24.74,258.29,26.08Z"/><path class="cls-1" d="M267.21,22.73a3.08,3.08,0,0,1,3,3.39c0,2.08-1.3,3.39-3,3.39s-3-1.31-3-3.39S265.52,22.73,267.21,22.73Zm0,6.09c1.15,0,2.1-1,2.1-2.7s-.95-2.69-2.1-2.69-2.1,1-2.1,2.69S266.07,28.82,267.21,28.82Z"/><path class="cls-1" d="M274.17,22.72c1.76,0,2.86,1.31,2.86,3.43s-1.11,3.35-2.84,3.35a2.51,2.51,0,0,1-2.07-1.1v3.71h-.87v-9.2h.87v1A2.35,2.35,0,0,1,274.17,22.72Zm0,.69c-1.17,0-2,.93-2,2.63v.1c0,1.49.66,2.68,2,2.68s2-1.4,2-2.68S275.52,23.41,274.15,23.41Z"/><path class="cls-1" d="M283.06,28.72a3.07,3.07,0,0,1-2.13.77,3.16,3.16,0,0,1-3.19-3.35A3.13,3.13,0,0,1,281,22.73a4.14,4.14,0,0,1,2,.52l-.34.64a3.43,3.43,0,0,0-1.62-.43,2.39,2.39,0,0,0-2.31,2.69A2.41,2.41,0,0,0,281,28.77a2.73,2.73,0,0,0,1.66-.59Z"/><path class="cls-1" d="M284.68,23.92a2.42,2.42,0,0,1,2-1.2,2.28,2.28,0,0,1,2.43,2.41v4.24h-.87V25.24a1.65,1.65,0,0,0-1.63-1.83,2.06,2.06,0,0,0-1.95,2.17v3.79h-.87V20.24h.87Z"/><path class="cls-1" d="M290.7,23.29a3.78,3.78,0,0,1,2.07-.58A2.11,2.11,0,0,1,294.89,24a3.16,3.16,0,0,1,.19,1.12v3a5.25,5.25,0,0,0,.12,1.3h-.84a6.93,6.93,0,0,1-.16-.78,2.52,2.52,0,0,1-2.07.9,2.1,2.1,0,0,1-2.19-2.09c0-1.58,1.17-2.27,3.16-2.27.36,0,.72,0,1.12.06V25a1.41,1.41,0,0,0-1.52-1.58,3.14,3.14,0,0,0-1.65.5Zm3.52,2.58a8.86,8.86,0,0,0-1-.05c-1.61,0-2.42.49-2.42,1.52a1.39,1.39,0,0,0,1.49,1.38,1.77,1.77,0,0,0,1.92-1.63Z"/><path class="cls-1" d="M297.22,23.92a2.4,2.4,0,0,1,2-1.2,2.27,2.27,0,0,1,2.42,2.41v4.24h-.87V25.24a1.64,1.64,0,0,0-1.62-1.83,2,2,0,0,0-1.95,2.17v3.79h-.87V22.91h.87Z"/><path class="cls-1" d="M307.51,23.91v-1h.87v5.92a2.87,2.87,0,0,1-2.93,3.2,4.62,4.62,0,0,1-2.22-.6l.31-.66a3.93,3.93,0,0,0,1.89.52c1.1,0,2.08-.75,2.08-2.49v-.48a2.41,2.41,0,0,1-2.08,1.06c-1.67,0-2.83-1.19-2.83-3.27s1.1-3.39,2.84-3.39A2.36,2.36,0,0,1,307.51,23.91Zm-4,2.17c0,1.28.61,2.62,2,2.62s2-1.13,2-2.62v0c0-1.7-.86-2.63-2-2.63C304.11,23.41,303.5,24.74,303.5,26.08Z"/><path class="cls-1" d="M312.7,20.24h.87v9.13h-.87Z"/><path class="cls-1" d="M315.27,23.29a3.78,3.78,0,0,1,2.07-.58A2.11,2.11,0,0,1,319.46,24a3.41,3.41,0,0,1,.18,1.12v3a5.78,5.78,0,0,0,.12,1.3h-.83a5.74,5.74,0,0,1-.17-.78,2.5,2.5,0,0,1-2.07.9,2.1,2.1,0,0,1-2.19-2.09c0-1.58,1.18-2.27,3.17-2.27.35,0,.72,0,1.12.06V25a1.42,1.42,0,0,0-1.52-1.58,3.14,3.14,0,0,0-1.66.5Zm3.52,2.58a9,9,0,0,0-1-.05c-1.61,0-2.43.49-2.43,1.52a1.4,1.4,0,0,0,1.5,1.38,1.77,1.77,0,0,0,1.92-1.63Z"/><path class="cls-1" d="M322.92,28.38l1.95-5.47h.92l-2.39,6.46h-.95l-2.4-6.46H321Z"/><path class="cls-1" d="M331.09,28.86a3.39,3.39,0,0,1-2,.64,3.09,3.09,0,0,1-3.15-3.29c0-2,1-3.46,2.89-3.46a2.79,2.79,0,0,1,2.73,3,4,4,0,0,1,0,.49H326.8a2.31,2.31,0,0,0,2.31,2.54,2.84,2.84,0,0,0,1.64-.5Zm-.39-3.33a2,2,0,0,0-1.93-2.06,2.18,2.18,0,0,0-1.93,2.06Z"/><path class="cls-1" d="M333.37,24a2.19,2.19,0,0,1,2-1.31,1.32,1.32,0,0,1,.28,0v.79l-.28,0a2,2,0,0,0-2,2v3.9h-.87V22.91h.87Z"/><path class="cls-1" d="M344.54,28.29,346,22.91h.84L345,29.37h-.86l-1.45-5.47-1.45,5.47h-.86l-1.82-6.46h.84l1.42,5.38,1.41-5.38h.92Z"/><path class="cls-1" d="M347.41,20.24h1v1.19h-1Zm.08,2.67h.87v6.46h-.87Z"/><path class="cls-1" d="M350.05,21.22l.87-.27v2h1.53v.71h-1.53v4.16c0,.86.65,1,1.42,1v.73c-1.37,0-2.29-.32-2.29-1.67V23.62h-.91v-.71h.91Z"/><path class="cls-1" d="M354.17,23.92a2.42,2.42,0,0,1,2-1.2,2.28,2.28,0,0,1,2.43,2.41v4.24h-.87V25.24a1.65,1.65,0,0,0-1.63-1.83,2.06,2.06,0,0,0-1.95,2.17v3.79h-.87V20.24h.87Z"/><path class="cls-1" d="M84.43,42.91v-.75a3.36,3.36,0,0,1,.12-1A1.61,1.61,0,0,1,86.16,40a3.16,3.16,0,0,1,1.14.22l-.25.68a2.71,2.71,0,0,0-.77-.16.85.85,0,0,0-.87.57,2,2,0,0,0-.11.81v.79h1.36v.71H85.3v5.75h-.87V43.62h-.91v-.71Z"/><path class="cls-1" d="M87.6,40.24h1v1.19h-1Zm.09,2.67h.87v6.46h-.87Z"/><path class="cls-1" d="M92,48.38l1.94-5.47h.93l-2.4,6.46h-.94l-2.4-6.46H90Z"/><path class="cls-1" d="M100.12,48.86a3.38,3.38,0,0,1-2,.64,3.09,3.09,0,0,1-3.16-3.29c0-2,1-3.46,2.9-3.46a2.79,2.79,0,0,1,2.73,3,2.69,2.69,0,0,1,0,.49h-4.7a2.3,2.3,0,0,0,2.3,2.54,2.81,2.81,0,0,0,1.64-.5Zm-.39-3.33a2,2,0,0,0-1.93-2.06,2.2,2.2,0,0,0-1.93,2.06Z"/><path class="cls-1" d="M104.77,41.22l.87-.27v2h1.53v.71h-1.53v4.16c0,.86.65,1,1.42,1v.73c-1.37,0-2.29-.32-2.29-1.67V43.62h-.91v-.71h.91Z"/><path class="cls-1" d="M107.94,40.24h1v1.19h-1Zm.08,2.67h.87v6.46H108Z"/><path class="cls-1" d="M111.14,43.68a2,2,0,0,1,3.62.3,2.27,2.27,0,0,1,1.95-1.26A2.1,2.1,0,0,1,118.94,45v4.42h-.86V44.89a1.38,1.38,0,0,0-1.49-1.47A1.57,1.57,0,0,0,115,45.19v4.18h-.86V45a1.44,1.44,0,0,0-1.46-1.58,1.61,1.61,0,0,0-1.58,1.75v4.2h-.86V42.91h.86Z"/><path class="cls-1" d="M125,48.86a3.33,3.33,0,0,1-2,.64,3.08,3.08,0,0,1-3.15-3.29c0-2,1-3.46,2.89-3.46a2.79,2.79,0,0,1,2.73,3,4,4,0,0,1,0,.49h-4.71A2.31,2.31,0,0,0,123,48.79a2.78,2.78,0,0,0,1.63-.5Zm-.39-3.33a2,2,0,0,0-1.93-2.06,2.18,2.18,0,0,0-1.92,2.06Z"/><path class="cls-1" d="M129.48,43.9a2.72,2.72,0,0,0-1.34-.46c-.78,0-1.18.39-1.18.91s.5.9,1.53,1.41,1.69,1,1.69,1.9a1.87,1.87,0,0,1-2.11,1.81,3,3,0,0,1-2.21-.88l.47-.59a2.55,2.55,0,0,0,1.71.74c.7,0,1.29-.31,1.29-1.05s-.59-.94-1.31-1.27c-.88-.4-1.87-.9-1.87-2a1.72,1.72,0,0,1,1.93-1.72,3.17,3.17,0,0,1,1.81.58Z"/><path class="cls-1" d="M134.86,43.68a2,2,0,0,1,3.62.3,2.27,2.27,0,0,1,2-1.26A2.1,2.1,0,0,1,142.66,45v4.42h-.86V44.89a1.38,1.38,0,0,0-1.49-1.47,1.57,1.57,0,0,0-1.55,1.77v4.18h-.86V45a1.44,1.44,0,0,0-1.46-1.58,1.6,1.6,0,0,0-1.58,1.75v4.2H134V42.91h.86Z"/><path class="cls-1" d="M146.53,42.73a3.08,3.08,0,0,1,3,3.39c0,2.08-1.29,3.39-3,3.39s-3-1.31-3-3.39S144.85,42.73,146.53,42.73Zm0,6.09c1.16,0,2.11-1,2.11-2.7s-.95-2.69-2.11-2.69-2.09,1-2.09,2.69S145.39,48.82,146.53,48.82Z"/><path class="cls-1" d="M151.45,44a2.21,2.21,0,0,1,2-1.31,1.32,1.32,0,0,1,.28,0v.79l-.28,0a2,2,0,0,0-2,2v3.9h-.87V42.91h.87Z"/><path class="cls-1" d="M158.93,48.86a3.38,3.38,0,0,1-2,.64,3.09,3.09,0,0,1-3.16-3.29c0-2,1-3.46,2.9-3.46a2.79,2.79,0,0,1,2.73,3,2.69,2.69,0,0,1,0,.49h-4.7a2.3,2.3,0,0,0,2.3,2.54,2.79,2.79,0,0,0,1.64-.5Zm-.39-3.33a2,2,0,0,0-1.93-2.06,2.2,2.2,0,0,0-1.93,2.06Z"/><path class="cls-1" d="M164.15,43.92a2.4,2.4,0,0,1,2-1.2,2.28,2.28,0,0,1,2.43,2.41v4.24h-.87V45.24a1.65,1.65,0,0,0-1.63-1.83,2,2,0,0,0-1.95,2.17v3.79h-.87V42.91h.87Z"/><path class="cls-1" d="M174.25,48.3a2.4,2.4,0,0,1-2,1.2,2.27,2.27,0,0,1-2.42-2.41V42.91h.87V47a1.65,1.65,0,0,0,1.62,1.84,2,2,0,0,0,1.95-2.18V42.91h.87v6.46h-.87Z"/><path class="cls-1" d="M176.76,41.22l.87-.27v2h1.53v.71h-1.53v4.16c0,.86.64,1,1.41,1v.73c-1.37,0-2.28-.32-2.28-1.67V43.62h-.92v-.71h.92Z"/><path class="cls-1" d="M180.87,44a2.21,2.21,0,0,1,2-1.31,1.42,1.42,0,0,1,.29,0v.79a2.85,2.85,0,0,0-.29,0,2,2,0,0,0-2,2v3.9H180V42.91h.87Z"/><path class="cls-1" d="M183.73,40.24h1v1.19h-1Zm.08,2.67h.87v6.46h-.87Z"/><path class="cls-1" d="M190.9,48.86a3.33,3.33,0,0,1-2,.64,3.08,3.08,0,0,1-3.15-3.29c0-2,1-3.46,2.89-3.46a2.79,2.79,0,0,1,2.73,3,4,4,0,0,1,0,.49h-4.71a2.31,2.31,0,0,0,2.31,2.54,2.78,2.78,0,0,0,1.63-.5Zm-.38-3.33a2,2,0,0,0-1.93-2.06,2.18,2.18,0,0,0-1.93,2.06Z"/><path class="cls-1" d="M193.18,43.92a2.41,2.41,0,0,1,2-1.2,2.27,2.27,0,0,1,2.42,2.41v4.24h-.87V45.24a1.64,1.64,0,0,0-1.62-1.83,2,2,0,0,0-2,2.17v3.79h-.87V42.91h.87Z"/><path class="cls-1" d="M199.21,41.22l.87-.27v2h1.53v.71h-1.53v4.16c0,.86.64,1,1.41,1v.73c-1.37,0-2.28-.32-2.28-1.67V43.62h-.92v-.71h.92Z"/><path class="cls-1" d="M205.52,43.9a2.72,2.72,0,0,0-1.34-.46c-.78,0-1.18.39-1.18.91s.5.9,1.53,1.41,1.69,1,1.69,1.9a1.87,1.87,0,0,1-2.11,1.81,3,3,0,0,1-2.21-.88l.47-.59a2.54,2.54,0,0,0,1.7.74c.71,0,1.3-.31,1.3-1.05s-.59-.94-1.31-1.27c-.88-.4-1.87-.9-1.87-2a1.72,1.72,0,0,1,1.93-1.72,3.17,3.17,0,0,1,1.81.58Z"/><path class="cls-1" d="M210.34,43.29a3.78,3.78,0,0,1,2.07-.58A2.11,2.11,0,0,1,214.53,44a3.16,3.16,0,0,1,.19,1.12v3a5.25,5.25,0,0,0,.12,1.3H214a6.93,6.93,0,0,1-.16-.78,2.52,2.52,0,0,1-2.07.9,2.1,2.1,0,0,1-2.19-2.09c0-1.58,1.17-2.27,3.16-2.27.35,0,.72,0,1.12.06V45a1.41,1.41,0,0,0-1.52-1.58,3.2,3.2,0,0,0-1.66.5Zm3.52,2.58a8.86,8.86,0,0,0-1,0c-1.61,0-2.42.49-2.42,1.52a1.39,1.39,0,0,0,1.49,1.38,1.77,1.77,0,0,0,1.92-1.63Z"/><path class="cls-1" d="M216.86,43.92a2.4,2.4,0,0,1,2-1.2,2.27,2.27,0,0,1,2.42,2.41v4.24h-.87V45.24a1.64,1.64,0,0,0-1.62-1.83,2,2,0,0,0-1.95,2.17v3.79H216V42.91h.87Z"/><path class="cls-1" d="M227.15,43.91V40.24H228v9.13h-.87v-1a2.53,2.53,0,0,1-2.1,1.1c-1.67,0-2.81-1.25-2.81-3.36s1.06-3.42,2.86-3.42A2.38,2.38,0,0,1,227.15,43.91Zm-4,2.23c0,1.28.61,2.68,2,2.68s2-1.19,2-2.68V46c0-1.7-.86-2.63-2-2.63C223.75,43.41,223.14,44.8,223.14,46.14Z"/><path class="cls-1" d="M233.2,43.68a2.05,2.05,0,0,1,3.63.3,2.26,2.26,0,0,1,1.95-1.26A2.09,2.09,0,0,1,241,45v4.42h-.86V44.89a1.38,1.38,0,0,0-1.48-1.47,1.57,1.57,0,0,0-1.55,1.77v4.18h-.86V45a1.44,1.44,0,0,0-1.46-1.58,1.61,1.61,0,0,0-1.59,1.75v4.2h-.86V42.91h.86Z"/><path class="cls-1" d="M242.15,40.24h1v1.19h-1Zm.08,2.67h.87v6.46h-.87Z"/><path class="cls-1" d="M245.36,43.92a2.41,2.41,0,0,1,2-1.2,2.27,2.27,0,0,1,2.42,2.41v4.24h-.87V45.24a1.65,1.65,0,0,0-1.62-1.83,2,2,0,0,0-2,2.17v3.79h-.87V42.91h.87Z"/><path class="cls-1" d="M255.91,48.86a3.33,3.33,0,0,1-2,.64,3.08,3.08,0,0,1-3.15-3.29c0-2,1-3.46,2.89-3.46a2.79,2.79,0,0,1,2.73,3,4,4,0,0,1,0,.49h-4.71a2.31,2.31,0,0,0,2.31,2.54,2.78,2.78,0,0,0,1.63-.5Zm-.39-3.33a2,2,0,0,0-1.92-2.06,2.18,2.18,0,0,0-1.93,2.06Z"/><path class="cls-1" d="M258.19,44a2.21,2.21,0,0,1,2-1.31,1.42,1.42,0,0,1,.29,0v.79a2.85,2.85,0,0,0-.29,0,2,2,0,0,0-2,2v3.9h-.87V42.91h.87Z"/><path class="cls-1" d="M261.09,43.29a3.75,3.75,0,0,1,2.07-.58A2.09,2.09,0,0,1,265.27,44a3.16,3.16,0,0,1,.19,1.12v3a5.25,5.25,0,0,0,.12,1.3h-.84a6.93,6.93,0,0,1-.16-.78,2.52,2.52,0,0,1-2.07.9,2.1,2.1,0,0,1-2.19-2.09c0-1.58,1.18-2.27,3.17-2.27.35,0,.71,0,1.11.06V45a1.41,1.41,0,0,0-1.51-1.58,3.14,3.14,0,0,0-1.66.5Zm3.51,2.58a8.74,8.74,0,0,0-1,0c-1.61,0-2.42.49-2.42,1.52a1.4,1.4,0,0,0,1.5,1.38,1.77,1.77,0,0,0,1.91-1.63Z"/><path class="cls-1" d="M266.73,40.24h.87v9.13h-.87Z"/><path class="cls-1" d="M272.06,43.9a2.72,2.72,0,0,0-1.34-.46c-.78,0-1.18.39-1.18.91s.5.9,1.53,1.41,1.68,1,1.68,1.9a1.86,1.86,0,0,1-2.1,1.81,3,3,0,0,1-2.21-.88l.47-.59a2.52,2.52,0,0,0,1.7.74c.71,0,1.3-.31,1.3-1.05s-.59-.94-1.31-1.27c-.88-.4-1.87-.9-1.87-2a1.72,1.72,0,0,1,1.93-1.72,3.2,3.2,0,0,1,1.81.58Z"/><path class="cls-1" d="M273.61,48.74h1.26V50h-1.26Z"/></g></g></svg>