<svg xmlns="http://www.w3.org/2000/svg" viewBox="0 0 222.39 118.19"><defs><style>.cls-1{fill:#231815;}</style></defs><title>자산 123</title><g id="레이어_2" data-name="레이어 2"><g id="레이어_1-2" data-name="레이어 1"><path class="cls-1" d="M6.6,9.59H5.92V5.38H1.42V9.59H.74V1.08h.68V4.82h4.5V1.08H6.6Z"/><path class="cls-1" d="M8.93,3.72a3.53,3.53,0,0,1,1.9-.53,2.17,2.17,0,0,1,2,1.22A3.09,3.09,0,0,1,13,5.48v2.9a5.53,5.53,0,0,0,.09,1.21h-.63a6,6,0,0,1-.15-.76,2.79,2.79,0,0,1-2.11.9,2,2,0,0,1-2.05-2c0-1.52,1.1-2.16,3-2.16a11.4,11.4,0,0,1,1.18.07V5.48a1.49,1.49,0,0,0-1.54-1.7,3.2,3.2,0,0,0-1.6.44Zm3.42,2.46c-.43,0-.75-.06-1.07-.06-1.65,0-2.42.54-2.42,1.63A1.43,1.43,0,0,0,10.4,9.14a1.82,1.82,0,0,0,1.95-1.6Z"/><path class="cls-1" d="M19.32,9.15a3.3,3.3,0,0,1-1.88.58,3,3,0,0,1-3-3.18c0-1.94,1.06-3.37,2.71-3.37A2.73,2.73,0,0,1,19.77,6.1c0,.15,0,.26,0,.41H15.15a2.39,2.39,0,0,0,2.34,2.62A2.86,2.86,0,0,0,19,8.7ZM19.12,6a2,2,0,0,0-2-2.18,2.27,2.27,0,0,0-2,2.18Z"/><path class="cls-1" d="M19.79,11.74C21,11.5,21.38,11,21.38,10V3.42h.68V10A2.2,2.2,0,0,1,20,12.3ZM21.23.79h1v1h-1Z"/><path class="cls-1" d="M23.52,6.45c0-2,1.25-3.26,2.85-3.26S29.2,4.45,29.2,6.45s-1.26,3.28-2.84,3.28S23.52,8.46,23.52,6.45Zm.68,0c0,1.71,1,2.71,2.16,2.71s2.16-1,2.16-2.71-1-2.7-2.15-2.7S24.2,4.73,24.2,6.45Z"/><path class="cls-1" d="M31.36,4.31a2,2,0,0,1,1.77-1.12A2.1,2.1,0,0,1,35,4.56a2.21,2.21,0,0,1,1.91-1.37A2,2,0,0,1,39,5.35V9.59h-.67V5.28a1.43,1.43,0,0,0-1.53-1.51,1.72,1.72,0,0,0-1.6,1.93V9.59h-.67V5.4A1.49,1.49,0,0,0,33,3.77a1.76,1.76,0,0,0-1.64,1.9V9.59h-.67V3.42h.67Z"/><path class="cls-1" d="M40.25,11.67a2.57,2.57,0,0,0,2.1-2L40.08,3.42h.73l1.9,5.43,1.87-5.43h.73l-2,5.7c-.64,1.77-1.15,2.76-2.79,3.16Z"/><path class="cls-1" d="M50.76,9.15a3.32,3.32,0,0,1-1.88.58,3,3,0,0,1-3-3.18c0-1.94,1.06-3.37,2.7-3.37A2.73,2.73,0,0,1,51.21,6.1a2.82,2.82,0,0,1,0,.41H46.58a2.4,2.4,0,0,0,2.34,2.62,2.9,2.9,0,0,0,1.56-.43ZM50.56,6a2,2,0,0,0-2-2.18,2.26,2.26,0,0,0-2,2.18Z"/><path class="cls-1" d="M52.2,6.45c0-2,1.25-3.26,2.85-3.26s2.83,1.26,2.83,3.26S56.63,9.73,55,9.73,52.2,8.46,52.2,6.45Zm.68,0c0,1.71,1,2.71,2.16,2.71s2.16-1,2.16-2.71-1-2.7-2.15-2.7S52.88,4.73,52.88,6.45Z"/><path class="cls-1" d="M60.06,4.54a2.35,2.35,0,0,1,2.07-1.35,2.16,2.16,0,0,1,2.28,2.3v4.1h-.68v-4a1.62,1.62,0,0,0-1.67-1.78,2.18,2.18,0,0,0-2,2.3V9.59h-.68V3.42h.68Z"/><path class="cls-1" d="M70.67,4.53V3.42h.68V9.13a2.74,2.74,0,0,1-2.78,3.07,4.4,4.4,0,0,1-2.09-.54l.26-.53a3.93,3.93,0,0,0,1.81.47c1.12,0,2.12-.76,2.12-2.5V8.32a2.37,2.37,0,0,1-2.12,1.29c-1.55,0-2.68-1.14-2.68-3.15s1-3.27,2.69-3.27A2.42,2.42,0,0,1,70.67,4.53ZM66.55,6.44c0,1.28.68,2.58,2.06,2.58s2.06-1.14,2.06-2.58c0-1.74-.88-2.67-2.06-2.67C67.2,3.77,66.55,5.08,66.55,6.44Z"/><path class="cls-1" d="M77.7,4.53V3.42h.68V9.13a2.74,2.74,0,0,1-2.77,3.07,4.43,4.43,0,0,1-2.1-.54l.26-.53a3.93,3.93,0,0,0,1.81.47c1.12,0,2.12-.76,2.12-2.5V8.32a2.36,2.36,0,0,1-2.12,1.29C74,9.61,72.9,8.47,72.9,6.46s1-3.27,2.69-3.27A2.42,2.42,0,0,1,77.7,4.53ZM73.58,6.44c0,1.28.68,2.58,2.06,2.58S77.7,7.88,77.7,6.44c0-1.74-.88-2.67-2.06-2.67C74.23,3.77,73.58,5.08,73.58,6.44Z"/><path class="cls-1" d="M80.64,3.72a3.53,3.53,0,0,1,1.9-.53,2.17,2.17,0,0,1,2,1.22,3.09,3.09,0,0,1,.16,1.07v2.9a5,5,0,0,0,.1,1.21h-.64A6,6,0,0,1,84,8.83a2.79,2.79,0,0,1-2.11.9,2,2,0,0,1-2.05-2c0-1.52,1.1-2.16,3-2.16a11.4,11.4,0,0,1,1.18.07V5.48a1.49,1.49,0,0,0-1.54-1.7,3.2,3.2,0,0,0-1.6.44Zm3.42,2.46c-.43,0-.75-.06-1.07-.06-1.65,0-2.42.54-2.42,1.63a1.43,1.43,0,0,0,1.54,1.39,1.82,1.82,0,0,0,2-1.6Z"/><path class="cls-1" d="M87.16,0,87,2.87h-.39L86.51,0Z"/><path class="cls-1" d="M91.83,4.16a2.82,2.82,0,0,0-1.3-.38c-.81,0-1.23.42-1.23,1s.55,1,1.55,1.44,1.6.86,1.6,1.8a1.8,1.8,0,0,1-2,1.74,2.83,2.83,0,0,1-2.07-.82l.36-.48a2.53,2.53,0,0,0,1.67.7c.73,0,1.35-.34,1.35-1.11,0-.55-.61-1-1.32-1.3s-1.83-.88-1.83-1.9a1.65,1.65,0,0,1,1.85-1.63,3.13,3.13,0,0,1,1.68.49Z"/><path class="cls-1" d="M101.42,4.53V3.42h.69V9.13a2.75,2.75,0,0,1-2.78,3.07,4.37,4.37,0,0,1-2.09-.54l.25-.53a4,4,0,0,0,1.82.47c1.11,0,2.11-.76,2.11-2.5V8.32a2.35,2.35,0,0,1-2.11,1.29c-1.56,0-2.69-1.14-2.69-3.15s1-3.27,2.7-3.27A2.41,2.41,0,0,1,101.42,4.53ZM97.31,6.44c0,1.28.68,2.58,2,2.58s2.06-1.14,2.06-2.58c0-1.74-.88-2.67-2.06-2.67C98,3.77,97.31,5.08,97.31,6.44Z"/><path class="cls-1" d="M103.62,6.45c0-2,1.25-3.26,2.85-3.26s2.83,1.26,2.83,3.26S108,9.73,106.46,9.73,103.62,8.46,103.62,6.45Zm.68,0c0,1.71,1,2.71,2.16,2.71s2.16-1,2.16-2.71-1-2.7-2.15-2.7S104.3,4.73,104.3,6.45Z"/><path class="cls-1" d="M111.11,3.72A3.56,3.56,0,0,1,113,3.19a2.16,2.16,0,0,1,2,1.22,2.86,2.86,0,0,1,.17,1.07v2.9a5.53,5.53,0,0,0,.09,1.21h-.64a6,6,0,0,1-.15-.76,2.76,2.76,0,0,1-2.1.9,2,2,0,0,1-2-2c0-1.52,1.09-2.16,3-2.16a11.71,11.71,0,0,1,1.18.07V5.48A1.5,1.5,0,0,0,113,3.78a3.2,3.2,0,0,0-1.6.44Zm3.43,2.46c-.44,0-.76-.06-1.08-.06-1.64,0-2.42.54-2.42,1.63a1.43,1.43,0,0,0,1.54,1.39,1.83,1.83,0,0,0,2-1.6Z"/><path class="cls-1" d="M117.07.79h.69v8.8h-.69Z"/><path class="cls-1" d="M122.63.79h1v1h-1Zm.15,2.63h.68V9.59h-.68Z"/><path class="cls-1" d="M128.26,4.16a2.82,2.82,0,0,0-1.3-.38c-.81,0-1.23.42-1.23,1s.55,1,1.55,1.44,1.6.86,1.6,1.8a1.8,1.8,0,0,1-2,1.74,2.83,2.83,0,0,1-2.07-.82l.36-.48a2.53,2.53,0,0,0,1.67.7c.73,0,1.35-.34,1.35-1.11,0-.55-.61-1-1.32-1.3s-1.83-.88-1.83-1.9a1.65,1.65,0,0,1,1.85-1.63,3.13,3.13,0,0,1,1.68.49Z"/><path class="cls-1" d="M133.76,1.74l.68-.23V3.42h1.5V4h-1.5V8.11c0,.86.61,1,1.39,1v.6c-1.27,0-2.07-.31-2.07-1.57V4h-1V3.42h1Z"/><path class="cls-1" d="M136.75,6.45c0-2,1.24-3.26,2.84-3.26s2.84,1.26,2.84,3.26-1.26,3.28-2.85,3.28S136.75,8.46,136.75,6.45Zm.68,0c0,1.71,1,2.71,2.15,2.71s2.17-1,2.17-2.71-1-2.7-2.16-2.7S137.43,4.73,137.43,6.45Z"/><path class="cls-1" d="M149.77,3.19c1.72,0,2.72,1.31,2.72,3.31s-1.08,3.23-2.67,3.23a2.47,2.47,0,0,1-2.13-1.27V9.59H147V.79h.68V4.54A2.43,2.43,0,0,1,149.77,3.19Zm0,.58c-1.2,0-2.07.94-2.07,2.63v.1c0,1.49.67,2.65,2.07,2.65s2.05-1.37,2.05-2.65S151.16,3.77,149.76,3.77Z"/><path class="cls-1" d="M154.73,4.67A2.42,2.42,0,0,1,157,3.2v.65h-.21a2.09,2.09,0,0,0-2,2V9.59h-.68V3.42h.68Z"/><path class="cls-1" d="M157.88.79h1v1h-1ZM158,3.42h.68V9.59H158Z"/><path class="cls-1" d="M161.34,4.54a2.36,2.36,0,0,1,2.07-1.35,2.16,2.16,0,0,1,2.28,2.3v4.1H165v-4a1.62,1.62,0,0,0-1.67-1.78,2.18,2.18,0,0,0-2,2.3V9.59h-.68V3.42h.68Z"/><path class="cls-1" d="M172,4.53V3.42h.68V9.13a2.74,2.74,0,0,1-2.77,3.07,4.43,4.43,0,0,1-2.1-.54l.26-.53a3.93,3.93,0,0,0,1.81.47c1.12,0,2.12-.76,2.12-2.5V8.32a2.36,2.36,0,0,1-2.12,1.29c-1.55,0-2.68-1.14-2.68-3.15s1-3.27,2.69-3.27A2.42,2.42,0,0,1,172,4.53Zm-4.12,1.91c0,1.28.68,2.58,2.06,2.58S172,7.88,172,6.44c0-1.74-.88-2.67-2.06-2.67C168.48,3.77,167.83,5.08,167.83,6.44Z"/><path class="cls-1" d="M182.07,4.54V.79h.68v8.8h-.68V8.46a2.47,2.47,0,0,1-2.13,1.27c-1.59,0-2.67-1.2-2.67-3.23s1-3.31,2.72-3.31A2.44,2.44,0,0,1,182.07,4.54ZM178,6.5c0,1.28.65,2.65,2.05,2.65S182.07,8,182.07,6.5V6.4c0-1.69-.87-2.63-2.07-2.63C178.6,3.77,178,5.16,178,6.5Z"/><path class="cls-1" d="M189.14,9.15a3.33,3.33,0,0,1-1.89.58,3,3,0,0,1-3-3.18c0-1.94,1-3.37,2.7-3.37a2.73,2.73,0,0,1,2.61,2.92c0,.15,0,.26,0,.41H185a2.4,2.4,0,0,0,2.34,2.62,2.86,2.86,0,0,0,1.55-.43Zm-.2-3.2a2,2,0,0,0-2-2.18A2.26,2.26,0,0,0,185,6Z"/><path class="cls-1" d="M191,.79h.68v8.8H191Z"/><path class="cls-1" d="M193.49.79h1v1h-1Zm.15,2.63h.68V9.59h-.68Z"/><path class="cls-1" d="M200.83,9a2.93,2.93,0,0,1-2,.72,3,3,0,0,1-3-3.25,3,3,0,0,1,3-3.29,4.07,4.07,0,0,1,1.81.46l-.27.51a3.46,3.46,0,0,0-1.54-.38,2.44,2.44,0,0,0-2.35,2.71,2.46,2.46,0,0,0,2.38,2.64,2.53,2.53,0,0,0,1.6-.53Z"/><path class="cls-1" d="M202.07.79h1v1h-1Zm.15,2.63h.68V9.59h-.68Z"/><path class="cls-1" d="M204.42,6.45c0-2,1.25-3.26,2.85-3.26s2.83,1.26,2.83,3.26-1.26,3.28-2.84,3.28S204.42,8.46,204.42,6.45Zm.68,0c0,1.71,1,2.71,2.16,2.71s2.16-1,2.16-2.71-1-2.7-2.15-2.7S205.1,4.73,205.1,6.45Z"/><path class="cls-1" d="M215.89,8.38a2.34,2.34,0,0,1-2.07,1.35,2.16,2.16,0,0,1-2.27-2.31v-4h.68v3.9a1.65,1.65,0,0,0,1.66,1.82,2.16,2.16,0,0,0,2-2.28V3.42h.68V9.59h-.68Z"/><path class="cls-1" d="M221.33,4.16a2.82,2.82,0,0,0-1.3-.38c-.82,0-1.23.42-1.23,1s.54,1,1.54,1.44,1.6.86,1.6,1.8a1.79,1.79,0,0,1-2,1.74,2.83,2.83,0,0,1-2.07-.82l.36-.48a2.53,2.53,0,0,0,1.67.7c.73,0,1.34-.34,1.34-1.11,0-.55-.6-1-1.31-1.3s-1.83-.88-1.83-1.9A1.65,1.65,0,0,1,220,3.19a3.13,3.13,0,0,1,1.68.49Z"/><path class="cls-1" d="M.88,21.41V20.6a3.4,3.4,0,0,1,.13-1,1.54,1.54,0,0,1,1.48-1.08,2.67,2.67,0,0,1,1,.21l-.21.52a2.94,2.94,0,0,0-.7-.12,1,1,0,0,0-.92.59,2.11,2.11,0,0,0-.12.82v.84H2.91V22H1.57v5.62H.88V22H0v-.56Z"/><path class="cls-1" d="M3.73,24.45c0-2,1.25-3.26,2.85-3.26s2.83,1.26,2.83,3.26-1.26,3.28-2.85,3.28S3.73,26.46,3.73,24.45Zm.68,0c0,1.71,1,2.71,2.15,2.71s2.17-1,2.17-2.71-1-2.7-2.15-2.7S4.41,22.73,4.41,24.45Z"/><path class="cls-1" d="M10.48,24.45c0-2,1.25-3.26,2.85-3.26s2.83,1.26,2.83,3.26-1.26,3.28-2.85,3.28S10.48,26.46,10.48,24.45Zm.68,0c0,1.71,1,2.71,2.15,2.71s2.17-1,2.17-2.71-1-2.7-2.15-2.7S11.16,22.73,11.16,24.45Z"/><path class="cls-1" d="M22.06,22.54V18.79h.69v8.8h-.69V26.46a2.46,2.46,0,0,1-2.13,1.27c-1.58,0-2.67-1.2-2.67-3.23s1-3.31,2.72-3.31A2.43,2.43,0,0,1,22.06,22.54ZM18,24.5c0,1.28.64,2.65,2,2.65S22.06,26,22.06,24.5v-.1c0-1.69-.87-2.63-2.07-2.63C18.59,21.77,18,23.16,18,24.5Z"/><path class="cls-1" d="M28.67,19.74l.68-.23v1.91h1.5V22h-1.5v4.14c0,.86.61,1,1.39,1v.6c-1.27,0-2.07-.31-2.07-1.57V22h-1v-.55h1Z"/><path class="cls-1" d="M31.66,24.45c0-2,1.24-3.26,2.84-3.26s2.84,1.26,2.84,3.26-1.26,3.28-2.85,3.28S31.66,26.46,31.66,24.45Zm.68,0c0,1.71,1,2.71,2.15,2.71s2.17-1,2.17-2.71-1-2.7-2.16-2.7S32.34,22.73,32.34,24.45Z"/><path class="cls-1" d="M41.92,29.67a2.56,2.56,0,0,0,2.09-2l-2.27-6.22h.73l1.91,5.43,1.87-5.43H47l-2,5.7c-.63,1.77-1.15,2.76-2.78,3.16Z"/><path class="cls-1" d="M47.55,24.45c0-2,1.25-3.26,2.85-3.26s2.84,1.26,2.84,3.26S52,27.73,50.39,27.73,47.55,26.46,47.55,24.45Zm.69,0c0,1.71,1,2.71,2.15,2.71s2.16-1,2.16-2.71-1-2.7-2.15-2.7S48.24,22.73,48.24,24.45Z"/><path class="cls-1" d="M59,26.38A2.33,2.33,0,0,1,57,27.73a2.16,2.16,0,0,1-2.27-2.31v-4h.68v3.9A1.65,1.65,0,0,0,57,27.14a2.16,2.16,0,0,0,2-2.28V21.42h.68v6.17H59Z"/><path class="cls-1" d="M62.3,22.67a2.41,2.41,0,0,1,2.25-1.47v.65h-.21a2.09,2.09,0,0,0-2,2v3.71h-.68V21.42h.68Z"/><path class="cls-1" d="M69.57,19.74l.68-.23v1.91h1.49V22H70.25v4.14c0,.86.61,1,1.39,1v.6c-1.27,0-2.07-.31-2.07-1.57V22h-1v-.55h1Z"/><path class="cls-1" d="M73.18,21.72a3.53,3.53,0,0,1,1.9-.53,2.17,2.17,0,0,1,2,1.22,3.09,3.09,0,0,1,.16,1.07v2.9a5.53,5.53,0,0,0,.09,1.21h-.63a4.55,4.55,0,0,1-.15-.76,2.79,2.79,0,0,1-2.11.9,2,2,0,0,1-2-2c0-1.52,1.1-2.16,3-2.16a11.4,11.4,0,0,1,1.18.07v-.17a1.49,1.49,0,0,0-1.54-1.7,3.2,3.2,0,0,0-1.6.44Zm3.42,2.46c-.44,0-.75-.06-1.07-.06-1.65,0-2.42.54-2.42,1.63a1.43,1.43,0,0,0,1.54,1.39,1.82,1.82,0,0,0,1.95-1.6Z"/><path class="cls-1" d="M81.89,21.19c1.72,0,2.72,1.31,2.72,3.31s-1.08,3.23-2.67,3.23a2.47,2.47,0,0,1-2.13-1.27v1.13h-.68v-8.8h.68v3.75A2.43,2.43,0,0,1,81.89,21.19Zm0,.58c-1.2,0-2.07.94-2.07,2.63v.1c0,1.49.67,2.65,2.07,2.65s2.05-1.37,2.05-2.65S83.28,21.77,81.88,21.77Z"/><path class="cls-1" d="M86.17,18.79h.68v8.8h-.68Z"/><path class="cls-1" d="M93.22,27.15a3.33,3.33,0,0,1-1.89.58,3,3,0,0,1-3-3.18c0-1.94,1.05-3.37,2.7-3.37a2.73,2.73,0,0,1,2.61,2.92c0,.15,0,.26,0,.41H89a2.4,2.4,0,0,0,2.34,2.62,2.86,2.86,0,0,0,1.55-.43ZM93,24a2,2,0,0,0-2-2.18,2.26,2.26,0,0,0-2,2.18Z"/><path class="cls-1" d="M95.08,27.12h1.07v1.07H95.08Z"/><path class="cls-1" d="M109.23,27.59h-.67V20.24l-2.7,5.05h-.7l-2.7-5.05v7.35h-.67V19.08h.77l3,5.53,2.95-5.53h.77Z"/><path class="cls-1" d="M111.55,21.72a3.53,3.53,0,0,1,1.9-.53,2.17,2.17,0,0,1,2,1.22,3.09,3.09,0,0,1,.16,1.07v2.9a5.53,5.53,0,0,0,.09,1.21h-.63a4.55,4.55,0,0,1-.15-.76,2.79,2.79,0,0,1-2.11.9,2,2,0,0,1-2-2c0-1.52,1.1-2.16,3-2.16a11.4,11.4,0,0,1,1.18.07v-.17a1.49,1.49,0,0,0-1.54-1.7,3.2,3.2,0,0,0-1.6.44ZM115,24.18c-.44,0-.75-.06-1.07-.06-1.65,0-2.42.54-2.42,1.63A1.43,1.43,0,0,0,113,27.14a1.82,1.82,0,0,0,2-1.6Z"/><path class="cls-1" d="M118.18,22.54a2.35,2.35,0,0,1,2.07-1.35,2.16,2.16,0,0,1,2.28,2.3v4.1h-.68v-4a1.62,1.62,0,0,0-1.67-1.78,2.18,2.18,0,0,0-2,2.3v3.52h-.68V21.42h.68Z"/><path class="cls-1" d="M125.06,22.54a2.35,2.35,0,0,1,2.07-1.35,2.16,2.16,0,0,1,2.28,2.3v4.1h-.68v-4a1.62,1.62,0,0,0-1.67-1.78,2.18,2.18,0,0,0-2,2.3v3.52h-.68V21.42h.68Z"/><path class="cls-1" d="M131.57,21.72a3.58,3.58,0,0,1,1.91-.53,2.16,2.16,0,0,1,2,1.22,2.86,2.86,0,0,1,.17,1.07v2.9a5.53,5.53,0,0,0,.09,1.21h-.63a5.07,5.07,0,0,1-.16-.76,2.75,2.75,0,0,1-2.1.9,2,2,0,0,1-2.05-2c0-1.52,1.09-2.16,3-2.16a11.4,11.4,0,0,1,1.18.07v-.17a1.49,1.49,0,0,0-1.54-1.7,3.17,3.17,0,0,0-1.6.44ZM135,24.18c-.44,0-.76-.06-1.07-.06-1.65,0-2.43.54-2.43,1.63A1.43,1.43,0,0,0,133,27.14a1.83,1.83,0,0,0,2-1.6Z"/><path class="cls-1" d="M146.27,19.64H142V23h4.08v.56H142v4.05h-.68V19.08h5Z"/><path class="cls-1" d="M147,24.45c0-2,1.25-3.26,2.85-3.26s2.84,1.26,2.84,3.26-1.26,3.28-2.85,3.28S147,26.46,147,24.45Zm.69,0c0,1.71,1,2.71,2.15,2.71s2.16-1,2.16-2.71-1-2.7-2.15-2.7S147.65,22.73,147.65,24.45Z"/><path class="cls-1" d="M153.71,24.45c0-2,1.25-3.26,2.85-3.26s2.84,1.26,2.84,3.26-1.26,3.28-2.85,3.28S153.71,26.46,153.71,24.45Zm.69,0c0,1.71,1,2.71,2.15,2.71s2.16-1,2.16-2.71-1-2.7-2.15-2.7S154.4,22.73,154.4,24.45Z"/><path class="cls-1" d="M165.3,22.54V18.79H166v8.8h-.68V26.46a2.47,2.47,0,0,1-2.13,1.27c-1.59,0-2.67-1.2-2.67-3.23s1-3.31,2.72-3.31A2.43,2.43,0,0,1,165.3,22.54Zm-4.12,2c0,1.28.65,2.65,2,2.65S165.3,26,165.3,24.5v-.1c0-1.69-.87-2.63-2.07-2.63C161.83,21.77,161.18,23.16,161.18,24.5Z"/><path class="cls-1" d="M171.6,18.79h.68v8.8h-.68Z"/><path class="cls-1" d="M173.78,24.45c0-2,1.24-3.26,2.84-3.26s2.84,1.26,2.84,3.26-1.26,3.28-2.85,3.28S173.78,26.46,173.78,24.45Zm.68,0c0,1.71,1,2.71,2.15,2.71s2.17-1,2.17-2.71-1-2.7-2.16-2.7S174.46,22.73,174.46,24.45Z"/><path class="cls-1" d="M185.51,27a2.89,2.89,0,0,1-2,.72,3.05,3.05,0,0,1-3-3.25,3,3,0,0,1,3.05-3.29,4.07,4.07,0,0,1,1.81.46l-.27.51a3.46,3.46,0,0,0-1.54-.38,2.44,2.44,0,0,0-2.35,2.71,2.46,2.46,0,0,0,2.37,2.64,2.51,2.51,0,0,0,1.6-.53Z"/><path class="cls-1" d="M187.21,21.72a3.53,3.53,0,0,1,1.9-.53,2.14,2.14,0,0,1,2,1.22,2.86,2.86,0,0,1,.17,1.07v2.9a5.53,5.53,0,0,0,.09,1.21h-.63a5.07,5.07,0,0,1-.16-.76,2.75,2.75,0,0,1-2.1.9,2,2,0,0,1-2.05-2c0-1.52,1.1-2.16,3-2.16a11.4,11.4,0,0,1,1.18.07v-.17a1.49,1.49,0,0,0-1.54-1.7,3.17,3.17,0,0,0-1.6.44Zm3.42,2.46c-.44,0-.75-.06-1.07-.06-1.65,0-2.43.54-2.43,1.63a1.44,1.44,0,0,0,1.55,1.39,1.82,1.82,0,0,0,1.95-1.6Z"/><path class="cls-1" d="M193.47,19.74l.69-.23v1.91h1.49V22h-1.49v4.14c0,.86.61,1,1.38,1v.6c-1.27,0-2.07-.31-2.07-1.57V22h-1v-.55h1Z"/><path class="cls-1" d="M201.33,27.15a3.3,3.3,0,0,1-1.88.58,3,3,0,0,1-3-3.18c0-1.94,1.06-3.37,2.71-3.37a2.73,2.73,0,0,1,2.61,2.92,2.82,2.82,0,0,1,0,.41h-4.61a2.4,2.4,0,0,0,2.34,2.62,2.9,2.9,0,0,0,1.56-.43Zm-.2-3.2a2,2,0,0,0-2-2.18,2.26,2.26,0,0,0-2,2.18Z"/><path class="cls-1" d="M207.61,22.54V18.79h.68v8.8h-.68V26.46a2.47,2.47,0,0,1-2.13,1.27c-1.59,0-2.67-1.2-2.67-3.23s1-3.31,2.72-3.31A2.43,2.43,0,0,1,207.61,22.54Zm-4.12,2c0,1.28.65,2.65,2,2.65s2.07-1.16,2.07-2.65v-.1c0-1.69-.87-2.63-2.07-2.63C204.14,21.77,203.49,23.16,203.49,24.5Z"/><path class="cls-1" d="M213.77,18.79h1v1h-1Zm.15,2.63h.68v6.17h-.68Z"/><path class="cls-1" d="M217.23,22.54a2.33,2.33,0,0,1,2.07-1.35,2.16,2.16,0,0,1,2.28,2.3v4.1h-.68v-4a1.62,1.62,0,0,0-1.67-1.78,2.18,2.18,0,0,0-2,2.3v3.52h-.69V21.42h.69Z"/><path class="cls-1" d="M6.6,45.59H5.92V41.38H1.42v4.21H.74V37.08h.68v3.74h4.5V37.08H6.6Z"/><path class="cls-1" d="M8.93,39.72a3.53,3.53,0,0,1,1.9-.53,2.17,2.17,0,0,1,2,1.22A3.09,3.09,0,0,1,13,41.48v2.9a5.53,5.53,0,0,0,.09,1.21h-.63a6,6,0,0,1-.15-.76,2.79,2.79,0,0,1-2.11.9,2,2,0,0,1-2.05-2c0-1.52,1.1-2.16,3-2.16a11.4,11.4,0,0,1,1.18.07v-.17a1.49,1.49,0,0,0-1.54-1.7,3.2,3.2,0,0,0-1.6.44Zm3.42,2.46c-.43,0-.75-.06-1.07-.06-1.65,0-2.42.54-2.42,1.63a1.43,1.43,0,0,0,1.54,1.39,1.82,1.82,0,0,0,1.95-1.6Z"/><path class="cls-1" d="M15.55,40.31a2,2,0,0,1,1.76-1.12,2.1,2.1,0,0,1,1.85,1.37,2.22,2.22,0,0,1,1.92-1.37,2,2,0,0,1,2.09,2.16v4.24H22.5V41.28A1.43,1.43,0,0,0,21,39.77a1.72,1.72,0,0,0-1.6,1.93v3.89H18.7V41.4a1.49,1.49,0,0,0-1.52-1.63,1.76,1.76,0,0,0-1.63,1.9v3.92h-.67V39.42h.67Z"/><path class="cls-1" d="M27.78,39.19c1.68,0,2.72,1.28,2.72,3.32s-1.05,3.22-2.7,3.22a2.43,2.43,0,0,1-2.1-1.29v3.84H25V39.42h.69v1.12A2.38,2.38,0,0,1,27.78,39.19Zm0,.58c-1.2,0-2.07.94-2.07,2.63v.1c0,1.49.67,2.65,2.07,2.65s2-1.37,2-2.65S29.17,39.77,27.77,39.77Z"/><path class="cls-1" d="M31.35,47.67a2.59,2.59,0,0,0,2.1-2l-2.27-6.22h.73l1.9,5.43,1.87-5.43h.73l-2,5.7c-.64,1.77-1.16,2.76-2.79,3.16Z"/><path class="cls-1" d="M41.86,45.15a3.33,3.33,0,0,1-1.89.58,3,3,0,0,1-3-3.18c0-1.94,1-3.37,2.7-3.37A2.73,2.73,0,0,1,42.3,42.1c0,.15,0,.26,0,.41H37.68A2.4,2.4,0,0,0,40,45.13a2.84,2.84,0,0,0,1.55-.43Zm-.2-3.2a2,2,0,0,0-2-2.18,2.28,2.28,0,0,0-2,2.18Z"/><path class="cls-1" d="M43.3,42.45c0-2,1.25-3.26,2.85-3.26S49,40.45,49,42.45s-1.26,3.28-2.84,3.28S43.3,44.46,43.3,42.45Zm.68,0c0,1.71,1,2.71,2.16,2.71s2.16-1,2.16-2.71-1-2.7-2.15-2.7S44,40.73,44,42.45Z"/><path class="cls-1" d="M51.16,40.54a2.35,2.35,0,0,1,2.07-1.35,2.16,2.16,0,0,1,2.28,2.3v4.1h-.68v-4a1.62,1.62,0,0,0-1.67-1.78,2.18,2.18,0,0,0-2,2.3v3.52h-.69V39.42h.69Z"/><path class="cls-1" d="M61.77,40.53V39.42h.68v5.71a2.75,2.75,0,0,1-2.78,3.07,4.37,4.37,0,0,1-2.09-.54l.26-.53a3.9,3.9,0,0,0,1.81.47c1.12,0,2.12-.76,2.12-2.5v-.78a2.37,2.37,0,0,1-2.12,1.29c-1.56,0-2.69-1.14-2.69-3.15s1-3.27,2.7-3.27A2.43,2.43,0,0,1,61.77,40.53Zm-4.12,1.91c0,1.28.68,2.58,2.06,2.58s2.06-1.14,2.06-2.58c0-1.74-.89-2.67-2.06-2.67C58.29,39.77,57.65,41.08,57.65,42.44Z"/><path class="cls-1" d="M64.09,41.67V41h5.08v.63Z"/><path class="cls-1" d="M75.1,40.53V39.42h.68v5.71A2.74,2.74,0,0,1,73,48.2a4.43,4.43,0,0,1-2.1-.54l.26-.53A3.93,3.93,0,0,0,73,47.6c1.12,0,2.12-.76,2.12-2.5v-.78A2.36,2.36,0,0,1,73,45.61c-1.55,0-2.68-1.14-2.68-3.15s1-3.27,2.7-3.27A2.41,2.41,0,0,1,75.1,40.53ZM71,42.44C71,43.72,71.67,45,73,45s2.06-1.14,2.06-2.58c0-1.74-.88-2.67-2.06-2.67C71.63,39.77,71,41.08,71,42.44Z"/><path class="cls-1" d="M82,44.38a2.34,2.34,0,0,1-2.08,1.35,2.16,2.16,0,0,1-2.27-2.31v-4h.69v3.9A1.64,1.64,0,0,0,80,45.14a2.16,2.16,0,0,0,2-2.28V39.42h.68v6.17H82Z"/><path class="cls-1" d="M85.28,40.54a2.36,2.36,0,0,1,2.07-1.35,2.17,2.17,0,0,1,2.29,2.3v4.1H89v-4a1.62,1.62,0,0,0-1.67-1.78,2.18,2.18,0,0,0-2,2.3v3.52H84.6V39.42h.68Z"/><path class="cls-1" d="M91.5,45.12h1.07v1a1.76,1.76,0,0,1-.07.57,2.29,2.29,0,0,1-.93,1.27l-.18-.18a1.93,1.93,0,0,0,.73-1.54H91.5Z"/><path class="cls-1" d="M116.72,44.66a2.66,2.66,0,0,0,1.45.47c1,0,1.53-.66,1.53-1.74V37.08h.69v6.34a2.13,2.13,0,0,1-2.23,2.31,3,3,0,0,1-1.78-.57Z"/><path class="cls-1" d="M126.81,45.15a3.32,3.32,0,0,1-1.88.58,3,3,0,0,1-3-3.18c0-1.94,1.06-3.37,2.7-3.37a2.73,2.73,0,0,1,2.61,2.92c0,.15,0,.26,0,.41h-4.61A2.4,2.4,0,0,0,125,45.13a2.9,2.9,0,0,0,1.56-.43Zm-.2-3.2a2,2,0,0,0-2-2.18,2.26,2.26,0,0,0-2,2.18Z"/><path class="cls-1" d="M128.25,42.45c0-2,1.25-3.26,2.85-3.26s2.83,1.26,2.83,3.26-1.25,3.28-2.84,3.28S128.25,44.46,128.25,42.45Zm.68,0c0,1.71,1,2.71,2.16,2.71s2.16-1,2.16-2.71-1-2.7-2.15-2.7S128.93,40.73,128.93,42.45Z"/><path class="cls-1" d="M135.44,36.79h.68v8.8h-.68Z"/><path class="cls-1" d="M138.05,36.79h.68v8.8h-.68Z"/><path class="cls-1" d="M141,39.72a3.58,3.58,0,0,1,1.91-.53,2.14,2.14,0,0,1,2,1.22,2.86,2.86,0,0,1,.17,1.07v2.9a5.53,5.53,0,0,0,.09,1.21h-.63a5.07,5.07,0,0,1-.16-.76,2.75,2.75,0,0,1-2.1.9,2,2,0,0,1-2-2c0-1.52,1.1-2.16,3-2.16a11.4,11.4,0,0,1,1.18.07v-.17a1.49,1.49,0,0,0-1.54-1.7,3.17,3.17,0,0,0-1.6.44Zm3.43,2.46c-.44,0-.76-.06-1.07-.06-1.65,0-2.43.54-2.43,1.63a1.43,1.43,0,0,0,1.54,1.39,1.83,1.83,0,0,0,2-1.6Z"/><path class="cls-1" d="M147.6,40.54a2.35,2.35,0,0,1,2.07-1.35,2.16,2.16,0,0,1,2.28,2.3v4.1h-.68v-4a1.62,1.62,0,0,0-1.67-1.78,2.18,2.18,0,0,0-2,2.3v3.52h-.68V39.42h.68Z"/><path class="cls-1" d="M154.11,39.72a3.56,3.56,0,0,1,1.91-.53,2.16,2.16,0,0,1,2,1.22,2.86,2.86,0,0,1,.17,1.07v2.9a5.53,5.53,0,0,0,.09,1.21h-.64a6,6,0,0,1-.15-.76,2.76,2.76,0,0,1-2.1.9,2,2,0,0,1-2-2c0-1.52,1.09-2.16,3-2.16a11.71,11.71,0,0,1,1.18.07v-.17a1.5,1.5,0,0,0-1.55-1.7,3.2,3.2,0,0,0-1.6.44Zm3.43,2.46c-.44,0-.76-.06-1.08-.06-1.64,0-2.42.54-2.42,1.63a1.43,1.43,0,0,0,1.54,1.39,1.83,1.83,0,0,0,2-1.6Z"/><path class="cls-1" d="M160.73,40.31a2,2,0,0,1,1.77-1.12,2.08,2.08,0,0,1,1.84,1.37,2.24,2.24,0,0,1,1.92-1.37,2,2,0,0,1,2.1,2.16v4.24h-.67V41.28a1.43,1.43,0,0,0-1.53-1.51,1.72,1.72,0,0,0-1.6,1.93v3.89h-.67V41.4a1.49,1.49,0,0,0-1.52-1.63,1.76,1.76,0,0,0-1.64,1.9v3.92h-.67V39.42h.67Z"/><path class="cls-1" d="M169.91,41.67V41H175v.63Z"/><path class="cls-1" d="M180.91,40.54V36.79h.69v8.8h-.69V44.46a2.46,2.46,0,0,1-2.12,1.27c-1.59,0-2.68-1.2-2.68-3.23s1-3.31,2.72-3.31A2.43,2.43,0,0,1,180.91,40.54Zm-4.11,2c0,1.28.64,2.65,2,2.65s2.07-1.16,2.07-2.65v-.1c0-1.69-.87-2.63-2.07-2.63C177.44,39.77,176.8,41.16,176.8,42.5Z"/><path class="cls-1" d="M183.11,42.45c0-2,1.25-3.26,2.85-3.26s2.83,1.26,2.83,3.26-1.26,3.28-2.84,3.28S183.11,44.46,183.11,42.45Zm.68,0c0,1.71,1,2.71,2.16,2.71s2.16-1,2.16-2.71-1-2.7-2.15-2.7S183.79,40.73,183.79,42.45Z"/><path class="cls-1" d="M190.31,45.12h1.07v1a1.76,1.76,0,0,1-.07.57,2.39,2.39,0,0,1-.93,1.27l-.19-.18a1.93,1.93,0,0,0,.73-1.54h-.61Z"/><path class="cls-1" d="M215.7,36.79h1v1h-1Zm.15,2.63h.68v6.17h-.68Z"/><path class="cls-1" d="M221.33,40.16a2.82,2.82,0,0,0-1.3-.38c-.82,0-1.23.42-1.23,1s.54,1,1.54,1.44,1.6.86,1.6,1.8a1.79,1.79,0,0,1-2,1.74,2.83,2.83,0,0,1-2.07-.82l.36-.48a2.53,2.53,0,0,0,1.67.7c.73,0,1.34-.34,1.34-1.11,0-.55-.6-1-1.32-1.3s-1.82-.88-1.82-1.9A1.65,1.65,0,0,1,220,39.19a3.13,3.13,0,0,1,1.68.49Z"/><path class="cls-1" d="M5.09,63.15a3.27,3.27,0,0,1-1.88.58,3,3,0,0,1-3-3.18c0-1.94,1.06-3.37,2.71-3.37A2.73,2.73,0,0,1,5.54,60.1c0,.15,0,.26,0,.41H.92a2.39,2.39,0,0,0,2.34,2.62,2.86,2.86,0,0,0,1.55-.43ZM4.89,60a2,2,0,0,0-2-2.18A2.27,2.27,0,0,0,1,60Z"/><path class="cls-1" d="M11.37,58.54V57.42h.69v8.86h-.69V62.44a2.43,2.43,0,0,1-2.1,1.29c-1.65,0-2.7-1.21-2.7-3.22s1-3.32,2.72-3.32A2.37,2.37,0,0,1,11.37,58.54Zm-4.11,2c0,1.28.64,2.65,2,2.65S11.37,62,11.37,60.5c0-1.79-.87-2.73-2.07-2.73C7.9,57.77,7.26,59.16,7.26,60.5Z"/><path class="cls-1" d="M18.29,62.38a2.34,2.34,0,0,1-2.07,1.35A2.16,2.16,0,0,1,14,61.42v-4h.68v3.9a1.65,1.65,0,0,0,1.66,1.82,2.16,2.16,0,0,0,2-2.28V57.42H19v6.17h-.68Z"/><path class="cls-1" d="M20.75,54.79h1v1h-1Zm.15,2.63h.68v6.17H20.9Z"/><path class="cls-1" d="M26.29,57.19C28,57.19,29,58.47,29,60.51s-1,3.22-2.69,3.22a2.45,2.45,0,0,1-2.11-1.29v3.84h-.68V57.42h.68v1.12A2.4,2.4,0,0,1,26.29,57.19Zm0,.58c-1.2,0-2.07.94-2.07,2.63v.1c0,1.49.67,2.65,2.07,2.65s2.05-1.37,2.05-2.65S27.67,57.77,26.27,57.77Z"/><path class="cls-1" d="M33.32,57.19C35,57.19,36,58.47,36,60.51s-1,3.22-2.69,3.22a2.46,2.46,0,0,1-2.11-1.29v3.84h-.68V57.42h.68v1.12A2.4,2.4,0,0,1,33.32,57.19Zm0,.58c-1.2,0-2.08.94-2.08,2.63v.1c0,1.49.68,2.65,2.08,2.65s2-1.37,2-2.65S34.71,57.77,33.31,57.77Z"/><path class="cls-1" d="M42,63.15a3.3,3.3,0,0,1-1.88.58,3,3,0,0,1-3-3.18c0-1.94,1.06-3.37,2.71-3.37a2.73,2.73,0,0,1,2.61,2.92c0,.15,0,.26,0,.41H37.86a2.39,2.39,0,0,0,2.34,2.62,2.86,2.86,0,0,0,1.55-.43Zm-.2-3.2a2,2,0,0,0-2-2.18,2.26,2.26,0,0,0-2,2.18Z"/><path class="cls-1" d="M48.31,58.54V54.79H49v8.8h-.68V62.46a2.47,2.47,0,0,1-2.13,1.27c-1.59,0-2.67-1.2-2.67-3.23s1-3.31,2.72-3.31A2.43,2.43,0,0,1,48.31,58.54Zm-4.12,2c0,1.28.65,2.65,2.05,2.65S48.31,62,48.31,60.5v-.1c0-1.69-.87-2.63-2.07-2.63C44.84,57.77,44.19,59.16,44.19,60.5Z"/><path class="cls-1" d="M59.71,62.63l1.46-5.21h.63L60,63.59h-.64l-1.52-5.5-1.51,5.5h-.64l-1.78-6.17h.64L56,62.63l1.48-5.21h.71Z"/><path class="cls-1" d="M62.89,54.79h1v1h-1Zm.16,2.63h.68v6.17h-.68Z"/><path class="cls-1" d="M66,55.74l.68-.23v1.91h1.49V58H66.67v4.14c0,.86.61,1,1.39,1v.6c-1.27,0-2.07-.31-2.07-1.57V58H65v-.55h1Z"/><path class="cls-1" d="M70.2,58.53a2.34,2.34,0,0,1,2.07-1.34,2.16,2.16,0,0,1,2.28,2.3v4.1h-.68v-4a1.62,1.62,0,0,0-1.67-1.83,2.16,2.16,0,0,0-2,2.27v3.55h-.69v-8.8h.69Z"/><path class="cls-1" d="M80.39,55.74l.69-.23v1.91h1.49V58H81.08v4.14c0,.86.61,1,1.38,1v.6c-1.27,0-2.07-.31-2.07-1.57V58h-1v-.55h1Z"/><path class="cls-1" d="M84.6,58.53a2.35,2.35,0,0,1,2.07-1.34A2.16,2.16,0,0,1,89,59.49v4.1h-.69v-4a1.62,1.62,0,0,0-1.67-1.83,2.17,2.17,0,0,0-2,2.27v3.55h-.68v-8.8h.68Z"/><path class="cls-1" d="M95.25,63.15a3.32,3.32,0,0,1-1.88.58,3,3,0,0,1-3-3.18c0-1.94,1.06-3.37,2.7-3.37A2.73,2.73,0,0,1,95.7,60.1a2.82,2.82,0,0,1,0,.41H91.07a2.4,2.4,0,0,0,2.34,2.62A2.9,2.9,0,0,0,95,62.7Zm-.2-3.2a2,2,0,0,0-2-2.18,2.26,2.26,0,0,0-2,2.18Z"/><path class="cls-1" d="M103.56,57.19c1.72,0,2.72,1.31,2.72,3.31s-1.08,3.23-2.67,3.23a2.47,2.47,0,0,1-2.13-1.27v1.13h-.68v-8.8h.68v3.75A2.44,2.44,0,0,1,103.56,57.19Zm0,.58c-1.2,0-2.07.94-2.07,2.63v.1c0,1.49.67,2.65,2.07,2.65s2-1.37,2-2.65S105,57.77,103.55,57.77Z"/><path class="cls-1" d="M112.28,63.15a3.32,3.32,0,0,1-1.88.58,3,3,0,0,1-3-3.18c0-1.94,1.06-3.37,2.7-3.37a2.73,2.73,0,0,1,2.62,2.92,2.82,2.82,0,0,1,0,.41H108.1a2.4,2.4,0,0,0,2.34,2.62A2.9,2.9,0,0,0,112,62.7Zm-.2-3.2a2,2,0,0,0-2-2.18,2.26,2.26,0,0,0-2,2.18Z"/><path class="cls-1" d="M117,58.16a2.78,2.78,0,0,0-1.3-.38c-.81,0-1.22.42-1.22,1s.54,1,1.54,1.44,1.6.86,1.6,1.8a1.8,1.8,0,0,1-2,1.74,2.84,2.84,0,0,1-2.07-.82l.36-.48a2.54,2.54,0,0,0,1.68.7c.72,0,1.34-.34,1.34-1.11,0-.55-.6-1-1.32-1.3s-1.82-.88-1.82-1.9a1.65,1.65,0,0,1,1.84-1.63,3.13,3.13,0,0,1,1.68.49Z"/><path class="cls-1" d="M119.42,55.74l.68-.23v1.91h1.49V58H120.1v4.14c0,.86.61,1,1.39,1v.6c-1.28,0-2.07-.31-2.07-1.57V58h-1v-.55h1Z"/><path class="cls-1" d="M126.86,57.41V56.6a3.4,3.4,0,0,1,.13-1,1.54,1.54,0,0,1,1.48-1.08,2.67,2.67,0,0,1,1,.21l-.21.52a2.94,2.94,0,0,0-.7-.12,1,1,0,0,0-.92.59,2.08,2.08,0,0,0-.13.82v.84h1.34V58h-1.34v5.62h-.68V58H126v-.56Z"/><path class="cls-1" d="M130.39,57.72a3.53,3.53,0,0,1,1.9-.53,2.17,2.17,0,0,1,2,1.22,2.87,2.87,0,0,1,.16,1.07v2.9a5,5,0,0,0,.1,1.21h-.64a6,6,0,0,1-.15-.76,2.77,2.77,0,0,1-2.11.9,2,2,0,0,1-2-2c0-1.52,1.09-2.16,3-2.16a11.39,11.39,0,0,1,1.17.07v-.17a1.49,1.49,0,0,0-1.54-1.7,3.2,3.2,0,0,0-1.6.44Zm3.42,2.46c-.43,0-.75-.06-1.07-.06-1.65,0-2.42.54-2.42,1.63a1.43,1.43,0,0,0,1.54,1.39,1.82,1.82,0,0,0,1.95-1.6Z"/><path class="cls-1" d="M140.9,63a2.89,2.89,0,0,1-2,.72,3.05,3.05,0,0,1-3-3.25,3,3,0,0,1,3-3.29,4.07,4.07,0,0,1,1.81.46l-.27.51a3.46,3.46,0,0,0-1.54-.38,2.7,2.7,0,0,0,0,5.35,2.55,2.55,0,0,0,1.6-.53Z"/><path class="cls-1" d="M142.15,54.79h1v1h-1Zm.15,2.63H143v6.17h-.68Z"/><path class="cls-1" d="M144.94,54.79h.68v8.8h-.68Z"/><path class="cls-1" d="M147.41,54.79h1v1h-1Zm.15,2.63h.68v6.17h-.68Z"/><path class="cls-1" d="M150.5,55.74l.68-.23v1.91h1.49V58h-1.49v4.14c0,.86.61,1,1.39,1v.6c-1.27,0-2.07-.31-2.07-1.57V58h-1v-.55h1Z"/><path class="cls-1" d="M153.9,54.79h1v1h-1Zm.15,2.63h.68v6.17h-.68Z"/><path class="cls-1" d="M161.12,63.15a3.32,3.32,0,0,1-1.88.58,3,3,0,0,1-3-3.18c0-1.94,1.06-3.37,2.7-3.37a2.73,2.73,0,0,1,2.62,2.92,2.82,2.82,0,0,1,0,.41h-4.61a2.4,2.4,0,0,0,2.34,2.62,2.9,2.9,0,0,0,1.56-.43Zm-.2-3.2a2,2,0,0,0-2-2.18A2.26,2.26,0,0,0,157,60Z"/><path class="cls-1" d="M165.85,58.16a2.82,2.82,0,0,0-1.31-.38c-.81,0-1.22.42-1.22,1s.54,1,1.54,1.44,1.6.86,1.6,1.8a1.8,1.8,0,0,1-2,1.74,2.84,2.84,0,0,1-2.07-.82l.37-.48a2.53,2.53,0,0,0,1.67.7c.73,0,1.34-.34,1.34-1.11,0-.55-.6-1-1.32-1.3s-1.82-.88-1.82-1.9a1.65,1.65,0,0,1,1.84-1.63,3.19,3.19,0,0,1,1.69.49Z"/><path class="cls-1" d="M171.94,57.72a3.53,3.53,0,0,1,1.9-.53,2.17,2.17,0,0,1,2,1.22,2.87,2.87,0,0,1,.16,1.07v2.9a5,5,0,0,0,.1,1.21h-.64a6,6,0,0,1-.15-.76,2.79,2.79,0,0,1-2.11.9,2,2,0,0,1-2-2c0-1.52,1.09-2.16,3-2.16a11.39,11.39,0,0,1,1.17.07v-.17a1.49,1.49,0,0,0-1.54-1.7,3.2,3.2,0,0,0-1.6.44Zm3.42,2.46c-.43,0-.75-.06-1.07-.06-1.65,0-2.42.54-2.42,1.63a1.43,1.43,0,0,0,1.54,1.39,1.82,1.82,0,0,0,2-1.6Z"/><path class="cls-1" d="M178.57,58.54a2.36,2.36,0,0,1,2.07-1.35,2.16,2.16,0,0,1,2.28,2.3v4.1h-.68v-4a1.62,1.62,0,0,0-1.67-1.78,2.18,2.18,0,0,0-2,2.3v3.52h-.68V57.42h.68Z"/><path class="cls-1" d="M189.18,58.54V54.79h.68v8.8h-.68V62.46a2.47,2.47,0,0,1-2.13,1.27c-1.59,0-2.67-1.2-2.67-3.23s1-3.31,2.72-3.31A2.43,2.43,0,0,1,189.18,58.54Zm-4.12,2c0,1.28.65,2.65,2.05,2.65s2.07-1.16,2.07-2.65v-.1c0-1.69-.87-2.63-2.07-2.63C185.71,57.77,185.06,59.16,185.06,60.5Z"/><path class="cls-1" d="M199.93,63.15a3.3,3.3,0,0,1-1.88.58,3,3,0,0,1-3-3.18c0-1.94,1.06-3.37,2.71-3.37a2.73,2.73,0,0,1,2.61,2.92c0,.15,0,.26,0,.41h-4.62a2.4,2.4,0,0,0,2.34,2.62,2.87,2.87,0,0,0,1.56-.43Zm-.2-3.2a2,2,0,0,0-2-2.18,2.26,2.26,0,0,0-2,2.18Z"/><path class="cls-1" d="M202.48,58.54a2.36,2.36,0,0,1,2.07-1.35,2.16,2.16,0,0,1,2.28,2.3v4.1h-.68v-4a1.62,1.62,0,0,0-1.67-1.78,2.18,2.18,0,0,0-2,2.3v3.52h-.68V57.42h.68Z"/><path class="cls-1" d="M210.61,63l2-5.53h.68L211,63.59h-.75l-2.31-6.17h.69Z"/><path class="cls-1" d="M214.35,54.79h1v1h-1Zm.15,2.63h.68v6.17h-.68Z"/><path class="cls-1" d="M216.83,59.67V59h5.08v.63Z"/><path class="cls-1" d="M1.34,76.67A2.42,2.42,0,0,1,3.59,75.2v.65H3.38a2.09,2.09,0,0,0-2,2v3.71H.66V75.42h.68Z"/><path class="cls-1" d="M3.9,78.45c0-2,1.25-3.26,2.85-3.26s2.84,1.26,2.84,3.26-1.26,3.28-2.85,3.28S3.9,80.46,3.9,78.45Zm.69,0c0,1.71,1,2.71,2.15,2.71s2.16-1,2.16-2.71-1-2.7-2.15-2.7S4.59,76.73,4.59,78.45Z"/><path class="cls-1" d="M11.76,76.54a2.36,2.36,0,0,1,2.07-1.35,2.16,2.16,0,0,1,2.28,2.3v4.1h-.68v-4a1.62,1.62,0,0,0-1.67-1.78,2.18,2.18,0,0,0-2,2.3v3.52h-.68V75.42h.68Z"/><path class="cls-1" d="M18.63,76.31a2,2,0,0,1,1.76-1.12,2.1,2.1,0,0,1,1.85,1.37,2.22,2.22,0,0,1,1.92-1.37,2,2,0,0,1,2.09,2.16v4.24h-.67V77.28a1.43,1.43,0,0,0-1.53-1.51,1.72,1.72,0,0,0-1.6,1.93v3.89h-.67V77.4a1.49,1.49,0,0,0-1.52-1.63,1.76,1.76,0,0,0-1.63,1.9v3.92H18V75.42h.67Z"/><path class="cls-1" d="M32.54,81.15a3.3,3.3,0,0,1-1.88.58,3,3,0,0,1-3-3.18c0-1.94,1.06-3.37,2.71-3.37A2.73,2.73,0,0,1,33,78.1c0,.15,0,.26,0,.41H28.37a2.39,2.39,0,0,0,2.34,2.62,2.86,2.86,0,0,0,1.55-.43Zm-.2-3.2a2,2,0,0,0-2-2.18,2.27,2.27,0,0,0-2,2.18Z"/><path class="cls-1" d="M35.09,76.54a2.36,2.36,0,0,1,2.07-1.35,2.17,2.17,0,0,1,2.29,2.3v4.1h-.69v-4a1.62,1.62,0,0,0-1.67-1.78,2.18,2.18,0,0,0-2,2.3v3.52h-.68V75.42h.68Z"/><path class="cls-1" d="M41.61,73.74l.68-.23v1.91h1.49V76H42.29v4.14c0,.86.61,1,1.39,1v.6c-1.27,0-2.07-.31-2.07-1.57V76h-1v-.55h1Z"/><path class="cls-1" d="M50.08,73.74l.68-.23v1.91h1.5V76h-1.5v4.14c0,.86.62,1,1.39,1v.6c-1.27,0-2.07-.31-2.07-1.57V76h-1v-.55h1Z"/><path class="cls-1" d="M53.07,78.45c0-2,1.25-3.26,2.85-3.26s2.83,1.26,2.83,3.26-1.26,3.28-2.85,3.28S53.07,80.46,53.07,78.45Zm.68,0c0,1.71,1,2.71,2.15,2.71s2.17-1,2.17-2.71-1-2.7-2.15-2.7S53.75,76.73,53.75,78.45Z"/><path class="cls-1" d="M67.64,75.19c1.68,0,2.71,1.28,2.71,3.32s-1,3.22-2.69,3.22a2.45,2.45,0,0,1-2.11-1.29v3.84h-.68V75.42h.68v1.12A2.4,2.4,0,0,1,67.64,75.19Zm0,.58c-1.21,0-2.08.94-2.08,2.63v.1c0,1.49.67,2.65,2.08,2.65s2-1.37,2-2.65S69,75.77,67.63,75.77Z"/><path class="cls-1" d="M72.6,76.67a2.4,2.4,0,0,1,2.24-1.47v.65h-.21a2.08,2.08,0,0,0-2,2v3.71h-.68V75.42h.68Z"/><path class="cls-1" d="M75.16,78.45c0-2,1.25-3.26,2.85-3.26s2.83,1.26,2.83,3.26S79.58,81.73,78,81.73,75.16,80.46,75.16,78.45Zm.68,0c0,1.71,1,2.71,2.16,2.71s2.16-1,2.16-2.71-1-2.7-2.15-2.7S75.84,76.73,75.84,78.45Z"/><path class="cls-1" d="M84.15,81l2-5.53h.68l-2.31,6.17h-.75l-2.31-6.17h.69Z"/><path class="cls-1" d="M87.89,72.79h1v1h-1ZM88,75.42h.68v6.17H88Z"/><path class="cls-1" d="M95.07,76.54V72.79h.68v8.8h-.68V80.46a2.46,2.46,0,0,1-2.13,1.27c-1.58,0-2.67-1.2-2.67-3.23s1-3.31,2.72-3.31A2.43,2.43,0,0,1,95.07,76.54ZM91,78.5c0,1.28.64,2.65,2,2.65S95.07,80,95.07,78.5v-.1c0-1.69-.87-2.63-2.07-2.63C91.6,75.77,91,77.16,91,78.5Z"/><path class="cls-1" d="M102.14,81.15a3.3,3.3,0,0,1-1.88.58,3,3,0,0,1-3-3.18c0-1.94,1.06-3.37,2.71-3.37a2.73,2.73,0,0,1,2.61,2.92c0,.15,0,.26,0,.41H98a2.4,2.4,0,0,0,2.34,2.62,2.87,2.87,0,0,0,1.56-.43Zm-.2-3.2a2,2,0,0,0-2-2.18A2.26,2.26,0,0,0,98,78Z"/><path class="cls-1" d="M109,73.74l.68-.23v1.91h1.49V76h-1.49v4.14c0,.86.61,1,1.39,1v.6c-1.27,0-2.07-.31-2.07-1.57V76h-1v-.55h1Z"/><path class="cls-1" d="M113.17,76.53a2.34,2.34,0,0,1,2.07-1.34,2.16,2.16,0,0,1,2.28,2.3v4.1h-.68v-4a1.62,1.62,0,0,0-1.67-1.83,2.16,2.16,0,0,0-2,2.27v3.55h-.69v-8.8h.69Z"/><path class="cls-1" d="M123.81,81.15a3.3,3.3,0,0,1-1.88.58,3,3,0,0,1-3-3.18c0-1.94,1.06-3.37,2.71-3.37a2.73,2.73,0,0,1,2.61,2.92c0,.15,0,.26,0,.41h-4.62A2.4,2.4,0,0,0,122,81.13a2.87,2.87,0,0,0,1.56-.43Zm-.2-3.2a2,2,0,0,0-2-2.18,2.26,2.26,0,0,0-2,2.18Z"/><path class="cls-1" d="M129.88,78.45c0-2,1.25-3.26,2.85-3.26s2.84,1.26,2.84,3.26-1.26,3.28-2.85,3.28S129.88,80.46,129.88,78.45Zm.69,0c0,1.71,1,2.71,2.15,2.71s2.16-1,2.16-2.71-1-2.7-2.15-2.7S130.57,76.73,130.57,78.45Z"/><path class="cls-1" d="M137.75,76.67A2.42,2.42,0,0,1,140,75.2v.65h-.21a2.09,2.09,0,0,0-2,2v3.71h-.68V75.42h.68Z"/><path class="cls-1" d="M140.9,72.79h1v1h-1Zm.16,2.63h.68v6.17h-.68Z"/><path class="cls-1" d="M148.09,76.53V75.42h.68v5.71A2.74,2.74,0,0,1,146,84.2a4.43,4.43,0,0,1-2.1-.54l.26-.53a3.93,3.93,0,0,0,1.81.47c1.12,0,2.12-.76,2.12-2.5v-.78A2.36,2.36,0,0,1,146,81.61c-1.55,0-2.68-1.14-2.68-3.15s1-3.27,2.69-3.27A2.42,2.42,0,0,1,148.09,76.53ZM144,78.44c0,1.28.68,2.58,2.06,2.58s2.06-1.14,2.06-2.58c0-1.74-.88-2.67-2.06-2.67C144.62,75.77,144,77.08,144,78.44Z"/><path class="cls-1" d="M150.58,72.79h1v1h-1Zm.15,2.63h.69v6.17h-.69Z"/><path class="cls-1" d="M154,76.54a2.35,2.35,0,0,1,2.07-1.35,2.16,2.16,0,0,1,2.28,2.3v4.1h-.68v-4A1.62,1.62,0,0,0,156,75.77a2.18,2.18,0,0,0-2,2.3v3.52h-.68V75.42H154Z"/><path class="cls-1" d="M160.55,75.72a3.58,3.58,0,0,1,1.91-.53,2.14,2.14,0,0,1,2,1.22,2.86,2.86,0,0,1,.17,1.07v2.9a5.53,5.53,0,0,0,.09,1.21h-.63a5.07,5.07,0,0,1-.16-.76,2.75,2.75,0,0,1-2.1.9,2,2,0,0,1-2-2c0-1.52,1.09-2.16,3-2.16a11.4,11.4,0,0,1,1.18.07v-.17a1.49,1.49,0,0,0-1.54-1.7,3.17,3.17,0,0,0-1.6.44ZM164,78.18c-.44,0-.76-.06-1.07-.06-1.65,0-2.43.54-2.43,1.63A1.43,1.43,0,0,0,162,81.14a1.83,1.83,0,0,0,2-1.6Z"/><path class="cls-1" d="M166.52,72.79h.68v8.8h-.68Z"/><path class="cls-1" d="M174.06,73.74l.68-.23v1.91h1.5V76h-1.5v4.14c0,.86.62,1,1.39,1v.6c-1.27,0-2.07-.31-2.07-1.57V76h-1v-.55h1Z"/><path class="cls-1" d="M177.67,75.72a3.54,3.54,0,0,1,1.91-.53,2.16,2.16,0,0,1,2,1.22,2.86,2.86,0,0,1,.17,1.07v2.9a5.53,5.53,0,0,0,.09,1.21h-.64a6,6,0,0,1-.15-.76,2.75,2.75,0,0,1-2.1.9,2,2,0,0,1-2.05-2c0-1.52,1.09-2.16,3-2.16a11.23,11.23,0,0,1,1.17.07v-.17c0-1-.46-1.7-1.54-1.7a3.2,3.2,0,0,0-1.6.44Zm3.42,2.46c-.43,0-.75-.06-1.07-.06-1.64,0-2.42.54-2.42,1.63a1.43,1.43,0,0,0,1.54,1.39,1.82,1.82,0,0,0,2-1.6Z"/><path class="cls-1" d="M186.48,76.16a2.82,2.82,0,0,0-1.31-.38c-.81,0-1.22.42-1.22,1s.54,1,1.54,1.44,1.6.86,1.6,1.8a1.79,1.79,0,0,1-2,1.74,2.83,2.83,0,0,1-2.07-.82l.36-.48a2.53,2.53,0,0,0,1.67.7c.73,0,1.34-.34,1.34-1.11,0-.55-.6-1-1.32-1.3s-1.82-.88-1.82-1.9a1.65,1.65,0,0,1,1.85-1.63,3.13,3.13,0,0,1,1.68.49Z"/><path class="cls-1" d="M188.89,73.74l.68-.23v1.91h1.5V76h-1.5v4.14c0,.86.61,1,1.39,1v.6c-1.27,0-2.07-.31-2.07-1.57V76h-1v-.55h1Z"/><path class="cls-1" d="M196.75,81.15a3.32,3.32,0,0,1-1.88.58,3,3,0,0,1-3-3.18c0-1.94,1.06-3.37,2.7-3.37a2.73,2.73,0,0,1,2.62,2.92,2.82,2.82,0,0,1,0,.41h-4.61a2.4,2.4,0,0,0,2.34,2.62,2.9,2.9,0,0,0,1.56-.43Zm-.2-3.2a2,2,0,0,0-2-2.18,2.26,2.26,0,0,0-2,2.18Z"/><path class="cls-1" d="M203.56,75.72a3.58,3.58,0,0,1,1.91-.53,2.15,2.15,0,0,1,2,1.22,2.86,2.86,0,0,1,.17,1.07v2.9a5.53,5.53,0,0,0,.09,1.21h-.63a5.07,5.07,0,0,1-.16-.76,2.75,2.75,0,0,1-2.1.9,2,2,0,0,1-2.05-2c0-1.52,1.09-2.16,3-2.16a11.4,11.4,0,0,1,1.18.07v-.17a1.49,1.49,0,0,0-1.54-1.7,3.17,3.17,0,0,0-1.6.44ZM207,78.18c-.44,0-.76-.06-1.07-.06-1.65,0-2.43.54-2.43,1.63A1.43,1.43,0,0,0,205,81.14a1.83,1.83,0,0,0,2-1.6Z"/><path class="cls-1" d="M210.2,76.54a2.35,2.35,0,0,1,2.07-1.35,2.16,2.16,0,0,1,2.28,2.3v4.1h-.68v-4a1.62,1.62,0,0,0-1.67-1.78,2.18,2.18,0,0,0-2,2.3v3.52h-.69V75.42h.69Z"/><path class="cls-1" d="M220.8,76.54V72.79h.69v8.8h-.69V80.46a2.46,2.46,0,0,1-2.12,1.27c-1.59,0-2.68-1.2-2.68-3.23s1-3.31,2.72-3.31A2.43,2.43,0,0,1,220.8,76.54Zm-4.11,2c0,1.28.64,2.65,2,2.65S220.8,80,220.8,78.5v-.1c0-1.69-.87-2.63-2.07-2.63C217.33,75.77,216.69,77.16,216.69,78.5Z"/><path class="cls-1" d="M1,93.72a3.58,3.58,0,0,1,1.91-.53,2.14,2.14,0,0,1,2,1.22,2.86,2.86,0,0,1,.17,1.07v2.9a5.53,5.53,0,0,0,.09,1.21H4.52a4.55,4.55,0,0,1-.15-.76,2.79,2.79,0,0,1-2.11.9,2,2,0,0,1-2-2c0-1.52,1.1-2.16,3-2.16a11.4,11.4,0,0,1,1.18.07v-.17a1.49,1.49,0,0,0-1.54-1.7,3.2,3.2,0,0,0-1.6.44Zm3.43,2.46c-.44,0-.75-.06-1.07-.06-1.65,0-2.43.54-2.43,1.63a1.44,1.44,0,0,0,1.55,1.39,1.82,1.82,0,0,0,1.95-1.6Z"/><path class="cls-1" d="M7.61,94.67A2.41,2.41,0,0,1,9.86,93.2v.65H9.64a2.09,2.09,0,0,0-2,2v3.71H6.93V93.42h.68Z"/><path class="cls-1" d="M10.17,96.45c0-2,1.25-3.26,2.85-3.26s2.83,1.26,2.83,3.26S14.6,99.73,13,99.73,10.17,98.46,10.17,96.45Zm.69,0c0,1.71,1,2.71,2.15,2.71s2.16-1,2.16-2.71-1-2.7-2.15-2.7S10.86,94.73,10.86,96.45Z"/><path class="cls-1" d="M18,94.31a2,2,0,0,1,1.76-1.12,2.1,2.1,0,0,1,1.85,1.37,2.22,2.22,0,0,1,1.92-1.37,2,2,0,0,1,2.09,2.16v4.24H25V95.28a1.43,1.43,0,0,0-1.53-1.51,1.72,1.72,0,0,0-1.6,1.93v3.89h-.67V95.4a1.49,1.49,0,0,0-1.52-1.63A1.76,1.76,0,0,0,18,95.67v3.92h-.67V93.42H18Z"/><path class="cls-1" d="M27.8,93.72a3.54,3.54,0,0,1,1.91-.53,2.16,2.16,0,0,1,2,1.22,2.86,2.86,0,0,1,.17,1.07v2.9A5.53,5.53,0,0,0,32,99.59h-.64a6,6,0,0,1-.15-.76,2.77,2.77,0,0,1-2.11.9,2,2,0,0,1-2-2c0-1.52,1.09-2.16,3-2.16a11.39,11.39,0,0,1,1.17.07v-.17a1.49,1.49,0,0,0-1.54-1.7,3.2,3.2,0,0,0-1.6.44Zm3.42,2.46c-.43,0-.75-.06-1.07-.06-1.64,0-2.42.54-2.42,1.63a1.43,1.43,0,0,0,1.54,1.39,1.82,1.82,0,0,0,1.95-1.6Z"/><path class="cls-1" d="M40.61,96.45c0-2,1.25-3.26,2.85-3.26s2.83,1.26,2.83,3.26S45,99.73,43.45,99.73,40.61,98.46,40.61,96.45Zm.68,0c0,1.71,1,2.71,2.16,2.71s2.16-1,2.16-2.71-1-2.7-2.15-2.7S41.29,94.73,41.29,96.45Z"/><path class="cls-1" d="M48,93.41V92.6a3.4,3.4,0,0,1,.13-1,1.54,1.54,0,0,1,1.48-1.08,2.67,2.67,0,0,1,1,.21l-.22.52a2.78,2.78,0,0,0-.69-.12,1,1,0,0,0-.92.59,2.08,2.08,0,0,0-.13.82v.84H50V94H48.7v5.62H48V94h-.88v-.56Z"/><path class="cls-1" d="M58.88,90.79h.68v8.8h-.68Z"/><path class="cls-1" d="M61.8,93.72a3.53,3.53,0,0,1,1.9-.53,2.17,2.17,0,0,1,2,1.22,3.09,3.09,0,0,1,.16,1.07v2.9A5.53,5.53,0,0,0,66,99.59h-.63a4.55,4.55,0,0,1-.15-.76,2.79,2.79,0,0,1-2.11.9,2,2,0,0,1-2.05-2c0-1.52,1.1-2.16,3-2.16a11.4,11.4,0,0,1,1.18.07v-.17a1.49,1.49,0,0,0-1.54-1.7,3.2,3.2,0,0,0-1.6.44Zm3.42,2.46c-.44,0-.75-.06-1.07-.06-1.65,0-2.42.54-2.42,1.63a1.43,1.43,0,0,0,1.54,1.39,1.82,1.82,0,0,0,1.95-1.6Z"/><path class="cls-1" d="M69.68,99l2-5.53h.68l-2.31,6.17H69.3L67,93.42h.69Z"/><path class="cls-1" d="M77.87,99.15a3.3,3.3,0,0,1-1.88.58,3,3,0,0,1-3-3.18c0-1.94,1.06-3.37,2.71-3.37a2.73,2.73,0,0,1,2.61,2.92c0,.15,0,.26,0,.41H73.7A2.39,2.39,0,0,0,76,99.13a2.86,2.86,0,0,0,1.55-.43Zm-.2-3.2a2,2,0,0,0-2-2.18,2.27,2.27,0,0,0-2,2.18Z"/><path class="cls-1" d="M80.44,94.67a2.4,2.4,0,0,1,2.24-1.47v.65h-.21a2.08,2.08,0,0,0-2,2v3.71h-.69V93.42h.69Z"/><path class="cls-1" d="M95.29,98.38a2.33,2.33,0,0,1-2.07,1.35A2.16,2.16,0,0,1,91,97.42v-4h.69v3.9a1.64,1.64,0,0,0,1.65,1.82,2.16,2.16,0,0,0,2-2.28V93.42H96v6.17h-.69Z"/><path class="cls-1" d="M100.74,94.16a2.82,2.82,0,0,0-1.31-.38c-.81,0-1.22.42-1.22,1s.54,1,1.54,1.44,1.6.86,1.6,1.8a1.8,1.8,0,0,1-2,1.74,2.84,2.84,0,0,1-2.07-.82l.37-.48a2.53,2.53,0,0,0,1.67.7c.73,0,1.34-.34,1.34-1.11,0-.55-.6-1-1.32-1.3s-1.82-.88-1.82-1.9a1.65,1.65,0,0,1,1.85-1.63,3.18,3.18,0,0,1,1.68.49Z"/><path class="cls-1" d="M102.7,90.79h1v1h-1Zm.15,2.63h.69v6.17h-.69Z"/><path class="cls-1" d="M106.16,94.54a2.35,2.35,0,0,1,2.07-1.35,2.16,2.16,0,0,1,2.28,2.3v4.1h-.68v-4a1.62,1.62,0,0,0-1.67-1.78,2.18,2.18,0,0,0-2,2.3v3.52h-.68V93.42h.68Z"/><path class="cls-1" d="M116.77,94.53V93.42h.68v5.71a2.74,2.74,0,0,1-2.78,3.07,4.4,4.4,0,0,1-2.09-.54l.26-.53a3.93,3.93,0,0,0,1.81.47c1.12,0,2.12-.76,2.12-2.5v-.78a2.36,2.36,0,0,1-2.12,1.29c-1.55,0-2.68-1.14-2.68-3.15s1-3.27,2.69-3.27A2.42,2.42,0,0,1,116.77,94.53Zm-4.12,1.91c0,1.28.68,2.58,2.06,2.58s2.06-1.14,2.06-2.58c0-1.74-.89-2.67-2.06-2.67C113.3,93.77,112.65,95.08,112.65,96.44Z"/><path class="cls-1" d="M127.35,94.53a2.35,2.35,0,0,1,2.07-1.34,2.16,2.16,0,0,1,2.29,2.3v4.1H131v-4a1.62,1.62,0,0,0-1.67-1.83,2.17,2.17,0,0,0-2,2.27v3.55h-.68v-8.8h.68Z"/><path class="cls-1" d="M133.42,90.79h1v1h-1Zm.16,2.63h.68v6.17h-.68Z"/><path class="cls-1" d="M140.61,94.53V93.42h.68v5.71a2.74,2.74,0,0,1-2.78,3.07,4.42,4.42,0,0,1-2.09-.54l.26-.53a3.93,3.93,0,0,0,1.81.47c1.12,0,2.12-.76,2.12-2.5v-.78a2.36,2.36,0,0,1-2.12,1.29c-1.55,0-2.68-1.14-2.68-3.15s1-3.27,2.69-3.27A2.42,2.42,0,0,1,140.61,94.53Zm-4.12,1.91c0,1.28.68,2.58,2.06,2.58s2.06-1.14,2.06-2.58c0-1.74-.88-2.67-2.06-2.67C137.14,93.77,136.49,95.08,136.49,96.44Z"/><path class="cls-1" d="M143.91,94.53A2.35,2.35,0,0,1,146,93.19a2.16,2.16,0,0,1,2.28,2.3v4.1h-.68v-4a1.62,1.62,0,0,0-1.67-1.83,2.17,2.17,0,0,0-2,2.27v3.55h-.68v-8.8h.68Z"/><path class="cls-1" d="M149.81,95.67V95h5.09v.63Z"/><path class="cls-1" d="M160.82,94.54V93.42h.69v8.86h-.69V98.44a2.43,2.43,0,0,1-2.1,1.29c-1.65,0-2.7-1.21-2.7-3.22s1-3.32,2.72-3.32A2.37,2.37,0,0,1,160.82,94.54Zm-4.11,2c0,1.28.64,2.65,2,2.65s2.07-1.16,2.07-2.65c0-1.79-.87-2.73-2.07-2.73C157.35,93.77,156.71,95.16,156.71,96.5Z"/><path class="cls-1" d="M167.74,98.38a2.34,2.34,0,0,1-2.07,1.35,2.16,2.16,0,0,1-2.27-2.31v-4h.68v3.9a1.65,1.65,0,0,0,1.66,1.82,2.16,2.16,0,0,0,2-2.28V93.42h.68v6.17h-.68Z"/><path class="cls-1" d="M170.64,93.72a3.54,3.54,0,0,1,1.91-.53,2.16,2.16,0,0,1,2,1.22,2.86,2.86,0,0,1,.17,1.07v2.9a5.53,5.53,0,0,0,.09,1.21h-.64a6,6,0,0,1-.15-.76,2.76,2.76,0,0,1-2.1.9,2,2,0,0,1-2.05-2c0-1.52,1.09-2.16,3-2.16a11.39,11.39,0,0,1,1.17.07v-.17a1.49,1.49,0,0,0-1.54-1.7,3.2,3.2,0,0,0-1.6.44Zm3.42,2.46c-.43,0-.75-.06-1.07-.06-1.64,0-2.42.54-2.42,1.63a1.43,1.43,0,0,0,1.54,1.39,1.82,1.82,0,0,0,1.95-1.6Z"/><path class="cls-1" d="M176.6,90.79h.69v8.8h-.69Z"/><path class="cls-1" d="M179.07,90.79h1v1h-1Zm.16,2.63h.68v6.17h-.68Z"/><path class="cls-1" d="M182.17,91.74l.68-.23v1.91h1.49V94h-1.49v4.14c0,.86.61,1,1.39,1v.6c-1.27,0-2.07-.31-2.07-1.57V94h-1v-.55h1Z"/><path class="cls-1" d="M185.12,101.67a2.57,2.57,0,0,0,2.09-2l-2.27-6.22h.73l1.91,5.43,1.87-5.43h.73l-2,5.7c-.64,1.77-1.15,2.76-2.79,3.16Z"/><path class="cls-1" d="M198.59,90.79h.68v8.8h-.68Z"/><path class="cls-1" d="M201.5,93.72a3.58,3.58,0,0,1,1.91-.53,2.14,2.14,0,0,1,2,1.22,2.86,2.86,0,0,1,.17,1.07v2.9a5.53,5.53,0,0,0,.09,1.21h-.63a5.07,5.07,0,0,1-.16-.76,2.75,2.75,0,0,1-2.1.9,2,2,0,0,1-2.05-2c0-1.52,1.09-2.16,3-2.16a11.4,11.4,0,0,1,1.18.07v-.17a1.49,1.49,0,0,0-1.54-1.7,3.17,3.17,0,0,0-1.6.44Zm3.43,2.46c-.44,0-.76-.06-1.07-.06-1.65,0-2.43.54-2.43,1.63A1.43,1.43,0,0,0,203,99.14a1.83,1.83,0,0,0,2-1.6Z"/><path class="cls-1" d="M209.38,99l2-5.53h.69l-2.31,6.17H209l-2.31-6.17h.68Z"/><path class="cls-1" d="M217.58,99.15a3.3,3.3,0,0,1-1.88.58,3,3,0,0,1-3-3.18c0-1.94,1.06-3.37,2.71-3.37A2.73,2.73,0,0,1,218,96.1c0,.15,0,.26,0,.41h-4.61a2.39,2.39,0,0,0,2.34,2.62,2.86,2.86,0,0,0,1.55-.43Zm-.2-3.2a2,2,0,0,0-2-2.18,2.26,2.26,0,0,0-2,2.18Z"/><path class="cls-1" d="M220.14,94.67a2.42,2.42,0,0,1,2.25-1.47v.65h-.21a2.09,2.09,0,0,0-2,2v3.71h-.68V93.42h.68Z"/><path class="cls-1" d="M.88,111.41v-.81a3.4,3.4,0,0,1,.13-1,1.54,1.54,0,0,1,1.48-1.08,2.67,2.67,0,0,1,1,.21l-.21.52a2.94,2.94,0,0,0-.7-.12,1,1,0,0,0-.92.59,2.11,2.11,0,0,0-.12.82v.84H2.91V112H1.57v5.62H.88V112H0v-.56Z"/><path class="cls-1" d="M5.14,112.67a2.41,2.41,0,0,1,2.25-1.47v.65H7.17a2.09,2.09,0,0,0-2,2v3.71H4.46v-6.17h.68Z"/><path class="cls-1" d="M7.7,114.45c0-2,1.25-3.26,2.85-3.26s2.83,1.26,2.83,3.26-1.25,3.28-2.84,3.28S7.7,116.46,7.7,114.45Zm.69,0c0,1.71,1,2.71,2.15,2.71s2.16-1,2.16-2.71-1-2.7-2.15-2.7S8.39,112.73,8.39,114.45Z"/><path class="cls-1" d="M15.55,112.31a2,2,0,0,1,1.76-1.12,2.1,2.1,0,0,1,1.85,1.37,2.22,2.22,0,0,1,1.92-1.37,2,2,0,0,1,2.09,2.16v4.24H22.5v-4.31A1.43,1.43,0,0,0,21,111.77a1.72,1.72,0,0,0-1.6,1.93v3.89H18.7V113.4a1.49,1.49,0,0,0-1.52-1.63,1.76,1.76,0,0,0-1.63,1.9v3.92h-.67v-6.17h.67Z"/><path class="cls-1" d="M32.72,116.38a2.34,2.34,0,0,1-2.07,1.35,2.16,2.16,0,0,1-2.27-2.31v-4h.68v3.9a1.65,1.65,0,0,0,1.66,1.82,2.16,2.16,0,0,0,2-2.28v-3.44h.68v6.17h-.68Z"/><path class="cls-1" d="M36,112.54a2.33,2.33,0,0,1,2.07-1.35,2.16,2.16,0,0,1,2.28,2.3v4.1h-.68v-4A1.62,1.62,0,0,0,38,111.77a2.18,2.18,0,0,0-2,2.3v3.52H35.3v-6.17H36Z"/><path class="cls-1" d="M46.75,117a2.93,2.93,0,0,1-2,.72,3,3,0,0,1-3-3.25,3,3,0,0,1,3-3.29,4.08,4.08,0,0,1,1.82.46l-.27.51a3.54,3.54,0,0,0-1.55-.38,2.7,2.7,0,0,0,0,5.35,2.51,2.51,0,0,0,1.6-.53Z"/><path class="cls-1" d="M47.7,114.45c0-2,1.24-3.26,2.84-3.26s2.84,1.26,2.84,3.26-1.26,3.28-2.85,3.28S47.7,116.46,47.7,114.45Zm.68,0c0,1.71,1,2.71,2.15,2.71s2.17-1,2.17-2.71-1-2.7-2.16-2.7S48.38,112.73,48.38,114.45Z"/><path class="cls-1" d="M55.55,112.54a2.36,2.36,0,0,1,2.07-1.35,2.17,2.17,0,0,1,2.29,2.3v4.1h-.69v-4a1.62,1.62,0,0,0-1.67-1.78,2.18,2.18,0,0,0-2,2.3v3.52h-.68v-6.17h.68Z"/><path class="cls-1" d="M62.07,109.74l.68-.23v1.91h1.49V112H62.75v4.14c0,.86.61,1,1.39,1v.6c-1.27,0-2.07-.31-2.07-1.57V112H61v-.55h1Z"/><path class="cls-1" d="M65.68,111.72a3.53,3.53,0,0,1,1.9-.53,2.17,2.17,0,0,1,2,1.22,2.87,2.87,0,0,1,.16,1.07v2.9a5,5,0,0,0,.1,1.21h-.64a6,6,0,0,1-.15-.76,2.79,2.79,0,0,1-2.11.9,2,2,0,0,1-2-2c0-1.52,1.09-2.16,3-2.16a11.39,11.39,0,0,1,1.17.07v-.17a1.49,1.49,0,0,0-1.54-1.7,3.2,3.2,0,0,0-1.6.44Zm3.42,2.46c-.43,0-.75-.06-1.07-.06-1.65,0-2.42.54-2.42,1.63a1.43,1.43,0,0,0,1.54,1.39,1.82,1.82,0,0,0,1.95-1.6Z"/><path class="cls-1" d="M72.3,112.31a2,2,0,0,1,1.76-1.12,2.1,2.1,0,0,1,1.85,1.37,2.22,2.22,0,0,1,1.92-1.37,2,2,0,0,1,2.09,2.16v4.24h-.67v-4.31a1.43,1.43,0,0,0-1.53-1.51,1.72,1.72,0,0,0-1.6,1.93v3.89h-.67V113.4a1.49,1.49,0,0,0-1.52-1.63,1.76,1.76,0,0,0-1.63,1.9v3.92h-.67v-6.17h.67Z"/><path class="cls-1" d="M81.64,108.79h1v1h-1Zm.15,2.63h.68v6.17h-.68Z"/><path class="cls-1" d="M85.09,112.54a2.36,2.36,0,0,1,2.08-1.35,2.16,2.16,0,0,1,2.28,2.3v4.1h-.69v-4a1.62,1.62,0,0,0-1.67-1.78,2.18,2.18,0,0,0-2,2.3v3.52h-.68v-6.17h.68Z"/><path class="cls-1" d="M91.61,111.72a3.53,3.53,0,0,1,1.9-.53,2.17,2.17,0,0,1,2,1.22,2.87,2.87,0,0,1,.16,1.07v2.9a5,5,0,0,0,.1,1.21h-.64a6,6,0,0,1-.15-.76,2.77,2.77,0,0,1-2.11.9,2,2,0,0,1-2-2c0-1.52,1.09-2.16,3-2.16a11.39,11.39,0,0,1,1.17.07v-.17a1.49,1.49,0,0,0-1.54-1.7,3.2,3.2,0,0,0-1.6.44ZM95,114.18c-.43,0-.75-.06-1.07-.06-1.64,0-2.42.54-2.42,1.63a1.43,1.43,0,0,0,1.54,1.39,1.82,1.82,0,0,0,2-1.6Z"/><path class="cls-1" d="M97.88,109.74l.68-.23v1.91h1.49V112H98.56v4.14c0,.86.61,1,1.39,1v.6c-1.27,0-2.07-.31-2.07-1.57V112h-1v-.55h1Z"/><path class="cls-1" d="M105.73,117.15a3.27,3.27,0,0,1-1.88.58,3,3,0,0,1-3-3.18c0-1.94,1.06-3.37,2.71-3.37a2.73,2.73,0,0,1,2.61,2.92c0,.15,0,.26,0,.41h-4.61a2.39,2.39,0,0,0,2.34,2.62,2.86,2.86,0,0,0,1.55-.43Zm-.2-3.2a2,2,0,0,0-2-2.18,2.27,2.27,0,0,0-2,2.18Z"/><path class="cls-1" d="M112,112.54v-3.75h.69v8.8H112v-1.13a2.46,2.46,0,0,1-2.13,1.27c-1.58,0-2.67-1.2-2.67-3.23s1-3.31,2.72-3.31A2.43,2.43,0,0,1,112,112.54Zm-4.11,2c0,1.28.64,2.65,2,2.65S112,116,112,114.5v-.1c0-1.69-.87-2.63-2.07-2.63C108.54,111.77,107.9,113.16,107.9,114.5Z"/><path class="cls-1" d="M120.9,112.16a2.82,2.82,0,0,0-1.3-.38c-.81,0-1.23.42-1.23,1s.55,1,1.55,1.44,1.59.86,1.59,1.8a1.79,1.79,0,0,1-2,1.74,2.83,2.83,0,0,1-2.07-.82l.36-.48a2.53,2.53,0,0,0,1.67.7c.73,0,1.34-.34,1.34-1.11,0-.55-.6-1-1.31-1.3s-1.83-.88-1.83-1.9a1.65,1.65,0,0,1,1.85-1.63,3.13,3.13,0,0,1,1.68.49Z"/><path class="cls-1" d="M127.44,117.15a3.3,3.3,0,0,1-1.88.58,3,3,0,0,1-3-3.18c0-1.94,1.06-3.37,2.71-3.37a2.73,2.73,0,0,1,2.61,2.92c0,.15,0,.26,0,.41h-4.61a2.39,2.39,0,0,0,2.34,2.62,2.86,2.86,0,0,0,1.55-.43Zm-.2-3.2a2,2,0,0,0-2-2.18,2.27,2.27,0,0,0-2,2.18Z"/><path class="cls-1" d="M129.63,111.72a3.53,3.53,0,0,1,1.9-.53,2.17,2.17,0,0,1,2,1.22,3.09,3.09,0,0,1,.16,1.07v2.9a5,5,0,0,0,.1,1.21h-.64a6,6,0,0,1-.15-.76,2.79,2.79,0,0,1-2.11.9,2,2,0,0,1-2-2c0-1.52,1.09-2.16,3-2.16a11.39,11.39,0,0,1,1.17.07v-.17a1.49,1.49,0,0,0-1.54-1.7,3.2,3.2,0,0,0-1.6.44Zm3.42,2.46c-.43,0-.75-.06-1.07-.06-1.65,0-2.42.54-2.42,1.63a1.43,1.43,0,0,0,1.54,1.39,1.82,1.82,0,0,0,2-1.6Z"/><path class="cls-1" d="M138.44,112.16a2.82,2.82,0,0,0-1.31-.38c-.81,0-1.22.42-1.22,1s.54,1,1.54,1.44,1.6.86,1.6,1.8a1.8,1.8,0,0,1-2,1.74,2.84,2.84,0,0,1-2.07-.82l.37-.48a2.53,2.53,0,0,0,1.67.7c.73,0,1.34-.34,1.34-1.11,0-.55-.6-1-1.32-1.3s-1.82-.88-1.82-1.9a1.65,1.65,0,0,1,1.84-1.63,3.19,3.19,0,0,1,1.69.49Z"/><path class="cls-1" d="M140.53,117.12h1.07v1.07h-1.07Z"/></g></g></svg>