<svg xmlns="http://www.w3.org/2000/svg" viewBox="0 0 364.4 138"><defs><style>.cls-1{fill:none;stroke:#f5f5f5;stroke-miterlimit:10;stroke-width:2px;}.cls-2{fill:#231815;}</style></defs><title>자산 205</title><g id="레이어_2" data-name="레이어 2"><g id="레이어_1-2" data-name="레이어 1"><rect class="cls-1" x="1" y="1" width="110" height="136" rx="15.22"/><rect class="cls-1" x="127.2" y="1" width="110" height="136" rx="15.22"/><rect class="cls-1" x="253.4" y="1" width="110" height="136" rx="15.22"/><path d="M286.21,94.46a3.26,3.26,0,0,0-1.75-.6c-.9,0-1.43.45-1.43,1.14s.63,1.11,1.89,1.66,2,1.15,2,2.29c0,1.47-1.28,2.11-2.52,2.11a3.87,3.87,0,0,1-2.59-1l.46-.64a3.24,3.24,0,0,0,2.07.88c.73,0,1.72-.3,1.72-1.36,0-.71-.65-1.18-1.76-1.65s-2.16-1-2.16-2.26c0-1.44,1.21-1.92,2.28-1.92a4.16,4.16,0,0,1,2.15.67Z"/><path d="M288.05,93.91l.81-.27v1.7h1.3V96h-1.3v3.53c0,.71.56.8,1.21.81v.7c-1.23,0-2-.27-2-1.46V96h-.79v-.69h.79Z"/><path d="M291.87,96.14a1.82,1.82,0,0,1,1.65-1l.3,0V96l-.27,0a1.56,1.56,0,0,0-1.68,1.47v3.53H291V95.34h.84Z"/><path d="M294.32,93.06h1v1.1h-1Zm.07,2.28h.84v5.59h-.84Z"/><path d="M300.76,100.39a2.65,2.65,0,0,1-1.87.68,3,3,0,0,1,0-5.91,3.44,3.44,0,0,1,1.73.49l-.33.62a2.89,2.89,0,0,0-1.4-.4,2.28,2.28,0,0,0,0,4.51,2.17,2.17,0,0,0,1.42-.52Z"/><path d="M301.68,93.91l.81-.27v1.7h1.31V96h-1.31v3.53c0,.71.56.8,1.21.81v.7c-1.23,0-2-.27-2-1.46V96h-.78v-.69h.78Z"/><path d="M309.29,95.19a2,2,0,0,1,1.7.94v-.79h.84v7.94H311V100.2a2,2,0,0,1-1.7.87c-1.51,0-2.48-1.1-2.48-2.9S307.78,95.19,309.29,95.19Zm0,.68c-1.2,0-1.63,1.19-1.63,2.31s.5,2.24,1.63,2.24,1.65-1,1.68-2.16v-.21C311,96.58,310.28,95.87,309.31,95.87Z"/><path d="M316.75,100.15a2.11,2.11,0,0,1-1.67.92A2,2,0,0,1,313,99V95.34h.84v3.54a1.37,1.37,0,0,0,1.33,1.51,1.66,1.66,0,0,0,1.62-1.8V95.34h.84v5.59h-.84Z"/><path d="M319,95.7a3.42,3.42,0,0,1,1.85-.54,1.85,1.85,0,0,1,1.88,1.17,2.84,2.84,0,0,1,.12,1v2.47a4.72,4.72,0,0,0,.12,1.18h-.84c0-.19-.09-.65-.09-.65a2.23,2.23,0,0,1-1.72.78,1.83,1.83,0,0,1-1.95-1.83c0-1.46,1.16-2,2.75-2,.29,0,.59,0,.9,0V97.2a1.16,1.16,0,0,0-1.27-1.33,2.53,2.53,0,0,0-1.39.45Zm1.43,4.63A1.46,1.46,0,0,0,322,98.87v-.93a7.75,7.75,0,0,0-.82,0c-1.19,0-2,.34-2,1.29A1.14,1.14,0,0,0,320.44,100.33Z"/><path d="M324,93.06h.85v7.87H324Z"/><path d="M325.93,93.06h1v1.1h-1Zm.07,2.28h.84v5.59H326Z"/><path d="M328.28,93.91l.81-.27v1.7h1.3V96h-1.3v3.53c0,.71.56.8,1.2.81v.7c-1.22,0-2-.27-2-1.46V96h-.79v-.69h.79Z"/><path d="M330.75,102.59a2.31,2.31,0,0,0,1.9-1.74l-2.06-5.51h.9l1.58,4.46,1.53-4.46h.9l-1.83,5.11c-.6,1.7-1,2.48-2.65,2.85Z"/><path d="M298.15,114a2.62,2.62,0,0,1-1.87.68,3,3,0,0,1,0-5.9,3.44,3.44,0,0,1,1.73.49l-.34.62a2.82,2.82,0,0,0-1.39-.41,2.28,2.28,0,0,0,0,4.51,2.17,2.17,0,0,0,1.42-.52Z"/><path d="M301.13,108.81a3,3,0,1,1-2.6,2.93A2.66,2.66,0,0,1,301.13,108.81Zm0,5.2c1,0,1.75-.83,1.75-2.27s-.79-2.26-1.75-2.26-1.74.83-1.74,2.26S300.18,114,301.13,114Z"/><path d="M305.47,109.73a2.12,2.12,0,0,1,1.66-.91,2,2,0,0,1,2.13,2.08v3.64h-.84V111a1.37,1.37,0,0,0-1.34-1.5,1.65,1.65,0,0,0-1.61,1.79v3.25h-.85V109h.85Z"/><path d="M310.64,107.53l.81-.27V109h1.31v.69h-1.31v3.52c0,.71.56.8,1.21.81v.7c-1.23,0-2-.27-2-1.46v-3.57h-.78V109h.78Z"/><path d="M314.46,109.76a1.83,1.83,0,0,1,1.66-1l.29,0v.75l-.26,0a1.57,1.57,0,0,0-1.69,1.46v3.53h-.84V109h.84Z"/><path d="M319.05,108.81a3,3,0,1,1-2.61,2.93A2.66,2.66,0,0,1,319.05,108.81Zm0,5.2c.95,0,1.74-.83,1.74-2.27s-.79-2.26-1.74-2.26-1.74.83-1.74,2.26S318.1,114,319.05,114Z"/><path d="M322.54,106.68h.84v7.86h-.84Z"/><path d="M327,50.9h-2.36v-3.3a.37.37,0,0,0-.37-.37H310.92V44.36h4.15a.79.79,0,0,0,.79-.79V26.69a.79.79,0,0,0-.79-.8H307.8l-.12,0-.14.08L302,31.58a.3.3,0,0,0-.07.11.45.45,0,0,0,0,.13l0,.09V42.82a1.54,1.54,0,0,0,1.54,1.54h6.79v2.88H296.86a.36.36,0,0,0-.37.34v.1h0v3.23h-2.81l-.12,0-.14.08-4.17,4.18a.26.26,0,0,0-.07.1.5.5,0,0,0,0,.14l0,.09v8.15a1.25,1.25,0,0,0,1.24,1.24h8.75a.68.68,0,0,0,.68-.68V51.59a.68.68,0,0,0-.68-.69h-1.9V48h12.95v2.94h-2.57a.33.33,0,0,0-.12,0l-.14.08-4.18,4.18-.07.1c0,.07,0,.1,0,.14v8.24a1.24,1.24,0,0,0,1.24,1.24h8.74a.69.69,0,0,0,.69-.68V51.59a.69.69,0,0,0-.69-.69h-2.13V48h13v2.94h-2.37l-.1,0-.14.08-4.17,4.18a.26.26,0,0,0-.07.1.5.5,0,0,0,0,.14l0,.09v8.15a1.25,1.25,0,0,0,1.24,1.24H327a.68.68,0,0,0,.68-.68V51.59A.68.68,0,0,0,327,50.9Zm-33.66,1.26v2.92H290.4Zm5.76-.52V64.17h-8.7a.5.5,0,0,1-.5-.51V55.82h3.8a.38.38,0,0,0,.37-.37V51.64Zm8.35-24.49v4.32h-4.32Zm-.19,25v2.92h-2.92Zm5.76-.52V64.17h-8.69a.51.51,0,0,1-.51-.51V55.82h3.81a.38.38,0,0,0,.37-.37V51.64Zm-9.61-8a.83.83,0,0,1-.57-.23.79.79,0,0,1-.23-.57V32.21h5.21a.38.38,0,0,0,.37-.37V26.63h7v17Zm17.78,8.54v2.92h-2.92Zm-2.94,12a.5.5,0,0,1-.5-.51V55.82h3.8a.37.37,0,0,0,.37-.37V51.64h5V64.17Z"/><path d="M305.18,36.1h7.36a.48.48,0,0,0,0-1h-7.36a.48.48,0,0,0,0,1Z"/><path d="M305.18,38.73h7.36a.47.47,0,0,0,0-.94h-7.36a.47.47,0,0,0,0,.94Z"/><path d="M305.18,41.37h7.36a.47.47,0,0,0,.47-.47.48.48,0,0,0-.47-.48h-7.36a.48.48,0,0,0-.47.48A.47.47,0,0,0,305.18,41.37Z"/><path d="M297.51,68.89l-2.93,3.75a.22.22,0,0,1-.18.09.21.21,0,0,1-.2-.09l-1.05-1.32a.41.41,0,0,0-.3-.14.35.35,0,0,0-.23.09.37.37,0,0,0-.06.52l1.06,1.33a1,1,0,0,0,1.55,0l2.93-3.76a.4.4,0,0,0,.08-.28.41.41,0,0,0-.15-.25A.36.36,0,0,0,297.51,68.89Z"/><path d="M297.19,72.55a.38.38,0,0,0-.37.38v1.86a.23.23,0,0,1-.24.23h-4.81a.23.23,0,0,1-.24-.23V70a.24.24,0,0,1,.24-.24h3.54a.38.38,0,0,0,0-.75h-3.54a1,1,0,0,0-1,1v4.82a1,1,0,0,0,1,1h4.81a1,1,0,0,0,1-1V72.93A.38.38,0,0,0,297.19,72.55Z"/><path d="M311.43,68.89l-2.93,3.75a.2.2,0,0,1-.17.09.19.19,0,0,1-.2-.09l-1.06-1.32a.37.37,0,0,0-.29-.14.38.38,0,0,0-.24.09.39.39,0,0,0-.14.25.36.36,0,0,0,.08.27l1.06,1.33a1,1,0,0,0,.77.37,1,1,0,0,0,.79-.38L312,69.35a.36.36,0,0,0,.08-.28.35.35,0,0,0-.14-.25A.37.37,0,0,0,311.43,68.89Z"/><path d="M311.12,72.55a.38.38,0,0,0-.38.38v1.86a.23.23,0,0,1-.23.23h-4.82a.23.23,0,0,1-.24-.23V70a.24.24,0,0,1,.24-.24h3.54a.38.38,0,1,0,0-.75h-3.54a1,1,0,0,0-1,1v4.82a1,1,0,0,0,1,1h4.82a1,1,0,0,0,1-1V72.93A.38.38,0,0,0,311.12,72.55Z"/><path d="M325.36,68.89l-2.93,3.75a.22.22,0,0,1-.18.09.21.21,0,0,1-.2-.09L321,71.32a.41.41,0,0,0-.3-.14.35.35,0,0,0-.23.09.37.37,0,0,0-.06.52l1.06,1.33a1,1,0,0,0,1.55,0L326,69.35a.4.4,0,0,0,.08-.28.41.41,0,0,0-.15-.25A.36.36,0,0,0,325.36,68.89Z"/><path d="M325,72.55a.38.38,0,0,0-.37.38v1.86a.23.23,0,0,1-.24.23h-4.81a.23.23,0,0,1-.24-.23V70a.24.24,0,0,1,.24-.24h3.54a.38.38,0,0,0,0-.75h-3.54a1,1,0,0,0-1,1v4.82a1,1,0,0,0,1,1h4.81a1,1,0,0,0,1-1V72.93A.38.38,0,0,0,325,72.55Z"/><path class="cls-2" d="M30.51,93.25V98.5a2.51,2.51,0,0,1-2.76,2.56A2.51,2.51,0,0,1,25,98.5V93.25h.84v5.09a1.84,1.84,0,0,0,1.94,2,1.79,1.79,0,0,0,1.92-2V93.25Z"/><path class="cls-2" d="M34.4,96.29a2.13,2.13,0,0,0-1.16-.42c-.63,0-.94.32-.94.75s.4.76,1.26,1.18S35,98.68,35,99.49a1.65,1.65,0,0,1-1.85,1.6,2.6,2.6,0,0,1-1.95-.79l.45-.58a2.25,2.25,0,0,0,1.47.67c.57,0,1.06-.28,1.06-.88s-.5-.79-1.09-1.06c-.76-.35-1.62-.8-1.62-1.77a1.51,1.51,0,0,1,1.69-1.51,2.86,2.86,0,0,1,1.61.52Z"/><path class="cls-2" d="M35.79,93.06h1v1.1h-1Zm.07,2.28h.84v5.59h-.84Z"/><path class="cls-2" d="M38.72,96.12a2.11,2.11,0,0,1,1.66-.92,2,2,0,0,1,2.13,2.09v3.64h-.84V97.39a1.37,1.37,0,0,0-1.34-1.51,1.66,1.66,0,0,0-1.61,1.8v3.25h-.85V95.34h.85Z"/><path class="cls-2" d="M45.82,95.16a1.89,1.89,0,0,1,1.7,1v-.79h.84v5.09a2.47,2.47,0,0,1-2.52,2.77,3.91,3.91,0,0,1-2-.54l.3-.64a3.48,3.48,0,0,0,1.64.47c.91,0,1.7-.62,1.7-2.08V100a2,2,0,0,1-1.71.95c-1.45,0-2.47-1.1-2.47-2.9S44.39,95.16,45.82,95.16Zm0,.71c-1.2,0-1.63,1.08-1.63,2.2s.55,2.2,1.63,2.2,1.65-.9,1.68-2.06v-.07C47.52,96.59,46.82,95.87,45.84,95.87Z"/><path class="cls-2" d="M56.34,100.39a2.65,2.65,0,0,1-1.87.68,3,3,0,0,1,0-5.91,3.44,3.44,0,0,1,1.73.49l-.33.62a2.89,2.89,0,0,0-1.4-.4,2.28,2.28,0,0,0,0,4.51,2.17,2.17,0,0,0,1.42-.52Z"/><path class="cls-2" d="M57.24,95.7a3.45,3.45,0,0,1,1.85-.54A1.84,1.84,0,0,1,61,96.33a2.8,2.8,0,0,1,.13,1v2.47a4.72,4.72,0,0,0,.12,1.18h-.85c0-.19-.08-.65-.08-.65a2.25,2.25,0,0,1-1.73.78,1.83,1.83,0,0,1-2-1.83c0-1.46,1.17-2,2.75-2,.3,0,.59,0,.91,0V97.2A1.17,1.17,0,0,0,59,95.87a2.53,2.53,0,0,0-1.39.45Zm1.43,4.63a1.47,1.47,0,0,0,1.6-1.46v-.93a7.94,7.94,0,0,0-.83,0c-1.18,0-2,.34-2,1.29A1.14,1.14,0,0,0,58.67,100.33Z"/><path class="cls-2" d="M63.06,96.14a1.82,1.82,0,0,1,1.66-1l.29,0V96l-.27,0a1.56,1.56,0,0,0-1.68,1.47v3.53h-.84V95.34h.84Z"/><path class="cls-2" d="M69.57,100.49a2.93,2.93,0,0,1-1.79.58A2.69,2.69,0,0,1,65,98.22c0-1.75.94-3.06,2.5-3.06a2.48,2.48,0,0,1,2.4,2.68,3.52,3.52,0,0,1,0,.45h-4a1.9,1.9,0,0,0,1.91,2.09,2.42,2.42,0,0,0,1.41-.45Zm-.44-2.89a1.64,1.64,0,0,0-1.59-1.73,1.84,1.84,0,0,0-1.6,1.73Z"/><path class="cls-2" d="M71.05,95.34v-.6a3.5,3.5,0,0,1,.1-.88,1.42,1.42,0,0,1,1.43-1,3,3,0,0,1,1,.21l-.24.66a2.35,2.35,0,0,0-.7-.14A.67.67,0,0,0,72,94a1.89,1.89,0,0,0-.1.69v.63h1.17V96H71.89v4.9h-.84V96h-.78v-.69Z"/><path class="cls-2" d="M77.72,100.15a2.11,2.11,0,0,1-1.67.92A2,2,0,0,1,73.93,99V95.34h.84v3.54a1.37,1.37,0,0,0,1.33,1.51,1.66,1.66,0,0,0,1.62-1.8V95.34h.84v5.59h-.84Z"/><path class="cls-2" d="M79.74,93.06h.84v7.87h-.84Z"/><path class="cls-2" d="M81.76,93.06h.84v7.87h-.84Z"/><path class="cls-2" d="M83.27,102.59a2.28,2.28,0,0,0,1.9-1.74l-2.06-5.51H84l1.58,4.46,1.53-4.46H88l-1.82,5.11c-.61,1.7-1,2.48-2.66,2.85Z"/><path class="cls-2" d="M41.09,108.29a2.13,2.13,0,0,0-1.16-.42c-.63,0-.94.32-.94.75s.4.76,1.26,1.18,1.47.88,1.47,1.69a1.65,1.65,0,0,1-1.85,1.6,2.6,2.6,0,0,1-1.95-.79l.45-.58a2.25,2.25,0,0,0,1.47.67c.57,0,1.06-.28,1.06-.88s-.5-.79-1.09-1.06c-.76-.35-1.63-.8-1.63-1.77a1.52,1.52,0,0,1,1.7-1.51,2.83,2.83,0,0,1,1.6.52Z"/><path class="cls-2" d="M46.78,112.49a2.93,2.93,0,0,1-1.79.58,2.69,2.69,0,0,1-2.74-2.85c0-1.75.94-3.06,2.5-3.06a2.48,2.48,0,0,1,2.4,2.68,3.52,3.52,0,0,1,0,.45h-4A1.9,1.9,0,0,0,45,112.38a2.42,2.42,0,0,0,1.41-.45Zm-.44-2.89a1.64,1.64,0,0,0-1.59-1.73,1.84,1.84,0,0,0-1.6,1.73Z"/><path class="cls-2" d="M48,105.06h.85v7.87H48Z"/><path class="cls-2" d="M54.26,112.49a2.9,2.9,0,0,1-1.78.58,2.69,2.69,0,0,1-2.74-2.85c0-1.75.94-3.06,2.5-3.06a2.48,2.48,0,0,1,2.4,2.68,3.52,3.52,0,0,1,0,.45h-4a1.9,1.9,0,0,0,1.91,2.09,2.42,2.42,0,0,0,1.41-.45Zm-.44-2.89a1.64,1.64,0,0,0-1.58-1.73,1.83,1.83,0,0,0-1.6,1.73Z"/><path class="cls-2" d="M59.85,112.39a2.65,2.65,0,0,1-1.87.68,3,3,0,0,1,0-5.91,3.43,3.43,0,0,1,1.72.49l-.33.62a2.82,2.82,0,0,0-1.39-.4,2.28,2.28,0,0,0,0,4.51,2.17,2.17,0,0,0,1.42-.52Z"/><path class="cls-2" d="M60.77,105.91l.82-.27v1.7h1.3V108h-1.3v3.53c0,.71.55.8,1.2.81v.7c-1.22,0-2-.27-2-1.46V108H60v-.69h.78Z"/><path class="cls-2" d="M67.89,112.49a2.93,2.93,0,0,1-1.79.58,2.69,2.69,0,0,1-2.74-2.85c0-1.75.94-3.06,2.5-3.06a2.48,2.48,0,0,1,2.4,2.68,3.52,3.52,0,0,1,0,.45h-4a1.9,1.9,0,0,0,1.91,2.09,2.42,2.42,0,0,0,1.41-.45Zm-.45-2.89a1.63,1.63,0,0,0-1.58-1.73,1.84,1.84,0,0,0-1.6,1.73Z"/><path class="cls-2" d="M71.31,107.19a1.94,1.94,0,0,1,1.69.94v-3.07h.84v7.87H73v-.73a2,2,0,0,1-1.69.87c-1.51,0-2.48-1.1-2.48-2.9S69.8,107.19,71.31,107.19Zm0,.68c-1.21,0-1.64,1.19-1.64,2.31s.5,2.24,1.64,2.24,1.64-1,1.67-2.16v-.21C73,108.58,72.3,107.87,71.33,107.87Z"/><path class="cls-2" d="M29,120.14a1.82,1.82,0,0,1,1.66-1l.29,0V120l-.26,0A1.56,1.56,0,0,0,29,121.4v3.53h-.84v-5.59H29Z"/><path class="cls-2" d="M31.46,119.7a3.47,3.47,0,0,1,1.85-.54,1.84,1.84,0,0,1,1.88,1.17,2.8,2.8,0,0,1,.13,1v2.47a4.72,4.72,0,0,0,.12,1.18H34.6c0-.19-.09-.65-.09-.65a2.25,2.25,0,0,1-1.73.78,1.83,1.83,0,0,1-2-1.83c0-1.46,1.17-2,2.76-2,.29,0,.58,0,.9,0v-.07a1.17,1.17,0,0,0-1.28-1.33,2.53,2.53,0,0,0-1.39.45Zm1.43,4.63a1.47,1.47,0,0,0,1.6-1.46v-.93a7.88,7.88,0,0,0-.82,0c-1.19,0-2,.34-2,1.29A1.14,1.14,0,0,0,32.89,124.33Z"/><path class="cls-2" d="M37.85,123.77,39,119.34h.86L41,123.76l1.2-4.42h.82l-1.6,5.59h-.81l-1.2-4.51-1.2,4.51h-.81l-1.59-5.59h.82Z"/><path class="cls-2" d="M46.91,120a1.72,1.72,0,0,1,1.4-.75,1.74,1.74,0,0,1,1.64,1,1.89,1.89,0,0,1,1.66-1,1.81,1.81,0,0,1,1.94,1.94v3.78h-.84v-3.82a1.13,1.13,0,0,0-1.2-1.22,1.29,1.29,0,0,0-1.27,1.47v3.57H49.4v-3.74a1.18,1.18,0,0,0-1.19-1.3,1.33,1.33,0,0,0-1.3,1.45v3.59h-.83v-5.59h.83Z"/><path class="cls-2" d="M54.94,119.7a3.47,3.47,0,0,1,1.85-.54,1.84,1.84,0,0,1,1.88,1.17,2.8,2.8,0,0,1,.13,1v2.47a4.72,4.72,0,0,0,.12,1.18h-.84c0-.19-.09-.65-.09-.65a2.23,2.23,0,0,1-1.73.78,1.82,1.82,0,0,1-1.94-1.83c0-1.46,1.16-2,2.75-2,.29,0,.58,0,.9,0v-.07a1.16,1.16,0,0,0-1.28-1.33,2.58,2.58,0,0,0-1.39.45Zm1.43,4.63a1.47,1.47,0,0,0,1.6-1.46v-.93a7.88,7.88,0,0,0-.82,0c-1.19,0-2,.34-2,1.29A1.14,1.14,0,0,0,56.37,124.33Z"/><path class="cls-2" d="M60.17,117.91l.82-.27v1.7h1.3V120H61v3.53c0,.71.56.8,1.2.81v.7c-1.22,0-2-.27-2-1.46V120h-.78v-.69h.78Z"/><path class="cls-2" d="M67.29,124.49a2.92,2.92,0,0,1-1.78.58,2.7,2.7,0,0,1-2.75-2.85c0-1.75.94-3.06,2.5-3.06a2.48,2.48,0,0,1,2.4,2.68,3.52,3.52,0,0,1,0,.45h-4a1.9,1.9,0,0,0,1.91,2.09,2.42,2.42,0,0,0,1.41-.45Zm-.44-2.89a1.64,1.64,0,0,0-1.59-1.73,1.84,1.84,0,0,0-1.6,1.73Z"/><path class="cls-2" d="M69.37,120.14a1.82,1.82,0,0,1,1.65-1l.3,0V120l-.27,0a1.56,1.56,0,0,0-1.68,1.47v3.53h-.85v-5.59h.85Z"/><path class="cls-2" d="M71.82,117.06h1v1.1h-1Zm.07,2.28h.84v5.59h-.84Z"/><path class="cls-2" d="M74.14,119.7a3.45,3.45,0,0,1,1.85-.54,1.84,1.84,0,0,1,1.88,1.17,2.8,2.8,0,0,1,.13,1v2.47a4.72,4.72,0,0,0,.12,1.18h-.85c0-.19-.08-.65-.08-.65a2.25,2.25,0,0,1-1.73.78,1.83,1.83,0,0,1-1.95-1.83c0-1.46,1.17-2,2.76-2,.29,0,.58,0,.9,0v-.07a1.17,1.17,0,0,0-1.28-1.33,2.53,2.53,0,0,0-1.39.45Zm1.43,4.63a1.47,1.47,0,0,0,1.6-1.46v-.93a7.94,7.94,0,0,0-.83,0c-1.18,0-2,.34-2,1.29A1.13,1.13,0,0,0,75.57,124.33Z"/><path class="cls-2" d="M79.12,117.06H80v7.87h-.84Z"/><path class="cls-2" d="M83.82,120.29a2.14,2.14,0,0,0-1.17-.42c-.62,0-.94.32-.94.75s.41.76,1.27,1.18,1.47.88,1.47,1.69a1.65,1.65,0,0,1-1.85,1.6,2.6,2.6,0,0,1-1.95-.79l.45-.58a2.25,2.25,0,0,0,1.47.67c.57,0,1.05-.28,1.05-.88s-.49-.79-1.08-1.06c-.77-.35-1.63-.8-1.63-1.77a1.52,1.52,0,0,1,1.7-1.51,2.85,2.85,0,0,1,1.6.52Z"/><path d="M79.86,39.27a12.36,12.36,0,0,1-2.93-1.76,4.86,4.86,0,0,0-2.58-1.12A7.4,7.4,0,0,1,70,34.48a4.38,4.38,0,0,0-2.48-1.06,7.63,7.63,0,0,1-4.39-1.9,4,4,0,0,0-.64-.43,4.32,4.32,0,0,1-.53-.34,1.75,1.75,0,0,1-.62-.67,3.25,3.25,0,0,0-3.08-1.94A6.85,6.85,0,0,1,56.48,28l-.07,0a7.89,7.89,0,0,0-4.61-.15,5.42,5.42,0,0,1-3.62,0,6.41,6.41,0,0,0-4.08,0,5.15,5.15,0,0,1-3.2,0,7.18,7.18,0,0,0-4.33,0,10.52,10.52,0,0,1-1.66.3l-.74.1h0a2.87,2.87,0,0,0-2.39.9A2.84,2.84,0,0,0,31,31.6a12,12,0,0,1-.15,4.19,10.78,10.78,0,0,0-.14,4.8,12.88,12.88,0,0,1,0,6.32,8.29,8.29,0,0,0,0,4,13.51,13.51,0,0,1,0,6.26,7.69,7.69,0,0,0-.19,3l0,.2a19.08,19.08,0,0,1,.41,6.1,2.55,2.55,0,0,0,.73,2.1,3.26,3.26,0,0,0,2.57,1,4.89,4.89,0,0,1,1.7.13,9.34,9.34,0,0,0,5.61,0,2.94,2.94,0,0,1,.84-.11,7.18,7.18,0,0,1,.82.06,8.49,8.49,0,0,1,1,.22c.3.07.61.15.91.19a11.09,11.09,0,0,1,6.23,2.63,2.57,2.57,0,0,0,1.32.49,8.84,8.84,0,0,1,5,2.14,4.5,4.5,0,0,0,2.28,1l.52.1a9.12,9.12,0,0,1,2.31.65,3.46,3.46,0,0,0,3,.15,3.18,3.18,0,0,0,1.72-2.13,9.59,9.59,0,0,1,1.41-3.06,21.75,21.75,0,0,0,1.29-2l.07-.14A6.18,6.18,0,0,0,71,68.15a18,18,0,0,1,3.28-7.58,4.13,4.13,0,0,0,.76-1.68,18.6,18.6,0,0,1,3.45-8,4.88,4.88,0,0,0,.65-1.5c.16-.51.29-1,.43-1.55a16.73,16.73,0,0,1,1.72-4.57,2.6,2.6,0,0,0,.23-2.22A3,3,0,0,0,79.86,39.27ZM46.26,69.39a5,5,0,0,1-1.45-.22,7,7,0,0,0-4.43,0,6.25,6.25,0,0,1-3.38,0,19.23,19.23,0,0,0-3-.34,2.52,2.52,0,0,1-1.84-.92,1.79,1.79,0,0,1-.37-1.47,12.92,12.92,0,0,0-.17-4.52c-.11-.64-.21-1.3-.27-2a9.8,9.8,0,0,1,.14-2.29c0-.21.05-.42.08-.63s.11-.68.17-1a8,8,0,0,0,.2-1.44A10.33,10.33,0,0,0,31.74,52a13.39,13.39,0,0,1,0-6.2,7.93,7.93,0,0,0,0-4,14.18,14.18,0,0,1,.06-6.91,7.66,7.66,0,0,0,0-3.1,2.36,2.36,0,0,1,.49-2A2.59,2.59,0,0,1,34.52,29a8.52,8.52,0,0,0,2.39-.33,6.13,6.13,0,0,1,3.56,0,6.17,6.17,0,0,0,4,0,5.82,5.82,0,0,1,3.62,0,5.44,5.44,0,0,0,3.56.06,7.62,7.62,0,0,1,4.43,0,9.26,9.26,0,0,0,2.23.2,2.51,2.51,0,0,1,1.72.68,2.22,2.22,0,0,1,.64,1.62.38.38,0,0,1,0,.1,12.43,12.43,0,0,0,.25,5.19l.11.55a7.69,7.69,0,0,1-.13,3.44A15.54,15.54,0,0,0,61,47.78a7.13,7.13,0,0,1-.16,3.09,14,14,0,0,0,.08,6.72,9.37,9.37,0,0,1-.11,3.95l0,.07a13.41,13.41,0,0,0-.23,4.53A2,2,0,0,1,60.14,68a3.16,3.16,0,0,1-2.65.75L57,68.8c-.54.09-1.21.21-1.87.38a4.81,4.81,0,0,1-2.79,0,7.39,7.39,0,0,0-4.67,0A4.25,4.25,0,0,1,46.26,69.39ZM80.5,43a13.93,13.93,0,0,0-1.76,4.62c-.13.53-.27,1.08-.42,1.62a4.08,4.08,0,0,1-.6,1.29,18.65,18.65,0,0,0-3.47,8A3.38,3.38,0,0,1,73.61,60a18.56,18.56,0,0,0-3.48,8.07,4.1,4.1,0,0,1-.56,1.3c-.4.71-.84,1.4-1.31,2.07a10.54,10.54,0,0,0-1.6,3.47,2.15,2.15,0,0,1-1.11,1.46,2.27,2.27,0,0,1-1,.23,3,3,0,0,1-1.18-.25,13.43,13.43,0,0,0-2.08-.61c-.43-.1-.87-.21-1.3-.34A8.89,8.89,0,0,1,58.8,75l-.44-.2a1.3,1.3,0,0,1-.23-.15,8.1,8.1,0,0,0-4.76-2.1,4,4,0,0,1-2.25-1c-.43-.33-.88-.65-1.32-1l-.6-.42-.08-.06,0-.49h.19l.44,0c.33,0,.68,0,1,.09.62.11,1.25.25,1.87.42A5.34,5.34,0,0,0,55.44,70h.07a10.13,10.13,0,0,1,2.92-.36c1.38.09,2.49-.83,3.1-2.61l.06-.18.18.05.8.22c.64.17,1.31.35,2,.55s.69.16.81-.16a.39.39,0,0,0,0-.35.68.68,0,0,0-.47-.3c-1-.29-1.87-.51-2.68-.7a.9.9,0,0,1-.82-.79,7.26,7.26,0,0,1,.15-2.68c.07-.38.14-.76.19-1.15s.12-.83.19-1.2c0-.15.05-.29.07-.42l0-.21,1.32.33c.9.22,1.78.43,2.66.66.38.1.75.24,1.11.36l.42.15c.45.15.58,0,.65-.21a.47.47,0,0,0,0-.37.5.5,0,0,0-.3-.22c-.73-.23-1.49-.46-2.27-.67-.23-.06-.47-.11-.7-.15l-.45-.09c-1.37-.3-2.93-.93-2.85-3.14a5.51,5.51,0,0,0-.14-1.19A5.56,5.56,0,0,1,61.33,54a10.88,10.88,0,0,1,.23-1.85l.15-.9,0-.29.25.15.38.22a5.21,5.21,0,0,1,.72.46,11,11,0,0,0,5.56,2.4,6,6,0,0,1,1.25.37c.14,0,.28.11.43.15.49.17.62,0,.7-.19a.43.43,0,0,0,0-.35.58.58,0,0,0-.36-.26l-.61-.19a12.59,12.59,0,0,0-1.7-.47,9.78,9.78,0,0,1-4.31-1.82,11.3,11.3,0,0,0-1-.68c-.24-.15-.48-.29-.71-.45-.07,0-.41-.29-.37-.55A7.37,7.37,0,0,0,61.78,47c-.07-.4-.15-.81-.2-1.21s-.12-.9-.2-1.37l-.13-.89.25,0A8.67,8.67,0,0,1,66,45.29a11.41,11.41,0,0,0,5.41,2.32,7.17,7.17,0,0,1,1.3.37l.38.14c.46.15.64.11.75-.19a.41.41,0,0,0,0-.34.67.67,0,0,0-.43-.28c-.33-.11-.67-.19-1-.28s-.93-.24-1.39-.4l-.84-.26a9.76,9.76,0,0,1-2.49-1c-2-1.36-3.79-2.42-6-2.64l-.2,0,0-.2c0-.23.06-.46.09-.68a12.59,12.59,0,0,1,.23-1.39,10,10,0,0,0-.08-4.16c0-.26-.09-.53-.15-.8a7.65,7.65,0,0,1-.14-3.27l.14-.61.23.14.2.11a1.88,1.88,0,0,1,.36.24,9.29,9.29,0,0,0,5.24,2.3,3.41,3.41,0,0,1,1.69.75,9.63,9.63,0,0,0,5.28,2.24A3.51,3.51,0,0,1,76,38c.34.21.67.45,1,.68a10.6,10.6,0,0,0,2.51,1.45,2,2,0,0,1,1.21,1.28A1.86,1.86,0,0,1,80.5,43Z"/><path d="M36.6,39l.19,0a16,16,0,0,1,2.06.3,10.14,10.14,0,0,0,5,0A9.22,9.22,0,0,1,46.2,39a10.23,10.23,0,0,1,2.41.29c.58.14,1.17.22,1.74.3l.71.11.74-.11,1.56-.22.83-.12c.56-.09,1.12-.17,1.69-.24s.57-.21.56-.47a.43.43,0,0,0-.13-.34.57.57,0,0,0-.42-.09l-.17,0c-.81.09-1.65.19-2.45.36a9.12,9.12,0,0,1-4.32,0,10.18,10.18,0,0,0-5.31,0,9.5,9.5,0,0,1-4.85,0A13,13,0,0,0,37,38.14l-.43,0a.62.62,0,0,0-.46.09.5.5,0,0,0-.13.32C36,38.79,36.08,39,36.6,39Z"/><path d="M36.63,46.11l.3,0a16.39,16.39,0,0,1,2,.29,9.83,9.83,0,0,0,4.85,0,9.61,9.61,0,0,1,2.48-.33,10.32,10.32,0,0,1,2.55.33,14.4,14.4,0,0,0,1.62.27l.6.09.12,0,.38,0,.8-.07,2.57-.39L56,46.09c.32-.05.44-.19.42-.48a.41.41,0,0,0-.13-.31.48.48,0,0,0-.34-.08l-.49.05a15.77,15.77,0,0,0-1.95.27,9.58,9.58,0,0,1-4.79,0,9.89,9.89,0,0,0-5,0,9.74,9.74,0,0,1-4.8,0,16.34,16.34,0,0,0-1.84-.28l-.48-.05a.65.65,0,0,0-.49.09.5.5,0,0,0-.12.33C36,46,36.13,46.06,36.63,46.11Z"/><path d="M36.61,53.21c.58.06,1.16.15,1.72.24l.69.11,2.36.36.77-.12c.59-.08,1.2-.17,1.79-.31a9.14,9.14,0,0,1,4.5,0,9.61,9.61,0,0,0,3.81.29c1.26-.18,2.56-.37,3.85-.62a.68.68,0,0,0,.32-.45.29.29,0,0,0-.06-.26.34.34,0,0,0-.31-.09l-.37,0a16.53,16.53,0,0,0-2.24.3,9.48,9.48,0,0,1-4.62,0,10.15,10.15,0,0,0-5.19,0,9,9,0,0,1-3.79.18c-1-.16-2.11-.34-3.27-.5h-.14a.45.45,0,0,0-.3.09.42.42,0,0,0-.13.32C36,53.05,36.12,53.15,36.61,53.21Z"/><path d="M56.44,59.89a.45.45,0,0,0-.11-.35.6.6,0,0,0-.47-.1l-.31,0a16.81,16.81,0,0,0-2.13.31,9.22,9.22,0,0,1-4.61,0,10,10,0,0,0-5.19,0,9.25,9.25,0,0,1-4.56,0,20.09,20.09,0,0,0-2.18-.32l-.32,0a.58.58,0,0,0-.44.09.5.5,0,0,0-.12.33c0,.26.09.41.57.46a16.29,16.29,0,0,1,2.25.33,10.63,10.63,0,0,0,5.08,0,8.56,8.56,0,0,1,2.3-.31,9.81,9.81,0,0,1,2.37.3,16,16,0,0,0,1.75.3l.79.11.75-.11,1.81-.28.54-.09c.53-.08,1.09-.17,1.64-.22S56.43,60.18,56.44,59.89Z"/><path d="M151,93.94h-2.35v7h-.84v-7h-2.35v-.69H151Z"/><path d="M151.49,96.14a1.82,1.82,0,0,1,1.66-1l.29,0V96l-.26,0a1.56,1.56,0,0,0-1.69,1.47v3.53h-.84V95.34h.84Z"/><path d="M154,95.7a3.45,3.45,0,0,1,1.85-.54,1.84,1.84,0,0,1,1.88,1.17,2.8,2.8,0,0,1,.13,1v2.47a4.72,4.72,0,0,0,.12,1.18h-.84c0-.19-.09-.65-.09-.65a2.25,2.25,0,0,1-1.73.78,1.83,1.83,0,0,1-2-1.83c0-1.46,1.17-2,2.76-2,.29,0,.58,0,.9,0V97.2a1.17,1.17,0,0,0-1.28-1.33,2.53,2.53,0,0,0-1.39.45Zm1.43,4.63a1.47,1.47,0,0,0,1.6-1.46v-.93a7.94,7.94,0,0,0-.83,0c-1.18,0-2,.34-2,1.29A1.13,1.13,0,0,0,155.38,100.33Z"/><path d="M161.11,95.19a2,2,0,0,1,1.7.94V93.06h.84v7.87h-.84v-.73a2,2,0,0,1-1.7.87c-1.51,0-2.48-1.1-2.48-2.9S159.6,95.19,161.11,95.19Zm0,.68c-1.2,0-1.63,1.19-1.63,2.31s.5,2.24,1.63,2.24,1.65-1,1.68-2.16v-.21C162.78,96.58,162.1,95.87,161.13,95.87Z"/><path d="M164.76,93.06h1v1.1h-1Zm.07,2.28h.84v5.59h-.84Z"/><path d="M167.1,93.91l.82-.27v1.7h1.3V96h-1.3v3.53c0,.71.55.8,1.2.81v.7c-1.22,0-2-.27-2-1.46V96h-.78v-.69h.78Z"/><path d="M170,93.06h1v1.1h-1Zm.07,2.28h.84v5.59h-.84Z"/><path d="M174.41,95.19a3,3,0,1,1-2.6,2.94A2.67,2.67,0,0,1,174.41,95.19Zm0,5.21c1,0,1.75-.83,1.75-2.27s-.8-2.27-1.75-2.27-1.74.83-1.74,2.27S173.46,100.4,174.41,100.4Z"/><path d="M178.74,96.12a2.12,2.12,0,0,1,1.67-.92,2,2,0,0,1,2.12,2.09v3.64h-.84V97.39a1.36,1.36,0,0,0-1.33-1.51,1.66,1.66,0,0,0-1.62,1.8v3.25h-.84V95.34h.84Z"/><path d="M183.9,95.7a3.45,3.45,0,0,1,1.85-.54,1.84,1.84,0,0,1,1.88,1.17,2.8,2.8,0,0,1,.13,1v2.47a4.72,4.72,0,0,0,.12,1.18H187c0-.19-.08-.65-.08-.65a2.25,2.25,0,0,1-1.73.78,1.83,1.83,0,0,1-1.95-1.83c0-1.46,1.17-2,2.75-2,.3,0,.59,0,.91,0V97.2a1.17,1.17,0,0,0-1.28-1.33,2.53,2.53,0,0,0-1.39.45Zm1.43,4.63a1.47,1.47,0,0,0,1.6-1.46v-.93a7.94,7.94,0,0,0-.83,0c-1.18,0-2,.34-2,1.29A1.14,1.14,0,0,0,185.33,100.33Z"/><path d="M188.88,93.06h.84v7.87h-.84Z"/><path d="M195.53,95.16a1.87,1.87,0,0,1,1.69,1v-.79h.85v5.09a2.47,2.47,0,0,1-2.52,2.77,3.88,3.88,0,0,1-2-.54l.29-.64a3.52,3.52,0,0,0,1.65.47c.91,0,1.69-.62,1.69-2.08V100a1.93,1.93,0,0,1-1.7.95c-1.45,0-2.47-1.1-2.47-2.9S194.1,95.16,195.53,95.16Zm0,.71c-1.21,0-1.64,1.08-1.64,2.2s.56,2.2,1.64,2.2,1.65-.9,1.67-2.06v-.07C197.22,96.59,196.53,95.87,195.55,95.87Z"/><path d="M200.09,96.14a1.82,1.82,0,0,1,1.65-1l.3,0V96l-.27,0a1.56,1.56,0,0,0-1.68,1.47v3.53h-.84V95.34h.84Z"/><path d="M202.54,93.06h1v1.1h-1Zm.07,2.28h.84v5.59h-.84Z"/><path d="M204.63,93.06h.84v7.87h-.84Z"/><path d="M206.64,93.06h.85v7.87h-.85Z"/><path d="M212.89,100.49a2.9,2.9,0,0,1-1.78.58,2.69,2.69,0,0,1-2.74-2.85c0-1.75.94-3.06,2.5-3.06a2.48,2.48,0,0,1,2.4,2.68,3.52,3.52,0,0,1,0,.45h-4a1.9,1.9,0,0,0,1.91,2.09,2.42,2.42,0,0,0,1.41-.45Zm-.44-2.89a1.63,1.63,0,0,0-1.58-1.73,1.84,1.84,0,0,0-1.6,1.73Z"/><path d="M216.32,95.19a1.94,1.94,0,0,1,1.69.94V93.06h.84v7.87H218v-.73a2,2,0,0,1-1.69.87c-1.51,0-2.48-1.1-2.48-2.9S214.81,95.19,216.32,95.19Zm0,.68c-1.21,0-1.64,1.19-1.64,2.31s.5,2.24,1.64,2.24,1.64-1,1.67-2.16v-.21C218,96.58,217.3,95.87,216.34,95.87Z"/><path d="M155.41,108.29a2.2,2.2,0,0,0-1.17-.42c-.62,0-.94.32-.94.75s.4.76,1.27,1.18,1.47.88,1.47,1.69a1.66,1.66,0,0,1-1.86,1.6,2.58,2.58,0,0,1-1.94-.79l.45-.58a2.25,2.25,0,0,0,1.47.67c.56,0,1.05-.28,1.05-.88s-.5-.79-1.08-1.06c-.77-.35-1.63-.8-1.63-1.77a1.51,1.51,0,0,1,1.69-1.51,2.86,2.86,0,0,1,1.61.52Z"/><path d="M161.09,112.49a2.9,2.9,0,0,1-1.78.58,2.69,2.69,0,0,1-2.74-2.85c0-1.75.94-3.06,2.49-3.06a2.48,2.48,0,0,1,2.4,2.68c0,.15,0,.29,0,.45h-4a1.9,1.9,0,0,0,1.91,2.09,2.42,2.42,0,0,0,1.41-.45Zm-.44-2.89a1.64,1.64,0,0,0-1.59-1.73,1.83,1.83,0,0,0-1.59,1.73Z"/><path d="M162.56,107.7a3.48,3.48,0,0,1,1.86-.54,1.85,1.85,0,0,1,1.88,1.17,2.84,2.84,0,0,1,.12,1v2.47a4.72,4.72,0,0,0,.12,1.18h-.84c0-.19-.09-.65-.09-.65a2.23,2.23,0,0,1-1.72.78,1.83,1.83,0,0,1-1.95-1.83c0-1.46,1.16-2,2.75-2,.29,0,.59,0,.9,0v-.07a1.16,1.16,0,0,0-1.27-1.33,2.53,2.53,0,0,0-1.39.45Zm1.43,4.63a1.46,1.46,0,0,0,1.6-1.46v-.93a7.75,7.75,0,0,0-.82,0c-1.19,0-2,.34-2,1.29A1.14,1.14,0,0,0,164,112.33Z"/><path d="M169,111.77l1.16-4.43H171l1.17,4.42,1.19-4.42h.82l-1.59,5.59h-.81l-1.21-4.51-1.2,4.51h-.81l-1.59-5.59h.83Z"/><path d="M179,112.49a2.93,2.93,0,0,1-1.79.58,2.69,2.69,0,0,1-2.74-2.85c0-1.75.94-3.06,2.5-3.06a2.48,2.48,0,0,1,2.4,2.68,3.52,3.52,0,0,1,0,.45h-4a1.9,1.9,0,0,0,1.91,2.09,2.42,2.42,0,0,0,1.41-.45Zm-.44-2.89a1.64,1.64,0,0,0-1.59-1.73,1.84,1.84,0,0,0-1.6,1.73Z"/><path d="M184.44,112.49a2.93,2.93,0,0,1-1.79.58,2.69,2.69,0,0,1-2.74-2.85c0-1.75.94-3.06,2.5-3.06a2.48,2.48,0,0,1,2.4,2.68,3.52,3.52,0,0,1,0,.45h-4a1.9,1.9,0,0,0,1.91,2.09,2.42,2.42,0,0,0,1.41-.45ZM184,109.6a1.63,1.63,0,0,0-1.58-1.73,1.84,1.84,0,0,0-1.6,1.73Z"/><path d="M187.86,107.19a1.94,1.94,0,0,1,1.69.94v-3.07h.84v7.87h-.84v-.73a2,2,0,0,1-1.69.87c-1.51,0-2.48-1.1-2.48-2.9S186.35,107.19,187.86,107.19Zm0,.68c-1.21,0-1.64,1.19-1.64,2.31s.5,2.24,1.64,2.24,1.64-1,1.67-2.16v-.21C189.52,108.58,188.85,107.87,187.88,107.87Z"/><path d="M196.33,107.19a3,3,0,1,1-2.6,2.94A2.67,2.67,0,0,1,196.33,107.19Zm0,5.21c.95,0,1.75-.83,1.75-2.27s-.8-2.27-1.75-2.27-1.74.83-1.74,2.27S195.38,112.4,196.33,112.4Z"/><path d="M201.53,111.89l1.61-4.55h.9L202,112.93h-.87L199,107.34h.89Z"/><path d="M208.64,112.49a2.92,2.92,0,0,1-1.78.58,2.69,2.69,0,0,1-2.74-2.85c0-1.75.94-3.06,2.49-3.06a2.48,2.48,0,0,1,2.4,2.68,3.52,3.52,0,0,1,0,.45h-4a1.9,1.9,0,0,0,1.91,2.09,2.42,2.42,0,0,0,1.41-.45Zm-.44-2.89a1.64,1.64,0,0,0-1.59-1.73A1.83,1.83,0,0,0,205,109.6Z"/><path d="M210.72,108.14a1.82,1.82,0,0,1,1.66-1l.29,0V108l-.26,0a1.56,1.56,0,0,0-1.69,1.47v3.53h-.84v-5.59h.84Z"/><path d="M164.68,119.19a1.94,1.94,0,0,1,1.69.94v-3.07h.84v7.87h-.84v-.73a2,2,0,0,1-1.69.87c-1.51,0-2.48-1.1-2.48-2.9S163.17,119.19,164.68,119.19Zm0,.68c-1.2,0-1.63,1.19-1.63,2.31s.5,2.24,1.63,2.24,1.65-1,1.68-2.16v-.21C166.34,120.58,165.66,119.87,164.69,119.87Z"/><path d="M168.32,117.06h1v1.1h-1Zm.07,2.28h.84v5.59h-.84Z"/><path d="M171.25,120.14a1.82,1.82,0,0,1,1.66-1l.29,0V120l-.26,0a1.57,1.57,0,0,0-1.69,1.47v3.53h-.84v-5.59h.84Z"/><path d="M177.76,124.49a2.93,2.93,0,0,1-1.79.58,2.69,2.69,0,0,1-2.74-2.85c0-1.75.94-3.06,2.5-3.06a2.48,2.48,0,0,1,2.4,2.68,3.52,3.52,0,0,1,0,.45h-4a1.9,1.9,0,0,0,1.91,2.09,2.42,2.42,0,0,0,1.41-.45Zm-.44-2.89a1.64,1.64,0,0,0-1.59-1.73,1.84,1.84,0,0,0-1.6,1.73Z"/><path d="M183.34,124.39a2.64,2.64,0,0,1-1.87.68,3,3,0,0,1,0-5.91,3.44,3.44,0,0,1,1.73.49l-.34.62a2.82,2.82,0,0,0-1.39-.4,2.28,2.28,0,0,0,0,4.51,2.17,2.17,0,0,0,1.42-.52Z"/><path d="M184.27,117.91l.81-.27v1.7h1.3V120h-1.3v3.53c0,.71.56.8,1.2.81v.7c-1.22,0-2-.27-2-1.46V120h-.79v-.69h.79Z"/><path d="M189.94,119.34v-.6a3,3,0,0,1,.11-.88,1.4,1.4,0,0,1,1.42-1,3.06,3.06,0,0,1,1,.21l-.25.66a2.29,2.29,0,0,0-.69-.14.68.68,0,0,0-.69.44,1.89,1.89,0,0,0-.1.69v.63H192V120h-1.17v4.9h-.84V120h-.77v-.69Z"/><path d="M192.8,117.06h1v1.1h-1Zm.07,2.28h.84v5.59h-.84Z"/><path d="M195.73,120.14a1.82,1.82,0,0,1,1.66-1l.29,0V120l-.26,0a1.56,1.56,0,0,0-1.69,1.47v3.53h-.84v-5.59h.84Z"/><path d="M202.24,124.49a2.93,2.93,0,0,1-1.79.58,2.69,2.69,0,0,1-2.74-2.85c0-1.75.94-3.06,2.5-3.06a2.48,2.48,0,0,1,2.4,2.68,3.52,3.52,0,0,1,0,.45h-4a1.9,1.9,0,0,0,1.91,2.09,2.42,2.42,0,0,0,1.41-.45Zm-.44-2.89a1.64,1.64,0,0,0-1.59-1.73,1.84,1.84,0,0,0-1.6,1.73Z"/><path d="M201.63,41.68h0l-2.76-2.76h0l-5.52-5.52h0l-2.76-2.76h0l-5.52-5.52h0L184,24a1.87,1.87,0,0,0-2.63,0L165.9,39.47a1.86,1.86,0,0,0,0,2.62l5.3,5.31a2.61,2.61,0,0,0,.15,3.34l1.49,1.5-2.92,2.93a1.78,1.78,0,0,0-2.09.3l-6.15,6.15a1.76,1.76,0,0,0,0,2.5l.91.91a1.79,1.79,0,0,0,1.25.52,1.75,1.75,0,0,0,1.25-.52l6.15-6.15a1.76,1.76,0,0,0,.3-2.09l2.93-2.92,1.5,1.49a2.38,2.38,0,0,0,1.72.68,2.78,2.78,0,0,0,1.63-.53l5.3,5.3a1.86,1.86,0,0,0,2.62,0l15.45-15.45a1.86,1.86,0,0,0,0-2.62Zm-6.29-5.26-17,17-2.25-2.25,17-17Zm-2.76-2.76-17,17-2.25-2.25,17-17Zm-26.16,7.92a1.12,1.12,0,0,1,0-1.59l15.45-15.45a1.12,1.12,0,0,1,1.59,0l.84.84-17,17Zm1.35,1.36,17-17,2.24,2.25-17,17Zm2.76,2.76,17.05-17.05,2.24,2.25-17,17-.82-.82h0ZM170,56.15l.6.59-1.09,1.08-.59-.59Zm.75,2.22-6.14,6.14a1,1,0,0,1-.74.31,1,1,0,0,1-.73-.31l-.91-.91a1,1,0,0,1-.31-.73,1,1,0,0,1,.31-.74L168.34,56a1.07,1.07,0,0,1,.74-.31.92.92,0,0,1,.28,0L168.11,57a.37.37,0,0,0-.1.26.35.35,0,0,0,.1.26l1.11,1.11a.36.36,0,0,0,.52,0L171,57.35A1,1,0,0,1,170.72,58.37Zm.36-2.15-.59-.59,2.87-2.87.59.59Zm5.4-1.37-1.75-1.76h0l-.56-.55-2.31-2.31a1.87,1.87,0,0,1-.14-2.31L178.8,55A1.89,1.89,0,0,1,176.48,54.85Zm3.11-.09h0l-.78-.79,17-17,2.25,2.24-17,17Zm2,2,17-17,2.25,2.24L183.81,59Zm20.6-11.89L186.72,60.29a1.12,1.12,0,0,1-1.59,0l-.8-.8,17-17,.8.8A1.12,1.12,0,0,1,202.17,44.84Z"/><path d="M189.12,77.53H189a.34.34,0,0,1-.22-.43c.43-1.33-.62-2.67-1.74-4.09a10.36,10.36,0,0,1-1.77-2.81,6.92,6.92,0,0,1,.33-5.38c-1.6.6-2,2-2.42,3.25a9.36,9.36,0,0,1-.53,1.44,2.13,2.13,0,0,1-2,1.29,2.5,2.5,0,0,1-2.15-1.65,9.41,9.41,0,0,1,.48-6.7,4.82,4.82,0,0,0-3,4.62c0,2.3-.31,6.29-1.85,7.09a1.63,1.63,0,0,1-1.71-.24c-.88-.6-.78-1.4-.65-2.42a10,10,0,0,0-.07-3.6,5.82,5.82,0,0,1-2.23,2.67c-1.87,1.19-3.11,2.1-3.4,3.66a6.44,6.44,0,0,0,0,2.9.35.35,0,0,1-.26.41.34.34,0,0,1-.4-.27,7.17,7.17,0,0,1,0-3.2c.34-1.79,1.74-2.82,3.7-4.08a5,5,0,0,0,2.24-3.32.39.39,0,0,1,.34-.32.45.45,0,0,1,.4.28,10.79,10.79,0,0,1,.37,5c-.13,1-.15,1.42.35,1.76s.91.25,1,.2c.87-.45,1.44-2.94,1.49-6.49,0-2.91,1.64-4.82,4.91-5.85a.36.36,0,0,1,.44.21.37.37,0,0,1-.17.44c-2,.94-2,5.48-1.39,7a1.81,1.81,0,0,0,1.54,1.22,1.52,1.52,0,0,0,1.4-.92,7.88,7.88,0,0,0,.49-1.33c.47-1.52,1-3.4,3.66-3.93a.42.42,0,0,1,.39.17.39.39,0,0,1,0,.43,6.06,6.06,0,0,0-.65,5.44,9.79,9.79,0,0,0,1.66,2.61c1.18,1.49,2.39,3,1.85,4.72A.35.35,0,0,1,189.12,77.53Z"/></g></g></svg>