<svg xmlns="http://www.w3.org/2000/svg" viewBox="0 0 364.4 138"><defs><style>.cls-1{fill:none;stroke:#f5f5f5;stroke-miterlimit:10;stroke-width:2px;}.cls-2{fill:#231815;}</style></defs><title>자산 211</title><g id="레이어_2" data-name="레이어 2"><g id="레이어_1-2" data-name="레이어 1"><rect class="cls-1" x="1" y="1" width="110" height="136" rx="15.22"/><rect class="cls-1" x="127.2" y="1" width="110" height="136" rx="15.22"/><rect class="cls-1" x="253.4" y="1" width="110" height="136" rx="15.22"/><path d="M286.21,94.46a3.26,3.26,0,0,0-1.75-.6c-.9,0-1.43.45-1.43,1.14s.63,1.11,1.89,1.66,2,1.15,2,2.29c0,1.47-1.27,2.11-2.52,2.11a3.87,3.87,0,0,1-2.59-1l.45-.64a3.29,3.29,0,0,0,2.08.88c.73,0,1.72-.3,1.72-1.36,0-.71-.65-1.18-1.76-1.65s-2.16-1-2.16-2.26c0-1.44,1.21-1.92,2.28-1.92a4.16,4.16,0,0,1,2.15.67Z"/><path d="M288.05,93.91l.81-.27v1.7h1.3V96h-1.3v3.53c0,.71.56.8,1.21.81v.7c-1.23,0-2-.27-2-1.46V96h-.79v-.69h.79Z"/><path d="M291.87,96.14a1.82,1.82,0,0,1,1.65-1l.3,0V96l-.27,0a1.56,1.56,0,0,0-1.68,1.47v3.53H291V95.34h.84Z"/><path d="M294.32,93.06h1v1.1h-1Zm.07,2.28h.84v5.59h-.84Z"/><path d="M300.76,100.39a2.65,2.65,0,0,1-1.87.68,3,3,0,0,1,0-5.91,3.44,3.44,0,0,1,1.73.49l-.33.62a2.89,2.89,0,0,0-1.4-.4,2.28,2.28,0,0,0,0,4.51,2.21,2.21,0,0,0,1.43-.52Z"/><path d="M301.68,93.91l.81-.27v1.7h1.3V96h-1.3v3.53c0,.71.56.8,1.21.81v.7c-1.23,0-2-.27-2-1.46V96h-.78v-.69h.78Z"/><path d="M309.29,95.19a2,2,0,0,1,1.7.94v-.79h.84v7.94H311V100.2a2,2,0,0,1-1.7.87c-1.51,0-2.48-1.1-2.48-2.9S307.78,95.19,309.29,95.19Zm0,.68c-1.2,0-1.63,1.19-1.63,2.31s.5,2.24,1.63,2.24,1.65-1,1.68-2.16v-.21C311,96.58,310.28,95.87,309.31,95.87Z"/><path d="M316.75,100.15a2.11,2.11,0,0,1-1.67.92A2,2,0,0,1,313,99V95.34h.84v3.54a1.37,1.37,0,0,0,1.33,1.51,1.66,1.66,0,0,0,1.62-1.8V95.34h.84v5.59h-.84Z"/><path d="M319,95.7a3.42,3.42,0,0,1,1.85-.54,1.85,1.85,0,0,1,1.88,1.17,2.84,2.84,0,0,1,.12,1v2.47a4.72,4.72,0,0,0,.12,1.18h-.84c0-.19-.09-.65-.09-.65a2.23,2.23,0,0,1-1.72.78,1.83,1.83,0,0,1-1.95-1.83c0-1.46,1.16-2,2.75-2,.3,0,.59,0,.9,0V97.2a1.16,1.16,0,0,0-1.27-1.33,2.53,2.53,0,0,0-1.39.45Zm1.43,4.63A1.46,1.46,0,0,0,322,98.87v-.93a7.75,7.75,0,0,0-.82,0c-1.19,0-2,.34-2,1.29A1.14,1.14,0,0,0,320.44,100.33Z"/><path d="M324,93.06h.85v7.87H324Z"/><path d="M325.93,93.06h1v1.1h-1Zm.07,2.28h.84v5.59H326Z"/><path d="M328.27,93.91l.82-.27v1.7h1.3V96h-1.3v3.53c0,.71.56.8,1.2.81v.7c-1.22,0-2-.27-2-1.46V96h-.78v-.69h.78Z"/><path d="M330.75,102.59a2.31,2.31,0,0,0,1.9-1.74l-2.06-5.51h.9l1.58,4.46,1.53-4.46h.9l-1.83,5.11c-.6,1.7-1,2.48-2.65,2.85Z"/><path d="M298.15,114a2.62,2.62,0,0,1-1.87.68,3,3,0,0,1,0-5.9,3.44,3.44,0,0,1,1.73.49l-.34.62a2.82,2.82,0,0,0-1.39-.41,2.28,2.28,0,0,0,0,4.51,2.17,2.17,0,0,0,1.42-.52Z"/><path d="M301.13,108.81a3,3,0,1,1-2.6,2.93A2.66,2.66,0,0,1,301.13,108.81Zm0,5.2c1,0,1.75-.83,1.75-2.27s-.79-2.26-1.75-2.26-1.74.83-1.74,2.26S300.19,114,301.13,114Z"/><path d="M305.47,109.73a2.12,2.12,0,0,1,1.66-.91,2,2,0,0,1,2.13,2.08v3.64h-.84V111a1.37,1.37,0,0,0-1.34-1.5,1.65,1.65,0,0,0-1.61,1.79v3.25h-.85V109h.85Z"/><path d="M310.64,107.53l.81-.27V109h1.31v.69h-1.31v3.52c0,.71.56.8,1.21.81v.7c-1.22,0-2-.27-2-1.46v-3.57h-.78V109h.78Z"/><path d="M314.46,109.76a1.83,1.83,0,0,1,1.66-1l.29,0v.75l-.26,0a1.57,1.57,0,0,0-1.69,1.46v3.53h-.84V109h.84Z"/><path d="M319.05,108.81a3,3,0,1,1-2.61,2.93A2.66,2.66,0,0,1,319.05,108.81Zm0,5.2c.95,0,1.74-.83,1.74-2.27s-.79-2.26-1.74-2.26-1.74.83-1.74,2.26S318.1,114,319.05,114Z"/><path d="M322.54,106.68h.84v7.86h-.84Z"/><path d="M327,50.9h-2.36v-3.3a.37.37,0,0,0-.37-.37H310.92V44.36h4.15a.79.79,0,0,0,.79-.79V26.69a.79.79,0,0,0-.79-.8H307.8l-.12,0-.14.08L302,31.58a.3.3,0,0,0-.07.11.45.45,0,0,0,0,.13l0,.09V42.82a1.54,1.54,0,0,0,1.54,1.54h6.79v2.88H296.86a.36.36,0,0,0-.37.34v.1h0v3.23h-2.81l-.12,0-.14.08-4.17,4.18a.26.26,0,0,0-.07.1.5.5,0,0,0,0,.14l0,.09v8.15a1.25,1.25,0,0,0,1.24,1.24h8.75a.68.68,0,0,0,.68-.68V51.59a.68.68,0,0,0-.68-.69h-1.9V48h12.95v2.94h-2.57a.33.33,0,0,0-.12,0l-.14.08-4.18,4.18-.07.1c0,.07,0,.1,0,.14v8.24a1.24,1.24,0,0,0,1.24,1.24h8.74a.69.69,0,0,0,.69-.68V51.59a.69.69,0,0,0-.69-.69h-2.13V48h13v2.94h-2.37l-.1,0-.14.08-4.17,4.18a.26.26,0,0,0-.07.1.5.5,0,0,0,0,.14l0,.09v8.15a1.25,1.25,0,0,0,1.24,1.24H327a.68.68,0,0,0,.68-.68V51.59A.68.68,0,0,0,327,50.9Zm-33.66,1.26v2.92H290.4Zm5.76-.52V64.17h-8.7a.5.5,0,0,1-.5-.51V55.82h3.8a.38.38,0,0,0,.37-.37V51.64Zm8.35-24.49v4.32h-4.32Zm-.19,25v2.92h-2.92Zm5.76-.52V64.17h-8.69a.51.51,0,0,1-.51-.51V55.82h3.81a.38.38,0,0,0,.37-.37V51.64Zm-9.61-8a.83.83,0,0,1-.57-.23.79.79,0,0,1-.23-.57V32.21h5.21a.38.38,0,0,0,.37-.37V26.63h7v17Zm17.78,8.54v2.92h-2.92Zm-2.94,12a.5.5,0,0,1-.5-.51V55.82h3.8a.37.37,0,0,0,.37-.37V51.64h5V64.17Z"/><path d="M305.18,36.1h7.36a.48.48,0,0,0,0-1h-7.36a.48.48,0,0,0,0,1Z"/><path d="M305.18,38.73h7.36a.47.47,0,0,0,0-.94h-7.36a.47.47,0,0,0,0,.94Z"/><path d="M305.18,41.37h7.36a.47.47,0,0,0,.47-.47.48.48,0,0,0-.47-.48h-7.36a.48.48,0,0,0-.47.48A.47.47,0,0,0,305.18,41.37Z"/><path d="M297.51,68.89l-2.93,3.75a.22.22,0,0,1-.18.09.21.21,0,0,1-.2-.09l-1.05-1.32a.41.41,0,0,0-.3-.14.35.35,0,0,0-.23.09.37.37,0,0,0-.06.52l1.06,1.33a1,1,0,0,0,1.55,0l2.93-3.76a.4.4,0,0,0,.08-.28.41.41,0,0,0-.15-.25A.36.36,0,0,0,297.51,68.89Z"/><path d="M297.19,72.55a.38.38,0,0,0-.37.38v1.86a.23.23,0,0,1-.24.23h-4.81a.23.23,0,0,1-.24-.23V70a.24.24,0,0,1,.24-.24h3.54a.38.38,0,0,0,0-.75h-3.54a1,1,0,0,0-1,1v4.82a1,1,0,0,0,1,1h4.81a1,1,0,0,0,1-1V72.93A.38.38,0,0,0,297.19,72.55Z"/><path d="M311.43,68.89l-2.93,3.75a.2.2,0,0,1-.17.09.19.19,0,0,1-.2-.09l-1.06-1.32a.37.37,0,0,0-.29-.14.38.38,0,0,0-.24.09.39.39,0,0,0-.14.25.36.36,0,0,0,.08.27l1.06,1.33a1,1,0,0,0,.77.37,1,1,0,0,0,.79-.38L312,69.35a.36.36,0,0,0,.08-.28.35.35,0,0,0-.14-.25A.37.37,0,0,0,311.43,68.89Z"/><path d="M311.12,72.55a.38.38,0,0,0-.38.38v1.86a.23.23,0,0,1-.23.23h-4.82a.23.23,0,0,1-.24-.23V70a.24.24,0,0,1,.24-.24h3.54a.38.38,0,1,0,0-.75h-3.54a1,1,0,0,0-1,1v4.82a1,1,0,0,0,1,1h4.82a1,1,0,0,0,1-1V72.93A.38.38,0,0,0,311.12,72.55Z"/><path d="M325.36,68.89l-2.93,3.75a.22.22,0,0,1-.18.09.21.21,0,0,1-.2-.09L321,71.32a.41.41,0,0,0-.3-.14.35.35,0,0,0-.23.09.37.37,0,0,0-.06.52l1.06,1.33a1,1,0,0,0,1.55,0L326,69.35a.4.4,0,0,0,.08-.28.41.41,0,0,0-.15-.25A.36.36,0,0,0,325.36,68.89Z"/><path d="M325,72.55a.38.38,0,0,0-.37.38v1.86a.23.23,0,0,1-.24.23h-4.81a.23.23,0,0,1-.24-.23V70a.24.24,0,0,1,.24-.24h3.54a.38.38,0,0,0,0-.75h-3.54a1,1,0,0,0-1,1v4.82a1,1,0,0,0,1,1h4.81a1,1,0,0,0,1-1V72.93A.38.38,0,0,0,325,72.55Z"/><path class="cls-2" d="M38.55,100.93h-.89l-.75-2h-3.3l-.74,2H32l2.85-7.68h.88Zm-1.88-2.71-1.4-3.94-1.41,3.94Z"/><path class="cls-2" d="M41,95.19a1.94,1.94,0,0,1,1.69.94V93.06h.85v7.87H42.7v-.73a2,2,0,0,1-1.69.87c-1.51,0-2.48-1.1-2.48-2.9S39.5,95.19,41,95.19Zm0,.68c-1.21,0-1.64,1.19-1.64,2.31s.5,2.24,1.64,2.24,1.65-1,1.67-2.16v-.21C42.68,96.58,42,95.87,41,95.87Z"/><path class="cls-2" d="M46.91,95.19a1.94,1.94,0,0,1,1.69.94V93.06h.85v7.87H48.6v-.73a2,2,0,0,1-1.69.87c-1.51,0-2.48-1.1-2.48-2.9S45.4,95.19,46.91,95.19Zm0,.68c-1.21,0-1.64,1.19-1.64,2.31s.5,2.24,1.64,2.24,1.64-1,1.67-2.16v-.21C48.57,96.58,47.9,95.87,46.93,95.87Z"/><path class="cls-2" d="M50.56,93.06h1v1.1h-1Zm.06,2.28h.85v5.59h-.85Z"/><path class="cls-2" d="M52.9,93.91l.81-.27v1.7H55V96h-1.3v3.53c0,.71.56.8,1.21.81v.7c-1.23,0-2-.27-2-1.46V96h-.79v-.69h.79Z"/><path class="cls-2" d="M55.81,93.06h1v1.1h-1Zm.07,2.28h.84v5.59h-.84Z"/><path class="cls-2" d="M60.21,95.19a3,3,0,1,1-2.61,2.94A2.67,2.67,0,0,1,60.21,95.19Zm0,5.21c.95,0,1.74-.83,1.74-2.27s-.79-2.27-1.74-2.27-1.75.83-1.75,2.27S59.26,100.4,60.21,100.4Z"/><path class="cls-2" d="M64.54,96.12a2.11,2.11,0,0,1,1.67-.92,2,2,0,0,1,2.12,2.09v3.64h-.84V97.39a1.37,1.37,0,0,0-1.33-1.51,1.66,1.66,0,0,0-1.62,1.8v3.25H63.7V95.34h.84Z"/><path class="cls-2" d="M74.22,95.19a3,3,0,1,1-2.6,2.94A2.67,2.67,0,0,1,74.22,95.19Zm0,5.21c1,0,1.75-.83,1.75-2.27s-.8-2.27-1.75-2.27-1.74.83-1.74,2.27S73.27,100.4,74.22,100.4Z"/><path class="cls-2" d="M78,95.34v-.6a3.5,3.5,0,0,1,.1-.88,1.41,1.41,0,0,1,1.42-1,3,3,0,0,1,1,.21l-.24.66a2.35,2.35,0,0,0-.7-.14.67.67,0,0,0-.68.44,1.89,1.89,0,0,0-.1.69v.63H80V96H78.8v4.9H78V96h-.78v-.69Z"/><path class="cls-2" d="M32.05,114a2.65,2.65,0,0,1-1.87.68,3,3,0,0,1,0-5.91,3.43,3.43,0,0,1,1.72.49l-.33.62a2.88,2.88,0,0,0-1.39-.4,2.28,2.28,0,0,0,0,4.51,2.21,2.21,0,0,0,1.42-.52Z"/><path class="cls-2" d="M35,108.8a3,3,0,1,1-2.61,2.94A2.67,2.67,0,0,1,35,108.8ZM35,114c.95,0,1.74-.83,1.74-2.27S36,109.47,35,109.47s-1.75.83-1.75,2.27S34.08,114,35,114Z"/><path class="cls-2" d="M39.36,109.75a1.82,1.82,0,0,1,1.65-1,1.53,1.53,0,0,1,.3,0v.74l-.27,0A1.56,1.56,0,0,0,39.36,111v3.53h-.84V109h.84Z"/><path class="cls-2" d="M42.72,109.73a2.1,2.1,0,0,1,1.67-.91,2,2,0,0,1,2.12,2.08v3.64h-.84V111a1.37,1.37,0,0,0-1.33-1.51,1.66,1.66,0,0,0-1.62,1.8v3.25h-.84V109h.84Z"/><path class="cls-2" d="M52.27,108.77a1.88,1.88,0,0,1,1.7,1V109h.84V114a2.47,2.47,0,0,1-2.52,2.77,3.84,3.84,0,0,1-1.95-.54l.29-.64a3.51,3.51,0,0,0,1.64.47c.92,0,1.7-.62,1.7-2.08v-.4a1.93,1.93,0,0,1-1.7.95c-1.45,0-2.47-1.1-2.47-2.9S50.84,108.77,52.27,108.77Zm0,.71c-1.2,0-1.63,1.08-1.63,2.2s.56,2.2,1.63,2.2,1.65-.9,1.68-2.06v-.07C54,110.2,53.27,109.48,52.29,109.48Z"/><path class="cls-2" d="M60.22,114.1a2.92,2.92,0,0,1-1.78.58,2.69,2.69,0,0,1-2.74-2.85c0-1.75.94-3.06,2.49-3.06a2.48,2.48,0,0,1,2.4,2.68,3.52,3.52,0,0,1,0,.45h-4A1.9,1.9,0,0,0,58.48,114a2.42,2.42,0,0,0,1.41-.45Zm-.44-2.89a1.64,1.64,0,0,0-1.59-1.73,1.83,1.83,0,0,0-1.59,1.73Z"/><path class="cls-2" d="M62.3,109.75a1.82,1.82,0,0,1,1.66-1l.29,0v.74l-.27,0A1.56,1.56,0,0,0,62.3,111v3.53h-.84V109h.84Z"/><path class="cls-2" d="M65.65,109.57a1.7,1.7,0,0,1,1.39-.75,1.76,1.76,0,0,1,1.65,1,1.88,1.88,0,0,1,1.65-1,1.81,1.81,0,0,1,1.94,1.94v3.78h-.83v-3.82a1.14,1.14,0,0,0-1.2-1.22A1.3,1.3,0,0,0,69,111v3.57h-.83V110.8a1.18,1.18,0,0,0-1.2-1.3A1.33,1.33,0,0,0,65.65,111v3.59h-.83V109h.83Z"/><path class="cls-2" d="M78.21,108.8a3,3,0,1,1-2.61,2.94A2.67,2.67,0,0,1,78.21,108.8Zm0,5.21c1,0,1.74-.83,1.74-2.27s-.79-2.27-1.74-2.27-1.75.83-1.75,2.27S77.26,114,78.21,114Z"/><path class="cls-2" d="M81.63,106.68h1v1.09h-1Zm.06,2.27h.85v5.59h-.85Z"/><path class="cls-2" d="M83.71,106.68h.85v7.86h-.85Z"/><path d="M151,93.94h-2.35v7h-.84v-7h-2.34v-.69H151Z"/><path d="M151.49,96.14a1.82,1.82,0,0,1,1.66-1l.29,0V96l-.26,0a1.56,1.56,0,0,0-1.69,1.47v3.53h-.84V95.34h.84Z"/><path d="M154,95.7a3.45,3.45,0,0,1,1.85-.54,1.84,1.84,0,0,1,1.88,1.17,2.8,2.8,0,0,1,.13,1v2.47a4.72,4.72,0,0,0,.12,1.18h-.84c0-.19-.09-.65-.09-.65a2.25,2.25,0,0,1-1.73.78,1.83,1.83,0,0,1-2-1.83c0-1.46,1.17-2,2.76-2,.29,0,.58,0,.9,0V97.2a1.17,1.17,0,0,0-1.28-1.33,2.53,2.53,0,0,0-1.39.45Zm1.43,4.63a1.47,1.47,0,0,0,1.6-1.46v-.93a7.94,7.94,0,0,0-.83,0c-1.18,0-2,.34-2,1.29A1.13,1.13,0,0,0,155.38,100.33Z"/><path d="M161.11,95.19a2,2,0,0,1,1.7.94V93.06h.84v7.87h-.84v-.73a2,2,0,0,1-1.7.87c-1.5,0-2.48-1.1-2.48-2.9S159.61,95.19,161.11,95.19Zm0,.68c-1.2,0-1.63,1.19-1.63,2.31s.5,2.24,1.63,2.24,1.65-1,1.68-2.16v-.21C162.78,96.58,162.1,95.87,161.13,95.87Z"/><path d="M164.76,93.06h1v1.1h-1Zm.07,2.28h.84v5.59h-.84Z"/><path d="M167.1,93.91l.82-.27v1.7h1.3V96h-1.3v3.53c0,.71.55.8,1.2.81v.7c-1.22,0-2-.27-2-1.46V96h-.78v-.69h.78Z"/><path d="M170,93.06h1v1.1h-1Zm.07,2.28h.84v5.59h-.84Z"/><path d="M174.41,95.19a3,3,0,1,1-2.6,2.94A2.67,2.67,0,0,1,174.41,95.19Zm0,5.21c1,0,1.75-.83,1.75-2.27s-.8-2.27-1.75-2.27-1.74.83-1.74,2.27S173.46,100.4,174.41,100.4Z"/><path d="M178.74,96.12a2.12,2.12,0,0,1,1.67-.92,2,2,0,0,1,2.12,2.09v3.64h-.84V97.39a1.36,1.36,0,0,0-1.33-1.51,1.66,1.66,0,0,0-1.62,1.8v3.25h-.84V95.34h.84Z"/><path d="M183.9,95.7a3.45,3.45,0,0,1,1.85-.54,1.84,1.84,0,0,1,1.88,1.17,2.8,2.8,0,0,1,.13,1v2.47a4.72,4.72,0,0,0,.12,1.18H187c0-.19-.09-.65-.09-.65a2.21,2.21,0,0,1-1.72.78,1.83,1.83,0,0,1-1.95-1.83c0-1.46,1.17-2,2.75-2,.3,0,.59,0,.91,0V97.2a1.17,1.17,0,0,0-1.28-1.33,2.53,2.53,0,0,0-1.39.45Zm1.43,4.63a1.47,1.47,0,0,0,1.6-1.46v-.93a7.94,7.94,0,0,0-.83,0c-1.18,0-2,.34-2,1.29A1.14,1.14,0,0,0,185.33,100.33Z"/><path d="M188.88,93.06h.84v7.87h-.84Z"/><path d="M195.53,95.16a1.87,1.87,0,0,1,1.69,1v-.79h.85v5.09a2.47,2.47,0,0,1-2.52,2.77,3.88,3.88,0,0,1-2-.54l.29-.64a3.52,3.52,0,0,0,1.65.47c.91,0,1.69-.62,1.69-2.08V100a1.93,1.93,0,0,1-1.7.95c-1.45,0-2.47-1.1-2.47-2.9S194.1,95.16,195.53,95.16Zm0,.71c-1.21,0-1.64,1.08-1.64,2.2s.56,2.2,1.64,2.2,1.64-.9,1.67-2.06v-.07C197.22,96.59,196.53,95.87,195.55,95.87Z"/><path d="M200.09,96.14a1.82,1.82,0,0,1,1.65-1l.3,0V96l-.27,0a1.56,1.56,0,0,0-1.68,1.47v3.53h-.84V95.34h.84Z"/><path d="M202.54,93.06h1v1.1h-1Zm.07,2.28h.84v5.59h-.84Z"/><path d="M204.62,93.06h.85v7.87h-.85Z"/><path d="M206.64,93.06h.85v7.87h-.85Z"/><path d="M212.89,100.49a2.9,2.9,0,0,1-1.78.58,2.69,2.69,0,0,1-2.74-2.85c0-1.75.94-3.06,2.5-3.06a2.48,2.48,0,0,1,2.4,2.68,3.52,3.52,0,0,1,0,.45h-4a1.9,1.9,0,0,0,1.91,2.09,2.42,2.42,0,0,0,1.41-.45Zm-.44-2.89a1.63,1.63,0,0,0-1.58-1.73,1.84,1.84,0,0,0-1.6,1.73Z"/><path d="M216.32,95.19a1.94,1.94,0,0,1,1.69.94V93.06h.84v7.87H218v-.73a2,2,0,0,1-1.69.87c-1.51,0-2.48-1.1-2.48-2.9S214.81,95.19,216.32,95.19Zm0,.68c-1.21,0-1.64,1.19-1.64,2.31s.5,2.24,1.64,2.24,1.64-1,1.67-2.16v-.21C218,96.58,217.3,95.87,216.34,95.87Z"/><path d="M155.41,108.29a2.2,2.2,0,0,0-1.17-.42c-.62,0-.94.32-.94.75s.4.76,1.27,1.18,1.47.88,1.47,1.69a1.65,1.65,0,0,1-1.85,1.6,2.59,2.59,0,0,1-1.95-.79l.45-.58a2.25,2.25,0,0,0,1.47.67c.56,0,1.05-.28,1.05-.88s-.5-.79-1.08-1.06c-.77-.35-1.63-.8-1.63-1.77a1.51,1.51,0,0,1,1.69-1.51,2.86,2.86,0,0,1,1.61.52Z"/><path d="M161.09,112.49a2.9,2.9,0,0,1-1.78.58,2.69,2.69,0,0,1-2.74-2.85c0-1.75.94-3.06,2.49-3.06a2.48,2.48,0,0,1,2.4,2.68c0,.15,0,.29,0,.45h-4a1.9,1.9,0,0,0,1.91,2.09,2.42,2.42,0,0,0,1.41-.45Zm-.44-2.89a1.64,1.64,0,0,0-1.59-1.73,1.83,1.83,0,0,0-1.59,1.73Z"/><path d="M162.56,107.7a3.48,3.48,0,0,1,1.86-.54,1.85,1.85,0,0,1,1.88,1.17,3.13,3.13,0,0,1,.12,1v2.47a4.72,4.72,0,0,0,.12,1.18h-.84c0-.19-.09-.65-.09-.65a2.23,2.23,0,0,1-1.72.78,1.83,1.83,0,0,1-1.95-1.83c0-1.46,1.16-2,2.75-2,.29,0,.59,0,.9,0v-.07a1.16,1.16,0,0,0-1.27-1.33,2.53,2.53,0,0,0-1.39.45Zm1.43,4.63a1.46,1.46,0,0,0,1.6-1.46v-.93a7.75,7.75,0,0,0-.82,0c-1.19,0-2,.34-2,1.29A1.14,1.14,0,0,0,164,112.33Z"/><path d="M169,111.77l1.16-4.43H171l1.17,4.42,1.19-4.42h.82l-1.59,5.59h-.81l-1.21-4.51-1.19,4.51h-.82l-1.59-5.59h.83Z"/><path d="M179,112.49a2.92,2.92,0,0,1-1.78.58,2.7,2.7,0,0,1-2.75-2.85c0-1.75.94-3.06,2.5-3.06a2.48,2.48,0,0,1,2.4,2.68,3.52,3.52,0,0,1,0,.45h-4a1.9,1.9,0,0,0,1.91,2.09,2.42,2.42,0,0,0,1.41-.45Zm-.44-2.89a1.64,1.64,0,0,0-1.59-1.73,1.84,1.84,0,0,0-1.6,1.73Z"/><path d="M184.44,112.49a2.93,2.93,0,0,1-1.79.58,2.69,2.69,0,0,1-2.74-2.85c0-1.75.94-3.06,2.5-3.06a2.48,2.48,0,0,1,2.4,2.68,3.52,3.52,0,0,1,0,.45h-4a1.9,1.9,0,0,0,1.91,2.09,2.42,2.42,0,0,0,1.41-.45ZM184,109.6a1.63,1.63,0,0,0-1.58-1.73,1.84,1.84,0,0,0-1.6,1.73Z"/><path d="M187.86,107.19a1.94,1.94,0,0,1,1.69.94v-3.07h.84v7.87h-.84v-.73a2,2,0,0,1-1.69.87c-1.51,0-2.48-1.1-2.48-2.9S186.35,107.19,187.86,107.19Zm0,.68c-1.21,0-1.64,1.19-1.64,2.31s.5,2.24,1.64,2.24,1.64-1,1.67-2.16v-.21C189.52,108.58,188.85,107.87,187.88,107.87Z"/><path d="M196.33,107.19a3,3,0,1,1-2.6,2.94A2.67,2.67,0,0,1,196.33,107.19Zm0,5.21c.95,0,1.75-.83,1.75-2.27s-.8-2.27-1.75-2.27-1.74.83-1.74,2.27S195.38,112.4,196.33,112.4Z"/><path d="M201.53,111.89l1.61-4.55H204L202,112.93h-.87L199,107.34h.89Z"/><path d="M208.64,112.49a2.92,2.92,0,0,1-1.78.58,2.69,2.69,0,0,1-2.74-2.85c0-1.75.94-3.06,2.49-3.06a2.48,2.48,0,0,1,2.4,2.68,3.52,3.52,0,0,1,0,.45h-4a1.9,1.9,0,0,0,1.91,2.09,2.42,2.42,0,0,0,1.41-.45Zm-.44-2.89a1.64,1.64,0,0,0-1.59-1.73A1.83,1.83,0,0,0,205,109.6Z"/><path d="M210.72,108.14a1.82,1.82,0,0,1,1.66-1l.29,0V108l-.26,0a1.56,1.56,0,0,0-1.69,1.47v3.53h-.84v-5.59h.84Z"/><path d="M164.68,119.19a1.94,1.94,0,0,1,1.69.94v-3.07h.84v7.87h-.84v-.73a2,2,0,0,1-1.69.87c-1.51,0-2.48-1.1-2.48-2.9S163.17,119.19,164.68,119.19Zm0,.68c-1.2,0-1.63,1.19-1.63,2.31s.5,2.24,1.63,2.24,1.65-1,1.68-2.16v-.21C166.34,120.58,165.66,119.87,164.69,119.87Z"/><path d="M168.32,117.06h1v1.1h-1Zm.07,2.28h.84v5.59h-.84Z"/><path d="M171.25,120.14a1.82,1.82,0,0,1,1.66-1l.29,0V120l-.26,0a1.56,1.56,0,0,0-1.69,1.47v3.53h-.84v-5.59h.84Z"/><path d="M177.76,124.49a2.93,2.93,0,0,1-1.79.58,2.69,2.69,0,0,1-2.74-2.85c0-1.75.94-3.06,2.5-3.06a2.48,2.48,0,0,1,2.4,2.68,3.52,3.52,0,0,1,0,.45h-4a1.9,1.9,0,0,0,1.91,2.09,2.42,2.42,0,0,0,1.41-.45Zm-.44-2.89a1.64,1.64,0,0,0-1.59-1.73,1.84,1.84,0,0,0-1.6,1.73Z"/><path d="M183.34,124.39a2.64,2.64,0,0,1-1.87.68,3,3,0,0,1,0-5.91,3.44,3.44,0,0,1,1.73.49l-.34.62a2.82,2.82,0,0,0-1.39-.4,2.28,2.28,0,0,0,0,4.51,2.17,2.17,0,0,0,1.42-.52Z"/><path d="M184.27,117.91l.81-.27v1.7h1.3V120h-1.3v3.53c0,.71.56.8,1.2.81v.7c-1.22,0-2-.27-2-1.46V120h-.79v-.69h.79Z"/><path d="M189.94,119.34v-.6a3,3,0,0,1,.11-.88,1.4,1.4,0,0,1,1.42-1,3.06,3.06,0,0,1,1,.21l-.25.66a2.29,2.29,0,0,0-.69-.14.68.68,0,0,0-.69.44,1.89,1.89,0,0,0-.1.69v.63H192V120h-1.17v4.9h-.84V120h-.77v-.69Z"/><path d="M192.8,117.06h1v1.1h-1Zm.07,2.28h.84v5.59h-.84Z"/><path d="M195.73,120.14a1.82,1.82,0,0,1,1.66-1l.29,0V120l-.26,0a1.57,1.57,0,0,0-1.69,1.47v3.53h-.84v-5.59h.84Z"/><path d="M202.24,124.49a2.93,2.93,0,0,1-1.79.58,2.69,2.69,0,0,1-2.74-2.85c0-1.75.94-3.06,2.5-3.06a2.48,2.48,0,0,1,2.4,2.68,3.52,3.52,0,0,1,0,.45h-4a1.9,1.9,0,0,0,1.91,2.09,2.42,2.42,0,0,0,1.41-.45Zm-.44-2.89a1.64,1.64,0,0,0-1.59-1.73,1.84,1.84,0,0,0-1.6,1.73Z"/><path d="M201.63,41.68h0l-2.76-2.76h0l-5.52-5.52h0l-2.76-2.76h0l-5.52-5.52h0L184,24a1.87,1.87,0,0,0-2.63,0L165.9,39.47a1.86,1.86,0,0,0,0,2.62l5.3,5.31a2.61,2.61,0,0,0,.15,3.34l1.49,1.5-2.92,2.93a1.78,1.78,0,0,0-2.09.3l-6.15,6.15a1.76,1.76,0,0,0,0,2.5l.91.91a1.79,1.79,0,0,0,1.25.52,1.75,1.75,0,0,0,1.25-.52l6.15-6.15a1.76,1.76,0,0,0,.3-2.09l2.93-2.92,1.5,1.49a2.38,2.38,0,0,0,1.72.68,2.78,2.78,0,0,0,1.63-.53l5.3,5.3a1.86,1.86,0,0,0,2.62,0l15.45-15.45a1.86,1.86,0,0,0,0-2.62Zm-6.29-5.26-17,17-2.25-2.25,17-17Zm-2.76-2.76-17,17-2.25-2.25,17-17Zm-26.16,7.92a1.12,1.12,0,0,1,0-1.59l15.45-15.45a1.12,1.12,0,0,1,1.59,0l.84.84-17,17Zm1.35,1.36,17-17,2.24,2.25-17,17Zm2.76,2.76,17.05-17.05,2.24,2.25-17,17-.82-.82h0ZM170,56.15l.6.59-1.09,1.08-.59-.59Zm.75,2.22-6.14,6.14a1,1,0,0,1-.74.31,1,1,0,0,1-.73-.31l-.91-.91a1,1,0,0,1-.31-.73,1,1,0,0,1,.31-.74L168.34,56a1.07,1.07,0,0,1,.74-.31.92.92,0,0,1,.28,0L168.11,57a.37.37,0,0,0-.1.26.35.35,0,0,0,.1.26l1.11,1.11a.36.36,0,0,0,.52,0L171,57.35A1,1,0,0,1,170.72,58.37Zm.36-2.15-.59-.59,2.87-2.87.59.59Zm5.4-1.37-1.75-1.76h0l-.56-.55-2.31-2.31a1.87,1.87,0,0,1-.14-2.31L178.8,55A1.89,1.89,0,0,1,176.48,54.85Zm3.11-.09h0l-.78-.79,17-17,2.25,2.24-17,17Zm2,2,17-17,2.25,2.24L183.81,59Zm20.6-11.89L186.72,60.29a1.12,1.12,0,0,1-1.59,0l-.8-.8,17-17,.8.8A1.12,1.12,0,0,1,202.17,44.84Z"/><path d="M189.12,77.53H189a.34.34,0,0,1-.22-.43c.43-1.33-.62-2.67-1.74-4.09a10.36,10.36,0,0,1-1.77-2.81,6.92,6.92,0,0,1,.33-5.38c-1.6.6-2,2-2.42,3.25a9.36,9.36,0,0,1-.53,1.44,2.13,2.13,0,0,1-2,1.29,2.5,2.5,0,0,1-2.15-1.65,9.41,9.41,0,0,1,.48-6.7,4.82,4.82,0,0,0-3,4.62c0,2.3-.31,6.29-1.85,7.09a1.63,1.63,0,0,1-1.71-.24c-.88-.6-.78-1.4-.65-2.42a10,10,0,0,0-.07-3.6,5.82,5.82,0,0,1-2.23,2.67c-1.87,1.19-3.11,2.1-3.4,3.66a6.44,6.44,0,0,0,0,2.9.35.35,0,0,1-.26.41.34.34,0,0,1-.4-.27,7.17,7.17,0,0,1,0-3.2c.34-1.79,1.74-2.82,3.7-4.08a5,5,0,0,0,2.24-3.32.39.39,0,0,1,.34-.32.45.45,0,0,1,.4.28,10.79,10.79,0,0,1,.37,5c-.13,1-.15,1.42.35,1.76s.91.25,1,.2c.87-.45,1.44-2.94,1.49-6.49,0-2.91,1.64-4.82,4.91-5.85a.36.36,0,0,1,.44.21.37.37,0,0,1-.17.44c-2,.94-2,5.48-1.39,7a1.81,1.81,0,0,0,1.54,1.22,1.52,1.52,0,0,0,1.4-.92,7.88,7.88,0,0,0,.49-1.33c.47-1.52,1-3.4,3.66-3.93a.42.42,0,0,1,.39.17.39.39,0,0,1,0,.43,6.06,6.06,0,0,0-.65,5.44,9.79,9.79,0,0,0,1.66,2.61c1.18,1.49,2.39,3,1.85,4.72A.35.35,0,0,1,189.12,77.53Z"/><path d="M77.72,34.47h0a.46.46,0,0,0,0-.35.44.44,0,0,0-.3-.2c-.1,0-.42-.09-.57.43a.29.29,0,0,1,0,.09,1.3,1.3,0,0,1,0,.21l-.53,1.62L76,37.1l-2.72-.74v-.21c0-1-.77-1.59-1.55-2.25a3.41,3.41,0,0,0-2.46-1.13l-.2,0-1.11-2.35.16-.14A8.6,8.6,0,0,1,73,28.45a3.66,3.66,0,0,1,3.72,2.38.59.59,0,0,0,.31.37.4.4,0,0,0,.32,0c.27-.11.35-.37.21-.71a4.35,4.35,0,0,0-3-2.75L74,27.6l-.24-.07H72.26a.23.23,0,0,1-.13.06,10.79,10.79,0,0,0-4.77,2.05,1,1,0,0,1-.83.05,2.63,2.63,0,0,0-3,.66,3.24,3.24,0,0,0-1,1.9l0,.21-1.75.36-.11-.13a1.4,1.4,0,0,0-.86-.61,1.32,1.32,0,0,0-.93.41c-1.23,1-2.47,2.07-3.7,3.11-.54.47-1.11,1-1.68,1.51a.46.46,0,0,0-.07.64.45.45,0,0,0,.67,0l.24-.2,0,0,.12-.11.26-.22c1.3-1.12,2.59-2.24,3.9-3.35a1,1,0,0,1,.22-.16l.77-.53-.23.87c0,.07,0,.12,0,.17a80.43,80.43,0,0,0-4,14.86,33.62,33.62,0,0,1-2.56,8.54,1.5,1.5,0,0,1-.68.62L50.4,59l-.11,0c-.65.3-1.32.6-2,.92a.6.6,0,0,0-.36.34.42.42,0,0,0,.07.35c.15.25.41.28.73.09a20,20,0,0,1,12-2.53,9.35,9.35,0,0,0,5.13-1.09L66.2,57l1-.5-.46.91c0,.08-.06.13-.09.18a60.59,60.59,0,0,1-7.76,10.2,24.48,24.48,0,0,1-7.47,5.66,10.13,10.13,0,0,1-10.7-.8,1,1,0,0,1-.42-1.28A22.15,22.15,0,0,1,44.84,64c.17-.19.36-.37.54-.55s.3-.28.44-.43.26-.51.07-.7a.48.48,0,0,0-.71,0c-.14.11-.26.24-.39.36a22.1,22.1,0,0,0-4.27,5.89l-.15.27-.54,1-.13-1a.65.65,0,0,1,0-.18,22.56,22.56,0,0,1,.66-5.89A32.84,32.84,0,0,1,46.16,51a64.59,64.59,0,0,1,6-6.89.71.71,0,0,0,.24-.48.42.42,0,0,0-.14-.29c-.21-.2-.46-.17-.73.11a56.89,56.89,0,0,0-8.21,10.18c-3.34,5.43-4.81,10.72-4.5,16.16a1.09,1.09,0,0,1,0,.26l0,.11-.12.59-.38-.47a8.93,8.93,0,0,1-2-5,15.07,15.07,0,0,1,1.45-7.22,40.31,40.31,0,0,1,5.83-9.26,88.67,88.67,0,0,1,7.84-8.46c.41-.39.28-.63.15-.77a.46.46,0,0,0-.29-.15h0a.74.74,0,0,0-.47.24A79.39,79.39,0,0,0,40.36,51.55a29.57,29.57,0,0,0-4.48,8.9,11.55,11.55,0,0,0,.7,9.08.78.78,0,0,1-.14.77c-.32.34-.65.67-1,1l-.52.52a1.56,1.56,0,0,0,.12,2.5c1.2,1,2.26,1.91,3.25,2.73a1.73,1.73,0,0,0,1.33.47,1.78,1.78,0,0,0,1.19-.81l.89-1.25.57-.82.42.14.37.13a10.35,10.35,0,0,0,5.63.39,17.09,17.09,0,0,0,7-3.45,39.41,39.41,0,0,0,6.76-6.79,70.25,70.25,0,0,0,5.27-7.58c.31-.51.43-1.19-.14-1.55a1.21,1.21,0,0,1-.58-1.35l0-.15.13-.06c1.81-.89,2.57-2.06,2.4-3.68l0-.19.18-.09c1.75-.9,2.52-2,2.42-3.59v-.2l.18-.08c1.76-.75,2.54-1.93,2.38-3.61l0-.21.39-.16.21-.09a3.58,3.58,0,0,0,1.79-2.09,2.43,2.43,0,0,0-.32-2,1,1,0,0,1-.06-1C77.06,36.53,77.42,35.51,77.72,34.47ZM40.81,75.14c-.25.36-.52.73-.78,1.11a.77.77,0,0,1-.51.35h-.07a.78.78,0,0,1-.5-.21l-3.32-2.78a.8.8,0,0,1-.33-.56.66.66,0,0,1,.21-.49c.36-.37.73-.73,1.14-1.12l.59-.58,4.13,3.49ZM68.72,33.89a1.57,1.57,0,0,1,1.9.32l.47.4,0,0c.21.18.43.36.63.55a1.58,1.58,0,0,1,.45,1.88,2.3,2.3,0,0,1-1.8,1.4h-.08a1,1,0,0,1-.53-.25c-.62-.5-1.31-1.07-2-1.65a1.27,1.27,0,0,1-.31-.44.44.44,0,0,0-.06-.1l0-.09v-.1A2.42,2.42,0,0,1,68.72,33.89Zm-6.85,9.7a1.16,1.16,0,0,1-.46-1.36,2.79,2.79,0,0,1,2.07-1.83h.08l.06,0,.26.1a3,3,0,0,1,.62.32c.5.38,1,.82,1.65,1.37a1.59,1.59,0,0,1,.19,2.37,5.73,5.73,0,0,1-1.21,1,.75.75,0,0,1-.41.12,1.1,1.1,0,0,1-.72-.33A26,26,0,0,0,61.87,43.59Zm1.54,4.66a4.81,4.81,0,0,1-1.23,1,.61.61,0,0,1-.28.06,1.25,1.25,0,0,1-.72-.26c-.88-.68-1.72-1.41-2.51-2.09a1.16,1.16,0,0,1-.39-.64,2,2,0,0,1,.55-1.47A2.33,2.33,0,0,1,60.51,44h.12l.13.06a2.34,2.34,0,0,1,.63.32c.56.44,1.15.92,1.83,1.53A1.56,1.56,0,0,1,63.41,48.25Zm1.45-8.31a1.45,1.45,0,0,1-.31-.43.54.54,0,0,0-.06-.11l-.06-.09,0-.1a2.41,2.41,0,0,1,1.32-1.94,1.59,1.59,0,0,1,1.9.34l.59.5c.24.19.47.38.69.59a1.58,1.58,0,0,1,.47,1.87A2.22,2.22,0,0,1,67.63,42h-.07a1,1,0,0,1-.55-.23C66.21,41.1,65.54,40.53,64.86,39.94Zm-1.25-8.09a2.2,2.2,0,0,1,1.87-1.44,3.07,3.07,0,0,1,2.32,1.86,2,2,0,0,1-.47,1.64,1.92,1.92,0,0,1-1.43.78,1.12,1.12,0,0,1-.65-.26L64.72,34a8.29,8.29,0,0,0-.72-.61A1.18,1.18,0,0,1,63.61,31.85Zm-3.36,3.21a2.31,2.31,0,0,1,2-1.57h.13a1.21,1.21,0,0,1,.52.2l.27.2a7.49,7.49,0,0,1,1.3,1.15,1.64,1.64,0,0,1,.26,1.46,3.83,3.83,0,0,1-1.13,1.36,1.13,1.13,0,0,1-.66.23,1.22,1.22,0,0,1-.9-.46,8.66,8.66,0,0,0-1.4-1.21A1.18,1.18,0,0,1,60.25,35.06Zm-1.78,4.73c.18-.61.37-1.22.57-1.88l.41-1.35.33.29.52.44c.42.36.81.7,1.18,1.06a1.52,1.52,0,0,1,.38.87,2.48,2.48,0,0,1-1.8,2.34l-.19,0a1.49,1.49,0,0,1-1.08-.52A1.34,1.34,0,0,1,58.47,39.79ZM58,41.39l.35.5c.67.92.46,1.8-.64,2.77l-.68.6Zm-1.76,7.82v0c.08-.37.15-.75.21-1.12a.77.77,0,0,1,.31-.55.69.69,0,0,1,.57-.08,2.63,2.63,0,0,1,1,.4c.83.65,1.49,1.2,2.05,1.73a2.54,2.54,0,0,1,.5.72l.08.16,0,.06v.08a2.91,2.91,0,0,1-2,2.59h-.11a1,1,0,0,1-.6-.19c-.54-.44-1.25-1-1.91-1.65a1,1,0,0,1-.31-.86C56.08,50.05,56.17,49.62,56.25,49.21Zm.49,7.52a1.65,1.65,0,0,1-1.18.51,1.49,1.49,0,0,1-.94-.32.72.72,0,0,1-.22-.7c.31-1,.63-1.95,1-2.89l.42-1.26.32.28.45.4a11.61,11.61,0,0,1,1,.94,1.53,1.53,0,0,1,.07,2A10.8,10.8,0,0,1,56.74,56.73Zm1,.54.22-.41a1.84,1.84,0,0,1,1.39-1.08,2.37,2.37,0,0,1,1.94,1l.39.46Zm8.48-2.12a1.4,1.4,0,0,1-.82,1.21l-.05,0a4.15,4.15,0,0,1-1.71.66c-.52,0-1-.35-1.76-1-.39-.32-.8-.63-1.15-.88a1,1,0,0,1-.28-1.43,6.29,6.29,0,0,1,1.3-1.56,1.38,1.38,0,0,1,1.77.07c.65.51,1.39,1.11,2.09,1.76a2.53,2.53,0,0,1,.44.69,2.44,2.44,0,0,0,.14.28l0,.09Zm2.58-3.87A2.75,2.75,0,0,1,67,53.38h-.16a1.32,1.32,0,0,1-.76-.24c-.73-.55-1.5-1.16-2.4-1.92a1.07,1.07,0,0,1-.33-.69A2.08,2.08,0,0,1,64,49a2,2,0,0,1,1.39-.76,1.67,1.67,0,0,1,1,.31,19,19,0,0,1,1.88,1.58,1.8,1.8,0,0,1,.42.7c0,.1.09.2.13.29l0,.08Zm2.56-4a2.88,2.88,0,0,1-1.76,2.12h-.19a1.45,1.45,0,0,1-.82-.26c-.46-.32-.9-.68-1.32-1l0,0-.63-.5a1.06,1.06,0,0,1-.25-1.39,5.47,5.47,0,0,1,1.22-1.44,1.38,1.38,0,0,1,1.73.09,14.92,14.92,0,0,1,1.49,1.27,2.08,2.08,0,0,1,.41.7c0,.11.09.2.14.29l0,.08Zm2.58-3.71a2.53,2.53,0,0,1-1.77,2h-.12a1.24,1.24,0,0,1-.7-.22c-.61-.45-1.24-1-1.86-1.47a1.13,1.13,0,0,1-.2-1.48A2.36,2.36,0,0,1,70.86,41a1.89,1.89,0,0,1,1.62.61,3.61,3.61,0,0,0,.3.25,3.61,3.61,0,0,1,.57.53,3,3,0,0,1,.41.7l.15.29,0,.08Zm1.37-2.18a1.24,1.24,0,0,1-.82.35,1.4,1.4,0,0,1-.89-.37L73.1,41c-.27-.21-.53-.41-.78-.62a1.51,1.51,0,0,1-.32-.47.46.46,0,0,0,0-.1l0-.08v-.09a2.38,2.38,0,0,1,1.28-2,1.57,1.57,0,0,1,1.9.3l.07.07a1.84,1.84,0,0,0,.22.17,2,2,0,0,1,.91,1.45A2.31,2.31,0,0,1,75.31,41.41Z"/><path d="M44,70.15H43.9c-.22,0-.35.13-.39.38a.47.47,0,0,0,.06.34.46.46,0,0,0,.3.16c.33,0,.68.07,1,.09l.44,0A14.21,14.21,0,0,0,50.66,70a26,26,0,0,0,8.48-5.88c.55-.55,1.09-1.15,1.56-1.69l.4-.44c.08-.09.25-.32.06-.52a.69.69,0,0,0-.47-.22.94.94,0,0,0-.43.33,31.28,31.28,0,0,1-5.12,4.79C52.42,68.38,48.7,70.61,44,70.15Z"/><path d="M47.36,55.32c-.33.72-.6,1.5-.85,2.23a.58.58,0,0,0,0,.52.49.49,0,0,0,.38.19.52.52,0,0,0,.45-.41l.15-.43c.17-.47.33-.94.53-1.39a41.82,41.82,0,0,1,4.68-7.7.84.84,0,0,0,.21-.57.42.42,0,0,0-.17-.25.43.43,0,0,0-.26-.1c-.16,0-.32.11-.49.33A42.69,42.69,0,0,0,47.36,55.32Z"/></g></g></svg>