<svg xmlns="http://www.w3.org/2000/svg" viewBox="0 0 371.22 29.97"><defs><style>.cls-1{fill:#595757;}</style></defs><title>자산 210</title><g id="레이어_2" data-name="레이어 2"><g id="레이어_1-2" data-name="레이어 1"><path class="cls-1" d="M.87,9.37H0V.49H.87Z"/><path class="cls-1" d="M2.69,1.22,3.56,1v2H5.09v.71H3.56V7.78c0,.85.65,1,1.42,1v.73c-1.37,0-2.29-.32-2.29-1.67V3.62H1.78V2.91h.91Z"/><path class="cls-1" d="M8.8.24h1V1.43h-1Zm.08,2.67h.87V9.37H8.88Z"/><path class="cls-1" d="M14.21,3.9a2.72,2.72,0,0,0-1.34-.46c-.78,0-1.18.39-1.18.91s.49.9,1.53,1.41,1.68,1,1.68,1.9a1.87,1.87,0,0,1-2.1,1.81,3,3,0,0,1-2.22-.88L11.05,8a2.59,2.59,0,0,0,1.71.74c.71,0,1.29-.31,1.29-1s-.58-.94-1.3-1.27c-.88-.4-1.87-.9-1.87-2a1.72,1.72,0,0,1,1.93-1.71,3.22,3.22,0,0,1,1.81.58Z"/><path class="cls-1" d="M19,3.29a3.78,3.78,0,0,1,2.07-.58A2.11,2.11,0,0,1,23.22,4,3.41,3.41,0,0,1,23.4,5.1v3a5.78,5.78,0,0,0,.12,1.3h-.83a5.74,5.74,0,0,1-.17-.78,2.52,2.52,0,0,1-2.07.9A2.1,2.1,0,0,1,18.26,7.4c0-1.58,1.18-2.27,3.17-2.27.35,0,.72,0,1.11.06l0-.19A1.42,1.42,0,0,0,21,3.42a3.14,3.14,0,0,0-1.66.5Zm3.51,2.57c-.36,0-.68,0-1,0-1.61,0-2.43.49-2.43,1.52a1.4,1.4,0,0,0,1.5,1.38,1.77,1.77,0,0,0,1.91-1.63Z"/><path class="cls-1" d="M32.59,8.72a3.07,3.07,0,0,1-2.13.77,3.16,3.16,0,0,1-3.19-3.35,3.13,3.13,0,0,1,3.21-3.41,4.14,4.14,0,0,1,2,.52l-.35.63a3.47,3.47,0,0,0-1.61-.43,2.4,2.4,0,0,0-2.31,2.7,2.41,2.41,0,0,0,2.34,2.62,2.78,2.78,0,0,0,1.66-.59Z"/><path class="cls-1" d="M36,2.73a3.08,3.08,0,0,1,3,3.39c0,2.08-1.3,3.39-3,3.39S33,8.2,33,6.12,34.3,2.73,36,2.73Zm0,6.08c1.15,0,2.1-1,2.1-2.69s-1-2.69-2.1-2.69-2.1,1-2.1,2.69S34.84,8.81,36,8.81Z"/><path class="cls-1" d="M40.89,3.68a2.09,2.09,0,0,1,1.72-1A2.06,2.06,0,0,1,44.51,4a2.27,2.27,0,0,1,2-1.26A2.08,2.08,0,0,1,48.69,5V9.37h-.86V4.89a1.38,1.38,0,0,0-1.48-1.47,1.57,1.57,0,0,0-1.56,1.77V9.37h-.85V5a1.44,1.44,0,0,0-1.46-1.58,1.6,1.6,0,0,0-1.59,1.75v4.2H40V2.91h.86Z"/><path class="cls-1" d="M50.78,3.68a2.09,2.09,0,0,1,1.72-1A2.06,2.06,0,0,1,54.4,4a2.27,2.27,0,0,1,2-1.26A2.08,2.08,0,0,1,58.58,5V9.37h-.86V4.89a1.38,1.38,0,0,0-1.48-1.47,1.57,1.57,0,0,0-1.55,1.77V9.37h-.86V5a1.44,1.44,0,0,0-1.46-1.58,1.6,1.6,0,0,0-1.59,1.75v4.2h-.86V2.91h.86Z"/><path class="cls-1" d="M64.65,8.86a3.39,3.39,0,0,1-2,.64,3.09,3.09,0,0,1-3.15-3.29c0-2,1-3.46,2.89-3.46a2.79,2.79,0,0,1,2.73,3,4,4,0,0,1,0,.49H60.36a2.32,2.32,0,0,0,2.31,2.54,2.78,2.78,0,0,0,1.63-.5Zm-.39-3.33a2,2,0,0,0-1.93-2.07A2.19,2.19,0,0,0,60.4,5.53Z"/><path class="cls-1" d="M66.93,4a2.18,2.18,0,0,1,2-1.31,1.32,1.32,0,0,1,.28,0v.79l-.28,0a2,2,0,0,0-2,2v3.9h-.88V2.91h.88Z"/><path class="cls-1" d="M74.55,8.72a3.07,3.07,0,0,1-2.13.77,3.15,3.15,0,0,1-3.19-3.35,3.13,3.13,0,0,1,3.21-3.41,4.14,4.14,0,0,1,2,.52l-.35.63a3.47,3.47,0,0,0-1.61-.43,2.4,2.4,0,0,0-2.31,2.7,2.41,2.41,0,0,0,2.34,2.62,2.78,2.78,0,0,0,1.66-.59Z"/><path class="cls-1" d="M75.22.24h1V1.43h-1Zm.08,2.67h.87V9.37H75.3Z"/><path class="cls-1" d="M77.86,3.29a3.78,3.78,0,0,1,2.07-.58A2.11,2.11,0,0,1,82.05,4a3.16,3.16,0,0,1,.19,1.12v3a5.25,5.25,0,0,0,.12,1.3h-.84a6.93,6.93,0,0,1-.16-.78,2.52,2.52,0,0,1-2.07.9A2.1,2.1,0,0,1,77.1,7.4c0-1.58,1.17-2.27,3.16-2.27.36,0,.72,0,1.12.06V5a1.41,1.41,0,0,0-1.52-1.58,3.14,3.14,0,0,0-1.65.5Zm3.52,2.57c-.36,0-.68,0-1,0-1.61,0-2.42.49-2.42,1.52a1.39,1.39,0,0,0,1.49,1.38,1.78,1.78,0,0,0,1.92-1.63Z"/><path class="cls-1" d="M83.51.24h.87V9.37h-.87Z"/><path class="cls-1" d="M85.45,5.38V4.61h5.37v.77Z"/><path class="cls-1" d="M94.93,3.9a2.75,2.75,0,0,0-1.34-.46c-.78,0-1.18.39-1.18.91s.49.9,1.53,1.41,1.68,1,1.68,1.9a1.87,1.87,0,0,1-2.1,1.81,3,3,0,0,1-2.22-.88L91.77,8a2.59,2.59,0,0,0,1.71.74c.71,0,1.29-.31,1.29-1s-.58-.94-1.3-1.27c-.88-.4-1.87-.9-1.87-2a1.72,1.72,0,0,1,1.93-1.71,3.22,3.22,0,0,1,1.81.58Z"/><path class="cls-1" d="M96.42.24h1V1.43h-1Zm.08,2.67h.87V9.37H96.5Z"/><path class="cls-1" d="M98.18,8.77,102,3.62H98.42V2.91H103v.66L99.25,8.66h4v.71H98.18Z"/><path class="cls-1" d="M108.79,8.86a3.33,3.33,0,0,1-2,.64,3.09,3.09,0,0,1-3.15-3.29c0-2,1-3.46,2.89-3.46a2.79,2.79,0,0,1,2.73,3,4,4,0,0,1,0,.49h-4.71a2.32,2.32,0,0,0,2.31,2.54,2.78,2.78,0,0,0,1.63-.5Zm-.39-3.33a2,2,0,0,0-1.93-2.07,2.19,2.19,0,0,0-1.92,2.07Z"/><path class="cls-1" d="M114.78,3.91V.24h.87V9.37h-.87v-1a2.51,2.51,0,0,1-2.1,1.11c-1.67,0-2.81-1.25-2.81-3.36s1.06-3.42,2.86-3.42A2.38,2.38,0,0,1,114.78,3.91Zm-4,2.23c0,1.28.61,2.67,2,2.67s2-1.18,2-2.67V6c0-1.7-.86-2.63-2-2.63C111.38,3.41,110.77,4.8,110.77,6.14Z"/><path class="cls-1" d="M122.89,2.72c1.77,0,2.86,1.31,2.86,3.43s-1.11,3.35-2.83,3.35a2.5,2.5,0,0,1-2.08-1.11v3.72H120V2.91h.87v1A2.36,2.36,0,0,1,122.89,2.72Zm0,.69c-1.17,0-2,.93-2,2.63v.1c0,1.49.66,2.67,2,2.67s2-1.39,2-2.67S124.24,3.41,122.87,3.41Z"/><path class="cls-1" d="M127.68,4a2.21,2.21,0,0,1,2-1.31,1.32,1.32,0,0,1,.28,0v.79l-.28,0a2,2,0,0,0-2,2v3.9h-.87V2.91h.87Z"/><path class="cls-1" d="M133,2.73a3.08,3.08,0,0,1,3,3.39c0,2.08-1.29,3.39-3,3.39s-3-1.31-3-3.39S131.29,2.73,133,2.73Zm0,6.08c1.15,0,2.11-1,2.11-2.69s-1-2.69-2.11-2.69-2.09,1-2.09,2.69S131.83,8.81,133,8.81Z"/><path class="cls-1" d="M141.59,3.91V.24h.87V9.37h-.87v-1A2.51,2.51,0,0,1,139.5,9.5c-1.67,0-2.82-1.25-2.82-3.36s1.06-3.42,2.86-3.42A2.37,2.37,0,0,1,141.59,3.91Zm-4,2.23c0,1.28.61,2.67,2,2.67s2-1.18,2-2.67V6c0-1.7-.86-2.63-2-2.63C138.19,3.41,137.58,4.8,137.58,6.14Z"/><path class="cls-1" d="M148.23,8.3a2.39,2.39,0,0,1-2,1.2,2.27,2.27,0,0,1-2.42-2.41V2.91h.87V7a1.64,1.64,0,0,0,1.62,1.83,2,2,0,0,0,1.95-2.17V2.91h.88V9.37h-.88Z"/><path class="cls-1" d="M155.41,8.72a3.07,3.07,0,0,1-2.13.77,3.15,3.15,0,0,1-3.19-3.35,3.13,3.13,0,0,1,3.21-3.41,4.14,4.14,0,0,1,2,.52l-.35.63a3.47,3.47,0,0,0-1.61-.43A2.4,2.4,0,0,0,151,6.15a2.41,2.41,0,0,0,2.34,2.62A2.78,2.78,0,0,0,155,8.18Z"/><path class="cls-1" d="M156.46,1.22l.88-.27v2h1.53v.71h-1.53V7.78c0,.85.64,1,1.41,1v.73c-1.37,0-2.29-.32-2.29-1.67V3.62h-.91V2.91h.91Z"/><path class="cls-1" d="M163.51,3.68a2.09,2.09,0,0,1,1.72-1A2.06,2.06,0,0,1,167.13,4a2.27,2.27,0,0,1,2-1.26A2.08,2.08,0,0,1,171.31,5V9.37h-.86V4.89A1.38,1.38,0,0,0,169,3.42a1.57,1.57,0,0,0-1.55,1.77V9.37h-.86V5a1.44,1.44,0,0,0-1.46-1.58,1.6,1.6,0,0,0-1.59,1.75v4.2h-.86V2.91h.86Z"/><path class="cls-1" d="M172.85,3.29a3.75,3.75,0,0,1,2.07-.58A2.09,2.09,0,0,1,177,4a3.16,3.16,0,0,1,.19,1.12v3a5.25,5.25,0,0,0,.12,1.3h-.84a6.93,6.93,0,0,1-.16-.78,2.52,2.52,0,0,1-2.07.9,2.1,2.1,0,0,1-2.19-2.09c0-1.58,1.18-2.27,3.17-2.27.35,0,.71,0,1.11.06l0-.19a1.42,1.42,0,0,0-1.52-1.58,3.14,3.14,0,0,0-1.66.5Zm3.51,2.57c-.36,0-.68,0-1,0-1.62,0-2.43.49-2.43,1.52a1.4,1.4,0,0,0,1.5,1.38,1.77,1.77,0,0,0,1.91-1.63Z"/><path class="cls-1" d="M183.07,3.91V.24h.87V9.37h-.87v-1A2.51,2.51,0,0,1,181,9.5c-1.67,0-2.81-1.25-2.81-3.36s1.06-3.42,2.86-3.42A2.38,2.38,0,0,1,183.07,3.91Zm-4,2.23c0,1.28.61,2.67,2,2.67s2-1.18,2-2.67V6c0-1.7-.86-2.63-2-2.63C179.67,3.41,179.06,4.8,179.06,6.14Z"/><path class="cls-1" d="M190.16,8.86a3.39,3.39,0,0,1-2,.64A3.09,3.09,0,0,1,185,6.21c0-2,1-3.46,2.9-3.46a2.79,2.79,0,0,1,2.73,3,2.69,2.69,0,0,1,0,.49h-4.7a2.3,2.3,0,0,0,2.3,2.54,2.81,2.81,0,0,0,1.64-.5Zm-.39-3.33a2,2,0,0,0-1.93-2.07,2.21,2.21,0,0,0-1.93,2.07Z"/><path class="cls-1" d="M199.8,8.29l1.43-5.38h.83l-1.82,6.46h-.86L197.93,3.9l-1.45,5.47h-.85L193.8,2.91h.84l1.42,5.38,1.41-5.38h.92Z"/><path class="cls-1" d="M202.67.24h1V1.43h-1Zm.08,2.67h.87V9.37h-.87Z"/><path class="cls-1" d="M205.32,1.22l.87-.27v2h1.52v.71h-1.52V7.78c0,.85.64,1,1.41,1v.73c-1.37,0-2.28-.32-2.28-1.67V3.62h-.92V2.91h.92Z"/><path class="cls-1" d="M209.43,3.92a2.44,2.44,0,0,1,2-1.2,2.27,2.27,0,0,1,2.42,2.41V9.37H213V5.24a1.65,1.65,0,0,0-1.63-1.83,2.06,2.06,0,0,0-1.95,2.17V9.37h-.87V.24h.87Z"/><path class="cls-1" d="M219,3.92a2.42,2.42,0,0,1,2-1.2,2.27,2.27,0,0,1,2.42,2.41V9.37h-.87V5.24a1.64,1.64,0,0,0-1.62-1.83A2.06,2.06,0,0,0,219,5.58V9.37h-.87V.24H219Z"/><path class="cls-1" d="M224.59.24h1V1.43h-1Zm.08,2.67h.87V9.37h-.87Z"/><path class="cls-1" d="M231.51,3.91v-1h.87V8.83a2.87,2.87,0,0,1-2.93,3.2,4.63,4.63,0,0,1-2.23-.6l.32-.66a3.93,3.93,0,0,0,1.88.52c1.11,0,2.09-.75,2.09-2.49V8.32a2.43,2.43,0,0,1-2.09,1.06c-1.67,0-2.82-1.19-2.82-3.28s1.09-3.38,2.84-3.38A2.36,2.36,0,0,1,231.51,3.91Zm-4,2.17c0,1.28.62,2.61,2,2.61s2-1.12,2-2.61V6c0-1.7-.86-2.63-2-2.63C228.11,3.41,227.49,4.74,227.49,6.08Z"/><path class="cls-1" d="M234.63,3.92a2.44,2.44,0,0,1,2-1.2,2.27,2.27,0,0,1,2.42,2.41V9.37h-.87V5.24a1.65,1.65,0,0,0-1.63-1.83,2.06,2.06,0,0,0-2,2.17V9.37h-.87V.24h.87Z"/><path class="cls-1" d="M240,5.38V4.61h5.38v.77Z"/><path class="cls-1" d="M251,3.91v-1h.87v9.2H251V8.39a2.5,2.5,0,0,1-2.08,1.11c-1.72,0-2.83-1.26-2.83-3.35S247.2,2.72,249,2.72A2.35,2.35,0,0,1,251,3.91Zm-4,2.23c0,1.28.62,2.67,2,2.67s2-1.18,2-2.67V6c0-1.7-.86-2.63-2-2.63C247.62,3.41,247,4.8,247,6.14Z"/><path class="cls-1" d="M257.66,8.3a2.4,2.4,0,0,1-2,1.2,2.28,2.28,0,0,1-2.43-2.41V2.91h.87V7a1.65,1.65,0,0,0,1.63,1.83,2,2,0,0,0,2-2.17V2.91h.87V9.37h-.87Z"/><path class="cls-1" d="M260.16,3.29a3.78,3.78,0,0,1,2.07-.58A2.11,2.11,0,0,1,264.35,4a3.16,3.16,0,0,1,.19,1.12v3a5.25,5.25,0,0,0,.12,1.3h-.84a6.93,6.93,0,0,1-.16-.78,2.52,2.52,0,0,1-2.07.9A2.1,2.1,0,0,1,259.4,7.4c0-1.58,1.17-2.27,3.16-2.27.36,0,.72,0,1.12.06V5a1.41,1.41,0,0,0-1.52-1.58,3.14,3.14,0,0,0-1.65.5Zm3.52,2.57c-.36,0-.68,0-1,0-1.61,0-2.42.49-2.42,1.52a1.39,1.39,0,0,0,1.49,1.38,1.78,1.78,0,0,0,1.92-1.63Z"/><path class="cls-1" d="M265.81.24h.87V9.37h-.87Z"/><path class="cls-1" d="M268,.24h1V1.43h-1Zm.09,2.67h.87V9.37h-.87Z"/><path class="cls-1" d="M270.63,1.22,271.5,1v2H273v.71H271.5V7.78c0,.85.65,1,1.41,1v.73c-1.36,0-2.28-.32-2.28-1.67V3.62h-.92V2.91h.92Z"/><path class="cls-1" d="M273.31,11.39a2.69,2.69,0,0,0,2.19-2.07l-2.38-6.41h.93L276,8.26l1.83-5.35h.93L276.6,8.84c-.69,1.95-1.15,2.88-3,3.29Z"/><path class="cls-1" d="M283.17,4.33,287.05.49h1.21L284,4.65l4.84,4.72h-1.23L283.17,5V9.37h-.88V.49h.88Z"/><path class="cls-1" d="M291.5,2.73a3.08,3.08,0,0,1,3,3.39c0,2.08-1.29,3.39-3,3.39s-3-1.31-3-3.39S289.82,2.73,291.5,2.73Zm0,6.08c1.16,0,2.11-1,2.11-2.69s-.95-2.69-2.11-2.69-2.09,1-2.09,2.69S290.36,8.81,291.5,8.81Z"/><path class="cls-1" d="M296.42,4a2.21,2.21,0,0,1,2-1.31,1.32,1.32,0,0,1,.28,0v.79l-.28,0a2,2,0,0,0-2,2v3.9h-.87V2.91h.87Z"/><path class="cls-1" d="M303.9,8.86a3.38,3.38,0,0,1-2,.64,3.1,3.1,0,0,1-3.16-3.29c0-2,1-3.46,2.9-3.46a2.79,2.79,0,0,1,2.73,3,2.69,2.69,0,0,1,0,.49h-4.7a2.3,2.3,0,0,0,2.3,2.54,2.79,2.79,0,0,0,1.64-.5Zm-.39-3.33a2,2,0,0,0-1.93-2.07,2.21,2.21,0,0,0-1.93,2.07Z"/><path class="cls-1" d="M305.61,3.29a3.78,3.78,0,0,1,2.07-.58A2.1,2.1,0,0,1,309.8,4,3.16,3.16,0,0,1,310,5.1v3a5.25,5.25,0,0,0,.12,1.3h-.84a6.93,6.93,0,0,1-.16-.78,2.52,2.52,0,0,1-2.07.9,2.1,2.1,0,0,1-2.19-2.09c0-1.58,1.18-2.27,3.16-2.27.36,0,.72,0,1.12.06V5a1.41,1.41,0,0,0-1.51-1.58,3.14,3.14,0,0,0-1.66.5Zm3.52,2.57c-.36,0-.68,0-1,0-1.61,0-2.42.49-2.42,1.52a1.39,1.39,0,0,0,1.49,1.38,1.78,1.78,0,0,0,1.92-1.63Z"/><path class="cls-1" d="M312.13,3.92a2.4,2.4,0,0,1,2-1.2,2.28,2.28,0,0,1,2.43,2.41V9.37h-.87V5.24a1.65,1.65,0,0,0-1.63-1.83,2,2,0,0,0-1.95,2.17V9.37h-.87V2.91h.87Z"/><path class="cls-1" d="M321.08,2.91V2.16a3.32,3.32,0,0,1,.12-1A1.61,1.61,0,0,1,322.81,0,3.41,3.41,0,0,1,324,.21L323.7.9a2.41,2.41,0,0,0-.77-.16.85.85,0,0,0-.87.57,2,2,0,0,0-.11.81v.79h1.36v.71H322V9.37h-.87V3.62h-.91V2.91Z"/><path class="cls-1" d="M325.21,4a2.19,2.19,0,0,1,2-1.31,1.32,1.32,0,0,1,.28,0v.79l-.28,0a2,2,0,0,0-2,2v3.9h-.87V2.91h.87Z"/><path class="cls-1" d="M332.69,8.86a3.39,3.39,0,0,1-2,.64,3.09,3.09,0,0,1-3.15-3.29c0-2,1-3.46,2.9-3.46a2.78,2.78,0,0,1,2.72,3,4,4,0,0,1,0,.49h-4.7a2.3,2.3,0,0,0,2.3,2.54,2.84,2.84,0,0,0,1.64-.5Zm-.39-3.33a2,2,0,0,0-1.93-2.07,2.2,2.2,0,0,0-1.93,2.07Z"/><path class="cls-1" d="M337.17,3.9a2.72,2.72,0,0,0-1.34-.46c-.78,0-1.18.39-1.18.91s.49.9,1.53,1.41,1.68,1,1.68,1.9a1.87,1.87,0,0,1-2.1,1.81,3,3,0,0,1-2.22-.88L334,8a2.59,2.59,0,0,0,1.71.74c.71,0,1.29-.31,1.29-1s-.58-.94-1.3-1.27c-.88-.4-1.87-.9-1.87-2a1.72,1.72,0,0,1,1.93-1.71,3.22,3.22,0,0,1,1.81.58Z"/><path class="cls-1" d="M339.61,3.92a2.44,2.44,0,0,1,2-1.2,2.27,2.27,0,0,1,2.42,2.41V9.37h-.87V5.24a1.65,1.65,0,0,0-1.62-1.83,2.06,2.06,0,0,0-2,2.17V9.37h-.87V.24h.87Z"/><path class="cls-1" d="M348.27.24h.87V9.37h-.87Z"/><path class="cls-1" d="M350.83,3.29a3.78,3.78,0,0,1,2.07-.58A2.11,2.11,0,0,1,355,4a3.16,3.16,0,0,1,.19,1.12v3a5.25,5.25,0,0,0,.12,1.3h-.84a6.93,6.93,0,0,1-.16-.78,2.54,2.54,0,0,1-2.08.9,2.09,2.09,0,0,1-2.18-2.09c0-1.58,1.17-2.27,3.16-2.27.35,0,.72,0,1.12.06V5a1.41,1.41,0,0,0-1.52-1.58,3.2,3.2,0,0,0-1.66.5Zm3.52,2.57c-.37,0-.68,0-1,0-1.61,0-2.42.49-2.42,1.52a1.39,1.39,0,0,0,1.49,1.38,1.78,1.78,0,0,0,1.92-1.63Z"/><path class="cls-1" d="M358.49,8.38l1.94-5.47h.93L359,9.37H358l-2.4-6.46h.93Z"/><path class="cls-1" d="M366.65,8.86a3.36,3.36,0,0,1-2,.64,3.1,3.1,0,0,1-3.16-3.29c0-2,1-3.46,2.9-3.46a2.79,2.79,0,0,1,2.73,3,2.69,2.69,0,0,1,0,.49h-4.7a2.31,2.31,0,0,0,2.3,2.54,2.79,2.79,0,0,0,1.64-.5Zm-.39-3.33a2,2,0,0,0-1.93-2.07,2.21,2.21,0,0,0-1.93,2.07Z"/><path class="cls-1" d="M368.93,4a2.21,2.21,0,0,1,2-1.31,1.27,1.27,0,0,1,.28,0v.79a2.4,2.4,0,0,0-.28,0,2,2,0,0,0-2,2v3.9h-.87V2.91h.87Z"/><path class="cls-1" d="M130.72,23.29a3.78,3.78,0,0,1,2.07-.58A2.11,2.11,0,0,1,134.91,24a3.41,3.41,0,0,1,.18,1.12v3a5.78,5.78,0,0,0,.12,1.3h-.83a5.74,5.74,0,0,1-.17-.78,2.52,2.52,0,0,1-2.07.9A2.1,2.1,0,0,1,130,27.4c0-1.58,1.18-2.27,3.17-2.27.35,0,.71,0,1.11.06l0-.19a1.42,1.42,0,0,0-1.52-1.58,3.14,3.14,0,0,0-1.66.5Zm3.51,2.57c-.36,0-.68,0-1,0-1.62,0-2.43.49-2.43,1.52a1.4,1.4,0,0,0,1.5,1.38,1.77,1.77,0,0,0,1.91-1.63Z"/><path class="cls-1" d="M137.23,23.92a2.4,2.4,0,0,1,2-1.2,2.28,2.28,0,0,1,2.43,2.41v4.24h-.87V25.24a1.65,1.65,0,0,0-1.63-1.83,2,2,0,0,0-2,2.17v3.79h-.87V22.91h.87Z"/><path class="cls-1" d="M147.52,23.91V20.24h.87v9.13h-.87v-1a2.51,2.51,0,0,1-2.09,1.11c-1.67,0-2.81-1.25-2.81-3.36s1.06-3.42,2.86-3.42A2.35,2.35,0,0,1,147.52,23.91Zm-4,2.23c0,1.28.61,2.67,2,2.67s2-1.18,2-2.67V26c0-1.7-.85-2.63-2-2.63C144.12,23.41,143.51,24.8,143.51,26.14Z"/><path class="cls-1" d="M153,21.22l.87-.27v2h1.52v.71H153.9v4.16c0,.85.64,1,1.41,1v.73c-1.37,0-2.28-.32-2.28-1.67V23.62h-.92v-.71H153Z"/><path class="cls-1" d="M157.14,23.92a2.44,2.44,0,0,1,2-1.2,2.27,2.27,0,0,1,2.42,2.41v4.24h-.87V25.24a1.65,1.65,0,0,0-1.63-1.83,2.06,2.06,0,0,0-2,2.17v3.79h-.87V20.24h.87Z"/><path class="cls-1" d="M167.69,28.86a3.33,3.33,0,0,1-2,.64,3.09,3.09,0,0,1-3.15-3.29c0-2,1-3.46,2.89-3.46a2.79,2.79,0,0,1,2.73,3,4,4,0,0,1,0,.49h-4.71a2.31,2.31,0,0,0,2.3,2.54,2.79,2.79,0,0,0,1.64-.5Zm-.39-3.33a2,2,0,0,0-1.93-2.07,2.21,2.21,0,0,0-1.93,2.07Z"/><path class="cls-1" d="M172.33,22.91v-.75a3.66,3.66,0,0,1,.12-1A1.62,1.62,0,0,1,174.06,20a3.46,3.46,0,0,1,1.15.21l-.25.69a2.47,2.47,0,0,0-.78-.16.85.85,0,0,0-.87.57,2.24,2.24,0,0,0-.1.81v.79h1.36v.71h-1.36v5.75h-.88V23.62h-.9v-.71Z"/><path class="cls-1" d="M175.51,20.24h1v1.19h-1Zm.08,2.67h.87v6.46h-.87Z"/><path class="cls-1" d="M178.72,23.92a2.4,2.4,0,0,1,2-1.2,2.28,2.28,0,0,1,2.43,2.41v4.24h-.87V25.24a1.65,1.65,0,0,0-1.63-1.83,2,2,0,0,0-1.95,2.17v3.79h-.87V22.91h.87Z"/><path class="cls-1" d="M189.27,28.86a3.33,3.33,0,0,1-2,.64,3.1,3.1,0,0,1-3.16-3.29c0-2,1-3.46,2.9-3.46a2.79,2.79,0,0,1,2.73,3,2.69,2.69,0,0,1,0,.49H185a2.31,2.31,0,0,0,2.3,2.54,2.79,2.79,0,0,0,1.64-.5Zm-.39-3.33A2,2,0,0,0,187,23.46,2.21,2.21,0,0,0,185,25.53Z"/><path class="cls-1" d="M193.75,23.9a2.72,2.72,0,0,0-1.34-.46c-.78,0-1.18.39-1.18.91s.5.9,1.53,1.41,1.68,1,1.68,1.9a1.86,1.86,0,0,1-2.1,1.81,3,3,0,0,1-2.21-.88l.47-.59a2.57,2.57,0,0,0,1.7.74c.71,0,1.3-.31,1.3-1s-.59-.94-1.31-1.27c-.88-.4-1.87-.9-1.87-2a1.72,1.72,0,0,1,1.93-1.71,3.2,3.2,0,0,1,1.81.58Z"/><path class="cls-1" d="M195.63,21.22l.87-.27v2H198v.71H196.5v4.16c0,.85.65,1,1.41,1v.73c-1.36,0-2.28-.32-2.28-1.67V23.62h-.92v-.71h.92Z"/><path class="cls-1" d="M206.79,28.72a3,3,0,0,1-2.13.77,3.15,3.15,0,0,1-3.18-3.35,3.12,3.12,0,0,1,3.21-3.41,4.13,4.13,0,0,1,1.95.52l-.34.63a3.51,3.51,0,0,0-1.61-.43,2.4,2.4,0,0,0-2.32,2.7,2.42,2.42,0,0,0,2.34,2.62,2.73,2.73,0,0,0,1.66-.59Z"/><path class="cls-1" d="M210.19,22.73a3.08,3.08,0,0,1,3,3.39c0,2.08-1.29,3.39-3,3.39s-3-1.31-3-3.39S208.51,22.73,210.19,22.73Zm0,6.08c1.15,0,2.11-1,2.11-2.69s-1-2.69-2.11-2.69-2.09,1-2.09,2.69S209.05,28.81,210.19,28.81Z"/><path class="cls-1" d="M215.11,24a2.18,2.18,0,0,1,2-1.31,1.32,1.32,0,0,1,.28,0v.79l-.28,0a2,2,0,0,0-2,2v3.9h-.88V22.91h.88Z"/><path class="cls-1" d="M218.92,23.92a2.39,2.39,0,0,1,2-1.2,2.27,2.27,0,0,1,2.42,2.41v4.24h-.87V25.24a1.64,1.64,0,0,0-1.62-1.83,2,2,0,0,0-2,2.17v3.79H218V22.91h.88Z"/><path class="cls-1" d="M230.22,22.73a3.08,3.08,0,0,1,3,3.39c0,2.08-1.3,3.39-3,3.39s-3-1.31-3-3.39S228.54,22.73,230.22,22.73Zm0,6.08c1.15,0,2.1-1,2.1-2.69s-.95-2.69-2.1-2.69-2.1,1-2.1,2.69S229.08,28.81,230.22,28.81Z"/><path class="cls-1" d="M234.18,20.24h1v1.19h-1Zm.08,2.67h.87v6.46h-.87Z"/><path class="cls-1" d="M236.52,20.24h.87v9.13h-.87Z"/><path class="cls-1" d="M238.75,28.74H240V30h-1.26Z"/></g></g></svg>