<svg xmlns="http://www.w3.org/2000/svg" viewBox="0 0 339.19 30.4"><defs><style>.cls-1{fill:#595757;}</style></defs><title>자산 217</title><g id="레이어_2" data-name="레이어 2"><g id="레이어_1-2" data-name="레이어 1"><path class="cls-1" d="M.87,9.8H0V.92H.87Z"/><path class="cls-1" d="M2.69,1.65l.87-.27v2H5.09v.7H3.56V8.21c0,.86.65,1,1.42,1v.73c-1.37,0-2.29-.32-2.29-1.66V4.05H1.78v-.7h.91Z"/><path class="cls-1" d="M8.8.67h1V1.86h-1Zm.08,2.68h.87V9.8H8.88Z"/><path class="cls-1" d="M14.21,4.33a2.75,2.75,0,0,0-1.34-.46c-.78,0-1.18.39-1.18.92s.49.89,1.53,1.4,1.68,1,1.68,1.91a1.87,1.87,0,0,1-2.1,1.81A3,3,0,0,1,10.58,9l.47-.59a2.55,2.55,0,0,0,1.71.74c.71,0,1.29-.31,1.29-1.05s-.58-.94-1.3-1.27c-.88-.4-1.87-.9-1.87-2a1.72,1.72,0,0,1,1.93-1.72,3.22,3.22,0,0,1,1.81.58Z"/><path class="cls-1" d="M19,3.72a3.78,3.78,0,0,1,2.07-.58,2.11,2.11,0,0,1,2.12,1.27,3.41,3.41,0,0,1,.18,1.12v3a5.78,5.78,0,0,0,.12,1.3h-.83A5.74,5.74,0,0,1,22.52,9a2.52,2.52,0,0,1-2.07.9,2.1,2.1,0,0,1-2.19-2.09c0-1.58,1.18-2.27,3.17-2.27a11,11,0,0,1,1.11.07l0-.2A1.42,1.42,0,0,0,21,3.85a3.14,3.14,0,0,0-1.66.5ZM22.54,6.3a8.69,8.69,0,0,0-1,0c-1.62,0-2.43.49-2.43,1.52a1.4,1.4,0,0,0,1.5,1.38,1.77,1.77,0,0,0,1.91-1.63Z"/><path class="cls-1" d="M32.19,4.34v-1h.87V9.26a2.87,2.87,0,0,1-2.93,3.2,4.51,4.51,0,0,1-2.22-.6l.31-.66a3.93,3.93,0,0,0,1.89.52c1.1,0,2.08-.75,2.08-2.49V8.75a2.41,2.41,0,0,1-2.08,1.06c-1.67,0-2.83-1.19-2.83-3.27s1.1-3.39,2.84-3.39A2.36,2.36,0,0,1,32.19,4.34Zm-4,2.17c0,1.28.61,2.62,2,2.62s2-1.13,2-2.62v0c0-1.71-.86-2.64-2-2.64C28.79,3.84,28.18,5.17,28.18,6.51Z"/><path class="cls-1" d="M37.09,3.17a3.07,3.07,0,0,1,3,3.38c0,2.08-1.29,3.39-3,3.39s-3-1.31-3-3.39S35.41,3.17,37.09,3.17Zm0,6.08c1.15,0,2.11-1,2.11-2.7s-1-2.69-2.11-2.69S35,4.83,35,6.55,36,9.25,37.09,9.25Z"/><path class="cls-1" d="M45.52,8.73a2.4,2.4,0,0,1-2,1.2,2.27,2.27,0,0,1-2.42-2.41V3.35H42V7.41a1.65,1.65,0,0,0,1.62,1.84,2,2,0,0,0,2-2.17V3.35h.87V9.8h-.87Z"/><path class="cls-1" d="M48.59,4.47a2.2,2.2,0,0,1,2-1.3h.29V4L50.6,4a2,2,0,0,0-2,2V9.8h-.87V3.35h.87Z"/><path class="cls-1" d="M52.39,4.11a2.09,2.09,0,0,1,1.72-1A2.06,2.06,0,0,1,56,4.41a2.28,2.28,0,0,1,2-1.26,2.09,2.09,0,0,1,2.22,2.23V9.8h-.86V5.32a1.38,1.38,0,0,0-1.48-1.47A1.57,1.57,0,0,0,56.3,5.63V9.8h-.86V5.43A1.44,1.44,0,0,0,54,3.85,1.61,1.61,0,0,0,52.39,5.6V9.8h-.86V3.35h.86Z"/><path class="cls-1" d="M66.26,9.29a3.39,3.39,0,0,1-2,.64,3.09,3.09,0,0,1-3.15-3.29c0-2,1-3.46,2.89-3.46a2.79,2.79,0,0,1,2.73,3,4,4,0,0,1,0,.49H62a2.31,2.31,0,0,0,2.31,2.54,2.84,2.84,0,0,0,1.64-.5ZM65.87,6A2,2,0,0,0,63.94,3.9,2.18,2.18,0,0,0,62,6Z"/><path class="cls-1" d="M68,1.65l.87-.27v2h1.53v.7H68.84V8.21c0,.86.65,1,1.41,1v.73C68.89,9.93,68,9.62,68,8.28V4.05h-.92v-.7H68Z"/><path class="cls-1" d="M78.73,4.34v-1h.87V9.26a2.86,2.86,0,0,1-2.93,3.2,4.51,4.51,0,0,1-2.22-.6l.32-.66a3.93,3.93,0,0,0,1.88.52c1.11,0,2.08-.75,2.08-2.49V8.75a2.41,2.41,0,0,1-2.08,1.06c-1.67,0-2.82-1.19-2.82-3.27s1.09-3.39,2.83-3.39A2.35,2.35,0,0,1,78.73,4.34Zm-4,2.17c0,1.28.61,2.62,2,2.62s2-1.13,2-2.62v0c0-1.71-.85-2.64-2-2.64C75.33,3.84,74.72,5.17,74.72,6.51Z"/><path class="cls-1" d="M80.91.67h1V1.86h-1ZM81,3.35h.87V9.8H81Z"/><path class="cls-1" d="M84.11,4.11a2,2,0,0,1,3.62.3,2.27,2.27,0,0,1,2-1.26,2.1,2.1,0,0,1,2.23,2.23V9.8h-.86V5.32a1.38,1.38,0,0,0-1.48-1.47A1.58,1.58,0,0,0,88,5.63V9.8h-.86V5.43a1.44,1.44,0,0,0-1.46-1.58A1.61,1.61,0,0,0,84.11,5.6V9.8h-.86V3.35h.86Z"/><path class="cls-1" d="M94.61,11.88c1.17-.23,1.63-.7,1.63-1.75V3.35h.87v6.8a2.35,2.35,0,0,1-2.27,2.43ZM96.16.67h1V1.86h-1Z"/><path class="cls-1" d="M98.79,3.72a3.78,3.78,0,0,1,2.07-.58A2.1,2.1,0,0,1,103,4.41a3.16,3.16,0,0,1,.19,1.12v3a5.25,5.25,0,0,0,.12,1.3h-.84a6.93,6.93,0,0,1-.16-.78,2.52,2.52,0,0,1-2.07.9A2.1,2.1,0,0,1,98,7.83c0-1.58,1.18-2.27,3.16-2.27a11.21,11.21,0,0,1,1.12.07v-.2a1.41,1.41,0,0,0-1.51-1.58,3.14,3.14,0,0,0-1.66.5Zm3.52,2.58a8.74,8.74,0,0,0-1,0c-1.61,0-2.42.49-2.42,1.52a1.39,1.39,0,0,0,1.49,1.38,1.77,1.77,0,0,0,1.92-1.63Z"/><path class="cls-1" d="M107.36,3.15c1.8,0,2.85,1.34,2.85,3.42s-1.14,3.36-2.81,3.36a2.52,2.52,0,0,1-2.09-1.1v1h-.87V.67h.87V4.34A2.37,2.37,0,0,1,107.36,3.15Zm0,.69c-1.16,0-2,.93-2,2.64v.09c0,1.49.66,2.68,2,2.68s2-1.39,2-2.68S108.71,3.84,107.33,3.84Z"/><path class="cls-1" d="M111.58,3.72a3.78,3.78,0,0,1,2.07-.58,2.11,2.11,0,0,1,2.12,1.27A3.41,3.41,0,0,1,116,5.53v3a5.78,5.78,0,0,0,.12,1.3h-.83a5.74,5.74,0,0,1-.17-.78,2.52,2.52,0,0,1-2.07.9,2.1,2.1,0,0,1-2.19-2.09c0-1.58,1.18-2.27,3.17-2.27.35,0,.71,0,1.11.07l0-.2a1.42,1.42,0,0,0-1.52-1.58,3.14,3.14,0,0,0-1.66.5Zm3.51,2.58a8.69,8.69,0,0,0-1,0c-1.62,0-2.43.49-2.43,1.52a1.4,1.4,0,0,0,1.5,1.38,1.77,1.77,0,0,0,1.91-1.63Z"/><path class="cls-1" d="M118.09,4.35a2.41,2.41,0,0,1,2-1.2,2.28,2.28,0,0,1,2.42,2.41V9.8h-.87V5.67a1.65,1.65,0,0,0-1.62-1.83,2,2,0,0,0-2,2.17V9.8h-.87V3.35h.87Z"/><path class="cls-1" d="M128.82,11.41A10.05,10.05,0,0,1,127,5.68,10,10,0,0,1,128.82,0h.69a11.18,11.18,0,0,0-1.66,5.71,11.18,11.18,0,0,0,1.66,5.7Z"/><path class="cls-1" d="M133.69,4.33a2.75,2.75,0,0,0-1.34-.46c-.78,0-1.18.39-1.18.92s.49.89,1.53,1.4,1.68,1,1.68,1.91a1.87,1.87,0,0,1-2.11,1.81A3,3,0,0,1,130.06,9l.47-.59a2.55,2.55,0,0,0,1.71.74c.71,0,1.29-.31,1.29-1.05s-.58-.94-1.3-1.27c-.88-.4-1.87-.9-1.87-2a1.72,1.72,0,0,1,1.93-1.72,3.22,3.22,0,0,1,1.81.58Z"/><path class="cls-1" d="M140.1,9.29a3.39,3.39,0,0,1-2,.64,3.09,3.09,0,0,1-3.15-3.29c0-2,1-3.46,2.89-3.46a2.79,2.79,0,0,1,2.73,3,4,4,0,0,1,0,.49h-4.71a2.31,2.31,0,0,0,2.31,2.54,2.78,2.78,0,0,0,1.63-.5ZM139.71,6a2,2,0,0,0-1.93-2.06A2.18,2.18,0,0,0,135.85,6Z"/><path class="cls-1" d="M141.81,3.72a3.78,3.78,0,0,1,2.07-.58A2.11,2.11,0,0,1,146,4.41a3.16,3.16,0,0,1,.19,1.12v3a5.25,5.25,0,0,0,.12,1.3h-.84a6.93,6.93,0,0,1-.16-.78,2.52,2.52,0,0,1-2.08.9,2.09,2.09,0,0,1-2.18-2.09c0-1.58,1.17-2.27,3.16-2.27.35,0,.72,0,1.12.07v-.2a1.41,1.41,0,0,0-1.52-1.58,3.2,3.2,0,0,0-1.66.5Zm3.52,2.58a8.86,8.86,0,0,0-1,0c-1.61,0-2.42.49-2.42,1.52a1.39,1.39,0,0,0,1.49,1.38,1.77,1.77,0,0,0,1.92-1.63Z"/><path class="cls-1" d="M150.53,4.33a2.75,2.75,0,0,0-1.34-.46c-.78,0-1.18.39-1.18.92s.49.89,1.53,1.4,1.68,1,1.68,1.91a1.87,1.87,0,0,1-2.1,1.81A3,3,0,0,1,146.9,9l.47-.59a2.55,2.55,0,0,0,1.71.74c.71,0,1.29-.31,1.29-1.05s-.58-.94-1.3-1.27c-.88-.4-1.87-.9-1.87-2a1.72,1.72,0,0,1,1.93-1.72,3.22,3.22,0,0,1,1.81.58Z"/><path class="cls-1" d="M154.75,3.17a3.07,3.07,0,0,1,3,3.38c0,2.08-1.3,3.39-3,3.39s-3-1.31-3-3.39S153.07,3.17,154.75,3.17Zm0,6.08c1.15,0,2.1-1,2.1-2.7s-.95-2.69-2.1-2.69-2.1,1-2.1,2.69S153.61,9.25,154.75,9.25Z"/><path class="cls-1" d="M159.66,4.35a2.41,2.41,0,0,1,2-1.2,2.28,2.28,0,0,1,2.42,2.41V9.8h-.87V5.67a1.64,1.64,0,0,0-1.62-1.83,2,2,0,0,0-2,2.17V9.8h-.87V3.35h.87Z"/><path class="cls-1" d="M170.21,9.29a3.33,3.33,0,0,1-2,.64A3.08,3.08,0,0,1,165,6.64c0-2,1-3.46,2.89-3.46a2.79,2.79,0,0,1,2.73,3,4,4,0,0,1,0,.49h-4.71a2.31,2.31,0,0,0,2.31,2.54,2.78,2.78,0,0,0,1.63-.5ZM169.83,6A2,2,0,0,0,167.9,3.9,2.18,2.18,0,0,0,166,6Z"/><path class="cls-1" d="M176.2,4.34V.67h.87V9.8h-.87v-1a2.53,2.53,0,0,1-2.1,1.1c-1.67,0-2.81-1.25-2.81-3.36s1.06-3.42,2.86-3.42A2.37,2.37,0,0,1,176.2,4.34Zm-4,2.23c0,1.29.61,2.68,2,2.68s2-1.19,2-2.68V6.48c0-1.71-.86-2.64-2-2.64C172.8,3.84,172.19,5.23,172.19,6.57Z"/><path class="cls-1" d="M181.39.67h.88V9.8h-.88Z"/><path class="cls-1" d="M184,3.72A3.78,3.78,0,0,1,186,3.14a2.11,2.11,0,0,1,2.12,1.27,3.41,3.41,0,0,1,.18,1.12v3a5.78,5.78,0,0,0,.12,1.3h-.83a5.74,5.74,0,0,1-.17-.78,2.5,2.5,0,0,1-2.07.9,2.1,2.1,0,0,1-2.19-2.09c0-1.58,1.18-2.27,3.17-2.27.35,0,.72,0,1.12.07v-.2A1.41,1.41,0,0,0,186,3.85a3.14,3.14,0,0,0-1.66.5Zm3.52,2.58a9,9,0,0,0-1,0c-1.61,0-2.43.49-2.43,1.52a1.4,1.4,0,0,0,1.5,1.38,1.77,1.77,0,0,0,1.92-1.63Z"/><path class="cls-1" d="M191.61,8.81l1.95-5.46h.93l-2.4,6.45h-1l-2.4-6.45h.93Z"/><path class="cls-1" d="M199.78,9.29a3.39,3.39,0,0,1-2,.64,3.09,3.09,0,0,1-3.15-3.29c0-2,1-3.46,2.9-3.46a2.79,2.79,0,0,1,2.72,3,4,4,0,0,1,0,.49h-4.7a2.3,2.3,0,0,0,2.3,2.54,2.84,2.84,0,0,0,1.64-.5ZM199.39,6a2,2,0,0,0-1.93-2.06A2.18,2.18,0,0,0,195.53,6Z"/><path class="cls-1" d="M202.06,4.47a2.2,2.2,0,0,1,2-1.3h.28V4l-.28,0a2,2,0,0,0-2,2V9.8h-.87V3.35h.87Z"/><path class="cls-1" d="M204.75,11.41a11.18,11.18,0,0,0,1.66-5.7A11.08,11.08,0,0,0,204.75,0h.69a10,10,0,0,1,1.87,5.68,10.05,10.05,0,0,1-1.87,5.73Z"/><path class="cls-1" d="M212.68,4.35a2.4,2.4,0,0,1,2-1.2,2.28,2.28,0,0,1,2.42,2.41V9.8h-.87V5.67a1.64,1.64,0,0,0-1.62-1.83A2,2,0,0,0,212.68,6V9.8h-.87V3.35h.87Z"/><path class="cls-1" d="M221,3.17a3.07,3.07,0,0,1,3,3.38c0,2.08-1.3,3.39-3,3.39s-3-1.31-3-3.39S219.36,3.17,221,3.17Zm0,6.08c1.15,0,2.1-1,2.1-2.7s-.95-2.69-2.1-2.69-2.1,1-2.1,2.69S219.9,9.25,221,9.25Z"/><path class="cls-1" d="M225.39,1.65l.87-.27v2h1.53v.7h-1.53V8.21c0,.86.65,1,1.41,1v.73c-1.36,0-2.28-.32-2.28-1.66V4.05h-.92v-.7h.92Z"/><path class="cls-1" d="M234.22,3.17a3.07,3.07,0,0,1,3,3.38c0,2.08-1.29,3.39-3,3.39s-3-1.31-3-3.39S232.54,3.17,234.22,3.17Zm0,6.08c1.15,0,2.11-1,2.11-2.7s-1-2.69-2.11-2.69-2.09,1-2.09,2.69S233.08,9.25,234.22,9.25Z"/><path class="cls-1" d="M240.16,8.81l1.94-5.46H243l-2.4,6.45h-.94l-2.4-6.45h.93Z"/><path class="cls-1" d="M248.32,9.29a3.33,3.33,0,0,1-2,.64,3.08,3.08,0,0,1-3.15-3.29c0-2,1-3.46,2.89-3.46a2.79,2.79,0,0,1,2.73,3,4,4,0,0,1,0,.49H244a2.31,2.31,0,0,0,2.31,2.54,2.78,2.78,0,0,0,1.63-.5ZM247.93,6A2,2,0,0,0,246,3.9,2.18,2.18,0,0,0,244.08,6Z"/><path class="cls-1" d="M250.6,4.47a2.2,2.2,0,0,1,2-1.3h.29V4l-.29,0a2,2,0,0,0-2,2V9.8h-.87V3.35h.87Z"/><path class="cls-1" d="M253.54.67h.87V9.8h-.87Z"/><path class="cls-1" d="M255.23,11.83a2.67,2.67,0,0,0,2.19-2.08l-2.37-6.4H256l1.89,5.35,1.84-5.35h.92l-2.1,5.92c-.7,2-1.15,2.88-3,3.29Z"/><path class="cls-1" d="M267.18,4.33a2.72,2.72,0,0,0-1.34-.46c-.77,0-1.17.39-1.17.92s.49.89,1.53,1.4,1.68,1,1.68,1.91a1.87,1.87,0,0,1-2.11,1.81A3,3,0,0,1,263.56,9l.47-.59a2.55,2.55,0,0,0,1.71.74c.7,0,1.29-.31,1.29-1.05s-.59-.94-1.3-1.27c-.89-.4-1.88-.9-1.88-2a1.72,1.72,0,0,1,1.93-1.72,3.23,3.23,0,0,1,1.82.58Z"/><path class="cls-1" d="M269.06,3.72a3.79,3.79,0,0,1,2.08-.58,2.09,2.09,0,0,1,2.11,1.27,3.16,3.16,0,0,1,.19,1.12v3a5.25,5.25,0,0,0,.12,1.3h-.84a6.93,6.93,0,0,1-.16-.78,2.52,2.52,0,0,1-2.07.9,2.1,2.1,0,0,1-2.19-2.09c0-1.58,1.18-2.27,3.16-2.27a11.21,11.21,0,0,1,1.12.07v-.2a1.41,1.41,0,0,0-1.51-1.58,3.14,3.14,0,0,0-1.66.5Zm3.52,2.58a8.74,8.74,0,0,0-1,0c-1.61,0-2.42.49-2.42,1.52a1.4,1.4,0,0,0,1.5,1.38,1.77,1.77,0,0,0,1.91-1.63Z"/><path class="cls-1" d="M274.71.67h.87V9.8h-.87Z"/><path class="cls-1" d="M277.27,1.65l.87-.27v2h1.53v.7h-1.53V8.21c0,.86.65,1,1.42,1v.73c-1.37,0-2.29-.32-2.29-1.66V4.05h-.91v-.7h.91Z"/><path class="cls-1" d="M280,11.83a2.67,2.67,0,0,0,2.19-2.08l-2.37-6.4h.93l1.89,5.35,1.83-5.35h.93l-2.1,5.92c-.7,2-1.15,2.88-3,3.29Z"/><path class="cls-1" d="M285.89,9.17h1.26v1a2.33,2.33,0,0,1-.07.66,2.6,2.6,0,0,1-1,1.42l-.26-.25a2.16,2.16,0,0,0,.77-1.64h-.67Z"/><path class="cls-1" d="M290.84,11.83A2.67,2.67,0,0,0,293,9.75l-2.38-6.4h.93l1.9,5.35,1.83-5.35h.93l-2.1,5.92c-.7,2-1.16,2.88-3,3.29Z"/><path class="cls-1" d="M301.5,9.29a3.36,3.36,0,0,1-2,.64,3.09,3.09,0,0,1-3.16-3.29c0-2,1-3.46,2.9-3.46a2.8,2.8,0,0,1,2.73,3,2.69,2.69,0,0,1,0,.49h-4.7a2.3,2.3,0,0,0,2.3,2.54,2.79,2.79,0,0,0,1.64-.5ZM301.11,6a2,2,0,0,0-1.93-2.06A2.2,2.2,0,0,0,297.25,6Z"/><path class="cls-1" d="M303.22,1.65l.87-.27v2h1.53v.7h-1.53V8.21c0,.86.64,1,1.41,1v.73c-1.37,0-2.28-.32-2.28-1.66V4.05h-.92v-.7h.92Z"/><path class="cls-1" d="M314.38,9.15a3.07,3.07,0,0,1-2.13.77,3.15,3.15,0,0,1-3.19-3.35,3.12,3.12,0,0,1,3.21-3.4,4.09,4.09,0,0,1,2,.51l-.34.64a3.36,3.36,0,0,0-1.61-.43A2.4,2.4,0,0,0,310,6.58a2.42,2.42,0,0,0,2.34,2.62A2.73,2.73,0,0,0,314,8.61Z"/><path class="cls-1" d="M316,4.47a2.2,2.2,0,0,1,2-1.3h.28V4L318,4a2,2,0,0,0-2,2V9.8h-.87V3.35H316Z"/><path class="cls-1" d="M318.86.67h1V1.86h-1Zm.08,2.68h.87V9.8h-.87Z"/><path class="cls-1" d="M324.27,4.33a2.76,2.76,0,0,0-1.35-.46c-.77,0-1.17.39-1.17.92s.49.89,1.53,1.4S325,7.18,325,8.1a1.87,1.87,0,0,1-2.11,1.81A3,3,0,0,1,320.64,9l.47-.59a2.55,2.55,0,0,0,1.71.74c.7,0,1.29-.31,1.29-1.05s-.59-.94-1.3-1.27c-.89-.4-1.87-.9-1.87-2a1.72,1.72,0,0,1,1.93-1.72,3.22,3.22,0,0,1,1.81.58Z"/><path class="cls-1" d="M328.76,3.15c1.76,0,2.86,1.31,2.86,3.43s-1.11,3.35-2.84,3.35a2.51,2.51,0,0,1-2.07-1.1v3.71h-.87V3.35h.87v1A2.35,2.35,0,0,1,328.76,3.15Zm0,.69c-1.16,0-2,.93-2,2.64v.09c0,1.49.66,2.68,2,2.68s2-1.39,2-2.68S330.11,3.84,328.73,3.84Z"/><path class="cls-1" d="M332,11.83a2.68,2.68,0,0,0,2.19-2.08l-2.38-6.4h.93l1.9,5.35,1.83-5.35h.93l-2.1,5.92c-.7,2-1.16,2.88-3,3.29Z"/><path class="cls-1" d="M337.93,9.17h1.26v1a2.33,2.33,0,0,1-.07.66,2.56,2.56,0,0,1-1,1.42l-.26-.25a2.13,2.13,0,0,0,.78-1.64h-.67Z"/><path class="cls-1" d="M100.18,28.72l1.43-5.37h.83l-1.82,6.45h-.86l-1.45-5.47L96.87,29.8H96l-1.83-6.45H95l1.42,5.37,1.41-5.37h.92Z"/><path class="cls-1" d="M103.05,20.67h1v1.19h-1Zm.08,2.68H104V29.8h-.87Z"/><path class="cls-1" d="M105.7,21.65l.87-.27v2h1.53v.7h-1.53v4.16c0,.86.64,1,1.41,1v.73c-1.37,0-2.28-.32-2.28-1.66V24.05h-.92v-.7h.92Z"/><path class="cls-1" d="M109.81,24.35a2.48,2.48,0,0,1,2-1.2,2.28,2.28,0,0,1,2.42,2.41V29.8h-.87V25.67a1.64,1.64,0,0,0-1.62-1.83,2.06,2.06,0,0,0-2,2.17V29.8h-.87V20.67h.87Z"/><path class="cls-1" d="M118.77,23.72a3.78,3.78,0,0,1,2.07-.58A2.1,2.1,0,0,1,123,24.41a3.16,3.16,0,0,1,.19,1.12v3a5.25,5.25,0,0,0,.12,1.3h-.84a6.93,6.93,0,0,1-.16-.78,2.52,2.52,0,0,1-2.07.9A2.1,2.1,0,0,1,118,27.83c0-1.58,1.18-2.27,3.16-2.27a11.21,11.21,0,0,1,1.12.07v-.2a1.41,1.41,0,0,0-1.51-1.58,3.14,3.14,0,0,0-1.66.5Zm3.52,2.58a8.74,8.74,0,0,0-1-.05c-1.61,0-2.42.49-2.42,1.52a1.39,1.39,0,0,0,1.49,1.38,1.77,1.77,0,0,0,1.92-1.63Z"/><path class="cls-1" d="M125.29,24.35a2.4,2.4,0,0,1,2-1.2,2.28,2.28,0,0,1,2.43,2.41V29.8h-.87V25.67a1.65,1.65,0,0,0-1.63-1.83A2,2,0,0,0,125.29,26V29.8h-.87V23.35h.87Z"/><path class="cls-1" d="M136,29.15a3.07,3.07,0,0,1-2.13.77,3.16,3.16,0,0,1-3.19-3.35,3.12,3.12,0,0,1,3.21-3.4,4.13,4.13,0,0,1,2,.51l-.34.64a3.43,3.43,0,0,0-1.62-.43,2.39,2.39,0,0,0-2.31,2.69,2.41,2.41,0,0,0,2.34,2.62,2.73,2.73,0,0,0,1.66-.59Z"/><path class="cls-1" d="M137.6,24.35a2.46,2.46,0,0,1,2-1.2,2.28,2.28,0,0,1,2.42,2.41V29.8h-.87V25.67a1.65,1.65,0,0,0-1.63-1.83,2.06,2.06,0,0,0-2,2.17V29.8h-.87V20.67h.87Z"/><path class="cls-1" d="M146,23.17a3.07,3.07,0,0,1,3,3.38c0,2.08-1.29,3.39-3,3.39s-3-1.31-3-3.39S144.28,23.17,146,23.17Zm0,6.08c1.16,0,2.11-1,2.11-2.7s-.95-2.69-2.11-2.69-2.09,1-2.09,2.69S144.82,29.25,146,29.25Z"/><path class="cls-1" d="M151.9,28.81l1.94-5.46h.93l-2.4,6.45h-.94L149,23.35H150Z"/><path class="cls-1" d="M155.26,20.67h1v1.19h-1Zm.09,2.68h.87V29.8h-.87Z"/><path class="cls-1" d="M162.44,29.29a3.36,3.36,0,0,1-2,.64,3.09,3.09,0,0,1-3.16-3.29c0-2,1-3.46,2.9-3.46a2.8,2.8,0,0,1,2.73,3,2.69,2.69,0,0,1,0,.49h-4.7a2.3,2.3,0,0,0,2.3,2.54,2.79,2.79,0,0,0,1.64-.5ZM162.05,26a2,2,0,0,0-1.93-2.06A2.2,2.2,0,0,0,158.19,26Z"/><path class="cls-1" d="M166.92,24.33a2.72,2.72,0,0,0-1.34-.46c-.78,0-1.18.39-1.18.92s.5.89,1.53,1.4,1.68,1,1.68,1.91a1.87,1.87,0,0,1-2.1,1.81A3,3,0,0,1,163.3,29l.47-.59a2.52,2.52,0,0,0,1.7.74c.71,0,1.3-.31,1.3-1.05s-.59-.94-1.31-1.27c-.88-.4-1.87-.9-1.87-2a1.72,1.72,0,0,1,1.93-1.72,3.2,3.2,0,0,1,1.81.58Z"/><path class="cls-1" d="M172.31,24.47a2.18,2.18,0,0,1,2-1.3h.28V24l-.28,0a2,2,0,0,0-2,1.95v3.9h-.88V23.35h.88Z"/><path class="cls-1" d="M175.16,20.67h1v1.19h-1Zm.08,2.68h.88V29.8h-.88Z"/><path class="cls-1" d="M182.48,29.15a3.07,3.07,0,0,1-2.13.77,3.16,3.16,0,0,1-3.19-3.35,3.12,3.12,0,0,1,3.21-3.4,4.13,4.13,0,0,1,2,.51l-.35.64a3.36,3.36,0,0,0-1.61-.43,2.39,2.39,0,0,0-2.31,2.69,2.41,2.41,0,0,0,2.34,2.62,2.78,2.78,0,0,0,1.66-.59Z"/><path class="cls-1" d="M184.1,24.35a2.45,2.45,0,0,1,2-1.2,2.28,2.28,0,0,1,2.43,2.41V29.8h-.87V25.67a1.65,1.65,0,0,0-1.63-1.83,2.06,2.06,0,0,0-2,2.17V29.8h-.87V20.67h.87Z"/><path class="cls-1" d="M192.67,20.67h1v1.19h-1Zm.08,2.68h.88V29.8h-.88Z"/><path class="cls-1" d="M195.88,24.35a2.41,2.41,0,0,1,2-1.2,2.28,2.28,0,0,1,2.42,2.41V29.8h-.87V25.67a1.64,1.64,0,0,0-1.62-1.83,2,2,0,0,0-2,2.17V29.8H195V23.35h.87Z"/><path class="cls-1" d="M209.51,29.15a3,3,0,0,1-2.12.77,3.15,3.15,0,0,1-3.19-3.35,3.12,3.12,0,0,1,3.21-3.4,4.09,4.09,0,0,1,2,.51l-.34.64a3.39,3.39,0,0,0-1.61-.43,2.39,2.39,0,0,0-2.32,2.69,2.42,2.42,0,0,0,2.34,2.62,2.73,2.73,0,0,0,1.66-.59Z"/><path class="cls-1" d="M210.57,23.72a3.78,3.78,0,0,1,2.07-.58,2.11,2.11,0,0,1,2.12,1.27,3.16,3.16,0,0,1,.19,1.12v3a5.25,5.25,0,0,0,.12,1.3h-.84a6.93,6.93,0,0,1-.16-.78,2.52,2.52,0,0,1-2.08.9,2.09,2.09,0,0,1-2.18-2.09c0-1.58,1.17-2.27,3.16-2.27.35,0,.72,0,1.12.07v-.2a1.41,1.41,0,0,0-1.52-1.58,3.2,3.2,0,0,0-1.66.5Zm3.52,2.58a8.86,8.86,0,0,0-1-.05c-1.61,0-2.42.49-2.42,1.52a1.39,1.39,0,0,0,1.49,1.38,1.77,1.77,0,0,0,1.92-1.63Z"/><path class="cls-1" d="M216.22,20.67h.87V29.8h-.87Z"/><path class="cls-1" d="M223.45,29.15a3.07,3.07,0,0,1-2.13.77,3.16,3.16,0,0,1-3.19-3.35,3.12,3.12,0,0,1,3.21-3.4,4.13,4.13,0,0,1,2,.51l-.34.64a3.43,3.43,0,0,0-1.62-.43A2.39,2.39,0,0,0,219,26.58a2.41,2.41,0,0,0,2.34,2.62,2.73,2.73,0,0,0,1.66-.59Z"/><path class="cls-1" d="M224.12,20.67h1v1.19h-1Zm.08,2.68h.87V29.8h-.87Z"/><path class="cls-1" d="M230.85,28.73a2.41,2.41,0,0,1-2,1.2,2.27,2.27,0,0,1-2.42-2.41V23.35h.87v4.06a1.65,1.65,0,0,0,1.62,1.84,2.05,2.05,0,0,0,2-2.17V23.35h.87V29.8h-.87Z"/><path class="cls-1" d="M233.9,24.11a2.05,2.05,0,0,1,3.63.3,2.26,2.26,0,0,1,1.95-1.26,2.09,2.09,0,0,1,2.22,2.23V29.8h-.86V25.32a1.38,1.38,0,0,0-1.48-1.47,1.58,1.58,0,0,0-1.55,1.78V29.8H237V25.43a1.44,1.44,0,0,0-1.46-1.58,1.61,1.61,0,0,0-1.59,1.75v4.2H233V23.35h.86Z"/><path class="cls-1" d="M242.91,29.17h1.26V30.4h-1.26Z"/></g></g></svg>