<svg xmlns="http://www.w3.org/2000/svg" viewBox="0 0 285.79 11.88"><defs><style>.cls-1{fill:#595757;}</style></defs><title>자산 220</title><g id="레이어_2" data-name="레이어 2"><g id="레이어_1-2" data-name="레이어 1"><path class="cls-1" d="M6.34,1H3.6V9.13H2.73V1H0V.25H6.34Z"/><path class="cls-1" d="M7.5,3.68a2.44,2.44,0,0,1,2-1.2A2.27,2.27,0,0,1,12,4.89V9.13h-.87V5A1.65,1.65,0,0,0,9.46,3.17a2.06,2.06,0,0,0-2,2.17V9.13H6.63V0H7.5Z"/><path class="cls-1" d="M13.14,0h1V1.19h-1Zm.08,2.67h.87V9.13h-.87Z"/><path class="cls-1" d="M18.55,3.66a2.75,2.75,0,0,0-1.34-.46c-.78,0-1.18.39-1.18.91s.49.9,1.53,1.41,1.68,1,1.68,1.9a1.87,1.87,0,0,1-2.11,1.81,3,3,0,0,1-2.21-.88l.47-.59a2.59,2.59,0,0,0,1.71.74c.71,0,1.29-.31,1.29-1s-.58-.94-1.3-1.27c-.88-.4-1.87-.9-1.87-2a1.72,1.72,0,0,1,1.93-1.72A3.22,3.22,0,0,1,19,3.05Z"/><path class="cls-1" d="M23.93,3.68a2.41,2.41,0,0,1,2-1.2,2.27,2.27,0,0,1,2.42,2.41V9.13h-.87V5a1.65,1.65,0,0,0-1.63-1.83,2,2,0,0,0-1.95,2.17V9.13h-.87V2.67h.87Z"/><path class="cls-1" d="M32.29,2.49a3.08,3.08,0,0,1,3,3.39c0,2.08-1.29,3.39-3,3.39s-3-1.31-3-3.39S30.61,2.49,32.29,2.49Zm0,6.08c1.16,0,2.11-1,2.11-2.69s-.95-2.69-2.11-2.69-2.09,1-2.09,2.69S31.15,8.57,32.29,8.57Z"/><path class="cls-1" d="M36.64,1l.87-.27v2H39v.71H37.51V7.54c0,.85.65,1,1.42,1v.73c-1.37,0-2.29-.32-2.29-1.67V3.38h-.91V2.67h.91Z"/><path class="cls-1" d="M45.9,3.66a2.72,2.72,0,0,0-1.34-.46c-.78,0-1.18.39-1.18.91s.5.9,1.53,1.41,1.68,1,1.68,1.9a1.87,1.87,0,0,1-2.1,1.81,3,3,0,0,1-2.21-.88l.47-.59a2.57,2.57,0,0,0,1.7.74c.71,0,1.3-.31,1.3-1s-.59-.94-1.31-1.27c-.88-.4-1.87-.9-1.87-2A1.72,1.72,0,0,1,44.5,2.47a3.2,3.2,0,0,1,1.81.58Z"/><path class="cls-1" d="M47.78,3.05a3.78,3.78,0,0,1,2.07-.58A2.11,2.11,0,0,1,52,3.74a3.16,3.16,0,0,1,.19,1.12v3a5.76,5.76,0,0,0,.11,1.3h-.83a5.74,5.74,0,0,1-.17-.78,2.5,2.5,0,0,1-2.07.9A2.09,2.09,0,0,1,47,7.16c0-1.58,1.17-2.27,3.16-2.27.35,0,.72,0,1.12.06V4.76a1.41,1.41,0,0,0-1.52-1.58,3.2,3.2,0,0,0-1.66.5ZM51.3,5.63a8.86,8.86,0,0,0-1,0c-1.61,0-2.42.49-2.42,1.52a1.39,1.39,0,0,0,1.49,1.38A1.77,1.77,0,0,0,51.3,6.85Z"/><path class="cls-1" d="M53.42,0h.88V9.13h-.88Z"/><path class="cls-1" d="M56,1l.87-.27v2h1.53v.71H56.86V7.54c0,.85.65,1,1.41,1v.73C56.91,9.26,56,9,56,7.6V3.38h-.92V2.67H56Z"/><path class="cls-1" d="M58.67,11.15a2.69,2.69,0,0,0,2.19-2.07L58.48,2.67h.93L61.3,8l1.84-5.35h.93L62,8.6c-.69,2-1.15,2.88-3,3.28Z"/><path class="cls-1" d="M70.47,2.48c1.8,0,2.85,1.33,2.85,3.42s-1.14,3.36-2.81,3.36a2.51,2.51,0,0,1-2.09-1.11v1h-.87V0h.87V3.67A2.37,2.37,0,0,1,70.47,2.48Zm0,.69c-1.16,0-2,.93-2,2.63v.1c0,1.49.66,2.67,2,2.67s2-1.39,2-2.67S71.82,3.17,70.44,3.17Z"/><path class="cls-1" d="M78.77,8.06a2.4,2.4,0,0,1-2,1.2,2.28,2.28,0,0,1-2.43-2.41V2.67h.87V6.74a1.65,1.65,0,0,0,1.63,1.83,2,2,0,0,0,2-2.17V2.67h.87V9.13h-.87Z"/><path class="cls-1" d="M81.27,1l.87-.27v2h1.53v.71H82.14V7.54c0,.85.65,1,1.41,1v.73c-1.36,0-2.28-.32-2.28-1.67V3.38h-.92V2.67h.92Z"/><path class="cls-1" d="M90.53,3.66a2.72,2.72,0,0,0-1.34-.46c-.78,0-1.18.39-1.18.91s.49.9,1.53,1.41,1.68,1,1.68,1.9a1.87,1.87,0,0,1-2.1,1.81,3,3,0,0,1-2.22-.88l.48-.59a2.57,2.57,0,0,0,1.7.74c.71,0,1.3-.31,1.3-1s-.59-.94-1.31-1.27c-.88-.4-1.87-.9-1.87-2a1.72,1.72,0,0,1,1.93-1.72,3.2,3.2,0,0,1,1.81.58Z"/><path class="cls-1" d="M92.41,3.05a3.78,3.78,0,0,1,2.07-.58A2.11,2.11,0,0,1,96.6,3.74a3.4,3.4,0,0,1,.19,1.12v3a5.76,5.76,0,0,0,.11,1.3h-.83a5.74,5.74,0,0,1-.17-.78,2.5,2.5,0,0,1-2.07.9,2.1,2.1,0,0,1-2.19-2.09c0-1.58,1.18-2.27,3.17-2.27.35,0,.72,0,1.12.06V4.76a1.41,1.41,0,0,0-1.52-1.58,3.14,3.14,0,0,0-1.66.5Zm3.52,2.58a9,9,0,0,0-1,0c-1.61,0-2.43.49-2.43,1.52A1.4,1.4,0,0,0,94,8.48a1.77,1.77,0,0,0,1.92-1.63Z"/><path class="cls-1" d="M100.06,8.14l2-5.47h.93l-2.4,6.46h-1l-2.4-6.46h.93Z"/><path class="cls-1" d="M106,2.49a3.08,3.08,0,0,1,3,3.39c0,2.08-1.29,3.39-3,3.39s-3-1.31-3-3.39S104.36,2.49,106,2.49Zm0,6.08c1.15,0,2.11-1,2.11-2.69s-1-2.69-2.11-2.69S104,4.16,104,5.88,104.9,8.57,106,8.57Z"/><path class="cls-1" d="M111,3.8a2.21,2.21,0,0,1,2-1.31,1.37,1.37,0,0,1,.28,0V3.3l-.28,0a2,2,0,0,0-2,2v3.9h-.87V2.67H111Z"/><path class="cls-1" d="M113.33,11.15a2.69,2.69,0,0,0,2.19-2.07l-2.38-6.41h.93L116,8l1.84-5.35h.93L116.62,8.6c-.69,2-1.15,2.88-3,3.28Z"/><path class="cls-1" d="M126.78,3.67V0h.87V9.13h-.87v-1a2.49,2.49,0,0,1-2.09,1.11c-1.67,0-2.81-1.25-2.81-3.36s1.06-3.42,2.86-3.42A2.35,2.35,0,0,1,126.78,3.67Zm-4,2.23c0,1.28.61,2.67,2,2.67s2-1.18,2-2.67V5.8c0-1.7-.85-2.63-2-2.63C123.38,3.17,122.77,4.56,122.77,5.9Z"/><path class="cls-1" d="M133.88,8.62a3.39,3.39,0,0,1-2,.64A3.09,3.09,0,0,1,128.7,6c0-2,1-3.46,2.89-3.46a2.79,2.79,0,0,1,2.73,3,4,4,0,0,1,0,.49h-4.71a2.31,2.31,0,0,0,2.31,2.54,2.78,2.78,0,0,0,1.63-.5Zm-.39-3.33a2,2,0,0,0-1.93-2.06,2.18,2.18,0,0,0-1.93,2.06Z"/><path class="cls-1" d="M135.28,0h.88V9.13h-.88Z"/><path class="cls-1" d="M137.46,0h1V1.19h-1Zm.08,2.67h.87V9.13h-.87Z"/><path class="cls-1" d="M144.78,8.48a3.07,3.07,0,0,1-2.13.77,3.15,3.15,0,0,1-3.19-3.35,3.13,3.13,0,0,1,3.21-3.41,4.1,4.1,0,0,1,2,.52l-.34.64a3.36,3.36,0,0,0-1.61-.44,2.41,2.41,0,0,0-2.32,2.7,2.42,2.42,0,0,0,2.34,2.62,2.73,2.73,0,0,0,1.66-.59Z"/><path class="cls-1" d="M145.83,3.05a3.78,3.78,0,0,1,2.07-.58A2.11,2.11,0,0,1,150,3.74a3.16,3.16,0,0,1,.19,1.12v3a5.25,5.25,0,0,0,.12,1.3h-.84a6.93,6.93,0,0,1-.16-.78,2.52,2.52,0,0,1-2.07.9,2.1,2.1,0,0,1-2.19-2.09c0-1.58,1.18-2.27,3.16-2.27.36,0,.72,0,1.12.06V4.76a1.41,1.41,0,0,0-1.51-1.58,3.14,3.14,0,0,0-1.66.5Zm3.52,2.58a8.74,8.74,0,0,0-1,0c-1.61,0-2.42.49-2.42,1.52a1.39,1.39,0,0,0,1.49,1.38,1.77,1.77,0,0,0,1.92-1.63Z"/><path class="cls-1" d="M156.45,8.48a3,3,0,0,1-2.13.77,3.15,3.15,0,0,1-3.18-3.35,3.12,3.12,0,0,1,3.21-3.41,4.13,4.13,0,0,1,2,.52l-.34.64a3.39,3.39,0,0,0-1.61-.44A2.4,2.4,0,0,0,152,5.91a2.42,2.42,0,0,0,2.34,2.62A2.73,2.73,0,0,0,156,7.94Z"/><path class="cls-1" d="M156.64,11.15a2.67,2.67,0,0,0,2.19-2.07l-2.38-6.41h.93L159.28,8l1.83-5.35H162L159.93,8.6c-.69,2-1.15,2.88-3,3.28Z"/><path class="cls-1" d="M168.59,3.66a2.72,2.72,0,0,0-1.34-.46c-.78,0-1.18.39-1.18.91s.5.9,1.53,1.41,1.68,1,1.68,1.9a1.87,1.87,0,0,1-2.1,1.81A3,3,0,0,1,165,8.35l.47-.59a2.57,2.57,0,0,0,1.7.74c.71,0,1.3-.31,1.3-1s-.59-.94-1.31-1.27c-.88-.4-1.87-.9-1.87-2a1.72,1.72,0,0,1,1.93-1.72,3.2,3.2,0,0,1,1.81.58Z"/><path class="cls-1" d="M170.47,1l.87-.27v2h1.53v.71h-1.53V7.54c0,.85.65,1,1.41,1v.73c-1.36,0-2.28-.32-2.28-1.67V3.38h-.92V2.67h.92Z"/><path class="cls-1" d="M173.63,0h1V1.19h-1Zm.09,2.67h.87V9.13h-.87Z"/><path class="cls-1" d="M176.83,3.44a2.05,2.05,0,0,1,3.63.3,2.26,2.26,0,0,1,1.95-1.26,2.09,2.09,0,0,1,2.22,2.23V9.13h-.86V4.65a1.38,1.38,0,0,0-1.48-1.47A1.57,1.57,0,0,0,180.74,5V9.13h-.86V4.76a1.44,1.44,0,0,0-1.46-1.58,1.61,1.61,0,0,0-1.59,1.75v4.2H176V2.67h.86Z"/><path class="cls-1" d="M190.25,8.06a2.4,2.4,0,0,1-2,1.2,2.28,2.28,0,0,1-2.43-2.41V2.67h.88V6.74a1.64,1.64,0,0,0,1.62,1.83,2,2,0,0,0,1.95-2.17V2.67h.87V9.13h-.87Z"/><path class="cls-1" d="M192.45,0h.87V9.13h-.87Z"/><path class="cls-1" d="M195,3.05a3.78,3.78,0,0,1,2.07-.58,2.11,2.11,0,0,1,2.12,1.27,3.16,3.16,0,0,1,.19,1.12v3a5.25,5.25,0,0,0,.12,1.3h-.84a6.93,6.93,0,0,1-.16-.78,2.52,2.52,0,0,1-2.07.9,2.1,2.1,0,0,1-2.19-2.09c0-1.58,1.17-2.27,3.16-2.27.36,0,.72,0,1.12.06V4.76A1.41,1.41,0,0,0,197,3.18a3.14,3.14,0,0,0-1.65.5Zm3.52,2.58a8.74,8.74,0,0,0-1,0c-1.61,0-2.42.49-2.42,1.52a1.39,1.39,0,0,0,1.49,1.38,1.77,1.77,0,0,0,1.92-1.63Z"/><path class="cls-1" d="M201,1l.87-.27v2h1.53v.71h-1.53V7.54c0,.85.65,1,1.42,1v.73C201.88,9.26,201,9,201,7.6V3.38h-.91V2.67H201Z"/><path class="cls-1" d="M208.93,8.62a3.39,3.39,0,0,1-2,.64A3.09,3.09,0,0,1,203.75,6c0-2,1-3.46,2.89-3.46a2.79,2.79,0,0,1,2.73,3,4,4,0,0,1,0,.49h-4.71A2.31,2.31,0,0,0,207,8.55a2.84,2.84,0,0,0,1.64-.5Zm-.39-3.33a2,2,0,0,0-1.93-2.06,2.18,2.18,0,0,0-1.93,2.06Z"/><path class="cls-1" d="M213.41,3.66a2.75,2.75,0,0,0-1.34-.46c-.78,0-1.18.39-1.18.91s.49.9,1.53,1.41,1.68,1,1.68,1.9A1.87,1.87,0,0,1,212,9.23a3,3,0,0,1-2.22-.88l.47-.59A2.59,2.59,0,0,0,212,8.5c.71,0,1.29-.31,1.29-1s-.58-.94-1.3-1.27c-.88-.4-1.87-.9-1.87-2A1.72,1.72,0,0,1,212,2.47a3.22,3.22,0,0,1,1.81.58Z"/><path class="cls-1" d="M217.36,11.15a2.66,2.66,0,0,0,2.18-2.07l-2.37-6.41h.93L220,8l1.84-5.35h.93L220.65,8.6c-.69,2-1.15,2.88-3,3.28Z"/><path class="cls-1" d="M225.82,2.49a3.07,3.07,0,0,1,3,3.39c0,2.08-1.29,3.39-3,3.39s-3-1.31-3-3.39S224.14,2.49,225.82,2.49Zm0,6.08c1.16,0,2.11-1,2.11-2.69s-1-2.69-2.11-2.69-2.09,1-2.09,2.69S224.68,8.57,225.82,8.57Z"/><path class="cls-1" d="M234.26,8.06a2.41,2.41,0,0,1-2,1.2,2.27,2.27,0,0,1-2.42-2.41V2.67h.87V6.74a1.65,1.65,0,0,0,1.62,1.83,2,2,0,0,0,2-2.17V2.67h.87V9.13h-.87Z"/><path class="cls-1" d="M237.32,3.8a2.21,2.21,0,0,1,2-1.31,1.37,1.37,0,0,1,.28,0V3.3l-.28,0a2,2,0,0,0-2,2v3.9h-.87V2.67h.87Z"/><path class="cls-1" d="M243.51,3.05a3.78,3.78,0,0,1,2.07-.58,2.11,2.11,0,0,1,2.12,1.27,3.16,3.16,0,0,1,.19,1.12v3a5.76,5.76,0,0,0,.11,1.3h-.83c-.09-.3-.17-.78-.17-.78a2.5,2.5,0,0,1-2.07.9,2.09,2.09,0,0,1-2.18-2.09c0-1.58,1.17-2.27,3.16-2.27.35,0,.72,0,1.12.06V4.76a1.41,1.41,0,0,0-1.52-1.58,3.2,3.2,0,0,0-1.66.5ZM247,5.63a8.86,8.86,0,0,0-1,0c-1.61,0-2.42.49-2.42,1.52a1.39,1.39,0,0,0,1.49,1.38A1.77,1.77,0,0,0,247,6.85Z"/><path class="cls-1" d="M252.07,2.48c1.77,0,2.86,1.31,2.86,3.43s-1.1,3.35-2.83,3.35A2.46,2.46,0,0,1,250,8.15v3.72h-.88V2.67H250v1A2.33,2.33,0,0,1,252.07,2.48Zm0,.69c-1.17,0-2,.93-2,2.63v.1c0,1.49.65,2.67,2,2.67s2-1.39,2-2.67S253.43,3.17,252.05,3.17Z"/><path class="cls-1" d="M258.91,2.48c1.76,0,2.85,1.31,2.85,3.43s-1.1,3.35-2.83,3.35a2.48,2.48,0,0,1-2.07-1.11v3.72H256V2.67h.87v1A2.34,2.34,0,0,1,258.91,2.48Zm0,.69c-1.16,0-2,.93-2,2.63v.1c0,1.49.66,2.67,2,2.67s2-1.39,2-2.67S260.26,3.17,258.88,3.17Z"/><path class="cls-1" d="M267.66,8.62a3.39,3.39,0,0,1-2,.64A3.09,3.09,0,0,1,262.48,6c0-2,1-3.46,2.89-3.46a2.79,2.79,0,0,1,2.73,3,4,4,0,0,1,0,.49h-4.71a2.31,2.31,0,0,0,2.31,2.54,2.78,2.78,0,0,0,1.63-.5Zm-.39-3.33a2,2,0,0,0-1.93-2.06,2.18,2.18,0,0,0-1.93,2.06Z"/><path class="cls-1" d="M269.37,1l.87-.27v2h1.53v.71h-1.53V7.54c0,.85.65,1,1.41,1v.73c-1.36,0-2.28-.32-2.28-1.67V3.38h-.92V2.67h.92Z"/><path class="cls-1" d="M272.53,0h1V1.19h-1Zm.09,2.67h.87V9.13h-.87Z"/><path class="cls-1" d="M275.18,1l.87-.27v2h1.53v.71h-1.53V7.54c0,.85.65,1,1.41,1v.73c-1.36,0-2.28-.32-2.28-1.67V3.38h-.92V2.67h.92Z"/><path class="cls-1" d="M283.14,8.62a3.33,3.33,0,0,1-2,.64A3.09,3.09,0,0,1,278,6c0-2,1-3.46,2.89-3.46a2.79,2.79,0,0,1,2.73,3,4,4,0,0,1,0,.49h-4.71a2.31,2.31,0,0,0,2.31,2.54,2.78,2.78,0,0,0,1.63-.5Zm-.39-3.33a2,2,0,0,0-1.92-2.06,2.18,2.18,0,0,0-1.93,2.06Z"/><path class="cls-1" d="M284.53,8.5h1.26V9.73h-1.26Z"/></g></g></svg>