<svg xmlns="http://www.w3.org/2000/svg" viewBox="0 0 364.4 138"><defs><style>.cls-1{fill:none;stroke:#f5f5f5;stroke-miterlimit:10;stroke-width:2px;}.cls-2{fill:#231815;}</style></defs><title>자산 224</title><g id="레이어_2" data-name="레이어 2"><g id="레이어_1-2" data-name="레이어 1"><rect class="cls-1" x="1" y="1" width="110" height="136" rx="15.22"/><rect class="cls-1" x="127.2" y="1" width="110" height="136" rx="15.22"/><rect class="cls-1" x="253.4" y="1" width="110" height="136" rx="15.22"/><path d="M286.21,94.46a3.26,3.26,0,0,0-1.75-.6c-.9,0-1.43.45-1.43,1.14s.63,1.11,1.89,1.66,2,1.15,2,2.29c0,1.47-1.27,2.11-2.52,2.11a3.87,3.87,0,0,1-2.59-1l.45-.64a3.29,3.29,0,0,0,2.08.88c.73,0,1.72-.3,1.72-1.36,0-.71-.65-1.18-1.76-1.65s-2.16-1-2.16-2.26c0-1.44,1.21-1.92,2.28-1.92a4.16,4.16,0,0,1,2.15.67Z"/><path d="M288.05,93.91l.81-.27v1.7h1.3V96h-1.3v3.53c0,.71.56.8,1.21.81v.7c-1.23,0-2-.27-2-1.46V96h-.79v-.69h.79Z"/><path d="M291.87,96.14a1.82,1.82,0,0,1,1.65-1l.3,0V96l-.27,0a1.56,1.56,0,0,0-1.68,1.47v3.53H291V95.34h.84Z"/><path d="M294.32,93.06h1v1.1h-1Zm.07,2.28h.84v5.59h-.84Z"/><path d="M300.76,100.39a2.65,2.65,0,0,1-1.87.68,3,3,0,0,1,0-5.91,3.44,3.44,0,0,1,1.73.49l-.33.62a2.89,2.89,0,0,0-1.4-.4,2.28,2.28,0,0,0,0,4.51,2.21,2.21,0,0,0,1.43-.52Z"/><path d="M301.68,93.91l.81-.27v1.7h1.3V96h-1.3v3.53c0,.71.56.8,1.21.81v.7c-1.23,0-2-.27-2-1.46V96h-.78v-.69h.78Z"/><path d="M309.29,95.19a2,2,0,0,1,1.7.94v-.79h.84v7.94H311V100.2a2,2,0,0,1-1.7.87c-1.51,0-2.48-1.1-2.48-2.9S307.78,95.19,309.29,95.19Zm0,.68c-1.2,0-1.63,1.19-1.63,2.31s.5,2.24,1.63,2.24,1.65-1,1.68-2.16v-.21C311,96.58,310.28,95.87,309.31,95.87Z"/><path d="M316.75,100.15a2.11,2.11,0,0,1-1.67.92A2,2,0,0,1,313,99V95.34h.84v3.54a1.37,1.37,0,0,0,1.33,1.51,1.66,1.66,0,0,0,1.62-1.8V95.34h.84v5.59h-.84Z"/><path d="M319,95.7a3.42,3.42,0,0,1,1.85-.54,1.85,1.85,0,0,1,1.88,1.17,2.84,2.84,0,0,1,.12,1v2.47a4.72,4.72,0,0,0,.12,1.18h-.84c0-.19-.09-.65-.09-.65a2.23,2.23,0,0,1-1.72.78,1.83,1.83,0,0,1-1.95-1.83c0-1.46,1.16-2,2.75-2,.3,0,.59,0,.9,0V97.2a1.16,1.16,0,0,0-1.27-1.33,2.53,2.53,0,0,0-1.39.45Zm1.43,4.63A1.46,1.46,0,0,0,322,98.87v-.93a7.75,7.75,0,0,0-.82,0c-1.19,0-2,.34-2,1.29A1.14,1.14,0,0,0,320.44,100.33Z"/><path d="M324,93.06h.85v7.87H324Z"/><path d="M325.93,93.06h1v1.1h-1Zm.07,2.28h.84v5.59H326Z"/><path d="M328.27,93.91l.82-.27v1.7h1.3V96h-1.3v3.53c0,.71.56.8,1.2.81v.7c-1.22,0-2-.27-2-1.46V96h-.78v-.69h.78Z"/><path d="M330.75,102.59a2.31,2.31,0,0,0,1.9-1.74l-2.06-5.51h.9l1.58,4.46,1.53-4.46h.9l-1.83,5.11c-.6,1.7-1,2.48-2.65,2.85Z"/><path d="M298.15,114a2.62,2.62,0,0,1-1.87.68,3,3,0,0,1,0-5.9,3.54,3.54,0,0,1,1.73.48l-.34.63a2.72,2.72,0,0,0-1.39-.4,2.28,2.28,0,0,0,0,4.5,2.17,2.17,0,0,0,1.42-.52Z"/><path d="M301.13,108.81a3,3,0,1,1-2.6,2.93A2.66,2.66,0,0,1,301.13,108.81Zm0,5.2c1,0,1.75-.83,1.75-2.27s-.79-2.26-1.75-2.26-1.74.83-1.74,2.26S300.19,114,301.13,114Z"/><path d="M305.47,109.74a2.11,2.11,0,0,1,1.66-.92,2,2,0,0,1,2.13,2.09v3.63h-.84V111a1.36,1.36,0,0,0-1.34-1.5,1.65,1.65,0,0,0-1.61,1.79v3.25h-.85V109h.85Z"/><path d="M310.64,107.53l.81-.27V109h1.31v.69h-1.31v3.52c0,.71.56.8,1.21.81v.7c-1.22,0-2-.27-2-1.46v-3.57h-.78V109h.78Z"/><path d="M314.46,109.75a1.84,1.84,0,0,1,1.66-1l.29,0v.75l-.26,0a1.57,1.57,0,0,0-1.69,1.46v3.53h-.84V109h.84Z"/><path d="M319.05,108.81a3,3,0,1,1-2.61,2.93A2.66,2.66,0,0,1,319.05,108.81Zm0,5.2c.95,0,1.74-.83,1.74-2.27s-.79-2.26-1.74-2.26-1.74.83-1.74,2.26S318.1,114,319.05,114Z"/><path d="M322.54,106.68h.84v7.86h-.84Z"/><path d="M327,50.9h-2.36v-3.3a.37.37,0,0,0-.37-.37H310.92V44.36h4.15a.79.79,0,0,0,.79-.79V26.69a.79.79,0,0,0-.79-.8H307.8l-.12,0-.14.08L302,31.58a.3.3,0,0,0-.07.11.45.45,0,0,0,0,.13l0,.09V42.82a1.54,1.54,0,0,0,1.54,1.54h6.79v2.88H296.86a.36.36,0,0,0-.37.34v.1h0v3.23h-2.81l-.12,0-.14.08-4.17,4.18a.26.26,0,0,0-.07.1.5.5,0,0,0,0,.14l0,.09v8.15a1.25,1.25,0,0,0,1.24,1.24h8.75a.68.68,0,0,0,.68-.68V51.59a.68.68,0,0,0-.68-.69h-1.9V48h12.95v2.94h-2.57a.33.33,0,0,0-.12,0l-.14.08-4.18,4.18-.07.1c0,.07,0,.1,0,.14v8.24a1.24,1.24,0,0,0,1.24,1.24h8.74a.69.69,0,0,0,.69-.68V51.59a.69.69,0,0,0-.69-.69h-2.13V48h13v2.94h-2.37l-.1,0-.14.08-4.17,4.18a.26.26,0,0,0-.07.1.5.5,0,0,0,0,.14l0,.09v8.15a1.25,1.25,0,0,0,1.24,1.24H327a.68.68,0,0,0,.68-.68V51.59A.68.68,0,0,0,327,50.9Zm-33.66,1.26v2.92H290.4Zm5.76-.52V64.17h-8.7a.5.5,0,0,1-.5-.51V55.82h3.8a.38.38,0,0,0,.37-.37V51.64Zm8.35-24.49v4.32h-4.32Zm-.19,25v2.92h-2.92Zm5.76-.52V64.17h-8.69a.51.51,0,0,1-.51-.51V55.82h3.81a.38.38,0,0,0,.37-.37V51.64Zm-9.61-8a.83.83,0,0,1-.57-.23.79.79,0,0,1-.23-.57V32.21h5.21a.38.38,0,0,0,.37-.37V26.63h7v17Zm17.78,8.54v2.92h-2.92Zm-2.94,12a.5.5,0,0,1-.5-.51V55.82h3.8a.37.37,0,0,0,.37-.37V51.64h5V64.17Z"/><path d="M305.18,36.1h7.36a.48.48,0,0,0,0-1h-7.36a.48.48,0,0,0,0,1Z"/><path d="M305.18,38.73h7.36a.47.47,0,0,0,0-.94h-7.36a.47.47,0,0,0,0,.94Z"/><path d="M305.18,41.37h7.36a.47.47,0,0,0,.47-.47.48.48,0,0,0-.47-.48h-7.36a.48.48,0,0,0-.47.48A.47.47,0,0,0,305.18,41.37Z"/><path d="M297.51,68.89l-2.93,3.75a.22.22,0,0,1-.18.09.21.21,0,0,1-.2-.09l-1.05-1.32a.41.41,0,0,0-.3-.14.35.35,0,0,0-.23.09.37.37,0,0,0-.06.52l1.06,1.33a1,1,0,0,0,1.55,0l2.93-3.76a.4.4,0,0,0,.08-.28.41.41,0,0,0-.15-.25A.36.36,0,0,0,297.51,68.89Z"/><path d="M297.19,72.55a.38.38,0,0,0-.37.38v1.86a.23.23,0,0,1-.24.23h-4.81a.23.23,0,0,1-.24-.23V70a.24.24,0,0,1,.24-.24h3.54a.38.38,0,0,0,0-.75h-3.54a1,1,0,0,0-1,1v4.82a1,1,0,0,0,1,1h4.81a1,1,0,0,0,1-1V72.93A.38.38,0,0,0,297.19,72.55Z"/><path d="M311.43,68.89l-2.93,3.75a.2.2,0,0,1-.17.09.19.19,0,0,1-.2-.09l-1.06-1.32a.37.37,0,0,0-.29-.14.38.38,0,0,0-.24.09.39.39,0,0,0-.14.25.36.36,0,0,0,.08.27l1.06,1.33a1,1,0,0,0,.77.37,1,1,0,0,0,.79-.38L312,69.35a.36.36,0,0,0,.08-.28.35.35,0,0,0-.14-.25A.37.37,0,0,0,311.43,68.89Z"/><path d="M311.12,72.55a.38.38,0,0,0-.38.38v1.86a.23.23,0,0,1-.23.23h-4.82a.23.23,0,0,1-.24-.23V70a.24.24,0,0,1,.24-.24h3.54a.38.38,0,1,0,0-.75h-3.54a1,1,0,0,0-1,1v4.82a1,1,0,0,0,1,1h4.82a1,1,0,0,0,1-1V72.93A.38.38,0,0,0,311.12,72.55Z"/><path d="M325.36,68.89l-2.93,3.75a.22.22,0,0,1-.18.09.21.21,0,0,1-.2-.09L321,71.32a.41.41,0,0,0-.3-.14.35.35,0,0,0-.23.09.37.37,0,0,0-.06.52l1.06,1.33a1,1,0,0,0,1.55,0L326,69.35a.4.4,0,0,0,.08-.28.41.41,0,0,0-.15-.25A.36.36,0,0,0,325.36,68.89Z"/><path d="M325,72.55a.38.38,0,0,0-.37.38v1.86a.23.23,0,0,1-.24.23h-4.81a.23.23,0,0,1-.24-.23V70a.24.24,0,0,1,.24-.24h3.54a.38.38,0,0,0,0-.75h-3.54a1,1,0,0,0-1,1v4.82a1,1,0,0,0,1,1h4.81a1,1,0,0,0,1-1V72.93A.38.38,0,0,0,325,72.55Z"/><path class="cls-2" d="M15.55,100.93h-.89l-.74-2h-3.3l-.75,2H9l2.85-7.68h.88Zm-1.88-2.71-1.4-3.94-1.41,3.94Z"/><path class="cls-2" d="M18,95.19a2,2,0,0,1,1.7.94V93.06h.84v7.87h-.84v-.73a2,2,0,0,1-1.7.87c-1.5,0-2.47-1.1-2.47-2.9S16.51,95.19,18,95.19Zm0,.68c-1.2,0-1.63,1.19-1.63,2.31s.5,2.24,1.63,2.24,1.65-1,1.68-2.16v-.21C19.68,96.58,19,95.87,18,95.87Z"/><path class="cls-2" d="M23.91,95.19a2,2,0,0,1,1.7.94V93.06h.84v7.87h-.84v-.73a2,2,0,0,1-1.7.87c-1.51,0-2.47-1.1-2.47-2.9S22.4,95.19,23.91,95.19Zm0,.68c-1.2,0-1.63,1.19-1.63,2.31s.5,2.24,1.63,2.24,1.65-1,1.68-2.16v-.21C25.58,96.58,24.9,95.87,23.93,95.87Z"/><path class="cls-2" d="M27.56,93.06h1v1.1h-1Zm.07,2.28h.84v5.59h-.84Z"/><path class="cls-2" d="M29.9,93.91l.82-.27v1.7H32V96h-1.3v3.53c0,.71.55.8,1.2.81v.7c-1.22,0-2-.27-2-1.46V96h-.78v-.69h.78Z"/><path class="cls-2" d="M32.81,93.06h1v1.1h-1Zm.07,2.28h.84v5.59h-.84Z"/><path class="cls-2" d="M37.21,95.19a3,3,0,1,1-2.6,2.94A2.67,2.67,0,0,1,37.21,95.19Zm0,5.21c.95,0,1.75-.83,1.75-2.27s-.8-2.27-1.75-2.27-1.74.83-1.74,2.27S36.26,100.4,37.21,100.4Z"/><path class="cls-2" d="M41.54,96.12a2.12,2.12,0,0,1,1.67-.92,2,2,0,0,1,2.13,2.09v3.64h-.85V97.39a1.36,1.36,0,0,0-1.33-1.51,1.66,1.66,0,0,0-1.62,1.8v3.25H40.7V95.34h.84Z"/><path class="cls-2" d="M51.23,95.19a3,3,0,1,1-2.61,2.94A2.67,2.67,0,0,1,51.23,95.19Zm0,5.21c1,0,1.74-.83,1.74-2.27s-.79-2.27-1.74-2.27-1.75.83-1.75,2.27S50.28,100.4,51.23,100.4Z"/><path class="cls-2" d="M55,95.34v-.6a3,3,0,0,1,.11-.88,1.4,1.4,0,0,1,1.42-1,3.06,3.06,0,0,1,1,.21l-.25.66a2.29,2.29,0,0,0-.69-.14.68.68,0,0,0-.69.44,1.89,1.89,0,0,0-.1.69v.63H57V96H55.8v4.9H55V96h-.77v-.69Z"/><path class="cls-2" d="M63,96.29a2.13,2.13,0,0,0-1.16-.42c-.63,0-.94.32-.94.75s.4.76,1.26,1.18,1.47.88,1.47,1.69a1.65,1.65,0,0,1-1.85,1.6,2.61,2.61,0,0,1-1.95-.79l.45-.58a2.25,2.25,0,0,0,1.47.67c.57,0,1.06-.28,1.06-.88s-.5-.79-1.09-1.06c-.76-.35-1.62-.8-1.62-1.77a1.51,1.51,0,0,1,1.69-1.51,2.86,2.86,0,0,1,1.61.52Z"/><path class="cls-2" d="M68.71,100.49a2.92,2.92,0,0,1-1.78.58,2.7,2.7,0,0,1-2.75-2.85c0-1.75.94-3.06,2.5-3.06a2.48,2.48,0,0,1,2.4,2.68,3.52,3.52,0,0,1,0,.45h-4A1.9,1.9,0,0,0,67,100.38a2.47,2.47,0,0,0,1.42-.45Zm-.44-2.89a1.64,1.64,0,0,0-1.59-1.73,1.84,1.84,0,0,0-1.6,1.73Z"/><path class="cls-2" d="M70.18,95.7A3.45,3.45,0,0,1,72,95.16a1.84,1.84,0,0,1,1.88,1.17,2.8,2.8,0,0,1,.13,1v2.47a4.72,4.72,0,0,0,.12,1.18h-.84a5.82,5.82,0,0,1-.09-.65,2.25,2.25,0,0,1-1.73.78,1.83,1.83,0,0,1-2-1.83c0-1.46,1.17-2,2.76-2,.29,0,.58,0,.9,0V97.2a1.17,1.17,0,0,0-1.28-1.33,2.53,2.53,0,0,0-1.39.45Zm1.43,4.63a1.47,1.47,0,0,0,1.6-1.46v-.93a7.94,7.94,0,0,0-.83,0c-1.18,0-2,.34-2,1.29A1.13,1.13,0,0,0,71.61,100.33Z"/><path class="cls-2" d="M76.57,99.77l1.15-4.43h.87l1.16,4.42L81,95.34h.82l-1.6,5.59h-.81l-1.2-4.51L77,100.93h-.81l-1.59-5.59h.82Z"/><path class="cls-2" d="M86.58,100.49a2.9,2.9,0,0,1-1.78.58,2.69,2.69,0,0,1-2.74-2.85c0-1.75.94-3.06,2.5-3.06A2.48,2.48,0,0,1,87,97.84c0,.15,0,.29,0,.45h-4a1.9,1.9,0,0,0,1.91,2.09,2.42,2.42,0,0,0,1.41-.45Zm-.44-2.89a1.64,1.64,0,0,0-1.58-1.73A1.83,1.83,0,0,0,83,97.6Z"/><path class="cls-2" d="M92.05,100.49a2.92,2.92,0,0,1-1.78.58,2.7,2.7,0,0,1-2.75-2.85c0-1.75,1-3.06,2.5-3.06a2.48,2.48,0,0,1,2.4,2.68,3.52,3.52,0,0,1,0,.45h-4a1.9,1.9,0,0,0,1.91,2.09,2.42,2.42,0,0,0,1.41-.45Zm-.44-2.89A1.64,1.64,0,0,0,90,95.87a1.82,1.82,0,0,0-1.59,1.73Z"/><path class="cls-2" d="M95.47,95.19a2,2,0,0,1,1.7.94V93.06H98v7.87h-.84v-.73a2,2,0,0,1-1.7.87C94,101.07,93,100,93,98.17S94,95.19,95.47,95.19Zm0,.68c-1.2,0-1.63,1.19-1.63,2.31s.5,2.24,1.63,2.24,1.65-1,1.68-2.16v-.21C97.14,96.58,96.46,95.87,95.49,95.87Z"/><path class="cls-2" d="M99.16,100.31h1.16v.91a2.75,2.75,0,0,1,0,.58,2.12,2.12,0,0,1-1,1.27l-.25-.26a1.94,1.94,0,0,0,.7-1.38h-.61Z"/><path class="cls-2" d="M40.93,107.34l-2.57,2.5,3.2,3.09H40.41l-2.75-2.69v2.69h-.84v-7.87h.84v4.39l2.14-2.11Z"/><path class="cls-2" d="M45.89,112.49a2.92,2.92,0,0,1-1.78.58,2.7,2.7,0,0,1-2.75-2.85c0-1.75.94-3.06,2.5-3.06a2.48,2.48,0,0,1,2.4,2.68,3.52,3.52,0,0,1,0,.45h-4a1.89,1.89,0,0,0,1.91,2.09,2.46,2.46,0,0,0,1.41-.45Zm-.44-2.89a1.64,1.64,0,0,0-1.59-1.73,1.82,1.82,0,0,0-1.59,1.73Z"/><path class="cls-2" d="M47.13,105.06H48v7.87h-.84Z"/><path class="cls-2" d="M51.68,107.19c1.51,0,2.48,1.14,2.48,3s-1,2.9-2.48,2.9A2,2,0,0,1,50,112.2v3.08h-.85v-7.94H50v.79A1.94,1.94,0,0,1,51.68,107.19Zm0,.68c-1,0-1.64.71-1.67,2.18v.21c0,1.16.57,2.16,1.67,2.16s1.64-1.15,1.64-2.24S52.87,107.87,51.66,107.87Z"/><path class="cls-2" d="M55,112.31h1.17v.91a2.07,2.07,0,0,1-1,1.85l-.25-.26a1.9,1.9,0,0,0,.69-1.38H55Z"/><path class="cls-2" d="M60,107.7a3.47,3.47,0,0,1,1.85-.54,1.86,1.86,0,0,1,1.89,1.17,3.13,3.13,0,0,1,.12,1v2.47a4.72,4.72,0,0,0,.12,1.18h-.84c0-.19-.09-.65-.09-.65a2.23,2.23,0,0,1-1.72.78,1.83,1.83,0,0,1-1.95-1.83c0-1.46,1.16-2,2.75-2,.29,0,.59,0,.9,0v-.07a1.16,1.16,0,0,0-1.27-1.33,2.53,2.53,0,0,0-1.39.45Zm1.43,4.63a1.47,1.47,0,0,0,1.6-1.46v-.93a7.75,7.75,0,0,0-.82,0c-1.19,0-2,.34-2,1.29A1.14,1.14,0,0,0,61.4,112.33Z"/><path class="cls-2" d="M65.79,108.12a2.12,2.12,0,0,1,1.67-.92,2,2,0,0,1,2.13,2.09v3.64h-.85v-3.54a1.36,1.36,0,0,0-1.33-1.51,1.66,1.66,0,0,0-1.62,1.8v3.25H65v-5.59h.84Z"/><path class="cls-2" d="M72.9,107.19a1.94,1.94,0,0,1,1.69.94v-3.07h.85v7.87h-.85v-.73a2,2,0,0,1-1.69.87c-1.51,0-2.48-1.1-2.48-2.9S71.39,107.19,72.9,107.19Zm0,.68c-1.21,0-1.64,1.19-1.64,2.31s.5,2.24,1.64,2.24,1.64-1,1.67-2.16v-.21C74.56,108.58,73.89,107.87,72.92,107.87Z"/><path class="cls-2" d="M20.44,119.7a3.42,3.42,0,0,1,1.85-.54,1.85,1.85,0,0,1,1.88,1.17,2.8,2.8,0,0,1,.13,1v2.47a5.18,5.18,0,0,0,.11,1.18h-.84c0-.19-.09-.65-.09-.65a2.23,2.23,0,0,1-1.72.78,1.83,1.83,0,0,1-2-1.83c0-1.46,1.16-2,2.75-2,.3,0,.59,0,.9,0v-.07a1.16,1.16,0,0,0-1.27-1.33,2.53,2.53,0,0,0-1.39.45Zm1.43,4.63a1.46,1.46,0,0,0,1.59-1.46v-.93a7.75,7.75,0,0,0-.82,0c-1.19,0-2,.34-2,1.29A1.14,1.14,0,0,0,21.87,124.33Z"/><path class="cls-2" d="M26.26,120.12a2.11,2.11,0,0,1,1.66-.92,2,2,0,0,1,2.13,2.09v3.64H29.2v-3.54a1.36,1.36,0,0,0-1.33-1.51,1.66,1.66,0,0,0-1.61,1.8v3.25h-.85v-5.59h.85Z"/><path class="cls-2" d="M35.53,124.39a2.66,2.66,0,0,1-1.88.68,3,3,0,0,1,0-5.91,3.44,3.44,0,0,1,1.73.49l-.33.62a2.89,2.89,0,0,0-1.4-.4,2.28,2.28,0,0,0,0,4.51,2.17,2.17,0,0,0,1.42-.52Z"/><path class="cls-2" d="M37,120.11a2.18,2.18,0,0,1,1.66-.91,2,2,0,0,1,2.13,2.08v3.65H40v-3.55a1.35,1.35,0,0,0-1.33-1.5A1.65,1.65,0,0,0,37,121.67v3.26h-.85v-7.87H37Z"/><path class="cls-2" d="M44.27,119.19a3,3,0,1,1-2.61,2.94A2.67,2.67,0,0,1,44.27,119.19Zm0,5.21c.95,0,1.74-.83,1.74-2.27s-.79-2.27-1.74-2.27-1.75.83-1.75,2.27S43.32,124.4,44.27,124.4Z"/><path class="cls-2" d="M49.46,123.89l1.62-4.55H52l-2.08,5.59H49L47,119.34h.9Z"/><path class="cls-2" d="M51.93,126.59a2.28,2.28,0,0,0,1.9-1.74l-2-5.51h.9l1.57,4.46,1.53-4.46h.9l-1.82,5.11c-.61,1.7-1,2.48-2.65,2.85Z"/><path class="cls-2" d="M62.14,119.19c1.51,0,2.48,1.14,2.48,3s-1,2.9-2.48,2.9a2,2,0,0,1-1.69-.87v3.08h-.84v-7.94h.84v.79A1.94,1.94,0,0,1,62.14,119.19Zm0,.68c-1,0-1.64.71-1.67,2.18v.21c0,1.16.57,2.16,1.67,2.16s1.64-1.15,1.64-2.24S63.33,119.87,62.12,119.87Z"/><path class="cls-2" d="M67.82,119.19a3,3,0,1,1-2.61,2.94A2.67,2.67,0,0,1,67.82,119.19Zm0,5.21c1,0,1.74-.83,1.74-2.27s-.79-2.27-1.74-2.27-1.75.83-1.75,2.27S66.87,124.4,67.82,124.4Z"/><path class="cls-2" d="M72.72,123.77l1.15-4.43h.87l1.16,4.42,1.2-4.42h.82l-1.6,5.59h-.81l-1.21-4.51-1.19,4.51H72.3l-1.59-5.59h.82Z"/><path class="cls-2" d="M80.68,119.19a2,2,0,0,1,1.7.94v-3.07h.84v7.87h-.84v-.73a2,2,0,0,1-1.7.87c-1.5,0-2.47-1.1-2.47-2.9S79.18,119.19,80.68,119.19Zm0,.68c-1.2,0-1.63,1.19-1.63,2.31s.5,2.24,1.63,2.24,1.65-1,1.68-2.16v-.21C82.35,120.58,81.67,119.87,80.7,119.87Z"/><path class="cls-2" d="M88.63,124.49a2.92,2.92,0,0,1-1.78.58,2.69,2.69,0,0,1-2.74-2.85c0-1.75.94-3.06,2.49-3.06a2.48,2.48,0,0,1,2.4,2.68,3.52,3.52,0,0,1,0,.45H85a1.9,1.9,0,0,0,1.91,2.09,2.42,2.42,0,0,0,1.41-.45Zm-.44-2.89a1.64,1.64,0,0,0-1.59-1.73A1.82,1.82,0,0,0,85,121.6Z"/><path class="cls-2" d="M90.71,120.14a1.82,1.82,0,0,1,1.66-1l.29,0V120l-.26,0a1.56,1.56,0,0,0-1.69,1.47v3.53h-.84v-5.59h.84Z"/><path d="M151,93.94h-2.35v7h-.84v-7h-2.34v-.69H151Z"/><path d="M151.49,96.14a1.82,1.82,0,0,1,1.66-1l.29,0V96l-.26,0a1.56,1.56,0,0,0-1.69,1.47v3.53h-.84V95.34h.84Z"/><path d="M154,95.7a3.45,3.45,0,0,1,1.85-.54,1.84,1.84,0,0,1,1.88,1.17,2.8,2.8,0,0,1,.13,1v2.47a4.72,4.72,0,0,0,.12,1.18h-.84c0-.19-.09-.65-.09-.65a2.25,2.25,0,0,1-1.73.78,1.83,1.83,0,0,1-2-1.83c0-1.46,1.17-2,2.76-2,.29,0,.58,0,.9,0V97.2a1.17,1.17,0,0,0-1.28-1.33,2.53,2.53,0,0,0-1.39.45Zm1.43,4.63a1.47,1.47,0,0,0,1.6-1.46v-.93a7.94,7.94,0,0,0-.83,0c-1.18,0-2,.34-2,1.29A1.13,1.13,0,0,0,155.38,100.33Z"/><path d="M161.11,95.19a2,2,0,0,1,1.7.94V93.06h.84v7.87h-.84v-.73a2,2,0,0,1-1.7.87c-1.5,0-2.48-1.1-2.48-2.9S159.61,95.19,161.11,95.19Zm0,.68c-1.2,0-1.63,1.19-1.63,2.31s.5,2.24,1.63,2.24,1.65-1,1.68-2.16v-.21C162.78,96.58,162.1,95.87,161.13,95.87Z"/><path d="M164.76,93.06h1v1.1h-1Zm.07,2.28h.84v5.59h-.84Z"/><path d="M167.1,93.91l.82-.27v1.7h1.3V96h-1.3v3.53c0,.71.55.8,1.2.81v.7c-1.22,0-2-.27-2-1.46V96h-.78v-.69h.78Z"/><path d="M170,93.06h1v1.1h-1Zm.07,2.28h.84v5.59h-.84Z"/><path d="M174.41,95.19a3,3,0,1,1-2.6,2.94A2.67,2.67,0,0,1,174.41,95.19Zm0,5.21c1,0,1.75-.83,1.75-2.27s-.8-2.27-1.75-2.27-1.74.83-1.74,2.27S173.46,100.4,174.41,100.4Z"/><path d="M178.74,96.12a2.12,2.12,0,0,1,1.67-.92,2,2,0,0,1,2.12,2.09v3.64h-.84V97.39a1.36,1.36,0,0,0-1.33-1.51,1.66,1.66,0,0,0-1.62,1.8v3.25h-.84V95.34h.84Z"/><path d="M183.9,95.7a3.45,3.45,0,0,1,1.85-.54,1.84,1.84,0,0,1,1.88,1.17,2.8,2.8,0,0,1,.13,1v2.47a4.72,4.72,0,0,0,.12,1.18H187c0-.19-.09-.65-.09-.65a2.21,2.21,0,0,1-1.72.78,1.83,1.83,0,0,1-1.95-1.83c0-1.46,1.17-2,2.75-2,.3,0,.59,0,.91,0V97.2a1.17,1.17,0,0,0-1.28-1.33,2.53,2.53,0,0,0-1.39.45Zm1.43,4.63a1.47,1.47,0,0,0,1.6-1.46v-.93a7.94,7.94,0,0,0-.83,0c-1.18,0-2,.34-2,1.29A1.14,1.14,0,0,0,185.33,100.33Z"/><path d="M188.88,93.06h.84v7.87h-.84Z"/><path d="M195.53,95.16a1.87,1.87,0,0,1,1.69,1v-.79h.85v5.09a2.47,2.47,0,0,1-2.52,2.77,3.88,3.88,0,0,1-2-.54l.29-.64a3.52,3.52,0,0,0,1.65.47c.91,0,1.69-.62,1.69-2.08V100a1.93,1.93,0,0,1-1.7.95c-1.45,0-2.47-1.1-2.47-2.9S194.1,95.16,195.53,95.16Zm0,.71c-1.21,0-1.64,1.08-1.64,2.2s.56,2.2,1.64,2.2,1.64-.9,1.67-2.06v-.07C197.22,96.59,196.53,95.87,195.55,95.87Z"/><path d="M200.09,96.14a1.82,1.82,0,0,1,1.65-1l.3,0V96l-.27,0a1.56,1.56,0,0,0-1.68,1.47v3.53h-.84V95.34h.84Z"/><path d="M202.54,93.06h1v1.1h-1Zm.07,2.28h.84v5.59h-.84Z"/><path d="M204.62,93.06h.85v7.87h-.85Z"/><path d="M206.64,93.06h.85v7.87h-.85Z"/><path d="M212.89,100.49a2.9,2.9,0,0,1-1.78.58,2.69,2.69,0,0,1-2.74-2.85c0-1.75.94-3.06,2.5-3.06a2.48,2.48,0,0,1,2.4,2.68,3.52,3.52,0,0,1,0,.45h-4a1.9,1.9,0,0,0,1.91,2.09,2.42,2.42,0,0,0,1.41-.45Zm-.44-2.89a1.63,1.63,0,0,0-1.58-1.73,1.84,1.84,0,0,0-1.6,1.73Z"/><path d="M216.32,95.19a1.94,1.94,0,0,1,1.69.94V93.06h.84v7.87H218v-.73a2,2,0,0,1-1.69.87c-1.51,0-2.48-1.1-2.48-2.9S214.81,95.19,216.32,95.19Zm0,.68c-1.21,0-1.64,1.19-1.64,2.31s.5,2.24,1.64,2.24,1.64-1,1.67-2.16v-.21C218,96.58,217.3,95.87,216.34,95.87Z"/><path d="M155.41,108.29a2.2,2.2,0,0,0-1.17-.42c-.62,0-.94.32-.94.75s.4.76,1.27,1.18,1.47.88,1.47,1.69a1.65,1.65,0,0,1-1.85,1.6,2.59,2.59,0,0,1-1.95-.79l.45-.58a2.25,2.25,0,0,0,1.47.67c.56,0,1.05-.28,1.05-.88s-.5-.79-1.08-1.06c-.77-.35-1.63-.8-1.63-1.77a1.51,1.51,0,0,1,1.69-1.51,2.86,2.86,0,0,1,1.61.52Z"/><path d="M161.09,112.49a2.9,2.9,0,0,1-1.78.58,2.69,2.69,0,0,1-2.74-2.85c0-1.75.94-3.06,2.49-3.06a2.48,2.48,0,0,1,2.4,2.68c0,.15,0,.29,0,.45h-4a1.9,1.9,0,0,0,1.91,2.09,2.42,2.42,0,0,0,1.41-.45Zm-.44-2.89a1.64,1.64,0,0,0-1.59-1.73,1.83,1.83,0,0,0-1.59,1.73Z"/><path d="M162.56,107.7a3.48,3.48,0,0,1,1.86-.54,1.85,1.85,0,0,1,1.88,1.17,3.13,3.13,0,0,1,.12,1v2.47a4.72,4.72,0,0,0,.12,1.18h-.84c0-.19-.09-.65-.09-.65a2.23,2.23,0,0,1-1.72.78,1.83,1.83,0,0,1-1.95-1.83c0-1.46,1.16-2,2.75-2,.29,0,.59,0,.9,0v-.07a1.16,1.16,0,0,0-1.27-1.33,2.53,2.53,0,0,0-1.39.45Zm1.43,4.63a1.46,1.46,0,0,0,1.6-1.46v-.93a7.75,7.75,0,0,0-.82,0c-1.19,0-2,.34-2,1.29A1.14,1.14,0,0,0,164,112.33Z"/><path d="M169,111.77l1.16-4.43H171l1.17,4.42,1.19-4.42h.82l-1.59,5.59h-.81l-1.21-4.51-1.19,4.51h-.82l-1.59-5.59h.83Z"/><path d="M179,112.49a2.92,2.92,0,0,1-1.78.58,2.7,2.7,0,0,1-2.75-2.85c0-1.75.94-3.06,2.5-3.06a2.48,2.48,0,0,1,2.4,2.68,3.52,3.52,0,0,1,0,.45h-4a1.9,1.9,0,0,0,1.91,2.09,2.42,2.42,0,0,0,1.41-.45Zm-.44-2.89a1.64,1.64,0,0,0-1.59-1.73,1.84,1.84,0,0,0-1.6,1.73Z"/><path d="M184.44,112.49a2.93,2.93,0,0,1-1.79.58,2.69,2.69,0,0,1-2.74-2.85c0-1.75.94-3.06,2.5-3.06a2.48,2.48,0,0,1,2.4,2.68,3.52,3.52,0,0,1,0,.45h-4a1.9,1.9,0,0,0,1.91,2.09,2.42,2.42,0,0,0,1.41-.45ZM184,109.6a1.63,1.63,0,0,0-1.58-1.73,1.84,1.84,0,0,0-1.6,1.73Z"/><path d="M187.86,107.19a1.94,1.94,0,0,1,1.69.94v-3.07h.84v7.87h-.84v-.73a2,2,0,0,1-1.69.87c-1.51,0-2.48-1.1-2.48-2.9S186.35,107.19,187.86,107.19Zm0,.68c-1.21,0-1.64,1.19-1.64,2.31s.5,2.24,1.64,2.24,1.64-1,1.67-2.16v-.21C189.52,108.58,188.85,107.87,187.88,107.87Z"/><path d="M196.33,107.19a3,3,0,1,1-2.6,2.94A2.67,2.67,0,0,1,196.33,107.19Zm0,5.21c.95,0,1.75-.83,1.75-2.27s-.8-2.27-1.75-2.27-1.74.83-1.74,2.27S195.38,112.4,196.33,112.4Z"/><path d="M201.53,111.89l1.61-4.55H204L202,112.93h-.87L199,107.34h.89Z"/><path d="M208.64,112.49a2.92,2.92,0,0,1-1.78.58,2.69,2.69,0,0,1-2.74-2.85c0-1.75.94-3.06,2.49-3.06a2.48,2.48,0,0,1,2.4,2.68,3.52,3.52,0,0,1,0,.45h-4a1.9,1.9,0,0,0,1.91,2.09,2.42,2.42,0,0,0,1.41-.45Zm-.44-2.89a1.64,1.64,0,0,0-1.59-1.73A1.83,1.83,0,0,0,205,109.6Z"/><path d="M210.72,108.14a1.82,1.82,0,0,1,1.66-1l.29,0V108l-.26,0a1.56,1.56,0,0,0-1.69,1.47v3.53h-.84v-5.59h.84Z"/><path d="M164.68,119.19a1.94,1.94,0,0,1,1.69.94v-3.07h.84v7.87h-.84v-.73a2,2,0,0,1-1.69.87c-1.51,0-2.48-1.1-2.48-2.9S163.17,119.19,164.68,119.19Zm0,.68c-1.2,0-1.63,1.19-1.63,2.31s.5,2.24,1.63,2.24,1.65-1,1.68-2.16v-.21C166.34,120.58,165.66,119.87,164.69,119.87Z"/><path d="M168.32,117.06h1v1.1h-1Zm.07,2.28h.84v5.59h-.84Z"/><path d="M171.25,120.14a1.82,1.82,0,0,1,1.66-1l.29,0V120l-.26,0a1.56,1.56,0,0,0-1.69,1.47v3.53h-.84v-5.59h.84Z"/><path d="M177.76,124.49a2.93,2.93,0,0,1-1.79.58,2.69,2.69,0,0,1-2.74-2.85c0-1.75.94-3.06,2.5-3.06a2.48,2.48,0,0,1,2.4,2.68,3.52,3.52,0,0,1,0,.45h-4a1.9,1.9,0,0,0,1.91,2.09,2.42,2.42,0,0,0,1.41-.45Zm-.44-2.89a1.64,1.64,0,0,0-1.59-1.73,1.84,1.84,0,0,0-1.6,1.73Z"/><path d="M183.34,124.39a2.64,2.64,0,0,1-1.87.68,3,3,0,0,1,0-5.91,3.44,3.44,0,0,1,1.73.49l-.34.62a2.82,2.82,0,0,0-1.39-.4,2.28,2.28,0,0,0,0,4.51,2.17,2.17,0,0,0,1.42-.52Z"/><path d="M184.27,117.91l.81-.27v1.7h1.3V120h-1.3v3.53c0,.71.56.8,1.2.81v.7c-1.22,0-2-.27-2-1.46V120h-.79v-.69h.79Z"/><path d="M189.94,119.34v-.6a3,3,0,0,1,.11-.88,1.4,1.4,0,0,1,1.42-1,3.06,3.06,0,0,1,1,.21l-.25.66a2.29,2.29,0,0,0-.69-.14.68.68,0,0,0-.69.44,1.89,1.89,0,0,0-.1.69v.63H192V120h-1.17v4.9h-.84V120h-.77v-.69Z"/><path d="M192.8,117.06h1v1.1h-1Zm.07,2.28h.84v5.59h-.84Z"/><path d="M195.73,120.14a1.82,1.82,0,0,1,1.66-1l.29,0V120l-.26,0a1.57,1.57,0,0,0-1.69,1.47v3.53h-.84v-5.59h.84Z"/><path d="M202.24,124.49a2.93,2.93,0,0,1-1.79.58,2.69,2.69,0,0,1-2.74-2.85c0-1.75.94-3.06,2.5-3.06a2.48,2.48,0,0,1,2.4,2.68,3.52,3.52,0,0,1,0,.45h-4a1.9,1.9,0,0,0,1.91,2.09,2.42,2.42,0,0,0,1.41-.45Zm-.44-2.89a1.64,1.64,0,0,0-1.59-1.73,1.84,1.84,0,0,0-1.6,1.73Z"/><path d="M201.63,41.68h0l-2.76-2.76h0l-5.52-5.52h0l-2.76-2.76h0l-5.52-5.52h0L184,24a1.87,1.87,0,0,0-2.63,0L165.9,39.47a1.86,1.86,0,0,0,0,2.62l5.3,5.31a2.61,2.61,0,0,0,.15,3.34l1.49,1.5-2.92,2.93a1.78,1.78,0,0,0-2.09.3l-6.15,6.15a1.76,1.76,0,0,0,0,2.5l.91.91a1.79,1.79,0,0,0,1.25.52,1.75,1.75,0,0,0,1.25-.52l6.15-6.15a1.76,1.76,0,0,0,.3-2.09l2.93-2.92,1.5,1.49a2.38,2.38,0,0,0,1.72.68,2.78,2.78,0,0,0,1.63-.53l5.3,5.3a1.86,1.86,0,0,0,2.62,0l15.45-15.45a1.86,1.86,0,0,0,0-2.62Zm-6.29-5.26-17,17-2.25-2.25,17-17Zm-2.76-2.76-17,17-2.25-2.25,17-17Zm-26.16,7.92a1.12,1.12,0,0,1,0-1.59l15.45-15.45a1.12,1.12,0,0,1,1.59,0l.84.84-17,17Zm1.35,1.36,17-17,2.24,2.25-17,17Zm2.76,2.76,17.05-17.05,2.24,2.25-17,17-.82-.82h0ZM170,56.15l.6.59-1.09,1.08-.59-.59Zm.75,2.22-6.14,6.14a1,1,0,0,1-.74.31,1,1,0,0,1-.73-.31l-.91-.91a1,1,0,0,1-.31-.73,1,1,0,0,1,.31-.74L168.34,56a1.07,1.07,0,0,1,.74-.31.92.92,0,0,1,.28,0L168.11,57a.37.37,0,0,0-.1.26.35.35,0,0,0,.1.26l1.11,1.11a.36.36,0,0,0,.52,0L171,57.35A1,1,0,0,1,170.72,58.37Zm.36-2.15-.59-.59,2.87-2.87.59.59Zm5.4-1.37-1.75-1.76h0l-.56-.55-2.31-2.31a1.87,1.87,0,0,1-.14-2.31L178.8,55A1.89,1.89,0,0,1,176.48,54.85Zm3.11-.09h0l-.78-.79,17-17,2.25,2.24-17,17Zm2,2,17-17,2.25,2.24L183.81,59Zm20.6-11.89L186.72,60.29a1.12,1.12,0,0,1-1.59,0l-.8-.8,17-17,.8.8A1.12,1.12,0,0,1,202.17,44.84Z"/><path d="M189.12,77.53H189a.34.34,0,0,1-.22-.43c.43-1.33-.62-2.67-1.74-4.09a10.36,10.36,0,0,1-1.77-2.81,6.92,6.92,0,0,1,.33-5.38c-1.6.6-2,2-2.42,3.25a9.36,9.36,0,0,1-.53,1.44,2.13,2.13,0,0,1-2,1.29,2.5,2.5,0,0,1-2.15-1.65,9.41,9.41,0,0,1,.48-6.7,4.82,4.82,0,0,0-3,4.62c0,2.3-.31,6.29-1.85,7.09a1.63,1.63,0,0,1-1.71-.24c-.88-.6-.78-1.4-.65-2.42a10,10,0,0,0-.07-3.6,5.82,5.82,0,0,1-2.23,2.67c-1.87,1.19-3.11,2.1-3.4,3.66a6.44,6.44,0,0,0,0,2.9.35.35,0,0,1-.26.41.34.34,0,0,1-.4-.27,7.17,7.17,0,0,1,0-3.2c.34-1.79,1.74-2.82,3.7-4.08a5,5,0,0,0,2.24-3.32.39.39,0,0,1,.34-.32.45.45,0,0,1,.4.28,10.79,10.79,0,0,1,.37,5c-.13,1-.15,1.42.35,1.76s.91.25,1,.2c.87-.45,1.44-2.94,1.49-6.49,0-2.91,1.64-4.82,4.91-5.85a.36.36,0,0,1,.44.21.37.37,0,0,1-.17.44c-2,.94-2,5.48-1.39,7a1.81,1.81,0,0,0,1.54,1.22,1.52,1.52,0,0,0,1.4-.92,7.88,7.88,0,0,0,.49-1.33c.47-1.52,1-3.4,3.66-3.93a.42.42,0,0,1,.39.17.39.39,0,0,1,0,.43,6.06,6.06,0,0,0-.65,5.44,9.79,9.79,0,0,0,1.66,2.61c1.18,1.49,2.39,3,1.85,4.72A.35.35,0,0,1,189.12,77.53Z"/><path d="M86.08,55.9c.9-.64,1.79-1.27,2.7-1.89a2.36,2.36,0,0,0,1-1.11v-.59a1.61,1.61,0,0,0-1.82-1.18,10.8,10.8,0,0,0-3,.24,14.86,14.86,0,0,0-1.78.69c-.9.4-1.8.88-2.7,1.29a2.8,2.8,0,0,1-1.06.26c-1.33,0-2.65,0-4,0l0,0a5.47,5.47,0,0,0,.67-4.6,5.93,5.93,0,0,0-6.75-4.21.83.83,0,0,1-.7-.27,2.94,2.94,0,0,0-2-1.19,2.67,2.67,0,0,0-2.93,2.44,2.88,2.88,0,0,0,.76,2.14,1,1,0,0,1,.2.7c0,.25-.09.49-.14.74a5.87,5.87,0,0,0-.16,1.08,5.63,5.63,0,0,1-1.06,3.18s0,0,0,0H59.28c-.08-.14-.14-.27-.23-.4a5.06,5.06,0,0,1,0-5.94,6.1,6.1,0,0,0,0-6.79,7.47,7.47,0,0,1-.87-2.08,5,5,0,0,1,1-4,5.71,5.71,0,0,0,.62-4.95,5.78,5.78,0,0,0-3.48-3.66,8.31,8.31,0,0,0-.89-.25l-.4-.1-1.73,0c-.06,0-.13.05-.2.06a5.68,5.68,0,0,0-4.91,5.66,5.55,5.55,0,0,1-1,3.06,6.19,6.19,0,0,0,0,6.61,5.07,5.07,0,0,1,0,6.1,5.83,5.83,0,0,0-.92,3.9,6.07,6.07,0,0,0,1.08,3l.12.17-.16.12A2.86,2.86,0,0,0,46,56.49a2.83,2.83,0,0,0,1.39,2.32l.1.07,0,.24a1.09,1.09,0,0,0-.08.15,6.14,6.14,0,0,0-.08,7.2,5.14,5.14,0,0,1,.79,3.72,6.82,6.82,0,0,1-1,2.4l-.17.29a4.82,4.82,0,0,0-.68,2.56h1.06a5.59,5.59,0,0,1,.94-2.74,6,6,0,0,0,0-6.77,4.82,4.82,0,0,1-.82-4c.33-1.27.72-2.67,2.41-3.14a2.48,2.48,0,0,0,1.59-2.68,2.73,2.73,0,0,0-2.21-2.38,1.35,1.35,0,0,1-.87-.41,5.15,5.15,0,0,1-.11-6,6.2,6.2,0,0,0,0-6.86,5,5,0,0,1-.07-5.78,6.09,6.09,0,0,0,1.1-3.33,4.63,4.63,0,0,1,4.48-4.82A4.75,4.75,0,0,1,58.84,30,5.28,5.28,0,0,1,58,34.26a5.7,5.7,0,0,0,0,6.54A5.35,5.35,0,0,1,58,47a5.87,5.87,0,0,0-.13,6.3c.07.11.12.21.18.31H55.83A4.45,4.45,0,0,0,54,54a8.2,8.2,0,0,0-.53-.94,4.54,4.54,0,0,1-.72-3.72,8.9,8.9,0,0,1,1-2.34,6.37,6.37,0,0,0,.86-3.13,6.2,6.2,0,0,0-1.16-3.56A4.93,4.93,0,0,1,53,35.76a10,10,0,0,1,.69-1.34c.08-.11.14-.23.21-.34a5,5,0,0,0,.73-2.65H53.57a6.61,6.61,0,0,1-1.1,3,5.75,5.75,0,0,0,0,6.14l.19.33a6.28,6.28,0,0,1,.59,1.12,5.12,5.12,0,0,1-.41,4.53l-.19.34a7.58,7.58,0,0,0-.82,1.73,5.85,5.85,0,0,0,.63,4.67,11,11,0,0,1,.66,1.25c-.07.07-.14.1-.21.17A2.07,2.07,0,0,0,53,58l.31.23a6,6,0,0,1-.51,1.1,6.57,6.57,0,0,0-1.11,2.5,6.39,6.39,0,0,0,1,4.6,5,5,0,0,1,0,5.73A12.33,12.33,0,0,0,52,73.42a4.57,4.57,0,0,0-.42,2h1.07a6.46,6.46,0,0,1,1.24-3.28,5.12,5.12,0,0,0,.72-2.57,6,6,0,0,0-1.09-3.76,4.58,4.58,0,0,1-.76-3.78,9,9,0,0,1,1-2.33c.15-.27.28-.56.4-.83a16.25,16.25,0,0,0,3.3,1.74,4.93,4.93,0,0,0-.4,1.32,6.48,6.48,0,0,0,1.08,4.58,5,5,0,0,1,0,5.56l-.08.14c-.22.38-.46.78-.65,1.18a4.28,4.28,0,0,0-.42,2h1.05A5.29,5.29,0,0,1,59,72.72,6.12,6.12,0,0,0,59,65.83,5.05,5.05,0,0,1,58.52,61c.26.08.51.17.77.23,1.06.25,2.15.35,3.22.53a.69.69,0,0,1,.41.22c.48.61.94,1.22,1.41,1.83a5.31,5.31,0,0,1-.94,2.56,5.92,5.92,0,0,0,.06,6.5,7.87,7.87,0,0,1,.75,1.61l.15.37a1.73,1.73,0,0,1,.09.59v0h1a5.1,5.1,0,0,0-1-3.09,4.88,4.88,0,0,1,0-5.71,6,6,0,0,0,.9-2.14,1.61,1.61,0,0,0,.84,0,1.48,1.48,0,0,0,1-1.41c0-.33,0-.67,0-1v-.4c.47,0,.9-.09,1.34-.1.07,0,.17.1.23.18.19.3.34.62.53.92a1.72,1.72,0,0,0,1.82.83c1.38-.22,2.76-.44,4.15-.68a5,5,0,0,1-.19,1.66,9.61,9.61,0,0,1-.8,1.76,4.1,4.1,0,0,0-.23.4,5.53,5.53,0,0,0-.15,5.45c.13.25.27.48.4.71a5.21,5.21,0,0,1,1,2.65h1.06a4.81,4.81,0,0,0-.76-2.67,8.07,8.07,0,0,1-1-2,5,5,0,0,1,.58-4l.12-.2a8.18,8.18,0,0,0,.92-2,6.5,6.5,0,0,0,.15-2.08,1.73,1.73,0,0,0,.72-2.37c-.08-.16-.16-.31-.26-.48a4.87,4.87,0,0,1,4.09,0c.88.48,1.8.88,2.7,1.31a6.9,6.9,0,0,0,3.15.73,10.84,10.84,0,0,1,1.14,0,1.65,1.65,0,0,0,1.87-1.13V60a2.31,2.31,0,0,0-1-1.1c-.91-.62-1.8-1.27-2.7-1.9C85.56,56.6,85.56,56.27,86.08,55.9ZM48.69,54.81a1.59,1.59,0,0,1,1.13.48,1.61,1.61,0,0,1-1.13,2.76h0a1.64,1.64,0,0,1-1.61-1.63,1.61,1.61,0,0,1,.48-1.14A1.59,1.59,0,0,1,48.69,54.81Zm16.64-10a1.65,1.65,0,0,1,1.14-.46,1.62,1.62,0,0,1,1.09,2.78,1.56,1.56,0,0,1-1.12.45h0A1.6,1.6,0,0,1,64.84,46,1.55,1.55,0,0,1,65.33,44.83Zm.16,5.75a5.59,5.59,0,0,1,.08-.91c.12-.83.23-.94,1.07-1a.71.71,0,0,0,.21,0A2.8,2.8,0,0,0,69.17,46l0-.17h.63c.33,0,.67,0,1,0a4.72,4.72,0,0,1,4.44,4.52,5.35,5.35,0,0,1-1,3.17.6.6,0,0,1-.06.11H71.71l-.21,0c0-.52,0-1,0-1.53a2,2,0,0,0-3.36-1.48L65,53.4a.73.73,0,0,1-.37.19A5.91,5.91,0,0,0,65.49,50.58ZM70.36,53c0,.19,0,.38,0,.57h-4c1-.84,1.8-1.63,2.71-2.36a.75.75,0,0,1,.71-.09.74.74,0,0,1,.52.57A7.17,7.17,0,0,1,70.36,53ZM57.91,59.61A15.25,15.25,0,0,1,54.5,57.8c-.31-.24-.62-.48-.93-.74l0,0a.88.88,0,0,1-.05-1.29s0-.06.06-.08a6,6,0,0,1,.89-.6,1.45,1.45,0,0,1,.56-.2,25.78,25.78,0,0,1,3.18-.12c.06,0,.16.09.19.16A4.84,4.84,0,0,1,57.91,59.61Zm6.34,2.48a6.51,6.51,0,0,1,.09,1A8.09,8.09,0,0,0,64.25,62.09Zm1.84.92a.48.48,0,0,1-.26.38.4.4,0,0,1-.35,0l-.08,0c-.41-.49-.79-1-1.22-1.57l0,0h2C66.11,62.18,66.13,62.6,66.09,63Zm9.51-1.37-.52.09c-1.38.23-2.76.46-4.14.67a.83.83,0,0,1-.61-.23,1.35,1.35,0,0,1-.14-.22c-.12-.18-.22-.36-.3-.5.22-.07.45-.12.68-.18,1.28-.31,2.55-.63,3.82-1l.6-.14a2.51,2.51,0,0,1,.47-.11h.08c.24,0,.31.15.53.6a.7.7,0,0,1,0,.66A.66.66,0,0,1,75.6,61.64ZM78,58.13c0,.07-.15.12-.24.14L74.88,59l-1.06.28c-1.24.33-2.49.64-3.75.88h0c-.37.08-.73.14-1.1.19a28.4,28.4,0,0,1-4,.3H63.75c-1,0-2-.13-3-.27-.39,0-.77-.16-1.15-.24L59.05,60a7.59,7.59,0,0,0,.44-.79.57.57,0,0,1,.18,0H61.2c.4,0,.62-.19.63-.51s-.21-.57-.61-.58H59.88A5.53,5.53,0,0,0,60,57H74.4a2.58,2.58,0,0,0,.29,0,.51.51,0,0,0,.38-.57.49.49,0,0,0-.44-.47H60a5.13,5.13,0,0,0-.26-1.16h3.42c.11,0,.24,0,.36,0H77.42c.58,0,.59,0,.77.54,0,.19.08.38.14.62H76.7a.54.54,0,0,0-.17,1A1.5,1.5,0,0,0,77,57h1.42C78.22,57.41,78.09,57.77,78,58.13Zm7.33-.38.44.32c.89.62,1.79,1.24,2.67,1.88a.59.59,0,0,1,.21.41.42.42,0,0,1-.32.25c-.8,0-1.59,0-2.39,0A9.25,9.25,0,0,1,83,59.48c-1.22-.53-2.32-1.4-3.78-1.34a5,5,0,0,0,0-3.41,4.15,4.15,0,0,0,2-.49c.91-.47,1.86-.87,2.77-1.35a8.46,8.46,0,0,1,4.33-.64.42.42,0,0,1,.3.25c0,.09,0,.25-.11.35a1.35,1.35,0,0,1-.27.2c-1,.68-1.94,1.35-2.91,2A1.61,1.61,0,0,0,85.28,57.75Z"/><path d="M56,55.84a.6.6,0,0,0-.62.62.62.62,0,0,0,.6.61.64.64,0,0,0,.63-.62A.63.63,0,0,0,56,55.84Z"/><path d="M44.37,25.62l-.32-.13-.09,0H43l-.11,0-.31.13a2.68,2.68,0,0,0-1.73,2.93,2.71,2.71,0,0,0,2.64,2.27h0a2.68,2.68,0,0,0,.91-5.2Zm-.89,4.13h0a1.64,1.64,0,0,1-1.61-1.59A1.6,1.6,0,0,1,42.29,27a1.66,1.66,0,0,1,1.14-.5h0a1.62,1.62,0,0,1,0,3.23Z"/><path d="M42.76,46.5a5.15,5.15,0,0,1,.09-6.07,5.45,5.45,0,0,0,.69-4.82c-.81-2.72-3-4.24-6.12-4.16A5.68,5.68,0,0,0,31.9,37a6.29,6.29,0,0,1-1,3.3,6,6,0,0,0-.21,6.25c.26.52.55,1,.85,1.56l.35.63,1-.17c-.09-.18-.17-.36-.25-.54a16.56,16.56,0,0,0-.76-1.52,5.19,5.19,0,0,1,.08-6,5.83,5.83,0,0,0,1-3.41,4.16,4.16,0,0,1,.16-1.13,4.85,4.85,0,0,1,6.26-3.23,4.45,4.45,0,0,1,3,2.83A4.88,4.88,0,0,1,41.86,40a6.21,6.21,0,0,0-.1,6.91,6.59,6.59,0,0,1,.85,1.93,5,5,0,0,1-.74,3.88,6.4,6.4,0,0,0-1,2.33,6.17,6.17,0,0,0,1,4.63,4.72,4.72,0,0,1,.77,3.92,9.44,9.44,0,0,1-1,2.28,6,6,0,0,0-.25,5.71c.13.29.28.58.42.87a6.73,6.73,0,0,1,1,3h1.06a7.4,7.4,0,0,0-1.15-3.57,5,5,0,0,1,0-5.67,6.52,6.52,0,0,0,0-7.19,4.92,4.92,0,0,1,0-5.49A6,6,0,0,0,42.76,46.5Z"/><path d="M37.53,65.82l0-.11c0-.07,0-.12.06-.16a6.1,6.1,0,0,0-.35-6.47,4.92,4.92,0,0,1-.88-2.74A5.82,5.82,0,0,1,37.48,53a5.38,5.38,0,0,0,.89-2.91,6.21,6.21,0,0,0-1.16-3.8,5.09,5.09,0,0,1-.74-3.63,6.76,6.76,0,0,1,1-2.38l.19-.32a4.92,4.92,0,0,0,.68-2.57H37.3a6.6,6.6,0,0,1-1.07,3,6.36,6.36,0,0,0-.78,1.92,5.72,5.72,0,0,0,.89,4.54,4.78,4.78,0,0,1,.84,4,8.28,8.28,0,0,1-.6,1.52c-.1.22-.21.44-.3.67s-.19.42-.3.63A6.37,6.37,0,0,0,35.45,55a6.21,6.21,0,0,0,1,4.85,4.86,4.86,0,0,1,.16,5.24.9.9,0,0,1-.65.41,2.68,2.68,0,0,0-.8,5.22c.16.07.39.16.46.35a12.52,12.52,0,0,0,.67,1.38,6.14,6.14,0,0,1,1,3h1.15c-.05-.19-.09-.37-.13-.55a13.09,13.09,0,0,0-.44-1.64,11.87,11.87,0,0,0-.72-1.53c-.12-.23-.24-.45-.35-.68l-.09-.18.18-.1a3,3,0,0,0,1.78-1.94,3.59,3.59,0,0,0-1.08-2.91Zm-1.47,4h0a1.62,1.62,0,0,1-1.14-.5,1.57,1.57,0,0,1-.45-1.14,1.62,1.62,0,0,1,1.62-1.57h0a1.6,1.6,0,0,1,1.14.5,1.56,1.56,0,0,1,.45,1.13A1.62,1.62,0,0,1,36.06,69.79Z"/><path d="M31.84,59.09a5.13,5.13,0,0,1,0-5.65,8.51,8.51,0,0,0,.75-1.39A7.31,7.31,0,0,0,32.84,51a2.46,2.46,0,0,1,.07-.29L32,50.6c-.1.22-.19.44-.28.66a10.78,10.78,0,0,1-.77,1.56A6.25,6.25,0,0,0,31,59.73a5,5,0,0,1,0,5.7,6.22,6.22,0,0,0-.34,6.6c.08.17.17.35.26.52a6.82,6.82,0,0,1,.95,2.89h1.05a7.44,7.44,0,0,0-1.15-3.58,5.18,5.18,0,0,1,.06-5.75A6.17,6.17,0,0,0,31.84,59.09Z"/><path d="M74.51,36.81h0a2.66,2.66,0,0,0,1.9-.79,2.68,2.68,0,0,0-1.91-4.57h0a2.71,2.71,0,0,0-1.89.8,2.63,2.63,0,0,0-.77,1.88A2.69,2.69,0,0,0,74.51,36.81Zm0-4.29a1.63,1.63,0,0,1,1.14.49,1.55,1.55,0,0,1,.45,1.14,1.6,1.6,0,0,1-1.61,1.58h0a1.56,1.56,0,0,1-1.14-.48,1.61,1.61,0,0,1,1.18-2.73Z"/><path d="M69,68.74a6.25,6.25,0,0,1,1.08-2.5A5.06,5.06,0,0,0,70.87,64l-1.07-.07a7,7,0,0,1-1,2.48l-.13.24a5.39,5.39,0,0,0-.12,5.52l.33.59a5.28,5.28,0,0,1,1,2.69H70.9v-.08a4.76,4.76,0,0,0-1-3A5,5,0,0,1,69,68.74Z"/></g></g></svg>