<svg xmlns="http://www.w3.org/2000/svg" viewBox="0 0 346.73 52.13"><defs><style>.cls-1{fill:#595757;}</style></defs><title>자산 223</title><g id="레이어_2" data-name="레이어 2"><g id="레이어_1-2" data-name="레이어 1"><path class="cls-1" d="M5.46,9.37H.34V.49h.87V8.66H5.46Z"/><path class="cls-1" d="M6.23.24h1V1.43h-1Zm.09,2.67h.87V9.37H6.32Z"/><path class="cls-1" d="M13.15,3.91v-1H14V8.83A2.86,2.86,0,0,1,11.09,12a4.62,4.62,0,0,1-2.22-.6l.32-.66a3.87,3.87,0,0,0,1.88.52c1.1,0,2.08-.75,2.08-2.49V8.32a2.41,2.41,0,0,1-2.08,1.06C9.4,9.38,8.24,8.19,8.24,6.1s1.1-3.38,2.84-3.38A2.36,2.36,0,0,1,13.15,3.91Zm-4,2.17c0,1.28.61,2.61,2,2.61s2-1.12,2-2.61V6c0-1.7-.86-2.63-2-2.63C9.75,3.41,9.14,4.74,9.14,6.08Z"/><path class="cls-1" d="M16.28,3.92a2.42,2.42,0,0,1,2-1.2,2.27,2.27,0,0,1,2.42,2.41V9.37h-.87V5.24a1.64,1.64,0,0,0-1.62-1.83,2.06,2.06,0,0,0-1.95,2.17V9.37h-.87V.24h.87Z"/><path class="cls-1" d="M22.3,1.22,23.17,1v2H24.7v.71H23.17V7.78c0,.85.64,1,1.41,1v.73c-1.37,0-2.28-.32-2.28-1.67V3.62h-.92V2.91h.92Z"/><path class="cls-1" d="M34.45,5.54H32.13v-.7h3.19V8.77a6.12,6.12,0,0,1-2.91.73c-2.55,0-4.21-2-4.21-4.57C28.2,2.21,30,.36,32.37.36A4.9,4.9,0,0,1,35,1l-.38.64a4.77,4.77,0,0,0-2.31-.58c-2.08,0-3.23,1.78-3.23,3.84s1.26,3.84,3.29,3.84a4.58,4.58,0,0,0,2-.45Z"/><path class="cls-1" d="M36.44.24h1V1.43h-1Zm.09,2.67h.87V9.37h-.87Z"/><path class="cls-1" d="M39.64,3.68a2.05,2.05,0,0,1,3.63.3,2.26,2.26,0,0,1,1.95-1.26A2.08,2.08,0,0,1,47.44,5V9.37h-.86V4.89A1.38,1.38,0,0,0,45.1,3.42a1.57,1.57,0,0,0-1.55,1.77V9.37h-.86V5a1.44,1.44,0,0,0-1.46-1.58,1.6,1.6,0,0,0-1.59,1.75v4.2h-.86V2.91h.86Z"/><path class="cls-1" d="M51.36,8.21a2.55,2.55,0,0,0,1.53.53c.91,0,1.48-.62,1.48-1.7V.49h.87V7.08a2.26,2.26,0,0,1-2.37,2.43,3.26,3.26,0,0,1-1.94-.63Z"/><path class="cls-1" d="M57,3.29a3.78,3.78,0,0,1,2.07-.58A2.11,2.11,0,0,1,61.17,4a3.41,3.41,0,0,1,.18,1.12v3a5.78,5.78,0,0,0,.12,1.3h-.83a5.74,5.74,0,0,1-.17-.78,2.52,2.52,0,0,1-2.07.9A2.1,2.1,0,0,1,56.21,7.4c0-1.58,1.18-2.27,3.17-2.27.35,0,.72,0,1.11.06l0-.19A1.42,1.42,0,0,0,59,3.42a3.14,3.14,0,0,0-1.66.5Zm3.51,2.57c-.36,0-.68,0-1,0-1.61,0-2.43.49-2.43,1.52a1.4,1.4,0,0,0,1.5,1.38,1.77,1.77,0,0,0,1.91-1.63Z"/><path class="cls-1" d="M65.54,2.72c1.8,0,2.86,1.33,2.86,3.42S67.26,9.5,65.59,9.5a2.53,2.53,0,0,1-2.1-1.11v1h-.87V.24h.87V3.91A2.38,2.38,0,0,1,65.54,2.72Zm0,.69c-1.17,0-2,.93-2,2.63v.1c0,1.49.66,2.67,2,2.67s2-1.39,2-2.67S66.89,3.41,65.52,3.41Z"/><path class="cls-1" d="M69.76,3.29a3.78,3.78,0,0,1,2.07-.58A2.11,2.11,0,0,1,74,4a3.16,3.16,0,0,1,.19,1.12v3a5.76,5.76,0,0,0,.11,1.3h-.83a5.74,5.74,0,0,1-.17-.78,2.5,2.5,0,0,1-2.07.9A2.09,2.09,0,0,1,69,7.4c0-1.58,1.17-2.27,3.16-2.27.35,0,.72,0,1.12.06V5a1.41,1.41,0,0,0-1.52-1.58,3.2,3.2,0,0,0-1.66.5Zm3.52,2.57c-.37,0-.68,0-1,0-1.61,0-2.42.49-2.42,1.52a1.39,1.39,0,0,0,1.49,1.38,1.78,1.78,0,0,0,1.92-1.63Z"/><path class="cls-1" d="M76.27,3.92a2.42,2.42,0,0,1,2-1.2,2.27,2.27,0,0,1,2.42,2.41V9.37h-.87V5.24a1.64,1.64,0,0,0-1.62-1.83,2,2,0,0,0-2,2.17V9.37H75.4V2.91h.87Z"/><path class="cls-1" d="M90.22,8.29l1.43-5.38h.83L90.66,9.37H89.8L88.35,3.9,86.91,9.37h-.86L84.22,2.91h.84l1.42,5.38L87.9,2.91h.91Z"/><path class="cls-1" d="M93.09.24h1V1.43h-1Zm.08,2.67H94V9.37h-.87Z"/><path class="cls-1" d="M95.74,1.22,96.61,1v2h1.53v.71H96.61V7.78c0,.85.65,1,1.41,1v.73c-1.37,0-2.28-.32-2.28-1.67V3.62h-.92V2.91h.92Z"/><path class="cls-1" d="M99.85,3.92a2.45,2.45,0,0,1,2-1.2,2.27,2.27,0,0,1,2.42,2.41V9.37h-.87V5.24a1.64,1.64,0,0,0-1.62-1.83,2.06,2.06,0,0,0-2,2.17V9.37H99V.24h.87Z"/><path class="cls-1" d="M109.37,3.68A2,2,0,0,1,113,4a2.27,2.27,0,0,1,2-1.26A2.09,2.09,0,0,1,117.17,5V9.37h-.86V4.89a1.38,1.38,0,0,0-1.48-1.47,1.57,1.57,0,0,0-1.56,1.77V9.37h-.86V5A1.43,1.43,0,0,0,111,3.42a1.6,1.6,0,0,0-1.59,1.75v4.2h-.86V2.91h.86Z"/><path class="cls-1" d="M118.32.24h1V1.43h-1Zm.08,2.67h.87V9.37h-.87Z"/><path class="cls-1" d="M121.53,3.92a2.4,2.4,0,0,1,2-1.2A2.27,2.27,0,0,1,126,5.13V9.37h-.87V5.24a1.64,1.64,0,0,0-1.62-1.83,2,2,0,0,0-2,2.17V9.37h-.87V2.91h.87Z"/><path class="cls-1" d="M127.16.24h1V1.43h-1Zm.08,2.67h.87V9.37h-.87Z"/><path class="cls-1" d="M130.36,3.68A2,2,0,0,1,134,4a2.27,2.27,0,0,1,2-1.26A2.08,2.08,0,0,1,138.16,5V9.37h-.86V4.89a1.38,1.38,0,0,0-1.48-1.47,1.57,1.57,0,0,0-1.56,1.77V9.37h-.85V5A1.44,1.44,0,0,0,132,3.42a1.6,1.6,0,0,0-1.59,1.75v4.2h-.86V2.91h.86Z"/><path class="cls-1" d="M139.7,3.29a3.75,3.75,0,0,1,2.07-.58A2.09,2.09,0,0,1,143.88,4a3.16,3.16,0,0,1,.19,1.12v3a5.25,5.25,0,0,0,.12,1.3h-.84a6.93,6.93,0,0,1-.16-.78,2.52,2.52,0,0,1-2.07.9,2.1,2.1,0,0,1-2.19-2.09c0-1.58,1.18-2.27,3.17-2.27.35,0,.71,0,1.11.06l0-.19a1.42,1.42,0,0,0-1.52-1.58,3.14,3.14,0,0,0-1.66.5Zm3.51,2.57c-.36,0-.68,0-1,0-1.62,0-2.43.49-2.43,1.52a1.4,1.4,0,0,0,1.5,1.38,1.77,1.77,0,0,0,1.91-1.63Z"/><path class="cls-1" d="M145.34.24h.87V9.37h-.87Z"/><path class="cls-1" d="M153.61,3.9a2.72,2.72,0,0,0-1.34-.46c-.78,0-1.18.39-1.18.91s.5.9,1.53,1.41,1.68,1,1.68,1.9a1.87,1.87,0,0,1-2.1,1.81A3,3,0,0,1,150,8.59l.48-.59a2.57,2.57,0,0,0,1.7.74c.71,0,1.3-.31,1.3-1s-.59-.94-1.31-1.27c-.88-.4-1.87-.9-1.87-2a1.72,1.72,0,0,1,1.93-1.71,3.2,3.2,0,0,1,1.81.58Z"/><path class="cls-1" d="M155.49,3.29a3.78,3.78,0,0,1,2.07-.58A2.11,2.11,0,0,1,159.68,4a3.4,3.4,0,0,1,.19,1.12v3a5.76,5.76,0,0,0,.11,1.3h-.83a5.74,5.74,0,0,1-.17-.78,2.5,2.5,0,0,1-2.07.9,2.1,2.1,0,0,1-2.19-2.09c0-1.58,1.18-2.27,3.17-2.27.35,0,.72,0,1.12.06V5a1.41,1.41,0,0,0-1.52-1.58,3.14,3.14,0,0,0-1.66.5ZM159,5.86c-.37,0-.69,0-1,0-1.61,0-2.42.49-2.42,1.52a1.39,1.39,0,0,0,1.49,1.38A1.78,1.78,0,0,0,159,7.09Z"/><path class="cls-1" d="M161.13.24H162V9.37h-.87Z"/><path class="cls-1" d="M163.7,1.22l.87-.27v2h1.53v.71h-1.53V7.78c0,.85.65,1,1.41,1v.73c-1.37,0-2.28-.32-2.28-1.67V3.62h-.92V2.91h.92Z"/><path class="cls-1" d="M174.86,8.72a3.07,3.07,0,0,1-2.13.77,3.16,3.16,0,0,1-3.19-3.35,3.13,3.13,0,0,1,3.21-3.41,4.14,4.14,0,0,1,2,.52l-.35.63a3.47,3.47,0,0,0-1.61-.43,2.4,2.4,0,0,0-2.31,2.7,2.41,2.41,0,0,0,2.34,2.62,2.76,2.76,0,0,0,1.66-.59Z"/><path class="cls-1" d="M178.26,2.73a3.08,3.08,0,0,1,3,3.39c0,2.08-1.3,3.39-3,3.39s-3-1.31-3-3.39S176.57,2.73,178.26,2.73Zm0,6.08c1.15,0,2.1-1,2.1-2.69s-1-2.69-2.1-2.69-2.1,1-2.1,2.69S177.12,8.81,178.26,8.81Z"/><path class="cls-1" d="M183.17,3.92a2.4,2.4,0,0,1,2-1.2,2.28,2.28,0,0,1,2.43,2.41V9.37h-.87V5.24a1.65,1.65,0,0,0-1.63-1.83,2,2,0,0,0-2,2.17V9.37h-.87V2.91h.87Z"/><path class="cls-1" d="M189.19,1.22l.87-.27v2h1.53v.71h-1.53V7.78c0,.85.65,1,1.42,1v.73c-1.37,0-2.29-.32-2.29-1.67V3.62h-.92V2.91h.92Z"/><path class="cls-1" d="M197.16,8.86a3.39,3.39,0,0,1-2,.64A3.09,3.09,0,0,1,192,6.21c0-2,1-3.46,2.89-3.46a2.79,2.79,0,0,1,2.73,3,4,4,0,0,1,0,.49h-4.71a2.32,2.32,0,0,0,2.31,2.54,2.78,2.78,0,0,0,1.63-.5Zm-.39-3.33a2,2,0,0,0-1.93-2.07,2.19,2.19,0,0,0-1.93,2.07Z"/><path class="cls-1" d="M199.44,3.92a2.39,2.39,0,0,1,2-1.2,2.27,2.27,0,0,1,2.42,2.41V9.37H203V5.24a1.64,1.64,0,0,0-1.62-1.83,2,2,0,0,0-1.95,2.17V9.37h-.88V2.91h.88Z"/><path class="cls-1" d="M205.46,1.22l.87-.27v2h1.53v.71h-1.53V7.78c0,.85.64,1,1.41,1v.73c-1.37,0-2.28-.32-2.28-1.67V3.62h-.92V2.91h.92Z"/><path class="cls-1" d="M212,1.22l.87-.27v2h1.53v.71h-1.53V7.78c0,.85.65,1,1.41,1v.73c-1.36,0-2.28-.32-2.28-1.67V3.62H211V2.91H212Z"/><path class="cls-1" d="M216.06,3.92a2.45,2.45,0,0,1,2-1.2,2.27,2.27,0,0,1,2.42,2.41V9.37h-.87V5.24A1.64,1.64,0,0,0,218,3.41a2.06,2.06,0,0,0-2,2.17V9.37h-.87V.24h.87Z"/><path class="cls-1" d="M222.08,3.29a3.78,3.78,0,0,1,2.07-.58A2.1,2.1,0,0,1,226.27,4a3.16,3.16,0,0,1,.19,1.12v3a5.25,5.25,0,0,0,.12,1.3h-.84a6.93,6.93,0,0,1-.16-.78,2.52,2.52,0,0,1-2.07.9,2.1,2.1,0,0,1-2.19-2.09c0-1.58,1.18-2.27,3.16-2.27.36,0,.72,0,1.12.06V5a1.41,1.41,0,0,0-1.51-1.58,3.14,3.14,0,0,0-1.66.5Zm3.52,2.57c-.36,0-.68,0-1,0-1.61,0-2.42.49-2.42,1.52a1.4,1.4,0,0,0,1.5,1.38,1.77,1.77,0,0,0,1.91-1.63Z"/><path class="cls-1" d="M228,1.22l.87-.27v2h1.53v.71h-1.53V7.78c0,.85.64,1,1.41,1v.73C229,9.5,228,9.19,228,7.84V3.62h-.92V2.91H228Z"/><path class="cls-1" d="M239.2,8.72a3.07,3.07,0,0,1-2.13.77,3.15,3.15,0,0,1-3.19-3.35,3.13,3.13,0,0,1,3.21-3.41,4.1,4.1,0,0,1,1.95.52l-.34.63a3.47,3.47,0,0,0-1.61-.43,2.41,2.41,0,0,0-2.32,2.7,2.42,2.42,0,0,0,2.34,2.62,2.73,2.73,0,0,0,1.66-.59Z"/><path class="cls-1" d="M240.82,3.92a2.42,2.42,0,0,1,2-1.2,2.28,2.28,0,0,1,2.43,2.41V9.37h-.87V5.24a1.65,1.65,0,0,0-1.63-1.83,2.06,2.06,0,0,0-2,2.17V9.37H240V.24h.87Z"/><path class="cls-1" d="M246.45.24h1V1.43h-1Zm.08,2.67h.87V9.37h-.87Z"/><path class="cls-1" d="M248.79.24h.87V9.37h-.87Z"/><path class="cls-1" d="M255.63,3.91V.24h.87V9.37h-.87v-1a2.53,2.53,0,0,1-2.1,1.11c-1.67,0-2.81-1.25-2.81-3.36s1.06-3.42,2.86-3.42A2.38,2.38,0,0,1,255.63,3.91Zm-4,2.23c0,1.28.62,2.67,2,2.67s2-1.18,2-2.67V6c0-1.7-.86-2.63-2-2.63C252.23,3.41,251.61,4.8,251.61,6.14Z"/><path class="cls-1" d="M258.75,4a2.21,2.21,0,0,1,2-1.31,1.42,1.42,0,0,1,.29,0v.79a2.85,2.85,0,0,0-.29,0,2,2,0,0,0-2,2v3.9h-.87V2.91h.87Z"/><path class="cls-1" d="M266.23,8.86a3.33,3.33,0,0,1-2,.64,3.09,3.09,0,0,1-3.15-3.29c0-2,1-3.46,2.89-3.46a2.79,2.79,0,0,1,2.73,3,4,4,0,0,1,0,.49H262a2.32,2.32,0,0,0,2.31,2.54,2.78,2.78,0,0,0,1.63-.5Zm-.39-3.33a2,2,0,0,0-1.93-2.07A2.19,2.19,0,0,0,262,5.53Z"/><path class="cls-1" d="M268.51,3.92a2.41,2.41,0,0,1,2-1.2A2.27,2.27,0,0,1,273,5.13V9.37h-.87V5.24a1.65,1.65,0,0,0-1.62-1.83,2,2,0,0,0-2,2.17V9.37h-.87V2.91h.87Z"/><path class="cls-1" d="M282.14,8.72a3,3,0,0,1-2.13.77,3.15,3.15,0,0,1-3.18-3.35A3.12,3.12,0,0,1,280,2.73a4.13,4.13,0,0,1,1.95.52l-.34.63A3.51,3.51,0,0,0,280,3.45a2.4,2.4,0,0,0-2.32,2.7,2.42,2.42,0,0,0,2.34,2.62,2.73,2.73,0,0,0,1.66-.59Z"/><path class="cls-1" d="M283.2,3.29a3.78,3.78,0,0,1,2.07-.58A2.11,2.11,0,0,1,287.39,4a3.16,3.16,0,0,1,.19,1.12v3a5.76,5.76,0,0,0,.11,1.3h-.83c-.09-.3-.17-.78-.17-.78a2.5,2.5,0,0,1-2.07.9,2.09,2.09,0,0,1-2.18-2.09c0-1.58,1.17-2.27,3.16-2.27.35,0,.72,0,1.12.06V5a1.41,1.41,0,0,0-1.52-1.58,3.2,3.2,0,0,0-1.66.5Zm3.52,2.57c-.37,0-.68,0-1,0-1.61,0-2.42.49-2.42,1.52a1.39,1.39,0,0,0,1.49,1.38,1.78,1.78,0,0,0,1.92-1.63Z"/><path class="cls-1" d="M289.72,3.92a2.4,2.4,0,0,1,2-1.2,2.27,2.27,0,0,1,2.42,2.41V9.37h-.87V5.24a1.64,1.64,0,0,0-1.62-1.83,2,2,0,0,0-1.95,2.17V9.37h-.87V2.91h.87Z"/><path class="cls-1" d="M301.44,3.9a2.72,2.72,0,0,0-1.34-.46c-.78,0-1.18.39-1.18.91s.5.9,1.53,1.41,1.69,1,1.69,1.9A1.87,1.87,0,0,1,300,9.47a3,3,0,0,1-2.21-.88l.47-.59a2.59,2.59,0,0,0,1.7.74c.71,0,1.3-.31,1.3-1s-.59-.94-1.31-1.27c-.88-.4-1.87-.9-1.87-2A1.72,1.72,0,0,1,300,2.71a3.17,3.17,0,0,1,1.81.58Z"/><path class="cls-1" d="M303.32,3.29a3.78,3.78,0,0,1,2.07-.58A2.11,2.11,0,0,1,307.51,4a3.16,3.16,0,0,1,.19,1.12v3a5.25,5.25,0,0,0,.12,1.3H307a6.93,6.93,0,0,1-.16-.78,2.52,2.52,0,0,1-2.08.9,2.09,2.09,0,0,1-2.18-2.09c0-1.58,1.17-2.27,3.16-2.27.35,0,.72,0,1.12.06V5a1.41,1.41,0,0,0-1.52-1.58,3.2,3.2,0,0,0-1.66.5Zm3.52,2.57c-.37,0-.68,0-1,0-1.61,0-2.42.49-2.42,1.52a1.39,1.39,0,0,0,1.49,1.38,1.78,1.78,0,0,0,1.92-1.63Z"/><path class="cls-1" d="M309.26,2.91V2.16a3.66,3.66,0,0,1,.12-1A1.61,1.61,0,0,1,311,0a3.36,3.36,0,0,1,1.14.21l-.25.69a2.41,2.41,0,0,0-.77-.16.85.85,0,0,0-.87.57,2.19,2.19,0,0,0-.11.81v.79h1.37v.71h-1.37V9.37h-.87V3.62h-.91V2.91Z"/><path class="cls-1" d="M317.35,8.86a3.33,3.33,0,0,1-2,.64,3.09,3.09,0,0,1-3.15-3.29c0-2,1-3.46,2.89-3.46a2.79,2.79,0,0,1,2.73,3,4,4,0,0,1,0,.49h-4.71a2.32,2.32,0,0,0,2.31,2.54,2.78,2.78,0,0,0,1.63-.5ZM317,5.53A2,2,0,0,0,315,3.46a2.19,2.19,0,0,0-1.92,2.07Z"/><path class="cls-1" d="M318.76.24h.87V9.37h-.87Z"/><path class="cls-1" d="M320.46,11.39a2.66,2.66,0,0,0,2.18-2.07l-2.37-6.41h.93l1.89,5.35,1.84-5.35h.92l-2.1,5.93c-.69,1.95-1.15,2.88-3,3.29Z"/><path class="cls-1" d="M334.17,8.86a3.38,3.38,0,0,1-2,.64A3.1,3.1,0,0,1,329,6.21c0-2,1-3.46,2.9-3.46a2.79,2.79,0,0,1,2.73,3,2.69,2.69,0,0,1,0,.49h-4.7a2.3,2.3,0,0,0,2.3,2.54,2.79,2.79,0,0,0,1.64-.5Zm-.39-3.33a2,2,0,0,0-1.93-2.07,2.21,2.21,0,0,0-1.93,2.07Z"/><path class="cls-1" d="M335.88,3.29A3.78,3.78,0,0,1,338,2.71,2.1,2.1,0,0,1,340.07,4a3.16,3.16,0,0,1,.19,1.12v3a5.25,5.25,0,0,0,.12,1.3h-.84a6.93,6.93,0,0,1-.16-.78,2.52,2.52,0,0,1-2.07.9,2.1,2.1,0,0,1-2.19-2.09c0-1.58,1.18-2.27,3.16-2.27.36,0,.72,0,1.12.06V5a1.41,1.41,0,0,0-1.51-1.58,3.14,3.14,0,0,0-1.66.5Zm3.52,2.57c-.36,0-.68,0-1,0-1.61,0-2.42.49-2.42,1.52a1.39,1.39,0,0,0,1.49,1.38,1.78,1.78,0,0,0,1.92-1.63Z"/><path class="cls-1" d="M341.83,1.22l.88-.27v2h1.52v.71h-1.52V7.78c0,.85.64,1,1.41,1v.73c-1.37,0-2.29-.32-2.29-1.67V3.62h-.91V2.91h.91Z"/><path class="cls-1" d="M345.06,8.74h1.26V10h-1.26Z"/><path class="cls-1" d="M2.91,20.49a2.74,2.74,0,1,1,0,5.47h-2v3.41H0V20.49Zm-2,.71v4h2a2,2,0,0,0,0-4Z"/><path class="cls-1" d="M7.64,24a2.21,2.21,0,0,1,2-1.31,1.37,1.37,0,0,1,.28,0v.79l-.28,0a2,2,0,0,0-2,2v3.9H6.77V22.91h.87Z"/><path class="cls-1" d="M15.13,28.86a3.39,3.39,0,0,1-2,.64A3.09,3.09,0,0,1,10,26.21c0-2,1-3.46,2.89-3.46a2.79,2.79,0,0,1,2.73,3,4,4,0,0,1,0,.49H10.84a2.32,2.32,0,0,0,2.31,2.54,2.78,2.78,0,0,0,1.63-.5Zm-.39-3.33a2,2,0,0,0-1.93-2.07,2.19,2.19,0,0,0-1.93,2.07Z"/><path class="cls-1" d="M17.39,23.68A2.05,2.05,0,0,1,21,24,2.26,2.26,0,0,1,23,22.72,2.08,2.08,0,0,1,25.19,25v4.42h-.85V24.89a1.38,1.38,0,0,0-1.49-1.47,1.57,1.57,0,0,0-1.55,1.77v4.18h-.86V25A1.44,1.44,0,0,0,19,23.42a1.6,1.6,0,0,0-1.59,1.75v4.2h-.86V22.91h.86Z"/><path class="cls-1" d="M26.34,20.24h1v1.19h-1Zm.09,2.67h.87v6.46h-.87Z"/><path class="cls-1" d="M33.07,28.3a2.4,2.4,0,0,1-2,1.2,2.28,2.28,0,0,1-2.43-2.41V22.91h.87V27a1.65,1.65,0,0,0,1.63,1.83,2,2,0,0,0,1.95-2.17V22.91h.87v6.46h-.87Z"/><path class="cls-1" d="M36.13,23.68a2,2,0,0,1,3.62.3,2.27,2.27,0,0,1,2-1.26A2.09,2.09,0,0,1,43.93,25v4.42h-.86V24.89a1.38,1.38,0,0,0-1.48-1.47A1.57,1.57,0,0,0,40,25.19v4.18h-.86V25a1.43,1.43,0,0,0-1.45-1.58,1.6,1.6,0,0,0-1.59,1.75v4.2h-.86V22.91h.86Z"/><path class="cls-1" d="M49,23.92a2.42,2.42,0,0,1,2-1.2,2.28,2.28,0,0,1,2.43,2.41v4.24h-.87V25.24a1.65,1.65,0,0,0-1.63-1.83,2.06,2.06,0,0,0-2,2.17v3.79H48.1V20.24H49Z"/><path class="cls-1" d="M54.6,20.24h1v1.19h-1Zm.08,2.67h.87v6.46h-.87Z"/><path class="cls-1" d="M61.52,23.91v-1h.87v5.92A2.87,2.87,0,0,1,59.46,32a4.62,4.62,0,0,1-2.22-.6l.31-.66a3.93,3.93,0,0,0,1.89.52c1.1,0,2.08-.75,2.08-2.49v-.48a2.41,2.41,0,0,1-2.08,1.06c-1.67,0-2.83-1.19-2.83-3.28s1.1-3.38,2.84-3.38A2.36,2.36,0,0,1,61.52,23.91Zm-4,2.17c0,1.28.61,2.61,2,2.61s2-1.12,2-2.61v0c0-1.7-.86-2.63-2-2.63C58.12,23.41,57.51,24.74,57.51,26.08Z"/><path class="cls-1" d="M64.64,23.92a2.45,2.45,0,0,1,2-1.2,2.27,2.27,0,0,1,2.42,2.41v4.24h-.87V25.24a1.64,1.64,0,0,0-1.62-1.83,2.06,2.06,0,0,0-2,2.17v3.79h-.87V20.24h.87Z"/><path class="cls-1" d="M70,25.38v-.77h5.38v.77Z"/><path class="cls-1" d="M81,23.91v-1h.87v9.2H81V28.39A2.49,2.49,0,0,1,79,29.5c-1.73,0-2.84-1.26-2.84-3.35s1.1-3.43,2.86-3.43A2.35,2.35,0,0,1,81,23.91Zm-4,2.23c0,1.28.61,2.67,2,2.67s2-1.18,2-2.67V26c0-1.7-.86-2.63-2-2.63C77.63,23.41,77,24.8,77,26.14Z"/><path class="cls-1" d="M87.67,28.3a2.4,2.4,0,0,1-2,1.2,2.27,2.27,0,0,1-2.42-2.41V22.91h.87V27a1.64,1.64,0,0,0,1.62,1.83,2,2,0,0,0,2-2.17V22.91h.87v6.46h-.87Z"/><path class="cls-1" d="M90.18,23.29a3.73,3.73,0,0,1,2.07-.58A2.09,2.09,0,0,1,94.36,24a3.16,3.16,0,0,1,.19,1.12v3a5.25,5.25,0,0,0,.12,1.3h-.84a6.93,6.93,0,0,1-.16-.78,2.52,2.52,0,0,1-2.07.9,2.1,2.1,0,0,1-2.19-2.09c0-1.58,1.18-2.27,3.16-2.27.36,0,.72,0,1.12.06V25a1.41,1.41,0,0,0-1.51-1.58,3.14,3.14,0,0,0-1.66.5Zm3.51,2.57c-.36,0-.68,0-1,0-1.61,0-2.42.49-2.42,1.52a1.39,1.39,0,0,0,1.49,1.38,1.78,1.78,0,0,0,1.92-1.63Z"/><path class="cls-1" d="M95.82,20.24h.87v9.13h-.87Z"/><path class="cls-1" d="M98,20.24h1v1.19H98Zm.08,2.67H99v6.46h-.87Z"/><path class="cls-1" d="M100.64,21.22l.87-.27v2H103v.71h-1.53v4.16c0,.85.65,1,1.41,1v.73c-1.36,0-2.28-.32-2.28-1.67V23.62h-.92v-.71h.92Z"/><path class="cls-1" d="M103.32,31.39a2.67,2.67,0,0,0,2.19-2.07l-2.38-6.41h.93l1.9,5.35,1.83-5.35h.93l-2.1,5.93c-.7,1.95-1.16,2.88-3,3.29Z"/><path class="cls-1" d="M115.27,23.9a2.72,2.72,0,0,0-1.34-.46c-.78,0-1.18.39-1.18.91s.5.9,1.53,1.41,1.69,1,1.69,1.9a1.87,1.87,0,0,1-2.11,1.81,3,3,0,0,1-2.21-.88l.47-.59a2.59,2.59,0,0,0,1.7.74c.71,0,1.3-.31,1.3-1s-.59-.94-1.31-1.27c-.88-.4-1.87-.9-1.87-2a1.72,1.72,0,0,1,1.93-1.71,3.17,3.17,0,0,1,1.81.58Z"/><path class="cls-1" d="M121.68,28.86a3.33,3.33,0,0,1-2,.64,3.09,3.09,0,0,1-3.15-3.29c0-2,1-3.46,2.89-3.46a2.79,2.79,0,0,1,2.73,3,2.69,2.69,0,0,1,0,.49h-4.7a2.31,2.31,0,0,0,2.3,2.54,2.79,2.79,0,0,0,1.64-.5Zm-.39-3.33a2,2,0,0,0-1.93-2.07,2.21,2.21,0,0,0-1.93,2.07Z"/><path class="cls-1" d="M123.4,23.29a3.75,3.75,0,0,1,2.07-.58A2.09,2.09,0,0,1,127.58,24a3.16,3.16,0,0,1,.19,1.12v3a5.25,5.25,0,0,0,.12,1.3h-.83a5.74,5.74,0,0,1-.17-.78,2.52,2.52,0,0,1-2.07.9,2.1,2.1,0,0,1-2.19-2.09c0-1.58,1.18-2.27,3.17-2.27.35,0,.71,0,1.11.06l0-.19a1.42,1.42,0,0,0-1.52-1.58,3.14,3.14,0,0,0-1.66.5Zm3.51,2.57c-.36,0-.68,0-1,0-1.62,0-2.43.49-2.43,1.52a1.4,1.4,0,0,0,1.5,1.38,1.77,1.77,0,0,0,1.91-1.63Z"/><path class="cls-1" d="M134.34,28.29l1.42-5.38h.83l-1.82,6.46h-.86l-1.45-5.47L131,29.37h-.86l-1.82-6.46h.83l1.42,5.38L132,22.91h.91Z"/><path class="cls-1" d="M142.12,28.86a3.36,3.36,0,0,1-2,.64,3.1,3.1,0,0,1-3.16-3.29c0-2,1-3.46,2.9-3.46a2.79,2.79,0,0,1,2.73,3,2.69,2.69,0,0,1,0,.49h-4.7a2.3,2.3,0,0,0,2.3,2.54,2.79,2.79,0,0,0,1.64-.5Zm-.39-3.33a2,2,0,0,0-1.93-2.07,2.21,2.21,0,0,0-1.93,2.07Z"/><path class="cls-1" d="M148.36,28.86a3.33,3.33,0,0,1-2,.64,3.09,3.09,0,0,1-3.15-3.29c0-2,1-3.46,2.89-3.46a2.79,2.79,0,0,1,2.73,3,4,4,0,0,1,0,.49h-4.71a2.32,2.32,0,0,0,2.31,2.54,2.78,2.78,0,0,0,1.63-.5ZM148,25.53a2,2,0,0,0-1.93-2.07,2.19,2.19,0,0,0-1.93,2.07Z"/><path class="cls-1" d="M154.35,23.91V20.24h.87v9.13h-.87v-1a2.51,2.51,0,0,1-2.09,1.11c-1.67,0-2.82-1.25-2.82-3.36s1.06-3.42,2.86-3.42A2.37,2.37,0,0,1,154.35,23.91Zm-4,2.23c0,1.28.61,2.67,2,2.67s2-1.18,2-2.67V26c0-1.7-.86-2.63-2-2.63C151,23.41,150.34,24.8,150.34,26.14Z"/><path class="cls-1" d="M159.84,22.91v-.75a3.66,3.66,0,0,1,.12-1A1.61,1.61,0,0,1,161.57,20a3.36,3.36,0,0,1,1.14.21l-.25.69a2.41,2.41,0,0,0-.77-.16.85.85,0,0,0-.87.57,2.19,2.19,0,0,0-.11.81v.79h1.37v.71h-1.37v5.75h-.87V23.62h-.91v-.71Z"/><path class="cls-1" d="M167.49,28.3a2.41,2.41,0,0,1-2,1.2A2.27,2.27,0,0,1,163,27.09V22.91h.87V27a1.64,1.64,0,0,0,1.62,1.83,2,2,0,0,0,2-2.17V22.91h.87v6.46h-.87Z"/><path class="cls-1" d="M169.68,20.24h.87v9.13h-.87Z"/><path class="cls-1" d="M171.94,20.24h.87v9.13h-.87Z"/><path class="cls-1" d="M179.79,22.73a3.08,3.08,0,0,1,3,3.39c0,2.08-1.3,3.39-3,3.39s-3-1.31-3-3.39S178.1,22.73,179.79,22.73Zm0,6.08c1.15,0,2.1-1,2.1-2.69s-.95-2.69-2.1-2.69-2.1,1-2.1,2.69S178.64,28.81,179.79,28.81Z"/><path class="cls-1" d="M184.12,22.91v-.75a3.66,3.66,0,0,1,.12-1A1.62,1.62,0,0,1,185.85,20a3.36,3.36,0,0,1,1.14.21l-.24.69a2.47,2.47,0,0,0-.78-.16.85.85,0,0,0-.87.57,2.19,2.19,0,0,0-.11.81v.79h1.37v.71H185v5.75h-.87V23.62h-.9v-.71Z"/><path class="cls-1" d="M190.63,21.22l.87-.27v2H193v.71H191.5v4.16c0,.85.65,1,1.41,1v.73c-1.37,0-2.28-.32-2.28-1.67V23.62h-.92v-.71h.92Z"/><path class="cls-1" d="M194.74,23.92a2.44,2.44,0,0,1,2-1.2,2.27,2.27,0,0,1,2.42,2.41v4.24h-.87V25.24a1.64,1.64,0,0,0-1.62-1.83,2.06,2.06,0,0,0-2,2.17v3.79h-.87V20.24h.87Z"/><path class="cls-1" d="M205.29,28.86a3.33,3.33,0,0,1-2,.64,3.09,3.09,0,0,1-3.15-3.29c0-2,1-3.46,2.89-3.46a2.79,2.79,0,0,1,2.73,3,4,4,0,0,1,0,.49H201a2.32,2.32,0,0,0,2.31,2.54,2.78,2.78,0,0,0,1.63-.5Zm-.39-3.33A2,2,0,0,0,203,23.46a2.19,2.19,0,0,0-1.93,2.07Z"/><path class="cls-1" d="M212.71,23.9a2.72,2.72,0,0,0-1.34-.46c-.77,0-1.17.39-1.17.91s.49.9,1.53,1.41,1.68,1,1.68,1.9a1.87,1.87,0,0,1-2.11,1.81,3,3,0,0,1-2.21-.88l.47-.59a2.59,2.59,0,0,0,1.71.74c.7,0,1.29-.31,1.29-1s-.59-.94-1.31-1.27c-.88-.4-1.87-.9-1.87-2a1.72,1.72,0,0,1,1.93-1.71,3.17,3.17,0,0,1,1.81.58Z"/><path class="cls-1" d="M214.59,23.29a3.78,3.78,0,0,1,2.07-.58A2.1,2.1,0,0,1,218.78,24,3.16,3.16,0,0,1,219,25.1v3a5.25,5.25,0,0,0,.12,1.3h-.84a6.93,6.93,0,0,1-.16-.78,2.52,2.52,0,0,1-2.07.9,2.1,2.1,0,0,1-2.19-2.09c0-1.58,1.18-2.27,3.16-2.27.36,0,.72,0,1.12.06V25a1.41,1.41,0,0,0-1.52-1.58,3.14,3.14,0,0,0-1.65.5Zm3.52,2.57c-.36,0-.68,0-1,0-1.61,0-2.42.49-2.42,1.52a1.39,1.39,0,0,0,1.49,1.38,1.78,1.78,0,0,0,1.92-1.63Z"/><path class="cls-1" d="M222.25,28.38l1.94-5.47h.93l-2.4,6.46h-.94l-2.4-6.46h.93Z"/><path class="cls-1" d="M228.22,22.73a3.07,3.07,0,0,1,3,3.39c0,2.08-1.29,3.39-3,3.39s-3-1.31-3-3.39S226.54,22.73,228.22,22.73Zm0,6.08c1.16,0,2.11-1,2.11-2.69s-1-2.69-2.11-2.69-2.09,1-2.09,2.69S227.08,28.81,228.22,28.81Z"/><path class="cls-1" d="M233.14,24a2.21,2.21,0,0,1,2-1.31,1.32,1.32,0,0,1,.28,0v.79l-.28,0a2,2,0,0,0-2,2v3.9h-.87V22.91h.87Z"/><path class="cls-1" d="M235.51,31.39a2.66,2.66,0,0,0,2.19-2.07l-2.37-6.41h.93l1.89,5.35L240,22.91h.93l-2.1,5.93c-.7,1.95-1.15,2.88-3,3.29Z"/><path class="cls-1" d="M244.7,21.22l.87-.27v2h1.53v.71h-1.53v4.16c0,.85.65,1,1.41,1v.73c-1.36,0-2.28-.32-2.28-1.67V23.62h-.92v-.71h.92Z"/><path class="cls-1" d="M248,23.29a3.75,3.75,0,0,1,2.07-.58A2.09,2.09,0,0,1,252.2,24a3.16,3.16,0,0,1,.19,1.12v3a5.25,5.25,0,0,0,.12,1.3h-.84a6.93,6.93,0,0,1-.16-.78,2.52,2.52,0,0,1-2.07.9,2.1,2.1,0,0,1-2.19-2.09c0-1.58,1.18-2.27,3.17-2.27.35,0,.71,0,1.11.06V25A1.41,1.41,0,0,0,250,23.42a3.14,3.14,0,0,0-1.66.5Zm3.51,2.57c-.36,0-.68,0-1,0-1.61,0-2.42.49-2.42,1.52a1.4,1.4,0,0,0,1.5,1.38,1.77,1.77,0,0,0,1.91-1.63Z"/><path class="cls-1" d="M256.73,23.9a2.72,2.72,0,0,0-1.34-.46c-.78,0-1.18.39-1.18.91s.5.9,1.53,1.41,1.68,1,1.68,1.9a1.87,1.87,0,0,1-2.1,1.81,3,3,0,0,1-2.21-.88l.47-.59a2.57,2.57,0,0,0,1.7.74c.71,0,1.3-.31,1.3-1s-.59-.94-1.31-1.27c-.88-.4-1.87-.9-1.87-2a1.72,1.72,0,0,1,1.93-1.71,3.2,3.2,0,0,1,1.81.58Z"/><path class="cls-1" d="M258.61,21.22l.87-.27v2H261v.71h-1.53v4.16c0,.85.65,1,1.41,1v.73c-1.36,0-2.28-.32-2.28-1.67V23.62h-.92v-.71h.92Z"/><path class="cls-1" d="M266.57,28.86a3.33,3.33,0,0,1-2,.64,3.09,3.09,0,0,1-3.15-3.29c0-2,1-3.46,2.89-3.46a2.79,2.79,0,0,1,2.73,3,4,4,0,0,1,0,.49h-4.71a2.32,2.32,0,0,0,2.31,2.54,2.78,2.78,0,0,0,1.63-.5Zm-.38-3.33a2,2,0,0,0-1.93-2.07,2.19,2.19,0,0,0-1.93,2.07Z"/><path class="cls-1" d="M273.57,22.73a3.08,3.08,0,0,1,3,3.39c0,2.08-1.29,3.39-3,3.39s-3-1.31-3-3.39S271.89,22.73,273.57,22.73Zm0,6.08c1.15,0,2.11-1,2.11-2.69s-1-2.69-2.11-2.69-2.09,1-2.09,2.69S272.43,28.81,273.57,28.81Z"/><path class="cls-1" d="M277.91,22.91v-.75a3.32,3.32,0,0,1,.12-1A1.61,1.61,0,0,1,279.64,20a3.36,3.36,0,0,1,1.14.21l-.25.69a2.41,2.41,0,0,0-.77-.16.85.85,0,0,0-.87.57,2,2,0,0,0-.11.81v.79h1.36v.71h-1.36v5.75h-.87V23.62H277v-.71Z"/><path class="cls-1" d="M287.18,23.9a2.75,2.75,0,0,0-1.34-.46c-.78,0-1.18.39-1.18.91s.49.9,1.53,1.41,1.68,1,1.68,1.9a1.87,1.87,0,0,1-2.1,1.81,3,3,0,0,1-2.22-.88L284,28a2.59,2.59,0,0,0,1.71.74c.71,0,1.29-.31,1.29-1s-.58-.94-1.3-1.27c-.88-.4-1.87-.9-1.87-2a1.72,1.72,0,0,1,1.93-1.71,3.22,3.22,0,0,1,1.81.58Z"/><path class="cls-1" d="M293.59,28.86a3.39,3.39,0,0,1-2,.64,3.09,3.09,0,0,1-3.15-3.29c0-2,1-3.46,2.89-3.46a2.79,2.79,0,0,1,2.73,3,4,4,0,0,1,0,.49H289.3a2.32,2.32,0,0,0,2.31,2.54,2.84,2.84,0,0,0,1.64-.5Zm-.39-3.33a2,2,0,0,0-1.93-2.07,2.19,2.19,0,0,0-1.93,2.07Z"/><path class="cls-1" d="M295.3,23.29a3.78,3.78,0,0,1,2.07-.58A2.11,2.11,0,0,1,299.49,24a3.16,3.16,0,0,1,.19,1.12v3a5.25,5.25,0,0,0,.12,1.3H299a6.93,6.93,0,0,1-.16-.78,2.52,2.52,0,0,1-2.07.9,2.1,2.1,0,0,1-2.19-2.09c0-1.58,1.17-2.27,3.16-2.27.35,0,.72,0,1.12.06V25a1.41,1.41,0,0,0-1.52-1.58,3.2,3.2,0,0,0-1.66.5Zm3.52,2.57c-.37,0-.68,0-1,0-1.61,0-2.42.49-2.42,1.52a1.39,1.39,0,0,0,1.49,1.38,1.78,1.78,0,0,0,1.92-1.63Z"/><path class="cls-1" d="M301.24,22.91v-.75a3.66,3.66,0,0,1,.12-1A1.61,1.61,0,0,1,303,20a3.36,3.36,0,0,1,1.14.21l-.25.69a2.41,2.41,0,0,0-.77-.16.85.85,0,0,0-.87.57,2.19,2.19,0,0,0-.11.81v.79h1.37v.71h-1.37v5.75h-.87V23.62h-.91v-.71Z"/><path class="cls-1" d="M306.85,22.73a3.08,3.08,0,0,1,3,3.39c0,2.08-1.29,3.39-3,3.39s-3-1.31-3-3.39S305.17,22.73,306.85,22.73Zm0,6.08c1.15,0,2.11-1,2.11-2.69s-1-2.69-2.11-2.69-2.09,1-2.09,2.69S305.71,28.81,306.85,28.81Z"/><path class="cls-1" d="M313.54,22.73a3.08,3.08,0,0,1,3,3.39c0,2.08-1.29,3.39-3,3.39s-3-1.31-3-3.39S311.86,22.73,313.54,22.73Zm0,6.08c1.15,0,2.11-1,2.11-2.69s-1-2.69-2.11-2.69-2.09,1-2.09,2.69S312.4,28.81,313.54,28.81Z"/><path class="cls-1" d="M322.16,23.91V20.24H323v9.13h-.87v-1a2.51,2.51,0,0,1-2.09,1.11c-1.67,0-2.81-1.25-2.81-3.36s1.06-3.42,2.86-3.42A2.35,2.35,0,0,1,322.16,23.91Zm-4,2.23c0,1.28.61,2.67,2,2.67s2-1.18,2-2.67V26c0-1.7-.86-2.63-2-2.63C318.76,23.41,318.15,24.8,318.15,26.14Z"/><path class="cls-1" d="M332.65,28.29l1.43-5.38h.83l-1.82,6.46h-.86l-1.45-5.47-1.44,5.47h-.86l-1.83-6.46h.84l1.42,5.38,1.41-5.38h.92Z"/><path class="cls-1" d="M335.52,20.24h1v1.19h-1Zm.08,2.67h.87v6.46h-.87Z"/><path class="cls-1" d="M338.17,21.22,339,21v2h1.53v.71H339v4.16c0,.85.64,1,1.41,1v.73c-1.37,0-2.28-.32-2.28-1.67V23.62h-.92v-.71h.92Z"/><path class="cls-1" d="M342.28,23.92a2.44,2.44,0,0,1,2-1.2,2.27,2.27,0,0,1,2.42,2.41v4.24h-.87V25.24a1.65,1.65,0,0,0-1.63-1.83,2.06,2.06,0,0,0-2,2.17v3.79h-.87V20.24h.87Z"/><path class="cls-1" d="M12.6,44.33l3.88-3.84h1.21l-4.25,4.16,4.84,4.72H17.05L12.6,45v4.37h-.88V40.49h.88Z"/><path class="cls-1" d="M20.93,42.73a3.08,3.08,0,0,1,3,3.39c0,2.08-1.29,3.39-3,3.39s-3-1.31-3-3.39S19.25,42.73,20.93,42.73Zm0,6.08c1.16,0,2.11-1,2.11-2.69s-.95-2.69-2.11-2.69-2.09,1-2.09,2.69S19.79,48.81,20.93,48.81Z"/><path class="cls-1" d="M25.85,44a2.21,2.21,0,0,1,2-1.31,1.32,1.32,0,0,1,.28,0v.79l-.28,0a2,2,0,0,0-2,2v3.9H25V42.91h.87Z"/><path class="cls-1" d="M33.33,48.86a3.36,3.36,0,0,1-2,.64,3.1,3.1,0,0,1-3.16-3.29c0-2,1-3.46,2.9-3.46a2.79,2.79,0,0,1,2.73,3,2.69,2.69,0,0,1,0,.49h-4.7a2.3,2.3,0,0,0,2.3,2.54,2.79,2.79,0,0,0,1.64-.5Zm-.39-3.33A2,2,0,0,0,31,43.46a2.21,2.21,0,0,0-1.93,2.07Z"/><path class="cls-1" d="M35.05,43.29a3.73,3.73,0,0,1,2.07-.58A2.09,2.09,0,0,1,39.23,44a3.16,3.16,0,0,1,.19,1.12v3a5.25,5.25,0,0,0,.12,1.3H38.7a6.93,6.93,0,0,1-.16-.78,2.52,2.52,0,0,1-2.07.9,2.1,2.1,0,0,1-2.19-2.09c0-1.58,1.18-2.27,3.16-2.27.36,0,.72,0,1.12.06V45a1.41,1.41,0,0,0-1.51-1.58,3.14,3.14,0,0,0-1.66.5Zm3.51,2.57c-.36,0-.68,0-1,0-1.61,0-2.42.49-2.42,1.52a1.4,1.4,0,0,0,1.5,1.38,1.77,1.77,0,0,0,1.91-1.63Z"/><path class="cls-1" d="M41.56,43.92a2.4,2.4,0,0,1,2-1.2A2.28,2.28,0,0,1,46,45.13v4.24h-.87V45.24a1.65,1.65,0,0,0-1.63-1.83,2,2,0,0,0-1.95,2.17v3.79h-.87V42.91h.87Z"/><path class="cls-1" d="M50.21,40.24h.88v9.13h-.88Z"/><path class="cls-1" d="M52.78,43.29a3.78,3.78,0,0,1,2.07-.58A2.11,2.11,0,0,1,57,44a3.41,3.41,0,0,1,.18,1.12v3a5.78,5.78,0,0,0,.12,1.3h-.83a5.74,5.74,0,0,1-.17-.78,2.5,2.5,0,0,1-2.07.9A2.1,2.1,0,0,1,52,47.4c0-1.58,1.18-2.27,3.17-2.27.35,0,.72,0,1.12.06V45a1.41,1.41,0,0,0-1.52-1.58,3.14,3.14,0,0,0-1.66.5Zm3.52,2.57c-.37,0-.69,0-1,0-1.61,0-2.43.49-2.43,1.52a1.4,1.4,0,0,0,1.5,1.38,1.78,1.78,0,0,0,1.92-1.63Z"/><path class="cls-1" d="M60.44,48.38l1.94-5.47h.93l-2.4,6.46H60l-2.4-6.46h.93Z"/><path class="cls-1" d="M68.6,48.86a3.39,3.39,0,0,1-2,.64,3.09,3.09,0,0,1-3.15-3.29c0-2,1-3.46,2.89-3.46a2.79,2.79,0,0,1,2.73,3,4,4,0,0,1,0,.49H64.31a2.32,2.32,0,0,0,2.31,2.54,2.84,2.84,0,0,0,1.64-.5Zm-.39-3.33a2,2,0,0,0-1.93-2.07,2.19,2.19,0,0,0-1.93,2.07Z"/><path class="cls-1" d="M70.88,44a2.21,2.21,0,0,1,2-1.31,1.32,1.32,0,0,1,.28,0v.79l-.28,0a2,2,0,0,0-2,2v3.9H70V42.91h.87Z"/><path class="cls-1" d="M73.82,48.74h1.26v1a2.76,2.76,0,0,1-.07.66,2.55,2.55,0,0,1-1,1.43l-.26-.25A2.2,2.2,0,0,0,74.49,50h-.67Z"/><path class="cls-1" d="M84,42.91l-3,2.88,3.7,3.58H83.52L80.2,46.13v3.24h-.87V40.24h.87v5.23l2.6-2.56Z"/><path class="cls-1" d="M89.67,48.86a3.33,3.33,0,0,1-2,.64,3.1,3.1,0,0,1-3.16-3.29c0-2,1-3.46,2.9-3.46a2.79,2.79,0,0,1,2.73,3,2.69,2.69,0,0,1,0,.49h-4.7a2.31,2.31,0,0,0,2.3,2.54,2.79,2.79,0,0,0,1.64-.5Zm-.39-3.33a2,2,0,0,0-1.93-2.07,2.21,2.21,0,0,0-1.93,2.07Z"/><path class="cls-1" d="M91.08,40.24H92v9.13h-.87Z"/><path class="cls-1" d="M96.26,42.72c1.76,0,2.85,1.31,2.85,3.43S98,49.5,96.28,49.5a2.48,2.48,0,0,1-2.07-1.11v3.72h-.87v-9.2h.87v1A2.34,2.34,0,0,1,96.26,42.72Zm0,.69c-1.16,0-2,.93-2,2.63v.1c0,1.49.66,2.67,2,2.67s2-1.39,2-2.67S97.61,43.41,96.23,43.41Z"/><path class="cls-1" d="M100.17,48.74h1.26v1a2.33,2.33,0,0,1-.07.66,2.55,2.55,0,0,1-1,1.43l-.26-.25a2.13,2.13,0,0,0,.78-1.64h-.67Z"/><path class="cls-1" d="M106,43.29a3.78,3.78,0,0,1,2.07-.58A2.11,2.11,0,0,1,110.18,44a3.16,3.16,0,0,1,.19,1.12v3a5.25,5.25,0,0,0,.12,1.3h-.84a6.93,6.93,0,0,1-.16-.78,2.52,2.52,0,0,1-2.07.9,2.1,2.1,0,0,1-2.19-2.09c0-1.58,1.17-2.27,3.16-2.27.35,0,.72,0,1.12.06V45A1.41,1.41,0,0,0,108,43.42a3.14,3.14,0,0,0-1.65.5Zm3.52,2.57c-.36,0-.68,0-1,0-1.61,0-2.42.49-2.42,1.52a1.39,1.39,0,0,0,1.49,1.38,1.78,1.78,0,0,0,1.92-1.63Z"/><path class="cls-1" d="M112.51,43.92a2.4,2.4,0,0,1,2-1.2A2.27,2.27,0,0,1,117,45.13v4.24h-.87V45.24a1.64,1.64,0,0,0-1.62-1.83,2,2,0,0,0-1.95,2.17v3.79h-.87V42.91h.87Z"/><path class="cls-1" d="M122.8,43.91V40.24h.87v9.13h-.87v-1a2.51,2.51,0,0,1-2.1,1.11c-1.67,0-2.81-1.25-2.81-3.36s1.06-3.42,2.86-3.42A2.38,2.38,0,0,1,122.8,43.91Zm-4,2.23c0,1.28.61,2.67,2,2.67s2-1.18,2-2.67V46c0-1.7-.86-2.63-2-2.63C119.4,43.41,118.79,44.8,118.79,46.14Z"/><path class="cls-1" d="M128.3,43.29a3.78,3.78,0,0,1,2.07-.58A2.11,2.11,0,0,1,132.49,44a3.16,3.16,0,0,1,.19,1.12v3a5.76,5.76,0,0,0,.11,1.3H132a5.74,5.74,0,0,1-.17-.78,2.5,2.5,0,0,1-2.07.9,2.09,2.09,0,0,1-2.18-2.09c0-1.58,1.17-2.27,3.16-2.27.35,0,.72,0,1.12.06V45a1.41,1.41,0,0,0-1.52-1.58,3.2,3.2,0,0,0-1.66.5Zm3.52,2.57c-.37,0-.68,0-1,0-1.61,0-2.42.49-2.42,1.52a1.39,1.39,0,0,0,1.49,1.38,1.78,1.78,0,0,0,1.92-1.63Z"/><path class="cls-1" d="M134.81,43.92a2.42,2.42,0,0,1,2-1.2,2.27,2.27,0,0,1,2.42,2.41v4.24h-.87V45.24a1.64,1.64,0,0,0-1.62-1.83,2,2,0,0,0-2,2.17v3.79h-.87V42.91h.87Z"/><path class="cls-1" d="M145.51,48.72a3.07,3.07,0,0,1-2.13.77,3.15,3.15,0,0,1-3.19-3.35,3.13,3.13,0,0,1,3.21-3.41,4.1,4.1,0,0,1,1.95.52l-.34.63a3.47,3.47,0,0,0-1.61-.43,2.41,2.41,0,0,0-2.32,2.7,2.42,2.42,0,0,0,2.34,2.62,2.73,2.73,0,0,0,1.66-.59Z"/><path class="cls-1" d="M147.13,43.92a2.42,2.42,0,0,1,2-1.2,2.27,2.27,0,0,1,2.42,2.41v4.24h-.87V45.24a1.64,1.64,0,0,0-1.62-1.83,2.06,2.06,0,0,0-2,2.17v3.79h-.87V40.24h.87Z"/><path class="cls-1" d="M155.49,42.73a3.08,3.08,0,0,1,3,3.39c0,2.08-1.3,3.39-3,3.39s-3-1.31-3-3.39S153.81,42.73,155.49,42.73Zm0,6.08c1.15,0,2.11-1,2.11-2.69s-1-2.69-2.11-2.69-2.09,1-2.09,2.69S154.35,48.81,155.49,48.81Z"/><path class="cls-1" d="M161.43,48.38l1.94-5.47h.93l-2.4,6.46H161l-2.4-6.46h.93Z"/><path class="cls-1" d="M164.31,51.39a2.69,2.69,0,0,0,2.19-2.07l-2.38-6.41h.93l1.89,5.35,1.84-5.35h.93l-2.11,5.93c-.69,1.95-1.15,2.88-3,3.29Z"/><path class="cls-1" d="M176.1,42.72c1.77,0,2.86,1.31,2.86,3.43s-1.1,3.35-2.83,3.35a2.48,2.48,0,0,1-2.07-1.11v3.72h-.87v-9.2h.87v1A2.33,2.33,0,0,1,176.1,42.72Zm0,.69c-1.16,0-2,.93-2,2.63v.1c0,1.49.66,2.67,2,2.67s2-1.39,2-2.67S177.46,43.41,176.08,43.41Z"/><path class="cls-1" d="M182.67,42.73a3.08,3.08,0,0,1,3,3.39c0,2.08-1.3,3.39-3,3.39s-3-1.31-3-3.39S181,42.73,182.67,42.73Zm0,6.08c1.15,0,2.1-1,2.1-2.69s-1-2.69-2.1-2.69-2.1,1-2.1,2.69S181.52,48.81,182.67,48.81Z"/><path class="cls-1" d="M192,48.29l1.42-5.38h.83l-1.82,6.46h-.86l-1.45-5.47-1.44,5.47h-.86L186,42.91h.83l1.42,5.38,1.42-5.38h.91Z"/><path class="cls-1" d="M199.53,43.91V40.24h.87v9.13h-.87v-1a2.51,2.51,0,0,1-2.09,1.11c-1.67,0-2.81-1.25-2.81-3.36s1.05-3.42,2.85-3.42A2.37,2.37,0,0,1,199.53,43.91Zm-4,2.23c0,1.28.61,2.67,2,2.67s2-1.18,2-2.67V46c0-1.7-.86-2.63-2-2.63C196.13,43.41,195.52,44.8,195.52,46.14Z"/><path class="cls-1" d="M206.62,48.86a3.33,3.33,0,0,1-2,.64,3.09,3.09,0,0,1-3.15-3.29c0-2,1-3.46,2.89-3.46a2.79,2.79,0,0,1,2.73,3,4,4,0,0,1,0,.49h-4.71a2.32,2.32,0,0,0,2.31,2.54,2.78,2.78,0,0,0,1.63-.5Zm-.39-3.33a2,2,0,0,0-1.93-2.07,2.19,2.19,0,0,0-1.92,2.07Z"/><path class="cls-1" d="M208.9,44a2.21,2.21,0,0,1,2-1.31,1.42,1.42,0,0,1,.29,0v.79a2.85,2.85,0,0,0-.29,0,2,2,0,0,0-2,2v3.9H208V42.91h.87Z"/><path class="cls-1" d="M217.43,42.73a3.08,3.08,0,0,1,3,3.39c0,2.08-1.3,3.39-3,3.39s-3-1.31-3-3.39S215.75,42.73,217.43,42.73Zm0,6.08c1.15,0,2.1-1,2.1-2.69s-.95-2.69-2.1-2.69-2.1,1-2.1,2.69S216.29,48.81,217.43,48.81Z"/><path class="cls-1" d="M222.34,43.92a2.41,2.41,0,0,1,2-1.2,2.27,2.27,0,0,1,2.42,2.41v4.24h-.87V45.24a1.64,1.64,0,0,0-1.62-1.83,2,2,0,0,0-2,2.17v3.79h-.87V42.91h.87Z"/><path class="cls-1" d="M232,44.33l3.88-3.84h1.21l-4.25,4.16,4.84,4.72h-1.23L232,45v4.37h-.88V40.49H232Z"/><path class="cls-1" d="M240.31,42.73a3.08,3.08,0,0,1,3,3.39c0,2.08-1.29,3.39-3,3.39s-3-1.31-3-3.39S238.63,42.73,240.31,42.73Zm0,6.08c1.16,0,2.11-1,2.11-2.69s-.95-2.69-2.11-2.69-2.09,1-2.09,2.69S239.17,48.81,240.31,48.81Z"/><path class="cls-1" d="M245.23,44a2.21,2.21,0,0,1,2-1.31,1.32,1.32,0,0,1,.28,0v.79l-.28,0a2,2,0,0,0-2,2v3.9h-.87V42.91h.87Z"/><path class="cls-1" d="M252.71,48.86a3.38,3.38,0,0,1-2,.64,3.1,3.1,0,0,1-3.16-3.29c0-2,1-3.46,2.9-3.46a2.79,2.79,0,0,1,2.73,3,2.69,2.69,0,0,1,0,.49h-4.7a2.3,2.3,0,0,0,2.3,2.54,2.79,2.79,0,0,0,1.64-.5Zm-.39-3.33a2,2,0,0,0-1.93-2.07,2.21,2.21,0,0,0-1.93,2.07Z"/><path class="cls-1" d="M254.42,43.29a3.78,3.78,0,0,1,2.07-.58A2.1,2.1,0,0,1,258.61,44a3.16,3.16,0,0,1,.19,1.12v3a5.25,5.25,0,0,0,.12,1.3h-.84a6.93,6.93,0,0,1-.16-.78,2.52,2.52,0,0,1-2.07.9,2.1,2.1,0,0,1-2.19-2.09c0-1.58,1.18-2.27,3.16-2.27.36,0,.72,0,1.12.06V45a1.41,1.41,0,0,0-1.51-1.58,3.14,3.14,0,0,0-1.66.5Zm3.52,2.57c-.36,0-.68,0-1,0-1.61,0-2.42.49-2.42,1.52A1.39,1.39,0,0,0,256,48.72a1.78,1.78,0,0,0,1.92-1.63Z"/><path class="cls-1" d="M260.94,43.92a2.4,2.4,0,0,1,2-1.2,2.28,2.28,0,0,1,2.43,2.41v4.24h-.87V45.24a1.65,1.65,0,0,0-1.63-1.83,2,2,0,0,0-1.95,2.17v3.79h-.87V42.91h.87Z"/><path class="cls-1" d="M272.24,42.73a3.08,3.08,0,0,1,3,3.39c0,2.08-1.29,3.39-3,3.39s-3-1.31-3-3.39S270.56,42.73,272.24,42.73Zm0,6.08c1.15,0,2.11-1,2.11-2.69s-1-2.69-2.11-2.69-2.09,1-2.09,2.69S271.1,48.81,272.24,48.81Z"/><path class="cls-1" d="M277.16,44a2.19,2.19,0,0,1,2-1.31,1.32,1.32,0,0,1,.28,0v.79l-.28,0a2,2,0,0,0-2,2v3.9h-.87V42.91h.87Z"/><path class="cls-1" d="M284.38,43.91v-1h.87v5.92a2.87,2.87,0,0,1-2.93,3.2,4.62,4.62,0,0,1-2.22-.6l.31-.66a3.93,3.93,0,0,0,1.89.52c1.1,0,2.08-.75,2.08-2.49v-.48a2.41,2.41,0,0,1-2.08,1.06c-1.67,0-2.83-1.19-2.83-3.28s1.1-3.38,2.84-3.38A2.36,2.36,0,0,1,284.38,43.91Zm-4,2.17c0,1.28.61,2.61,2,2.61s2-1.12,2-2.61v0c0-1.7-.86-2.63-2-2.63C281,43.41,280.37,44.74,280.37,46.08Z"/><path class="cls-1" d="M286.94,43.29a3.78,3.78,0,0,1,2.07-.58A2.11,2.11,0,0,1,291.13,44a3.16,3.16,0,0,1,.19,1.12v3a5.76,5.76,0,0,0,.11,1.3h-.83a5.74,5.74,0,0,1-.17-.78,2.5,2.5,0,0,1-2.07.9,2.09,2.09,0,0,1-2.18-2.09c0-1.58,1.17-2.27,3.16-2.27.35,0,.72,0,1.12.06V45A1.41,1.41,0,0,0,289,43.42a3.17,3.17,0,0,0-1.66.5Zm3.52,2.57c-.37,0-.69,0-1,0-1.61,0-2.42.49-2.42,1.52a1.39,1.39,0,0,0,1.49,1.38,1.78,1.78,0,0,0,1.92-1.63Z"/><path class="cls-1" d="M293.46,43.92a2.39,2.39,0,0,1,2-1.2,2.27,2.27,0,0,1,2.42,2.41v4.24H297V45.24a1.64,1.64,0,0,0-1.62-1.83,2,2,0,0,0-2,2.17v3.79h-.88V42.91h.88Z"/><path class="cls-1" d="M299.09,40.24h1v1.19h-1Zm.08,2.67H300v6.46h-.87Z"/><path class="cls-1" d="M306.4,48.72a3,3,0,0,1-2.13.77,3.15,3.15,0,0,1-3.18-3.35,3.12,3.12,0,0,1,3.21-3.41,4.1,4.1,0,0,1,1.95.52l-.34.63a3.51,3.51,0,0,0-1.61-.43,2.4,2.4,0,0,0-2.32,2.7,2.42,2.42,0,0,0,2.34,2.62,2.73,2.73,0,0,0,1.66-.59Z"/><path class="cls-1" d="M310.1,40.24H311v9.13h-.87Z"/><path class="cls-1" d="M312.66,43.29a3.78,3.78,0,0,1,2.07-.58A2.11,2.11,0,0,1,316.85,44,3.4,3.4,0,0,1,317,45.1v3a5.76,5.76,0,0,0,.11,1.3h-.83a5.74,5.74,0,0,1-.17-.78,2.5,2.5,0,0,1-2.07.9,2.1,2.1,0,0,1-2.19-2.09c0-1.58,1.18-2.27,3.17-2.27.35,0,.72,0,1.12.06V45a1.41,1.41,0,0,0-1.52-1.58,3.14,3.14,0,0,0-1.66.5Zm3.52,2.57c-.37,0-.69,0-1,0-1.61,0-2.42.49-2.42,1.52a1.39,1.39,0,0,0,1.49,1.38,1.78,1.78,0,0,0,1.92-1.63Z"/><path class="cls-1" d="M320.31,48.38l1.95-5.47h.93l-2.4,6.46h-1l-2.4-6.46h.93Z"/><path class="cls-1" d="M328.48,48.86a3.39,3.39,0,0,1-2,.64,3.09,3.09,0,0,1-3.15-3.29c0-2,1-3.46,2.89-3.46a2.79,2.79,0,0,1,2.73,3,4,4,0,0,1,0,.49h-4.71a2.32,2.32,0,0,0,2.31,2.54,2.84,2.84,0,0,0,1.64-.5Zm-.39-3.33a2,2,0,0,0-1.93-2.07,2.19,2.19,0,0,0-1.93,2.07Z"/><path class="cls-1" d="M330.76,44a2.21,2.21,0,0,1,2-1.31,1.32,1.32,0,0,1,.28,0v.79l-.28,0a2,2,0,0,0-2,2v3.9h-.87V42.91h.87Z"/><path class="cls-1" d="M333.67,48.74h1.26V50h-1.26Z"/></g></g></svg>