<svg xmlns="http://www.w3.org/2000/svg" viewBox="0 0 352.21 77.76"><defs><style>.cls-1{fill:#231815;}</style></defs><title>자산 126</title><g id="레이어_2" data-name="레이어 2"><g id="레이어_1-2" data-name="레이어 1"><path class="cls-1" d="M158.69,12.93h-1.87V7h-5.57v5.93h-1.87V.16h1.87v5.3h5.57V.16h1.87Z"/><path class="cls-1" d="M171.56,12.93h-2.11l-1.19-3.25h-4.95l-1.21,3.25h-2L164.87.16h1.85Zm-3.86-4.8-1.91-5.34-1.9,5.34Z"/><path class="cls-1" d="M181.89,11.56a6.3,6.3,0,0,1-4.33,1.55c-3.8,0-6.26-2.9-6.26-6.55,0-3.82,2.54-6.56,6.29-6.56a7.88,7.88,0,0,1,4.1,1.15l-.8,1.35a6.53,6.53,0,0,0-3.41-.93c-2.69,0-4.21,2.29-4.21,5s1.66,4.93,4.29,4.93a5.14,5.14,0,0,0,3.31-1.27Z"/><path class="cls-1" d="M193.37,11.56A6.34,6.34,0,0,1,189,13.11c-3.8,0-6.26-2.9-6.26-6.55,0-3.82,2.54-6.56,6.29-6.56a7.88,7.88,0,0,1,4.1,1.15l-.8,1.35A6.5,6.5,0,0,0,189,1.57c-2.69,0-4.21,2.29-4.21,5s1.66,4.93,4.29,4.93a5.14,5.14,0,0,0,3.31-1.27Z"/><path class="cls-1" d="M199.24.16c2.52,0,4.38,1.62,4.38,4a4.05,4.05,0,0,1-4.37,4.06h-2.51v4.69h-1.87V.16Zm-2.5,1.52v5h2.51a2.41,2.41,0,0,0,2.47-2.54,2.36,2.36,0,0,0-2.47-2.5Z"/><path class="cls-1" d="M147.91,14.93v-.8h56v.8Z"/><path class="cls-1" d="M4.15,40.9H.57v2.77H4v.47H.57v3.38H0V40.43H4.15Z"/><path class="cls-1" d="M6,43.42A2,2,0,0,1,7.85,42.2v.54H7.67A1.73,1.73,0,0,0,6,44.42v3.1H5.41V42.38H6Z"/><path class="cls-1" d="M8.11,44.9a2.45,2.45,0,0,1,2.38-2.71,2.44,2.44,0,0,1,2.36,2.71,2.47,2.47,0,0,1-2.37,2.73A2.45,2.45,0,0,1,8.11,44.9Zm.57,0c0,1.42.83,2.26,1.8,2.26s1.8-.84,1.8-2.26-.82-2.24-1.79-2.24S8.68,43.46,8.68,44.9Z"/><path class="cls-1" d="M14.65,43.12a1.65,1.65,0,0,1,1.47-.93,1.75,1.75,0,0,1,1.54,1.14,1.85,1.85,0,0,1,1.59-1.14A1.66,1.66,0,0,1,21,44v3.54h-.56v-3.6a1.19,1.19,0,0,0-1.27-1.25,1.43,1.43,0,0,0-1.34,1.6v3.25h-.55V44A1.24,1.24,0,0,0,16,42.67a1.47,1.47,0,0,0-1.36,1.58v3.27h-.56V42.38h.56Z"/><path class="cls-1" d="M26,43.42a2,2,0,0,1,1.87-1.22v.54h-.18A1.73,1.73,0,0,0,26,44.42v3.1h-.57V42.38H26Z"/><path class="cls-1" d="M28.67,42.63a2.91,2.91,0,0,1,1.58-.44,1.79,1.79,0,0,1,1.69,1,2.51,2.51,0,0,1,.13.88v2.42a4.39,4.39,0,0,0,.08,1h-.53a4,4,0,0,1-.12-.64,2.33,2.33,0,0,1-1.76.75A1.65,1.65,0,0,1,28,46c0-1.26.91-1.8,2.5-1.8.25,0,.58,0,1,.06v-.14a1.24,1.24,0,0,0-1.29-1.41A2.64,2.64,0,0,0,28.9,43Zm2.85,2c-.37,0-.63-.05-.9-.05-1.37,0-2,.45-2,1.36a1.19,1.19,0,0,0,1.28,1.16,1.52,1.52,0,0,0,1.63-1.33Z"/><path class="cls-1" d="M37.87,46.72l1.21-4.34h.53l-1.48,5.14H37.6l-1.26-4.58-1.27,4.58h-.53l-1.47-5.14h.52l1.22,4.34L36,42.38h.59Z"/><path class="cls-1" d="M44,43.12a1.65,1.65,0,0,1,1.47-.93A1.75,1.75,0,0,1,47,43.33a1.85,1.85,0,0,1,1.59-1.14A1.66,1.66,0,0,1,50.38,44v3.54h-.56v-3.6a1.19,1.19,0,0,0-1.27-1.25,1.43,1.43,0,0,0-1.34,1.6v3.25h-.55V44a1.24,1.24,0,0,0-1.27-1.35A1.47,1.47,0,0,0,44,44.25v3.27h-.56V42.38H44Z"/><path class="cls-1" d="M52.18,42.63a3,3,0,0,1,1.59-.44,1.79,1.79,0,0,1,1.69,1,2.51,2.51,0,0,1,.13.88v2.42a4.39,4.39,0,0,0,.08,1h-.53a4,4,0,0,1-.12-.64,2.33,2.33,0,0,1-1.76.75A1.65,1.65,0,0,1,51.56,46c0-1.26.91-1.8,2.5-1.8.25,0,.58,0,1,.06v-.14a1.24,1.24,0,0,0-1.29-1.41,2.64,2.64,0,0,0-1.33.36Zm2.86,2c-.37,0-.63-.05-.9-.05-1.37,0-2,.45-2,1.36a1.19,1.19,0,0,0,1.28,1.16A1.52,1.52,0,0,0,55,45.81Z"/><path class="cls-1" d="M57.41,41l.57-.19v1.59h1.24v.45H58v3.45c0,.72.51.85,1.15.86v.5c-1.06,0-1.72-.26-1.72-1.31v-3.5h-.85v-.45h.85Z"/><path class="cls-1" d="M64,47.15a2.74,2.74,0,0,1-1.56.48A2.49,2.49,0,0,1,59.9,45c0-1.61.88-2.8,2.25-2.8a2.28,2.28,0,0,1,2.18,2.43c0,.12,0,.21,0,.34H60.48a2,2,0,0,0,1.94,2.18,2.35,2.35,0,0,0,1.3-.36Zm-.16-2.67a1.7,1.7,0,0,0-1.64-1.81,1.89,1.89,0,0,0-1.65,1.81Z"/><path class="cls-1" d="M66.09,43.42A2,2,0,0,1,68,42.2v.54h-.17a1.73,1.73,0,0,0-1.7,1.69v3.1h-.57V42.38h.57Z"/><path class="cls-1" d="M68.72,40.19h.82v.87h-.82Zm.12,2.19h.57v5.14h-.57Z"/><path class="cls-1" d="M71.29,42.63a2.94,2.94,0,0,1,1.59-.44,1.79,1.79,0,0,1,1.69,1,2.51,2.51,0,0,1,.13.88v2.42a4.39,4.39,0,0,0,.08,1h-.53a4,4,0,0,1-.12-.64,2.33,2.33,0,0,1-1.76.75A1.65,1.65,0,0,1,70.67,46c0-1.26.91-1.8,2.5-1.8.25,0,.58,0,1,.06v-.14a1.23,1.23,0,0,0-1.28-1.41,2.64,2.64,0,0,0-1.33.36Zm2.85,2c-.36,0-.62-.05-.89-.05-1.37,0-2,.45-2,1.36a1.19,1.19,0,0,0,1.28,1.16,1.51,1.51,0,0,0,1.62-1.33Z"/><path class="cls-1" d="M76.26,40.19h.57v7.33h-.57Z"/><path class="cls-1" d="M80.81,43a2.32,2.32,0,0,0-1.09-.32c-.67,0-1,.35-1,.81s.45.79,1.29,1.19,1.33.72,1.33,1.5a1.49,1.49,0,0,1-1.65,1.45A2.35,2.35,0,0,1,78,47l.3-.4a2.08,2.08,0,0,0,1.39.58c.61,0,1.12-.28,1.12-.92,0-.46-.5-.81-1.1-1.09s-1.52-.73-1.52-1.58a1.38,1.38,0,0,1,1.54-1.35,2.62,2.62,0,0,1,1.4.41Z"/><path class="cls-1" d="M85.66,41l.57-.19v1.59h1.24v.45H86.23v3.45c0,.72.51.85,1.15.86v.5c-1,0-1.72-.26-1.72-1.31v-3.5h-.85v-.45h.85Z"/><path class="cls-1" d="M88.15,44.9a2.39,2.39,0,1,1,4.73,0,2.39,2.39,0,1,1-4.73,0Zm.57,0c0,1.42.82,2.26,1.79,2.26s1.8-.84,1.8-2.26-.81-2.24-1.79-2.24S88.72,43.46,88.72,44.9Z"/><path class="cls-1" d="M97.17,42.37V41.7a3.14,3.14,0,0,1,.1-.81,1.29,1.29,0,0,1,1.24-.9,2.26,2.26,0,0,1,.85.17l-.18.44a2.28,2.28,0,0,0-.57-.1.78.78,0,0,0-.77.49,1.65,1.65,0,0,0-.11.68v.7h1.12v.46H97.73v4.69h-.56V42.83h-.74v-.46Z"/><path class="cls-1" d="M100,40.19h.82v.87H100Zm.12,2.19h.57v5.14h-.57Z"/><path class="cls-1" d="M102.91,43.32a1.93,1.93,0,0,1,1.72-1.13,1.8,1.8,0,0,1,1.9,1.91v3.42H106V44.15a1.35,1.35,0,0,0-1.39-1.48,1.81,1.81,0,0,0-1.66,1.91v2.94h-.57V42.38h.57Z"/><path class="cls-1" d="M108.34,42.63a2.93,2.93,0,0,1,1.58-.44,1.79,1.79,0,0,1,1.69,1,2.29,2.29,0,0,1,.14.88v2.42a4.39,4.39,0,0,0,.08,1h-.53a4.53,4.53,0,0,1-.13-.64,2.31,2.31,0,0,1-1.75.75A1.65,1.65,0,0,1,107.71,46c0-1.26.91-1.8,2.5-1.8.25,0,.59,0,1,.06v-.14a1.23,1.23,0,0,0-1.28-1.41,2.65,2.65,0,0,0-1.34.36Zm2.85,2c-.36,0-.63-.05-.89-.05-1.37,0-2,.45-2,1.36a1.19,1.19,0,0,0,1.28,1.16,1.52,1.52,0,0,0,1.63-1.33Z"/><path class="cls-1" d="M113.31,40.19h.56v7.33h-.56Z"/><path class="cls-1" d="M120.62,42.19c1.4,0,2.26,1.06,2.26,2.76s-.87,2.68-2.24,2.68a2,2,0,0,1-1.76-1.07v3.2h-.57V42.38h.57v.94A2,2,0,0,1,120.62,42.19Zm0,.48c-1,0-1.73.79-1.73,2.19v.08c0,1.24.56,2.21,1.73,2.21s1.7-1.14,1.7-2.21S121.77,42.67,120.61,42.67Z"/><path class="cls-1" d="M124.75,43.42a2,2,0,0,1,1.87-1.22v.54h-.17a1.74,1.74,0,0,0-1.7,1.69v3.1h-.57V42.38h.57Z"/><path class="cls-1" d="M126.89,44.9a2.39,2.39,0,1,1,4.73,0,2.39,2.39,0,1,1-4.73,0Zm.57,0c0,1.42.82,2.26,1.79,2.26s1.8-.84,1.8-2.26-.81-2.24-1.79-2.24S127.46,43.46,127.46,44.9Z"/><path class="cls-1" d="M136.54,43.32V40.19h.57v7.33h-.57v-1a2.05,2.05,0,0,1-1.77,1.06c-1.33,0-2.23-1-2.23-2.69s.84-2.75,2.27-2.75A2,2,0,0,1,136.54,43.32Zm-3.43,1.62c0,1.07.54,2.21,1.71,2.21s1.72-1,1.72-2.21v-.08c0-1.4-.72-2.19-1.72-2.19C133.65,42.67,133.11,43.83,133.11,44.94Z"/><path class="cls-1" d="M142.3,46.51a1.94,1.94,0,0,1-1.72,1.12,1.79,1.79,0,0,1-1.89-1.92V42.38h.57v3.24a1.37,1.37,0,0,0,1.38,1.52,1.79,1.79,0,0,0,1.66-1.9V42.38h.57v5.14h-.57Z"/><path class="cls-1" d="M148.26,47a2.41,2.41,0,0,1-1.64.6,2.54,2.54,0,0,1-2.52-2.71,2.51,2.51,0,0,1,2.53-2.73,3.47,3.47,0,0,1,1.51.38l-.22.43a2.86,2.86,0,0,0-1.29-.32,2.24,2.24,0,0,0,0,4.45,2.12,2.12,0,0,0,1.34-.44Z"/><path class="cls-1" d="M149.67,41l.57-.19v1.59h1.25v.45h-1.25v3.45c0,.72.51.85,1.16.86v.5c-1.06,0-1.73-.26-1.73-1.31v-3.5h-.85v-.45h.85Z"/><path class="cls-1" d="M155,43a2.28,2.28,0,0,0-1.08-.32c-.68,0-1,.35-1,.81s.45.79,1.28,1.19,1.33.72,1.33,1.5a1.49,1.49,0,0,1-1.64,1.45,2.36,2.36,0,0,1-1.73-.68l.31-.4a2.08,2.08,0,0,0,1.39.58c.61,0,1.11-.28,1.11-.92,0-.46-.49-.81-1.09-1.09s-1.52-.73-1.52-1.58a1.38,1.38,0,0,1,1.54-1.35,2.62,2.62,0,0,1,1.4.41Z"/><path class="cls-1" d="M159.78,42.37V41.7a3.14,3.14,0,0,1,.1-.81,1.29,1.29,0,0,1,1.24-.9,2.26,2.26,0,0,1,.85.17l-.18.44a2.28,2.28,0,0,0-.57-.1.78.78,0,0,0-.77.49,1.65,1.65,0,0,0-.11.68v.7h1.12v.46h-1.12v4.69h-.56V42.83H159v-.46Z"/><path class="cls-1" d="M162.15,44.9a2.39,2.39,0,1,1,4.73,0,2.39,2.39,0,1,1-4.73,0Zm.57,0c0,1.42.82,2.26,1.79,2.26s1.8-.84,1.8-2.26-.81-2.24-1.79-2.24S162.72,43.46,162.72,44.9Z"/><path class="cls-1" d="M168.7,43.42a2,2,0,0,1,1.88-1.22v.54h-.18a1.74,1.74,0,0,0-1.7,1.69v3.1h-.56V42.38h.56Z"/><path class="cls-1" d="M176.66,43a2.28,2.28,0,0,0-1.09-.32c-.67,0-1,.35-1,.81s.46.79,1.29,1.19,1.33.72,1.33,1.5a1.49,1.49,0,0,1-1.65,1.45A2.35,2.35,0,0,1,173.8,47l.3-.4a2.13,2.13,0,0,0,1.4.58c.6,0,1.11-.28,1.11-.92,0-.46-.5-.81-1.1-1.09S174,44.39,174,43.54a1.37,1.37,0,0,1,1.53-1.35,2.68,2.68,0,0,1,1.41.41Z"/><path class="cls-1" d="M178.67,42.63a2.94,2.94,0,0,1,1.59-.44,1.77,1.77,0,0,1,1.68,1,2.29,2.29,0,0,1,.14.88v2.42a4.39,4.39,0,0,0,.08,1h-.53a4.53,4.53,0,0,1-.13-.64,2.31,2.31,0,0,1-1.75.75A1.66,1.66,0,0,1,178,46c0-1.26.92-1.8,2.5-1.8.26,0,.59,0,1,.06v-.14a1.23,1.23,0,0,0-1.28-1.41,2.64,2.64,0,0,0-1.33.36Zm2.85,2c-.36,0-.63-.05-.89-.05-1.37,0-2,.45-2,1.36a1.2,1.2,0,0,0,1.29,1.16,1.51,1.51,0,0,0,1.62-1.33Z"/><path class="cls-1" d="M183.83,42.37V41.7a3.14,3.14,0,0,1,.1-.81,1.29,1.29,0,0,1,1.24-.9,2.26,2.26,0,0,1,.85.17l-.18.44a2.28,2.28,0,0,0-.57-.1.78.78,0,0,0-.77.49,1.65,1.65,0,0,0-.11.68v.7h1.12v.46h-1.12v4.69h-.56V42.83h-.74v-.46Z"/><path class="cls-1" d="M190.5,47.15a2.75,2.75,0,0,1-1.57.48A2.49,2.49,0,0,1,186.44,45c0-1.61.88-2.8,2.26-2.8a2.27,2.27,0,0,1,2.17,2.43c0,.12,0,.21,0,.34H187A2,2,0,0,0,189,47.13a2.32,2.32,0,0,0,1.29-.36Zm-.17-2.67a1.7,1.7,0,0,0-1.63-1.81,1.88,1.88,0,0,0-1.65,1.81Z"/><path class="cls-1" d="M195.09,42.37V41.7a2.73,2.73,0,0,1,.11-.81,1.29,1.29,0,0,1,1.24-.9,2.26,2.26,0,0,1,.85.17l-.18.44a2.28,2.28,0,0,0-.57-.1.78.78,0,0,0-.77.49,1.65,1.65,0,0,0-.11.68v.7h1.12v.46h-1.12v4.69h-.57V42.83h-.73v-.46Z"/><path class="cls-1" d="M197.47,44.9a2.39,2.39,0,1,1,4.73,0,2.39,2.39,0,1,1-4.73,0Zm.57,0c0,1.42.82,2.26,1.79,2.26s1.8-.84,1.8-2.26-.81-2.24-1.79-2.24S198,43.46,198,44.9Z"/><path class="cls-1" d="M203.09,44.9a2.39,2.39,0,1,1,4.73,0,2.39,2.39,0,1,1-4.73,0Zm.57,0c0,1.42.82,2.26,1.79,2.26s1.8-.84,1.8-2.26-.81-2.24-1.79-2.24S203.66,43.46,203.66,44.9Z"/><path class="cls-1" d="M212.74,43.32V40.19h.57v7.33h-.57v-1A2,2,0,0,1,211,47.63c-1.32,0-2.22-1-2.22-2.69s.83-2.75,2.26-2.75A2,2,0,0,1,212.74,43.32Zm-3.42,1.62c0,1.07.53,2.21,1.7,2.21s1.72-1,1.72-2.21v-.08c0-1.4-.72-2.19-1.72-2.19C209.85,42.67,209.32,43.83,209.32,44.94Z"/><path class="cls-1" d="M218.33,43.12a1.65,1.65,0,0,1,1.47-.93,1.75,1.75,0,0,1,1.54,1.14,1.85,1.85,0,0,1,1.59-1.14A1.66,1.66,0,0,1,224.68,44v3.54h-.56v-3.6a1.19,1.19,0,0,0-1.27-1.25,1.43,1.43,0,0,0-1.34,1.6v3.25H221V44a1.24,1.24,0,0,0-1.27-1.35,1.47,1.47,0,0,0-1.36,1.58v3.27h-.56V42.38h.56Z"/><path class="cls-1" d="M226.48,42.63a2.94,2.94,0,0,1,1.59-.44,1.79,1.79,0,0,1,1.69,1,2.51,2.51,0,0,1,.13.88v2.42a4.39,4.39,0,0,0,.08,1h-.53a4,4,0,0,1-.12-.64,2.33,2.33,0,0,1-1.76.75,1.65,1.65,0,0,1-1.7-1.66c0-1.26.91-1.8,2.5-1.8.25,0,.58,0,1,.06v-.14a1.23,1.23,0,0,0-1.28-1.41,2.64,2.64,0,0,0-1.33.36Zm2.85,2c-.36,0-.62-.05-.89-.05-1.37,0-2,.45-2,1.36a1.2,1.2,0,0,0,1.29,1.16,1.51,1.51,0,0,0,1.62-1.33Z"/><path class="cls-1" d="M232,43.32a1.94,1.94,0,0,1,1.73-1.13,1.8,1.8,0,0,1,1.9,1.91v3.42h-.57V44.15a1.35,1.35,0,0,0-1.39-1.48A1.82,1.82,0,0,0,232,44.58v2.94h-.57V42.38H232Z"/><path class="cls-1" d="M240.75,46.51A1.94,1.94,0,0,1,239,47.63a1.79,1.79,0,0,1-1.89-1.92V42.38h.57v3.24a1.37,1.37,0,0,0,1.38,1.52,1.79,1.79,0,0,0,1.66-1.9V42.38h.57v5.14h-.57Z"/><path class="cls-1" d="M243.1,42.37V41.7a2.73,2.73,0,0,1,.11-.81,1.29,1.29,0,0,1,1.24-.9,2.26,2.26,0,0,1,.85.17l-.18.44a2.27,2.27,0,0,0-.58-.1.78.78,0,0,0-.76.49,1.65,1.65,0,0,0-.11.68v.7h1.12v.46h-1.12v4.69h-.57V42.83h-.73v-.46Z"/><path class="cls-1" d="M246,42.63a2.94,2.94,0,0,1,1.59-.44,1.79,1.79,0,0,1,1.69,1,2.51,2.51,0,0,1,.13.88v2.42a4.39,4.39,0,0,0,.08,1H249a4,4,0,0,1-.12-.64,2.33,2.33,0,0,1-1.76.75,1.65,1.65,0,0,1-1.7-1.66c0-1.26.91-1.8,2.5-1.8.25,0,.58,0,1,.06v-.14a1.24,1.24,0,0,0-1.29-1.41,2.64,2.64,0,0,0-1.33.36Zm2.86,2c-.37,0-.63-.05-.9-.05-1.37,0-2,.45-2,1.36a1.19,1.19,0,0,0,1.28,1.16,1.52,1.52,0,0,0,1.63-1.33Z"/><path class="cls-1" d="M254.8,47a2.39,2.39,0,0,1-1.64.6,2.54,2.54,0,0,1-2.52-2.71,2.51,2.51,0,0,1,2.54-2.73,3.47,3.47,0,0,1,1.51.38l-.23.43a2.81,2.81,0,0,0-1.28-.32,2.24,2.24,0,0,0,0,4.45,2.07,2.07,0,0,0,1.33-.44Z"/><path class="cls-1" d="M256.22,41l.57-.19v1.59H258v.45h-1.24v3.45c0,.72.5.85,1.15.86v.5c-1.06,0-1.72-.26-1.72-1.31v-3.5h-.86v-.45h.86Z"/><path class="cls-1" d="M262.73,46.51A1.94,1.94,0,0,1,261,47.63a1.79,1.79,0,0,1-1.89-1.92V42.38h.57v3.24a1.37,1.37,0,0,0,1.38,1.52,1.79,1.79,0,0,0,1.66-1.9V42.38h.57v5.14h-.57Z"/><path class="cls-1" d="M265.47,43.42a2,2,0,0,1,1.87-1.22v.54h-.18a1.73,1.73,0,0,0-1.69,1.69v3.1h-.57V42.38h.57Z"/><path class="cls-1" d="M268.09,40.19h.83v.87h-.83Zm.13,2.19h.57v5.14h-.57Z"/><path class="cls-1" d="M271,43.32a1.92,1.92,0,0,1,1.72-1.13,1.8,1.8,0,0,1,1.9,1.91v3.42H274V44.15a1.35,1.35,0,0,0-1.39-1.48A1.81,1.81,0,0,0,271,44.58v2.94h-.57V42.38H271Z"/><path class="cls-1" d="M279.81,43.3v-.92h.57v4.75a2.28,2.28,0,0,1-2.31,2.56,3.67,3.67,0,0,1-1.74-.45l.21-.44a3.29,3.29,0,0,0,1.51.39c.93,0,1.76-.63,1.76-2.08v-.65a2,2,0,0,1-1.76,1.07c-1.29,0-2.23-1-2.23-2.62s.86-2.72,2.24-2.72A2,2,0,0,1,279.81,43.3Zm-3.43,1.59c0,1.07.57,2.15,1.72,2.15s1.71-.95,1.71-2.15c0-1.44-.73-2.22-1.71-2.22C276.92,42.67,276.38,43.76,276.38,44.89Z"/><path class="cls-1" d="M285.11,42.63a2.91,2.91,0,0,1,1.58-.44,1.79,1.79,0,0,1,1.69,1,2.29,2.29,0,0,1,.14.88v2.42a5,5,0,0,0,.07,1h-.52a4.53,4.53,0,0,1-.13-.64,2.31,2.31,0,0,1-1.76.75,1.65,1.65,0,0,1-1.7-1.66c0-1.26.91-1.8,2.5-1.8.25,0,.59,0,1,.06v-.14a1.24,1.24,0,0,0-1.29-1.41,2.64,2.64,0,0,0-1.33.36Zm2.85,2c-.36,0-.63-.05-.89-.05-1.37,0-2,.45-2,1.36a1.19,1.19,0,0,0,1.28,1.16A1.52,1.52,0,0,0,288,45.81Z"/><path class="cls-1" d="M290.63,43.32a2,2,0,0,1,1.73-1.13,1.8,1.8,0,0,1,1.9,1.91v3.42h-.57V44.15a1.35,1.35,0,0,0-1.39-1.48,1.82,1.82,0,0,0-1.67,1.91v2.94h-.56V42.38h.56Z"/><path class="cls-1" d="M299.47,43.32V40.19H300v7.33h-.57v-1a2.05,2.05,0,0,1-1.77,1.06c-1.32,0-2.22-1-2.22-2.69s.83-2.75,2.26-2.75A2,2,0,0,1,299.47,43.32ZM296,44.94c0,1.07.54,2.21,1.71,2.21s1.72-1,1.72-2.21v-.08c0-1.4-.72-2.19-1.72-2.19C296.58,42.67,296,43.83,296,44.94Z"/><path class="cls-1" d="M306.8,42.19c1.4,0,2.27,1.06,2.27,2.76s-.88,2.68-2.25,2.68a2,2,0,0,1-1.75-1.07v3.2h-.57V42.38h.57v.94A2,2,0,0,1,306.8,42.19Zm0,.48c-1,0-1.72.79-1.72,2.19v.08c0,1.24.56,2.21,1.72,2.21s1.71-1.14,1.71-2.21S308,42.67,306.79,42.67Z"/><path class="cls-1" d="M310.94,43.42a2,2,0,0,1,1.87-1.22v.54h-.18a1.73,1.73,0,0,0-1.69,1.69v3.1h-.57V42.38h.57Z"/><path class="cls-1" d="M313.08,44.9a2.39,2.39,0,1,1,4.73,0,2.39,2.39,0,1,1-4.73,0Zm.56,0c0,1.42.83,2.26,1.8,2.26s1.8-.84,1.8-2.26-.81-2.24-1.79-2.24S313.64,43.46,313.64,44.9Z"/><path class="cls-1" d="M322.85,47a2.39,2.39,0,0,1-1.64.6,2.54,2.54,0,0,1-2.52-2.71,2.51,2.51,0,0,1,2.54-2.73,3.47,3.47,0,0,1,1.51.38l-.23.43a2.81,2.81,0,0,0-1.28-.32,2.24,2.24,0,0,0,0,4.45,2.07,2.07,0,0,0,1.33-.44Z"/><path class="cls-1" d="M327.71,47.15a2.78,2.78,0,0,1-1.57.48A2.49,2.49,0,0,1,323.65,45c0-1.61.88-2.8,2.25-2.8a2.28,2.28,0,0,1,2.18,2.43c0,.12,0,.21,0,.34h-3.84a2,2,0,0,0,1.95,2.18,2.32,2.32,0,0,0,1.29-.36Zm-.17-2.67a1.7,1.7,0,0,0-1.64-1.81,1.88,1.88,0,0,0-1.64,1.81Z"/><path class="cls-1" d="M331.65,43a2.35,2.35,0,0,0-1.09-.32c-.68,0-1,.35-1,.81s.45.79,1.28,1.19,1.34.72,1.34,1.5a1.5,1.5,0,0,1-1.65,1.45,2.32,2.32,0,0,1-1.72-.68l.3-.4a2.08,2.08,0,0,0,1.39.58c.61,0,1.12-.28,1.12-.92,0-.46-.5-.81-1.1-1.09S329,44.39,329,43.54a1.38,1.38,0,0,1,1.54-1.35,2.62,2.62,0,0,1,1.4.41Z"/><path class="cls-1" d="M335.77,43a2.28,2.28,0,0,0-1.09-.32c-.67,0-1,.35-1,.81s.45.79,1.28,1.19,1.33.72,1.33,1.5a1.49,1.49,0,0,1-1.65,1.45,2.35,2.35,0,0,1-1.72-.68l.3-.4a2.13,2.13,0,0,0,1.4.58c.6,0,1.11-.28,1.11-.92,0-.46-.5-.81-1.09-1.09s-1.52-.73-1.52-1.58a1.37,1.37,0,0,1,1.53-1.35,2.68,2.68,0,0,1,1.41.41Z"/><path class="cls-1" d="M337.41,40.19h.82v.87h-.82Zm.13,2.19h.56v5.14h-.56Z"/><path class="cls-1" d="M340.29,43.32A1.93,1.93,0,0,1,342,42.19a1.8,1.8,0,0,1,1.9,1.91v3.42h-.56V44.15A1.35,1.35,0,0,0,342,42.67a1.82,1.82,0,0,0-1.67,1.91v2.94h-.57V42.38h.57Z"/><path class="cls-1" d="M349.13,43.3v-.92h.57v4.75a2.29,2.29,0,0,1-2.32,2.56,3.7,3.7,0,0,1-1.74-.45l.22-.44a3.28,3.28,0,0,0,1.5.39c.93,0,1.77-.63,1.77-2.08v-.65a2,2,0,0,1-1.77,1.07c-1.29,0-2.23-1-2.23-2.62s.86-2.72,2.24-2.72A2,2,0,0,1,349.13,43.3Zm-3.43,1.59c0,1.07.57,2.15,1.71,2.15s1.72-.95,1.72-2.15c0-1.44-.74-2.22-1.72-2.22C346.24,42.67,345.7,43.76,345.7,44.89Z"/><path class="cls-1" d="M351.31,47.12h.9V48h-.9Z"/><path class="cls-1" d="M23.12,61.52h-.59l-.69-1.92H18.53l-.71,1.92h-.58l2.62-7.09h.64Zm-1.45-2.39L20.18,55l-1.5,4.17Z"/><path class="cls-1" d="M24.07,55l.57-.19v1.59h1.24v.45H24.64v3.45c0,.72.51.85,1.16.86v.5c-1.06,0-1.73-.26-1.73-1.31v-3.5h-.85v-.45h.85Z"/><path class="cls-1" d="M30.12,56.63a2.94,2.94,0,0,1,1.59-.44,1.77,1.77,0,0,1,1.68,1,2.29,2.29,0,0,1,.14.88v2.42a4.39,4.39,0,0,0,.08,1h-.53a4.53,4.53,0,0,1-.13-.64,2.31,2.31,0,0,1-1.75.75A1.65,1.65,0,0,1,29.49,60c0-1.26.91-1.8,2.5-1.8.26,0,.59,0,1,.06v-.14a1.23,1.23,0,0,0-1.28-1.41,2.7,2.7,0,0,0-1.34.36Zm2.85,2c-.36,0-.63-.05-.89-.05-1.37,0-2,.45-2,1.36a1.19,1.19,0,0,0,1.28,1.16A1.52,1.52,0,0,0,33,59.81Z"/><path class="cls-1" d="M35.09,54.19h.57v7.33h-.57Z"/><path class="cls-1" d="M37.26,54.19h.57v7.33h-.57Z"/><path class="cls-1" d="M44.65,57a2.28,2.28,0,0,0-1.09-.32c-.67,0-1,.35-1,.81s.45.79,1.28,1.19,1.33.72,1.33,1.5a1.49,1.49,0,0,1-1.64,1.45A2.36,2.36,0,0,1,41.79,61l.3-.4a2.13,2.13,0,0,0,1.4.58c.6,0,1.11-.28,1.11-.92,0-.46-.5-.81-1.09-1.09S42,58.39,42,57.54a1.38,1.38,0,0,1,1.54-1.35,2.67,2.67,0,0,1,1.4.41Z"/><path class="cls-1" d="M46.66,55l.57-.19v1.59h1.24v.45H47.23v3.45c0,.72.51.85,1.16.86v.5c-1.06,0-1.73-.26-1.73-1.31v-3.5h-.85v-.45h.85Z"/><path class="cls-1" d="M49.67,56.63a2.94,2.94,0,0,1,1.59-.44,1.77,1.77,0,0,1,1.68,1,2.29,2.29,0,0,1,.14.88v2.42a4.39,4.39,0,0,0,.08,1h-.53a4.53,4.53,0,0,1-.13-.64,2.31,2.31,0,0,1-1.75.75A1.66,1.66,0,0,1,49,60c0-1.26.91-1.8,2.5-1.8.26,0,.59,0,1,.06v-.14a1.23,1.23,0,0,0-1.28-1.41,2.64,2.64,0,0,0-1.33.36Zm2.85,2c-.36,0-.63-.05-.89-.05-1.37,0-2,.45-2,1.36a1.19,1.19,0,0,0,1.28,1.16,1.52,1.52,0,0,0,1.63-1.33Z"/><path class="cls-1" d="M58.3,57.3v-.92h.57v4.75a2.28,2.28,0,0,1-2.31,2.56,3.7,3.7,0,0,1-1.75-.45L55,62.8a3.29,3.29,0,0,0,1.51.39c.93,0,1.76-.63,1.76-2.08v-.65a2,2,0,0,1-1.76,1.07c-1.29,0-2.23-1-2.23-2.62s.86-2.72,2.24-2.72A2,2,0,0,1,58.3,57.3Zm-3.43,1.59c0,1.07.57,2.15,1.72,2.15s1.71-.95,1.71-2.15c0-1.44-.73-2.22-1.71-2.22C55.41,56.67,54.87,57.76,54.87,58.89Z"/><path class="cls-1" d="M64.19,61.15a2.74,2.74,0,0,1-1.56.48A2.49,2.49,0,0,1,60.14,59c0-1.61.88-2.8,2.25-2.8a2.27,2.27,0,0,1,2.17,2.43c0,.12,0,.21,0,.34H60.71a2,2,0,0,0,1.95,2.18,2.35,2.35,0,0,0,1.3-.36ZM64,58.48a1.7,1.7,0,0,0-1.64-1.81,1.89,1.89,0,0,0-1.65,1.81Z"/><path class="cls-1" d="M68.13,57A2.28,2.28,0,0,0,67,56.68c-.67,0-1,.35-1,.81s.45.79,1.28,1.19,1.33.72,1.33,1.5A1.49,1.49,0,0,1,67,61.63,2.36,2.36,0,0,1,65.27,61l.31-.4a2.08,2.08,0,0,0,1.39.58c.6,0,1.11-.28,1.11-.92,0-.46-.5-.81-1.09-1.09s-1.52-.73-1.52-1.58A1.38,1.38,0,0,1,67,56.19a2.64,2.64,0,0,1,1.4.41Z"/><path class="cls-1" d="M69.9,61.12h.89v.8a1.49,1.49,0,0,1-.06.47A2,2,0,0,1,70,63.45l-.16-.15A1.61,1.61,0,0,0,70.41,62H69.9Z"/><path class="cls-1" d="M79.41,60.72l1.22-4.34h.52l-1.47,5.14h-.53l-1.27-4.58-1.26,4.58h-.53l-1.48-5.14h.53l1.21,4.34,1.24-4.34h.59Z"/><path class="cls-1" d="M85.88,61.15a2.75,2.75,0,0,1-1.57.48A2.49,2.49,0,0,1,81.82,59c0-1.61.89-2.8,2.26-2.8a2.27,2.27,0,0,1,2.17,2.43c0,.12,0,.21,0,.34H82.4a2,2,0,0,0,1.95,2.18,2.32,2.32,0,0,0,1.29-.36Zm-.17-2.67a1.7,1.7,0,0,0-1.63-1.81,1.89,1.89,0,0,0-1.65,1.81Z"/><path class="cls-1" d="M90.17,54.19H91v.87h-.83Zm.13,2.19h.57v5.14H90.3Z"/><path class="cls-1" d="M96.16,57.32V54.19h.57v7.33h-.57v-1a2.05,2.05,0,0,1-1.77,1.06c-1.33,0-2.23-1-2.23-2.69s.84-2.75,2.26-2.75A2,2,0,0,1,96.16,57.32Zm-3.43,1.62c0,1.07.54,2.21,1.71,2.21s1.72-1,1.72-2.21v-.08c0-1.4-.73-2.19-1.72-2.19C93.27,56.67,92.73,57.83,92.73,58.94Z"/><path class="cls-1" d="M102.05,61.15a2.75,2.75,0,0,1-1.57.48A2.49,2.49,0,0,1,98,59c0-1.61.89-2.8,2.26-2.8a2.27,2.27,0,0,1,2.17,2.43c0,.12,0,.21,0,.34H98.57a2,2,0,0,0,2,2.18,2.32,2.32,0,0,0,1.29-.36Zm-.17-2.67a1.7,1.7,0,0,0-1.63-1.81,1.89,1.89,0,0,0-1.65,1.81Z"/><path class="cls-1" d="M104.18,57.32a1.93,1.93,0,0,1,1.72-1.13,1.8,1.8,0,0,1,1.9,1.91v3.42h-.57V58.15a1.35,1.35,0,0,0-1.39-1.48,1.81,1.81,0,0,0-1.66,1.91v2.94h-.57V56.38h.57Z"/><path class="cls-1" d="M109.61,55l.56-.19v1.59h1.25v.45h-1.25v3.45c0,.72.51.85,1.16.86v.5c-1.06,0-1.72-.26-1.72-1.31v-3.5h-.86v-.45h.86Z"/><path class="cls-1" d="M112.44,54.19h.82v.87h-.82Zm.13,2.19h.56v5.14h-.56Z"/><path class="cls-1" d="M115,56.37V55.7a3.14,3.14,0,0,1,.1-.81,1.29,1.29,0,0,1,1.24-.9,2.26,2.26,0,0,1,.85.17l-.18.44a2.28,2.28,0,0,0-.57-.1.78.78,0,0,0-.77.49,1.65,1.65,0,0,0-.11.68v.7h1.12v.46h-1.12v4.69H115V56.83h-.74v-.46Z"/><path class="cls-1" d="M117.44,63.25a2.14,2.14,0,0,0,1.74-1.69l-1.89-5.18h.61l1.58,4.52L121,56.38h.61L120,61.12c-.53,1.48-1,2.31-2.32,2.64Z"/><path class="cls-1" d="M126,57.3a2,2,0,0,1,1.72-1.11,1.8,1.8,0,0,1,1.91,1.91v3.42h-.57V58.19a1.35,1.35,0,0,0-1.39-1.52A1.8,1.8,0,0,0,126,58.56v3h-.57V54.19H126Z"/><path class="cls-1" d="M131.42,56.63a2.94,2.94,0,0,1,1.59-.44,1.77,1.77,0,0,1,1.68,1,2.29,2.29,0,0,1,.14.88v2.42a4.39,4.39,0,0,0,.08,1h-.53a4.53,4.53,0,0,1-.13-.64,2.31,2.31,0,0,1-1.75.75A1.66,1.66,0,0,1,130.79,60c0-1.26.91-1.8,2.5-1.8.26,0,.59,0,1,.06v-.14A1.23,1.23,0,0,0,133,56.68a2.64,2.64,0,0,0-1.33.36Zm2.85,2c-.36,0-.63-.05-.89-.05-1.37,0-2,.45-2,1.36a1.19,1.19,0,0,0,1.28,1.16,1.52,1.52,0,0,0,1.63-1.33Z"/><path class="cls-1" d="M135.92,61.1l3.13-4.27h-3v-.45h3.62v.45L136.59,61h3.35v.48h-4Z"/><path class="cls-1" d="M141.26,56.63a2.94,2.94,0,0,1,1.59-.44,1.77,1.77,0,0,1,1.68,1,2.29,2.29,0,0,1,.14.88v2.42a4.39,4.39,0,0,0,.08,1h-.53a4.53,4.53,0,0,1-.13-.64,2.31,2.31,0,0,1-1.75.75A1.65,1.65,0,0,1,140.63,60c0-1.26.91-1.8,2.5-1.8.25,0,.59,0,1,.06v-.14a1.23,1.23,0,0,0-1.28-1.41,2.67,2.67,0,0,0-1.34.36Zm2.85,2c-.36,0-.63-.05-.89-.05-1.37,0-2,.45-2,1.36a1.19,1.19,0,0,0,1.28,1.16,1.52,1.52,0,0,0,1.63-1.33Z"/><path class="cls-1" d="M146.8,57.42a2,2,0,0,1,1.87-1.22v.54h-.18a1.73,1.73,0,0,0-1.69,1.69v3.1h-.57V56.38h.57Z"/><path class="cls-1" d="M153,57.32V54.19h.57v7.33H153v-1a2.05,2.05,0,0,1-1.77,1.06c-1.33,0-2.23-1-2.23-2.69s.83-2.75,2.26-2.75A2,2,0,0,1,153,57.32Zm-3.43,1.62c0,1.07.54,2.21,1.71,2.21s1.72-1,1.72-2.21v-.08c0-1.4-.73-2.19-1.72-2.19C150.07,56.67,149.53,57.83,149.53,58.94Z"/><path class="cls-1" d="M154.79,58.9a2.39,2.39,0,1,1,2.36,2.73A2.45,2.45,0,0,1,154.79,58.9Zm.57,0c0,1.42.82,2.26,1.79,2.26S159,60.32,159,58.9s-.82-2.24-1.8-2.24S155.36,57.46,155.36,58.9Z"/><path class="cls-1" d="M164.35,60.51a2,2,0,0,1-1.73,1.12,1.79,1.79,0,0,1-1.89-1.92V56.38h.57v3.24a1.37,1.37,0,0,0,1.38,1.52,1.8,1.8,0,0,0,1.67-1.9V56.38h.57v5.14h-.57Z"/><path class="cls-1" d="M168.88,57a2.28,2.28,0,0,0-1.08-.32c-.68,0-1,.35-1,.81s.45.79,1.28,1.19,1.33.72,1.33,1.5a1.49,1.49,0,0,1-1.64,1.45A2.36,2.36,0,0,1,166,61l.31-.4a2.08,2.08,0,0,0,1.39.58c.61,0,1.11-.28,1.11-.92,0-.46-.49-.81-1.09-1.09s-1.52-.73-1.52-1.58a1.38,1.38,0,0,1,1.54-1.35,2.62,2.62,0,0,1,1.4.41Z"/><path class="cls-1" d="M173.67,56.37V55.7a2.73,2.73,0,0,1,.11-.81A1.27,1.27,0,0,1,175,54a2.26,2.26,0,0,1,.85.17l-.17.44a2.43,2.43,0,0,0-.58-.1.79.79,0,0,0-.77.49,1.68,1.68,0,0,0-.1.68v.7h1.11v.46h-1.11v4.69h-.57V56.83h-.74v-.46Z"/><path class="cls-1" d="M176.61,56.63a2.93,2.93,0,0,1,1.58-.44,1.78,1.78,0,0,1,1.69,1,2.29,2.29,0,0,1,.14.88v2.42a5,5,0,0,0,.07,1h-.52a4.53,4.53,0,0,1-.13-.64,2.31,2.31,0,0,1-1.75.75A1.65,1.65,0,0,1,176,60c0-1.26.91-1.8,2.5-1.8.25,0,.59,0,1,.06v-.14a1.24,1.24,0,0,0-1.29-1.41,2.64,2.64,0,0,0-1.33.36Zm2.85,2c-.36,0-.63-.05-.89-.05-1.37,0-2,.45-2,1.36a1.19,1.19,0,0,0,1.28,1.16,1.52,1.52,0,0,0,1.63-1.33Z"/><path class="cls-1" d="M185.37,61a2.42,2.42,0,0,1-1.65.6,2.54,2.54,0,0,1-2.52-2.71,2.51,2.51,0,0,1,2.54-2.73,3.47,3.47,0,0,1,1.51.38L185,57a2.81,2.81,0,0,0-1.28-.32,2.24,2.24,0,0,0,0,4.45,2.07,2.07,0,0,0,1.33-.44Z"/><path class="cls-1" d="M186.78,55l.57-.19v1.59h1.24v.45h-1.24v3.45c0,.72.51.85,1.15.86v.5c-1.05,0-1.72-.26-1.72-1.31v-3.5h-.85v-.45h.85Z"/><path class="cls-1" d="M189.27,58.9a2.39,2.39,0,1,1,2.36,2.73A2.45,2.45,0,0,1,189.27,58.9Zm.57,0c0,1.42.82,2.26,1.79,2.26s1.8-.84,1.8-2.26-.81-2.24-1.79-2.24S189.84,57.46,189.84,58.9Z"/><path class="cls-1" d="M195.83,57.42a2,2,0,0,1,1.87-1.22v.54h-.18a1.73,1.73,0,0,0-1.69,1.69v3.1h-.57V56.38h.57Z"/><path class="cls-1" d="M200.94,57a2.32,2.32,0,0,0-1.09-.32c-.67,0-1,.35-1,.81s.45.79,1.29,1.19,1.33.72,1.33,1.5a1.49,1.49,0,0,1-1.65,1.45,2.35,2.35,0,0,1-1.72-.68l.3-.4a2.11,2.11,0,0,0,1.39.58c.61,0,1.12-.28,1.12-.92,0-.46-.5-.81-1.1-1.09s-1.52-.73-1.52-1.58a1.38,1.38,0,0,1,1.54-1.35,2.62,2.62,0,0,1,1.4.41Z"/><path class="cls-1" d="M205.79,55l.57-.19v1.59h1.24v.45h-1.24v3.45c0,.72.51.85,1.16.86v.5c-1.06,0-1.73-.26-1.73-1.31v-3.5h-.85v-.45h.85Z"/><path class="cls-1" d="M209.3,57.3A2,2,0,0,1,211,56.19a1.8,1.8,0,0,1,1.9,1.91v3.42h-.56V58.19a1.35,1.35,0,0,0-1.4-1.52,1.8,1.8,0,0,0-1.66,1.89v3h-.57V54.19h.57Z"/><path class="cls-1" d="M214.73,56.63a2.94,2.94,0,0,1,1.59-.44,1.77,1.77,0,0,1,1.68,1,2.29,2.29,0,0,1,.14.88v2.42a4.39,4.39,0,0,0,.08,1h-.53a4.53,4.53,0,0,1-.13-.64,2.31,2.31,0,0,1-1.75.75A1.65,1.65,0,0,1,214.1,60c0-1.26.91-1.8,2.5-1.8.25,0,.59,0,1,.06v-.14a1.23,1.23,0,0,0-1.28-1.41A2.67,2.67,0,0,0,215,57Zm2.85,2c-.36,0-.63-.05-.89-.05-1.37,0-2,.45-2,1.36A1.19,1.19,0,0,0,216,61.14a1.52,1.52,0,0,0,1.63-1.33Z"/><path class="cls-1" d="M220,55l.57-.19v1.59h1.24v.45h-1.24v3.45c0,.72.51.85,1.16.86v.5c-1.06,0-1.73-.26-1.73-1.31v-3.5h-.85v-.45H220Z"/><path class="cls-1" d="M226.29,57.12a1.67,1.67,0,0,1,1.47-.93,1.74,1.74,0,0,1,1.54,1.14,1.86,1.86,0,0,1,1.6-1.14A1.66,1.66,0,0,1,232.64,58v3.54h-.56v-3.6a1.19,1.19,0,0,0-1.27-1.25,1.42,1.42,0,0,0-1.33,1.6v3.25h-.56V58a1.24,1.24,0,0,0-1.27-1.35,1.47,1.47,0,0,0-1.36,1.58v3.27h-.56V56.38h.56Z"/><path class="cls-1" d="M234.45,56.63a2.91,2.91,0,0,1,1.58-.44,1.79,1.79,0,0,1,1.69,1,2.29,2.29,0,0,1,.14.88v2.42a5,5,0,0,0,.07,1h-.53a5.67,5.67,0,0,1-.12-.64,2.33,2.33,0,0,1-1.76.75,1.65,1.65,0,0,1-1.7-1.66c0-1.26.91-1.8,2.5-1.8.25,0,.58,0,1,.06v-.14A1.24,1.24,0,0,0,236,56.68a2.64,2.64,0,0,0-1.33.36Zm2.85,2c-.37,0-.63-.05-.89-.05-1.38,0-2,.45-2,1.36a1.19,1.19,0,0,0,1.28,1.16,1.52,1.52,0,0,0,1.63-1.33Z"/><path class="cls-1" d="M238.92,63.25a2.15,2.15,0,0,0,1.75-1.69l-1.89-5.18h.61L241,60.9l1.56-4.52h.61l-1.7,4.74c-.53,1.48-1,2.31-2.32,2.64Z"/><path class="cls-1" d="M247.48,57.3a2,2,0,0,1,1.72-1.11,1.8,1.8,0,0,1,1.9,1.91v3.42h-.56V58.19a1.35,1.35,0,0,0-1.4-1.52,1.8,1.8,0,0,0-1.66,1.89v3h-.57V54.19h.57Z"/><path class="cls-1" d="M252.91,56.63a2.94,2.94,0,0,1,1.59-.44,1.77,1.77,0,0,1,1.68,1,2.29,2.29,0,0,1,.14.88v2.42a4.39,4.39,0,0,0,.08,1h-.53a4.53,4.53,0,0,1-.13-.64,2.31,2.31,0,0,1-1.75.75A1.65,1.65,0,0,1,252.28,60c0-1.26.91-1.8,2.5-1.8.25,0,.59,0,1,.06v-.14a1.23,1.23,0,0,0-1.28-1.41,2.67,2.67,0,0,0-1.34.36Zm2.85,2c-.36,0-.63-.05-.89-.05-1.37,0-2,.45-2,1.36a1.19,1.19,0,0,0,1.28,1.16,1.52,1.52,0,0,0,1.63-1.33Z"/><path class="cls-1" d="M258.45,57.42a2,2,0,0,1,1.87-1.22v.54h-.18a1.73,1.73,0,0,0-1.69,1.69v3.1h-.57V56.38h.57Z"/><path class="cls-1" d="M261.74,57.12a1.65,1.65,0,0,1,1.47-.93,1.76,1.76,0,0,1,1.54,1.14,1.85,1.85,0,0,1,1.59-1.14A1.66,1.66,0,0,1,268.09,58v3.54h-.56v-3.6a1.19,1.19,0,0,0-1.28-1.25,1.43,1.43,0,0,0-1.33,1.6v3.25h-.56V58a1.24,1.24,0,0,0-1.26-1.35,1.47,1.47,0,0,0-1.36,1.58v3.27h-.56V56.38h.56Z"/><path class="cls-1" d="M273,57.3a2,2,0,0,1,1.72-1.11,1.8,1.8,0,0,1,1.9,1.91v3.42h-.57V58.19a1.35,1.35,0,0,0-1.39-1.52A1.8,1.8,0,0,0,273,58.56v3h-.57V54.19H273Z"/><path class="cls-1" d="M281.78,60.51a1.94,1.94,0,0,1-1.73,1.12,1.8,1.8,0,0,1-1.89-1.92V56.38h.57v3.24a1.37,1.37,0,0,0,1.38,1.52,1.8,1.8,0,0,0,1.67-1.9V56.38h.57v5.14h-.57Z"/><path class="cls-1" d="M284.49,57.12a1.67,1.67,0,0,1,1.47-.93,1.74,1.74,0,0,1,1.54,1.14,1.86,1.86,0,0,1,1.6-1.14A1.66,1.66,0,0,1,290.84,58v3.54h-.56v-3.6A1.19,1.19,0,0,0,289,56.67a1.42,1.42,0,0,0-1.33,1.6v3.25h-.56V58a1.24,1.24,0,0,0-1.26-1.35,1.47,1.47,0,0,0-1.37,1.58v3.27h-.55V56.38h.55Z"/><path class="cls-1" d="M292.65,56.63a2.93,2.93,0,0,1,1.58-.44,1.78,1.78,0,0,1,1.69,1,2.29,2.29,0,0,1,.14.88v2.42a5,5,0,0,0,.07,1h-.52a4.53,4.53,0,0,1-.13-.64,2.31,2.31,0,0,1-1.75.75A1.65,1.65,0,0,1,292,60c0-1.26.91-1.8,2.5-1.8.25,0,.59,0,1,.06v-.14a1.24,1.24,0,0,0-1.29-1.41,2.64,2.64,0,0,0-1.33.36Zm2.85,2c-.36,0-.63-.05-.89-.05-1.37,0-2,.45-2,1.36a1.19,1.19,0,0,0,1.28,1.16,1.52,1.52,0,0,0,1.63-1.33Z"/><path class="cls-1" d="M298.17,57.32a2,2,0,0,1,1.73-1.13,1.8,1.8,0,0,1,1.9,1.91v3.42h-.57V58.15a1.35,1.35,0,0,0-1.39-1.48,1.82,1.82,0,0,0-1.67,1.91v2.94h-.56V56.38h.56Z"/><path class="cls-1" d="M306.75,57.3a2,2,0,0,1,1.72-1.11,1.8,1.8,0,0,1,1.9,1.91v3.42h-.56V58.19a1.35,1.35,0,0,0-1.39-1.52,1.8,1.8,0,0,0-1.67,1.89v3h-.57V54.19h.57Z"/><path class="cls-1" d="M315.62,61.15a2.75,2.75,0,0,1-1.57.48A2.49,2.49,0,0,1,311.56,59c0-1.61.88-2.8,2.25-2.8A2.27,2.27,0,0,1,316,58.61c0,.12,0,.21,0,.34h-3.84a2,2,0,0,0,1.95,2.18,2.32,2.32,0,0,0,1.29-.36Zm-.17-2.67a1.7,1.7,0,0,0-1.64-1.81,1.88,1.88,0,0,0-1.64,1.81Z"/><path class="cls-1" d="M317.44,56.63a2.94,2.94,0,0,1,1.59-.44,1.77,1.77,0,0,1,1.68,1,2.29,2.29,0,0,1,.14.88v2.42a4.39,4.39,0,0,0,.08,1h-.53a4.53,4.53,0,0,1-.13-.64,2.31,2.31,0,0,1-1.75.75A1.66,1.66,0,0,1,316.81,60c0-1.26.92-1.8,2.5-1.8.26,0,.59,0,1,.06v-.14A1.23,1.23,0,0,0,319,56.68a2.64,2.64,0,0,0-1.33.36Zm2.85,2c-.36,0-.62-.05-.89-.05-1.37,0-2,.45-2,1.36a1.2,1.2,0,0,0,1.29,1.16,1.51,1.51,0,0,0,1.62-1.33Z"/><path class="cls-1" d="M322.41,54.19H323v7.33h-.57Z"/><path class="cls-1" d="M324.84,55l.57-.19v1.59h1.24v.45h-1.24v3.45c0,.72.51.85,1.15.86v.5c-1.05,0-1.72-.26-1.72-1.31v-3.5H324v-.45h.85Z"/><path class="cls-1" d="M328.35,57.3a2,2,0,0,1,1.72-1.11A1.8,1.8,0,0,1,332,58.1v3.42h-.57V58.19A1.35,1.35,0,0,0,330,56.67a1.8,1.8,0,0,0-1.66,1.89v3h-.57V54.19h.57Z"/><path class="cls-1" d="M333.51,61.12h.89V62h-.89Z"/><path class="cls-1" d="M27.25,75.52h-.59L26,73.6H22.66L22,75.52h-.58L24,68.43h.65ZM25.8,73.13,24.31,69l-1.5,4.17Z"/><path class="cls-1" d="M33.6,71a2.28,2.28,0,0,0-1.08-.32c-.68,0-1,.35-1,.81s.45.79,1.28,1.19,1.33.72,1.33,1.5a1.49,1.49,0,0,1-1.64,1.45A2.36,2.36,0,0,1,30.74,75l.31-.4a2.08,2.08,0,0,0,1.39.58c.6,0,1.11-.28,1.11-.92,0-.46-.5-.81-1.09-1.09s-1.52-.73-1.52-1.58a1.38,1.38,0,0,1,1.54-1.35,2.62,2.62,0,0,1,1.4.41Z"/><path class="cls-1" d="M39.15,75a2.42,2.42,0,0,1-1.65.6A2.53,2.53,0,0,1,35,72.92a2.5,2.5,0,0,1,2.53-2.73,3.47,3.47,0,0,1,1.51.38l-.22.43a2.89,2.89,0,0,0-1.29-.32,2.24,2.24,0,0,0,0,4.45,2.12,2.12,0,0,0,1.34-.44Z"/><path class="cls-1" d="M40.19,68.19H41v.87h-.82Zm.13,2.19h.56v5.14h-.56Z"/><path class="cls-1" d="M46.21,75.15a2.78,2.78,0,0,1-1.57.48A2.49,2.49,0,0,1,42.15,73c0-1.61.88-2.8,2.25-2.8a2.28,2.28,0,0,1,2.18,2.43c0,.12,0,.21,0,.34H42.73a2,2,0,0,0,2,2.18A2.32,2.32,0,0,0,46,74.77ZM46,72.48a1.7,1.7,0,0,0-1.64-1.81,1.87,1.87,0,0,0-1.64,1.81Z"/><path class="cls-1" d="M48.33,71.32a1.94,1.94,0,0,1,1.73-1.13A1.8,1.8,0,0,1,52,72.1v3.42h-.57V72.15A1.35,1.35,0,0,0,50,70.67a1.82,1.82,0,0,0-1.67,1.91v2.94h-.57V70.38h.57Z"/><path class="cls-1" d="M53.76,69l.57-.19v1.59h1.24v.45H54.33v3.45c0,.72.51.85,1.16.86v.5c-1.06,0-1.73-.26-1.73-1.31v-3.5h-.85v-.45h.85Z"/><path class="cls-1" d="M56.59,68.19h.83v.87h-.83Zm.13,2.19h.57v5.14h-.57Z"/><path class="cls-1" d="M59.1,70.37V69.7a2.73,2.73,0,0,1,.11-.81,1.28,1.28,0,0,1,1.23-.9,2.31,2.31,0,0,1,.86.17l-.18.44a2.35,2.35,0,0,0-.58-.1.78.78,0,0,0-.76.49,1.65,1.65,0,0,0-.11.68v.7h1.12v.46H59.67v4.69H59.1V70.83h-.73v-.46Z"/><path class="cls-1" d="M62,68.19h.83v.87H62Zm.13,2.19h.57v5.14h-.57Z"/><path class="cls-1" d="M68.08,75a2.42,2.42,0,0,1-1.65.6,2.53,2.53,0,0,1-2.51-2.71,2.5,2.5,0,0,1,2.53-2.73,3.47,3.47,0,0,1,1.51.38l-.22.43a2.89,2.89,0,0,0-1.29-.32,2.24,2.24,0,0,0,0,4.45,2.07,2.07,0,0,0,1.33-.44Z"/><path class="cls-1" d="M72.64,71.3a2,2,0,0,1,1.72-1.11,1.8,1.8,0,0,1,1.9,1.91v3.42h-.57V72.19a1.35,1.35,0,0,0-1.39-1.52,1.8,1.8,0,0,0-1.66,1.89v3h-.57V68.19h.57Z"/><path class="cls-1" d="M77.32,77.25a2.14,2.14,0,0,0,1.74-1.69l-1.89-5.18h.61l1.59,4.52,1.56-4.52h.6l-1.69,4.74c-.53,1.48-1,2.31-2.32,2.64Z"/><path class="cls-1" d="M86.14,71.3v-.92h.57v4.75a2.28,2.28,0,0,1-2.31,2.56,3.7,3.7,0,0,1-1.75-.45l.22-.44a3.29,3.29,0,0,0,1.51.39c.93,0,1.76-.63,1.76-2.08v-.65a2,2,0,0,1-1.76,1.07c-1.3,0-2.24-1-2.24-2.62s.86-2.72,2.25-2.72A2,2,0,0,1,86.14,71.3Zm-3.43,1.59c0,1.07.57,2.15,1.71,2.15s1.72-1,1.72-2.15c0-1.44-.74-2.22-1.72-2.22C83.25,70.67,82.71,71.76,82.71,72.89Z"/><path class="cls-1" d="M88.22,68.19H89v.87h-.82Zm.13,2.19h.56v5.14h-.56Z"/><path class="cls-1" d="M94.23,75.15a2.74,2.74,0,0,1-1.56.48A2.49,2.49,0,0,1,90.18,73c0-1.61.88-2.8,2.25-2.8a2.28,2.28,0,0,1,2.18,2.43c0,.12,0,.21,0,.34H90.76a2,2,0,0,0,1.95,2.18A2.32,2.32,0,0,0,94,74.77Zm-.16-2.67a1.7,1.7,0,0,0-1.64-1.81,1.87,1.87,0,0,0-1.64,1.81Z"/><path class="cls-1" d="M96.36,71.32a1.94,1.94,0,0,1,1.73-1.13A1.8,1.8,0,0,1,100,72.1v3.42h-.57V72.15A1.35,1.35,0,0,0,98,70.67a1.82,1.82,0,0,0-1.67,1.91v2.94h-.57V70.38h.57Z"/><path class="cls-1" d="M105.23,75.15a2.75,2.75,0,0,1-1.57.48A2.49,2.49,0,0,1,101.17,73c0-1.61.88-2.8,2.26-2.8a2.27,2.27,0,0,1,2.17,2.43c0,.12,0,.21,0,.34h-3.84a2,2,0,0,0,2,2.18,2.32,2.32,0,0,0,1.29-.36Zm-.17-2.67a1.7,1.7,0,0,0-1.63-1.81,1.89,1.89,0,0,0-1.65,1.81Z"/><path class="cls-1" d="M110.19,71.12a1.65,1.65,0,0,1,1.47-.93,1.76,1.76,0,0,1,1.54,1.14,1.85,1.85,0,0,1,1.59-1.14A1.66,1.66,0,0,1,116.54,72v3.54H116v-3.6a1.19,1.19,0,0,0-1.27-1.25,1.43,1.43,0,0,0-1.34,1.6v3.25h-.56V72a1.24,1.24,0,0,0-1.26-1.35,1.47,1.47,0,0,0-1.36,1.58v3.27h-.56V70.38h.56Z"/><path class="cls-1" d="M118.34,70.63a2.94,2.94,0,0,1,1.59-.44,1.77,1.77,0,0,1,1.68,1,2.29,2.29,0,0,1,.14.88v2.42a4.39,4.39,0,0,0,.08,1h-.53a4.53,4.53,0,0,1-.13-.64,2.31,2.31,0,0,1-1.75.75,1.65,1.65,0,0,1-1.7-1.66c0-1.26.91-1.8,2.49-1.8.26,0,.59,0,1,.06v-.14a1.23,1.23,0,0,0-1.28-1.41,2.64,2.64,0,0,0-1.33.36Zm2.85,2c-.36,0-.62,0-.89,0-1.37,0-2,.45-2,1.36a1.2,1.2,0,0,0,1.29,1.16,1.51,1.51,0,0,0,1.62-1.33Z"/><path class="cls-1" d="M123.87,71.32a1.93,1.93,0,0,1,1.72-1.13,1.8,1.8,0,0,1,1.9,1.91v3.42h-.56V72.15a1.35,1.35,0,0,0-1.39-1.48,1.82,1.82,0,0,0-1.67,1.91v2.94h-.57V70.38h.57Z"/><path class="cls-1" d="M129.3,70.63a2.94,2.94,0,0,1,1.59-.44,1.77,1.77,0,0,1,1.68,1,2.29,2.29,0,0,1,.14.88v2.42a4.39,4.39,0,0,0,.08,1h-.53a4.53,4.53,0,0,1-.13-.64,2.31,2.31,0,0,1-1.75.75A1.65,1.65,0,0,1,128.67,74c0-1.26.91-1.8,2.5-1.8.25,0,.59,0,1,.06v-.14a1.23,1.23,0,0,0-1.28-1.41,2.67,2.67,0,0,0-1.34.36Zm2.85,2c-.36,0-.63,0-.89,0-1.37,0-2,.45-2,1.36a1.19,1.19,0,0,0,1.28,1.16,1.52,1.52,0,0,0,1.63-1.33Z"/><path class="cls-1" d="M137.93,71.3v-.92h.57v4.75a2.28,2.28,0,0,1-2.31,2.56,3.7,3.7,0,0,1-1.75-.45l.22-.44a3.29,3.29,0,0,0,1.51.39c.93,0,1.76-.63,1.76-2.08v-.65a2,2,0,0,1-1.76,1.07c-1.29,0-2.24-1-2.24-2.62s.87-2.72,2.25-2.72A2,2,0,0,1,137.93,71.3Zm-3.43,1.59c0,1.07.57,2.15,1.72,2.15s1.71-1,1.71-2.15c0-1.44-.73-2.22-1.71-2.22C135,70.67,134.5,71.76,134.5,72.89Z"/><path class="cls-1" d="M143.82,75.15a2.75,2.75,0,0,1-1.57.48A2.49,2.49,0,0,1,139.77,73c0-1.61.88-2.8,2.25-2.8a2.27,2.27,0,0,1,2.17,2.43c0,.12,0,.21,0,.34h-3.84a2,2,0,0,0,1.95,2.18,2.37,2.37,0,0,0,1.3-.36Zm-.17-2.67A1.69,1.69,0,0,0,142,70.67a1.89,1.89,0,0,0-1.65,1.81Z"/><path class="cls-1" d="M145.94,71.12a1.65,1.65,0,0,1,1.47-.93A1.76,1.76,0,0,1,149,71.33a1.85,1.85,0,0,1,1.59-1.14A1.66,1.66,0,0,1,152.29,72v3.54h-.56v-3.6a1.19,1.19,0,0,0-1.27-1.25,1.43,1.43,0,0,0-1.34,1.6v3.25h-.56V72a1.24,1.24,0,0,0-1.26-1.35,1.47,1.47,0,0,0-1.36,1.58v3.27h-.56V70.38h.56Z"/><path class="cls-1" d="M157.53,75.15a2.75,2.75,0,0,1-1.57.48A2.49,2.49,0,0,1,153.48,73c0-1.61.88-2.8,2.25-2.8a2.27,2.27,0,0,1,2.17,2.43c0,.12,0,.21,0,.34h-3.84A2,2,0,0,0,156,75.13a2.37,2.37,0,0,0,1.3-.36Zm-.17-2.67a1.69,1.69,0,0,0-1.63-1.81,1.89,1.89,0,0,0-1.65,1.81Z"/><path class="cls-1" d="M159.66,71.32a1.93,1.93,0,0,1,1.72-1.13,1.8,1.8,0,0,1,1.9,1.91v3.42h-.57V72.15a1.35,1.35,0,0,0-1.39-1.48,1.81,1.81,0,0,0-1.66,1.91v2.94h-.57V70.38h.57Z"/><path class="cls-1" d="M165.09,69l.57-.19v1.59h1.24v.45h-1.24v3.45c0,.72.51.85,1.15.86v.5c-1.06,0-1.72-.26-1.72-1.31v-3.5h-.85v-.45h.85Z"/><path class="cls-1" d="M173.25,71a2.28,2.28,0,0,0-1.09-.32c-.67,0-1,.35-1,.81s.45.79,1.29,1.19,1.33.72,1.33,1.5a1.49,1.49,0,0,1-1.65,1.45,2.35,2.35,0,0,1-1.72-.68l.3-.4a2.13,2.13,0,0,0,1.39.58c.61,0,1.12-.28,1.12-.92,0-.46-.5-.81-1.1-1.09s-1.51-.73-1.51-1.58a1.37,1.37,0,0,1,1.53-1.35,2.62,2.62,0,0,1,1.4.41Z"/><path class="cls-1" d="M174.52,77.25a2.15,2.15,0,0,0,1.74-1.69l-1.89-5.18H175l1.58,4.52,1.56-4.52h.61L177,75.12c-.53,1.48-1,2.31-2.32,2.64Z"/><path class="cls-1" d="M182,71a2.28,2.28,0,0,0-1.09-.32c-.67,0-1,.35-1,.81s.46.79,1.29,1.19,1.33.72,1.33,1.5a1.49,1.49,0,0,1-1.65,1.45,2.35,2.35,0,0,1-1.72-.68l.3-.4a2.13,2.13,0,0,0,1.4.58c.6,0,1.11-.28,1.11-.92,0-.46-.5-.81-1.1-1.09s-1.51-.73-1.51-1.58a1.37,1.37,0,0,1,1.53-1.35,2.68,2.68,0,0,1,1.41.41Z"/><path class="cls-1" d="M184.05,69l.57-.19v1.59h1.24v.45h-1.24v3.45c0,.72.51.85,1.15.86v.5c-1.05,0-1.72-.26-1.72-1.31v-3.5h-.85v-.45h.85Z"/><path class="cls-1" d="M190.6,75.15a2.75,2.75,0,0,1-1.57.48A2.49,2.49,0,0,1,186.54,73c0-1.61.88-2.8,2.25-2.8A2.28,2.28,0,0,1,191,72.61c0,.12,0,.21,0,.34h-3.84a2,2,0,0,0,1.95,2.18,2.32,2.32,0,0,0,1.29-.36Zm-.17-2.67a1.7,1.7,0,0,0-1.64-1.81,1.88,1.88,0,0,0-1.64,1.81Z"/><path class="cls-1" d="M192.71,71.12a1.67,1.67,0,0,1,1.47-.93,1.74,1.74,0,0,1,1.54,1.14,1.86,1.86,0,0,1,1.6-1.14A1.66,1.66,0,0,1,199.06,72v3.54h-.56v-3.6a1.19,1.19,0,0,0-1.27-1.25,1.42,1.42,0,0,0-1.33,1.6v3.25h-.56V72a1.24,1.24,0,0,0-1.26-1.35,1.47,1.47,0,0,0-1.37,1.58v3.27h-.55V70.38h.55Z"/><path class="cls-1" d="M203.71,69l.57-.19v1.59h1.24v.45h-1.24v3.45c0,.72.51.85,1.15.86v.5c-1.05,0-1.72-.26-1.72-1.31v-3.5h-.85v-.45h.85Z"/><path class="cls-1" d="M207.22,71.3a2,2,0,0,1,1.72-1.11,1.8,1.8,0,0,1,1.9,1.91v3.42h-.57V72.19a1.35,1.35,0,0,0-1.39-1.52,1.8,1.8,0,0,0-1.66,1.89v3h-.57V68.19h.57Z"/><path class="cls-1" d="M212.65,70.63a2.91,2.91,0,0,1,1.58-.44,1.79,1.79,0,0,1,1.69,1,2.29,2.29,0,0,1,.14.88v2.42a5,5,0,0,0,.07,1h-.52a4.53,4.53,0,0,1-.13-.64,2.31,2.31,0,0,1-1.76.75A1.65,1.65,0,0,1,212,74c0-1.26.91-1.8,2.5-1.8.25,0,.59,0,1,.06v-.14a1.24,1.24,0,0,0-1.29-1.41,2.64,2.64,0,0,0-1.33.36Zm2.85,2c-.37,0-.63,0-.89,0-1.38,0-2,.45-2,1.36a1.19,1.19,0,0,0,1.28,1.16,1.52,1.52,0,0,0,1.63-1.33Z"/><path class="cls-1" d="M217.87,69l.57-.19v1.59h1.24v.45h-1.24v3.45c0,.72.51.85,1.15.86v.5c-1.05,0-1.72-.26-1.72-1.31v-3.5H217v-.45h.85Z"/><path class="cls-1" d="M223.85,70.37V69.7a2.73,2.73,0,0,1,.11-.81,1.27,1.27,0,0,1,1.23-.9,2.26,2.26,0,0,1,.85.17l-.17.44a2.43,2.43,0,0,0-.58-.1.79.79,0,0,0-.77.49,1.87,1.87,0,0,0-.1.68v.7h1.11v.46h-1.11v4.69h-.57V70.83h-.74v-.46Z"/><path class="cls-1" d="M226.22,72.9a2.39,2.39,0,1,1,2.36,2.73A2.45,2.45,0,0,1,226.22,72.9Zm.57,0c0,1.42.82,2.26,1.79,2.26s1.8-.84,1.8-2.26-.81-2.24-1.79-2.24S226.79,71.46,226.79,72.9Z"/><path class="cls-1" d="M236,75a2.42,2.42,0,0,1-1.65.6,2.54,2.54,0,0,1-2.52-2.71,2.51,2.51,0,0,1,2.54-2.73,3.47,3.47,0,0,1,1.51.38l-.22.43a2.89,2.89,0,0,0-1.29-.32,2.24,2.24,0,0,0,0,4.45,2.07,2.07,0,0,0,1.33-.44Z"/><path class="cls-1" d="M240.72,74.51A1.94,1.94,0,0,1,239,75.63a1.79,1.79,0,0,1-1.89-1.92V70.38h.56v3.24a1.38,1.38,0,0,0,1.39,1.52,1.79,1.79,0,0,0,1.66-1.9V70.38h.57v5.14h-.57Z"/><path class="cls-1" d="M245.26,71a2.28,2.28,0,0,0-1.09-.32c-.67,0-1,.35-1,.81s.45.79,1.29,1.19,1.33.72,1.33,1.5a1.49,1.49,0,0,1-1.65,1.45A2.35,2.35,0,0,1,242.4,75l.3-.4a2.13,2.13,0,0,0,1.39.58c.61,0,1.12-.28,1.12-.92,0-.46-.5-.81-1.1-1.09s-1.52-.73-1.52-1.58a1.38,1.38,0,0,1,1.54-1.35,2.62,2.62,0,0,1,1.4.41Z"/><path class="cls-1" d="M250.71,75.15a2.75,2.75,0,0,1-1.57.48A2.49,2.49,0,0,1,246.65,73c0-1.61.88-2.8,2.26-2.8a2.27,2.27,0,0,1,2.17,2.43c0,.12,0,.21,0,.34h-3.84a2,2,0,0,0,2,2.18,2.32,2.32,0,0,0,1.29-.36Zm-.17-2.67a1.7,1.7,0,0,0-1.63-1.81,1.88,1.88,0,0,0-1.65,1.81Z"/><path class="cls-1" d="M254.65,71a2.35,2.35,0,0,0-1.09-.32c-.68,0-1,.35-1,.81s.45.79,1.29,1.19,1.33.72,1.33,1.5a1.49,1.49,0,0,1-1.65,1.45,2.34,2.34,0,0,1-1.72-.68l.3-.4a2.08,2.08,0,0,0,1.39.58c.61,0,1.12-.28,1.12-.92,0-.46-.5-.81-1.1-1.09S252,72.39,252,71.54a1.38,1.38,0,0,1,1.54-1.35,2.62,2.62,0,0,1,1.4.41Z"/><path class="cls-1" d="M258.88,72.9a2.39,2.39,0,1,1,2.36,2.73A2.45,2.45,0,0,1,258.88,72.9Zm.57,0c0,1.42.82,2.26,1.79,2.26s1.81-.84,1.81-2.26-.82-2.24-1.8-2.24S259.45,71.46,259.45,72.9Z"/><path class="cls-1" d="M265.43,71.32a1.93,1.93,0,0,1,1.72-1.13,1.8,1.8,0,0,1,1.9,1.91v3.42h-.57V72.15a1.35,1.35,0,0,0-1.39-1.48,1.81,1.81,0,0,0-1.66,1.91v2.94h-.57V70.38h.57Z"/><path class="cls-1" d="M274,71.12a1.67,1.67,0,0,1,1.47-.93A1.74,1.74,0,0,1,277,71.33a1.86,1.86,0,0,1,1.6-1.14A1.66,1.66,0,0,1,280.34,72v3.54h-.56v-3.6a1.19,1.19,0,0,0-1.27-1.25,1.42,1.42,0,0,0-1.33,1.6v3.25h-.56V72a1.24,1.24,0,0,0-1.27-1.35A1.47,1.47,0,0,0,274,72.25v3.27h-.56V70.38H274Z"/><path class="cls-1" d="M282.15,70.63a2.91,2.91,0,0,1,1.58-.44,1.79,1.79,0,0,1,1.69,1,2.29,2.29,0,0,1,.14.88v2.42a5,5,0,0,0,.07,1h-.52a4.53,4.53,0,0,1-.13-.64,2.31,2.31,0,0,1-1.76.75,1.65,1.65,0,0,1-1.7-1.66c0-1.26.91-1.8,2.5-1.8.25,0,.59,0,1,.06v-.14a1.24,1.24,0,0,0-1.29-1.41,2.64,2.64,0,0,0-1.33.36Zm2.85,2c-.36,0-.63,0-.89,0-1.37,0-2,.45-2,1.36a1.19,1.19,0,0,0,1.28,1.16A1.52,1.52,0,0,0,285,73.81Z"/><path class="cls-1" d="M287.67,71.32a2,2,0,0,1,1.73-1.13,1.8,1.8,0,0,1,1.9,1.91v3.42h-.57V72.15a1.35,1.35,0,0,0-1.39-1.48,1.82,1.82,0,0,0-1.67,1.91v2.94h-.56V70.38h.56Z"/><path class="cls-1" d="M293.1,70.63a2.94,2.94,0,0,1,1.59-.44,1.8,1.8,0,0,1,1.69,1,2.51,2.51,0,0,1,.13.88v2.42a4.39,4.39,0,0,0,.08,1h-.53a4.53,4.53,0,0,1-.13-.64,2.29,2.29,0,0,1-1.75.75,1.65,1.65,0,0,1-1.7-1.66c0-1.26.91-1.8,2.49-1.8.26,0,.59,0,1,.06v-.14a1.23,1.23,0,0,0-1.28-1.41,2.64,2.64,0,0,0-1.33.36Zm2.85,2c-.36,0-.62,0-.89,0-1.37,0-2,.45-2,1.36a1.2,1.2,0,0,0,1.29,1.16A1.51,1.51,0,0,0,296,73.81Z"/><path class="cls-1" d="M301.74,71.3v-.92h.56v4.75A2.28,2.28,0,0,1,300,77.69a3.67,3.67,0,0,1-1.74-.45l.21-.44a3.29,3.29,0,0,0,1.51.39c.93,0,1.77-.63,1.77-2.08v-.65A2,2,0,0,1,300,75.53c-1.29,0-2.23-1-2.23-2.62s.86-2.72,2.24-2.72A2,2,0,0,1,301.74,71.3Zm-3.43,1.59c0,1.07.57,2.15,1.71,2.15s1.72-1,1.72-2.15c0-1.44-.74-2.22-1.72-2.22C298.85,70.67,298.31,71.76,298.31,72.89Z"/><path class="cls-1" d="M307.63,75.15a2.78,2.78,0,0,1-1.57.48A2.49,2.49,0,0,1,303.57,73c0-1.61.88-2.8,2.25-2.8A2.28,2.28,0,0,1,308,72.61c0,.12,0,.21,0,.34h-3.84a2,2,0,0,0,2,2.18,2.32,2.32,0,0,0,1.29-.36Zm-.17-2.67a1.7,1.7,0,0,0-1.64-1.81,1.87,1.87,0,0,0-1.64,1.81Z"/><path class="cls-1" d="M309.74,71.12a1.67,1.67,0,0,1,1.47-.93,1.74,1.74,0,0,1,1.54,1.14,1.86,1.86,0,0,1,1.6-1.14A1.66,1.66,0,0,1,316.09,72v3.54h-.56v-3.6a1.19,1.19,0,0,0-1.27-1.25,1.42,1.42,0,0,0-1.33,1.6v3.25h-.56V72a1.24,1.24,0,0,0-1.27-1.35,1.47,1.47,0,0,0-1.36,1.58v3.27h-.56V70.38h.56Z"/><path class="cls-1" d="M321.34,75.15a2.78,2.78,0,0,1-1.57.48A2.49,2.49,0,0,1,317.28,73c0-1.61.88-2.8,2.25-2.8a2.28,2.28,0,0,1,2.18,2.43c0,.12,0,.21,0,.34h-3.84a2,2,0,0,0,1.95,2.18,2.32,2.32,0,0,0,1.29-.36Zm-.17-2.67a1.7,1.7,0,0,0-1.64-1.81,1.88,1.88,0,0,0-1.64,1.81Z"/><path class="cls-1" d="M323.46,71.32a1.94,1.94,0,0,1,1.73-1.13,1.8,1.8,0,0,1,1.9,1.91v3.42h-.57V72.15a1.35,1.35,0,0,0-1.39-1.48,1.82,1.82,0,0,0-1.67,1.91v2.94h-.57V70.38h.57Z"/><path class="cls-1" d="M328.89,69l.57-.19v1.59h1.24v.45h-1.24v3.45c0,.72.51.85,1.16.86v.5c-1.06,0-1.73-.26-1.73-1.31v-3.5H328v-.45h.85Z"/></g></g></svg>