<svg xmlns="http://www.w3.org/2000/svg" viewBox="0 0 237.12 11.62"><title>자산 128</title><g id="레이어_2" data-name="레이어 2"><g id="레이어_1-2" data-name="레이어 1"><path d="M5,1.55A3.67,3.67,0,0,0,3,.89c-1.1,0-1.74.53-1.74,1.36s.75,1.34,2.24,2S5.83,5.55,5.83,6.86C5.83,8.54,4.38,9.27,3,9.27A4.43,4.43,0,0,1,0,8.17l.46-.66a3.81,3.81,0,0,0,2.41,1C3.75,8.48,5,8.14,5,6.87c0-.85-.77-1.41-2.1-2S.38,3.71.38,2.32C.38.66,1.74.11,3,.11A4.91,4.91,0,0,1,5.41.85Z"/><path d="M7.79,9.13H6.91V.25h.88Z"/><path d="M16.18,9.13h-.91l-.86-2.37H10.46L9.58,9.13h-.9L12,.25h.94Zm-2-3.07L12.43,1.24,10.7,6.06Z"/><path d="M22.12,9.13H17V.25h.88V8.42h4.24Z"/><path d="M28.93.25A2.7,2.7,0,0,1,31.8,3a2.7,2.7,0,0,1-2.86,2.75H26.89V9.13H26V.25Zm-2,.71V5h2a1.91,1.91,0,0,0,2-2,1.9,1.9,0,0,0-2-2Z"/><path d="M38.74,9.13h-.92L37,6.76H33l-.87,2.37h-.91L34.52.25h.94Zm-2-3.07L35,1.24,33.26,6.06Z"/><path d="M45.9,9.13H44.84L42.37,5.31H40.43V9.13h-.87V.25h3a2.6,2.6,0,0,1,2.88,2.51,2.53,2.53,0,0,1-2.08,2.47Zm-3.42-4.5a1.83,1.83,0,0,0,2-1.87,1.76,1.76,0,0,0-2-1.8H40.43V4.63Z"/><path d="M47.64,9.13h-.87V.25h.87Z"/><path d="M53.54,1.55a3.64,3.64,0,0,0-2-.66c-1.09,0-1.74.53-1.74,1.36s.75,1.34,2.25,2,2.34,1.32,2.34,2.63c0,1.68-1.46,2.41-2.88,2.41a4.45,4.45,0,0,1-3-1.1L49,7.51a3.86,3.86,0,0,0,2.42,1c.88,0,2.08-.34,2.08-1.61,0-.85-.78-1.41-2.11-2s-2.47-1.18-2.47-2.57c0-1.66,1.37-2.21,2.6-2.21A5,5,0,0,1,54,.85Z"/><path d="M63.25,8.42v.71H58V8.36l1.92-2.11c1.76-1.94,2.29-2.87,2.29-3.68A1.62,1.62,0,0,0,60.48.91a3.06,3.06,0,0,0-2,.94L58,1.25A3.68,3.68,0,0,1,60.53.14a2.37,2.37,0,0,1,2.55,2.4c0,1.26-.86,2.32-2.53,4.2L59.06,8.42Z"/><path d="M63.6,4.65c0-1.84.66-4.49,2.86-4.49s2.88,2.61,2.88,4.52c0,2.06-.65,4.6-2.88,4.6S63.6,6.49,63.6,4.65Zm.84,0c0,1.44.4,3.89,2,3.89s2-2.47,2-3.86S68.12.9,66.47.9,64.44,3.3,64.44,4.65Z"/><path d="M75.34,8.42v.71H70.1V8.36L72,6.25c1.76-1.94,2.29-2.87,2.29-3.68A1.62,1.62,0,0,0,72.57.91a3,3,0,0,0-2,.94l-.47-.6A3.68,3.68,0,0,1,72.62.14a2.37,2.37,0,0,1,2.55,2.4c0,1.26-.86,2.32-2.53,4.2L71.15,8.42Z"/><path d="M81.31,8.42v.71H76.07V8.36L78,6.25c1.77-1.94,2.3-2.87,2.3-3.68A1.62,1.62,0,0,0,78.54.91a3.08,3.08,0,0,0-2,.94l-.47-.6A3.69,3.69,0,0,1,78.59.14a2.37,2.37,0,0,1,2.55,2.4c0,1.26-.85,2.32-2.52,4.2l-1.5,1.68Z"/><path d="M82.33,8.5h1.26v1a2.3,2.3,0,0,1-.07.65,2.55,2.55,0,0,1-1,1.43l-.26-.25A2.13,2.13,0,0,0,83,9.73h-.67Z"/><path d="M93.25,1H88.82v3.3H93V5H88.82V9.13H88V.25h5.3Z"/><path d="M93.83,4.71c0-2.49,1.3-4.55,3.87-4.55s3.94,2.06,3.94,4.55-1.36,4.56-3.94,4.56S93.83,7.17,93.83,4.71ZM97.7,8.55c2,0,3-1.89,3-3.84s-1-3.85-3-3.85-3,1.87-3,3.85S95.68,8.55,97.7,8.55Z"/><path d="M102.36,4.71c0-2.49,1.29-4.55,3.87-4.55s3.94,2.06,3.94,4.55-1.37,4.56-3.94,4.56S102.36,7.17,102.36,4.71Zm3.87,3.84c2,0,3-1.89,3-3.84s-1-3.85-3-3.85-3,1.87-3,3.85S104.21,8.55,106.23,8.55Z"/><path d="M114.05.25c2.53,0,4,1.85,4,4.45,0,2.4-1.55,4.43-4,4.43h-2.76V.25ZM114,8.42c2.08,0,3.2-1.72,3.2-3.73C117.18,2.4,116,1,114,1h-1.81V8.42Z"/><path d="M127.77,9.13h-5.6V.25h5.47V1H123v3.2h4.37v.7H123V8.42h4.73Z"/><path d="M133.26.25h1l-2.63,4.36,2.75,4.52h-1l-2.26-3.76-2.23,3.76h-1l2.75-4.52L128,.25h1l2.14,3.59Z"/><path d="M141.32,9.13h-.87V4.81H136V9.13h-.87V.25H136V4.1h4.45V.25h.87Z"/><path d="M143.74,9.13h-.87V.25h.87Z"/><path d="M151,2.42a2.27,2.27,0,0,1-1.21,2,2.46,2.46,0,0,1,1.63,2.27c0,1.4-.89,2.49-3,2.49h-3.09V.25h3C149.87.25,151,1,151,2.42ZM146.23,1V4.09h2.31a1.54,1.54,0,0,0,1.61-1.67c0-1-.65-1.46-1.85-1.46Zm2.22,7.46c1.36,0,2.1-.67,2.1-1.85a1.78,1.78,0,0,0-2-1.77h-2.31V8.42Z"/><path d="M153.4,9.13h-.87V.25h.87Z"/><path d="M160.68,1h-2.74V9.13h-.87V1h-2.73V.25h6.34Z"/><path d="M162.42,9.13h-.88V.25h.88Z"/><path d="M163.63,4.71c0-2.49,1.29-4.55,3.87-4.55s3.94,2.06,3.94,4.55-1.37,4.56-3.94,4.56S163.63,7.17,163.63,4.71Zm3.87,3.84c2,0,3-1.89,3-3.84s-1-3.85-3-3.85-3,1.87-3,3.85S165.47,8.55,167.5,8.55Z"/><path d="M178.82,9.13h-1l-4.43-7.42V9.13h-.87V.25h1L178,7.71V.25h.87Z"/><path d="M183.13,0h1V1.19h-1Zm.08,2.67h.87V9.13h-.87Z"/><path d="M186.33,3.68a2.42,2.42,0,0,1,2-1.2,2.27,2.27,0,0,1,2.42,2.41V9.13h-.87V5a1.64,1.64,0,0,0-1.62-1.83,2,2,0,0,0-2,2.17V9.13h-.87V2.67h.87Z"/><path d="M200.39,1H196v3.3h4.18V5H196V9.13h-.87V.25h5.29Z"/><path d="M207.73,9.13h-1.06L204.2,5.31h-1.94V9.13h-.87V.25h3a2.6,2.6,0,0,1,2.88,2.51,2.54,2.54,0,0,1-2.08,2.47Zm-3.43-4.5a1.83,1.83,0,0,0,2-1.87,1.76,1.76,0,0,0-2-1.8h-2.1V4.63Z"/><path d="M215.37,9.13h-.91l-.86-2.37h-4l-.87,2.37h-.9L211.15.25h.94Zm-2-3.07-1.72-4.82-1.73,4.82Z"/><path d="M222.45,9.13h-1l-4.43-7.42V9.13h-.87V.25h1l4.43,7.46V.25h.87Z"/><path d="M230.57,8.37a4.26,4.26,0,0,1-2.76.89c-2.54,0-4.2-2-4.2-4.57,0-2.72,1.73-4.53,4.16-4.57a4.92,4.92,0,0,1,2.68.67l-.38.64a4.72,4.72,0,0,0-2.32-.58c-2.08,0-3.22,1.8-3.22,3.84s1.26,3.84,3.28,3.84a3.7,3.7,0,0,0,2.32-.77Z"/><path d="M237.12,9.13h-5.6V.25H237V1h-4.6v3.2h4.36v.7h-4.36V8.42h4.73Z"/></g></g></svg>