<svg xmlns="http://www.w3.org/2000/svg" viewBox="0 0 118.05 9.14"><title>자산 129</title><g id="레이어_2" data-name="레이어 2"><g id="레이어_1-2" data-name="레이어 1"><path d="M5.25,8.28V9H0V8.21L1.93,6.1C3.69,4.16,4.22,3.24,4.22,2.42A1.61,1.61,0,0,0,2.48.77a3.1,3.1,0,0,0-2,.93L0,1.1A3.66,3.66,0,0,1,2.53,0,2.36,2.36,0,0,1,5.08,2.4c0,1.26-.86,2.31-2.53,4.2L1.06,8.28Z"/><path d="M5.6,4.51C5.6,2.66,6.26,0,8.46,0s2.88,2.62,2.88,4.52c0,2.07-.65,4.61-2.88,4.61S5.6,6.34,5.6,4.51Zm.84,0c0,1.44.4,3.88,2,3.88s2.05-2.47,2.05-3.86S10.12.76,8.47.76,6.44,3.15,6.44,4.51Z"/><path d="M17.34,8.28V9H12.1V8.21L14,6.1c1.76-1.94,2.29-2.86,2.29-3.68A1.61,1.61,0,0,0,14.57.77a3.07,3.07,0,0,0-2,.93l-.47-.6A3.66,3.66,0,0,1,14.62,0a2.37,2.37,0,0,1,2.55,2.4c0,1.26-.86,2.31-2.53,4.2L13.15,8.28Z"/><path d="M23.31,8.28V9H18.07V8.21L20,6.1c1.77-1.94,2.3-2.86,2.3-3.68A1.61,1.61,0,0,0,20.55.77a3.12,3.12,0,0,0-2,.93l-.47-.6A3.68,3.68,0,0,1,20.59,0a2.37,2.37,0,0,1,2.56,2.4c0,1.26-.86,2.31-2.53,4.2l-1.5,1.68Z"/><path d="M28.25,4,32.13.11h1.21L29.09,4.27,33.93,9H32.71L28.25,4.62V9h-.87V.11h.87Z"/><path d="M34.17,5V4.22h5.38V5Z"/><path d="M46.29,9h-5.6V.11h5.47V.82h-4.6V4h4.36v.69H41.56V8.28h4.73Z"/><path d="M51.78.11h1L50.12,4.46,52.88,9h-1L49.63,5.23,47.39,9h-1l2.75-4.52L46.5.11h1l2.14,3.58Z"/><path d="M56.55.11a2.69,2.69,0,0,1,2.87,2.72,2.7,2.7,0,0,1-2.85,2.75h-2V9h-.87V.11Zm-2,.71v4h2a1.91,1.91,0,0,0,2-2,1.91,1.91,0,0,0-2-2Z"/><path d="M59.85,4.57c0-2.5,1.29-4.56,3.87-4.56s3.94,2.06,3.94,4.56-1.37,4.56-3.94,4.56S59.85,7,59.85,4.57Zm3.87,3.84c2,0,3-1.9,3-3.84s-1-3.85-3-3.85-3,1.87-3,3.85S61.69,8.41,63.72,8.41Z"/><path d="M78.25.11,75.14,9h-1L71,.11h.92L74.62,8,77.34.11Z"/><path d="M79.94,9h-.87V.11h.87Z"/><path d="M87.17,9h-5.6V.11H87V.82h-4.6V4H86.8v.69H82.44V8.28h4.73Z"/><path d="M93.94.82H91.2V9h-.87V.82H87.6V.11h6.34Z"/><path d="M101.07,9h-1L95.68,1.57V9h-.87V.11h1l4.44,7.46V.11h.87Z"/><path d="M109.39,9h-.91l-.86-2.36h-4L102.79,9h-.9L105.17.11h.94Zm-2-3.07-1.72-4.82-1.73,4.82Z"/><path d="M118.05,9h-.85V1.59l-2.67,5h-.8l-2.67-5V9h-.85V.11h.94l3,5.61,3-5.61h.94Z"/></g></g></svg>