<svg xmlns="http://www.w3.org/2000/svg" viewBox="0 0 229.34 12.29"><defs><style>.cls-1{fill:#231815;}</style></defs><title>자산 132</title><g id="레이어_2" data-name="레이어 2"><g id="레이어_1-2" data-name="레이어 1"><path class="cls-1" d="M7.27.92,4.15,9.8h-1L0,.92H.92l2.72,7.9L6.35.92Z"/><path class="cls-1" d="M14.35,9.8h-1L9,2.39V9.8H8.09V.92H9l4.44,7.46V.92h.87Z"/><path class="cls-1" d="M15.48,5.82V5h5.37v.78Z"/><path class="cls-1" d="M22.86,4.76,26.74.92H28L23.71,5.09,28.54,9.8H27.32L22.86,5.43V9.8H22V.92h.87Z"/><path class="cls-1" d="M35.55,9.8H34.49L32,6H30.08V9.8h-.87V.92h3a2.6,2.6,0,0,1,2.88,2.51A2.53,2.53,0,0,1,33,5.9ZM32.13,5.3a1.83,1.83,0,0,0,2-1.87,1.76,1.76,0,0,0-2-1.8H30.08V5.3Z"/><path class="cls-1" d="M38.39,11.41a10,10,0,0,1-1.87-5.72A10,10,0,0,1,38.39,0h.69a11.08,11.08,0,0,0-1.66,5.71,11.18,11.18,0,0,0,1.66,5.7Z"/><path class="cls-1" d="M39.92,8.65a2.67,2.67,0,0,0,1.54.53c.91,0,1.48-.63,1.48-1.71V.92h.87V7.51a2.25,2.25,0,0,1-2.37,2.43,3.26,3.26,0,0,1-1.94-.63Z"/><path class="cls-1" d="M51,9.8h-5.6V.92h5.47v.71h-4.6v3.2h4.36v.7H46.22V9.09H51Z"/><path class="cls-1" d="M51.42,5.38c0-2.49,1.29-4.55,3.87-4.55s3.94,2.06,3.94,4.55-1.37,4.56-3.94,4.56S51.42,7.84,51.42,5.38Zm3.87,3.84c2,0,3-1.89,3-3.84s-1-3.84-3-3.84-3,1.87-3,3.84S53.26,9.22,55.29,9.22Z"/><path class="cls-1" d="M66.61,9.8h-1L61.22,2.39V9.8h-.87V.92h1l4.43,7.46V.92h.87Z"/><path class="cls-1" d="M74.42,9.8h-1L69,2.39V9.8h-.87V.92h1l4.44,7.46V.92h.87Z"/><path class="cls-1" d="M82.75,9.8h-.92L81,7.44H77L76.15,9.8h-.91L78.52.92h.94Zm-2-3.07L79,1.91,77.26,6.73Z"/><path class="cls-1" d="M91.4,9.8h-.85V2.41l-2.67,5h-.8l-2.67-5V9.8h-.84V.92h.94l3,5.62,3-5.62h.94Z"/><path class="cls-1" d="M92.59,11.41a11.18,11.18,0,0,0,1.66-5.7A11.18,11.18,0,0,0,92.59,0h.69a10,10,0,0,1,1.87,5.69,10,10,0,0,1-1.87,5.72Z"/><path class="cls-1" d="M105.37,3.09a2.26,2.26,0,0,1-1.21,2,2.48,2.48,0,0,1,1.63,2.28c0,1.39-.89,2.48-3,2.48H99.75V.92h3C104.25.92,105.37,1.63,105.37,3.09Zm-4.75-1.46V4.76h2.3a1.55,1.55,0,0,0,1.62-1.67c0-1-.65-1.46-1.85-1.46Zm2.21,7.46c1.37,0,2.11-.67,2.11-1.85a1.79,1.79,0,0,0-2-1.77h-2.3V9.09Z"/><path class="cls-1" d="M113.21.92V7a3.19,3.19,0,0,1-6.36,0V.92h.87v5.9A2.19,2.19,0,0,0,110,9.2a2.14,2.14,0,0,0,2.3-2.38V.92Z"/><path class="cls-1" d="M119,2.22a3.67,3.67,0,0,0-2-.66c-1.09,0-1.74.53-1.74,1.37s.76,1.33,2.25,2,2.34,1.31,2.34,2.62c0,1.68-1.46,2.41-2.88,2.41a4.41,4.41,0,0,1-3-1.1l.46-.66a3.81,3.81,0,0,0,2.41,1c.88,0,2.08-.33,2.08-1.61,0-.85-.78-1.41-2.11-2S114.35,4.38,114.35,3c0-1.66,1.37-2.21,2.6-2.21a4.92,4.92,0,0,1,2.44.74Z"/><path class="cls-1" d="M121.76,9.8h-.87V.92h.87Z"/><path class="cls-1" d="M129.64,9.8h-1l-4.42-7.41V9.8h-.88V.92h1l4.43,7.46V.92h.87Z"/><path class="cls-1" d="M136.79,9.8h-5.6V.92h5.47v.71h-4.6v3.2h4.37v.7h-4.37V9.09h4.73Z"/><path class="cls-1" d="M142.19,2.22a3.67,3.67,0,0,0-2-.66c-1.1,0-1.74.53-1.74,1.37s.75,1.33,2.24,2S143,6.22,143,7.53c0,1.68-1.46,2.41-2.89,2.41a4.43,4.43,0,0,1-2.95-1.1l.46-.66a3.83,3.83,0,0,0,2.41,1c.88,0,2.08-.33,2.08-1.61,0-.85-.77-1.41-2.1-2S137.57,4.38,137.57,3c0-1.66,1.36-2.21,2.6-2.21a4.91,4.91,0,0,1,2.43.74Z"/><path class="cls-1" d="M148.39,2.22a3.67,3.67,0,0,0-2-.66c-1.1,0-1.75.53-1.75,1.37s.76,1.33,2.25,2,2.34,1.31,2.34,2.62c0,1.68-1.46,2.41-2.88,2.41a4.43,4.43,0,0,1-3-1.1l.46-.66a3.81,3.81,0,0,0,2.41,1c.88,0,2.08-.33,2.08-1.61,0-.85-.78-1.41-2.1-2S143.76,4.38,143.76,3c0-1.66,1.37-2.21,2.6-2.21a4.92,4.92,0,0,1,2.44.74Z"/><path class="cls-1" d="M161.08,9.8h-.85V2.41l-2.67,5h-.8l-2.67-5V9.8h-.85V.92h.94l3,5.62,3-5.62h.94Z"/><path class="cls-1" d="M168.22,9.8h-5.6V.92h5.47v.71h-4.6v3.2h4.36v.7h-4.36V9.09h4.73Z"/><path class="cls-1" d="M174.93,9.8h-5.6V.92h5.47v.71h-4.6v3.2h4.37v.7H170.2V9.09h4.73Z"/><path class="cls-1" d="M181.7,1.63H179V9.8h-.87V1.63h-2.73V.92h6.34Z"/><path class="cls-1" d="M183.44,9.8h-.87V.92h.87Z"/><path class="cls-1" d="M191.32,9.8h-1l-4.42-7.41V9.8h-.88V.92h1l4.43,7.46V.92h.87Z"/><path class="cls-1" d="M198.73,6h-2.32V5.28h3.19V9.2a6.08,6.08,0,0,1-2.9.73c-2.56,0-4.21-2-4.21-4.57,0-2.72,1.77-4.57,4.16-4.57a4.85,4.85,0,0,1,2.67.67l-.38.64a4.72,4.72,0,0,0-2.3-.58c-2.08,0-3.24,1.78-3.24,3.84s1.26,3.84,3.3,3.84a4.68,4.68,0,0,0,2-.44Z"/><path class="cls-1" d="M200.81,9.18h1.26v1a2.33,2.33,0,0,1-.07.66,2.56,2.56,0,0,1-1,1.42l-.25-.25a2.16,2.16,0,0,0,.77-1.64h-.67Z"/><path class="cls-1" d="M211.28,9.09V9.8H206V9L208,6.92c1.77-1.94,2.3-2.87,2.3-3.68a1.62,1.62,0,0,0-1.75-1.66,3.13,3.13,0,0,0-2,.94l-.47-.6a3.68,3.68,0,0,1,2.53-1.1,2.37,2.37,0,0,1,2.56,2.39c0,1.26-.86,2.32-2.54,4.2l-1.49,1.68Z"/><path class="cls-1" d="M211.63,5.33c0-1.85.66-4.5,2.86-4.5s2.88,2.61,2.88,4.52c0,2.06-.65,4.61-2.88,4.61S211.63,7.16,211.63,5.33Zm.85,0c0,1.43.4,3.88,2,3.88s2-2.47,2-3.86-.37-3.78-2-3.78S212.48,4,212.48,5.33Z"/><path class="cls-1" d="M223.37,9.09V9.8h-5.24V9l1.92-2.11c1.77-1.94,2.3-2.87,2.3-3.68a1.62,1.62,0,0,0-1.75-1.66,3.13,3.13,0,0,0-2,.94l-.47-.6a3.68,3.68,0,0,1,2.53-1.1,2.36,2.36,0,0,1,2.55,2.39c0,1.26-.85,2.32-2.53,4.2l-1.49,1.68Z"/><path class="cls-1" d="M229.34,9.09V9.8h-5.23V9L226,6.92c1.77-1.94,2.3-2.87,2.3-3.68a1.62,1.62,0,0,0-1.74-1.66,3.09,3.09,0,0,0-2,.94l-.47-.6a3.65,3.65,0,0,1,2.53-1.1,2.37,2.37,0,0,1,2.55,2.39c0,1.26-.86,2.32-2.53,4.2l-1.5,1.68Z"/></g></g></svg>