<svg xmlns="http://www.w3.org/2000/svg" viewBox="0 0 257.12 31.88"><title>자산 130</title><g id="레이어_2" data-name="레이어 2"><g id="레이어_1-2" data-name="레이어 1"><path d="M35.72,9.13H34.8l-.86-2.37H30l-.87,2.37h-.91L31.49.25h.94Zm-2-3.07L32,1.24,30.23,6.06Z"/><path d="M41.73,8.05l1.42-5.38H44L42.16,9.13H41.3L39.85,3.66,38.41,9.13h-.86L35.73,2.67h.83L38,8.05,39.4,2.67h.91Z"/><path d="M45,3.05a3.78,3.78,0,0,1,2.07-.58,2.11,2.11,0,0,1,2.12,1.27,3.16,3.16,0,0,1,.19,1.12v3a5.25,5.25,0,0,0,.12,1.3h-.84a6.93,6.93,0,0,1-.16-.78,2.54,2.54,0,0,1-2.08.9,2.09,2.09,0,0,1-2.18-2.09c0-1.58,1.17-2.27,3.16-2.27.35,0,.72,0,1.12.06V4.76A1.41,1.41,0,0,0,47,3.18a3.2,3.2,0,0,0-1.66.5ZM48.5,5.63a8.86,8.86,0,0,0-1,0c-1.61,0-2.42.49-2.42,1.52a1.39,1.39,0,0,0,1.49,1.38A1.77,1.77,0,0,0,48.5,6.85Z"/><path d="M51.5,3.8a2.19,2.19,0,0,1,2-1.31,1.32,1.32,0,0,1,.28,0V3.3l-.28,0a2,2,0,0,0-2,2v3.9h-.87V2.67h.87Z"/><path d="M58.72,3.67V0h.87V9.13h-.87v-1a2.53,2.53,0,0,1-2.1,1.1C55,9.26,53.81,8,53.81,5.9s1.06-3.42,2.86-3.42A2.38,2.38,0,0,1,58.72,3.67Zm-4,2.23c0,1.28.61,2.68,2,2.68s2-1.19,2-2.68V5.8c0-1.7-.86-2.63-2-2.63C55.32,3.17,54.71,4.56,54.71,5.9Z"/><path d="M65.81,8.62a3.38,3.38,0,0,1-2,.64A3.09,3.09,0,0,1,60.63,6c0-2,1-3.46,2.9-3.46a2.79,2.79,0,0,1,2.73,3,2.69,2.69,0,0,1,0,.49h-4.7a2.3,2.3,0,0,0,2.3,2.54,2.79,2.79,0,0,0,1.64-.5Zm-.39-3.33a2,2,0,0,0-1.93-2.06,2.2,2.2,0,0,0-1.93,2.06Z"/><path d="M71.8,3.67V0h.87V9.13H71.8v-1a2.54,2.54,0,0,1-2.1,1.1C68,9.26,66.89,8,66.89,5.9S68,2.48,69.75,2.48A2.38,2.38,0,0,1,71.8,3.67Zm-4,2.23c0,1.28.62,2.68,2,2.68s2-1.19,2-2.68V5.8c0-1.7-.86-2.63-2-2.63C68.4,3.17,67.78,4.56,67.78,5.9Z"/><path d="M77.3,1l.87-.27v2H79.7v.71H78.17V7.54c0,.86.64,1,1.41,1v.73C78.21,9.26,77.3,9,77.3,7.6V3.38h-.92V2.67h.92Z"/><path d="M81.41,3.68a2.45,2.45,0,0,1,2-1.2,2.27,2.27,0,0,1,2.42,2.41V9.13H85V5a1.64,1.64,0,0,0-1.62-1.83,2.06,2.06,0,0,0-2,2.17V9.13h-.87V0h.87Z"/><path d="M92,8.62a3.33,3.33,0,0,1-2,.64A3.08,3.08,0,0,1,86.79,6c0-2,1-3.46,2.89-3.46a2.79,2.79,0,0,1,2.73,3,4,4,0,0,1,0,.49H87.68A2.31,2.31,0,0,0,90,8.55a2.78,2.78,0,0,0,1.63-.5Zm-.38-3.33a2,2,0,0,0-1.93-2.06,2.18,2.18,0,0,0-1.93,2.06Z"/><path d="M104.25,9.13h-.84V1.74l-2.67,5h-.8l-2.67-5V9.13h-.85V.25h.94l3,5.62,3-5.62h.94Z"/><path d="M105.6,0h1V1.19h-1Zm.09,2.67h.87V9.13h-.87Z"/><path d="M107.94,0h.87V9.13h-.87Z"/><path d="M110.2,0h.87V9.13h-.87Z"/><path d="M112.38,0h1V1.19h-1Zm.08,2.67h.87V9.13h-.87Z"/><path d="M117.36,2.49a3.08,3.08,0,0,1,3,3.39c0,2.08-1.29,3.39-3,3.39s-3-1.31-3-3.39S115.68,2.49,117.36,2.49Zm0,6.09c1.16,0,2.11-1,2.11-2.7s-1-2.69-2.11-2.69-2.09,1-2.09,2.69S116.22,8.58,117.36,8.58Z"/><path d="M122.28,3.68a2.4,2.4,0,0,1,2-1.2,2.28,2.28,0,0,1,2.43,2.41V9.13h-.88V5a1.64,1.64,0,0,0-1.62-1.83,2,2,0,0,0-2,2.17V9.13h-.87V2.67h.87Z"/><path d="M133.79.25c2.53,0,4.05,1.85,4.05,4.45,0,2.4-1.55,4.43-4.05,4.43H131V.25Zm-.07,8.17c2.08,0,3.2-1.72,3.2-3.73,0-2.29-1.22-3.73-3.2-3.73h-1.81V8.42Z"/><path d="M141.52,2.49a3.08,3.08,0,0,1,3,3.39c0,2.08-1.3,3.39-3,3.39s-3-1.31-3-3.39S139.84,2.49,141.52,2.49Zm0,6.09c1.15,0,2.1-1,2.1-2.7s-1-2.69-2.1-2.69-2.1,1-2.1,2.69S140.38,8.58,141.52,8.58Z"/><path d="M145.56,0h.87V9.13h-.87Z"/><path d="M147.82,0h.87V9.13h-.87Z"/><path d="M150.38,3.05a3.78,3.78,0,0,1,2.07-.58,2.1,2.1,0,0,1,2.12,1.27,3.16,3.16,0,0,1,.19,1.12v3a5.25,5.25,0,0,0,.12,1.3H154a6.93,6.93,0,0,1-.16-.78,2.52,2.52,0,0,1-2.07.9,2.1,2.1,0,0,1-2.19-2.09c0-1.58,1.18-2.27,3.16-2.27.36,0,.72,0,1.12.06V4.76a1.41,1.41,0,0,0-1.51-1.58,3.14,3.14,0,0,0-1.66.5Zm3.52,2.58a8.74,8.74,0,0,0-1,0c-1.61,0-2.42.49-2.42,1.52A1.39,1.39,0,0,0,152,8.48a1.77,1.77,0,0,0,1.92-1.63Z"/><path d="M156.9,3.8a2.21,2.21,0,0,1,2-1.31,1.32,1.32,0,0,1,.28,0V3.3l-.28,0a2,2,0,0,0-2,2v3.9H156V2.67h.87Z"/><path d="M168.48,9.13h-5.6V.25h5.48V1h-4.6v3.2h4.36v.7h-4.36V8.42h4.72Z"/><path d="M171.48,5.19l1.72-2.52h1l-2.22,3.2,2.26,3.26h-1l-1.73-2.55-1.74,2.55h-1L171,5.89l-2.2-3.22h1Z"/><path d="M177.72,2.48c1.76,0,2.85,1.31,2.85,3.43s-1.1,3.35-2.83,3.35a2.49,2.49,0,0,1-2.07-1.1v3.71h-.87V2.67h.87v1A2.34,2.34,0,0,1,177.72,2.48Zm0,.69c-1.16,0-2,.93-2,2.63v.1c0,1.49.66,2.68,2,2.68s2-1.4,2-2.68S179.07,3.17,177.69,3.17Z"/><path d="M184.28,2.49a3.08,3.08,0,0,1,3,3.39c0,2.08-1.3,3.39-3,3.39s-3-1.31-3-3.39S182.59,2.49,184.28,2.49Zm0,6.09c1.15,0,2.1-1,2.1-2.7s-.95-2.69-2.1-2.69-2.1,1-2.1,2.69S183.14,8.58,184.28,8.58Z"/><path d="M189.19,3.8a2.21,2.21,0,0,1,2-1.31,1.42,1.42,0,0,1,.29,0V3.3a2.85,2.85,0,0,0-.29,0,2,2,0,0,0-2,2v3.9h-.87V2.67h.87Z"/><path d="M192.67,1l.87-.27v2h1.53v.71h-1.53V7.54c0,.86.65,1,1.41,1v.73c-1.36,0-2.28-.32-2.28-1.67V3.38h-.92V2.67h.92Z"/><path d="M204.62,1h-2.74V9.13H201V1h-2.73V.25h6.34Z"/><path d="M206.74,2.49a3.08,3.08,0,0,1,3,3.39c0,2.08-1.3,3.39-3,3.39s-3-1.31-3-3.39S205.06,2.49,206.74,2.49Zm0,6.09c1.15,0,2.1-1,2.1-2.7s-1-2.69-2.1-2.69-2.1,1-2.1,2.69S205.6,8.58,206.74,8.58Z"/><path d="M216.08,8.05l1.42-5.38h.84l-1.83,6.46h-.86l-1.44-5.47-1.45,5.47h-.86l-1.82-6.46h.83l1.43,5.38,1.41-5.38h.91Z"/><path d="M223.86,8.62a3.33,3.33,0,0,1-2,.64A3.08,3.08,0,0,1,218.69,6c0-2,1-3.46,2.89-3.46a2.79,2.79,0,0,1,2.73,3,2.69,2.69,0,0,1,0,.49h-4.7a2.3,2.3,0,0,0,2.3,2.54,2.79,2.79,0,0,0,1.64-.5Zm-.39-3.33a2,2,0,0,0-1.93-2.06,2.2,2.2,0,0,0-1.93,2.06Z"/><path d="M226.14,3.8a2.21,2.21,0,0,1,2-1.31,1.42,1.42,0,0,1,.29,0V3.3a2.85,2.85,0,0,0-.29,0,2,2,0,0,0-2,2v3.9h-.87V2.67h.87Z"/><path d="M1.87,30.73a9.62,9.62,0,0,1,0-11.4h.69A11.13,11.13,0,0,0,.91,25a11.13,11.13,0,0,0,1.65,5.69Z"/><path d="M11.61,29.13h-.85V21.74l-2.67,5h-.8l-2.67-5v7.39H3.77V20.25h.95l3,5.62,3-5.62h.94Z"/><path d="M13,20h1v1.19H13ZM13,22.67h.87v6.46H13Z"/><path d="M16.17,23.68a2.4,2.4,0,0,1,2-1.2,2.28,2.28,0,0,1,2.43,2.41v4.24h-.87V25a1.65,1.65,0,0,0-1.63-1.83,2,2,0,0,0-1.95,2.17v3.79H15.3V22.67h.87Z"/><path d="M21.8,20h1v1.19h-1Zm.08,2.67h.88v6.46h-.88Z"/><path d="M27.21,23.66a2.72,2.72,0,0,0-1.34-.46c-.77,0-1.17.39-1.17.91s.49.9,1.53,1.41,1.68,1,1.68,1.9a1.87,1.87,0,0,1-2.11,1.81,3,3,0,0,1-2.21-.88l.47-.59a2.55,2.55,0,0,0,1.71.74c.7,0,1.29-.31,1.29-1.05s-.59-.94-1.31-1.27c-.88-.4-1.87-.9-1.87-2a1.72,1.72,0,0,1,1.93-1.72,3.23,3.23,0,0,1,1.82.58Z"/><path d="M29.09,21l.87-.27v2h1.53v.71H30v4.16c0,.86.65,1,1.42,1v.73c-1.37,0-2.29-.32-2.29-1.67V23.38h-.91v-.71h.91Z"/><path d="M33.21,23.8a2.21,2.21,0,0,1,2-1.31,1.27,1.27,0,0,1,.28,0v.79a2.4,2.4,0,0,0-.28,0,2,2,0,0,0-2,2v3.9h-.87V22.67h.87Z"/><path d="M35.58,31.15a2.66,2.66,0,0,0,2.19-2.07L35.4,22.67h.93L38.22,28l1.84-5.35H41l-2.1,5.93c-.69,1.95-1.15,2.88-3,3.28Z"/><path d="M47.11,22.49a3.08,3.08,0,0,1,3,3.39c0,2.08-1.29,3.39-3,3.39s-3-1.31-3-3.39S45.43,22.49,47.11,22.49Zm0,6.09c1.15,0,2.11-1,2.11-2.7s-1-2.69-2.11-2.69S45,24.16,45,25.88,46,28.58,47.11,28.58Z"/><path d="M51.45,22.67v-.75a3.36,3.36,0,0,1,.12-1,1.61,1.61,0,0,1,1.61-1.14,3.16,3.16,0,0,1,1.14.22l-.25.68a2.71,2.71,0,0,0-.77-.16.85.85,0,0,0-.87.57,2,2,0,0,0-.11.81v.79h1.36v.71H52.32v5.75h-.87V23.38h-.91v-.71Z"/><path d="M63.41,21H60.67v8.17H59.8V21H57.07v-.71h6.34Z"/><path d="M63.87,23.8a2.21,2.21,0,0,1,2-1.31,1.32,1.32,0,0,1,.28,0v.79l-.28,0a2,2,0,0,0-2,2v3.9H63V22.67h.87Z"/><path d="M66.76,23.05a3.78,3.78,0,0,1,2.07-.58A2.11,2.11,0,0,1,71,23.74a3.16,3.16,0,0,1,.19,1.12v3a5.76,5.76,0,0,0,.11,1.3h-.83a5.74,5.74,0,0,1-.17-.78,2.5,2.5,0,0,1-2.07.9A2.09,2.09,0,0,1,66,27.16c0-1.58,1.17-2.27,3.16-2.27.35,0,.72,0,1.12.06v-.19a1.41,1.41,0,0,0-1.52-1.58,3.2,3.2,0,0,0-1.66.5Zm3.52,2.58a8.86,8.86,0,0,0-1-.05c-1.61,0-2.42.49-2.42,1.52a1.39,1.39,0,0,0,1.49,1.38,1.77,1.77,0,0,0,1.92-1.63Z"/><path d="M77,23.67V20h.87v9.13H77v-1a2.52,2.52,0,0,1-2.09,1.1c-1.67,0-2.81-1.25-2.81-3.36s1-3.42,2.85-3.42A2.37,2.37,0,0,1,77,23.67ZM73,25.9c0,1.28.61,2.68,2,2.68s2-1.19,2-2.68v-.1c0-1.7-.86-2.63-2-2.63C73.58,23.17,73,24.56,73,25.9Z"/><path d="M84.07,28.62a3.33,3.33,0,0,1-2,.64A3.08,3.08,0,0,1,78.9,26c0-2,1-3.46,2.89-3.46a2.79,2.79,0,0,1,2.73,3,4,4,0,0,1,0,.49H79.79a2.31,2.31,0,0,0,2.31,2.54,2.78,2.78,0,0,0,1.63-.5Zm-.39-3.33a2,2,0,0,0-1.93-2.06,2.18,2.18,0,0,0-1.92,2.06Z"/><path d="M85.48,28.5h1.26v1a2.3,2.3,0,0,1-.07.65,2.55,2.55,0,0,1-1,1.43l-.25-.25a2.16,2.16,0,0,0,.77-1.64h-.67Z"/><path d="M92,29.13H91.1V20.25H92Z"/><path d="M94.36,23.68a2.4,2.4,0,0,1,2-1.2,2.28,2.28,0,0,1,2.43,2.41v4.24h-.87V25a1.65,1.65,0,0,0-1.63-1.83,2,2,0,0,0-2,2.17v3.79h-.87V22.67h.87Z"/><path d="M104.65,23.67V20h.87v9.13h-.87v-1a2.52,2.52,0,0,1-2.09,1.1c-1.67,0-2.81-1.25-2.81-3.36s1-3.42,2.85-3.42A2.37,2.37,0,0,1,104.65,23.67Zm-4,2.23c0,1.28.61,2.68,2,2.68s2-1.19,2-2.68v-.1c0-1.7-.86-2.63-2-2.63C101.25,23.17,100.64,24.56,100.64,25.9Z"/><path d="M111.3,28.06a2.41,2.41,0,0,1-2,1.2,2.27,2.27,0,0,1-2.42-2.41V22.67h.87v4.07a1.65,1.65,0,0,0,1.62,1.84,2.05,2.05,0,0,0,2-2.18V22.67h.87v6.46h-.87Z"/><path d="M116.56,23.66a2.72,2.72,0,0,0-1.34-.46c-.77,0-1.17.39-1.17.91s.49.9,1.53,1.41,1.68,1,1.68,1.9a1.87,1.87,0,0,1-2.11,1.81,3,3,0,0,1-2.21-.88l.47-.59a2.55,2.55,0,0,0,1.71.74c.7,0,1.29-.31,1.29-1.05s-.59-.94-1.31-1.27c-.88-.4-1.87-.9-1.87-2a1.72,1.72,0,0,1,1.93-1.72,3.23,3.23,0,0,1,1.82.58Z"/><path d="M118.44,21l.88-.27v2h1.52v.71h-1.52v4.16c0,.86.64,1,1.41,1v.73c-1.37,0-2.29-.32-2.29-1.67V23.38h-.91v-.71h.91Z"/><path d="M122.56,23.8a2.21,2.21,0,0,1,2-1.31,1.27,1.27,0,0,1,.28,0v.79a2.4,2.4,0,0,0-.28,0,2,2,0,0,0-2,2v3.9h-.87V22.67h.87Z"/><path d="M124.94,31.15a2.66,2.66,0,0,0,2.18-2.07l-2.37-6.41h.93L127.57,28l1.84-5.35h.93l-2.11,5.93c-.69,1.95-1.15,2.88-3,3.28Z"/><path d="M134.12,23.05a3.78,3.78,0,0,1,2.07-.58,2.11,2.11,0,0,1,2.12,1.27,3.16,3.16,0,0,1,.19,1.12v3a5.76,5.76,0,0,0,.11,1.3h-.83c-.09-.3-.17-.78-.17-.78a2.5,2.5,0,0,1-2.07.9,2.09,2.09,0,0,1-2.18-2.09c0-1.58,1.17-2.27,3.16-2.27.35,0,.72,0,1.12.06v-.19a1.41,1.41,0,0,0-1.52-1.58,3.2,3.2,0,0,0-1.66.5Zm3.52,2.58a8.86,8.86,0,0,0-1-.05c-1.61,0-2.42.49-2.42,1.52a1.39,1.39,0,0,0,1.49,1.38,1.77,1.77,0,0,0,1.92-1.63Z"/><path d="M140.64,23.68a2.39,2.39,0,0,1,2-1.2,2.27,2.27,0,0,1,2.42,2.41v4.24h-.87V25a1.64,1.64,0,0,0-1.62-1.83,2,2,0,0,0-2,2.17v3.79h-.88V22.67h.88Z"/><path d="M150.93,23.67V20h.87v9.13h-.87v-1a2.54,2.54,0,0,1-2.1,1.1c-1.67,0-2.81-1.25-2.81-3.36s1.06-3.42,2.86-3.42A2.38,2.38,0,0,1,150.93,23.67Zm-4,2.23c0,1.28.61,2.68,2,2.68s2-1.19,2-2.68v-.1c0-1.7-.86-2.63-2-2.63C147.53,23.17,146.92,24.56,146.92,25.9Z"/><path d="M161.83,29.13h-5.6V20.25h5.47V21h-4.6v3.2h4.36v.7H157.1v3.56h4.73Z"/><path d="M163.71,23.68a2.4,2.4,0,0,1,2-1.2,2.28,2.28,0,0,1,2.43,2.41v4.24h-.88V25a1.64,1.64,0,0,0-1.62-1.83,2,2,0,0,0-1.95,2.17v3.79h-.87V22.67h.87Z"/><path d="M174.26,28.62a3.39,3.39,0,0,1-2,.64A3.09,3.09,0,0,1,169.08,26c0-2,1-3.46,2.9-3.46a2.79,2.79,0,0,1,2.73,3,2.69,2.69,0,0,1,0,.49H170a2.3,2.3,0,0,0,2.3,2.54,2.81,2.81,0,0,0,1.64-.5Zm-.39-3.33a2,2,0,0,0-1.93-2.06A2.2,2.2,0,0,0,170,25.29Z"/><path d="M176.54,23.8a2.21,2.21,0,0,1,2-1.31,1.32,1.32,0,0,1,.28,0v.79l-.28,0a2,2,0,0,0-2,2v3.9h-.87V22.67h.87Z"/><path d="M183.76,23.67v-1h.87v5.92a2.86,2.86,0,0,1-2.93,3.2,4.62,4.62,0,0,1-2.22-.6l.32-.66a3.87,3.87,0,0,0,1.88.52c1.1,0,2.08-.75,2.08-2.49v-.48a2.41,2.41,0,0,1-2.08,1.06c-1.67,0-2.83-1.19-2.83-3.27s1.1-3.39,2.84-3.39A2.36,2.36,0,0,1,183.76,23.67Zm-4,2.17c0,1.28.61,2.62,2,2.62s2-1.13,2-2.62v0c0-1.7-.86-2.63-2-2.63C180.36,23.17,179.75,24.5,179.75,25.84Z"/><path d="M185.45,31.15a2.67,2.67,0,0,0,2.19-2.07l-2.38-6.41h.93l1.9,5.35,1.83-5.35h.93l-2.1,5.93c-.7,1.95-1.16,2.88-3,3.28Z"/><path d="M201.21,29.13h-.92l-.85-2.37h-4l-.87,2.37h-.9L197,20.25h.94Zm-2-3.07-1.72-4.82-1.73,4.82Z"/><path d="M207.22,28.05l1.43-5.38h.83l-1.82,6.46h-.86l-1.45-5.47-1.45,5.47H203l-1.82-6.46h.84l1.42,5.38,1.41-5.38h.92Z"/><path d="M210.48,23.05a3.78,3.78,0,0,1,2.07-.58,2.11,2.11,0,0,1,2.12,1.27,3.41,3.41,0,0,1,.18,1.12v3a5.78,5.78,0,0,0,.12,1.3h-.83a5.74,5.74,0,0,1-.17-.78,2.52,2.52,0,0,1-2.07.9,2.1,2.1,0,0,1-2.19-2.09c0-1.58,1.18-2.27,3.17-2.27.35,0,.71,0,1.11.06l0-.19a1.42,1.42,0,0,0-1.52-1.58,3.14,3.14,0,0,0-1.66.5ZM214,25.63a8.69,8.69,0,0,0-1-.05c-1.62,0-2.43.49-2.43,1.52a1.4,1.4,0,0,0,1.5,1.38A1.77,1.77,0,0,0,214,26.85Z"/><path d="M217,23.8a2.21,2.21,0,0,1,2-1.31,1.42,1.42,0,0,1,.29,0v.79a2.85,2.85,0,0,0-.29,0,2,2,0,0,0-2,2v3.9h-.87V22.67H217Z"/><path d="M224.21,23.67V20h.87v9.13h-.87v-1a2.51,2.51,0,0,1-2.09,1.1c-1.67,0-2.81-1.25-2.81-3.36s1.06-3.42,2.86-3.42A2.35,2.35,0,0,1,224.21,23.67Zm-4,2.23c0,1.28.61,2.68,2,2.68s2-1.19,2-2.68v-.1c0-1.7-.85-2.63-2-2.63C220.81,23.17,220.2,24.56,220.2,25.9Z"/><path d="M226.22,30.73A11.05,11.05,0,0,0,227.88,25a11.05,11.05,0,0,0-1.66-5.71h.7A10,10,0,0,1,228.79,25a10.1,10.1,0,0,1-1.87,5.72Z"/><path d="M230.34,28.5h1.26v1a2.73,2.73,0,0,1-.07.65,2.55,2.55,0,0,1-1,1.43l-.26-.25a2.2,2.2,0,0,0,.78-1.64h-.67Z"/><path d="M240.81,28.42v.71h-5.24v-.77l1.92-2.11c1.76-1.94,2.29-2.87,2.29-3.68A1.62,1.62,0,0,0,238,20.91a3.06,3.06,0,0,0-2,.94l-.47-.6a3.68,3.68,0,0,1,2.53-1.11,2.37,2.37,0,0,1,2.55,2.4c0,1.26-.86,2.32-2.53,4.2l-1.49,1.68Z"/><path d="M241.16,24.65c0-1.84.66-4.49,2.86-4.49s2.88,2.61,2.88,4.52-.65,4.6-2.88,4.6S241.16,26.49,241.16,24.65Zm.84,0c0,1.44.4,3.89,2,3.89s2.05-2.47,2.05-3.86-.37-3.78-2-3.78S242,23.3,242,24.65Z"/><path d="M249.21,29.14V21.36l-1.31,1.1-.45-.55,1.92-1.66h.71v8.89Z"/><path d="M252.55,28.56A4.64,4.64,0,0,0,256.2,25a3.06,3.06,0,0,1-2.15.85,2.59,2.59,0,0,1-2.59-2.77,2.69,2.69,0,0,1,2.76-2.94c1.74,0,2.9,1.32,2.9,3.76a5.37,5.37,0,0,1-4.4,5.39ZM252.32,23a1.94,1.94,0,0,0,1.86,2.11,2.49,2.49,0,0,0,2.06-1,4.8,4.8,0,0,0,0-.55c0-1.31-.59-2.69-2-2.69A2,2,0,0,0,252.32,23Z"/></g></g></svg>