<svg xmlns="http://www.w3.org/2000/svg" viewBox="0 0 267.33 11.51"><defs><style>.cls-1{fill:#231815;}</style></defs><title>자산 131</title><g id="레이어_2" data-name="레이어 2"><g id="레이어_1-2" data-name="레이어 1"><path class="cls-1" d="M.87,4,4.75.14H6L1.72,4.3,6.55,9H5.33L.87,4.65V9H0V.14H.87Z"/><path class="cls-1" d="M6.8,5V4.26h5.37V5Z"/><path class="cls-1" d="M17.59,1.44a3.64,3.64,0,0,0-2-.66c-1.09,0-1.74.53-1.74,1.37s.75,1.33,2.25,2,2.34,1.31,2.34,2.62c0,1.68-1.46,2.41-2.88,2.41a4.45,4.45,0,0,1-3-1.1l.46-.66a3.85,3.85,0,0,0,2.41,1c.89,0,2.09-.33,2.09-1.61,0-.85-.78-1.41-2.11-2S13,3.6,13,2.21C13,.55,14.33,0,15.57,0A5,5,0,0,1,18,.74Z"/><path class="cls-1" d="M25.11,9h-5.6V.14H25V.85h-4.6v3.2h4.37v.7H20.38V8.31h4.73Z"/><path class="cls-1" d="M32.73,9h-.92L31,6.66H27L26.13,9h-.91L28.51.14h.94ZM30.7,6,29,1.13,27.25,6Z"/><path class="cls-1" d="M38.84.85H34.42v3.3h4.19v.71H34.42V9h-.87V.14h5.29Z"/><path class="cls-1" d="M39.43,4.61c0-2.5,1.29-4.56,3.87-4.56s3.94,2.06,3.94,4.56S45.88,9.16,43.3,9.16,39.43,7.06,39.43,4.61ZM43.3,8.44c2.05,0,3-1.89,3-3.83s-1-3.86-3-3.86-3,1.88-3,3.86S41.28,8.44,43.3,8.44Z"/><path class="cls-1" d="M48,4.61C48,2.11,49.25.05,51.83.05s3.94,2.06,3.94,4.56S54.4,9.16,51.83,9.16,48,7.06,48,4.61Zm3.87,3.83c2,0,3-1.89,3-3.83s-1-3.86-3-3.86-3,1.88-3,3.86S49.8,8.44,51.83,8.44Z"/><path class="cls-1" d="M59.65.14c2.53,0,4,1.85,4,4.45,0,2.4-1.55,4.43-4,4.43H56.89V.14Zm-.07,8.17c2.08,0,3.2-1.71,3.2-3.73,0-2.29-1.23-3.73-3.2-3.73H57.76V8.31Z"/><path class="cls-1" d="M73.4,2.31a2.25,2.25,0,0,1-1.22,1.95,2.48,2.48,0,0,1,1.64,2.28c0,1.39-.9,2.48-3,2.48H67.77V.14h3C72.28.14,73.4.85,73.4,2.31ZM68.64.85V4H71a1.54,1.54,0,0,0,1.61-1.67c0-1-.65-1.46-1.85-1.46Zm2.21,7.46c1.37,0,2.11-.67,2.11-1.85a1.78,1.78,0,0,0-2-1.77H68.64V8.31Z"/><path class="cls-1" d="M81.24.14V6.22a3.19,3.19,0,0,1-6.36,0V.14h.87V6a2.19,2.19,0,0,0,2.31,2.38A2.14,2.14,0,0,0,80.37,6V.14Z"/><path class="cls-1" d="M87,1.44a3.67,3.67,0,0,0-2-.66c-1.09,0-1.74.53-1.74,1.37s.75,1.33,2.25,2,2.34,1.31,2.34,2.62c0,1.68-1.46,2.41-2.89,2.41a4.45,4.45,0,0,1-3-1.1l.46-.66a3.83,3.83,0,0,0,2.41,1C85.75,8.37,87,8,87,6.76c0-.85-.77-1.41-2.1-2S82.38,3.6,82.38,2.21C82.38.55,83.74,0,85,0a4.91,4.91,0,0,1,2.43.74Z"/><path class="cls-1" d="M89.79,9h-.87V.14h.87Z"/><path class="cls-1" d="M97.67,9h-1L92.28,1.61V9h-.87V.14h1L96.8,7.6V.14h.87Z"/><path class="cls-1" d="M104.82,9h-5.6V.14h5.47V.85h-4.6v3.2h4.36v.7h-4.36V8.31h4.73Z"/><path class="cls-1" d="M110.21,1.44a3.64,3.64,0,0,0-2-.66c-1.09,0-1.74.53-1.74,1.37s.75,1.33,2.25,2,2.34,1.31,2.34,2.62c0,1.68-1.46,2.41-2.88,2.41a4.45,4.45,0,0,1-3-1.1l.46-.66a3.85,3.85,0,0,0,2.41,1c.89,0,2.09-.33,2.09-1.61,0-.85-.78-1.41-2.11-2s-2.47-1.19-2.47-2.58C105.59.55,107,0,108.19,0a5,5,0,0,1,2.44.74Z"/><path class="cls-1" d="M116.41,1.44a3.67,3.67,0,0,0-2-.66c-1.09,0-1.74.53-1.74,1.37s.75,1.33,2.25,2,2.34,1.31,2.34,2.62c0,1.68-1.46,2.41-2.88,2.41a4.45,4.45,0,0,1-3-1.1l.46-.66a3.83,3.83,0,0,0,2.41,1c.89,0,2.09-.33,2.09-1.61,0-.85-.78-1.41-2.11-2s-2.47-1.19-2.47-2.58c0-1.66,1.36-2.21,2.6-2.21a4.91,4.91,0,0,1,2.43.74Z"/><path class="cls-1" d="M129.1,9h-.84V1.63l-2.68,5h-.79l-2.68-5V9h-.84V.14h.94l3,5.62,3-5.62h.94Z"/><path class="cls-1" d="M136.24,9h-5.6V.14h5.47V.85h-4.6v3.2h4.37v.7h-4.37V8.31h4.73Z"/><path class="cls-1" d="M143,9h-5.61V.14h5.48V.85h-4.6v3.2h4.36v.7h-4.36V8.31H143Z"/><path class="cls-1" d="M149.73.85H147V9h-.87V.85h-2.73V.14h6.34Z"/><path class="cls-1" d="M151.47,9h-.87V.14h.87Z"/><path class="cls-1" d="M159.35,9h-1L154,1.61V9h-.87V.14H154l4.44,7.46V.14h.87Z"/><path class="cls-1" d="M166.76,5.19h-2.32V4.5h3.19V8.42a6.12,6.12,0,0,1-2.91.73c-2.55,0-4.21-2-4.21-4.57,0-2.72,1.78-4.57,4.16-4.57a4.85,4.85,0,0,1,2.67.67l-.37.64a4.8,4.8,0,0,0-2.31-.58c-2.08,0-3.23,1.78-3.23,3.84s1.26,3.84,3.29,3.84a4.58,4.58,0,0,0,2-.45Z"/><path class="cls-1" d="M172.75,9h-.87V.14h.87Z"/><path class="cls-1" d="M180.63,9h-1l-4.42-7.41V9h-.87V.14h1l4.43,7.46V.14h.87Z"/><path class="cls-1" d="M190.78.85H188V9h-.87V.85h-2.73V.14h6.34Z"/><path class="cls-1" d="M197.84,9H197V4.7h-4.45V9h-.87V.14h.87V4H197V.14h.87Z"/><path class="cls-1" d="M206.16,9h-.91l-.86-2.36h-3.95L199.56,9h-.9L201.94.14h.94Zm-2-3.07-1.72-4.82L200.68,6Z"/><path class="cls-1" d="M207.86,9H207V.14h.88Z"/><path class="cls-1" d="M214.6,9h-5.12V.14h.87V8.31h4.25Z"/><path class="cls-1" d="M222.33,9h-.91l-.86-2.36h-4L215.73,9h-.9L218.11.14h.94ZM220.3,6l-1.72-4.82L216.85,6Z"/><path class="cls-1" d="M229.41,9h-1L224,1.61V9h-.87V.14h1l4.43,7.46V.14h.87Z"/><path class="cls-1" d="M233.72.14c2.53,0,4,1.85,4,4.45,0,2.4-1.55,4.43-4,4.43H231V.14Zm-.07,8.17c2.08,0,3.19-1.71,3.19-3.73,0-2.29-1.22-3.73-3.19-3.73h-1.82V8.31Z"/><path class="cls-1" d="M238.79,8.39h1.26v1a2.33,2.33,0,0,1-.07.66,2.5,2.5,0,0,1-1,1.42l-.26-.25a2.2,2.2,0,0,0,.78-1.64h-.68Z"/><path class="cls-1" d="M249.26,8.31V9H244V8.25L246,6.14c1.76-1.94,2.29-2.87,2.29-3.68A1.62,1.62,0,0,0,246.5.8a3,3,0,0,0-2,.94l-.47-.6A3.64,3.64,0,0,1,246.54,0a2.37,2.37,0,0,1,2.56,2.39c0,1.26-.86,2.32-2.53,4.2l-1.5,1.68Z"/><path class="cls-1" d="M249.61,4.54c0-1.84.66-4.49,2.86-4.49s2.88,2.61,2.88,4.52-.64,4.6-2.88,4.6S249.61,6.38,249.61,4.54Zm.85,0c0,1.44.4,3.89,2,3.89s2-2.47,2-3.86-.38-3.78-2-3.78S250.46,3.19,250.46,4.54Z"/><path class="cls-1" d="M261.35,8.31V9h-5.23V8.25L258,6.14c1.77-1.94,2.3-2.87,2.3-3.68A1.62,1.62,0,0,0,258.59.8a3,3,0,0,0-2,.94l-.47-.6A3.64,3.64,0,0,1,258.63,0a2.37,2.37,0,0,1,2.56,2.39c0,1.26-.86,2.32-2.53,4.2l-1.5,1.68Z"/><path class="cls-1" d="M267.33,8.31V9h-5.24V8.25L264,6.14c1.76-1.94,2.29-2.87,2.29-3.68A1.62,1.62,0,0,0,264.56.8a3.06,3.06,0,0,0-2,.94l-.47-.6A3.66,3.66,0,0,1,264.61,0a2.36,2.36,0,0,1,2.55,2.39c0,1.26-.86,2.32-2.53,4.2l-1.49,1.68Z"/></g></g></svg>