<svg xmlns="http://www.w3.org/2000/svg" viewBox="0 0 220.83 12.46"><title>자산 127</title><g id="레이어_2" data-name="레이어 2"><g id="레이어_1-2" data-name="레이어 1"><path d="M7.51,9.8H6.59L5.73,7.44H1.78L.91,9.8H0L3.28.92h.94Zm-2-3.07L3.75,1.91,2,6.73Z"/><path d="M9.09,4.47a2.2,2.2,0,0,1,2-1.3h.28V4L11.1,4a2,2,0,0,0-2,2V9.8H8.22V3.35h.87Z"/><path d="M12,.67h1V1.86H12ZM12,3.35h.87V9.8H12Z"/><path d="M15.16,4.47a2.2,2.2,0,0,1,2-1.3h.28V4l-.28,0a2,2,0,0,0-2,2V9.8h-.87V3.35h.87Z"/><path d="M18.05,3.72a3.78,3.78,0,0,1,2.07-.58,2.11,2.11,0,0,1,2.12,1.27,3.16,3.16,0,0,1,.19,1.12v3a5.76,5.76,0,0,0,.11,1.3h-.83c-.09-.3-.17-.78-.17-.78a2.49,2.49,0,0,1-2.07.9,2.09,2.09,0,0,1-2.18-2.09c0-1.58,1.17-2.27,3.16-2.27.35,0,.72,0,1.12.07v-.2a1.41,1.41,0,0,0-1.52-1.58,3.2,3.2,0,0,0-1.66.5ZM21.57,6.3a8.86,8.86,0,0,0-1,0c-1.61,0-2.42.49-2.42,1.52a1.39,1.39,0,0,0,1.49,1.38,1.77,1.77,0,0,0,1.92-1.63Z"/><path d="M24.57,4.35a2.4,2.4,0,0,1,2-1.2A2.28,2.28,0,0,1,29,5.56V9.8h-.87V5.67a1.64,1.64,0,0,0-1.62-1.83A2,2,0,0,0,24.57,6V9.8H23.7V3.35h.87Z"/><path d="M34.86,4.34v-1h.87V9.26a2.87,2.87,0,0,1-2.93,3.2,4.51,4.51,0,0,1-2.22-.6l.31-.66a3.93,3.93,0,0,0,1.89.52c1.1,0,2.08-.75,2.08-2.48V8.75a2.39,2.39,0,0,1-2.08,1.06C31.11,9.81,30,8.62,30,6.54s1.1-3.39,2.84-3.39A2.36,2.36,0,0,1,34.86,4.34Zm-4,2.17c0,1.29.61,2.62,2,2.62s2-1.13,2-2.62v0c0-1.71-.86-2.64-2-2.64C31.46,3.84,30.85,5.17,30.85,6.51Z"/><path d="M45.82,1.63H43.08V9.8h-.87V1.63H39.48V.92h6.34Z"/><path d="M53.21.92,50.1,9.8h-1L46,.92h.91l2.72,7.9L52.3.92Z"/><path d="M61.26,2.22a3.67,3.67,0,0,0-2-.66c-1.1,0-1.74.53-1.74,1.37s.75,1.33,2.24,2,2.34,1.31,2.34,2.62c0,1.68-1.46,2.41-2.88,2.41a4.43,4.43,0,0,1-3-1.1l.46-.66a3.81,3.81,0,0,0,2.41,1c.88,0,2.08-.33,2.08-1.61,0-.85-.77-1.41-2.1-2S56.63,4.38,56.63,3c0-1.66,1.37-2.21,2.6-2.21a4.92,4.92,0,0,1,2.44.74Z"/><path d="M63.93,4.11a2,2,0,0,1,3.62.3,2.27,2.27,0,0,1,2-1.26,2.1,2.1,0,0,1,2.23,2.23V9.8h-.86V5.33a1.39,1.39,0,0,0-1.49-1.48,1.58,1.58,0,0,0-1.55,1.78V9.8H67V5.43a1.44,1.44,0,0,0-1.46-1.58A1.61,1.61,0,0,0,63.93,5.6V9.8h-.86V3.35h.86Z"/><path d="M73.26,3.72a3.78,3.78,0,0,1,2.07-.58,2.11,2.11,0,0,1,2.12,1.27,3.16,3.16,0,0,1,.19,1.12v3a5.25,5.25,0,0,0,.12,1.3h-.84A6.93,6.93,0,0,1,76.76,9a2.52,2.52,0,0,1-2.07.9A2.1,2.1,0,0,1,72.5,7.83c0-1.58,1.18-2.27,3.16-2.27a11.21,11.21,0,0,1,1.12.07v-.2a1.41,1.41,0,0,0-1.51-1.58,3.14,3.14,0,0,0-1.66.5ZM76.78,6.3a8.74,8.74,0,0,0-1,0c-1.61,0-2.42.49-2.42,1.52a1.39,1.39,0,0,0,1.49,1.38,1.77,1.77,0,0,0,1.92-1.63Z"/><path d="M79.78,4.47a2.2,2.2,0,0,1,2-1.3h.28V4l-.28,0a2,2,0,0,0-2,2V9.8h-.87V3.35h.87Z"/><path d="M83.26,1.66l.87-.28v2h1.53v.7H84.13V8.22c0,.85.65,1,1.41,1v.73c-1.36,0-2.28-.32-2.28-1.66V4.05h-.92v-.7h.92Z"/><path d="M92.23,3.09A2.24,2.24,0,0,1,91,5a2.48,2.48,0,0,1,1.64,2.28c0,1.39-.9,2.48-3,2.48H86.61V.92h3C91.12.92,92.23,1.63,92.23,3.09ZM87.48,1.63V4.76h2.31A1.54,1.54,0,0,0,91.4,3.09c0-1-.65-1.46-1.85-1.46Zm2.21,7.46c1.37,0,2.11-.67,2.11-1.85a1.78,1.78,0,0,0-2-1.77H87.48V9.09Z"/><path d="M93.58.67h1V1.86h-1Zm.09,2.68h.87V9.8h-.87Z"/><path d="M95.35,9.2l3.8-5.15H95.58v-.7h4.62V4L96.42,9.09h4V9.8h-5.1Z"/><path d="M111.06,9.8h-.92l-.85-2.36h-4l-.87,2.36h-.9L106.84.92h.94Zm-2-3.07-1.72-4.82-1.73,4.82Z"/><path d="M116.35,9.15a3,3,0,0,1-2.13.77A3.15,3.15,0,0,1,111,6.57a3.12,3.12,0,0,1,3.21-3.4,4.12,4.12,0,0,1,2,.51l-.34.64a3.39,3.39,0,0,0-1.61-.43,2.39,2.39,0,0,0-2.32,2.69,2.42,2.42,0,0,0,2.34,2.62,2.73,2.73,0,0,0,1.66-.59Z"/><path d="M122.08,9.15a3.07,3.07,0,0,1-2.13.77,3.16,3.16,0,0,1-3.19-3.35A3.12,3.12,0,0,1,120,3.17a4.13,4.13,0,0,1,2,.51l-.34.64A3.43,3.43,0,0,0,120,3.89a2.39,2.39,0,0,0-2.31,2.69A2.41,2.41,0,0,0,120,9.2a2.73,2.73,0,0,0,1.66-.59Z"/><path d="M127.67,9.29a3.39,3.39,0,0,1-2,.64,3.09,3.09,0,0,1-3.15-3.29c0-2,1-3.46,2.89-3.46a2.79,2.79,0,0,1,2.73,3,4,4,0,0,1,0,.49h-4.71a2.31,2.31,0,0,0,2.31,2.54,2.78,2.78,0,0,0,1.63-.5ZM127.28,6a2,2,0,0,0-1.93-2.06A2.18,2.18,0,0,0,123.42,6Z"/><path d="M129.08.67H130V9.8h-.87Z"/><path d="M136.17,9.29a3.39,3.39,0,0,1-2,.64A3.09,3.09,0,0,1,131,6.64c0-2,1-3.46,2.9-3.46a2.8,2.8,0,0,1,2.73,3,2.69,2.69,0,0,1,0,.49h-4.7a2.3,2.3,0,0,0,2.3,2.54,2.81,2.81,0,0,0,1.64-.5ZM135.78,6a2,2,0,0,0-1.93-2.06A2.2,2.2,0,0,0,131.92,6Z"/><path d="M138.45,4.47a2.2,2.2,0,0,1,2-1.3h.28V4l-.28,0a2,2,0,0,0-2,2V9.8h-.87V3.35h.87Z"/><path d="M141.34,3.72a3.78,3.78,0,0,1,2.07-.58,2.11,2.11,0,0,1,2.12,1.27,3.16,3.16,0,0,1,.19,1.12v3a5.76,5.76,0,0,0,.11,1.3H145c-.09-.3-.17-.78-.17-.78a2.5,2.5,0,0,1-2.07.9,2.09,2.09,0,0,1-2.18-2.09c0-1.58,1.17-2.27,3.16-2.27.35,0,.72,0,1.12.07v-.2a1.41,1.41,0,0,0-1.52-1.58,3.2,3.2,0,0,0-1.66.5Zm3.52,2.58a8.86,8.86,0,0,0-1,0c-1.61,0-2.42.49-2.42,1.52a1.39,1.39,0,0,0,1.49,1.38,1.77,1.77,0,0,0,1.92-1.63Z"/><path d="M147.29,1.66l.87-.28v2h1.53v.7h-1.53V8.22c0,.85.65,1,1.41,1v.73c-1.36,0-2.28-.32-2.28-1.66V4.05h-.92v-.7h.92Z"/><path d="M153.07,3.17a3.07,3.07,0,0,1,3,3.38c0,2.08-1.3,3.39-3,3.39s-3-1.31-3-3.39S151.38,3.17,153.07,3.17Zm0,6.08c1.15,0,2.1-1,2.1-2.7s-.95-2.69-2.1-2.69-2.1,1-2.1,2.69S151.93,9.25,153.07,9.25Z"/><path d="M158,4.47a2.2,2.2,0,0,1,2-1.3h.29V4L160,4a2,2,0,0,0-2,2V9.8h-.87V3.35H158Z"/><path d="M164,4.33a2.72,2.72,0,0,0-1.34-.46c-.78,0-1.18.39-1.18.92s.5.89,1.53,1.4,1.69,1,1.69,1.91a1.87,1.87,0,0,1-2.11,1.81A3,3,0,0,1,160.37,9l.47-.59a2.54,2.54,0,0,0,1.7.74c.71,0,1.3-.31,1.3-1.05s-.59-.94-1.31-1.27c-.88-.4-1.87-.9-1.87-2a1.72,1.72,0,0,1,1.93-1.72,3.17,3.17,0,0,1,1.81.58Z"/><path d="M170.58,11.41a10.05,10.05,0,0,1-1.87-5.73A10,10,0,0,1,170.58,0h.69a11.18,11.18,0,0,0-1.66,5.71,11.18,11.18,0,0,0,1.66,5.7Z"/><path d="M177.33,9.09V9.8h-5.24V9L174,6.92c1.76-1.94,2.29-2.87,2.29-3.68a1.62,1.62,0,0,0-1.74-1.66,3.06,3.06,0,0,0-2,.94l-.47-.6a3.66,3.66,0,0,1,2.53-1.1,2.36,2.36,0,0,1,2.55,2.39c0,1.26-.86,2.32-2.53,4.2l-1.49,1.68Z"/><path d="M177.68,5.33c0-1.85.66-4.5,2.86-4.5s2.88,2.61,2.88,4.52c0,2.06-.65,4.6-2.88,4.6S177.68,7.16,177.68,5.33Zm.85,0c0,1.43.4,3.88,2,3.88s2-2.47,2-3.86-.37-3.78-2-3.78S178.53,4,178.53,5.33Z"/><path d="M185.73,9.81V2l-1.31,1.1L184,2.58,185.89.92h.72V9.81Z"/><path d="M189.07,9.24a4.66,4.66,0,0,0,3.65-3.58,3.06,3.06,0,0,1-2.15.85A2.59,2.59,0,0,1,188,3.74,2.7,2.7,0,0,1,190.75.8c1.74,0,2.89,1.32,2.89,3.76a5.37,5.37,0,0,1-4.4,5.39Zm-.23-5.55A1.93,1.93,0,0,0,190.7,5.8a2.49,2.49,0,0,0,2.06-1,4.8,4.8,0,0,0,0-.55c0-1.31-.59-2.69-2-2.69A2,2,0,0,0,188.84,3.69Z"/><path d="M194.61,9.17h1.26V10.4h-1.26Z"/><path d="M202.75,7.36c0,1.76-1.35,2.62-3,2.62s-3-.88-3-2.6a2.78,2.78,0,0,1,2-2.44,2.33,2.33,0,0,1-1.56-2c0-1.5,1.37-2.16,2.62-2.16a2.33,2.33,0,0,1,2.55,2.14,2.39,2.39,0,0,1-1.53,2A2.87,2.87,0,0,1,202.75,7.36Zm-.92,0c0-1.06-.84-1.74-2.05-2-1.23.21-2.12,1-2.12,2a2.1,2.1,0,0,0,4.17,0Zm-.36-4.44a1.55,1.55,0,0,0-1.69-1.46c-.87,0-1.76.45-1.76,1.46s.81,1.41,1.74,1.67C201,4.26,201.47,3.57,201.47,2.94Z"/><path d="M203.64,9.17h1.26V10.4h-1.26Z"/><path d="M211.2,9.09V9.8H206V9l1.92-2.11c1.76-1.94,2.29-2.87,2.29-3.68a1.62,1.62,0,0,0-1.74-1.66,3,3,0,0,0-2,.94l-.47-.6a3.66,3.66,0,0,1,2.53-1.1A2.37,2.37,0,0,1,211,3.21c0,1.26-.86,2.32-2.53,4.2L207,9.09Z"/><path d="M213,9.24a4.66,4.66,0,0,0,3.64-3.58,3.06,3.06,0,0,1-2.15.85,2.59,2.59,0,0,1-2.59-2.77A2.7,2.7,0,0,1,214.62.8c1.74,0,2.89,1.32,2.89,3.76a5.37,5.37,0,0,1-4.4,5.39Zm-.24-5.55a1.93,1.93,0,0,0,1.86,2.11,2.49,2.49,0,0,0,2.06-1,4.8,4.8,0,0,0,0-.55c0-1.31-.58-2.69-2-2.69A2,2,0,0,0,212.71,3.69Z"/><path d="M218.26,11.41a11.09,11.09,0,0,0,1.66-5.7A11.08,11.08,0,0,0,218.26,0h.7a10,10,0,0,1,1.87,5.68A10.13,10.13,0,0,1,219,11.41Z"/></g></g></svg>