<svg xmlns="http://www.w3.org/2000/svg" xmlns:xlink="http://www.w3.org/1999/xlink" viewBox="0 0 224.4 177.63"><defs><style>.cls-1,.cls-5{fill:none;}.cls-2{fill:#ccc;}.cls-3,.cls-4{fill:#fff;}.cls-4,.cls-5{stroke:#000;stroke-miterlimit:10;}.cls-6{clip-path:url(#clip-path);}.cls-7{clip-path:url(#clip-path-2);}.cls-8{clip-path:url(#clip-path-3);}</style><clipPath id="clip-path"><ellipse class="cls-1" cx="35.76" cy="114.83" rx="24.16" ry="5.59"/></clipPath><clipPath id="clip-path-2"><ellipse class="cls-1" cx="192.84" cy="19.91" rx="24.16" ry="5.59"/></clipPath><clipPath id="clip-path-3"><ellipse class="cls-1" cx="116.62" cy="19.91" rx="24.16" ry="5.59"/></clipPath></defs><title>자산 138</title><g id="레이어_2" data-name="레이어 2"><g id="레이어_1-2" data-name="레이어 1"><rect class="cls-2" x="85.07" y="156.63" width="63.11" height="21" rx="10.5"/><rect class="cls-2" x="161.28" y="156.63" width="63.11" height="21" rx="10.5"/><rect class="cls-2" x="4.21" y="156.63" width="63.11" height="21" rx="10.5"/><rect class="cls-2" x="85.07" y="56.57" width="63.11" height="21" rx="10.5"/><rect class="cls-2" x="161.28" y="56.57" width="63.11" height="21" rx="10.5"/><rect x="4.21" y="56.57" width="63.11" height="21" rx="10.5"/><path class="cls-3" d="M12.19,65.26a2.82,2.82,0,0,1,0-5.63,3.33,3.33,0,0,1,1.76.46l-.29.51a3,3,0,0,0-1.46-.39,2.25,2.25,0,0,0,0,4.45,3.92,3.92,0,0,0,1.16-.22V62.87H11.92V62.3h2.15v2.49A3.91,3.91,0,0,1,12.19,65.26Z"/><path class="cls-3" d="M15.63,61.75a1.41,1.41,0,0,1,1.19-.66H17v.62h-.18a1.1,1.1,0,0,0-1.2,1v2.47h-.72v-4h.72Z"/><path class="cls-3" d="M17.38,61.48a2.56,2.56,0,0,1,1.39-.41,1.39,1.39,0,0,1,1.4.84,2,2,0,0,1,.1.68v1.73a2.94,2.94,0,0,0,.1.86h-.73a3.58,3.58,0,0,1-.07-.37,1.79,1.79,0,0,1-1.18.48A1.36,1.36,0,0,1,16.94,64c0-1.05.86-1.45,2-1.45l.58,0v-.07a.76.76,0,0,0-.85-.82,1.9,1.9,0,0,0-1,.33Zm1.08,3.23a1,1,0,0,0,1.09-1v-.62l-.53,0c-.82,0-1.36.23-1.36.87A.77.77,0,0,0,18.46,64.71Z"/><path class="cls-3" d="M21.83,61.74A1.47,1.47,0,0,1,23,61.09a1.43,1.43,0,0,1,1.55,1.5v2.59h-.72V62.66a.91.91,0,0,0-.89-1,1.12,1.12,0,0,0-1.1,1.22v2.31h-.72v-4h.72Z"/><path class="cls-3" d="M28.05,64.64a1.46,1.46,0,0,1-1.16.64,1.43,1.43,0,0,1-1.55-1.5V61.19h.72v2.52a.91.91,0,0,0,.89,1,1.12,1.12,0,0,0,1.1-1.21V61.19h.72v4h-.72Z"/><path class="cls-3" d="M29.66,59.6h.72v5.58h-.72Z"/><path class="cls-3" d="M31.36,61.48a2.56,2.56,0,0,1,1.39-.41,1.39,1.39,0,0,1,1.4.84,2,2,0,0,1,.1.68v1.73a3.25,3.25,0,0,0,.09.86h-.72a3.58,3.58,0,0,1-.07-.37,1.79,1.79,0,0,1-1.18.48A1.36,1.36,0,0,1,30.92,64c0-1.05.85-1.45,2-1.45l.59,0v-.07a.76.76,0,0,0-.85-.82,1.87,1.87,0,0,0-1,.33Zm1.08,3.23a1,1,0,0,0,1.09-1v-.62l-.53,0c-.82,0-1.37.23-1.37.87A.78.78,0,0,0,32.44,64.71Z"/><path class="cls-3" d="M35.25,60.21,36,60v1.2h.94v.57H36v2.42c0,.47.4.52.86.53v.57c-.94,0-1.58-.19-1.58-1.06V61.76h-.56v-.57h.56Z"/><path class="cls-3" d="M40.49,64.84a2.2,2.2,0,0,1-1.34.44,2,2,0,0,1-2-2A1.89,1.89,0,0,1,39,61.09,1.76,1.76,0,0,1,40.74,63a1.59,1.59,0,0,1,0,.35H37.87a1.29,1.29,0,0,0,1.31,1.36,1.74,1.74,0,0,0,1-.34Zm-.43-2.08A1.1,1.1,0,0,0,39,61.64a1.24,1.24,0,0,0-1.08,1.12Z"/><path class="cls-3" d="M42.94,65.28c-1.13,0-1.77-.82-1.77-2.11a1.84,1.84,0,0,1,1.77-2.08,1.45,1.45,0,0,1,1.23.7V59.6h.72v5.58h-.72v-.55A1.48,1.48,0,0,1,42.94,65.28Zm.09-.53c.64,0,1.14-.56,1.14-1.5v-.08c0-.84-.38-1.54-1.15-1.54s-1.13.73-1.13,1.54S42.23,64.75,43,64.75Z"/><path class="cls-3" d="M47.53,59.6h.72v5.58h-.72Z"/><path class="cls-3" d="M49.23,61.48a2.56,2.56,0,0,1,1.39-.41,1.39,1.39,0,0,1,1.4.84,2,2,0,0,1,.1.68v1.73a2.94,2.94,0,0,0,.1.86h-.73a3.58,3.58,0,0,1-.07-.37,1.79,1.79,0,0,1-1.18.48A1.36,1.36,0,0,1,48.79,64c0-1.05.85-1.45,2-1.45l.59,0v-.07a.76.76,0,0,0-.85-.82,1.87,1.87,0,0,0-1,.33Zm1.08,3.23a1,1,0,0,0,1.09-1v-.62l-.53,0c-.82,0-1.37.23-1.37.87A.78.78,0,0,0,50.31,64.71Z"/><path class="cls-3" d="M54.29,64.25l1.11-3.06h.75l-1.52,4h-.69l-1.51-4h.75Z"/><path class="cls-3" d="M59.56,64.84a2.22,2.22,0,0,1-1.34.44,2,2,0,0,1-2-2,1.9,1.9,0,0,1,1.87-2.15A1.76,1.76,0,0,1,59.81,63a2.6,2.6,0,0,1,0,.35H56.94a1.29,1.29,0,0,0,1.31,1.36,1.74,1.74,0,0,0,1-.34Zm-.44-2.08a1.09,1.09,0,0,0-1.07-1.12A1.24,1.24,0,0,0,57,62.76Z"/><path class="cls-3" d="M61.16,61.75a1.39,1.39,0,0,1,1.18-.66h.2v.62h-.18a1.1,1.1,0,0,0-1.2,1v2.47h-.72v-4h.72Z"/><path class="cls-3" d="M29,72.76a2.07,2.07,0,0,1-3.44-1.55,2,2,0,0,1,2.05-2.12,2.61,2.61,0,0,1,1.29.35l-.27.54a2.07,2.07,0,0,0-1-.3,1.52,1.52,0,0,0,0,3,1.54,1.54,0,0,0,1-.4Z"/><path class="cls-3" d="M32.15,72.64a1.46,1.46,0,0,1-1.16.64,1.43,1.43,0,0,1-1.55-1.5V69.19h.72v2.52a.91.91,0,0,0,.89,1,1.12,1.12,0,0,0,1.1-1.21V69.19h.72v4h-.72Z"/><path class="cls-3" d="M33.93,68.21l.72-.22v1.2h.93v.57h-.93v2.42c0,.47.39.52.86.53v.57c-.94,0-1.58-.19-1.58-1.06V69.76h-.56v-.57h.56Z"/><path class="cls-3" d="M39.61,69.09a2.1,2.1,0,1,1-1.91,2.1A1.93,1.93,0,0,1,39.61,69.09Zm0,3.64c.66,0,1.2-.57,1.2-1.54s-.54-1.55-1.2-1.55-1.19.57-1.19,1.55S39,72.73,39.61,72.73Z"/><path class="cls-3" d="M42.33,69.19v-.38a2.2,2.2,0,0,1,.08-.63,1.09,1.09,0,0,1,1.07-.73,2.31,2.31,0,0,1,.82.17l-.21.54a1.85,1.85,0,0,0-.53-.12.5.5,0,0,0-.45.28,1.33,1.33,0,0,0-.06.47v.4h.83v.57h-.83v3.42h-.72V69.76h-.55v-.57Z"/><path class="cls-3" d="M44.72,69.19v-.38a1.89,1.89,0,0,1,.08-.63,1.09,1.09,0,0,1,1.07-.73,2.26,2.26,0,0,1,.81.17l-.2.54a1.84,1.84,0,0,0-.54-.12.49.49,0,0,0-.44.28,1.33,1.33,0,0,0-.06.47v.4h.82v.57h-.82v3.42h-.72V69.76h-.55v-.57Z"/><path class="cls-3" d="M93.52,64.64a2.57,2.57,0,0,0-1.29-.43c-.61,0-1,.31-1,.77s.45.74,1.31,1.12,1.49.85,1.49,1.65c0,1.06-.94,1.53-1.86,1.53a2.84,2.84,0,0,1-1.92-.73l.38-.53a2.36,2.36,0,0,0,1.5.65c.5,0,1.16-.2,1.16-.91,0-.48-.44-.8-1.21-1.12S90.53,65.9,90.53,65s.9-1.39,1.7-1.39a3.21,3.21,0,0,1,1.6.5Z"/><path class="cls-3" d="M94.88,64.21,95.6,64v1.2h.93v.57H95.6v2.42c0,.47.39.52.85.53v.57c-.93,0-1.57-.19-1.57-1.06V65.76h-.56v-.57h.56Z"/><path class="cls-3" d="M97,63.6h.82v.85H97Zm0,1.59h.72v4H97Z"/><path class="cls-3" d="M99.31,65.75a1.39,1.39,0,0,1,1.18-.66h.2v.62h-.18a1.1,1.1,0,0,0-1.2,1v2.47h-.72v-4h.72Z"/><path class="cls-3" d="M100.86,66.8v-.59h3.47v.59Z"/><path class="cls-3" d="M105.13,65.19v-.38a1.87,1.87,0,0,1,.09-.63,1.09,1.09,0,0,1,1.06-.73,2.27,2.27,0,0,1,.82.17l-.2.54a1.9,1.9,0,0,0-.54-.12.49.49,0,0,0-.44.28,1.33,1.33,0,0,0-.06.47v.4h.82v.57h-.82v3.42h-.73V65.76h-.54v-.57Z"/><path class="cls-3" d="M108.08,65.75a1.41,1.41,0,0,1,1.19-.66h.19v.62h-.18a1.1,1.1,0,0,0-1.2,1v2.47h-.72v-4h.72Z"/><path class="cls-3" d="M109.51,70.27a1.58,1.58,0,0,0,1.36-1.18l-1.48-3.9h.76l1.07,3,1.06-3H113l-1.31,3.63c-.45,1.21-.73,1.76-2,2Z"/><path class="cls-3" d="M117.2,66a1.52,1.52,0,0,0-.85-.31c-.41,0-.62.2-.62.47s.28.51.87.8,1.09.63,1.09,1.21a1.23,1.23,0,0,1-1.38,1.17,2,2,0,0,1-1.46-.6l.39-.48a1.61,1.61,0,0,0,1.05.5c.37,0,.7-.18.7-.57s-.36-.53-.74-.71c-.55-.24-1.2-.61-1.2-1.27a1.12,1.12,0,0,1,1.26-1.1,2.22,2.22,0,0,1,1.22.4Z"/><path class="cls-3" d="M121.39,68.84a2.2,2.2,0,0,1-1.34.44,2,2,0,0,1-2-2,1.89,1.89,0,0,1,1.86-2.15A1.76,1.76,0,0,1,121.64,67a2.6,2.6,0,0,1,0,.35h-2.84a1.29,1.29,0,0,0,1.31,1.36,1.74,1.74,0,0,0,1-.34ZM121,66.76a1.1,1.1,0,0,0-1.08-1.12,1.24,1.24,0,0,0-1.08,1.12Z"/><path class="cls-3" d="M122.42,65.48a2.56,2.56,0,0,1,1.39-.41,1.38,1.38,0,0,1,1.4.84,2,2,0,0,1,.1.68v1.73a3.32,3.32,0,0,0,.1.86h-.73a3,3,0,0,1-.06-.37,1.83,1.83,0,0,1-1.19.48A1.36,1.36,0,0,1,122,68c0-1,.86-1.45,2-1.45l.58,0v-.07a.76.76,0,0,0-.85-.82,1.9,1.9,0,0,0-1,.33Zm1.08,3.23a1,1,0,0,0,1.09-1v-.62l-.53,0c-.82,0-1.36.23-1.36.87A.77.77,0,0,0,123.5,68.71Z"/><path class="cls-3" d="M127.16,68.11l.78-2.92h.72l.77,2.92.81-2.92H131l-1.17,4h-.68l-.8-3-.81,3h-.68l-1.15-4h.71Z"/><path class="cls-3" d="M134.47,68.84a2.2,2.2,0,0,1-1.34.44,2,2,0,0,1-2-2A1.89,1.89,0,0,1,133,65.09,1.76,1.76,0,0,1,134.72,67a2.37,2.37,0,0,1,0,.35h-2.85a1.29,1.29,0,0,0,1.31,1.36,1.74,1.74,0,0,0,1-.34ZM134,66.76A1.1,1.1,0,0,0,133,65.64a1.25,1.25,0,0,0-1.08,1.12Z"/><path class="cls-3" d="M138.5,68.84a2.22,2.22,0,0,1-1.34.44,2,2,0,0,1-2-2A1.9,1.9,0,0,1,137,65.09,1.76,1.76,0,0,1,138.75,67a2.6,2.6,0,0,1,0,.35h-2.84a1.29,1.29,0,0,0,1.31,1.36,1.74,1.74,0,0,0,1-.34Zm-.44-2.08A1.09,1.09,0,0,0,137,65.64a1.24,1.24,0,0,0-1.07,1.12Z"/><path class="cls-3" d="M141,69.28c-1.13,0-1.78-.82-1.78-2.11A1.84,1.84,0,0,1,141,65.09a1.46,1.46,0,0,1,1.23.7V63.6h.72v5.58h-.72v-.55A1.48,1.48,0,0,1,141,69.28Zm.09-.53c.64,0,1.14-.56,1.14-1.5v-.08c0-.84-.38-1.54-1.15-1.54s-1.13.73-1.13,1.54S140.24,68.75,141,68.75Z"/><path class="cls-3" d="M176.44,60.64a2.53,2.53,0,0,0-1.28-.43c-.61,0-1,.31-1,.76s.44.75,1.31,1.13S177,63,177,63.75c0,1.06-.94,1.52-1.86,1.52a2.83,2.83,0,0,1-1.92-.72l.37-.53a2.47,2.47,0,0,0,1.51.65c.5,0,1.15-.2,1.15-.92,0-.47-.43-.79-1.2-1.11s-1.6-.74-1.6-1.64.91-1.39,1.71-1.39a3.21,3.21,0,0,1,1.6.5Z"/><path class="cls-3" d="M177.81,60.2l.72-.21v1.2h.93v.57h-.93v2.42c0,.46.39.52.85.53v.57c-.94,0-1.57-.19-1.57-1.06V61.76h-.56v-.57h.56Z"/><path class="cls-3" d="M179.91,59.59h.82v.86h-.82Zm.05,1.6h.72v4H180Z"/><path class="cls-3" d="M182.24,61.75a1.38,1.38,0,0,1,1.18-.66h.2v.62h-.18a1.1,1.1,0,0,0-1.2,1v2.48h-.72v-4h.72Z"/><path class="cls-3" d="M183.79,62.8v-.59h3.47v.59Z"/><path class="cls-3" d="M188.06,61.19v-.38a1.87,1.87,0,0,1,.09-.63,1.08,1.08,0,0,1,1.06-.73,2.31,2.31,0,0,1,.82.17l-.2.54a2,2,0,0,0-.54-.12.48.48,0,0,0-.44.28,1.07,1.07,0,0,0-.07.47v.4h.83v.57h-.83v3.42h-.72V61.76h-.54v-.57Z"/><path class="cls-3" d="M191,61.75a1.39,1.39,0,0,1,1.18-.66h.2v.62h-.18a1.1,1.1,0,0,0-1.2,1v2.48h-.72v-4H191Z"/><path class="cls-3" d="M192.44,66.27a1.6,1.6,0,0,0,1.36-1.18l-1.48-3.9h.75l1.08,3,1-3H196l-1.31,3.63c-.45,1.21-.74,1.76-2,2Z"/><path class="cls-3" d="M198.3,61.48a2.56,2.56,0,0,1,1.39-.41,1.39,1.39,0,0,1,1.4.84,2,2,0,0,1,.1.68v1.73a3.32,3.32,0,0,0,.1.86h-.73a3.58,3.58,0,0,1-.07-.37,1.79,1.79,0,0,1-1.18.48A1.36,1.36,0,0,1,197.86,64c0-1.05.86-1.45,2-1.45l.58,0v-.07a.76.76,0,0,0-.85-.82,1.9,1.9,0,0,0-1,.33Zm1.08,3.23a1,1,0,0,0,1.09-1v-.62l-.53,0c-.82,0-1.36.23-1.36.87A.78.78,0,0,0,199.38,64.71Z"/><path class="cls-3" d="M202.19,61.19v-.38a2.2,2.2,0,0,1,.08-.63,1.09,1.09,0,0,1,1.07-.73,2.31,2.31,0,0,1,.82.17l-.21.54a1.84,1.84,0,0,0-.54-.12.49.49,0,0,0-.44.28,1.29,1.29,0,0,0-.06.47v.4h.83v.57h-.83v3.42h-.72V61.76h-.55v-.57Z"/><path class="cls-3" d="M204.58,60.2l.72-.21v1.2h.93v.57h-.93v2.42c0,.46.4.52.86.53v.57c-.94,0-1.58-.19-1.58-1.06V61.76H204v-.57h.56Z"/><path class="cls-3" d="M209.82,64.84a2.19,2.19,0,0,1-1.34.43,2,2,0,0,1-2-2,1.9,1.9,0,0,1,1.87-2.15A1.76,1.76,0,0,1,210.07,63a2.6,2.6,0,0,1,0,.35H207.2a1.29,1.29,0,0,0,1.31,1.36,1.74,1.74,0,0,0,1-.34Zm-.43-2.08a1.1,1.1,0,0,0-1.08-1.12,1.24,1.24,0,0,0-1.08,1.12Z"/><path class="cls-3" d="M211.42,61.75a1.41,1.41,0,0,1,1.18-.66h.2v.62h-.18a1.1,1.1,0,0,0-1.2,1v2.48h-.72v-4h.72Z"/><path class="cls-3" d="M179.08,70a1.52,1.52,0,0,0-.85-.31c-.41,0-.62.2-.62.47s.28.51.87.8,1.09.63,1.09,1.21a1.23,1.23,0,0,1-1.38,1.17,2,2,0,0,1-1.46-.6l.39-.48a1.63,1.63,0,0,0,1,.5c.38,0,.7-.18.7-.57s-.36-.53-.74-.71c-.54-.25-1.2-.61-1.2-1.27a1.12,1.12,0,0,1,1.27-1.1,2.21,2.21,0,0,1,1.21.4Z"/><path class="cls-3" d="M183.27,72.84a2.19,2.19,0,0,1-1.34.43,1.94,1.94,0,0,1-2-2,1.89,1.89,0,0,1,1.86-2.15A1.76,1.76,0,0,1,183.52,71a2.37,2.37,0,0,1,0,.35h-2.85A1.29,1.29,0,0,0,182,72.69a1.74,1.74,0,0,0,1-.34Zm-.43-2.08a1.1,1.1,0,0,0-1.08-1.12,1.24,1.24,0,0,0-1.08,1.12Z"/><path class="cls-3" d="M184.31,69.48a2.53,2.53,0,0,1,1.38-.41,1.38,1.38,0,0,1,1.4.84,1.77,1.77,0,0,1,.1.68v1.73a3.32,3.32,0,0,0,.1.86h-.73a3,3,0,0,1-.06-.37,1.83,1.83,0,0,1-1.19.48A1.35,1.35,0,0,1,183.87,72c0-1,.85-1.45,2-1.45l.58,0v-.07a.76.76,0,0,0-.85-.82,1.84,1.84,0,0,0-1,.33Zm1.07,3.23a1,1,0,0,0,1.09-1v-.62l-.52,0c-.82,0-1.37.23-1.37.87A.78.78,0,0,0,185.38,72.71Z"/><path class="cls-3" d="M190,70a1.55,1.55,0,0,0-.85-.31c-.41,0-.62.2-.62.47s.27.51.87.8,1.09.63,1.09,1.21a1.23,1.23,0,0,1-1.38,1.17,1.94,1.94,0,0,1-1.46-.6l.38-.48a1.65,1.65,0,0,0,1.05.5c.38,0,.7-.18.7-.57s-.35-.53-.73-.71c-.55-.25-1.21-.61-1.21-1.27a1.12,1.12,0,0,1,1.27-1.1,2.25,2.25,0,0,1,1.22.4Z"/><path class="cls-3" d="M192.76,69.09a2.1,2.1,0,1,1-1.92,2.1A1.94,1.94,0,0,1,192.76,69.09Zm0,3.64c.65,0,1.19-.57,1.19-1.54s-.54-1.55-1.19-1.55-1.19.57-1.19,1.55S192.1,72.73,192.76,72.73Z"/><path class="cls-3" d="M196,69.74a1.47,1.47,0,0,1,1.16-.65,1.43,1.43,0,0,1,1.55,1.5v2.59H198V70.66a.91.91,0,0,0-.89-1,1.12,1.12,0,0,0-1.1,1.22v2.31h-.72v-4H196Z"/><path class="cls-3" d="M199.52,67.59h.82v.86h-.82Zm0,1.6h.72v4h-.72Z"/><path class="cls-3" d="M201.85,69.74a1.47,1.47,0,0,1,1.17-.65,1.43,1.43,0,0,1,1.55,1.5v2.59h-.73V70.66a.91.91,0,0,0-.89-1,1.13,1.13,0,0,0-1.1,1.22v2.31h-.72v-4h.72Z"/><path class="cls-3" d="M207,69.09a1.43,1.43,0,0,1,1.22.7v-.6h.72v3.6a1.78,1.78,0,0,1-1.87,2,3.1,3.1,0,0,1-1.43-.37l.25-.54a2.62,2.62,0,0,0,1.16.34c.63,0,1.17-.42,1.17-1.35v-.3a1.41,1.41,0,0,1-1.22.64c-1.07,0-1.78-.71-1.78-2A1.83,1.83,0,0,1,207,69.09Zm.08.54c-.81,0-1.14.75-1.14,1.53s.38,1.51,1.14,1.51,1.14-.59,1.14-1.36V71A1.24,1.24,0,0,0,207.07,69.63Z"/><path class="cls-3" d="M26.33,160.06H23.62v1.85h2.56v.57H23.62V165H22.9V159.5h3.43Z"/><path class="cls-3" d="M27.64,161.54a1.4,1.4,0,0,1,1.18-.66l.2,0v.62h-.18a1.09,1.09,0,0,0-1.2,1V165h-.72v-4h.72Z"/><path class="cls-3" d="M29.07,166.07a1.6,1.6,0,0,0,1.36-1.19L29,161h.75l1.08,3,1-3h.76l-1.31,3.63c-.45,1.21-.74,1.76-2,2Z"/><path class="cls-3" d="M34.93,161.28a2.58,2.58,0,0,1,1.39-.42,1.38,1.38,0,0,1,1.4.85,2,2,0,0,1,.1.68v1.72a3.28,3.28,0,0,0,.09.87h-.72c0-.1-.07-.37-.07-.37a1.79,1.79,0,0,1-1.18.48,1.36,1.36,0,0,1-1.45-1.34c0-1.05.85-1.45,2-1.45l.59,0v-.07a.76.76,0,0,0-.85-.82,1.87,1.87,0,0,0-1,.33ZM36,164.5a1,1,0,0,0,1.09-1v-.62l-.53,0c-.82,0-1.37.23-1.37.87A.78.78,0,0,0,36,164.5Z"/><path class="cls-3" d="M38.82,161v-.38a1.86,1.86,0,0,1,.08-.63,1.08,1.08,0,0,1,1.06-.74,2.51,2.51,0,0,1,.82.17l-.2.55a1.9,1.9,0,0,0-.54-.12.47.47,0,0,0-.44.28,1.29,1.29,0,0,0-.06.47v.4h.82v.57h-.82V165h-.72v-3.42h-.55V161Z"/><path class="cls-3" d="M41.21,160l.72-.22V161h.93v.57h-.93V164c0,.46.39.52.86.52v.58c-.94,0-1.58-.2-1.58-1.07v-2.45h-.56V161h.56Z"/><path class="cls-3" d="M46.45,164.64a2.21,2.21,0,0,1-1.34.43,2,2,0,0,1-2-2A1.9,1.9,0,0,1,45,160.88a1.76,1.76,0,0,1,1.74,1.89,2.47,2.47,0,0,1,0,.35H43.83a1.29,1.29,0,0,0,1.31,1.37,1.81,1.81,0,0,0,1-.34ZM46,162.56a1.08,1.08,0,0,0-1.08-1.12,1.24,1.24,0,0,0-1.07,1.12Z"/><path class="cls-3" d="M48.05,161.54a1.42,1.42,0,0,1,1.18-.66l.2,0v.62h-.18a1.09,1.09,0,0,0-1.2,1V165h-.72v-4h.72Z"/><path class="cls-3" d="M20.56,169.28a2.55,2.55,0,0,1,1.38-.42,1.37,1.37,0,0,1,1.4.85,1.74,1.74,0,0,1,.1.68v1.72a3.35,3.35,0,0,0,.1.87h-.73a3.3,3.3,0,0,1-.06-.37,1.83,1.83,0,0,1-1.18.48,1.36,1.36,0,0,1-1.45-1.34c0-1.05.85-1.45,2-1.45l.58,0v-.07a.76.76,0,0,0-.85-.82,1.84,1.84,0,0,0-1,.33Zm1.08,3.22a1,1,0,0,0,1.08-1v-.62l-.52,0c-.82,0-1.37.23-1.37.87A.77.77,0,0,0,21.64,172.5Z"/><path class="cls-3" d="M25.85,173.07c-1.13,0-1.77-.82-1.77-2.1a1.85,1.85,0,0,1,1.77-2.09,1.46,1.46,0,0,1,1.23.71v-2.2h.72V173h-.72v-.55A1.47,1.47,0,0,1,25.85,173.07Zm.09-.52c.65,0,1.14-.56,1.14-1.5V171c0-.85-.38-1.54-1.15-1.54s-1.13.72-1.13,1.54S25.14,172.55,25.94,172.55Z"/><path class="cls-3" d="M30.19,173.07c-1.13,0-1.77-.82-1.77-2.1a1.85,1.85,0,0,1,1.77-2.09,1.46,1.46,0,0,1,1.23.71v-2.2h.72V173h-.72v-.55A1.47,1.47,0,0,1,30.19,173.07Zm.09-.52c.65,0,1.14-.56,1.14-1.5V171c0-.85-.38-1.54-1.15-1.54s-1.13.72-1.13,1.54S29.48,172.55,30.28,172.55Z"/><path class="cls-3" d="M32.9,167.39h.82v.86H32.9ZM33,169h.72v4H33Z"/><path class="cls-3" d="M35.23,169.53a1.46,1.46,0,0,1,1.16-.64,1.43,1.43,0,0,1,1.55,1.5V173h-.72v-2.52a.91.91,0,0,0-.89-1,1.12,1.12,0,0,0-1.1,1.21V173h-.72v-4h.72Z"/><path class="cls-3" d="M40.37,168.88a1.45,1.45,0,0,1,1.22.71V169h.72v3.6a1.79,1.79,0,0,1-1.88,2A3.16,3.16,0,0,1,39,174.2l.25-.55a2.51,2.51,0,0,0,1.17.35c.62,0,1.17-.42,1.17-1.35v-.3a1.43,1.43,0,0,1-1.23.64c-1.06,0-1.78-.71-1.78-2A1.84,1.84,0,0,1,40.37,168.88Zm.07.55c-.81,0-1.14.75-1.14,1.53s.38,1.5,1.14,1.5a1.2,1.2,0,0,0,1.15-1.35v-.32A1.25,1.25,0,0,0,40.44,169.43Z"/><path class="cls-3" d="M46.65,168.88a2.11,2.11,0,1,1-1.92,2.1A1.94,1.94,0,0,1,46.65,168.88Zm0,3.65c.65,0,1.19-.57,1.19-1.55s-.54-1.54-1.19-1.54-1.19.56-1.19,1.54S46,172.53,46.65,172.53Z"/><path class="cls-3" d="M49.14,167.39H50v.86h-.82Zm0,1.6h.72v4h-.72Z"/><path class="cls-3" d="M50.75,167.39h.72V173h-.72Z"/><path class="cls-3" d="M173.09,164.88a1.38,1.38,0,0,1-.66,1.16,1.5,1.5,0,0,1,.92,1.38c0,.87-.56,1.56-1.91,1.56h-2V163.5h1.95C172.37,163.5,173.09,163.94,173.09,164.88Zm-2.91-.82v1.75h1.29a.86.86,0,0,0,.89-.93c0-.54-.36-.82-1.05-.82Zm1.24,4.35c.78,0,1.2-.38,1.2-1a1,1,0,0,0-1.14-1h-1.3v2Z"/><path class="cls-3" d="M175.56,164.88a2.11,2.11,0,1,1-1.92,2.1A1.93,1.93,0,0,1,175.56,164.88Zm0,3.64c.65,0,1.19-.56,1.19-1.54s-.54-1.54-1.19-1.54-1.19.56-1.19,1.54S174.91,168.52,175.56,168.52Z"/><path class="cls-3" d="M179.27,166.42l1-1.43h.79l-1.4,2,1.42,2h-.82l-1-1.45-1,1.45h-.78l1.41-2-1.38-2h.78Z"/><path class="cls-3" d="M184,168.43v2.19h-.72V165H184v.6a1.47,1.47,0,0,1,1.23-.71A1.85,1.85,0,0,1,187,167c0,1.28-.64,2.1-1.77,2.1A1.47,1.47,0,0,1,184,168.43Zm2.28-1.46c0-.82-.36-1.54-1.13-1.54S184,166.12,184,167v.08c0,.94.5,1.49,1.14,1.49C185.93,168.54,186.27,167.75,186.27,167Z"/><path class="cls-3" d="M187.76,165.27a2.65,2.65,0,0,1,1.39-.41,1.38,1.38,0,0,1,1.4.85,2,2,0,0,1,.1.68v1.72a3.35,3.35,0,0,0,.1.87H190a3.3,3.3,0,0,1-.06-.37,1.83,1.83,0,0,1-1.19.47,1.36,1.36,0,0,1-1.45-1.33c0-1.05.86-1.45,2-1.45l.58,0v-.07a.76.76,0,0,0-.85-.82,1.9,1.9,0,0,0-1,.33Zm1.08,3.23a1,1,0,0,0,1.09-1v-.62a4.88,4.88,0,0,0-.53,0c-.82,0-1.36.23-1.36.87A.77.77,0,0,0,188.84,168.5Z"/><path class="cls-3" d="M194.71,168.56a2,2,0,0,1-1.4.52,2,2,0,0,1-2-2.08,2,2,0,0,1,2-2.12,2.69,2.69,0,0,1,1.3.36l-.28.53a2,2,0,0,0-1-.3A1.37,1.37,0,0,0,192,167a1.35,1.35,0,0,0,1.33,1.47,1.58,1.58,0,0,0,1-.39Z"/><path class="cls-3" d="M198.32,165l-1.87,1.79,2.32,2.2h-1l-1.88-1.81V169h-.72v-5.59h.72v3l1.44-1.4Z"/><path class="cls-3" d="M199,165.27a2.65,2.65,0,0,1,1.39-.41,1.37,1.37,0,0,1,1.4.85,2,2,0,0,1,.1.68v1.72a3.35,3.35,0,0,0,.1.87h-.73a3.3,3.3,0,0,1-.06-.37,1.83,1.83,0,0,1-1.19.47,1.36,1.36,0,0,1-1.45-1.33c0-1.05.86-1.45,2-1.45l.58,0v-.07a.76.76,0,0,0-.85-.82,1.84,1.84,0,0,0-1,.33Zm1.08,3.23a1,1,0,0,0,1.09-1v-.62a4.88,4.88,0,0,0-.53,0c-.82,0-1.36.23-1.36.87A.77.77,0,0,0,200.06,168.5Z"/><path class="cls-3" d="M204.29,164.88a1.45,1.45,0,0,1,1.22.71V165h.72v3.6a1.79,1.79,0,0,1-1.88,2,3.08,3.08,0,0,1-1.42-.36l.25-.55a2.47,2.47,0,0,0,1.16.35c.62,0,1.17-.42,1.17-1.35v-.3a1.42,1.42,0,0,1-1.23.64c-1.06,0-1.78-.71-1.78-2A1.84,1.84,0,0,1,204.29,164.88Zm.08.55c-.81,0-1.14.75-1.14,1.53s.37,1.5,1.14,1.5a1.2,1.2,0,0,0,1.14-1.35v-.32A1.24,1.24,0,0,0,204.37,165.43Z"/><path class="cls-3" d="M207,163.39h.82v.86H207ZM207,165h.73v4H207Z"/><path class="cls-3" d="M209.32,165.53a1.45,1.45,0,0,1,1.16-.64,1.43,1.43,0,0,1,1.55,1.5V169h-.72v-2.52a.91.91,0,0,0-.89-1,1.12,1.12,0,0,0-1.1,1.21V169h-.73v-4h.73Z"/><path class="cls-3" d="M214.45,164.88a1.44,1.44,0,0,1,1.22.71V165h.72v3.6a1.78,1.78,0,0,1-1.87,2,3.09,3.09,0,0,1-1.43-.36l.25-.55a2.5,2.5,0,0,0,1.16.35c.63,0,1.17-.42,1.17-1.35v-.3a1.41,1.41,0,0,1-1.22.64c-1.07,0-1.78-.71-1.78-2A1.84,1.84,0,0,1,214.45,164.88Zm.08.55c-.81,0-1.14.75-1.14,1.53s.38,1.5,1.14,1.5a1.19,1.19,0,0,0,1.14-1.35v-.32A1.24,1.24,0,0,0,214.53,165.43Z"/><path class="cls-3" d="M102.3,163.5a1.72,1.72,0,1,1,0,3.43h-1.16v2h-.72V163.5Zm-1.15.56v2.3h1.16a1.09,1.09,0,0,0,1.13-1.16,1.08,1.08,0,0,0-1.13-1.14Z"/><path class="cls-3" d="M104.6,165.27a2.62,2.62,0,0,1,1.38-.41,1.37,1.37,0,0,1,1.4.85,1.74,1.74,0,0,1,.1.68v1.72a3.35,3.35,0,0,0,.1.87h-.73a3.3,3.3,0,0,1-.06-.37,1.83,1.83,0,0,1-1.19.47,1.36,1.36,0,0,1-1.45-1.33c0-1.05.86-1.45,2-1.45l.58,0v-.07a.76.76,0,0,0-.85-.82,1.84,1.84,0,0,0-1,.33Zm1.07,3.23a1,1,0,0,0,1.09-1v-.62a4.88,4.88,0,0,0-.53,0c-.81,0-1.36.23-1.36.87A.77.77,0,0,0,105.67,168.5Z"/><path class="cls-3" d="M111.54,168.56a2,2,0,0,1-1.4.52,2,2,0,0,1-2-2.08,2,2,0,0,1,2.05-2.12,2.66,2.66,0,0,1,1.3.36l-.27.53a2.11,2.11,0,0,0-1-.3,1.52,1.52,0,0,0,0,3,1.56,1.56,0,0,0,1-.39Z"/><path class="cls-3" d="M115.15,165l-1.87,1.79,2.32,2.2h-.95l-1.88-1.81V169h-.72v-5.59h.72v3l1.44-1.4Z"/><path class="cls-3" d="M115.82,165.27a2.62,2.62,0,0,1,1.38-.41,1.37,1.37,0,0,1,1.4.85,1.74,1.74,0,0,1,.1.68v1.72a3.35,3.35,0,0,0,.1.87h-.73a3.3,3.3,0,0,1-.06-.37,1.82,1.82,0,0,1-1.18.47,1.35,1.35,0,0,1-1.45-1.33c0-1.05.85-1.45,2-1.45l.58,0v-.07a.76.76,0,0,0-.85-.82,1.84,1.84,0,0,0-1,.33Zm1.08,3.23a1,1,0,0,0,1.08-1v-.62a4.79,4.79,0,0,0-.52,0c-.82,0-1.37.23-1.37.87A.77.77,0,0,0,116.9,168.5Z"/><path class="cls-3" d="M121.12,164.88a1.44,1.44,0,0,1,1.22.71V165h.72v3.6a1.78,1.78,0,0,1-1.87,2,3.09,3.09,0,0,1-1.43-.36l.25-.55a2.5,2.5,0,0,0,1.16.35c.63,0,1.17-.42,1.17-1.35v-.3a1.41,1.41,0,0,1-1.22.64c-1.07,0-1.78-.71-1.78-2A1.84,1.84,0,0,1,121.12,164.88Zm.08.55c-.81,0-1.14.75-1.14,1.53s.38,1.5,1.14,1.5a1.2,1.2,0,0,0,1.14-1.35v-.32A1.24,1.24,0,0,0,121.2,165.43Z"/><path class="cls-3" d="M123.82,163.39h.82v.86h-.82Zm.05,1.6h.72v4h-.72Z"/><path class="cls-3" d="M126.15,165.53a1.46,1.46,0,0,1,1.16-.64,1.43,1.43,0,0,1,1.55,1.5V169h-.72v-2.52a.91.91,0,0,0-.89-1,1.12,1.12,0,0,0-1.1,1.21V169h-.72v-4h.72Z"/><path class="cls-3" d="M131.29,164.88a1.45,1.45,0,0,1,1.22.71V165h.72v3.6a1.79,1.79,0,0,1-1.88,2,3.16,3.16,0,0,1-1.43-.36l.25-.55a2.51,2.51,0,0,0,1.17.35c.62,0,1.17-.42,1.17-1.35v-.3a1.43,1.43,0,0,1-1.23.64c-1.06,0-1.78-.71-1.78-2A1.84,1.84,0,0,1,131.29,164.88Zm.07.55c-.81,0-1.14.75-1.14,1.53s.38,1.5,1.14,1.5a1.2,1.2,0,0,0,1.15-1.35v-.32A1.25,1.25,0,0,0,131.36,165.43Z"/><path d="M202.33,142.67h-19v-9.85l-8.88,2.39,4.34-6.74,8.46-2.28.55.74-3.05,4.73h16.19l-3-4.73.55-.74,8.46,2.28,4.34,6.74-8.92-2.4Zm-18-1h17v-9h-17Zm17.83-9.95,6.86,1.85-2.72-4.23-6.83-1.85Zm-22.74-2.39-2.72,4.24,6.82-1.84,2.73-4.24Z"/><polygon points="195.91 116.84 195.19 116.15 198.66 112.49 198.66 109.33 187.02 109.33 187.02 112.49 190.49 116.14 189.77 116.83 186.02 112.89 186.02 108.33 199.66 108.33 199.66 112.89 195.91 116.84"/><polygon points="187.59 124.65 184.26 123.71 185.45 119.02 190.01 116.25 190.53 117.11 186.32 119.66 185.47 123.01 187.86 123.69 187.59 124.65"/><polygon points="198.1 124.65 197.83 123.68 200.21 123.01 199.36 119.66 195.15 117.11 195.67 116.25 200.23 119.02 201.42 123.71 198.1 124.65"/><path d="M192.84,118.84a3.32,3.32,0,1,1,3.32-3.32A3.32,3.32,0,0,1,192.84,118.84Zm0-5.64a2.32,2.32,0,1,0,2.32,2.32A2.32,2.32,0,0,0,192.84,113.2Z"/><path d="M192.84,116.4a.88.88,0,1,1,0-1.76.88.88,0,0,1,0,1.76Zm0-1a.12.12,0,0,0-.12.12c0,.13.24.13.24,0A.12.12,0,0,0,192.84,115.4Z"/><rect x="185.84" y="138.38" width="1.76" height="1.76"/><rect x="189.13" y="138.38" width="1.76" height="1.76"/><rect x="183.81" y="131.66" width="18.05" height="1"/><rect x="187.03" y="126.26" width="11.61" height="1"/><path d="M136.74,139.36H96.5A3.47,3.47,0,0,1,93,135.89a3.41,3.41,0,0,1,.44-1.69l2.18-15.78,1,.14-2.26,16.06a2.47,2.47,0,0,0,2.11,3.74h40.24a2.48,2.48,0,0,0,2.47-2.47,2.52,2.52,0,0,0-.33-1.23l-.06-.17-2.57-15.92,1-.16,2.55,15.83a3.47,3.47,0,0,1-3,5.12Z"/><path d="M136.74,139.36H96.5a3.47,3.47,0,0,1,0-6.94h40.24a3.47,3.47,0,0,1,0,6.94ZM96.5,133.42a2.47,2.47,0,0,0,0,4.94h40.24a2.47,2.47,0,0,0,0-4.94Z"/><path d="M96.65,118.66h-1a3,3,0,0,1,3-3h35.52v1H98.69A2,2,0,0,0,96.65,118.66Z"/><path d="M137.24,118.66h-1a2,2,0,0,0-2-2v-1A3,3,0,0,1,137.24,118.66Z"/><path d="M96.5,136.74a.85.85,0,1,1,.85-.85A.85.85,0,0,1,96.5,136.74Zm0-1a.15.15,0,0,0-.15.15c0,.17.3.17.3,0A.15.15,0,0,0,96.5,135.74Z"/><path d="M136.74,136.74a.85.85,0,1,1,.85-.85A.85.85,0,0,1,136.74,136.74Zm0-1a.15.15,0,0,0-.15.15c0,.17.3.17.3,0A.15.15,0,0,0,136.74,135.74Z"/><path class="cls-4" d="M123.11,127.73h-13a2.43,2.43,0,0,1-2.44-2.56l.88-18.27h16.11l.87,18.27A2.43,2.43,0,0,1,123.11,127.73Z"/><line class="cls-5" x1="108.43" y1="109.77" x2="124.83" y2="109.77"/><path d="M29.51,145c-.63-.21-1.37-.53-1.51-1.16s.36-1.09.75-1.48c.16-.15.46-.44.48-.56h0a2.26,2.26,0,0,0-.91-.44l.3-.95c1,.32,1.47.68,1.58,1.18s-.35,1.1-.75,1.49a2,2,0,0,0-.47.56h0a2.07,2.07,0,0,0,.85.41Z"/><path d="M34,145c-.63-.21-1.37-.53-1.51-1.16s.35-1.09.75-1.48c.16-.15.46-.44.48-.56s-.12-.18-.91-.44l.3-.95c1,.32,1.47.68,1.58,1.18s-.35,1.1-.75,1.49a2.28,2.28,0,0,0-.48.56s.11.17.86.41Z"/><path d="M38.39,145c-.63-.21-1.37-.53-1.51-1.16s.35-1.09.75-1.48a2.28,2.28,0,0,0,.48-.56s-.12-.18-.92-.44l.31-.95c1,.32,1.46.68,1.58,1.18s-.35,1.1-.75,1.49c-.16.15-.46.44-.48.56h0a2.08,2.08,0,0,0,.86.41Z"/><path d="M42.83,145c-.63-.21-1.37-.53-1.52-1.16s.36-1.09.76-1.48a2,2,0,0,0,.47-.56h0a2.15,2.15,0,0,0-.91-.44l.31-.95c1,.32,1.46.68,1.58,1.18s-.35,1.1-.75,1.49c-.16.15-.46.44-.48.56h0a2.07,2.07,0,0,0,.85.41Z"/><path class="cls-4" d="M11.6,114.83H59.92a0,0,0,0,1,0,0v12.83a9.51,9.51,0,0,1-9.51,9.51H21.12a9.51,9.51,0,0,1-9.51-9.51V114.83A0,0,0,0,1,11.6,114.83Z"/><ellipse class="cls-4" cx="35.76" cy="114.83" rx="24.16" ry="5.59"/><g class="cls-6"><path d="M30.35,115.7c3.12,1.14-1.38,2.24-1.07,1.23-6.16-1.13-.58-.83.48-1.38,4.54-.63-.37-.18-2.11-.93C28.6,114.09,29.47,113.23,30.35,115.7Z"/><path d="M22.32,121.31s-1,.51-.63,1.17,1.56.63,2.16-.51,1.41-3.39,1.2-1.47-1.26,1.89-.75,2.13,2.34-1.89,1.74-2.49-1.34-2-2.7-.78-1.56.72-1.41,1.53-.91.9-.91.9Z"/><path d="M27.17,121.34c0,.06-1,0-.85.51A3.19,3.19,0,0,0,27,123s2.32-.54,1.9-1.08-.66-2.49,0-.93.27,2.58-.15,2.67-1.66-.73-1.3.15,2.89-.81,2.89-.81.3-1.35-.3-2-.48-2.1-1.41-1.17S27.17,121.34,27.17,121.34Z"/><path d="M24.31,117c.54-.63,1.2.09,1.2.09s.48,1.12-.33,1.24a6.1,6.1,0,0,1-1.74-.07c-.9-.06-1.41,1-1.65-.6s.36-3.33-1-1.68-1.56,1.47-1.44,1.89a2.8,2.8,0,0,0,.66.93s1.89,1.08,2.22,0-.12-1.68.39-2.19,1-1.14,1.32-.66A2.56,2.56,0,0,1,24.31,117Z"/><path d="M28.19,118.26c-.63.51-1.24,1-1.24,1L25.9,117.6s.48-.81,1-.33,1.66-.36,1.72.27a4.79,4.79,0,0,1-.23,1.53s-.58.93-1.25,1-.78.27-.84-.36S28.19,118.26,28.19,118.26Z"/><path d="M31.36,119c-1.32,0-1.5-.1-1.56.27s.24.58.45.79,1.11,0,1.11,0a1.7,1.7,0,0,0,.33-.79c0-.34.72-.85.72-.27s1.32.89,1,.27-.15-1.13-1.11-1.28-1.44-.66-1.74,0,.57.12.27.49S31.36,119,31.36,119Z"/><path d="M25.44,114.87c-1,.09-.69-.48-1.23.48s.54,1,.69,1,.24.27.54.21.69-.39,1.14-1.14,1-1.11.39-1.56-.36-.57-1.08-.57-.2-.06-.24-.6-.84-.45-1,.12a.71.71,0,0,0,.15.84s-.12,1,.15,1S25.44,114.87,25.44,114.87Z"/><path d="M34.81,122.09c-.54,3.28-2.46-.94-1.41-.82,0-6.26.71-.73,1.45.21,1.46,4.34.1-.39.52-2.24C36.06,120.07,37.07,120.77,34.81,122.09Z"/><path d="M27.8,115.25s-.69-.88-1.27-.4-.33,1.65.9,2,3.6.75,1.67.9-2.09-.88-2.23-.34,2.29,2,2.77,1.25,1.7-1.69.26-2.8-1-1.4-1.77-1.1-1.05-.72-1.05-.72Z"/><path d="M28.67,120c-.06,0-.15-1-.66-.74a3.2,3.2,0,0,0-1,.91s1,2.17,1.41,1.66,2.33-1.12.92-.17-2.49.74-2.66.35.41-1.76-.38-1.24,1.33,2.68,1.33,2.68,1.38,0,1.92-.67,2-.87.89-1.61S28.67,120,28.67,120Z"/><path d="M32.37,116.41c.72.41.14,1.2.14,1.2s-1,.68-1.28-.1a6,6,0,0,1-.26-1.72c-.11-.9-1.23-1.2.29-1.73s3.33-.27,1.45-1.32-1.73-1.26-2.12-1.06a2.67,2.67,0,0,0-.8.82s-.7,2.06.42,2.18,1.63-.43,2.23,0,1.3.76.89,1.17A2.63,2.63,0,0,1,32.37,116.41Z"/><path d="M31.88,120.45c-.61-.53-1.25-1-1.25-1l1.48-1.35s.88.32.51.91.66,1.56.05,1.73a4.83,4.83,0,0,1-1.55.07s-1-.4-1.17-1-.41-.72.2-.9S31.88,120.45,31.88,120.45Z"/><path d="M31.78,123.7c-.23-1.3-.18-1.5-.56-1.49s-.52.35-.69.59.21,1.09.21,1.09a1.62,1.62,0,0,0,.84.18c.34-.06,1,.55.4.66s-.63,1.46-.08,1,1.08-.36,1.05-1.33.38-1.54-.33-1.71,0,.58-.42.36S31.78,123.7,31.78,123.7Z"/><path d="M34.7,117.12c-.27-1,.35-.77-.7-1.12s-.87.71-.84.86-.22.29-.11.57.52.61,1.34.91,1.28.79,1.6.09.5-.46.36-1.17,0-.21.55-.34.28-.92-.32-1a.71.71,0,0,0-.8.31s-1,.07-.91.33A.78.78,0,0,1,34.7,117.12Z"/><path d="M18.87,114.64c2-2.68,1.76,2,.88,1.38-2.8,5.6-1,.32-1.2-.85.67-4.53-.27.3-1.47,1.76C16.83,115.88,16.25,114.8,18.87,114.64Z"/><path d="M22,123.92s.22,1.1,1,.94,1-1.33.11-2.22-2.87-2.3-1.08-1.57,1.46,1.74,1.84,1.32-1.17-2.78-1.91-2.37-2.28.73-1.5,2.37.25,1.71,1.07,1.79.62,1.12.62,1.12Z"/><path d="M23.4,119.27c.05,0-.31,1,.25,1a3.17,3.17,0,0,0,1.27-.38s.13-2.37-.51-2.12-2.58-.06-.89-.26,2.55.46,2.52.89-1.16,1.39-.22,1.28,0-3,0-3a2.7,2.7,0,0,0-2-.27c-.8.39-2.15-.12-1.51,1S23.4,119.27,23.4,119.27Z"/><path d="M18.46,120.81c-.45-.69.42-1.12.42-1.12s1.22-.15,1.1.66a6,6,0,0,1-.55,1.65c-.31.85.55,1.63-1,1.42s-3.1-1.27-1.89.51,1,1.91,1.41,1.91a2.85,2.85,0,0,0,1.08-.37s1.56-1.52.62-2.14-1.65-.35-2-1-.82-1.27-.27-1.45A2.52,2.52,0,0,1,18.46,120.81Z"/><path d="M20.73,117.44c.31.75.66,1.47.66,1.47l-1.93.54s-.65-.69,0-1,.11-1.68.73-1.57a4.9,4.9,0,0,1,1.41.65s.73.82.58,1.46,0,.82-.59.71S20.73,117.44,20.73,117.44Z"/><path d="M22.29,114.59c-.38,1.26-.51,1.41-.17,1.57s.62-.07.88-.21.31-1.07.31-1.07a1.63,1.63,0,0,0-.67-.53c-.33-.1-.62-.93-.06-.77s1.23-1,.55-.91-1.13-.17-1.54.71-1,1.2-.48,1.68.27-.52.53-.13S22.29,114.59,22.29,114.59Z"/><path d="M16.7,119.13c-.19,1-.65.53.12,1.31s1.1-.24,1.15-.38.32-.16.35-.47-.18-.77-.78-1.41-.78-1.28-1.39-.8-.65.18-.85.87-.11.18-.64.06-.67.69-.18,1a.71.71,0,0,0,.85.09s.92.39,1,.12S16.7,119.13,16.7,119.13Z"/><path d="M55,115.32c3.12,1.15-1.38,2.24-1.07,1.23-6.16-1.13-.58-.83.48-1.38,4.54-.62-.37-.18-2.1-.93C53.25,113.71,54.12,112.86,55,115.32Z"/><path d="M47,120.93s-1,.51-.63,1.17,1.56.63,2.16-.51,1.41-3.39,1.2-1.47S48.44,122,49,122.25s2.34-1.89,1.74-2.49-1.33-2-2.69-.78-1.57.72-1.42,1.53-.9.9-.9.9Z"/><path d="M51.82,121s-1,0-.84.51a3.11,3.11,0,0,0,.72,1.1s2.31-.53,1.89-1.07-.66-2.5,0-.94.27,2.59-.15,2.68-1.65-.73-1.29.14,2.88-.81,2.88-.81.3-1.35-.3-2-.48-2.1-1.41-1.17S51.82,121,51.82,121Z"/><path d="M49,116.65c.54-.63,1.2.09,1.2.09s.48,1.13-.33,1.24a6.18,6.18,0,0,1-1.75-.07c-.9-.06-1.41,1-1.65-.6s.36-3.33-1-1.68-1.56,1.47-1.44,1.89a2.88,2.88,0,0,0,.66.94s1.89,1.08,2.22,0-.12-1.69.39-2.2,1-1.14,1.33-.66A2.56,2.56,0,0,1,49,116.65Z"/><path d="M52.84,117.89c-.63.51-1.23,1-1.23,1l-1-1.71s.48-.81,1-.33,1.65-.36,1.71.27A4.79,4.79,0,0,1,53,118.7s-.58.93-1.24,1-.78.26-.84-.36S52.84,117.89,52.84,117.89Z"/><path d="M56,118.6c-1.32,0-1.5-.1-1.56.27s.24.57.45.79,1.11,0,1.11,0a1.7,1.7,0,0,0,.33-.79c0-.35.72-.86.72-.27s1.32.89,1,.27-.15-1.13-1.11-1.28-1.44-.66-1.74,0,.57.12.27.48S56,118.6,56,118.6Z"/><path d="M50.1,114.5c-1,.09-.69-.49-1.24.48s.55,1,.7,1,.24.26.54.21.69-.39,1.14-1.14,1-1.12.38-1.57-.35-.57-1.07-.57-.21-.06-.24-.6-.84-.45-1.05.12a.69.69,0,0,0,.15.84s-.12,1,.15,1S50.1,114.5,50.1,114.5Z"/><path d="M40.17,115.85c3.12,1.15-1.39,2.24-1.08,1.23-6.16-1.13-.58-.83.48-1.38,4.54-.62-.36-.18-2.1-.93C38.42,114.24,39.29,113.39,40.17,115.85Z"/><path d="M32.13,121.46s-1,.52-.63,1.18,1.56.63,2.16-.51,1.41-3.4,1.2-1.48-1.26,1.9-.75,2.14,2.35-1.9,1.74-2.5-1.33-2-2.69-.78-1.57.72-1.42,1.53-.9.91-.9.91Z"/><path d="M37,121.5c0,.06-1,0-.85.51a3.11,3.11,0,0,0,.72,1.1s2.31-.53,1.89-1.07-.66-2.5,0-.93.27,2.58-.15,2.67-1.65-.73-1.29.14,2.88-.81,2.88-.81a2.65,2.65,0,0,0-.3-2c-.6-.66-.48-2.11-1.41-1.18S37,121.5,37,121.5Z"/><path d="M34.13,117.18c.54-.63,1.2.09,1.2.09s.48,1.13-.33,1.24a5.74,5.74,0,0,1-1.74-.06c-.9-.06-1.41,1-1.65-.61s.36-3.33-1-1.68-1.57,1.48-1.45,1.9a2.77,2.77,0,0,0,.67.93s1.89,1.08,2.22,0-.12-1.69.39-2.2,1-1.14,1.32-.66A2.56,2.56,0,0,1,34.13,117.18Z"/><path d="M38,118.42c-.63.51-1.23,1-1.23,1l-1.05-1.71s.48-.81,1-.33,1.65-.36,1.71.27a4.9,4.9,0,0,1-.22,1.53s-.59.93-1.25,1-.78.26-.84-.36S38,118.42,38,118.42Z"/><path d="M41.17,119.13c-1.32,0-1.5-.1-1.56.27s.24.57.45.79,1.11,0,1.11,0a1.67,1.67,0,0,0,.34-.79c0-.35.72-.85.72-.27s1.32.89,1,.27-.15-1.13-1.11-1.28-1.45-.66-1.75,0,.57.12.27.48S41.17,119.13,41.17,119.13Z"/><path d="M35.26,115c-1,.09-.69-.48-1.23.48s.54,1,.69,1,.24.27.54.21.69-.39,1.14-1.14,1-1.11.39-1.56-.36-.57-1.08-.57-.21-.06-.24-.61-.84-.45-1,.12a.72.72,0,0,0,.15.85s-.12,1,.15,1S35.26,115,35.26,115Z"/><path d="M43.85,124c3.12,1.15-1.39,2.24-1.08,1.23-6.15-1.13-.58-.83.48-1.38,4.54-.62-.36-.18-2.1-.93C42.1,122.39,43,121.54,43.85,124Z"/><path d="M35.81,129.61s-1,.51-.63,1.17,1.56.63,2.17-.51,1.41-3.39,1.2-1.47-1.27,1.89-.75,2.13,2.34-1.89,1.74-2.49-1.34-2-2.7-.78-1.57.72-1.42,1.53-.9.9-.9.9Z"/><path d="M40.67,129.65s-1,0-.85.5a3.08,3.08,0,0,0,.72,1.11s2.31-.53,1.89-1.08-.66-2.49,0-.93.27,2.59-.15,2.68-1.65-.73-1.29.14,2.89-.81,2.89-.81.3-1.35-.3-2-.49-2.1-1.42-1.17S40.67,129.65,40.67,129.65Z"/><path d="M37.81,125.33c.54-.63,1.2.09,1.2.09s.48,1.13-.33,1.24a6.1,6.1,0,0,1-1.74-.07c-.9-.06-1.41,1-1.65-.6s.36-3.33-1-1.68-1.56,1.47-1.44,1.89a2.8,2.8,0,0,0,.66.93s1.89,1.09,2.22,0-.12-1.68.39-2.19,1-1.14,1.32-.66A2.56,2.56,0,0,1,37.81,125.33Z"/><path d="M41.68,126.57c-.63.51-1.23,1-1.23,1l-1.05-1.7s.48-.81,1-.33,1.65-.36,1.71.27a4.9,4.9,0,0,1-.22,1.53s-.59.93-1.25,1-.78.26-.84-.37S41.68,126.57,41.68,126.57Z"/><path d="M44.86,127.28c-1.32,0-1.5-.1-1.56.27s.24.57.45.79,1.11,0,1.11,0a1.7,1.7,0,0,0,.33-.79c0-.35.72-.86.72-.27s1.32.89,1,.27-.15-1.13-1.11-1.28-1.44-.66-1.74,0,.57.12.27.48S44.86,127.28,44.86,127.28Z"/><path d="M38.94,123.17c-1,.09-.69-.48-1.23.49s.54,1,.69,1,.24.26.54.2.69-.38,1.14-1.13,1-1.12.39-1.57-.36-.57-1.08-.57-.21-.06-.24-.6-.84-.45-1,.12a.71.71,0,0,0,.15.84s-.12,1,.15,1S38.94,123.17,38.94,123.17Z"/><path d="M50.76,121c2.29,2.41-2.24,1.39-1.51.63-5-3.74-.15-1,1-1,4.35,1.45-.25-.32-1.47-1.76C49.9,118.73,51.06,118.35,50.76,121Z"/><path d="M41.07,122.42s-1.12,0-1.09.77,1.12,1.26,2.17.5,2.77-2.41,1.73-.79-2,1.14-1.62,1.58,2.94-.65,2.66-1.46-.32-2.37-2.07-1.89-1.72,0-2,.74-1.2.41-1.2.41Z"/><path d="M45.4,124.6c0,.05-.87-.47-1,.08a3.21,3.21,0,0,0,.16,1.31s2.31.55,2.17-.12.51-2.53.41-.84-.9,2.44-1.32,2.33-1.16-1.38-1.22-.44,2.94.55,2.94.55.87-1.07.62-1.93.5-2.1-.74-1.68S45.4,124.6,45.4,124.6Z"/><path d="M44.75,119.47c.77-.33,1,.61,1,.61s-.07,1.22-.84,1a5.54,5.54,0,0,1-1.54-.83c-.78-.45-1.7.26-1.21-1.27s1.8-2.82-.17-2S40,117.61,39.9,118a2.79,2.79,0,0,0,.18,1.13s1.22,1.81,2,1,.64-1.56,1.32-1.79,1.4-.58,1.48,0A2.6,2.6,0,0,1,44.75,119.47Z"/><path d="M47.68,122.29c-.79.18-1.57.39-1.57.39l-.18-2s.79-.52,1,.14,1.64.41,1.41,1a4.71,4.71,0,0,1-.88,1.27s-.93.58-1.54.31-.81-.11-.59-.7S47.68,122.29,47.68,122.29Z"/><path d="M50.21,124.33c-1.18-.6-1.3-.75-1.52-.45s0,.63.05.91,1,.49,1,.49a1.68,1.68,0,0,0,.64-.56c.16-.31,1-.44.77.08s.79,1.38.8.69.36-1.07-.43-1.63-1-1.24-1.56-.78.45.36,0,.55S50.21,124.33,50.21,124.33Z"/><path d="M46.72,118c-.93-.35-.4-.73-1.31-.11s0,1.13.18,1.19.09.35.39.43.79,0,1.53-.52,1.4-.54,1-1.22-.06-.67-.71-1-.16-.15.05-.65-.55-.77-1-.36a.71.71,0,0,0-.24.82s-.55.84-.29.93S46.72,118,46.72,118Z"/><path d="M38.18,119.56c-3-1.35,1.52-2.15,1.15-1.16,6.07,1.53.52.87-.57,1.35-4.57.32.35.2,2,1.06C39.82,121.28,38.89,122.08,38.18,119.56Z"/><path d="M46.56,114.49s1-.45.71-1.13-1.52-.73-2.19.37-1.63,3.29-1.3,1.39,1.39-1.81.89-2.08-2.46,1.73-1.9,2.37,1.2,2.07,2.64,1,1.61-.62,1.51-1.44,1-.84,1-.84Z"/><path d="M41.72,114.13s1,.1.88-.45a3.21,3.21,0,0,0-.65-1.15s-2.34.38-2,1,.5,2.53-.06.93-.1-2.59.33-2.66,1.6.84,1.3-.06-2.93.62-2.93.62-.39,1.33.16,2,.34,2.13,1.33,1.27S41.72,114.13,41.72,114.13Z"/><path d="M44.29,118.63c-.58.59-1.19-.17-1.19-.17s-.41-1.15.41-1.22a6,6,0,0,1,1.73.19c.89.11,1.47-.89,1.61.71s-.58,3.29.91,1.74,1.65-1.37,1.56-1.79a2.79,2.79,0,0,0-.6-1s-1.82-1.2-2.22-.14,0,1.68-.53,2.16-1.06,1.07-1.36.57A2.5,2.5,0,0,1,44.29,118.63Z"/><path d="M40.5,117.14c.67-.47,1.3-1,1.3-1l.94,1.77s-.54.78-1,.26-1.67.25-1.69-.38a4.85,4.85,0,0,1,.32-1.51s.65-.89,1.31-.88.8-.21.81.42S40.5,117.14,40.5,117.14Z"/><path d="M37.38,116.22c1.32.11,1.5.2,1.58-.17s-.2-.58-.4-.81-1.11-.08-1.11-.08a1.79,1.79,0,0,0-.38.77c0,.35-.77.8-.73.22s-1.26-1-1-.33.07,1.13,1,1.34,1.39.76,1.74.12-.56-.16-.24-.5S37.38,116.22,37.38,116.22Z"/><path d="M43,120.71c1,0,.66.52,1.26-.4s-.48-1-.63-1-.22-.28-.52-.24-.72.34-1.22,1.06-1.08,1-.48,1.53.31.6,1,.64.21.08.2.62.81.5,1.06,0a.71.71,0,0,0-.09-.85s.18-1-.09-1S43,120.71,43,120.71Z"/><path d="M36.67,125.85c2.3,2.41-2.23,1.39-1.5.62-5-3.74-.16-1,1-1,4.35,1.45-.25-.32-1.47-1.77C35.82,123.63,37,123.25,36.67,125.85Z"/><path d="M27,127.31s-1.12,0-1.09.78,1.12,1.26,2.17.5,2.76-2.42,1.73-.79-2,1.14-1.62,1.58,2.94-.66,2.66-1.46-.32-2.37-2.07-1.9-1.72,0-1.95.75-1.2.41-1.2.41Z"/><path d="M31.32,129.5c0,.05-.88-.47-1,.08a3.21,3.21,0,0,0,.16,1.31s2.31.54,2.17-.13.51-2.52.41-.83-.9,2.43-1.32,2.33-1.16-1.39-1.22-.44,2.94.55,2.94.55.87-1.08.62-1.94.5-2.09-.74-1.67S31.32,129.5,31.32,129.5Z"/><path d="M30.67,124.37c.77-.33,1,.61,1,.61s-.07,1.22-.84,1a6.12,6.12,0,0,1-1.54-.83c-.78-.45-1.7.26-1.21-1.27s1.8-2.83-.17-2-2.05.63-2.13,1.06a2.79,2.79,0,0,0,.18,1.13s1.22,1.8,2,1,.64-1.56,1.32-1.79,1.4-.59,1.48,0A2.6,2.6,0,0,1,30.67,124.37Z"/><path d="M33.6,127.19c-.79.18-1.57.39-1.57.39l-.18-2s.79-.52,1,.14,1.64.41,1.41,1a4.71,4.71,0,0,1-.88,1.27s-.93.58-1.54.31-.81-.11-.59-.7S33.6,127.19,33.6,127.19Z"/><path d="M36.13,129.23c-1.18-.6-1.3-.76-1.52-.45s0,.62,0,.91,1,.49,1,.49a1.68,1.68,0,0,0,.64-.56c.16-.31,1-.45.77.08s.79,1.38.8.69.36-1.08-.43-1.64-1-1.23-1.56-.77.45.36,0,.55S36.13,129.23,36.13,129.23Z"/><path d="M32.64,122.93c-.93-.36-.4-.74-1.31-.11s0,1.12.18,1.19.09.35.39.43.79,0,1.53-.52,1.39-.55,1-1.23-.06-.67-.71-1-.16-.14,0-.64-.55-.78-1-.36a.71.71,0,0,0-.24.82s-.55.84-.29.93S32.64,122.93,32.64,122.93Z"/></g><path d="M39.17,102.89H32.35V101l-3-3H28.1V94.92H43.42v3.14H42.13l-3,3Zm-5.82-1h4.82v-1.28l3.55-3.55h.7V95.92H29.1v1.14h.7l3.55,3.55Z"/><path d="M36.17,106l-.41-.6-.42.6c-.28.42-1.71,2.55-1.71,3.55a2.13,2.13,0,0,0,4.25,0C37.88,108.5,36.45,106.37,36.17,106Zm-.41,4.67a1.13,1.13,0,0,1-1.13-1.12,7.49,7.49,0,0,1,1.13-2.35,7.64,7.64,0,0,1,1.12,2.35A1.12,1.12,0,0,1,35.76,110.62Z"/><path class="cls-3" d="M36.88,109.5a1.13,1.13,0,0,1-2.25,0,7.49,7.49,0,0,1,1.13-2.35A7.64,7.64,0,0,1,36.88,109.5Z"/><path d="M186.59,50.05c-.63-.21-1.37-.54-1.51-1.17s.36-1.09.75-1.48c.16-.15.46-.44.48-.56h0a2.2,2.2,0,0,0-.91-.43l.3-1c1,.32,1.47.68,1.58,1.18s-.35,1.1-.75,1.49a2,2,0,0,0-.47.56h0a2.13,2.13,0,0,0,.85.42Z"/><path d="M191,50.05c-.63-.21-1.37-.54-1.51-1.17s.35-1.09.75-1.48c.16-.15.46-.44.48-.56s-.12-.18-.91-.43l.3-1c1,.32,1.47.68,1.58,1.18s-.35,1.1-.75,1.49a2.28,2.28,0,0,0-.48.56s.11.17.86.42Z"/><path d="M195.47,50.05c-.63-.21-1.37-.54-1.51-1.17s.35-1.09.75-1.48a2.28,2.28,0,0,0,.48-.56s-.12-.18-.92-.43l.31-1c1,.32,1.46.68,1.58,1.18s-.35,1.1-.75,1.49c-.16.15-.46.44-.48.56h0a2.14,2.14,0,0,0,.86.42Z"/><path d="M199.91,50.05c-.63-.21-1.37-.54-1.52-1.17s.36-1.09.76-1.48a2,2,0,0,0,.47-.56h0a2.09,2.09,0,0,0-.91-.43l.31-1c1,.32,1.46.68,1.58,1.18s-.35,1.1-.75,1.49c-.16.15-.46.44-.48.56h0a2.13,2.13,0,0,0,.85.42Z"/><path class="cls-4" d="M168.68,19.91H217a0,0,0,0,1,0,0V32.73a9.51,9.51,0,0,1-9.51,9.51H178.2a9.51,9.51,0,0,1-9.51-9.51V19.91A0,0,0,0,1,168.68,19.91Z"/><ellipse class="cls-4" cx="192.84" cy="19.91" rx="24.16" ry="5.59"/><g class="cls-7"><path d="M187.43,20.78c3.12,1.14-1.38,2.24-1.08,1.23-6.15-1.13-.57-.83.49-1.38,4.54-.63-.37-.18-2.11-.93C185.68,19.17,186.55,18.31,187.43,20.78Z"/><path d="M179.4,26.39s-1,.51-.64,1.17,1.57.63,2.17-.51,1.41-3.39,1.2-1.47-1.26,1.89-.75,2.13,2.34-1.89,1.74-2.49-1.34-2-2.7-.78-1.57.72-1.41,1.53-.91.9-.91.9Z"/><path d="M184.25,26.43c0,.05-1,0-.85.5a3.19,3.19,0,0,0,.72,1.11s2.32-.54,1.9-1.08-.66-2.49,0-.93.27,2.58-.15,2.67-1.66-.72-1.3.15,2.89-.81,2.89-.81.3-1.35-.3-2-.48-2.1-1.41-1.17S184.25,26.43,184.25,26.43Z"/><path d="M181.39,22.11c.54-.63,1.2.09,1.2.09s.48,1.12-.33,1.24a6.1,6.1,0,0,1-1.74-.07c-.9-.06-1.41,1-1.65-.6s.36-3.33-1-1.68-1.56,1.47-1.44,1.89a2.8,2.8,0,0,0,.66.93s1.89,1.08,2.22,0-.12-1.68.39-2.19,1-1.14,1.32-.66A2.56,2.56,0,0,1,181.39,22.11Z"/><path d="M185.27,23.34c-.63.51-1.24,1.05-1.24,1.05L183,22.68s.48-.81,1-.33,1.66-.36,1.72.27a4.79,4.79,0,0,1-.23,1.53s-.58.94-1.25,1-.78.26-.84-.37S185.27,23.34,185.27,23.34Z"/><path d="M188.44,24.05c-1.32,0-1.5-.1-1.56.27s.24.58.45.79,1.11,0,1.11,0a1.7,1.7,0,0,0,.33-.79c0-.34.72-.85.72-.27s1.32.89,1,.27-.15-1.12-1.11-1.27-1.44-.66-1.74,0,.57.12.27.48S188.44,24.05,188.44,24.05Z"/><path d="M182.52,20c-1,.09-.69-.48-1.23.48s.54,1,.69,1,.24.27.54.21.69-.39,1.14-1.14,1-1.11.39-1.56-.36-.57-1.08-.57-.2-.06-.24-.6-.84-.45-1,.12a.71.71,0,0,0,.15.84s-.12,1,.15,1S182.52,20,182.52,20Z"/><path d="M191.89,27.17c-.54,3.28-2.46-.94-1.41-.82,0-6.26.71-.73,1.45.21,1.46,4.35.1-.39.52-2.24C193.14,25.15,194.15,25.85,191.89,27.17Z"/><path d="M184.88,20.33s-.69-.88-1.27-.4-.33,1.65.9,2,3.6.75,1.67.9-2.09-.88-2.23-.34,2.29,1.95,2.77,1.25,1.7-1.68.26-2.79-1-1.41-1.77-1.11-1.05-.72-1.05-.72Z"/><path d="M185.75,25.11c-.06,0-.15-1-.66-.74a3.2,3.2,0,0,0-1,.91s1,2.17,1.41,1.66,2.33-1.11.92-.17-2.49.75-2.66.35.41-1.76-.38-1.24,1.33,2.68,1.33,2.68,1.38,0,1.92-.67,2-.87.89-1.61S185.75,25.11,185.75,25.11Z"/><path d="M189.45,21.49c.72.41.14,1.2.14,1.2s-1,.68-1.28-.09a6.16,6.16,0,0,1-.26-1.73c-.11-.89-1.23-1.2.29-1.73s3.33-.27,1.45-1.32-1.73-1.26-2.12-1.06a2.67,2.67,0,0,0-.8.82s-.7,2.06.42,2.18,1.63-.43,2.23,0,1.3.76.89,1.17A2.47,2.47,0,0,1,189.45,21.49Z"/><path d="M189,25.53c-.61-.53-1.25-1-1.25-1l1.48-1.35s.88.32.51.91.66,1.56.05,1.74a5,5,0,0,1-1.55.06s-1-.4-1.17-1-.41-.72.2-.9S189,25.53,189,25.53Z"/><path d="M188.86,28.78c-.23-1.3-.18-1.5-.56-1.49s-.52.35-.69.59.21,1.1.21,1.1a1.66,1.66,0,0,0,.84.17c.34-.06,1,.55.4.66s-.63,1.46-.08,1.05,1.08-.36,1.05-1.33.38-1.54-.33-1.71,0,.58-.42.36S188.86,28.78,188.86,28.78Z"/><path d="M191.78,22.2c-.27-1,.35-.77-.7-1.12s-.87.71-.84.86-.22.29-.11.57.52.61,1.34.91,1.28.79,1.6.09.5-.46.36-1.17,0-.21.55-.34.28-.92-.32-1a.73.73,0,0,0-.8.31s-1,.07-.91.33A.78.78,0,0,1,191.78,22.2Z"/><path d="M176,19.73c2-2.68,1.76,1.95.88,1.37-2.8,5.6-1,.33-1.2-.85.67-4.53-.27.3-1.47,1.76C173.91,21,173.33,19.88,176,19.73Z"/><path d="M179.09,29s.22,1.1,1,.94,1-1.33.11-2.22-2.87-2.3-1.08-1.57,1.46,1.74,1.84,1.32-1.17-2.78-1.91-2.37-2.28.73-1.5,2.37.25,1.71,1.07,1.79.62,1.12.62,1.12Z"/><path d="M180.48,24.35c.05,0-.31.95.25,1a3.29,3.29,0,0,0,1.27-.39s.13-2.37-.51-2.11-2.58-.06-.89-.26,2.55.46,2.52.88-1.16,1.39-.22,1.29,0-3,0-3a2.71,2.71,0,0,0-2-.27c-.8.39-2.15-.12-1.51,1S180.48,24.35,180.48,24.35Z"/><path d="M175.54,25.89c-.45-.69.42-1.12.42-1.12s1.22-.15,1.1.66a6,6,0,0,1-.55,1.65c-.31.85.55,1.63-1,1.42s-3.1-1.27-1.89.51,1,1.91,1.41,1.91a2.68,2.68,0,0,0,1.08-.37s1.56-1.52.62-2.14-1.65-.35-2-1-.82-1.27-.27-1.45A2.52,2.52,0,0,1,175.54,25.89Z"/><path d="M177.81,22.52c.31.75.66,1.47.66,1.47l-1.93.54s-.65-.69,0-1.05.11-1.68.73-1.57a4.9,4.9,0,0,1,1.41.65s.73.82.58,1.46,0,.82-.59.71S177.81,22.52,177.81,22.52Z"/><path d="M179.37,19.67c-.38,1.26-.51,1.41-.17,1.57s.62-.07.88-.21.31-1.07.31-1.07a1.63,1.63,0,0,0-.67-.53c-.33-.1-.62-.93-.06-.77s1.23-1,.55-.91-1.13-.17-1.54.72-1,1.2-.48,1.67.27-.52.53-.13S179.37,19.67,179.37,19.67Z"/><path d="M173.78,24.21c-.19,1-.65.53.12,1.31s1.1-.24,1.15-.38.32-.16.35-.46-.18-.78-.78-1.42-.78-1.28-1.39-.8-.65.18-.85.87-.11.18-.64.06-.67.69-.18,1.05a.71.71,0,0,0,.85.09s.92.39,1,.12S173.78,24.21,173.78,24.21Z"/><path d="M212.08,20.4c3.12,1.15-1.38,2.24-1.07,1.23-6.16-1.13-.58-.83.48-1.38,4.54-.62-.37-.18-2.1-.93C210.33,18.79,211.2,17.94,212.08,20.4Z"/><path d="M204.05,26s-1,.51-.63,1.18,1.56.63,2.16-.51,1.41-3.4,1.2-1.48-1.26,1.9-.75,2.14,2.34-1.9,1.74-2.5-1.33-2-2.69-.78-1.57.72-1.42,1.53-.9.9-.9.9Z"/><path d="M208.9,26.05c0,.06-1,0-.84.51a3.11,3.11,0,0,0,.72,1.1s2.31-.53,1.89-1.07-.66-2.5,0-.93.27,2.58-.15,2.67-1.65-.73-1.29.14,2.88-.81,2.88-.81a2.65,2.65,0,0,0-.3-2c-.6-.67-.48-2.11-1.41-1.18S208.9,26.05,208.9,26.05Z"/><path d="M206.05,21.73c.54-.63,1.2.09,1.2.09s.48,1.13-.33,1.24a5.81,5.81,0,0,1-1.75-.06c-.9-.06-1.41,1-1.65-.61s.36-3.33-1-1.68-1.56,1.48-1.44,1.9a2.8,2.8,0,0,0,.66.93s1.89,1.08,2.22,0-.12-1.69.39-2.2,1-1.14,1.33-.66A2.56,2.56,0,0,1,206.05,21.73Z"/><path d="M209.92,23c-.63.51-1.23,1.05-1.23,1.05l-1.05-1.71s.48-.81,1-.33,1.65-.36,1.71.27a4.79,4.79,0,0,1-.23,1.53s-.58.93-1.24,1-.78.26-.84-.36S209.92,23,209.92,23Z"/><path d="M213.09,23.68c-1.32,0-1.5-.1-1.56.27s.24.57.45.79,1.11,0,1.11,0a1.7,1.7,0,0,0,.33-.79c0-.35.72-.85.72-.27s1.32.89,1,.27-.15-1.13-1.11-1.28-1.44-.66-1.74,0,.57.12.27.48S213.09,23.68,213.09,23.68Z"/><path d="M207.18,19.58c-1,.09-.7-.48-1.24.48s.54,1,.7,1,.24.27.54.21.69-.39,1.14-1.14,1-1.11.38-1.56-.35-.58-1.07-.58-.21-.06-.24-.6-.84-.45-1.06.12a.73.73,0,0,0,.15.85s-.12,1,.16,1S207.18,19.58,207.18,19.58Z"/><path d="M197.25,20.94c3.12,1.14-1.39,2.23-1.08,1.22-6.16-1.13-.58-.82.48-1.38,4.54-.62-.36-.17-2.1-.93C195.49,19.33,196.37,18.47,197.25,20.94Z"/><path d="M189.21,26.54s-1,.52-.63,1.18,1.56.63,2.16-.51,1.41-3.4,1.2-1.47-1.26,1.89-.75,2.13,2.35-1.89,1.74-2.5-1.33-2-2.69-.78-1.57.72-1.42,1.54-.9.9-.9.9Z"/><path d="M194.07,26.58c0,.06-1,0-.85.51a3.19,3.19,0,0,0,.72,1.11s2.31-.54,1.89-1.08-.66-2.49,0-.93.27,2.58-.15,2.67-1.65-.73-1.29.15,2.88-.81,2.88-.81.3-1.35-.3-2-.48-2.1-1.41-1.17S194.07,26.58,194.07,26.58Z"/><path d="M191.21,22.27c.54-.63,1.2.09,1.2.09s.48,1.12-.33,1.23a5.74,5.74,0,0,1-1.74-.06c-.9-.06-1.41,1-1.65-.61s.36-3.33-1-1.67-1.57,1.47-1.45,1.89a2.77,2.77,0,0,0,.67.93s1.89,1.08,2.22,0-.12-1.68.39-2.19,1-1.15,1.32-.66A2.56,2.56,0,0,1,191.21,22.27Z"/><path d="M195.08,23.5c-.63.51-1.23,1.05-1.23,1.05l-1-1.71s.48-.81,1-.33,1.65-.36,1.71.27a4.9,4.9,0,0,1-.22,1.53s-.59.93-1.25,1-.78.26-.84-.36S195.08,23.5,195.08,23.5Z"/><path d="M198.25,24.21c-1.32,0-1.5-.1-1.56.27s.24.58.45.79,1.11,0,1.11,0a1.67,1.67,0,0,0,.34-.79c0-.35.72-.85.72-.27s1.32.89,1,.27-.15-1.13-1.11-1.28-1.45-.66-1.75,0,.57.12.27.48S198.25,24.21,198.25,24.21Z"/><path d="M192.34,20.11c-1,.09-.69-.48-1.23.48s.54,1,.69,1,.24.27.54.21.69-.39,1.14-1.14,1-1.11.39-1.56-.36-.57-1.08-.57-.21-.06-.24-.6-.84-.45-1.05.12a.71.71,0,0,0,.15.84s-.12,1,.15,1S192.34,20.11,192.34,20.11Z"/><path d="M200.93,29.08c3.12,1.15-1.39,2.24-1.08,1.23-6.16-1.13-.58-.83.48-1.38,4.54-.62-.36-.18-2.1-.93C199.18,27.47,200.05,26.62,200.93,29.08Z"/><path d="M192.89,34.69s-1,.51-.63,1.17,1.56.64,2.16-.51,1.42-3.39,1.21-1.47-1.27,1.89-.75,2.14,2.34-1.9,1.74-2.5-1.34-2-2.7-.78-1.57.72-1.42,1.53-.9.9-.9.9Z"/><path d="M197.75,34.73c0,.06-1,0-.85.51a3.11,3.11,0,0,0,.72,1.1s2.31-.53,1.89-1.07-.66-2.5,0-.94.27,2.59-.15,2.68-1.65-.73-1.29.14,2.89-.81,2.89-.81a2.68,2.68,0,0,0-.3-2c-.61-.66-.49-2.1-1.42-1.17S197.75,34.73,197.75,34.73Z"/><path d="M194.89,30.41c.54-.63,1.2.09,1.2.09s.48,1.13-.33,1.24a5.74,5.74,0,0,1-1.74-.06c-.9-.06-1.41,1-1.65-.61s.36-3.33-1-1.68-1.56,1.47-1.44,1.89a2.76,2.76,0,0,0,.66.94s1.89,1.08,2.22,0-.12-1.69.39-2.2,1-1.14,1.32-.66A2.56,2.56,0,0,1,194.89,30.41Z"/><path d="M198.76,31.65c-.63.51-1.23,1.05-1.23,1.05L196.48,31s.48-.81,1-.33,1.65-.36,1.71.27a4.9,4.9,0,0,1-.22,1.53s-.59.93-1.25,1-.78.26-.84-.36S198.76,31.65,198.76,31.65Z"/><path d="M201.94,32.36c-1.32,0-1.5-.1-1.56.27s.24.57.45.79,1.11,0,1.11,0a1.7,1.7,0,0,0,.33-.79c0-.35.72-.85.72-.27s1.32.89,1,.27-.15-1.13-1.11-1.28-1.44-.66-1.74,0,.57.12.27.48S201.94,32.36,201.94,32.36Z"/><path d="M196,28.26c-1,.09-.69-.48-1.23.48s.54,1,.69,1,.24.27.54.21.69-.39,1.14-1.14,1-1.11.39-1.57-.36-.57-1.08-.57-.21-.06-.24-.6-.84-.45-1,.12a.71.71,0,0,0,.15.84s-.12,1,.15,1S196,28.26,196,28.26Z"/><path d="M207.83,26c2.3,2.41-2.23,1.4-1.5.63-5-3.74-.15-1,1-1,4.35,1.46-.25-.32-1.47-1.76C207,23.81,208.14,23.43,207.83,26Z"/><path d="M198.15,27.5s-1.12,0-1.09.77,1.12,1.26,2.17.5S202,26.36,201,28s-2,1.13-1.62,1.57,2.94-.65,2.66-1.46-.32-2.37-2.07-1.89-1.72-.05-2,.74-1.2.41-1.2.41Z"/><path d="M202.48,29.69s-.87-.48-1,.07a3.28,3.28,0,0,0,.16,1.32s2.31.54,2.17-.13.51-2.53.41-.84-.9,2.44-1.32,2.33-1.16-1.38-1.22-.44,2.94.55,2.94.55.87-1.07.62-1.93.5-2.1-.74-1.68S202.48,29.69,202.48,29.69Z"/><path d="M201.83,24.55c.77-.33,1,.61,1,.61s-.07,1.22-.84,1a5.87,5.87,0,0,1-1.54-.84c-.78-.45-1.7.26-1.21-1.27s1.8-2.82-.17-2-2.05.63-2.13,1.06a2.79,2.79,0,0,0,.18,1.13s1.22,1.81,2,1,.64-1.56,1.32-1.79,1.4-.58,1.48,0A2.6,2.6,0,0,1,201.83,24.55Z"/><path d="M204.76,27.37c-.79.18-1.57.4-1.57.4l-.18-2s.79-.51,1,.14,1.64.41,1.41,1a4.83,4.83,0,0,1-.88,1.28s-.93.57-1.54.3-.81-.11-.59-.69S204.76,27.37,204.76,27.37Z"/><path d="M207.29,29.41c-1.18-.6-1.3-.75-1.52-.44s0,.62,0,.9,1,.49,1,.49a1.59,1.59,0,0,0,.64-.56c.16-.31,1-.44.77.08s.79,1.38.8.7.36-1.08-.43-1.64-1-1.23-1.56-.78.45.37,0,.56S207.29,29.41,207.29,29.41Z"/><path d="M203.8,23.12c-.93-.36-.4-.74-1.31-.12s0,1.13.18,1.19.09.35.39.43a2.19,2.19,0,0,0,1.53-.51c.73-.48,1.4-.55,1-1.23s-.06-.67-.71-1-.16-.15.05-.65-.55-.77-1-.35a.71.71,0,0,0-.24.82s-.55.83-.29.92S203.8,23.12,203.8,23.12Z"/><path d="M195.26,24.64c-3-1.35,1.52-2.15,1.15-1.16,6.07,1.53.52.87-.57,1.35-4.57.32.35.2,2,1.07C196.9,26.36,196,27.16,195.26,24.64Z"/><path d="M203.64,19.57s1-.45.71-1.13-1.52-.73-2.19.37-1.63,3.29-1.3,1.39,1.38-1.81.89-2.08-2.46,1.73-1.9,2.37,1.2,2.07,2.64,1S204.1,20.83,204,20s1-.84,1-.84Z"/><path d="M198.8,19.21c0-.05,1,.1.88-.45a3.21,3.21,0,0,0-.65-1.15s-2.34.38-2,.95.5,2.53-.06.93-.1-2.59.33-2.66,1.6.84,1.3-.06-2.93.62-2.93.62a2.7,2.7,0,0,0,.16,2c.56.69.34,2.12,1.33,1.26S198.8,19.21,198.8,19.21Z"/><path d="M201.37,23.71c-.58.59-1.19-.17-1.19-.17s-.41-1.15.41-1.21a6,6,0,0,1,1.73.18c.89.12,1.47-.89,1.61.71s-.58,3.3.91,1.74,1.65-1.37,1.56-1.79a2.79,2.79,0,0,0-.6-1s-1.82-1.2-2.22-.14,0,1.68-.53,2.16-1.06,1.07-1.36.57A2.5,2.5,0,0,1,201.37,23.71Z"/><path d="M197.58,22.22c.67-.47,1.3-1,1.3-1l.94,1.77s-.54.78-1,.26-1.67.26-1.69-.38a4.85,4.85,0,0,1,.32-1.51s.65-.89,1.31-.88.8-.21.81.42S197.58,22.22,197.58,22.22Z"/><path d="M194.46,21.3c1.32.11,1.5.2,1.58-.16s-.2-.59-.4-.82-1.11-.07-1.11-.07a1.73,1.73,0,0,0-.38.76c0,.35-.77.81-.73.22s-1.26-1-1-.33.07,1.13,1,1.35,1.39.75,1.74.11-.56-.16-.24-.5S194.46,21.3,194.46,21.3Z"/><path d="M200.1,25.79c1,0,.66.52,1.26-.4s-.48-1-.63-1-.22-.28-.52-.24-.72.34-1.22,1.06-1.08,1-.48,1.53.31.6,1,.64.21.08.2.62.81.5,1.06-.05a.71.71,0,0,0-.09-.85s.18-1-.09-1S200.1,25.79,200.1,25.79Z"/><path d="M193.75,30.93c2.3,2.41-2.23,1.39-1.5.62-5-3.74-.16-1,1-1,4.35,1.45-.25-.32-1.47-1.77C192.9,28.71,194.06,28.33,193.75,30.93Z"/><path d="M184.07,32.4s-1.12,0-1.09.77,1.12,1.26,2.17.5,2.76-2.42,1.72-.79-2,1.14-1.61,1.58,2.94-.66,2.66-1.46-.32-2.37-2.07-1.9-1.72,0-1.95.75-1.2.41-1.2.41Z"/><path d="M188.4,34.58c0,.05-.88-.47-1,.08a3,3,0,0,0,.16,1.31s2.31.55,2.17-.13.51-2.52.41-.83-.9,2.43-1.32,2.33-1.16-1.38-1.22-.44,2.94.55,2.94.55.87-1.08.62-1.93.5-2.1-.74-1.68S188.4,34.58,188.4,34.58Z"/><path d="M187.75,29.45c.77-.33,1,.61,1,.61s-.07,1.22-.84,1a5.82,5.82,0,0,1-1.54-.83c-.78-.45-1.7.26-1.21-1.27s1.8-2.83-.17-2S183,27.59,182.9,28a2.79,2.79,0,0,0,.18,1.13s1.22,1.8,2,1,.64-1.56,1.32-1.79,1.4-.59,1.48,0A2.6,2.6,0,0,1,187.75,29.45Z"/><path d="M190.68,32.27c-.79.18-1.57.39-1.57.39l-.18-2s.78-.52,1,.14,1.64.41,1.41,1a4.71,4.71,0,0,1-.88,1.27s-.93.58-1.54.31-.81-.11-.59-.7S190.68,32.27,190.68,32.27Z"/><path d="M193.21,34.31c-1.18-.6-1.3-.75-1.52-.45s0,.62.05.91,1,.49,1,.49a1.68,1.68,0,0,0,.64-.56c.16-.31,1-.45.77.08s.79,1.38.8.69.36-1.08-.43-1.64-1-1.23-1.56-.77.45.36,0,.55S193.21,34.31,193.21,34.31Z"/><path d="M189.72,28c-.93-.36-.4-.73-1.31-.11s0,1.13.18,1.19.09.35.39.43.79,0,1.53-.52,1.39-.55,1-1.23-.06-.67-.71-1-.16-.15,0-.65-.55-.78-1-.36a.71.71,0,0,0-.24.82s-.55.84-.29.93S189.72,28,189.72,28Z"/></g><path d="M196.25,8h-6.82V6.1l-3-3h-1.29V0H200.5V3.14h-1.29l-3,3Zm-5.82-1h4.82V5.69l3.55-3.55h.7V1H186.18V2.14h.7l3.55,3.55Z"/><circle class="cls-4" cx="190.79" cy="10.91" r="0.81"/><circle class="cls-4" cx="194.75" cy="11.96" r="0.81"/><circle class="cls-4" cx="195.87" cy="16.83" r="0.81"/><circle class="cls-4" cx="189.16" cy="16.89" r="0.81"/><circle class="cls-4" cx="192.56" cy="15.14" r="0.81"/><path d="M110.37,50.05c-.62-.21-1.36-.54-1.51-1.17s.36-1.09.76-1.48c.15-.15.45-.44.47-.56h0a2.2,2.2,0,0,0-.91-.43l.31-1c1,.32,1.46.68,1.58,1.18s-.36,1.1-.76,1.49a2,2,0,0,0-.47.56h0a2.13,2.13,0,0,0,.85.42Z"/><path d="M114.81,50.05c-.63-.21-1.37-.54-1.51-1.17s.36-1.09.75-1.48c.16-.15.46-.44.48-.56s-.11-.18-.91-.43l.3-1c1,.32,1.47.68,1.58,1.18s-.35,1.1-.75,1.49a2,2,0,0,0-.47.56s.1.17.85.42Z"/><path d="M119.25,50.05c-.63-.21-1.37-.54-1.51-1.17s.35-1.09.75-1.48c.16-.15.46-.44.48-.56s-.12-.18-.91-.43l.3-1c1,.32,1.47.68,1.58,1.18s-.35,1.1-.75,1.49a2.28,2.28,0,0,0-.48.56h0a2.27,2.27,0,0,0,.86.42Z"/><path d="M123.69,50.05c-.63-.21-1.37-.54-1.51-1.17s.35-1.09.75-1.48a2.28,2.28,0,0,0,.48-.56h0a2.33,2.33,0,0,0-.92-.43l.31-1c1,.32,1.46.68,1.58,1.18s-.35,1.1-.75,1.49c-.16.15-.46.44-.48.56h0a2.14,2.14,0,0,0,.86.42Z"/><path class="cls-4" d="M92.46,19.91h48.32a0,0,0,0,1,0,0V32.73a9.51,9.51,0,0,1-9.51,9.51H102a9.51,9.51,0,0,1-9.51-9.51V19.91A0,0,0,0,1,92.46,19.91Z"/><ellipse class="cls-4" cx="116.62" cy="19.91" rx="24.16" ry="5.59"/><g class="cls-8"><path d="M111.21,20.78c3.12,1.14-1.38,2.24-1.07,1.23-6.16-1.13-.58-.83.48-1.38,4.54-.63-.37-.18-2.1-.93C109.46,19.17,110.33,18.31,111.21,20.78Z"/><path d="M103.18,26.39s-1,.51-.63,1.17,1.56.63,2.16-.51,1.41-3.39,1.2-1.47-1.26,1.89-.75,2.13,2.34-1.89,1.74-2.49-1.34-2-2.69-.78-1.57.72-1.42,1.53-.9.9-.9.9Z"/><path d="M108,26.43c0,.05-1,0-.84.5a3.19,3.19,0,0,0,.72,1.11s2.31-.54,1.89-1.08-.66-2.49,0-.93.27,2.58-.15,2.67-1.65-.72-1.29.15,2.88-.81,2.88-.81.3-1.35-.3-2-.48-2.1-1.41-1.17S108,26.43,108,26.43Z"/><path d="M105.17,22.11c.54-.63,1.21.09,1.21.09s.48,1.12-.34,1.24a6.1,6.1,0,0,1-1.74-.07c-.9-.06-1.41,1-1.65-.6s.36-3.33-1-1.68-1.56,1.47-1.44,1.89a2.8,2.8,0,0,0,.66.93s1.89,1.08,2.22,0-.12-1.68.39-2.19,1-1.14,1.32-.66A2.56,2.56,0,0,1,105.17,22.11Z"/><path d="M109.05,23.34c-.63.51-1.23,1.05-1.23,1.05l-1-1.71s.48-.81,1-.33,1.65-.36,1.71.27a4.79,4.79,0,0,1-.23,1.53s-.58.94-1.24,1-.78.26-.84-.37S109.05,23.34,109.05,23.34Z"/><path d="M112.22,24.05c-1.32,0-1.5-.1-1.56.27s.24.58.45.79,1.11,0,1.11,0a1.7,1.7,0,0,0,.33-.79c0-.34.72-.85.72-.27s1.32.89,1,.27-.15-1.12-1.11-1.27-1.44-.66-1.74,0,.57.12.27.48S112.22,24.05,112.22,24.05Z"/><path d="M106.3,20c-1,.09-.69-.48-1.23.48s.54,1,.69,1,.24.27.54.21.69-.39,1.15-1.14,1-1.11.38-1.56-.35-.57-1.08-.57-.2-.06-.23-.6-.85-.45-1.06.12a.71.71,0,0,0,.15.84s-.12,1,.15,1S106.3,20,106.3,20Z"/><path d="M115.67,27.17c-.54,3.28-2.46-.94-1.41-.82,0-6.26.71-.73,1.45.21,1.46,4.35.11-.39.52-2.24C116.92,25.15,117.93,25.85,115.67,27.17Z"/><path d="M108.66,20.33s-.69-.88-1.27-.4-.33,1.65.9,2,3.6.75,1.67.9-2.09-.88-2.23-.34,2.3,1.95,2.77,1.25,1.7-1.68.27-2.79-1-1.41-1.77-1.11-1.06-.72-1.06-.72Z"/><path d="M109.53,25.11c-.06,0-.15-1-.66-.74a3.2,3.2,0,0,0-1,.91s1,2.17,1.41,1.66,2.33-1.11.92-.17-2.49.75-2.66.35.41-1.76-.38-1.24,1.33,2.68,1.33,2.68,1.38,0,1.92-.67,2-.87.89-1.61S109.53,25.11,109.53,25.11Z"/><path d="M113.23,21.49c.72.41.14,1.2.14,1.2s-1,.68-1.28-.09a6.16,6.16,0,0,1-.26-1.73c-.11-.89-1.23-1.2.29-1.73s3.34-.27,1.45-1.32-1.73-1.26-2.12-1.06a2.72,2.72,0,0,0-.79.82s-.71,2.06.41,2.18,1.63-.43,2.23,0,1.3.76.89,1.17A2.47,2.47,0,0,1,113.23,21.49Z"/><path d="M112.75,25.53c-.62-.53-1.26-1-1.26-1L113,23.16s.88.32.51.91.66,1.56,0,1.74a5,5,0,0,1-1.54.06s-1-.4-1.18-1-.4-.72.2-.9S112.75,25.53,112.75,25.53Z"/><path d="M112.64,28.78c-.23-1.3-.18-1.5-.56-1.49s-.52.35-.69.59.21,1.1.21,1.1a1.69,1.69,0,0,0,.84.17c.34-.06,1,.55.4.66s-.63,1.46-.08,1.05,1.08-.36,1-1.33.38-1.54-.32-1.71,0,.58-.43.36S112.64,28.78,112.64,28.78Z"/><path d="M115.57,22.2c-.28-1,.34-.77-.71-1.12s-.87.71-.84.86-.22.29-.1.57.51.61,1.33.91,1.28.79,1.6.09.5-.46.36-1.17,0-.21.55-.34.28-.92-.32-1a.71.71,0,0,0-.79.31s-1,.07-.92.33A.79.79,0,0,1,115.57,22.2Z"/><path d="M99.73,19.73c2-2.68,1.76,1.95.88,1.37-2.8,5.6-1,.33-1.19-.85.66-4.53-.28.3-1.48,1.76C97.69,21,97.11,19.88,99.73,19.73Z"/><path d="M102.88,29s.21,1.1,1,.94,1-1.33.11-2.22-2.87-2.3-1.08-1.57,1.47,1.74,1.84,1.32-1.17-2.78-1.91-2.37-2.27.73-1.5,2.37.26,1.71,1.08,1.79.61,1.12.61,1.12Z"/><path d="M104.27,24.35s-.32.95.24,1a3.22,3.22,0,0,0,1.27-.39s.13-2.37-.51-2.11-2.58-.06-.89-.26,2.55.46,2.52.88-1.16,1.39-.22,1.29,0-3,0-3a2.7,2.7,0,0,0-2-.27c-.8.39-2.15-.12-1.51,1S104.27,24.35,104.27,24.35Z"/><path d="M99.32,25.89c-.45-.69.42-1.12.42-1.12s1.22-.15,1.1.66a6,6,0,0,1-.55,1.65c-.31.85.55,1.63-1,1.42s-3.09-1.27-1.89.51,1,1.91,1.41,1.91a2.68,2.68,0,0,0,1.08-.37s1.56-1.52.62-2.14-1.65-.35-2-1-.82-1.27-.26-1.45A2.48,2.48,0,0,1,99.32,25.89Z"/><path d="M101.59,22.52c.31.75.66,1.47.66,1.47l-1.93.54s-.65-.69,0-1.05.11-1.68.73-1.57a4.76,4.76,0,0,1,1.41.65s.73.82.58,1.46,0,.82-.59.71S101.59,22.52,101.59,22.52Z"/><path d="M103.15,19.67c-.38,1.26-.51,1.41-.17,1.57s.62-.07.88-.21.31-1.07.31-1.07a1.64,1.64,0,0,0-.66-.53c-.34-.1-.62-.93-.06-.77s1.22-1,.54-.91-1.13-.17-1.54.72-1,1.2-.48,1.67.27-.52.53-.13S103.15,19.67,103.15,19.67Z"/><path d="M97.57,24.21c-.19,1-.66.53.11,1.31s1.11-.24,1.15-.38.32-.16.35-.46-.18-.78-.78-1.42S97.62,22,97,22.46s-.65.18-.85.87-.11.18-.64.06-.67.69-.18,1.05a.71.71,0,0,0,.85.09s.92.39,1,.12S97.57,24.21,97.57,24.21Z"/><path d="M135.86,20.4c3.13,1.15-1.38,2.24-1.07,1.23-6.16-1.13-.58-.83.48-1.38,4.54-.62-.36-.18-2.1-.93C134.11,18.79,135,17.94,135.86,20.4Z"/><path d="M127.83,26s-1,.51-.63,1.18,1.56.63,2.16-.51,1.41-3.4,1.2-1.48-1.26,1.9-.75,2.14,2.34-1.9,1.74-2.5-1.33-2-2.69-.78-1.57.72-1.42,1.53-.9.9-.9.9Z"/><path d="M132.69,26.05c0,.06-1,0-.85.51a3.11,3.11,0,0,0,.72,1.1s2.31-.53,1.89-1.07-.66-2.5,0-.93.27,2.58-.15,2.67-1.65-.73-1.29.14,2.88-.81,2.88-.81a2.65,2.65,0,0,0-.3-2c-.6-.67-.48-2.11-1.41-1.18S132.69,26.05,132.69,26.05Z"/><path d="M129.83,21.73c.54-.63,1.2.09,1.2.09s.48,1.13-.33,1.24A5.74,5.74,0,0,1,129,23c-.9-.06-1.41,1-1.66-.61s.37-3.33-1-1.68-1.56,1.48-1.44,1.9a2.8,2.8,0,0,0,.66.93s1.9,1.08,2.23,0-.12-1.69.39-2.2,1-1.14,1.32-.66A2.56,2.56,0,0,1,129.83,21.73Z"/><path d="M133.7,23c-.63.51-1.23,1.05-1.23,1.05l-1.05-1.71s.48-.81,1-.33,1.65-.36,1.71.27a4.79,4.79,0,0,1-.23,1.53s-.58.93-1.24,1-.78.26-.84-.36S133.7,23,133.7,23Z"/><path d="M136.87,23.68c-1.32,0-1.5-.1-1.56.27s.24.57.45.79,1.11,0,1.11,0a1.7,1.7,0,0,0,.33-.79c0-.35.72-.85.72-.27s1.33.89,1,.27-.15-1.13-1.11-1.28-1.44-.66-1.74,0,.57.12.27.48S136.87,23.68,136.87,23.68Z"/><path d="M131,19.58c-1,.09-.69-.48-1.23.48s.54,1,.69,1,.24.27.54.21.69-.39,1.14-1.14,1-1.11.38-1.56-.35-.58-1.07-.58-.21-.06-.24-.6-.84-.45-1,.12a.73.73,0,0,0,.15.85s-.12,1,.15,1S131,19.58,131,19.58Z"/><path d="M121,20.94c3.12,1.14-1.39,2.23-1.08,1.22-6.16-1.13-.58-.82.48-1.38,4.54-.62-.36-.17-2.1-.93C119.28,19.33,120.15,18.47,121,20.94Z"/><path d="M113,26.54s-1,.52-.63,1.18,1.56.63,2.16-.51,1.42-3.4,1.21-1.47-1.27,1.89-.76,2.13,2.35-1.89,1.75-2.5-1.34-2-2.7-.78-1.57.72-1.42,1.54-.9.9-.9.9Z"/><path d="M117.85,26.58c0,.06-1,0-.85.51a3.19,3.19,0,0,0,.72,1.11s2.31-.54,1.89-1.08-.66-2.49,0-.93.27,2.58-.15,2.67-1.65-.73-1.29.15,2.89-.81,2.89-.81.3-1.35-.31-2-.48-2.1-1.41-1.17S117.85,26.58,117.85,26.58Z"/><path d="M115,22.27c.54-.63,1.2.09,1.2.09s.48,1.12-.33,1.23a5.74,5.74,0,0,1-1.74-.06c-.9-.06-1.41,1-1.65-.61s.36-3.33-1-1.67-1.56,1.47-1.44,1.89a2.8,2.8,0,0,0,.66.93s1.89,1.08,2.22,0-.12-1.68.39-2.19,1-1.15,1.32-.66A2.56,2.56,0,0,1,115,22.27Z"/><path d="M118.86,23.5c-.63.51-1.23,1.05-1.23,1.05l-1-1.71s.48-.81,1-.33,1.65-.36,1.71.27a4.9,4.9,0,0,1-.22,1.53s-.59.93-1.25,1-.78.26-.84-.36S118.86,23.5,118.86,23.5Z"/><path d="M122,24.21c-1.32,0-1.5-.1-1.56.27s.24.58.45.79,1.11,0,1.11,0a1.7,1.7,0,0,0,.33-.79c0-.35.72-.85.72-.27s1.32.89,1,.27S124,23.35,123,23.2s-1.44-.66-1.74,0,.57.12.27.48S122,24.21,122,24.21Z"/><path d="M116.12,20.11c-1,.09-.69-.48-1.23.48s.54,1,.69,1,.24.27.54.21.69-.39,1.14-1.14,1-1.11.39-1.56-.36-.57-1.08-.57-.21-.06-.24-.6-.84-.45-1,.12a.71.71,0,0,0,.15.84s-.12,1,.15,1S116.12,20.11,116.12,20.11Z"/><path d="M124.71,29.08c3.12,1.15-1.38,2.24-1.08,1.23-6.15-1.13-.57-.83.49-1.38,4.54-.62-.37-.18-2.11-.93C123,27.47,123.83,26.62,124.71,29.08Z"/><path d="M116.68,34.69s-1,.51-.64,1.17,1.57.64,2.17-.51,1.41-3.39,1.2-1.47-1.26,1.89-.75,2.14,2.34-1.9,1.74-2.5-1.34-2-2.7-.78-1.57.72-1.42,1.53-.9.9-.9.9Z"/><path d="M121.53,34.73c0,.06-1,0-.85.51a3.11,3.11,0,0,0,.72,1.1s2.32-.53,1.9-1.07-.66-2.5,0-.94.27,2.59-.15,2.68-1.66-.73-1.3.14,2.89-.81,2.89-.81a2.68,2.68,0,0,0-.3-2c-.6-.66-.48-2.1-1.41-1.17S121.53,34.73,121.53,34.73Z"/><path d="M118.67,30.41c.54-.63,1.2.09,1.2.09s.48,1.13-.33,1.24a5.74,5.74,0,0,1-1.74-.06c-.9-.06-1.41,1-1.65-.61s.36-3.33-1-1.68-1.56,1.47-1.44,1.89a2.76,2.76,0,0,0,.66.94s1.89,1.08,2.22,0-.12-1.69.39-2.2,1-1.14,1.32-.66A2.56,2.56,0,0,1,118.67,30.41Z"/><path d="M122.55,31.65c-.64.51-1.24,1.05-1.24,1.05l-1-1.71s.48-.81,1-.33,1.66-.36,1.72.27a4.79,4.79,0,0,1-.23,1.53s-.58.93-1.25,1-.78.26-.84-.36S122.55,31.65,122.55,31.65Z"/><path d="M125.72,32.36c-1.32,0-1.5-.1-1.56.27s.24.57.45.79,1.11,0,1.11,0a1.7,1.7,0,0,0,.33-.79c0-.35.72-.85.72-.27s1.32.89,1,.27-.15-1.13-1.11-1.28-1.44-.66-1.74,0,.57.12.27.48S125.72,32.36,125.72,32.36Z"/><path d="M119.8,28.26c-1,.09-.69-.48-1.23.48s.54,1,.69,1,.24.27.54.21.69-.39,1.14-1.14,1-1.11.39-1.57-.36-.57-1.08-.57-.2-.06-.24-.6-.84-.45-1.05.12a.71.71,0,0,0,.15.84s-.12,1,.15,1S119.8,28.26,119.8,28.26Z"/><path d="M131.62,26c2.29,2.41-2.24,1.4-1.51.63-5-3.74-.15-1,1-1,4.35,1.46-.25-.32-1.47-1.76C130.76,23.81,131.92,23.43,131.62,26Z"/><path d="M121.93,27.5s-1.12,0-1.09.77,1.12,1.26,2.17.5,2.77-2.41,1.73-.78-2,1.13-1.62,1.57,2.94-.65,2.66-1.46-.31-2.37-2.07-1.89-1.72-.05-1.95.74-1.2.41-1.2.41Z"/><path d="M126.26,29.69s-.87-.48-1,.07a3.28,3.28,0,0,0,.16,1.32s2.31.54,2.17-.13.51-2.53.41-.84-.9,2.44-1.32,2.33-1.15-1.38-1.22-.44,3,.55,3,.55.86-1.07.62-1.93.5-2.1-.75-1.68S126.26,29.69,126.26,29.69Z"/><path d="M125.61,24.55c.77-.33,1,.61,1,.61s-.07,1.22-.84,1a5.82,5.82,0,0,1-1.53-.84c-.79-.45-1.71.26-1.22-1.27s1.8-2.82-.17-2-2,.63-2.13,1.06a2.79,2.79,0,0,0,.18,1.13s1.22,1.81,2,1,.64-1.56,1.32-1.79,1.4-.58,1.48,0A2.6,2.6,0,0,1,125.61,24.55Z"/><path d="M128.54,27.37c-.79.18-1.57.4-1.57.4l-.18-2s.79-.51,1,.14,1.64.41,1.42,1a5.1,5.1,0,0,1-.88,1.28s-.94.57-1.55.3-.81-.11-.59-.69S128.54,27.37,128.54,27.37Z"/><path d="M131.07,29.41c-1.18-.6-1.3-.75-1.52-.44s0,.62,0,.9,1,.49,1,.49a1.66,1.66,0,0,0,.65-.56c.15-.31,1-.44.76.08s.79,1.38.8.7.36-1.08-.43-1.64-1-1.23-1.56-.78.46.37,0,.56S131.07,29.41,131.07,29.41Z"/><path d="M127.58,23.12c-.92-.36-.4-.74-1.31-.12s0,1.13.18,1.19.09.35.39.43a2.18,2.18,0,0,0,1.53-.51c.73-.48,1.4-.55,1-1.23s-.07-.67-.72-1-.16-.15.06-.65-.56-.77-1-.35a.71.71,0,0,0-.24.82s-.55.83-.29.92S127.58,23.12,127.58,23.12Z"/><path d="M119,24.64c-3-1.35,1.53-2.15,1.15-1.16,6.07,1.53.52.87-.57,1.35-4.57.32.35.2,2,1.07C120.68,26.36,119.75,27.16,119,24.64Z"/><path d="M127.42,19.57s1-.45.71-1.13-1.52-.73-2.19.37-1.63,3.29-1.3,1.39,1.39-1.81.89-2.08-2.46,1.73-1.9,2.37,1.2,2.07,2.64,1,1.61-.62,1.52-1.44,1-.84,1-.84Z"/><path d="M122.58,19.21c0-.05,1,.1.88-.45a3.06,3.06,0,0,0-.65-1.15s-2.34.38-2,.95.5,2.53-.06.93-.1-2.59.33-2.66,1.6.84,1.3-.06-2.93.62-2.93.62a2.67,2.67,0,0,0,.17,2c.55.69.34,2.12,1.33,1.26S122.58,19.21,122.58,19.21Z"/><path d="M125.15,23.71c-.58.59-1.19-.17-1.19-.17s-.41-1.15.41-1.21a5.93,5.93,0,0,1,1.73.18c.9.12,1.47-.89,1.61.71s-.58,3.3.91,1.74,1.65-1.37,1.56-1.79a2.79,2.79,0,0,0-.6-1s-1.81-1.2-2.22-.14,0,1.68-.53,2.16-1.06,1.07-1.36.57A2.5,2.5,0,0,1,125.15,23.71Z"/><path d="M121.37,22.22c.66-.47,1.29-1,1.29-1L123.6,23s-.53.78-1,.26-1.67.26-1.69-.38a4.85,4.85,0,0,1,.32-1.51s.65-.89,1.31-.88.8-.21.82.42S121.37,22.22,121.37,22.22Z"/><path d="M118.25,21.3c1.31.11,1.49.2,1.57-.16s-.2-.59-.4-.82-1.1-.07-1.1-.07a1.71,1.71,0,0,0-.39.76c0,.35-.77.81-.73.22s-1.26-1-1-.33.07,1.13,1,1.35,1.4.75,1.74.11-.56-.16-.24-.5S118.25,21.3,118.25,21.3Z"/><path d="M123.88,25.79c1,0,.66.52,1.26-.4s-.47-1-.62-1-.23-.28-.53-.24-.71.34-1.21,1.06-1.09,1-.49,1.53.32.6,1,.64.2.08.19.62.81.5,1.06-.05a.71.71,0,0,0-.09-.85s.18-1-.09-1S123.88,25.79,123.88,25.79Z"/><path d="M117.54,30.93c2.29,2.41-2.24,1.39-1.51.62-5-3.74-.15-1,1-1,4.35,1.45-.25-.32-1.47-1.77C116.68,28.71,117.84,28.33,117.54,30.93Z"/><path d="M107.85,32.4s-1.12,0-1.09.77,1.12,1.26,2.17.5,2.77-2.42,1.73-.79-2,1.14-1.62,1.58S112,33.8,111.7,33s-.32-2.37-2.07-1.9-1.72,0-1.95.75-1.2.41-1.2.41Z"/><path d="M112.18,34.58c0,.05-.87-.47-1,.08a3.21,3.21,0,0,0,.16,1.31s2.31.55,2.17-.13.51-2.52.41-.83-.9,2.43-1.32,2.33-1.15-1.38-1.22-.44,2.94.55,2.94.55.87-1.08.63-1.93.5-2.1-.75-1.68S112.18,34.58,112.18,34.58Z"/><path d="M111.53,29.45c.77-.33,1,.61,1,.61s-.07,1.22-.84,1a5.77,5.77,0,0,1-1.53-.83c-.79-.45-1.71.26-1.22-1.27s1.8-2.83-.17-2-2,.63-2.13,1.06a2.79,2.79,0,0,0,.18,1.13s1.22,1.8,2,1,.64-1.56,1.32-1.79,1.4-.59,1.48,0A2.6,2.6,0,0,1,111.53,29.45Z"/><path d="M114.46,32.27c-.79.18-1.57.39-1.57.39l-.18-2s.79-.52,1,.14,1.64.41,1.42,1a5,5,0,0,1-.88,1.27s-.94.58-1.55.31-.81-.11-.59-.7S114.46,32.27,114.46,32.27Z"/><path d="M117,34.31c-1.18-.6-1.3-.75-1.52-.45s0,.62,0,.91,1,.49,1,.49a1.76,1.76,0,0,0,.65-.56c.15-.31,1-.45.76.08s.79,1.38.8.69.36-1.08-.43-1.64-1-1.23-1.56-.77.45.36,0,.55S117,34.31,117,34.31Z"/><path d="M113.5,28c-.92-.36-.4-.73-1.31-.11s0,1.13.18,1.19.09.35.39.43.79,0,1.53-.52,1.4-.55,1-1.23-.06-.67-.71-1-.16-.15.06-.65-.56-.78-1-.36a.71.71,0,0,0-.24.82s-.55.84-.29.93S113.5,28,113.5,28Z"/></g><path d="M48.43,24.24c2.56.93-1.13,1.83-.88,1-5-.92-.47-.68.39-1.13,3.72-.51-.3-.14-1.72-.76C47,22.92,47.71,22.22,48.43,24.24Z"/><path d="M41.85,28.83s-.81.42-.52,1,1.28.52,1.77-.42,1.16-2.77,1-1.2-1,1.55-.62,1.75,1.92-1.55,1.43-2.05-1.1-1.62-2.21-.64-1.28.6-1.16,1.26-.74.74-.74.74Z"/><path d="M45.83,28.86c0,.05-.82,0-.7.42a2.67,2.67,0,0,0,.59.9s1.9-.44,1.55-.88-.54-2,0-.76.22,2.11-.12,2.19-1.35-.6-1.06.12,2.36-.67,2.36-.67.25-1.1-.24-1.64-.4-1.72-1.16-1S45.83,28.86,45.83,28.86Z"/><path d="M43.48,25.33c.45-.52,1,.07,1,.07s.39.92-.27,1a4.65,4.65,0,0,1-1.43-.05c-.74-.05-1.16.81-1.35-.49s.29-2.73-.84-1.38S39.3,25.7,39.4,26a2.35,2.35,0,0,0,.54.76s1.55.89,1.82,0-.1-1.37.32-1.79.81-.94,1.08-.54A1.93,1.93,0,0,1,43.48,25.33Z"/><path d="M46.66,26.34c-.52.42-1,.86-1,.86l-.86-1.4s.39-.67.81-.27,1.35-.3,1.4.22A4,4,0,0,1,46.82,27s-.48.77-1,.79-.64.21-.69-.3S46.66,26.34,46.66,26.34Z"/><path d="M49.26,26.92c-1.09,0-1.23-.08-1.28.22s.19.47.37.65.91,0,.91,0a1.39,1.39,0,0,0,.27-.65c0-.28.59-.7.59-.22s1.08.73.83.22-.12-.92-.91-1.05-1.18-.54-1.42,0,.46.1.22.4S49.26,26.92,49.26,26.92Z"/><path d="M44.41,23.56c-.81.07-.57-.39-1,.39s.44.81.57.81.19.22.44.18.57-.32.93-.94.83-.91.32-1.28-.29-.47-.88-.47-.17,0-.2-.49-.69-.37-.86.1a.59.59,0,0,0,.12.69s-.09.81.13.79S44.41,23.56,44.41,23.56Z"/><path d="M52.08,29.48c-.44,2.68-2-.78-1.15-.68,0-5.13.58-.59,1.18.17,1.2,3.56.09-.32.43-1.83C53.11,27.82,53.93,28.39,52.08,29.48Z"/><path d="M46.34,23.87s-.57-.72-1-.33S45,24.89,46,25.2s3,.62,1.37.74-1.72-.72-1.83-.27,1.88,1.59,2.27,1,1.39-1.38.22-2.29-.82-1.15-1.45-.91-.87-.59-.87-.59Z"/><path d="M47.05,27.78s-.12-.81-.53-.6a2.52,2.52,0,0,0-.79.75s.79,1.78,1.16,1.36,1.91-.92.75-.15-2,.62-2.17.29.33-1.44-.32-1,1.1,2.2,1.1,2.2,1.13,0,1.57-.55,1.61-.71.72-1.31S47.05,27.78,47.05,27.78Z"/><path d="M50.09,24.82c.59.34.11,1,.11,1s-.83.56-1.05-.08a5,5,0,0,1-.21-1.41c-.09-.73-1-1,.23-1.42s2.74-.22,1.2-1.08-1.43-1-1.75-.87a2.21,2.21,0,0,0-.64.68s-.58,1.69.34,1.79,1.33-.36,1.82,0,1.07.63.73,1A2,2,0,0,1,50.09,24.82Z"/><path d="M49.69,28.13c-.51-.43-1-.83-1-.83l1.21-1.11s.73.26.42.75.54,1.27,0,1.42a4,4,0,0,1-1.26.05s-.84-.33-1-.86-.33-.59.17-.73S49.69,28.13,49.69,28.13Z"/><path d="M49.6,30.79c-.19-1.07-.15-1.22-.45-1.22s-.43.29-.57.49.17.89.17.89a1.44,1.44,0,0,0,.69.15c.28-.06.79.45.32.54s-.51,1.2-.06.86.89-.3.86-1.09.31-1.26-.27-1.4,0,.47-.34.29S49.6,30.79,49.6,30.79Z"/><path d="M52,25.4c-.23-.78.28-.63-.58-.92s-.71.59-.69.71-.18.23-.08.47.42.49,1.09.74,1,.64,1.31.07.41-.37.3-.95,0-.18.44-.29.24-.74-.25-.82a.58.58,0,0,0-.66.25s-.81.05-.75.26A.63.63,0,0,1,52,25.4Z"/><path d="M39,23.37c1.61-2.19,1.45,1.6.72,1.13-2.29,4.59-.78.27-1-.69.54-3.72-.23.24-1.22,1.44C37.36,24.38,36.88,23.5,39,23.37Z"/><path d="M41.6,31s.18.89.78.76.85-1.09.09-1.82-2.35-1.88-.88-1.28,1.2,1.42,1.51,1.08-1-2.28-1.57-1.94-1.86.6-1.23,1.94.21,1.4.88,1.47.51.91.51.91Z"/><path d="M42.74,27.16s-.26.78.2.79a2.68,2.68,0,0,0,1-.32s.11-1.94-.42-1.73-2.11,0-.73-.22,2.09.38,2.07.73-.95,1.14-.18,1.05,0-2.45,0-2.45-1-.55-1.65-.22-1.76-.1-1.24.84S42.74,27.16,42.74,27.16Z"/><path d="M38.69,28.43c-.37-.57.35-.93.35-.93s1-.12.89.55a4.47,4.47,0,0,1-.45,1.35c-.25.7.46,1.34-.85,1.16s-2.53-1-1.55.42.8,1.57,1.16,1.57a2.27,2.27,0,0,0,.88-.31s1.28-1.24.51-1.75-1.35-.29-1.64-.8-.67-1-.21-1.19A2.1,2.1,0,0,1,38.69,28.43Z"/><path d="M40.55,25.66c.25.61.54,1.21.54,1.21l-1.58.44s-.53-.57,0-.86.1-1.38.61-1.28a3.8,3.8,0,0,1,1.15.52s.6.68.47,1.2,0,.68-.48.58S40.55,25.66,40.55,25.66Z"/><path d="M41.83,23.33c-.32,1-.42,1.16-.14,1.29s.5-.06.72-.18.25-.87.25-.87a1.4,1.4,0,0,0-.54-.44c-.28-.08-.51-.76,0-.63s1-.84.44-.74-.92-.14-1.26.58-.84,1-.39,1.37.22-.42.44-.1S41.83,23.33,41.83,23.33Z"/><path d="M37.25,27.05c-.15.8-.53.43.1,1.07s.9-.19.94-.31.26-.13.28-.38-.15-.63-.63-1.16-.65-1.05-1.14-.66-.53.15-.7.72-.09.15-.53.05-.54.56-.14.86a.58.58,0,0,0,.69.07s.76.32.79.1S37.25,27.05,37.25,27.05Z"/><path d="M68.63,23.93c2.56.94-1.14,1.83-.88,1-5-.93-.48-.68.39-1.13,3.72-.52-.3-.15-1.72-.77C67.19,22.61,67.91,21.91,68.63,23.93Z"/><path d="M62.05,28.52s-.82.42-.52,1,1.28.51,1.77-.42,1.16-2.78,1-1.21-1,1.55-.61,1.75,1.92-1.55,1.43-2-1.1-1.63-2.21-.64-1.29.59-1.16,1.25-.74.74-.74.74Z"/><path d="M66,28.56s-.81,0-.69.41a2.6,2.6,0,0,0,.59.91s1.89-.44,1.55-.89-.54-2,0-.76.22,2.12-.12,2.19-1.36-.59-1.06.12,2.36-.66,2.36-.66.25-1.11-.24-1.65-.4-1.72-1.16-1S66,28.56,66,28.56Z"/><path d="M63.68,25c.45-.52,1,.07,1,.07s.39.92-.27,1A5,5,0,0,1,63,26.05c-.74-.05-1.16.81-1.35-.49s.29-2.73-.84-1.38-1.28,1.21-1.18,1.55a2.32,2.32,0,0,0,.54.77s1.55.88,1.82,0-.1-1.38.32-1.8.81-.93,1.08-.54A2.09,2.09,0,0,1,63.68,25Z"/><path d="M66.86,26c-.52.42-1,.86-1,.86L65,25.49s.39-.66.81-.27,1.35-.3,1.4.22A4,4,0,0,1,67,26.7s-.48.76-1,.78-.64.22-.68-.3S66.86,26,66.86,26Z"/><path d="M69.46,26.61c-1.09,0-1.23-.08-1.28.22s.19.48.36.65.92,0,.92,0a1.39,1.39,0,0,0,.27-.65c0-.28.59-.69.59-.22s1.08.73.83.22-.12-.92-.91-1-1.18-.54-1.42,0,.46.1.22.39S69.46,26.61,69.46,26.61Z"/><path d="M64.61,23.25c-.81.08-.57-.39-1,.4s.44.81.57.81.19.22.44.17.56-.32.93-.94.83-.91.32-1.27S65.57,22,65,22s-.17-.05-.2-.49-.69-.37-.86.09a.59.59,0,0,0,.12.69s-.1.81.13.79A.66.66,0,0,1,64.61,23.25Z"/><path d="M56.47,24.36c2.56.94-1.13,1.84-.88,1-5-.92-.47-.68.4-1.13,3.72-.51-.3-.15-1.73-.76C55,23.05,55.75,22.34,56.47,24.36Z"/><path d="M49.89,29s-.81.42-.52,1,1.28.52,1.78-.42,1.15-2.78,1-1.2-1,1.55-.62,1.74,1.92-1.55,1.43-2-1.09-1.62-2.21-.64-1.28.59-1.16,1.26-.74.74-.74.74Z"/><path d="M53.87,29c0,.05-.82,0-.7.42a2.67,2.67,0,0,0,.59.9s1.9-.44,1.55-.88-.54-2,0-.76.23,2.11-.12,2.19-1.35-.6-1.06.12,2.37-.67,2.37-.67a2.19,2.19,0,0,0-.25-1.64c-.49-.54-.39-1.72-1.16-1S53.87,29,53.87,29Z"/><path d="M51.53,25.46c.44-.52,1,.07,1,.07s.39.92-.27,1a4.66,4.66,0,0,1-1.43-.05c-.73,0-1.15.8-1.35-.5s.3-2.72-.84-1.37-1.28,1.2-1.18,1.55a2.35,2.35,0,0,0,.54.76s1.55.89,1.82,0-.09-1.38.32-1.79.82-.94,1.09-.55A2.16,2.16,0,0,1,51.53,25.46Z"/><path d="M54.7,26.47c-.52.41-1,.85-1,.85l-.86-1.39s.39-.67.81-.28,1.36-.29,1.4.23a4,4,0,0,1-.18,1.25s-.48.76-1,.79-.64.21-.69-.3S54.7,26.47,54.7,26.47Z"/><path d="M57.3,27.05c-1.08,0-1.23-.09-1.28.22s.2.47.37.65.91,0,.91,0a1.39,1.39,0,0,0,.27-.65c0-.29.59-.7.59-.22s1.08.73.84.22-.13-.92-.91-1.05-1.18-.54-1.43,0,.47.1.22.4S57.3,27.05,57.3,27.05Z"/><path d="M52.45,23.69c-.81.07-.56-.4-1,.39s.45.81.57.81.2.22.44.17.57-.32.94-.93.83-.91.31-1.28-.29-.47-.88-.47-.17-.05-.19-.49-.69-.37-.87.1a.58.58,0,0,0,.13.69s-.1.81.12.79S52.45,23.69,52.45,23.69Z"/><path d="M59.49,31c2.56.94-1.13,1.84-.88,1-5-.93-.48-.68.39-1.13,3.72-.51-.3-.15-1.72-.77C58.05,29.72,58.77,29,59.49,31Z"/><path d="M52.91,35.63s-.81.43-.52,1,1.28.51,1.77-.42,1.16-2.78,1-1.21-1,1.55-.62,1.75,1.92-1.55,1.43-2-1.1-1.63-2.21-.64-1.29.59-1.16,1.25-.74.74-.74.74Z"/><path d="M56.88,35.67s-.81,0-.69.41a2.6,2.6,0,0,0,.59.91s1.9-.44,1.55-.88-.54-2,0-.77.22,2.12-.12,2.19-1.35-.59-1.06.12S59.51,37,59.51,37s.25-1.11-.24-1.65-.4-1.72-1.16-1S56.88,35.67,56.88,35.67Z"/><path d="M54.54,32.13c.45-.52,1,.07,1,.07s.39.92-.27,1a5,5,0,0,1-1.43-.06c-.74,0-1.16.81-1.35-.49s.29-2.73-.84-1.38-1.28,1.21-1.18,1.55a2.32,2.32,0,0,0,.54.77s1.55.88,1.82,0-.1-1.38.32-1.8.81-.93,1.08-.54A2.09,2.09,0,0,1,54.54,32.13Z"/><path d="M57.72,33.14c-.52.42-1,.86-1,.86l-.86-1.4s.39-.66.81-.27,1.35-.29,1.4.22a4,4,0,0,1-.18,1.26s-.48.76-1,.78-.64.22-.69-.29S57.72,33.14,57.72,33.14Z"/><path d="M60.32,33.72c-1.09,0-1.23-.08-1.28.23s.19.47.37.64.91,0,.91,0a1.39,1.39,0,0,0,.27-.64c0-.29.59-.7.59-.23s1.08.73.83.23-.12-.93-.91-1.05-1.18-.54-1.42,0,.46.1.22.39S60.32,33.72,60.32,33.72Z"/><path d="M55.47,30.36c-.81.08-.57-.39-1,.4s.44.81.57.81.19.22.44.17.56-.32.93-.93.83-.91.32-1.28-.29-.47-.88-.47-.17,0-.2-.49-.69-.37-.86.1a.58.58,0,0,0,.12.68s-.1.82.13.79A.66.66,0,0,1,55.47,30.36Z"/><path d="M65.15,28.54c1.88,2-1.83,1.14-1.24.51-4.11-3.06-.12-.82.86-.84,3.56,1.19-.21-.26-1.21-1.44C64.45,26.72,65.4,26.41,65.15,28.54Z"/><path d="M57.21,29.74s-.91,0-.89.64.92,1,1.78.41,2.26-2,1.41-.65-1.61.93-1.32,1.29,2.4-.53,2.18-1.19-.26-1.94-1.7-1.56-1.41,0-1.59.61-1,.34-1,.34Z"/><path d="M60.76,31.53s-.72-.38-.8.07a2.48,2.48,0,0,0,.13,1.07s1.89.45,1.78-.1.42-2.07.33-.69-.73,2-1.08,1.91-.95-1.13-1-.36,2.41.45,2.41.45.71-.88.51-1.58.41-1.72-.61-1.37S60.76,31.53,60.76,31.53Z"/><path d="M60.23,27.33c.63-.27.85.5.85.5s0,1-.69.79a4.87,4.87,0,0,1-1.26-.68c-.64-.37-1.39.21-1-1.05s1.47-2.31-.14-1.6-1.68.51-1.75.87a2.35,2.35,0,0,0,.15.92s1,1.48,1.63.81.53-1.28,1.09-1.47,1.14-.48,1.21,0A2.22,2.22,0,0,1,60.23,27.33Z"/><path d="M62.63,29.64c-.65.14-1.29.32-1.29.32l-.15-1.63s.65-.43.85.11,1.34.34,1.16.82a4,4,0,0,1-.72,1s-.77.48-1.27.26-.67-.09-.48-.57S62.63,29.64,62.63,29.64Z"/><path d="M64.7,31.31c-1-.49-1.06-.62-1.24-.37s0,.51,0,.75.82.4.82.4a1.38,1.38,0,0,0,.53-.46c.12-.25.83-.36.62.06s.65,1.14.65.57.3-.88-.35-1.34-.82-1-1.28-.63.38.29,0,.45S64.7,31.31,64.7,31.31Z"/><path d="M61.84,26.15c-.76-.29-.33-.6-1.07-.09s0,.92.14,1,.08.28.32.35A1.83,1.83,0,0,0,62.49,27c.6-.39,1.14-.45.85-1s-.06-.55-.59-.81-.13-.12,0-.53-.46-.64-.82-.3a.6.6,0,0,0-.2.68s-.44.68-.23.76S61.84,26.15,61.84,26.15Z"/><path d="M54.84,27.4c-2.49-1.1,1.25-1.76.95-.95,5,1.26.43.71-.47,1.1-3.75.27.29.17,1.67.88C56.19,28.81,55.43,29.46,54.84,27.4Z"/><path d="M61.71,23.25s.84-.37.58-.93-1.24-.6-1.79.3-1.34,2.7-1.06,1.14,1.13-1.48.72-1.7-2,1.42-1.55,1.94,1,1.69,2.16.78,1.32-.5,1.24-1.17.78-.69.78-.69Z"/><path d="M57.75,23s.81.09.72-.36a2.74,2.74,0,0,0-.53-.95s-1.92.32-1.61.78.41,2.07,0,.76-.08-2.12.27-2.18,1.31.69,1.06-.05-2.4.51-2.4.51-.32,1.09.14,1.66.28,1.74,1.09,1S57.75,23,57.75,23Z"/><path d="M59.85,26.64c-.48.48-1-.14-1-.14s-.33-.95.34-1a4.78,4.78,0,0,1,1.42.15c.73.1,1.21-.73,1.32.59s-.48,2.7.74,1.42,1.36-1.12,1.28-1.47a2.16,2.16,0,0,0-.49-.79s-1.49-1-1.81-.12,0,1.38-.44,1.77-.87.88-1.12.47A2.14,2.14,0,0,1,59.85,26.64Z"/><path d="M56.75,25.42c.54-.39,1.06-.79,1.06-.79l.77,1.45s-.44.64-.83.22-1.37.2-1.38-.32a4,4,0,0,1,.26-1.24S57.16,24,57.7,24s.66-.18.67.34S56.75,25.42,56.75,25.42Z"/><path d="M54.19,24.67c1.08.08,1.23.16,1.3-.14s-.17-.48-.33-.67-.91-.06-.91-.06a1.39,1.39,0,0,0-.31.63c0,.28-.64.66-.6.18s-1-.8-.82-.28.06.93.83,1.11,1.15.62,1.43.09-.46-.13-.2-.4S54.19,24.67,54.19,24.67Z"/><path d="M58.81,28.34c.81,0,.54.43,1-.33s-.39-.84-.51-.84-.18-.24-.43-.2-.59.28-1,.87-.89.85-.4,1.25.26.49.85.53.16.06.16.5.66.41.86,0a.58.58,0,0,0-.07-.7s.15-.8-.07-.79S58.81,28.34,58.81,28.34Z"/><path d="M53.61,32.55c1.88,2-1.83,1.14-1.23.52-4.12-3.07-.13-.82.85-.84,3.56,1.19-.2-.27-1.2-1.45C52.91,30.73,53.86,30.42,53.61,32.55Z"/><path d="M45.68,33.75s-.92,0-.89.64.91,1,1.77.41,2.27-2,1.42-.65-1.62.93-1.33,1.3,2.41-.54,2.18-1.2-.26-1.94-1.69-1.55-1.42,0-1.6.61-1,.33-1,.33Z"/><path d="M49.23,35.55s-.72-.39-.81.06a2.66,2.66,0,0,0,.13,1.07s1.89.45,1.78-.1.42-2.07.34-.68-.74,2-1.08,1.9-1-1.13-1-.36,2.41.45,2.41.45.71-.88.51-1.58.41-1.72-.62-1.37S49.23,35.55,49.23,35.55Z"/><path d="M48.7,31.34c.62-.27.84.5.84.5s0,1-.69.79A5,5,0,0,1,47.6,32c-.64-.37-1.4.21-1-1s1.48-2.32-.14-1.61-1.68.52-1.74.87a2.17,2.17,0,0,0,.15.92s1,1.48,1.63.81.52-1.28,1.08-1.47,1.14-.48,1.21,0A2.12,2.12,0,0,1,48.7,31.34Z"/><path d="M51.09,33.65c-.65.15-1.28.32-1.28.32l-.15-1.63s.64-.42.84.11,1.35.34,1.16.82a3.86,3.86,0,0,1-.72,1s-.77.47-1.26.25-.67-.09-.49-.57S51.09,33.65,51.09,33.65Z"/><path d="M53.16,35.32c-1-.49-1.06-.62-1.24-.36s0,.51,0,.74.82.4.82.4a1.38,1.38,0,0,0,.53-.46c.13-.25.84-.36.63.07s.64,1.13.65.56.3-.88-.35-1.34-.82-1-1.28-.63.37.3,0,.45S53.16,35.32,53.16,35.32Z"/><path d="M50.31,30.16c-.76-.29-.33-.6-1.08-.09s0,.92.15,1,.08.28.32.35A1.81,1.81,0,0,0,51,31c.6-.38,1.15-.44.85-1s0-.55-.58-.81-.13-.12,0-.53-.46-.64-.82-.29a.57.57,0,0,0-.19.67s-.45.68-.24.76S50.31,30.16,50.31,30.16Z"/><path class="cls-3" d="M46.09,36.34,39.78,37,37.43,21.46a2.53,2.53,0,0,1,5-.33Z"/><path d="M39.41,37.47,37,21.53a3,3,0,0,1,2.76-3.17,3,3,0,0,1,3.15,2.74l3.72,15.62ZM40,19.22h-.14a2.13,2.13,0,0,0-1.44.7,2,2,0,0,0-.51,1.5l2.28,15.09,5.4-.56-3.5-14.73a2.13,2.13,0,0,0-.72-1.49A2.05,2.05,0,0,0,40,19.22Z"/><ellipse class="cls-3" cx="43.03" cy="37.17" rx="3.23" ry="3.2" transform="translate(-2.38 2.94) rotate(-3.81)"/><path d="M43,40.81a3.66,3.66,0,0,1-3.65-3.4,3.62,3.62,0,0,1,.9-2.63,3.68,3.68,0,0,1,5.17-.35,3.64,3.64,0,0,1-2.17,6.37Zm0-6.41h-.19a2.77,2.77,0,1,0,.37,5.52A2.81,2.81,0,0,0,45.13,39a2.72,2.72,0,0,0,.68-2h0a2.74,2.74,0,0,0-.94-1.9A2.79,2.79,0,0,0,43,34.4Z"/><path class="cls-3" d="M37.9,19l2.24,13.86h0a2.6,2.6,0,0,1-2.24,3.88H9.83a2.58,2.58,0,0,1-2.58-2.59,2.54,2.54,0,0,1,.37-1.33h0L9.53,19"/><path d="M37.9,37.18H9.83a3,3,0,0,1-3-3,2.94,2.94,0,0,1,.39-1.47L9.1,19l.86.12-2,14a2.12,2.12,0,0,0-.31,1.1,2.15,2.15,0,0,0,2.15,2.15H37.9a2.15,2.15,0,0,0,2.15-2.15,2.12,2.12,0,0,0-.29-1.07l0-.15L37.47,19.08l.86-.14,2.23,13.79a3.09,3.09,0,0,1,.36,1.43A3,3,0,0,1,37.9,37.18Z"/><path d="M37.9,37.18H9.83a3,3,0,1,1,0-6H37.9V32H9.83a2.15,2.15,0,1,0,0,4.29H37.9a2.15,2.15,0,1,0,0-4.29v-.87a3,3,0,1,1,0,6Z"/><path d="M10,19.16H9.09a2.65,2.65,0,0,1,2.64-2.64h24v.88h-24A1.77,1.77,0,0,0,10,19.16Z"/><path d="M38.34,19.16h-.87A1.77,1.77,0,0,0,35.7,17.4v-.88A2.65,2.65,0,0,1,38.34,19.16Z"/><path d="M9.83,34.9a.74.74,0,1,1,.74-.74A.74.74,0,0,1,9.83,34.9Zm0-.87a.13.13,0,0,0-.13.13c0,.15.26.15.26,0A.13.13,0,0,0,9.83,34Z"/><path d="M37.9,34.9a.74.74,0,1,1,0-1.47.74.74,0,1,1,0,1.47Zm0-.87a.13.13,0,0,0-.13.13c0,.15.27.15.27,0A.13.13,0,0,0,37.9,34Z"/><path class="cls-3" d="M46.09,29.77l-6.31.66L37.43,14.9a2.53,2.53,0,0,1,5-.34Z"/><path d="M39.41,30.91,37,15a3,3,0,0,1,2.76-3.17,3,3,0,0,1,2.14.72,3,3,0,0,1,1,2l3.72,15.63ZM40,12.66h-.14a2.1,2.1,0,0,0-1.44.71,2,2,0,0,0-.51,1.5L40.15,30l5.4-.56-3.5-14.73a2.13,2.13,0,0,0-.72-1.49A2.08,2.08,0,0,0,40,12.66Z"/><ellipse class="cls-3" cx="43.03" cy="30.61" rx="3.23" ry="3.2" transform="matrix(1, -0.07, 0.07, 1, -1.94, 2.93)"/><path d="M43,34.24A3.65,3.65,0,1,1,45.78,33a3.68,3.68,0,0,1-2.51,1.24Zm0-6.4h-.19a2.76,2.76,0,0,0-1.65,4.84,2.81,2.81,0,0,0,3.94-.26,2.74,2.74,0,0,0,.68-2h0A2.78,2.78,0,0,0,43,27.84Z"/><path d="M11.25,22.7c2.68-.46,6.41-.27,5.07.4s3.06,0,7.55-.13,5.35,1.37,4.59,1.66a41.75,41.75,0,0,1,5.06-1.93c1-.18,7.36,1.52,3.54,1.68s-16.44.34-16.44.34,13.86-1.69,8.51-1-7.65-.08-13.48.65-11.09,2.06-5.83.72,9.56-1.69-.67-1.37S2.36,23,5.23,22.9Z"/><path d="M25.86,25.66c.43-.19,6.16-.19,6.88-.33s5.16-.43,1.19-.86-.67-1.1-5.16-.29-3.58,1.67-6.71,1.67,7.19-.57.4-1-6.4-.67-9.41.14S7.5,26,9.27,26.19a20.19,20.19,0,0,0,5.45.23A32.69,32.69,0,0,0,19.93,26l5.45-.52Z"/><path d="M12.4,21.31s.22-1.67,3.76-.62,4.3,2.2,7.93,1.1a48.93,48.93,0,0,1,10.56-1.63c1.2.05,5.07.59,3.2,1s-4.63,1-5.06,1-.24-1.17-3.06-.69a45,45,0,0,1-5.5.86c-5.35.67-3.63,1.15-8.07.67s-3.11,0-5.69-.67S8.7,20.93,6.69,21.36s-7.07.72-2.87-.24S8.75,21,10.52,21s1.88.74,1.88.74Z"/><path d="M25.14,27s8,.91,10,.62,4-.21,3.42-1.06-4.14-.45-4.14-.45-.73,1-4.15.6S22.66,26,22.66,26s-2.84,1.88-8.2,1.07a45.8,45.8,0,0,0-7.56-.85c-4.2-.26-5.14-.61-5.33.12S-2,27.77,1.8,28.06a47,47,0,0,0,7.62-.15s3.62-.35,7.36-.46,5.64.21,6.24.06Z"/></g></g></svg>