<svg xmlns="http://www.w3.org/2000/svg" viewBox="0 0 220.19 169.01"><defs><style>.cls-1{fill:#ccc;}.cls-2{fill:#fff;}</style></defs><title>자산 135</title><g id="레이어_2" data-name="레이어 2"><g id="레이어_1-2" data-name="레이어 1"><rect class="cls-1" x="80.86" y="148.01" width="63.11" height="21" rx="10.5"/><rect class="cls-1" x="157.08" y="148.01" width="63.11" height="21" rx="10.5"/><rect class="cls-1" y="148.01" width="63.11" height="21" rx="10.5"/><rect class="cls-1" x="80.86" y="47.95" width="63.11" height="21" rx="10.5"/><rect class="cls-1" x="157.08" y="47.95" width="63.11" height="21" rx="10.5"/><path class="cls-2" d="M99,55.76a2.44,2.44,0,0,0-1.28-.43c-.62,0-1,.31-1,.76s.45.75,1.32,1.13,1.49.85,1.49,1.65c0,1.06-.94,1.52-1.86,1.52a2.87,2.87,0,0,1-1.93-.72l.38-.53a2.43,2.43,0,0,0,1.51.64c.49,0,1.15-.19,1.15-.91,0-.47-.43-.79-1.2-1.11S96,57,96,56.12s.91-1.39,1.7-1.39a3.12,3.12,0,0,1,1.61.5Z"/><path class="cls-2" d="M103.34,60a2.18,2.18,0,0,1-1.33.43,2,2,0,0,1-2-2c0-1.25.67-2.16,1.86-2.16a1.76,1.76,0,0,1,1.74,1.9,2.18,2.18,0,0,1,0,.34h-2.85A1.3,1.3,0,0,0,102,59.81a1.74,1.74,0,0,0,1-.34Zm-.43-2.08a1.09,1.09,0,0,0-1.08-1.12c-.57,0-1,.59-1.08,1.12Z"/><path class="cls-2" d="M104.38,56.6a2.55,2.55,0,0,1,1.38-.42,1.39,1.39,0,0,1,1.4.85,1.77,1.77,0,0,1,.1.68v1.72a3.35,3.35,0,0,0,.1.87h-.73a3.3,3.3,0,0,1-.06-.37,1.83,1.83,0,0,1-1.19.48,1.35,1.35,0,0,1-1.44-1.33c0-1.06.85-1.45,2-1.45l.58,0v-.07a.76.76,0,0,0-.85-.82,1.84,1.84,0,0,0-1,.33Zm1.08,3.22a1,1,0,0,0,1.08-1V58.2l-.52,0c-.82,0-1.37.23-1.37.87A.77.77,0,0,0,105.46,59.82Z"/><path class="cls-2" d="M110.08,57.07a1.52,1.52,0,0,0-.85-.31c-.41,0-.62.21-.62.48s.27.51.87.8,1.09.63,1.09,1.21a1.23,1.23,0,0,1-1.38,1.17,1.94,1.94,0,0,1-1.46-.6l.39-.48a1.65,1.65,0,0,0,1,.5c.37,0,.7-.18.7-.57s-.36-.53-.74-.71c-.55-.25-1.2-.61-1.2-1.27a1.12,1.12,0,0,1,1.26-1.1,2.25,2.25,0,0,1,1.22.4Z"/><path class="cls-2" d="M112.83,56.2a2.11,2.11,0,1,1-1.92,2.11A1.95,1.95,0,0,1,112.83,56.2Zm0,3.65c.65,0,1.19-.57,1.19-1.54s-.54-1.55-1.19-1.55-1.19.56-1.19,1.55S112.17,59.85,112.83,59.85Z"/><path class="cls-2" d="M116.1,56.85a1.46,1.46,0,0,1,1.16-.64,1.43,1.43,0,0,1,1.55,1.5V60.3h-.72V57.78a.91.91,0,0,0-.89-1A1.12,1.12,0,0,0,116.1,58V60.3h-.72v-4h.72Z"/><path class="cls-2" d="M119.59,54.71h.82v.86h-.82Zm0,1.6h.73v4h-.73Z"/><path class="cls-2" d="M121.93,56.85a1.49,1.49,0,0,1,2.71.86V60.3h-.72V57.78a.91.91,0,0,0-.89-1,1.12,1.12,0,0,0-1.1,1.21V60.3h-.73v-4h.73Z"/><path class="cls-2" d="M127.06,56.2a1.44,1.44,0,0,1,1.22.71v-.6H129v3.6a1.78,1.78,0,0,1-1.87,2,3.09,3.09,0,0,1-1.43-.36L126,61a2.5,2.5,0,0,0,1.16.35c.63,0,1.17-.42,1.17-1.35v-.3a1.41,1.41,0,0,1-1.22.64c-1.07,0-1.78-.71-1.78-2A1.84,1.84,0,0,1,127.06,56.2Zm.08.55c-.81,0-1.14.75-1.14,1.53s.38,1.5,1.14,1.5a1.19,1.19,0,0,0,1.14-1.35v-.32A1.24,1.24,0,0,0,127.14,56.75Z"/><path class="cls-2" d="M165.8,51.76a2.44,2.44,0,0,0-1.28-.43c-.61,0-1,.31-1,.76s.45.75,1.31,1.13,1.49.85,1.49,1.65c0,1.06-.94,1.52-1.86,1.52a2.83,2.83,0,0,1-1.92-.72l.37-.53a2.46,2.46,0,0,0,1.51.64c.5,0,1.16-.19,1.16-.91,0-.47-.44-.79-1.21-1.11s-1.6-.74-1.6-1.64.91-1.39,1.71-1.39a3.11,3.11,0,0,1,1.6.5Z"/><path class="cls-2" d="M170.14,56a2.18,2.18,0,0,1-1.33.43,2,2,0,0,1-2-2c0-1.24.67-2.16,1.86-2.16a1.77,1.77,0,0,1,1.75,1.9,2.6,2.6,0,0,1,0,.35h-2.84a1.28,1.28,0,0,0,1.31,1.36,1.71,1.71,0,0,0,1-.34Zm-.43-2.08a1.1,1.1,0,0,0-1.08-1.12c-.57,0-1,.59-1.08,1.12Z"/><path class="cls-2" d="M174.25,55.88a2.09,2.09,0,1,1-1.39-3.68,2.69,2.69,0,0,1,1.3.36l-.28.53a2,2,0,0,0-1-.3,1.38,1.38,0,0,0-1.32,1.54,1.36,1.36,0,0,0,1.33,1.48,1.54,1.54,0,0,0,1-.4Z"/><path class="cls-2" d="M176.46,52.2a2.11,2.11,0,1,1-1.92,2.11A1.95,1.95,0,0,1,176.46,52.2Zm0,3.65c.65,0,1.19-.57,1.19-1.54s-.54-1.55-1.19-1.55-1.19.57-1.19,1.55S175.81,55.85,176.46,55.85Z"/><path class="cls-2" d="M179.73,52.86a1.45,1.45,0,0,1,1.17-.65,1.43,1.43,0,0,1,1.54,1.5V56.3h-.72V53.78a.91.91,0,0,0-.89-1,1.12,1.12,0,0,0-1.1,1.21V56.3H179v-4h.72Z"/><path class="cls-2" d="M184.86,56.39c-1.13,0-1.77-.82-1.77-2.1a1.85,1.85,0,0,1,1.77-2.09,1.46,1.46,0,0,1,1.23.71v-2.2h.72V56.3h-.72v-.55A1.47,1.47,0,0,1,184.86,56.39Zm.09-.52c.64,0,1.14-.56,1.14-1.5v-.08c0-.85-.38-1.54-1.15-1.54s-1.13.72-1.13,1.54S184.15,55.87,185,55.87Z"/><path class="cls-2" d="M190.17,52.86a1.42,1.42,0,0,1,1.18-.66l.2,0v.62h-.18a1.09,1.09,0,0,0-1.2,1V56.3h-.72v-4h.72Z"/><path class="cls-2" d="M193.5,52.2a2.11,2.11,0,1,1-1.92,2.11A1.94,1.94,0,0,1,193.5,52.2Zm0,3.65c.65,0,1.19-.57,1.19-1.54s-.54-1.55-1.19-1.55-1.19.57-1.19,1.55S192.85,55.85,193.5,55.85Z"/><path class="cls-2" d="M196.21,52.6a2.58,2.58,0,0,1,1.39-.42A1.4,1.4,0,0,1,199,53a2,2,0,0,1,.1.68v1.72a3.28,3.28,0,0,0,.09.87h-.72c0-.1-.07-.37-.07-.37a1.79,1.79,0,0,1-1.18.48,1.36,1.36,0,0,1-1.45-1.33c0-1,.85-1.45,2-1.45l.59,0v-.07a.76.76,0,0,0-.85-.81,1.86,1.86,0,0,0-1,.32Zm1.08,3.23a1,1,0,0,0,1.09-1V54.2l-.53,0c-.82,0-1.37.23-1.37.87A.79.79,0,0,0,197.29,55.83Z"/><path class="cls-2" d="M201.91,53.07a1.59,1.59,0,0,0-.85-.3c-.4,0-.61.2-.61.47s.27.51.86.8,1.09.63,1.09,1.21A1.23,1.23,0,0,1,201,56.42a2,2,0,0,1-1.46-.6l.39-.48a1.63,1.63,0,0,0,1.05.5c.38,0,.7-.18.7-.57s-.36-.53-.74-.71c-.54-.25-1.2-.61-1.2-1.27a1.12,1.12,0,0,1,1.27-1.1,2.27,2.27,0,0,1,1.22.4Z"/><path class="cls-2" d="M203.13,51.32l.72-.22v1.21h.93v.57h-.93V55.3c0,.46.39.52.85.53v.57c-.94,0-1.57-.2-1.57-1.06V52.88h-.56v-.57h.56Z"/><path class="cls-2" d="M205.23,50.71h.82v.86h-.82Zm.05,1.6H206v4h-.72Z"/><path class="cls-2" d="M207.56,52.86a1.44,1.44,0,0,1,1.16-.65,1.43,1.43,0,0,1,1.55,1.5V56.3h-.72V53.78a.91.91,0,0,0-.89-1,1.12,1.12,0,0,0-1.1,1.21V56.3h-.72v-4h.72Z"/><path class="cls-2" d="M212.7,52.2a1.46,1.46,0,0,1,1.22.71v-.6h.72v3.6a1.8,1.8,0,0,1-1.88,2,3.14,3.14,0,0,1-1.43-.37l.25-.55a2.51,2.51,0,0,0,1.17.35c.62,0,1.17-.42,1.17-1.35v-.3a1.43,1.43,0,0,1-1.23.64c-1.06,0-1.78-.71-1.78-2A1.84,1.84,0,0,1,212.7,52.2Zm.07.55c-.81,0-1.14.75-1.14,1.53s.38,1.5,1.14,1.5a1.2,1.2,0,0,0,1.15-1.35v-.32A1.25,1.25,0,0,0,212.77,52.75Z"/><path class="cls-2" d="M167.84,60.6a2.55,2.55,0,0,1,1.38-.42,1.39,1.39,0,0,1,1.4.85,1.77,1.77,0,0,1,.1.68v1.72a3.35,3.35,0,0,0,.1.87h-.73a3.3,3.3,0,0,1-.06-.37,1.83,1.83,0,0,1-1.18.48,1.36,1.36,0,0,1-1.45-1.33c0-1,.85-1.45,2-1.45l.58,0v-.07a.75.75,0,0,0-.85-.81,1.83,1.83,0,0,0-1,.32Zm1.08,3.23a1,1,0,0,0,1.08-1V62.2l-.52,0c-.82,0-1.37.23-1.37.87A.78.78,0,0,0,168.92,63.83Z"/><path class="cls-2" d="M172.28,60.86a1.44,1.44,0,0,1,1.16-.65,1.43,1.43,0,0,1,1.55,1.5V64.3h-.72V61.78a.91.91,0,0,0-.89-1,1.12,1.12,0,0,0-1.1,1.21V64.3h-.72v-4h.72Z"/><path class="cls-2" d="M177.41,64.39c-1.13,0-1.78-.82-1.78-2.1a1.85,1.85,0,0,1,1.78-2.09,1.47,1.47,0,0,1,1.23.71v-2.2h.72V64.3h-.72v-.55A1.47,1.47,0,0,1,177.41,64.39Zm.09-.52c.64,0,1.14-.56,1.14-1.5v-.08c0-.85-.38-1.54-1.15-1.54s-1.13.72-1.13,1.54S176.7,63.87,177.5,63.87Z"/><path class="cls-2" d="M184,61.07a1.55,1.55,0,0,0-.84-.3c-.41,0-.62.2-.62.47s.27.51.87.8,1.08.63,1.08,1.21a1.23,1.23,0,0,1-1.38,1.17,1.93,1.93,0,0,1-1.45-.6l.38-.48a1.63,1.63,0,0,0,1.05.5c.38,0,.7-.18.7-.57s-.35-.53-.73-.71c-.55-.25-1.21-.61-1.21-1.27a1.12,1.12,0,0,1,1.27-1.1,2.25,2.25,0,0,1,1.22.4Z"/><path class="cls-2" d="M188.17,64a2.21,2.21,0,0,1-1.34.43,2,2,0,0,1-2-2c0-1.24.67-2.16,1.86-2.16a1.77,1.77,0,0,1,1.75,1.9,2.6,2.6,0,0,1,0,.35h-2.84a1.29,1.29,0,0,0,1.31,1.36,1.76,1.76,0,0,0,1-.34Zm-.44-2.08a1.1,1.1,0,0,0-1.08-1.12c-.57,0-1,.59-1.08,1.12Z"/><path class="cls-2" d="M189.05,58.71h.72V64.3h-.72Z"/><path class="cls-2" d="M193.74,64a2.21,2.21,0,0,1-1.34.43,2,2,0,0,1-2-2,1.91,1.91,0,0,1,1.87-2.16A1.76,1.76,0,0,1,194,62.1a2.6,2.6,0,0,1,0,.35h-2.84a1.29,1.29,0,0,0,1.31,1.36,1.74,1.74,0,0,0,1-.34Zm-.44-2.08a1.09,1.09,0,0,0-1.07-1.12,1.24,1.24,0,0,0-1.08,1.12Z"/><path class="cls-2" d="M197.84,63.88a2.09,2.09,0,1,1-1.39-3.68,2.69,2.69,0,0,1,1.3.36l-.27.53a2.11,2.11,0,0,0-1-.3,1.52,1.52,0,0,0,0,3,1.54,1.54,0,0,0,1-.4Z"/><path class="cls-2" d="M198.52,59.32l.72-.22v1.21h.93v.57h-.93V63.3c0,.46.39.52.85.53v.57c-.94,0-1.57-.2-1.57-1.06V60.88H198v-.57h.56Z"/><path class="cls-2" d="M200.62,58.71h.82v.86h-.82Zm0,1.6h.72v4h-.72Z"/><path class="cls-2" d="M203.93,60.2A2.11,2.11,0,1,1,202,62.31,1.95,1.95,0,0,1,203.93,60.2Zm0,3.65c.65,0,1.19-.57,1.19-1.54s-.54-1.55-1.19-1.55-1.19.57-1.19,1.55S203.28,63.85,203.93,63.85Z"/><path class="cls-2" d="M207.2,60.86a1.45,1.45,0,0,1,1.17-.65,1.43,1.43,0,0,1,1.55,1.5V64.3h-.73V61.78a.91.91,0,0,0-.89-1A1.12,1.12,0,0,0,207.2,62V64.3h-.72v-4h.72Z"/><path class="cls-2" d="M30.63,159.8a2.71,2.71,0,0,1-1.82.64,2.82,2.82,0,0,1,0-5.63,3.25,3.25,0,0,1,1.75.46l-.29.51a2.79,2.79,0,0,0-1.47-.38,2,2,0,0,0-1.89,2.24,2,2,0,0,0,1.92,2.2,2.27,2.27,0,0,0,1.44-.52Z"/><path class="cls-2" d="M33.85,159.81a1.48,1.48,0,0,1-2.71-.85v-2.59h.72v2.52a.91.91,0,0,0,.89,1,1.12,1.12,0,0,0,1.1-1.21v-2.32h.72v4h-.72Z"/><path class="cls-2" d="M35.63,155.38l.72-.22v1.21h.93v.57h-.93v2.42c0,.46.39.52.86.52v.58c-.94,0-1.58-.2-1.58-1.07v-2.45h-.56v-.57h.56Z"/><path class="cls-2" d="M168.89,156.26a1.38,1.38,0,0,1-.66,1.16,1.53,1.53,0,0,1,.92,1.39c0,.86-.57,1.55-1.92,1.55h-2v-5.48h1.95C168.17,154.88,168.89,155.32,168.89,156.26Zm-2.92-.82v1.75h1.29a.86.86,0,0,0,.9-.93c0-.54-.36-.82-1-.82Zm1.24,4.35c.79,0,1.2-.37,1.2-1a1,1,0,0,0-1.13-1H166v2Z"/><path class="cls-2" d="M171.36,156.26a2.11,2.11,0,1,1-1.92,2.1A1.94,1.94,0,0,1,171.36,156.26Zm0,3.65c.65,0,1.19-.57,1.19-1.55s-.54-1.54-1.19-1.54-1.19.56-1.19,1.54S170.71,159.91,171.36,159.91Z"/><path class="cls-2" d="M175.06,157.8l1-1.43h.8l-1.4,2,1.42,2h-.82l-1-1.45-1,1.45h-.79l1.42-2-1.38-2h.78Z"/><path class="cls-2" d="M179.79,159.81V162h-.73v-5.63h.73v.6a1.46,1.46,0,0,1,1.23-.71,1.85,1.85,0,0,1,1.77,2.09c0,1.28-.65,2.1-1.77,2.1A1.46,1.46,0,0,1,179.79,159.81Zm2.28-1.46c0-.82-.37-1.54-1.14-1.54s-1.14.69-1.14,1.54v.08c0,.94.49,1.5,1.14,1.5S182.07,159.13,182.07,158.35Z"/><path class="cls-2" d="M183.56,156.66a2.55,2.55,0,0,1,1.38-.42,1.4,1.4,0,0,1,1.41.85,2,2,0,0,1,.09.68v1.72a3.35,3.35,0,0,0,.1.87h-.73c0-.1-.06-.37-.06-.37a1.83,1.83,0,0,1-1.18.48,1.36,1.36,0,0,1-1.45-1.33c0-1.06.85-1.45,2-1.45l.58,0v-.07a.75.75,0,0,0-.84-.82,1.85,1.85,0,0,0-1,.33Zm1.08,3.22a1,1,0,0,0,1.08-1v-.62l-.52,0c-.82,0-1.37.23-1.37.87A.78.78,0,0,0,184.64,159.88Z"/><path class="cls-2" d="M190.5,159.94a2.09,2.09,0,1,1-1.38-3.68,2.62,2.62,0,0,1,1.29.36l-.27.53a2.07,2.07,0,0,0-1-.3,1.38,1.38,0,0,0-1.32,1.54,1.36,1.36,0,0,0,1.33,1.47,1.56,1.56,0,0,0,1-.39Z"/><path class="cls-2" d="M194.12,156.37l-1.87,1.79,2.31,2.2h-.95l-1.88-1.81v1.81H191v-5.59h.72v3l1.45-1.4Z"/><path class="cls-2" d="M194.78,156.66a2.58,2.58,0,0,1,1.39-.42,1.38,1.38,0,0,1,1.4.85,2,2,0,0,1,.09.68v1.72a3.35,3.35,0,0,0,.1.87H197c0-.1-.06-.37-.06-.37a1.79,1.79,0,0,1-1.18.48,1.36,1.36,0,0,1-1.45-1.33c0-1.06.85-1.45,2-1.45l.58,0v-.07a.75.75,0,0,0-.84-.82,1.87,1.87,0,0,0-1,.33Zm1.08,3.22a1,1,0,0,0,1.08-1v-.62l-.52,0c-.82,0-1.37.23-1.37.87A.78.78,0,0,0,195.86,159.88Z"/><path class="cls-2" d="M200.09,156.26a1.43,1.43,0,0,1,1.21.71v-.6H202V160a1.79,1.79,0,0,1-1.88,2,3.13,3.13,0,0,1-1.43-.36L199,161a2.5,2.5,0,0,0,1.16.35c.63,0,1.17-.42,1.17-1.35v-.3a1.4,1.4,0,0,1-1.22.64c-1.07,0-1.78-.71-1.78-2A1.84,1.84,0,0,1,200.09,156.26Zm.07.55c-.81,0-1.14.75-1.14,1.53s.38,1.5,1.14,1.5a1.19,1.19,0,0,0,1.14-1.35v-.32A1.24,1.24,0,0,0,200.16,156.81Z"/><path class="cls-2" d="M202.78,154.77h.82v.86h-.82Zm.05,1.6h.72v4h-.72Z"/><path class="cls-2" d="M205.11,156.91a1.46,1.46,0,0,1,1.16-.64,1.43,1.43,0,0,1,1.55,1.5v2.59h-.72v-2.52a.91.91,0,0,0-.89-1,1.12,1.12,0,0,0-1.1,1.21v2.32h-.72v-4h.72Z"/><path class="cls-2" d="M210.25,156.26a1.45,1.45,0,0,1,1.22.71v-.6h.72V160a1.79,1.79,0,0,1-1.88,2,3.16,3.16,0,0,1-1.43-.36l.25-.55a2.51,2.51,0,0,0,1.17.35c.62,0,1.17-.42,1.17-1.35v-.3a1.43,1.43,0,0,1-1.23.64c-1.06,0-1.78-.71-1.78-2A1.84,1.84,0,0,1,210.25,156.26Zm.08.55c-.82,0-1.15.75-1.15,1.53s.38,1.5,1.15,1.5a1.2,1.2,0,0,0,1.14-1.35v-.32A1.25,1.25,0,0,0,210.33,156.81Z"/><path class="cls-2" d="M98,154.88a1.72,1.72,0,1,1,0,3.43H96.83v2.05h-.72v-5.48Zm-1.14.56v2.3H98a1.15,1.15,0,0,0,0-2.3Z"/><path class="cls-2" d="M100.27,156.66a2.58,2.58,0,0,1,1.39-.42,1.38,1.38,0,0,1,1.4.85,2,2,0,0,1,.1.68v1.72a3.28,3.28,0,0,0,.09.87h-.72c0-.1-.07-.37-.07-.37a1.79,1.79,0,0,1-1.18.48,1.36,1.36,0,0,1-1.45-1.33c0-1.06.85-1.45,2-1.45l.58,0v-.07a.75.75,0,0,0-.84-.82,1.87,1.87,0,0,0-1,.33Zm1.08,3.22a1,1,0,0,0,1.08-1v-.62l-.52,0c-.82,0-1.37.23-1.37.87A.78.78,0,0,0,101.35,159.88Z"/><path class="cls-2" d="M107.22,159.94a2.07,2.07,0,0,1-3.44-1.55,2,2,0,0,1,2-2.13,2.69,2.69,0,0,1,1.3.36l-.28.53a2.07,2.07,0,0,0-1-.3,1.38,1.38,0,0,0-1.32,1.54,1.36,1.36,0,0,0,1.33,1.47,1.58,1.58,0,0,0,1-.39Z"/><path class="cls-2" d="M110.83,156.37,109,158.16l2.32,2.2h-1l-1.87-1.81v1.81h-.73v-5.59h.73v3l1.44-1.4Z"/><path class="cls-2" d="M111.49,156.66a2.58,2.58,0,0,1,1.39-.42,1.38,1.38,0,0,1,1.4.85,2,2,0,0,1,.1.68v1.72a3.28,3.28,0,0,0,.09.87h-.72c0-.1-.07-.37-.07-.37a1.79,1.79,0,0,1-1.18.48,1.36,1.36,0,0,1-1.45-1.33c0-1.06.85-1.45,2-1.45l.59,0v-.07a.76.76,0,0,0-.85-.82,1.9,1.9,0,0,0-1,.33Zm1.08,3.22a1,1,0,0,0,1.09-1v-.62l-.53,0c-.82,0-1.37.23-1.37.87A.78.78,0,0,0,112.57,159.88Z"/><path class="cls-2" d="M116.8,156.26A1.45,1.45,0,0,1,118,157v-.6h.72V160a1.79,1.79,0,0,1-1.88,2,3.16,3.16,0,0,1-1.43-.36l.25-.55a2.51,2.51,0,0,0,1.17.35c.62,0,1.17-.42,1.17-1.35v-.3a1.43,1.43,0,0,1-1.23.64c-1.06,0-1.78-.71-1.78-2A1.84,1.84,0,0,1,116.8,156.26Zm.08.55c-.82,0-1.15.75-1.15,1.53s.38,1.5,1.15,1.5a1.2,1.2,0,0,0,1.14-1.35v-.32A1.25,1.25,0,0,0,116.88,156.81Z"/><path class="cls-2" d="M119.49,154.77h.82v.86h-.82Zm.05,1.6h.72v4h-.72Z"/><path class="cls-2" d="M121.82,156.91a1.46,1.46,0,0,1,1.17-.64,1.43,1.43,0,0,1,1.54,1.5v2.59h-.72v-2.52a.91.91,0,0,0-.89-1,1.12,1.12,0,0,0-1.1,1.21v2.32h-.72v-4h.72Z"/><path class="cls-2" d="M127,156.26a1.45,1.45,0,0,1,1.22.71v-.6h.72V160a1.79,1.79,0,0,1-1.87,2,3.09,3.09,0,0,1-1.43-.36l.25-.55a2.47,2.47,0,0,0,1.16.35c.62,0,1.17-.42,1.17-1.35v-.3a1.41,1.41,0,0,1-1.22.64c-1.07,0-1.78-.71-1.78-2A1.84,1.84,0,0,1,127,156.26Zm.08.55c-.81,0-1.14.75-1.14,1.53s.38,1.5,1.14,1.5a1.2,1.2,0,0,0,1.14-1.35v-.32A1.24,1.24,0,0,0,127,156.81Z"/><path class="cls-2" d="M57.16,28.2,49.91,29,47.22,11.11A2.9,2.9,0,0,1,53,10.72Z"/><path d="M49.49,29.5,46.72,11.19a3.43,3.43,0,0,1,.83-2.5,3.4,3.4,0,0,1,6,2l4.28,17.94Zm.63-21H50a2.44,2.44,0,0,0-1.65.81,2.33,2.33,0,0,0-.58,1.73L50.34,28.4l6.2-.64-4-16.92a2.48,2.48,0,0,0-.83-1.71A2.34,2.34,0,0,0,50.12,8.54Z"/><ellipse class="cls-2" cx="53.64" cy="29.15" rx="3.7" ry="3.68" transform="translate(-1.82 3.63) rotate(-3.81)"/><path d="M53.63,33.33A4.18,4.18,0,0,1,53.36,25a4.29,4.29,0,0,1,3,1,4.16,4.16,0,0,1,1.42,2.87,4.1,4.1,0,0,1-1,3,4.16,4.16,0,0,1-2.88,1.42Zm0-7.36h-.22a3.19,3.19,0,0,0-2.2,1.08,3.15,3.15,0,0,0-.79,2.3,3.19,3.19,0,0,0,3.41,3,3.15,3.15,0,0,0,2.2-1.08,3.19,3.19,0,0,0,.79-2.3h0a3.14,3.14,0,0,0-1.09-2.18A3.2,3.2,0,0,0,53.65,26Z"/><path class="cls-2" d="M47.75,8.29l2.57,15.92h0a2.92,2.92,0,0,1,.4,1.49,3,3,0,0,1-3,3H15.52A3,3,0,0,1,13,24.17h0l2.2-15.88"/><path d="M47.76,29.16H15.52a3.47,3.47,0,0,1-3-5.16L14.67,8.23l1,.13L13.4,24.43a2.46,2.46,0,0,0,2.12,3.73H47.76a2.46,2.46,0,0,0,2.46-2.46,2.39,2.39,0,0,0-.33-1.23l-.06-.18L47.26,8.37l1-.16L50.8,24.05a3.37,3.37,0,0,1,.42,1.65A3.46,3.46,0,0,1,47.76,29.16Z"/><path d="M47.76,29.16H15.52a3.47,3.47,0,1,1,0-6.93H47.75v1H15.52a2.47,2.47,0,1,0,0,4.93H47.76a2.47,2.47,0,0,0,0-4.93v-1a3.47,3.47,0,0,1,0,6.93Z"/><path d="M15.67,8.47h-1a3,3,0,0,1,3-3H45.22v1H17.7A2,2,0,0,0,15.67,8.47Z"/><path d="M48.26,8.47h-1a2,2,0,0,0-2-2v-1A3,3,0,0,1,48.26,8.47Z"/><path d="M15.52,26.54a.85.85,0,1,1,.84-.84A.85.85,0,0,1,15.52,26.54Zm0-1a.16.16,0,0,0-.16.16c0,.16.31.17.31,0A.16.16,0,0,0,15.52,25.54Z"/><path d="M47.76,26.54a.85.85,0,1,1,.84-.84A.85.85,0,0,1,47.76,26.54Zm0-1a.16.16,0,0,0-.16.16c0,.16.31.17.31,0A.16.16,0,0,0,47.76,25.54Z"/><path class="cls-2" d="M57.16,20.66l-7.25.75L47.22,3.57A2.9,2.9,0,0,1,53,3.18Z"/><path d="M49.49,22,46.72,3.64A3.41,3.41,0,0,1,52.35.83,3.37,3.37,0,0,1,53.5,3.15l4.28,17.94ZM50.12,1H50a2.44,2.44,0,0,0-1.65.81,2.33,2.33,0,0,0-.58,1.73l2.62,17.32,6.2-.64-4-16.92a2.46,2.46,0,0,0-.83-1.71A2.34,2.34,0,0,0,50.12,1Z"/><ellipse class="cls-2" cx="53.64" cy="21.61" rx="3.7" ry="3.68" transform="translate(-1.32 3.61) rotate(-3.81)"/><path d="M53.63,25.79a4.18,4.18,0,1,1,4.2-4.46,4.12,4.12,0,0,1-1,3,4.2,4.2,0,0,1-2.88,1.42Zm0-7.36h-.21a3.19,3.19,0,0,0-3,3.38A3.14,3.14,0,0,0,51.53,24a3.21,3.21,0,0,0,5.31-2.6h0A3.2,3.2,0,0,0,53.64,18.43Z"/><path d="M43.92,10l1,8.2H27.64l.71-8.2H43.92m.88-1H27.43l-.88,10.2h19.5L44.8,9Z"/><polygon points="25.27 19.23 5.77 19.23 8.29 9.03 26.14 9.03 25.27 19.23"/><path d="M129.2,33.33H95.63a3.64,3.64,0,0,1,0-7.27H129.2a3.64,3.64,0,0,1,0,7.27ZM95.63,27.06a2.64,2.64,0,0,0,0,5.27H129.2a2.64,2.64,0,0,0,0-5.27Z"/><path d="M95.63,30.66a1,1,0,1,1,1-1A1,1,0,0,1,95.63,30.66Zm0-1s0,0,0,0Z"/><path d="M129.2,30.68a1,1,0,1,1,1-1A1,1,0,0,1,129.2,30.68Zm0-1a0,0,0,0,0,0,0Z"/><path d="M115.83,8.8H109V6.94l-3-3h-1.28V.83h15.31V4h-1.28l-3,3ZM110,7.8h4.82V6.52L118.38,3h.69V1.83H105.76V3h.7L110,6.52Z"/><path d="M112.42,17.54a2.14,2.14,0,0,1-2.13-2.13c0-1,1.43-3.13,1.71-3.54l.42-.6.41.6c.28.41,1.71,2.54,1.71,3.54A2.13,2.13,0,0,1,112.42,17.54Zm0-4.48a7.49,7.49,0,0,0-1.13,2.35,1.13,1.13,0,1,0,2.25,0A7.64,7.64,0,0,0,112.42,13.06Z"/><rect x="87.51" y="23.19" width="23.69" height="1.53"/><rect x="113.64" y="23.19" width="23.69" height="1.53"/><path d="M204.75,33.33H172.51a3.47,3.47,0,0,1-3-5.16l2.18-15.78,1,.14L170.4,28.59a2.47,2.47,0,0,0,2.11,3.74h32.24a2.48,2.48,0,0,0,2.47-2.47,2.41,2.41,0,0,0-.33-1.23l-.06-.17-2.57-15.92,1-.16,2.55,15.83a3.43,3.43,0,0,1,.42,1.65A3.47,3.47,0,0,1,204.75,33.33Z"/><path d="M204.75,33.33H172.51a3.47,3.47,0,0,1,0-6.93h32.24a3.47,3.47,0,1,1,0,6.93ZM172.51,27.4a2.47,2.47,0,0,0,0,4.93h32.24a2.47,2.47,0,1,0,0-4.93Z"/><path d="M172.67,12.64h-1a3,3,0,0,1,3-3h27.52v1H174.7A2,2,0,0,0,172.67,12.64Z"/><path d="M205.25,12.64h-1a2,2,0,0,0-2-2v-1A3,3,0,0,1,205.25,12.64Z"/><path d="M172.51,30.71a.85.85,0,1,1,.85-.85A.85.85,0,0,1,172.51,30.71Zm0-1a.15.15,0,0,0-.15.15c0,.17.31.17.31,0A.16.16,0,0,0,172.51,29.71Z"/><path d="M204.75,30.71a.85.85,0,1,1,.85-.85A.85.85,0,0,1,204.75,30.71Zm0-1a.15.15,0,0,0-.15.15c0,.17.31.17.31,0A.16.16,0,0,0,204.75,29.71Z"/><polygon points="198.38 23.4 178.88 23.4 179.76 13.19 197.13 13.19 198.38 23.4"/><polygon points="52.85 126.44 49.33 111.58 13.59 111.58 10.27 126.43 9.29 126.21 12.79 110.58 50.12 110.58 53.82 126.21 52.85 126.44"/><polygon points="19.27 123.89 22.21 113.52 16.01 113.52 14.4 123.89 19.27 123.89"/><polygon points="42.59 123.89 39.71 113.52 34.7 113.52 36.08 123.89 42.59 123.89"/><polygon points="20.36 123.89 23.25 113.52 28.26 113.52 26.87 123.89 20.36 123.89"/><polygon points="48.71 123.89 46.95 113.52 40.7 113.52 43.6 123.89 48.71 123.89"/><polygon points="35.07 123.89 33.99 113.52 29.12 113.52 27.9 123.89 35.07 123.89"/><path d="M53.83,129.85H9.28v-4H53.83Zm-43.55-1H52.83v-2H10.28Z"/><path d="M198.12,134.05h-19V124.2l-8.89,2.39,4.34-6.74,8.47-2.28.54.74-3,4.74h16.18l-3-4.74.55-.74,8.46,2.28,4.35,6.75-8.93-2.41Zm-18-1h17v-9h-17Zm17.82-10L204.8,125l-2.73-4.23-6.83-1.85Zm-22.73-2.38L172.47,125l6.82-1.84,2.73-4.23Z"/><polygon points="191.71 108.22 190.98 107.53 194.46 103.87 194.46 100.72 182.81 100.72 182.81 103.87 186.29 107.53 185.56 108.22 181.81 104.27 181.81 99.72 195.46 99.72 195.46 104.27 191.71 108.22"/><polygon points="183.39 116.03 180.05 115.09 181.25 110.4 185.8 107.63 186.32 108.49 182.12 111.04 181.26 114.4 183.66 115.07 183.39 116.03"/><polygon points="193.9 116.03 193.63 115.07 196.01 114.4 195.15 111.04 190.95 108.49 191.47 107.63 196.02 110.4 197.22 115.09 193.9 116.03"/><path d="M188.63,110.22A3.32,3.32,0,1,1,192,106.9,3.32,3.32,0,0,1,188.63,110.22Zm0-5.64A2.32,2.32,0,1,0,191,106.9,2.32,2.32,0,0,0,188.63,104.58Z"/><path d="M188.63,107.78a.88.88,0,1,1,.88-.88A.88.88,0,0,1,188.63,107.78Zm0-1a.12.12,0,0,0-.12.12c0,.13.25.13.25,0A.12.12,0,0,0,188.63,106.78Z"/><rect x="181.64" y="129.76" width="1.76" height="1.76"/><rect x="184.93" y="129.76" width="1.76" height="1.76"/><rect x="179.61" y="123.05" width="18.05" height="1"/><rect x="182.83" y="117.64" width="11.61" height="1"/><path d="M132.54,130.74H92.3a3.48,3.48,0,0,1-3.47-3.47,3.44,3.44,0,0,1,.44-1.69l2.18-15.78,1,.14L90.18,126a2.47,2.47,0,0,0,2.12,3.74h40.24a2.47,2.47,0,0,0,2.46-2.47,2.41,2.41,0,0,0-.33-1.23l-.06-.17L132,110l1-.16,2.55,15.83a3.4,3.4,0,0,1,.42,1.65A3.47,3.47,0,0,1,132.54,130.74Z"/><path d="M132.54,130.74H92.3a3.47,3.47,0,1,1,0-6.93h40.24a3.47,3.47,0,0,1,0,6.93ZM92.3,124.81a2.47,2.47,0,1,0,0,4.93h40.24a2.47,2.47,0,0,0,0-4.93Z"/><path d="M92.45,110h-1a3,3,0,0,1,3-3H130v1H94.48A2,2,0,0,0,92.45,110Z"/><path d="M133,110h-1a2,2,0,0,0-2-2v-1A3,3,0,0,1,133,110Z"/><path d="M92.3,128.12a.85.85,0,1,1,.84-.85A.85.85,0,0,1,92.3,128.12Zm0-1a.16.16,0,0,0-.16.15c0,.17.31.17.31,0A.15.15,0,0,0,92.3,127.12Z"/><path d="M132.54,128.12a.85.85,0,1,1,.84-.85A.85.85,0,0,1,132.54,128.12Zm0-1a.16.16,0,0,0-.16.15c0,.17.31.17.31,0A.15.15,0,0,0,132.54,127.12Z"/><path d="M110.57,120.14H98.16a.51.51,0,0,1-.36-.15.55.55,0,0,1-.14-.37l.11-3.24a.51.51,0,0,1,.5-.49h12.3a.51.51,0,0,1,.5.5v3.25A.5.5,0,0,1,110.57,120.14Zm-11.89-1h11.39v-2.25H98.75Z"/><polygon class="cls-2" points="98.27 116.39 98.81 112.22 109.65 112.22 110.56 116.39 98.27 116.39"/><path d="M110.57,116.89H98.27a.5.5,0,0,1-.38-.17.51.51,0,0,1-.12-.39l.55-4.17a.5.5,0,0,1,.49-.44h10.84a.49.49,0,0,1,.49.39l.91,4.18a.47.47,0,0,1-.1.42A.49.49,0,0,1,110.57,116.89Zm-11.73-1h11.1l-.69-3.17h-10Z"/><path d="M126.67,120.14h-12.4a.51.51,0,0,1-.36-.15.47.47,0,0,1-.14-.37l.11-3.24a.51.51,0,0,1,.5-.49h12.29a.5.5,0,0,1,.5.5v3.25A.5.5,0,0,1,126.67,120.14Zm-11.89-1h11.39v-2.25H114.86Z"/><polygon class="cls-2" points="114.38 116.39 114.92 112.22 125.76 112.22 126.67 116.39 114.38 116.39"/><path d="M126.67,116.89H114.38a.5.5,0,0,1-.38-.17.51.51,0,0,1-.12-.39l.55-4.17a.5.5,0,0,1,.49-.44h10.84a.5.5,0,0,1,.49.39l.91,4.17a.5.5,0,0,1-.49.61Zm-11.72-1h11.1l-.69-3.17h-10Z"/><rect y="47.95" width="63.11" height="21" rx="10.5"/><path class="cls-2" d="M11.52,55.39H8.81v1.84h2.56v.57H8.81v2.5H8.09V54.82h3.43Z"/><path class="cls-2" d="M15,60a2.21,2.21,0,0,1-1.34.43,2,2,0,0,1-2-2,1.9,1.9,0,0,1,1.87-2.16,1.76,1.76,0,0,1,1.74,1.9,2.6,2.6,0,0,1,0,.35H12.41a1.29,1.29,0,0,0,1.31,1.36,1.76,1.76,0,0,0,1-.34Zm-.44-2.08a1.09,1.09,0,0,0-1.08-1.12,1.24,1.24,0,0,0-1.07,1.12Z"/><path class="cls-2" d="M17.48,60.39c-1.13,0-1.78-.82-1.78-2.1a1.85,1.85,0,0,1,1.78-2.09,1.47,1.47,0,0,1,1.23.71v-2.2h.72V60.3h-.72v-.55A1.47,1.47,0,0,1,17.48,60.39Zm.09-.52c.64,0,1.14-.56,1.14-1.5v-.08c0-.85-.38-1.54-1.15-1.54s-1.14.72-1.14,1.54S16.77,59.87,17.57,59.87Z"/><path class="cls-2" d="M22.22,56.6a2.58,2.58,0,0,1,1.39-.42A1.4,1.4,0,0,1,25,57a2,2,0,0,1,.1.68v1.72a3.28,3.28,0,0,0,.09.87h-.72c0-.1-.07-.37-.07-.37a1.79,1.79,0,0,1-1.18.48,1.36,1.36,0,0,1-1.45-1.33c0-1,.85-1.45,2-1.45l.58,0v-.07a.75.75,0,0,0-.84-.81,1.86,1.86,0,0,0-1,.32Zm1.08,3.23a1,1,0,0,0,1.08-1V58.2l-.52,0c-.82,0-1.37.23-1.37.87A.79.79,0,0,0,23.3,59.83Z"/><path class="cls-2" d="M26.67,56.86a1.48,1.48,0,0,1,2.71.85V60.3h-.72V57.78a.91.91,0,0,0-.89-1A1.12,1.12,0,0,0,26.67,58V60.3h-.73v-4h.73Z"/><path class="cls-2" d="M31.79,60.39c-1.13,0-1.77-.82-1.77-2.1a1.85,1.85,0,0,1,1.77-2.09,1.46,1.46,0,0,1,1.23.71v-2.2h.72V60.3H33v-.55A1.47,1.47,0,0,1,31.79,60.39Zm.09-.52c.65,0,1.14-.56,1.14-1.5v-.08c0-.85-.38-1.54-1.15-1.54s-1.13.72-1.13,1.54S31.08,59.87,31.88,59.87Z"/><path class="cls-2" d="M38,56.2a1.44,1.44,0,0,1,1.22.71v-.6h.72v3.6a1.79,1.79,0,0,1-1.87,2,3.1,3.1,0,0,1-1.43-.37l.25-.55a2.5,2.5,0,0,0,1.16.35c.63,0,1.17-.42,1.17-1.35v-.3a1.41,1.41,0,0,1-1.22.64c-1.07,0-1.78-.71-1.78-2A1.84,1.84,0,0,1,38,56.2Zm.08.55c-.81,0-1.14.75-1.14,1.53s.38,1.5,1.14,1.5,1.14-.58,1.14-1.35v-.32A1.24,1.24,0,0,0,38,56.75Z"/><path class="cls-2" d="M41.44,56.86a1.43,1.43,0,0,1,1.19-.66l.19,0v.62h-.18a1.09,1.09,0,0,0-1.2,1V60.3h-.72v-4h.72Z"/><path class="cls-2" d="M43.19,54.71H44v.86h-.82Zm0,1.6H44v4h-.73Z"/><path class="cls-2" d="M44.8,54.71h.72V60.3H44.8Z"/><path class="cls-2" d="M46.34,54.71h.72V60.3h-.72Z"/><path class="cls-2" d="M51,60a2.18,2.18,0,0,1-1.33.43,2,2,0,0,1-2-2c0-1.24.67-2.16,1.86-2.16a1.77,1.77,0,0,1,1.75,1.9,2.6,2.6,0,0,1,0,.35H48.41a1.29,1.29,0,0,0,1.31,1.36,1.72,1.72,0,0,0,1-.34Zm-.43-2.08a1.1,1.1,0,0,0-1.08-1.12c-.57,0-1,.59-1.08,1.12Z"/><path class="cls-2" d="M53.48,60.39c-1.13,0-1.77-.82-1.77-2.1a1.85,1.85,0,0,1,1.77-2.09,1.46,1.46,0,0,1,1.23.71v-2.2h.73V60.3h-.73v-.55A1.46,1.46,0,0,1,53.48,60.39Zm.09-.52c.65,0,1.14-.56,1.14-1.5v-.08c0-.85-.37-1.54-1.14-1.54s-1.14.72-1.14,1.54S52.78,59.87,53.57,59.87Z"/></g></g></svg>