<svg xmlns="http://www.w3.org/2000/svg" viewBox="0 0 65.98 27.39"><title>자산 133</title><g id="레이어_2" data-name="레이어 2"><g id="레이어_1-2" data-name="레이어 1"><path d="M8.17,1.34H4.79v9.84H3.35V1.34H0V.21H8.17Z"/><path d="M9.24,4.3A2.81,2.81,0,0,1,11.61,3L12,3V4.26h0l-.33,0a2.19,2.19,0,0,0-2.4,2v5H7.8v-8H9.24Z"/><path d="M12.74,3.77a5.14,5.14,0,0,1,2.77-.83,2.79,2.79,0,0,1,2.81,1.7A4,4,0,0,1,18.51,6V9.44a6.74,6.74,0,0,0,.2,1.74H17.25c-.05-.2-.12-.74-.12-.74a3.71,3.71,0,0,1-2.37,1,2.72,2.72,0,0,1-2.9-2.66c0-2.1,1.71-2.9,4.05-2.9.38,0,.77,0,1.16,0V5.74a1.52,1.52,0,0,0-1.7-1.64,3.74,3.74,0,0,0-2,.66Zm2.16,6.46a2,2,0,0,0,2.17-2V7c-.34,0-.76-.05-1.05-.05-1.64,0-2.73.47-2.73,1.74A1.56,1.56,0,0,0,14.9,10.23Z"/><path d="M23.33,11.36c-2.26,0-3.55-1.64-3.55-4.2S21.32,3,23.33,3A2.93,2.93,0,0,1,25.79,4.4V0h1.44V11.18H25.79V10.07A2.93,2.93,0,0,1,23.33,11.36Zm.18-1c1.29,0,2.28-1.12,2.28-3V7.16c0-1.7-.75-3.08-2.3-3.08s-2.26,1.44-2.26,3.08S21.91,10.31,23.51,10.31Z"/><path d="M28.74,0h1.64V1.71H28.74Zm.1,3.19h1.44v8H28.84Z"/><path d="M32.3,1.22,33.74.78V3.19H35.6V4.33H33.74V9.17c0,.93.79,1,1.71,1.06v1.14c-1.88,0-3.15-.39-3.15-2.12V4.33H31.18V3.19H32.3Z"/><path d="M36.5,0h1.64V1.71H36.5Zm.1,3.19H38v8H36.6Z"/><path d="M43.12,3A3.88,3.88,0,0,1,47,7.19a3.85,3.85,0,1,1-7.68,0A3.88,3.88,0,0,1,43.12,3Zm0,7.29c1.3,0,2.38-1.14,2.38-3.08s-1.08-3.1-2.38-3.1-2.38,1.13-2.38,3.1S41.82,10.27,43.12,10.27Z"/><path d="M49.67,4.29A2.91,2.91,0,0,1,52,3a2.85,2.85,0,0,1,3.09,3v5.18H53.65v-5a1.81,1.81,0,0,0-1.78-2,2.24,2.24,0,0,0-2.2,2.42v4.64H48.23v-8h1.44Z"/><path d="M57.09,3.77a5.14,5.14,0,0,1,2.78-.83,2.78,2.78,0,0,1,2.8,1.7A4,4,0,0,1,62.86,6V9.44a6.74,6.74,0,0,0,.2,1.74H61.6c-.05-.2-.12-.74-.12-.74a3.69,3.69,0,0,1-2.37,1,2.72,2.72,0,0,1-2.9-2.66c0-2.1,1.71-2.9,4-2.9.38,0,.77,0,1.16,0V5.74A1.51,1.51,0,0,0,59.73,4.1a3.77,3.77,0,0,0-2,.66Zm2.16,6.46a2,2,0,0,0,2.17-2V7c-.34,0-.76-.05-1.05-.05-1.64,0-2.73.47-2.73,1.74A1.56,1.56,0,0,0,59.25,10.23Z"/><path d="M64.54,0H66V11.18H64.54Z"/><path d="M18.75,16H20.2V27.18H18.75Z"/><path d="M22.16,19.77a5.09,5.09,0,0,1,2.77-.83,2.77,2.77,0,0,1,2.8,1.7,3.72,3.72,0,0,1,.2,1.36v3.44a6.67,6.67,0,0,0,.19,1.74H26.67a7.36,7.36,0,0,1-.13-.74,3.66,3.66,0,0,1-2.37.95,2.72,2.72,0,0,1-2.9-2.66c0-2.1,1.71-2.9,4.05-2.9.38,0,.77,0,1.16.05v-.14a1.51,1.51,0,0,0-1.69-1.64,3.71,3.71,0,0,0-2,.66Zm2.15,6.46a2,2,0,0,0,2.17-2V23c-.33,0-.75-.05-1.05-.05-1.64,0-2.73.47-2.73,1.74A1.56,1.56,0,0,0,24.31,26.23Z"/><path d="M32.26,25.31l2.23-6.12H36l-3,8H31.58l-3-8h1.5Z"/><path d="M42.81,26.49a4.41,4.41,0,0,1-2.68.87,3.9,3.9,0,0,1-4-4.06c0-2.5,1.34-4.32,3.72-4.32a3.52,3.52,0,0,1,3.49,3.79,5,5,0,0,1-.05.7H37.57a2.58,2.58,0,0,0,2.62,2.73,3.49,3.49,0,0,0,2.06-.69Zm-.87-4.16a2.18,2.18,0,0,0-2.16-2.24,2.49,2.49,0,0,0-2.15,2.24Z"/><path d="M46,20.3A2.81,2.81,0,0,1,48.38,19l.39,0v1.25h0a1.84,1.84,0,0,0-.33,0,2.19,2.19,0,0,0-2.4,2v5H44.57v-8H46Z"/></g></g></svg>