<svg xmlns="http://www.w3.org/2000/svg" viewBox="0 0 70.73 27.39"><title>자산 137</title><g id="레이어_2" data-name="레이어 2"><g id="레이어_1-2" data-name="레이어 1"><path d="M5.32,11.33A5.28,5.28,0,0,1,0,5.71,5.31,5.31,0,0,1,5.28.07,6.69,6.69,0,0,1,8.8,1L8.22,2a5.93,5.93,0,0,0-2.91-.79C2.86,1.23,1.5,3.35,1.5,5.71S3,10.13,5.32,10.13a7.13,7.13,0,0,0,2.31-.45V6.54H4.78V5.41h4.3v5A7.79,7.79,0,0,1,5.32,11.33Z"/><path d="M12.21,4.3A2.81,2.81,0,0,1,14.58,3L15,3V4.26h0a1.87,1.87,0,0,0-.34,0,2.19,2.19,0,0,0-2.39,2v5H10.77v-8h1.44Z"/><path d="M15.71,3.77a5.11,5.11,0,0,1,2.77-.83,2.77,2.77,0,0,1,2.8,1.7A3.72,3.72,0,0,1,21.48,6V9.44a6.33,6.33,0,0,0,.2,1.74H20.22a7.36,7.36,0,0,1-.13-.74,3.66,3.66,0,0,1-2.36,1,2.72,2.72,0,0,1-2.9-2.66c0-2.1,1.7-2.9,4-2.9.38,0,.77,0,1.17,0V5.74a1.52,1.52,0,0,0-1.7-1.64,3.71,3.71,0,0,0-2,.66Zm2.16,6.46a2,2,0,0,0,2.17-2V7c-.34,0-.76-.05-1.05-.05-1.64,0-2.74.47-2.74,1.74A1.56,1.56,0,0,0,17.87,10.23Z"/><path d="M24.6,4.29A2.9,2.9,0,0,1,26.92,3,2.85,2.85,0,0,1,30,6v5.18H28.58v-5a1.81,1.81,0,0,0-1.78-2,2.24,2.24,0,0,0-2.2,2.42v4.64H23.16v-8H24.6Z"/><path d="M37.05,10.08a2.91,2.91,0,0,1-2.33,1.29,2.84,2.84,0,0,1-3.09-3V3.19h1.44V8.24a1.81,1.81,0,0,0,1.78,2,2.24,2.24,0,0,0,2.2-2.42V3.19h1.44v8H37.05Z"/><path d="M40.26,0h1.45V11.18H40.26Z"/><path d="M43.67,3.77a5.09,5.09,0,0,1,2.77-.83,2.77,2.77,0,0,1,2.8,1.7A3.72,3.72,0,0,1,49.44,6V9.44a6.67,6.67,0,0,0,.19,1.74H48.18a7.36,7.36,0,0,1-.13-.74,3.66,3.66,0,0,1-2.37,1,2.72,2.72,0,0,1-2.9-2.66c0-2.1,1.71-2.9,4-2.9.38,0,.77,0,1.16,0V5.74A1.51,1.51,0,0,0,46.3,4.1a3.71,3.71,0,0,0-2,.66Zm2.15,6.46a2,2,0,0,0,2.17-2V7c-.33,0-.75-.05-1.05-.05-1.64,0-2.73.47-2.73,1.74A1.56,1.56,0,0,0,45.82,10.23Z"/><path d="M51.45,1.22,52.89.78V3.19h1.86V4.33H52.89V9.17c0,.93.79,1,1.71,1.06v1.14c-1.88,0-3.15-.39-3.15-2.12V4.33H50.33V3.19h1.12Z"/><path d="M61.92,10.49a4.38,4.38,0,0,1-2.67.87,3.9,3.9,0,0,1-4-4.06C55.21,4.8,56.56,3,58.94,3a3.53,3.53,0,0,1,3.49,3.79,5.2,5.2,0,0,1-.06.7H56.69a2.57,2.57,0,0,0,2.62,2.73,3.46,3.46,0,0,0,2-.69Zm-.86-4.16A2.18,2.18,0,0,0,58.9,4.09a2.51,2.51,0,0,0-2.16,2.24Z"/><path d="M66.82,11.36c-2.25,0-3.54-1.64-3.54-4.2S64.82,3,66.82,3A2.94,2.94,0,0,1,69.29,4.4V0h1.44V11.18H69.29V10.07A2.94,2.94,0,0,1,66.82,11.36Zm.18-1c1.29,0,2.29-1.12,2.29-3V7.16c0-1.7-.76-3.08-2.3-3.08s-2.27,1.44-2.27,3.08S65.41,10.31,67,10.31Z"/><path d="M21,16h1.44V27.18H21Z"/><path d="M24.35,19.77a5.14,5.14,0,0,1,2.78-.83,2.77,2.77,0,0,1,2.8,1.7A4,4,0,0,1,30.12,22v3.44a6.74,6.74,0,0,0,.2,1.74H28.86c-.05-.2-.12-.74-.12-.74a3.69,3.69,0,0,1-2.37.95,2.72,2.72,0,0,1-2.9-2.66c0-2.1,1.71-2.9,4.05-2.9.38,0,.77,0,1.16.05v-.14A1.51,1.51,0,0,0,27,20.1a3.77,3.77,0,0,0-2,.66Zm2.16,6.46a2,2,0,0,0,2.17-2V23c-.34,0-.76-.05-1.05-.05-1.64,0-2.73.47-2.73,1.74A1.56,1.56,0,0,0,26.51,26.23Z"/><path d="M34.46,25.31l2.23-6.12h1.5l-3,8H33.78l-3-8h1.5Z"/><path d="M45,26.49a4.43,4.43,0,0,1-2.68.87,3.89,3.89,0,0,1-4-4.06C38.3,20.8,39.64,19,42,19a3.52,3.52,0,0,1,3.49,3.79,3.94,3.94,0,0,1-.06.7H39.77a2.58,2.58,0,0,0,2.62,2.73,3.52,3.52,0,0,0,2.06-.69Zm-.87-4.16A2.18,2.18,0,0,0,42,20.09a2.51,2.51,0,0,0-2.16,2.24Z"/><path d="M48.21,20.3A2.81,2.81,0,0,1,50.58,19L51,19v1.25h0a1.87,1.87,0,0,0-.34,0,2.19,2.19,0,0,0-2.39,2v5H46.77v-8h1.44Z"/></g></g></svg>