<svg xmlns="http://www.w3.org/2000/svg" viewBox="0 0 308.72 203.73"><defs><style>.cls-1{fill:#fff;}.cls-2,.cls-3{fill:none;stroke-miterlimit:10;}.cls-2{stroke:#fff;stroke-width:0.5px;}.cls-3{stroke:#c71126;stroke-linecap:round;}</style></defs><title>자산 139</title><g id="레이어_2" data-name="레이어 2"><g id="레이어_1-2" data-name="레이어 1"><path class="cls-1" d="M23.49,10.54h-.68V3.19l-2.7,5.05h-.7l-2.7-5.05v7.35H16V2h.77l3,5.53L22.71,2h.78Z"/><path class="cls-1" d="M25.33,4.66a3.53,3.53,0,0,1,1.9-.53,2.16,2.16,0,0,1,2,1.23,2.82,2.82,0,0,1,.16,1.06V9.33a5.07,5.07,0,0,0,.1,1.21h-.64a6,6,0,0,1-.15-.77,2.79,2.79,0,0,1-2.11.9,2,2,0,0,1-2-2c0-1.51,1.09-2.16,3-2.16a11.39,11.39,0,0,1,1.17.07V6.42a1.49,1.49,0,0,0-1.54-1.7,3.3,3.3,0,0,0-1.6.44Zm3.42,2.46c-.43,0-.75-.06-1.07-.06-1.65,0-2.42.54-2.42,1.63a1.43,1.43,0,0,0,1.54,1.39,1.82,1.82,0,0,0,1.95-1.59Z"/><path class="cls-1" d="M31.49,5.49a2.35,2.35,0,0,1,2.07-1.36,2.16,2.16,0,0,1,2.28,2.31v4.1h-.68v-4a1.63,1.63,0,0,0-1.67-1.79,2.18,2.18,0,0,0-2,2.3v3.53h-.68V4.36h.68Z"/><path class="cls-1" d="M37.9,5.49A2.35,2.35,0,0,1,40,4.13a2.16,2.16,0,0,1,2.28,2.31v4.1h-.68v-4A1.63,1.63,0,0,0,39.9,4.71a2.18,2.18,0,0,0-2,2.3v3.53h-.68V4.36h.68Z"/><path class="cls-1" d="M43.94,4.66a3.58,3.58,0,0,1,1.91-.53,2.13,2.13,0,0,1,2,1.23A2.81,2.81,0,0,1,48,6.42V9.33a5.62,5.62,0,0,0,.09,1.21H47.5a5.1,5.1,0,0,1-.16-.77,2.75,2.75,0,0,1-2.1.9,2,2,0,0,1-2.05-2c0-1.51,1.1-2.16,3-2.16a11.4,11.4,0,0,1,1.18.07V6.42a1.49,1.49,0,0,0-1.54-1.7,3.27,3.27,0,0,0-1.6.44Zm3.43,2.46c-.44,0-.76-.06-1.07-.06-1.65,0-2.43.54-2.43,1.63a1.43,1.43,0,0,0,1.54,1.39,1.83,1.83,0,0,0,2-1.59Z"/><path class="cls-1" d="M57.45,2.59H53.14V5.92h4.08v.56H53.14v4.06h-.68V2h5Z"/><path class="cls-1" d="M57.67,7.4c0-2,1.24-3.27,2.84-3.27s2.84,1.26,2.84,3.27-1.26,3.27-2.85,3.27S57.67,9.4,57.67,7.4Zm.68,0c0,1.7,1,2.71,2.15,2.71s2.17-1,2.17-2.71-1-2.7-2.16-2.7S58.35,5.67,58.35,7.4Z"/><path class="cls-1" d="M64,7.4c0-2,1.24-3.27,2.84-3.27s2.84,1.26,2.84,3.27-1.26,3.27-2.85,3.27S64,9.4,64,7.4Zm.68,0c0,1.7,1,2.71,2.15,2.71S69,9.1,69,7.4s-1-2.7-2.16-2.7S64.63,5.67,64.63,7.4Z"/><path class="cls-1" d="M75.06,5.49V1.74h.68v8.8h-.68V9.4a2.46,2.46,0,0,1-2.13,1.27c-1.59,0-2.67-1.2-2.67-3.23s1-3.31,2.72-3.31A2.42,2.42,0,0,1,75.06,5.49Zm-4.12,2c0,1.29.65,2.65,2,2.65s2.07-1.16,2.07-2.65V7.35c0-1.69-.87-2.64-2.07-2.64C71.59,4.71,70.94,6.1,70.94,7.44Z"/><path class="cls-1" d="M80,1.74h1v1H80Zm.16,2.62h.68v6.18h-.68Z"/><path class="cls-1" d="M85.19,5.11a2.72,2.72,0,0,0-1.31-.39c-.81,0-1.22.42-1.22,1s.54,1,1.54,1.44,1.6.87,1.6,1.8a1.79,1.79,0,0,1-2,1.74,2.8,2.8,0,0,1-2.07-.82l.37-.48a2.48,2.48,0,0,0,1.67.7c.73,0,1.34-.34,1.34-1.1,0-.56-.6-1-1.32-1.31S82,6.78,82,5.76a1.65,1.65,0,0,1,1.84-1.63,3.28,3.28,0,0,1,1.69.49Z"/><path class="cls-1" d="M94.31,10a2.89,2.89,0,0,1-2,.72,3.05,3.05,0,0,1-3-3.25,3,3,0,0,1,3-3.29,4.21,4.21,0,0,1,1.81.46l-.27.52a3.34,3.34,0,0,0-1.54-.39A2.44,2.44,0,0,0,90,7.43a2.45,2.45,0,0,0,2.37,2.64A2.51,2.51,0,0,0,94,9.54Z"/><path class="cls-1" d="M95.53,4.66a3.58,3.58,0,0,1,1.91-.53,2.13,2.13,0,0,1,2,1.23,2.81,2.81,0,0,1,.17,1.06V9.33a5.62,5.62,0,0,0,.09,1.21h-.63a5.1,5.1,0,0,1-.16-.77,2.75,2.75,0,0,1-2.1.9,2,2,0,0,1-2-2c0-1.51,1.1-2.16,3-2.16A11.4,11.4,0,0,1,99,6.59V6.42a1.49,1.49,0,0,0-1.54-1.7,3.27,3.27,0,0,0-1.6.44ZM99,7.12c-.44,0-.76-.06-1.07-.06-1.65,0-2.43.54-2.43,1.63A1.43,1.43,0,0,0,97,10.08a1.83,1.83,0,0,0,2-1.59Z"/><path class="cls-1" d="M103.78,4.13c1.68,0,2.72,1.29,2.72,3.33s-1,3.21-2.7,3.21a2.44,2.44,0,0,1-2.1-1.28v3.83H101V4.36h.69V5.49A2.37,2.37,0,0,1,103.78,4.13Zm0,.58c-1.2,0-2.07,1-2.07,2.64v.09c0,1.49.67,2.65,2.07,2.65s2-1.36,2-2.65S105.17,4.71,103.77,4.71Z"/><path class="cls-1" d="M107.89,4.66a3.58,3.58,0,0,1,1.91-.53,2.13,2.13,0,0,1,2,1.23A2.81,2.81,0,0,1,112,6.42V9.33a5.62,5.62,0,0,0,.09,1.21h-.63a5.1,5.1,0,0,1-.16-.77,2.75,2.75,0,0,1-2.1.9,2,2,0,0,1-2-2c0-1.51,1.09-2.16,3-2.16a11.4,11.4,0,0,1,1.18.07V6.42a1.49,1.49,0,0,0-1.54-1.7,3.27,3.27,0,0,0-1.6.44Zm3.43,2.46c-.44,0-.76-.06-1.07-.06-1.65,0-2.43.54-2.43,1.63a1.43,1.43,0,0,0,1.54,1.39,1.83,1.83,0,0,0,2-1.59Z"/><path class="cls-1" d="M116.14,4.13c1.72,0,2.72,1.31,2.72,3.31s-1.09,3.23-2.67,3.23a2.46,2.46,0,0,1-2.13-1.27v1.14h-.69V1.74h.69V5.49A2.42,2.42,0,0,1,116.14,4.13Zm0,.58c-1.2,0-2.07,1-2.07,2.64v.09c0,1.49.67,2.65,2.07,2.65s2-1.36,2-2.65S117.53,4.71,116.13,4.71Z"/><path class="cls-1" d="M120,1.74h.68v8.8H120Z"/><path class="cls-1" d="M126.52,10.09a3.3,3.3,0,0,1-1.88.58,3,3,0,0,1-3-3.18c0-1.94,1.06-3.37,2.71-3.37A2.74,2.74,0,0,1,127,7.05c0,.14,0,.25,0,.41h-4.61a2.38,2.38,0,0,0,2.34,2.61,2.78,2.78,0,0,0,1.55-.43Zm-.2-3.2a2,2,0,0,0-2-2.18,2.27,2.27,0,0,0-2,2.18Z"/><path class="cls-1" d="M130.44,7.4c0-2,1.24-3.27,2.84-3.27s2.84,1.26,2.84,3.27-1.26,3.27-2.85,3.27S130.44,9.4,130.44,7.4Zm.68,0c0,1.7,1,2.71,2.15,2.71s2.17-1,2.17-2.71-1-2.7-2.16-2.7S131.12,5.67,131.12,7.4Z"/><path class="cls-1" d="M137.37,4.35v-.8a3.53,3.53,0,0,1,.13-1A1.53,1.53,0,0,1,139,1.5a2.57,2.57,0,0,1,1,.2l-.21.53a2.78,2.78,0,0,0-.7-.12.92.92,0,0,0-.91.58,1.91,1.91,0,0,0-.13.82v.84h1.34v.56h-1.34v5.63h-.69V4.91h-.88V4.35Z"/><path class="cls-1" d="M144.1,5.61a2.41,2.41,0,0,1,2.25-1.46v.64h-.21a2.1,2.1,0,0,0-2,2v3.72h-.68V4.36h.68Z"/><path class="cls-1" d="M151.07,10.09a3.33,3.33,0,0,1-1.89.58,3,3,0,0,1-3-3.18c0-1.94,1.06-3.37,2.71-3.37a2.74,2.74,0,0,1,2.61,2.93c0,.14,0,.25,0,.41h-4.61a2.39,2.39,0,0,0,2.34,2.61,2.78,2.78,0,0,0,1.55-.43Zm-.2-3.2a2,2,0,0,0-2-2.18,2.27,2.27,0,0,0-2,2.18Z"/><path class="cls-1" d="M155.32,5.11a2.71,2.71,0,0,0-1.3-.39c-.82,0-1.23.42-1.23,1s.54,1,1.54,1.44,1.6.87,1.6,1.8a1.79,1.79,0,0,1-2,1.74,2.79,2.79,0,0,1-2.07-.82l.36-.48a2.48,2.48,0,0,0,1.67.7c.73,0,1.34-.34,1.34-1.1,0-.56-.6-1-1.31-1.31s-1.83-.88-1.83-1.9A1.66,1.66,0,0,1,154,4.13a3.22,3.22,0,0,1,1.68.49Z"/><path class="cls-1" d="M161.39,10.09a3.3,3.3,0,0,1-1.88.58,3,3,0,0,1-3-3.18c0-1.94,1.06-3.37,2.71-3.37a2.74,2.74,0,0,1,2.61,2.93c0,.14,0,.25,0,.41h-4.62a2.39,2.39,0,0,0,2.34,2.61,2.81,2.81,0,0,0,1.56-.43Zm-.2-3.2a2,2,0,0,0-2-2.18,2.26,2.26,0,0,0-2,2.18Z"/><path class="cls-1" d="M163.11,4.66a3.53,3.53,0,0,1,1.9-.53,2.13,2.13,0,0,1,2,1.23,2.81,2.81,0,0,1,.17,1.06V9.33a5.62,5.62,0,0,0,.09,1.21h-.63a4.59,4.59,0,0,1-.15-.77,2.79,2.79,0,0,1-2.11.9,2,2,0,0,1-2.05-2c0-1.51,1.1-2.16,3-2.16a11.4,11.4,0,0,1,1.18.07V6.42A1.49,1.49,0,0,0,165,4.72a3.3,3.3,0,0,0-1.6.44Zm3.42,2.46c-.44,0-.75-.06-1.07-.06-1.65,0-2.42.54-2.42,1.63a1.43,1.43,0,0,0,1.54,1.39,1.82,1.82,0,0,0,1.95-1.59Z"/><path class="cls-1" d="M169.28,5.61a2.4,2.4,0,0,1,2.25-1.46v.64h-.22a2.09,2.09,0,0,0-2,2v3.72h-.68V4.36h.68Z"/><path class="cls-1" d="M176.36,10a2.9,2.9,0,0,1-2,.72,3,3,0,0,1-3-3.25,3,3,0,0,1,3-3.29,4.21,4.21,0,0,1,1.81.46l-.27.52a3.37,3.37,0,0,0-1.54-.39,2.44,2.44,0,0,0-2.35,2.71,2.45,2.45,0,0,0,2.37,2.64,2.51,2.51,0,0,0,1.6-.53Z"/><path class="cls-1" d="M178,5.48A2.35,2.35,0,0,1,180,4.13a2.16,2.16,0,0,1,2.28,2.31v4.1h-.68v-4A1.62,1.62,0,0,0,180,4.71,2.17,2.17,0,0,0,178,7v3.55h-.69V1.74H178Z"/><path class="cls-1" d="M186.93,4.66a3.54,3.54,0,0,1,1.91-.53,2.15,2.15,0,0,1,2,1.23A2.82,2.82,0,0,1,191,6.42V9.33a5.07,5.07,0,0,0,.1,1.21h-.64a6,6,0,0,1-.15-.77,2.77,2.77,0,0,1-2.11.9,2,2,0,0,1-2-2c0-1.51,1.09-2.16,3-2.16a11.39,11.39,0,0,1,1.17.07V6.42a1.49,1.49,0,0,0-1.54-1.7,3.3,3.3,0,0,0-1.6.44Zm3.42,2.46c-.43,0-.75-.06-1.07-.06-1.64,0-2.42.54-2.42,1.63a1.43,1.43,0,0,0,1.54,1.39,1.82,1.82,0,0,0,1.95-1.59Z"/><path class="cls-1" d="M193.09,5.49a2.35,2.35,0,0,1,2.07-1.36,2.17,2.17,0,0,1,2.29,2.31v4.1h-.69v-4a1.62,1.62,0,0,0-1.67-1.79,2.18,2.18,0,0,0-2,2.3v3.53h-.68V4.36h.68Z"/><path class="cls-1" d="M203.23,5.49V1.74h.68v8.8h-.68V9.4a2.47,2.47,0,0,1-2.13,1.27c-1.59,0-2.67-1.2-2.67-3.23s1-3.31,2.72-3.31A2.42,2.42,0,0,1,203.23,5.49Zm-4.12,2c0,1.29.65,2.65,2,2.65s2.07-1.16,2.07-2.65V7.35c0-1.69-.87-2.64-2.07-2.64C199.76,4.71,199.11,6.1,199.11,7.44Z"/><path class="cls-1" d="M212.73,5.49V1.74h.69v8.8h-.69V9.4a2.46,2.46,0,0,1-2.13,1.27c-1.58,0-2.67-1.2-2.67-3.23s1-3.31,2.72-3.31A2.42,2.42,0,0,1,212.73,5.49Zm-4.11,2c0,1.29.64,2.65,2,2.65s2.07-1.16,2.07-2.65V7.35c0-1.69-.87-2.64-2.07-2.64C209.26,4.71,208.62,6.1,208.62,7.44Z"/><path class="cls-1" d="M219.33,10.09a3.3,3.3,0,0,1-1.88.58,3,3,0,0,1-3-3.18c0-1.94,1.06-3.37,2.71-3.37a2.74,2.74,0,0,1,2.61,2.93c0,.14,0,.25,0,.41h-4.62a2.4,2.4,0,0,0,2.35,2.61,2.78,2.78,0,0,0,1.55-.43Zm-.2-3.2a2,2,0,0,0-2-2.18,2.26,2.26,0,0,0-2,2.18Z"/><path class="cls-1" d="M222.66,9.89l2-5.53h.68L223,10.54h-.75L220,4.36h.68Z"/><path class="cls-1" d="M230.39,10.09a3.33,3.33,0,0,1-1.89.58,3,3,0,0,1-3-3.18c0-1.94,1.06-3.37,2.71-3.37a2.74,2.74,0,0,1,2.61,2.93c0,.14,0,.25,0,.41h-4.61a2.39,2.39,0,0,0,2.34,2.61,2.78,2.78,0,0,0,1.55-.43Zm-.21-3.2a2,2,0,0,0-2-2.18,2.27,2.27,0,0,0-2,2.18Z"/><path class="cls-1" d="M231.79,1.74h.69v8.8h-.69Z"/><path class="cls-1" d="M233.5,7.4c0-2,1.25-3.27,2.85-3.27s2.83,1.26,2.83,3.27-1.26,3.27-2.85,3.27S233.5,9.4,233.5,7.4Zm.68,0c0,1.7,1,2.71,2.15,2.71s2.17-1,2.17-2.71-1-2.7-2.15-2.7S234.18,5.67,234.18,7.4Z"/><path class="cls-1" d="M243,4.13c1.68,0,2.71,1.29,2.71,3.33s-1,3.21-2.69,3.21a2.47,2.47,0,0,1-2.11-1.28v3.83h-.68V4.36h.68V5.49A2.39,2.39,0,0,1,243,4.13Zm0,.58c-1.2,0-2.08,1-2.08,2.64v.09c0,1.49.68,2.65,2.08,2.65s2-1.36,2-2.65S244.36,4.71,243,4.71Z"/><path class="cls-1" d="M247.43,5.25a2,2,0,0,1,1.77-1.12,2.1,2.1,0,0,1,1.85,1.37A2.21,2.21,0,0,1,253,4.13a2,2,0,0,1,2.1,2.16v4.25h-.67V6.22a1.43,1.43,0,0,0-1.53-1.51,1.72,1.72,0,0,0-1.6,1.93v3.9h-.67V6.34a1.49,1.49,0,0,0-1.52-1.63,1.77,1.77,0,0,0-1.64,1.91v3.92h-.67V4.36h.67Z"/><path class="cls-1" d="M260.88,10.09a3.32,3.32,0,0,1-1.88.58,3,3,0,0,1-3-3.18c0-1.94,1.06-3.37,2.7-3.37a2.74,2.74,0,0,1,2.62,2.93,3,3,0,0,1,0,.41H256.7A2.39,2.39,0,0,0,259,10.07a2.81,2.81,0,0,0,1.56-.43Zm-.2-3.2a2,2,0,0,0-2-2.18,2.26,2.26,0,0,0-2,2.18Z"/><path class="cls-1" d="M263,5.49A2.34,2.34,0,0,1,265,4.13a2.16,2.16,0,0,1,2.28,2.31v4.1h-.68v-4A1.63,1.63,0,0,0,265,4.71,2.18,2.18,0,0,0,263,7v3.53h-.68V4.36H263Z"/><path class="cls-1" d="M269,2.68l.68-.23V4.36h1.5v.55h-1.5V9.05c0,.86.62,1,1.39,1v.6c-1.27,0-2.07-.31-2.07-1.57V4.91h-1V4.36h1Z"/><path class="cls-1" d="M274.58,7.4c0-2,1.24-3.27,2.84-3.27s2.84,1.26,2.84,3.27-1.26,3.27-2.85,3.27S274.58,9.4,274.58,7.4Zm.68,0c0,1.7,1,2.71,2.15,2.71s2.17-1,2.17-2.71-1-2.7-2.16-2.7S275.26,5.67,275.26,7.4Z"/><path class="cls-1" d="M281.51,4.35v-.8a3.53,3.53,0,0,1,.13-1,1.53,1.53,0,0,1,1.49-1.07,2.57,2.57,0,0,1,1,.2l-.21.53a2.78,2.78,0,0,0-.7-.12.92.92,0,0,0-.91.58,1.91,1.91,0,0,0-.13.82v.84h1.34v.56H282.2v5.63h-.69V4.91h-.88V4.35Z"/><path class="cls-1" d="M16,18.74h.68v8.8H16Z"/><path class="cls-1" d="M18.4,21.66a3.56,3.56,0,0,1,1.91-.53,2.15,2.15,0,0,1,2,1.23,2.81,2.81,0,0,1,.17,1.06v2.91a5.62,5.62,0,0,0,.09,1.21H22a6,6,0,0,1-.15-.77,2.76,2.76,0,0,1-2.1.9,2,2,0,0,1-2.05-2c0-1.51,1.09-2.16,3-2.16a11.71,11.71,0,0,1,1.18.07v-.17a1.5,1.5,0,0,0-1.55-1.7,3.3,3.3,0,0,0-1.6.44Zm3.43,2.46c-.44,0-.76-.06-1.08-.06-1.64,0-2.42.54-2.42,1.63a1.43,1.43,0,0,0,1.54,1.39,1.83,1.83,0,0,0,2-1.59Z"/><path class="cls-1" d="M25.81,26.89l2-5.53h.68l-2.3,6.18h-.76l-2.3-6.18h.68Z"/><path class="cls-1" d="M33.54,27.09a3.32,3.32,0,0,1-1.88.58,3,3,0,0,1-3-3.18c0-1.94,1.06-3.37,2.7-3.37A2.74,2.74,0,0,1,34,24.05a3,3,0,0,1,0,.41H29.36a2.39,2.39,0,0,0,2.34,2.61,2.81,2.81,0,0,0,1.56-.43Zm-.2-3.2a2,2,0,0,0-2-2.18,2.26,2.26,0,0,0-2,2.18Z"/><path class="cls-1" d="M35.63,22.61a2.4,2.4,0,0,1,2.25-1.46v.64h-.22a2.09,2.09,0,0,0-2,2v3.72H35V21.36h.68Z"/><path class="cls-1" d="M41.7,21.66a3.53,3.53,0,0,1,1.9-.53,2.16,2.16,0,0,1,2,1.23,2.82,2.82,0,0,1,.16,1.06v2.91a5.07,5.07,0,0,0,.1,1.21h-.64a6,6,0,0,1-.15-.77,2.79,2.79,0,0,1-2.11.9,2,2,0,0,1-2-2c0-1.51,1.09-2.16,3-2.16a11.39,11.39,0,0,1,1.17.07v-.17a1.49,1.49,0,0,0-1.54-1.7,3.3,3.3,0,0,0-1.6.44Zm3.42,2.46c-.43,0-.75-.06-1.07-.06-1.65,0-2.42.54-2.42,1.63a1.43,1.43,0,0,0,1.54,1.39,1.82,1.82,0,0,0,1.95-1.59Z"/><path class="cls-1" d="M47.86,22.49a2.35,2.35,0,0,1,2.07-1.36,2.16,2.16,0,0,1,2.28,2.31v4.1h-.68v-4a1.63,1.63,0,0,0-1.67-1.79,2.18,2.18,0,0,0-2,2.3v3.53h-.68V21.36h.68Z"/><path class="cls-1" d="M58,22.49V18.74h.68v8.8H58V26.4a2.47,2.47,0,0,1-2.13,1.27c-1.59,0-2.67-1.2-2.67-3.23s1-3.31,2.72-3.31A2.42,2.42,0,0,1,58,22.49Zm-4.12,2c0,1.29.65,2.65,2,2.65S58,25.93,58,24.44v-.09c0-1.69-.87-2.64-2.07-2.64C54.53,21.71,53.88,23.1,53.88,24.44Z"/><path class="cls-1" d="M63,18.74h1v1H63Zm.15,2.62h.68v6.18h-.68Z"/><path class="cls-1" d="M66,22.49A2.34,2.34,0,0,1,68,21.13a2.16,2.16,0,0,1,2.28,2.31v4.1h-.68v-4A1.63,1.63,0,0,0,68,21.71,2.18,2.18,0,0,0,66,24v3.53h-.69V21.36H66Z"/><path class="cls-1" d="M76.09,22.49V18.74h.68v8.8h-.68V26.4A2.49,2.49,0,0,1,74,27.67c-1.59,0-2.67-1.2-2.67-3.23s1-3.31,2.71-3.31A2.45,2.45,0,0,1,76.09,22.49Zm-4.12,2c0,1.29.64,2.65,2,2.65s2.08-1.16,2.08-2.65v-.09c0-1.69-.88-2.64-2.08-2.64C72.61,21.71,72,23.1,72,24.44Z"/><path class="cls-1" d="M82.68,27.09a3.3,3.3,0,0,1-1.88.58,3,3,0,0,1-3-3.18c0-1.94,1.06-3.37,2.71-3.37a2.74,2.74,0,0,1,2.61,2.93c0,.14,0,.25,0,.41H78.51a2.38,2.38,0,0,0,2.34,2.61,2.78,2.78,0,0,0,1.55-.43Zm-.2-3.2a2,2,0,0,0-2-2.18,2.27,2.27,0,0,0-2,2.18Z"/><path class="cls-1" d="M86.84,21.13c1.69,0,2.72,1.29,2.72,3.33s-1,3.21-2.69,3.21a2.46,2.46,0,0,1-2.11-1.28v3.83h-.68V21.36h.68v1.13A2.39,2.39,0,0,1,86.84,21.13Zm0,.58c-1.2,0-2.07.95-2.07,2.64v.09c0,1.49.67,2.65,2.07,2.65s2-1.36,2-2.65S88.23,21.71,86.83,21.71Z"/><path class="cls-1" d="M95.09,27.09a3.32,3.32,0,0,1-1.88.58,3,3,0,0,1-3-3.18c0-1.94,1.06-3.37,2.7-3.37a2.74,2.74,0,0,1,2.62,2.93,3,3,0,0,1,0,.41H90.91a2.39,2.39,0,0,0,2.34,2.61,2.81,2.81,0,0,0,1.56-.43Zm-.2-3.2a2,2,0,0,0-2-2.18,2.26,2.26,0,0,0-2,2.18Z"/><path class="cls-1" d="M97.17,22.49a2.34,2.34,0,0,1,2.07-1.36,2.16,2.16,0,0,1,2.28,2.31v4.1h-.68v-4a1.63,1.63,0,0,0-1.67-1.79,2.18,2.18,0,0,0-2,2.3v3.53h-.68V21.36h.68Z"/><path class="cls-1" d="M107.31,22.49V18.74H108v8.8h-.68V26.4a2.47,2.47,0,0,1-2.13,1.27c-1.59,0-2.67-1.2-2.67-3.23s1-3.31,2.72-3.31A2.43,2.43,0,0,1,107.31,22.49Zm-4.12,2c0,1.29.65,2.65,2,2.65s2.07-1.16,2.07-2.65v-.09c0-1.69-.87-2.64-2.07-2.64C103.84,21.71,103.19,23.1,103.19,24.44Z"/><path class="cls-1" d="M113.9,27.09a3.27,3.27,0,0,1-1.88.58,3,3,0,0,1-3-3.18c0-1.94,1.06-3.37,2.71-3.37a2.74,2.74,0,0,1,2.61,2.93c0,.14,0,.25,0,.41h-4.61a2.39,2.39,0,0,0,2.34,2.61,2.78,2.78,0,0,0,1.55-.43Zm-.2-3.2a2,2,0,0,0-2-2.18,2.27,2.27,0,0,0-2,2.18Z"/><path class="cls-1" d="M116,22.49a2.35,2.35,0,0,1,2.08-1.36,2.16,2.16,0,0,1,2.28,2.31v4.1h-.69v-4A1.62,1.62,0,0,0,118,21.71a2.18,2.18,0,0,0-2,2.3v3.53h-.68V21.36H116Z"/><path class="cls-1" d="M122,19.68l.68-.23v1.91h1.5v.55h-1.5v4.14c0,.86.61,1,1.39,1v.6c-1.27,0-2.07-.31-2.07-1.57v-4.2h-1v-.55h1Z"/><path class="cls-1" d="M128.72,22.61A2.4,2.4,0,0,1,131,21.15v.64h-.21a2.1,2.1,0,0,0-2,2v3.72H128V21.36h.68Z"/><path class="cls-1" d="M135.68,27.09a3.3,3.3,0,0,1-1.88.58,3,3,0,0,1-3-3.18c0-1.94,1.06-3.37,2.71-3.37a2.74,2.74,0,0,1,2.61,2.93c0,.14,0,.25,0,.41h-4.61a2.38,2.38,0,0,0,2.34,2.61,2.78,2.78,0,0,0,1.55-.43Zm-.2-3.2a2,2,0,0,0-2-2.18,2.27,2.27,0,0,0-2,2.18Z"/><path class="cls-1" d="M139.94,22.11a2.72,2.72,0,0,0-1.31-.39c-.81,0-1.22.42-1.22,1s.54,1,1.54,1.44,1.6.87,1.6,1.8a1.79,1.79,0,0,1-2,1.74,2.81,2.81,0,0,1-2.08-.82l.37-.48a2.48,2.48,0,0,0,1.67.7c.73,0,1.34-.34,1.34-1.1,0-.56-.6-1-1.32-1.31s-1.82-.88-1.82-1.9a1.66,1.66,0,0,1,1.85-1.63,3.24,3.24,0,0,1,1.68.49Z"/><path class="cls-1" d="M146,27.09a3.32,3.32,0,0,1-1.88.58,3,3,0,0,1-3-3.18c0-1.94,1.06-3.37,2.7-3.37a2.74,2.74,0,0,1,2.62,2.93,3,3,0,0,1,0,.41h-4.61a2.39,2.39,0,0,0,2.34,2.61,2.81,2.81,0,0,0,1.56-.43Zm-.2-3.2a2,2,0,0,0-2-2.18,2.26,2.26,0,0,0-2,2.18Z"/><path class="cls-1" d="M147.72,21.66a3.58,3.58,0,0,1,1.91-.53,2.13,2.13,0,0,1,2,1.23,2.81,2.81,0,0,1,.17,1.06v2.91a5.62,5.62,0,0,0,.09,1.21h-.63a5.1,5.1,0,0,1-.16-.77,2.75,2.75,0,0,1-2.1.9,2,2,0,0,1-2.05-2c0-1.51,1.1-2.16,3-2.16a11.4,11.4,0,0,1,1.18.07v-.17a1.49,1.49,0,0,0-1.54-1.7,3.27,3.27,0,0,0-1.6.44Zm3.43,2.46c-.44,0-.76-.06-1.07-.06-1.65,0-2.43.54-2.43,1.63a1.43,1.43,0,0,0,1.54,1.39,1.83,1.83,0,0,0,2-1.59Z"/><path class="cls-1" d="M153.9,22.61a2.39,2.39,0,0,1,2.24-1.46v.64h-.21a2.09,2.09,0,0,0-2,2v3.72h-.68V21.36h.68Z"/><path class="cls-1" d="M161,27a2.91,2.91,0,0,1-2,.72,3,3,0,0,1-3-3.25A3,3,0,0,1,159,21.13a4.21,4.21,0,0,1,1.81.46l-.27.52a3.37,3.37,0,0,0-1.54-.39,2.45,2.45,0,0,0-2.36,2.71,2.45,2.45,0,0,0,2.38,2.64,2.51,2.51,0,0,0,1.6-.53Z"/><path class="cls-1" d="M162.56,22.48a2.36,2.36,0,0,1,2.08-1.35,2.16,2.16,0,0,1,2.28,2.31v4.1h-.68v-4a1.62,1.62,0,0,0-1.68-1.83,2.18,2.18,0,0,0-2,2.28v3.55h-.68v-8.8h.68Z"/><path class="cls-1" d="M171.55,21.66a3.54,3.54,0,0,1,1.91-.53,2.15,2.15,0,0,1,2,1.23,2.82,2.82,0,0,1,.16,1.06v2.91a5.07,5.07,0,0,0,.1,1.21h-.64a6,6,0,0,1-.15-.77,2.77,2.77,0,0,1-2.11.9,2,2,0,0,1-2-2c0-1.51,1.09-2.16,3-2.16a11.39,11.39,0,0,1,1.17.07v-.17a1.49,1.49,0,0,0-1.54-1.7,3.3,3.3,0,0,0-1.6.44ZM175,24.12c-.43,0-.75-.06-1.07-.06-1.64,0-2.42.54-2.42,1.63A1.43,1.43,0,0,0,173,27.08,1.82,1.82,0,0,0,175,25.49Z"/><path class="cls-1" d="M177.71,22.49a2.35,2.35,0,0,1,2.07-1.36,2.16,2.16,0,0,1,2.28,2.31v4.1h-.68v-4a1.63,1.63,0,0,0-1.67-1.79,2.18,2.18,0,0,0-2,2.3v3.53H177V21.36h.68Z"/><path class="cls-1" d="M187.85,22.49V18.74h.68v8.8h-.68V26.4a2.47,2.47,0,0,1-2.13,1.27c-1.59,0-2.67-1.2-2.67-3.23s1-3.31,2.72-3.31A2.42,2.42,0,0,1,187.85,22.49Zm-4.12,2c0,1.29.65,2.65,2.05,2.65s2.07-1.16,2.07-2.65v-.09c0-1.69-.87-2.64-2.07-2.64C184.38,21.71,183.73,23.1,183.73,24.44Z"/><path class="cls-1" d="M197.35,22.49V18.74H198v8.8h-.68V26.4a2.47,2.47,0,0,1-2.13,1.27c-1.59,0-2.67-1.2-2.67-3.23s1-3.31,2.72-3.31A2.42,2.42,0,0,1,197.35,22.49Zm-4.12,2c0,1.29.65,2.65,2.05,2.65s2.07-1.16,2.07-2.65v-.09c0-1.69-.87-2.64-2.07-2.64C193.88,21.71,193.23,23.1,193.23,24.44Z"/><path class="cls-1" d="M204,27.09a3.32,3.32,0,0,1-1.88.58,3,3,0,0,1-3-3.18c0-1.94,1.06-3.37,2.7-3.37a2.74,2.74,0,0,1,2.62,2.93,3,3,0,0,1,0,.41h-4.61a2.39,2.39,0,0,0,2.34,2.61,2.81,2.81,0,0,0,1.56-.43Zm-.2-3.2a2,2,0,0,0-2-2.18,2.26,2.26,0,0,0-2,2.18Z"/><path class="cls-1" d="M207.28,26.89l2-5.53H210l-2.31,6.18h-.75l-2.31-6.18h.69Z"/><path class="cls-1" d="M215,27.09a3.3,3.3,0,0,1-1.88.58,3,3,0,0,1-3-3.18c0-1.94,1.06-3.37,2.71-3.37a2.74,2.74,0,0,1,2.61,2.93c0,.14,0,.25,0,.41h-4.61a2.38,2.38,0,0,0,2.34,2.61,2.78,2.78,0,0,0,1.55-.43Zm-.2-3.2a2,2,0,0,0-2-2.18,2.27,2.27,0,0,0-2,2.18Z"/><path class="cls-1" d="M216.41,18.74h.69v8.8h-.69Z"/><path class="cls-1" d="M218.12,24.4c0-2,1.24-3.27,2.84-3.27s2.84,1.26,2.84,3.27-1.26,3.27-2.85,3.27S218.12,26.4,218.12,24.4Zm.68,0c0,1.7,1,2.71,2.15,2.71s2.17-1,2.17-2.71-1-2.7-2.16-2.7S218.8,22.67,218.8,24.4Z"/><path class="cls-1" d="M227.59,21.13c1.68,0,2.71,1.29,2.71,3.33s-1,3.21-2.69,3.21a2.46,2.46,0,0,1-2.11-1.28v3.83h-.68V21.36h.68v1.13A2.39,2.39,0,0,1,227.59,21.13Zm0,.58c-1.2,0-2.07.95-2.07,2.64v.09c0,1.49.67,2.65,2.07,2.65s2.05-1.36,2.05-2.65S229,21.71,227.57,21.71Z"/><path class="cls-1" d="M232.05,22.25a2,2,0,0,1,1.77-1.12,2.08,2.08,0,0,1,1.84,1.37,2.24,2.24,0,0,1,1.92-1.37,2,2,0,0,1,2.1,2.16v4.25H239V23.22a1.44,1.44,0,0,0-1.53-1.51,1.72,1.72,0,0,0-1.6,1.93v3.9h-.67v-4.2a1.49,1.49,0,0,0-1.52-1.63,1.77,1.77,0,0,0-1.64,1.91v3.92h-.67V21.36h.67Z"/><path class="cls-1" d="M245.5,27.09a3.33,3.33,0,0,1-1.89.58,3,3,0,0,1-3-3.18c0-1.94,1.05-3.37,2.7-3.37a2.74,2.74,0,0,1,2.61,2.93c0,.14,0,.25,0,.41h-4.61a2.39,2.39,0,0,0,2.34,2.61,2.76,2.76,0,0,0,1.55-.43Zm-.2-3.2a2,2,0,0,0-2-2.18,2.26,2.26,0,0,0-2,2.18Z"/><path class="cls-1" d="M247.58,22.49a2.34,2.34,0,0,1,2.07-1.36,2.16,2.16,0,0,1,2.28,2.31v4.1h-.68v-4a1.63,1.63,0,0,0-1.67-1.79,2.18,2.18,0,0,0-2,2.3v3.53h-.69V21.36h.69Z"/><path class="cls-1" d="M253.62,19.68l.68-.23v1.91h1.5v.55h-1.5v4.14c0,.86.61,1,1.39,1v.6c-1.27,0-2.07-.31-2.07-1.57v-4.2h-1v-.55h1Z"/><path class="cls-1" d="M259.19,24.4c0-2,1.25-3.27,2.85-3.27s2.84,1.26,2.84,3.27-1.26,3.27-2.85,3.27S259.19,26.4,259.19,24.4Zm.69,0c0,1.7,1,2.71,2.15,2.71s2.16-1,2.16-2.71-1-2.7-2.15-2.7S259.88,22.67,259.88,24.4Z"/><path class="cls-1" d="M266.13,21.35v-.8a3.53,3.53,0,0,1,.13-1,1.53,1.53,0,0,1,1.48-1.07,2.65,2.65,0,0,1,1,.2l-.21.53a2.94,2.94,0,0,0-.7-.12,1,1,0,0,0-.92.58,2.11,2.11,0,0,0-.12.82v.84h1.34v.56h-1.34v5.63h-.69V21.91h-.88v-.56Z"/><path class="cls-1" d="M16.63,39.49a2.34,2.34,0,0,1,2.07-1.36A2.16,2.16,0,0,1,21,40.44v4.1H20.3v-4a1.63,1.63,0,0,0-1.67-1.79,2.18,2.18,0,0,0-2,2.3v3.53h-.69V38.36h.69Z"/><path class="cls-1" d="M26.8,44.09a3.3,3.3,0,0,1-1.88.58,3,3,0,0,1-3-3.18c0-1.94,1.06-3.37,2.71-3.37a2.74,2.74,0,0,1,2.61,2.93c0,.14,0,.25,0,.41H22.62A2.39,2.39,0,0,0,25,44.07a2.81,2.81,0,0,0,1.56-.43Zm-.2-3.2a2,2,0,0,0-2-2.18,2.26,2.26,0,0,0-2,2.18Z"/><path class="cls-1" d="M33.29,43.58l1.46-5.22h.64l-1.78,6.18H33L31.46,39l-1.52,5.51H29.3l-1.77-6.18h.63l1.46,5.22,1.48-5.22h.71Z"/><path class="cls-1" d="M41.84,38.13c1.68,0,2.72,1.29,2.72,3.33s-1.05,3.21-2.7,3.21a2.44,2.44,0,0,1-2.1-1.28v3.83h-.68V38.36h.68v1.13A2.39,2.39,0,0,1,41.84,38.13Zm0,.58c-1.2,0-2.07.95-2.07,2.64v.09c0,1.49.67,2.65,2.07,2.65s2.05-1.36,2.05-2.65S43.23,38.71,41.83,38.71Z"/><path class="cls-1" d="M46.33,39.61a2.41,2.41,0,0,1,2.25-1.46v.64h-.21a2.1,2.1,0,0,0-2,2v3.72h-.68V38.36h.68Z"/><path class="cls-1" d="M48.42,41.4c0-2,1.25-3.27,2.85-3.27s2.84,1.26,2.84,3.27-1.26,3.27-2.85,3.27S48.42,43.4,48.42,41.4Zm.69,0c0,1.7,1,2.71,2.15,2.71s2.16-1,2.16-2.71-1-2.7-2.15-2.7S49.11,39.67,49.11,41.4Z"/><path class="cls-1" d="M59.54,39.49V35.74h.68v8.8h-.68V43.4a2.47,2.47,0,0,1-2.13,1.27c-1.59,0-2.67-1.2-2.67-3.23s1-3.31,2.72-3.31A2.42,2.42,0,0,1,59.54,39.49Zm-4.12,1.95c0,1.29.65,2.65,2,2.65s2.07-1.16,2.07-2.65v-.09c0-1.69-.87-2.64-2.07-2.64C56.07,38.71,55.42,40.1,55.42,41.44Z"/><path class="cls-1" d="M66,43.33a2.34,2.34,0,0,1-2.07,1.34,2.15,2.15,0,0,1-2.27-2.3v-4h.69v3.9A1.64,1.64,0,0,0,64,44.08a2.15,2.15,0,0,0,2-2.28V38.36h.69v6.18H66Z"/><path class="cls-1" d="M72.66,44a2.89,2.89,0,0,1-2,.72,3.05,3.05,0,0,1-3-3.25,3,3,0,0,1,3-3.29,4.21,4.21,0,0,1,1.81.46l-.27.52a3.34,3.34,0,0,0-1.54-.39,2.44,2.44,0,0,0-2.35,2.71,2.45,2.45,0,0,0,2.37,2.64,2.51,2.51,0,0,0,1.6-.53Z"/><path class="cls-1" d="M73.88,36.68l.69-.23v1.91h1.49v.55H74.57v4.14c0,.86.61,1,1.39,1v.6c-1.28,0-2.08-.31-2.08-1.57v-4.2h-1v-.55h1Z"/><path class="cls-1" d="M79.8,39.11a2.71,2.71,0,0,0-1.3-.39c-.82,0-1.23.42-1.23,1s.54,1,1.54,1.44,1.6.87,1.6,1.8a1.79,1.79,0,0,1-2,1.74,2.79,2.79,0,0,1-2.07-.82l.36-.48a2.48,2.48,0,0,0,1.67.7c.73,0,1.34-.34,1.34-1.1,0-.56-.6-1-1.32-1.31s-1.82-.88-1.82-1.9a1.66,1.66,0,0,1,1.85-1.63,3.22,3.22,0,0,1,1.68.49Z"/><path class="cls-1" d="M81.42,44.06h1.07v1.08H81.42Z"/><rect class="cls-2" x="0.25" y="3.65" width="7.56" height="7.56"/><polyline class="cls-3" points="2.1 5.39 4.03 8.8 6.99 0.5"/><path class="cls-1" d="M24.79,73.63,22.7,82.14h-.77l-1.84-7.45-1.84,7.45h-.8l-2.08-8.51h.68l1.81,7.56,1.84-7.56h.74l1.85,7.54,1.82-7.54Z"/><path class="cls-1" d="M29.74,81.7a3.29,3.29,0,0,1-1.88.57,3,3,0,0,1-3-3.17c0-1.95,1.06-3.37,2.71-3.37a2.73,2.73,0,0,1,2.61,2.92c0,.15,0,.25,0,.41H25.56a2.39,2.39,0,0,0,2.34,2.61,2.81,2.81,0,0,0,1.56-.43Zm-.2-3.2a2,2,0,0,0-2-2.19,2.26,2.26,0,0,0-2,2.19Z"/><path class="cls-1" d="M34.4,76.26a3.52,3.52,0,0,1,1.9-.52,2.14,2.14,0,0,1,2,1.22A2.86,2.86,0,0,1,38.49,78v2.9a5.57,5.57,0,0,0,.09,1.21H38a4.59,4.59,0,0,1-.15-.77,2.79,2.79,0,0,1-2.11.9,2,2,0,0,1-2-2c0-1.51,1.1-2.16,3-2.16a11.82,11.82,0,0,1,1.18.08V78a1.49,1.49,0,0,0-1.54-1.7,3.2,3.2,0,0,0-1.6.44Zm3.42,2.46c-.44,0-.75-.06-1.07-.06-1.65,0-2.42.54-2.42,1.63a1.44,1.44,0,0,0,1.54,1.4,1.83,1.83,0,0,0,2-1.6Z"/><path class="cls-1" d="M40.57,77.21a2.4,2.4,0,0,1,2.25-1.46v.65a.78.78,0,0,0-.22,0,2.09,2.09,0,0,0-2,2v3.72h-.68V76h.68Z"/><path class="cls-1" d="M47.53,81.7a3.29,3.29,0,0,1-1.88.57,3,3,0,0,1-3-3.17c0-1.95,1.06-3.37,2.71-3.37A2.73,2.73,0,0,1,48,78.65c0,.15,0,.25,0,.41H43.36a2.38,2.38,0,0,0,2.34,2.61,2.78,2.78,0,0,0,1.55-.43Zm-.2-3.2a2,2,0,0,0-2-2.19,2.27,2.27,0,0,0-2,2.19Z"/><path class="cls-1" d="M56.32,81.7a3.32,3.32,0,0,1-1.89.57,3,3,0,0,1-3-3.17c0-1.95,1.06-3.37,2.7-3.37a2.73,2.73,0,0,1,2.61,2.92c0,.15,0,.25,0,.41H52.14a2.39,2.39,0,0,0,2.34,2.61A2.81,2.81,0,0,0,56,81.24Zm-.2-3.2a2.05,2.05,0,0,0-2-2.19,2.26,2.26,0,0,0-2,2.19Z"/><path class="cls-1" d="M62.13,77.09V76h.68v8.87h-.68V81A2.46,2.46,0,0,1,60,82.27c-1.65,0-2.69-1.21-2.69-3.21s1-3.32,2.71-3.32A2.38,2.38,0,0,1,62.13,77.09Zm-4.12,2c0,1.28.65,2.65,2.05,2.65s2.07-1.17,2.07-2.65c0-1.79-.87-2.74-2.07-2.74C58.66,76.31,58,77.7,58,79.05Z"/><path class="cls-1" d="M68.57,80.93a2.32,2.32,0,0,1-2.07,1.34A2.15,2.15,0,0,1,64.23,80V76h.68v3.9a1.66,1.66,0,0,0,1.66,1.83,2.16,2.16,0,0,0,2-2.28V76h.68v6.18h-.68Z"/><path class="cls-1" d="M70.56,73.34h1v1h-1ZM70.71,76h.68v6.18h-.68Z"/><path class="cls-1" d="M75.63,75.74c1.68,0,2.71,1.28,2.71,3.32s-1,3.21-2.69,3.21A2.46,2.46,0,0,1,73.54,81v3.84h-.68V76h.68v1.13A2.38,2.38,0,0,1,75.63,75.74Zm0,.57c-1.2,0-2.07,1-2.07,2.64v.1c0,1.48.67,2.65,2.07,2.65s2-1.37,2-2.65S77,76.31,75.61,76.31Z"/><path class="cls-1" d="M82.19,75.74c1.68,0,2.72,1.28,2.72,3.32s-1,3.21-2.7,3.21A2.44,2.44,0,0,1,80.11,81v3.84h-.69V76h.69v1.13A2.35,2.35,0,0,1,82.19,75.74Zm0,.57c-1.2,0-2.07,1-2.07,2.64v.1c0,1.48.67,2.65,2.07,2.65s2-1.37,2-2.65S83.58,76.31,82.18,76.31Z"/><path class="cls-1" d="M90.43,81.7a3.29,3.29,0,0,1-1.88.57,3,3,0,0,1-3-3.17c0-1.95,1.06-3.37,2.71-3.37a2.73,2.73,0,0,1,2.61,2.92c0,.15,0,.25,0,.41H86.26a2.38,2.38,0,0,0,2.34,2.61,2.78,2.78,0,0,0,1.55-.43Zm-.2-3.2a2,2,0,0,0-2-2.19,2.27,2.27,0,0,0-2,2.19Z"/><path class="cls-1" d="M96.24,77.09V73.34h.68v8.8h-.68V81a2.47,2.47,0,0,1-2.13,1.27c-1.59,0-2.67-1.2-2.67-3.22s1-3.31,2.72-3.31A2.43,2.43,0,0,1,96.24,77.09Zm-4.12,2c0,1.28.65,2.65,2,2.65s2.07-1.17,2.07-2.65V79c0-1.69-.87-2.64-2.07-2.64C92.77,76.31,92.12,77.7,92.12,79.05Z"/><path class="cls-1" d="M106.43,81.18,107.88,76h.64l-1.78,6.18h-.63l-1.52-5.5-1.52,5.5h-.63L100.66,76h.64l1.46,5.22L104.24,76h.7Z"/><path class="cls-1" d="M109.14,73.34h1v1h-1Zm.15,2.62H110v6.18h-.69Z"/><path class="cls-1" d="M111.76,74.29l.69-.23V76h1.49v.56h-1.49v4.13c0,.87.61,1,1.38,1v.6c-1.27,0-2.07-.32-2.07-1.58V76.52h-1V76h1Z"/><path class="cls-1" d="M115.5,77.08a2.35,2.35,0,0,1,2.07-1.34,2.16,2.16,0,0,1,2.29,2.3v4.1h-.69v-4a1.63,1.63,0,0,0-1.67-1.84,2.18,2.18,0,0,0-2,2.28v3.55h-.68v-8.8h.68Z"/><path class="cls-1" d="M124.49,74.29l.68-.23V76h1.49v.56h-1.49v4.13c0,.87.61,1,1.39,1v.6c-1.27,0-2.07-.32-2.07-1.58V76.52h-1V76h1Z"/><path class="cls-1" d="M128.23,77.08a2.34,2.34,0,0,1,2.07-1.34,2.16,2.16,0,0,1,2.28,2.3v4.1h-.68v-4a1.63,1.63,0,0,0-1.67-1.84,2.17,2.17,0,0,0-2,2.28v3.55h-.69v-8.8h.69Z"/><path class="cls-1" d="M138.4,81.7a3.29,3.29,0,0,1-1.88.57,3,3,0,0,1-3-3.17c0-1.95,1.06-3.37,2.71-3.37a2.73,2.73,0,0,1,2.61,2.92c0,.15,0,.25,0,.41h-4.62a2.39,2.39,0,0,0,2.34,2.61,2.81,2.81,0,0,0,1.56-.43Zm-.2-3.2a2,2,0,0,0-2-2.19,2.26,2.26,0,0,0-2,2.19Z"/><path class="cls-1" d="M142.75,73.34h.68v8.8h-.68Z"/><path class="cls-1" d="M145.2,76.26a3.52,3.52,0,0,1,1.9-.52,2.14,2.14,0,0,1,2,1.22,2.86,2.86,0,0,1,.17,1.07v2.9a5.57,5.57,0,0,0,.09,1.21h-.63a4.59,4.59,0,0,1-.15-.77,2.79,2.79,0,0,1-2.11.9,2,2,0,0,1-2.05-2c0-1.51,1.1-2.16,3-2.16a11.82,11.82,0,0,1,1.18.08V78a1.49,1.49,0,0,0-1.54-1.7,3.2,3.2,0,0,0-1.6.44Zm3.42,2.46c-.44,0-.75-.06-1.07-.06-1.65,0-2.43.54-2.43,1.63a1.44,1.44,0,0,0,1.55,1.4,1.83,1.83,0,0,0,2-1.6Z"/><path class="cls-1" d="M151,74.29l.69-.23V76h1.49v.56h-1.49v4.13c0,.87.61,1,1.38,1v.6c-1.27,0-2.07-.32-2.07-1.58V76.52h-1V76h1Z"/><path class="cls-1" d="M158.38,81.7a3.29,3.29,0,0,1-1.88.57,3,3,0,0,1-3-3.17c0-1.95,1.06-3.37,2.71-3.37a2.73,2.73,0,0,1,2.61,2.92c0,.15,0,.25,0,.41H154.2a2.39,2.39,0,0,0,2.34,2.61,2.81,2.81,0,0,0,1.56-.43Zm-.2-3.2a2,2,0,0,0-2-2.19,2.26,2.26,0,0,0-2,2.19Z"/><path class="cls-1" d="M162.64,76.71a2.71,2.71,0,0,0-1.31-.38c-.81,0-1.22.41-1.22,1s.54,1,1.54,1.44,1.6.86,1.6,1.79a1.79,1.79,0,0,1-2,1.74,2.83,2.83,0,0,1-2.07-.81l.37-.48a2.52,2.52,0,0,0,1.67.69c.73,0,1.34-.33,1.34-1.1,0-.55-.6-1-1.32-1.31s-1.82-.87-1.82-1.89a1.65,1.65,0,0,1,1.84-1.63,3.19,3.19,0,0,1,1.69.49Z"/><path class="cls-1" d="M164.58,74.29l.68-.23V76h1.49v.56h-1.49v4.13c0,.87.61,1,1.39,1v.6c-1.27,0-2.07-.32-2.07-1.58V76.52h-1V76h1Z"/><path class="cls-1" d="M171.24,76.85A2,2,0,0,1,173,75.74a2.09,2.09,0,0,1,1.85,1.36,2.22,2.22,0,0,1,1.91-1.36,2,2,0,0,1,2.1,2.16v4.24h-.67V77.82a1.44,1.44,0,0,0-1.53-1.51,1.72,1.72,0,0,0-1.6,1.93v3.9h-.67v-4.2a1.49,1.49,0,0,0-1.52-1.63,1.77,1.77,0,0,0-1.64,1.91v3.92h-.67V76h.67Z"/><path class="cls-1" d="M180.56,76.26a3.52,3.52,0,0,1,1.9-.52,2.17,2.17,0,0,1,2,1.22,3.09,3.09,0,0,1,.16,1.07v2.9a5,5,0,0,0,.1,1.21h-.64a6,6,0,0,1-.15-.77,2.79,2.79,0,0,1-2.11.9,2,2,0,0,1-2-2c0-1.51,1.1-2.16,3-2.16a11.82,11.82,0,0,1,1.18.08V78a1.49,1.49,0,0,0-1.54-1.7,3.2,3.2,0,0,0-1.6.44ZM184,78.72c-.43,0-.75-.06-1.07-.06-1.65,0-2.42.54-2.42,1.63a1.44,1.44,0,0,0,1.54,1.4,1.83,1.83,0,0,0,1.95-1.6Z"/><path class="cls-1" d="M190.6,81.55a2.84,2.84,0,0,1-2,.72,3,3,0,0,1-3-3.25,3,3,0,0,1,3.05-3.28,4.21,4.21,0,0,1,1.81.45l-.27.52a3.34,3.34,0,0,0-1.54-.38,2.69,2.69,0,0,0,0,5.34,2.5,2.5,0,0,0,1.6-.52Z"/><path class="cls-1" d="M192.19,77.08a2.34,2.34,0,0,1,2.07-1.34,2.16,2.16,0,0,1,2.28,2.3v4.1h-.68v-4a1.63,1.63,0,0,0-1.67-1.84,2.17,2.17,0,0,0-2,2.28v3.55h-.68v-8.8h.68Z"/><path class="cls-1" d="M197.79,73.34h1v1h-1Zm.15,2.62h.68v6.18h-.68Z"/><path class="cls-1" d="M200.77,77.09a2.36,2.36,0,0,1,2.07-1.35,2.16,2.16,0,0,1,2.29,2.3v4.1h-.69v-4a1.63,1.63,0,0,0-1.67-1.79,2.18,2.18,0,0,0-2,2.31v3.52h-.68V76h.68Z"/><path class="cls-1" d="M211,81.7a3.32,3.32,0,0,1-1.89.57,3,3,0,0,1-3-3.17c0-1.95,1-3.37,2.7-3.37a2.73,2.73,0,0,1,2.61,2.92c0,.15,0,.25,0,.41h-4.61a2.39,2.39,0,0,0,2.34,2.61,2.76,2.76,0,0,0,1.55-.43Zm-.2-3.2a2.05,2.05,0,0,0-2-2.19,2.26,2.26,0,0,0-2,2.19Z"/><path class="cls-1" d="M213,77.21a2.39,2.39,0,0,1,2.24-1.46v.65a.75.75,0,0,0-.21,0,2.09,2.09,0,0,0-2,2v3.72h-.68V76H213Z"/><path class="cls-1" d="M215.27,84.22a2.6,2.6,0,0,0,2.1-2L215.1,76h.72l1.91,5.44L219.6,76h.73l-2,5.7c-.64,1.78-1.16,2.77-2.79,3.17Z"/><path class="cls-1" d="M224.23,76.26a3.57,3.57,0,0,1,1.91-.52,2.16,2.16,0,0,1,2,1.22,2.86,2.86,0,0,1,.17,1.07v2.9a5.57,5.57,0,0,0,.09,1.21h-.63a5.1,5.1,0,0,1-.16-.77,2.75,2.75,0,0,1-2.1.9,2,2,0,0,1-2.05-2c0-1.51,1.09-2.16,3-2.16a11.82,11.82,0,0,1,1.18.08V78a1.49,1.49,0,0,0-1.54-1.7,3.17,3.17,0,0,0-1.6.44Zm3.43,2.46c-.44,0-.76-.06-1.07-.06-1.65,0-2.43.54-2.43,1.63a1.44,1.44,0,0,0,1.54,1.4,1.84,1.84,0,0,0,2-1.6Z"/><path class="cls-1" d="M230.4,77.09a2.33,2.33,0,0,1,2.07-1.35,2.16,2.16,0,0,1,2.28,2.3v4.1h-.68v-4a1.63,1.63,0,0,0-1.67-1.79,2.18,2.18,0,0,0-2,2.31v3.52h-.69V76h.69Z"/><path class="cls-1" d="M240.53,77.09V73.34h.69v8.8h-.69V81a2.46,2.46,0,0,1-2.13,1.27c-1.58,0-2.67-1.2-2.67-3.22s1-3.31,2.72-3.31A2.43,2.43,0,0,1,240.53,77.09Zm-4.11,2c0,1.28.64,2.65,2,2.65s2.07-1.17,2.07-2.65V79c0-1.69-.87-2.64-2.07-2.64C237.06,76.31,236.42,77.7,236.42,79.05Z"/><path class="cls-1" d="M250.07,81.7a3.29,3.29,0,0,1-1.88.57,3,3,0,0,1-3-3.17c0-1.95,1.06-3.37,2.71-3.37a2.73,2.73,0,0,1,2.61,2.92c0,.15,0,.25,0,.41h-4.62a2.4,2.4,0,0,0,2.35,2.61,2.78,2.78,0,0,0,1.55-.43Zm-.2-3.2a2,2,0,0,0-2-2.19,2.26,2.26,0,0,0-2,2.19Z"/><path class="cls-1" d="M255.88,77.09V76h.68v8.87h-.68V81a2.46,2.46,0,0,1-2.11,1.28c-1.64,0-2.69-1.21-2.69-3.21s1-3.32,2.72-3.32A2.38,2.38,0,0,1,255.88,77.09Zm-4.12,2c0,1.28.65,2.65,2.05,2.65s2.07-1.17,2.07-2.65c0-1.79-.87-2.74-2.07-2.74C252.41,76.31,251.76,77.7,251.76,79.05Z"/><path class="cls-1" d="M262.32,80.93a2.31,2.31,0,0,1-2.07,1.34A2.15,2.15,0,0,1,258,80V76h.69v3.9a1.65,1.65,0,0,0,1.65,1.83,2.16,2.16,0,0,0,2-2.28V76H263v6.18h-.69Z"/><path class="cls-1" d="M264.31,73.34h1v1h-1Zm.15,2.62h.69v6.18h-.69Z"/><path class="cls-1" d="M269.38,75.74c1.68,0,2.72,1.28,2.72,3.32s-1.05,3.21-2.7,3.21A2.44,2.44,0,0,1,267.3,81v3.84h-.68V76h.68v1.13A2.38,2.38,0,0,1,269.38,75.74Zm0,.57c-1.2,0-2.07,1-2.07,2.64v.1c0,1.48.67,2.65,2.07,2.65s2-1.37,2-2.65S270.77,76.31,269.37,76.31Z"/><path class="cls-1" d="M273.85,76.85a2,2,0,0,1,1.76-1.11,2.09,2.09,0,0,1,1.85,1.36,2.23,2.23,0,0,1,1.92-1.36,2,2,0,0,1,2.09,2.16v4.24h-.67V77.82a1.43,1.43,0,0,0-1.53-1.51,1.72,1.72,0,0,0-1.6,1.93v3.9H277v-4.2a1.49,1.49,0,0,0-1.52-1.63,1.76,1.76,0,0,0-1.63,1.91v3.92h-.67V76h.67Z"/><path class="cls-1" d="M287.29,81.7a3.29,3.29,0,0,1-1.88.57,3,3,0,0,1-3-3.17c0-1.95,1.06-3.37,2.71-3.37a2.73,2.73,0,0,1,2.61,2.92c0,.15,0,.25,0,.41h-4.62a2.4,2.4,0,0,0,2.35,2.61,2.78,2.78,0,0,0,1.55-.43Zm-.2-3.2a2,2,0,0,0-2-2.19,2.26,2.26,0,0,0-2,2.19Z"/><path class="cls-1" d="M289.37,77.09a2.36,2.36,0,0,1,2.07-1.35,2.16,2.16,0,0,1,2.28,2.3v4.1H293v-4a1.63,1.63,0,0,0-1.67-1.79,2.18,2.18,0,0,0-2,2.31v3.52h-.68V76h.68Z"/><path class="cls-1" d="M295.41,74.29l.69-.23V76h1.49v.56H296.1v4.13c0,.87.61,1,1.39,1v.6c-1.28,0-2.08-.32-2.08-1.58V76.52h-1V76h1Z"/><path class="cls-1" d="M16.26,93.26a3.53,3.53,0,0,1,1.91-.52,2.16,2.16,0,0,1,2,1.22A2.86,2.86,0,0,1,20.36,95v2.9a5.57,5.57,0,0,0,.09,1.21h-.64a6,6,0,0,1-.15-.77,2.76,2.76,0,0,1-2.1.9,2,2,0,0,1-2-2c0-1.51,1.09-2.16,3-2.16.3,0,.7,0,1.17.08V95a1.49,1.49,0,0,0-1.54-1.7,3.2,3.2,0,0,0-1.6.44Zm3.42,2.46c-.43,0-.75-.06-1.07-.06-1.64,0-2.42.54-2.42,1.63a1.44,1.44,0,0,0,1.54,1.4,1.83,1.83,0,0,0,1.95-1.6Z"/><path class="cls-1" d="M22.42,94.09a2.36,2.36,0,0,1,2.07-1.35A2.16,2.16,0,0,1,26.78,95v4.1h-.69v-4a1.62,1.62,0,0,0-1.67-1.79,2.18,2.18,0,0,0-2,2.31v3.52h-.68V93h.68Z"/><path class="cls-1" d="M32.56,94.09V90.34h.68v8.8h-.68V98a2.46,2.46,0,0,1-2.13,1.27c-1.59,0-2.67-1.2-2.67-3.22s1-3.31,2.72-3.31A2.43,2.43,0,0,1,32.56,94.09Zm-4.12,2c0,1.28.65,2.65,2,2.65s2.07-1.17,2.07-2.65V96c0-1.69-.87-2.64-2.07-2.64C29.09,93.31,28.44,94.7,28.44,96.05Z"/><path class="cls-1" d="M37.23,96c0-2,1.25-3.26,2.85-3.26S42.91,94,42.91,96s-1.26,3.27-2.85,3.27S37.23,98,37.23,96Zm.68,0c0,1.7,1,2.71,2.15,2.71s2.17-1,2.17-2.71-1-2.7-2.15-2.7S37.91,94.27,37.91,96Z"/><path class="cls-1" d="M46.7,92.74c1.68,0,2.71,1.28,2.71,3.32s-1,3.21-2.69,3.21A2.47,2.47,0,0,1,44.61,98v3.84h-.68V93h.68v1.13A2.38,2.38,0,0,1,46.7,92.74Zm0,.57c-1.2,0-2.08,1-2.08,2.64v.1c0,1.48.68,2.65,2.08,2.65s2-1.37,2-2.65S48.09,93.31,46.69,93.31Z"/><path class="cls-1" d="M50.81,91.29l.68-.23V93H53v.56h-1.5v4.13c0,.87.62,1,1.39,1v.6c-1.27,0-2.07-.32-2.07-1.58V93.52h-1V93h1Z"/><path class="cls-1" d="M53.74,90.34h1v1h-1ZM53.89,93h.69v6.18h-.69Z"/><path class="cls-1" d="M56.72,93.85a2,2,0,0,1,1.76-1.11,2.09,2.09,0,0,1,1.85,1.36,2.23,2.23,0,0,1,1.91-1.36,2,2,0,0,1,2.1,2.16v4.24h-.67V94.82a1.43,1.43,0,0,0-1.53-1.51,1.72,1.72,0,0,0-1.6,1.93v3.9h-.67v-4.2a1.49,1.49,0,0,0-1.52-1.63,1.76,1.76,0,0,0-1.63,1.91v3.92H56V93h.68Z"/><path class="cls-1" d="M65.58,90.34h1v1h-1ZM65.74,93h.68v6.18h-.68Z"/><path class="cls-1" d="M67.33,98.64l3.77-5.12H67.56V93H71.9v.54l-3.75,5.07h4v.57H67.33Z"/><path class="cls-1" d="M77.4,98.7a3.29,3.29,0,0,1-1.88.57,3,3,0,0,1-3-3.17c0-1.95,1.06-3.37,2.71-3.37a2.73,2.73,0,0,1,2.61,2.92c0,.15,0,.25,0,.41H73.23a2.38,2.38,0,0,0,2.34,2.61,2.78,2.78,0,0,0,1.55-.43Zm-.2-3.2a2,2,0,0,0-2-2.19,2.27,2.27,0,0,0-2,2.19Z"/><path class="cls-1" d="M83.21,94.09V90.34h.68v8.8h-.68V98a2.47,2.47,0,0,1-2.13,1.27c-1.59,0-2.67-1.2-2.67-3.22s1-3.31,2.72-3.31A2.43,2.43,0,0,1,83.21,94.09Zm-4.12,2c0,1.28.65,2.65,2,2.65s2.07-1.17,2.07-2.65V96c0-1.69-.87-2.64-2.07-2.64C79.74,93.31,79.09,94.7,79.09,96.05Z"/><path class="cls-1" d="M91.07,92.74c1.68,0,2.71,1.28,2.71,3.32s-1,3.21-2.69,3.21A2.47,2.47,0,0,1,89,98v3.84H88.3V93H89v1.13A2.38,2.38,0,0,1,91.07,92.74Zm0,.57c-1.21,0-2.08,1-2.08,2.64v.1c0,1.48.67,2.65,2.08,2.65s2-1.37,2-2.65S92.46,93.31,91.06,93.31Z"/><path class="cls-1" d="M95.56,94.21a2.4,2.4,0,0,1,2.25-1.46v.65a.86.86,0,0,0-.22,0,2.09,2.09,0,0,0-2,2v3.72h-.68V93h.68Z"/><path class="cls-1" d="M97.65,96c0-2,1.25-3.26,2.85-3.26S103.33,94,103.33,96s-1.26,3.27-2.84,3.27S97.65,98,97.65,96Zm.68,0c0,1.7,1,2.71,2.16,2.71s2.16-1,2.16-2.71-1-2.7-2.15-2.7S98.33,94.27,98.33,96Z"/><path class="cls-1" d="M108.92,98.55a2.87,2.87,0,0,1-2,.72,3.27,3.27,0,0,1,0-6.53,4.21,4.21,0,0,1,1.81.45l-.27.52a3.37,3.37,0,0,0-1.54-.38,2.69,2.69,0,0,0,0,5.34,2.5,2.5,0,0,0,1.6-.52Z"/><path class="cls-1" d="M114.27,98.7a3.31,3.31,0,0,1-1.88.57,3,3,0,0,1-3-3.17c0-1.95,1.06-3.37,2.7-3.37a2.73,2.73,0,0,1,2.62,2.92c0,.15,0,.25,0,.41h-4.62a2.39,2.39,0,0,0,2.34,2.61,2.81,2.81,0,0,0,1.56-.43Zm-.2-3.2a2,2,0,0,0-2-2.19,2.26,2.26,0,0,0-2,2.19Z"/><path class="cls-1" d="M118.53,93.71a2.71,2.71,0,0,0-1.31-.38c-.81,0-1.22.41-1.22,1s.54,1,1.54,1.44,1.6.86,1.6,1.79a1.79,1.79,0,0,1-2,1.74,2.83,2.83,0,0,1-2.07-.81l.37-.48a2.52,2.52,0,0,0,1.67.69c.73,0,1.34-.33,1.34-1.1,0-.55-.6-1-1.32-1.31s-1.82-.87-1.82-1.89a1.65,1.65,0,0,1,1.84-1.63,3.19,3.19,0,0,1,1.69.49Z"/><path class="cls-1" d="M123,93.71a2.71,2.71,0,0,0-1.31-.38c-.81,0-1.22.41-1.22,1s.54,1,1.54,1.44,1.6.86,1.6,1.79a1.79,1.79,0,0,1-2,1.74,2.83,2.83,0,0,1-2.07-.81l.37-.48a2.52,2.52,0,0,0,1.67.69c.73,0,1.34-.33,1.34-1.1,0-.55-.6-1-1.32-1.31s-1.82-.87-1.82-1.89a1.65,1.65,0,0,1,1.84-1.63,3.19,3.19,0,0,1,1.69.49Z"/><path class="cls-1" d="M130.43,93.71a2.71,2.71,0,0,0-1.31-.38c-.81,0-1.22.41-1.22,1s.54,1,1.54,1.44,1.6.86,1.6,1.79a1.79,1.79,0,0,1-2,1.74,2.83,2.83,0,0,1-2.07-.81l.37-.48a2.52,2.52,0,0,0,1.67.69c.73,0,1.34-.33,1.34-1.1,0-.55-.6-1-1.32-1.31s-1.82-.87-1.82-1.89a1.65,1.65,0,0,1,1.84-1.63,3.19,3.19,0,0,1,1.69.49Z"/><path class="cls-1" d="M131.47,101.22a2.6,2.6,0,0,0,2.1-2L131.3,93H132l1.91,5.44L135.8,93h.73l-2,5.7c-.64,1.78-1.16,2.77-2.79,3.17Z"/><path class="cls-1" d="M140,93.71a2.67,2.67,0,0,0-1.3-.38c-.81,0-1.23.41-1.23,1s.55,1,1.55,1.44,1.6.86,1.6,1.79a1.79,1.79,0,0,1-2,1.74,2.82,2.82,0,0,1-2.07-.81L137,98a2.52,2.52,0,0,0,1.67.69c.73,0,1.35-.33,1.35-1.1,0-.55-.6-1-1.32-1.31s-1.83-.87-1.83-1.89a1.65,1.65,0,0,1,1.85-1.63,3.13,3.13,0,0,1,1.68.49Z"/><path class="cls-1" d="M142,91.29l.69-.23V93h1.49v.56h-1.49v4.13c0,.87.61,1,1.38,1v.6c-1.27,0-2.07-.32-2.07-1.58V93.52h-1V93h1Z"/><path class="cls-1" d="M149.36,98.7a3.29,3.29,0,0,1-1.88.57,3,3,0,0,1-3-3.17c0-1.95,1.06-3.37,2.71-3.37a2.73,2.73,0,0,1,2.61,2.92c0,.15,0,.25,0,.41h-4.62a2.39,2.39,0,0,0,2.34,2.61,2.81,2.81,0,0,0,1.56-.43Zm-.2-3.2a2,2,0,0,0-2-2.19,2.26,2.26,0,0,0-2,2.19Z"/><path class="cls-1" d="M151.43,93.85a2,2,0,0,1,1.76-1.11A2.09,2.09,0,0,1,155,94.1,2.23,2.23,0,0,1,157,92.74a2,2,0,0,1,2.09,2.16v4.24h-.67V94.82a1.43,1.43,0,0,0-1.53-1.51,1.72,1.72,0,0,0-1.6,1.93v3.9h-.67v-4.2a1.49,1.49,0,0,0-1.52-1.63,1.76,1.76,0,0,0-1.63,1.91v3.92h-.67V93h.67Z"/><path class="cls-1" d="M160.45,98.66h1.07v1a1.7,1.7,0,0,1-.07.56,2.38,2.38,0,0,1-.93,1.28l-.19-.18a2,2,0,0,0,.73-1.54h-.61Z"/><path class="cls-1" d="M166.15,93.26a3.55,3.55,0,0,1,1.91-.52,2.16,2.16,0,0,1,2,1.22,2.86,2.86,0,0,1,.17,1.07v2.9a5.57,5.57,0,0,0,.09,1.21h-.64a6,6,0,0,1-.15-.77,2.76,2.76,0,0,1-2.1.9,2,2,0,0,1-2-2c0-1.51,1.09-2.16,3-2.16.3,0,.7,0,1.18.08V95a1.5,1.5,0,0,0-1.55-1.7,3.2,3.2,0,0,0-1.6.44Zm3.43,2.46c-.44,0-.76-.06-1.08-.06-1.64,0-2.42.54-2.42,1.63a1.44,1.44,0,0,0,1.54,1.4,1.84,1.84,0,0,0,2-1.6Z"/><path class="cls-1" d="M172.31,94.09a2.36,2.36,0,0,1,2.07-1.35,2.16,2.16,0,0,1,2.29,2.3v4.1H176v-4a1.62,1.62,0,0,0-1.67-1.79,2.18,2.18,0,0,0-2,2.31v3.52h-.68V93h.68Z"/><path class="cls-1" d="M182.45,94.09V90.34h.68v8.8h-.68V98a2.46,2.46,0,0,1-2.13,1.27c-1.59,0-2.67-1.2-2.67-3.22s1-3.31,2.72-3.31A2.43,2.43,0,0,1,182.45,94.09Zm-4.12,2c0,1.28.65,2.65,2,2.65s2.07-1.17,2.07-2.65V96c0-1.69-.87-2.64-2.07-2.64C179,93.31,178.33,94.7,178.33,96.05Z"/><path class="cls-1" d="M190.31,92.74C192,92.74,193,94,193,96.06s-1,3.21-2.69,3.21a2.44,2.44,0,0,1-2.1-1.28v3.84h-.69V93h.69v1.13A2.35,2.35,0,0,1,190.31,92.74Zm0,.57c-1.2,0-2.07,1-2.07,2.64v.1c0,1.48.67,2.65,2.07,2.65s2-1.37,2-2.65S191.7,93.31,190.3,93.31Z"/><path class="cls-1" d="M194.8,94.21a2.4,2.4,0,0,1,2.25-1.46v.65a.82.82,0,0,0-.22,0,2.09,2.09,0,0,0-2,2v3.72h-.68V93h.68Z"/><path class="cls-1" d="M196.89,96c0-2,1.25-3.26,2.85-3.26S202.57,94,202.57,96s-1.26,3.27-2.84,3.27S196.89,98,196.89,96Zm.68,0c0,1.7,1,2.71,2.16,2.71s2.16-1,2.16-2.71-1-2.7-2.15-2.7S197.57,94.27,197.57,96Z"/><path class="cls-1" d="M205.41,98.49l2-5.53h.68l-2.31,6.18H205L202.72,93h.69Z"/><path class="cls-1" d="M208.68,90.34h1v1h-1Zm.15,2.62h.68v6.18h-.68Z"/><path class="cls-1" d="M215.39,94.09V90.34h.68v8.8h-.68V98a2.47,2.47,0,0,1-2.13,1.27c-1.59,0-2.67-1.2-2.67-3.22s1-3.31,2.72-3.31A2.43,2.43,0,0,1,215.39,94.09Zm-4.12,2c0,1.28.65,2.65,2,2.65s2.07-1.17,2.07-2.65V96c0-1.69-.87-2.64-2.07-2.64C211.92,93.31,211.27,94.7,211.27,96.05Z"/><path class="cls-1" d="M222,98.7a3.31,3.31,0,0,1-1.88.57,3,3,0,0,1-3-3.17c0-1.95,1.06-3.37,2.7-3.37a2.73,2.73,0,0,1,2.62,2.92,2.88,2.88,0,0,1,0,.41h-4.61a2.39,2.39,0,0,0,2.34,2.61,2.81,2.81,0,0,0,1.56-.43Zm-.2-3.2a2,2,0,0,0-2-2.19,2.26,2.26,0,0,0-2,2.19Z"/><path class="cls-1" d="M229.09,92.74c1.68,0,2.72,1.28,2.72,3.32s-1.05,3.21-2.7,3.21A2.45,2.45,0,0,1,227,98v3.84h-.68V93H227v1.13A2.38,2.38,0,0,1,229.09,92.74Zm0,.57c-1.2,0-2.07,1-2.07,2.64v.1c0,1.48.67,2.65,2.07,2.65s2-1.37,2-2.65S230.48,93.31,229.08,93.31Z"/><path class="cls-1" d="M233.58,94.21a2.41,2.41,0,0,1,2.25-1.46v.65a.75.75,0,0,0-.21,0,2.1,2.1,0,0,0-2,2v3.72h-.68V93h.68Z"/><path class="cls-1" d="M235.68,96c0-2,1.24-3.26,2.84-3.26S241.36,94,241.36,96s-1.26,3.27-2.85,3.27S235.68,98,235.68,96Zm.68,0c0,1.7,1,2.71,2.15,2.71s2.17-1,2.17-2.71-1-2.7-2.16-2.7S236.36,94.27,236.36,96Z"/><path class="cls-1" d="M246.79,94.09V90.34h.68v8.8h-.68V98a2.47,2.47,0,0,1-2.13,1.27c-1.59,0-2.67-1.2-2.67-3.22s1-3.31,2.72-3.31A2.43,2.43,0,0,1,246.79,94.09Zm-4.12,2c0,1.28.65,2.65,2.05,2.65s2.07-1.17,2.07-2.65V96c0-1.69-.87-2.64-2.07-2.64C243.32,93.31,242.67,94.7,242.67,96.05Z"/><path class="cls-1" d="M253.23,97.93a2.31,2.31,0,0,1-2.07,1.34,2.15,2.15,0,0,1-2.27-2.3V93h.69v3.9a1.65,1.65,0,0,0,1.65,1.83,2.16,2.16,0,0,0,2-2.28V93h.69v6.18h-.69Z"/><path class="cls-1" d="M259.91,98.55a2.84,2.84,0,0,1-2,.72,3,3,0,0,1-3-3.25,3,3,0,0,1,3-3.28,4.21,4.21,0,0,1,1.81.45l-.27.52a3.34,3.34,0,0,0-1.54-.38,2.69,2.69,0,0,0,0,5.34,2.49,2.49,0,0,0,1.59-.52Z"/><path class="cls-1" d="M261.14,91.29l.68-.23V93h1.49v.56h-1.49v4.13c0,.87.61,1,1.39,1v.6c-1.27,0-2.07-.32-2.07-1.58V93.52h-1V93h1Z"/><path class="cls-1" d="M267.05,93.71a2.7,2.7,0,0,0-1.3-.38c-.82,0-1.23.41-1.23,1s.54,1,1.54,1.44,1.6.86,1.6,1.79a1.79,1.79,0,0,1-2,1.74,2.82,2.82,0,0,1-2.07-.81L264,98a2.52,2.52,0,0,0,1.67.69c.73,0,1.34-.33,1.34-1.1,0-.55-.6-1-1.31-1.31s-1.83-.87-1.83-1.89a1.65,1.65,0,0,1,1.85-1.63,3.13,3.13,0,0,1,1.68.49Z"/><path class="cls-1" d="M16.26,110.26a3.53,3.53,0,0,1,1.91-.52,2.16,2.16,0,0,1,2,1.22,2.86,2.86,0,0,1,.17,1.07v2.9a5.57,5.57,0,0,0,.09,1.21h-.64a6,6,0,0,1-.15-.77,2.76,2.76,0,0,1-2.1.9,2,2,0,0,1-2-2c0-1.51,1.09-2.16,3-2.16.3,0,.7,0,1.17.08V112a1.49,1.49,0,0,0-1.54-1.7,3.2,3.2,0,0,0-1.6.44Zm3.42,2.46c-.43,0-.75-.06-1.07-.06-1.64,0-2.42.54-2.42,1.63a1.44,1.44,0,0,0,1.54,1.4,1.83,1.83,0,0,0,1.95-1.6Z"/><path class="cls-1" d="M22.06,108.29l.68-.23V110h1.5v.56h-1.5v4.13c0,.87.61,1,1.39,1v.6c-1.27,0-2.07-.32-2.07-1.58v-4.19H21V110h1Z"/><path class="cls-1" d="M28.75,111.21A2.4,2.4,0,0,1,31,109.75v.65a.75.75,0,0,0-.21,0,2.1,2.1,0,0,0-2,2v3.72h-.68V110h.68Z"/><path class="cls-1" d="M35.71,115.7a3.29,3.29,0,0,1-1.88.57,3,3,0,0,1-3-3.17c0-1.95,1.06-3.37,2.71-3.37a2.73,2.73,0,0,1,2.61,2.92c0,.15,0,.25,0,.41H31.54a2.38,2.38,0,0,0,2.34,2.61,2.78,2.78,0,0,0,1.55-.43Zm-.2-3.2a2,2,0,0,0-2-2.19,2.27,2.27,0,0,0-2,2.19Z"/><path class="cls-1" d="M37.43,110.26a3.52,3.52,0,0,1,1.9-.52,2.17,2.17,0,0,1,2,1.22,2.87,2.87,0,0,1,.16,1.07v2.9a5,5,0,0,0,.1,1.21H41a6,6,0,0,1-.15-.77,2.77,2.77,0,0,1-2.11.9,2,2,0,0,1-2-2c0-1.51,1.09-2.16,3-2.16.3,0,.7,0,1.17.08V112a1.49,1.49,0,0,0-1.54-1.7,3.2,3.2,0,0,0-1.6.44Zm3.42,2.46c-.43,0-.75-.06-1.07-.06-1.64,0-2.42.54-2.42,1.63a1.44,1.44,0,0,0,1.54,1.4,1.83,1.83,0,0,0,2-1.6Z"/><path class="cls-1" d="M45.77,110.71a2.71,2.71,0,0,0-1.31-.38c-.81,0-1.22.41-1.22,1s.54,1,1.54,1.44,1.6.86,1.6,1.79a1.79,1.79,0,0,1-2,1.74,2.83,2.83,0,0,1-2.07-.81l.37-.48a2.52,2.52,0,0,0,1.67.69c.73,0,1.34-.33,1.34-1.1,0-.55-.6-1-1.32-1.31s-1.82-.87-1.82-1.89a1.65,1.65,0,0,1,1.85-1.63,3.18,3.18,0,0,1,1.68.49Z"/><path class="cls-1" d="M47,113c0-2,1.24-3.26,2.84-3.26S52.65,111,52.65,113s-1.26,3.27-2.85,3.27S47,115,47,113Zm.68,0c0,1.7,1,2.71,2.15,2.71S52,114.7,52,113s-1-2.7-2.16-2.7S47.65,111.27,47.65,113Z"/><path class="cls-1" d="M54.35,111.09a2.36,2.36,0,0,1,2.07-1.35A2.16,2.16,0,0,1,58.7,112v4.1H58v-4a1.63,1.63,0,0,0-1.67-1.79,2.18,2.18,0,0,0-2,2.31v3.52h-.68V110h.68Z"/><path class="cls-1" d="M60.4,110.26a3.52,3.52,0,0,1,1.9-.52,2.17,2.17,0,0,1,2,1.22,3.09,3.09,0,0,1,.16,1.07v2.9a5.57,5.57,0,0,0,.09,1.21H64a4.59,4.59,0,0,1-.15-.77,2.79,2.79,0,0,1-2.11.9,2,2,0,0,1-2-2c0-1.51,1.1-2.16,3-2.16a11.82,11.82,0,0,1,1.18.08V112a1.49,1.49,0,0,0-1.54-1.7,3.2,3.2,0,0,0-1.6.44Zm3.42,2.46c-.44,0-.75-.06-1.07-.06-1.65,0-2.42.54-2.42,1.63a1.44,1.44,0,0,0,1.54,1.4,1.83,1.83,0,0,0,2-1.6Z"/><path class="cls-1" d="M68.64,109.74c1.72,0,2.72,1.3,2.72,3.31s-1.08,3.22-2.67,3.22A2.47,2.47,0,0,1,66.56,115v1.14h-.68v-8.8h.68v3.75A2.43,2.43,0,0,1,68.64,109.74Zm0,.57c-1.2,0-2.07,1-2.07,2.64v.1c0,1.48.67,2.65,2.07,2.65s2.05-1.37,2.05-2.65S70,110.31,68.63,110.31Z"/><path class="cls-1" d="M72.45,107.34h.68v8.8h-.68Z"/><path class="cls-1" d="M79,115.7a3.27,3.27,0,0,1-1.88.57,3,3,0,0,1-3-3.17c0-1.95,1.06-3.37,2.71-3.37a2.73,2.73,0,0,1,2.61,2.92c0,.15,0,.25,0,.41H74.85a2.39,2.39,0,0,0,2.34,2.61,2.78,2.78,0,0,0,1.55-.43Zm-.2-3.2a2,2,0,0,0-2-2.19,2.27,2.27,0,0,0-2,2.19Z"/><path class="cls-1" d="M86.13,109.74c1.68,0,2.71,1.28,2.71,3.32s-1,3.21-2.69,3.21A2.47,2.47,0,0,1,84,115v3.84h-.68V110H84v1.13A2.38,2.38,0,0,1,86.13,109.74Zm0,.57c-1.2,0-2.08,1-2.08,2.64v.1c0,1.48.68,2.65,2.08,2.65s2-1.37,2-2.65S87.52,110.31,86.12,110.31Z"/><path class="cls-1" d="M90.62,111.21a2.4,2.4,0,0,1,2.25-1.46v.65a.86.86,0,0,0-.22,0,2.09,2.09,0,0,0-2,2v3.72h-.68V110h.68Z"/><path class="cls-1" d="M93.3,107.34h1v1h-1Zm.15,2.62h.68v6.18h-.68Z"/><path class="cls-1" d="M100.17,115.55a2.87,2.87,0,0,1-2,.72,3.27,3.27,0,0,1,0-6.53,4.21,4.21,0,0,1,1.81.45l-.27.52a3.37,3.37,0,0,0-1.54-.38,2.69,2.69,0,0,0,0,5.34,2.5,2.5,0,0,0,1.6-.52Z"/><path class="cls-1" d="M105.52,115.7a3.29,3.29,0,0,1-1.88.57,3,3,0,0,1-3-3.17c0-1.95,1.06-3.37,2.71-3.37a2.73,2.73,0,0,1,2.61,2.92c0,.15,0,.25,0,.41h-4.62a2.39,2.39,0,0,0,2.34,2.61,2.81,2.81,0,0,0,1.56-.43Zm-.2-3.2a2,2,0,0,0-2-2.19,2.26,2.26,0,0,0-2,2.19Z"/><path class="cls-1" d="M109.78,110.71a2.71,2.71,0,0,0-1.31-.38c-.81,0-1.22.41-1.22,1s.54,1,1.54,1.44,1.6.86,1.6,1.79a1.79,1.79,0,0,1-2,1.74,2.83,2.83,0,0,1-2.07-.81l.37-.48a2.52,2.52,0,0,0,1.67.69c.73,0,1.34-.33,1.34-1.1,0-.55-.6-1-1.32-1.31s-1.82-.87-1.82-1.89a1.65,1.65,0,0,1,1.84-1.63,3.19,3.19,0,0,1,1.69.49Z"/><path class="cls-1" d="M111.4,115.66h1.07v1.08H111.4Z"/><rect class="cls-2" x="0.25" y="74.59" width="7.56" height="7.56"/><polyline class="cls-3" points="2.1 76.31 4.03 79.72 6.99 71.42"/><path class="cls-1" d="M24.79,141.62l-2.09,8.51h-.77l-1.84-7.45-1.84,7.45h-.8l-2.08-8.51h.68l1.81,7.56,1.84-7.56h.74l1.85,7.54,1.82-7.54Z"/><path class="cls-1" d="M29.74,149.69a3.29,3.29,0,0,1-1.88.57,3,3,0,0,1-3-3.17c0-2,1.06-3.37,2.71-3.37a2.73,2.73,0,0,1,2.61,2.92c0,.15,0,.25,0,.41H25.56a2.39,2.39,0,0,0,2.34,2.61,2.81,2.81,0,0,0,1.56-.43Zm-.2-3.2a2,2,0,0,0-2-2.19,2.26,2.26,0,0,0-2,2.19Z"/><path class="cls-1" d="M34.4,144.25a3.52,3.52,0,0,1,1.9-.52,2.14,2.14,0,0,1,2,1.22,2.86,2.86,0,0,1,.17,1.07v2.9a5.57,5.57,0,0,0,.09,1.21H38a4.59,4.59,0,0,1-.15-.77,2.79,2.79,0,0,1-2.11.9,2,2,0,0,1-2-2c0-1.51,1.1-2.16,3-2.16a11.82,11.82,0,0,1,1.18.08V146a1.49,1.49,0,0,0-1.54-1.7,3.2,3.2,0,0,0-1.6.44Zm3.42,2.46c-.44,0-.75-.06-1.07-.06-1.65,0-2.42.54-2.42,1.64a1.43,1.43,0,0,0,1.54,1.39,1.83,1.83,0,0,0,2-1.6Z"/><path class="cls-1" d="M40.57,145.2a2.4,2.4,0,0,1,2.25-1.46v.65a.78.78,0,0,0-.22,0,2.09,2.09,0,0,0-2,2v3.72h-.68V144h.68Z"/><path class="cls-1" d="M47.53,149.69a3.29,3.29,0,0,1-1.88.57,3,3,0,0,1-3-3.17c0-2,1.06-3.37,2.71-3.37A2.73,2.73,0,0,1,48,146.64c0,.15,0,.25,0,.41H43.36a2.38,2.38,0,0,0,2.34,2.61,2.78,2.78,0,0,0,1.55-.43Zm-.2-3.2a2,2,0,0,0-2-2.19,2.27,2.27,0,0,0-2,2.19Z"/><path class="cls-1" d="M52.19,144.25a3.52,3.52,0,0,1,1.9-.52,2.17,2.17,0,0,1,2,1.22,3.09,3.09,0,0,1,.16,1.07v2.9a5,5,0,0,0,.1,1.21h-.64a6,6,0,0,1-.15-.77,2.79,2.79,0,0,1-2.11.9,2,2,0,0,1-2-2c0-1.51,1.1-2.16,3-2.16a11.82,11.82,0,0,1,1.18.08V146a1.49,1.49,0,0,0-1.54-1.7,3.2,3.2,0,0,0-1.6.44Zm3.42,2.46c-.43,0-.75-.06-1.07-.06-1.65,0-2.42.54-2.42,1.64a1.43,1.43,0,0,0,1.54,1.39,1.83,1.83,0,0,0,2-1.6Z"/><path class="cls-1" d="M63.37,143.73c1.68,0,2.72,1.28,2.72,3.32s-1,3.21-2.69,3.21A2.46,2.46,0,0,1,61.29,149v3.84h-.68V144h.68v1.12A2.38,2.38,0,0,1,63.37,143.73Zm0,.57c-1.2,0-2.07.95-2.07,2.64v.1c0,1.48.67,2.65,2.07,2.65s2-1.37,2-2.65S64.76,144.3,63.36,144.3Z"/><path class="cls-1" d="M67.86,145.2a2.41,2.41,0,0,1,2.25-1.46v.65a.75.75,0,0,0-.21,0,2.1,2.1,0,0,0-2,2v3.72h-.68V144h.68Z"/><path class="cls-1" d="M70,147c0-2,1.24-3.26,2.84-3.26S75.64,145,75.64,147s-1.26,3.27-2.85,3.27S70,149,70,147Zm.68,0c0,1.7,1,2.71,2.15,2.71S75,148.69,75,147s-1-2.7-2.16-2.7S70.64,145.26,70.64,147Z"/><path class="cls-1" d="M76.89,143.94v-.8a3.4,3.4,0,0,1,.13-1,1.54,1.54,0,0,1,1.49-1.08,2.76,2.76,0,0,1,1,.2l-.21.53a2.78,2.78,0,0,0-.7-.12.92.92,0,0,0-.91.59,1.86,1.86,0,0,0-.13.81v.84h1.34v.57H77.58v5.62h-.69v-5.62H76v-.57Z"/><path class="cls-1" d="M84.43,149.69a3.27,3.27,0,0,1-1.88.57,3,3,0,0,1-3-3.17c0-2,1.06-3.37,2.71-3.37a2.73,2.73,0,0,1,2.61,2.92c0,.15,0,.25,0,.41H80.26a2.39,2.39,0,0,0,2.34,2.61,2.78,2.78,0,0,0,1.55-.43Zm-.2-3.2a2,2,0,0,0-2-2.19,2.27,2.27,0,0,0-2,2.19Z"/><path class="cls-1" d="M88.69,144.7a2.82,2.82,0,0,0-1.3-.38c-.82,0-1.23.41-1.23,1s.54,1,1.54,1.44,1.6.86,1.6,1.79a1.79,1.79,0,0,1-2,1.74,2.82,2.82,0,0,1-2.07-.81l.36-.48a2.52,2.52,0,0,0,1.67.69c.73,0,1.34-.33,1.34-1.1,0-.55-.6-1-1.32-1.31s-1.82-.87-1.82-1.89a1.65,1.65,0,0,1,1.85-1.63,3.13,3.13,0,0,1,1.68.49Z"/><path class="cls-1" d="M93.17,144.7a2.82,2.82,0,0,0-1.3-.38c-.82,0-1.23.41-1.23,1s.54,1,1.54,1.44,1.6.86,1.6,1.79a1.79,1.79,0,0,1-2,1.74,2.82,2.82,0,0,1-2.07-.81l.36-.48a2.52,2.52,0,0,0,1.67.69c.73,0,1.34-.33,1.34-1.1,0-.55-.6-1-1.32-1.31S90,146.38,90,145.36a1.65,1.65,0,0,1,1.85-1.63,3.13,3.13,0,0,1,1.68.49Z"/><path class="cls-1" d="M94.66,141.33h1v1h-1Zm.16,2.63h.68v6.17h-.68Z"/><path class="cls-1" d="M96.55,147c0-2,1.24-3.26,2.84-3.26s2.84,1.26,2.84,3.26-1.26,3.27-2.85,3.27S96.55,149,96.55,147Zm.68,0c0,1.7,1,2.71,2.15,2.71s2.17-1,2.17-2.71-1-2.7-2.16-2.7S97.23,145.26,97.23,147Z"/><path class="cls-1" d="M103.93,145.08a2.36,2.36,0,0,1,2.07-1.35,2.16,2.16,0,0,1,2.28,2.3v4.1h-.68v-4a1.63,1.63,0,0,0-1.67-1.79,2.18,2.18,0,0,0-2,2.31v3.52h-.68V144h.68Z"/><path class="cls-1" d="M110,144.25a3.52,3.52,0,0,1,1.9-.52,2.14,2.14,0,0,1,2,1.22,2.86,2.86,0,0,1,.17,1.07v2.9a5.57,5.57,0,0,0,.09,1.21h-.63a5.1,5.1,0,0,1-.16-.77,2.75,2.75,0,0,1-2.1.9,2,2,0,0,1-2-2c0-1.51,1.1-2.16,3-2.16a11.82,11.82,0,0,1,1.18.08V146a1.49,1.49,0,0,0-1.54-1.7,3.17,3.17,0,0,0-1.6.44Zm3.42,2.46c-.44,0-.75-.06-1.07-.06-1.65,0-2.43.54-2.43,1.64a1.44,1.44,0,0,0,1.55,1.39,1.83,1.83,0,0,0,2-1.6Z"/><path class="cls-1" d="M115.47,141.33h.68v8.8h-.68Z"/><path class="cls-1" d="M120.55,141.33h.68v8.8h-.68Z"/><path class="cls-1" d="M123,144.25a3.57,3.57,0,0,1,1.91-.52,2.15,2.15,0,0,1,2,1.22,2.86,2.86,0,0,1,.17,1.07v2.9a5.57,5.57,0,0,0,.09,1.21h-.63a5.1,5.1,0,0,1-.16-.77,2.75,2.75,0,0,1-2.1.9,2,2,0,0,1-2.05-2c0-1.51,1.09-2.16,3-2.16a11.82,11.82,0,0,1,1.18.08V146a1.49,1.49,0,0,0-1.54-1.7,3.17,3.17,0,0,0-1.6.44Zm3.43,2.46c-.44,0-.76-.06-1.07-.06-1.65,0-2.43.54-2.43,1.64a1.44,1.44,0,0,0,1.54,1.39,1.84,1.84,0,0,0,2-1.6Z"/><path class="cls-1" d="M130.4,149.48l2-5.52h.68l-2.3,6.17H130L127.72,144h.68Z"/><path class="cls-1" d="M138.13,149.69a3.31,3.31,0,0,1-1.88.57,3,3,0,0,1-3-3.17c0-2,1.06-3.37,2.7-3.37a2.73,2.73,0,0,1,2.62,2.92,2.88,2.88,0,0,1,0,.41H134a2.39,2.39,0,0,0,2.34,2.61,2.81,2.81,0,0,0,1.56-.43Zm-.2-3.2a2,2,0,0,0-2-2.19,2.26,2.26,0,0,0-2,2.19Z"/><path class="cls-1" d="M140.22,145.2a2.41,2.41,0,0,1,2.25-1.46v.65a.75.75,0,0,0-.21,0,2.1,2.1,0,0,0-2,2v3.72h-.68V144h.68Z"/><path class="cls-1" d="M146.64,144.84a2,2,0,0,1,1.77-1.11,2.08,2.08,0,0,1,1.84,1.36,2.24,2.24,0,0,1,1.92-1.36,2,2,0,0,1,2.1,2.16v4.24h-.68v-4.32a1.43,1.43,0,0,0-1.52-1.51,1.72,1.72,0,0,0-1.6,1.93v3.9h-.68v-4.2a1.49,1.49,0,0,0-1.51-1.63,1.76,1.76,0,0,0-1.64,1.91v3.92H146V144h.67Z"/><path class="cls-1" d="M156,144.25a3.52,3.52,0,0,1,1.9-.52,2.14,2.14,0,0,1,2,1.22,2.86,2.86,0,0,1,.17,1.07v2.9a5.57,5.57,0,0,0,.09,1.21h-.63a4.59,4.59,0,0,1-.15-.77,2.79,2.79,0,0,1-2.11.9,2,2,0,0,1-2.05-2c0-1.51,1.1-2.16,3-2.16a11.82,11.82,0,0,1,1.18.08V146a1.49,1.49,0,0,0-1.54-1.7,3.2,3.2,0,0,0-1.6.44Zm3.42,2.46c-.44,0-.75-.06-1.07-.06-1.65,0-2.42.54-2.42,1.64a1.43,1.43,0,0,0,1.54,1.39,1.83,1.83,0,0,0,1.95-1.6Z"/><path class="cls-1" d="M162.12,145.08a2.35,2.35,0,0,1,2.07-1.35,2.16,2.16,0,0,1,2.28,2.3v4.1h-.68v-4a1.63,1.63,0,0,0-1.67-1.79,2.18,2.18,0,0,0-2,2.31v3.52h-.68V144h.68Z"/><path class="cls-1" d="M172.14,148.92a2.33,2.33,0,0,1-2.07,1.34,2.15,2.15,0,0,1-2.27-2.3v-4h.68v3.89a1.66,1.66,0,0,0,1.66,1.83,2.16,2.16,0,0,0,2-2.28V144h.68v6.17h-.68Z"/><path class="cls-1" d="M174.49,143.94v-.8a3.4,3.4,0,0,1,.13-1,1.54,1.54,0,0,1,1.48-1.08,2.76,2.76,0,0,1,1,.2l-.21.53a2.78,2.78,0,0,0-.69-.12.93.93,0,0,0-.92.59,2,2,0,0,0-.13.81v.84h1.34v.57h-1.34v5.62h-.68v-5.62h-.88v-.57Z"/><path class="cls-1" d="M177.55,144.25a3.52,3.52,0,0,1,1.9-.52,2.17,2.17,0,0,1,2,1.22,3.09,3.09,0,0,1,.16,1.07v2.9a5,5,0,0,0,.1,1.21h-.64a6,6,0,0,1-.15-.77,2.79,2.79,0,0,1-2.11.9,2,2,0,0,1-2.05-2c0-1.51,1.1-2.16,3-2.16a11.82,11.82,0,0,1,1.18.08V146a1.49,1.49,0,0,0-1.54-1.7,3.2,3.2,0,0,0-1.6.44Zm3.42,2.46c-.43,0-.75-.06-1.07-.06-1.65,0-2.42.54-2.42,1.64a1.43,1.43,0,0,0,1.54,1.39,1.83,1.83,0,0,0,1.95-1.6Z"/><path class="cls-1" d="M187.59,149.54a2.85,2.85,0,0,1-2,.72,3.27,3.27,0,0,1,0-6.53,4.21,4.21,0,0,1,1.81.45l-.27.52a3.37,3.37,0,0,0-1.54-.38,2.69,2.69,0,0,0,0,5.34,2.5,2.5,0,0,0,1.6-.52Z"/><path class="cls-1" d="M188.81,142.28l.69-.23V144H191v.55H189.5v4.13c0,.87.61,1,1.38,1v.6c-1.27,0-2.07-.32-2.07-1.57v-4.2h-1V144h1Z"/><path class="cls-1" d="M196.16,148.92a2.31,2.31,0,0,1-2.07,1.34,2.15,2.15,0,0,1-2.27-2.3v-4h.69v3.89a1.65,1.65,0,0,0,1.65,1.83,2.16,2.16,0,0,0,2-2.28V144h.69v6.17h-.69Z"/><path class="cls-1" d="M199,145.2a2.41,2.41,0,0,1,2.25-1.46v.65a.75.75,0,0,0-.21,0,2.1,2.1,0,0,0-2,2v3.72h-.68V144H199Z"/><path class="cls-1" d="M205.94,149.69a3.32,3.32,0,0,1-1.89.57,3,3,0,0,1-3-3.17c0-2,1.05-3.37,2.7-3.37a2.73,2.73,0,0,1,2.61,2.92c0,.15,0,.25,0,.41h-4.61a2.39,2.39,0,0,0,2.34,2.61,2.76,2.76,0,0,0,1.55-.43Zm-.2-3.2a2.05,2.05,0,0,0-2-2.19,2.26,2.26,0,0,0-2,2.19Z"/><path class="cls-1" d="M208,145.2a2.4,2.4,0,0,1,2.25-1.46v.65a.86.86,0,0,0-.22,0,2.09,2.09,0,0,0-2,2v3.72h-.68V144H208Z"/><path class="cls-1" d="M218.87,149.17l1.46-5.21H221l-1.78,6.17h-.63l-1.52-5.5-1.52,5.5h-.64L213.11,144h.63l1.46,5.21,1.48-5.21h.71Z"/><path class="cls-1" d="M221.59,141.33h1v1h-1Zm.15,2.63h.68v6.17h-.68Z"/><path class="cls-1" d="M224.21,142.28l.68-.23V144h1.5v.55h-1.5v4.13c0,.87.61,1,1.39,1v.6c-1.27,0-2.07-.32-2.07-1.57v-4.2h-1V144h1Z"/><path class="cls-1" d="M228,145.07a2.34,2.34,0,0,1,2.07-1.34,2.16,2.16,0,0,1,2.28,2.3v4.1h-.68v-4A1.63,1.63,0,0,0,230,144.3a2.17,2.17,0,0,0-2,2.28v3.55h-.68v-8.8H228Z"/><path class="cls-1" d="M236.93,144.25a3.57,3.57,0,0,1,1.91-.52,2.14,2.14,0,0,1,2,1.22A2.86,2.86,0,0,1,241,146v2.9a5.57,5.57,0,0,0,.09,1.21h-.63a5.1,5.1,0,0,1-.16-.77,2.75,2.75,0,0,1-2.1.9,2,2,0,0,1-2-2c0-1.51,1.09-2.16,3-2.16a11.82,11.82,0,0,1,1.18.08V146a1.49,1.49,0,0,0-1.54-1.7,3.17,3.17,0,0,0-1.6.44Zm3.43,2.46c-.44,0-.76-.06-1.07-.06-1.65,0-2.43.54-2.43,1.64a1.44,1.44,0,0,0,1.54,1.39,1.84,1.84,0,0,0,2-1.6Z"/><path class="cls-1" d="M242.43,141.33h.68v8.8h-.68Z"/><path class="cls-1" d="M244.57,141.33h.68v8.8h-.68Z"/><path class="cls-1" d="M254.2,149.54a2.87,2.87,0,0,1-2,.72,3.27,3.27,0,0,1,0-6.53,4.21,4.21,0,0,1,1.81.45l-.27.52a3.4,3.4,0,0,0-1.54-.38,2.69,2.69,0,0,0,0,5.34,2.5,2.5,0,0,0,1.6-.52Z"/><path class="cls-1" d="M259.55,149.69a3.31,3.31,0,0,1-1.88.57,3,3,0,0,1-3-3.17c0-2,1.06-3.37,2.7-3.37a2.73,2.73,0,0,1,2.62,2.92,2.88,2.88,0,0,1,0,.41h-4.61a2.39,2.39,0,0,0,2.34,2.61,2.81,2.81,0,0,0,1.56-.43Zm-.2-3.2a2.05,2.05,0,0,0-2-2.19,2.26,2.26,0,0,0-2,2.19Z"/><path class="cls-1" d="M261.64,145.2a2.4,2.4,0,0,1,2.25-1.46v.65a.75.75,0,0,0-.21,0,2.1,2.1,0,0,0-2,2v3.72H261V144h.68Z"/><path class="cls-1" d="M265,142.28l.69-.23V144h1.49v.55h-1.49v4.13c0,.87.61,1,1.38,1v.6c-1.27,0-2.07-.32-2.07-1.57v-4.2h-1V144h1Z"/><path class="cls-1" d="M267.93,141.33h1v1h-1Zm.15,2.63h.69v6.17h-.69Z"/><path class="cls-1" d="M270.47,143.94v-.8a3.4,3.4,0,0,1,.13-1,1.54,1.54,0,0,1,1.48-1.08,2.85,2.85,0,0,1,1,.2l-.21.53a2.94,2.94,0,0,0-.7-.12.94.94,0,0,0-.92.59,2,2,0,0,0-.13.81v.84h1.35v.57h-1.35v5.62h-.68v-5.62h-.88v-.57Z"/><path class="cls-1" d="M273.44,141.33h1v1h-1Zm.15,2.63h.68v6.17h-.68Z"/><path class="cls-1" d="M280.3,149.54a2.84,2.84,0,0,1-2,.72,3,3,0,0,1-3-3.25,3,3,0,0,1,3.05-3.28,4.21,4.21,0,0,1,1.81.45l-.27.52a3.34,3.34,0,0,0-1.54-.38,2.69,2.69,0,0,0,0,5.34,2.54,2.54,0,0,0,1.6-.52Z"/><path class="cls-1" d="M281.53,144.25a3.52,3.52,0,0,1,1.9-.52,2.17,2.17,0,0,1,2,1.22,3.09,3.09,0,0,1,.16,1.07v2.9a5.57,5.57,0,0,0,.09,1.21h-.63a4.59,4.59,0,0,1-.15-.77,2.79,2.79,0,0,1-2.11.9,2,2,0,0,1-2.05-2c0-1.51,1.1-2.16,3-2.16a11.82,11.82,0,0,1,1.18.08V146a1.49,1.49,0,0,0-1.54-1.7,3.2,3.2,0,0,0-1.6.44Zm3.42,2.46c-.44,0-.75-.06-1.07-.06-1.65,0-2.42.54-2.42,1.64a1.43,1.43,0,0,0,1.54,1.39,1.83,1.83,0,0,0,1.95-1.6Z"/><path class="cls-1" d="M287.32,142.28l.69-.23V144h1.49v.55H288v4.13c0,.87.61,1,1.38,1v.6c-1.27,0-2.07-.32-2.07-1.57v-4.2h-1V144h1Z"/><path class="cls-1" d="M290.25,141.33h1v1h-1Zm.15,2.63h.69v6.17h-.69Z"/><path class="cls-1" d="M292.13,147c0-2,1.25-3.26,2.85-3.26s2.84,1.26,2.84,3.26-1.26,3.27-2.85,3.27S292.13,149,292.13,147Zm.69,0c0,1.7,1,2.71,2.15,2.71s2.16-1,2.16-2.71-1-2.7-2.15-2.7S292.82,145.26,292.82,147Z"/><path class="cls-1" d="M299.52,145.08a2.35,2.35,0,0,1,2.07-1.35,2.16,2.16,0,0,1,2.28,2.3v4.1h-.68v-4a1.63,1.63,0,0,0-1.67-1.79,2.18,2.18,0,0,0-2,2.31v3.52h-.68V144h.68Z"/><path class="cls-1" d="M308.1,144.7a2.82,2.82,0,0,0-1.3-.38c-.81,0-1.23.41-1.23,1s.55,1,1.55,1.44,1.6.86,1.6,1.79a1.79,1.79,0,0,1-2,1.74,2.82,2.82,0,0,1-2.07-.81L305,149a2.52,2.52,0,0,0,1.67.69c.73,0,1.35-.33,1.35-1.1,0-.55-.6-1-1.32-1.31s-1.83-.87-1.83-1.89a1.65,1.65,0,0,1,1.85-1.63,3.13,3.13,0,0,1,1.68.49Z"/><path class="cls-1" d="M16.26,161.25a3.53,3.53,0,0,1,1.91-.52,2.16,2.16,0,0,1,2,1.22,2.86,2.86,0,0,1,.17,1.07v2.9a5.57,5.57,0,0,0,.09,1.21h-.64a6,6,0,0,1-.15-.77,2.76,2.76,0,0,1-2.1.9,2,2,0,0,1-2-2c0-1.51,1.09-2.16,3-2.16.3,0,.7,0,1.17.08V163a1.49,1.49,0,0,0-1.54-1.7,3.2,3.2,0,0,0-1.6.44Zm3.42,2.46c-.43,0-.75-.06-1.07-.06-1.64,0-2.42.54-2.42,1.64a1.44,1.44,0,0,0,1.54,1.39,1.83,1.83,0,0,0,1.95-1.6Z"/><path class="cls-1" d="M22.42,162.08a2.36,2.36,0,0,1,2.07-1.35,2.16,2.16,0,0,1,2.29,2.3v4.1h-.69v-4a1.62,1.62,0,0,0-1.67-1.79,2.18,2.18,0,0,0-2,2.31v3.52h-.68V161h.68Z"/><path class="cls-1" d="M32.56,162.08v-3.75h.68v8.8h-.68V166a2.46,2.46,0,0,1-2.13,1.27c-1.59,0-2.67-1.2-2.67-3.22s1-3.31,2.72-3.31A2.43,2.43,0,0,1,32.56,162.08Zm-4.12,2c0,1.28.65,2.65,2,2.65s2.07-1.17,2.07-2.65v-.1c0-1.69-.87-2.64-2.07-2.64C29.09,161.3,28.44,162.69,28.44,164Z"/><path class="cls-1" d="M42.06,162.08V161h.69v8.86h-.69V166a2.44,2.44,0,0,1-2.1,1.28c-1.65,0-2.7-1.21-2.7-3.21s1-3.32,2.72-3.32A2.35,2.35,0,0,1,42.06,162.08ZM38,164c0,1.28.64,2.65,2,2.65s2.07-1.17,2.07-2.65c0-1.79-.87-2.74-2.07-2.74C38.59,161.3,38,162.69,38,164Z"/><path class="cls-1" d="M48.51,165.92a2.33,2.33,0,0,1-2.07,1.34,2.15,2.15,0,0,1-2.27-2.3v-4h.68v3.89a1.66,1.66,0,0,0,1.66,1.83,2.16,2.16,0,0,0,2-2.28V161h.68v6.17h-.68Z"/><path class="cls-1" d="M50.94,161.25a3.53,3.53,0,0,1,1.91-.52,2.16,2.16,0,0,1,2,1.22A2.86,2.86,0,0,1,55,163v2.9a5.57,5.57,0,0,0,.09,1.21h-.64a6,6,0,0,1-.15-.77,2.76,2.76,0,0,1-2.1.9,2,2,0,0,1-2.05-2c0-1.51,1.09-2.16,3-2.16.3,0,.7,0,1.17.08V163a1.49,1.49,0,0,0-1.54-1.7,3.2,3.2,0,0,0-1.6.44Zm3.42,2.46c-.43,0-.75-.06-1.07-.06-1.64,0-2.42.54-2.42,1.64a1.44,1.44,0,0,0,1.54,1.39,1.83,1.83,0,0,0,2-1.6Z"/><path class="cls-1" d="M56.43,158.33h.69v8.8h-.69Z"/><path class="cls-1" d="M58.43,158.33h1v1h-1Zm.15,2.63h.69v6.17h-.69Z"/><path class="cls-1" d="M61,160.94v-.8a3.4,3.4,0,0,1,.13-1,1.54,1.54,0,0,1,1.48-1.08,2.85,2.85,0,0,1,1,.2l-.21.53a2.94,2.94,0,0,0-.7-.12.94.94,0,0,0-.92.59,2,2,0,0,0-.13.81v.84H63v.57H61.65v5.62H61v-5.62h-.88v-.57Z"/><path class="cls-1" d="M63.94,158.33h1v1h-1Zm.15,2.63h.68v6.17h-.68Z"/><path class="cls-1" d="M70.81,166.54a2.88,2.88,0,0,1-2,.72,3.27,3.27,0,0,1,0-6.53,4.21,4.21,0,0,1,1.81.45l-.27.52a3.34,3.34,0,0,0-1.54-.38,2.69,2.69,0,0,0,0,5.34,2.52,2.52,0,0,0,1.6-.52Z"/><path class="cls-1" d="M72,161.25a3.52,3.52,0,0,1,1.9-.52A2.17,2.17,0,0,1,76,162a3.09,3.09,0,0,1,.16,1.07v2.9a5.57,5.57,0,0,0,.09,1.21h-.63a6,6,0,0,1-.15-.77,2.79,2.79,0,0,1-2.11.9,2,2,0,0,1-2-2c0-1.51,1.1-2.16,3-2.16a11.82,11.82,0,0,1,1.18.08V163a1.49,1.49,0,0,0-1.54-1.7,3.2,3.2,0,0,0-1.6.44Zm3.42,2.46c-.44,0-.75-.06-1.07-.06-1.65,0-2.42.54-2.42,1.64a1.43,1.43,0,0,0,1.54,1.39,1.83,1.83,0,0,0,2-1.6Z"/><path class="cls-1" d="M77.82,159.28l.69-.23V161H80v.55H78.51v4.13c0,.87.61,1,1.38,1v.6c-1.27,0-2.07-.32-2.07-1.57v-4.2h-1V161h1Z"/><path class="cls-1" d="M80.75,158.33h1v1h-1ZM80.9,161h.69v6.17H80.9Z"/><path class="cls-1" d="M82.63,164c0-2,1.25-3.26,2.85-3.26S88.32,162,88.32,164s-1.26,3.27-2.85,3.27S82.63,166,82.63,164Zm.69,0c0,1.7,1,2.71,2.15,2.71s2.16-1,2.16-2.71-1-2.7-2.15-2.7S83.32,162.26,83.32,164Z"/><path class="cls-1" d="M90,162.08a2.35,2.35,0,0,1,2.07-1.35,2.16,2.16,0,0,1,2.28,2.3v4.1h-.68v-4A1.63,1.63,0,0,0,92,161.3a2.18,2.18,0,0,0-2,2.31v3.52h-.68V161H90Z"/><path class="cls-1" d="M98.6,161.7a2.82,2.82,0,0,0-1.3-.38c-.81,0-1.23.41-1.23,1s.55,1,1.55,1.44,1.6.86,1.6,1.79a1.79,1.79,0,0,1-2,1.74,2.82,2.82,0,0,1-2.07-.81l.36-.48a2.52,2.52,0,0,0,1.67.69c.73,0,1.35-.33,1.35-1.1,0-.55-.6-1-1.32-1.31s-1.83-.87-1.83-1.89a1.65,1.65,0,0,1,1.85-1.63,3.13,3.13,0,0,1,1.68.49Z"/><path class="cls-1" d="M103.85,162.08a2.35,2.35,0,0,1,2.07-1.35,2.16,2.16,0,0,1,2.28,2.3v4.1h-.68v-4a1.63,1.63,0,0,0-1.67-1.79,2.18,2.18,0,0,0-2,2.31v3.52h-.68V161h.68Z"/><path class="cls-1" d="M114,166.69a3.29,3.29,0,0,1-1.88.57,3,3,0,0,1-3-3.17c0-2,1.06-3.37,2.71-3.37a2.73,2.73,0,0,1,2.61,2.92c0,.15,0,.25,0,.41h-4.61a2.38,2.38,0,0,0,2.34,2.61,2.78,2.78,0,0,0,1.55-.43Zm-.2-3.2a2,2,0,0,0-2-2.19,2.27,2.27,0,0,0-2,2.19Z"/><path class="cls-1" d="M119.87,166.69a3.32,3.32,0,0,1-1.89.57,3,3,0,0,1-3-3.17c0-2,1.06-3.37,2.7-3.37a2.73,2.73,0,0,1,2.61,2.92c0,.15,0,.25,0,.41h-4.61a2.39,2.39,0,0,0,2.34,2.61,2.76,2.76,0,0,0,1.55-.43Zm-.2-3.2a2.05,2.05,0,0,0-2-2.19,2.26,2.26,0,0,0-2,2.19Z"/><path class="cls-1" d="M125.68,162.08v-3.75h.68v8.8h-.68V166a2.47,2.47,0,0,1-2.13,1.27c-1.59,0-2.67-1.2-2.67-3.22s1-3.31,2.71-3.31A2.46,2.46,0,0,1,125.68,162.08Zm-4.12,2c0,1.28.65,2.65,2,2.65s2.08-1.17,2.08-2.65v-.1c0-1.69-.87-2.64-2.08-2.64C122.21,161.3,121.56,162.69,121.56,164Z"/><path class="cls-1" d="M132.27,166.69a3.29,3.29,0,0,1-1.88.57,3,3,0,0,1-3-3.17c0-2,1.06-3.37,2.71-3.37a2.73,2.73,0,0,1,2.61,2.92c0,.15,0,.25,0,.41H128.1a2.38,2.38,0,0,0,2.34,2.61,2.78,2.78,0,0,0,1.55-.43Zm-.2-3.2a2,2,0,0,0-2-2.19,2.27,2.27,0,0,0-2,2.19Z"/><path class="cls-1" d="M138.08,162.08v-3.75h.68v8.8h-.68V166a2.46,2.46,0,0,1-2.13,1.27c-1.59,0-2.67-1.2-2.67-3.22s1-3.31,2.72-3.31A2.43,2.43,0,0,1,138.08,162.08ZM134,164c0,1.28.65,2.65,2,2.65s2.07-1.17,2.07-2.65v-.1c0-1.69-.87-2.64-2.07-2.64C134.61,161.3,134,162.69,134,164Z"/><path class="cls-1" d="M143.41,160.94v-.8a3.4,3.4,0,0,1,.13-1,1.52,1.52,0,0,1,1.48-1.08,2.76,2.76,0,0,1,1,.2l-.21.53a2.78,2.78,0,0,0-.69-.12.93.93,0,0,0-.92.59,2,2,0,0,0-.13.81v.84h1.34v.57h-1.34v5.62h-.68v-5.62h-.88v-.57Z"/><path class="cls-1" d="M145.78,164c0-2,1.25-3.26,2.85-3.26s2.84,1.26,2.84,3.26-1.26,3.27-2.85,3.27S145.78,166,145.78,164Zm.69,0c0,1.7,1,2.71,2.15,2.71s2.16-1,2.16-2.71-1-2.7-2.15-2.7S146.47,162.26,146.47,164Z"/><path class="cls-1" d="M153.18,162.2a2.4,2.4,0,0,1,2.25-1.46v.65a.75.75,0,0,0-.21,0,2.1,2.1,0,0,0-2,2v3.72h-.68V161h.68Z"/><path class="cls-1" d="M158.94,158.33h.68v8.8h-.68Z"/><path class="cls-1" d="M161.39,161.25a3.52,3.52,0,0,1,1.9-.52,2.17,2.17,0,0,1,2,1.22,2.87,2.87,0,0,1,.16,1.07v2.9a5,5,0,0,0,.1,1.21h-.64a6,6,0,0,1-.15-.77,2.79,2.79,0,0,1-2.11.9,2,2,0,0,1-2-2c0-1.51,1.09-2.16,3-2.16.3,0,.7,0,1.17.08V163a1.49,1.49,0,0,0-1.54-1.7,3.2,3.2,0,0,0-1.6.44Zm3.42,2.46c-.43,0-.75-.06-1.07-.06-1.65,0-2.42.54-2.42,1.64a1.43,1.43,0,0,0,1.54,1.39,1.83,1.83,0,0,0,1.95-1.6Z"/><path class="cls-1" d="M168.8,166.48l2-5.52h.68l-2.31,6.17h-.75l-2.3-6.17h.68Z"/><path class="cls-1" d="M176.52,166.69a3.27,3.27,0,0,1-1.88.57,3,3,0,0,1-3-3.17c0-2,1.06-3.37,2.71-3.37a2.73,2.73,0,0,1,2.61,2.92c0,.15,0,.25,0,.41h-4.61a2.39,2.39,0,0,0,2.34,2.61,2.78,2.78,0,0,0,1.55-.43Zm-.2-3.2a2,2,0,0,0-2-2.19,2.27,2.27,0,0,0-2,2.19Z"/><path class="cls-1" d="M178.62,162.2a2.39,2.39,0,0,1,2.24-1.46v.65a.75.75,0,0,0-.21,0,2.09,2.09,0,0,0-2,2v3.72h-.69V161h.69Z"/><path class="cls-1" d="M185,161.84a2,2,0,0,1,1.76-1.11,2.09,2.09,0,0,1,1.85,1.36,2.23,2.23,0,0,1,1.92-1.36,2,2,0,0,1,2.09,2.16v4.24H192v-4.32a1.43,1.43,0,0,0-1.53-1.51,1.72,1.72,0,0,0-1.6,1.93v3.9h-.67v-4.2a1.49,1.49,0,0,0-1.52-1.63,1.76,1.76,0,0,0-1.63,1.91v3.92h-.67V161H185Z"/><path class="cls-1" d="M194.35,161.25a3.53,3.53,0,0,1,1.91-.52,2.16,2.16,0,0,1,2,1.22,2.86,2.86,0,0,1,.17,1.07v2.9a5.57,5.57,0,0,0,.09,1.21h-.64a6,6,0,0,1-.15-.77,2.77,2.77,0,0,1-2.11.9,2,2,0,0,1-2-2c0-1.51,1.09-2.16,3-2.16.3,0,.7,0,1.17.08V163a1.49,1.49,0,0,0-1.54-1.7,3.2,3.2,0,0,0-1.6.44Zm3.42,2.46c-.43,0-.75-.06-1.07-.06-1.64,0-2.42.54-2.42,1.64a1.44,1.44,0,0,0,1.54,1.39,1.83,1.83,0,0,0,2-1.6Z"/><path class="cls-1" d="M200.51,162.08a2.36,2.36,0,0,1,2.07-1.35,2.16,2.16,0,0,1,2.29,2.3v4.1h-.69v-4a1.62,1.62,0,0,0-1.67-1.79,2.18,2.18,0,0,0-2,2.31v3.52h-.68V161h.68Z"/><path class="cls-1" d="M210.53,165.92a2.31,2.31,0,0,1-2.07,1.34,2.15,2.15,0,0,1-2.27-2.3v-4h.69v3.89a1.65,1.65,0,0,0,1.65,1.83,2.16,2.16,0,0,0,2-2.28V161h.69v6.17h-.69Z"/><path class="cls-1" d="M212.88,160.94v-.8a3.4,3.4,0,0,1,.13-1,1.54,1.54,0,0,1,1.49-1.08,2.76,2.76,0,0,1,1,.2l-.21.53a2.78,2.78,0,0,0-.7-.12.92.92,0,0,0-.91.59,1.86,1.86,0,0,0-.13.81v.84h1.34v.57h-1.34v5.62h-.69v-5.62H212v-.57Z"/><path class="cls-1" d="M215.94,161.25a3.55,3.55,0,0,1,1.91-.52,2.16,2.16,0,0,1,2,1.22A2.86,2.86,0,0,1,220,163v2.9a5.57,5.57,0,0,0,.09,1.21h-.63a5.1,5.1,0,0,1-.16-.77,2.75,2.75,0,0,1-2.1.9,2,2,0,0,1-2.05-2c0-1.51,1.09-2.16,3-2.16a11.82,11.82,0,0,1,1.18.08V163a1.49,1.49,0,0,0-1.55-1.7,3.22,3.22,0,0,0-1.6.44Zm3.43,2.46c-.44,0-.76-.06-1.07-.06-1.65,0-2.43.54-2.43,1.64a1.44,1.44,0,0,0,1.54,1.39,1.84,1.84,0,0,0,2-1.6Z"/><path class="cls-1" d="M226,166.54a2.88,2.88,0,0,1-2,.72,3.27,3.27,0,0,1,0-6.53,4.21,4.21,0,0,1,1.82.45l-.27.52a3.41,3.41,0,0,0-1.55-.38,2.69,2.69,0,0,0,0,5.34,2.5,2.5,0,0,0,1.6-.52Z"/><path class="cls-1" d="M227.21,159.28l.68-.23V161h1.49v.55h-1.49v4.13c0,.87.61,1,1.39,1v.6c-1.27,0-2.07-.32-2.07-1.57v-4.2h-1V161h1Z"/><path class="cls-1" d="M234.56,165.92a2.33,2.33,0,0,1-2.07,1.34,2.15,2.15,0,0,1-2.27-2.3v-4h.68v3.89a1.66,1.66,0,0,0,1.66,1.83,2.16,2.16,0,0,0,2-2.28V161h.68v6.17h-.68Z"/><path class="cls-1" d="M237.37,162.2a2.4,2.4,0,0,1,2.25-1.46v.65a.86.86,0,0,0-.22,0,2.09,2.09,0,0,0-2,2v3.72h-.68V161h.68Z"/><path class="cls-1" d="M240.05,158.33h1v1h-1Zm.15,2.63h.68v6.17h-.68Z"/><path class="cls-1" d="M243,162.08a2.35,2.35,0,0,1,2.07-1.35,2.16,2.16,0,0,1,2.28,2.3v4.1h-.68v-4A1.63,1.63,0,0,0,245,161.3a2.18,2.18,0,0,0-2,2.31v3.52h-.69V161H243Z"/><path class="cls-1" d="M253.18,162.07V161h.68v5.7a2.74,2.74,0,0,1-2.78,3.07,4.37,4.37,0,0,1-2.09-.54l.26-.52a3.89,3.89,0,0,0,1.81.46c1.12,0,2.12-.75,2.12-2.49v-.78a2.36,2.36,0,0,1-2.12,1.28c-1.56,0-2.69-1.14-2.69-3.14s1-3.27,2.7-3.27A2.41,2.41,0,0,1,253.18,162.07ZM249.06,164c0,1.28.68,2.58,2.06,2.58s2.06-1.14,2.06-2.58c0-1.74-.89-2.68-2.06-2.68C249.7,161.3,249.06,162.62,249.06,164Z"/><path class="cls-1" d="M258.58,161.25a3.57,3.57,0,0,1,1.91-.52,2.16,2.16,0,0,1,2,1.22,2.86,2.86,0,0,1,.17,1.07v2.9a5.57,5.57,0,0,0,.09,1.21h-.63a5.1,5.1,0,0,1-.16-.77,2.75,2.75,0,0,1-2.1.9,2,2,0,0,1-2.05-2c0-1.51,1.09-2.16,3-2.16a11.82,11.82,0,0,1,1.18.08V163a1.49,1.49,0,0,0-1.54-1.7,3.17,3.17,0,0,0-1.6.44Zm3.43,2.46c-.44,0-.76-.06-1.07-.06-1.65,0-2.43.54-2.43,1.64a1.44,1.44,0,0,0,1.54,1.39,1.84,1.84,0,0,0,2-1.6Z"/><path class="cls-1" d="M264.75,162.08a2.33,2.33,0,0,1,2.07-1.35,2.16,2.16,0,0,1,2.28,2.3v4.1h-.68v-4a1.63,1.63,0,0,0-1.67-1.79,2.18,2.18,0,0,0-2,2.31v3.52h-.69V161h.69Z"/><path class="cls-1" d="M274.88,162.08v-3.75h.69v8.8h-.69V166a2.46,2.46,0,0,1-2.13,1.27c-1.58,0-2.67-1.2-2.67-3.22s1-3.31,2.72-3.31A2.43,2.43,0,0,1,274.88,162.08Zm-4.11,2c0,1.28.64,2.65,2,2.65s2.07-1.17,2.07-2.65v-.1c0-1.69-.87-2.64-2.07-2.64C271.41,161.3,270.77,162.69,270.77,164Z"/><path class="cls-1" d="M18.71,177.73c1.68,0,2.72,1.28,2.72,3.32s-1.05,3.21-2.7,3.21a2.44,2.44,0,0,1-2.1-1.28v3.84h-.69V178h.69v1.12A2.36,2.36,0,0,1,18.71,177.73Zm0,.57c-1.2,0-2.07.95-2.07,2.64v.1c0,1.48.67,2.65,2.07,2.65s2-1.37,2-2.65S20.1,178.3,18.7,178.3Z"/><path class="cls-1" d="M23.2,179.2a2.4,2.4,0,0,1,2.25-1.46v.65a.75.75,0,0,0-.21,0,2.1,2.1,0,0,0-2,2v3.72h-.68V178h.68Z"/><path class="cls-1" d="M25.29,181c0-2,1.25-3.26,2.85-3.26S31,179,31,181s-1.26,3.27-2.85,3.27S25.29,183,25.29,181Zm.69,0c0,1.7,1,2.71,2.15,2.71s2.16-1,2.16-2.71-1-2.7-2.15-2.7S26,179.26,26,181Z"/><path class="cls-1" d="M36.41,179.08v-3.75h.68v8.8h-.68V183a2.47,2.47,0,0,1-2.13,1.27c-1.59,0-2.67-1.2-2.67-3.22s1-3.31,2.72-3.31A2.44,2.44,0,0,1,36.41,179.08Zm-4.12,2c0,1.28.65,2.65,2.05,2.65s2.07-1.17,2.07-2.65v-.1c0-1.69-.87-2.64-2.07-2.64C32.94,178.3,32.29,179.69,32.29,181Z"/><path class="cls-1" d="M42.85,182.92a2.32,2.32,0,0,1-2.07,1.34,2.15,2.15,0,0,1-2.27-2.3v-4h.68v3.89a1.66,1.66,0,0,0,1.66,1.83,2.16,2.16,0,0,0,2-2.28V178h.68v6.17h-.68Z"/><path class="cls-1" d="M49.53,183.54a2.84,2.84,0,0,1-2,.72,3,3,0,0,1-3-3.25,3,3,0,0,1,3-3.28,4.21,4.21,0,0,1,1.81.45l-.27.52a3.34,3.34,0,0,0-1.54-.38,2.69,2.69,0,0,0,0,5.34,2.5,2.5,0,0,0,1.6-.52Z"/><path class="cls-1" d="M50.75,176.28l.69-.23V178h1.49v.55H51.44v4.13c0,.87.61,1,1.38,1v.6c-1.27,0-2.07-.32-2.07-1.57v-4.2h-1V178h1Z"/><path class="cls-1" d="M53.68,175.33h1v1h-1Zm.15,2.63h.69v6.17h-.69Z"/><path class="cls-1" d="M55.56,181c0-2,1.25-3.26,2.85-3.26S61.25,179,61.25,181s-1.26,3.27-2.85,3.27S55.56,183,55.56,181Zm.69,0c0,1.7,1,2.71,2.15,2.71s2.16-1,2.16-2.71-1-2.7-2.15-2.7S56.25,179.26,56.25,181Z"/><path class="cls-1" d="M63,179.08A2.35,2.35,0,0,1,65,177.73,2.16,2.16,0,0,1,67.3,180v4.1h-.68v-4A1.63,1.63,0,0,0,65,178.3a2.18,2.18,0,0,0-2,2.31v3.52h-.68V178H63Z"/><path class="cls-1" d="M68.7,183.65h1.07v1a1.66,1.66,0,0,1-.07.56,2.38,2.38,0,0,1-.93,1.28l-.19-.18a2,2,0,0,0,.73-1.54H68.7Z"/><path class="cls-1" d="M74,175.33h1v1H74Zm.15,2.63h.68v6.17h-.68Z"/><path class="cls-1" d="M76.94,179.08A2.36,2.36,0,0,1,79,177.73,2.16,2.16,0,0,1,81.3,180v4.1h-.69v-4a1.63,1.63,0,0,0-1.67-1.79,2.18,2.18,0,0,0-2,2.31v3.52h-.68V178h.68Z"/><path class="cls-1" d="M87.23,183.54a2.84,2.84,0,0,1-2,.72,3,3,0,0,1-3-3.25,3,3,0,0,1,3-3.28,4.21,4.21,0,0,1,1.81.45l-.27.52a3.34,3.34,0,0,0-1.54-.38,2.69,2.69,0,0,0,0,5.34,2.5,2.5,0,0,0,1.6-.52Z"/><path class="cls-1" d="M88.15,175.33h.68v8.8h-.68Z"/><path class="cls-1" d="M94.57,182.92a2.32,2.32,0,0,1-2.07,1.34,2.15,2.15,0,0,1-2.27-2.3v-4h.68v3.89a1.66,1.66,0,0,0,1.66,1.83,2.16,2.16,0,0,0,2-2.28V178h.68v6.17h-.68Z"/><path class="cls-1" d="M101.1,179.08v-3.75h.68v8.8h-.68V183A2.47,2.47,0,0,1,99,184.26c-1.59,0-2.67-1.2-2.67-3.22s1-3.31,2.72-3.31A2.44,2.44,0,0,1,101.1,179.08ZM97,181c0,1.28.65,2.65,2,2.65s2.07-1.17,2.07-2.65v-.1c0-1.69-.87-2.64-2.07-2.64C97.63,178.3,97,179.69,97,181Z"/><path class="cls-1" d="M103.12,175.33h1v1h-1Zm.15,2.63H104v6.17h-.68Z"/><path class="cls-1" d="M106.11,179.08a2.35,2.35,0,0,1,2.07-1.35,2.16,2.16,0,0,1,2.28,2.3v4.1h-.68v-4a1.63,1.63,0,0,0-1.67-1.79,2.18,2.18,0,0,0-2,2.31v3.52h-.69V178h.69Z"/><path class="cls-1" d="M116.25,179.07V178h.68v5.7a2.74,2.74,0,0,1-2.78,3.07,4.37,4.37,0,0,1-2.09-.54l.26-.52a3.89,3.89,0,0,0,1.81.46c1.12,0,2.12-.75,2.12-2.49v-.78a2.36,2.36,0,0,1-2.12,1.28c-1.56,0-2.68-1.14-2.68-3.14s1-3.27,2.69-3.27A2.41,2.41,0,0,1,116.25,179.07ZM112.13,181c0,1.28.68,2.58,2.06,2.58s2.06-1.14,2.06-2.58c0-1.74-.89-2.68-2.06-2.68C112.77,178.3,112.13,179.62,112.13,181Z"/><path class="cls-1" d="M127.29,184.13h-.68v-4.21h-4.5v4.21h-.68v-8.51h.68v3.74h4.5v-3.74h.68Z"/><path class="cls-1" d="M135.31,184.13h-.71l-.83-2.3h-4l-.85,2.3h-.69l3.14-8.51h.78Zm-1.74-2.86-1.79-5-1.8,5Z"/><path class="cls-1" d="M141.85,183.46a4.26,4.26,0,0,1-2.58.8c-2.42,0-4-1.94-4-4.39,0-2.61,1.65-4.39,3.95-4.39a4.89,4.89,0,0,1,2.52.62l-.32.49a5.26,5.26,0,0,0-2.21-.51c-2.08,0-3.25,1.78-3.25,3.79s1.3,3.79,3.31,3.79a4,4,0,0,0,2.25-.69Z"/><path class="cls-1" d="M149.13,183.46a4.26,4.26,0,0,1-2.58.8c-2.42,0-4-1.94-4-4.39,0-2.61,1.65-4.39,3.95-4.39a4.89,4.89,0,0,1,2.52.62l-.32.49a5.26,5.26,0,0,0-2.21-.51c-2.08,0-3.25,1.78-3.25,3.79s1.3,3.79,3.31,3.79a4,4,0,0,0,2.25-.69Z"/><path class="cls-1" d="M153,175.62a2.6,2.6,0,1,1,0,5.19h-2.07v3.32h-.68v-8.51Zm-2.06.56v4h2a2,2,0,1,0,0-4Z"/><path class="cls-1" d="M155.86,183.65h1.07v1a1.66,1.66,0,0,1-.07.56,2.28,2.28,0,0,1-.93,1.28l-.19-.18a1.89,1.89,0,0,0,.73-1.54h-.61Z"/><path class="cls-1" d="M166.33,176.18H162v3.33h4.09v.57H162v4h-.68v-8.51h5Z"/><path class="cls-1" d="M171.27,176.68a3.53,3.53,0,0,0-1.93-.6c-1.11,0-1.78.58-1.78,1.42,0,1,.86,1.38,2.24,2C171,180,172,180.8,172,182c0,1.59-1.37,2.27-2.71,2.27a4.25,4.25,0,0,1-2.78-1l.35-.53a3.86,3.86,0,0,0,2.34.93c.9,0,2.11-.38,2.11-1.66,0-.88-.79-1.43-2.09-2s-2.38-1.13-2.38-2.45c0-1.56,1.31-2.08,2.46-2.08a4.53,4.53,0,0,1,2.26.68Z"/><path class="cls-1" d="M177.29,176.68a3.53,3.53,0,0,0-1.93-.6c-1.11,0-1.78.58-1.78,1.42,0,1,.86,1.38,2.24,2,1.21.54,2.24,1.31,2.24,2.5,0,1.59-1.38,2.27-2.72,2.27a4.25,4.25,0,0,1-2.78-1l.35-.53a3.86,3.86,0,0,0,2.34.93c.9,0,2.11-.38,2.11-1.66,0-.88-.79-1.43-2.09-2s-2.38-1.13-2.38-2.45c0-1.56,1.31-2.08,2.46-2.08a4.53,4.53,0,0,1,2.26.68Z"/><path class="cls-1" d="M185.18,183.46a4.21,4.21,0,0,1-2.57.8c-2.43,0-4-1.94-4-4.39,0-2.61,1.64-4.39,3.95-4.39a4.92,4.92,0,0,1,2.52.62l-.32.49a5.3,5.3,0,0,0-2.21-.51c-2.09,0-3.25,1.78-3.25,3.79s1.29,3.79,3.31,3.79a4,4,0,0,0,2.24-.69Z"/><path class="cls-1" d="M190.9,183.56v.57H186v-.67l1.88-2.06c1.74-1.92,2.23-2.8,2.23-3.61a1.65,1.65,0,0,0-1.79-1.68,3,3,0,0,0-2,.86l-.35-.47a3.52,3.52,0,0,1,2.36-1,2.22,2.22,0,0,1,2.41,2.25c0,1.2-.9,2.32-2.44,4.06l-1.57,1.74Z"/><path class="cls-1" d="M196.72,183.56v.57h-4.94v-.67l1.88-2.06c1.74-1.92,2.23-2.8,2.23-3.61a1.64,1.64,0,0,0-1.78-1.68,3,3,0,0,0-2,.86l-.35-.47a3.52,3.52,0,0,1,2.36-1,2.22,2.22,0,0,1,2.41,2.25c0,1.2-.9,2.32-2.44,4.06l-1.57,1.74Z"/><path class="cls-1" d="M197.27,179.81c0-1.77.62-4.33,2.7-4.33s2.75,2.52,2.75,4.36c0,2-.62,4.44-2.75,4.44S197.27,181.59,197.27,179.81Zm.66,0c0,1.44.4,3.88,2,3.88s2.09-2.46,2.09-3.85-.39-3.76-2.07-3.76S197.93,178.46,197.93,179.81Z"/><path class="cls-1" d="M203.71,179.81c0-1.77.63-4.33,2.71-4.33s2.74,2.52,2.74,4.36c0,2-.61,4.44-2.74,4.44S203.71,181.59,203.71,179.81Zm.66,0c0,1.44.4,3.88,2,3.88s2.08-2.46,2.08-3.85-.39-3.76-2.07-3.76S204.37,178.46,204.37,179.81Z"/><path class="cls-1" d="M210.16,179.81c0-1.77.62-4.33,2.7-4.33s2.74,2.52,2.74,4.36c0,2-.61,4.44-2.74,4.44S210.16,181.59,210.16,179.81Zm.66,0c0,1.44.4,3.88,2,3.88s2.09-2.46,2.09-3.85-.39-3.76-2.08-3.76S210.82,178.46,210.82,179.81Z"/><path class="cls-1" d="M216.84,183.65h1.07v1a2,2,0,0,1-.07.56,2.38,2.38,0,0,1-.93,1.28l-.19-.18a2,2,0,0,0,.73-1.54h-.61Z"/><path class="cls-1" d="M228.18,184.13h-.69v-4.21H223v4.21h-.68v-8.51H223v3.74h4.49v-3.74h.69Z"/><path class="cls-1" d="M236.2,184.13h-.71l-.83-2.3h-4l-.85,2.3h-.69l3.14-8.51h.78Zm-1.74-2.86-1.79-5-1.8,5Z"/><path class="cls-1" d="M242,184.13h-4.82v-8.51h.68v7.94H242Z"/><path class="cls-1" d="M249.46,184.13h-.7l-.84-2.3h-4l-.84,2.3h-.7l3.14-8.51h.78Zm-1.74-2.86-1.79-5-1.8,5Z"/><path class="cls-1" d="M255.26,184.13h-4.83v-8.51h.69v7.94h4.14Z"/><path class="cls-1" d="M256.27,183.65h1.07v1a2,2,0,0,1-.07.56,2.38,2.38,0,0,1-.93,1.28l-.19-.18a2,2,0,0,0,.73-1.54h-.61Z"/><path class="cls-1" d="M16.26,195.25a3.53,3.53,0,0,1,1.91-.52,2.16,2.16,0,0,1,2,1.22,2.86,2.86,0,0,1,.17,1.07v2.9a5.57,5.57,0,0,0,.09,1.21h-.64a6,6,0,0,1-.15-.77,2.76,2.76,0,0,1-2.1.9,2,2,0,0,1-2-2c0-1.51,1.09-2.16,3-2.16.3,0,.7,0,1.17.08V197a1.49,1.49,0,0,0-1.54-1.7,3.2,3.2,0,0,0-1.6.44Zm3.42,2.46c-.43,0-.75-.06-1.07-.06-1.64,0-2.42.54-2.42,1.64a1.44,1.44,0,0,0,1.54,1.39,1.83,1.83,0,0,0,1.95-1.6Z"/><path class="cls-1" d="M22.42,196.08a2.36,2.36,0,0,1,2.07-1.35,2.16,2.16,0,0,1,2.29,2.3v4.1h-.69v-4a1.62,1.62,0,0,0-1.67-1.79,2.18,2.18,0,0,0-2,2.31v3.52h-.68V195h.68Z"/><path class="cls-1" d="M32.56,196.08v-3.75h.68v8.8h-.68V200a2.46,2.46,0,0,1-2.13,1.27c-1.59,0-2.67-1.2-2.67-3.22s1-3.31,2.72-3.31A2.43,2.43,0,0,1,32.56,196.08Zm-4.12,2c0,1.28.65,2.65,2,2.65s2.07-1.17,2.07-2.65v-.1c0-1.69-.87-2.64-2.07-2.64C29.09,195.3,28.44,196.69,28.44,198Z"/><path class="cls-1" d="M37.35,196.89c0-2.4,1.27-4.41,3.7-4.41s3.73,2,3.73,4.41-1.27,4.37-3.73,4.37S37.35,199.25,37.35,196.89Zm3.7,3.79c2.06,0,3-1.88,3-3.79s-1-3.82-3-3.82-3,1.85-3,3.82S39,200.68,41.05,200.68Z"/><path class="cls-1" d="M46.6,196.2a2.41,2.41,0,0,1,2.25-1.46v.65a.75.75,0,0,0-.21,0,2.1,2.1,0,0,0-2,2v3.72h-.68V195h.68Z"/><path class="cls-1" d="M53.53,196.07V195h.68v5.7a2.73,2.73,0,0,1-2.77,3.07,4.43,4.43,0,0,1-2.1-.54l.26-.52a3.92,3.92,0,0,0,1.81.46c1.12,0,2.12-.75,2.12-2.49v-.78a2.35,2.35,0,0,1-2.12,1.28c-1.55,0-2.68-1.14-2.68-3.14s1-3.27,2.69-3.27A2.4,2.4,0,0,1,53.53,196.07ZM49.41,198c0,1.28.68,2.58,2.06,2.58s2.06-1.14,2.06-2.58c0-1.74-.88-2.68-2.06-2.68C50.06,195.3,49.41,196.62,49.41,198Z"/><path class="cls-1" d="M56,195.25a3.52,3.52,0,0,1,1.9-.52,2.17,2.17,0,0,1,2,1.22,3.09,3.09,0,0,1,.16,1.07v2.9a5,5,0,0,0,.1,1.21h-.64a6,6,0,0,1-.15-.77,2.79,2.79,0,0,1-2.11.9,2,2,0,0,1-2-2c0-1.51,1.09-2.16,3-2.16.3,0,.7,0,1.17.08V197a1.49,1.49,0,0,0-1.54-1.7,3.2,3.2,0,0,0-1.6.44Zm3.42,2.46c-.43,0-.75-.06-1.07-.06-1.65,0-2.42.54-2.42,1.64a1.43,1.43,0,0,0,1.54,1.39,1.83,1.83,0,0,0,2-1.6Z"/><path class="cls-1" d="M62.16,196.08a2.36,2.36,0,0,1,2.07-1.35,2.16,2.16,0,0,1,2.28,2.3v4.1h-.68v-4a1.63,1.63,0,0,0-1.67-1.79,2.18,2.18,0,0,0-2,2.31v3.52h-.68V195h.68Z"/><path class="cls-1" d="M67.76,192.33h1v1h-1Zm.15,2.63h.68v6.17h-.68Z"/><path class="cls-1" d="M74.63,200.54a2.88,2.88,0,0,1-2,.72,3.27,3.27,0,0,1,0-6.53,4.21,4.21,0,0,1,1.82.45l-.27.52a3.41,3.41,0,0,0-1.55-.38,2.69,2.69,0,0,0,0,5.34,2.5,2.5,0,0,0,1.6-.52Z"/><path class="cls-1" d="M81.31,192.62a2.6,2.6,0,1,1,0,5.19H79.25v3.32h-.69v-8.51Zm-2.06.56v4h2a2,2,0,1,0,0-4Z"/><path class="cls-1" d="M85.83,196.2a2.41,2.41,0,0,1,2.25-1.46v.65a.75.75,0,0,0-.21,0,2.1,2.1,0,0,0-2,2v3.72h-.68V195h.68Z"/><path class="cls-1" d="M87.93,198c0-2,1.24-3.26,2.84-3.26S93.61,196,93.61,198s-1.26,3.27-2.85,3.27S87.93,200,87.93,198Zm.68,0c0,1.7,1,2.71,2.15,2.71s2.17-1,2.17-2.71-1-2.7-2.16-2.7S88.61,196.26,88.61,198Z"/><path class="cls-1" d="M99.19,200.54a2.84,2.84,0,0,1-2,.72,3,3,0,0,1-3-3.25,3,3,0,0,1,3-3.28,4.21,4.21,0,0,1,1.81.45l-.27.52a3.34,3.34,0,0,0-1.54-.38,2.69,2.69,0,0,0,0,5.34,2.5,2.5,0,0,0,1.6-.52Z"/><path class="cls-1" d="M104.54,200.69a3.29,3.29,0,0,1-1.88.57,3,3,0,0,1-3-3.17c0-2,1.06-3.37,2.71-3.37a2.73,2.73,0,0,1,2.61,2.92c0,.15,0,.25,0,.41h-4.61a2.38,2.38,0,0,0,2.34,2.61,2.78,2.78,0,0,0,1.55-.43Zm-.2-3.2a2,2,0,0,0-2-2.19,2.27,2.27,0,0,0-2,2.19Z"/><path class="cls-1" d="M108.8,195.7a2.82,2.82,0,0,0-1.31-.38c-.81,0-1.22.41-1.22,1s.54,1,1.54,1.44,1.6.86,1.6,1.79a1.79,1.79,0,0,1-2,1.74,2.8,2.8,0,0,1-2.07-.81l.36-.48a2.52,2.52,0,0,0,1.67.69c.73,0,1.34-.33,1.34-1.1,0-.55-.6-1-1.32-1.31s-1.82-.87-1.82-1.89a1.65,1.65,0,0,1,1.85-1.63,3.15,3.15,0,0,1,1.68.49Z"/><path class="cls-1" d="M113.28,195.7a2.82,2.82,0,0,0-1.3-.38c-.82,0-1.23.41-1.23,1s.54,1,1.54,1.44,1.6.86,1.6,1.79a1.79,1.79,0,0,1-2,1.74,2.82,2.82,0,0,1-2.07-.81l.36-.48a2.52,2.52,0,0,0,1.67.69c.73,0,1.34-.33,1.34-1.1,0-.55-.6-1-1.32-1.31s-1.82-.87-1.82-1.89a1.65,1.65,0,0,1,1.85-1.63,3.13,3.13,0,0,1,1.68.49Z"/><path class="cls-1" d="M119.35,200.69a3.31,3.31,0,0,1-1.88.57,3,3,0,0,1-3-3.17c0-2,1.06-3.37,2.7-3.37a2.73,2.73,0,0,1,2.62,2.92c0,.15,0,.25,0,.41h-4.62a2.39,2.39,0,0,0,2.34,2.61,2.81,2.81,0,0,0,1.56-.43Zm-.2-3.2a2,2,0,0,0-2-2.19,2.26,2.26,0,0,0-2,2.19Z"/><path class="cls-1" d="M125.16,196.08v-3.75h.68v8.8h-.68V200a2.47,2.47,0,0,1-2.13,1.27c-1.59,0-2.67-1.2-2.67-3.22s1-3.31,2.72-3.31A2.43,2.43,0,0,1,125.16,196.08ZM121,198c0,1.28.65,2.65,2,2.65s2.07-1.17,2.07-2.65v-.1c0-1.69-.87-2.64-2.07-2.64C121.69,195.3,121,196.69,121,198Z"/><path class="cls-1" d="M135.33,193.18H131v3.33h4.08v.57H131v4h-.69v-8.51h5Z"/><path class="cls-1" d="M135.55,198c0-2,1.25-3.26,2.85-3.26s2.83,1.26,2.83,3.26-1.25,3.27-2.84,3.27S135.55,200,135.55,198Zm.68,0c0,1.7,1,2.71,2.16,2.71s2.16-1,2.16-2.71-1-2.7-2.15-2.7S136.23,196.26,136.23,198Z"/><path class="cls-1" d="M141.83,198c0-2,1.25-3.26,2.85-3.26s2.83,1.26,2.83,3.26-1.25,3.27-2.84,3.27S141.83,200,141.83,198Zm.68,0c0,1.7,1,2.71,2.16,2.71s2.16-1,2.16-2.71-1-2.7-2.15-2.7S142.51,196.26,142.51,198Z"/><path class="cls-1" d="M153,196.08v-3.75h.68v8.8H153V200a2.47,2.47,0,0,1-2.13,1.27c-1.59,0-2.67-1.2-2.67-3.22s1-3.31,2.71-3.31A2.44,2.44,0,0,1,153,196.08Zm-4.12,2c0,1.28.65,2.65,2,2.65S153,199.52,153,198v-.1c0-1.69-.87-2.64-2.07-2.64C149.48,195.3,148.83,196.69,148.83,198Z"/><path class="cls-1" d="M155.1,200.65h1.07v1.08H155.1Z"/><rect class="cls-2" x="0.25" y="141.91" width="7.56" height="7.56"/><polyline class="cls-3" points="2.1 143.62 4.03 147.03 6.99 138.74"/></g></g></svg>