<svg xmlns="http://www.w3.org/2000/svg" viewBox="0 0 92.59 18"><defs><style>.cls-1{fill:#fff;}.cls-2{fill:none;stroke:#fff;stroke-miterlimit:10;stroke-width:0.5px;}</style></defs><title>자산 140</title><g id="레이어_2" data-name="레이어 2"><g id="레이어_1-2" data-name="레이어 1"><rect width="92.59" height="18"/><path class="cls-1" d="M24.48,11.86h-.81V5.43h.81Z"/><path class="cls-1" d="M30.18,11.86h-.81l-2.89-5v5H25.7V5.43h.8l2.9,5v-5h.78Z"/><path class="cls-1" d="M34,5.35c1.82,0,2.78,1.51,2.78,3.31a3.43,3.43,0,0,1-1.19,2.8l1,1L36,13l-1.15-1.16A2.93,2.93,0,0,1,34,12c-1.82,0-2.77-1.51-2.77-3.3S32.12,5.35,34,5.35ZM32,8.66c0,1.35.67,2.64,2,2.64S35.9,10,35.9,8.66,35.23,6,34,6,32,7.31,32,8.66Z"/><path class="cls-1" d="M42.23,5.43V9.82A2.06,2.06,0,0,1,40,12a2.07,2.07,0,0,1-2.28-2.14V5.43h.8V9.69A1.44,1.44,0,0,0,40,11.29a1.4,1.4,0,0,0,1.46-1.6V5.43Z"/><path class="cls-1" d="M44.28,11.86h-.8V5.43h.8Z"/><path class="cls-1" d="M50.1,11.86h-1L47.47,9.18H46.31v2.68H45.5V5.43h2.14a1.89,1.89,0,0,1,2.08,1.86,1.93,1.93,0,0,1-1.38,1.79ZM47.59,8.52a1.21,1.21,0,0,0,1.32-1.23A1.16,1.16,0,0,0,47.63,6.1H46.31V8.52Z"/><path class="cls-1" d="M54.69,5.43l-2,3.91v2.52h-.81V9.35l-2-3.92h.88L52.29,8.5l1.52-3.07Z"/><polyline class="cls-2" points="65.63 10.37 75.85 10.37 73.11 7.63"/></g></g></svg>