<svg xmlns="http://www.w3.org/2000/svg" viewBox="0 0 656.78 67.35"><defs><style>.cls-1{fill:#231815;}.cls-2{fill:#595757;}</style></defs><title>자산 141</title><g id="레이어_2" data-name="레이어 2"><g id="레이어_1-2" data-name="레이어 1"><path class="cls-1" d="M294.19,10.21c0,3.73-2.1,6.87-6.16,6.87s-6.15-3.14-6.15-6.87S284,3.35,288,3.35,294.19,6.5,294.19,10.21ZM288,5.27c-2.45,0-3.73,2.43-3.73,4.94s1.26,5,3.73,5,3.74-2.42,3.74-5S290.49,5.27,288,5.27Z"/><path class="cls-1" d="M300.51,3.51c3.93,0,6.32,2.81,6.32,6.69,0,3.66-2.45,6.69-6.32,6.69H296V3.51ZM300.46,15c2.61,0,4-2.18,4-4.82,0-2.93-1.56-4.78-4-4.78h-2.12V15Z"/><path class="cls-1" d="M314.73,10.9l3.95-7.39h2.18V16.89h-2.27v-9l-3,5.68h-1.81l-2.95-5.68v9H308.6V3.51h2.18Z"/><path class="cls-2" d="M339.38,13.59h-.87V4.72h.87Z"/><path class="cls-2" d="M341.21,5.45l.87-.27v2h1.53v.71h-1.53V12c0,.85.64,1,1.41,1v.73c-1.36,0-2.28-.33-2.28-1.67V7.85h-.92V7.14h.92Z"/><path class="cls-2" d="M347.31,4.47h1V5.65h-1Zm.08,2.67h.87v6.45h-.87Z"/><path class="cls-2" d="M352.72,8.13a2.72,2.72,0,0,0-1.34-.46c-.78,0-1.18.38-1.18.91s.5.9,1.53,1.4,1.68,1,1.68,1.91a1.86,1.86,0,0,1-2.1,1.81,3,3,0,0,1-2.21-.89l.47-.58a2.59,2.59,0,0,0,1.7.74c.71,0,1.3-.31,1.3-1.05s-.59-.94-1.31-1.28c-.88-.39-1.87-.9-1.87-2a1.71,1.71,0,0,1,1.93-1.71,3.24,3.24,0,0,1,1.81.57Z"/><path class="cls-2" d="M357.54,7.51a3.85,3.85,0,0,1,2.07-.57,2.11,2.11,0,0,1,2.12,1.27,3.14,3.14,0,0,1,.19,1.11v3a5.17,5.17,0,0,0,.12,1.29h-.84a6.93,6.93,0,0,1-.16-.78,2.51,2.51,0,0,1-2.08.9,2.09,2.09,0,0,1-2.18-2.08c0-1.59,1.17-2.27,3.16-2.27.35,0,.72,0,1.12.06V9.23a1.42,1.42,0,0,0-1.52-1.59,3.12,3.12,0,0,0-1.66.51Zm3.52,2.58c-.37,0-.68-.05-1-.05-1.61,0-2.42.5-2.42,1.53A1.39,1.39,0,0,0,359.14,13a1.78,1.78,0,0,0,1.92-1.63Z"/><path class="cls-2" d="M364.06,8.15a2.4,2.4,0,0,1,2-1.2,2.27,2.27,0,0,1,2.42,2.41v4.23h-.87V9.47A1.65,1.65,0,0,0,366,7.63a2,2,0,0,0-1.95,2.17v3.79h-.87V7.14h.87Z"/><path class="cls-2" d="M373,7.51a3.85,3.85,0,0,1,2.07-.57,2.11,2.11,0,0,1,2.12,1.27,3.4,3.4,0,0,1,.18,1.11v3a5.69,5.69,0,0,0,.12,1.29h-.83a5.74,5.74,0,0,1-.17-.78,2.49,2.49,0,0,1-2.07.9,2.09,2.09,0,0,1-2.19-2.08c0-1.59,1.18-2.27,3.17-2.27.35,0,.71,0,1.12.06V9.23A1.42,1.42,0,0,0,375,7.64a3.07,3.07,0,0,0-1.66.51Zm3.52,2.58c-.37,0-.69-.05-1-.05-1.62,0-2.43.5-2.43,1.53a1.4,1.4,0,0,0,1.5,1.38,1.78,1.78,0,0,0,1.92-1.63Z"/><path class="cls-2" d="M383.64,13a3.11,3.11,0,0,1-2.13.76,3.15,3.15,0,0,1-3.19-3.34A3.13,3.13,0,0,1,381.53,7a4.06,4.06,0,0,1,2,.52l-.34.63a3.36,3.36,0,0,0-1.61-.43,2.41,2.41,0,0,0-2.32,2.7A2.41,2.41,0,0,0,381.55,13a2.72,2.72,0,0,0,1.66-.58Z"/><path class="cls-2" d="M384.69,5.45l.87-.27v2h1.53v.71h-1.53V12c0,.85.65,1,1.42,1v.73c-1.37,0-2.29-.33-2.29-1.67V7.85h-.91V7.14h.91Z"/><path class="cls-2" d="M387.86,4.47h1V5.65h-1Zm.08,2.67h.87v6.45h-.87Z"/><path class="cls-2" d="M392.21,12.61l1.94-5.47h.93l-2.4,6.45h-.94l-2.4-6.45h.93Z"/><path class="cls-2" d="M400.37,13.09a3.33,3.33,0,0,1-2,.64,3.09,3.09,0,0,1-3.15-3.29c0-2,1-3.47,2.89-3.47a2.79,2.79,0,0,1,2.73,3,2.8,2.8,0,0,1,0,.5h-4.7A2.32,2.32,0,0,0,398.4,13a2.72,2.72,0,0,0,1.63-.51ZM400,9.76a2,2,0,0,0-1.93-2.07,2.19,2.19,0,0,0-1.92,2.07Z"/><path class="cls-2" d="M409.3,8.14V4.47h.87v9.12h-.87v-1a2.53,2.53,0,0,1-2.1,1.11c-1.67,0-2.81-1.25-2.81-3.36S405.45,7,407.25,7A2.36,2.36,0,0,1,409.3,8.14Zm-4,2.23c0,1.28.61,2.67,2,2.67s2-1.19,2-2.67v-.1c0-1.7-.86-2.64-2-2.64C405.9,7.63,405.29,9,405.29,10.37Z"/><path class="cls-2" d="M416.39,13.09a3.38,3.38,0,0,1-2,.64,3.1,3.1,0,0,1-3.16-3.29c0-2,1-3.47,2.9-3.47a2.8,2.8,0,0,1,2.73,3,2.8,2.8,0,0,1,0,.5h-4.7a2.3,2.3,0,0,0,2.3,2.54,2.73,2.73,0,0,0,1.64-.51ZM416,9.76a2,2,0,0,0-1.93-2.07,2.21,2.21,0,0,0-1.93,2.07Z"/><path class="cls-2" d="M419.81,12.61l1.94-5.47h.93l-2.4,6.45h-.94l-2.4-6.45h.93Z"/><path class="cls-2" d="M428,13.09a3.33,3.33,0,0,1-2,.64,3.09,3.09,0,0,1-3.15-3.29c0-2,1-3.47,2.89-3.47a2.79,2.79,0,0,1,2.73,3,4.18,4.18,0,0,1,0,.5h-4.71A2.32,2.32,0,0,0,426,13a2.72,2.72,0,0,0,1.63-.51Zm-.39-3.33a2,2,0,0,0-1.93-2.07,2.19,2.19,0,0,0-1.92,2.07Z"/><path class="cls-2" d="M429.38,4.47h.87v9.12h-.87Z"/><path class="cls-2" d="M434.29,7a3.07,3.07,0,0,1,3,3.38c0,2.09-1.3,3.4-3,3.4s-3-1.31-3-3.4S432.6,7,434.29,7Zm0,6.08c1.15,0,2.1-1,2.1-2.7s-.95-2.68-2.1-2.68-2.1,1-2.1,2.68S433.15,13,434.29,13Z"/><path class="cls-2" d="M441.25,7c1.76,0,2.86,1.31,2.86,3.43s-1.11,3.35-2.84,3.35a2.52,2.52,0,0,1-2.07-1.11v3.72h-.87V7.14h.87v1A2.35,2.35,0,0,1,441.25,7Zm0,.68c-1.16,0-2,.94-2,2.64v.1c0,1.48.66,2.67,2,2.67s2-1.39,2-2.67S442.6,7.63,441.22,7.63Z"/><path class="cls-2" d="M446,7.91a2.09,2.09,0,0,1,1.72-1,2.06,2.06,0,0,1,1.91,1.26,2.26,2.26,0,0,1,2-1.26,2.08,2.08,0,0,1,2.22,2.23v4.41H453V9.12a1.39,1.39,0,0,0-1.48-1.48,1.58,1.58,0,0,0-1.55,1.78v4.17h-.86V9.23a1.44,1.44,0,0,0-1.46-1.59A1.61,1.61,0,0,0,446,9.4v4.19h-.86V7.14H446Z"/><path class="cls-2" d="M459.89,13.09a3.38,3.38,0,0,1-2,.64,3.1,3.1,0,0,1-3.16-3.29c0-2,1-3.47,2.9-3.47a2.8,2.8,0,0,1,2.73,3,2.8,2.8,0,0,1,0,.5h-4.7a2.3,2.3,0,0,0,2.3,2.54,2.75,2.75,0,0,0,1.64-.51Zm-.39-3.33a2,2,0,0,0-1.93-2.07,2.21,2.21,0,0,0-1.93,2.07Z"/><path class="cls-2" d="M462.17,8.15a2.4,2.4,0,0,1,2-1.2,2.28,2.28,0,0,1,2.43,2.41v4.23h-.87V9.47a1.66,1.66,0,0,0-1.63-1.84,2,2,0,0,0-1.95,2.17v3.79h-.87V7.14h.87Z"/><path class="cls-2" d="M468.19,5.45l.87-.27v2h1.53v.71h-1.53V12c0,.85.65,1,1.41,1v.73c-1.36,0-2.28-.33-2.28-1.67V7.85h-.92V7.14h.92Z"/><path class="cls-2" d="M474.68,7.51a3.85,3.85,0,0,1,2.07-.57,2.11,2.11,0,0,1,2.12,1.27,3.14,3.14,0,0,1,.19,1.11v3a5.17,5.17,0,0,0,.12,1.29h-.84a6.93,6.93,0,0,1-.16-.78,2.5,2.5,0,0,1-2.08.9,2.09,2.09,0,0,1-2.18-2.08c0-1.59,1.17-2.27,3.16-2.27.35,0,.72,0,1.12.06V9.23a1.42,1.42,0,0,0-1.52-1.59,3.12,3.12,0,0,0-1.66.51Zm3.52,2.58c-.37,0-.68-.05-1-.05-1.61,0-2.42.5-2.42,1.53A1.39,1.39,0,0,0,476.28,13a1.78,1.78,0,0,0,1.92-1.63Z"/><path class="cls-2" d="M481.2,8.15a2.4,2.4,0,0,1,2-1.2,2.27,2.27,0,0,1,2.42,2.41v4.23h-.87V9.47a1.65,1.65,0,0,0-1.62-1.84A2,2,0,0,0,481.2,9.8v3.79h-.87V7.14h.87Z"/><path class="cls-2" d="M491.49,8.14V4.47h.87v9.12h-.87v-1a2.53,2.53,0,0,1-2.1,1.11c-1.67,0-2.81-1.25-2.81-3.36S487.64,7,489.44,7A2.36,2.36,0,0,1,491.49,8.14Zm-4,2.23c0,1.28.61,2.67,2,2.67s2-1.19,2-2.67v-.1c0-1.7-.86-2.64-2-2.64C488.09,7.63,487.48,9,487.48,10.37Z"/><path class="cls-2" d="M499.6,7c1.77,0,2.86,1.31,2.86,3.43s-1.11,3.35-2.83,3.35a2.52,2.52,0,0,1-2.08-1.11v3.72h-.87V7.14h.87v1A2.35,2.35,0,0,1,499.6,7Zm0,.68c-1.17,0-2,.94-2,2.64v.1c0,1.48.66,2.67,2,2.67s2-1.39,2-2.67S501,7.63,499.58,7.63Z"/><path class="cls-2" d="M504.39,8.27a2.18,2.18,0,0,1,2-1.31h.28v.79l-.28,0a2,2,0,0,0-2,2v3.89h-.87V7.14h.87Z"/><path class="cls-2" d="M509.68,7a3.07,3.07,0,0,1,3,3.38c0,2.09-1.3,3.4-3,3.4s-3-1.31-3-3.4S508,7,509.68,7Zm0,6.08c1.15,0,2.11-1,2.11-2.7s-1-2.68-2.11-2.68-2.1,1-2.1,2.68S508.54,13,509.68,13Z"/><path class="cls-2" d="M518.3,8.14V4.47h.87v9.12h-.87v-1a2.51,2.51,0,0,1-2.09,1.11c-1.67,0-2.82-1.25-2.82-3.36S514.45,7,516.25,7A2.34,2.34,0,0,1,518.3,8.14Zm-4,2.23c0,1.28.61,2.67,2,2.67s2-1.19,2-2.67v-.1c0-1.7-.86-2.64-2-2.64C514.9,7.63,514.29,9,514.29,10.37Z"/><path class="cls-2" d="M524.94,12.53a2.4,2.4,0,0,1-2,1.2,2.28,2.28,0,0,1-2.42-2.41V7.14h.87v4.07A1.64,1.64,0,0,0,523,13a2,2,0,0,0,2-2.17V7.14h.87v6.45h-.87Z"/><path class="cls-2" d="M532.12,13a3.11,3.11,0,0,1-2.13.76,3.15,3.15,0,0,1-3.19-3.34A3.13,3.13,0,0,1,530,7a4.1,4.1,0,0,1,2,.52l-.34.63A3.36,3.36,0,0,0,530,7.68a2.41,2.41,0,0,0-2.32,2.7A2.41,2.41,0,0,0,530,13a2.72,2.72,0,0,0,1.65-.58Z"/><path class="cls-2" d="M533.17,5.45l.87-.27v2h1.53v.71H534V12c0,.85.65,1,1.42,1v.73c-1.37,0-2.29-.33-2.29-1.67V7.85h-.91V7.14h.91Z"/><path class="cls-2" d="M536.34,4.47h1V5.65h-1Zm.08,2.67h.87v6.45h-.87Z"/><path class="cls-2" d="M541.32,7a3.07,3.07,0,0,1,3,3.38c0,2.09-1.29,3.4-3,3.4s-3-1.31-3-3.4S539.64,7,541.32,7Zm0,6.08c1.16,0,2.11-1,2.11-2.7s-.95-2.68-2.11-2.68-2.09,1-2.09,2.68S540.18,13,541.32,13Z"/><path class="cls-2" d="M546.24,8.15a2.4,2.4,0,0,1,2-1.2,2.28,2.28,0,0,1,2.43,2.41v4.23h-.87V9.47a1.66,1.66,0,0,0-1.63-1.84,2,2,0,0,0-2,2.17v3.79h-.87V7.14h.87Z"/><path class="cls-2" d="M555.75,7.91a2.09,2.09,0,0,1,1.72-1,2.06,2.06,0,0,1,1.91,1.26,2.26,2.26,0,0,1,2-1.26,2.08,2.08,0,0,1,2.22,2.23v4.41h-.86V9.12a1.38,1.38,0,0,0-1.48-1.48,1.58,1.58,0,0,0-1.55,1.78v4.17h-.86V9.23a1.44,1.44,0,0,0-1.46-1.59,1.61,1.61,0,0,0-1.59,1.76v4.19h-.86V7.14h.86Z"/><path class="cls-2" d="M569.62,13.09a3.38,3.38,0,0,1-2,.64,3.1,3.1,0,0,1-3.16-3.29c0-2,1-3.47,2.9-3.47a2.8,2.8,0,0,1,2.73,3,2.8,2.8,0,0,1,0,.5h-4.7a2.3,2.3,0,0,0,2.3,2.54,2.73,2.73,0,0,0,1.64-.51Zm-.39-3.33a2,2,0,0,0-1.93-2.07,2.21,2.21,0,0,0-1.93,2.07Z"/><path class="cls-2" d="M571.33,5.45l.88-.27v2h1.52v.71h-1.52V12c0,.85.64,1,1.41,1v.73c-1.37,0-2.29-.33-2.29-1.67V7.85h-.91V7.14h.91Z"/><path class="cls-2" d="M575.45,8.15a2.44,2.44,0,0,1,2-1.2,2.28,2.28,0,0,1,2.43,2.41v4.23H579V9.47a1.66,1.66,0,0,0-1.63-1.84,2.06,2.06,0,0,0-1.95,2.17v3.79h-.87V4.47h.87Z"/><path class="cls-2" d="M583.81,7a3.07,3.07,0,0,1,3,3.38c0,2.09-1.29,3.4-3,3.4s-3-1.31-3-3.4S582.13,7,583.81,7Zm0,6.08c1.16,0,2.11-1,2.11-2.7s-.95-2.68-2.11-2.68-2.09,1-2.09,2.68S582.67,13,583.81,13Z"/><path class="cls-2" d="M592.43,8.14V4.47h.87v9.12h-.87v-1a2.51,2.51,0,0,1-2.09,1.11c-1.67,0-2.81-1.25-2.81-3.36S588.59,7,590.39,7A2.33,2.33,0,0,1,592.43,8.14Zm-4,2.23c0,1.28.61,2.67,2,2.67s2-1.19,2-2.67v-.1c0-1.7-.86-2.64-2-2.64C589,7.63,588.42,9,588.42,10.37Z"/><path class="cls-2" d="M597.55,4.47h1V5.65h-1Zm.08,2.67h.87v6.45h-.87Z"/><path class="cls-2" d="M600.76,8.15a2.4,2.4,0,0,1,2-1.2,2.28,2.28,0,0,1,2.43,2.41v4.23h-.88V9.47a1.65,1.65,0,0,0-1.62-1.84,2,2,0,0,0-2,2.17v3.79h-.87V7.14h.87Z"/><path class="cls-2" d="M614.71,12.51l1.42-5.37H617l-1.83,6.45h-.86l-1.44-5.46-1.45,5.46h-.86l-1.82-6.45h.83L611,12.51l1.41-5.37h.91Z"/><path class="cls-2" d="M618.53,8.15a2.42,2.42,0,0,1,2-1.2A2.27,2.27,0,0,1,623,9.36v4.23h-.87V9.47a1.65,1.65,0,0,0-1.62-1.84,2.06,2.06,0,0,0-2,2.17v3.79h-.87V4.47h.87Z"/><path class="cls-2" d="M624.16,4.47h1V5.65h-1Zm.08,2.67h.87v6.45h-.87Z"/><path class="cls-2" d="M631.48,13a3.11,3.11,0,0,1-2.13.76,3.15,3.15,0,0,1-3.19-3.34A3.13,3.13,0,0,1,629.37,7a4.1,4.1,0,0,1,2,.52l-.34.63a3.36,3.36,0,0,0-1.61-.43,2.41,2.41,0,0,0-2.32,2.7A2.41,2.41,0,0,0,629.39,13a2.72,2.72,0,0,0,1.66-.58Z"/><path class="cls-2" d="M633.1,8.15a2.42,2.42,0,0,1,2-1.2,2.27,2.27,0,0,1,2.42,2.41v4.23h-.87V9.47a1.65,1.65,0,0,0-1.62-1.84A2.06,2.06,0,0,0,633.1,9.8v3.79h-.87V4.47h.87Z"/><path class="cls-2" d="M338.71,22.45l.87-.27v2h1.53v.71h-1.53V29c0,.85.65,1,1.42,1v.73c-1.37,0-2.29-.33-2.29-1.67V24.85h-.91v-.71h.91Z"/><path class="cls-2" d="M342.83,25.15a2.42,2.42,0,0,1,2-1.2,2.28,2.28,0,0,1,2.43,2.41v4.23h-.87V26.47a1.66,1.66,0,0,0-1.63-1.84,2.06,2.06,0,0,0-1.95,2.17v3.79H342V21.47h.87Z"/><path class="cls-2" d="M353.38,30.09a3.38,3.38,0,0,1-2,.64,3.1,3.1,0,0,1-3.16-3.29c0-2,1-3.47,2.9-3.47a2.8,2.8,0,0,1,2.73,3,2.8,2.8,0,0,1,0,.5h-4.7A2.3,2.3,0,0,0,351.4,30a2.73,2.73,0,0,0,1.64-.51ZM353,26.76a2,2,0,0,0-1.93-2.07,2.21,2.21,0,0,0-1.93,2.07Z"/><path class="cls-2" d="M358.59,24.91a2.08,2.08,0,0,1,1.72-1,2,2,0,0,1,1.9,1.26,2.27,2.27,0,0,1,2-1.26,2.09,2.09,0,0,1,2.23,2.23v4.41h-.86V26.12a1.39,1.39,0,0,0-1.48-1.48,1.58,1.58,0,0,0-1.56,1.78v4.17h-.86V26.23a1.44,1.44,0,0,0-1.45-1.59,1.61,1.61,0,0,0-1.59,1.76v4.19h-.86V24.14h.86Z"/><path class="cls-2" d="M367.93,24.51a3.83,3.83,0,0,1,2.07-.57,2.09,2.09,0,0,1,2.11,1.27,3.14,3.14,0,0,1,.19,1.11v3a5.17,5.17,0,0,0,.12,1.29h-.84a6.93,6.93,0,0,1-.16-.78,2.49,2.49,0,0,1-2.07.9,2.09,2.09,0,0,1-2.19-2.08c0-1.59,1.18-2.27,3.17-2.27a11.05,11.05,0,0,1,1.11.06l0-.19a1.42,1.42,0,0,0-1.52-1.59,3.07,3.07,0,0,0-1.66.51Zm3.51,2.58c-.36,0-.68-.05-1-.05-1.62,0-2.43.5-2.43,1.53a1.4,1.4,0,0,0,1.5,1.38,1.77,1.77,0,0,0,1.91-1.63Z"/><path class="cls-2" d="M374.44,25.15a2.4,2.4,0,0,1,2-1.2,2.28,2.28,0,0,1,2.43,2.41v4.23H378V26.47a1.66,1.66,0,0,0-1.63-1.84,2,2,0,0,0-1.95,2.17v3.79h-.87V24.14h.87Z"/><path class="cls-2" d="M384.54,29.53a2.4,2.4,0,0,1-2,1.2,2.28,2.28,0,0,1-2.42-2.41V24.14H381v4.07A1.64,1.64,0,0,0,382.59,30a2,2,0,0,0,2-2.17V24.14h.87v6.45h-.87Z"/><path class="cls-2" d="M387,24.14v-.75a3.69,3.69,0,0,1,.11-1,1.62,1.62,0,0,1,1.61-1.14,3.42,3.42,0,0,1,1.15.21l-.25.69a2.47,2.47,0,0,0-.78-.16.86.86,0,0,0-.87.56,2.34,2.34,0,0,0-.1.82v.79h1.36v.71h-1.36v5.74H387V24.85h-.91v-.71Z"/><path class="cls-2" d="M390.25,24.51a3.83,3.83,0,0,1,2.07-.57,2.09,2.09,0,0,1,2.11,1.27,3.14,3.14,0,0,1,.19,1.11v3a5.17,5.17,0,0,0,.12,1.29h-.84a6.93,6.93,0,0,1-.16-.78,2.49,2.49,0,0,1-2.07.9,2.09,2.09,0,0,1-2.19-2.08c0-1.59,1.18-2.27,3.17-2.27a11.05,11.05,0,0,1,1.11.06l0-.19a1.42,1.42,0,0,0-1.52-1.59,3.07,3.07,0,0,0-1.66.51Zm3.51,2.58c-.36,0-.68-.05-1-.05-1.62,0-2.43.5-2.43,1.53a1.4,1.4,0,0,0,1.5,1.38,1.77,1.77,0,0,0,1.91-1.63Z"/><path class="cls-2" d="M400.87,30a3.11,3.11,0,0,1-2.13.76,3.15,3.15,0,0,1-3.19-3.34A3.13,3.13,0,0,1,398.76,24a4.1,4.1,0,0,1,1.95.52l-.34.63a3.36,3.36,0,0,0-1.61-.43,2.41,2.41,0,0,0-2.32,2.7A2.41,2.41,0,0,0,398.78,30a2.72,2.72,0,0,0,1.66-.58Z"/><path class="cls-2" d="M401.92,22.45l.87-.27v2h1.53v.71h-1.53V29c0,.85.65,1,1.42,1v.73c-1.37,0-2.29-.33-2.29-1.67V24.85H401v-.71h.91Z"/><path class="cls-2" d="M409.56,29.53a2.41,2.41,0,0,1-2,1.2,2.28,2.28,0,0,1-2.42-2.41V24.14H406v4.07A1.64,1.64,0,0,0,407.6,30a2,2,0,0,0,2-2.17V24.14h.87v6.45h-.87Z"/><path class="cls-2" d="M412.62,25.27a2.19,2.19,0,0,1,2-1.31h.28v.79l-.28,0a2,2,0,0,0-2,2v3.89h-.87V24.14h.87Z"/><path class="cls-2" d="M415.48,21.47h1v1.18h-1Zm.08,2.67h.87v6.45h-.87Z"/><path class="cls-2" d="M418.69,25.15a2.41,2.41,0,0,1,2-1.2,2.27,2.27,0,0,1,2.42,2.41v4.23h-.87V26.47a1.66,1.66,0,0,0-1.62-1.84,2,2,0,0,0-2,2.17v3.79h-.87V24.14h.87Z"/><path class="cls-2" d="M429,25.14v-1h.87v5.91a2.87,2.87,0,0,1-2.93,3.21,4.62,4.62,0,0,1-2.22-.6L425,32a3.92,3.92,0,0,0,1.88.51c1.11,0,2.08-.74,2.08-2.48v-.48a2.4,2.4,0,0,1-2.08,1.06c-1.67,0-2.82-1.19-2.82-3.28S425.17,24,426.91,24A2.36,2.36,0,0,1,429,25.14Zm-4,2.17c0,1.28.61,2.61,2,2.61s2-1.12,2-2.61v0c0-1.7-.85-2.64-2-2.64C425.58,24.63,425,26,425,27.31Z"/><path class="cls-2" d="M439.16,30a3.11,3.11,0,0,1-2.13.76,3.15,3.15,0,0,1-3.19-3.34A3.13,3.13,0,0,1,437.05,24a4.1,4.1,0,0,1,1.95.52l-.34.63a3.36,3.36,0,0,0-1.61-.43,2.41,2.41,0,0,0-2.32,2.7A2.41,2.41,0,0,0,437.07,30a2.72,2.72,0,0,0,1.66-.58Z"/><path class="cls-2" d="M442.55,24a3.07,3.07,0,0,1,3,3.38c0,2.09-1.29,3.4-3,3.4s-3-1.31-3-3.4S440.87,24,442.55,24Zm0,6.08c1.16,0,2.11-1,2.11-2.7s-1-2.68-2.11-2.68-2.09,1-2.09,2.68S441.41,30,442.55,30Z"/><path class="cls-2" d="M447.46,24.91a2,2,0,0,1,3.62.3A2.27,2.27,0,0,1,453,24a2.09,2.09,0,0,1,2.23,2.23v4.41h-.86V26.12a1.39,1.39,0,0,0-1.48-1.48,1.58,1.58,0,0,0-1.56,1.78v4.17h-.86V26.23A1.44,1.44,0,0,0,449,24.64a1.61,1.61,0,0,0-1.58,1.76v4.19h-.86V24.14h.86Z"/><path class="cls-2" d="M459.41,24c1.76,0,2.85,1.31,2.85,3.43s-1.1,3.35-2.83,3.35a2.5,2.5,0,0,1-2.07-1.11v3.72h-.87v-9.2h.87v1A2.34,2.34,0,0,1,459.41,24Zm0,.68c-1.16,0-2,.94-2,2.64v.1c0,1.48.66,2.67,2,2.67s2-1.39,2-2.67S460.76,24.63,459.38,24.63Z"/><path class="cls-2" d="M463.63,24.51a3.83,3.83,0,0,1,2.07-.57,2.09,2.09,0,0,1,2.11,1.27,3.14,3.14,0,0,1,.19,1.11v3a5.17,5.17,0,0,0,.12,1.29h-.83a5.74,5.74,0,0,1-.17-.78,2.49,2.49,0,0,1-2.07.9,2.09,2.09,0,0,1-2.19-2.08c0-1.59,1.18-2.27,3.17-2.27a11.05,11.05,0,0,1,1.11.06l0-.19a1.42,1.42,0,0,0-1.52-1.59,3.07,3.07,0,0,0-1.66.51Zm3.51,2.58c-.36,0-.68-.05-1-.05-1.62,0-2.43.5-2.43,1.53a1.4,1.4,0,0,0,1.5,1.38,1.77,1.77,0,0,0,1.91-1.63Z"/><path class="cls-2" d="M470.14,25.15a2.41,2.41,0,0,1,2-1.2,2.27,2.27,0,0,1,2.42,2.41v4.23h-.87V26.47a1.66,1.66,0,0,0-1.63-1.84,2,2,0,0,0-1.95,2.17v3.79h-.87V24.14h.87Z"/><path class="cls-2" d="M475.29,32.62a2.69,2.69,0,0,0,2.19-2.07l-2.38-6.41H476l1.9,5.35,1.83-5.35h.93l-2.1,5.93c-.7,2-1.16,2.87-3,3.28Z"/><path class="cls-2" d="M484.17,21.47H485v9.12h-.87Z"/><path class="cls-2" d="M491.26,30.09a3.33,3.33,0,0,1-2,.64,3.09,3.09,0,0,1-3.15-3.29c0-2,1-3.47,2.89-3.47a2.79,2.79,0,0,1,2.73,3,4.18,4.18,0,0,1,0,.5H487A2.32,2.32,0,0,0,489.29,30a2.72,2.72,0,0,0,1.63-.51Zm-.38-3.33A2,2,0,0,0,489,24.69,2.19,2.19,0,0,0,487,26.76Z"/><path class="cls-2" d="M493,24.51a3.85,3.85,0,0,1,2.07-.57,2.11,2.11,0,0,1,2.12,1.27,3.14,3.14,0,0,1,.19,1.11v3a5.67,5.67,0,0,0,.11,1.29h-.83a5.74,5.74,0,0,1-.17-.78,2.47,2.47,0,0,1-2.07.9,2.09,2.09,0,0,1-2.19-2.08c0-1.59,1.18-2.27,3.17-2.27.35,0,.72,0,1.12.06v-.19A1.42,1.42,0,0,0,495,24.64a3.07,3.07,0,0,0-1.66.51Zm3.52,2.58c-.37,0-.69-.05-1-.05-1.61,0-2.43.5-2.43,1.53a1.4,1.4,0,0,0,1.5,1.38,1.78,1.78,0,0,0,1.92-1.63Z"/><path class="cls-2" d="M503.2,25.14V21.47h.87v9.12h-.87v-1a2.51,2.51,0,0,1-2.09,1.11c-1.67,0-2.82-1.25-2.82-3.36S499.35,24,501.15,24A2.34,2.34,0,0,1,503.2,25.14Zm-4,2.23c0,1.28.61,2.67,2,2.67s2-1.19,2-2.67v-.1c0-1.7-.86-2.64-2-2.64C499.8,24.63,499.19,26,499.19,27.37Z"/><path class="cls-2" d="M508.53,25.13a2.75,2.75,0,0,0-1.34-.46c-.78,0-1.18.38-1.18.91s.49.9,1.53,1.4,1.68,1,1.68,1.91a1.87,1.87,0,0,1-2.1,1.81,3,3,0,0,1-2.22-.89l.47-.58a2.59,2.59,0,0,0,1.71.74c.71,0,1.29-.31,1.29-1s-.58-.94-1.3-1.28c-.88-.39-1.87-.9-1.87-2a1.71,1.71,0,0,1,1.93-1.71,3.29,3.29,0,0,1,1.81.57Z"/><path class="cls-2" d="M513.35,22.45l.87-.27v2h1.53v.71h-1.53V29c0,.85.64,1,1.41,1v.73c-1.37,0-2.28-.33-2.28-1.67V24.85h-.92v-.71h.92Z"/><path class="cls-2" d="M517.46,25.15a2.44,2.44,0,0,1,2-1.2,2.27,2.27,0,0,1,2.42,2.41v4.23H521V26.47a1.65,1.65,0,0,0-1.62-1.84,2.06,2.06,0,0,0-2,2.17v3.79h-.87V21.47h.87Z"/><path class="cls-2" d="M528,30.09a3.33,3.33,0,0,1-2,.64,3.09,3.09,0,0,1-3.15-3.29c0-2,1-3.47,2.89-3.47a2.79,2.79,0,0,1,2.73,3,4.18,4.18,0,0,1,0,.5h-4.71A2.32,2.32,0,0,0,526,30a2.72,2.72,0,0,0,1.63-.51Zm-.38-3.33a2,2,0,0,0-1.93-2.07,2.19,2.19,0,0,0-1.93,2.07Z"/><path class="cls-2" d="M537.2,30.09a3.39,3.39,0,0,1-2,.64A3.09,3.09,0,0,1,532,27.44c0-2,1-3.47,2.9-3.47a2.79,2.79,0,0,1,2.72,3,4.18,4.18,0,0,1,0,.5h-4.7a2.3,2.3,0,0,0,2.3,2.54,2.77,2.77,0,0,0,1.64-.51Zm-.39-3.33a2,2,0,0,0-1.93-2.07A2.19,2.19,0,0,0,533,26.76Z"/><path class="cls-2" d="M539.48,25.15a2.4,2.4,0,0,1,2-1.2,2.27,2.27,0,0,1,2.42,2.41v4.23h-.87V26.47a1.65,1.65,0,0,0-1.62-1.84,2,2,0,0,0-1.95,2.17v3.79h-.87V24.14h.87Z"/><path class="cls-2" d="M545.5,22.45l.87-.27v2h1.53v.71h-1.53V29c0,.85.65,1,1.41,1v.73c-1.36,0-2.28-.33-2.28-1.67V24.85h-.92v-.71h.92Z"/><path class="cls-2" d="M548.66,21.47h1v1.18h-1Zm.08,2.67h.87v6.45h-.87Z"/><path class="cls-2" d="M551.87,25.27a2.19,2.19,0,0,1,2-1.31h.29v.79l-.29,0a2,2,0,0,0-2,2v3.89H551V24.14h.87Z"/><path class="cls-2" d="M559.35,30.09a3.33,3.33,0,0,1-2,.64,3.09,3.09,0,0,1-3.15-3.29c0-2,1-3.47,2.89-3.47a2.79,2.79,0,0,1,2.73,3,4.18,4.18,0,0,1,0,.5h-4.71A2.32,2.32,0,0,0,557.38,30a2.72,2.72,0,0,0,1.63-.51ZM559,26.76A2,2,0,0,0,557,24.69a2.19,2.19,0,0,0-1.93,2.07Z"/><path class="cls-2" d="M566.62,24c1.76,0,2.86,1.31,2.86,3.43s-1.11,3.35-2.84,3.35a2.52,2.52,0,0,1-2.07-1.11v3.72h-.87v-9.2h.87v1A2.35,2.35,0,0,1,566.62,24Zm0,.68c-1.17,0-2,.94-2,2.64v.1c0,1.48.66,2.67,2,2.67s2-1.39,2-2.67S568,24.63,566.6,24.63Z"/><path class="cls-2" d="M571.41,25.27a2.18,2.18,0,0,1,2-1.31h.28v.79l-.28,0a2,2,0,0,0-2,2v3.89h-.87V24.14h.87Z"/><path class="cls-2" d="M576.7,24a3.07,3.07,0,0,1,3,3.38c0,2.09-1.3,3.4-3,3.4s-3-1.31-3-3.4S575,24,576.7,24Zm0,6.08c1.15,0,2.1-1,2.1-2.7s-.95-2.68-2.1-2.68-2.1,1-2.1,2.68S575.56,30,576.7,30Z"/><path class="cls-2" d="M585.72,30a3.11,3.11,0,0,1-2.13.76,3.16,3.16,0,0,1-3.19-3.34A3.13,3.13,0,0,1,583.61,24a4.14,4.14,0,0,1,2,.52l-.35.63a3.36,3.36,0,0,0-1.61-.43,2.41,2.41,0,0,0-2.32,2.7A2.41,2.41,0,0,0,583.64,30a2.72,2.72,0,0,0,1.65-.58Z"/><path class="cls-2" d="M591.3,30.09a3.33,3.33,0,0,1-2,.64,3.09,3.09,0,0,1-3.15-3.29c0-2,1-3.47,2.89-3.47a2.79,2.79,0,0,1,2.73,3,4.18,4.18,0,0,1,0,.5H587A2.32,2.32,0,0,0,589.33,30a2.72,2.72,0,0,0,1.63-.51Zm-.38-3.33A2,2,0,0,0,589,24.69a2.19,2.19,0,0,0-1.93,2.07Z"/><path class="cls-2" d="M595.79,25.13a2.76,2.76,0,0,0-1.35-.46c-.77,0-1.17.38-1.17.91s.49.9,1.53,1.4,1.68,1,1.68,1.91a1.87,1.87,0,0,1-2.11,1.81,3,3,0,0,1-2.21-.89l.47-.58a2.59,2.59,0,0,0,1.71.74c.7,0,1.29-.31,1.29-1s-.59-.94-1.3-1.28c-.89-.39-1.87-.9-1.87-2a1.71,1.71,0,0,1,1.92-1.71,3.3,3.3,0,0,1,1.82.57Z"/><path class="cls-2" d="M600.43,25.13a2.72,2.72,0,0,0-1.34-.46c-.78,0-1.18.38-1.18.91s.5.9,1.53,1.4,1.68,1,1.68,1.91A1.87,1.87,0,0,1,599,30.7a3,3,0,0,1-2.21-.89l.47-.58A2.57,2.57,0,0,0,599,30c.71,0,1.3-.31,1.3-1s-.59-.94-1.31-1.28c-.88-.39-1.87-.9-1.87-2A1.71,1.71,0,0,1,599,23.94a3.27,3.27,0,0,1,1.81.57Z"/><path class="cls-2" d="M605.24,24.14v-.75a3.32,3.32,0,0,1,.12-1A1.61,1.61,0,0,1,607,21.23a3.41,3.41,0,0,1,1.14.21l-.25.69a2.41,2.41,0,0,0-.78-.16.87.87,0,0,0-.87.56,2.34,2.34,0,0,0-.1.82v.79h1.36v.71h-1.36v5.74h-.87V24.85h-.91v-.71Z"/><path class="cls-2" d="M609.37,25.27a2.18,2.18,0,0,1,2-1.31h.28v.79l-.28,0a2,2,0,0,0-2,2v3.89h-.87V24.14h.87Z"/><path class="cls-2" d="M614.66,24a3.07,3.07,0,0,1,3,3.38c0,2.09-1.29,3.4-3,3.4s-3-1.31-3-3.4S613,24,614.66,24Zm0,6.08c1.15,0,2.1-1,2.1-2.7s-1-2.68-2.1-2.68-2.1,1-2.1,2.68S613.52,30,614.66,30Z"/><path class="cls-2" d="M619.56,24.91a2.09,2.09,0,0,1,1.72-1,2.06,2.06,0,0,1,1.91,1.26A2.26,2.26,0,0,1,625.14,24a2.08,2.08,0,0,1,2.22,2.23v4.41h-.86V26.12A1.39,1.39,0,0,0,625,24.64a1.58,1.58,0,0,0-1.55,1.78v4.17h-.86V26.23a1.44,1.44,0,0,0-1.46-1.59,1.61,1.61,0,0,0-1.59,1.76v4.19h-.86V24.14h.86Z"/><path class="cls-2" d="M341.33,41c1.76,0,2.85,1.31,2.85,3.43s-1.1,3.35-2.83,3.35a2.5,2.5,0,0,1-2.07-1.11v3.72h-.87v-9.2h.87v1A2.34,2.34,0,0,1,341.33,41Zm0,.68c-1.16,0-2,.94-2,2.64v.1c0,1.48.66,2.67,2,2.67s2-1.39,2-2.67S342.68,41.63,341.3,41.63Z"/><path class="cls-2" d="M346.11,42.27a2.19,2.19,0,0,1,2-1.31h.29v.79l-.29,0a2,2,0,0,0-2,2v3.89h-.87V41.14h.87Z"/><path class="cls-2" d="M351.4,41a3.07,3.07,0,0,1,3,3.38c0,2.09-1.29,3.4-3,3.4s-3-1.31-3-3.4S349.72,41,351.4,41Zm0,6.08c1.16,0,2.11-1,2.11-2.7s-.95-2.68-2.11-2.68-2.09,1-2.09,2.68S350.26,47,351.4,47Z"/><path class="cls-2" d="M360,42.14V38.47h.87v9.12H360v-1a2.49,2.49,0,0,1-2.09,1.11c-1.67,0-2.81-1.25-2.81-3.36S356.18,41,358,41A2.33,2.33,0,0,1,360,42.14Zm-4,2.23c0,1.28.62,2.67,2,2.67s2-1.19,2-2.67v-.1c0-1.7-.85-2.64-2-2.64C356.63,41.63,356,43,356,44.37Z"/><path class="cls-2" d="M366.67,46.53a2.41,2.41,0,0,1-2,1.2,2.28,2.28,0,0,1-2.42-2.41V41.14h.87v4.07A1.65,1.65,0,0,0,364.72,47a2,2,0,0,0,1.95-2.17V41.14h.87v6.45h-.87Z"/><path class="cls-2" d="M373.84,47a3.08,3.08,0,0,1-2.13.76,3.15,3.15,0,0,1-3.18-3.34A3.12,3.12,0,0,1,371.74,41a4.13,4.13,0,0,1,1.95.52l-.34.63a3.42,3.42,0,0,0-1.61-.43,2.4,2.4,0,0,0-2.32,2.7A2.41,2.41,0,0,0,371.76,47a2.72,2.72,0,0,0,1.66-.58Z"/><path class="cls-2" d="M374.9,39.45l.87-.27v2h1.53v.71h-1.53V46c0,.85.65,1,1.41,1v.73c-1.36,0-2.28-.33-2.28-1.67V41.85H374v-.71h.92Z"/><path class="cls-2" d="M384,41c1.77,0,2.86,1.31,2.86,3.43s-1.11,3.35-2.83,3.35A2.49,2.49,0,0,1,382,46.62v3.72h-.88v-9.2H382v1A2.33,2.33,0,0,1,384,41Zm0,.68c-1.17,0-2,.94-2,2.64v.1c0,1.48.65,2.67,2,2.67s2-1.39,2-2.67S385.35,41.63,384,41.63Z"/><path class="cls-2" d="M387.92,38.47h.87v9.12h-.87Z"/><path class="cls-2" d="M390.48,41.51a3.85,3.85,0,0,1,2.07-.57,2.11,2.11,0,0,1,2.12,1.27,3.14,3.14,0,0,1,.19,1.11v3a5.67,5.67,0,0,0,.11,1.29h-.83a5.74,5.74,0,0,1-.17-.78,2.47,2.47,0,0,1-2.07.9,2.09,2.09,0,0,1-2.18-2.08c0-1.59,1.17-2.27,3.16-2.27.35,0,.72,0,1.12.06v-.19a1.42,1.42,0,0,0-1.52-1.59,3.12,3.12,0,0,0-1.66.51ZM394,44.09c-.37,0-.68-.05-1-.05-1.61,0-2.42.5-2.42,1.53A1.39,1.39,0,0,0,392.08,47,1.78,1.78,0,0,0,394,45.32Z"/><path class="cls-2" d="M397,42.15a2.4,2.4,0,0,1,2-1.2,2.27,2.27,0,0,1,2.42,2.41v4.23h-.87V43.47A1.65,1.65,0,0,0,399,41.63,2,2,0,0,0,397,43.8v3.79h-.87V41.14H397Z"/><path class="cls-2" d="M403.58,42.15a2.4,2.4,0,0,1,2-1.2A2.28,2.28,0,0,1,408,43.36v4.23h-.87V43.47a1.66,1.66,0,0,0-1.63-1.84,2,2,0,0,0-1.95,2.17v3.79h-.87V41.14h.87Z"/><path class="cls-2" d="M409.21,38.47h1v1.18h-1Zm.08,2.67h.88v6.45h-.88Z"/><path class="cls-2" d="M412.42,42.15a2.41,2.41,0,0,1,2-1.2,2.27,2.27,0,0,1,2.42,2.41v4.23H416V43.47a1.65,1.65,0,0,0-1.62-1.84,2,2,0,0,0-2,2.17v3.79h-.87V41.14h.87Z"/><path class="cls-2" d="M422.72,42.14v-1h.87v5.91a2.87,2.87,0,0,1-2.93,3.21,4.63,4.63,0,0,1-2.23-.6l.32-.66a3.92,3.92,0,0,0,1.88.51c1.11,0,2.09-.74,2.09-2.48v-.48a2.43,2.43,0,0,1-2.09,1.06c-1.67,0-2.82-1.19-2.82-3.28S418.9,41,420.64,41A2.37,2.37,0,0,1,422.72,42.14Zm-4,2.17c0,1.28.62,2.61,2,2.61s2-1.12,2-2.61v0c0-1.7-.86-2.64-2-2.64C419.32,41.63,418.7,43,418.7,44.31Z"/><path class="cls-2" d="M428.22,39.45l.87-.27v2h1.53v.71h-1.53V46c0,.85.64,1,1.41,1v.73c-1.37,0-2.28-.33-2.28-1.67V41.85h-.92v-.71h.92Z"/><path class="cls-2" d="M434,41a3.07,3.07,0,0,1,3,3.38c0,2.09-1.29,3.4-3,3.4s-3-1.31-3-3.4S432.31,41,434,41ZM434,47c1.16,0,2.11-1,2.11-2.7s-1-2.68-2.11-2.68-2.09,1-2.09,2.68S432.85,47,434,47Z"/><path class="cls-2" d="M445.55,42.14V38.47h.87v9.12h-.87v-1a2.51,2.51,0,0,1-2.09,1.11c-1.67,0-2.81-1.25-2.81-3.36S441.71,41,443.51,41A2.33,2.33,0,0,1,445.55,42.14Zm-4,2.23c0,1.28.61,2.67,2,2.67s2-1.19,2-2.67v-.1c0-1.7-.86-2.64-2-2.64C442.15,41.63,441.54,43,441.54,44.37Z"/><path class="cls-2" d="M452.64,47.09a3.33,3.33,0,0,1-2,.64,3.09,3.09,0,0,1-3.15-3.29c0-2,1-3.47,2.89-3.47a2.79,2.79,0,0,1,2.73,3,4.18,4.18,0,0,1,0,.5h-4.71A2.32,2.32,0,0,0,450.67,47a2.72,2.72,0,0,0,1.63-.51Zm-.38-3.33a2,2,0,0,0-1.93-2.07,2.19,2.19,0,0,0-1.93,2.07Z"/><path class="cls-2" d="M456.06,46.61,458,41.14h.93l-2.4,6.45h-1l-2.39-6.45h.92Z"/><path class="cls-2" d="M464.23,47.09a3.38,3.38,0,0,1-2,.64,3.1,3.1,0,0,1-3.16-3.29c0-2,1-3.47,2.9-3.47a2.79,2.79,0,0,1,2.72,3,4.18,4.18,0,0,1,0,.5H460a2.3,2.3,0,0,0,2.3,2.54,2.75,2.75,0,0,0,1.64-.51Zm-.39-3.33a2,2,0,0,0-1.93-2.07A2.21,2.21,0,0,0,460,43.76Z"/><path class="cls-2" d="M465.64,38.47h.87v9.12h-.87Z"/><path class="cls-2" d="M470.54,41a3.07,3.07,0,0,1,3,3.38c0,2.09-1.29,3.4-3,3.4s-3-1.31-3-3.4S468.86,41,470.54,41Zm0,6.08c1.16,0,2.11-1,2.11-2.7s-.95-2.68-2.11-2.68-2.09,1-2.09,2.68S469.4,47,470.54,47Z"/><path class="cls-2" d="M477.5,41c1.77,0,2.86,1.31,2.86,3.43s-1.1,3.35-2.83,3.35a2.5,2.5,0,0,1-2.07-1.11v3.72h-.87v-9.2h.87v1A2.33,2.33,0,0,1,477.5,41Zm0,.68c-1.16,0-2,.94-2,2.64v.1c0,1.48.66,2.67,2,2.67s2-1.39,2-2.67S478.86,41.63,477.48,41.63Z"/><path class="cls-2" d="M482.28,41.91A2.07,2.07,0,0,1,484,41a2,2,0,0,1,1.9,1.26,2.27,2.27,0,0,1,2-1.26,2.09,2.09,0,0,1,2.23,2.23v4.41h-.86V43.12a1.39,1.39,0,0,0-1.48-1.48,1.58,1.58,0,0,0-1.56,1.78v4.17h-.86V43.23a1.44,1.44,0,0,0-1.45-1.59,1.61,1.61,0,0,0-1.59,1.76v4.19h-.86V41.14h.86Z"/><path class="cls-2" d="M496.14,47.09a3.33,3.33,0,0,1-2,.64A3.09,3.09,0,0,1,491,44.44c0-2,1-3.47,2.89-3.47a2.79,2.79,0,0,1,2.73,3,4.18,4.18,0,0,1,0,.5h-4.71A2.32,2.32,0,0,0,494.17,47a2.72,2.72,0,0,0,1.63-.51Zm-.38-3.33a2,2,0,0,0-1.93-2.07,2.19,2.19,0,0,0-1.93,2.07Z"/><path class="cls-2" d="M498.42,42.15a2.41,2.41,0,0,1,2-1.2,2.27,2.27,0,0,1,2.42,2.41v4.23H502V43.47a1.65,1.65,0,0,0-1.62-1.84,2,2,0,0,0-2,2.17v3.79h-.87V41.14h.87Z"/><path class="cls-2" d="M504.45,39.45l.87-.27v2h1.52v.71h-1.52V46c0,.85.64,1,1.41,1v.73c-1.37,0-2.28-.33-2.28-1.67V41.85h-.92v-.71h.92Z"/><path class="cls-2" d="M507.69,47H509v1a2.33,2.33,0,0,1-.07.66,2.55,2.55,0,0,1-1,1.43l-.26-.25a2.15,2.15,0,0,0,.78-1.65h-.67Z"/><path class="cls-2" d="M516.12,41c1.77,0,2.86,1.31,2.86,3.43s-1.1,3.35-2.83,3.35a2.5,2.5,0,0,1-2.07-1.11v3.72h-.87v-9.2h.87v1A2.33,2.33,0,0,1,516.12,41Zm0,.68c-1.16,0-2,.94-2,2.64v.1c0,1.48.66,2.67,2,2.67s2-1.39,2-2.67S517.48,41.63,516.1,41.63Z"/><path class="cls-2" d="M520.91,42.27a2.19,2.19,0,0,1,2-1.31h.28v.79l-.28,0a2,2,0,0,0-2,2v3.89H520V41.14h.87Z"/><path class="cls-2" d="M526.2,41a3.07,3.07,0,0,1,3,3.38c0,2.09-1.29,3.4-3,3.4s-3-1.31-3-3.4S524.52,41,526.2,41Zm0,6.08c1.15,0,2.11-1,2.11-2.7s-1-2.68-2.11-2.68-2.09,1-2.09,2.68S525.06,47,526.2,47Z"/><path class="cls-2" d="M534.82,42.14V38.47h.87v9.12h-.87v-1a2.51,2.51,0,0,1-2.09,1.11c-1.67,0-2.81-1.25-2.81-3.36S531,41,532.78,41A2.33,2.33,0,0,1,534.82,42.14Zm-4,2.23c0,1.28.61,2.67,2,2.67s2-1.19,2-2.67v-.1c0-1.7-.86-2.64-2-2.64C531.42,41.63,530.81,43,530.81,44.37Z"/><path class="cls-2" d="M541.47,46.53a2.41,2.41,0,0,1-2,1.2A2.28,2.28,0,0,1,537,45.32V41.14h.87v4.07A1.64,1.64,0,0,0,539.51,47a2,2,0,0,0,2-2.17V41.14h.87v6.45h-.87Z"/><path class="cls-2" d="M548.64,47a3.11,3.11,0,0,1-2.13.76,3.16,3.16,0,0,1-3.19-3.34A3.13,3.13,0,0,1,546.53,41a4.14,4.14,0,0,1,2,.52l-.34.63a3.43,3.43,0,0,0-1.62-.43,2.4,2.4,0,0,0-2.31,2.7A2.41,2.41,0,0,0,546.56,47a2.72,2.72,0,0,0,1.66-.58Z"/><path class="cls-2" d="M549.7,39.45l.87-.27v2h1.53v.71h-1.53V46c0,.85.64,1,1.41,1v.73c-1.37,0-2.28-.33-2.28-1.67V41.85h-.92v-.71h.92Z"/><path class="cls-2" d="M552.86,38.47h1v1.18h-1Zm.08,2.67h.87v6.45h-.87Z"/><path class="cls-2" d="M557.85,41a3.07,3.07,0,0,1,3,3.38c0,2.09-1.3,3.4-3,3.4s-3-1.31-3-3.4S556.16,41,557.85,41Zm0,6.08c1.15,0,2.1-1,2.1-2.7s-1-2.68-2.1-2.68-2.1,1-2.1,2.68S556.71,47,557.85,47Z"/><path class="cls-2" d="M562.76,42.15a2.41,2.41,0,0,1,2-1.2,2.27,2.27,0,0,1,2.42,2.41v4.23h-.87V43.47a1.66,1.66,0,0,0-1.63-1.84,2,2,0,0,0-2,2.17v3.79h-.87V41.14h.87Z"/><path class="cls-2" d="M568.48,47h1.26v1a2.76,2.76,0,0,1-.07.66,2.55,2.55,0,0,1-1,1.43l-.26-.25a2.22,2.22,0,0,0,.78-1.65h-.67Z"/><path class="cls-2" d="M578.57,42.14v-1h.87v9.2h-.87V46.62a2.52,2.52,0,0,1-2.07,1.11c-1.73,0-2.84-1.26-2.84-3.35s1.1-3.43,2.86-3.43A2.35,2.35,0,0,1,578.57,42.14Zm-4,2.23c0,1.28.61,2.67,2,2.67s2-1.19,2-2.67v-.1c0-1.7-.86-2.64-2-2.64C575.17,41.63,574.56,43,574.56,44.37Z"/><path class="cls-2" d="M585.21,46.53a2.4,2.4,0,0,1-2,1.2,2.28,2.28,0,0,1-2.42-2.41V41.14h.87v4.07A1.64,1.64,0,0,0,583.26,47a2,2,0,0,0,2-2.17V41.14h.87v6.45h-.87Z"/><path class="cls-2" d="M587.72,41.51a3.83,3.83,0,0,1,2.07-.57,2.09,2.09,0,0,1,2.11,1.27,3.14,3.14,0,0,1,.19,1.11v3a5.17,5.17,0,0,0,.12,1.29h-.83a5.74,5.74,0,0,1-.17-.78,2.49,2.49,0,0,1-2.07.9A2.09,2.09,0,0,1,587,45.63c0-1.59,1.18-2.27,3.17-2.27a11.05,11.05,0,0,1,1.11.06l0-.19a1.42,1.42,0,0,0-1.52-1.59,3.07,3.07,0,0,0-1.66.51Zm3.51,2.58c-.36,0-.68-.05-1-.05-1.62,0-2.43.5-2.43,1.53a1.4,1.4,0,0,0,1.5,1.38,1.77,1.77,0,0,0,1.91-1.63Z"/><path class="cls-2" d="M593.36,38.47h.87v9.12h-.87Z"/><path class="cls-2" d="M595.54,38.47h1v1.18h-1Zm.08,2.67h.87v6.45h-.87Z"/><path class="cls-2" d="M598.18,39.45l.87-.27v2h1.53v.71h-1.53V46c0,.85.65,1,1.41,1v.73c-1.36,0-2.28-.33-2.28-1.67V41.85h-.92v-.71h.92Z"/><path class="cls-2" d="M600.86,49.62a2.67,2.67,0,0,0,2.19-2.07l-2.38-6.41h.93l1.9,5.35,1.83-5.35h.93l-2.1,5.93c-.7,2-1.16,2.87-3,3.28Z"/><path class="cls-2" d="M614.72,47a3.11,3.11,0,0,1-2.13.76,3.15,3.15,0,0,1-3.19-3.34A3.13,3.13,0,0,1,612.61,41a4.06,4.06,0,0,1,1.95.52l-.34.63a3.36,3.36,0,0,0-1.61-.43,2.41,2.41,0,0,0-2.32,2.7A2.41,2.41,0,0,0,612.63,47a2.72,2.72,0,0,0,1.66-.58Z"/><path class="cls-2" d="M618.12,41a3.07,3.07,0,0,1,3,3.38c0,2.09-1.3,3.4-3,3.4s-3-1.31-3-3.4S616.43,41,618.12,41Zm0,6.08c1.15,0,2.1-1,2.1-2.7s-1-2.68-2.1-2.68-2.1,1-2.1,2.68S617,47,618.12,47Z"/><path class="cls-2" d="M623,42.15a2.4,2.4,0,0,1,2-1.2,2.28,2.28,0,0,1,2.43,2.41v4.23h-.87V43.47A1.66,1.66,0,0,0,625,41.63a2,2,0,0,0-2,2.17v3.79h-.87V41.14H623Z"/><path class="cls-2" d="M629.05,39.45l.87-.27v2h1.53v.71h-1.53V46c0,.85.65,1,1.41,1v.73c-1.36,0-2.28-.33-2.28-1.67V41.85h-.92v-.71h.92Z"/><path class="cls-2" d="M633.17,42.27a2.18,2.18,0,0,1,2-1.31h.28v.79l-.28,0a2,2,0,0,0-2,2v3.89h-.87V41.14h.87Z"/><path class="cls-2" d="M638.46,41a3.07,3.07,0,0,1,3,3.38c0,2.09-1.29,3.4-3,3.4s-3-1.31-3-3.4S636.78,41,638.46,41Zm0,6.08c1.15,0,2.11-1,2.11-2.7s-1-2.68-2.11-2.68-2.09,1-2.09,2.68S637.32,47,638.46,47Z"/><path class="cls-2" d="M642.5,38.47h.88v9.12h-.88Z"/><path class="cls-2" d="M648,39.45l.87-.27v2h1.53v.71h-1.53V46c0,.85.65,1,1.41,1v.73c-1.36,0-2.28-.33-2.28-1.67V41.85h-.92v-.71H648Z"/><path class="cls-2" d="M653.78,41a3.07,3.07,0,0,1,3,3.38c0,2.09-1.29,3.4-3,3.4s-3-1.31-3-3.4S652.1,41,653.78,41Zm0,6.08c1.16,0,2.11-1,2.11-2.7s-.95-2.68-2.11-2.68-2.09,1-2.09,2.68S652.64,47,653.78,47Z"/><path class="cls-2" d="M341.48,59.13a2.72,2.72,0,0,0-1.34-.46c-.78,0-1.18.38-1.18.91s.5.9,1.53,1.4,1.68,1,1.68,1.91a1.87,1.87,0,0,1-2.1,1.81,3,3,0,0,1-2.21-.89l.47-.58A2.57,2.57,0,0,0,340,64c.71,0,1.3-.31,1.3-1s-.59-.94-1.31-1.28c-.88-.39-1.87-.9-1.87-2a1.71,1.71,0,0,1,1.93-1.71,3.27,3.27,0,0,1,1.81.57Z"/><path class="cls-2" d="M343.92,59.15a2.44,2.44,0,0,1,2-1.2,2.27,2.27,0,0,1,2.42,2.41v4.23h-.87V60.47a1.65,1.65,0,0,0-1.62-1.84,2.06,2.06,0,0,0-2,2.17v3.79h-.87V55.47h.87Z"/><path class="cls-2" d="M349.56,55.47h1v1.18h-1Zm.08,2.67h.87v6.45h-.87Z"/><path class="cls-2" d="M354.81,58c1.77,0,2.86,1.31,2.86,3.43s-1.1,3.35-2.83,3.35a2.5,2.5,0,0,1-2.07-1.11v3.72h-.87v-9.2h.87v1A2.33,2.33,0,0,1,354.81,58Zm0,.68c-1.16,0-2,.94-2,2.64v.1c0,1.48.66,2.67,2,2.67s2-1.39,2-2.67S356.17,58.63,354.79,58.63Z"/><path class="cls-2" d="M359.59,58.91a2.07,2.07,0,0,1,1.71-1,2,2,0,0,1,1.91,1.26,2.27,2.27,0,0,1,2-1.26,2.09,2.09,0,0,1,2.23,2.23v4.41h-.86V60.12a1.39,1.39,0,0,0-1.48-1.48,1.58,1.58,0,0,0-1.56,1.78v4.17h-.86V60.23a1.44,1.44,0,0,0-1.45-1.59,1.61,1.61,0,0,0-1.59,1.76v4.19h-.86V58.14h.86Z"/><path class="cls-2" d="M373.45,64.09a3.33,3.33,0,0,1-2,.64,3.09,3.09,0,0,1-3.15-3.29c0-2,1-3.47,2.89-3.47a2.79,2.79,0,0,1,2.73,3,4.18,4.18,0,0,1,0,.5h-4.71A2.32,2.32,0,0,0,371.48,64a2.72,2.72,0,0,0,1.63-.51Zm-.38-3.33a2,2,0,0,0-1.93-2.07,2.19,2.19,0,0,0-1.93,2.07Z"/><path class="cls-2" d="M375.73,59.15a2.41,2.41,0,0,1,2-1.2,2.27,2.27,0,0,1,2.42,2.41v4.23h-.87V60.47a1.65,1.65,0,0,0-1.62-1.84,2,2,0,0,0-2,2.17v3.79h-.87V58.14h.87Z"/><path class="cls-2" d="M381.75,56.45l.88-.27v2h1.52v.71h-1.52V63c0,.85.64,1,1.41,1v.73c-1.37,0-2.29-.33-2.29-1.67V58.85h-.91v-.71h.91Z"/><path class="cls-2" d="M388.25,58.51a3.83,3.83,0,0,1,2.07-.57,2.09,2.09,0,0,1,2.11,1.27,3.14,3.14,0,0,1,.19,1.11v3a5.17,5.17,0,0,0,.12,1.29h-.84a6.93,6.93,0,0,1-.16-.78,2.49,2.49,0,0,1-2.07.9,2.09,2.09,0,0,1-2.19-2.08c0-1.59,1.18-2.27,3.17-2.27a11.05,11.05,0,0,1,1.11.06l0-.19a1.42,1.42,0,0,0-1.52-1.59,3.07,3.07,0,0,0-1.66.51Zm3.51,2.58c-.36,0-.68-.05-1-.05-1.62,0-2.43.5-2.43,1.53a1.4,1.4,0,0,0,1.5,1.38,1.77,1.77,0,0,0,1.91-1.63Z"/><path class="cls-2" d="M394.76,59.15a2.41,2.41,0,0,1,2-1.2,2.27,2.27,0,0,1,2.42,2.41v4.23h-.87V60.47a1.66,1.66,0,0,0-1.63-1.84,2,2,0,0,0-1.95,2.17v3.79h-.87V58.14h.87Z"/><path class="cls-2" d="M405.05,59.14V55.47h.87v9.12h-.87v-1A2.51,2.51,0,0,1,403,64.73c-1.67,0-2.81-1.25-2.81-3.36S401.21,58,403,58A2.33,2.33,0,0,1,405.05,59.14Zm-4,2.23c0,1.28.61,2.67,2,2.67s2-1.19,2-2.67v-.1c0-1.7-.86-2.64-2-2.64C401.65,58.63,401,60,401,61.37Z"/><path class="cls-2" d="M413.17,58c1.76,0,2.85,1.31,2.85,3.43s-1.1,3.35-2.83,3.35a2.5,2.5,0,0,1-2.07-1.11v3.72h-.87v-9.2h.87v1A2.34,2.34,0,0,1,413.17,58Zm0,.68c-1.16,0-2,.94-2,2.64v.1c0,1.48.66,2.67,2,2.67s2-1.39,2-2.67S414.52,58.63,413.14,58.63Z"/><path class="cls-2" d="M418,59.27A2.19,2.19,0,0,1,420,58h.29v.79l-.29,0a2,2,0,0,0-2,2v3.89h-.87V58.14H418Z"/><path class="cls-2" d="M423.24,58a3.07,3.07,0,0,1,3,3.38c0,2.09-1.29,3.4-3,3.4s-3-1.31-3-3.4S421.56,58,423.24,58Zm0,6.08c1.16,0,2.11-1,2.11-2.7s-1-2.68-2.11-2.68-2.09,1-2.09,2.68S422.1,64,423.24,64Z"/><path class="cls-2" d="M429.18,63.61l1.94-5.47h.93l-2.4,6.45h-.94l-2.4-6.45h.93Z"/><path class="cls-2" d="M432.54,55.47h1v1.18h-1Zm.09,2.67h.87v6.45h-.87Z"/><path class="cls-2" d="M439.46,59.14V55.47h.87v9.12h-.87v-1a2.51,2.51,0,0,1-2.09,1.11c-1.67,0-2.81-1.25-2.81-3.36S435.62,58,437.42,58A2.34,2.34,0,0,1,439.46,59.14Zm-4,2.23c0,1.28.61,2.67,2,2.67s2-1.19,2-2.67v-.1c0-1.7-.86-2.64-2-2.64C436.06,58.63,435.45,60,435.45,61.37Z"/><path class="cls-2" d="M446.55,64.09a3.33,3.33,0,0,1-2,.64,3.09,3.09,0,0,1-3.15-3.29c0-2,1-3.47,2.89-3.47A2.79,2.79,0,0,1,447,61a4.18,4.18,0,0,1,0,.5h-4.71A2.32,2.32,0,0,0,444.58,64a2.72,2.72,0,0,0,1.63-.51Zm-.38-3.33a2,2,0,0,0-1.93-2.07,2.19,2.19,0,0,0-1.93,2.07Z"/><path class="cls-2" d="M451,59.13a2.72,2.72,0,0,0-1.34-.46c-.77,0-1.17.38-1.17.91s.49.9,1.52,1.4,1.69,1,1.69,1.91a1.87,1.87,0,0,1-2.11,1.81,3,3,0,0,1-2.21-.89l.47-.58a2.59,2.59,0,0,0,1.71.74c.7,0,1.29-.31,1.29-1s-.59-.94-1.31-1.28c-.88-.39-1.87-.9-1.87-2a1.71,1.71,0,0,1,1.93-1.71,3.3,3.3,0,0,1,1.82.57Z"/><path class="cls-2" d="M455.85,56.45l.87-.27v2h1.53v.71h-1.53V63c0,.85.65,1,1.42,1v.73c-1.37,0-2.29-.33-2.29-1.67V58.85h-.91v-.71h.91Z"/><path class="cls-2" d="M460,59.15a2.42,2.42,0,0,1,2-1.2,2.28,2.28,0,0,1,2.43,2.41v4.23h-.87V60.47a1.66,1.66,0,0,0-1.63-1.84A2.06,2.06,0,0,0,460,60.8v3.79h-.87V55.47H460Z"/><path class="cls-2" d="M470.52,64.09a3.36,3.36,0,0,1-2,.64,3.1,3.1,0,0,1-3.16-3.29c0-2,1-3.47,2.9-3.47a3.1,3.1,0,0,1,2.7,3.51h-4.7a2.3,2.3,0,0,0,2.3,2.54,2.73,2.73,0,0,0,1.64-.51Zm-.39-3.33a2,2,0,0,0-1.93-2.07,2.21,2.21,0,0,0-1.93,2.07Z"/><path class="cls-2" d="M475.16,58.14v-.75a3.66,3.66,0,0,1,.12-1,1.62,1.62,0,0,1,1.61-1.14,3.36,3.36,0,0,1,1.14.21l-.24.69A2.47,2.47,0,0,0,477,56a.86.86,0,0,0-.87.56,2.29,2.29,0,0,0-.11.82v.79h1.37v.71H476v5.74h-.87V58.85h-.9v-.71Z"/><path class="cls-2" d="M478.34,55.47h1v1.18h-1Zm.08,2.67h.87v6.45h-.87Z"/><path class="cls-2" d="M481.55,59.15a2.4,2.4,0,0,1,2-1.2A2.28,2.28,0,0,1,486,60.36v4.23h-.87V60.47a1.66,1.66,0,0,0-1.63-1.84,2,2,0,0,0-1.95,2.17v3.79h-.87V58.14h.87Z"/><path class="cls-2" d="M487.57,58.51a3.85,3.85,0,0,1,2.07-.57,2.11,2.11,0,0,1,2.12,1.27,3.14,3.14,0,0,1,.19,1.11v3a5.67,5.67,0,0,0,.11,1.29h-.83a5.74,5.74,0,0,1-.17-.78,2.47,2.47,0,0,1-2.07.9,2.09,2.09,0,0,1-2.19-2.08c0-1.59,1.18-2.27,3.17-2.27.35,0,.72,0,1.12.06v-.19a1.42,1.42,0,0,0-1.52-1.59,3.1,3.1,0,0,0-1.66.51Zm3.52,2.58c-.37,0-.69-.05-1-.05-1.61,0-2.42.5-2.42,1.53A1.39,1.39,0,0,0,489.17,64a1.78,1.78,0,0,0,1.92-1.63Z"/><path class="cls-2" d="M493.21,55.47h.87v9.12h-.87Z"/><path class="cls-2" d="M501.33,58c1.76,0,2.86,1.31,2.86,3.43s-1.11,3.35-2.84,3.35a2.52,2.52,0,0,1-2.07-1.11v3.72h-.87v-9.2h.87v1A2.35,2.35,0,0,1,501.33,58Zm0,.68c-1.17,0-2,.94-2,2.64v.1c0,1.48.66,2.67,2,2.67s2-1.39,2-2.67S502.68,58.63,501.31,58.63Z"/><path class="cls-2" d="M506.12,59.27a2.17,2.17,0,0,1,2-1.31h.28v.79l-.28,0a2,2,0,0,0-2,2v3.89h-.88V58.14h.88Z"/><path class="cls-2" d="M511.41,58a3.07,3.07,0,0,1,3,3.38c0,2.09-1.3,3.4-3,3.4s-3-1.31-3-3.4S509.72,58,511.41,58Zm0,6.08c1.15,0,2.1-1,2.1-2.7s-1-2.68-2.1-2.68-2.1,1-2.1,2.68S510.27,64,511.41,64Z"/><path class="cls-2" d="M520,59.14V55.47h.87v9.12H520v-1a2.51,2.51,0,0,1-2.1,1.11c-1.67,0-2.81-1.25-2.81-3.36S516.18,58,518,58A2.36,2.36,0,0,1,520,59.14Zm-4,2.23c0,1.28.61,2.67,2,2.67s2-1.19,2-2.67v-.1c0-1.7-.86-2.64-2-2.64C516.63,58.63,516,60,516,61.37Z"/><path class="cls-2" d="M526.67,63.53a2.4,2.4,0,0,1-2,1.2,2.28,2.28,0,0,1-2.42-2.41V58.14h.87v4.07A1.64,1.64,0,0,0,524.72,64a2,2,0,0,0,1.95-2.17V58.14h.87v6.45h-.87Z"/><path class="cls-2" d="M533.85,64a3.11,3.11,0,0,1-2.13.76,3.38,3.38,0,0,1,0-6.75,4.1,4.1,0,0,1,2,.52l-.34.63a3.36,3.36,0,0,0-1.61-.43,2.68,2.68,0,0,0,0,5.31,2.72,2.72,0,0,0,1.66-.58Z"/><path class="cls-2" d="M534.9,56.45l.87-.27v2h1.53v.71h-1.53V63c0,.85.65,1,1.42,1v.73c-1.37,0-2.29-.33-2.29-1.67V58.85H534v-.71h.91Z"/><path class="cls-2" d="M541.39,56.45l.87-.27v2h1.53v.71h-1.53V63c0,.85.65,1,1.42,1v.73c-1.37,0-2.29-.33-2.29-1.67V58.85h-.91v-.71h.91Z"/><path class="cls-2" d="M547.17,58a3.07,3.07,0,0,1,3,3.38c0,2.09-1.29,3.4-3,3.4s-3-1.31-3-3.4S545.49,58,547.17,58Zm0,6.08c1.15,0,2.11-1,2.11-2.7s-1-2.68-2.11-2.68-2.09,1-2.09,2.68S546,64,547.17,64Z"/><path class="cls-2" d="M554.46,56.45l.87-.27v2h1.53v.71h-1.53V63c0,.85.65,1,1.41,1v.73c-1.36,0-2.28-.33-2.28-1.67V58.85h-.92v-.71h.92Z"/><path class="cls-2" d="M558.58,59.15a2.42,2.42,0,0,1,2-1.2A2.27,2.27,0,0,1,563,60.36v4.23h-.87V60.47a1.65,1.65,0,0,0-1.62-1.84,2.06,2.06,0,0,0-1.95,2.17v3.79h-.87V55.47h.87Z"/><path class="cls-2" d="M569.13,64.09a3.39,3.39,0,0,1-2,.64A3.09,3.09,0,0,1,564,61.44c0-2,1-3.47,2.89-3.47a2.79,2.79,0,0,1,2.73,3,4.18,4.18,0,0,1,0,.5h-4.71A2.32,2.32,0,0,0,567.15,64a2.72,2.72,0,0,0,1.63-.51Zm-.39-3.33a2,2,0,0,0-1.93-2.07,2.19,2.19,0,0,0-1.93,2.07Z"/><path class="cls-2" d="M576.54,59.13a2.68,2.68,0,0,0-1.34-.46c-.77,0-1.17.38-1.17.91s.49.9,1.53,1.4,1.68,1,1.68,1.91a1.87,1.87,0,0,1-2.11,1.81,3,3,0,0,1-2.21-.89l.47-.58a2.59,2.59,0,0,0,1.71.74c.7,0,1.29-.31,1.29-1s-.59-.94-1.3-1.28c-.89-.39-1.87-.9-1.87-2a1.71,1.71,0,0,1,1.93-1.71,3.29,3.29,0,0,1,1.81.57Z"/><path class="cls-2" d="M578.43,58.51a3.83,3.83,0,0,1,2.07-.57,2.09,2.09,0,0,1,2.11,1.27,3.14,3.14,0,0,1,.19,1.11v3a5.17,5.17,0,0,0,.12,1.29h-.84a6.93,6.93,0,0,1-.16-.78,2.49,2.49,0,0,1-2.07.9,2.09,2.09,0,0,1-2.19-2.08c0-1.59,1.18-2.27,3.17-2.27a11.05,11.05,0,0,1,1.11.06l0-.19a1.42,1.42,0,0,0-1.52-1.59,3.07,3.07,0,0,0-1.66.51Zm3.51,2.58c-.36,0-.68-.05-1-.05-1.62,0-2.43.5-2.43,1.53A1.4,1.4,0,0,0,580,64a1.77,1.77,0,0,0,1.91-1.63Z"/><path class="cls-2" d="M584.07,55.47h.87v9.12h-.87Z"/><path class="cls-2" d="M591.16,64.09a3.33,3.33,0,0,1-2,.64A3.09,3.09,0,0,1,586,61.44c0-2,1-3.47,2.89-3.47a2.79,2.79,0,0,1,2.73,3,4.18,4.18,0,0,1,0,.5h-4.71A2.32,2.32,0,0,0,589.19,64a2.72,2.72,0,0,0,1.63-.51Zm-.38-3.33a2,2,0,0,0-1.93-2.07,2.19,2.19,0,0,0-1.93,2.07Z"/><path class="cls-2" d="M595.64,59.13a2.72,2.72,0,0,0-1.34-.46c-.77,0-1.17.38-1.17.91s.49.9,1.52,1.4,1.69,1,1.69,1.91a1.87,1.87,0,0,1-2.11,1.81,3,3,0,0,1-2.21-.89l.47-.58a2.59,2.59,0,0,0,1.71.74c.7,0,1.29-.31,1.29-1s-.59-.94-1.31-1.28c-.88-.39-1.87-.9-1.87-2a1.71,1.71,0,0,1,1.93-1.71,3.24,3.24,0,0,1,1.81.57Z"/><path class="cls-2" d="M605.13,64a3.08,3.08,0,0,1-2.13.76A3.38,3.38,0,0,1,603,58a4.13,4.13,0,0,1,2,.52l-.34.63a3.39,3.39,0,0,0-1.61-.43,2.68,2.68,0,0,0,0,5.31,2.72,2.72,0,0,0,1.66-.58Z"/><path class="cls-2" d="M608.53,58a3.07,3.07,0,0,1,3,3.38c0,2.09-1.29,3.4-3,3.4s-3-1.31-3-3.4S606.85,58,608.53,58Zm0,6.08c1.15,0,2.11-1,2.11-2.7s-1-2.68-2.11-2.68-2.09,1-2.09,2.68S607.39,64,608.53,64Z"/><path class="cls-2" d="M613.43,58.91a2.09,2.09,0,0,1,1.72-1,2.06,2.06,0,0,1,1.91,1.26A2.26,2.26,0,0,1,619,58a2.08,2.08,0,0,1,2.22,2.23v4.41h-.85V60.12a1.39,1.39,0,0,0-1.49-1.48,1.58,1.58,0,0,0-1.55,1.78v4.17h-.86V60.23A1.44,1.44,0,0,0,615,58.64a1.61,1.61,0,0,0-1.59,1.76v4.19h-.85V58.14h.85Z"/><path class="cls-2" d="M625.38,58c1.77,0,2.86,1.31,2.86,3.43s-1.1,3.35-2.83,3.35a2.5,2.5,0,0,1-2.07-1.11v3.72h-.87v-9.2h.87v1A2.33,2.33,0,0,1,625.38,58Zm0,.68c-1.16,0-2,.94-2,2.64v.1c0,1.48.66,2.67,2,2.67s2-1.39,2-2.67S626.74,58.63,625.36,58.63Z"/><path class="cls-2" d="M629.6,58.51a3.85,3.85,0,0,1,2.07-.57,2.1,2.1,0,0,1,2.12,1.27,3.14,3.14,0,0,1,.19,1.11v3a5.17,5.17,0,0,0,.12,1.29h-.84a6.93,6.93,0,0,1-.16-.78,2.49,2.49,0,0,1-2.07.9,2.09,2.09,0,0,1-2.19-2.08c0-1.59,1.18-2.27,3.16-2.27a11.09,11.09,0,0,1,1.12.06v-.19a1.42,1.42,0,0,0-1.51-1.59,3.07,3.07,0,0,0-1.66.51Zm3.52,2.58c-.36,0-.68-.05-1-.05-1.61,0-2.42.5-2.42,1.53a1.4,1.4,0,0,0,1.5,1.38,1.77,1.77,0,0,0,1.91-1.63Z"/><path class="cls-2" d="M636.12,59.15a2.4,2.4,0,0,1,2-1.2,2.28,2.28,0,0,1,2.43,2.41v4.23h-.87V60.47a1.66,1.66,0,0,0-1.63-1.84,2,2,0,0,0-2,2.17v3.79h-.87V58.14h.87Z"/><path class="cls-2" d="M641.27,66.62a2.69,2.69,0,0,0,2.19-2.07l-2.38-6.41H642l1.9,5.35,1.83-5.35h.93l-2.11,5.93c-.69,2-1.15,2.87-3,3.28Z"/><path class="cls-2" d="M647.19,64h1.25v1.22h-1.25Z"/><path class="cls-1" d="M12.31,10.21c0,3.73-2.1,6.87-6.16,6.87S0,13.94,0,10.21,2.13,3.35,6.15,3.35,12.31,6.5,12.31,10.21ZM6.15,5.27c-2.45,0-3.73,2.43-3.73,4.94s1.26,5,3.73,5,3.74-2.42,3.74-5S8.61,5.27,6.15,5.27Z"/><path class="cls-1" d="M23.19,16.89h-9V3.51H23V5.4H16.46V9h6.23v1.89H16.46V15h6.73Z"/><path class="cls-1" d="M31,10.9l4-7.39h2.17V16.89H34.82v-9l-3,5.68H30.05L27.1,7.89v9H24.83V3.51H27Z"/><path class="cls-2" d="M62.17,5.25H59.43v8.17h-.87V5.25H55.83V4.54h6.34Z"/><path class="cls-2" d="M63.34,8a2.42,2.42,0,0,1,2-1.2,2.27,2.27,0,0,1,2.42,2.41v4.24h-.87V9.29a1.65,1.65,0,0,0-1.62-1.84,2.07,2.07,0,0,0-2,2.18v3.79h-.87V4.29h.87Z"/><path class="cls-2" d="M69,4.29h1V5.48H69ZM69.05,7h.87v6.46h-.87Z"/><path class="cls-2" d="M74.38,8A2.72,2.72,0,0,0,73,7.49c-.78,0-1.18.38-1.18.91s.5.9,1.53,1.4,1.68,1,1.68,1.91A1.87,1.87,0,0,1,73,13.52a3,3,0,0,1-2.21-.88l.47-.59a2.57,2.57,0,0,0,1.7.74c.71,0,1.3-.31,1.3-1s-.59-.94-1.31-1.27c-.88-.4-1.87-.9-1.87-2A1.72,1.72,0,0,1,73,6.76a3.27,3.27,0,0,1,1.81.57Z"/><path class="cls-2" d="M79.75,7.73a2.09,2.09,0,0,1,1.72-1A2.06,2.06,0,0,1,83.38,8a2.26,2.26,0,0,1,2-1.26A2.08,2.08,0,0,1,87.55,9v4.42h-.86V8.94a1.38,1.38,0,0,0-1.48-1.47,1.57,1.57,0,0,0-1.55,1.77v4.18H82.8V9.05a1.43,1.43,0,0,0-1.46-1.58,1.6,1.6,0,0,0-1.59,1.75v4.2h-.86V7h.86Z"/><path class="cls-2" d="M93.62,12.91a3.36,3.36,0,0,1-2,.64,3.1,3.1,0,0,1-3.16-3.29c0-2,1-3.46,2.9-3.46a2.79,2.79,0,0,1,2.73,3,2.74,2.74,0,0,1,0,.5h-4.7a2.3,2.3,0,0,0,2.3,2.54,2.79,2.79,0,0,0,1.64-.5Zm-.39-3.33A2,2,0,0,0,91.3,7.51a2.21,2.21,0,0,0-1.93,2.07Z"/><path class="cls-2" d="M95.33,5.27,96.21,5V7h1.52v.71H96.21v4.16c0,.85.64,1,1.41,1v.73c-1.37,0-2.29-.32-2.29-1.67V7.67h-.91V7h.91Z"/><path class="cls-2" d="M99.45,8a2.44,2.44,0,0,1,2-1.2,2.28,2.28,0,0,1,2.43,2.41v4.24H103V9.29a1.66,1.66,0,0,0-1.63-1.84,2.07,2.07,0,0,0-2,2.18v3.79h-.87V4.29h.87Z"/><path class="cls-2" d="M107.81,6.78a3.08,3.08,0,0,1,3,3.39c0,2.08-1.29,3.39-3,3.39s-3-1.31-3-3.39S106.13,6.78,107.81,6.78Zm0,6.08c1.16,0,2.11-1,2.11-2.69s-1-2.69-2.11-2.69-2.09,1-2.09,2.69S106.67,12.86,107.81,12.86Z"/><path class="cls-2" d="M116.43,8V4.29h.87v9.13h-.87v-1a2.49,2.49,0,0,1-2.09,1.11c-1.67,0-2.81-1.25-2.81-3.36s1.06-3.42,2.86-3.42A2.33,2.33,0,0,1,116.43,8Zm-4,2.23c0,1.28.61,2.67,2,2.67s2-1.18,2-2.67v-.1c0-1.7-.85-2.64-2-2.64C113,7.45,112.42,8.85,112.42,10.19Z"/><path class="cls-2" d="M121.55,4.29h1V5.48h-1ZM121.63,7h.87v6.46h-.87Z"/><path class="cls-2" d="M127,8a2.72,2.72,0,0,0-1.34-.46c-.78,0-1.18.38-1.18.91s.49.9,1.53,1.4,1.68,1,1.68,1.91a1.87,1.87,0,0,1-2.1,1.81,3,3,0,0,1-2.22-.88l.48-.59a2.57,2.57,0,0,0,1.7.74c.71,0,1.3-.31,1.3-1s-.59-.94-1.31-1.27c-.88-.4-1.87-.9-1.87-2a1.72,1.72,0,0,1,1.93-1.71,3.27,3.27,0,0,1,1.81.57Z"/><path class="cls-2" d="M131.78,5.27l.87-.27V7h1.53v.71h-1.53v4.16c0,.85.65,1,1.41,1v.73c-1.36,0-2.28-.32-2.28-1.67V7.67h-.92V7h.92Z"/><path class="cls-2" d="M137.55,6.78a3.08,3.08,0,0,1,3,3.39c0,2.08-1.29,3.39-3,3.39s-3-1.31-3-3.39S135.87,6.78,137.55,6.78Zm0,6.08c1.16,0,2.11-1,2.11-2.69s-.95-2.69-2.11-2.69-2.09,1-2.09,2.69S136.41,12.86,137.55,12.86Z"/><path class="cls-2" d="M147.46,6.77c1.76,0,2.85,1.31,2.85,3.43s-1.1,3.35-2.83,3.35a2.48,2.48,0,0,1-2.07-1.11v3.72h-.87V7h.87V8A2.34,2.34,0,0,1,147.46,6.77Zm0,.68c-1.16,0-2,.94-2,2.64v.1c0,1.49.66,2.67,2,2.67s2-1.39,2-2.67S148.81,7.45,147.43,7.45Z"/><path class="cls-2" d="M152.24,8.09a2.19,2.19,0,0,1,2-1.31,1.42,1.42,0,0,1,.29,0v.79a1.43,1.43,0,0,0-.29,0,2,2,0,0,0-2,2v3.9h-.87V7h.87Z"/><path class="cls-2" d="M157.53,6.78a3.08,3.08,0,0,1,3,3.39c0,2.08-1.29,3.39-3,3.39s-3-1.31-3-3.39S155.85,6.78,157.53,6.78Zm0,6.08c1.16,0,2.11-1,2.11-2.69s-.95-2.69-2.11-2.69-2.09,1-2.09,2.69S156.39,12.86,157.53,12.86Z"/><path class="cls-2" d="M166.15,8V4.29H167v9.13h-.87v-1a2.49,2.49,0,0,1-2.09,1.11c-1.67,0-2.81-1.25-2.81-3.36s1.06-3.42,2.86-3.42A2.33,2.33,0,0,1,166.15,8Zm-4,2.23c0,1.28.61,2.67,2,2.67s2-1.18,2-2.67v-.1c0-1.7-.85-2.64-2-2.64C162.75,7.45,162.14,8.85,162.14,10.19Z"/><path class="cls-2" d="M172.8,12.35a2.41,2.41,0,0,1-2,1.2,2.27,2.27,0,0,1-2.42-2.41V7h.87V11a1.65,1.65,0,0,0,1.63,1.83,2,2,0,0,0,2-2.17V7h.87v6.46h-.87Z"/><path class="cls-2" d="M180,12.77a3.06,3.06,0,0,1-2.13.77,3.16,3.16,0,0,1-3.19-3.35,3.13,3.13,0,0,1,3.22-3.41,4.13,4.13,0,0,1,1.95.52l-.34.63a3.54,3.54,0,0,0-1.61-.43,2.4,2.4,0,0,0-2.32,2.7,2.42,2.42,0,0,0,2.34,2.62,2.73,2.73,0,0,0,1.66-.59Z"/><path class="cls-2" d="M185.56,12.91a3.39,3.39,0,0,1-2,.64,3.09,3.09,0,0,1-3.15-3.29c0-2,1-3.46,2.9-3.46a2.78,2.78,0,0,1,2.72,3,4.1,4.1,0,0,1,0,.5h-4.7a2.3,2.3,0,0,0,2.3,2.54,2.81,2.81,0,0,0,1.64-.5Zm-.39-3.33a2,2,0,0,0-1.93-2.07,2.21,2.21,0,0,0-1.93,2.07Z"/><path class="cls-2" d="M190.21,7.33a3.85,3.85,0,0,1,2.07-.57A2.11,2.11,0,0,1,194.4,8a3.16,3.16,0,0,1,.19,1.12v3a5.25,5.25,0,0,0,.12,1.3h-.84a6.93,6.93,0,0,1-.16-.78,2.52,2.52,0,0,1-2.07.9,2.1,2.1,0,0,1-2.19-2.09c0-1.58,1.18-2.27,3.16-2.27.36,0,.72,0,1.12.06V9.05a1.41,1.41,0,0,0-1.51-1.58,3.06,3.06,0,0,0-1.66.5Zm3.52,2.58c-.36,0-.68,0-1,0-1.61,0-2.42.49-2.42,1.52a1.39,1.39,0,0,0,1.49,1.38,1.78,1.78,0,0,0,1.92-1.63Z"/><path class="cls-2" d="M196.73,8a2.4,2.4,0,0,1,2-1.2,2.28,2.28,0,0,1,2.43,2.41v4.24h-.88V9.29a1.65,1.65,0,0,0-1.62-1.84,2,2,0,0,0-2,2.18v3.79h-.87V7h.87Z"/><path class="cls-2" d="M207,8V4.29h.87v9.13H207v-1a2.51,2.51,0,0,1-2.09,1.11c-1.68,0-2.82-1.25-2.82-3.36s1.06-3.42,2.86-3.42A2.34,2.34,0,0,1,207,8Zm-4,2.23c0,1.28.61,2.67,2,2.67s2-1.18,2-2.67v-.1c0-1.7-.86-2.64-2-2.64C203.62,7.45,203,8.85,203,10.19Z"/><path class="cls-2" d="M61,25V21.29h.87v9.13H61v-1a2.53,2.53,0,0,1-2.1,1.11c-1.67,0-2.81-1.25-2.81-3.36s1.06-3.42,2.86-3.42A2.36,2.36,0,0,1,61,25Zm-4,2.23c0,1.28.62,2.67,2,2.67s2-1.18,2-2.67v-.1c0-1.7-.86-2.64-2-2.64C57.59,24.45,57,25.85,57,27.19Z"/><path class="cls-2" d="M68.08,29.91a3.39,3.39,0,0,1-2,.64,3.09,3.09,0,0,1-3.15-3.29c0-2,1-3.46,2.9-3.46a2.78,2.78,0,0,1,2.72,3,4.1,4.1,0,0,1,0,.5H63.8a2.3,2.3,0,0,0,2.3,2.54,2.84,2.84,0,0,0,1.64-.5Zm-.39-3.33a2,2,0,0,0-1.93-2.07,2.19,2.19,0,0,0-1.93,2.07Z"/><path class="cls-2" d="M69.49,21.29h.87v9.13h-.87Z"/><path class="cls-2" d="M71.66,21.29h1v1.19h-1ZM71.74,24h.88v6.46h-.88Z"/><path class="cls-2" d="M76,29.43,78,24h.92l-2.4,6.46h-.94L73.14,24h.93Z"/><path class="cls-2" d="M84.18,29.91a3.39,3.39,0,0,1-2,.64A3.09,3.09,0,0,1,79,27.26c0-2,1-3.46,2.89-3.46a2.78,2.78,0,0,1,2.73,3,4.1,4.1,0,0,1,0,.5H79.89a2.32,2.32,0,0,0,2.31,2.54,2.84,2.84,0,0,0,1.64-.5Zm-.39-3.33a2,2,0,0,0-1.93-2.07,2.19,2.19,0,0,0-1.93,2.07Z"/><path class="cls-2" d="M86.46,25.09a2.18,2.18,0,0,1,2-1.31,1.32,1.32,0,0,1,.28,0v.79a1.33,1.33,0,0,0-.28,0,2,2,0,0,0-2,2v3.9h-.87V24h.87Z"/><path class="cls-2" d="M95.25,23.77c1.77,0,2.86,1.31,2.86,3.43s-1.1,3.35-2.83,3.35a2.48,2.48,0,0,1-2.07-1.11v3.72h-.87V24h.87v1A2.33,2.33,0,0,1,95.25,23.77Zm0,.68c-1.16,0-2,.94-2,2.64v.1c0,1.49.66,2.67,2,2.67s2-1.39,2-2.67S96.61,24.45,95.23,24.45Z"/><path class="cls-2" d="M100,25.09a2.19,2.19,0,0,1,2-1.31,1.27,1.27,0,0,1,.28,0v.79a1.27,1.27,0,0,0-.28,0,2,2,0,0,0-2,2v3.9h-.87V24H100Z"/><path class="cls-2" d="M105.33,23.78a3.08,3.08,0,0,1,3,3.39c0,2.08-1.29,3.39-3,3.39s-3-1.31-3-3.39S103.65,23.78,105.33,23.78Zm0,6.08c1.15,0,2.11-1,2.11-2.69s-1-2.69-2.11-2.69-2.09,1-2.09,2.69S104.19,29.86,105.33,29.86Z"/><path class="cls-2" d="M114,25V21.29h.87v9.13H114v-1a2.51,2.51,0,0,1-2.09,1.11c-1.67,0-2.81-1.25-2.81-3.36s1.06-3.42,2.86-3.42A2.33,2.33,0,0,1,114,25Zm-4,2.23c0,1.28.61,2.67,2,2.67s2-1.18,2-2.67v-.1c0-1.7-.86-2.64-2-2.64C110.55,24.45,109.94,25.85,109.94,27.19Z"/><path class="cls-2" d="M120.6,29.35a2.41,2.41,0,0,1-2,1.2,2.27,2.27,0,0,1-2.42-2.41V24H117V28a1.65,1.65,0,0,0,1.62,1.83,2,2,0,0,0,2-2.17V24h.87v6.46h-.87Z"/><path class="cls-2" d="M127.77,29.77a3.07,3.07,0,0,1-2.13.77,3.16,3.16,0,0,1-3.19-3.35,3.13,3.13,0,0,1,3.21-3.41,4.14,4.14,0,0,1,2,.52l-.34.63a3.55,3.55,0,0,0-1.62-.43,2.4,2.4,0,0,0-2.31,2.7,2.42,2.42,0,0,0,2.34,2.62,2.73,2.73,0,0,0,1.66-.59Z"/><path class="cls-2" d="M128.83,22.27l.87-.27v2h1.53v.71H129.7v4.16c0,.85.64,1,1.41,1v.73c-1.37,0-2.28-.32-2.28-1.67V24.67h-.92V24h.92Z"/><path class="cls-2" d="M135.14,25a2.72,2.72,0,0,0-1.34-.46c-.77,0-1.17.38-1.17.91s.49.9,1.52,1.4,1.69,1,1.69,1.91a1.87,1.87,0,0,1-2.11,1.81,3,3,0,0,1-2.21-.88l.47-.59a2.59,2.59,0,0,0,1.71.74c.7,0,1.29-.31,1.29-1.05s-.59-.94-1.31-1.27c-.88-.4-1.87-.9-1.87-2a1.72,1.72,0,0,1,1.93-1.71,3.24,3.24,0,0,1,1.81.57Z"/><path class="cls-2" d="M145,29.34,146.38,24h.83l-1.82,6.46h-.86L143.08,25l-1.45,5.47h-.85L139,24h.84l1.42,5.38L142.62,24h.92Z"/><path class="cls-2" d="M147.82,21.29h1v1.19h-1ZM147.9,24h.87v6.46h-.87Z"/><path class="cls-2" d="M150.47,22.27l.87-.27v2h1.53v.71h-1.53v4.16c0,.85.64,1,1.41,1v.73c-1.37,0-2.28-.32-2.28-1.67V24.67h-.92V24h.92Z"/><path class="cls-2" d="M154.58,25a2.42,2.42,0,0,1,2-1.2A2.28,2.28,0,0,1,159,26.18v4.24h-.87V26.29a1.66,1.66,0,0,0-1.63-1.84,2.07,2.07,0,0,0-1.95,2.18v3.79h-.87V21.29h.87Z"/><path class="cls-2" d="M163.54,24.33a3.85,3.85,0,0,1,2.07-.57A2.11,2.11,0,0,1,167.73,25a3.16,3.16,0,0,1,.19,1.12v3a5.25,5.25,0,0,0,.12,1.3h-.84a6.93,6.93,0,0,1-.16-.78,2.52,2.52,0,0,1-2.07.9,2.1,2.1,0,0,1-2.19-2.09c0-1.58,1.17-2.27,3.16-2.27.35,0,.72,0,1.12.06v-.19a1.41,1.41,0,0,0-1.52-1.58,3.05,3.05,0,0,0-1.65.5Zm3.52,2.58c-.37,0-.68,0-1,0-1.61,0-2.42.49-2.42,1.52a1.39,1.39,0,0,0,1.49,1.38,1.78,1.78,0,0,0,1.92-1.63Z"/><path class="cls-2" d="M175.2,25a2.75,2.75,0,0,0-1.34-.46c-.78,0-1.18.38-1.18.91s.49.9,1.53,1.4,1.68,1,1.68,1.91a1.87,1.87,0,0,1-2.1,1.81,3,3,0,0,1-2.22-.88l.47-.59a2.59,2.59,0,0,0,1.71.74c.71,0,1.29-.31,1.29-1.05s-.58-.94-1.3-1.27c-.88-.4-1.87-.9-1.87-2a1.72,1.72,0,0,1,1.93-1.71,3.29,3.29,0,0,1,1.81.57Z"/><path class="cls-2" d="M176.69,21.29h1v1.19h-1Zm.08,2.67h.87v6.46h-.87Z"/><path class="cls-2" d="M179.89,24.73a2.08,2.08,0,0,1,1.72-1,2,2,0,0,1,1.9,1.26,2.27,2.27,0,0,1,2-1.26A2.09,2.09,0,0,1,187.69,26v4.42h-.86V25.94a1.38,1.38,0,0,0-1.48-1.47,1.57,1.57,0,0,0-1.56,1.77v4.18h-.85V26.05a1.44,1.44,0,0,0-1.46-1.58,1.6,1.6,0,0,0-1.59,1.75v4.2H179V24h.86Z"/><path class="cls-2" d="M191.84,23.77c1.76,0,2.86,1.31,2.86,3.43s-1.11,3.35-2.84,3.35a2.49,2.49,0,0,1-2.07-1.11v3.72h-.87V24h.87v1A2.35,2.35,0,0,1,191.84,23.77Zm0,.68c-1.16,0-2,.94-2,2.64v.1c0,1.49.66,2.67,2,2.67s2-1.39,2-2.67S193.19,24.45,191.81,24.45Z"/><path class="cls-2" d="M195.75,21.29h.87v9.13h-.87Z"/><path class="cls-2" d="M202.85,29.91a3.39,3.39,0,0,1-2,.64,3.09,3.09,0,0,1-3.15-3.29c0-2,1-3.46,2.89-3.46a2.78,2.78,0,0,1,2.73,3,4.1,4.1,0,0,1,0,.5h-4.71a2.32,2.32,0,0,0,2.31,2.54,2.78,2.78,0,0,0,1.63-.5Zm-.39-3.33a2,2,0,0,0-1.93-2.07,2.19,2.19,0,0,0-1.93,2.07Z"/><path class="cls-2" d="M61.39,46.77a3.07,3.07,0,0,1-2.13.77,3.15,3.15,0,0,1-3.19-3.35,3.13,3.13,0,0,1,3.21-3.41,4.1,4.1,0,0,1,1.95.52l-.34.63a3.47,3.47,0,0,0-1.61-.43A2.41,2.41,0,0,0,57,44.2a2.42,2.42,0,0,0,2.34,2.62A2.73,2.73,0,0,0,61,46.23Z"/><path class="cls-2" d="M64.78,40.78a3.08,3.08,0,0,1,3,3.39c0,2.08-1.29,3.39-3,3.39s-3-1.31-3-3.39S63.1,40.78,64.78,40.78Zm0,6.08c1.16,0,2.11-1,2.11-2.69s-1-2.69-2.11-2.69-2.09,1-2.09,2.69S63.64,46.86,64.78,46.86Z"/><path class="cls-2" d="M69.7,42a2.4,2.4,0,0,1,2-1.2,2.28,2.28,0,0,1,2.43,2.41v4.24h-.87V43.29a1.66,1.66,0,0,0-1.63-1.84,2.05,2.05,0,0,0-2,2.18v3.79h-.87V41h.87Z"/><path class="cls-2" d="M78.48,42a2.72,2.72,0,0,0-1.34-.46c-.77,0-1.17.38-1.17.91s.49.9,1.53,1.4,1.68,1,1.68,1.91a1.87,1.87,0,0,1-2.11,1.81,3,3,0,0,1-2.21-.88l.47-.59a2.59,2.59,0,0,0,1.71.74c.7,0,1.29-.31,1.29-1s-.59-.94-1.3-1.27c-.89-.4-1.88-.9-1.88-2a1.72,1.72,0,0,1,1.93-1.71,3.3,3.3,0,0,1,1.82.57Z"/><path class="cls-2" d="M80,38.29h1v1.19H80ZM80.06,41h.87v6.46h-.87Z"/><path class="cls-2" d="M86.89,42V41h.87v5.92a2.86,2.86,0,0,1-2.93,3.2,4.62,4.62,0,0,1-2.22-.6l.32-.66a3.92,3.92,0,0,0,1.88.51c1.11,0,2.08-.74,2.08-2.48v-.48a2.41,2.41,0,0,1-2.08,1.06c-1.67,0-2.82-1.19-2.82-3.28s1.09-3.38,2.83-3.38A2.36,2.36,0,0,1,86.89,42Zm-4,2.17c0,1.28.61,2.61,2,2.61s2-1.12,2-2.61v0c0-1.7-.86-2.64-2-2.64C83.49,41.45,82.88,42.79,82.88,44.13Z"/><path class="cls-2" d="M90,42a2.4,2.4,0,0,1,2-1.2,2.28,2.28,0,0,1,2.43,2.41v4.24H93.6V43.29A1.66,1.66,0,0,0,92,41.45a2.05,2.05,0,0,0-2,2.18v3.79h-.87V41H90Z"/><path class="cls-2" d="M96.59,41.73a2.09,2.09,0,0,1,1.72-1A2.06,2.06,0,0,1,100.22,42a2.26,2.26,0,0,1,2-1.26A2.08,2.08,0,0,1,104.39,43v4.42h-.86V42.94a1.38,1.38,0,0,0-1.48-1.47,1.57,1.57,0,0,0-1.55,1.77v4.18h-.86V43.05a1.43,1.43,0,0,0-1.46-1.58,1.6,1.6,0,0,0-1.59,1.75v4.2h-.86V41h.86Z"/><path class="cls-2" d="M110.46,46.91a3.36,3.36,0,0,1-2,.64,3.1,3.1,0,0,1-3.16-3.29c0-2,1-3.46,2.9-3.46a2.79,2.79,0,0,1,2.73,3,2.74,2.74,0,0,1,0,.5h-4.7a2.3,2.3,0,0,0,2.3,2.54,2.79,2.79,0,0,0,1.64-.5Zm-.39-3.33a2,2,0,0,0-1.93-2.07,2.21,2.21,0,0,0-1.93,2.07Z"/><path class="cls-2" d="M112.74,42a2.4,2.4,0,0,1,2-1.2,2.28,2.28,0,0,1,2.43,2.41v4.24h-.87V43.29a1.66,1.66,0,0,0-1.63-1.84,2.05,2.05,0,0,0-2,2.18v3.79h-.87V41h.87Z"/><path class="cls-2" d="M118.76,39.27l.87-.27v2h1.53v.71h-1.53v4.16c0,.85.65,1,1.41,1v.73c-1.36,0-2.28-.32-2.28-1.67V41.67h-.92V41h.92Z"/><path class="cls-2" d="M129.92,46.77a3.06,3.06,0,0,1-2.13.77,3.16,3.16,0,0,1-3.19-3.35,3.13,3.13,0,0,1,3.22-3.41,4.13,4.13,0,0,1,2,.52l-.34.63a3.54,3.54,0,0,0-1.61-.43,2.4,2.4,0,0,0-2.32,2.7,2.42,2.42,0,0,0,2.34,2.62,2.73,2.73,0,0,0,1.66-.59Z"/><path class="cls-2" d="M133.32,40.78a3.08,3.08,0,0,1,3,3.39c0,2.08-1.29,3.39-3,3.39s-3-1.31-3-3.39S131.64,40.78,133.32,40.78Zm0,6.08c1.15,0,2.11-1,2.11-2.69s-1-2.69-2.11-2.69-2.09,1-2.09,2.69S132.18,46.86,133.32,46.86Z"/><path class="cls-2" d="M138.23,42a2.42,2.42,0,0,1,2-1.2,2.27,2.27,0,0,1,2.42,2.41v4.24h-.87V43.29a1.65,1.65,0,0,0-1.62-1.84,2.05,2.05,0,0,0-2,2.18v3.79h-.87V41h.87Z"/><path class="cls-2" d="M148.93,46.77a3.07,3.07,0,0,1-2.13.77,3.15,3.15,0,0,1-3.19-3.35,3.13,3.13,0,0,1,3.21-3.41,4.1,4.1,0,0,1,2,.52l-.34.63a3.47,3.47,0,0,0-1.61-.43,2.41,2.41,0,0,0-2.32,2.7,2.42,2.42,0,0,0,2.34,2.62,2.73,2.73,0,0,0,1.66-.59Z"/><path class="cls-2" d="M154.51,46.91a3.33,3.33,0,0,1-2,.64,3.09,3.09,0,0,1-3.15-3.29c0-2,1-3.46,2.89-3.46a2.78,2.78,0,0,1,2.73,3,4.1,4.1,0,0,1,0,.5h-4.71a2.32,2.32,0,0,0,2.31,2.54,2.78,2.78,0,0,0,1.63-.5Zm-.39-3.33a2,2,0,0,0-1.93-2.07,2.19,2.19,0,0,0-1.92,2.07Z"/><path class="cls-2" d="M158.84,40.77c1.76,0,2.86,1.31,2.86,3.43s-1.11,3.35-2.84,3.35a2.49,2.49,0,0,1-2.07-1.11v3.72h-.87V41h.87v1A2.35,2.35,0,0,1,158.84,40.77Zm0,.68c-1.17,0-2,.94-2,2.64v.1c0,1.49.66,2.67,2,2.67s2-1.39,2-2.67S160.19,41.45,158.82,41.45Z"/><path class="cls-2" d="M163.06,39.27l.87-.27v2h1.53v.71h-1.53v4.16c0,.85.65,1,1.41,1v.73c-1.36,0-2.28-.32-2.28-1.67V41.67h-.92V41h.92Z"/><path class="cls-2" d="M166.28,46.79h1.26V48h-1.26Z"/><rect class="cls-1" x="245.86" width="1.59" height="57.26"/></g></g></svg>