<svg xmlns="http://www.w3.org/2000/svg" viewBox="0 0 276.71 52.07"><defs><style>.cls-1{fill:#595757;}</style></defs><title>자산 45</title><g id="레이어_2" data-name="레이어 2"><g id="레이어_1-2" data-name="레이어 1"><path class="cls-1" d="M6.74,6.69a6.28,6.28,0,0,1-3-2.23,6.68,6.68,0,0,1-3,2.48L0,6.14C1.49,5.4,3.06,4.39,3.06,2.58V.78H4.33V2.57c0,1.75,1.58,2.6,3,3.15ZM9.82,9.86c0,1.45-1.16,2.4-3.86,2.4s-3.84-.94-3.84-2.4S3.27,7.42,6,7.42,9.82,8.41,9.82,9.86Zm-1.3,0c0-.94-.92-1.45-2.54-1.45s-2.56.51-2.56,1.45.91,1.4,2.56,1.4S8.52,10.78,8.52,9.87ZM11.32,4H9.49V7.12H8.24V.42H9.49V3h1.83Z"/><path class="cls-1" d="M22,6.9H17.24V8.11h3.31V12H12.63V8.11h3.29V6.9H11.18V5.85H22ZM12.2,5.07V4H14l-.2-1.73H15L15.2,4H18l.16-1.73h1.31L19.24,4H21v1Zm.28-3.32v-1h8.23v1ZM19.3,11V9.13H13.89V11Z"/><path class="cls-1" d="M28.29,1.28C28.24,6,26.17,8,23.25,9.53l-.81-.88C25.5,6.91,26.91,5.17,27,2.33h-4.1v-1ZM31.57,12H30.31V.42h1.26Z"/><path class="cls-1" d="M37,2.63c1.78,0,2.91.69,2.91,1.75,0,.9-.88,1.59-2.31,1.74v.57c1.16-.05,2.25-.12,3.18-.24v1a58.58,58.58,0,0,1-7.7.36v-1c1.1,0,2.2,0,3.27,0V6.12c-1.44-.16-2.27-.86-2.27-1.74S35.17,2.63,37,2.63Zm3.2-.25H33.54v-1h2.8V.26h1.29V1.37h2.58Zm2.45,9.72H41.4V9.55H34.74v-1h7.92Zm-4-7.72c0-.53-.55-.84-1.64-.84s-1.67.31-1.67.84.6.87,1.67.87S38.65,4.87,38.65,4.38Zm4,3.57H41.4V.42h1.26Z"/><path class="cls-1" d="M46.48,1.09C48,1.09,49,2.38,49.14,4.47h1.11v-4h1.24V11.68H50.25V5.58H49.16c-.1,2.29-1,3.68-2.68,3.68s-2.64-1.57-2.64-4.09S44.83,1.09,46.48,1.09ZM45.06,5.16c0,1.7.48,3,1.4,3s1.48-1.31,1.48-3-.44-3-1.48-3S45.06,3.48,45.06,5.16ZM53.58,12H52.35V.42h1.23Z"/><path class="cls-1" d="M58.79,1V4.17c0,1.9,1.53,3.28,3.05,4l-.62,1a7.7,7.7,0,0,1-3-2.88,8,8,0,0,1-3.12,3.12l-.81-.87c1.73-1,3.27-2.44,3.27-4.42V1ZM64.26,12H63V4.88H60.51v-1H63V.42h1.26Z"/><path class="cls-1" d="M73.25,1.34a9.1,9.1,0,0,1-4.12,8.21l-1-.75C70.34,7.26,71.91,5.4,72,2.38H68.77v-1ZM78.13,12H76.89V5.54H75.48v6.14H74.25V.49h1.23v4h1.41v-4h1.24Z"/><path class="cls-1" d="M84.9,5.84H79.42V.78h1.24V2.46h3V.78H84.9Zm-1.25-1V3.45h-3V4.86Zm4.8,7.24H80.66V9h6.22V7.93H80.66v-1h7.52V10H82v1.13h6.49ZM90,3.66H88.16V6.28H86.9V.42h1.26V2.6H90Z"/><path class="cls-1" d="M90.58,9.52h1.58v1.17a2.76,2.76,0,0,1-.07.72,3,3,0,0,1-1.23,1.7l-.38-.39A2.31,2.31,0,0,0,91.36,11h-.78Z"/><path class="cls-1" d="M101.05,6.72a5.22,5.22,0,0,1-2.21-2A6.87,6.87,0,0,1,96.41,7l-.8-.84c1.09-.66,2.56-1.79,2.56-3.35V.78h1.26V2.85a3.46,3.46,0,0,0,2.23,2.94Zm4.85,3.16c0,1.89-2,2.38-4,2.38S98,11.77,98,9.88s2.13-2.4,3.94-2.4S105.9,8,105.9,9.88Zm-1.3,0c0-1.09-1.44-1.4-2.64-1.4s-2.63.31-2.63,1.4,1.48,1.37,2.63,1.37S104.6,11,104.6,9.89Zm1.2-2.6h-1.24V4.07h-1.25V6.84H102.1V.49h1.21V3h1.25V.42h1.24Z"/><path class="cls-1" d="M113,7.06a6.08,6.08,0,0,1-3-2.19,6.47,6.47,0,0,1-3,2.47l-.72-.79c1.49-.75,3.06-1.74,3.06-3.56V.83h1.27V3c0,1.73,1.57,2.59,3,3.16Zm3.14,4.8h-7.75V7.93h1.26v2.89h6.49ZM115.73.42V3.55h1.83v1h-1.83V8.77h-1.26V.42Z"/><path class="cls-1" d="M118,9.52h1.59v1.17a2.76,2.76,0,0,1-.07.72,3,3,0,0,1-1.24,1.7l-.37-.39a2.31,2.31,0,0,0,.88-1.71H118Z"/><path class="cls-1" d="M134,6.9h-4.75V8.11h3.31V12h-7.92V8.11H128V6.9h-4.74V5.85H134Zm-9.8-1.83V4H126l-.2-1.73h1.26L127.24,4H130l.15-1.73h1.32L131.29,4H133v1Zm.29-3.32v-1h8.23v1ZM131.35,11V9.13h-5.41V11Z"/><path class="cls-1" d="M140.86,6.06a6.59,6.59,0,0,1-3-2.2,6.57,6.57,0,0,1-3,2.45l-.7-.81c1.49-.71,3-1.65,3-3.49V1.82h-2.38v-1h6v1h-2.35V2c0,1.75,1.5,2.53,2.89,3.11Zm3.21,6h-7.89V9h6.32V7.88h-6.32v-1h7.6V9.94h-6.31v1.19h6.6Zm-.25-5.9h-1.26V.42h1.26Z"/><path class="cls-1" d="M144.78,6.12c.81,0,1.6,0,2.37,0V3.61h1.27V6.07c1.34-.05,2.58-.13,3.66-.25v1a56.32,56.32,0,0,1-7.3.33ZM151.35,1c-.06,1.2-.23,3.2-.36,4h-1.27c.11-.8.26-2.16.3-3h-4.57V1Zm3,10.84h-7.91V8.25h1.3v2.57h6.61Zm1.46-6.79H154V8.83h-1.26V.42H154V4.05h1.83Z"/><path class="cls-1" d="M163.21,9a55.74,55.74,0,0,1-6.56.32V4.57h3.91V2.18h-3.91v-1h5.16V5.6H157.9V8.2c2.12,0,3.44-.09,5.31-.24ZM165.3,12H164V.42h1.26Z"/><path class="cls-1" d="M169.34,1.09c1.54,0,2.5,1.29,2.66,3.38h1.12v-4h1.23V11.68h-1.23V5.58H172c-.1,2.29-1.05,3.68-2.69,3.68s-2.63-1.57-2.63-4.09S167.7,1.09,169.34,1.09Zm-1.41,4.07c0,1.7.47,3,1.4,3s1.47-1.31,1.47-3-.43-3-1.47-3S167.93,3.48,167.93,5.16ZM176.45,12h-1.24V.42h1.24Z"/><path class="cls-1" d="M181.66,1V4.17c0,1.9,1.53,3.28,3,4l-.61,1A7.72,7.72,0,0,1,181,6.31a7.91,7.91,0,0,1-3.11,3.12l-.82-.87c1.73-1,3.27-2.44,3.27-4.42V1ZM187.13,12h-1.26V4.88h-2.5v-1h2.5V.42h1.26Z"/><path class="cls-1" d="M202,6.3h-4.75v1h3.31v2.81H194v1h6.93v1h-8.24V9.21h6.62v-1h-6.62V7.32h3.29v-1H191.2v-1H202Zm-4.75-5.18h3.45v1h-3.33c.54.91,2.14,1.39,3.83,1.73l-.58.88a7.4,7.4,0,0,1-4-1.71,7.53,7.53,0,0,1-4,1.71l-.6-.88c1.82-.34,3.41-.78,3.84-1.73h-3.34v-1H196V0h1.29Z"/><path class="cls-1" d="M206,2.19h2.86v1h-7v-1h2.83V.42H206Zm2.32,4.67a3,3,0,1,1-5.92,0,2.79,2.79,0,0,1,3-3A2.72,2.72,0,0,1,208.35,6.86Zm-1.22,0c0-1.23-.55-2-1.73-2s-1.71.77-1.71,2,.6,2,1.71,2S207.13,8,207.13,6.86ZM211.18.42V5.21h1.89V6.3h-1.89V12h-1.26V.42Z"/><path class="cls-1" d="M215.52,1.33c1.44,0,2.33,1.27,2.46,3.37h1.39v-4h.88V11.49h-.88v-6H218c-.05,2.25-.93,3.63-2.47,3.63S213,7.65,213,5.24,214,1.33,215.52,1.33Zm-1.62,3.9c0,1.75.54,3.12,1.61,3.12s1.64-1.36,1.64-3.12-.5-3.12-1.64-3.12S213.9,3.5,213.9,5.23Zm8.42,6.62h-.87V.6h.87Z"/><path class="cls-1" d="M232.27,5.15c0,2.57-1,3.95-2.83,3.95s-2.84-1.38-2.84-3.95,1.1-3.95,2.84-3.95S232.27,2.52,232.27,5.15Zm-.89,0c0-2-.58-3.17-1.93-3.17s-1.95,1.18-1.95,3.17.62,3.2,1.95,3.2S231.38,7.06,231.38,5.13Zm3.86,6.72h-.9V.6h.9Z"/><path class="cls-1" d="M246.86,9.28V10H236.49V9.28Zm-8.89-2V3.9h6.44V2.05h-6.47V1.29h7.36V4.64h-6.42v1.9h6.79v.75Z"/><path class="cls-1" d="M252.7,1.45c0,4.56-2.06,6.5-4.77,8l-.6-.69c3-1.58,4.39-3.6,4.4-6.56h-4V1.45ZM256,11.85h-.9V.6h.9Z"/><path class="cls-1" d="M260.39,1.45c0,3.65-.76,5.67-2.77,7.37L257,8.25c2.08-1.59,2.49-3.54,2.49-6.06h-2.07V1.45Zm3.22,0c0,3.43-.41,6.09-2.88,8.23l-.65-.55c2.37-2,2.6-4.32,2.6-6.94h-1.81V1.45ZM265.94.6V4.85h2v.78h-2v6.22h-.88V.6Z"/><path class="cls-1" d="M274.11,9A6.73,6.73,0,0,1,271.18,6a6.6,6.6,0,0,1-3,3.32l-.57-.65c1.66-.94,3.1-2.4,3.1-4.42v-2h-2.49V1.45h5.93v.74h-2.51V4.25a4.72,4.72,0,0,0,2.91,4Zm2.6,2.83h-.89V.6h.89Z"/><path class="cls-1" d="M4.31,22v1.09c0,1.8,1.47,2.65,2.82,3.2l-.4.68a5.42,5.42,0,0,1-2.87-2.4A5.5,5.5,0,0,1,1,27.22l-.52-.6c1.45-.73,2.9-1.7,2.9-3.56V22H1.05v-.75H6.64V22Zm5.62,9.71H2.55V28h.91v2.87H9.93Zm-.26-3.13H8.79V24.26H6.48V23.5H8.79V20.6h.88Z"/><path class="cls-1" d="M13.71,28.6c.71,0,1.48,0,2.28,0V25h.91v3.57c1.48,0,2.86-.12,4-.24v.75a58,58,0,0,1-7.17.31Zm6.19-7.15a45.13,45.13,0,0,1-.52,5.24h-.86a44.79,44.79,0,0,0,.43-4.5H14.3v-.74Zm2.54-.85V25h1.85v.77H22.44v6.13h-.88V20.6Z"/><path class="cls-1" d="M30.37,26.61a5.37,5.37,0,0,1-2.87-2.34,5.39,5.39,0,0,1-2.85,2.61l-.52-.6c1.45-.72,2.9-1.61,2.9-3.47v-.88H24.68v-.74h5.59v.74H27.94v.86c0,1.8,1.47,2.59,2.83,3.15Zm3,3.13c0,1.34-1.14,2.33-3.68,2.33s-3.68-1-3.68-2.33,1.15-2.33,3.68-2.33S33.41,28.41,33.41,29.74Zm-.93,0c0-1-1-1.63-2.74-1.63S27,28.78,27,29.75s1,1.6,2.74,1.6S32.48,30.67,32.48,29.75Zm.83-2.67h-.88v-3H30.12v-.76h2.31V20.6h.88Z"/><path class="cls-1" d="M44.73,25.38v.75H34.36v-.75Zm-9-2.86c0-1.18,1.39-1.94,3.78-1.94s3.77.75,3.77,1.94-1.43,2-3.77,2S35.75,23.79,35.75,22.52Zm7.84,9.39H35.8V29.19h6.54v-1.3H35.8v-.71h7.48v2.69H36.76V31.2h6.83Zm-6.91-9.39c0,.91,1.28,1.27,2.85,1.27s2.85-.36,2.85-1.27-1.3-1.23-2.85-1.23S36.68,21.7,36.68,22.52Z"/><path class="cls-1" d="M52.83,29a6.21,6.21,0,0,1-2.4-2.88,5.3,5.3,0,0,1-2.58,3.13l-.54-.63A5,5,0,0,0,50,24.44V22.27H47.91v-.76H53v.76H50.9v2.17a4.48,4.48,0,0,0,2.42,3.88Zm2.26,2.51H54.2V25.07h-2v-.79h2V20.66h.89Zm2.15.36h-.88V20.6h.88Z"/><path class="cls-1" d="M68.36,30.13H58v-.75h4.71V26.64h.91v2.74h4.74Zm-1.24-3.22A7.45,7.45,0,0,1,63.18,24a7.44,7.44,0,0,1-3.94,2.91l-.51-.67c1.66-.52,4-1.91,4-3.52v-.68H59.39v-.76H67v.76H63.67v.68c0,1.61,2.27,2.95,4,3.53Z"/><path class="cls-1" d="M72.76,27.89v1.44c1.28,0,2.52-.11,3.44-.2v.73a66.35,66.35,0,0,1-7.64.31v-.78c.94,0,2.11,0,3.27,0V27.89Zm2.88-5.13H68.83V22h3V20.49h.93V22h2.89Zm-3.3,4.72c-1.86,0-2.86-.93-2.86-2.11s1-2.12,2.8-2.12,2.85,1,2.85,2.13S74.05,27.48,72.34,27.48Zm1.9-2.1c0-.76-.63-1.42-2-1.42s-2,.67-2,1.41.72,1.39,2,1.39S74.24,26.15,74.24,25.38Zm3.54,6.47H76.9V20.6h.88Z"/><path class="cls-1" d="M82.33,21.12v3.05a4.74,4.74,0,0,0,3,4l-.45.71a6.62,6.62,0,0,1-3-3.07,6.68,6.68,0,0,1-3,3.34l-.58-.65c1.67-.95,3.15-2.4,3.15-4.42v-3Zm5.1-.52v3.87h1.95v.79H87.43v6.59h-.89V20.6Z"/><path class="cls-1" d="M91.72,21.33c1.43,0,2.33,1.27,2.46,3.37h1.38v-4h.89V31.49h-.89v-6H94.19c-.06,2.25-.93,3.63-2.47,3.63s-2.49-1.5-2.49-3.91S90.15,21.33,91.72,21.33Zm-1.63,3.9c0,1.75.54,3.12,1.62,3.12s1.63-1.36,1.63-3.12-.49-3.12-1.63-3.12S90.09,23.5,90.09,25.23Zm8.43,6.62h-.87V20.6h.87Z"/><path class="cls-1" d="M103.38,21.12v3.05c0,1.93,1.49,3.31,3,4l-.45.71a6.72,6.72,0,0,1-3-3.07,6.68,6.68,0,0,1-3,3.34l-.58-.65c1.67-.95,3.16-2.4,3.16-4.42v-3Zm5.37,10.73h-.88V24.7h-2.64v-.78h2.64V20.6h.88Z"/><path class="cls-1" d="M123.05,27.6h-4.73v4.25h-.92V27.6h-4.72v-.75h10.37ZM113.5,25c1.58-.34,3.87-1.53,3.87-2.95v-.17h-3.29v-.75h7.53v.75h-3.27V22c0,1.37,2.21,2.57,3.87,2.95l-.41.7a7.1,7.1,0,0,1-3.94-2.48,6.9,6.9,0,0,1-3.94,2.48Z"/><path class="cls-1" d="M128.67,27.24v2.14h4.73v.75H123v-.75h4.72V27.24Zm-4.17-.9V21.29H132v.76h-6.58v3.54h6.74v.75Z"/><path class="cls-1" d="M137,22.36h3v.75h-6.84v-.75h2.94V20.61H137Zm2.3,4.39a2.76,2.76,0,1,1-5.52,0,2.63,2.63,0,0,1,2.78-2.84A2.56,2.56,0,0,1,139.3,26.75Zm-.87,0c0-1.29-.6-2.08-1.87-2.08s-1.88.82-1.88,2.08a1.84,1.84,0,0,0,1.88,2.08C137.83,28.83,138.43,28,138.43,26.75Zm3.62-6.15v4.76h2v.79h-2v5.7h-.88V20.6Z"/><path class="cls-1" d="M149.73,25.26c0,2.6-1.07,4-2.75,4s-2.76-1.36-2.76-4,1.09-3.94,2.76-3.94S149.73,22.64,149.73,25.26Zm-.89,0c0-2-.63-3.17-1.85-3.17s-1.87,1.18-1.87,3.17.65,3.22,1.87,3.22S148.84,27.2,148.84,25.25Zm1.22-2.35h2V20.6H153V31.85h-.89V27.18h-2V26.4h2V23.67h-2Z"/><path class="cls-1" d="M156.88,26.07h1.45l-.13-3.41h.88l.12,3.4c.72,0,1.49,0,2.2-.08l.11-3.32h.9L162.25,26c.69-.05,1.35-.1,1.89-.16v.71a55.5,55.5,0,0,1-7.26.32Zm.27-4.11v-.75h6.29V22Zm8.94,9.71h-7.34V28.12h.9v2.79h6.44Zm-.4-11.07v3.2h1.81v.76h-1.81v4.16h-.88V20.6Z"/><path class="cls-1" d="M172.07,28.79H167.8V21.5h4.27Zm-.87-.74v-5.8h-2.51v5.8Zm5.59,3.8h-.87V25.17h-1.65v6.32h-.87V20.66h.87v3.72h1.65V20.6h.87Z"/><path class="cls-1" d="M182.13,27.89v1.44c1.28,0,2.52-.11,3.43-.2v.73a66.16,66.16,0,0,1-7.63.31v-.78c.94,0,2.1,0,3.27,0V27.89ZM185,22.76H178.2V22h3V20.49h.93V22H185Zm-3.3,4.72c-1.86,0-2.86-.93-2.86-2.11s1-2.12,2.8-2.12,2.84,1,2.84,2.13S183.42,27.48,181.71,27.48Zm1.9-2.1c0-.76-.63-1.42-2-1.42s-2,.67-2,1.41.73,1.39,2,1.39S183.61,26.15,183.61,25.38Zm3.54,6.47h-.88V20.6h.88Z"/><path class="cls-1" d="M191.7,21.12v3.05a4.75,4.75,0,0,0,3,4l-.44.71a6.57,6.57,0,0,1-3-3.07,6.65,6.65,0,0,1-3,3.34l-.57-.65c1.67-.95,3.15-2.4,3.15-4.42v-3Zm5.09-.52v3.87h2v.79h-2v6.59h-.88V20.6Z"/><path class="cls-1" d="M201.08,21.33c1.44,0,2.33,1.27,2.46,3.37h1.39v-4h.88V31.49h-.88v-6h-1.37c-.06,2.25-.93,3.63-2.48,3.63s-2.48-1.5-2.48-3.91S199.52,21.33,201.08,21.33Zm-1.62,3.9c0,1.75.54,3.12,1.61,3.12s1.64-1.36,1.64-3.12-.5-3.12-1.64-3.12S199.46,23.5,199.46,25.23Zm8.42,6.62H207V20.6h.87Z"/><path class="cls-1" d="M216.88,29a6.21,6.21,0,0,1-2.4-2.88,5.3,5.3,0,0,1-2.58,3.13l-.54-.63A5,5,0,0,0,214,24.44V22.27H212v-.76h5v.76H215v2.17a4.48,4.48,0,0,0,2.42,3.88Zm2.26,2.51h-.88V25.07h-2v-.79h2V20.66h.88Zm2.15.36h-.88V20.6h.88Z"/><path class="cls-1" d="M232.42,26.38H222.05v-.75h4V23.36H227v2.27h5.4Zm-1.3,3.42c0,1.22-1.24,2.27-3.89,2.27s-3.87-1.05-3.87-2.27,1.26-2.27,3.87-2.27S231.12,28.55,231.12,29.8ZM231,20.94c0,.89-.2,2.66-.36,3.82h-.92c.12-.84.28-2.38.3-3.06h-6.48v-.76Zm-3.72,7.3c-1.83,0-2.91.68-2.91,1.55s1.08,1.54,2.91,1.54,2.92-.66,2.92-1.54S229.05,28.24,227.23,28.24Z"/><path class="cls-1" d="M236,22.36h3v.75h-6.84v-.75h2.94V20.61H236Zm2.3,4.39a2.76,2.76,0,1,1-5.52,0,2.63,2.63,0,0,1,2.78-2.84A2.56,2.56,0,0,1,238.32,26.75Zm-.87,0c0-1.29-.6-2.08-1.87-2.08a1.82,1.82,0,0,0-1.89,2.08,1.84,1.84,0,0,0,1.89,2.08C236.85,28.83,237.45,28,237.45,26.75Zm3.62-6.15v4.76h2v.79h-2v5.7h-.88V20.6Z"/><path class="cls-1" d="M253.11,27H242.75v-.76h10.36Zm-1,4.64h-7.91V28.3h.9v2.61h7Zm-.22-6.88h-7.63V20.74h.89V24h6.74Z"/><path class="cls-1" d="M6.73,46.6a5.56,5.56,0,0,1-2.87-2.4A5.5,5.5,0,0,1,1,46.87l-.52-.6c1.45-.72,2.9-1.7,2.9-3.56v-.82H1.05v-.74H6.64v.74H4.31v.81c0,1.8,1.47,2.66,2.82,3.2Zm2.93,5.31H8.78V48.6H2.33v-.76H9.66Zm0-4.8H8.79v-3H6.48v-.76H8.79V40.6h.88Z"/><path class="cls-1" d="M21.09,46H10.73v-.76h7.45a35,35,0,0,0,.45-3.58H12.16v-.76h7.45a42.81,42.81,0,0,1-.5,4.34h2Zm-1.45,5.87h-.89v-3.6H12v-.75h7.62Z"/><path class="cls-1" d="M27.43,46.6a5.48,5.48,0,0,1-2.87-2.4,5.54,5.54,0,0,1-2.85,2.67l-.52-.6c1.45-.72,2.9-1.7,2.9-3.56v-.82H21.75v-.74h5.58v.74H25v.81c0,1.8,1.47,2.66,2.83,3.2Zm2.93,5.31h-.89V48.6H23v-.76h7.33Zm0-4.8h-.88v-3H27.18v-.76h2.31V40.6h.88Z"/><path class="cls-1" d="M38.86,41.51c0,3.94-1.46,6.06-3.9,7.81l-.69-.55c2.14-1.53,3.65-3.36,3.65-6.5H34.79v-.76Zm4.82,10.34h-.87V45.41H41.07v6.08h-.88V40.66h.88v3.92h1.74v-4h.87Z"/><path class="cls-1" d="M50,45.79H45V41h.87v1.69h3.33V41H50Zm-.87-.74V43.38H45.84v1.67Zm4.39,6.86H46.21V49.12h6.15v-1.4H46.21V47h7.08v2.79H47.13V51.2h6.43Zm1.52-8.38H53.26v2.85h-.89V40.6h.89v2.16h1.82Z"/><path class="cls-1" d="M63.19,46.64a5.27,5.27,0,0,1-2.32-2.25A5.31,5.31,0,0,1,58.51,47l-.57-.63C59,45.7,60.41,44.59,60.41,43V41.09h.9V43c0,1.52,1.33,2.45,2.33,3Zm4.48,3.15c0,1.75-1.94,2.28-3.75,2.28s-3.72-.53-3.72-2.28,2-2.31,3.72-2.31S67.67,48.05,67.67,49.79Zm-.94,0c0-1.2-1.53-1.6-2.8-1.6s-2.79.4-2.79,1.6,1.55,1.53,2.79,1.53S66.73,51,66.73,49.8Zm.85-2.53h-.89V44H65.08v2.86h-.87V40.66h.87v2.48h1.61V40.6h.89Z"/><path class="cls-1" d="M74.41,46.87a5.59,5.59,0,0,1-2.94-2.4,5.69,5.69,0,0,1-2.91,2.69l-.52-.6c1.45-.73,3-1.7,3-3.56V41h.93v2c0,1.8,1.51,2.65,2.87,3.2Zm3,4.8H70.08V48H71v2.87h6.43ZM77,40.6v3.09h1.81v.77H77V48.6h-.88v-8Z"/><path class="cls-1" d="M84,46.32H79V41.09h.87v1.82h3.33V41.09H84Zm-.87-.76V43.67H79.83v1.89Zm4.29,4.21c0,1.35-1.09,2.3-3.62,2.3s-3.65-.94-3.65-2.3,1.11-2.32,3.65-2.32S87.45,48.42,87.45,49.77Zm-.92,0c0-1-1-1.63-2.69-1.63s-2.72.62-2.72,1.63,1,1.56,2.72,1.56S86.53,50.77,86.53,49.79Zm2.53-5.63H87.25v3h-.89V40.6h.89v2.81h1.81Z"/><path class="cls-1" d="M95.58,46.5a5.55,5.55,0,0,1-2.93-2.39,5.67,5.67,0,0,1-2.91,2.68l-.52-.6c1.45-.72,3-1.7,3-3.56V40.92h.91v1.69c0,1.8,1.53,2.65,2.89,3.21Zm2.75,5.41h-.88v-3.3H91v-.75h7.33Zm0-4.8h-.88V40.6h.88Z"/><path class="cls-1" d="M102.75,40.83a2.68,2.68,0,0,1,2.89,2.59,2.92,2.92,0,0,1-5.79,0A2.69,2.69,0,0,1,102.75,40.83Zm2,2.59a1.87,1.87,0,0,0-2-1.85,1.85,1.85,0,1,0,0,3.69A1.84,1.84,0,0,0,104.75,43.42Zm3.87,8.37h-7.1V46.94h.9V48.6h5.3V46.94h.9Zm-.9-.73V49.33h-5.3v1.73Zm.9-4.73h-.9V40.6h.9Z"/><path class="cls-1" d="M117,48.42a50.1,50.1,0,0,1-6.22.26V41.32h.9v6.57a44.86,44.86,0,0,0,5.32-.24Zm1.89,3.43H118V40.6h.89Z"/><path class="cls-1" d="M126.86,48.5a47.33,47.33,0,0,1-6.4.27V41.45h5.27v.74h-4.37V48a43.32,43.32,0,0,0,5.5-.24Zm3.75-3.27h-2v6.62h-.9V40.6h.9v3.84h2Z"/><path class="cls-1" d="M131.11,49.79h1.26V51h-1.26Z"/></g></g></svg>