<svg xmlns="http://www.w3.org/2000/svg" viewBox="0 0 38.98 13.73"><defs><style>.cls-1{fill:#231815;}</style></defs><title>자산 46</title><g id="레이어_2" data-name="레이어 2"><g id="레이어_1-2" data-name="레이어 1"><path class="cls-1" d="M12.31,6.87c0,3.73-2.1,6.86-6.16,6.86S0,10.6,0,6.87,2.13,0,6.15,0,12.31,3.15,12.31,6.87ZM6.15,1.92c-2.45,0-3.73,2.43-3.73,5s1.26,5,3.73,5,3.74-2.42,3.74-5S8.61,1.92,6.15,1.92Z"/><path class="cls-1" d="M18.63.16C22.56.16,25,3,25,6.85c0,3.67-2.45,6.69-6.32,6.69H14.14V.16Zm-.05,11.49c2.61,0,4-2.17,4-4.82,0-2.92-1.55-4.78-4-4.78H16.46v9.6Z"/><path class="cls-1" d="M32.85,7.55,36.8.16H39V13.54H36.71v-9l-3,5.69H31.94L29,4.54v9H26.72V.16H28.9Z"/></g></g></svg>