<svg xmlns="http://www.w3.org/2000/svg" viewBox="0 0 697.39 107.58"><defs><style>.cls-1{fill:#231815;}.cls-2{fill:#9d9d9e;}.cls-3{fill:#c71126;}.cls-4{fill:none;stroke:#c1c2c2;stroke-miterlimit:10;stroke-width:0.5px;}</style></defs><title>자산 142</title><g id="레이어_2" data-name="레이어 2"><g id="레이어_1-2" data-name="레이어 1"><path class="cls-1" d="M40.9,58.66a4.58,4.58,0,0,1-7.54-3.72c0-2.82,1.83-4.83,4.44-4.83a5.43,5.43,0,0,1,3,.79l-.5.88a4.63,4.63,0,0,0-2.47-.66c-2,0-3.18,1.75-3.18,3.83s1.26,3.77,3.24,3.77a3.64,3.64,0,0,0,2.41-.89Z"/><path class="cls-1" d="M46.32,58.68a2.49,2.49,0,0,1-4.56-1.46V52.78H43V57.1a1.54,1.54,0,0,0,1.49,1.73,1.91,1.91,0,0,0,1.85-2.08v-4h1.21v6.84H46.32Z"/><path class="cls-1" d="M52.34,54.09a2.56,2.56,0,0,0-1.43-.53c-.68,0-1,.35-1,.82s.46.87,1.46,1.37,1.82,1.07,1.82,2.07a2.08,2.08,0,0,1-2.32,2,3.23,3.23,0,0,1-2.44-1L49,58a2.8,2.8,0,0,0,1.77.85c.63,0,1.17-.31,1.17-1,0-.52-.6-.9-1.23-1.21-.92-.42-2-1-2-2.17a1.9,1.9,0,0,1,2.13-1.88,3.74,3.74,0,0,1,2,.68Z"/><path class="cls-1" d="M54.38,51.09l1.21-.37v2.06h1.57v1H55.59V57.9c0,.8.66.89,1.44.9v1c-1.58,0-2.65-.34-2.65-1.83V53.75h-.94v-1h.94Z"/><path class="cls-1" d="M60.76,52.6A3.29,3.29,0,0,1,64,56.2a3.24,3.24,0,1,1-6.45,0A3.29,3.29,0,0,1,60.76,52.6Zm0,6.24c1.09,0,2-1,2-2.64s-.91-2.65-2-2.65-2,1-2,2.65S59.66,58.84,60.76,58.84Z"/><path class="cls-1" d="M66.24,53.5a2,2,0,0,1,1.59-.88,2.23,2.23,0,0,1,2,1.25,2.22,2.22,0,0,1,1.93-1.25A2.25,2.25,0,0,1,74.2,55v4.61H73V55a1.28,1.28,0,0,0-1.35-1.38,1.41,1.41,0,0,0-1.44,1.6v4.45H69.05V55.06a1.35,1.35,0,0,0-1.35-1.49,1.47,1.47,0,0,0-1.46,1.61v4.44H65.05V52.78h1.19Z"/><path class="cls-1" d="M81,59a3.65,3.65,0,0,1-2.25.75,3.3,3.3,0,0,1-3.38-3.48c0-2.14,1.12-3.7,3.12-3.7a3,3,0,0,1,2.93,3.24,4.85,4.85,0,0,1,0,.6H76.62a2.19,2.19,0,0,0,2.2,2.34,2.94,2.94,0,0,0,1.73-.59Zm-.73-3.56a1.85,1.85,0,0,0-1.81-1.92c-1,0-1.67,1-1.81,1.92Z"/><path class="cls-1" d="M83.71,53.73a2.36,2.36,0,0,1,2-1.13l.33,0v1.06h0l-.29,0a1.85,1.85,0,0,0-2,1.7v4.25H82.5V52.78h1.21Z"/><path class="cls-1" d="M41,69.73a2.35,2.35,0,0,1,2-1.13l.33,0v1.06h0l-.28,0a1.85,1.85,0,0,0-2,1.7v4.25H39.75V68.78H41Z"/><path class="cls-1" d="M49,75a3.65,3.65,0,0,1-2.25.75,3.3,3.3,0,0,1-3.38-3.48c0-2.14,1.12-3.7,3.12-3.7a3,3,0,0,1,2.93,3.24,4.85,4.85,0,0,1,0,.6H44.58a2.19,2.19,0,0,0,2.2,2.34,2.94,2.94,0,0,0,1.73-.59Zm-.73-3.56a1.85,1.85,0,0,0-1.81-1.92c-1,0-1.67,1-1.81,1.92Z"/><path class="cls-1" d="M53.1,75.78c-1.9,0-3-1.41-3-3.6s1.29-3.58,3-3.58a2.48,2.48,0,0,1,2.07,1.21v-1h1.21v9.65H55.17V74.67A2.48,2.48,0,0,1,53.1,75.78Zm.15-.9c1.08,0,1.92-1,1.92-2.57v-.13c0-1.45-.64-2.64-1.93-2.64s-1.91,1.23-1.91,2.64S51.91,74.88,53.25,74.88Z"/><path class="cls-1" d="M62.23,74.68a2.48,2.48,0,0,1-4.55-1.46V68.78h1.21V73.1a1.55,1.55,0,0,0,1.5,1.73,1.9,1.9,0,0,0,1.84-2.08v-4h1.22v6.84H62.23Z"/><path class="cls-1" d="M70.22,75a3.65,3.65,0,0,1-2.25.75,3.31,3.31,0,0,1-3.39-3.48c0-2.14,1.13-3.7,3.13-3.7a3,3,0,0,1,2.93,3.24,4.85,4.85,0,0,1,0,.6H65.82A2.19,2.19,0,0,0,68,74.78a3,3,0,0,0,1.73-.59Zm-.73-3.56a1.85,1.85,0,0,0-1.81-1.92c-1,0-1.67,1-1.81,1.92Z"/><path class="cls-1" d="M75,70.09a2.56,2.56,0,0,0-1.43-.53c-.68,0-1,.35-1,.82s.46.87,1.46,1.37,1.82,1.07,1.82,2.07a2.08,2.08,0,0,1-2.32,2,3.23,3.23,0,0,1-2.44-1l.64-.81a2.8,2.8,0,0,0,1.77.85c.63,0,1.17-.31,1.17-1,0-.52-.6-.9-1.23-1.21-.92-.42-2-1-2-2.17a1.9,1.9,0,0,1,2.13-1.88,3.75,3.75,0,0,1,2,.68Z"/><path class="cls-1" d="M77.06,67.09l1.21-.37v2.06h1.57v1H78.27V73.9c0,.8.66.89,1.44.9v1c-1.58,0-2.65-.34-2.65-1.83V69.75h-.94v-1h.94Z"/><path class="cls-1" d="M132.53,50.23a2.95,2.95,0,1,1,0,5.88H130.6v3.51h-1.21V50.23Zm-1.93,1v3.93h1.94a1.85,1.85,0,0,0,1.9-2,1.83,1.83,0,0,0-1.9-1.95Z"/><path class="cls-1" d="M138,53.73a2.34,2.34,0,0,1,2-1.13l.33,0v1.06h0l-.28,0a1.85,1.85,0,0,0-2,1.7v4.25h-1.22V52.78H138Z"/><path class="cls-1" d="M143.57,52.6a3.29,3.29,0,0,1,3.23,3.6,3.24,3.24,0,1,1-6.45,0A3.29,3.29,0,0,1,143.57,52.6Zm0,6.24c1.1,0,2-1,2-2.64s-.9-2.65-2-2.65-2,1-2,2.65S142.48,58.84,143.57,58.84Z"/><path class="cls-1" d="M150.5,59.78c-1.89,0-3-1.41-3-3.6s1.3-3.58,3-3.58a2.45,2.45,0,0,1,2.07,1.21V50.05h1.21v9.57h-1.21v-.95A2.48,2.48,0,0,1,150.5,59.78Zm.15-.9c1.09,0,1.92-1,1.92-2.57v-.13c0-1.45-.63-2.64-1.93-2.64s-1.9,1.23-1.9,2.64S149.31,58.88,150.65,58.88Z"/><path class="cls-1" d="M159.64,58.68a2.48,2.48,0,0,1-4.55-1.46V52.78h1.21V57.1a1.54,1.54,0,0,0,1.49,1.73,1.91,1.91,0,0,0,1.85-2.08v-4h1.21v6.84h-1.21Z"/><path class="cls-1" d="M167.75,58.9a3.54,3.54,0,1,1-2.33-6.3,4.3,4.3,0,0,1,2.18.62l-.46.91a3.39,3.39,0,0,0-1.72-.52c-1.29,0-2.21,1.06-2.21,2.64a2.31,2.31,0,0,0,2.24,2.52,2.6,2.6,0,0,0,1.71-.67Z"/><path class="cls-1" d="M168.89,51.09l1.21-.37v2.06h1.57v1H170.1V57.9c0,.8.66.89,1.44.9v1c-1.58,0-2.65-.34-2.65-1.83V53.75H168v-1h.94Z"/><path class="cls-1" d="M123.07,74.9a3.55,3.55,0,1,1-2.33-6.3,4.26,4.26,0,0,1,2.17.62l-.46.91a3.35,3.35,0,0,0-1.71-.52c-1.3,0-2.21,1.06-2.21,2.64a2.3,2.3,0,0,0,2.23,2.52,2.62,2.62,0,0,0,1.72-.67Z"/><path class="cls-1" d="M126.78,68.6a3.62,3.62,0,1,1-3.22,3.6A3.29,3.29,0,0,1,126.78,68.6Zm0,6.24c1.1,0,2-1,2-2.64s-.9-2.65-2-2.65-2,1-2,2.65S125.69,74.84,126.78,74.84Z"/><path class="cls-1" d="M132.28,69.72a2.45,2.45,0,0,1,2-1.1,2.41,2.41,0,0,1,2.6,2.56v4.44h-1.21V71.3a1.55,1.55,0,0,0-1.5-1.73,1.91,1.91,0,0,0-1.85,2.08v4h-1.21V68.78h1.21Z"/><path class="cls-1" d="M141.58,70.09a2.56,2.56,0,0,0-1.43-.53c-.68,0-1,.35-1,.82s.46.87,1.46,1.37,1.82,1.07,1.82,2.07a2.08,2.08,0,0,1-2.32,2,3.26,3.26,0,0,1-2.45-1l.65-.81a2.78,2.78,0,0,0,1.77.85c.63,0,1.17-.31,1.17-1,0-.52-.6-.9-1.23-1.21-.92-.42-2-1-2-2.17a1.9,1.9,0,0,1,2.13-1.88,3.75,3.75,0,0,1,2,.68Z"/><path class="cls-1" d="M147.82,74.68a2.48,2.48,0,0,1-4.55-1.46V68.78h1.21V73.1A1.55,1.55,0,0,0,146,74.83a1.9,1.9,0,0,0,1.85-2.08v-4H149v6.84h-1.21Z"/><path class="cls-1" d="M150.52,66.05h1.21v9.57h-1.21Z"/><path class="cls-1" d="M153.4,67.09l1.22-.37v2.06h1.56v1h-1.56V73.9c0,.8.65.89,1.43.9v1c-1.58,0-2.65-.34-2.65-1.83V69.75h-.94v-1h.94Z"/><path class="cls-1" d="M157.06,69.27a4.28,4.28,0,0,1,2.33-.7A2.32,2.32,0,0,1,161.74,70a3.19,3.19,0,0,1,.17,1.16v2.95a5.9,5.9,0,0,0,.16,1.49h-1.22c0-.17-.11-.64-.11-.64a3,3,0,0,1-2,.82,2.3,2.3,0,0,1-2.44-2.28c0-1.8,1.44-2.48,3.4-2.48.32,0,.65,0,1,0V71a1.29,1.29,0,0,0-1.43-1.41,3.06,3.06,0,0,0-1.7.57Zm1.81,5.53a1.71,1.71,0,0,0,1.83-1.72V72c-.29,0-.64,0-.89,0-1.37,0-2.29.39-2.29,1.48A1.32,1.32,0,0,0,158.87,74.8Z"/><path class="cls-1" d="M163.6,67.09l1.21-.37v2.06h1.57v1h-1.57V73.9c0,.8.66.89,1.44.9v1c-1.58,0-2.65-.34-2.65-1.83V69.75h-.94v-1h.94Z"/><path class="cls-1" d="M167.13,66.05h1.37v1.46h-1.37Zm.08,2.73h1.21v6.84h-1.21Z"/><path class="cls-1" d="M172.69,68.6a3.62,3.62,0,1,1-3.22,3.6A3.29,3.29,0,0,1,172.69,68.6Zm0,6.24c1.09,0,2-1,2-2.64s-.91-2.65-2-2.65-2,1-2,2.65S171.6,74.84,172.69,74.84Z"/><path class="cls-1" d="M178.19,69.72a2.45,2.45,0,0,1,2-1.1,2.41,2.41,0,0,1,2.6,2.56v4.44h-1.22V71.3A1.54,1.54,0,0,0,180,69.57a1.91,1.91,0,0,0-1.85,2.08v4H177V68.78h1.21Z"/><path class="cls-1" d="M231.43,66.66a4.58,4.58,0,0,1-7.54-3.72c0-2.82,1.83-4.83,4.45-4.83a5.42,5.42,0,0,1,2.95.79l-.5.88a4.63,4.63,0,0,0-2.47-.66c-2,0-3.17,1.75-3.17,3.83s1.26,3.77,3.23,3.77a3.64,3.64,0,0,0,2.41-.89Z"/><path class="cls-1" d="M234.86,60.6a3.62,3.62,0,1,1-3.22,3.6A3.29,3.29,0,0,1,234.86,60.6Zm0,6.24c1.1,0,2-1,2-2.64s-.9-2.65-2-2.65-2,1-2,2.65S233.77,66.84,234.86,66.84Z"/><path class="cls-1" d="M240.36,61.72a2.45,2.45,0,0,1,2-1.1,2.41,2.41,0,0,1,2.6,2.56v4.44h-1.21V63.3a1.55,1.55,0,0,0-1.5-1.73,1.91,1.91,0,0,0-1.85,2.08v4h-1.21V60.78h1.21Z"/><path class="cls-1" d="M246.62,59.09l1.21-.37v2.06h1.57v1h-1.57V65.9c0,.8.66.89,1.44.9v1c-1.58,0-2.65-.34-2.65-1.83V61.75h-.94v-1h.94Z"/><path class="cls-1" d="M251.47,61.73a2.34,2.34,0,0,1,2-1.13l.33,0v1.06h0l-.28,0a1.85,1.85,0,0,0-2,1.7v4.25h-1.22V60.78h1.22Z"/><path class="cls-1" d="M254.41,61.27a4.25,4.25,0,0,1,2.32-.7A2.33,2.33,0,0,1,259.09,62a3.46,3.46,0,0,1,.16,1.16v2.95a5.54,5.54,0,0,0,.17,1.49h-1.23c0-.17-.1-.64-.1-.64a3,3,0,0,1-2,.82,2.3,2.3,0,0,1-2.44-2.28c0-1.8,1.44-2.48,3.4-2.48.32,0,.65,0,1,.05V63a1.28,1.28,0,0,0-1.42-1.41,3.1,3.1,0,0,0-1.71.57Zm1.81,5.53A1.7,1.7,0,0,0,258,65.08V64c-.28,0-.63,0-.88,0-1.38,0-2.3.39-2.3,1.48A1.32,1.32,0,0,0,256.22,66.8Z"/><path class="cls-1" d="M266.07,66.9a3.54,3.54,0,1,1-2.33-6.3,4.3,4.3,0,0,1,2.18.62l-.46.91a3.39,3.39,0,0,0-1.72-.52c-1.29,0-2.21,1.06-2.21,2.64a2.31,2.31,0,0,0,2.24,2.52,2.6,2.6,0,0,0,1.71-.67Z"/><path class="cls-1" d="M267.21,59.09l1.21-.37v2.06H270v1h-1.57V65.9c0,.8.66.89,1.44.9v1c-1.58,0-2.65-.34-2.65-1.83V61.75h-.94v-1h.94Z"/><path class="cls-1" d="M328.71,59.62h-1.44l-2.54-3.92H323v3.92h-1.21V50.23H325c1.7,0,3.14,1,3.14,2.71a2.83,2.83,0,0,1-2.08,2.61Zm-3.79-4.88a1.8,1.8,0,0,0,2-1.8A1.73,1.73,0,0,0,325,51.2h-2v3.54Z"/><path class="cls-1" d="M329.75,53.27a4.31,4.31,0,0,1,2.33-.7A2.33,2.33,0,0,1,334.44,54a3.46,3.46,0,0,1,.16,1.16v3a5.9,5.9,0,0,0,.16,1.49h-1.22a5.79,5.79,0,0,1-.1-.64,3,3,0,0,1-2,.82A2.3,2.3,0,0,1,329,57.52c0-1.8,1.44-2.48,3.4-2.48.32,0,.65,0,1,.05V55A1.28,1.28,0,0,0,332,53.56a3.1,3.1,0,0,0-1.71.57Zm1.81,5.53a1.71,1.71,0,0,0,1.83-1.72V56c-.28,0-.64,0-.88,0-1.38,0-2.3.39-2.3,1.48A1.32,1.32,0,0,0,331.56,58.8Z"/><path class="cls-1" d="M337.72,57.78l1.3-5h1.2l1.31,5,1.36-5h1.18l-2,6.84H341l-1.35-5.09-1.36,5.09h-1.13l-1.93-6.84h1.17Z"/><path class="cls-1" d="M353.19,57a6.46,6.46,0,0,0,.47-2.05h1.15a8.32,8.32,0,0,1-.84,3c.43.52,1,1.15,1.43,1.66H354l-.73-.85a4.24,4.24,0,0,1-2.79,1.06,2.67,2.67,0,0,1-2.94-2.66c0-1.28.89-2,2.05-2.67a3.64,3.64,0,0,1-1-2.14A2.2,2.2,0,0,1,351,50.22a2.15,2.15,0,0,1,2.34,2.06c0,1.32-1,1.93-2.13,2.51Zm-2.91-1.75c-.89.49-1.57.95-1.57,1.91a1.7,1.7,0,0,0,1.79,1.66,3.14,3.14,0,0,0,2.07-.89Zm.29-1.26c.86-.4,1.61-.82,1.61-1.71A1.11,1.11,0,0,0,351,51.15a1.2,1.2,0,0,0-1.25,1.21A2.92,2.92,0,0,0,350.57,54Z"/><path class="cls-1" d="M362.67,54.09a2.5,2.5,0,0,0-1.42-.53c-.69,0-1,.35-1,.82s.46.87,1.46,1.37,1.82,1.07,1.82,2.07a2.07,2.07,0,0,1-2.31,2,3.25,3.25,0,0,1-2.45-1l.65-.81a2.77,2.77,0,0,0,1.76.85c.64,0,1.18-.31,1.18-1,0-.52-.6-.9-1.24-1.21-.92-.42-2-1-2-2.17a1.9,1.9,0,0,1,2.13-1.88,3.72,3.72,0,0,1,2,.68Z"/><path class="cls-1" d="M368.92,58.68a2.49,2.49,0,0,1-4.56-1.46V52.78h1.21V57.1a1.55,1.55,0,0,0,1.5,1.73,1.91,1.91,0,0,0,1.85-2.08v-4h1.21v6.84h-1.21Z"/><path class="cls-1" d="M372.83,58.67v.95h-1.21V50.05h1.21v3.76a2.45,2.45,0,0,1,2.07-1.21c1.68,0,3,1.33,3,3.58s-1.09,3.6-3,3.6A2.48,2.48,0,0,1,372.83,58.67Zm3.84-2.49c0-1.41-.62-2.64-1.91-2.64s-1.93,1.19-1.93,2.64v.13c0,1.61.84,2.57,1.92,2.57C376.09,58.88,376.67,57.51,376.67,56.18Z"/><path class="cls-1" d="M382.23,54.09a2.56,2.56,0,0,0-1.43-.53c-.68,0-1,.35-1,.82s.46.87,1.46,1.37,1.82,1.07,1.82,2.07a2.08,2.08,0,0,1-2.32,2,3.23,3.23,0,0,1-2.44-1l.64-.81a2.8,2.8,0,0,0,1.77.85c.63,0,1.17-.31,1.17-1,0-.52-.6-.9-1.23-1.21-.92-.42-2-1-2-2.17a1.9,1.9,0,0,1,2.13-1.88,3.75,3.75,0,0,1,2.05.68Z"/><path class="cls-1" d="M383.88,50.05h1.38v1.46h-1.38Zm.09,2.73h1.21v6.84H384Z"/><path class="cls-1" d="M389.22,59.78c-1.89,0-3-1.41-3-3.6s1.29-3.58,3-3.58a2.45,2.45,0,0,1,2.07,1.21V50.05h1.22v9.57h-1.22v-.95A2.47,2.47,0,0,1,389.22,59.78Zm.16-.9c1.08,0,1.91-1,1.91-2.57v-.13c0-1.45-.63-2.64-1.93-2.64s-1.9,1.23-1.9,2.64S388,58.88,389.38,58.88Z"/><path class="cls-1" d="M393.77,50.05h1.38v1.46h-1.38Zm.08,2.73h1.22v6.84h-1.22Z"/><path class="cls-1" d="M396.74,53.27a4.26,4.26,0,0,1,2.33-.7A2.32,2.32,0,0,1,401.42,54a3.46,3.46,0,0,1,.16,1.16v3a6,6,0,0,0,.17,1.49h-1.23c0-.17-.1-.64-.1-.64a3,3,0,0,1-2,.82A2.29,2.29,0,0,1,396,57.52c0-1.8,1.43-2.48,3.4-2.48.31,0,.64,0,1,.05V55A1.28,1.28,0,0,0,399,53.56a3.1,3.1,0,0,0-1.71.57Zm1.81,5.53a1.7,1.7,0,0,0,1.82-1.72V56c-.28,0-.63,0-.88,0-1.38,0-2.29.39-2.29,1.48A1.32,1.32,0,0,0,398.55,58.8Z"/><path class="cls-1" d="M404.2,53.73a2.36,2.36,0,0,1,2-1.13c.11,0,.23,0,.33,0v1.06h0l-.28,0a1.86,1.86,0,0,0-2,1.7v4.25H403V52.78h1.21Z"/><path class="cls-1" d="M406.6,61.48a2.7,2.7,0,0,0,2.3-2l-2.5-6.67h1.27l1.82,5.12,1.76-5.12h1.27L410.32,59c-.75,2.07-1.23,3-3.34,3.49Z"/><path class="cls-1" d="M310.4,69.5a2,2,0,0,1,1.59-.88,2.22,2.22,0,0,1,2,1.25A2.31,2.31,0,0,1,318.37,71v4.61h-1.19V71a1.28,1.28,0,0,0-1.35-1.38,1.4,1.4,0,0,0-1.44,1.6v4.45h-1.18V71.06a1.35,1.35,0,0,0-1.35-1.49,1.47,1.47,0,0,0-1.46,1.61v4.44h-1.18V68.78h1.18Z"/><path class="cls-1" d="M320.16,69.27a4.31,4.31,0,0,1,2.33-.7A2.33,2.33,0,0,1,324.85,70a3.46,3.46,0,0,1,.16,1.16v2.95a5.54,5.54,0,0,0,.17,1.49H324a5.79,5.79,0,0,1-.1-.64,3,3,0,0,1-2,.82,2.3,2.3,0,0,1-2.44-2.28c0-1.8,1.44-2.48,3.4-2.48.32,0,.65,0,1,0V71a1.28,1.28,0,0,0-1.42-1.41,3.1,3.1,0,0,0-1.71.57ZM322,74.8a1.71,1.71,0,0,0,1.83-1.72V72c-.28,0-.64,0-.88,0-1.38,0-2.3.39-2.3,1.48A1.32,1.32,0,0,0,322,74.8Z"/><path class="cls-1" d="M326.7,67.09l1.21-.37v2.06h1.57v1h-1.57V73.9c0,.8.66.89,1.44.9v1c-1.58,0-2.65-.34-2.65-1.83V69.75h-.94v-1h.94Z"/><path class="cls-1" d="M335.5,75a3.65,3.65,0,0,1-2.25.75,3.31,3.31,0,0,1-3.39-3.48c0-2.14,1.13-3.7,3.13-3.7a3,3,0,0,1,2.93,3.24,4.85,4.85,0,0,1,0,.6H331.1a2.19,2.19,0,0,0,2.2,2.34,3,3,0,0,0,1.73-.59Zm-.73-3.56A1.85,1.85,0,0,0,333,69.55c-1,0-1.67,1-1.81,1.92Z"/><path class="cls-1" d="M338.19,69.73a2.36,2.36,0,0,1,2-1.13c.11,0,.22,0,.33,0v1.06h0l-.29,0a1.85,1.85,0,0,0-2,1.7v4.25H337V68.78h1.21Z"/><path class="cls-1" d="M341.12,66.05h1.38v1.46h-1.38Zm.08,2.73h1.21v6.84H341.2Z"/><path class="cls-1" d="M344.08,69.27a4.28,4.28,0,0,1,2.33-.7A2.32,2.32,0,0,1,348.76,70a3.19,3.19,0,0,1,.17,1.16v2.95a5.9,5.9,0,0,0,.16,1.49h-1.22c-.05-.17-.11-.64-.11-.64a3,3,0,0,1-2,.82,2.3,2.3,0,0,1-2.44-2.28c0-1.8,1.44-2.48,3.4-2.48.32,0,.65,0,1,0V71a1.29,1.29,0,0,0-1.43-1.41,3.09,3.09,0,0,0-1.7.57Zm1.81,5.53a1.71,1.71,0,0,0,1.83-1.72V72c-.29,0-.64,0-.88,0-1.38,0-2.3.39-2.3,1.48A1.32,1.32,0,0,0,345.89,74.8Z"/><path class="cls-1" d="M350.34,66.05h1.21v9.57h-1.21Z"/><path class="cls-1" d="M357.7,73.78l1.31-5h1.2l1.3,5,1.37-5h1.17l-1.95,6.84H361l-1.35-5.09-1.37,5.09h-1.13l-1.93-6.84h1.18Z"/><path class="cls-1" d="M365,69.27a4.26,4.26,0,0,1,2.33-.7A2.32,2.32,0,0,1,369.64,70a3.46,3.46,0,0,1,.16,1.16v2.95a5.54,5.54,0,0,0,.17,1.49h-1.23c0-.17-.1-.64-.1-.64a3,3,0,0,1-2,.82,2.29,2.29,0,0,1-2.43-2.28c0-1.8,1.43-2.48,3.39-2.48.32,0,.65,0,1,0V71a1.28,1.28,0,0,0-1.42-1.41,3.1,3.1,0,0,0-1.71.57Zm1.81,5.53a1.7,1.7,0,0,0,1.82-1.72V72c-.28,0-.63,0-.88,0-1.38,0-2.3.39-2.3,1.48A1.32,1.32,0,0,0,366.77,74.8Z"/><path class="cls-1" d="M372.42,69.73a2.36,2.36,0,0,1,2-1.13l.33,0v1.06h0l-.28,0a1.86,1.86,0,0,0-2,1.7v4.25h-1.21V68.78h1.21Z"/><path class="cls-1" d="M380.45,75a3.67,3.67,0,0,1-2.25.75,3.31,3.31,0,0,1-3.39-3.48c0-2.14,1.13-3.7,3.13-3.7a3,3,0,0,1,2.93,3.24,3.61,3.61,0,0,1-.05.6h-4.77a2.19,2.19,0,0,0,2.2,2.34,2.91,2.91,0,0,0,1.72-.59Zm-.73-3.56a1.86,1.86,0,0,0-1.82-1.92c-1,0-1.67,1-1.81,1.92Z"/><path class="cls-1" d="M383.14,69.72a2.47,2.47,0,0,1,4.53,1.46v4.44h-1.19V71.3a1.55,1.55,0,0,0-1.5-1.73,1.9,1.9,0,0,0-1.84,2.08v4h-1.21V66.05h1.21Z"/><path class="cls-1" d="M392,68.6a3.62,3.62,0,1,1-3.22,3.6A3.29,3.29,0,0,1,392,68.6Zm0,6.24c1.09,0,2-1,2-2.64s-.91-2.65-2-2.65-2,1-2,2.65S390.88,74.84,392,74.84Z"/><path class="cls-1" d="M400.74,74.68a2.48,2.48,0,0,1-4.55-1.46V68.78h1.21V73.1a1.55,1.55,0,0,0,1.5,1.73,1.9,1.9,0,0,0,1.84-2.08v-4H402v6.84h-1.21Z"/><path class="cls-1" d="M406.76,70.09a2.5,2.5,0,0,0-1.42-.53c-.68,0-1,.35-1,.82s.46.87,1.46,1.37,1.83,1.07,1.83,2.07a2.08,2.08,0,0,1-2.32,2,3.25,3.25,0,0,1-2.45-1l.65-.81a2.77,2.77,0,0,0,1.76.85c.64,0,1.18-.31,1.18-1,0-.52-.6-.9-1.23-1.21-.92-.42-2-1-2-2.17a1.9,1.9,0,0,1,2.13-1.88,3.75,3.75,0,0,1,2.05.68Z"/><path class="cls-1" d="M408.42,66.05h1.38v1.46h-1.38Zm.08,2.73h1.21v6.84H408.5Z"/><path class="cls-1" d="M412.34,69.72a2.49,2.49,0,0,1,4.55,1.46v4.44h-1.21V71.3a1.55,1.55,0,0,0-1.5-1.73,1.9,1.9,0,0,0-1.84,2.08v4h-1.22V68.78h1.22Z"/><path class="cls-1" d="M421,68.6a2.44,2.44,0,0,1,2,1.21v-1h1.21V75a3,3,0,0,1-3.16,3.38,5.15,5.15,0,0,1-2.39-.62l.42-.94a4.21,4.21,0,0,0,1.95.59c1.05,0,2-.72,2-2.3v-.52A2.37,2.37,0,0,1,421,75.63c-1.79,0-3-1.21-3-3.48S419.23,68.6,421,68.6Zm.13.94c-1.37,0-1.92,1.28-1.92,2.61s.64,2.58,1.92,2.58,1.92-1,1.92-2.31v-.55A2.12,2.12,0,0,0,421.1,69.54Z"/><path class="cls-1" d="M471.36,50.23a2.95,2.95,0,1,1,0,5.88h-1.94v3.51h-1.21V50.23Zm-1.93,1v3.93h1.94a1.85,1.85,0,0,0,1.89-2,1.83,1.83,0,0,0-1.89-1.95Z"/><path class="cls-1" d="M476.8,53.73a2.36,2.36,0,0,1,2-1.13l.33,0v1.06h0l-.29,0a1.85,1.85,0,0,0-2,1.7v4.25h-1.21V52.78h1.21Z"/><path class="cls-1" d="M482.4,52.6a3.29,3.29,0,0,1,3.22,3.6,3.24,3.24,0,1,1-6.44,0A3.29,3.29,0,0,1,482.4,52.6Zm0,6.24c1.09,0,2-1,2-2.64s-.91-2.65-2-2.65-2,1-2,2.65S481.31,58.84,482.4,58.84Z"/><path class="cls-1" d="M489.33,59.78c-1.9,0-3-1.41-3-3.6s1.29-3.58,3-3.58a2.47,2.47,0,0,1,2.07,1.21V50.05h1.21v9.57H491.4v-.95A2.48,2.48,0,0,1,489.33,59.78Zm.15-.9c1.08,0,1.92-1,1.92-2.57v-.13c0-1.45-.64-2.64-1.93-2.64s-1.91,1.23-1.91,2.64S488.14,58.88,489.48,58.88Z"/><path class="cls-1" d="M498.46,58.68a2.48,2.48,0,0,1-4.55-1.46V52.78h1.21V57.1a1.55,1.55,0,0,0,1.5,1.73,1.9,1.9,0,0,0,1.84-2.08v-4h1.22v6.84h-1.22Z"/><path class="cls-1" d="M506.58,58.9a3.36,3.36,0,0,1-2.35.89,3.6,3.6,0,0,1,0-7.19,4.33,4.33,0,0,1,2.18.62l-.46.91a3.39,3.39,0,0,0-1.72-.52c-1.29,0-2.21,1.06-2.21,2.64a2.31,2.31,0,0,0,2.23,2.52A2.62,2.62,0,0,0,506,58.1Z"/><path class="cls-1" d="M507.72,51.09l1.21-.37v2.06h1.56v1h-1.56V57.9c0,.8.66.89,1.43.9v1c-1.57,0-2.64-.34-2.64-1.83V53.75h-.94v-1h.94Z"/><path class="cls-1" d="M515.62,58.67v3.76h-1.21V52.78h1.21v1a2.45,2.45,0,0,1,2.07-1.21c1.68,0,3,1.33,3,3.58s-1.08,3.6-3,3.6A2.48,2.48,0,0,1,515.62,58.67Zm3.84-2.49c0-1.41-.62-2.64-1.91-2.64s-1.93,1.19-1.93,2.64v.13c0,1.61.84,2.57,1.92,2.57C518.88,58.88,519.46,57.51,519.46,56.18Z"/><path class="cls-1" d="M522.91,53.73a2.36,2.36,0,0,1,2-1.13l.33,0v1.06h0l-.29,0a1.85,1.85,0,0,0-2,1.7v4.25H521.7V52.78h1.21Z"/><path class="cls-1" d="M528.51,52.6a3.29,3.29,0,0,1,3.22,3.6,3.24,3.24,0,1,1-6.44,0A3.29,3.29,0,0,1,528.51,52.6Zm0,6.24c1.09,0,2-1,2-2.64s-.91-2.65-2-2.65-2,1-2,2.65S527.42,58.84,528.51,58.84Z"/><path class="cls-1" d="M535.44,59.78c-1.9,0-3-1.41-3-3.6s1.29-3.58,3-3.58a2.47,2.47,0,0,1,2.07,1.21V50.05h1.21v9.57h-1.21v-.95A2.48,2.48,0,0,1,535.44,59.78Zm.15-.9c1.08,0,1.92-1,1.92-2.57v-.13c0-1.45-.64-2.64-1.93-2.64s-1.91,1.23-1.91,2.64S534.25,58.88,535.59,58.88Z"/><path class="cls-1" d="M544.57,58.68A2.48,2.48,0,0,1,540,57.22V52.78h1.21V57.1a1.55,1.55,0,0,0,1.5,1.73,1.9,1.9,0,0,0,1.84-2.08v-4h1.22v6.84h-1.22Z"/><path class="cls-1" d="M552.69,58.9a3.55,3.55,0,1,1-2.33-6.3,4.33,4.33,0,0,1,2.18.62l-.46.91a3.39,3.39,0,0,0-1.72-.52c-1.29,0-2.21,1.06-2.21,2.64a2.31,2.31,0,0,0,2.23,2.52,2.62,2.62,0,0,0,1.72-.67Z"/><path class="cls-1" d="M553.83,51.09l1.21-.37v2.06h1.56v1H555V57.9c0,.8.66.89,1.43.9v1c-1.57,0-2.64-.34-2.64-1.83V53.75h-.94v-1h.94Z"/><path class="cls-1" d="M557.36,50.05h1.37v1.46h-1.37Zm.08,2.73h1.21v6.84h-1.21Z"/><path class="cls-1" d="M562.92,52.6a3.29,3.29,0,0,1,3.22,3.6,3.24,3.24,0,1,1-6.44,0A3.29,3.29,0,0,1,562.92,52.6Zm0,6.24c1.09,0,2-1,2-2.64s-.91-2.65-2-2.65-2,1-2,2.65S561.82,58.84,562.92,58.84Z"/><path class="cls-1" d="M568.42,53.72a2.45,2.45,0,0,1,2-1.1A2.41,2.41,0,0,1,573,55.18v4.44h-1.21V55.3a1.54,1.54,0,0,0-1.49-1.73,1.91,1.91,0,0,0-1.85,2.08v4h-1.21V52.78h1.21Z"/><path class="cls-1" d="M461.94,69.27a4.31,4.31,0,0,1,2.33-.7A2.33,2.33,0,0,1,466.63,70a3.46,3.46,0,0,1,.16,1.16v2.95a5.54,5.54,0,0,0,.17,1.49h-1.23a5.79,5.79,0,0,1-.1-.64,3,3,0,0,1-2,.82,2.3,2.3,0,0,1-2.44-2.28c0-1.8,1.44-2.48,3.4-2.48.32,0,.65,0,1,0V71a1.29,1.29,0,0,0-1.43-1.41,3.09,3.09,0,0,0-1.7.57Zm1.82,5.53a1.7,1.7,0,0,0,1.82-1.72V72c-.28,0-.64,0-.88,0-1.38,0-2.3.39-2.3,1.48A1.32,1.32,0,0,0,463.76,74.8Z"/><path class="cls-1" d="M469.41,69.72a2.45,2.45,0,0,1,1.95-1.1,2.41,2.41,0,0,1,2.6,2.56v4.44h-1.21V71.3a1.55,1.55,0,0,0-1.49-1.73,1.91,1.91,0,0,0-1.85,2.08v4H468.2V68.78h1.21Z"/><path class="cls-1" d="M478,75.78c-1.89,0-3-1.41-3-3.6s1.3-3.58,3-3.58a2.45,2.45,0,0,1,2.07,1.21V66.05h1.21v9.57h-1.21v-1A2.48,2.48,0,0,1,478,75.78Zm.15-.9c1.09,0,1.92-1,1.92-2.57v-.13c0-1.45-.63-2.64-1.93-2.64s-1.9,1.23-1.9,2.64S476.83,74.88,478.17,74.88Z"/><path class="cls-1" d="M488.37,75.78c-1.9,0-3-1.41-3-3.6s1.3-3.58,3-3.58a2.45,2.45,0,0,1,2.07,1.21v-1h1.21v9.65h-1.21V74.67A2.48,2.48,0,0,1,488.37,75.78Zm.15-.9c1.08,0,1.92-1,1.92-2.57v-.13c0-1.45-.64-2.64-1.93-2.64s-1.91,1.23-1.91,2.64S487.18,74.88,488.52,74.88Z"/><path class="cls-1" d="M497.51,74.68A2.49,2.49,0,0,1,493,73.22V68.78h1.22V73.1a1.54,1.54,0,0,0,1.49,1.73,1.91,1.91,0,0,0,1.85-2.08v-4h1.21v6.84h-1.21Z"/><path class="cls-1" d="M500.47,69.27a4.28,4.28,0,0,1,2.33-.7A2.32,2.32,0,0,1,505.15,70a3.22,3.22,0,0,1,.16,1.16v2.95a6,6,0,0,0,.17,1.49h-1.22c-.05-.17-.11-.64-.11-.64a3,3,0,0,1-2,.82,2.29,2.29,0,0,1-2.43-2.28c0-1.8,1.43-2.48,3.4-2.48.31,0,.64,0,1,0V71a1.28,1.28,0,0,0-1.42-1.41,3.1,3.1,0,0,0-1.71.57Zm1.81,5.53a1.7,1.7,0,0,0,1.82-1.72V72c-.28,0-.63,0-.88,0-1.37,0-2.29.39-2.29,1.48A1.32,1.32,0,0,0,502.28,74.8Z"/><path class="cls-1" d="M506.72,66.05h1.22v9.57h-1.22Z"/><path class="cls-1" d="M509.22,66.05h1.37v1.46h-1.37Zm.08,2.73h1.21v6.84H509.3Z"/><path class="cls-1" d="M512.2,67.09l1.22-.37v2.06H515v1h-1.56V73.9c0,.8.65.89,1.43.9v1c-1.58,0-2.65-.34-2.65-1.83V69.75h-.94v-1h.94Z"/><path class="cls-1" d="M515.2,77.48a2.7,2.7,0,0,0,2.3-2L515,68.78h1.27l1.81,5.12,1.77-5.12h1.27L518.92,75c-.75,2.07-1.24,3-3.34,3.49Z"/><path class="cls-1" d="M524.69,66.05h1.38v1.46h-1.38Zm.08,2.73H526v6.84h-1.22Z"/><path class="cls-1" d="M528.61,69.72a2.49,2.49,0,0,1,4.55,1.46v4.44H532V71.3a1.55,1.55,0,0,0-1.49-1.73,1.9,1.9,0,0,0-1.85,2.08v4H527.4V68.78h1.21Z"/><path class="cls-1" d="M537.9,70.09a2.5,2.5,0,0,0-1.42-.53c-.69,0-1,.35-1,.82s.46.87,1.46,1.37,1.82,1.07,1.82,2.07a2.07,2.07,0,0,1-2.31,2,3.25,3.25,0,0,1-2.45-1l.65-.81a2.77,2.77,0,0,0,1.76.85c.64,0,1.18-.31,1.18-1,0-.52-.6-.9-1.24-1.21-.92-.42-2-1-2-2.17a1.9,1.9,0,0,1,2.13-1.88,3.8,3.8,0,0,1,2.05.68Z"/><path class="cls-1" d="M540.87,74.67v3.76h-1.21V68.78h1.21v1A2.49,2.49,0,0,1,543,68.6c1.68,0,3,1.33,3,3.58s-1.08,3.6-3,3.6A2.5,2.5,0,0,1,540.87,74.67Zm3.84-2.49c0-1.41-.61-2.64-1.91-2.64s-1.93,1.19-1.93,2.64v.13c0,1.61.84,2.57,1.92,2.57C544.13,74.88,544.71,73.51,544.71,72.18Z"/><path class="cls-1" d="M552.24,75a3.67,3.67,0,0,1-2.25.75,3.31,3.31,0,0,1-3.39-3.48c0-2.14,1.13-3.7,3.13-3.7a3,3,0,0,1,2.93,3.24,3.61,3.61,0,0,1,0,.6h-4.77a2.19,2.19,0,0,0,2.2,2.34,3,3,0,0,0,1.73-.59Zm-.73-3.56a1.85,1.85,0,0,0-1.82-1.92c-1,0-1.67,1-1.81,1.92Z"/><path class="cls-1" d="M559.13,74.9a3.55,3.55,0,1,1-2.33-6.3,4.26,4.26,0,0,1,2.17.62l-.45.91a3.42,3.42,0,0,0-1.72-.52c-1.3,0-2.21,1.06-2.21,2.64a2.3,2.3,0,0,0,2.23,2.52,2.62,2.62,0,0,0,1.72-.67Z"/><path class="cls-1" d="M560.27,67.09l1.21-.37v2.06H563v1h-1.56V73.9c0,.8.66.89,1.43.9v1c-1.57,0-2.64-.34-2.64-1.83V69.75h-.95v-1h.95Z"/><path class="cls-1" d="M563.79,66.05h1.38v1.46h-1.38Zm.09,2.73h1.21v6.84h-1.21Z"/><path class="cls-1" d="M569.36,68.6a3.62,3.62,0,1,1-3.23,3.6A3.29,3.29,0,0,1,569.36,68.6Zm0,6.24c1.09,0,2-1,2-2.64s-.91-2.65-2-2.65-2,1-2,2.65S568.26,74.84,569.36,74.84Z"/><path class="cls-1" d="M574.86,69.72a2.49,2.49,0,0,1,4.55,1.46v4.44H578.2V71.3a1.55,1.55,0,0,0-1.49-1.73,1.9,1.9,0,0,0-1.85,2.08v4h-1.21V68.78h1.21Z"/><path class="cls-1" d="M620.51,50.23a2.95,2.95,0,1,1,0,5.88h-1.94v3.51h-1.21V50.23Zm-1.93,1v3.93h1.94a1.85,1.85,0,0,0,1.89-2,1.83,1.83,0,0,0-1.89-1.95Z"/><path class="cls-1" d="M626,53.73a2.35,2.35,0,0,1,2-1.13l.33,0v1.06h0l-.29,0a1.85,1.85,0,0,0-2,1.7v4.25h-1.21V52.78H626Z"/><path class="cls-1" d="M631.55,52.6a3.29,3.29,0,0,1,3.22,3.6,3.24,3.24,0,1,1-6.44,0A3.29,3.29,0,0,1,631.55,52.6Zm0,6.24c1.09,0,2-1,2-2.64s-.91-2.65-2-2.65-2,1-2,2.65S630.46,58.84,631.55,58.84Z"/><path class="cls-1" d="M638.48,59.78c-1.9,0-3-1.41-3-3.6s1.29-3.58,3-3.58a2.47,2.47,0,0,1,2.07,1.21V50.05h1.21v9.57h-1.21v-.95A2.48,2.48,0,0,1,638.48,59.78Zm.15-.9c1.08,0,1.92-1,1.92-2.57v-.13c0-1.45-.64-2.64-1.93-2.64s-1.91,1.23-1.91,2.64S637.29,58.88,638.63,58.88Z"/><path class="cls-1" d="M647.61,58.68a2.48,2.48,0,0,1-4.55-1.46V52.78h1.21V57.1a1.55,1.55,0,0,0,1.5,1.73,1.9,1.9,0,0,0,1.84-2.08v-4h1.22v6.84h-1.22Z"/><path class="cls-1" d="M655.73,58.9a3.55,3.55,0,1,1-2.33-6.3,4.33,4.33,0,0,1,2.18.62l-.46.91a3.39,3.39,0,0,0-1.72-.52c-1.3,0-2.21,1.06-2.21,2.64a2.31,2.31,0,0,0,2.23,2.52,2.62,2.62,0,0,0,1.72-.67Z"/><path class="cls-1" d="M656.87,51.09l1.21-.37v2.06h1.56v1h-1.56V57.9c0,.8.66.89,1.43.9v1c-1.57,0-2.64-.34-2.64-1.83V53.75h-.94v-1h.94Z"/><path class="cls-1" d="M620.88,69.73a2.36,2.36,0,0,1,2-1.13c.11,0,.23,0,.33,0v1.06h0l-.29,0a1.85,1.85,0,0,0-2,1.7v4.25h-1.21V68.78h1.21Z"/><path class="cls-1" d="M628.9,75a3.62,3.62,0,0,1-2.24.75,3.31,3.31,0,0,1-3.39-3.48c0-2.14,1.13-3.7,3.13-3.7a3,3,0,0,1,2.93,3.24,3.61,3.61,0,0,1-.05.6h-4.77a2.19,2.19,0,0,0,2.19,2.34,2.91,2.91,0,0,0,1.73-.59Zm-.72-3.56a1.86,1.86,0,0,0-1.82-1.92c-1,0-1.67,1-1.81,1.92Z"/><path class="cls-1" d="M630.38,66.05h1.22v9.57h-1.22Z"/><path class="cls-1" d="M638.26,75a3.62,3.62,0,0,1-2.24.75,3.31,3.31,0,0,1-3.39-3.48c0-2.14,1.13-3.7,3.13-3.7a3,3,0,0,1,2.93,3.24,3.61,3.61,0,0,1-.05.6h-4.77a2.19,2.19,0,0,0,2.2,2.34,2.91,2.91,0,0,0,1.72-.59Zm-.72-3.56a1.86,1.86,0,0,0-1.82-1.92c-1,0-1.67,1-1.81,1.92Z"/><path class="cls-1" d="M640,69.27a4.28,4.28,0,0,1,2.33-.7A2.33,2.33,0,0,1,644.69,70a3.46,3.46,0,0,1,.16,1.16v2.95a5.9,5.9,0,0,0,.16,1.49h-1.22a5.79,5.79,0,0,1-.1-.64,3,3,0,0,1-2,.82,2.3,2.3,0,0,1-2.44-2.28c0-1.8,1.44-2.48,3.4-2.48.32,0,.65,0,1,0V71a1.28,1.28,0,0,0-1.42-1.41,3.1,3.1,0,0,0-1.71.57Zm1.82,5.53a1.7,1.7,0,0,0,1.82-1.72V72c-.28,0-.64,0-.88,0-1.38,0-2.3.39-2.3,1.48A1.32,1.32,0,0,0,641.82,74.8Z"/><path class="cls-1" d="M649.58,70.09a2.56,2.56,0,0,0-1.43-.53c-.68,0-1,.35-1,.82s.46.87,1.46,1.37,1.82,1.07,1.82,2.07a2.08,2.08,0,0,1-2.32,2,3.23,3.23,0,0,1-2.44-1l.64-.81a2.82,2.82,0,0,0,1.77.85c.63,0,1.17-.31,1.17-1,0-.52-.6-.9-1.23-1.21-.92-.42-2-1-2-2.17a1.9,1.9,0,0,1,2.13-1.88,3.74,3.74,0,0,1,2,.68Z"/><path class="cls-1" d="M656.62,75a3.64,3.64,0,0,1-2.24.75A3.31,3.31,0,0,1,651,72.3c0-2.14,1.13-3.7,3.13-3.7a3,3,0,0,1,2.93,3.24,5.15,5.15,0,0,1,0,.6h-4.78a2.19,2.19,0,0,0,2.2,2.34,2.94,2.94,0,0,0,1.73-.59Zm-.73-3.56a1.85,1.85,0,0,0-1.81-1.92c-1,0-1.67,1-1.81,1.92Z"/><path class="cls-2" d="M48.65,30.47a2.44,2.44,0,0,0-1.31-.4c-.75,0-1.21.39-1.21.95s.58.92,1.52,1.32,1.52.88,1.52,1.67c0,1.06-.94,1.52-1.85,1.52a2.88,2.88,0,0,1-1.89-.68l.24-.35a2.61,2.61,0,0,0,1.59.63c.61,0,1.44-.26,1.44-1.11,0-.59-.54-1-1.43-1.33s-1.61-.75-1.61-1.63c0-1,.89-1.39,1.67-1.39a3.18,3.18,0,0,1,1.53.45Z"/><path class="cls-2" d="M53.56,30.14H51.74v5.3h-.46v-5.3h-1.8v-.38h4.08Z"/><path class="cls-2" d="M58.14,35.44H54.55V29.76h3.51v.38H55v2.15H57.9v.37H55v2.4h3.12Z"/><path class="cls-2" d="M61.17,29.76a1.73,1.73,0,1,1,0,3.46H59.77v2.22h-.46V29.76Zm-1.4.38v2.68h1.38a1.34,1.34,0,1,0,0-2.68Z"/><path class="cls-2" d="M66.27,32.56c0-1.18.43-2.89,1.84-2.89S70,31.35,70,32.58s-.42,3-1.87,3S66.27,33.74,66.27,32.56Zm.45,0c0,1,.27,2.58,1.39,2.58s1.42-1.64,1.42-2.56-.27-2.51-1.41-2.51S66.72,31.66,66.72,32.56Z"/><path class="cls-2" d="M72,35.44V30.33l-.92.76-.23-.29,1.23-1h.38v5.68Z"/><path class="cls-2" d="M138.88,30.47a2.45,2.45,0,0,0-1.32-.4c-.75,0-1.2.39-1.2.95s.58.92,1.52,1.32,1.51.88,1.51,1.67c0,1.06-.93,1.52-1.84,1.52a2.86,2.86,0,0,1-1.89-.68l.24-.35a2.59,2.59,0,0,0,1.59.63c.61,0,1.43-.26,1.43-1.11,0-.59-.53-1-1.42-1.33s-1.62-.75-1.62-1.63c0-1,.89-1.39,1.68-1.39a3.18,3.18,0,0,1,1.53.45Z"/><path class="cls-2" d="M143.79,30.14H142v5.3h-.46v-5.3h-1.8v-.38h4.08Z"/><path class="cls-2" d="M148.37,35.44h-3.59V29.76h3.51v.38h-3v2.15h2.89v.37h-2.89v2.4h3.13Z"/><path class="cls-2" d="M151.4,29.76a1.73,1.73,0,1,1,0,3.46H150v2.22h-.47V29.76Zm-1.4.38v2.68h1.38a1.34,1.34,0,1,0,0-2.68Z"/><path class="cls-2" d="M156.5,32.56c0-1.18.42-2.89,1.84-2.89s1.86,1.68,1.86,2.91-.41,3-1.86,3S156.5,33.74,156.5,32.56Zm.45,0c0,1,.27,2.58,1.39,2.58s1.41-1.64,1.41-2.56-.26-2.51-1.4-2.51S157,31.66,157,32.56Z"/><path class="cls-2" d="M164.56,35.06v.38H161.2V35l1.28-1.37c1.19-1.28,1.52-1.87,1.52-2.41a1.11,1.11,0,0,0-1.21-1.12,2.06,2.06,0,0,0-1.34.58l-.24-.32a2.44,2.44,0,0,1,1.61-.66,1.5,1.5,0,0,1,1.64,1.5c0,.8-.62,1.55-1.66,2.71l-1.07,1.16Z"/><path class="cls-2" d="M235.8,30.47a2.44,2.44,0,0,0-1.31-.4c-.76,0-1.21.39-1.21.95s.58.92,1.52,1.32,1.52.88,1.52,1.67c0,1.06-.94,1.52-1.85,1.52a2.88,2.88,0,0,1-1.89-.68l.24-.35a2.61,2.61,0,0,0,1.59.63c.61,0,1.44-.26,1.44-1.11,0-.59-.54-1-1.43-1.33s-1.61-.75-1.61-1.63c0-1,.88-1.39,1.67-1.39a3.18,3.18,0,0,1,1.53.45Z"/><path class="cls-2" d="M240.71,30.14h-1.82v5.3h-.46v-5.3h-1.8v-.38h4.08Z"/><path class="cls-2" d="M245.29,35.44H241.7V29.76h3.51v.38h-3v2.15h2.88v.37h-2.88v2.4h3.12Z"/><path class="cls-2" d="M248.32,29.76a1.73,1.73,0,1,1,0,3.46h-1.41v2.22h-.47V29.76Zm-1.4.38v2.68h1.38a1.34,1.34,0,1,0,0-2.68Z"/><path class="cls-2" d="M253.42,32.56c0-1.18.43-2.89,1.84-2.89s1.86,1.68,1.86,2.91-.41,3-1.86,3S253.42,33.74,253.42,32.56Zm.45,0c0,1,.27,2.58,1.39,2.58s1.42-1.64,1.42-2.56-.27-2.51-1.41-2.51S253.87,31.66,253.87,32.56Z"/><path class="cls-2" d="M258.18,30.23a2.48,2.48,0,0,1,1.51-.56c.88,0,1.64.46,1.64,1.36a1.41,1.41,0,0,1-1.14,1.31,1.58,1.58,0,0,1,1.39,1.53,1.69,1.69,0,0,1-1.78,1.66,2.9,2.9,0,0,1-1.75-.56l.23-.34a2.6,2.6,0,0,0,1.49.51,1.26,1.26,0,0,0,1.34-1.28c0-1-1-1.3-1.8-1.3h-.37v-.39h.37c.72,0,1.54-.38,1.54-1.15s-.48-.95-1.2-.95a2.13,2.13,0,0,0-1.22.46Z"/><path class="cls-2" d="M355.09,30.47a2.45,2.45,0,0,0-1.32-.4c-.75,0-1.2.39-1.2.95s.58.92,1.52,1.32,1.51.88,1.51,1.67c0,1.06-.93,1.52-1.84,1.52a2.86,2.86,0,0,1-1.89-.68l.24-.35a2.59,2.59,0,0,0,1.59.63c.61,0,1.43-.26,1.43-1.11,0-.59-.53-1-1.42-1.33s-1.61-.75-1.61-1.63c0-1,.88-1.39,1.67-1.39a3.18,3.18,0,0,1,1.53.45Z"/><path class="cls-2" d="M360,30.14h-1.82v5.3h-.46v-5.3h-1.8v-.38H360Z"/><path class="cls-2" d="M364.58,35.44H361V29.76h3.51v.38h-3.05v2.15h2.89v.37h-2.89v2.4h3.13Z"/><path class="cls-2" d="M367.6,29.76a1.73,1.73,0,1,1,0,3.46h-1.4v2.22h-.47V29.76Zm-1.39.38v2.68h1.38a1.34,1.34,0,1,0,0-2.68Z"/><path class="cls-2" d="M372.71,32.56c0-1.18.42-2.89,1.84-2.89s1.86,1.68,1.86,2.91-.41,3-1.86,3S372.71,33.74,372.71,32.56Zm.45,0c0,1,.27,2.58,1.39,2.58S376,33.5,376,32.58s-.26-2.51-1.4-2.51S373.16,31.66,373.16,32.56Z"/><path class="cls-2" d="M381.12,33.92h-.83v1.52h-.46V33.92h-2.68v-.43l2.69-3.73h.45v3.78h.83Zm-1.29-.38V30.46l-2.21,3.08Z"/><path class="cls-2" d="M509.7,30.47a2.44,2.44,0,0,0-1.31-.4c-.75,0-1.21.39-1.21.95s.58.92,1.52,1.32,1.52.88,1.52,1.67c0,1.06-.94,1.52-1.85,1.52a2.88,2.88,0,0,1-1.89-.68l.24-.35a2.61,2.61,0,0,0,1.59.63c.61,0,1.44-.26,1.44-1.11,0-.59-.54-1-1.43-1.33s-1.61-.75-1.61-1.63c0-1,.89-1.39,1.67-1.39a3.18,3.18,0,0,1,1.53.45Z"/><path class="cls-2" d="M514.61,30.14h-1.82v5.3h-.46v-5.3h-1.8v-.38h4.08Z"/><path class="cls-2" d="M519.19,35.44H515.6V29.76h3.51v.38h-3v2.15H519v.37h-2.88v2.4h3.12Z"/><path class="cls-2" d="M522.22,29.76a1.73,1.73,0,1,1,0,3.46h-1.41v2.22h-.46V29.76Zm-1.4.38v2.68h1.38a1.34,1.34,0,1,0,0-2.68Z"/><path class="cls-2" d="M527.32,32.56c0-1.18.43-2.89,1.84-2.89S531,31.35,531,32.58s-.42,3-1.87,3S527.32,33.74,527.32,32.56Zm.45,0c0,1,.27,2.58,1.39,2.58s1.42-1.64,1.42-2.56-.27-2.51-1.41-2.51S527.77,31.66,527.77,32.56Z"/><path class="cls-2" d="M534.36,32.16a1.7,1.7,0,0,1,1.11,1.58,1.79,1.79,0,0,1-1.88,1.79,2.53,2.53,0,0,1-1.67-.59l.25-.32a2.18,2.18,0,0,0,1.36.52,1.39,1.39,0,0,0,1.46-1.4c0-.78-.59-1.39-1.76-1.39a6.51,6.51,0,0,0-.87.07l.09-2.67h2.72v.37h-2.28l0,1.88a3.24,3.24,0,0,1,.45,0A2.77,2.77,0,0,1,534.36,32.16Z"/><path class="cls-2" d="M627.57,30.47a2.44,2.44,0,0,0-1.31-.4c-.75,0-1.21.39-1.21.95s.58.92,1.52,1.32,1.52.88,1.52,1.67c0,1.06-.94,1.52-1.85,1.52a2.88,2.88,0,0,1-1.89-.68l.24-.35a2.61,2.61,0,0,0,1.59.63c.61,0,1.44-.26,1.44-1.11,0-.59-.54-1-1.43-1.33s-1.61-.75-1.61-1.63c0-1,.88-1.39,1.67-1.39a3.18,3.18,0,0,1,1.53.45Z"/><path class="cls-2" d="M632.48,30.14h-1.82v5.3h-.46v-5.3h-1.8v-.38h4.08Z"/><path class="cls-2" d="M637.06,35.44h-3.59V29.76H637v.38h-3v2.15h2.88v.37h-2.88v2.4h3.12Z"/><path class="cls-2" d="M640.09,29.76a1.73,1.73,0,1,1,0,3.46h-1.41v2.22h-.47V29.76Zm-1.4.38v2.68h1.38a1.34,1.34,0,1,0,0-2.68Z"/><path class="cls-2" d="M645.19,32.56c0-1.18.43-2.89,1.84-2.89s1.86,1.68,1.86,2.91-.41,3-1.86,3S645.19,33.74,645.19,32.56Zm.45,0c0,1,.27,2.58,1.39,2.58s1.42-1.64,1.42-2.56-.27-2.51-1.41-2.51S645.64,31.66,645.64,32.56Z"/><path class="cls-2" d="M652.78,30a3.07,3.07,0,0,0-2.44,2.5,2,2,0,0,1,1.51-.66,1.65,1.65,0,0,1,1.66,1.76,1.75,1.75,0,0,1-1.77,1.9c-1.14,0-1.88-.83-1.88-2.43a3.5,3.5,0,0,1,2.82-3.47Zm.28,3.63a1.32,1.32,0,0,0-1.3-1.41,1.72,1.72,0,0,0-1.42.7,2.25,2.25,0,0,0,0,.38c0,.87.41,1.81,1.4,1.81A1.35,1.35,0,0,0,653.06,33.66Z"/><polygon class="cls-3" points="100.58 68.6 100.58 60.31 107.65 64.45 100.58 68.6"/><polygon class="cls-3" points="197.33 68.6 197.33 60.31 204.39 64.45 197.33 68.6"/><polygon class="cls-3" points="287.07 68.6 287.07 60.31 294.13 64.45 287.07 68.6"/><polygon class="cls-3" points="441.81 68.6 441.81 60.31 448.88 64.45 441.81 68.6"/><polygon class="cls-3" points="593.56 68.6 593.56 60.31 600.62 64.45 593.56 68.6"/><rect class="cls-4" x="0.25" y="0.25" width="696.89" height="107.08" rx="16.33"/></g></g></svg>