<svg xmlns="http://www.w3.org/2000/svg" viewBox="0 0 99.03 18"><defs><style>.cls-1{fill:#fff;}.cls-2{fill:none;stroke:#fff;stroke-miterlimit:10;stroke-width:0.5px;}</style></defs><title>자산 148</title><g id="레이어_2" data-name="레이어 2"><g id="레이어_1-2" data-name="레이어 1"><rect width="99.03" height="18"/><path class="cls-1" d="M19.38,6.53A2.81,2.81,0,0,0,18,6c-.68,0-1.08.36-1.08.9s.5.88,1.47,1.32S20,9.24,20,10.18A1.84,1.84,0,0,1,17.93,12a3.1,3.1,0,0,1-2.15-.85l.43-.62a2.62,2.62,0,0,0,1.67.76c.56,0,1.29-.23,1.29-1.07,0-.56-.49-.93-1.34-1.31S16.05,8,16.05,7c0-1.21,1-1.63,1.89-1.63a3.35,3.35,0,0,1,1.79.59Z"/><path class="cls-1" d="M21.67,7.82A1.6,1.6,0,0,1,23,7.07a1.62,1.62,0,0,1,1.7,1.76v3h-.78V8.91a1.05,1.05,0,0,0-1-1.19,1.29,1.29,0,0,0-1.23,1.43v2.71h-.8V5.31h.8Z"/><path class="cls-1" d="M27.68,7.06a2.22,2.22,0,0,1,2.14,2.46,2.16,2.16,0,1,1-4.27,0A2.22,2.22,0,0,1,27.68,7.06Zm0,4.27c.73,0,1.33-.67,1.33-1.81s-.6-1.81-1.33-1.81-1.32.66-1.32,1.81S27,11.33,27.68,11.33Z"/><path class="cls-1" d="M31.49,11.21v2.57h-.8V7.18h.8v.71a1.6,1.6,0,0,1,1.37-.83c1.12,0,2,.91,2,2.45s-.72,2.46-2,2.46A1.62,1.62,0,0,1,31.49,11.21ZM34,9.51c0-1-.4-1.81-1.26-1.81s-1.28.81-1.28,1.81V9.6c0,1.1.55,1.75,1.27,1.75C33.65,11.35,34,10.42,34,9.51Z"/><path class="cls-1" d="M36.48,11.21v2.57h-.8V7.18h.8v.71a1.61,1.61,0,0,1,1.37-.83c1.12,0,2,.91,2,2.45s-.72,2.46-2,2.46A1.62,1.62,0,0,1,36.48,11.21ZM39,9.51c0-1-.4-1.81-1.26-1.81s-1.28.81-1.28,1.81V9.6c0,1.1.56,1.75,1.27,1.75C38.64,11.35,39,10.42,39,9.51Z"/><path class="cls-1" d="M40.6,5.31h.91v1H40.6Zm0,1.87h.81v4.68h-.81Z"/><path class="cls-1" d="M43.35,7.82a1.6,1.6,0,0,1,1.3-.75,1.63,1.63,0,0,1,1.72,1.76v3h-.8V8.91a1.05,1.05,0,0,0-1-1.19,1.29,1.29,0,0,0-1.23,1.43v2.71h-.8V7.18h.8Z"/><path class="cls-1" d="M49.23,7.06a1.59,1.59,0,0,1,1.36.83V7.18h.8V11.4a2,2,0,0,1-2.09,2.32,3.36,3.36,0,0,1-1.59-.43l.28-.64a2.69,2.69,0,0,0,1.3.4c.69,0,1.3-.49,1.3-1.57v-.36a1.56,1.56,0,0,1-1.37.75c-1.18,0-2-.83-2-2.38S48.08,7.06,49.23,7.06Zm.09.64c-.91,0-1.27.88-1.27,1.79s.42,1.77,1.27,1.77,1.27-.69,1.27-1.59V9.29A1.43,1.43,0,0,0,49.32,7.7Z"/><path class="cls-1" d="M55.43,7.68a1.32,1.32,0,0,1,1.06-.61,1.49,1.49,0,0,1,1.34.86,1.46,1.46,0,0,1,1.28-.86,1.51,1.51,0,0,1,1.6,1.64v3.15h-.79V8.67a.86.86,0,0,0-.89-1c-.46,0-1,.28-1,1.1v3H57.3V8.74a.92.92,0,0,0-.9-1,1,1,0,0,0-1,1.11v3h-.79V7.18h.79Z"/><path class="cls-1" d="M62.06,7.52A2.76,2.76,0,0,1,63.61,7a1.52,1.52,0,0,1,1.55,1,2.13,2.13,0,0,1,.11.8v2a4.1,4.1,0,0,0,.11,1h-.81c0-.11-.07-.43-.07-.43a2,2,0,0,1-1.32.56,1.55,1.55,0,0,1-1.61-1.56c0-1.24,1-1.7,2.25-1.7.22,0,.43,0,.65,0V8.68a.86.86,0,0,0-.94-1,2,2,0,0,0-1.13.38Zm1.2,3.78a1.15,1.15,0,0,0,1.21-1.18V9.4c-.19,0-.42,0-.58,0-.92,0-1.52.27-1.52,1A.88.88,0,0,0,63.26,11.3Z"/><path class="cls-1" d="M66.37,5.31h.8v6.55h-.8Z"/><path class="cls-1" d="M68.25,5.31h.8v6.55h-.8Z"/><polyline class="cls-2" points="73.59 10.67 83.81 10.67 81.07 7.93"/></g></g></svg>