<svg xmlns="http://www.w3.org/2000/svg" viewBox="0 0 79.98 18"><defs><style>.cls-1{fill:#fff;}</style></defs><title>자산 151</title><g id="레이어_2" data-name="레이어 2"><g id="레이어_1-2" data-name="레이어 1"><rect width="79.98" height="18"/><path class="cls-1" d="M31.16,11.86h-4V5.43h3.95V6.1H27.93V8.19h3v.67h-3V11.2h3.23Z"/><path class="cls-1" d="M32.86,7.82a1.6,1.6,0,0,1,1.3-.75,1.63,1.63,0,0,1,1.72,1.76v3h-.8V8.91a1.05,1.05,0,0,0-1-1.19,1.29,1.29,0,0,0-1.23,1.43v2.71h-.8V7.18h.8Z"/><path class="cls-1" d="M38.74,7.06a1.59,1.59,0,0,1,1.36.83V7.18h.8V11.4a2,2,0,0,1-2.09,2.32,3.39,3.39,0,0,1-1.59-.43l.28-.64a2.72,2.72,0,0,0,1.3.4c.69,0,1.3-.49,1.3-1.57v-.36a1.55,1.55,0,0,1-1.36.75c-1.19,0-2-.83-2-2.38S37.59,7.06,38.74,7.06Zm.09.64c-.91,0-1.27.88-1.27,1.79s.42,1.77,1.27,1.77,1.27-.69,1.27-1.59V9.29A1.43,1.43,0,0,0,38.83,7.7Z"/><path class="cls-1" d="M42,5.31h.81v6.55H42Z"/><path class="cls-1" d="M43.78,5.31h.91v1h-.91Zm.06,1.87h.8v4.68h-.8Z"/><path class="cls-1" d="M47.93,8.08A1.61,1.61,0,0,0,47,7.72c-.45,0-.69.24-.69.55s.31.6,1,.94,1.21.74,1.21,1.42A1.39,1.39,0,0,1,46.94,12a2.13,2.13,0,0,1-1.62-.7l.43-.56a1.83,1.83,0,0,0,1.17.58c.42,0,.78-.21.78-.67s-.4-.62-.82-.83c-.61-.29-1.34-.72-1.34-1.49A1.28,1.28,0,0,1,47,7a2.37,2.37,0,0,1,1.35.47Z"/><path class="cls-1" d="M50.06,7.82a1.6,1.6,0,0,1,1.29-.75,1.62,1.62,0,0,1,1.71,1.76v3h-.79V8.91c0-.78-.47-1.19-1-1.19a1.29,1.29,0,0,0-1.22,1.43v2.71h-.8V5.31h.8Z"/></g></g></svg>