<svg xmlns="http://www.w3.org/2000/svg" viewBox="0 0 403.02 52.13"><defs><style>.cls-1{fill:#595757;}</style></defs><title>자산 152</title><g id="레이어_2" data-name="레이어 2"><g id="레이어_1-2" data-name="레이어 1"><path class="cls-1" d="M.87,9.37H0V.49H.87Z"/><path class="cls-1" d="M2.69,1.22,3.56,1v2H5.09v.71H3.56V7.78c0,.86.65,1,1.42,1v.73c-1.37,0-2.29-.32-2.29-1.67V3.62H1.78V2.91h.91Z"/><path class="cls-1" d="M8.8.24h1V1.43h-1Zm.08,2.67h.87V9.37H8.88Z"/><path class="cls-1" d="M14.21,3.9a2.75,2.75,0,0,0-1.34-.46c-.78,0-1.18.39-1.18.91s.49.9,1.53,1.41,1.68,1,1.68,1.9a1.87,1.87,0,0,1-2.11,1.81,3,3,0,0,1-2.21-.88L11.05,8a2.55,2.55,0,0,0,1.71.74c.71,0,1.29-.31,1.29-1s-.58-.94-1.3-1.27c-.88-.4-1.87-.9-1.87-2a1.72,1.72,0,0,1,1.93-1.72,3.22,3.22,0,0,1,1.81.58Z"/><path class="cls-1" d="M19.59,3.92a2.44,2.44,0,0,1,2-1.2A2.27,2.27,0,0,1,24,5.13V9.37h-.87V5.24a1.65,1.65,0,0,0-1.63-1.83,2.06,2.06,0,0,0-1.95,2.17V9.37h-.87V.24h.87Z"/><path class="cls-1" d="M25.22.24h1V1.43h-1Zm.09,2.67h.87V9.37h-.87Z"/><path class="cls-1" d="M32.14,3.91v-1H33V8.83A2.86,2.86,0,0,1,30.08,12a4.62,4.62,0,0,1-2.22-.6l.32-.66a3.87,3.87,0,0,0,1.88.52c1.11,0,2.08-.75,2.08-2.49V8.32a2.41,2.41,0,0,1-2.08,1.06c-1.67,0-2.82-1.19-2.82-3.28s1.09-3.38,2.83-3.38A2.36,2.36,0,0,1,32.14,3.91Zm-4,2.17c0,1.28.61,2.62,2,2.62s2-1.13,2-2.62V6c0-1.7-.86-2.63-2-2.63C28.74,3.41,28.13,4.74,28.13,6.08Z"/><path class="cls-1" d="M35.27,3.92a2.42,2.42,0,0,1,2-1.2,2.27,2.27,0,0,1,2.42,2.41V9.37h-.87V5.24a1.64,1.64,0,0,0-1.62-1.83,2.06,2.06,0,0,0-1.95,2.17V9.37H34.4V.24h.87Z"/><path class="cls-1" d="M40.67,5.38V4.61H46v.77Z"/><path class="cls-1" d="M51.65,3.91v-1h.87v9.2h-.87V8.4a2.51,2.51,0,0,1-2.07,1.1c-1.73,0-2.83-1.26-2.83-3.35s1.09-3.43,2.85-3.43A2.34,2.34,0,0,1,51.65,3.91Zm-4,2.23c0,1.28.61,2.68,2,2.68s2-1.19,2-2.68V6c0-1.7-.86-2.63-2-2.63C48.25,3.41,47.64,4.8,47.64,6.14Z"/><path class="cls-1" d="M58.29,8.3a2.39,2.39,0,0,1-2,1.2,2.27,2.27,0,0,1-2.42-2.41V2.91h.87V7a1.65,1.65,0,0,0,1.62,1.84,2,2,0,0,0,1.95-2.18V2.91h.88V9.37h-.88Z"/><path class="cls-1" d="M60.8,3.29a3.78,3.78,0,0,1,2.07-.58A2.11,2.11,0,0,1,65,4a3.41,3.41,0,0,1,.18,1.12v3a5.78,5.78,0,0,0,.12,1.3h-.83a5.74,5.74,0,0,1-.17-.78,2.5,2.5,0,0,1-2.07.9A2.1,2.1,0,0,1,60,7.4c0-1.58,1.18-2.27,3.17-2.27.35,0,.72,0,1.12.06V5a1.42,1.42,0,0,0-1.52-1.58,3.14,3.14,0,0,0-1.66.5Zm3.52,2.58a9,9,0,0,0-1,0c-1.61,0-2.43.49-2.43,1.52a1.4,1.4,0,0,0,1.5,1.38,1.77,1.77,0,0,0,1.92-1.63Z"/><path class="cls-1" d="M66.44.24h.87V9.37h-.87Z"/><path class="cls-1" d="M68.62.24h1V1.43h-1Zm.08,2.67h.87V9.37H68.7Z"/><path class="cls-1" d="M71.26,1.22,72.13,1v2h1.53v.71H72.13V7.78c0,.86.65,1,1.42,1v.73c-1.37,0-2.29-.32-2.29-1.67V3.62h-.91V2.91h.91Z"/><path class="cls-1" d="M74,11.39a2.66,2.66,0,0,0,2.18-2.07L73.76,2.91h.93l1.89,5.35,1.84-5.35h.92l-2.1,5.93c-.7,1.95-1.15,2.88-3,3.29Z"/><path class="cls-1" d="M82.82.24h.87V9.37h-.87Z"/><path class="cls-1" d="M85.39,3.29a3.78,3.78,0,0,1,2.07-.58A2.11,2.11,0,0,1,89.58,4a3.41,3.41,0,0,1,.18,1.12v3a5.78,5.78,0,0,0,.12,1.3h-.83a5.74,5.74,0,0,1-.17-.78,2.5,2.5,0,0,1-2.07.9A2.1,2.1,0,0,1,84.62,7.4c0-1.58,1.18-2.27,3.17-2.27.35,0,.71,0,1.12.06V5A1.42,1.42,0,0,0,87.4,3.42a3.14,3.14,0,0,0-1.66.5Zm3.52,2.58a9,9,0,0,0-1,0c-1.62,0-2.43.49-2.43,1.52A1.4,1.4,0,0,0,87,8.72a1.77,1.77,0,0,0,1.92-1.63Z"/><path class="cls-1" d="M93,8.38,95,2.91h.92l-2.4,6.46h-.94l-2.4-6.46h.93Z"/><path class="cls-1" d="M101.21,8.86a3.39,3.39,0,0,1-2,.64A3.09,3.09,0,0,1,96,6.21c0-2,1-3.46,2.89-3.46a2.79,2.79,0,0,1,2.73,3,4,4,0,0,1,0,.49H96.92a2.31,2.31,0,0,0,2.31,2.54,2.84,2.84,0,0,0,1.64-.5Zm-.39-3.33a2,2,0,0,0-1.93-2.06A2.18,2.18,0,0,0,97,5.53Z"/><path class="cls-1" d="M103.49,4a2.19,2.19,0,0,1,2-1.31,1.32,1.32,0,0,1,.28,0v.79l-.28,0a2,2,0,0,0-2,2v3.9h-.87V2.91h.87Z"/><path class="cls-1" d="M113.75,8.3a2.4,2.4,0,0,1-2,1.2,2.27,2.27,0,0,1-2.42-2.41V2.91h.87V7a1.65,1.65,0,0,0,1.62,1.84,2,2,0,0,0,2-2.18V2.91h.87V9.37h-.87Z"/><path class="cls-1" d="M119,3.9a2.72,2.72,0,0,0-1.34-.46c-.78,0-1.18.39-1.18.91s.5.9,1.53,1.41,1.69,1,1.69,1.9a1.87,1.87,0,0,1-2.11,1.81,3,3,0,0,1-2.21-.88l.47-.59a2.54,2.54,0,0,0,1.7.74c.71,0,1.3-.31,1.3-1s-.59-.94-1.31-1.27c-.88-.4-1.87-.9-1.87-2a1.72,1.72,0,0,1,1.93-1.72,3.17,3.17,0,0,1,1.81.58Z"/><path class="cls-1" d="M120.51.24h1V1.43h-1Zm.09,2.67h.87V9.37h-.87Z"/><path class="cls-1" d="M123.72,3.92a2.42,2.42,0,0,1,2-1.2,2.27,2.27,0,0,1,2.42,2.41V9.37h-.87V5.24a1.64,1.64,0,0,0-1.62-1.83,2,2,0,0,0-2,2.17V9.37h-.87V2.91h.87Z"/><path class="cls-1" d="M134,3.91v-1h.87V8.83A2.87,2.87,0,0,1,132,12a4.63,4.63,0,0,1-2.23-.6l.32-.66a3.93,3.93,0,0,0,1.88.52c1.11,0,2.09-.75,2.09-2.49V8.32a2.43,2.43,0,0,1-2.09,1.06c-1.67,0-2.82-1.19-2.82-3.28s1.1-3.38,2.84-3.38A2.36,2.36,0,0,1,134,3.91Zm-4,2.17c0,1.28.62,2.62,2,2.62s2-1.13,2-2.62V6c0-1.7-.86-2.63-2-2.63C130.62,3.41,130,4.74,130,6.08Z"/><path class="cls-1" d="M140.08,4a2.21,2.21,0,0,1,2-1.31,1.42,1.42,0,0,1,.29,0v.79a2.85,2.85,0,0,0-.29,0,2,2,0,0,0-2,2v3.9h-.87V2.91h.87Z"/><path class="cls-1" d="M143,3.29a3.75,3.75,0,0,1,2.07-.58A2.09,2.09,0,0,1,147.16,4a3.16,3.16,0,0,1,.19,1.12v3a5.25,5.25,0,0,0,.12,1.3h-.84a6.93,6.93,0,0,1-.16-.78,2.52,2.52,0,0,1-2.07.9,2.1,2.1,0,0,1-2.19-2.09c0-1.58,1.18-2.27,3.17-2.27.35,0,.71,0,1.11.06V5A1.41,1.41,0,0,0,145,3.42a3.14,3.14,0,0,0-1.66.5Zm3.51,2.58a8.74,8.74,0,0,0-1,0c-1.61,0-2.42.49-2.42,1.52a1.4,1.4,0,0,0,1.5,1.38,1.77,1.77,0,0,0,1.91-1.63Z"/><path class="cls-1" d="M153.91,8.29l1.43-5.38h.83l-1.82,6.46h-.86L152,3.9,150.6,9.37h-.86l-1.83-6.46h.84l1.42,5.38,1.41-5.38h.92Z"/><path class="cls-1" d="M159.8.24h.87V9.37h-.87Z"/><path class="cls-1" d="M162.37,3.29a3.78,3.78,0,0,1,2.07-.58A2.11,2.11,0,0,1,166.56,4a3.41,3.41,0,0,1,.18,1.12v3a5.78,5.78,0,0,0,.12,1.3H166a5.74,5.74,0,0,1-.17-.78,2.52,2.52,0,0,1-2.07.9A2.1,2.1,0,0,1,161.6,7.4c0-1.58,1.18-2.27,3.17-2.27.35,0,.72,0,1.11.06l0-.19a1.42,1.42,0,0,0-1.52-1.58,3.14,3.14,0,0,0-1.66.5Zm3.51,2.58a8.69,8.69,0,0,0-1,0c-1.61,0-2.43.49-2.43,1.52A1.4,1.4,0,0,0,164,8.72a1.77,1.77,0,0,0,1.91-1.63Z"/><path class="cls-1" d="M170,8.38,172,2.91h.93l-2.4,6.46h-.94l-2.4-6.46h.93Z"/><path class="cls-1" d="M178.19,8.86a3.39,3.39,0,0,1-2,.64A3.09,3.09,0,0,1,173,6.21c0-2,1-3.46,2.89-3.46a2.79,2.79,0,0,1,2.73,3,4,4,0,0,1,0,.49H173.9a2.31,2.31,0,0,0,2.31,2.54,2.78,2.78,0,0,0,1.63-.5Zm-.39-3.33a2,2,0,0,0-1.93-2.06,2.18,2.18,0,0,0-1.93,2.06Z"/><path class="cls-1" d="M180.47,4a2.19,2.19,0,0,1,2-1.31,1.32,1.32,0,0,1,.28,0v.79l-.28,0a2,2,0,0,0-2,2v3.9h-.87V2.91h.87Z"/><path class="cls-1" d="M191.32,8.72a3.06,3.06,0,0,1-2.13.77A3.16,3.16,0,0,1,186,6.14a3.13,3.13,0,0,1,3.22-3.41,4.13,4.13,0,0,1,1.95.52l-.34.64a3.42,3.42,0,0,0-1.61-.44,2.4,2.4,0,0,0-2.32,2.7,2.42,2.42,0,0,0,2.34,2.62,2.73,2.73,0,0,0,1.66-.59Z"/><path class="cls-1" d="M192.38,3.29a3.78,3.78,0,0,1,2.07-.58A2.11,2.11,0,0,1,196.57,4a3.41,3.41,0,0,1,.18,1.12v3a5.78,5.78,0,0,0,.12,1.3H196a5.74,5.74,0,0,1-.17-.78,2.5,2.5,0,0,1-2.07.9,2.1,2.1,0,0,1-2.19-2.09c0-1.58,1.18-2.27,3.17-2.27.35,0,.72,0,1.12.06V5a1.41,1.41,0,0,0-1.52-1.58,3.14,3.14,0,0,0-1.66.5Zm3.52,2.58a9,9,0,0,0-1,0c-1.61,0-2.43.49-2.43,1.52A1.4,1.4,0,0,0,194,8.72a1.77,1.77,0,0,0,1.92-1.63Z"/><path class="cls-1" d="M198.89,4a2.21,2.21,0,0,1,2-1.31,1.37,1.37,0,0,1,.28,0v.79l-.28,0a2,2,0,0,0-2,2v3.9H198V2.91h.87Z"/><path class="cls-1" d="M206.38,8.86a3.39,3.39,0,0,1-2,.64,3.09,3.09,0,0,1-3.15-3.29c0-2,1-3.46,2.89-3.46a2.79,2.79,0,0,1,2.73,3,4,4,0,0,1,0,.49h-4.71a2.31,2.31,0,0,0,2.31,2.54,2.78,2.78,0,0,0,1.63-.5ZM206,5.53a2,2,0,0,0-1.93-2.06,2.18,2.18,0,0,0-1.93,2.06Z"/><path class="cls-1" d="M208.08,2.91V2.16a3.36,3.36,0,0,1,.12-1A1.61,1.61,0,0,1,209.81,0,3.2,3.2,0,0,1,211,.22L210.7.9a2.78,2.78,0,0,0-.78-.16.86.86,0,0,0-.87.57,2.27,2.27,0,0,0-.1.81v.79h1.36v.71H209V9.37h-.87V3.62h-.91V2.91Z"/><path class="cls-1" d="M215.72,8.3a2.4,2.4,0,0,1-2,1.2,2.27,2.27,0,0,1-2.42-2.41V2.91h.87V7a1.65,1.65,0,0,0,1.62,1.84,2,2,0,0,0,1.95-2.18V2.91h.87V9.37h-.87Z"/><path class="cls-1" d="M217.92.24h.87V9.37h-.87Z"/><path class="cls-1" d="M220.18.24h.87V9.37h-.87Z"/><path class="cls-1" d="M221.87,11.39a2.66,2.66,0,0,0,2.19-2.07l-2.38-6.41h.93l1.9,5.35,1.83-5.35h.93l-2.1,5.93c-.7,1.95-1.16,2.88-3,3.29Z"/><path class="cls-1" d="M233.82,3.9a2.72,2.72,0,0,0-1.34-.46c-.78,0-1.18.39-1.18.91s.5.9,1.53,1.41,1.68,1,1.68,1.9a1.86,1.86,0,0,1-2.1,1.81,3,3,0,0,1-2.21-.88l.47-.59a2.52,2.52,0,0,0,1.7.74c.71,0,1.3-.31,1.3-1s-.59-.94-1.31-1.27c-.88-.4-1.87-.9-1.87-2a1.72,1.72,0,0,1,1.93-1.72,3.2,3.2,0,0,1,1.81.58Z"/><path class="cls-1" d="M240.23,8.86a3.33,3.33,0,0,1-2,.64,3.09,3.09,0,0,1-3.16-3.29c0-2,1-3.46,2.9-3.46a2.79,2.79,0,0,1,2.73,3,2.69,2.69,0,0,1,0,.49H236a2.3,2.3,0,0,0,2.3,2.54,2.79,2.79,0,0,0,1.64-.5Zm-.39-3.33a2,2,0,0,0-1.93-2.06A2.2,2.2,0,0,0,236,5.53Z"/><path class="cls-1" d="M241.64.24h.87V9.37h-.87Z"/><path class="cls-1" d="M248.73,8.86a3.33,3.33,0,0,1-2,.64,3.08,3.08,0,0,1-3.15-3.29c0-2,1-3.46,2.89-3.46a2.79,2.79,0,0,1,2.73,3,4,4,0,0,1,0,.49h-4.71a2.31,2.31,0,0,0,2.31,2.54,2.78,2.78,0,0,0,1.63-.5Zm-.39-3.33a2,2,0,0,0-1.92-2.06,2.18,2.18,0,0,0-1.93,2.06Z"/><path class="cls-1" d="M255.12,8.72a3.07,3.07,0,0,1-2.13.77,3.16,3.16,0,0,1-3.19-3.35A3.13,3.13,0,0,1,253,2.73a4.14,4.14,0,0,1,2,.52l-.34.64A3.43,3.43,0,0,0,253,3.45a2.4,2.4,0,0,0-2.31,2.7A2.41,2.41,0,0,0,253,8.77a2.76,2.76,0,0,0,1.66-.59Z"/><path class="cls-1" d="M256.18,1.22l.87-.27v2h1.53v.71h-1.53V7.78c0,.86.64,1,1.41,1v.73c-1.37,0-2.28-.32-2.28-1.67V3.62h-.92V2.91h.92Z"/><path class="cls-1" d="M264.14,8.86a3.38,3.38,0,0,1-2,.64A3.09,3.09,0,0,1,259,6.21c0-2,1-3.46,2.9-3.46a2.79,2.79,0,0,1,2.73,3,2.69,2.69,0,0,1,0,.49h-4.7a2.3,2.3,0,0,0,2.3,2.54,2.79,2.79,0,0,0,1.64-.5Zm-.39-3.33a2,2,0,0,0-1.93-2.06,2.2,2.2,0,0,0-1.93,2.06Z"/><path class="cls-1" d="M270.13,3.91V.24H271V9.37h-.87v-1A2.54,2.54,0,0,1,268,9.5c-1.67,0-2.81-1.25-2.81-3.36s1.06-3.42,2.86-3.42A2.38,2.38,0,0,1,270.13,3.91Zm-4,2.23c0,1.28.61,2.68,2,2.68s2-1.19,2-2.68V6c0-1.7-.86-2.63-2-2.63C266.72,3.41,266.11,4.8,266.11,6.14Z"/><path class="cls-1" d="M278.24,2.72c1.8,0,2.86,1.33,2.86,3.42S280,9.5,278.29,9.5a2.53,2.53,0,0,1-2.1-1.1v1h-.87V.24h.87V3.91A2.38,2.38,0,0,1,278.24,2.72Zm0,.69c-1.16,0-2,.93-2,2.63v.1c0,1.49.66,2.68,2,2.68s2-1.4,2-2.68S279.59,3.41,278.21,3.41Z"/><path class="cls-1" d="M281.47,11.39a2.67,2.67,0,0,0,2.19-2.07l-2.38-6.41h.93l1.9,5.35,1.83-5.35h.93l-2.11,5.93c-.69,1.95-1.15,2.88-3,3.29Z"/><path class="cls-1" d="M293.42,3.9a2.72,2.72,0,0,0-1.34-.46c-.78,0-1.18.39-1.18.91s.5.9,1.53,1.41,1.68,1,1.68,1.9A1.86,1.86,0,0,1,292,9.47a3,3,0,0,1-2.21-.88l.47-.59a2.52,2.52,0,0,0,1.7.74c.71,0,1.3-.31,1.3-1s-.59-.94-1.31-1.27c-.88-.4-1.87-.9-1.87-2A1.72,1.72,0,0,1,292,2.71a3.2,3.2,0,0,1,1.81.58Z"/><path class="cls-1" d="M299.83,8.86a3.38,3.38,0,0,1-2,.64,3.09,3.09,0,0,1-3.16-3.29c0-2,1-3.46,2.9-3.46a2.79,2.79,0,0,1,2.73,3,2.69,2.69,0,0,1,0,.49h-4.7a2.3,2.3,0,0,0,2.3,2.54,2.79,2.79,0,0,0,1.64-.5Zm-.39-3.33a2,2,0,0,0-1.93-2.06,2.2,2.2,0,0,0-1.93,2.06Z"/><path class="cls-1" d="M301.54,3.29a3.81,3.81,0,0,1,2.08-.58A2.09,2.09,0,0,1,305.73,4a3.16,3.16,0,0,1,.19,1.12v3a5.25,5.25,0,0,0,.12,1.3h-.84a6.93,6.93,0,0,1-.16-.78,2.52,2.52,0,0,1-2.07.9,2.1,2.1,0,0,1-2.19-2.09c0-1.58,1.18-2.27,3.17-2.27.35,0,.71,0,1.11.06V5a1.41,1.41,0,0,0-1.51-1.58,3.14,3.14,0,0,0-1.66.5Zm3.52,2.58a8.74,8.74,0,0,0-1,0c-1.61,0-2.42.49-2.42,1.52a1.4,1.4,0,0,0,1.5,1.38,1.77,1.77,0,0,0,1.91-1.63Z"/><path class="cls-1" d="M312.48,8.29l1.43-5.38h.83l-1.82,6.46h-.86L310.61,3.9l-1.44,5.47h-.86l-1.83-6.46h.84l1.42,5.38,1.41-5.38h.92Z"/><path class="cls-1" d="M320.27,8.86a3.38,3.38,0,0,1-2,.64,3.09,3.09,0,0,1-3.16-3.29c0-2,1-3.46,2.9-3.46a2.79,2.79,0,0,1,2.73,3,2.69,2.69,0,0,1,0,.49H316a2.3,2.3,0,0,0,2.3,2.54,2.81,2.81,0,0,0,1.64-.5Zm-.39-3.33A2,2,0,0,0,318,3.47,2.2,2.2,0,0,0,316,5.53Z"/><path class="cls-1" d="M326.51,8.86a3.33,3.33,0,0,1-2,.64,3.08,3.08,0,0,1-3.15-3.29c0-2,1-3.46,2.89-3.46a2.79,2.79,0,0,1,2.73,3,4,4,0,0,1,0,.49h-4.71a2.31,2.31,0,0,0,2.31,2.54,2.78,2.78,0,0,0,1.63-.5Zm-.38-3.33a2,2,0,0,0-1.93-2.06,2.18,2.18,0,0,0-1.93,2.06Z"/><path class="cls-1" d="M332.5,3.91V.24h.87V9.37h-.87v-1a2.53,2.53,0,0,1-2.1,1.1c-1.67,0-2.81-1.25-2.81-3.36s1.06-3.42,2.86-3.42A2.37,2.37,0,0,1,332.5,3.91Zm-4,2.23c0,1.28.61,2.68,2,2.68s2-1.19,2-2.68V6c0-1.7-.86-2.63-2-2.63C329.1,3.41,328.49,4.8,328.49,6.14Z"/><path class="cls-1" d="M342.53,8.86a3.38,3.38,0,0,1-2,.64,3.09,3.09,0,0,1-3.16-3.29c0-2,1-3.46,2.9-3.46a2.79,2.79,0,0,1,2.73,3,2.69,2.69,0,0,1,0,.49h-4.7a2.3,2.3,0,0,0,2.3,2.54,2.79,2.79,0,0,0,1.64-.5Zm-.39-3.33a2,2,0,0,0-1.93-2.06,2.2,2.2,0,0,0-1.93,2.06Z"/><path class="cls-1" d="M345.93,5.43l1.72-2.52h1L346.39,6.1l2.26,3.27h-1l-1.73-2.55-1.75,2.55h-1l2.25-3.24-2.2-3.22h1Z"/><path class="cls-1" d="M352.16,2.72C353.93,2.72,355,4,355,6.15s-1.11,3.35-2.84,3.35a2.51,2.51,0,0,1-2.07-1.1v3.71h-.87V2.91h.87v1A2.35,2.35,0,0,1,352.16,2.72Zm0,.69c-1.17,0-2,.93-2,2.63v.1c0,1.49.66,2.68,2,2.68s2-1.4,2-2.68S353.51,3.41,352.14,3.41Z"/><path class="cls-1" d="M360.91,8.86a3.36,3.36,0,0,1-2,.64,3.09,3.09,0,0,1-3.16-3.29c0-2,1-3.46,2.9-3.46a2.79,2.79,0,0,1,2.73,3,2.69,2.69,0,0,1,0,.49h-4.7a2.3,2.3,0,0,0,2.3,2.54,2.79,2.79,0,0,0,1.64-.5Zm-.39-3.33a2,2,0,0,0-1.93-2.06,2.2,2.2,0,0,0-1.93,2.06Z"/><path class="cls-1" d="M363.19,4a2.21,2.21,0,0,1,2-1.31,1.27,1.27,0,0,1,.28,0v.79a2.4,2.4,0,0,0-.28,0,2,2,0,0,0-2,2v3.9h-.87V2.91h.87Z"/><path class="cls-1" d="M366.67,1.22l.87-.27v2h1.53v.71h-1.53V7.78c0,.86.65,1,1.41,1v.73c-1.36,0-2.28-.32-2.28-1.67V3.62h-.92V2.91h.92Z"/><path class="cls-1" d="M373,3.9a2.75,2.75,0,0,0-1.34-.46c-.78,0-1.18.39-1.18.91s.49.9,1.53,1.41,1.68,1,1.68,1.9a1.86,1.86,0,0,1-2.1,1.81,3,3,0,0,1-2.22-.88l.47-.59a2.55,2.55,0,0,0,1.71.74c.71,0,1.29-.31,1.29-1s-.58-.94-1.3-1.27c-.88-.4-1.87-.9-1.87-2a1.72,1.72,0,0,1,1.93-1.72,3.22,3.22,0,0,1,1.81.58Z"/><path class="cls-1" d="M381.89,8.3a2.4,2.4,0,0,1-2,1.2,2.28,2.28,0,0,1-2.43-2.41V2.91h.87V7a1.66,1.66,0,0,0,1.63,1.84,2.05,2.05,0,0,0,1.95-2.18V2.91h.87V9.37h-.87Z"/><path class="cls-1" d="M387.16,3.9a2.72,2.72,0,0,0-1.34-.46c-.78,0-1.18.39-1.18.91s.49.9,1.53,1.41,1.68,1,1.68,1.9a1.86,1.86,0,0,1-2.1,1.81,3,3,0,0,1-2.22-.88L384,8a2.57,2.57,0,0,0,1.71.74c.71,0,1.29-.31,1.29-1s-.58-.94-1.3-1.27c-.88-.4-1.87-.9-1.87-2a1.72,1.72,0,0,1,1.93-1.72,3.2,3.2,0,0,1,1.81.58Z"/><path class="cls-1" d="M388.65.24h1V1.43h-1Zm.08,2.67h.87V9.37h-.87Z"/><path class="cls-1" d="M391.86,3.92a2.4,2.4,0,0,1,2-1.2,2.28,2.28,0,0,1,2.43,2.41V9.37h-.87V5.24a1.65,1.65,0,0,0-1.63-1.83,2,2,0,0,0-1.95,2.17V9.37H391V2.91h.87Z"/><path class="cls-1" d="M402.15,3.91v-1H403V8.83a2.86,2.86,0,0,1-2.93,3.2,4.62,4.62,0,0,1-2.22-.6l.32-.66a3.9,3.9,0,0,0,1.88.52c1.11,0,2.08-.75,2.08-2.49V8.32a2.41,2.41,0,0,1-2.08,1.06c-1.67,0-2.82-1.19-2.82-3.28s1.09-3.38,2.83-3.38A2.36,2.36,0,0,1,402.15,3.91Zm-4,2.17c0,1.28.61,2.62,2,2.62s2-1.13,2-2.62V6c0-1.7-.86-2.63-2-2.63C398.75,3.41,398.14,4.74,398.14,6.08Z"/><path class="cls-1" d="M15.31,21.22l.87-.27v2h1.53v.71H16.18v4.16c0,.86.65,1,1.41,1v.73c-1.36,0-2.28-.32-2.28-1.67V23.62h-.92v-.71h.92Z"/><path class="cls-1" d="M19.43,23.92a2.42,2.42,0,0,1,2-1.2,2.28,2.28,0,0,1,2.43,2.41v4.24H23V25.24a1.64,1.64,0,0,0-1.62-1.83,2.06,2.06,0,0,0-1.95,2.17v3.79h-.87V20.24h.87Z"/><path class="cls-1" d="M30,28.86a3.39,3.39,0,0,1-2,.64,3.09,3.09,0,0,1-3.15-3.29c0-2,1-3.46,2.9-3.46a2.78,2.78,0,0,1,2.72,3,4,4,0,0,1,0,.49H25.7A2.3,2.3,0,0,0,28,28.79a2.81,2.81,0,0,0,1.64-.5Zm-.39-3.33a2,2,0,0,0-1.93-2.06,2.2,2.2,0,0,0-1.93,2.06Z"/><path class="cls-1" d="M34.33,20.24h.87v9.13h-.87Z"/><path class="cls-1" d="M36.89,23.29A3.78,3.78,0,0,1,39,22.71,2.11,2.11,0,0,1,41.08,24a3.16,3.16,0,0,1,.19,1.12v3a5.76,5.76,0,0,0,.11,1.3h-.83c-.09-.3-.17-.78-.17-.78a2.49,2.49,0,0,1-2.07.9,2.09,2.09,0,0,1-2.18-2.09c0-1.58,1.17-2.27,3.16-2.27.35,0,.72,0,1.12.06V25a1.41,1.41,0,0,0-1.52-1.58,3.2,3.2,0,0,0-1.66.5Zm3.52,2.58a8.86,8.86,0,0,0-1-.05c-1.61,0-2.42.49-2.42,1.52a1.39,1.39,0,0,0,1.49,1.38,1.77,1.77,0,0,0,1.92-1.63Z"/><path class="cls-1" d="M42.84,21.22l.87-.27v2h1.53v.71H43.71v4.16c0,.86.65,1,1.41,1v.73c-1.36,0-2.28-.32-2.28-1.67V23.62h-.92v-.71h.92Z"/><path class="cls-1" d="M50.8,28.86a3.33,3.33,0,0,1-2,.64,3.08,3.08,0,0,1-3.15-3.29c0-2,1-3.46,2.89-3.46a2.79,2.79,0,0,1,2.73,3,4,4,0,0,1,0,.49H46.52a2.31,2.31,0,0,0,2.31,2.54,2.78,2.78,0,0,0,1.63-.5Zm-.38-3.33a2,2,0,0,0-1.93-2.06,2.18,2.18,0,0,0-1.93,2.06Z"/><path class="cls-1" d="M55.28,23.9a2.68,2.68,0,0,0-1.34-.46c-.77,0-1.17.39-1.17.91s.49.9,1.53,1.41,1.68,1,1.68,1.9a1.87,1.87,0,0,1-2.11,1.81,3,3,0,0,1-2.21-.88l.47-.59a2.55,2.55,0,0,0,1.71.74c.7,0,1.29-.31,1.29-1s-.59-.94-1.3-1.27c-.89-.4-1.87-.9-1.87-2a1.72,1.72,0,0,1,1.92-1.72,3.23,3.23,0,0,1,1.82.58Z"/><path class="cls-1" d="M57.17,21.22,58,21v2h1.52v.71H58v4.16c0,.86.64,1,1.41,1v.73c-1.37,0-2.28-.32-2.28-1.67V23.62h-.92v-.71h.92Z"/><path class="cls-1" d="M68.33,28.72a3.07,3.07,0,0,1-2.13.77A3.15,3.15,0,0,1,63,26.14a3.13,3.13,0,0,1,3.21-3.41,4.1,4.1,0,0,1,2,.52l-.34.64a3.36,3.36,0,0,0-1.61-.44,2.41,2.41,0,0,0-2.32,2.7,2.42,2.42,0,0,0,2.34,2.62,2.73,2.73,0,0,0,1.66-.59Z"/><path class="cls-1" d="M69.08,20.24H70v9.13h-.87Z"/><path class="cls-1" d="M76.17,28.86a3.33,3.33,0,0,1-2,.64A3.09,3.09,0,0,1,71,26.21c0-2,1-3.46,2.9-3.46a2.79,2.79,0,0,1,2.73,3,2.69,2.69,0,0,1,0,.49h-4.7a2.3,2.3,0,0,0,2.3,2.54,2.79,2.79,0,0,0,1.64-.5Zm-.39-3.33a2,2,0,0,0-1.93-2.06,2.2,2.2,0,0,0-1.93,2.06Z"/><path class="cls-1" d="M77.89,23.29A3.75,3.75,0,0,1,80,22.71,2.09,2.09,0,0,1,82.07,24a3.16,3.16,0,0,1,.19,1.12v3a5.25,5.25,0,0,0,.12,1.3h-.84a6.93,6.93,0,0,1-.16-.78,2.52,2.52,0,0,1-2.07.9,2.1,2.1,0,0,1-2.19-2.09c0-1.58,1.18-2.27,3.17-2.27.35,0,.71,0,1.11.06l0-.19a1.42,1.42,0,0,0-1.52-1.58,3.14,3.14,0,0,0-1.66.5Zm3.51,2.58a8.69,8.69,0,0,0-1-.05c-1.62,0-2.43.49-2.43,1.52a1.4,1.4,0,0,0,1.5,1.38,1.77,1.77,0,0,0,1.91-1.63Z"/><path class="cls-1" d="M84.4,23.92a2.4,2.4,0,0,1,2-1.2,2.28,2.28,0,0,1,2.43,2.41v4.24H88V25.24a1.65,1.65,0,0,0-1.63-1.83,2,2,0,0,0-1.95,2.17v3.79h-.87V22.91h.87Z"/><path class="cls-1" d="M97.89,28.86a3.33,3.33,0,0,1-2,.64,3.09,3.09,0,0,1-3.16-3.29c0-2,1-3.46,2.9-3.46a2.79,2.79,0,0,1,2.73,3,2.69,2.69,0,0,1,0,.49h-4.7a2.3,2.3,0,0,0,2.3,2.54,2.79,2.79,0,0,0,1.64-.5Zm-.39-3.33a2,2,0,0,0-1.93-2.06,2.2,2.2,0,0,0-1.93,2.06Z"/><path class="cls-1" d="M103.88,23.91v-1h.87v9.2h-.87V28.4a2.51,2.51,0,0,1-2.07,1.1c-1.73,0-2.84-1.26-2.84-3.35s1.1-3.43,2.86-3.43A2.35,2.35,0,0,1,103.88,23.91Zm-4,2.23c0,1.28.61,2.68,2,2.68s2-1.19,2-2.68V26c0-1.7-.86-2.63-2-2.63C100.48,23.41,99.87,24.8,99.87,26.14Z"/><path class="cls-1" d="M110.52,28.3a2.4,2.4,0,0,1-2,1.2,2.28,2.28,0,0,1-2.43-2.41V22.91h.87V27a1.66,1.66,0,0,0,1.63,1.84,2.05,2.05,0,0,0,2-2.18V22.91h.87v6.46h-.87Z"/><path class="cls-1" d="M112.64,20.24h1v1.19h-1Zm.08,2.67h.87v6.46h-.87Z"/><path class="cls-1" d="M117.89,22.72c1.77,0,2.86,1.31,2.86,3.43s-1.1,3.35-2.83,3.35a2.49,2.49,0,0,1-2.07-1.1v3.71H115v-9.2h.87v1A2.33,2.33,0,0,1,117.89,22.72Zm0,.69c-1.16,0-2,.93-2,2.63v.1c0,1.49.66,2.68,2,2.68s2-1.4,2-2.68S119.25,23.41,117.87,23.41Z"/><path class="cls-1" d="M122.67,23.68a2,2,0,0,1,3.62.3,2.27,2.27,0,0,1,2-1.26A2.09,2.09,0,0,1,130.47,25v4.42h-.86V24.89a1.38,1.38,0,0,0-1.48-1.47,1.57,1.57,0,0,0-1.56,1.77v4.18h-.86V25a1.44,1.44,0,0,0-1.46-1.58,1.61,1.61,0,0,0-1.58,1.75v4.2h-.86V22.91h.86Z"/><path class="cls-1" d="M136.53,28.86a3.33,3.33,0,0,1-2,.64,3.08,3.08,0,0,1-3.15-3.29c0-2,1-3.46,2.89-3.46a2.79,2.79,0,0,1,2.73,3,4,4,0,0,1,0,.49h-4.71a2.31,2.31,0,0,0,2.31,2.54,2.78,2.78,0,0,0,1.63-.5Zm-.38-3.33a2,2,0,0,0-1.93-2.06,2.18,2.18,0,0,0-1.93,2.06Z"/><path class="cls-1" d="M138.81,23.92a2.41,2.41,0,0,1,2-1.2,2.27,2.27,0,0,1,2.42,2.41v4.24h-.87V25.24a1.64,1.64,0,0,0-1.62-1.83,2,2,0,0,0-2,2.17v3.79h-.87V22.91h.87Z"/><path class="cls-1" d="M144.83,21.22l.88-.27v2h1.52v.71h-1.52v4.16c0,.86.64,1,1.41,1v.73c-1.37,0-2.29-.32-2.29-1.67V23.62h-.91v-.71h.91Z"/><path class="cls-1" d="M148.08,28.74h1.26v1a2.33,2.33,0,0,1-.07.66,2.55,2.55,0,0,1-1,1.43l-.26-.25a2.13,2.13,0,0,0,.78-1.64h-.67Z"/><path class="cls-1" d="M153.9,23.29a3.78,3.78,0,0,1,2.07-.58A2.11,2.11,0,0,1,158.09,24a3.16,3.16,0,0,1,.19,1.12v3a5.25,5.25,0,0,0,.12,1.3h-.84a6.93,6.93,0,0,1-.16-.78,2.52,2.52,0,0,1-2.08.9,2.09,2.09,0,0,1-2.18-2.09c0-1.58,1.17-2.27,3.16-2.27.35,0,.72,0,1.12.06V25a1.41,1.41,0,0,0-1.52-1.58,3.2,3.2,0,0,0-1.66.5Zm3.52,2.58a8.86,8.86,0,0,0-1-.05c-1.61,0-2.42.49-2.42,1.52a1.39,1.39,0,0,0,1.49,1.38,1.77,1.77,0,0,0,1.92-1.63Z"/><path class="cls-1" d="M160.42,23.92a2.39,2.39,0,0,1,2-1.2,2.27,2.27,0,0,1,2.42,2.41v4.24H164V25.24a1.64,1.64,0,0,0-1.62-1.83,2,2,0,0,0-2,2.17v3.79h-.88V22.91h.88Z"/><path class="cls-1" d="M170.71,23.91V20.24h.87v9.13h-.87v-1a2.54,2.54,0,0,1-2.1,1.1c-1.67,0-2.81-1.25-2.81-3.36s1.06-3.42,2.86-3.42A2.38,2.38,0,0,1,170.71,23.91Zm-4,2.23c0,1.28.61,2.68,2,2.68s2-1.19,2-2.68V26c0-1.7-.86-2.63-2-2.63C167.31,23.41,166.7,24.8,166.7,26.14Z"/><path class="cls-1" d="M176.21,21.22l.87-.27v2h1.53v.71h-1.53v4.16c0,.86.65,1,1.41,1v.73c-1.36,0-2.28-.32-2.28-1.67V23.62h-.92v-.71h.92Z"/><path class="cls-1" d="M180.33,23.92a2.42,2.42,0,0,1,2-1.2,2.27,2.27,0,0,1,2.42,2.41v4.24h-.87V25.24a1.64,1.64,0,0,0-1.62-1.83,2.06,2.06,0,0,0-1.95,2.17v3.79h-.88V20.24h.88Z"/><path class="cls-1" d="M190.88,28.86a3.39,3.39,0,0,1-2,.64,3.09,3.09,0,0,1-3.15-3.29c0-2,1-3.46,2.89-3.46a2.79,2.79,0,0,1,2.73,3,4,4,0,0,1,0,.49h-4.71a2.31,2.31,0,0,0,2.31,2.54,2.78,2.78,0,0,0,1.63-.5Zm-.39-3.33a2,2,0,0,0-1.93-2.06,2.18,2.18,0,0,0-1.93,2.06Z"/><path class="cls-1" d="M196.09,23.92a2.45,2.45,0,0,1,2-1.2,2.27,2.27,0,0,1,2.42,2.41v4.24h-.87V25.24a1.64,1.64,0,0,0-1.62-1.83,2.06,2.06,0,0,0-2,2.17v3.79h-.87V20.24h.87Z"/><path class="cls-1" d="M201.73,20.24h1v1.19h-1Zm.08,2.67h.87v6.46h-.87Z"/><path class="cls-1" d="M208.64,23.91v-1h.87v5.92a2.86,2.86,0,0,1-2.93,3.2,4.62,4.62,0,0,1-2.22-.6l.32-.66a3.93,3.93,0,0,0,1.88.52c1.11,0,2.08-.75,2.08-2.49v-.48a2.4,2.4,0,0,1-2.08,1.06c-1.67,0-2.82-1.19-2.82-3.28s1.09-3.38,2.83-3.38A2.35,2.35,0,0,1,208.64,23.91Zm-4,2.17c0,1.28.61,2.62,2,2.62s2-1.13,2-2.62v0c0-1.7-.85-2.63-2-2.63C205.24,23.41,204.63,24.74,204.63,26.08Z"/><path class="cls-1" d="M211.77,23.92a2.42,2.42,0,0,1,2-1.2,2.28,2.28,0,0,1,2.43,2.41v4.24h-.87V25.24a1.65,1.65,0,0,0-1.63-1.83,2.06,2.06,0,0,0-1.95,2.17v3.79h-.87V20.24h.87Z"/><path class="cls-1" d="M222.32,28.86a3.33,3.33,0,0,1-2,.64,3.09,3.09,0,0,1-3.16-3.29c0-2,1-3.46,2.9-3.46a2.79,2.79,0,0,1,2.73,3,2.69,2.69,0,0,1,0,.49H218a2.3,2.3,0,0,0,2.3,2.54,2.79,2.79,0,0,0,1.64-.5Zm-.39-3.33A2,2,0,0,0,220,23.47a2.2,2.2,0,0,0-1.93,2.06Z"/><path class="cls-1" d="M226.8,23.9a2.72,2.72,0,0,0-1.34-.46c-.78,0-1.18.39-1.18.91s.5.9,1.53,1.41,1.69,1,1.69,1.9a1.87,1.87,0,0,1-2.11,1.81,3,3,0,0,1-2.21-.88l.47-.59a2.54,2.54,0,0,0,1.7.74c.71,0,1.3-.31,1.3-1s-.59-.94-1.31-1.27c-.88-.4-1.87-.9-1.87-2a1.72,1.72,0,0,1,1.93-1.72,3.17,3.17,0,0,1,1.81.58Z"/><path class="cls-1" d="M228.68,21.22l.87-.27v2h1.53v.71h-1.53v4.16c0,.86.65,1,1.41,1v.73c-1.36,0-2.28-.32-2.28-1.67V23.62h-.92v-.71h.92Z"/><path class="cls-1" d="M239.44,23.91v-1h.87v9.2h-.87V28.4a2.49,2.49,0,0,1-2.07,1.1c-1.73,0-2.83-1.26-2.83-3.35s1.09-3.43,2.86-3.43A2.33,2.33,0,0,1,239.44,23.91Zm-4,2.23c0,1.28.61,2.68,2,2.68s2-1.19,2-2.68V26c0-1.7-.86-2.63-2-2.63C236,23.41,235.43,24.8,235.43,26.14Z"/><path class="cls-1" d="M246.09,28.3a2.41,2.41,0,0,1-2,1.2,2.27,2.27,0,0,1-2.42-2.41V22.91h.87V27a1.66,1.66,0,0,0,1.62,1.84,2.05,2.05,0,0,0,2-2.18V22.91H247v6.46h-.87Z"/><path class="cls-1" d="M248.59,23.29a3.78,3.78,0,0,1,2.07-.58A2.11,2.11,0,0,1,252.78,24,3.16,3.16,0,0,1,253,25.1v3a5.76,5.76,0,0,0,.11,1.3h-.83c-.09-.3-.17-.78-.17-.78a2.5,2.5,0,0,1-2.07.9,2.09,2.09,0,0,1-2.18-2.09c0-1.58,1.17-2.27,3.16-2.27.35,0,.72,0,1.12.06V25a1.41,1.41,0,0,0-1.52-1.58,3.2,3.2,0,0,0-1.66.5Zm3.52,2.58a8.86,8.86,0,0,0-1-.05c-1.61,0-2.42.49-2.42,1.52a1.39,1.39,0,0,0,1.49,1.38,1.77,1.77,0,0,0,1.92-1.63Z"/><path class="cls-1" d="M254.24,20.24h.87v9.13h-.87Z"/><path class="cls-1" d="M256.41,20.24h1v1.19h-1Zm.08,2.67h.87v6.46h-.87Z"/><path class="cls-1" d="M259.06,21.22l.87-.27v2h1.53v.71h-1.53v4.16c0,.86.64,1,1.41,1v.73c-1.37,0-2.28-.32-2.28-1.67V23.62h-.92v-.71h.92Z"/><path class="cls-1" d="M261.74,31.39a2.69,2.69,0,0,0,2.19-2.07l-2.38-6.41h.93l1.89,5.35,1.84-5.35h.93L265,28.84c-.69,1.95-1.15,2.88-3,3.29Z"/><path class="cls-1" d="M273.26,22.73a3.08,3.08,0,0,1,3,3.39c0,2.08-1.29,3.39-3,3.39s-3-1.31-3-3.39S271.58,22.73,273.26,22.73Zm0,6.09c1.16,0,2.11-1,2.11-2.7s-.95-2.69-2.11-2.69-2.09,1-2.09,2.69S272.12,28.82,273.26,28.82Z"/><path class="cls-1" d="M277.31,20.24h.87v9.13h-.87Z"/><path class="cls-1" d="M279.48,20.24h1v1.19h-1Zm.09,2.67h.87v6.46h-.87Z"/><path class="cls-1" d="M283.83,28.38l1.95-5.47h.93l-2.4,6.46h-.94L281,22.91h.93Z"/><path class="cls-1" d="M292,28.86a3.39,3.39,0,0,1-2,.64,3.09,3.09,0,0,1-3.15-3.29c0-2,1-3.46,2.9-3.46a2.79,2.79,0,0,1,2.73,3,2.69,2.69,0,0,1,0,.49h-4.7a2.3,2.3,0,0,0,2.3,2.54,2.84,2.84,0,0,0,1.64-.5Zm-.39-3.33a2,2,0,0,0-1.93-2.06,2.18,2.18,0,0,0-1.93,2.06Z"/><path class="cls-1" d="M299,22.73a3.07,3.07,0,0,1,3,3.39c0,2.08-1.29,3.39-3,3.39s-3-1.31-3-3.39S297.31,22.73,299,22.73Zm0,6.09c1.16,0,2.11-1,2.11-2.7s-1-2.69-2.11-2.69-2.09,1-2.09,2.69S297.85,28.82,299,28.82Z"/><path class="cls-1" d="M303,20.24h1v1.19h-1Zm.08,2.67h.87v6.46H303Z"/><path class="cls-1" d="M305.3,20.24h.87v9.13h-.87Z"/><path class="cls-1" d="M307.55,28.74h1.26v1a2.33,2.33,0,0,1-.07.66,2.49,2.49,0,0,1-1,1.43l-.26-.25a2.16,2.16,0,0,0,.77-1.64h-.67Z"/><path class="cls-1" d="M318.36,28.29l1.43-5.38h.83l-1.82,6.46h-.86l-1.45-5.47-1.44,5.47h-.86l-1.83-6.46h.84l1.42,5.38L316,22.91H317Z"/><path class="cls-1" d="M322.18,23.92a2.45,2.45,0,0,1,2-1.2,2.27,2.27,0,0,1,2.42,2.41v4.24h-.87V25.24a1.64,1.64,0,0,0-1.62-1.83,2.06,2.06,0,0,0-2,2.17v3.79h-.87V20.24h.87Z"/><path class="cls-1" d="M327.82,20.24h1v1.19h-1Zm.08,2.67h.87v6.46h-.87Z"/><path class="cls-1" d="M335.13,28.72a3,3,0,0,1-2.13.77,3.15,3.15,0,0,1-3.18-3.35A3.12,3.12,0,0,1,333,22.73a4.13,4.13,0,0,1,2,.52l-.34.64a3.42,3.42,0,0,0-1.61-.44,2.4,2.4,0,0,0-2.32,2.7,2.42,2.42,0,0,0,2.34,2.62,2.73,2.73,0,0,0,1.66-.59Z"/><path class="cls-1" d="M336.75,23.92a2.45,2.45,0,0,1,2-1.2,2.27,2.27,0,0,1,2.42,2.41v4.24h-.87V25.24a1.64,1.64,0,0,0-1.62-1.83,2.06,2.06,0,0,0-2,2.17v3.79h-.87V20.24h.87Z"/><path class="cls-1" d="M345.33,20.24h1v1.19h-1Zm.08,2.67h.87v6.46h-.87Z"/><path class="cls-1" d="M350.74,23.9a2.75,2.75,0,0,0-1.34-.46c-.78,0-1.18.39-1.18.91s.49.9,1.53,1.41,1.68,1,1.68,1.9a1.86,1.86,0,0,1-2.1,1.81,3,3,0,0,1-2.22-.88l.47-.59a2.55,2.55,0,0,0,1.71.74c.71,0,1.29-.31,1.29-1s-.58-.94-1.3-1.27c-.88-.4-1.87-.9-1.87-2a1.72,1.72,0,0,1,1.93-1.72,3.22,3.22,0,0,1,1.81.58Z"/><path class="cls-1" d="M356.12,23.92a2.44,2.44,0,0,1,2-1.2,2.27,2.27,0,0,1,2.42,2.41v4.24h-.87V25.24a1.65,1.65,0,0,0-1.62-1.83,2.06,2.06,0,0,0-2,2.17v3.79h-.87V20.24h.87Z"/><path class="cls-1" d="M361.75,20.24h1v1.19h-1Zm.09,2.67h.87v6.46h-.87Z"/><path class="cls-1" d="M368.67,23.91v-1h.87v5.92a2.86,2.86,0,0,1-2.93,3.2,4.62,4.62,0,0,1-2.22-.6l.32-.66a3.87,3.87,0,0,0,1.88.52c1.11,0,2.08-.75,2.08-2.49v-.48a2.41,2.41,0,0,1-2.08,1.06c-1.67,0-2.82-1.19-2.82-3.28s1.09-3.38,2.83-3.38A2.36,2.36,0,0,1,368.67,23.91Zm-4,2.17c0,1.28.61,2.62,2,2.62s2-1.13,2-2.62v0c0-1.7-.86-2.63-2-2.63C365.27,23.41,364.66,24.74,364.66,26.08Z"/><path class="cls-1" d="M371.8,23.92a2.42,2.42,0,0,1,2-1.2,2.28,2.28,0,0,1,2.43,2.41v4.24h-.88V25.24a1.64,1.64,0,0,0-1.62-1.83,2.06,2.06,0,0,0-1.95,2.17v3.79h-.87V20.24h.87Z"/><path class="cls-1" d="M380.37,20.24h1v1.19h-1Zm.08,2.67h.87v6.46h-.87Z"/><path class="cls-1" d="M383.58,23.92a2.4,2.4,0,0,1,2-1.2A2.28,2.28,0,0,1,388,25.13v4.24h-.87V25.24a1.65,1.65,0,0,0-1.63-1.83,2,2,0,0,0-1.95,2.17v3.79h-.87V22.91h.87Z"/><path class="cls-1" d="M51.35,48.3a2.4,2.4,0,0,1-2,1.2,2.28,2.28,0,0,1-2.43-2.41V42.91h.87V47a1.66,1.66,0,0,0,1.63,1.84,2.05,2.05,0,0,0,2-2.18V42.91h.87v6.46h-.87Z"/><path class="cls-1" d="M54.42,43.92a2.4,2.4,0,0,1,2-1.2,2.28,2.28,0,0,1,2.43,2.41v4.24H58V45.24a1.65,1.65,0,0,0-1.63-1.83,2,2,0,0,0-1.95,2.17v3.79h-.87V42.91h.87Z"/><path class="cls-1" d="M63.2,43.9a2.68,2.68,0,0,0-1.34-.46c-.77,0-1.17.39-1.17.91s.49.9,1.53,1.41,1.68,1,1.68,1.9a1.87,1.87,0,0,1-2.11,1.81,3,3,0,0,1-2.21-.88l.47-.59a2.55,2.55,0,0,0,1.71.74c.7,0,1.29-.31,1.29-1.05s-.59-.94-1.3-1.27c-.89-.4-1.87-.9-1.87-2a1.72,1.72,0,0,1,1.92-1.72,3.23,3.23,0,0,1,1.82.58Z"/><path class="cls-1" d="M65.08,43.29a3.79,3.79,0,0,1,2.08-.58A2.09,2.09,0,0,1,69.27,44a3.16,3.16,0,0,1,.19,1.12v3a5.25,5.25,0,0,0,.12,1.3h-.84a6.93,6.93,0,0,1-.16-.78,2.52,2.52,0,0,1-2.07.9,2.1,2.1,0,0,1-2.19-2.09c0-1.58,1.18-2.27,3.16-2.27.36,0,.72,0,1.12.06V45a1.41,1.41,0,0,0-1.51-1.58,3.14,3.14,0,0,0-1.66.5Zm3.52,2.58a8.74,8.74,0,0,0-1,0c-1.61,0-2.42.49-2.42,1.52a1.39,1.39,0,0,0,1.49,1.38,1.77,1.77,0,0,0,1.92-1.63Z"/><path class="cls-1" d="M71,41.22l.87-.27v2h1.53v.71H71.91v4.16c0,.86.64,1,1.41,1v.73C72,49.5,71,49.19,71,47.84V43.62h-.92v-.71H71Z"/><path class="cls-1" d="M78.67,48.3a2.4,2.4,0,0,1-2,1.2,2.28,2.28,0,0,1-2.43-2.41V42.91h.87V47a1.66,1.66,0,0,0,1.63,1.84,2.05,2.05,0,0,0,2-2.18V42.91h.87v6.46h-.87Z"/><path class="cls-1" d="M81.74,44a2.21,2.21,0,0,1,2-1.31,1.32,1.32,0,0,1,.28,0v.79l-.28,0a2,2,0,0,0-2,2v3.9h-.87V42.91h.87Z"/><path class="cls-1" d="M84.63,43.29a3.78,3.78,0,0,1,2.07-.58A2.11,2.11,0,0,1,88.82,44,3.16,3.16,0,0,1,89,45.1v3a5.76,5.76,0,0,0,.11,1.3h-.83a5.74,5.74,0,0,1-.17-.78,2.5,2.5,0,0,1-2.07.9,2.09,2.09,0,0,1-2.18-2.09c0-1.58,1.17-2.27,3.16-2.27.35,0,.72,0,1.12.06V45a1.41,1.41,0,0,0-1.52-1.58,3.17,3.17,0,0,0-1.66.5Zm3.52,2.58a9,9,0,0,0-1,0c-1.61,0-2.42.49-2.42,1.52a1.39,1.39,0,0,0,1.49,1.38,1.77,1.77,0,0,0,1.92-1.63Z"/><path class="cls-1" d="M90.58,41.22l.87-.27v2H93v.71H91.45v4.16c0,.86.65,1,1.41,1v.73c-1.36,0-2.28-.32-2.28-1.67V43.62h-.92v-.71h.92Z"/><path class="cls-1" d="M98.54,48.86a3.33,3.33,0,0,1-2,.64,3.08,3.08,0,0,1-3.15-3.29c0-2,1-3.46,2.89-3.46a2.79,2.79,0,0,1,2.73,3,4,4,0,0,1,0,.49H94.26a2.31,2.31,0,0,0,2.31,2.54,2.78,2.78,0,0,0,1.63-.5Zm-.38-3.33a2,2,0,0,0-1.93-2.06,2.18,2.18,0,0,0-1.93,2.06Z"/><path class="cls-1" d="M104.53,43.91V40.24h.87v9.13h-.87v-1a2.53,2.53,0,0,1-2.1,1.1c-1.67,0-2.81-1.25-2.81-3.36s1.06-3.42,2.86-3.42A2.37,2.37,0,0,1,104.53,43.91Zm-4,2.23c0,1.28.61,2.68,2,2.68s2-1.19,2-2.68V46c0-1.7-.86-2.63-2-2.63C101.13,43.41,100.52,44.8,100.52,46.14Z"/><path class="cls-1" d="M110,42.91v-.75a3.36,3.36,0,0,1,.12-1A1.61,1.61,0,0,1,111.75,40a3.16,3.16,0,0,1,1.14.22l-.25.68a2.71,2.71,0,0,0-.77-.16.85.85,0,0,0-.87.57,2,2,0,0,0-.11.81v.79h1.36v.71h-1.36v5.75H110V43.62h-.91v-.71Z"/><path class="cls-1" d="M113.23,43.29a3.78,3.78,0,0,1,2.07-.58A2.11,2.11,0,0,1,117.42,44a3.16,3.16,0,0,1,.19,1.12v3a5.76,5.76,0,0,0,.11,1.3h-.83a5.74,5.74,0,0,1-.17-.78,2.5,2.5,0,0,1-2.07.9,2.1,2.1,0,0,1-2.19-2.09c0-1.58,1.18-2.27,3.17-2.27.35,0,.72,0,1.12.06V45a1.41,1.41,0,0,0-1.52-1.58,3.2,3.2,0,0,0-1.66.5Zm3.52,2.58a9,9,0,0,0-1,0c-1.61,0-2.42.49-2.42,1.52a1.39,1.39,0,0,0,1.49,1.38,1.77,1.77,0,0,0,1.92-1.63Z"/><path class="cls-1" d="M119.18,41.22l.87-.27v2h1.53v.71h-1.53v4.16c0,.86.65,1,1.41,1v.73c-1.36,0-2.28-.32-2.28-1.67V43.62h-.92v-.71h.92Z"/><path class="cls-1" d="M122.73,41.22l.87-.27v2h1.53v.71H123.6v4.16c0,.86.65,1,1.41,1v.73c-1.36,0-2.28-.32-2.28-1.67V43.62h-.92v-.71h.92Z"/><path class="cls-1" d="M125.41,51.39a2.66,2.66,0,0,0,2.19-2.07l-2.38-6.41h.93l1.9,5.35,1.83-5.35h.93l-2.1,5.93c-.7,1.95-1.16,2.88-3,3.29Z"/><path class="cls-1" d="M134.6,43.29a3.78,3.78,0,0,1,2.07-.58A2.11,2.11,0,0,1,138.79,44,3.41,3.41,0,0,1,139,45.1v3a5.78,5.78,0,0,0,.12,1.3h-.83a5.74,5.74,0,0,1-.17-.78,2.52,2.52,0,0,1-2.07.9,2.1,2.1,0,0,1-2.19-2.09c0-1.58,1.18-2.27,3.17-2.27.35,0,.71,0,1.11.06l0-.19a1.42,1.42,0,0,0-1.52-1.58,3.14,3.14,0,0,0-1.66.5Zm3.51,2.58a8.69,8.69,0,0,0-1,0c-1.62,0-2.43.49-2.43,1.52a1.4,1.4,0,0,0,1.5,1.38,1.77,1.77,0,0,0,1.91-1.63Z"/><path class="cls-1" d="M145.22,48.72a3.07,3.07,0,0,1-2.13.77,3.15,3.15,0,0,1-3.19-3.35,3.13,3.13,0,0,1,3.21-3.41,4.14,4.14,0,0,1,2,.52l-.35.64a3.36,3.36,0,0,0-1.61-.44,2.41,2.41,0,0,0-2.32,2.7,2.42,2.42,0,0,0,2.35,2.62,2.73,2.73,0,0,0,1.65-.59Z"/><path class="cls-1" d="M145.89,40.24h1v1.19h-1Zm.08,2.67h.87v6.46H146Z"/><path class="cls-1" d="M152.8,43.91V40.24h.87v9.13h-.87v-1a2.52,2.52,0,0,1-2.09,1.1c-1.67,0-2.81-1.25-2.81-3.36s1.06-3.42,2.86-3.42A2.35,2.35,0,0,1,152.8,43.91Zm-4,2.23c0,1.28.61,2.68,2,2.68s2-1.19,2-2.68V46c0-1.7-.86-2.63-2-2.63C149.4,43.41,148.79,44.8,148.79,46.14Z"/><path class="cls-1" d="M158.13,43.9a2.72,2.72,0,0,0-1.34-.46c-.78,0-1.18.39-1.18.91s.5.9,1.53,1.41,1.68,1,1.68,1.9a1.86,1.86,0,0,1-2.1,1.81,3,3,0,0,1-2.21-.88L155,48a2.52,2.52,0,0,0,1.7.74c.71,0,1.3-.31,1.3-1.05s-.59-.94-1.31-1.27c-.88-.4-1.87-.9-1.87-2a1.72,1.72,0,0,1,1.93-1.72,3.2,3.2,0,0,1,1.81.58Z"/><path class="cls-1" d="M163,43.29a3.78,3.78,0,0,1,2.07-.58A2.11,2.11,0,0,1,167.14,44a3.16,3.16,0,0,1,.19,1.12v3a5.76,5.76,0,0,0,.11,1.3h-.83a5.74,5.74,0,0,1-.17-.78,2.5,2.5,0,0,1-2.07.9,2.09,2.09,0,0,1-2.18-2.09c0-1.58,1.17-2.27,3.16-2.27.35,0,.72,0,1.12.06V45A1.41,1.41,0,0,0,165,43.42a3.2,3.2,0,0,0-1.66.5Zm3.52,2.58a8.86,8.86,0,0,0-1,0c-1.61,0-2.42.49-2.42,1.52a1.39,1.39,0,0,0,1.49,1.38,1.77,1.77,0,0,0,1.92-1.63Z"/><path class="cls-1" d="M169.46,43.92a2.42,2.42,0,0,1,2-1.2,2.27,2.27,0,0,1,2.42,2.41v4.24H173V45.24a1.64,1.64,0,0,0-1.62-1.83,2,2,0,0,0-2,2.17v3.79h-.87V42.91h.87Z"/><path class="cls-1" d="M179.76,43.91V40.24h.87v9.13h-.87v-1a2.54,2.54,0,0,1-2.1,1.1c-1.67,0-2.81-1.25-2.81-3.36s1.06-3.42,2.86-3.42A2.38,2.38,0,0,1,179.76,43.91Zm-4,2.23c0,1.28.62,2.68,2,2.68s2-1.19,2-2.68V46c0-1.7-.86-2.63-2-2.63C176.36,43.41,175.74,44.8,175.74,46.14Z"/><path class="cls-1" d="M185.82,43.92a2.44,2.44,0,0,1,2-1.2,2.27,2.27,0,0,1,2.42,2.41v4.24h-.87V45.24a1.65,1.65,0,0,0-1.62-1.83,2.06,2.06,0,0,0-2,2.17v3.79H185V40.24h.87Z"/><path class="cls-1" d="M191.84,43.29a3.78,3.78,0,0,1,2.07-.58A2.11,2.11,0,0,1,196,44a3.16,3.16,0,0,1,.19,1.12v3a5.25,5.25,0,0,0,.12,1.3h-.84a6.93,6.93,0,0,1-.16-.78,2.52,2.52,0,0,1-2.07.9,2.1,2.1,0,0,1-2.19-2.09c0-1.58,1.17-2.27,3.16-2.27.36,0,.72,0,1.12.06V45a1.41,1.41,0,0,0-1.51-1.58,3.14,3.14,0,0,0-1.66.5Zm3.52,2.58a8.74,8.74,0,0,0-1,0c-1.61,0-2.42.49-2.42,1.52a1.39,1.39,0,0,0,1.49,1.38,1.77,1.77,0,0,0,1.92-1.63Z"/><path class="cls-1" d="M200.56,43.9a2.72,2.72,0,0,0-1.34-.46c-.78,0-1.18.39-1.18.91s.5.9,1.53,1.41,1.68,1,1.68,1.9a1.86,1.86,0,0,1-2.1,1.81,3,3,0,0,1-2.22-.88l.48-.59a2.52,2.52,0,0,0,1.7.74c.71,0,1.3-.31,1.3-1.05s-.59-.94-1.31-1.27c-.88-.4-1.87-.9-1.87-2a1.72,1.72,0,0,1,1.93-1.72,3.2,3.2,0,0,1,1.81.58Z"/><path class="cls-1" d="M205.38,43.29a3.78,3.78,0,0,1,2.07-.58A2.11,2.11,0,0,1,209.57,44a3.4,3.4,0,0,1,.19,1.12v3a5.76,5.76,0,0,0,.11,1.3H209a5.74,5.74,0,0,1-.17-.78,2.5,2.5,0,0,1-2.07.9,2.1,2.1,0,0,1-2.19-2.09c0-1.58,1.18-2.27,3.17-2.27.35,0,.72,0,1.12.06V45a1.41,1.41,0,0,0-1.52-1.58,3.14,3.14,0,0,0-1.66.5Zm3.52,2.58a9,9,0,0,0-1,0c-1.61,0-2.42.49-2.42,1.52A1.39,1.39,0,0,0,207,48.72a1.77,1.77,0,0,0,1.92-1.63Z"/><path class="cls-1" d="M211.89,43.92a2.41,2.41,0,0,1,2-1.2,2.27,2.27,0,0,1,2.42,2.41v4.24h-.87V45.24a1.64,1.64,0,0,0-1.62-1.83,2,2,0,0,0-2,2.17v3.79H211V42.91h.87Z"/><path class="cls-1" d="M225.38,48.86a3.33,3.33,0,0,1-2,.64,3.08,3.08,0,0,1-3.15-3.29c0-2,1-3.46,2.89-3.46a2.79,2.79,0,0,1,2.73,3,4,4,0,0,1,0,.49H221.1a2.31,2.31,0,0,0,2.31,2.54,2.78,2.78,0,0,0,1.63-.5ZM225,45.53a2,2,0,0,0-1.93-2.06,2.18,2.18,0,0,0-1.93,2.06Z"/><path class="cls-1" d="M228.78,45.43l1.72-2.52h1l-2.22,3.19,2.26,3.27h-1l-1.73-2.55L227,49.37h-1l2.25-3.24-2.2-3.22h1Z"/><path class="cls-1" d="M236.84,48.72a3.07,3.07,0,0,1-2.13.77,3.16,3.16,0,0,1-3.19-3.35,3.13,3.13,0,0,1,3.21-3.41,4.14,4.14,0,0,1,2,.52l-.35.64a3.36,3.36,0,0,0-1.61-.44,2.4,2.4,0,0,0-2.31,2.7,2.41,2.41,0,0,0,2.34,2.62,2.78,2.78,0,0,0,1.66-.59Z"/><path class="cls-1" d="M242.42,48.86a3.33,3.33,0,0,1-2,.64,3.09,3.09,0,0,1-3.15-3.29c0-2,1-3.46,2.89-3.46a2.79,2.79,0,0,1,2.73,3,4,4,0,0,1,0,.49h-4.71a2.31,2.31,0,0,0,2.31,2.54,2.78,2.78,0,0,0,1.63-.5ZM242,45.53a2,2,0,0,0-1.93-2.06,2.18,2.18,0,0,0-1.93,2.06Z"/><path class="cls-1" d="M243.83,40.24h.87v9.13h-.87Z"/><path class="cls-1" d="M246.09,40.24H247v9.13h-.87Z"/><path class="cls-1" d="M253.18,48.86a3.33,3.33,0,0,1-2,.64A3.08,3.08,0,0,1,248,46.21c0-2,1-3.46,2.89-3.46a2.79,2.79,0,0,1,2.73,3,4,4,0,0,1,0,.49H248.9a2.31,2.31,0,0,0,2.31,2.54,2.78,2.78,0,0,0,1.63-.5Zm-.38-3.33a2,2,0,0,0-1.93-2.06,2.18,2.18,0,0,0-1.93,2.06Z"/><path class="cls-1" d="M255.46,43.92a2.41,2.41,0,0,1,2-1.2,2.27,2.27,0,0,1,2.42,2.41v4.24H259V45.24a1.64,1.64,0,0,0-1.62-1.83,2,2,0,0,0-2,2.17v3.79h-.87V42.91h.87Z"/><path class="cls-1" d="M261.49,41.22l.87-.27v2h1.52v.71h-1.52v4.16c0,.86.64,1,1.41,1v.73c-1.37,0-2.28-.32-2.28-1.67V43.62h-.92v-.71h.92Z"/><path class="cls-1" d="M268,43.29a3.78,3.78,0,0,1,2.07-.58A2.11,2.11,0,0,1,272.17,44a3.41,3.41,0,0,1,.18,1.12v3a5.78,5.78,0,0,0,.12,1.3h-.83a5.74,5.74,0,0,1-.17-.78,2.52,2.52,0,0,1-2.07.9,2.1,2.1,0,0,1-2.19-2.09c0-1.58,1.18-2.27,3.17-2.27.35,0,.71,0,1.11.06l0-.19A1.42,1.42,0,0,0,270,43.42a3.14,3.14,0,0,0-1.66.5Zm3.51,2.58a8.69,8.69,0,0,0-1,0c-1.62,0-2.43.49-2.43,1.52a1.4,1.4,0,0,0,1.5,1.38,1.77,1.77,0,0,0,1.91-1.63Z"/><path class="cls-1" d="M274.49,43.92a2.4,2.4,0,0,1,2-1.2,2.28,2.28,0,0,1,2.43,2.41v4.24h-.87V45.24a1.65,1.65,0,0,0-1.63-1.83,2,2,0,0,0-1.95,2.17v3.79h-.87V42.91h.87Z"/><path class="cls-1" d="M280.51,41.22l.87-.27v2h1.53v.71h-1.53v4.16c0,.86.65,1,1.41,1v.73c-1.36,0-2.28-.32-2.28-1.67V43.62h-.92v-.71h.92Z"/><path class="cls-1" d="M283.68,40.24h1v1.19h-1Zm.08,2.67h.87v6.46h-.87Z"/><path class="cls-1" d="M288.66,42.73a3.08,3.08,0,0,1,3,3.39c0,2.08-1.29,3.39-3,3.39s-3-1.31-3-3.39S287,42.73,288.66,42.73Zm0,6.09c1.16,0,2.11-1,2.11-2.7s-.95-2.69-2.11-2.69-2.09,1-2.09,2.69S287.52,48.82,288.66,48.82Z"/><path class="cls-1" d="M294.46,45.43l1.72-2.52h1l-2.22,3.19,2.26,3.27h-1l-1.73-2.55-1.74,2.55h-1L294,46.13l-2.2-3.22h1Z"/><path class="cls-1" d="M297.69,40.24h1v1.19h-1Zm.09,2.67h.87v6.46h-.87Z"/><path class="cls-1" d="M304.61,43.91V40.24h.87v9.13h-.87v-1a2.52,2.52,0,0,1-2.09,1.1c-1.67,0-2.82-1.25-2.82-3.36s1.06-3.42,2.86-3.42A2.37,2.37,0,0,1,304.61,43.91Zm-4,2.23c0,1.28.61,2.68,2,2.68s2-1.19,2-2.68V46c0-1.7-.86-2.63-2-2.63C301.21,43.41,300.6,44.8,300.6,46.14Z"/><path class="cls-1" d="M307.17,43.29a3.78,3.78,0,0,1,2.07-.58A2.11,2.11,0,0,1,311.36,44a3.16,3.16,0,0,1,.19,1.12v3a5.25,5.25,0,0,0,.12,1.3h-.84a6.93,6.93,0,0,1-.16-.78,2.52,2.52,0,0,1-2.07.9,2.1,2.1,0,0,1-2.19-2.09c0-1.58,1.17-2.27,3.16-2.27.35,0,.72,0,1.12.06V45a1.41,1.41,0,0,0-1.52-1.58,3.14,3.14,0,0,0-1.65.5Zm3.52,2.58a8.74,8.74,0,0,0-1,0c-1.61,0-2.42.49-2.42,1.52a1.39,1.39,0,0,0,1.49,1.38,1.77,1.77,0,0,0,1.92-1.63Z"/><path class="cls-1" d="M313.69,43.92a2.4,2.4,0,0,1,2-1.2,2.27,2.27,0,0,1,2.42,2.41v4.24h-.87V45.24a1.64,1.64,0,0,0-1.62-1.83,2,2,0,0,0-1.95,2.17v3.79h-.87V42.91h.87Z"/><path class="cls-1" d="M319.71,41.22l.87-.27v2h1.53v.71h-1.53v4.16c0,.86.65,1,1.41,1v.73c-1.36,0-2.28-.32-2.28-1.67V43.62h-.92v-.71h.92Z"/><path class="cls-1" d="M330.73,48.86a3.38,3.38,0,0,1-2,.64,3.09,3.09,0,0,1-3.16-3.29c0-2,1-3.46,2.9-3.46a2.79,2.79,0,0,1,2.73,3,2.69,2.69,0,0,1,0,.49h-4.7a2.3,2.3,0,0,0,2.3,2.54,2.79,2.79,0,0,0,1.64-.5Zm-.39-3.33a2,2,0,0,0-1.93-2.06,2.2,2.2,0,0,0-1.93,2.06Z"/><path class="cls-1" d="M332.43,42.91v-.75a3.7,3.7,0,0,1,.12-1A1.62,1.62,0,0,1,334.16,40a3.16,3.16,0,0,1,1.14.22l-.24.68a2.85,2.85,0,0,0-.78-.16.85.85,0,0,0-.87.57,2.23,2.23,0,0,0-.11.81v.79h1.37v.71H333.3v5.75h-.87V43.62h-.9v-.71Z"/><path class="cls-1" d="M336,42.91v-.75a3.7,3.7,0,0,1,.12-1A1.62,1.62,0,0,1,337.71,40a3.16,3.16,0,0,1,1.14.22l-.24.68a2.78,2.78,0,0,0-.78-.16.85.85,0,0,0-.87.57,2.23,2.23,0,0,0-.11.81v.79h1.37v.71h-1.37v5.75H336V43.62h-.9v-.71Z"/><path class="cls-1" d="M344.08,48.86a3.39,3.39,0,0,1-2,.64,3.09,3.09,0,0,1-3.15-3.29c0-2,1-3.46,2.89-3.46a2.79,2.79,0,0,1,2.73,3,4,4,0,0,1,0,.49h-4.71a2.31,2.31,0,0,0,2.31,2.54,2.78,2.78,0,0,0,1.63-.5Zm-.39-3.33a2,2,0,0,0-1.93-2.06,2.18,2.18,0,0,0-1.93,2.06Z"/><path class="cls-1" d="M350.46,48.72a3.07,3.07,0,0,1-2.13.77,3.16,3.16,0,0,1-3.19-3.35,3.13,3.13,0,0,1,3.22-3.41,4.13,4.13,0,0,1,1.95.52l-.34.64a3.42,3.42,0,0,0-1.61-.44,2.4,2.4,0,0,0-2.32,2.7,2.42,2.42,0,0,0,2.34,2.62,2.73,2.73,0,0,0,1.66-.59Z"/><path class="cls-1" d="M351.52,41.22l.87-.27v2h1.53v.71h-1.53v4.16c0,.86.65,1,1.41,1v.73c-1.36,0-2.28-.32-2.28-1.67V43.62h-.92v-.71h.92Z"/><path class="cls-1" d="M354.74,48.74H356V50h-1.26Z"/></g></g></svg>