<svg xmlns="http://www.w3.org/2000/svg" viewBox="0 0 79.98 18"><defs><style>.cls-1{fill:#fff;}</style></defs><title>자산 150</title><g id="레이어_2" data-name="레이어 2"><g id="레이어_1-2" data-name="레이어 1"><rect width="79.98" height="18"/><path class="cls-1" d="M28.14,8l2.5-2.57h1.09l-3,3,3.39,3.4H31L28.14,8.93v2.93h-.8V5.43h.8Z"/><path class="cls-1" d="M34.15,7.06a2.22,2.22,0,0,1,2.14,2.46,2.16,2.16,0,1,1-4.27,0A2.22,2.22,0,0,1,34.15,7.06Zm0,4.27c.73,0,1.33-.67,1.33-1.81s-.6-1.81-1.33-1.81-1.32.66-1.32,1.81S33.43,11.33,34.15,11.33Z"/><path class="cls-1" d="M38,7.83a1.55,1.55,0,0,1,1.32-.77l.22,0v.73h0l-.19,0A1.24,1.24,0,0,0,38,9v2.9h-.8V7.18H38Z"/><path class="cls-1" d="M43.43,11.46A2.33,2.33,0,0,1,42,12,2.23,2.23,0,0,1,39.7,9.59c0-1.46.75-2.53,2.07-2.53a2,2,0,0,1,1.95,2.22,2.41,2.41,0,0,1,0,.41H40.52A1.47,1.47,0,0,0,42,11.29a1.9,1.9,0,0,0,1.14-.4ZM43,9a1.25,1.25,0,0,0-1.2-1.31c-.64,0-1.11.69-1.2,1.31Z"/><path class="cls-1" d="M44.75,7.52A2.7,2.7,0,0,1,46.29,7a1.53,1.53,0,0,1,1.56,1,2.36,2.36,0,0,1,.11.8v2a4.1,4.1,0,0,0,.11,1h-.81a2.79,2.79,0,0,1-.07-.43,2,2,0,0,1-1.32.56,1.56,1.56,0,0,1-1.62-1.56c0-1.24,1-1.7,2.26-1.7.21,0,.43,0,.64,0V8.68a.86.86,0,0,0-.94-1,2,2,0,0,0-1.13.38ZM46,11.3a1.14,1.14,0,0,0,1.2-1.18V9.4c-.18,0-.42,0-.58,0-.91,0-1.52.27-1.52,1A.89.89,0,0,0,46,11.3Z"/><path class="cls-1" d="M49.85,7.82a1.6,1.6,0,0,1,1.3-.75,1.63,1.63,0,0,1,1.72,1.76v3h-.8V8.91a1.05,1.05,0,0,0-1-1.19,1.29,1.29,0,0,0-1.23,1.43v2.71h-.8V7.18h.8Z"/></g></g></svg>