<svg xmlns="http://www.w3.org/2000/svg" viewBox="0 0 364.4 138"><defs><style>.cls-1{fill:none;stroke:#f5f5f5;stroke-miterlimit:10;stroke-width:2px;}</style></defs><title>자산 153</title><g id="레이어_2" data-name="레이어 2"><g id="레이어_1-2" data-name="레이어 1"><rect class="cls-1" x="1" y="1" width="110" height="136" rx="15.22"/><rect class="cls-1" x="127.2" y="1" width="110" height="136" rx="15.22"/><rect class="cls-1" x="253.4" y="1" width="110" height="136" rx="15.22"/><path d="M15.77,100.93h-1l-2.12-3.26H11.06v3.26h-.85V93.25h2.6a2.27,2.27,0,0,1,2.53,2.19,2.24,2.24,0,0,1-1.77,2.14Zm-3-3.94a1.59,1.59,0,0,0,1.76-1.55,1.52,1.52,0,0,0-1.69-1.5H11.06v3Z"/><path d="M20.34,100.49a2.93,2.93,0,0,1-1.79.58,2.69,2.69,0,0,1-2.74-2.85c0-1.75.94-3.06,2.5-3.06a2.48,2.48,0,0,1,2.4,2.68,3.52,3.52,0,0,1,0,.45h-4a1.9,1.9,0,0,0,1.91,2.09A2.42,2.42,0,0,0,20,99.93ZM19.9,97.6a1.64,1.64,0,0,0-1.59-1.73,1.84,1.84,0,0,0-1.6,1.73Z"/><path d="M23.76,95.19a1.94,1.94,0,0,1,1.69.94V93.06h.84v7.87h-.84v-.73a2,2,0,0,1-1.69.87c-1.51,0-2.48-1.1-2.48-2.9S22.25,95.19,23.76,95.19Zm0,.68c-1.21,0-1.64,1.19-1.64,2.31s.5,2.24,1.64,2.24,1.64-1,1.67-2.16v-.21C25.42,96.58,24.75,95.87,23.78,95.87Z"/><path d="M31.21,100.15a2.09,2.09,0,0,1-1.66.92A2,2,0,0,1,27.42,99V95.34h.85v3.54a1.36,1.36,0,0,0,1.33,1.51,1.66,1.66,0,0,0,1.61-1.8V95.34h.85v5.59h-.85Z"/><path d="M37.58,100.39a2.64,2.64,0,0,1-1.87.68,3,3,0,0,1,0-5.91,3.44,3.44,0,0,1,1.73.49l-.34.62a2.82,2.82,0,0,0-1.39-.4,2.28,2.28,0,0,0,0,4.51,2.17,2.17,0,0,0,1.42-.52Z"/><path d="M42.48,100.49a2.9,2.9,0,0,1-1.78.58A2.69,2.69,0,0,1,38,98.22c0-1.75.94-3.06,2.5-3.06a2.48,2.48,0,0,1,2.4,2.68,3.52,3.52,0,0,1,0,.45h-4a1.9,1.9,0,0,0,1.91,2.09,2.42,2.42,0,0,0,1.41-.45ZM42,97.6a1.63,1.63,0,0,0-1.58-1.73,1.83,1.83,0,0,0-1.6,1.73Z"/><path d="M45.91,95.19a1.94,1.94,0,0,1,1.69.94V93.06h.84v7.87H47.6v-.73a2,2,0,0,1-1.69.87c-1.51,0-2.48-1.1-2.48-2.9S44.4,95.19,45.91,95.19Zm0,.68c-1.2,0-1.63,1.19-1.63,2.31s.5,2.24,1.63,2.24,1.65-1,1.68-2.16v-.21C47.57,96.58,46.89,95.87,45.92,95.87Z"/><path d="M54.75,96.29a2.13,2.13,0,0,0-1.16-.42c-.63,0-.94.32-.94.75s.4.76,1.26,1.18,1.47.88,1.47,1.69a1.65,1.65,0,0,1-1.85,1.6,2.6,2.6,0,0,1-2-.79l.45-.58a2.25,2.25,0,0,0,1.47.67c.57,0,1.06-.28,1.06-.88s-.5-.79-1.09-1.06c-.76-.35-1.63-.8-1.63-1.77a1.52,1.52,0,0,1,1.7-1.51,2.86,2.86,0,0,1,1.61.52Z"/><path d="M56.44,95.7a3.45,3.45,0,0,1,1.85-.54,1.84,1.84,0,0,1,1.88,1.17,2.8,2.8,0,0,1,.13,1v2.47a4.72,4.72,0,0,0,.12,1.18h-.84c0-.19-.09-.65-.09-.65a2.25,2.25,0,0,1-1.73.78,1.83,1.83,0,0,1-1.95-1.83c0-1.46,1.17-2,2.76-2,.29,0,.58,0,.9,0V97.2a1.17,1.17,0,0,0-1.28-1.33,2.53,2.53,0,0,0-1.39.45Zm1.43,4.63a1.47,1.47,0,0,0,1.6-1.46v-.93a7.94,7.94,0,0,0-.83,0c-1.18,0-2,.34-2,1.29A1.13,1.13,0,0,0,57.87,100.33Z"/><path d="M61.42,93.06h.84v7.87h-.84Z"/><path d="M63.69,93.91l.81-.27v1.7h1.31V96H64.5v3.53c0,.71.56.8,1.21.81v.7c-1.22,0-2-.27-2-1.46V96h-.78v-.69h.78Z"/><path d="M73.47,100.39a2.65,2.65,0,0,1-1.87.68,3,3,0,0,1,0-5.91,3.43,3.43,0,0,1,1.72.49l-.33.62a2.82,2.82,0,0,0-1.39-.4,2.28,2.28,0,0,0,0,4.51,2.17,2.17,0,0,0,1.42-.52Z"/><path d="M76.45,95.19a3,3,0,1,1-2.61,2.94A2.67,2.67,0,0,1,76.45,95.19Zm0,5.21c1,0,1.74-.83,1.74-2.27s-.79-2.27-1.74-2.27-1.74.83-1.74,2.27S75.5,100.4,76.45,100.4Z"/><path d="M80.78,96.12a2.12,2.12,0,0,1,1.67-.92,2,2,0,0,1,2.12,2.09v3.64h-.84V97.39a1.37,1.37,0,0,0-1.33-1.51,1.66,1.66,0,0,0-1.62,1.8v3.25h-.84V95.34h.84Z"/><path d="M86,93.91l.81-.27v1.7h1.3V96h-1.3v3.53c0,.71.56.8,1.2.81v.7c-1.22,0-2-.27-2-1.46V96h-.79v-.69H86Z"/><path d="M93.07,100.49a2.92,2.92,0,0,1-1.78.58,2.7,2.7,0,0,1-2.75-2.85c0-1.75.95-3.06,2.5-3.06a2.48,2.48,0,0,1,2.4,2.68,3.52,3.52,0,0,1,0,.45h-4a1.9,1.9,0,0,0,1.91,2.09,2.42,2.42,0,0,0,1.41-.45Zm-.44-2.89A1.64,1.64,0,0,0,91,95.87a1.82,1.82,0,0,0-1.59,1.73Z"/><path d="M95.15,96.12a2.11,2.11,0,0,1,1.66-.92,2,2,0,0,1,2.13,2.09v3.64H98.1V97.39a1.37,1.37,0,0,0-1.33-1.51,1.66,1.66,0,0,0-1.62,1.8v3.25h-.84V95.34h.84Z"/><path d="M100.32,93.91l.82-.27v1.7h1.3V96h-1.3v3.53c0,.71.56.8,1.2.81v.7c-1.22,0-2-.27-2-1.46V96h-.78v-.69h.78Z"/><path d="M13.3,107.7a3.45,3.45,0,0,1,1.85-.54A1.85,1.85,0,0,1,17,108.33a2.8,2.8,0,0,1,.13,1v2.47a5.18,5.18,0,0,0,.11,1.18h-.84c0-.19-.09-.65-.09-.65a2.23,2.23,0,0,1-1.72.78,1.83,1.83,0,0,1-1.95-1.83c0-1.46,1.17-2,2.75-2,.3,0,.59,0,.9,0v-.07a1.16,1.16,0,0,0-1.27-1.33,2.53,2.53,0,0,0-1.39.45Zm1.43,4.63a1.46,1.46,0,0,0,1.59-1.46v-.93a7.63,7.63,0,0,0-.82,0c-1.18,0-2,.34-2,1.29A1.14,1.14,0,0,0,14.73,112.33Z"/><path d="M19.12,108.12a2.11,2.11,0,0,1,1.66-.92,2,2,0,0,1,2.13,2.09v3.64h-.84v-3.54a1.37,1.37,0,0,0-1.34-1.51,1.66,1.66,0,0,0-1.61,1.8v3.25h-.84v-5.59h.84Z"/><path d="M26.22,107.19a2,2,0,0,1,1.7.94v-3.07h.84v7.87h-.84v-.73a2,2,0,0,1-1.7.87c-1.51,0-2.48-1.1-2.48-2.9S24.71,107.19,26.22,107.19Zm0,.68c-1.2,0-1.63,1.19-1.63,2.31s.5,2.24,1.63,2.24,1.65-1,1.68-2.16v-.21C27.89,108.58,27.21,107.87,26.24,107.87Z"/><path d="M34.57,107.16a1.89,1.89,0,0,1,1.7,1v-.79h.84v5.09a2.47,2.47,0,0,1-2.52,2.77,3.88,3.88,0,0,1-2-.54l.3-.64a3.48,3.48,0,0,0,1.64.47c.91,0,1.7-.62,1.7-2.08V112a2,2,0,0,1-1.71.95c-1.45,0-2.47-1.1-2.47-2.9S33.14,107.16,34.57,107.16Zm0,.71c-1.2,0-1.64,1.08-1.64,2.2s.56,2.2,1.64,2.2,1.65-.9,1.68-2.06v-.07C36.27,108.59,35.57,107.87,34.59,107.87Z"/><path d="M39.13,108.14a1.82,1.82,0,0,1,1.66-1l.29,0V108l-.27,0a1.56,1.56,0,0,0-1.68,1.47v3.53h-.84v-5.59h.84Z"/><path d="M41.58,105.06h1v1.1h-1Zm.07,2.28h.84v5.59h-.84Z"/><path d="M43.67,105.06h.84v7.87h-.84Z"/><path d="M45.69,105.06h.84v7.87h-.84Z"/><path d="M51.94,112.49a2.93,2.93,0,0,1-1.79.58,2.69,2.69,0,0,1-2.74-2.85c0-1.75.94-3.06,2.5-3.06a2.48,2.48,0,0,1,2.4,2.68,3.52,3.52,0,0,1,0,.45h-4a1.9,1.9,0,0,0,1.91,2.09,2.42,2.42,0,0,0,1.41-.45Zm-.44-2.89a1.64,1.64,0,0,0-1.59-1.73,1.84,1.84,0,0,0-1.6,1.73Z"/><path d="M55.36,107.19a1.94,1.94,0,0,1,1.69.94v-3.07h.84v7.87h-.84v-.73a2,2,0,0,1-1.69.87c-1.51,0-2.48-1.1-2.48-2.9S53.85,107.19,55.36,107.19Zm0,.68c-1.21,0-1.64,1.19-1.64,2.31s.5,2.24,1.64,2.24,1.64-1,1.67-2.16v-.21C57,108.58,56.35,107.87,55.38,107.87Z"/><path d="M64.21,108.29a2.2,2.2,0,0,0-1.17-.42c-.63,0-.94.32-.94.75s.4.76,1.26,1.18,1.47.88,1.47,1.69a1.65,1.65,0,0,1-1.85,1.6A2.61,2.61,0,0,1,61,112.3l.45-.58a2.27,2.27,0,0,0,1.47.67c.57,0,1.06-.28,1.06-.88s-.5-.79-1.09-1.06c-.76-.35-1.62-.8-1.62-1.77A1.51,1.51,0,0,1,63,107.17a2.86,2.86,0,0,1,1.61.52Z"/><path d="M69.89,112.49a2.92,2.92,0,0,1-1.78.58,2.7,2.7,0,0,1-2.75-2.85c0-1.75.94-3.06,2.5-3.06a2.48,2.48,0,0,1,2.4,2.68,3.52,3.52,0,0,1,0,.45h-4a1.89,1.89,0,0,0,1.91,2.09,2.46,2.46,0,0,0,1.41-.45Zm-.44-2.89a1.64,1.64,0,0,0-1.59-1.73,1.84,1.84,0,0,0-1.6,1.73Z"/><path d="M71.36,107.7a3.45,3.45,0,0,1,1.85-.54,1.84,1.84,0,0,1,1.88,1.17,2.8,2.8,0,0,1,.13,1v2.47a4.72,4.72,0,0,0,.12,1.18H74.5c0-.19-.09-.65-.09-.65a2.25,2.25,0,0,1-1.73.78,1.83,1.83,0,0,1-2-1.83c0-1.46,1.17-2,2.76-2,.29,0,.58,0,.9,0v-.07a1.17,1.17,0,0,0-1.28-1.33,2.53,2.53,0,0,0-1.39.45Zm1.43,4.63a1.47,1.47,0,0,0,1.6-1.46v-.93a7.88,7.88,0,0,0-.82,0c-1.19,0-2,.34-2,1.29A1.13,1.13,0,0,0,72.79,112.33Z"/><path d="M77.75,111.77l1.16-4.43h.86l1.16,4.42,1.2-4.42H83l-1.6,5.59h-.81l-1.2-4.51-1.2,4.51h-.81l-1.59-5.59h.82Z"/><path d="M87.76,112.49a2.9,2.9,0,0,1-1.78.58,2.69,2.69,0,0,1-2.74-2.85c0-1.75.94-3.06,2.5-3.06a2.48,2.48,0,0,1,2.4,2.68,3.52,3.52,0,0,1,0,.45h-4A1.9,1.9,0,0,0,86,112.38a2.42,2.42,0,0,0,1.41-.45Zm-.44-2.89a1.64,1.64,0,0,0-1.58-1.73,1.83,1.83,0,0,0-1.6,1.73Z"/><path d="M93.23,112.49a2.9,2.9,0,0,1-1.78.58,2.69,2.69,0,0,1-2.74-2.85c0-1.75.94-3.06,2.49-3.06a2.48,2.48,0,0,1,2.4,2.68c0,.15,0,.29,0,.45h-4a1.9,1.9,0,0,0,1.91,2.09,2.42,2.42,0,0,0,1.41-.45Zm-.44-2.89a1.64,1.64,0,0,0-1.59-1.73,1.83,1.83,0,0,0-1.59,1.73Z"/><path d="M96.65,107.19a2,2,0,0,1,1.7.94v-3.07h.84v7.87h-.84v-.73a2,2,0,0,1-1.7.87c-1.51,0-2.48-1.1-2.48-2.9S95.14,107.19,96.65,107.19Zm0,.68c-1.2,0-1.63,1.19-1.63,2.31s.5,2.24,1.63,2.24,1.65-1,1.68-2.16v-.21C98.32,108.58,97.64,107.87,96.67,107.87Z"/><path d="M31.66,123.77l1.15-4.43h.86l1.17,4.42,1.2-4.42h.82l-1.6,5.59h-.81l-1.21-4.51-1.19,4.51h-.81l-1.59-5.59h.82Z"/><path d="M37.37,117.06h1v1.1h-1Zm.07,2.28h.84v5.59h-.84Z"/><path d="M39.71,117.91l.82-.27v1.7h1.3V120h-1.3v3.53c0,.71.55.8,1.2.81v.7c-1.22,0-2-.27-2-1.46V120h-.78v-.69h.78Z"/><path d="M43.53,120.11a2.2,2.2,0,0,1,1.67-.91,2,2,0,0,1,2.13,2.08v3.65h-.85v-3.55a1.35,1.35,0,0,0-1.33-1.5,1.66,1.66,0,0,0-1.62,1.79v3.26h-.84v-7.87h.84Z"/><path d="M53.22,119.19a3,3,0,1,1-2.61,2.94A2.67,2.67,0,0,1,53.22,119.19Zm0,5.21c1,0,1.74-.83,1.74-2.27s-.79-2.27-1.74-2.27-1.75.83-1.75,2.27S52.27,124.4,53.22,124.4Z"/><path d="M56.7,117.06h.85v7.87H56.7Z"/><path d="M58.66,117.06h1v1.1h-1Zm.06,2.28h.85v5.59h-.85Z"/><path d="M62.54,123.89l1.62-4.55h.89L63,124.93H62.1L60,119.34h.89Z"/><path d="M69.66,124.49a2.92,2.92,0,0,1-1.78.58,2.7,2.7,0,0,1-2.75-2.85c0-1.75.94-3.06,2.5-3.06a2.48,2.48,0,0,1,2.4,2.68,3.52,3.52,0,0,1,0,.45H66a1.9,1.9,0,0,0,1.91,2.09,2.47,2.47,0,0,0,1.42-.45Zm-.44-2.89a1.64,1.64,0,0,0-1.59-1.73A1.84,1.84,0,0,0,66,121.6Z"/><path d="M75.66,119.19a3,3,0,1,1-2.61,2.94A2.67,2.67,0,0,1,75.66,119.19Zm0,5.21c1,0,1.74-.83,1.74-2.27s-.79-2.27-1.74-2.27-1.75.83-1.75,2.27S74.71,124.4,75.66,124.4Z"/><path d="M79.08,117.06h1v1.1h-1Zm.07,2.28H80v5.59h-.84Z"/><path d="M81.16,117.06H82v7.87h-.85Z"/><path d="M151,93.94h-2.35v7h-.84v-7h-2.35v-.69H151Z"/><path d="M151.49,96.14a1.82,1.82,0,0,1,1.66-1l.29,0V96l-.27,0a1.56,1.56,0,0,0-1.68,1.47v3.53h-.84V95.34h.84Z"/><path d="M154,95.7a3.45,3.45,0,0,1,1.85-.54,1.84,1.84,0,0,1,1.88,1.17,2.8,2.8,0,0,1,.13,1v2.47a4.72,4.72,0,0,0,.12,1.18h-.85c0-.19-.08-.65-.08-.65a2.25,2.25,0,0,1-1.73.78,1.83,1.83,0,0,1-2-1.83c0-1.46,1.17-2,2.76-2,.29,0,.58,0,.9,0V97.2a1.17,1.17,0,0,0-1.28-1.33,2.53,2.53,0,0,0-1.39.45Zm1.43,4.63a1.47,1.47,0,0,0,1.6-1.46v-.93a7.88,7.88,0,0,0-.82,0c-1.19,0-2,.34-2,1.29A1.13,1.13,0,0,0,155.38,100.33Z"/><path d="M161.11,95.19a2,2,0,0,1,1.7.94V93.06h.84v7.87h-.84v-.73a2,2,0,0,1-1.7.87c-1.51,0-2.48-1.1-2.48-2.9S159.6,95.19,161.11,95.19Zm0,.68c-1.2,0-1.63,1.19-1.63,2.31s.5,2.24,1.63,2.24,1.65-1,1.68-2.16v-.21C162.78,96.58,162.1,95.87,161.13,95.87Z"/><path d="M164.76,93.06h1v1.1h-1Zm.07,2.28h.84v5.59h-.84Z"/><path d="M167.1,93.91l.81-.27v1.7h1.31V96h-1.31v3.53c0,.71.56.8,1.21.81v.7c-1.22,0-2-.27-2-1.46V96h-.78v-.69h.78Z"/><path d="M170,93.06h1v1.1h-1Zm.07,2.28h.84v5.59h-.84Z"/><path d="M174.41,95.19a3,3,0,1,1-2.6,2.94A2.67,2.67,0,0,1,174.41,95.19Zm0,5.21c1,0,1.75-.83,1.75-2.27s-.8-2.27-1.75-2.27-1.74.83-1.74,2.27S173.46,100.4,174.41,100.4Z"/><path d="M178.74,96.12a2.12,2.12,0,0,1,1.67-.92,2,2,0,0,1,2.12,2.09v3.64h-.84V97.39a1.36,1.36,0,0,0-1.33-1.51,1.66,1.66,0,0,0-1.62,1.8v3.25h-.84V95.34h.84Z"/><path d="M183.9,95.7a3.45,3.45,0,0,1,1.85-.54,1.84,1.84,0,0,1,1.88,1.17,2.8,2.8,0,0,1,.13,1v2.47a4.72,4.72,0,0,0,.12,1.18H187c0-.19-.08-.65-.08-.65a2.25,2.25,0,0,1-1.73.78,1.83,1.83,0,0,1-1.95-1.83c0-1.46,1.17-2,2.75-2,.3,0,.59,0,.91,0V97.2a1.17,1.17,0,0,0-1.28-1.33,2.53,2.53,0,0,0-1.39.45Zm1.43,4.63a1.47,1.47,0,0,0,1.6-1.46v-.93a7.94,7.94,0,0,0-.83,0c-1.18,0-2,.34-2,1.29A1.14,1.14,0,0,0,185.33,100.33Z"/><path d="M188.88,93.06h.84v7.87h-.84Z"/><path d="M195.53,95.16a1.87,1.87,0,0,1,1.69,1v-.79h.85v5.09a2.47,2.47,0,0,1-2.52,2.77,3.88,3.88,0,0,1-2-.54l.29-.64a3.55,3.55,0,0,0,1.65.47c.91,0,1.69-.62,1.69-2.08V100a1.93,1.93,0,0,1-1.7.95c-1.45,0-2.47-1.1-2.47-2.9S194.1,95.16,195.53,95.16Zm0,.71c-1.21,0-1.64,1.08-1.64,2.2s.56,2.2,1.64,2.2,1.65-.9,1.67-2.06v-.07C197.22,96.59,196.53,95.87,195.55,95.87Z"/><path d="M200.09,96.14a1.82,1.82,0,0,1,1.65-1l.3,0V96l-.27,0a1.56,1.56,0,0,0-1.68,1.47v3.53h-.84V95.34h.84Z"/><path d="M202.54,93.06h1v1.1h-1Zm.07,2.28h.84v5.59h-.84Z"/><path d="M204.62,93.06h.85v7.87h-.85Z"/><path d="M206.64,93.06h.85v7.87h-.85Z"/><path d="M212.89,100.49a2.88,2.88,0,0,1-1.78.58,2.69,2.69,0,0,1-2.74-2.85c0-1.75.94-3.06,2.5-3.06a2.48,2.48,0,0,1,2.4,2.68,3.52,3.52,0,0,1,0,.45h-4a1.9,1.9,0,0,0,1.91,2.09,2.42,2.42,0,0,0,1.41-.45Zm-.44-2.89a1.63,1.63,0,0,0-1.58-1.73,1.84,1.84,0,0,0-1.6,1.73Z"/><path d="M216.32,95.19a1.94,1.94,0,0,1,1.69.94V93.06h.84v7.87H218v-.73a2,2,0,0,1-1.69.87c-1.51,0-2.48-1.1-2.48-2.9S214.81,95.19,216.32,95.19Zm0,.68c-1.2,0-1.63,1.19-1.63,2.31s.5,2.24,1.63,2.24,1.65-1,1.68-2.16v-.21C218,96.58,217.3,95.87,216.33,95.87Z"/><path d="M155.41,108.29a2.2,2.2,0,0,0-1.17-.42c-.62,0-.94.32-.94.75s.4.76,1.27,1.18,1.47.88,1.47,1.69a1.66,1.66,0,0,1-1.86,1.6,2.58,2.58,0,0,1-1.94-.79l.45-.58a2.25,2.25,0,0,0,1.47.67c.56,0,1.05-.28,1.05-.88s-.5-.79-1.08-1.06c-.77-.35-1.63-.8-1.63-1.77a1.51,1.51,0,0,1,1.69-1.51,2.86,2.86,0,0,1,1.61.52Z"/><path d="M161.09,112.49a2.9,2.9,0,0,1-1.78.58,2.69,2.69,0,0,1-2.74-2.85c0-1.75.94-3.06,2.49-3.06a2.48,2.48,0,0,1,2.4,2.68,3.52,3.52,0,0,1,0,.45h-4a1.9,1.9,0,0,0,1.91,2.09,2.42,2.42,0,0,0,1.41-.45Zm-.44-2.89a1.64,1.64,0,0,0-1.59-1.73,1.83,1.83,0,0,0-1.59,1.73Z"/><path d="M162.56,107.7a3.47,3.47,0,0,1,1.85-.54,1.86,1.86,0,0,1,1.89,1.17,3.13,3.13,0,0,1,.12,1v2.47a4.72,4.72,0,0,0,.12,1.18h-.84c0-.19-.09-.65-.09-.65a2.23,2.23,0,0,1-1.72.78,1.83,1.83,0,0,1-1.95-1.83c0-1.46,1.16-2,2.75-2,.29,0,.59,0,.9,0v-.07a1.16,1.16,0,0,0-1.27-1.33,2.53,2.53,0,0,0-1.39.45Zm1.44,4.63a1.46,1.46,0,0,0,1.59-1.46v-.93a7.75,7.75,0,0,0-.82,0c-1.19,0-2,.34-2,1.29A1.14,1.14,0,0,0,164,112.33Z"/><path d="M169,111.77l1.16-4.43H171l1.17,4.42,1.19-4.42h.83l-1.6,5.59h-.81l-1.21-4.51-1.2,4.51h-.81l-1.59-5.59h.83Z"/><path d="M179,112.49a2.93,2.93,0,0,1-1.79.58,2.69,2.69,0,0,1-2.74-2.85c0-1.75.94-3.06,2.5-3.06a2.48,2.48,0,0,1,2.4,2.68,3.52,3.52,0,0,1,0,.45h-4a1.9,1.9,0,0,0,1.91,2.09,2.42,2.42,0,0,0,1.41-.45Zm-.44-2.89a1.64,1.64,0,0,0-1.59-1.73,1.84,1.84,0,0,0-1.6,1.73Z"/><path d="M184.44,112.49a2.93,2.93,0,0,1-1.79.58,2.69,2.69,0,0,1-2.74-2.85c0-1.75.94-3.06,2.5-3.06a2.48,2.48,0,0,1,2.4,2.68,3.52,3.52,0,0,1,0,.45h-4a1.9,1.9,0,0,0,1.91,2.09,2.42,2.42,0,0,0,1.41-.45ZM184,109.6a1.64,1.64,0,0,0-1.59-1.73,1.84,1.84,0,0,0-1.6,1.73Z"/><path d="M187.86,107.19a1.94,1.94,0,0,1,1.69.94v-3.07h.84v7.87h-.84v-.73a2,2,0,0,1-1.69.87c-1.51,0-2.48-1.1-2.48-2.9S186.35,107.19,187.86,107.19Zm0,.68c-1.21,0-1.64,1.19-1.64,2.31s.5,2.24,1.64,2.24,1.64-1,1.67-2.16v-.21C189.52,108.58,188.85,107.87,187.88,107.87Z"/><path d="M196.33,107.19a3,3,0,1,1-2.6,2.94A2.67,2.67,0,0,1,196.33,107.19Zm0,5.21c.95,0,1.75-.83,1.75-2.27s-.8-2.27-1.75-2.27-1.74.83-1.74,2.27S195.38,112.4,196.33,112.4Z"/><path d="M201.53,111.89l1.61-4.55h.9L202,112.93h-.87L199,107.34h.89Z"/><path d="M208.64,112.49a2.92,2.92,0,0,1-1.78.58,2.69,2.69,0,0,1-2.74-2.85c0-1.75.94-3.06,2.49-3.06a2.48,2.48,0,0,1,2.4,2.68,3.52,3.52,0,0,1,0,.45h-4a1.9,1.9,0,0,0,1.91,2.09,2.42,2.42,0,0,0,1.41-.45Zm-.44-2.89a1.64,1.64,0,0,0-1.59-1.73A1.82,1.82,0,0,0,205,109.6Z"/><path d="M210.72,108.14a1.82,1.82,0,0,1,1.66-1l.29,0V108l-.26,0a1.56,1.56,0,0,0-1.69,1.47v3.53h-.84v-5.59h.84Z"/><path d="M164.67,119.19a2,2,0,0,1,1.7.94v-3.07h.84v7.87h-.84v-.73a2,2,0,0,1-1.7.87c-1.5,0-2.47-1.1-2.47-2.9S163.17,119.19,164.67,119.19Zm0,.68c-1.2,0-1.63,1.19-1.63,2.31s.5,2.24,1.63,2.24,1.65-1,1.68-2.16v-.21C166.34,120.58,165.66,119.87,164.69,119.87Z"/><path d="M168.32,117.06h1v1.1h-1Zm.07,2.28h.84v5.59h-.84Z"/><path d="M171.25,120.14a1.83,1.83,0,0,1,1.66-1l.29,0V120l-.26,0a1.57,1.57,0,0,0-1.69,1.47v3.53h-.84v-5.59h.84Z"/><path d="M177.76,124.49a2.93,2.93,0,0,1-1.79.58,2.69,2.69,0,0,1-2.74-2.85c0-1.75.94-3.06,2.5-3.06a2.48,2.48,0,0,1,2.4,2.68,3.52,3.52,0,0,1,0,.45h-4a1.9,1.9,0,0,0,1.91,2.09,2.42,2.42,0,0,0,1.41-.45Zm-.44-2.89a1.64,1.64,0,0,0-1.59-1.73,1.84,1.84,0,0,0-1.6,1.73Z"/><path d="M183.34,124.39a2.64,2.64,0,0,1-1.87.68,3,3,0,0,1,0-5.91,3.44,3.44,0,0,1,1.73.49l-.34.62a2.82,2.82,0,0,0-1.39-.4,2.28,2.28,0,0,0,0,4.51,2.17,2.17,0,0,0,1.42-.52Z"/><path d="M184.27,117.91l.81-.27v1.7h1.3V120h-1.3v3.53c0,.71.56.8,1.2.81v.7c-1.22,0-2-.27-2-1.46V120h-.79v-.69h.79Z"/><path d="M189.94,119.34v-.6a3,3,0,0,1,.11-.88,1.4,1.4,0,0,1,1.42-1,3.06,3.06,0,0,1,1,.21l-.25.66a2.29,2.29,0,0,0-.69-.14.68.68,0,0,0-.69.44,1.89,1.89,0,0,0-.1.69v.63H192V120h-1.17v4.9h-.84V120h-.77v-.69Z"/><path d="M192.8,117.06h1v1.1h-1Zm.07,2.28h.84v5.59h-.84Z"/><path d="M195.73,120.14a1.82,1.82,0,0,1,1.66-1l.29,0V120l-.26,0a1.56,1.56,0,0,0-1.69,1.47v3.53h-.84v-5.59h.84Z"/><path d="M202.24,124.49a2.93,2.93,0,0,1-1.79.58,2.69,2.69,0,0,1-2.74-2.85c0-1.75.94-3.06,2.5-3.06a2.48,2.48,0,0,1,2.4,2.68,3.52,3.52,0,0,1,0,.45h-4a1.9,1.9,0,0,0,1.91,2.09,2.42,2.42,0,0,0,1.41-.45Zm-.44-2.89a1.64,1.64,0,0,0-1.59-1.73,1.84,1.84,0,0,0-1.6,1.73Z"/><path d="M286.21,94.46a3.26,3.26,0,0,0-1.75-.6c-.9,0-1.43.45-1.43,1.14s.63,1.11,1.89,1.66,2,1.15,2,2.29c0,1.47-1.28,2.11-2.52,2.11a3.87,3.87,0,0,1-2.59-1l.45-.64a3.29,3.29,0,0,0,2.08.88c.73,0,1.72-.3,1.72-1.36,0-.71-.65-1.18-1.76-1.65s-2.16-1-2.16-2.26c0-1.44,1.21-1.92,2.28-1.92a4.16,4.16,0,0,1,2.15.67Z"/><path d="M288.05,93.91l.81-.27v1.7h1.3V96h-1.3v3.53c0,.71.56.8,1.21.81v.7c-1.23,0-2-.27-2-1.46V96h-.79v-.69h.79Z"/><path d="M291.87,96.14a1.82,1.82,0,0,1,1.65-1l.3,0V96l-.27,0a1.56,1.56,0,0,0-1.68,1.47v3.53H291V95.34h.84Z"/><path d="M294.32,93.06h1v1.1h-1Zm.07,2.28h.84v5.59h-.84Z"/><path d="M300.76,100.39a2.65,2.65,0,0,1-1.87.68,3,3,0,0,1,0-5.91,3.43,3.43,0,0,1,1.72.49l-.33.62a2.88,2.88,0,0,0-1.39-.4,2.28,2.28,0,0,0,0,4.51,2.17,2.17,0,0,0,1.42-.52Z"/><path d="M301.68,93.91l.81-.27v1.7h1.3V96h-1.3v3.53c0,.71.56.8,1.21.81v.7c-1.23,0-2-.27-2-1.46V96h-.78v-.69h.78Z"/><path d="M309.29,95.19a2,2,0,0,1,1.7.94v-.79h.84v7.94H311V100.2a2,2,0,0,1-1.7.87c-1.51,0-2.48-1.1-2.48-2.9S307.78,95.19,309.29,95.19Zm0,.68c-1.2,0-1.63,1.19-1.63,2.31s.5,2.24,1.63,2.24,1.65-1,1.68-2.16v-.21C311,96.58,310.28,95.87,309.31,95.87Z"/><path d="M316.75,100.15a2.11,2.11,0,0,1-1.67.92A2,2,0,0,1,313,99V95.34h.84v3.54a1.37,1.37,0,0,0,1.33,1.51,1.66,1.66,0,0,0,1.62-1.8V95.34h.84v5.59h-.84Z"/><path d="M319,95.7a3.48,3.48,0,0,1,1.86-.54,1.85,1.85,0,0,1,1.88,1.17,2.84,2.84,0,0,1,.12,1v2.47a4.72,4.72,0,0,0,.12,1.18h-.84c0-.19-.09-.65-.09-.65a2.23,2.23,0,0,1-1.72.78,1.83,1.83,0,0,1-1.95-1.83c0-1.46,1.16-2,2.75-2,.29,0,.59,0,.9,0V97.2a1.16,1.16,0,0,0-1.27-1.33,2.53,2.53,0,0,0-1.39.45Zm1.44,4.63A1.46,1.46,0,0,0,322,98.87v-.93a7.75,7.75,0,0,0-.82,0c-1.19,0-2,.34-2,1.29A1.14,1.14,0,0,0,320.44,100.33Z"/><path d="M324,93.06h.85v7.87H324Z"/><path d="M325.93,93.06h1v1.1h-1Zm.07,2.28h.84v5.59H326Z"/><path d="M328.28,93.91l.81-.27v1.7h1.3V96h-1.3v3.53c0,.71.56.8,1.2.81v.7c-1.22,0-2-.27-2-1.46V96h-.79v-.69h.79Z"/><path d="M330.75,102.59a2.31,2.31,0,0,0,1.9-1.74l-2.06-5.51h.9l1.58,4.46,1.52-4.46h.91l-1.83,5.11c-.6,1.7-1,2.48-2.65,2.85Z"/><path d="M298.16,114a2.66,2.66,0,0,1-1.88.68,3,3,0,0,1,0-5.9,3.54,3.54,0,0,1,1.73.48l-.34.62a2.82,2.82,0,0,0-1.39-.4,2.28,2.28,0,0,0,0,4.51,2.17,2.17,0,0,0,1.42-.52Z"/><path d="M301.13,108.8a3,3,0,1,1-2.6,2.94A2.67,2.67,0,0,1,301.13,108.8Zm0,5.21c.95,0,1.75-.83,1.75-2.27s-.8-2.27-1.75-2.27-1.74.83-1.74,2.27S300.18,114,301.13,114Z"/><path d="M305.47,109.73a2.12,2.12,0,0,1,1.66-.91,2,2,0,0,1,2.13,2.08v3.64h-.85V111a1.35,1.35,0,0,0-1.33-1.5,1.65,1.65,0,0,0-1.61,1.79v3.25h-.85V109h.85Z"/><path d="M310.64,107.53l.81-.27V109h1.31v.68h-1.31v3.53c0,.71.56.8,1.21.81v.7c-1.23,0-2-.27-2-1.46v-3.58h-.78V109h.78Z"/><path d="M314.46,109.75a1.84,1.84,0,0,1,1.66-1,1.42,1.42,0,0,1,.29,0v.74h-.26a1.56,1.56,0,0,0-1.69,1.46v3.53h-.84V109h.84Z"/><path d="M319.05,108.8a3,3,0,1,1-2.61,2.94A2.67,2.67,0,0,1,319.05,108.8Zm0,5.21c.95,0,1.74-.83,1.74-2.27s-.79-2.27-1.74-2.27-1.74.83-1.74,2.27S318.1,114,319.05,114Z"/><path d="M322.54,106.68h.84v7.86h-.84Z"/><path d="M46.3,71.13H40.56a.4.4,0,0,1,0-.79H46.3a.4.4,0,0,1,0,.79Z"/><path d="M50.88,71.13h-2a.4.4,0,0,1,0-.79h2a.4.4,0,0,1,0,.79Z"/><path d="M47.56,72.86H38.93a.39.39,0,0,1-.39-.39.4.4,0,0,1,.39-.39h8.63a.4.4,0,0,1,.39.39A.39.39,0,0,1,47.56,72.86Z"/><path d="M52.51,72.86H49.87a.38.38,0,0,1-.39-.39.39.39,0,0,1,.39-.39h2.64a.4.4,0,0,1,.39.39A.39.39,0,0,1,52.51,72.86Z"/><path d="M49.43,43.66H42a.39.39,0,0,1-.39-.39.38.38,0,0,1,.39-.39h7.42a.39.39,0,0,1,.4.39A.4.4,0,0,1,49.43,43.66Z"/><path d="M53,51.44a.4.4,0,0,1-.35-.21.39.39,0,0,1,.16-.53,7.08,7.08,0,0,0,3.9-6.16c0-3.84-3.43-7-7.79-7.25a.39.39,0,1,1,0-.78c4.78.24,8.53,3.77,8.53,8a7.85,7.85,0,0,1-4.31,6.85A.41.41,0,0,1,53,51.44Z"/><path d="M51.66,48.74a.39.39,0,0,1-.34-.2.39.39,0,0,1,.15-.53,4.1,4.1,0,0,0,2.22-3.47c0-2.18-2.1-4-4.79-4.25a.39.39,0,0,1-.36-.42.41.41,0,0,1,.42-.36c3.14.24,5.51,2.4,5.51,5a4.89,4.89,0,0,1-2.61,4.15A.46.46,0,0,1,51.66,48.74Z"/><path d="M52.22,49.84a.4.4,0,0,1-.35-.21c-.38-.79-.81-1.59-1.26-2.39a16.61,16.61,0,0,1-2.07-7.32.39.39,0,1,1,.78,0,15.67,15.67,0,0,0,2,7c.45.82.88,1.63,1.28,2.43a.39.39,0,0,1-.36.56Z"/><path d="M40.56,52.19a.29.29,0,0,1-.16,0,.38.38,0,0,1-.2-.51c.54-1.19,1.17-2.43,1.88-3.7a17,17,0,0,0,1.15-2.49.4.4,0,0,1,.51-.24.41.41,0,0,1,.23.51,20.41,20.41,0,0,1-1.2,2.6c-.71,1.25-1.33,2.48-1.86,3.64A.38.38,0,0,1,40.56,52.19Z"/><path d="M52.19,65.3a.27.27,0,0,1-.13,0,.39.39,0,0,1-.24-.5,16.37,16.37,0,0,0,.81-5.29A.39.39,0,0,1,53,59.1a.4.4,0,0,1,.39.39A17.15,17.15,0,0,1,52.56,65,.4.4,0,0,1,52.19,65.3Z"/><path d="M50.58,68.3a.39.39,0,0,1-.25-.08.4.4,0,0,1-.06-.55A8.2,8.2,0,0,0,51,66.61a.39.39,0,0,1,.54-.14.38.38,0,0,1,.14.53,8.15,8.15,0,0,1-.79,1.16A.39.39,0,0,1,50.58,68.3Z"/><path d="M52.63,75.47H38.82a.38.38,0,0,1-.39-.39V72.79a1.15,1.15,0,0,1,.34-.82L40,70.76c-2.69-2.38-4.16-6.35-4.16-11.27,0-4.07,2.37-9.16,4.37-12.7a15.21,15.21,0,0,0,1.94-7.41v-6a2.58,2.58,0,0,0-.54-1.58l-1.68-2.12a.79.79,0,0,1-.1-.86.82.82,0,0,1,.74-.46H49.4a.82.82,0,0,1,.66.33.81.81,0,0,1,.13.71L49.41,32a2.44,2.44,0,0,0-.1.71v5.41a.4.4,0,0,1-.39.39.39.39,0,0,1-.39-.39V32.74a3.22,3.22,0,0,1,.13-.93l.78-2.66a.08.08,0,0,0,0,0H40.55a0,0,0,0,0,0,0s0,0,0,0l1.68,2.12a3.33,3.33,0,0,1,.72,2.06v6a16,16,0,0,1-2.05,7.79c-1.95,3.46-4.27,8.42-4.27,12.32,0,4.87,1.49,8.76,4.21,10.94a.38.38,0,0,1,.12.43.36.36,0,0,1-.13.19l-1.48,1.48a.35.35,0,0,0-.11.26v1.9h13v-1.9a.35.35,0,0,0-.1-.26L50.63,71a.43.43,0,0,1-.12-.17.4.4,0,0,1,.13-.43c2.71-2.18,4.2-6.07,4.2-10.94a21.46,21.46,0,0,0-2.22-8.29.39.39,0,0,1,.71-.32,22.16,22.16,0,0,1,2.3,8.61c0,4.92-1.48,8.89-4.17,11.27L52.68,72a1.19,1.19,0,0,1,.34.82v2.29A.39.39,0,0,1,52.63,75.47Z"/><path d="M48.92,29.1a.38.38,0,0,1-.39-.39V26.33H42.92v2.38a.4.4,0,0,1-.79,0V25.93a.4.4,0,0,1,.4-.39h6.39a.4.4,0,0,1,.39.39v2.78A.39.39,0,0,1,48.92,29.1Z"/><path d="M46.71,33.73H42.53a.39.39,0,1,1,0-.78h4.18a.39.39,0,1,1,0,.78Z"/><path d="M59.13,52.48h0a1,1,0,0,1-.65-.22.92.92,0,0,1-.32-.82c.07-1.46,2-4.15,5.54-6.46,3.81-2.56,9-2.76,10.56-2.76,1,0,1.16,0,1.26.3a.39.39,0,0,1-.1.43.34.34,0,0,1-.19.09A93.5,93.5,0,0,0,66,48.55h0l-2.07,1.35C61.52,51.52,60.06,52.48,59.13,52.48ZM73.59,43c-1.84.06-6.26.46-9.45,2.61-3.46,2.25-5,4.63-5.18,5.69a.71.71,0,0,0,0,.34.25.25,0,0,0,.16,0c.69,0,2.31-1.08,4.37-2.44l2.06-1.36c2.13-1.47,4.7-3,6-3.76C72.25,43.76,73,43.35,73.59,43Z"/><path d="M84.32,61.53c-1,0-2-1.64-3.83-4.62-.4-.65-.86-1.4-1.35-2.17v0a85.75,85.75,0,0,0-6.32-9.14.45.45,0,0,1-.13-.17.41.41,0,0,1,0-.37.4.4,0,0,1,.33-.18h0a.31.31,0,0,1,.13,0c1.13.34,6.93,3.06,9.61,7.5,2.31,3.72,2.94,7.07,2.37,8.46a.93.93,0,0,1-.65.63A.67.67,0,0,1,84.32,61.53Zm-4.51-7.21c.49.78.94,1.53,1.35,2.18,1.33,2.18,2.59,4.24,3.16,4.24h.06a.57.57,0,0,0,.14-.28c.32-1.05,0-4-2.35-7.64-2-3.31-5.81-5.6-7.85-6.6.43.57.92,1.24,1.41,1.93C76.68,49.45,78.46,52,79.81,54.32Z"/><path d="M68.15,73.9c-2.26,0-4.1-2.23-4.1-5s1.84-5,4.1-5,4.09,2.23,4.09,5S70.4,73.9,68.15,73.9Zm0-9.14c-1.83,0-3.31,1.87-3.31,4.17s1.48,4.18,3.31,4.18,3.31-1.87,3.31-4.18S70,64.76,68.15,64.76Z"/><path d="M68.15,71.94c-1,0-2.14-1.21-2.14-3a.4.4,0,0,1,.39-.39.39.39,0,0,1,.39.39c0,1.38.79,2.23,1.36,2.23a.39.39,0,0,1,.39.39A.4.4,0,0,1,68.15,71.94Z"/><path d="M75.24,66.82a5,5,0,0,1-4.33-3.09c-1.16-2.48-.44-5.27,1.61-6.22A3.4,3.4,0,0,1,74,57.18a5,5,0,0,1,4.34,3.09c1.15,2.48.43,5.28-1.62,6.23A3.5,3.5,0,0,1,75.24,66.82ZM74,58a2.79,2.79,0,0,0-1.14.25c-1.65.78-2.21,3.1-1.23,5.19A4.27,4.27,0,0,0,75.24,66a2.6,2.6,0,0,0,1.14-.25c1.66-.77,2.21-3.1,1.24-5.19A4.3,4.3,0,0,0,74,58Z"/><path d="M75.24,64.87a3.08,3.08,0,0,1-2.56-2,.4.4,0,0,1,.19-.52.4.4,0,0,1,.52.19,2.36,2.36,0,0,0,1.85,1.51.4.4,0,0,1,0,.79Z"/><path d="M68.15,65.82a.38.38,0,0,1-.39-.38,53.54,53.54,0,0,1,.91-9.37c.89-4.68,2.85-11,7.12-14.51a.39.39,0,1,1,.49.61c-7.85,6.46-7.74,23.09-7.74,23.26a.39.39,0,0,1-.39.39Z"/><path d="M73.22,59.1a.37.37,0,0,1-.31-.16c-2.36-3.11-3.61-5.1-3.63-5.12A.4.4,0,0,1,70,53.4s1.25,2,3.58,5.07a.4.4,0,0,1-.07.55A.43.43,0,0,1,73.22,59.1Z"/><path d="M62.3,61.73a3.58,3.58,0,0,1-2.06-.63,3.73,3.73,0,0,1-1.54-2.89,5.48,5.48,0,0,1,1-3.52,5.25,5.25,0,0,1,4.14-2.35,3.58,3.58,0,0,1,2.06.63,3.76,3.76,0,0,1,1.54,2.89,5.54,5.54,0,0,1-1,3.52A5.27,5.27,0,0,1,62.3,61.73Zm1.57-8.61a4.46,4.46,0,0,0-3.5,2,4.69,4.69,0,0,0-.89,3,3,3,0,0,0,1.21,2.31A2.76,2.76,0,0,0,62.3,61a4.5,4.5,0,0,0,3.5-2,4.79,4.79,0,0,0,.89-3,3,3,0,0,0-1.21-2.3A2.79,2.79,0,0,0,63.87,53.12Z"/><path d="M61.58,59.57a.4.4,0,0,1-.22-.08,1.85,1.85,0,0,1-.71-1.42,3.67,3.67,0,0,1,.68-2.26.4.4,0,0,1,.55-.1.39.39,0,0,1,.09.55A2.84,2.84,0,0,0,61.43,58a1.07,1.07,0,0,0,.38.83.39.39,0,0,1,.09.55A.37.37,0,0,1,61.58,59.57Z"/><path d="M65.25,54.32a.42.42,0,0,1-.32-.16.4.4,0,0,1,.09-.55,32.41,32.41,0,0,1,5.19-3,.38.38,0,0,1,.51.2.39.39,0,0,1-.2.52,32.24,32.24,0,0,0-5,2.87A.34.34,0,0,1,65.25,54.32Z"/><path d="M201.63,41.68h0l-2.76-2.76h0l-5.52-5.52h0l-2.76-2.76h0l-5.52-5.52h0L184,24a1.87,1.87,0,0,0-2.63,0L165.9,39.47a1.86,1.86,0,0,0,0,2.62l5.3,5.31a2.61,2.61,0,0,0,.15,3.34l1.49,1.5-2.92,2.93a1.78,1.78,0,0,0-2.09.3l-6.15,6.15a1.76,1.76,0,0,0,0,2.5l.91.91a1.79,1.79,0,0,0,1.25.52,1.75,1.75,0,0,0,1.25-.52l6.15-6.15a1.76,1.76,0,0,0,.3-2.09l2.93-2.92,1.5,1.49a2.38,2.38,0,0,0,1.72.68,2.78,2.78,0,0,0,1.63-.53l5.3,5.3a1.86,1.86,0,0,0,2.62,0l15.45-15.45a1.86,1.86,0,0,0,0-2.62Zm-6.29-5.26-17,17-2.25-2.25,17-17Zm-2.76-2.76-17,17-2.25-2.25,17-17Zm-26.16,7.92a1.12,1.12,0,0,1,0-1.59l15.45-15.45a1.12,1.12,0,0,1,1.59,0l.84.84-17,17Zm1.35,1.36,17-17,2.24,2.25-17,17Zm2.76,2.76,17.05-17.05,2.24,2.25-17,17-.82-.82h0ZM170,56.15l.6.59-1.09,1.08-.59-.59Zm.75,2.22-6.14,6.14a1,1,0,0,1-.74.31,1,1,0,0,1-.73-.31l-.91-.91a1,1,0,0,1-.31-.73,1,1,0,0,1,.31-.74L168.34,56a1.07,1.07,0,0,1,.74-.31.92.92,0,0,1,.28,0L168.11,57a.37.37,0,0,0-.1.26.35.35,0,0,0,.1.26l1.11,1.11a.36.36,0,0,0,.52,0L171,57.35A1,1,0,0,1,170.72,58.37Zm.36-2.15-.59-.59,2.87-2.87.59.59Zm5.4-1.37-1.75-1.76h0l-.56-.55-2.31-2.31a1.87,1.87,0,0,1-.14-2.31L178.8,55A1.89,1.89,0,0,1,176.48,54.85Zm3.11-.09h0l-.78-.79,17-17,2.25,2.24-17,17Zm2,2,17-17,2.25,2.24L183.81,59Zm20.6-11.89L186.72,60.29a1.12,1.12,0,0,1-1.59,0l-.8-.8,17-17,.8.8A1.12,1.12,0,0,1,202.17,44.84Z"/><path d="M189.12,77.53H189a.34.34,0,0,1-.22-.43c.43-1.33-.62-2.67-1.74-4.09a10.36,10.36,0,0,1-1.77-2.81,6.92,6.92,0,0,1,.33-5.38c-1.6.6-2,2-2.42,3.25a9.36,9.36,0,0,1-.53,1.44,2.13,2.13,0,0,1-2,1.29,2.5,2.5,0,0,1-2.15-1.65,9.41,9.41,0,0,1,.48-6.7,4.82,4.82,0,0,0-3,4.62c0,2.3-.31,6.29-1.85,7.09a1.63,1.63,0,0,1-1.71-.24c-.88-.6-.78-1.4-.65-2.42a10,10,0,0,0-.07-3.6,5.82,5.82,0,0,1-2.23,2.67c-1.87,1.19-3.11,2.1-3.4,3.66a6.44,6.44,0,0,0,0,2.9.35.35,0,0,1-.26.41.34.34,0,0,1-.4-.27,7.17,7.17,0,0,1,0-3.2c.34-1.79,1.74-2.82,3.7-4.08a5,5,0,0,0,2.24-3.32.39.39,0,0,1,.34-.32.45.45,0,0,1,.4.28,10.79,10.79,0,0,1,.37,5c-.13,1-.15,1.42.35,1.76s.91.25,1,.2c.87-.45,1.44-2.94,1.49-6.49,0-2.91,1.64-4.82,4.91-5.85a.36.36,0,0,1,.44.21.37.37,0,0,1-.17.44c-2,.94-2,5.48-1.39,7a1.81,1.81,0,0,0,1.54,1.22,1.52,1.52,0,0,0,1.4-.92,7.88,7.88,0,0,0,.49-1.33c.47-1.52,1-3.4,3.66-3.93a.42.42,0,0,1,.39.17.39.39,0,0,1,0,.43,6.06,6.06,0,0,0-.65,5.44,9.79,9.79,0,0,0,1.66,2.61c1.18,1.49,2.39,3,1.85,4.72A.35.35,0,0,1,189.12,77.53Z"/><path d="M327,50.9h-2.36v-3.3a.37.37,0,0,0-.37-.37H310.92V44.36h4.15a.79.79,0,0,0,.79-.79V26.69a.79.79,0,0,0-.79-.8H307.8l-.12,0-.14.08L302,31.58a.3.3,0,0,0-.07.11.45.45,0,0,0,0,.13l0,.09V42.82a1.54,1.54,0,0,0,1.54,1.54h6.79v2.88H296.86a.36.36,0,0,0-.37.34v.1h0v3.23h-2.81l-.12,0-.14.08-4.17,4.18a.26.26,0,0,0-.07.1.5.5,0,0,0,0,.14l0,.09v8.15a1.25,1.25,0,0,0,1.24,1.24h8.75a.68.68,0,0,0,.68-.68V51.59a.68.68,0,0,0-.68-.69h-1.9V48h12.95v2.94h-2.57a.33.33,0,0,0-.12,0l-.14.08-4.18,4.18-.07.1c0,.07,0,.1,0,.14v8.24a1.24,1.24,0,0,0,1.24,1.24h8.74a.69.69,0,0,0,.69-.68V51.59a.69.69,0,0,0-.69-.69h-2.13V48h13v2.94h-2.37l-.1,0-.14.08-4.17,4.18a.26.26,0,0,0-.07.1.5.5,0,0,0,0,.14l0,.09v8.15a1.25,1.25,0,0,0,1.24,1.24H327a.68.68,0,0,0,.68-.68V51.59A.68.68,0,0,0,327,50.9Zm-33.66,1.26v2.92H290.4Zm5.76-.52V64.17h-8.7a.5.5,0,0,1-.5-.51V55.82h3.8a.38.38,0,0,0,.37-.37V51.64Zm8.35-24.49v4.32h-4.32Zm-.19,25v2.92h-2.92Zm5.76-.52V64.17h-8.69a.51.51,0,0,1-.51-.51V55.82h3.81a.38.38,0,0,0,.37-.37V51.64Zm-9.61-8a.83.83,0,0,1-.57-.23.79.79,0,0,1-.23-.57V32.21h5.21a.38.38,0,0,0,.37-.37V26.63h7v17Zm17.78,8.54v2.92h-2.92Zm-2.94,12a.5.5,0,0,1-.5-.51V55.82h3.8a.37.37,0,0,0,.37-.37V51.64h5V64.17Z"/><path d="M305.18,36.1h7.36a.48.48,0,0,0,0-1h-7.36a.48.48,0,0,0,0,1Z"/><path d="M305.18,38.73h7.36a.47.47,0,0,0,0-.94h-7.36a.47.47,0,0,0,0,.94Z"/><path d="M305.18,41.37h7.36a.47.47,0,0,0,.47-.47.48.48,0,0,0-.47-.48h-7.36a.48.48,0,0,0-.47.48A.47.47,0,0,0,305.18,41.37Z"/><path d="M297.51,68.89l-2.93,3.75a.22.22,0,0,1-.18.09.21.21,0,0,1-.2-.09l-1.05-1.32a.41.41,0,0,0-.3-.14.35.35,0,0,0-.23.09.37.37,0,0,0-.06.52l1.06,1.33a1,1,0,0,0,1.55,0l2.93-3.76a.4.4,0,0,0,.08-.28.41.41,0,0,0-.15-.25A.36.36,0,0,0,297.51,68.89Z"/><path d="M297.19,72.55a.38.38,0,0,0-.37.38v1.86a.23.23,0,0,1-.24.23h-4.81a.23.23,0,0,1-.24-.23V70a.24.24,0,0,1,.24-.24h3.54a.38.38,0,0,0,0-.75h-3.54a1,1,0,0,0-1,1v4.82a1,1,0,0,0,1,1h4.81a1,1,0,0,0,1-1V72.93A.38.38,0,0,0,297.19,72.55Z"/><path d="M311.43,68.89l-2.93,3.75a.2.2,0,0,1-.17.09.19.19,0,0,1-.2-.09l-1.06-1.32a.37.37,0,0,0-.29-.14.38.38,0,0,0-.24.09.39.39,0,0,0-.14.25.36.36,0,0,0,.08.27l1.06,1.33a1,1,0,0,0,.77.37,1,1,0,0,0,.79-.38L312,69.35a.36.36,0,0,0,.08-.28.35.35,0,0,0-.14-.25A.37.37,0,0,0,311.43,68.89Z"/><path d="M311.12,72.55a.38.38,0,0,0-.38.38v1.86a.23.23,0,0,1-.23.23h-4.82a.23.23,0,0,1-.24-.23V70a.24.24,0,0,1,.24-.24h3.54a.38.38,0,1,0,0-.75h-3.54a1,1,0,0,0-1,1v4.82a1,1,0,0,0,1,1h4.82a1,1,0,0,0,1-1V72.93A.38.38,0,0,0,311.12,72.55Z"/><path d="M325.36,68.89l-2.93,3.75a.22.22,0,0,1-.18.09.21.21,0,0,1-.2-.09L321,71.32a.41.41,0,0,0-.3-.14.35.35,0,0,0-.23.09.37.37,0,0,0-.06.52l1.06,1.33a1,1,0,0,0,1.55,0L326,69.35a.4.4,0,0,0,.08-.28.41.41,0,0,0-.15-.25A.36.36,0,0,0,325.36,68.89Z"/><path d="M325,72.55a.38.38,0,0,0-.37.38v1.86a.23.23,0,0,1-.24.23h-4.81a.23.23,0,0,1-.24-.23V70a.24.24,0,0,1,.24-.24h3.54a.38.38,0,0,0,0-.75h-3.54a1,1,0,0,0-1,1v4.82a1,1,0,0,0,1,1h4.81a1,1,0,0,0,1-1V72.93A.38.38,0,0,0,325,72.55Z"/></g></g></svg>