<svg xmlns="http://www.w3.org/2000/svg" viewBox="0 0 364.4 138"><defs><style>.cls-1{fill:none;stroke:#f5f5f5;stroke-miterlimit:10;stroke-width:2px;}.cls-2{fill:#231815;}</style></defs><title>자산 160</title><g id="레이어_2" data-name="레이어 2"><g id="레이어_1-2" data-name="레이어 1"><rect class="cls-1" x="1" y="1" width="110" height="136" rx="15.22"/><rect class="cls-1" x="127.2" y="1" width="110" height="136" rx="15.22"/><rect class="cls-1" x="253.4" y="1" width="110" height="136" rx="15.22"/><path class="cls-2" d="M49.16,93.25a2.38,2.38,0,1,1,0,4.76h-1.7v2.92h-.84V93.25Zm-1.69.69V97.3h1.69a1.68,1.68,0,0,0,0-3.36Z"/><path class="cls-2" d="M56.28,100.15a2.11,2.11,0,0,1-1.66.92A2,2,0,0,1,52.49,99V95.34h.84v3.54a1.37,1.37,0,0,0,1.34,1.51,1.66,1.66,0,0,0,1.61-1.8V95.34h.84v5.59h-.84Z"/><path class="cls-2" d="M59.14,96.14a1.83,1.83,0,0,1,1.66-1l.29,0V96l-.26,0a1.57,1.57,0,0,0-1.69,1.47v3.53H58.3V95.34h.84Z"/><path class="cls-2" d="M65.65,100.49a2.92,2.92,0,0,1-1.78.58,2.69,2.69,0,0,1-2.74-2.85c0-1.75.94-3.06,2.49-3.06A2.48,2.48,0,0,1,66,97.84a3.52,3.52,0,0,1,0,.45H62a1.9,1.9,0,0,0,1.91,2.09,2.42,2.42,0,0,0,1.41-.45Zm-.44-2.89a1.64,1.64,0,0,0-1.59-1.73A1.82,1.82,0,0,0,62,97.6Z"/><path class="cls-2" d="M28.27,108.77a1.87,1.87,0,0,1,1.69,1V109h.85V114a2.47,2.47,0,0,1-2.52,2.77,3.88,3.88,0,0,1-2-.54l.29-.64a3.55,3.55,0,0,0,1.65.47c.91,0,1.69-.62,1.69-2.08v-.4a1.93,1.93,0,0,1-1.7.95c-1.45,0-2.47-1.1-2.47-2.9S26.84,108.77,28.27,108.77Zm0,.71c-1.21,0-1.64,1.08-1.64,2.2s.56,2.2,1.64,2.2,1.65-.9,1.67-2.06v-.07C30,110.2,29.27,109.48,28.29,109.48Z"/><path class="cls-2" d="M32.83,109.75a1.82,1.82,0,0,1,1.65-1,1.53,1.53,0,0,1,.3,0v.74l-.27,0A1.56,1.56,0,0,0,32.83,111v3.53H32V109h.85Z"/><path class="cls-2" d="M35.29,109.31a3.45,3.45,0,0,1,1.85-.54A1.84,1.84,0,0,1,39,109.94a2.8,2.8,0,0,1,.13,1v2.47a5.18,5.18,0,0,0,.11,1.18h-.84c0-.19-.09-.65-.09-.65a2.21,2.21,0,0,1-1.72.78,1.83,1.83,0,0,1-2-1.83c0-1.46,1.17-2,2.75-2,.3,0,.59,0,.9,0v-.07A1.16,1.16,0,0,0,37,109.48a2.53,2.53,0,0,0-1.39.45Zm1.43,4.63a1.46,1.46,0,0,0,1.59-1.46v-.93a7.63,7.63,0,0,0-.82,0c-1.18,0-2,.34-2,1.29A1.14,1.14,0,0,0,36.72,113.94Z"/><path class="cls-2" d="M42.8,108.8c1.51,0,2.48,1.14,2.48,3s-1,2.9-2.48,2.9a2,2,0,0,1-1.69-.87v3.08h-.84V109h.84v.79A1.94,1.94,0,0,1,42.8,108.8Zm0,.68c-1,0-1.64.71-1.67,2.18v.21c0,1.16.57,2.16,1.67,2.16s1.64-1.15,1.64-2.24S44,109.48,42.78,109.48Z"/><path class="cls-2" d="M50.4,114.1a2.93,2.93,0,0,1-1.79.58,2.69,2.69,0,0,1-2.74-2.85c0-1.75.94-3.06,2.5-3.06a2.48,2.48,0,0,1,2.4,2.68,3.52,3.52,0,0,1,0,.45h-4A1.9,1.9,0,0,0,48.65,114a2.42,2.42,0,0,0,1.41-.45ZM50,111.21a1.64,1.64,0,0,0-1.59-1.73,1.84,1.84,0,0,0-1.6,1.73Z"/><path class="cls-2" d="M56.77,109.9a2.2,2.2,0,0,0-1.17-.42c-.62,0-.94.32-.94.75s.4.76,1.27,1.18,1.47.88,1.47,1.69a1.66,1.66,0,0,1-1.86,1.6,2.61,2.61,0,0,1-1.95-.79l.46-.58a2.24,2.24,0,0,0,1.46.67c.57,0,1.06-.28,1.06-.88s-.5-.79-1.09-1.06c-.76-.35-1.62-.8-1.62-1.77a1.51,1.51,0,0,1,1.69-1.51,2.86,2.86,0,0,1,1.61.52Z"/><path class="cls-2" d="M62.45,114.1a2.92,2.92,0,0,1-1.78.58,2.69,2.69,0,0,1-2.74-2.85c0-1.75.94-3.06,2.49-3.06a2.48,2.48,0,0,1,2.4,2.68,3.52,3.52,0,0,1,0,.45h-4A1.9,1.9,0,0,0,60.71,114a2.42,2.42,0,0,0,1.41-.45ZM62,111.21a1.64,1.64,0,0,0-1.59-1.73,1.82,1.82,0,0,0-1.59,1.73Z"/><path class="cls-2" d="M67.92,114.1a2.92,2.92,0,0,1-1.78.58,2.7,2.7,0,0,1-2.75-2.85c0-1.75.94-3.06,2.5-3.06a2.48,2.48,0,0,1,2.4,2.68,3.52,3.52,0,0,1,0,.45h-4A1.89,1.89,0,0,0,66.18,114a2.46,2.46,0,0,0,1.41-.45Zm-.44-2.89a1.64,1.64,0,0,0-1.59-1.73,1.82,1.82,0,0,0-1.59,1.73Z"/><path class="cls-2" d="M71.34,108.8a2,2,0,0,1,1.7.94v-3.06h.84v7.86H73v-.73a2,2,0,0,1-1.7.87c-1.51,0-2.48-1.1-2.48-2.9S69.83,108.8,71.34,108.8Zm0,.68c-1.21,0-1.64,1.19-1.64,2.31s.5,2.24,1.64,2.24S73,113,73,111.87v-.21C73,110.19,72.33,109.48,71.36,109.48Z"/><path class="cls-2" d="M79.82,108.8a3,3,0,1,1-2.61,2.94A2.67,2.67,0,0,1,79.82,108.8Zm0,5.21c1,0,1.74-.83,1.74-2.27s-.79-2.27-1.74-2.27-1.75.83-1.75,2.27S78.87,114,79.82,114Z"/><path class="cls-2" d="M83.24,106.68h1v1.09h-1Zm.07,2.27h.84v5.59h-.84Z"/><path class="cls-2" d="M85.33,106.68h.84v7.86h-.84Z"/><path d="M151,93.94h-2.35v7h-.84v-7h-2.35v-.69H151Z"/><path d="M151.49,96.14a1.82,1.82,0,0,1,1.66-1l.29,0V96l-.26,0a1.56,1.56,0,0,0-1.69,1.47v3.53h-.84V95.34h.84Z"/><path d="M154,95.7a3.45,3.45,0,0,1,1.85-.54,1.84,1.84,0,0,1,1.88,1.17,2.8,2.8,0,0,1,.13,1v2.47a4.72,4.72,0,0,0,.12,1.18h-.84c0-.19-.09-.65-.09-.65a2.25,2.25,0,0,1-1.73.78,1.83,1.83,0,0,1-2-1.83c0-1.46,1.17-2,2.76-2,.29,0,.58,0,.9,0V97.2a1.17,1.17,0,0,0-1.28-1.33,2.53,2.53,0,0,0-1.39.45Zm1.43,4.63a1.47,1.47,0,0,0,1.6-1.46v-.93a7.94,7.94,0,0,0-.83,0c-1.18,0-2,.34-2,1.29A1.13,1.13,0,0,0,155.38,100.33Z"/><path d="M161.11,95.19a2,2,0,0,1,1.7.94V93.06h.84v7.87h-.84v-.73a2,2,0,0,1-1.7.87c-1.51,0-2.48-1.1-2.48-2.9S159.6,95.19,161.11,95.19Zm0,.68c-1.2,0-1.63,1.19-1.63,2.31s.5,2.24,1.63,2.24,1.65-1,1.68-2.16v-.21C162.78,96.58,162.1,95.87,161.13,95.87Z"/><path d="M164.76,93.06h1v1.1h-1Zm.07,2.28h.84v5.59h-.84Z"/><path d="M167.1,93.91l.82-.27v1.7h1.3V96h-1.3v3.53c0,.71.55.8,1.2.81v.7c-1.22,0-2-.27-2-1.46V96h-.78v-.69h.78Z"/><path d="M170,93.06h1v1.1h-1Zm.07,2.28h.84v5.59h-.84Z"/><path d="M174.41,95.19a3,3,0,1,1-2.6,2.94A2.67,2.67,0,0,1,174.41,95.19Zm0,5.21c1,0,1.75-.83,1.75-2.27s-.8-2.27-1.75-2.27-1.74.83-1.74,2.27S173.46,100.4,174.41,100.4Z"/><path d="M178.74,96.12a2.12,2.12,0,0,1,1.67-.92,2,2,0,0,1,2.12,2.09v3.64h-.84V97.39a1.36,1.36,0,0,0-1.33-1.51,1.66,1.66,0,0,0-1.62,1.8v3.25h-.84V95.34h.84Z"/><path d="M183.9,95.7a3.45,3.45,0,0,1,1.85-.54,1.84,1.84,0,0,1,1.88,1.17,2.8,2.8,0,0,1,.13,1v2.47a4.72,4.72,0,0,0,.12,1.18H187c0-.19-.08-.65-.08-.65a2.25,2.25,0,0,1-1.73.78,1.83,1.83,0,0,1-1.95-1.83c0-1.46,1.17-2,2.75-2,.3,0,.59,0,.91,0V97.2a1.17,1.17,0,0,0-1.28-1.33,2.53,2.53,0,0,0-1.39.45Zm1.43,4.63a1.47,1.47,0,0,0,1.6-1.46v-.93a7.94,7.94,0,0,0-.83,0c-1.18,0-2,.34-2,1.29A1.14,1.14,0,0,0,185.33,100.33Z"/><path d="M188.88,93.06h.84v7.87h-.84Z"/><path d="M195.53,95.16a1.87,1.87,0,0,1,1.69,1v-.79h.85v5.09a2.47,2.47,0,0,1-2.52,2.77,3.88,3.88,0,0,1-2-.54l.29-.64a3.52,3.52,0,0,0,1.65.47c.91,0,1.69-.62,1.69-2.08V100a1.93,1.93,0,0,1-1.7.95c-1.45,0-2.47-1.1-2.47-2.9S194.1,95.16,195.53,95.16Zm0,.71c-1.21,0-1.64,1.08-1.64,2.2s.56,2.2,1.64,2.2,1.65-.9,1.67-2.06v-.07C197.22,96.59,196.53,95.87,195.55,95.87Z"/><path d="M200.09,96.14a1.82,1.82,0,0,1,1.65-1l.3,0V96l-.27,0a1.56,1.56,0,0,0-1.68,1.47v3.53h-.84V95.34h.84Z"/><path d="M202.54,93.06h1v1.1h-1Zm.07,2.28h.84v5.59h-.84Z"/><path d="M204.63,93.06h.84v7.87h-.84Z"/><path d="M206.64,93.06h.85v7.87h-.85Z"/><path d="M212.89,100.49a2.9,2.9,0,0,1-1.78.58,2.69,2.69,0,0,1-2.74-2.85c0-1.75.94-3.06,2.5-3.06a2.48,2.48,0,0,1,2.4,2.68,3.52,3.52,0,0,1,0,.45h-4a1.9,1.9,0,0,0,1.91,2.09,2.42,2.42,0,0,0,1.41-.45Zm-.44-2.89a1.63,1.63,0,0,0-1.58-1.73,1.84,1.84,0,0,0-1.6,1.73Z"/><path d="M216.32,95.19a1.94,1.94,0,0,1,1.69.94V93.06h.84v7.87H218v-.73a2,2,0,0,1-1.69.87c-1.51,0-2.48-1.1-2.48-2.9S214.81,95.19,216.32,95.19Zm0,.68c-1.21,0-1.64,1.19-1.64,2.31s.5,2.24,1.64,2.24,1.64-1,1.67-2.16v-.21C218,96.58,217.3,95.87,216.34,95.87Z"/><path d="M155.41,108.29a2.2,2.2,0,0,0-1.17-.42c-.62,0-.94.32-.94.75s.4.76,1.27,1.18,1.47.88,1.47,1.69a1.66,1.66,0,0,1-1.86,1.6,2.58,2.58,0,0,1-1.94-.79l.45-.58a2.25,2.25,0,0,0,1.47.67c.56,0,1.05-.28,1.05-.88s-.5-.79-1.08-1.06c-.77-.35-1.63-.8-1.63-1.77a1.51,1.51,0,0,1,1.69-1.51,2.86,2.86,0,0,1,1.61.52Z"/><path d="M161.09,112.49a2.9,2.9,0,0,1-1.78.58,2.69,2.69,0,0,1-2.74-2.85c0-1.75.94-3.06,2.49-3.06a2.48,2.48,0,0,1,2.4,2.68c0,.15,0,.29,0,.45h-4a1.9,1.9,0,0,0,1.91,2.09,2.42,2.42,0,0,0,1.41-.45Zm-.44-2.89a1.64,1.64,0,0,0-1.59-1.73,1.83,1.83,0,0,0-1.59,1.73Z"/><path d="M162.56,107.7a3.48,3.48,0,0,1,1.86-.54,1.85,1.85,0,0,1,1.88,1.17,2.84,2.84,0,0,1,.12,1v2.47a4.72,4.72,0,0,0,.12,1.18h-.84c0-.19-.09-.65-.09-.65a2.23,2.23,0,0,1-1.72.78,1.83,1.83,0,0,1-1.95-1.83c0-1.46,1.16-2,2.75-2,.29,0,.59,0,.9,0v-.07a1.16,1.16,0,0,0-1.27-1.33,2.53,2.53,0,0,0-1.39.45Zm1.43,4.63a1.46,1.46,0,0,0,1.6-1.46v-.93a7.75,7.75,0,0,0-.82,0c-1.19,0-2,.34-2,1.29A1.14,1.14,0,0,0,164,112.33Z"/><path d="M169,111.77l1.16-4.43H171l1.17,4.42,1.19-4.42h.82l-1.59,5.59h-.81l-1.21-4.51-1.2,4.51h-.81l-1.59-5.59h.83Z"/><path d="M179,112.49a2.93,2.93,0,0,1-1.79.58,2.69,2.69,0,0,1-2.74-2.85c0-1.75.94-3.06,2.5-3.06a2.48,2.48,0,0,1,2.4,2.68,3.52,3.52,0,0,1,0,.45h-4a1.9,1.9,0,0,0,1.91,2.09,2.42,2.42,0,0,0,1.41-.45Zm-.44-2.89a1.64,1.64,0,0,0-1.59-1.73,1.84,1.84,0,0,0-1.6,1.73Z"/><path d="M184.44,112.49a2.93,2.93,0,0,1-1.79.58,2.69,2.69,0,0,1-2.74-2.85c0-1.75.94-3.06,2.5-3.06a2.48,2.48,0,0,1,2.4,2.68,3.52,3.52,0,0,1,0,.45h-4a1.9,1.9,0,0,0,1.91,2.09,2.42,2.42,0,0,0,1.41-.45ZM184,109.6a1.63,1.63,0,0,0-1.58-1.73,1.84,1.84,0,0,0-1.6,1.73Z"/><path d="M187.86,107.19a1.94,1.94,0,0,1,1.69.94v-3.07h.84v7.87h-.84v-.73a2,2,0,0,1-1.69.87c-1.51,0-2.48-1.1-2.48-2.9S186.35,107.19,187.86,107.19Zm0,.68c-1.21,0-1.64,1.19-1.64,2.31s.5,2.24,1.64,2.24,1.64-1,1.67-2.16v-.21C189.52,108.58,188.85,107.87,187.88,107.87Z"/><path d="M196.33,107.19a3,3,0,1,1-2.6,2.94A2.67,2.67,0,0,1,196.33,107.19Zm0,5.21c.95,0,1.75-.83,1.75-2.27s-.8-2.27-1.75-2.27-1.74.83-1.74,2.27S195.38,112.4,196.33,112.4Z"/><path d="M201.53,111.89l1.61-4.55h.9L202,112.93h-.87L199,107.34h.89Z"/><path d="M208.64,112.49a2.92,2.92,0,0,1-1.78.58,2.69,2.69,0,0,1-2.74-2.85c0-1.75.94-3.06,2.49-3.06a2.48,2.48,0,0,1,2.4,2.68,3.52,3.52,0,0,1,0,.45h-4a1.9,1.9,0,0,0,1.91,2.09,2.42,2.42,0,0,0,1.41-.45Zm-.44-2.89a1.64,1.64,0,0,0-1.59-1.73A1.83,1.83,0,0,0,205,109.6Z"/><path d="M210.72,108.14a1.82,1.82,0,0,1,1.66-1l.29,0V108l-.26,0a1.56,1.56,0,0,0-1.69,1.47v3.53h-.84v-5.59h.84Z"/><path d="M164.68,119.19a1.94,1.94,0,0,1,1.69.94v-3.07h.84v7.87h-.84v-.73a2,2,0,0,1-1.69.87c-1.51,0-2.48-1.1-2.48-2.9S163.17,119.19,164.68,119.19Zm0,.68c-1.2,0-1.63,1.19-1.63,2.31s.5,2.24,1.63,2.24,1.65-1,1.68-2.16v-.21C166.34,120.58,165.66,119.87,164.69,119.87Z"/><path d="M168.32,117.06h1v1.1h-1Zm.07,2.28h.84v5.59h-.84Z"/><path d="M171.25,120.14a1.82,1.82,0,0,1,1.66-1l.29,0V120l-.26,0a1.57,1.57,0,0,0-1.69,1.47v3.53h-.84v-5.59h.84Z"/><path d="M177.76,124.49a2.93,2.93,0,0,1-1.79.58,2.69,2.69,0,0,1-2.74-2.85c0-1.75.94-3.06,2.5-3.06a2.48,2.48,0,0,1,2.4,2.68,3.52,3.52,0,0,1,0,.45h-4a1.9,1.9,0,0,0,1.91,2.09,2.42,2.42,0,0,0,1.41-.45Zm-.44-2.89a1.64,1.64,0,0,0-1.59-1.73,1.84,1.84,0,0,0-1.6,1.73Z"/><path d="M183.34,124.39a2.64,2.64,0,0,1-1.87.68,3,3,0,0,1,0-5.91,3.44,3.44,0,0,1,1.73.49l-.34.62a2.82,2.82,0,0,0-1.39-.4,2.28,2.28,0,0,0,0,4.51,2.17,2.17,0,0,0,1.42-.52Z"/><path d="M184.27,117.91l.81-.27v1.7h1.3V120h-1.3v3.53c0,.71.56.8,1.2.81v.7c-1.22,0-2-.27-2-1.46V120h-.79v-.69h.79Z"/><path d="M189.94,119.34v-.6a3,3,0,0,1,.11-.88,1.4,1.4,0,0,1,1.42-1,3.06,3.06,0,0,1,1,.21l-.25.66a2.29,2.29,0,0,0-.69-.14.68.68,0,0,0-.69.44,1.89,1.89,0,0,0-.1.69v.63H192V120h-1.17v4.9h-.84V120h-.77v-.69Z"/><path d="M192.8,117.06h1v1.1h-1Zm.07,2.28h.84v5.59h-.84Z"/><path d="M195.73,120.14a1.82,1.82,0,0,1,1.66-1l.29,0V120l-.26,0a1.56,1.56,0,0,0-1.69,1.47v3.53h-.84v-5.59h.84Z"/><path d="M202.24,124.49a2.93,2.93,0,0,1-1.79.58,2.69,2.69,0,0,1-2.74-2.85c0-1.75.94-3.06,2.5-3.06a2.48,2.48,0,0,1,2.4,2.68,3.52,3.52,0,0,1,0,.45h-4a1.9,1.9,0,0,0,1.91,2.09,2.42,2.42,0,0,0,1.41-.45Zm-.44-2.89a1.64,1.64,0,0,0-1.59-1.73,1.84,1.84,0,0,0-1.6,1.73Z"/><path d="M286.21,94.46a3.26,3.26,0,0,0-1.75-.6c-.9,0-1.43.45-1.43,1.14s.63,1.11,1.89,1.66,2,1.15,2,2.29c0,1.47-1.28,2.11-2.52,2.11a3.87,3.87,0,0,1-2.59-1l.46-.64a3.24,3.24,0,0,0,2.07.88c.73,0,1.72-.3,1.72-1.36,0-.71-.65-1.18-1.76-1.65s-2.16-1-2.16-2.26c0-1.44,1.21-1.92,2.28-1.92a4.16,4.16,0,0,1,2.15.67Z"/><path d="M288.05,93.91l.81-.27v1.7h1.3V96h-1.3v3.53c0,.71.56.8,1.21.81v.7c-1.23,0-2-.27-2-1.46V96h-.79v-.69h.79Z"/><path d="M291.87,96.14a1.82,1.82,0,0,1,1.65-1l.3,0V96l-.27,0a1.56,1.56,0,0,0-1.68,1.47v3.53H291V95.34h.84Z"/><path d="M294.32,93.06h1v1.1h-1Zm.07,2.28h.84v5.59h-.84Z"/><path d="M300.76,100.39a2.65,2.65,0,0,1-1.87.68,3,3,0,0,1,0-5.91,3.44,3.44,0,0,1,1.73.49l-.33.62a2.89,2.89,0,0,0-1.4-.4,2.28,2.28,0,0,0,0,4.51,2.17,2.17,0,0,0,1.42-.52Z"/><path d="M301.68,93.91l.81-.27v1.7h1.31V96h-1.31v3.53c0,.71.56.8,1.21.81v.7c-1.23,0-2-.27-2-1.46V96h-.78v-.69h.78Z"/><path d="M309.29,95.19a2,2,0,0,1,1.7.94v-.79h.84v7.94H311V100.2a2,2,0,0,1-1.7.87c-1.51,0-2.48-1.1-2.48-2.9S307.78,95.19,309.29,95.19Zm0,.68c-1.2,0-1.63,1.19-1.63,2.31s.5,2.24,1.63,2.24,1.65-1,1.68-2.16v-.21C311,96.58,310.28,95.87,309.31,95.87Z"/><path d="M316.75,100.15a2.11,2.11,0,0,1-1.67.92A2,2,0,0,1,313,99V95.34h.84v3.54a1.37,1.37,0,0,0,1.33,1.51,1.66,1.66,0,0,0,1.62-1.8V95.34h.84v5.59h-.84Z"/><path d="M319,95.7a3.42,3.42,0,0,1,1.85-.54,1.85,1.85,0,0,1,1.88,1.17,2.84,2.84,0,0,1,.12,1v2.47a4.72,4.72,0,0,0,.12,1.18h-.84c0-.19-.09-.65-.09-.65a2.23,2.23,0,0,1-1.72.78,1.83,1.83,0,0,1-1.95-1.83c0-1.46,1.16-2,2.75-2,.29,0,.59,0,.9,0V97.2a1.16,1.16,0,0,0-1.27-1.33,2.53,2.53,0,0,0-1.39.45Zm1.43,4.63A1.46,1.46,0,0,0,322,98.87v-.93a7.75,7.75,0,0,0-.82,0c-1.19,0-2,.34-2,1.29A1.14,1.14,0,0,0,320.44,100.33Z"/><path d="M324,93.06h.85v7.87H324Z"/><path d="M325.93,93.06h1v1.1h-1Zm.07,2.28h.84v5.59H326Z"/><path d="M328.28,93.91l.81-.27v1.7h1.3V96h-1.3v3.53c0,.71.56.8,1.2.81v.7c-1.22,0-2-.27-2-1.46V96h-.79v-.69h.79Z"/><path d="M330.75,102.59a2.31,2.31,0,0,0,1.9-1.74l-2.06-5.51h.9l1.58,4.46,1.53-4.46h.9l-1.83,5.11c-.6,1.7-1,2.48-2.65,2.85Z"/><path d="M298.15,114a2.62,2.62,0,0,1-1.87.68,3,3,0,0,1,0-5.9,3.44,3.44,0,0,1,1.73.49l-.34.62a2.82,2.82,0,0,0-1.39-.41,2.28,2.28,0,0,0,0,4.51,2.17,2.17,0,0,0,1.42-.52Z"/><path d="M301.13,108.81a3,3,0,1,1-2.6,2.93A2.66,2.66,0,0,1,301.13,108.81Zm0,5.2c1,0,1.75-.83,1.75-2.27s-.79-2.26-1.75-2.26-1.74.83-1.74,2.26S300.18,114,301.13,114Z"/><path d="M305.47,109.73a2.12,2.12,0,0,1,1.66-.91,2,2,0,0,1,2.13,2.08v3.64h-.84V111a1.37,1.37,0,0,0-1.34-1.5,1.65,1.65,0,0,0-1.61,1.79v3.25h-.85V109h.85Z"/><path d="M310.64,107.53l.81-.27V109h1.31v.69h-1.31v3.52c0,.71.56.8,1.21.81v.7c-1.23,0-2-.27-2-1.46v-3.57h-.78V109h.78Z"/><path d="M314.46,109.76a1.83,1.83,0,0,1,1.66-1l.29,0v.75l-.26,0a1.57,1.57,0,0,0-1.69,1.46v3.53h-.84V109h.84Z"/><path d="M319.05,108.81a3,3,0,1,1-2.61,2.93A2.66,2.66,0,0,1,319.05,108.81Zm0,5.2c.95,0,1.74-.83,1.74-2.27s-.79-2.26-1.74-2.26-1.74.83-1.74,2.26S318.1,114,319.05,114Z"/><path d="M322.54,106.68h.84v7.86h-.84Z"/><path d="M44.3,71.13H38.56a.4.4,0,0,1,0-.79H44.3a.4.4,0,0,1,0,.79Z"/><path d="M48.88,71.13h-2a.4.4,0,0,1,0-.79h2a.4.4,0,0,1,0,.79Z"/><path d="M45.56,72.86H36.93a.39.39,0,0,1-.39-.39.4.4,0,0,1,.39-.39h8.63a.4.4,0,0,1,.39.39A.39.39,0,0,1,45.56,72.86Z"/><path d="M50.51,72.86H47.87a.38.38,0,0,1-.39-.39.39.39,0,0,1,.39-.39h2.64a.4.4,0,0,1,.39.39A.39.39,0,0,1,50.51,72.86Z"/><path d="M47.43,43.66H40a.39.39,0,0,1-.39-.39.38.38,0,0,1,.39-.39h7.42a.39.39,0,0,1,.4.39A.4.4,0,0,1,47.43,43.66Z"/><path d="M51,51.44a.4.4,0,0,1-.35-.21.39.39,0,0,1,.16-.53,7.08,7.08,0,0,0,3.9-6.16c0-3.84-3.43-7-7.79-7.25a.39.39,0,1,1,0-.78c4.78.24,8.53,3.77,8.53,8a7.85,7.85,0,0,1-4.31,6.85A.41.41,0,0,1,51,51.44Z"/><path d="M49.66,48.74a.39.39,0,0,1-.2-.73,4.09,4.09,0,0,0,2.23-3.47c0-2.18-2.11-4-4.79-4.25a.39.39,0,0,1-.36-.42.41.41,0,0,1,.42-.36c3.14.24,5.51,2.4,5.51,5a4.89,4.89,0,0,1-2.61,4.15A.49.49,0,0,1,49.66,48.74Z"/><path d="M50.22,49.84a.4.4,0,0,1-.35-.21c-.38-.79-.81-1.59-1.26-2.39a16.61,16.61,0,0,1-2.07-7.32.39.39,0,1,1,.78,0,15.79,15.79,0,0,0,2,7q.69,1.23,1.29,2.43a.39.39,0,0,1-.36.56Z"/><path d="M38.56,52.19a.29.29,0,0,1-.16,0,.38.38,0,0,1-.2-.51c.54-1.19,1.17-2.43,1.88-3.7a17,17,0,0,0,1.15-2.49.4.4,0,0,1,.51-.24.41.41,0,0,1,.23.51,20.41,20.41,0,0,1-1.2,2.6c-.71,1.25-1.33,2.48-1.86,3.64A.38.38,0,0,1,38.56,52.19Z"/><path d="M50.19,65.3a.27.27,0,0,1-.13,0,.39.39,0,0,1-.24-.5,16.37,16.37,0,0,0,.81-5.29A.39.39,0,0,1,51,59.1a.4.4,0,0,1,.39.39A17.15,17.15,0,0,1,50.56,65,.4.4,0,0,1,50.19,65.3Z"/><path d="M48.58,68.3a.39.39,0,0,1-.25-.08.4.4,0,0,1-.06-.55A8.2,8.2,0,0,0,49,66.61a.39.39,0,0,1,.54-.14.39.39,0,0,1,.14.53,8.15,8.15,0,0,1-.79,1.16A.39.39,0,0,1,48.58,68.3Z"/><path d="M50.63,75.47H36.82a.38.38,0,0,1-.39-.39V72.79a1.15,1.15,0,0,1,.34-.82L38,70.76c-2.69-2.38-4.16-6.35-4.16-11.27,0-4.07,2.37-9.16,4.37-12.7a15.21,15.21,0,0,0,1.94-7.41v-6a2.53,2.53,0,0,0-.55-1.58l-1.67-2.12a.79.79,0,0,1-.1-.86.82.82,0,0,1,.73-.46H47.4a.82.82,0,0,1,.66.33.81.81,0,0,1,.13.71L47.41,32a2.44,2.44,0,0,0-.1.71v5.41a.4.4,0,0,1-.39.39.39.39,0,0,1-.39-.39V32.74a3.22,3.22,0,0,1,.13-.93l.78-2.66a.08.08,0,0,0,0,0H38.54a0,0,0,0,0,0,0s0,0,0,0l1.68,2.12a3.33,3.33,0,0,1,.72,2.06v6a16,16,0,0,1-2.05,7.79c-1.95,3.46-4.27,8.42-4.27,12.32,0,4.87,1.49,8.76,4.21,10.94a.38.38,0,0,1,.12.43.36.36,0,0,1-.13.19l-1.48,1.48a.35.35,0,0,0-.11.26v1.9h13v-1.9a.33.33,0,0,0-.11-.26L48.63,71a.43.43,0,0,1-.12-.17.4.4,0,0,1,.13-.43c2.71-2.18,4.2-6.07,4.2-10.94a21.46,21.46,0,0,0-2.22-8.29.39.39,0,0,1,.71-.32,22.16,22.16,0,0,1,2.3,8.61c0,4.92-1.48,8.89-4.17,11.27L50.68,72a1.19,1.19,0,0,1,.34.82v2.29A.39.39,0,0,1,50.63,75.47Z"/><path d="M46.92,29.1a.38.38,0,0,1-.39-.39V26.33H40.92v2.38a.4.4,0,0,1-.79,0V25.93a.4.4,0,0,1,.4-.39h6.39a.4.4,0,0,1,.39.39v2.78A.39.39,0,0,1,46.92,29.1Z"/><path d="M44.71,33.73H40.53a.39.39,0,1,1,0-.78h4.18a.39.39,0,1,1,0,.78Z"/><path d="M201.63,41.68h0l-2.76-2.76h0l-5.52-5.52h0l-2.76-2.76h0l-5.52-5.52h0L184,24a1.87,1.87,0,0,0-2.63,0L165.9,39.47a1.86,1.86,0,0,0,0,2.62l5.3,5.31a2.61,2.61,0,0,0,.15,3.34l1.49,1.5-2.92,2.93a1.78,1.78,0,0,0-2.09.3l-6.15,6.15a1.76,1.76,0,0,0,0,2.5l.91.91a1.79,1.79,0,0,0,1.25.52,1.75,1.75,0,0,0,1.25-.52l6.15-6.15a1.76,1.76,0,0,0,.3-2.09l2.93-2.92,1.5,1.49a2.38,2.38,0,0,0,1.72.68,2.78,2.78,0,0,0,1.63-.53l5.3,5.3a1.86,1.86,0,0,0,2.62,0l15.45-15.45a1.86,1.86,0,0,0,0-2.62Zm-6.29-5.26-17,17-2.25-2.25,17-17Zm-2.76-2.76-17,17-2.25-2.25,17-17Zm-26.16,7.92a1.12,1.12,0,0,1,0-1.59l15.45-15.45a1.12,1.12,0,0,1,1.59,0l.84.84-17,17Zm1.35,1.36,17-17,2.24,2.25-17,17Zm2.76,2.76,17.05-17.05,2.24,2.25-17,17-.82-.82h0ZM170,56.15l.6.59-1.09,1.08-.59-.59Zm.75,2.22-6.14,6.14a1,1,0,0,1-.74.31,1,1,0,0,1-.73-.31l-.91-.91a1,1,0,0,1-.31-.73,1,1,0,0,1,.31-.74L168.34,56a1.07,1.07,0,0,1,.74-.31.92.92,0,0,1,.28,0L168.11,57a.37.37,0,0,0-.1.26.35.35,0,0,0,.1.26l1.11,1.11a.36.36,0,0,0,.52,0L171,57.35A1,1,0,0,1,170.72,58.37Zm.36-2.15-.59-.59,2.87-2.87.59.59Zm5.4-1.37-1.75-1.76h0l-.56-.55-2.31-2.31a1.87,1.87,0,0,1-.14-2.31L178.8,55A1.89,1.89,0,0,1,176.48,54.85Zm3.11-.09h0l-.78-.79,17-17,2.25,2.24-17,17Zm2,2,17-17,2.25,2.24L183.81,59Zm20.6-11.89L186.72,60.29a1.12,1.12,0,0,1-1.59,0l-.8-.8,17-17,.8.8A1.12,1.12,0,0,1,202.17,44.84Z"/><path d="M189.12,77.53H189a.34.34,0,0,1-.22-.43c.43-1.33-.62-2.67-1.74-4.09a10.36,10.36,0,0,1-1.77-2.81,6.92,6.92,0,0,1,.33-5.38c-1.6.6-2,2-2.42,3.25a9.36,9.36,0,0,1-.53,1.44,2.13,2.13,0,0,1-2,1.29,2.5,2.5,0,0,1-2.15-1.65,9.41,9.41,0,0,1,.48-6.7,4.82,4.82,0,0,0-3,4.62c0,2.3-.31,6.29-1.85,7.09a1.63,1.63,0,0,1-1.71-.24c-.88-.6-.78-1.4-.65-2.42a10,10,0,0,0-.07-3.6,5.82,5.82,0,0,1-2.23,2.67c-1.87,1.19-3.11,2.1-3.4,3.66a6.44,6.44,0,0,0,0,2.9.35.35,0,0,1-.26.41.34.34,0,0,1-.4-.27,7.17,7.17,0,0,1,0-3.2c.34-1.79,1.74-2.82,3.7-4.08a5,5,0,0,0,2.24-3.32.39.39,0,0,1,.34-.32.45.45,0,0,1,.4.28,10.79,10.79,0,0,1,.37,5c-.13,1-.15,1.42.35,1.76s.91.25,1,.2c.87-.45,1.44-2.94,1.49-6.49,0-2.91,1.64-4.82,4.91-5.85a.36.36,0,0,1,.44.21.37.37,0,0,1-.17.44c-2,.94-2,5.48-1.39,7a1.81,1.81,0,0,0,1.54,1.22,1.52,1.52,0,0,0,1.4-.92,7.88,7.88,0,0,0,.49-1.33c.47-1.52,1-3.4,3.66-3.93a.42.42,0,0,1,.39.17.39.39,0,0,1,0,.43,6.06,6.06,0,0,0-.65,5.44,9.79,9.79,0,0,0,1.66,2.61c1.18,1.49,2.39,3,1.85,4.72A.35.35,0,0,1,189.12,77.53Z"/><path d="M327,50.9h-2.36v-3.3a.37.37,0,0,0-.37-.37H310.92V44.36h4.15a.79.79,0,0,0,.79-.79V26.69a.79.79,0,0,0-.79-.8H307.8l-.12,0-.14.08L302,31.58a.3.3,0,0,0-.07.11.45.45,0,0,0,0,.13l0,.09V42.82a1.54,1.54,0,0,0,1.54,1.54h6.79v2.88H296.86a.36.36,0,0,0-.37.34v.1h0v3.23h-2.81l-.12,0-.14.08-4.17,4.18a.26.26,0,0,0-.07.1.5.5,0,0,0,0,.14l0,.09v8.15a1.25,1.25,0,0,0,1.24,1.24h8.75a.68.68,0,0,0,.68-.68V51.59a.68.68,0,0,0-.68-.69h-1.9V48h12.95v2.94h-2.57a.33.33,0,0,0-.12,0l-.14.08-4.18,4.18-.07.1c0,.07,0,.1,0,.14v8.24a1.24,1.24,0,0,0,1.24,1.24h8.74a.69.69,0,0,0,.69-.68V51.59a.69.69,0,0,0-.69-.69h-2.13V48h13v2.94h-2.37l-.1,0-.14.08-4.17,4.18a.26.26,0,0,0-.07.1.5.5,0,0,0,0,.14l0,.09v8.15a1.25,1.25,0,0,0,1.24,1.24H327a.68.68,0,0,0,.68-.68V51.59A.68.68,0,0,0,327,50.9Zm-33.66,1.26v2.92H290.4Zm5.76-.52V64.17h-8.7a.5.5,0,0,1-.5-.51V55.82h3.8a.38.38,0,0,0,.37-.37V51.64Zm8.35-24.49v4.32h-4.32Zm-.19,25v2.92h-2.92Zm5.76-.52V64.17h-8.69a.51.51,0,0,1-.51-.51V55.82h3.81a.38.38,0,0,0,.37-.37V51.64Zm-9.61-8a.83.83,0,0,1-.57-.23.79.79,0,0,1-.23-.57V32.21h5.21a.38.38,0,0,0,.37-.37V26.63h7v17Zm17.78,8.54v2.92h-2.92Zm-2.94,12a.5.5,0,0,1-.5-.51V55.82h3.8a.37.37,0,0,0,.37-.37V51.64h5V64.17Z"/><path d="M305.18,36.1h7.36a.48.48,0,0,0,0-1h-7.36a.48.48,0,0,0,0,1Z"/><path d="M305.18,38.73h7.36a.47.47,0,0,0,0-.94h-7.36a.47.47,0,0,0,0,.94Z"/><path d="M305.18,41.37h7.36a.47.47,0,0,0,.47-.47.48.48,0,0,0-.47-.48h-7.36a.48.48,0,0,0-.47.48A.47.47,0,0,0,305.18,41.37Z"/><path d="M297.51,68.89l-2.93,3.75a.22.22,0,0,1-.18.09.21.21,0,0,1-.2-.09l-1.05-1.32a.41.41,0,0,0-.3-.14.35.35,0,0,0-.23.09.37.37,0,0,0-.06.52l1.06,1.33a1,1,0,0,0,1.55,0l2.93-3.76a.4.4,0,0,0,.08-.28.41.41,0,0,0-.15-.25A.36.36,0,0,0,297.51,68.89Z"/><path d="M297.19,72.55a.38.38,0,0,0-.37.38v1.86a.23.23,0,0,1-.24.23h-4.81a.23.23,0,0,1-.24-.23V70a.24.24,0,0,1,.24-.24h3.54a.38.38,0,0,0,0-.75h-3.54a1,1,0,0,0-1,1v4.82a1,1,0,0,0,1,1h4.81a1,1,0,0,0,1-1V72.93A.38.38,0,0,0,297.19,72.55Z"/><path d="M311.43,68.89l-2.93,3.75a.2.2,0,0,1-.17.09.19.19,0,0,1-.2-.09l-1.06-1.32a.37.37,0,0,0-.29-.14.38.38,0,0,0-.24.09.39.39,0,0,0-.14.25.36.36,0,0,0,.08.27l1.06,1.33a1,1,0,0,0,.77.37,1,1,0,0,0,.79-.38L312,69.35a.36.36,0,0,0,.08-.28.35.35,0,0,0-.14-.25A.37.37,0,0,0,311.43,68.89Z"/><path d="M311.12,72.55a.38.38,0,0,0-.38.38v1.86a.23.23,0,0,1-.23.23h-4.82a.23.23,0,0,1-.24-.23V70a.24.24,0,0,1,.24-.24h3.54a.38.38,0,1,0,0-.75h-3.54a1,1,0,0,0-1,1v4.82a1,1,0,0,0,1,1h4.82a1,1,0,0,0,1-1V72.93A.38.38,0,0,0,311.12,72.55Z"/><path d="M325.36,68.89l-2.93,3.75a.22.22,0,0,1-.18.09.21.21,0,0,1-.2-.09L321,71.32a.41.41,0,0,0-.3-.14.35.35,0,0,0-.23.09.37.37,0,0,0-.06.52l1.06,1.33a1,1,0,0,0,1.55,0L326,69.35a.4.4,0,0,0,.08-.28.41.41,0,0,0-.15-.25A.36.36,0,0,0,325.36,68.89Z"/><path d="M325,72.55a.38.38,0,0,0-.37.38v1.86a.23.23,0,0,1-.24.23h-4.81a.23.23,0,0,1-.24-.23V70a.24.24,0,0,1,.24-.24h3.54a.38.38,0,0,0,0-.75h-3.54a1,1,0,0,0-1,1v4.82a1,1,0,0,0,1,1h4.81a1,1,0,0,0,1-1V72.93A.38.38,0,0,0,325,72.55Z"/><path d="M77.75,39.91l.26.42a8,8,0,0,0,10.31,3l.35-.17-.17-.35a8.05,8.05,0,0,0-10.08-3.94L78,39l.09-.45a12.52,12.52,0,0,0-1-7.57l-.69.34c2.31,5,1.06,10.51-2.86,12.68l-.07,0h-.08a4.12,4.12,0,0,0-1.63.21l-.18.06-.11-.16a4.19,4.19,0,0,0-5.32-1.44,4.14,4.14,0,0,0-2.25,2.89l-.07.31-.29-.14a4.19,4.19,0,0,0-1.83-.42,4,4,0,0,0-1.83.43,4.18,4.18,0,0,0-1.93,5.61,4.08,4.08,0,0,0,1.86,1.88l.34.18-.3.24A4.18,4.18,0,0,0,61.55,61l.43.1-.31.32a4.21,4.21,0,0,0-.74,4.74,4.13,4.13,0,0,0,1.35,1.58l.18.13-.1.2a4.19,4.19,0,1,0,7.88,2.36l0-.26.26,0a4.13,4.13,0,0,0,2.54-.37A4.21,4.21,0,0,0,75.4,66v-.28l.27,0a4.08,4.08,0,0,0,2.25-.41A4.17,4.17,0,0,0,80.22,61l0-.3.3,0a4.14,4.14,0,0,0,2-.42,4.21,4.21,0,0,0,1.92-5.61,4.13,4.13,0,0,0-1.79-1.84l-.23-.13.14-.23a4.18,4.18,0,0,0-5.38-6l-.22.12-.12-.23a4.16,4.16,0,0,0-1.92-1.92l-.36-.18.32-.24a8.54,8.54,0,0,0,2.7-3.67Zm1-.38a7.25,7.25,0,0,1,8.71,3l.15.26-.28.11a7.09,7.09,0,0,1-2.54.46,7.3,7.3,0,0,1-6.17-3.44l-.16-.26ZM66.46,43.4a3.43,3.43,0,0,1,4.26,1l.15.2-.21.15-.06,0c-.16.12-.3.24-.42.35a4.86,4.86,0,0,0-.38.41l-.08.11a3.41,3.41,0,0,0-.28.42h0l0,.08c-.07.14-.14.28-.21.45l0,.12a3.13,3.13,0,0,0-.16.52v.07a4,4,0,0,0-.08.48V48a4.86,4.86,0,0,0,0,.54v.1c0,.15,0,.31.07.48l.09.39-.35,0a4.61,4.61,0,0,0-1.18-.05h-.11l-.53.1-.11,0-.07,0h0l-.09,0-.09,0a3.22,3.22,0,0,1-.52-.3l-.1-.07v-.11a.06.06,0,0,0,0,0,3.79,3.79,0,0,0-.12-.62l0-.1a3.88,3.88,0,0,0-.24-.61,3.39,3.39,0,0,0-.33-.56l-.06-.09a6,6,0,0,0-.42-.48l-.1-.1v-.11A3.41,3.41,0,0,1,66.46,43.4ZM72.06,53v-.11l.08-.12a3.4,3.4,0,0,1,.78-.54A3.23,3.23,0,0,1,73.5,52l.13,0h0a2.12,2.12,0,0,1,.45-.07h.17a3,3,0,0,1,.6,0,3.61,3.61,0,0,1,.54.12,3.54,3.54,0,0,1,.48.2l0,0,.11,0a3.78,3.78,0,0,1,.48.33l.08.06a2.93,2.93,0,0,1,.46.47l0,0a3.17,3.17,0,0,1,.37.58l.09.22a3.45,3.45,0,0,1,.27,1.42v.06a1.91,1.91,0,0,1,0,.39.52.52,0,0,1,0,.11,2.28,2.28,0,0,1-.08.33v0l0,.1v0a2,2,0,0,1-.11.26l0,0-.06.13a1.74,1.74,0,0,1-.11.18l-.08.14a.36.36,0,0,0-.07.1l-.12.14h-.19a4.3,4.3,0,0,0-1.29,0h-.08a3.25,3.25,0,0,0-.59.12l-.09,0a5.47,5.47,0,0,0-.6.23,6.32,6.32,0,0,0-.56.33l-.29.2-.1-.33s0,0,0-.06a3,3,0,0,0-.21-.54,4.49,4.49,0,0,0-.24-.42.86.86,0,0,0-.07-.1l0,0c-.06-.09-.13-.17-.19-.25l-.12-.14-.22-.23-.12-.11a4.22,4.22,0,0,0-.37-.29l-.13-.13.06-.22s0-.06,0-.08.14-.32.19-.45a.64.64,0,0,1,0-.07v0a4.13,4.13,0,0,0,.13-.5l0-.09a3.53,3.53,0,0,0,0-.56v-.06A4,4,0,0,0,72.06,53Zm-.46,3.73a2.93,2.93,0,0,1,.29.31l0,0,.1.11a3.67,3.67,0,0,1,.34.54,3,3,0,0,1,.21.59,1.18,1.18,0,0,1,0,.2l0,.16a1.65,1.65,0,0,1,0,.32v.09l0,.07a4.1,4.1,0,0,0-.74,2.18v.09l-.06.06a2.36,2.36,0,0,1-.31.32l-.07.07h-.1a4.4,4.4,0,0,0-.5,0h-.07l-.4.06-.07,0h0l-.38.1-.11,0-.44.18a4.25,4.25,0,0,0-.46.27l-.09.06-.3,0-.06-.12a4,4,0,0,0-.2-.35,1.13,1.13,0,0,0-.12-.18l-.07-.1,0-.05a2.75,2.75,0,0,0-.22-.26l0,0h0c-.08-.09-.17-.17-.25-.25l0,0L67.23,61l-.06,0-.26-.17,0,0-.28-.15-.07,0-.29-.12-.13-.06L66,60.24a3,3,0,0,1-.14-.73v-.09l.06-.08a4.64,4.64,0,0,0,.29-.48.09.09,0,0,1,0-.06,4.73,4.73,0,0,0,.36-1.06v-.07a3.81,3.81,0,0,0,.07-.54v-.08l.09-.11a3.88,3.88,0,0,1,.42-.39l0,0a3.89,3.89,0,0,1,.54-.34,3.45,3.45,0,0,1,.6-.22l.07,0a2.9,2.9,0,0,1,.59-.09h.06a3.77,3.77,0,0,1,.62,0h0a2.72,2.72,0,0,1,.56.13h0l.06,0a3,3,0,0,1,.47.21l.24.15a1.61,1.61,0,0,1,.3.21C71.48,56.64,71.54,56.7,71.6,56.75ZM71,55h0L71,55l-.06.1,0,0-.1.19-.2-.06-.37-.11-.38-.07a4.16,4.16,0,0,0-1.22,0l-.37.08h0l-.33.1-.09,0a3.89,3.89,0,0,0-.38.16,3.47,3.47,0,0,0-.5.3l-.3.2-.15-.31s0,0,0,0a3.7,3.7,0,0,0-.22-.55,5,5,0,0,0-.27-.48l-.07-.09a4.88,4.88,0,0,0-.32-.41,5.6,5.6,0,0,0-.43-.41l-.07-.05a4,4,0,0,0-.4-.28l-.18-.11v-.17a3.71,3.71,0,0,1,.13-.53l0-.08.08-.09a1.19,1.19,0,0,0,.15-.18.76.76,0,0,0,.11-.14l.14-.18.09-.15a2.12,2.12,0,0,0,.12-.2v0l.08-.15c0-.06,0-.12.08-.19l.11-.19a3.4,3.4,0,0,1,1.16-.66,2.62,2.62,0,0,1,.42-.11l.12,0h0a4.23,4.23,0,0,1,.48,0H68a3.51,3.51,0,0,1,1.2.24l.09,0,.32.15.07.06a.68.68,0,0,0,0,.07l.06.07a3.11,3.11,0,0,0,.23.28,1.89,1.89,0,0,0,.2.2c0,.06.11.1.16.15l.18.14.2.15.11.11a1.36,1.36,0,0,1,.15.27,2.94,2.94,0,0,1,.24.63l0,.14A3.48,3.48,0,0,1,71,55Zm-12.42-3.9a3.43,3.43,0,0,1,1.57-4.58h0a3.42,3.42,0,0,1,3.72.49,3.57,3.57,0,0,1,.42.44l.05.06a2.94,2.94,0,0,1,.37.59,3.23,3.23,0,0,1,.25.65v.06a3.1,3.1,0,0,1,.08.63,3.31,3.31,0,0,1-.42,1.81l0,0,0,.07a3.17,3.17,0,0,1-.33.46l-.06.08a3.69,3.69,0,0,1-1,.78l-.28.12-.05,0h-.5l-.26,0H62l-.29,0-.1,0-.29.07-.13,0h0A3.43,3.43,0,0,1,58.62,51.05Zm.79,7.39A3.43,3.43,0,0,1,61,53.86a3.28,3.28,0,0,1,.56-.21l.16,0a4.34,4.34,0,0,1,.52-.08h.3a2.67,2.67,0,0,1,.42,0,3.63,3.63,0,0,1,1.14.37l.22.13a3.62,3.62,0,0,1,.32.22l0,0,.13.11a3.2,3.2,0,0,1,.31.32l0,.05a.39.39,0,0,1,.08.1,2.86,2.86,0,0,1,.34.54,2.9,2.9,0,0,1,.22.59l0,.1a3.22,3.22,0,0,1,.08.51,1.7,1.7,0,0,1,0,.22,2,2,0,0,1,0,.25v.13a2,2,0,0,1,0,.24,1.42,1.42,0,0,1,0,.22v.07a4.3,4.3,0,0,1-.2.57l0,.07-.09.19-.12.2-.06.08a3.33,3.33,0,0,1-2.81,1.49A3.45,3.45,0,0,1,59.41,58.44Zm2.21,7.4a3.42,3.42,0,0,1,4.08-4.77,3.39,3.39,0,0,1,.48.19l0,0,.11,0a3.78,3.78,0,0,1,.48.33l.09.07a2.82,2.82,0,0,1,.45.46l0,0a3.62,3.62,0,0,1,.38.61,2.21,2.21,0,0,1,.18.46l0,.12-.08.1a4.24,4.24,0,0,0-.51.87l0,.08-.05.09h0c0,.08,0,.16-.08.23l0,.16a1.94,1.94,0,0,0,0,.2,1.55,1.55,0,0,0,0,.21v.08a.36.36,0,0,0,0,.1,1,1,0,0,0,0,.12l0,.25-.31,0a4.93,4.93,0,0,0-.54,0H66a3.48,3.48,0,0,0-.47,0h-.11a4.51,4.51,0,0,0-.53.13l-.11,0a5.14,5.14,0,0,0-.58.22c-.18.1-.37.21-.56.34l-.09.07a5.82,5.82,0,0,0-.48.41l-.18.18-.17-.11A3.42,3.42,0,0,1,61.62,65.84Zm5.95,7.26a3.36,3.36,0,0,1-1.5.34A3.49,3.49,0,0,1,65,73.26a3.41,3.41,0,0,1-1.55-5.38c.06-.07.12-.15.19-.22a2.09,2.09,0,0,1,.22-.2l0,0,.23-.19.11-.06.06-.05a3.8,3.8,0,0,1,1.29-.48l.13,0a3.39,3.39,0,0,1,.64,0,2.91,2.91,0,0,1,.32,0c.13,0,.25.06.37.09h0l.15,0,.18.08.09,0a2.31,2.31,0,0,1,.36.17l.17.12.1.07.25.19c.08.07.14.15.2.21l.11.11s.09.1.13.16a2.86,2.86,0,0,1,.35.56,4.17,4.17,0,0,1,.23.6v0a2.5,2.5,0,0,1,0,.29l0,.12a1.26,1.26,0,0,1,0,.28A3.43,3.43,0,0,1,67.57,73.1Zm5.15-3.94a3.29,3.29,0,0,1-1.49.35,3.24,3.24,0,0,1-.87-.11l-.16,0,0-.16c0-.16-.07-.31-.12-.46l0-.1c-.07-.18-.13-.33-.19-.46a4.48,4.48,0,0,0-.32-.54l-.07-.1a4.19,4.19,0,0,0-.39-.45L69,67a4.14,4.14,0,0,0-1-.74l-.12-.07,0-.16h0v-.39A3.22,3.22,0,0,1,68,65v0a3.64,3.64,0,0,1,.25-.57h0l0-.06a3.48,3.48,0,0,1,.43-.58l0,0a3.47,3.47,0,0,1,.45-.41l.21-.14c.1-.06.2-.13.32-.19a3.5,3.5,0,0,1,.56-.21l.19,0a3.11,3.11,0,0,1,.44-.07h.16a3.43,3.43,0,0,1,1.22.17,2.74,2.74,0,0,1,.45.2l.06,0,.12.06.27.18.06.05a3.42,3.42,0,0,1,1.05,1.23,4.07,4.07,0,0,1,.21.57l0,.12A3.44,3.44,0,0,1,72.72,69.16Zm6.59-6.46a3.43,3.43,0,0,1-3.93,2.24l-.14,0,0-.08h0l0-.09a3.5,3.5,0,0,0-.2-.49c-.06-.13-.13-.24-.2-.36l0,0,0-.05-.17-.25-.07-.09-.19-.22-.07-.07L74,63l-.08-.07-.23-.18-.09-.07-.23-.14h0l-.1-.06-.18-.1-.06,0-.12-.06-.15-.07L72.68,62a1.09,1.09,0,0,1,0-.18v-.26a3.45,3.45,0,0,1,.71-2.09l.15-.19.08-.09.26-.23.13-.11.25-.17.17-.1.26-.13.37-.14a2.46,2.46,0,0,1,.39-.09l.3-.05.32,0,.31,0h.08l.14,0a3.7,3.7,0,0,1,.49.11,4.24,4.24,0,0,1,.49.2l.05,0,.11.06a2.62,2.62,0,0,1,.37.24l.08.06.13.09a2.83,2.83,0,0,1,.24.25l0,.06a.12.12,0,0,1,.05.05.86.86,0,0,1,.13.14,2.78,2.78,0,0,1,.37.59A3.4,3.4,0,0,1,79.31,62.7ZM83.74,55a3.45,3.45,0,0,1,.16,2.62,3.42,3.42,0,0,1-3.23,2.31,3.57,3.57,0,0,1-.65-.06l-.15,0,0-.14c-.08-.14-.18-.31-.29-.48l-.06-.09a4.22,4.22,0,0,0-.86-.88,3,3,0,0,0-.55-.35l0,0-.15-.15.09-.17a3.81,3.81,0,0,0,.43-.91s0-.11,0-.16a2.15,2.15,0,0,0,.09-.4l0-.06c0-.05,0-.08,0-.11s0-.33,0-.49a1.21,1.21,0,0,0,0-.19v-.1a1.8,1.8,0,0,0,0-.22c0-.1,0-.2,0-.3l0-.12a1.59,1.59,0,0,0-.08-.33l0-.16.12-.1a3.78,3.78,0,0,1,.63-.46,3.9,3.9,0,0,1,.63-.23l.21,0,.15,0,.28,0h.65l.33.07h0A3.42,3.42,0,0,1,83.74,55ZM77.2,47.53l0-.17.15-.08A3.35,3.35,0,0,1,80,47a3.41,3.41,0,0,1,1.73,5.32l-.09.13-.2,0a3.86,3.86,0,0,0-1.27,0H80.1a3.87,3.87,0,0,0-.59.13l-.09,0a4.13,4.13,0,0,0-.6.24l-.11.06a3.86,3.86,0,0,0-.44.27l-.2.14L77.9,53c-.09-.13-.18-.26-.29-.39l-.06-.06a3.86,3.86,0,0,0-.84-.72l0,0a3.07,3.07,0,0,0-.49-.27l-.33-.15.29-.29.26-.32,0,0a3.75,3.75,0,0,0,.24-.36A4.24,4.24,0,0,0,77.2,47.53Zm-1.06-.82v0a3.51,3.51,0,0,1,.21.57v0s0,.06,0,.08v.09c0,.11,0,.23.07.35a1.27,1.27,0,0,0,0,.2v.09a2.1,2.1,0,0,1,0,.27,1.53,1.53,0,0,1,0,.3c0,.09,0,.16,0,.24s-.05.21-.08.31a1.34,1.34,0,0,0-.07.18l0,.12-.09.21a3.16,3.16,0,0,1-.28.45l-.06.08,0,0a3.4,3.4,0,0,1-.29.33l-.1.08,0,0a3.83,3.83,0,0,1-.42.32l-.07,0h-.14a3.68,3.68,0,0,0-1,.05l-.14,0-.36.1-.14,0a2.81,2.81,0,0,0-.42.17l0,0-.1,0h-.06a3.34,3.34,0,0,1-1.08-.4l-.07,0a3.26,3.26,0,0,1-1.06-1l0-.06a2.3,2.3,0,0,1-.19-.33,3.44,3.44,0,0,1,1.57-4.58,3.44,3.44,0,0,1,4.58,1.57Z"/></g></g></svg>