<svg xmlns="http://www.w3.org/2000/svg" viewBox="0 0 302.31 304.96"><defs><style>.cls-1{fill:#e6472f;}.cls-2{fill:#ffefe3;}.cls-3{fill:#ffe4ca;}.cls-4{fill:#221e1f;}.cls-5{fill:#f18c8f;}.cls-6{fill:#cdcfd0;}.cls-7{fill:#fff;}.cls-8{fill:#a4dcf4;}.cls-9{fill:none;stroke:#fff;stroke-miterlimit:10;}</style></defs><title>자산 6</title><g id="레이어_2" data-name="레이어 2"><g id="레이어_1-2" data-name="레이어 1"><rect class="cls-1" width="286.7" height="304.96"/><path class="cls-2" d="M177.57,184.08c.83-1.2.45-2.25.51-3.83s1.07-2.9,1.3-4.44a2.79,2.79,0,0,1,.75-1.59,2.94,2.94,0,0,1,4.56-3.42c4.72,3.2,10.09,5.22,15,8.1l2.62-1.51L203.39,164l.86-13.13s-6.86-5-6.58-12.5,2.87-10.08,2.87-10.08l.64-7.06,2.74-3.75-.29-5.46s-9.1,2.88-13.54-3.17-1.28-9.57-1.28-9.57l4-1.75,5.79,2.73,5.56,4.13,2.52,1.38s4.51-5.89,10.05-5.39a14,14,0,0,1,16-1.83s9.07-3.06,12.66,3l3.2,1.1,4.19-2.84s7.11-8.9,11.42-7.37S266,102.72,266,102.72l-4.54,4-9.38,1.72,0,2.12s5,3.13,5.37,7.27a47.09,47.09,0,0,1,.22,6A20.61,20.61,0,0,1,263.8,131c1.86,4.16-3.42,14.63-3.42,14.63s9.1,39.35,9.28,40.32c.09.49.57,5.18,1,9.61a67.87,67.87,0,0,0-6.82,9.27,39.45,39.45,0,0,0-3.36,8.52c-.06.19-.51,1.59-.7,2.26s-1.16,2.29-1.14,2.25a12.14,12.14,0,0,0-1.36,7.67c-7.57.4-14.88-.11-22.22,2.78-6.55,2.58-11.87,11.08-8.51,18.12.83,1.73,1.7,3.39,2.64,5-1.89,0-3.79,0-5.69,0-1.57,0-3.19,0-4.77.08,0,0-.21-.07-.92-.09h-.21c-.11-.08-.24-.19-.45-.32-.4-.25-.66-.41-.83-.5l-.35-.27c-1.31-1-2.67-2-4-3q-3.63-2.75-7.21-5.54c-2.73-2.13-5.44-4.27-8.16-6.41-.17-2.56-.32-5.12-.47-7.67-.49-7.82-1.18-15.72-2.43-23.46,0-.27-.09-.54-.14-.82a6,6,0,0,1-3.07-1.63,4.44,4.44,0,0,1-.64-1.11,49.63,49.63,0,0,1-5.91-4.12,45.51,45.51,0,0,1-7.36-8.31A2.8,2.8,0,0,1,177.57,184.08Z"/><polygon class="cls-2" points="267.16 179.67 279.18 174.94 287.76 171.49 289.91 192.82 271.7 206.37 257.64 209.43 267.16 179.67"/><path class="cls-2" d="M269.56,252.32s-7.44,36.29-30.43,34.51S235.57,241,235.57,241Z"/><path class="cls-2" d="M202,248.42s-19.93,12.18-29.38,9.68-14.36-9.53-14.88-12.19,1.72-12.51,1.72-12.51l6.3-5.08L180,224.69Z"/><path class="cls-2" d="M192.92,198.31l-7,23.62-6.67-3.77-3.13-4.83s-7-1.28-7.37-5.32a8,8,0,0,1,2.37-6.47l1.43-.61s-.37-5.14,1.24-6,8.2-3.76,8.2-3.76Z"/><path class="cls-2" d="M168.68,178.13c-.28-1.38-.53-2.77-.8-4.15-.34-1.66-.58-3.74.61-5.16s4.34-1.76,6.14-2.63c3.4-1.66,5.37,3.85,2.06,5.54a4.85,4.85,0,0,1,.95.74,5.4,5.4,0,0,1,1.18,1.75c.07.16.13.32.19.48a.5.5,0,0,0,.05.13,3,3,0,0,1,.4,2.3.9.9,0,0,1,0,.16,3.66,3.66,0,0,0-2.34,3,3.16,3.16,0,0,1,1.27,3.08,3.05,3.05,0,0,1-3.47,2.34c-1.64-.12-3.35-.06-4.68-1.19a6.74,6.74,0,0,1-2.12-4.54A3.13,3.13,0,0,1,168.68,178.13Z"/><path class="cls-2" d="M290.85,176a8.33,8.33,0,0,1,1.34-.22,5.2,5.2,0,0,1-.94-3.71,3,3,0,0,1,2.95-2.4,3,3,0,0,1,1.29-.05l.64.15a2,2,0,0,1,.82.32,2.55,2.55,0,0,1,2.69,1.9,17.53,17.53,0,0,1,1.12,6.27,2.87,2.87,0,0,1,1.11,2c.62,4.63-4.6,8.91-9,7.42-1.87-.63-2-3.27-.95-4.58.11-.12.21-.25.31-.38a3.25,3.25,0,0,1-.4-.15,5.39,5.39,0,0,1-2.41-2.07C288.45,179.05,289,176.49,290.85,176Z"/><path class="cls-3" d="M228.71,123.45a11.28,11.28,0,0,1,10.82,7.06c3.41,7.7,5.12,16-8.94,17.1"/><path class="cls-3" d="M228.71,123.45a11.26,11.26,0,0,0-9.59,8.64c-2.19,8.14-2.59,16.62,11.47,15.52"/><path class="cls-1" d="M232.78,98.55s-5.31-2.66-8.87-1.58-7.89,3-7.17,3.41-2.13.11-2.13.11a56.65,56.65,0,0,0-1.9-5.53c-.23,0-5.59-.95-5.66-5.64s6.85-5,6.85-5l1.12.61s2.38-5.75,4.56-5.49,5.78.84,5.78.84l2.2,3.66s3.74-3.8,5.53-3.22,4.31,3.63,4.31,3.63L236,88.61l-2.12,2.48Z"/><path class="cls-1" d="M238,177.48l8.76-8.47,17.71-5.88,1.28,1.39,1.11,5.48s-8.94,9.32-11.27,10-7,1.71-7,1.71l3.07,4.58.82,7.42L243,190.15l-5-7.64-5.62.48L229,191.44l-8.51,5-.92-6.33,1.85-6.16-11.8-3.15-7.3-3.43.41-7.88,8.58,1L221.86,173l8.86,4.2L233,178.5A5.24,5.24,0,0,1,238,177.48Z"/><path class="cls-4" d="M238.9,123.26a1.8,1.8,0,1,0,1.65-1.94A1.79,1.79,0,0,0,238.9,123.26Z"/><path class="cls-4" d="M215.26,125.09a1.8,1.8,0,1,0,1.65-1.93A1.81,1.81,0,0,0,215.26,125.09Z"/><path class="cls-4" d="M229.77,134.31c.21-.12,2.74-2.9,2.74-2.9l-3.69-.45-1.91.65Z"/><path class="cls-5" d="M233.09,138.8l-5.43.42,2,2.21L232,141Z"/><circle class="cls-5" cx="248.06" cy="129.47" r="5.06" transform="matrix(0.95, -0.3, 0.3, 0.95, -27.64, 81.67)"/><circle class="cls-5" cx="211.46" cy="132.31" r="5.06" transform="translate(20.12 292.34) rotate(-71.94)"/><polygon class="cls-5" points="203.93 108.65 197.38 105.22 195.38 104.86 194.88 107.51 198.29 109.09 204.25 109.54 203.93 108.65"/><path class="cls-5" d="M251.78,104.53l5.43-3.76L260,99.66l1.47,2a20.75,20.75,0,0,1-2.76,2.89c-.59.25-6.51,1.57-6.51,1.57Z"/><path class="cls-6" d="M280.18,149.54l1.94,2,1.33-2.23,3.8-.3,1,.95,2.12-2.08,2-.15,1.36,5.09,1.94,7.37-2.22,3.69-1.39,1.28.85,3.49-2.45,1.47a1.15,1.15,0,0,1,.07.69q-.06.38-.09.75a7.29,7.29,0,0,0,.13,1.62c0,.17.08.34.13.51a1.27,1.27,0,1,1-2.39.86,8.85,8.85,0,0,1-.28-4.09l-.74-4s-7.39-.4-7.9-4.63-1.81-11-1.81-11Z"/><path class="cls-6" d="M289.28,183.67c.09.11.15.23.23.34.14.3.29.6.45.89a3.88,3.88,0,0,0,4.16,4.44,3.78,3.78,0,0,0,2.49-1.14,4.18,4.18,0,0,0,1.62-.93l.17.08,2,5.49-1.85,3.48-4,1.75-4.46-3-.9-11.59A.75.75,0,0,0,289.28,183.67Z"/><polygon class="cls-6" points="180.07 169.36 182.4 164.64 186.01 164.95 191.49 157.4 189.95 149.41 184.85 145.32 176.24 151.29 175.1 158.68 176.57 162.19 176.86 164.62 180.07 169.36"/><polygon class="cls-6" points="174.95 185.73 173.36 193.46 167.76 194.62 164.58 191.36 164.24 186.93 167.91 181.69 170.27 184.54 174.95 185.73"/><path class="cls-1" d="M273.36,208.21,231.58,210l-32.85-3.41-10.35-4-1.8,9.15-3.7,7.62-11,5.92s10.38,14,17.16,18.21,27,12.41,27,12.41l20.89,2,20.87-3,16.71-4.1L274,234.15l-1.39-15.54,2.68-2.34Z"/><path class="cls-4" d="M176.66,185.9c-.46,1.48-.92,2.95-1.37,4.43a10,10,0,0,1-.81,2.11,6.29,6.29,0,0,1-3.39,2.8,5.84,5.84,0,0,1-7.22-3.31,6.18,6.18,0,0,1-.11-4.38,10.8,10.8,0,0,1,.81-1.72l2.39-4.6c.63-1.2,2.53-.29,1.9.92L167,185.71c-.66,1.26-1.56,2.57-1.49,4a3.79,3.79,0,0,0,4.41,3.62,4.16,4.16,0,0,0,2.57-1.74,5.8,5.8,0,0,0,.41-.78c.13-.28,0,.09,0-.11s.15-.47.23-.71c.47-1.51.94-3,1.4-4.54a1.1,1.1,0,0,1,1.24-.84,1.06,1.06,0,0,1,.84,1.24Z"/><path class="cls-4" d="M175.43,165.06l1.24-2.36.26,1.26a7.43,7.43,0,0,1-2.88-5.07,13.54,13.54,0,0,1,1-6.25,12,12,0,0,1,7.32-7.09,8.46,8.46,0,0,1,4.2-.45,5.62,5.62,0,0,1,3.41,2.41,11.92,11.92,0,0,1,1.4,11.39,13.7,13.7,0,0,1-3.77,5.33,7.87,7.87,0,0,1-5.8,1.75l1.24-.84L180.67,173l-.35,1.12a1.08,1.08,0,0,1-1.24.83,1.06,1.06,0,0,1-.83-1.24l2.43-7.84.35-1.11a1.1,1.1,0,0,1,1.24-.84c3.11.28,5.41-2.2,6.73-4.78a9.58,9.58,0,0,0,1.18-5,10.36,10.36,0,0,0-1.31-4.54,7.82,7.82,0,0,0-1.1-1.52,4.93,4.93,0,0,0-.65-.56s-.17-.11,0,0l-.17-.09a3,3,0,0,0-.36-.16c-.14-.06.18.05,0,0l-.17-.05-.3-.06-.37,0c-.21,0,0,0,0,0h-.3q-.39,0-.78.06a5,5,0,0,0-.76.14,9.77,9.77,0,0,0-6.31,4.85,12.84,12.84,0,0,0-1.51,5.65,5.52,5.52,0,0,0,2.21,4.55,1.05,1.05,0,0,1,.26,1.26L177.34,166c-.63,1.2-2.54.29-1.91-.92Z"/><path class="cls-4" d="M299.72,186.92c.43,1.29.87,2.57,1.3,3.86a6.25,6.25,0,0,1-1.11,6.22,5.72,5.72,0,0,1-7.35,1,6.23,6.23,0,0,1-2.73-4.38q-.48-3.41-1-6.81l-1.5-10.58c-.3-2.1-.7-4.21-.9-6.32,0,0,0-.06,0-.09a1.05,1.05,0,1,1,2.1-.17l2.1,14.76c.38,2.68.76,5.37,1.15,8a12.76,12.76,0,0,0,.21,1.38,3.82,3.82,0,0,0,4.79,2.81,3.88,3.88,0,0,0,2.3-4.9c-.45-1.36-.91-2.71-1.36-4.07a1.05,1.05,0,0,1,2-.72Z"/><path class="cls-4" d="M286.45,169.78l-.45-3.15.85,1a9.25,9.25,0,0,1-7.69-5.27,23.54,23.54,0,0,1-1.3-4.72c-.25-1-.49-2.07-.74-3.11a8.2,8.2,0,0,1-.4-2.44,3.15,3.15,0,0,1,3.82-2.74,3.24,3.24,0,0,1,2.37,2.55l1.29,5.46-1.35-.64,1.84-.43-.64,1.35-.74-3.15c-.16-.66-.32-1.32-.47-2a6.61,6.61,0,0,1-.27-1.45,3.15,3.15,0,0,1,5.27-2.32c.94.91,1.07,2.36,1.36,3.57l.87,3.66-1.36-.64,1.84-.43-.63,1.35c-.39-1.64-.78-3.27-1.16-4.91a4.64,4.64,0,0,1-.12-2.83,3.14,3.14,0,0,1,4.4-1.64,3.54,3.54,0,0,1,1.66,2.52c.23,1,.47,2,.7,3,.35,1.46.73,2.91,1,4.38a9.21,9.21,0,0,1-4.4,9.71l.39-1.23,1,2.9c.43,1.29-1.56,2-2,.72-.32-1-.65-1.94-1-2.9a1.06,1.06,0,0,1,.39-1.23,7.14,7.14,0,0,0,3.64-6.8,27.37,27.37,0,0,0-.8-3.76c-.37-1.53-.69-3.08-1.09-4.61a1.13,1.13,0,0,0-.71-.87,1,1,0,0,0-1.16.4,1.07,1.07,0,0,0-.17.6c0,.08,0,.38,0,.1,0,0,0,0,0,.07l.18.77,1.18,4.94a1.1,1.1,0,0,1-.64,1.36l-1.84.43a1.07,1.07,0,0,1-1.35-.63c-.46-1.91-.87-3.84-1.36-5.74a1.1,1.1,0,0,0-1-1s-.46.05-.23,0-.21.07-.21.08a.87.87,0,0,0-.31.2,1.1,1.1,0,0,0-.28,1c0-.29,0,0,0,.07s.09.4.14.61c.14.61.29,1.22.43,1.83l.75,3.15a1.08,1.08,0,0,1-.63,1.36l-1.84.43a1.08,1.08,0,0,1-1.36-.63l-1-4.42a9.39,9.39,0,0,0-.42-1.66,1,1,0,0,0-1.95.36c0,.06.06.47,0,.15v0c0,.09.05.18.07.28l.24,1c.22.95.45,1.9.67,2.85.29,1.22.54,2.47.88,3.68a7.18,7.18,0,0,0,6.59,5.17,1.08,1.08,0,0,1,.85,1c.15,1.05.3,2.09.44,3.14a1.07,1.07,0,0,1-1,1.14,1.08,1.08,0,0,1-1.13-1Z"/><path class="cls-4" d="M213.88,100.62l-2.4-5.35,1.08.69a6.28,6.28,0,0,1-2.12-12.27,7.88,7.88,0,0,1,5,.5l-1.5.75c.57-2.53,1.78-5.06,4.28-6.16A7.86,7.86,0,0,1,225.94,80a8.13,8.13,0,0,1,2.61,3.62l-1.94-.1A6.29,6.29,0,1,1,238,88.84a6.47,6.47,0,0,1-4.47,3.27l1-.85q-.28,3.15-.56,6.31a1.07,1.07,0,0,1-1.24.84,1.09,1.09,0,0,1-.84-1.24c.19-2.11.38-4.21.56-6.32,0-.5.53-.76,1-.85a4.19,4.19,0,1,0-4.84-5.59,1.07,1.07,0,0,1-1.95-.1,6,6,0,0,0-5.88-3.94,4.28,4.28,0,0,0-3.14,1.48A8.13,8.13,0,0,0,216,85.34a1.07,1.07,0,0,1-1.5.75,5.26,5.26,0,0,0-3.9-.21,4.17,4.17,0,0,0,1.79,8,1.09,1.09,0,0,1,1.07.69l2.4,5.35a1.05,1.05,0,0,1-.63,1.35,1.08,1.08,0,0,1-1.36-.63Z"/><path class="cls-4" d="M228.46,90.8l-.3,3.49,0,.5a1.05,1.05,0,1,1-2.07-.4l.3-3.49,0-.5a1.06,1.06,0,0,1,.44-.67,1.07,1.07,0,0,1,.8-.17,1.09,1.09,0,0,1,.84,1.24Z"/><path class="cls-4" d="M218.91,91.45l1.47,3.18.21.46a1.06,1.06,0,0,1-.64,1.35,1.07,1.07,0,0,1-1.35-.63l-1.47-3.19-.21-.46a1.06,1.06,0,0,1,.63-1.35,1.1,1.1,0,0,1,1.36.64Z"/><path class="cls-4" d="M235,182l1.26-.1.22,0c.12,0-.07,0-.09,0a.66.66,0,0,1,.15-.05l.14,0c.15-.05,0,0,0,0s.2-.13.25-.16.12-.1,0,0l0,0s.16-.14.16-.2-.12.22,0,0,.05-.09.07-.14.06-.11,0-.13,0,.25,0,0a2,2,0,0,0,0-.26c0-.12,0,.09,0,.09s0-.13,0-.15v0c0-.19,0-.39,0-.58,0-.42-.08-.83-.1-1.25,0-.21,0,0,0,0a.66.66,0,0,0-.05-.15s-.11-.3-.05-.15,0-.08-.09-.13-.07-.12-.09-.12.15.14,0,0-.17-.18-.22-.19.18.1.07,0a.33.33,0,0,1-.13-.07l-.1,0c-.2-.09.05,0,.05,0s-.24,0-.3-.06c-.22,0,.05,0,.05,0a.75.75,0,0,0-.15,0h0l-.27,0-.8.06-.23,0h-.1c-.13,0-.06.06.05,0a.66.66,0,0,1-.15,0l-.14.05c-.12,0-.06,0,0,0-.06,0-.17.11-.22.14s-.08.05-.08.07.13-.14,0,0-.19.16-.19.22.09-.16,0,0,0,.08-.07.13a.42.42,0,0,1,0,.1c-.07.11,0-.17,0-.05a2.38,2.38,0,0,1,0,.26c0,.16,0,0,0-.05a.81.81,0,0,1,0,.16l0,.41c0,.48.08,1,.11,1.45,0,0,0,.16,0,0s0,0,0,.09a.78.78,0,0,0,0,.14c.05.14,0,0,0,0s.15.21.19.27-.07-.07-.06-.06.1.1.13.13a.48.48,0,0,1,.11.09c.09.08-.2-.11,0,0s.2.13.27.12-.25-.06,0,0l.15,0,.15,0h0a1.07,1.07,0,0,1,1.14,1,1.08,1.08,0,0,1-1,1.14,3.06,3.06,0,0,1-2.85-1.52,4.9,4.9,0,0,1-.45-2.06,6.17,6.17,0,0,1,0-1.87,3.08,3.08,0,0,1,2.48-2.32c.51-.09,1-.09,1.55-.13a3.08,3.08,0,0,1,2.72,1.23,3.9,3.9,0,0,1,.61,2.1,11,11,0,0,1,.07,1.82,3,3,0,0,1-2.38,2.58,14.27,14.27,0,0,1-1.73.17A1.06,1.06,0,0,1,235,182Z"/><path class="cls-4" d="M239.44,182.75c-.09-.46,0-.17,0,0a5.82,5.82,0,0,0,.2.68c.12.35.26.7.41,1l.27.6.07.12c.11.22-.12-.21,0,0l.2.36a13,13,0,0,0,.91,1.41c.18.25.36.48.56.71s.2.24.3.36c-.12-.14.2.21.25.26a13.35,13.35,0,0,0,3.48,2.6,17.67,17.67,0,0,0,6.17,1.78l-1.24.83c0-.09,0-.18,0-.27s0-.2,0-.3,0,.13,0,.05,0-.15,0-.23c0-.82,0-1.65,0-2.47a21.37,21.37,0,0,0-.37-3.18,1.86,1.86,0,0,0-.05-.19l-.09-.37c-.07-.27-.15-.55-.24-.81s-.18-.5-.28-.74l-.15-.33a.76.76,0,0,0-.09-.18c.06.1,0,0,0,0a8,8,0,0,0-.48-.75,2.29,2.29,0,0,0-.43-.49l-.29-.25s-.37-.25-.2-.15a4.09,4.09,0,0,0-.79-.38,1.06,1.06,0,1,1,.92-1.9c2.27.84,3.49,3.17,4.06,5.39a23.06,23.06,0,0,1,.61,6.36c0,.54,0,1.08-.1,1.62a1.08,1.08,0,0,1-1.24.83,17.59,17.59,0,0,1-10.22-4.45,15.53,15.53,0,0,1-3.88-5.89,9.86,9.86,0,0,1-.43-1.5,1.06,1.06,0,0,1,1-1.13,1.08,1.08,0,0,1,1.14,1Z"/><path class="cls-4" d="M205.29,151.08a96.87,96.87,0,0,0-.82,11.54q-.08,3.38,0,6.75c0,1.36-2.07,1.53-2.1.16a128.78,128.78,0,0,1,.71-17.78c0-.36.08-.72.13-1.08.19-1.34,2.27-.94,2.08.41Z"/><path class="cls-4" d="M179.42,194.23a6.26,6.26,0,0,0-4,1.11,4,4,0,0,0-.82.94,4.07,4.07,0,0,0-.51,1.28,7.73,7.73,0,0,0-.22,1.43c0-.24,0,.07,0,.09v.36c0,.19,0,.38,0,.57a7.15,7.15,0,0,0,.15,1.21,1.07,1.07,0,0,1-.7,1.08l-.36.11-.34.14-.22.1-.08,0a8.55,8.55,0,0,0-1.12.77h0a.8.8,0,0,1-.13.13c-.08.09-.17.18-.25.28l-.25.3-.09.12,0,.07a5,5,0,0,0-.6,3.67,6.34,6.34,0,0,0,2.35,3.4,5.38,5.38,0,0,0,2,1,2.83,2.83,0,0,0,2-.22,1.06,1.06,0,0,1,1.41.91c0,.22.05.43.08.65s0,.06,0,0c0,.07,0,.13,0,.19s.07.25.11.38a5.78,5.78,0,0,0,.35.9,6.54,6.54,0,0,0,.46.8,5.86,5.86,0,0,0,.76.89,6.19,6.19,0,0,0,2.63,1.53,1.09,1.09,0,0,1,.84,1.24,1.07,1.07,0,0,1-1.24.84c-3.16-.86-6-3.8-6.13-7.21l1.41.91c-3.5,1.66-7.52-1.54-8.79-4.68a6.9,6.9,0,0,1,2.51-8.22,6.59,6.59,0,0,1,2-1l-.69,1.07c-.61-2.93.13-6.68,3-8.2a9.17,9.17,0,0,1,5-1,1.07,1.07,0,0,1,.84,1.24,1.09,1.09,0,0,1-1.24.84Z"/><path class="cls-4" d="M268,178.42a110.81,110.81,0,0,1,12.8-5.17c2.12-.71,4.25-1.36,6.42-1.93a1.09,1.09,0,0,1,1.35.64,1.06,1.06,0,0,1-.64,1.35A111.91,111.91,0,0,0,270,179.8l-1.28.6a1.06,1.06,0,0,1-1.36-.63,1.07,1.07,0,0,1,.64-1.35Z"/><path class="cls-4" d="M291.26,193a76.4,76.4,0,0,1-14.57,12,36.71,36.71,0,0,1-4.63,2.37l.63-1.35.54,1.63c.43,1.29-1.56,2-2,.72l-.54-1.63a1.08,1.08,0,0,1,.63-1.36c5.53-2.31,10.38-6.28,14.75-10.32q1.82-1.7,3.56-3.47a1.06,1.06,0,1,1,1.61,1.37Z"/><path class="cls-4" d="M296.91,187.17a6.82,6.82,0,0,0,2.8-4.49,19.26,19.26,0,0,0,.47-3.78,16.48,16.48,0,0,0-.24-4.21,5.87,5.87,0,0,0-3.09-4.19,5.37,5.37,0,0,0-.65-.29,2.37,2.37,0,0,0-.34-.13c.26.08.17,0,.11,0-.21,0-.42-.08-.64-.1l-.24,0s-.33,0-.08,0h-.62a3.5,3.5,0,0,0-1.27.24,2.08,2.08,0,0,0-1,.75,2.56,2.56,0,0,0-.35,1.83,3.88,3.88,0,0,0,.85,1.94,1.06,1.06,0,0,1-.79,1.65c-.08,0-.37.06-.17,0s-.16.06-.23.08l-.18.08c.15-.07.1-.06,0,0a2,2,0,0,0-.55.53,3.84,3.84,0,0,0-.5,1.52,3.71,3.71,0,0,0,.07,1.5,1.93,1.93,0,0,0,.51.89c-.16-.18.15.12.22.18l.16.12c-.23-.18-.09-.06,0,0s.64.26.11.08a1.08,1.08,0,0,1,.74,1.5l-.06.18c.12-.34,0,0,0,.07s0,.17-.07.26a6.38,6.38,0,0,0-.19,1.55,3.62,3.62,0,0,0,.37,1.65,1.81,1.81,0,0,0,1.06,1c.2.08,0,0,.17,0l.44.08a2.66,2.66,0,0,0,.58,0c.24,0,.49,0,.73-.06l.43-.08c.35-.06-.19,0,.14,0a9.93,9.93,0,0,0,1.6-.51,1.05,1.05,0,0,1,.72,2c-1.78.78-4.25,1.27-6,.31-2.58-1.37-2.74-4.94-1.77-7.37l.75,1.5c-2.15-.71-3-2.95-2.74-5.07.22-1.83,1.46-4.09,3.58-4.11-.26.55-.52,1.1-.79,1.65-1.45-1.88-1.86-4.93,0-6.71a6,6,0,0,1,5.55-1.18,7.77,7.77,0,0,1,5.13,4.61,12.19,12.19,0,0,1,.78,4.36,27.85,27.85,0,0,1-.29,4.91c-.43,2.68-1.5,5.48-3.9,7C297,189.62,295.75,187.89,296.91,187.17Z"/><path class="cls-4" d="M199.86,179.39a120.36,120.36,0,0,0-13.19-6.62q-3.16-1.36-6.42-2.51a1.06,1.06,0,0,1-.49-1.41,1.09,1.09,0,0,1,1.41-.49,115.12,115.12,0,0,1,18.28,8.37l1.33.75a1.1,1.1,0,0,1,.49,1.42,1.07,1.07,0,0,1-1.41.49Z"/><path class="cls-4" d="M176.27,186.45c.2.4.37.73.66,1.23s.52.87.8,1.29a25.86,25.86,0,0,0,2,2.58,46.73,46.73,0,0,0,6,5.51c1.64,1.32,3.32,2.58,5,3.81a1.07,1.07,0,0,1,.12,1.49,1.09,1.09,0,0,1-1.49.12c-4.76-3.46-9.77-7.13-13.13-12a27.22,27.22,0,0,1-1.89-3.27,1.06,1.06,0,0,1,2-.72Z"/><path class="cls-4" d="M169.83,185.3c-2.1-1.58-3-4.2-3.21-6.71a25.58,25.58,0,0,1,0-5,13.7,13.7,0,0,1,1.06-4.5,7.86,7.86,0,0,1,5.4-4.41,6.3,6.3,0,0,1,5.22,1.12c2.18,1.88,1.63,5.24-.16,7.18l-.6-1.72c2.13.21,3.15,2.66,3.18,4.51s-.89,4.16-2.93,4.64c.22-.45.43-.9.64-1.35a7.08,7.08,0,0,1-.32,5.16,4.22,4.22,0,0,1-2.95,2.26,6.67,6.67,0,0,1-3.16-.29,10.85,10.85,0,0,1-2-.8c-1.19-.64-.28-2.55.92-1.9a9.84,9.84,0,0,0,1.56.66,8.93,8.93,0,0,0,1.47.3,3.91,3.91,0,0,0,.84-.05,2.63,2.63,0,0,0,.54-.18,3.27,3.27,0,0,0,1.28-2.67,7.34,7.34,0,0,0-.11-1.4c0-.08,0-.16-.05-.25.06.33,0,.12,0,0s0-.11-.05-.16a1.08,1.08,0,0,1,.64-1.36,2.33,2.33,0,0,0,.31-.11c.27-.1-.1.1.11-.05l.38-.27,0,0L178,178c.06-.07.12-.13.17-.2s.18-.26.08-.1c.05-.09.1-.18.14-.27a3.16,3.16,0,0,0,.27-1.4,4.54,4.54,0,0,0-.3-1.64,2,2,0,0,0-.28-.44c-.17-.23.14.12-.05-.07a1.54,1.54,0,0,0-.19-.17l-.18-.14c.23.17,0,0,0,0s-.47-.14-.12-.07c-.11,0-.21-.06-.31-.07a1.06,1.06,0,0,1-.6-1.72,4.35,4.35,0,0,0,.33-.42s.15-.22.1-.14a1.75,1.75,0,0,1,.13-.23,5.47,5.47,0,0,0,.33-.69,2.56,2.56,0,0,0-.35-2.58,2.5,2.5,0,0,0-1-.63l-.15,0-.31-.08c-.22,0-.44-.08-.66-.1l-.28,0c.18,0,0,0-.08,0h-.49l-.55.05s.26-.09.08,0a2.19,2.19,0,0,1-.34.1,7.63,7.63,0,0,0-.72.26,4.45,4.45,0,0,0-1.11.6,5.51,5.51,0,0,0-1.73,2.05,10.39,10.39,0,0,0-.95,3.52,25.62,25.62,0,0,0-.15,4.29,11.71,11.71,0,0,0,.76,3.75,5.42,5.42,0,0,0,1.79,2.36,1.06,1.06,0,0,1-1.37,1.61Z"/><path class="cls-4" d="M270.6,252.52a73.1,73.1,0,0,1-5.48,16.74,38.27,38.27,0,0,1-9.63,12.81,28.27,28.27,0,0,1-6.63,4.14A17.73,17.73,0,0,1,240,288a12.87,12.87,0,0,1-7.82-3.56,14.25,14.25,0,0,1-3.83-6.94,32.9,32.9,0,0,1-.66-5.33c-.11-1.72-.2-3.43-.27-5.15-.1-2.58-.15-5.17-.12-7.76l0-1.4a1.06,1.06,0,0,1,2.11-.16,162,162,0,0,0,.5,16.34,14.47,14.47,0,0,0,2.59,7.61,10.71,10.71,0,0,0,5.8,3.92,13.6,13.6,0,0,0,8.44-.78,26.89,26.89,0,0,0,6.39-3.57,34,34,0,0,0,9.28-11.38A64.93,64.93,0,0,0,268,254.26c.17-.71.33-1.43.48-2.15a1.06,1.06,0,0,1,2.08.41Z"/><path class="cls-4" d="M267.49,170.73q.94,4.14,1.85,8.3a1.09,1.09,0,0,1-.64,1.35,1.05,1.05,0,0,1-1.35-.63q-.9-4.16-1.85-8.3a1.08,1.08,0,0,1,.63-1.35,1.06,1.06,0,0,1,1.36.63Z"/><path class="cls-4" d="M203.56,151.68c-3.78-3.37-6.64-7.82-6.92-13a18.39,18.39,0,0,1,2-9.29,13.55,13.55,0,0,1,1.07-1.8l-.19,1a10,10,0,0,1,.68-7.89,9.84,9.84,0,0,1,2.47-3l-.39,1.23A9.52,9.52,0,0,1,205,108.76l-.44.67a11.61,11.61,0,0,1,5.23-8.12,14.63,14.63,0,0,1,8.17-2l-1,.35c3.84-4.26,10.3-3.91,15.35-2.39.55.16,1.11.34,1.64.55l-.82,0a11.44,11.44,0,0,1,8.49-.25,12.12,12.12,0,0,1,4.59,3.22,8.75,8.75,0,0,1,.77.94l-.67-.43a8.14,8.14,0,0,1,5.44,3.64,12.42,12.42,0,0,1,1.72,4.74,8.33,8.33,0,0,1,.11,1l-.59-.87c4.88,2,6.1,7.87,5.91,12.61,0,.54-.05,1.08-.12,1.61-.19-.38-.39-.76-.58-1.15a12.89,12.89,0,0,1,5.46,5.16c2.62,4.54,2.2,10.31-.15,14.87a13.41,13.41,0,0,1-2.3,3.37c.06-.34.12-.69.19-1q1.49,5.72,2.89,11.47c.5,2,1,4,1.47,6.05a1.1,1.1,0,0,1-.63,1.36,1.08,1.08,0,0,1-1.36-.64q-1.61-6.71-3.3-13.4l-.9-3.51c-.05-.2-.11-.39-.15-.59a1.24,1.24,0,0,1,.3-1.2c.23-.26.45-.52.65-.79l.43-.6c.16-.24-.07.11,0-.05l.13-.2.27-.45a15.53,15.53,0,0,0,1.81-4.79,12.21,12.21,0,0,0-1.91-9.86,9,9,0,0,0-1.3-1.44,13.05,13.05,0,0,0-1.35-1.11l-.29-.2c-.12-.08.22.15.05,0l-.14-.09-.44-.26-.38-.2a1.09,1.09,0,0,1-.58-1.15,2.48,2.48,0,0,0,0-.27l0-.29c0-.09,0-.5,0-.32s0-.09,0-.13,0-.18,0-.27,0-.42,0-.63c0-.46,0-.92,0-1.38a12.46,12.46,0,0,0-1.74-6.19,6.23,6.23,0,0,0-3-2.44,1.05,1.05,0,0,1-.6-.87,10.53,10.53,0,0,0-.17-1.36c0-.11-.07-.29,0-.06,0-.11,0-.22-.07-.33s-.14-.51-.22-.76a10,10,0,0,0-.64-1.59c-.07-.15.08.13,0,0l-.12-.22a3.13,3.13,0,0,0-.21-.34,7,7,0,0,0-.6-.83,3.75,3.75,0,0,0-.53-.53,7,7,0,0,0-.7-.56,5.91,5.91,0,0,0-1.88-.78,1.8,1.8,0,0,1-1.15-.64c-.14-.19-.29-.37-.45-.55s-.13-.15,0,0l-.21-.22a4.67,4.67,0,0,0-.45-.44,11.15,11.15,0,0,0-1.18-1l-.34-.23-.17-.11a9.25,9.25,0,0,0-.88-.47,8.42,8.42,0,0,0-3.65-.85,10,10,0,0,0-2.39.31c-.77.21-1.64.77-2.43.49l-.54-.2h0l-.28-.09-.69-.2a24.6,24.6,0,0,0-3.69-.74c-2.85-.34-6.06-.1-8.42,1.8-.29.24-.52.51-.79.77a1.19,1.19,0,0,1-1,.35c.57,0,0,0-.13,0a15,15,0,0,0-1.9.12l-.59.09-.33.06-.19,0c.17,0,.1,0,0,0a14.14,14.14,0,0,0-1.45.41l-.75.29-.34.15-.25.13a10.5,10.5,0,0,0-1.52,1,8.78,8.78,0,0,0-2.31,2.76,9.52,9.52,0,0,0-.82,2.06c-.11.39-.18.79-.26,1.19a1.47,1.47,0,0,1-.51.84c.23-.23.12-.11,0,0s-.23.24-.34.37a6.4,6.4,0,0,0-.41.5l-.2.27-.07.1c.07-.11-.06.1-.08.12a7.19,7.19,0,0,0-1.16,3.76,8.13,8.13,0,0,0,.43,2.59,1.1,1.1,0,0,1-.39,1.23c-.13.09-.32.33-.1.07-.2.24-.46.45-.67.69l-.39.49-.21.28-.1.15c-.11.16,0-.06,0,0a9.57,9.57,0,0,0-.78,1.53,8,8,0,0,0-.4,3.91c.12.79.6,1.6.11,2.33l-.05.07c-.15.21.14-.23,0,0-.3.49-.58,1-.83,1.48s-.36.76-.52,1.15l-.24.61-.12.34-.06.18c.07-.22,0,.08,0,.1a15.24,15.24,0,0,0-.58,7.3c.65,3.9,3.08,7.28,6,9.88,1,.91-.35,2.51-1.37,1.61Z"/><path class="cls-4" d="M248.33,102.33c-.38.19,0,0,.14-.09s.6-.38.89-.59A14.32,14.32,0,0,0,252,99.16a45.2,45.2,0,0,1,4.19-4.87A11,11,0,0,1,262,91.1a5.4,5.4,0,0,1,4.51,1.56A8.08,8.08,0,0,1,268.34,99a10.46,10.46,0,0,1-3.73,7c-3.4,2.88-8.21,3.49-12.5,3.25a1.1,1.1,0,0,1-1.14-1c0-.51.4-1.17,1-1.13a23.53,23.53,0,0,0,6.26-.41,14.39,14.39,0,0,0,2.41-.77,9,9,0,0,0,1.9-1c.26-.18.51-.36.75-.56l.21-.18c.23-.19-.15.15.07-.05l.37-.38c.22-.22.43-.46.63-.7s.17-.22.25-.34.09-.13.14-.2c.16-.23-.11.19,0,0a9.47,9.47,0,0,0,.82-1.62l.13-.36c-.1.28,0-.1,0-.17a7.88,7.88,0,0,0,.2-.87c0-.26.08-.52.11-.79,0-.08,0-.47,0-.14,0-.14,0-.28,0-.42a8.83,8.83,0,0,0-.15-1.54c0-.29.06.18,0-.1,0-.11-.05-.21-.08-.31s-.15-.47-.24-.7l-.12-.28c-.14-.32.07.11-.06-.12s-.22-.36-.34-.52a2.56,2.56,0,0,0-.2-.26c-.16-.21.16.14,0,0s-.29-.27-.45-.4.17.07-.12-.08a4.68,4.68,0,0,0-.59-.3,3.53,3.53,0,0,0-1.14-.24c-1.83,0-3.54,1.2-4.92,2.43-3.09,2.76-4.93,6.83-8.78,8.71a1.07,1.07,0,0,1-1.35-.63,1.08,1.08,0,0,1,.63-1.35Z"/><path class="cls-4" d="M232.74,106.35a5,5,0,0,1,1.44,1.57,3.33,3.33,0,0,1-.33,3.91,4.17,4.17,0,0,1-3.7,1.67,4.31,4.31,0,0,1-2.56-1.65,7,7,0,0,1-1-1.67l2.05-.44a4.39,4.39,0,0,1-1.67,4.49,5.07,5.07,0,0,1-4.44.38,3.27,3.27,0,0,1-1.9-2.69,5.24,5.24,0,0,1,.14-2,1.06,1.06,0,0,1,2.08.4,4.4,4.4,0,0,1-2.21,3.51,3.38,3.38,0,0,1-3.35-.5,3.17,3.17,0,0,1-1.1-2.95,4.52,4.52,0,0,1,1.72-3c1.08-.84,2.27.9,1.2,1.74-.18.14.06-.08-.09.07s-.16.18-.24.27-.07.09-.09.13a2.68,2.68,0,0,0-.18.33,1.54,1.54,0,0,0-.17.46,1.8,1.8,0,0,0-.06.32c-.05.31,0-.17,0,.14,0,.11,0,.21,0,.31,0,.25,0-.09,0,.13a.81.81,0,0,0,.2.35,1.19,1.19,0,0,0,.44.27l.25.06s.36,0,.19,0a1.63,1.63,0,0,0,.31,0c-.21,0,.07,0,.1,0,.23-.11-.11.07.08,0s.22-.17.08,0a2.29,2.29,0,0,0,.21-.23l.09-.11c-.06.09-.07.1,0,0a3.5,3.5,0,0,0,.26-.51,2.44,2.44,0,0,0,.1-.24c.07-.2-.05.19,0,0s.07-.26.1-.39.05-.28.07-.41l2.08.4a2,2,0,0,0-.08.33c0,.11,0,.23-.05.34s0,.14,0,.22c0-.24,0-.09,0,0a3.71,3.71,0,0,0,0,.47c0,.11,0,.27,0,.06,0,.1,0,.19.08.29l.09.21c-.09-.19,0,0,.05.07s.22.23,0,.07a1.37,1.37,0,0,0,.23.19c.12.09-.15-.07,0,0l.12.06.14.06c.16.06-.14,0,0,0a2.5,2.5,0,0,0,.69.1,3.31,3.31,0,0,0,1.48-.3c-.05,0,.16-.11.21-.15s.21-.19.08-.06l.21-.23c.15-.18,0,.07.08-.13l.13-.26c0-.09.08-.23,0,0a5.05,5.05,0,0,0,.12-.56l0-.25c0-.15,0,.21,0-.06s0-.3,0-.45,0-.29-.05-.43a1,1,0,0,1,.83-1.1,1.06,1.06,0,0,1,1.21.66l.06.13c.09.21-.13-.22,0-.06s0,.1.08.14a6.88,6.88,0,0,0,.61.91s.27.3.1.12c.08.09.17.17.25.25l.28.22c.19.15-.12-.06.07,0s.21.11.32.15h0l.17,0,.19,0c-.13,0-.13,0,0,0s.35,0,.26,0a3.35,3.35,0,0,0,.57-.26,3.26,3.26,0,0,0,.82-.75,1.4,1.4,0,0,0,.29-.65c0-.13,0-.15,0,0a1.48,1.48,0,0,0,0-.21c0-.18,0,0-.06-.19a1.45,1.45,0,0,0-.28-.51,1.76,1.76,0,0,0-.24-.3c.16.17-.05,0-.08-.08a4.7,4.7,0,0,0-.55-.45,1.06,1.06,0,0,1-.11-1.49,1.08,1.08,0,0,1,1.49-.12Z"/><path class="cls-4" d="M250.09,104a22.67,22.67,0,0,0,5-2.55,18.29,18.29,0,0,1,3.81-2.53,2.24,2.24,0,0,1,2.77.47,3.2,3.2,0,0,1,.33,2.53,5.29,5.29,0,0,1-2.5,3.09c-2.46,1.48-5.49,1.86-8.3,2a1.06,1.06,0,0,1-.17-2.11,18.21,18.21,0,0,0,6.74-1.35,2.1,2.1,0,0,0,.26-.13l.08,0,.47-.29c.13-.09.26-.18.38-.28l.17-.14c.09-.07-.07.07-.07.07a.94.94,0,0,0,.1-.1,5.67,5.67,0,0,0,.51-.59c.13-.16-.05.08,0,0s.06-.09.08-.14l.15-.3s0-.1,0-.14,0,.23,0,.08.05-.19.06-.29,0-.17,0-.25,0,.15,0,.12,0-.1,0-.13,0-.16,0-.24c0-.26,0,0,0,0a2.3,2.3,0,0,1-.12-.34c0,.06.17.27,0,.1s.19.16.09.09l.15.07c.15.06,0,0,0,0s.2,0,.05,0a.38.38,0,0,0-.15,0c.15,0-.13,0-.17,0l-.44.17a19.67,19.67,0,0,0-3.19,2.24,26,26,0,0,1-5.4,2.76c-1.27.51-2-1.48-.72-2Z"/><path class="cls-4" d="M206,107.25a17.35,17.35,0,0,1-5.09-3.61,25.13,25.13,0,0,0-4.07-3.34,8.22,8.22,0,0,0-4.93-1.64,3.19,3.19,0,0,0-1,.28,3.68,3.68,0,0,0-.42.23l-.22.15c-.07.06-.49.45-.19.15a3.33,3.33,0,0,0-.36.39,1.66,1.66,0,0,1-.16.21c0,.05-.1.18.06-.09l-.09.15c-.09.16-.18.33-.26.5s-.07.18-.11.28c-.13.32,0-.13,0,.13a9.73,9.73,0,0,0-.24,1.31c0,.05,0,.11,0,.16s0-.28,0-.05,0,.23,0,.34,0,.51,0,.76.06.47.1.7c0,.08.1.47,0,.15,0,.13.07.26.1.39a9.47,9.47,0,0,0,.54,1.46c0,.06.21.42.08.17l.19.35a8.6,8.6,0,0,0,.49.74c.16.22.33.43.51.64s-.1-.11,0,0l.15.15.37.36a7.45,7.45,0,0,0,.67.57l.36.26.15.11c-.19-.13.09.05.13.07a10.8,10.8,0,0,0,2.09,1,3.33,3.33,0,0,0,.39.13l.58.15a13,13,0,0,0,1.36.26,20.38,20.38,0,0,0,6.41-.26,1.06,1.06,0,0,1,1.13,1,1.08,1.08,0,0,1-1,1.14c-3.7.66-7.78.67-11.21-1.08a10.64,10.64,0,0,1-5.2-5.8,8.87,8.87,0,0,1,0-6.49,5.23,5.23,0,0,1,2.36-2.53,6.9,6.9,0,0,1,6,.1,20.57,20.57,0,0,1,5.78,4c.93.85,1.79,1.77,2.8,2.53a12.89,12.89,0,0,0,2.68,1.57c1.25.55.33,2.45-.92,1.91Z"/><path class="cls-4" d="M205.43,109.47a31,31,0,0,1-5-1.55c-1.19-.49-2.23-1.24-3.42-1.75a6.62,6.62,0,0,0-.78-.3,4.44,4.44,0,0,0-.74-.14c.08,0-.25,0-.12,0s0,0,0,0,.1,0,.15-.08.19-.28.12-.15.07-.09,0-.11,0,.15-.05.17a1.24,1.24,0,0,1,0,.18c0,.13,0-.19,0-.16s0,.09,0,.12a1.94,1.94,0,0,0,0,.24s0,.07,0,.11-.07-.22,0-.1.12.35.18.52-.07-.13,0-.08a.83.83,0,0,1,.07.13,2.75,2.75,0,0,0,.19.28.41.41,0,0,1,.1.13c.1.14-.16-.15,0,0l.29.26.3.25.09.06c-.13-.09.09,0,.13.07a7,7,0,0,0,.92.43l.13,0,.32.1.7.17a13.41,13.41,0,0,0,1.67.23,23.7,23.7,0,0,0,4.45-.12,1.06,1.06,0,0,1,.16,2.11,19.39,19.39,0,0,1-7.7-.41,5.94,5.94,0,0,1-3.5-2.46,3.53,3.53,0,0,1-.46-2.67c.76-2.71,4.58-.74,6.06.12a21.68,21.68,0,0,0,6.2,2.27c1.33.3.93,2.38-.4,2.08Z"/><path class="cls-4" d="M239.74,123.19c0,.06,0,.11,0,.17s0-.12,0-.12a.67.67,0,0,0,.09.26.47.47,0,0,0,.06.15s-.14-.25,0-.11l.18.26c.12.15-.16-.15,0-.07l.09.09c.08.07.32.19,0,0l.23.13.09,0c.17.08-.26-.06,0,0l.26,0c.11,0,.17,0-.09,0h.14l.28,0c.14,0-.29.08-.09,0l.15,0,.15-.06c.09,0,.08-.09-.1,0,.06,0,.15-.09.22-.14l.1-.08c.11-.08-.19.2-.07,0s.13-.17.2-.24c-.15.15-.1.18-.06.1l.08-.14,0-.1c0-.09,0-.22,0,.06,0-.08.05-.17.06-.26s0-.07,0-.1c0-.2,0,.28,0,0a2.18,2.18,0,0,0,0-.25c0-.1-.08-.23,0,.06,0,0,0-.07,0-.1s-.07-.17-.1-.25.14.22,0,0l-.09-.13a.39.39,0,0,0-.08-.1c-.06-.09-.13-.08.06.06a1.62,1.62,0,0,1-.19-.18s-.18-.12,0,0,0,0,0,0-.2-.14-.28-.14.27.08.11,0l-.16,0c-.06,0-.33,0-.13,0s0,0,0,0h-.14l-.14,0c-.2,0,.24-.07.06,0a1.82,1.82,0,0,0-.3.11c-.18.07.18-.12.08,0l-.16.09-.08.07c-.21.17.12-.14,0,0s-.11.13-.17.2.13-.23,0,0a.64.64,0,0,0-.08.14l-.06.14c-.08.17.06-.25,0-.06l-.06.32c0,.09,0,.13,0-.12a1.62,1.62,0,0,1,0,.22,1.06,1.06,0,1,1-2.11.16,3.12,3.12,0,0,1,1.84-3,3.05,3.05,0,0,1,3.36.62,3.06,3.06,0,1,1-5.2,2.42,1.06,1.06,0,0,1,2.11-.16Z"/><path class="cls-4" d="M216.1,125a.88.88,0,0,1,0,.16c0,.18,0-.11,0-.11a.65.65,0,0,0,.08.26s0,.11.06.14-.14-.24-.05-.1l.19.26c.11.15-.17-.15-.06-.07l.09.09c.09.07.33.19,0,0l.23.13.1,0c.17.08-.27-.06,0,0l.27,0c.1,0,.17,0-.1,0H217l.28,0c.14,0-.28.07-.09,0l.15-.05.15-.07c.09,0,.08-.08-.1.06.07-.06.15-.09.22-.15a.39.39,0,0,0,.1-.08c.11-.07-.19.2-.06.06a2.31,2.31,0,0,1,.2-.24c-.16.15-.11.18-.06.09l.07-.14,0-.09c0-.1,0-.22,0,.06a2.44,2.44,0,0,0,.06-.26.36.36,0,0,0,0-.11c0-.19,0,.29,0,0a2.11,2.11,0,0,0,0-.25c0-.1-.08-.24,0,.06l0-.11-.1-.25c-.07-.18.14.23,0,.06l-.09-.13a.76.76,0,0,0-.08-.11c-.06-.09-.13-.07.06.07-.06,0-.12-.13-.19-.18s-.18-.12,0,0,0,0,0,0a.93.93,0,0,0-.29-.13s.27.08.11,0l-.16,0c-.05,0-.33,0-.13,0s0,0,0,0h-.28c-.2,0,.24-.07.06,0l-.3.11c-.18.08.19-.12.08,0l-.15.1-.09.06c-.21.17.12-.13,0,0a1.63,1.63,0,0,0-.17.2c-.13.15.12-.23,0-.06s-.05.1-.08.14l-.06.15c-.08.16.06-.25,0-.06s0,.21-.07.31,0,.14,0-.12a1.77,1.77,0,0,1,0,.23,1.05,1.05,0,0,1-2.1.16,3.09,3.09,0,0,1,1.83-3,3.05,3.05,0,0,1,3.37.62,3.06,3.06,0,0,1-2.55,5.22,3.08,3.08,0,0,1-2.65-2.8,1.05,1.05,0,0,1,1-1.13A1.07,1.07,0,0,1,216.1,125Z"/><path class="cls-4" d="M229.41,129.56a4.7,4.7,0,0,1,.75,0,4.21,4.21,0,0,1,1.78.37,2,2,0,0,1,.78.68,1.94,1.94,0,0,1,.27,1.2,4.29,4.29,0,0,1-.79,2.2,3.22,3.22,0,0,1-2.34,1.35,1.05,1.05,0,1,1-.17-2.1l.3,0-.28.06a2.55,2.55,0,0,0,.39-.13c.18-.07-.1.05-.1.06l.08,0,.17-.12c.08-.06.22-.23,0,0l.13-.13a1,1,0,0,0,.13-.16c.06-.07.17-.28,0,0,.06-.11.13-.22.19-.34l.08-.18,0-.09c0-.13-.05.13,0,.13s0-.15.05-.19a1.06,1.06,0,0,0,0-.19,2.2,2.2,0,0,0,.05-.37v.29a2.17,2.17,0,0,0,0-.36l.06.28s0-.07,0-.11.18.28.07.13-.13-.15,0,0,0,.06,0,0-.19-.09.11.06l-.11-.06-.2-.08c.37.16.12,0,0,0l-.27-.05a4.07,4.07,0,0,0-.49,0h-.47a1.05,1.05,0,1,1-.16-2.1Z"/><path class="cls-4" d="M229.57,131.66a6,6,0,0,0-.74.12l.27-.06a2.85,2.85,0,0,0-.48.13,1.34,1.34,0,0,0-.26.09c-.11,0-.34.2,0,0a1.18,1.18,0,0,0-.19.11.39.39,0,0,0-.1.08c.28-.2.17-.17.1-.08s.14-.26,0,0,0-.27,0-.13a.43.43,0,0,1,0,.11l0-.28a2.09,2.09,0,0,0,0,.35l-.06-.28a5.27,5.27,0,0,0,.25.7c.05.11-.12-.22-.06-.12l.06.09.09.16s.2.33.25.32-.19-.2-.08-.1l.06.07.16.13a.61.61,0,0,0,.16.13s-.24-.15-.11-.08l.08.05.18.09.09,0c.11.06-.27-.07-.11,0a3,3,0,0,0,.43.07h0a1.05,1.05,0,1,1,.17,2.1,3.62,3.62,0,0,1-3.57-2.7,2.68,2.68,0,0,1-.12-1.19,1.75,1.75,0,0,1,.59-1,3.3,3.3,0,0,1,1.5-.73,7.48,7.48,0,0,1,1.15-.2,1.05,1.05,0,1,1,.16,2.1Z"/><path class="cls-4" d="M230.86,134.58l.24,3.15,0,.44a1.05,1.05,0,1,1-2.1.17l-.25-3.15,0-.44a1.06,1.06,0,0,1,2.11-.17Z"/><path class="cls-4" d="M236.83,135.61a5.7,5.7,0,0,1-3.62,3.65,10.25,10.25,0,0,1-3,.65,1.07,1.07,0,0,1-1.14-1,1.1,1.1,0,0,1,1-1.14,11.88,11.88,0,0,0,1.3-.17c.05,0,.2,0,0,0l.12,0,.27-.07.52-.16.46-.19.18-.08.12-.05c.13-.07,0,0-.07,0,.2-.17.48-.27.69-.43l.29-.23c.13-.11,0,0-.05,0a.86.86,0,0,1,.14-.13,4.19,4.19,0,0,0,.39-.45l.15-.22s-.15.25-.07.11l.07-.11a3.78,3.78,0,0,0,.17-.35,1,1,0,0,0,.07-.15s0-.05,0-.07.06-.17,0,.1c-.15.43,0,.1,0,.1s0-.08,0-.1a1.06,1.06,0,1,1,2.08.4Z"/><path class="cls-4" d="M225,136s0,0,0,.08-.15-.27-.08-.15a.75.75,0,0,0,.07.12,2.9,2.9,0,0,0,.19.29l.14.17c.17.21-.19-.18,0,0a5.11,5.11,0,0,0,.42.39,2.48,2.48,0,0,1,.26.19l-.06,0,.18.1a5.79,5.79,0,0,0,.71.34l.2.08-.11,0a.42.42,0,0,1,.12,0l.46.12a10.22,10.22,0,0,0,1.22.17h.47c.27,0,.54,0,.82,0a1.06,1.06,0,0,1,.16,2.11c-2.48.18-5.44-.36-6.88-2.62a3,3,0,0,1-.32-.61,1.05,1.05,0,1,1,2-.72Z"/><path class="cls-4" d="M235.14,137.81a7,7,0,0,1-.49,1.53,5.62,5.62,0,0,1-2,2.46,4.88,4.88,0,0,1-2.23.74,1.06,1.06,0,0,1-1.13-1,1.08,1.08,0,0,1,1-1.14l.41-.05c.17,0-.13,0-.13,0l.1,0,.23-.07.35-.13s.14-.09.16-.08-.25.14-.12.06l.09,0a2.9,2.9,0,0,0,.29-.19l.15-.12s.22-.19.06,0,0,0,0,0l.11-.12a2.75,2.75,0,0,0,.22-.26,2.35,2.35,0,0,0,.19-.25c.13-.18-.12.2,0,.07l.09-.16a5.12,5.12,0,0,0,.27-.52,3.45,3.45,0,0,0,.2-.48.42.42,0,0,1,0-.1c0-.11-.1.31,0,.13l.06-.2c0-.14.08-.29.11-.44a1.06,1.06,0,0,1,2.07.41Z"/><path class="cls-4" d="M227,137.88a3.05,3.05,0,0,0,.13.32c0,.06.05.11.07.16s.17.31,0,0c.08.15.16.29.25.43a4.07,4.07,0,0,0,.33.48l.19.23c.14.17-.15-.15-.06-.06l.13.13c.15.15.32.29.49.43l.14.09c-.29-.21-.13-.08,0,0a2.21,2.21,0,0,0,.34.18l.19.09.09,0-.12,0,.43.11a3,3,0,0,0,.43,0c-.38,0-.08,0,0,0l.26,0a1.06,1.06,0,1,1,.16,2.11,4.86,4.86,0,0,1-3.57-1.21,7.1,7.1,0,0,1-1.64-2.28,3.71,3.71,0,0,1-.19-.46,1.06,1.06,0,0,1,2-.71Z"/><path class="cls-4" d="M237.06,177.54a5.44,5.44,0,0,1,.52-1,16.56,16.56,0,0,1,2.17-2.77,36,36,0,0,1,12.06-7.64,77.61,77.61,0,0,1,13.08-4,1.07,1.07,0,0,1,1.35.63,31.86,31.86,0,0,1,1.27,4.69c.11.58.21,1.15.28,1.73a2.48,2.48,0,0,1,0,1.35,1.74,1.74,0,0,0-.11.18,19.45,19.45,0,0,1-2.18,2.84,29.5,29.5,0,0,1-13.53,8.2,41.84,41.84,0,0,1-14.22,1.41,1.05,1.05,0,1,1,.4-2.07,36,36,0,0,0,18.57-3.49l.24-.13.37-.2c.28-.15.55-.31.82-.47.48-.29.95-.59,1.42-.9A28.12,28.12,0,0,0,262,174l.24-.21.09-.08.47-.44c.29-.27.57-.56.84-.84.45-.48.89-1,1.29-1.48s.58-.78.86-1.18c.09-.13-.17.27-.07.11s0-.06.05-.09l.09-.14a.41.41,0,0,0,.07-.11l-.1.54a27.18,27.18,0,0,0-1.53-6.66l1.36.64c-6.72,1.5-13.59,3.63-19.37,7.25a30.65,30.65,0,0,0-2.66,1.84c-.37.29-.73.59-1.08.89l-.24.22c-.14.11.15-.14-.06.05l-.44.42a16.58,16.58,0,0,0-1.39,1.51c-.18.21-.35.42-.51.64l-.18.26a.71.71,0,0,1-.1.14c-.15.21.12-.19,0,0a6.79,6.79,0,0,0-.65,1.22,1.06,1.06,0,0,1-1.41.49,1.08,1.08,0,0,1-.49-1.41Z"/><path class="cls-4" d="M233.69,183.19a15,15,0,0,1-6.17,10.95,19,19,0,0,1-6.36,3,1.07,1.07,0,0,1-1.35-.64,26.47,26.47,0,0,1-.66-3.66,16,16,0,0,1,.44-6.75,6.51,6.51,0,0,1,2.13-3.15c1.07-.84,2.27.9,1.2,1.74l-.12.09,0,0a1.45,1.45,0,0,0-.21.22l-.23.27s-.24.33-.15.19a5.83,5.83,0,0,0-.6,1.26,1.3,1.3,0,0,0-.06.2c0,.13-.07.25-.1.37s-.11.51-.15.76-.08.48-.1.73-.05.52-.05.67a23.43,23.43,0,0,0,.47,5.41c0,.08,0,.17.05.26s.07.32,0,.12,0,.15.05.22.05.21.08.31l-1.35-.63a15.64,15.64,0,0,0,8.55-5.41,12.85,12.85,0,0,0,1.73-3.06c.09-.23.18-.45.26-.68s0,.12,0-.15l.12-.38c.11-.38.2-.77.27-1.15s.11-.59.14-.89,0-.5,0-.07a1.09,1.09,0,0,1,1-1.14,1.05,1.05,0,0,1,1.13,1Z"/><path class="cls-4" d="M231.4,179.05c.33.37.1.12,0,0a8.14,8.14,0,0,0-.63-.54c-.35-.28-.71-.54-1.08-.79l-.17-.11s.21.13,0,0l-.4-.25-.91-.53a45.57,45.57,0,0,0-12.79-4.52,97.94,97.94,0,0,0-12.88-1.86l1.24-.83a27.32,27.32,0,0,0-.47,6.81l-.37-.72a10.35,10.35,0,0,0,1.1,1,17,17,0,0,0,1.38,1l.25.17.49.31c.35.22.7.42,1.06.62a30.74,30.74,0,0,0,13.46,3.68,45.53,45.53,0,0,0,11.93-1,1.09,1.09,0,0,1,1.35.63,1.07,1.07,0,0,1-.63,1.36c-7.45,1.61-15.25,1.79-22.52-.72a24.52,24.52,0,0,1-9-5.17,2.39,2.39,0,0,1-.23-.22c-.61-.64-.44-1.8-.43-2.62a30.71,30.71,0,0,1,.55-5.5,1.08,1.08,0,0,1,1.23-.84,80.3,80.3,0,0,1,20.32,4,30.85,30.85,0,0,1,8.67,4.41,8.4,8.4,0,0,1,1.21,1.09,1.06,1.06,0,0,1-.26,1.48,1.09,1.09,0,0,1-1.47-.27Z"/><path class="cls-4" d="M228.63,122.4a11.37,11.37,0,0,1,4.58.71,12.63,12.63,0,0,1,7.11,6.6,26.26,26.26,0,0,1,2.54,8,8.87,8.87,0,0,1-1.71,7c-2.5,3-6.83,3.74-10.48,4a1.06,1.06,0,0,1-.16-2.11,21.85,21.85,0,0,0,5.38-1c.35-.12.69-.25,1-.4a5.8,5.8,0,0,0,.75-.38,7.94,7.94,0,0,0,.78-.5l.35-.26.18-.16c.17-.14-.1.1.08-.07a6.89,6.89,0,0,0,.52-.56l.24-.31.1-.14c.17-.24-.1.18,0-.07a6.19,6.19,0,0,0,.36-.67c.05-.1.09-.21.13-.31l.08-.2c0-.07,0,.16,0-.06a9.15,9.15,0,0,0,.3-1.56,1,1,0,0,1,0-.17c0,.23,0,.07,0,0s0-.3,0-.45,0-.55,0-.82a14.84,14.84,0,0,0-.24-1.74c0-.05-.06-.26,0-.06a1.29,1.29,0,0,0,0-.19c0-.15-.07-.29-.11-.44-.08-.31-.16-.62-.25-.92a34.44,34.44,0,0,0-1.37-3.67,11,11,0,0,0-5.74-6.16l-.45-.18-.22-.08-.13,0c.1,0,.11,0,0,0-.29-.09-.58-.17-.88-.24a11.53,11.53,0,0,0-1.43-.24l-.33,0c-.33,0,.2,0-.06,0h-.8a1.05,1.05,0,0,1-.16-2.1Z"/><path class="cls-4" d="M228.79,124.5l-.29,0-.34,0-.2,0,.12,0-.16,0c-.39.1-.78.21-1.16.34-.22.08-.45.16-.67.26l-.35.15-.2.1s-.28.14-.08,0a10.33,10.33,0,0,0-5.17,6.31,34.64,34.64,0,0,0-.94,4c-.1.61-.19,1.22-.25,1.83,0,.17,0,.33,0,.5s0,.13,0,.19c0-.19,0,0,0,0,0,.32,0,.64,0,1a13.26,13.26,0,0,0,.13,1.66c0,.13,0,.26.07.39s.06.26,0,0a.85.85,0,0,1,0,.17c.08.26.15.53.24.78s.18.45.28.67,0-.05.11.21.14.24.22.36.3.41.46.61-.09-.08.11.12l.31.3a7.77,7.77,0,0,0,.68.53,8,8,0,0,0,.82.45,7.79,7.79,0,0,0,1.92.66,20.4,20.4,0,0,0,6.09.29,1.06,1.06,0,0,1,.16,2.11c-3.45.26-7.32.16-10.29-1.85a8.35,8.35,0,0,1-3.4-6.3,23.54,23.54,0,0,1,.93-8,13.3,13.3,0,0,1,5.51-8.25,11.62,11.62,0,0,1,5.21-1.87,1.05,1.05,0,0,1,.16,2.1Z"/><path class="cls-4" d="M173,227C168,228.41,162,230,159.64,235.29a16.25,16.25,0,0,0-1.44,6.83,13.16,13.16,0,0,0,1.54,6,16.51,16.51,0,0,0,10.43,7.73,26.42,26.42,0,0,0,11.57.36c1-.19,1.67-.33,2.72-.59,1.27-.31,2.53-.68,3.77-1.09a47.74,47.74,0,0,0,9-4c.8-.46,1.58-.95,2.35-1.46,1.13-.76,2.33,1,1.2,1.73a50.38,50.38,0,0,1-17.7,7.3,29.23,29.23,0,0,1-12,.16c-4.92-1-9.67-3.64-12.47-7.91a16.19,16.19,0,0,1-1.54-14.19,13.39,13.39,0,0,1,4.87-6.84,27,27,0,0,1,8.11-3.63l2.25-.67a1.1,1.1,0,0,1,1.36.64A1.07,1.07,0,0,1,173,227Z"/><path class="cls-4" d="M202.85,177.38c-.12.09-.23.19-.34.29l.2-.18a21,21,0,0,0-1.61,1.66,1.11,1.11,0,0,1-.72.36,1.07,1.07,0,0,1-.77-.25,1.06,1.06,0,0,1-.37-.72,1.09,1.09,0,0,1,.25-.77,20.57,20.57,0,0,1,2-2l.11-.1a1.08,1.08,0,0,1,.8-.16,1,1,0,0,1,.84,1.23,1.21,1.21,0,0,1-.43.67Z"/><path class="cls-4" d="M272.32,209.05c-3.83.45-7.68.81-11.52,1.1-6.22.48-12.44.79-18.67.89-7.34.13-14.68,0-22-.62a113.74,113.74,0,0,1-20.9-3.4,59.31,59.31,0,0,1-9-3.19c-.6-.27-1.13-.43-1.49.09a2.28,2.28,0,0,0-.22.85l-.63,3.66c-.09.52-.17,1-.26,1.54a1.23,1.23,0,0,0,.07,1,2.3,2.3,0,0,0,.89.6l1,.52c2,1,4,1.9,6.05,2.71a88.62,88.62,0,0,0,21.06,5.29,101.94,101.94,0,0,0,14.4.73c5.12-.08,10.25-.27,15.36-.58,7.39-.44,14.77-1.11,22.1-2.08,1.11-.14,2.21-.3,3.32-.46.71-.1,2.08,0,2.38-.78a1.66,1.66,0,0,0,0-.91l-.21-1.48-.57-3.82c-.1-.73-.11-1.69-1.12-1.62a1.05,1.05,0,0,1-.16-2.1,3,3,0,0,1,2.86,1.46,3.91,3.91,0,0,1,.44,1.52c.18,1.18.35,2.37.53,3.56.13.89.29,1.79.4,2.7a3,3,0,0,1-1.17,2.74,4.24,4.24,0,0,1-2,.66c-5.93.91-11.91,1.57-17.89,2.08q-7,.62-14.08.92c-5.32.23-10.67.44-16,.25a93.5,93.5,0,0,1-25.22-4.3,81.08,81.08,0,0,1-8.29-3.13,37.62,37.62,0,0,1-4.84-2.41,3,3,0,0,1-1.41-3.07c0-.28.1-.57.15-.85l.66-3.89c.21-1.19.33-2.39,1.4-3.17a3.06,3.06,0,0,1,3.09-.25c.72.31,1.43.64,2.16.94a81.58,81.58,0,0,0,20,4.83,182.32,182.32,0,0,0,22.4,1.43c6.89.05,13.77-.17,20.64-.6q7.13-.44,14.23-1.2l2-.22C273.51,206.79,273.67,208.9,272.32,209.05Z"/><path class="cls-4" d="M273.76,219.19c.3,2.53.54,5.08.76,7.62.44,5.21.77,10.44.79,15.67a68.88,68.88,0,0,1-.39,8.37,1,1,0,0,1-.68.79c-1.23.46-2.49.87-3.75,1.26-3.29,1-6.62,1.94-10,2.73a135.11,135.11,0,0,1-14.23,2.56,99.29,99.29,0,0,1-16.26.74,68.9,68.9,0,0,1-16.63-2.67,78.92,78.92,0,0,1-14.86-6,80.68,80.68,0,0,1-19.86-15,74.8,74.8,0,0,1-5.37-6.15c-.77-1-1.53-2-2.2-3.07l-.09-.14a1.07,1.07,0,0,1,.79-1.66l.22,0,.24,0,.17,0c-.19,0-.23,0,0,0a14.22,14.22,0,0,0,2.28-.77,12.07,12.07,0,0,0,1.39-.68,19.09,19.09,0,0,0,1.76-1.1,24.45,24.45,0,0,0,3.89-3.36,37.16,37.16,0,0,0,4.77-6.32,1.08,1.08,0,0,1,1.41-.49,1.06,1.06,0,0,1,.49,1.41,34.48,34.48,0,0,1-8.77,10.08,18.61,18.61,0,0,1-6.28,3.17,9.22,9.22,0,0,1-1.37.27l.79-1.66c.45.74,1,1.44,1.47,2.13s1.19,1.57,1.82,2.33q.59.74,1.2,1.44c.22.25.43.5.65.74s.22.26.34.38.22.25.05.06l.24.26a78.29,78.29,0,0,0,17.9,14.58,71.79,71.79,0,0,0,29.8,10c10.29,1,20.75-.2,30.83-2.32a120.81,120.81,0,0,0,16.24-4.51l.23-.09-.68.8a89.36,89.36,0,0,0,.15-15.09c-.23-4.46-.59-8.92-1.05-13.36-.09-.88-.19-1.77-.29-2.65-.16-1.35,1.94-1.51,2.11-.16Z"/><path class="cls-7" d="M43.09,94.91,38.9,86.75,35,87.19v7.1l-6.25,1.23V70.59H40.28a10.16,10.16,0,0,1,3.65.61,8.31,8.31,0,0,1,2.7,1.66,7,7,0,0,1,1.67,2.41,7.34,7.34,0,0,1,.57,2.86,8.41,8.41,0,0,1-1.1,4.27,7.61,7.61,0,0,1-3.3,3l5.46,9.48ZM39.57,81.47a4.16,4.16,0,0,0,2.25-.84,2.38,2.38,0,0,0,.83-1.95,2.35,2.35,0,0,0-.83-2,3.54,3.54,0,0,0-2.25-.66H35v5.81Z"/><path class="cls-7" d="M67.15,94.91l-1.58-5.34L57,90.51l-1.23,4.4H49.4L57,70.59h8.42l8.1,24.32ZM61.28,75.16l-2.7,9.68,5.4-.61Z"/><path class="cls-7" d="M74.78,94.91V70.59H86a11.49,11.49,0,0,1,3.23.42,7.62,7.62,0,0,1,2.44,1.2,5.19,5.19,0,0,1,1.52,1.9,5.75,5.75,0,0,1,.53,2.49,4.89,4.89,0,0,1-2,4.17,6.65,6.65,0,0,1,2.34,2.46,6.84,6.84,0,0,1,.85,3.4,8.39,8.39,0,0,1-.6,3.17,7.37,7.37,0,0,1-1.79,2.64,8.35,8.35,0,0,1-3,1.81,11.79,11.79,0,0,1-4.12.66ZM85.72,79.62a2.55,2.55,0,0,0,1.37-.73,2,2,0,0,0,.42-1.32,1.56,1.56,0,0,0-.63-1.29,3,3,0,0,0-1.86-.5H81v4.43Zm-.12,9.89a3.74,3.74,0,0,0,2.29-1,2.78,2.78,0,0,0,.79-2,2.44,2.44,0,0,0-.76-1.85,2.59,2.59,0,0,0-2.26-.53L81,84.64V90Z"/><path class="cls-7" d="M118.29,83.73a13.8,13.8,0,0,1-.72,5,10.58,10.58,0,0,1-2.19,3.71A9.66,9.66,0,0,1,112,94.78a12.06,12.06,0,0,1-4.36.89,11.6,11.6,0,0,1-4.39-.69,9.84,9.84,0,0,1-3.49-2.21,10.41,10.41,0,0,1-2.33-3.63,14,14,0,0,1-.91-4.91l-.06-2.47a13.76,13.76,0,0,1,.72-4.94,11,11,0,0,1,2.18-3.73,9.7,9.7,0,0,1,3.39-2.37,11.86,11.86,0,0,1,4.36-.9,12.26,12.26,0,0,1,4.39.71A9.57,9.57,0,0,1,115,72.74a10.69,10.69,0,0,1,2.33,3.64,14.12,14.12,0,0,1,.91,4.91ZM112,81.32a6.89,6.89,0,0,0-1.28-4.44,4.43,4.43,0,0,0-6.77,0,6.89,6.89,0,0,0-1.28,4.44v2.85A6.92,6.92,0,0,0,104,88.59a4.4,4.4,0,0,0,6.77,0A6.92,6.92,0,0,0,112,84.17Z"/><path class="cls-7" d="M135,94.91l-5.78-9.74-2,.2v8.92l-6.25,1.23V70.59h6.25v9.3l1-.12,7-9.18H142l-8.09,11.12,8.21,13.2Z"/><path class="cls-7" d="M157.46,94.91l-5.78-9.74-2.06.2v8.92l-6.25,1.23V70.59h6.25v9.3l1.06-.12,7-9.18h6.75l-8.1,11.12,8.22,13.2Z"/><path class="cls-7" d="M165.9,95.52V70.59h6.4V94.23Z"/><path class="cls-7" d="M31.07,200.74c-2.29,0-3.95-1.76-3.94-4.59s1.65-4.58,3.94-4.58,4,1.76,4,4.58S33.36,200.74,31.07,200.74Zm0-1c1.62,0,2.87-1.25,2.88-3.55s-1.26-3.55-2.88-3.55-2.86,1.25-2.87,3.55S29.46,199.7,31.07,199.7Z"/><path class="cls-7" d="M36.19,193.92h1v1h.07A1.82,1.82,0,0,1,39,193.81l.55,0v1.08a3,3,0,0,0-.64-.08,1.58,1.58,0,0,0-1.67,1.57v4.22H36.19Z"/><path class="cls-7" d="M40.81,191.41a.71.71,0,0,1,.75.7.73.73,0,0,1-.75.7.72.72,0,0,1-.74-.7A.71.71,0,0,1,40.81,191.41Zm-.53,2.51h1.06v6.7H40.28Z"/><path class="cls-7" d="M42.59,201.32H43.7c.14.68.78,1,1.73,1,1.14,0,1.84-.5,1.84-1.6v-1.36h-.08a2.06,2.06,0,0,1-1.95,1.14c-1.63,0-2.85-1.24-2.85-3.34s1.18-3.35,2.86-3.35a2.09,2.09,0,0,1,2,1.15h.09v-1.06h1v6.88c0,1.73-1.28,2.47-2.91,2.47S42.71,202.56,42.59,201.32Zm2.8-1.75c1.23,0,1.9-.88,1.91-2.36s-.67-2.43-1.91-2.43-1.92,1.08-1.92,2.43S44.12,199.57,45.39,199.57Z"/><path class="cls-7" d="M50.23,191.41a.71.71,0,0,1,.75.7.75.75,0,0,1-1.49,0A.71.71,0,0,1,50.23,191.41Zm-.53,2.51h1.06v6.7H49.7Z"/><path class="cls-7" d="M53.19,200.62H52.13v-6.7h1V195h.08a2,2,0,0,1,2-1.14c1.36,0,2.27.83,2.26,2.53v4.26H56.4v-4.18a1.47,1.47,0,0,0-1.52-1.66,1.65,1.65,0,0,0-1.69,1.82Z"/><path class="cls-7" d="M61,196.74c.44,0,1.52-.09,1.82-.09v-.55c0-.85-.51-1.34-1.52-1.34a1.41,1.41,0,0,0-1.5.9H58.72c.13-1.08,1.18-1.83,2.66-1.83a2.22,2.22,0,0,1,2.51,2.37v4.42h-1v-.92H62.8a2.14,2.14,0,0,1-2,1.08,2.08,2.08,0,0,1-2.28-2.06C58.52,197.18,59.88,196.83,61,196.74Zm0,3.09a1.7,1.7,0,0,0,1.86-1.64v-.67c-.32,0-1.37.09-1.69.11-1,.06-1.57.4-1.58,1.14S60.17,199.83,61,199.83Z"/><path class="cls-7" d="M66.34,200.62H65.28v-8.93h1.06Z"/><path class="cls-7" d="M70.69,191.69h3c2.09,0,3,1.16,3,2.75a2.44,2.44,0,0,1-1.66,2.5l2,3.68h-1.3L74,197.15H71.8v3.47H70.69Zm3,4.45c1.42,0,2-.64,2-1.7s-.56-1.76-2-1.76H71.8v3.46Z"/><path class="cls-7" d="M80.11,196.74c.43,0,1.51-.09,1.81-.09v-.55c0-.85-.5-1.34-1.51-1.34a1.42,1.42,0,0,0-1.51.9H77.79c.14-1.08,1.19-1.83,2.67-1.83A2.22,2.22,0,0,1,83,196.2v4.42h-1v-.92h0a2.16,2.16,0,0,1-2,1.08,2.08,2.08,0,0,1-2.28-2.06C77.6,197.18,79,196.83,80.11,196.74Zm0,3.09a1.7,1.7,0,0,0,1.86-1.64v-.67c-.31,0-1.36.09-1.68.11-1,.06-1.58.4-1.58,1.14S79.25,199.83,80.06,199.83Z"/><path class="cls-7" d="M84.49,191.69h1.06V195h.08a2,2,0,0,1,1.94-1.15c1.68,0,2.85,1.34,2.86,3.46s-1.18,3.47-2.85,3.46a2.06,2.06,0,0,1-2-1.16h-.12v1h-1Zm2.93,8.11c1.28,0,1.93-1.11,1.94-2.54s-.64-2.48-1.94-2.48-1.9,1-1.9,2.48S86.2,199.8,87.42,199.8Z"/><path class="cls-7" d="M91.17,197.3c0-2.09,1.23-3.47,3.06-3.47s3,1.38,3,3.47-1.21,3.46-3,3.45S91.17,199.38,91.17,197.3Zm3.06,2.51c1.35,0,2-1.17,2-2.51s-.62-2.53-2-2.53-2,1.2-2,2.53S92.86,199.81,94.23,199.81Z"/><path class="cls-7" d="M98.33,191.69h1.06v5.19h.12l2.9-3h1.31l-2.82,2.87,3,3.83h-1.34l-2.49-3.16-.71.66v2.5H98.33Z"/><path class="cls-7" d="M104.53,191.69h1.06v5.19h.13l2.89-3h1.31l-2.82,2.87,3,3.83h-1.34l-2.49-3.16-.71.66v2.5h-1.06Z"/><path class="cls-7" d="M111.26,191.41a.73.73,0,0,1,.76.7.74.74,0,0,1-.76.7.72.72,0,0,1-.74-.7A.71.71,0,0,1,111.26,191.41Zm-.53,2.51h1.06v6.7h-1.06Z"/><path class="cls-7" d="M31.07,212.14c-1.61,0-2.86,1.25-2.87,3.56s1.26,3.54,2.87,3.55a2.43,2.43,0,0,0,2.49-1.89h1.11a3.48,3.48,0,0,1-3.6,2.92c-2.29,0-3.95-1.76-3.94-4.58s1.65-4.59,3.94-4.59a3.48,3.48,0,0,1,3.6,2.93H33.56A2.42,2.42,0,0,0,31.07,212.14Z"/><path class="cls-7" d="M36.83,220.16H35.77v-8.93h1.06v3.28h.08a2,2,0,0,1,2-1.13c1.37,0,2.28.8,2.28,2.52v4.26H40.11V216a1.46,1.46,0,0,0-1.54-1.65,1.66,1.66,0,0,0-1.74,1.81Z"/><path class="cls-7" d="M42.23,216.87c0-2.06,1.21-3.49,3-3.49,1.41,0,2.89.86,2.89,3.34v.44H43.29a2,2,0,0,0,2.07,2.2,1.69,1.69,0,0,0,1.55-.77h1.14a2.61,2.61,0,0,1-2.69,1.7C43.42,220.3,42.23,218.92,42.23,216.87Zm4.84-.61a1.8,1.8,0,0,0-1.81-1.95,2,2,0,0,0-2,1.95Z"/><path class="cls-7" d="M48.89,216.87c0-2.06,1.21-3.49,3-3.49,1.4,0,2.89.86,2.88,3.34v.44H50a2,2,0,0,0,2.07,2.2,1.7,1.7,0,0,0,1.55-.77H54.7a2.58,2.58,0,0,1-2.68,1.7C50.08,220.3,48.89,218.92,48.89,216.87Zm4.84-.61a1.81,1.81,0,0,0-1.81-1.95,2,2,0,0,0-2,1.95Z"/><path class="cls-7" d="M58.23,214.28c-.83,0-1.41.45-1.42,1s.37.74,1.15.94l1,.24c1.19.29,1.78.88,1.78,1.81,0,1.16-.94,2-2.62,2-1.51,0-2.4-.66-2.58-1.88h1.11c.12.65.6,1,1.44,1s1.56-.4,1.56-1-.34-.79-1.1-1l-1-.23c-1.17-.27-1.79-.91-1.79-1.8,0-1.15,1-2,2.48-2a2.15,2.15,0,0,1,2.39,1.82h-1A1.26,1.26,0,0,0,58.23,214.28Z"/><path class="cls-7" d="M61.48,216.87c0-2.06,1.22-3.49,3-3.49,1.4,0,2.89.86,2.88,3.34v.44H62.54a2,2,0,0,0,2.08,2.2,1.7,1.7,0,0,0,1.55-.77H67.3a2.58,2.58,0,0,1-2.68,1.7C62.68,220.3,61.48,218.92,61.48,216.87Zm4.85-.61a1.81,1.81,0,0,0-1.81-1.95,2,2,0,0,0-2,1.95Z"/><path class="cls-7" d="M71.45,211.23h5.37v1H72.56v3h3.86v1H72.56v4H71.45Z"/><path class="cls-7" d="M79.08,220.16H78v-8.93h1.06Z"/><path class="cls-7" d="M82.64,216.29c.44,0,1.51-.1,1.82-.1v-.54c0-.86-.51-1.35-1.52-1.35a1.41,1.41,0,0,0-1.5.9H80.33c.13-1.08,1.18-1.82,2.66-1.82a2.22,2.22,0,0,1,2.51,2.36v4.42h-1v-.91h0a2.13,2.13,0,0,1-2,1.07,2.07,2.07,0,0,1-2.28-2.06C80.13,216.72,81.49,216.37,82.64,216.29Zm0,3.08a1.71,1.71,0,0,0,1.87-1.64v-.67c-.32,0-1.37.1-1.69.11-1,.07-1.57.4-1.58,1.14S81.78,219.37,82.59,219.37Z"/><path class="cls-7" d="M89.67,220.16h-1.1l-2.46-6.7h1.16l1.82,5.32h.08L91,213.46h1.16Z"/><path class="cls-7" d="M92.43,216.84c0-2.09,1.24-3.46,3.06-3.46s3,1.37,3,3.46-1.21,3.46-3,3.45S92.43,218.92,92.43,216.84Zm3.06,2.52c1.35,0,2-1.18,2-2.52s-.62-2.53-2-2.53-2,1.2-2,2.53S94.13,219.36,95.49,219.36Z"/><path class="cls-7" d="M99.59,213.46h1v1h.07a1.82,1.82,0,0,1,1.73-1.14c.16,0,.43,0,.55,0v1.07a3.15,3.15,0,0,0-.64-.07,1.57,1.57,0,0,0-1.67,1.56v4.22H99.59Z"/><path class="cls-7" d="M106.68,211.23h3c2.09,0,3,1.16,3,2.75a2.44,2.44,0,0,1-1.66,2.5l2,3.68h-1.3l-1.86-3.47h-2.15v3.47h-1.11Zm3,4.45c1.43,0,2-.64,2-1.7s-.56-1.76-2-1.76h-1.87v3.46Z"/><path class="cls-7" d="M116.09,216.29c.44,0,1.51-.1,1.82-.1v-.54c0-.86-.51-1.35-1.52-1.35a1.41,1.41,0,0,0-1.5.9h-1.11c.13-1.08,1.18-1.82,2.66-1.82a2.22,2.22,0,0,1,2.51,2.36v4.42h-1v-.91h0a2.13,2.13,0,0,1-2,1.07,2.07,2.07,0,0,1-2.28-2.06C113.58,216.72,114.94,216.37,116.09,216.29Zm0,3.08a1.7,1.7,0,0,0,1.86-1.64v-.67c-.32,0-1.37.1-1.69.11-1,.07-1.57.4-1.58,1.14S115.23,219.37,116.05,219.37Z"/><path class="cls-7" d="M120.47,211.23h1.06v3.29h.09a2,2,0,0,1,1.93-1.14c1.68,0,2.86,1.33,2.86,3.45s-1.18,3.47-2.84,3.46a2,2,0,0,1-1.95-1.16h-.13v1h-1Zm2.94,8.11c1.27,0,1.93-1.11,1.93-2.54s-.64-2.47-1.93-2.47-1.9,1-1.9,2.47S122.18,219.34,123.41,219.34Z"/><path class="cls-7" d="M127.15,216.84c0-2.09,1.23-3.46,3.06-3.46s3,1.37,3,3.46-1.21,3.46-3,3.45S127.15,218.92,127.15,216.84Zm3.06,2.52c1.35,0,2-1.18,2-2.52s-.62-2.53-2-2.53-2,1.2-2,2.53S128.85,219.36,130.21,219.36Z"/><path class="cls-7" d="M134.31,211.23h1.06v5.19h.13l2.89-3h1.31l-2.82,2.87,3,3.83h-1.34L136.08,217l-.71.66v2.5h-1.06Z"/><path class="cls-7" d="M140.51,211.23h1.07v5.19h.12l2.9-3h1.3l-2.82,2.87,3,3.83h-1.34L142.28,217l-.7.66v2.5h-1.07Z"/><path class="cls-7" d="M147.25,211a.7.7,0,1,1,0,1.4.7.7,0,1,1,0-1.4Zm-.53,2.51h1.06v6.7h-1.06Z"/><path class="cls-7" d="M32,230.77v6.38a2.41,2.41,0,0,1-2.56,2.67,2.28,2.28,0,0,1-2.56-2.23H28a1.31,1.31,0,0,0,1.46,1.25c.91,0,1.44-.59,1.44-1.69v-6.38Z"/><path class="cls-7" d="M34.59,233v7.17a1.8,1.8,0,0,1-2,2h-.22v-1a.74.74,0,0,0,.21,0c.61,0,.89-.38.9-1V233ZM34,230.49a.74.74,0,0,1,.76.7.75.75,0,0,1-.76.71.73.73,0,0,1-.74-.71A.72.72,0,0,1,34,230.49Z"/><path class="cls-7" d="M38.15,235.83l1.81-.1v-.54c0-.85-.5-1.35-1.51-1.35a1.42,1.42,0,0,0-1.51.9H35.83c.14-1.08,1.19-1.82,2.67-1.82A2.22,2.22,0,0,1,41,235.29v4.41H40v-.91h0a2.16,2.16,0,0,1-2,1.07,2.07,2.07,0,0,1-2.28-2.06C35.64,236.27,37,235.91,38.15,235.83Zm0,3.08A1.68,1.68,0,0,0,40,237.27v-.67l-1.68.12c-1,.06-1.58.4-1.58,1.13S37.29,238.92,38.1,238.91Z"/><path class="cls-7" d="M43.45,233v7.17a1.8,1.8,0,0,1-1.94,2h-.23v-1a.74.74,0,0,0,.21,0c.62,0,.9-.38.9-1V233Zm-.54-2.52a.72.72,0,0,1,.75.7.73.73,0,0,1-.75.71.73.73,0,0,1-.74-.71A.71.71,0,0,1,42.91,230.49Z"/><path class="cls-7" d="M47,235.83l1.81-.1v-.54c0-.85-.5-1.35-1.52-1.35a1.42,1.42,0,0,0-1.5.9H44.7c.14-1.08,1.19-1.82,2.66-1.82a2.23,2.23,0,0,1,2.52,2.37v4.41H48.83v-.91h0a2.13,2.13,0,0,1-2,1.07,2.08,2.08,0,0,1-2.29-2.06C44.5,236.27,45.86,235.91,47,235.83ZM47,238.91a1.68,1.68,0,0,0,1.86-1.64v-.67l-1.69.12c-1,.06-1.57.4-1.58,1.13S46.16,238.92,47,238.91Z"/><path class="cls-7" d="M52.32,239.7H51.26V233h1v1h.09a2,2,0,0,1,2-1.13c1.36,0,2.26.82,2.26,2.53v4.25H55.53v-4.18A1.46,1.46,0,0,0,54,233.87a1.64,1.64,0,0,0-1.69,1.81Z"/><path class="cls-7" d="M57.84,240.4H59c.14.69.78,1,1.73,1,1.15,0,1.85-.5,1.85-1.61v-1.35h-.09a2,2,0,0,1-1.95,1.13c-1.62,0-2.84-1.23-2.84-3.34s1.17-3.34,2.86-3.34a2.09,2.09,0,0,1,2,1.15h.08V233h1v6.87c0,1.73-1.28,2.47-2.91,2.47S58,241.64,57.84,240.4Zm2.8-1.75c1.23,0,1.91-.88,1.91-2.35s-.66-2.43-1.91-2.43-1.92,1.08-1.92,2.43S59.37,238.65,60.64,238.65Z"/><path class="cls-7" d="M67.94,230.77h5.38v1H69.05v3h3.86v1H69.05v4H67.94Z"/><path class="cls-7" d="M75.57,239.7H74.51v-8.93h1.06Z"/><path class="cls-7" d="M79.14,235.83l1.81-.1v-.54c0-.85-.5-1.35-1.52-1.35a1.42,1.42,0,0,0-1.5.9H76.82c.14-1.08,1.18-1.82,2.66-1.82A2.23,2.23,0,0,1,82,235.29v4.41H81v-.91h0a2.13,2.13,0,0,1-2,1.07,2.07,2.07,0,0,1-2.28-2.06C76.62,236.27,78,235.91,79.14,235.83Zm0,3.08A1.68,1.68,0,0,0,81,237.27v-.67l-1.69.12c-1,.06-1.57.4-1.58,1.13S78.28,238.92,79.09,238.91Z"/><path class="cls-7" d="M86.17,239.7h-1.1L82.6,233h1.16l1.83,5.31h.07L87.49,233h1.15Z"/><path class="cls-7" d="M88.93,236.38c0-2.09,1.23-3.46,3-3.46s3,1.37,3,3.46-1.22,3.46-3,3.46S88.93,238.46,88.93,236.38Zm3,2.52c1.35,0,2-1.18,2-2.52s-.63-2.52-2-2.52-2,1.19-2,2.52S90.62,238.9,92,238.9Z"/><path class="cls-7" d="M96.09,233h1v1h.08a1.81,1.81,0,0,1,1.72-1.14l.56,0V234a3.26,3.26,0,0,0-.64-.07,1.57,1.57,0,0,0-1.68,1.56v4.22H96.09Z"/><path class="cls-7" d="M103.17,230.77h3c2.09,0,3,1.16,3,2.75a2.44,2.44,0,0,1-1.67,2.51l2,3.67H108.3l-1.87-3.47h-2.15v3.46h-1.11Zm3,4.45c1.42,0,2-.64,2-1.7s-.56-1.76-2-1.76h-1.87v3.46Z"/><path class="cls-7" d="M112.59,235.83l1.81-.1v-.54c0-.85-.5-1.35-1.52-1.35a1.42,1.42,0,0,0-1.5.9h-1.11c.14-1.08,1.18-1.82,2.66-1.82a2.23,2.23,0,0,1,2.52,2.37v4.41h-1v-.91h-.05a2.13,2.13,0,0,1-2,1.07,2.07,2.07,0,0,1-2.28-2.06C110.07,236.27,111.43,235.91,112.59,235.83Zm0,3.08a1.69,1.69,0,0,0,1.86-1.64v-.67l-1.69.12c-1,.06-1.57.4-1.58,1.13S111.73,238.92,112.54,238.91Z"/><path class="cls-7" d="M117,230.77H118v3.3h.08a2,2,0,0,1,1.94-1.15c1.67,0,2.85,1.33,2.86,3.45s-1.19,3.47-2.85,3.47a2.07,2.07,0,0,1-2-1.16H118v1h-1Zm2.93,8.12c1.28,0,1.93-1.12,1.94-2.54s-.65-2.48-1.94-2.48-1.9,1-1.9,2.48S118.68,238.89,119.9,238.89Z"/><path class="cls-7" d="M123.65,236.38c0-2.09,1.23-3.46,3-3.46s3,1.37,3,3.46-1.22,3.46-3,3.46S123.65,238.46,123.65,236.38Zm3,2.52c1.35,0,2-1.18,2-2.52s-.63-2.52-2-2.52-2,1.19-2,2.52S125.34,238.9,126.7,238.9Z"/><path class="cls-7" d="M130.81,230.77h1.06V236H132l2.9-3h1.31l-2.83,2.86,3,3.83h-1.35l-2.48-3.16-.71.66v2.5h-1.06Z"/><path class="cls-7" d="M137,230.77h1.06V236h.12l2.9-3h1.31l-2.83,2.86,3,3.83h-1.35l-2.48-3.16-.71.66v2.5H137Z"/><path class="cls-7" d="M143.74,230.49a.72.72,0,0,1,.75.7.73.73,0,0,1-.75.71.72.72,0,0,1-.74-.71A.71.71,0,0,1,143.74,230.49Zm-.53,2.52h1.06v6.69h-1.06Z"/><path class="cls-8" d="M48.93,50.39c-.23-.23-.54-.14-.82.14-1.61,1.61-2,2-3.34,2-3.66,0-6-6.07-6.2-6.51a1.09,1.09,0,0,0-.74-.52,1.1,1.1,0,0,0-.75.52c-.22.44-2.53,6.51-6.2,6.51-1.31,0-1.73-.38-3.34-2-.28-.28-.59-.37-.82-.14a.74.74,0,0,0-.17.85c.14.34,5,10.45,5,10.45s.19.49.5.49h4.8s1-.31,1-1a.61.61,0,0,0,0,.14.36.36,0,0,0,0-.11V49.66c0-.23.09-.45.27-.45s.22,0,.4.23,3,4.93,7.89,4.4l-3.63,7.42s-.25.92.53.92h.27c.31,0,.5-.49.5-.49s4.87-10.11,5-10.45A.74.74,0,0,0,48.93,50.39Z"/><path class="cls-7" d="M57.87,58.79c.07.17.12.29.14.36a.64.64,0,0,1,0,.45.74.74,0,0,1-1.29,0c-.25-.44-.5-.89-.73-1.37s-.45-.94-.68-1.42c-.2.2-.41.39-.63.59l-.57.49c0,.23,0,.46,0,.69a4.92,4.92,0,0,1,0,.67,1,1,0,0,1-.16.53.84.84,0,0,1-1,0,1,1,0,0,1-.19-.5c0-.34-.06-.76-.09-1.27s0-1.05-.06-1.63,0-1.15,0-1.74,0-1.12,0-1.62a1,1,0,0,1,0-.24.36.36,0,0,1,.12-.18,1,1,0,0,1,.25-.13,2.11,2.11,0,0,1,.42-.06,1.37,1.37,0,0,1,.39,0,.46.46,0,0,1,.24.13.46.46,0,0,1,.13.21,1,1,0,0,1,0,.24c0,1,0,1.9,0,2.8l1.43-1.55,1.38-1.51a1.18,1.18,0,0,1,.55-.33.67.67,0,0,1,.58.18.73.73,0,0,1,.07,1.09q-.39.47-.81.93c-.28.31-.57.61-.86.91.08.14.16.32.26.53s.21.43.32.66l.33.72.3.68C57.73,58.44,57.81,58.63,57.87,58.79Z"/><path class="cls-7" d="M62.18,58.39a.39.39,0,0,1,.32.13.76.76,0,0,1,.11.48.87.87,0,0,1-.11.56.59.59,0,0,1-.32.17l-.66.08-.73,0-.74,0h-.63a.48.48,0,0,1-.41-.16.87.87,0,0,1-.15-.54.81.81,0,0,1,.13-.52.56.56,0,0,1,.37-.19h.33l.32,0c0-.28,0-.62,0-1s0-.77,0-1.17,0-.79,0-1.18,0-.75,0-1.07h-.76a.48.48,0,0,1-.41-.16.92.92,0,0,1-.13-.55.82.82,0,0,1,.12-.53.49.49,0,0,1,.36-.21l.81,0,.9,0,.9,0h.77a.34.34,0,0,1,.31.16,1.08,1.08,0,0,1,.13.5.77.77,0,0,1-.13.56.6.6,0,0,1-.34.18,3,3,0,0,1-.42,0l-.41,0q0,.48,0,1l0,1.16,0,1.15c0,.37,0,.72,0,1Z"/><path class="cls-7" d="M67.26,56.43c.24.4.46.75.64,1V55.17c0-.4,0-.78,0-1.14s0-.66,0-.9a.8.8,0,0,1,.15-.44.78.78,0,0,1,.61-.18,1.5,1.5,0,0,1,.42.05.83.83,0,0,1,.25.13.4.4,0,0,1,.11.2.9.9,0,0,1,0,.23c0,.48,0,1,0,1.57s0,1.14,0,1.71,0,1.12-.07,1.64,0,1-.08,1.32a.67.67,0,0,1-.25.48,1,1,0,0,1-.6.18.71.71,0,0,1-.44-.09,1.37,1.37,0,0,1-.32-.32c-.14-.2-.32-.47-.54-.82l-.68-1.12-.71-1.24-.64-1.14c0,.32,0,.67,0,1.05s0,.77,0,1.15,0,.74-.06,1.07,0,.6-.07.8a.84.84,0,0,1-.2.49.76.76,0,0,1-1-.05,1,1,0,0,1-.17-.52q0-.72,0-1.56c0-.57,0-1.13,0-1.7s0-1.12,0-1.65,0-1,0-1.42a.47.47,0,0,1,.16-.33.88.88,0,0,1,.5-.11,2.27,2.27,0,0,1,.59.06.56.56,0,0,1,.35.28c.2.32.41.68.65,1.09l.74,1.25Z"/><path class="cls-7" d="M73.52,58.39a.39.39,0,0,1,.32.13A.76.76,0,0,1,74,59a.87.87,0,0,1-.11.56.59.59,0,0,1-.33.17l-.65.08-.73,0-.74,0h-.63a.51.51,0,0,1-.42-.16,1,1,0,0,1-.14-.54.81.81,0,0,1,.13-.52.56.56,0,0,1,.37-.19H71l.31,0v-1c0-.38,0-.77,0-1.17s0-.79,0-1.18,0-.75,0-1.07h-.75a.48.48,0,0,1-.41-.16.92.92,0,0,1-.13-.55.82.82,0,0,1,.12-.53.49.49,0,0,1,.36-.21l.81,0,.9,0,.9,0h.77a.34.34,0,0,1,.31.16,1,1,0,0,1,.12.5.73.73,0,0,1-.12.56.6.6,0,0,1-.34.18,3,3,0,0,1-.42,0L73,54q0,.48,0,1l0,1.16,0,1.15c0,.37,0,.72,0,1Z"/><path class="cls-7" d="M80.24,58.79c.07.17.12.29.14.36a.64.64,0,0,1,0,.45.74.74,0,0,1-1.29,0c-.26-.44-.5-.89-.73-1.37s-.45-.94-.68-1.42c-.2.2-.41.39-.63.59l-.57.49c0,.23,0,.46,0,.69a4.92,4.92,0,0,1,0,.67.88.88,0,0,1-.17.53.62.62,0,0,1-.5.21.63.63,0,0,1-.54-.16.88.88,0,0,1-.19-.5c0-.34-.06-.76-.09-1.27s0-1.05-.06-1.63,0-1.15,0-1.74,0-1.12,0-1.62a1,1,0,0,1,0-.24.36.36,0,0,1,.12-.18,1,1,0,0,1,.25-.13,2.11,2.11,0,0,1,.42-.06,1.41,1.41,0,0,1,.39,0,.55.55,0,0,1,.24.13.46.46,0,0,1,.13.21,1,1,0,0,1,0,.24c0,1,0,1.9,0,2.8.48-.5,1-1,1.44-1.55l1.38-1.51a1.18,1.18,0,0,1,.55-.33.67.67,0,0,1,.58.18.73.73,0,0,1,.07,1.09q-.39.47-.81.93c-.28.31-.57.61-.87.91.08.14.17.32.27.53l.32.66.33.72.3.68C80.1,58.44,80.18,58.63,80.24,58.79Z"/><path class="cls-7" d="M87.53,57.83A3.39,3.39,0,0,1,86.75,59a3.62,3.62,0,0,1-1.16.75,4.06,4.06,0,0,1-1.4.28,3.66,3.66,0,0,1-1.41-.22,3.2,3.2,0,0,1-1.15-.72,3.56,3.56,0,0,1-.77-1.17,4.19,4.19,0,0,1-.29-1.6,4.13,4.13,0,0,1,.26-1.47,3.53,3.53,0,0,1,.72-1.18,3.58,3.58,0,0,1,1.14-.81,4.46,4.46,0,0,1,1.5-.35,3.55,3.55,0,0,1,1.48.21,3,3,0,0,1,1.15.76,3.37,3.37,0,0,1,.74,1.23,4.57,4.57,0,0,1,.26,1.61A3.71,3.71,0,0,1,87.53,57.83ZM85,58.38a1.85,1.85,0,0,0,.66-.47,2.16,2.16,0,0,0,.43-.72,2.89,2.89,0,0,0,.15-1,2.78,2.78,0,0,0-.16-1,2.16,2.16,0,0,0-.43-.72,1.85,1.85,0,0,0-.64-.43,2.19,2.19,0,0,0-.77-.13,2.29,2.29,0,0,0-.8.19,2.11,2.11,0,0,0-.63.48,2.24,2.24,0,0,0-.41.73,2.75,2.75,0,0,0-.15.93,2.94,2.94,0,0,0,.16,1,2.34,2.34,0,0,0,.43.72,1.68,1.68,0,0,0,.62.44,1.71,1.71,0,0,0,.74.14A1.77,1.77,0,0,0,85,58.38Z"/><path class="cls-7" d="M94,56.31a1.82,1.82,0,0,1-.79.81c.06.16.13.32.2.48s.15.34.22.51l.2.5q.09.24.15.45a.71.71,0,0,1,0,.49.66.66,0,0,1-.45.37.71.71,0,0,1-.5,0,.92.92,0,0,1-.4-.41c0-.06-.08-.18-.16-.34l-.24-.55L92,58c-.08-.21-.16-.38-.22-.54-.3,0-.58.05-.85.06a6.43,6.43,0,0,1-.85,0V58c0,.15,0,.31,0,.46s0,.29,0,.41,0,.24,0,.32a1.28,1.28,0,0,1-.21.66.69.69,0,0,1-.59.22.74.74,0,0,1-.52-.17,1,1,0,0,1-.19-.63c0-.47,0-1,0-1.48s0-1,0-1.57,0-1.05,0-1.56,0-1,0-1.5a.64.64,0,0,1,.08-.3.39.39,0,0,1,.24-.11l.61-.05.71,0h1.43a4.45,4.45,0,0,1,1.14.14,2.48,2.48,0,0,1,.86.43,1.87,1.87,0,0,1,.55.72,2.41,2.41,0,0,1,.21,1A2.68,2.68,0,0,1,94,56.31ZM90.1,55.12c0,.36,0,.69,0,1l.35,0h.8a2.68,2.68,0,0,0,.33,0,1.76,1.76,0,0,0,.82-.27.87.87,0,0,0,.32-.74,1,1,0,0,0-.07-.49.75.75,0,0,0-.23-.32,1,1,0,0,0-.36-.17,3.28,3.28,0,0,0-.49-.06h-.7l-.72,0C90.13,54.44,90.12,54.77,90.1,55.12Z"/><path class="cls-7" d="M97.53,58.42l-1.24,0a1.53,1.53,0,0,1-.08.26c0,.1-.07.19-.11.28a1.69,1.69,0,0,1-.1.27l-.09.2a.77.77,0,0,1-.36.46A.79.79,0,0,1,95,60a.59.59,0,0,1-.44-.26.69.69,0,0,1,0-.5c.12-.44.25-.94.41-1.51s.33-1.15.5-1.74.34-1.15.51-1.69.32-1,.45-1.4a.72.72,0,0,1,.17-.23.55.55,0,0,1,.25-.13l.35,0,.41,0H98l.35,0a.52.52,0,0,1,.42.41c.14.42.28.89.44,1.42s.31,1.07.47,1.64.31,1.12.45,1.67.28,1.06.39,1.5a.82.82,0,0,1,0,.54.57.57,0,0,1-.42.31,1.56,1.56,0,0,1-.3.07.45.45,0,0,1-.23,0,.37.37,0,0,1-.17-.14,1.87,1.87,0,0,1-.16-.32c0-.07-.06-.16-.1-.27s-.08-.21-.12-.33-.09-.22-.13-.34-.08-.21-.12-.3Zm-.6-2.09c-.08.28-.15.55-.23.79l.86,0,.86,0c-.06-.24-.14-.5-.22-.78s-.15-.56-.23-.84-.15-.55-.22-.81-.13-.49-.18-.71q-.07.35-.18.75c-.07.27-.14.55-.22.83Z"/><line class="cls-9" x1="26.49" y1="174.32" x2="149.22" y2="174.32"/></g></g></svg>